G04 #@! TF.GenerationSoftware,KiCad,Pcbnew,7.0.11*
G04 #@! TF.CreationDate,2024-02-28T18:49:23+09:00*
G04 #@! TF.ProjectId,F02-Func-Decoder-p,4630322d-4675-46e6-932d-4465636f6465,rev?*
G04 #@! TF.SameCoordinates,Original*
G04 #@! TF.FileFunction,Paste,Top*
G04 #@! TF.FilePolarity,Positive*
%FSLAX46Y46*%
G04 Gerber Fmt 4.6, Leading zero omitted, Abs format (unit mm)*
G04 Created by KiCad (PCBNEW 7.0.11) date 2024-02-28 18:49:23*
%MOMM*%
%LPD*%
G01*
G04 APERTURE LIST*
G04 Aperture macros list*
%AMRoundRect*
0 Rectangle with rounded corners*
0 $1 Rounding radius*
0 $2 $3 $4 $5 $6 $7 $8 $9 X,Y pos of 4 corners*
0 Add a 4 corners polygon primitive as box body*
4,1,4,$2,$3,$4,$5,$6,$7,$8,$9,$2,$3,0*
0 Add four circle primitives for the rounded corners*
1,1,$1+$1,$2,$3*
1,1,$1+$1,$4,$5*
1,1,$1+$1,$6,$7*
1,1,$1+$1,$8,$9*
0 Add four rect primitives between the rounded corners*
20,1,$1+$1,$2,$3,$4,$5,0*
20,1,$1+$1,$4,$5,$6,$7,0*
20,1,$1+$1,$6,$7,$8,$9,0*
20,1,$1+$1,$8,$9,$2,$3,0*%
%AMFreePoly0*
4,1,14,0.334644,0.085355,0.385355,0.034644,0.400000,-0.000711,0.400000,-0.050000,0.385355,-0.085355,0.350000,-0.100000,-0.350000,-0.100000,-0.385355,-0.085355,-0.400000,-0.050000,-0.400000,0.050000,-0.385355,0.085355,-0.350000,0.100000,0.299289,0.100000,0.334644,0.085355,0.334644,0.085355,$1*%
%AMFreePoly1*
4,1,14,0.385355,0.085355,0.400000,0.050000,0.400000,0.000711,0.385355,-0.034644,0.334644,-0.085355,0.299289,-0.100000,-0.350000,-0.100000,-0.385355,-0.085355,-0.400000,-0.050000,-0.400000,0.050000,-0.385355,0.085355,-0.350000,0.100000,0.350000,0.100000,0.385355,0.085355,0.385355,0.085355,$1*%
%AMFreePoly2*
4,1,14,0.085355,0.385355,0.100000,0.350000,0.100000,-0.350000,0.085355,-0.385355,0.050000,-0.400000,-0.050000,-0.400000,-0.085355,-0.385355,-0.100000,-0.350000,-0.100000,0.299289,-0.085355,0.334644,-0.034644,0.385355,0.000711,0.400000,0.050000,0.400000,0.085355,0.385355,0.085355,0.385355,$1*%
%AMFreePoly3*
4,1,14,0.034644,0.385355,0.085355,0.334644,0.100000,0.299289,0.100000,-0.350000,0.085355,-0.385355,0.050000,-0.400000,-0.050000,-0.400000,-0.085355,-0.385355,-0.100000,-0.350000,-0.100000,0.350000,-0.085355,0.385355,-0.050000,0.400000,-0.000711,0.400000,0.034644,0.385355,0.034644,0.385355,$1*%
%AMFreePoly4*
4,1,14,0.385355,0.085355,0.400000,0.050000,0.400000,-0.050000,0.385355,-0.085355,0.350000,-0.100000,-0.299289,-0.100000,-0.334644,-0.085355,-0.385355,-0.034644,-0.400000,0.000711,-0.400000,0.050000,-0.385355,0.085355,-0.350000,0.100000,0.350000,0.100000,0.385355,0.085355,0.385355,0.085355,$1*%
%AMFreePoly5*
4,1,14,0.385355,0.085355,0.400000,0.050000,0.400000,-0.050000,0.385355,-0.085355,0.350000,-0.100000,-0.350000,-0.100000,-0.385355,-0.085355,-0.400000,-0.050000,-0.400000,-0.000711,-0.385355,0.034644,-0.334644,0.085355,-0.299289,0.100000,0.350000,0.100000,0.385355,0.085355,0.385355,0.085355,$1*%
%AMFreePoly6*
4,1,14,0.085355,0.385355,0.100000,0.350000,0.100000,-0.299289,0.085355,-0.334644,0.034644,-0.385355,-0.000711,-0.400000,-0.050000,-0.400000,-0.085355,-0.385355,-0.100000,-0.350000,-0.100000,0.350000,-0.085355,0.385355,-0.050000,0.400000,0.050000,0.400000,0.085355,0.385355,0.085355,0.385355,$1*%
%AMFreePoly7*
4,1,14,0.085355,0.385355,0.100000,0.350000,0.100000,-0.350000,0.085355,-0.385355,0.050000,-0.400000,0.000711,-0.400000,-0.034644,-0.385355,-0.085355,-0.334644,-0.100000,-0.299289,-0.100000,0.350000,-0.085355,0.385355,-0.050000,0.400000,0.050000,0.400000,0.085355,0.385355,0.085355,0.385355,$1*%
G04 Aperture macros list end*
%ADD10R,0.650000X0.900000*%
%ADD11R,0.550000X0.500000*%
%ADD12R,0.700000X0.800000*%
%ADD13C,2.000000*%
%ADD14R,0.900000X1.200000*%
%ADD15R,0.900000X0.800000*%
%ADD16R,0.800000X1.000000*%
%ADD17R,0.500000X0.550000*%
%ADD18RoundRect,0.172500X-0.172500X0.172500X-0.172500X-0.172500X0.172500X-0.172500X0.172500X0.172500X0*%
%ADD19FreePoly0,270.000000*%
%ADD20RoundRect,0.050000X-0.050000X0.350000X-0.050000X-0.350000X0.050000X-0.350000X0.050000X0.350000X0*%
%ADD21FreePoly1,270.000000*%
%ADD22FreePoly2,270.000000*%
%ADD23RoundRect,0.050000X-0.350000X0.050000X-0.350000X-0.050000X0.350000X-0.050000X0.350000X0.050000X0*%
%ADD24FreePoly3,270.000000*%
%ADD25FreePoly4,270.000000*%
%ADD26FreePoly5,270.000000*%
%ADD27FreePoly6,270.000000*%
%ADD28FreePoly7,270.000000*%
%ADD29R,1.000000X0.800000*%
%ADD30R,0.900000X0.650000*%
%ADD31R,0.800000X0.900000*%
%ADD32R,0.800000X0.800000*%
%ADD33RoundRect,0.172500X0.172500X-0.172500X0.172500X0.172500X-0.172500X0.172500X-0.172500X-0.172500X0*%
%ADD34FreePoly0,90.000000*%
%ADD35RoundRect,0.050000X0.050000X-0.350000X0.050000X0.350000X-0.050000X0.350000X-0.050000X-0.350000X0*%
%ADD36FreePoly1,90.000000*%
%ADD37FreePoly2,90.000000*%
%ADD38RoundRect,0.050000X0.350000X-0.050000X0.350000X0.050000X-0.350000X0.050000X-0.350000X-0.050000X0*%
%ADD39FreePoly3,90.000000*%
%ADD40FreePoly4,90.000000*%
%ADD41FreePoly5,90.000000*%
%ADD42FreePoly6,90.000000*%
%ADD43FreePoly7,90.000000*%
G04 APERTURE END LIST*
D10*
X166725000Y-98700000D03*
X165275000Y-98700000D03*
D11*
X149050000Y-94750000D03*
X147950000Y-94750000D03*
D12*
X185250000Y-113975000D03*
X185250000Y-115525000D03*
D13*
X156000000Y-129000000D03*
D12*
X122250000Y-113975000D03*
X122250000Y-115525000D03*
D10*
X118275000Y-79300000D03*
X119725000Y-79300000D03*
D14*
X156750000Y-74200000D03*
D15*
X156750000Y-76000000D03*
X158750000Y-76000000D03*
X158750000Y-74000000D03*
D16*
X122950000Y-101700000D03*
X121050000Y-101700000D03*
X122000000Y-103800000D03*
D10*
X188775000Y-111750000D03*
X190225000Y-111750000D03*
D17*
X107750000Y-115050000D03*
X107750000Y-113950000D03*
D16*
X171050000Y-58300000D03*
X172950000Y-58300000D03*
X172000000Y-56200000D03*
D12*
X108750000Y-82025000D03*
X108750000Y-80475000D03*
D11*
X135950000Y-65250000D03*
X137050000Y-65250000D03*
D10*
X127275000Y-61300000D03*
X128725000Y-61300000D03*
D16*
X158950000Y-119700000D03*
X157050000Y-119700000D03*
X158000000Y-121800000D03*
D18*
X182175000Y-85575000D03*
X181325000Y-85575000D03*
X182175000Y-86425000D03*
X181325000Y-86425000D03*
D19*
X182550000Y-84550000D03*
D20*
X182150000Y-84550000D03*
X181750000Y-84550000D03*
X181350000Y-84550000D03*
D21*
X180950000Y-84550000D03*
D22*
X180300000Y-85200000D03*
D23*
X180300000Y-85600000D03*
X180300000Y-86000000D03*
X180300000Y-86400000D03*
D24*
X180300000Y-86800000D03*
D25*
X180950000Y-87450000D03*
D20*
X181350000Y-87450000D03*
X181750000Y-87450000D03*
X182150000Y-87450000D03*
D26*
X182550000Y-87450000D03*
D27*
X183200000Y-86800000D03*
D23*
X183200000Y-86400000D03*
X183200000Y-86000000D03*
X183200000Y-85600000D03*
D28*
X183200000Y-85200000D03*
D29*
X182050000Y-116950000D03*
X182050000Y-115050000D03*
X179950000Y-116000000D03*
D17*
X168250000Y-80950000D03*
X168250000Y-82050000D03*
D30*
X162250000Y-77775000D03*
X162250000Y-79225000D03*
X122750000Y-100225000D03*
X122750000Y-98775000D03*
D12*
X158250000Y-113975000D03*
X158250000Y-115525000D03*
D16*
X140950000Y-119700000D03*
X139050000Y-119700000D03*
X140000000Y-121800000D03*
D10*
X107775000Y-100250000D03*
X109225000Y-100250000D03*
D29*
X174950000Y-79050000D03*
X174950000Y-80950000D03*
X177050000Y-80000000D03*
D12*
X158250000Y-95975000D03*
X158250000Y-97525000D03*
D11*
X144950000Y-65250000D03*
X146050000Y-65250000D03*
D31*
X110150000Y-118250000D03*
X112250000Y-118250000D03*
D11*
X167050000Y-112750000D03*
X165950000Y-112750000D03*
D31*
X120850000Y-59750000D03*
X118750000Y-59750000D03*
D10*
X136025000Y-113250000D03*
X137475000Y-113250000D03*
D31*
X111850000Y-59750000D03*
X109750000Y-59750000D03*
D13*
X156000000Y-49000000D03*
D17*
X123250000Y-62950000D03*
X123250000Y-64050000D03*
D16*
X122950000Y-119700000D03*
X121050000Y-119700000D03*
X122000000Y-121800000D03*
D10*
X193975000Y-82750000D03*
X192525000Y-82750000D03*
D12*
X180750000Y-64025000D03*
X180750000Y-62475000D03*
D11*
X185050000Y-112750000D03*
X183950000Y-112750000D03*
D32*
X130000000Y-113975000D03*
X130000000Y-115525000D03*
D12*
X135750000Y-82025000D03*
X135750000Y-80475000D03*
D33*
X192825000Y-110425000D03*
X193675000Y-110425000D03*
X192825000Y-109575000D03*
X193675000Y-109575000D03*
D34*
X192450000Y-111450000D03*
D35*
X192850000Y-111450000D03*
X193250000Y-111450000D03*
X193650000Y-111450000D03*
D36*
X194050000Y-111450000D03*
D37*
X194700000Y-110800000D03*
D38*
X194700000Y-110400000D03*
X194700000Y-110000000D03*
X194700000Y-109600000D03*
D39*
X194700000Y-109200000D03*
D40*
X194050000Y-108550000D03*
D35*
X193650000Y-108550000D03*
X193250000Y-108550000D03*
X192850000Y-108550000D03*
D41*
X192450000Y-108550000D03*
D42*
X191800000Y-109200000D03*
D38*
X191800000Y-109600000D03*
X191800000Y-110000000D03*
X191800000Y-110400000D03*
D43*
X191800000Y-110800000D03*
D30*
X108250000Y-59775000D03*
X108250000Y-61225000D03*
D14*
X119250000Y-103800000D03*
D15*
X119250000Y-102000000D03*
X117250000Y-102000000D03*
X117250000Y-104000000D03*
D10*
X157975000Y-82750000D03*
X156525000Y-82750000D03*
D33*
X156825000Y-110425000D03*
X157675000Y-110425000D03*
X156825000Y-109575000D03*
X157675000Y-109575000D03*
D34*
X156450000Y-111450000D03*
D35*
X156850000Y-111450000D03*
X157250000Y-111450000D03*
X157650000Y-111450000D03*
D36*
X158050000Y-111450000D03*
D37*
X158700000Y-110800000D03*
D38*
X158700000Y-110400000D03*
X158700000Y-110000000D03*
X158700000Y-109600000D03*
D39*
X158700000Y-109200000D03*
D40*
X158050000Y-108550000D03*
D35*
X157650000Y-108550000D03*
X157250000Y-108550000D03*
X156850000Y-108550000D03*
D41*
X156450000Y-108550000D03*
D42*
X155800000Y-109200000D03*
D38*
X155800000Y-109600000D03*
X155800000Y-110000000D03*
X155800000Y-110400000D03*
D43*
X155800000Y-110800000D03*
D10*
X127025000Y-95250000D03*
X128475000Y-95250000D03*
D30*
X194750000Y-118225000D03*
X194750000Y-116775000D03*
X140750000Y-100225000D03*
X140750000Y-98775000D03*
D16*
X176950000Y-101700000D03*
X175050000Y-101700000D03*
X176000000Y-103800000D03*
D10*
X152775000Y-100250000D03*
X154225000Y-100250000D03*
D33*
X120825000Y-92425000D03*
X121675000Y-92425000D03*
X120825000Y-91575000D03*
X121675000Y-91575000D03*
D34*
X120450000Y-93450000D03*
D35*
X120850000Y-93450000D03*
X121250000Y-93450000D03*
X121650000Y-93450000D03*
D36*
X122050000Y-93450000D03*
D37*
X122700000Y-92800000D03*
D38*
X122700000Y-92400000D03*
X122700000Y-92000000D03*
X122700000Y-91600000D03*
D39*
X122700000Y-91200000D03*
D40*
X122050000Y-90550000D03*
D35*
X121650000Y-90550000D03*
X121250000Y-90550000D03*
X120850000Y-90550000D03*
D41*
X120450000Y-90550000D03*
D42*
X119800000Y-91200000D03*
D38*
X119800000Y-91600000D03*
X119800000Y-92000000D03*
X119800000Y-92400000D03*
D43*
X119800000Y-92800000D03*
D10*
X139725000Y-116700000D03*
X138275000Y-116700000D03*
D30*
X171250000Y-77775000D03*
X171250000Y-79225000D03*
D32*
X173000000Y-64025000D03*
X173000000Y-62475000D03*
D14*
X173250000Y-121800000D03*
D15*
X173250000Y-120000000D03*
X171250000Y-120000000D03*
X171250000Y-122000000D03*
D30*
X144250000Y-59775000D03*
X144250000Y-61225000D03*
D10*
X116775000Y-100250000D03*
X118225000Y-100250000D03*
D12*
X185250000Y-95975000D03*
X185250000Y-97525000D03*
D29*
X128050000Y-98950000D03*
X128050000Y-97050000D03*
X125950000Y-98000000D03*
D10*
X195225000Y-77750000D03*
X193775000Y-77750000D03*
X143775000Y-111750000D03*
X145225000Y-111750000D03*
D13*
X165000000Y-49000000D03*
D10*
X136275000Y-61300000D03*
X137725000Y-61300000D03*
X118025000Y-113250000D03*
X119475000Y-113250000D03*
D11*
X131050000Y-94750000D03*
X129950000Y-94750000D03*
D29*
X173050000Y-116950000D03*
X173050000Y-115050000D03*
X170950000Y-116000000D03*
D10*
X123225000Y-66250000D03*
X121775000Y-66250000D03*
D30*
X158750000Y-118225000D03*
X158750000Y-116775000D03*
D17*
X143750000Y-97050000D03*
X143750000Y-95950000D03*
D14*
X155250000Y-121800000D03*
D15*
X155250000Y-120000000D03*
X153250000Y-120000000D03*
X153250000Y-122000000D03*
D17*
X143750000Y-115050000D03*
X143750000Y-113950000D03*
X141250000Y-62950000D03*
X141250000Y-64050000D03*
D30*
X171250000Y-59775000D03*
X171250000Y-61225000D03*
X153250000Y-59775000D03*
X153250000Y-61225000D03*
D29*
X120950000Y-79050000D03*
X120950000Y-80950000D03*
X123050000Y-80000000D03*
D10*
X132225000Y-84250000D03*
X130775000Y-84250000D03*
D12*
X167250000Y-95975000D03*
X167250000Y-97525000D03*
D14*
X111750000Y-56200000D03*
D15*
X111750000Y-58000000D03*
X113750000Y-58000000D03*
X113750000Y-56000000D03*
D17*
X188750000Y-115050000D03*
X188750000Y-113950000D03*
D32*
X128000000Y-82025000D03*
X128000000Y-80475000D03*
D10*
X170775000Y-100250000D03*
X172225000Y-100250000D03*
D13*
X129000000Y-129000000D03*
D18*
X137175000Y-67575000D03*
X136325000Y-67575000D03*
X137175000Y-68425000D03*
X136325000Y-68425000D03*
D19*
X137550000Y-66550000D03*
D20*
X137150000Y-66550000D03*
X136750000Y-66550000D03*
X136350000Y-66550000D03*
D21*
X135950000Y-66550000D03*
D22*
X135300000Y-67200000D03*
D23*
X135300000Y-67600000D03*
X135300000Y-68000000D03*
X135300000Y-68400000D03*
D24*
X135300000Y-68800000D03*
D25*
X135950000Y-69450000D03*
D20*
X136350000Y-69450000D03*
X136750000Y-69450000D03*
X137150000Y-69450000D03*
D26*
X137550000Y-69450000D03*
D27*
X138200000Y-68800000D03*
D23*
X138200000Y-68400000D03*
X138200000Y-68000000D03*
X138200000Y-67600000D03*
D28*
X138200000Y-67200000D03*
D14*
X183750000Y-74200000D03*
D15*
X183750000Y-76000000D03*
X185750000Y-76000000D03*
X185750000Y-74000000D03*
D16*
X167950000Y-101700000D03*
X166050000Y-101700000D03*
X167000000Y-103800000D03*
D17*
X123250000Y-80950000D03*
X123250000Y-82050000D03*
D13*
X120000000Y-129000000D03*
D10*
X177225000Y-59750000D03*
X175775000Y-59750000D03*
D12*
X194250000Y-95975000D03*
X194250000Y-97525000D03*
D13*
X120000000Y-49000000D03*
D10*
X112725000Y-116700000D03*
X111275000Y-116700000D03*
X134775000Y-100250000D03*
X136225000Y-100250000D03*
X175975000Y-64750000D03*
X174525000Y-64750000D03*
D12*
X113250000Y-95975000D03*
X113250000Y-97525000D03*
D17*
X186250000Y-62950000D03*
X186250000Y-64050000D03*
D33*
X147825000Y-92425000D03*
X148675000Y-92425000D03*
X147825000Y-91575000D03*
X148675000Y-91575000D03*
D34*
X147450000Y-93450000D03*
D35*
X147850000Y-93450000D03*
X148250000Y-93450000D03*
X148650000Y-93450000D03*
D36*
X149050000Y-93450000D03*
D37*
X149700000Y-92800000D03*
D38*
X149700000Y-92400000D03*
X149700000Y-92000000D03*
X149700000Y-91600000D03*
D39*
X149700000Y-91200000D03*
D40*
X149050000Y-90550000D03*
D35*
X148650000Y-90550000D03*
X148250000Y-90550000D03*
X147850000Y-90550000D03*
D41*
X147450000Y-90550000D03*
D42*
X146800000Y-91200000D03*
D38*
X146800000Y-91600000D03*
X146800000Y-92000000D03*
X146800000Y-92400000D03*
D43*
X146800000Y-92800000D03*
D10*
X161775000Y-100250000D03*
X163225000Y-100250000D03*
D16*
X135050000Y-76300000D03*
X136950000Y-76300000D03*
X136000000Y-74200000D03*
D31*
X119150000Y-100250000D03*
X121250000Y-100250000D03*
D33*
X183825000Y-110425000D03*
X184675000Y-110425000D03*
X183825000Y-109575000D03*
X184675000Y-109575000D03*
D34*
X183450000Y-111450000D03*
D35*
X183850000Y-111450000D03*
X184250000Y-111450000D03*
X184650000Y-111450000D03*
D36*
X185050000Y-111450000D03*
D37*
X185700000Y-110800000D03*
D38*
X185700000Y-110400000D03*
X185700000Y-110000000D03*
X185700000Y-109600000D03*
D39*
X185700000Y-109200000D03*
D40*
X185050000Y-108550000D03*
D35*
X184650000Y-108550000D03*
X184250000Y-108550000D03*
X183850000Y-108550000D03*
D41*
X183450000Y-108550000D03*
D42*
X182800000Y-109200000D03*
D38*
X182800000Y-109600000D03*
X182800000Y-110000000D03*
X182800000Y-110400000D03*
D43*
X182800000Y-110800000D03*
D29*
X165950000Y-79050000D03*
X165950000Y-80950000D03*
X168050000Y-80000000D03*
D33*
X165825000Y-92425000D03*
X166675000Y-92425000D03*
X165825000Y-91575000D03*
X166675000Y-91575000D03*
D34*
X165450000Y-93450000D03*
D35*
X165850000Y-93450000D03*
X166250000Y-93450000D03*
X166650000Y-93450000D03*
D36*
X167050000Y-93450000D03*
D37*
X167700000Y-92800000D03*
D38*
X167700000Y-92400000D03*
X167700000Y-92000000D03*
X167700000Y-91600000D03*
D39*
X167700000Y-91200000D03*
D40*
X167050000Y-90550000D03*
D35*
X166650000Y-90550000D03*
X166250000Y-90550000D03*
X165850000Y-90550000D03*
D41*
X165450000Y-90550000D03*
D42*
X164800000Y-91200000D03*
D38*
X164800000Y-91600000D03*
X164800000Y-92000000D03*
X164800000Y-92400000D03*
D43*
X164800000Y-92800000D03*
D10*
X121975000Y-64750000D03*
X120525000Y-64750000D03*
D11*
X140050000Y-112750000D03*
X138950000Y-112750000D03*
D10*
X132225000Y-59750000D03*
X130775000Y-59750000D03*
X181025000Y-95250000D03*
X182475000Y-95250000D03*
D16*
X194950000Y-119700000D03*
X193050000Y-119700000D03*
X194000000Y-121800000D03*
D10*
X121975000Y-82750000D03*
X120525000Y-82750000D03*
D16*
X117050000Y-58300000D03*
X118950000Y-58300000D03*
X118000000Y-56200000D03*
D13*
X183000000Y-129000000D03*
D31*
X129850000Y-59750000D03*
X127750000Y-59750000D03*
D32*
X164000000Y-82025000D03*
X164000000Y-80475000D03*
D17*
X152750000Y-115050000D03*
X152750000Y-113950000D03*
X161750000Y-97050000D03*
X161750000Y-95950000D03*
D10*
X159225000Y-77750000D03*
X157775000Y-77750000D03*
D16*
X144050000Y-76300000D03*
X145950000Y-76300000D03*
X145000000Y-74200000D03*
D31*
X156850000Y-77750000D03*
X154750000Y-77750000D03*
D10*
X143775000Y-118250000D03*
X145225000Y-118250000D03*
D30*
X117250000Y-77775000D03*
X117250000Y-79225000D03*
D16*
X180050000Y-58300000D03*
X181950000Y-58300000D03*
X181000000Y-56200000D03*
D10*
X141225000Y-84250000D03*
X139775000Y-84250000D03*
X161775000Y-111750000D03*
X163225000Y-111750000D03*
X141225000Y-77750000D03*
X139775000Y-77750000D03*
D29*
X119050000Y-98950000D03*
X119050000Y-97050000D03*
X116950000Y-98000000D03*
D10*
X139725000Y-98700000D03*
X138275000Y-98700000D03*
D14*
X156750000Y-56200000D03*
D15*
X156750000Y-58000000D03*
X158750000Y-58000000D03*
X158750000Y-56000000D03*
D32*
X139000000Y-113975000D03*
X139000000Y-115525000D03*
D13*
X174000000Y-49000000D03*
D14*
X191250000Y-121800000D03*
D15*
X191250000Y-120000000D03*
X189250000Y-120000000D03*
X189250000Y-122000000D03*
D30*
X158750000Y-100225000D03*
X158750000Y-98775000D03*
D32*
X155000000Y-64025000D03*
X155000000Y-62475000D03*
D11*
X158050000Y-94750000D03*
X156950000Y-94750000D03*
D31*
X174850000Y-59750000D03*
X172750000Y-59750000D03*
D10*
X114225000Y-59750000D03*
X112775000Y-59750000D03*
D18*
X146175000Y-85575000D03*
X145325000Y-85575000D03*
X146175000Y-86425000D03*
X145325000Y-86425000D03*
D19*
X146550000Y-84550000D03*
D20*
X146150000Y-84550000D03*
X145750000Y-84550000D03*
X145350000Y-84550000D03*
D21*
X144950000Y-84550000D03*
D22*
X144300000Y-85200000D03*
D23*
X144300000Y-85600000D03*
X144300000Y-86000000D03*
X144300000Y-86400000D03*
D24*
X144300000Y-86800000D03*
D25*
X144950000Y-87450000D03*
D20*
X145350000Y-87450000D03*
X145750000Y-87450000D03*
X146150000Y-87450000D03*
D26*
X146550000Y-87450000D03*
D27*
X147200000Y-86800000D03*
D23*
X147200000Y-86400000D03*
X147200000Y-86000000D03*
X147200000Y-85600000D03*
D28*
X147200000Y-85200000D03*
D11*
X194050000Y-94750000D03*
X192950000Y-94750000D03*
D14*
X110250000Y-103800000D03*
D15*
X110250000Y-102000000D03*
X108250000Y-102000000D03*
X108250000Y-104000000D03*
D10*
X195225000Y-59750000D03*
X193775000Y-59750000D03*
D16*
X149950000Y-119700000D03*
X148050000Y-119700000D03*
X149000000Y-121800000D03*
D10*
X163025000Y-113250000D03*
X164475000Y-113250000D03*
D17*
X150250000Y-62950000D03*
X150250000Y-64050000D03*
D11*
X153950000Y-83250000D03*
X155050000Y-83250000D03*
D13*
X192000000Y-129000000D03*
D10*
X109025000Y-113250000D03*
X110475000Y-113250000D03*
X177225000Y-84250000D03*
X175775000Y-84250000D03*
D29*
X120950000Y-61050000D03*
X120950000Y-62950000D03*
X123050000Y-62000000D03*
D13*
X129000000Y-49000000D03*
D29*
X183950000Y-61050000D03*
X183950000Y-62950000D03*
X186050000Y-62000000D03*
D10*
X179775000Y-100250000D03*
X181225000Y-100250000D03*
D29*
X182050000Y-98950000D03*
X182050000Y-97050000D03*
X179950000Y-98000000D03*
D10*
X116775000Y-111750000D03*
X118225000Y-111750000D03*
X136275000Y-79300000D03*
X137725000Y-79300000D03*
D11*
X108950000Y-65250000D03*
X110050000Y-65250000D03*
D10*
X168225000Y-59750000D03*
X166775000Y-59750000D03*
D14*
X146250000Y-121800000D03*
D15*
X146250000Y-120000000D03*
X144250000Y-120000000D03*
X144250000Y-122000000D03*
D29*
X110050000Y-98950000D03*
X110050000Y-97050000D03*
X107950000Y-98000000D03*
X155050000Y-116950000D03*
X155050000Y-115050000D03*
X152950000Y-116000000D03*
D11*
X149050000Y-112750000D03*
X147950000Y-112750000D03*
D30*
X149750000Y-100225000D03*
X149750000Y-98775000D03*
D10*
X170775000Y-111750000D03*
X172225000Y-111750000D03*
D12*
X176250000Y-113975000D03*
X176250000Y-115525000D03*
X135750000Y-64025000D03*
X135750000Y-62475000D03*
D17*
X159250000Y-62950000D03*
X159250000Y-64050000D03*
D14*
X165750000Y-74200000D03*
D15*
X165750000Y-76000000D03*
X167750000Y-76000000D03*
X167750000Y-74000000D03*
D17*
X114250000Y-62950000D03*
X114250000Y-64050000D03*
D16*
X117050000Y-76300000D03*
X118950000Y-76300000D03*
X118000000Y-74200000D03*
X108050000Y-58300000D03*
X109950000Y-58300000D03*
X109000000Y-56200000D03*
D31*
X155150000Y-100250000D03*
X157250000Y-100250000D03*
D12*
X189750000Y-64025000D03*
X189750000Y-62475000D03*
D11*
X144950000Y-83250000D03*
X146050000Y-83250000D03*
D10*
X109275000Y-79300000D03*
X110725000Y-79300000D03*
D32*
X121000000Y-95975000D03*
X121000000Y-97525000D03*
D31*
X183850000Y-59750000D03*
X181750000Y-59750000D03*
D13*
X174000000Y-129000000D03*
D31*
X183850000Y-77750000D03*
X181750000Y-77750000D03*
D33*
X138825000Y-110425000D03*
X139675000Y-110425000D03*
X138825000Y-109575000D03*
X139675000Y-109575000D03*
D34*
X138450000Y-111450000D03*
D35*
X138850000Y-111450000D03*
X139250000Y-111450000D03*
X139650000Y-111450000D03*
D36*
X140050000Y-111450000D03*
D37*
X140700000Y-110800000D03*
D38*
X140700000Y-110400000D03*
X140700000Y-110000000D03*
X140700000Y-109600000D03*
D39*
X140700000Y-109200000D03*
D40*
X140050000Y-108550000D03*
D35*
X139650000Y-108550000D03*
X139250000Y-108550000D03*
X138850000Y-108550000D03*
D41*
X138450000Y-108550000D03*
D42*
X137800000Y-109200000D03*
D38*
X137800000Y-109600000D03*
X137800000Y-110000000D03*
X137800000Y-110400000D03*
D43*
X137800000Y-110800000D03*
D12*
X144750000Y-64025000D03*
X144750000Y-62475000D03*
D10*
X166975000Y-64750000D03*
X165525000Y-64750000D03*
X172025000Y-113250000D03*
X173475000Y-113250000D03*
D32*
X184000000Y-113975000D03*
X184000000Y-115525000D03*
X146000000Y-82025000D03*
X146000000Y-80475000D03*
D10*
X123225000Y-59750000D03*
X121775000Y-59750000D03*
D32*
X175000000Y-95975000D03*
X175000000Y-97525000D03*
D30*
X167750000Y-118225000D03*
X167750000Y-116775000D03*
D11*
X122050000Y-94750000D03*
X120950000Y-94750000D03*
D13*
X138000000Y-129000000D03*
D32*
X112000000Y-113975000D03*
X112000000Y-115525000D03*
D29*
X119050000Y-116950000D03*
X119050000Y-115050000D03*
X116950000Y-116000000D03*
D10*
X139975000Y-82750000D03*
X138525000Y-82750000D03*
D17*
X170750000Y-115050000D03*
X170750000Y-113950000D03*
D29*
X164050000Y-98950000D03*
X164050000Y-97050000D03*
X161950000Y-98000000D03*
D10*
X154025000Y-95250000D03*
X155475000Y-95250000D03*
D12*
X194250000Y-113975000D03*
X194250000Y-115525000D03*
D10*
X177225000Y-66250000D03*
X175775000Y-66250000D03*
D32*
X175000000Y-113975000D03*
X175000000Y-115525000D03*
D10*
X134775000Y-111750000D03*
X136225000Y-111750000D03*
D14*
X173250000Y-103800000D03*
D15*
X173250000Y-102000000D03*
X171250000Y-102000000D03*
X171250000Y-104000000D03*
D10*
X163275000Y-61300000D03*
X164725000Y-61300000D03*
D17*
X170750000Y-97050000D03*
X170750000Y-95950000D03*
D14*
X192750000Y-56200000D03*
D15*
X192750000Y-58000000D03*
X194750000Y-58000000D03*
X194750000Y-56000000D03*
D13*
X111000000Y-129000000D03*
D10*
X161775000Y-118250000D03*
X163225000Y-118250000D03*
D31*
X191150000Y-118250000D03*
X193250000Y-118250000D03*
D32*
X110000000Y-64025000D03*
X110000000Y-62475000D03*
D10*
X130975000Y-64750000D03*
X129525000Y-64750000D03*
D18*
X191175000Y-85575000D03*
X190325000Y-85575000D03*
X191175000Y-86425000D03*
X190325000Y-86425000D03*
D19*
X191550000Y-84550000D03*
D20*
X191150000Y-84550000D03*
X190750000Y-84550000D03*
X190350000Y-84550000D03*
D21*
X189950000Y-84550000D03*
D22*
X189300000Y-85200000D03*
D23*
X189300000Y-85600000D03*
X189300000Y-86000000D03*
X189300000Y-86400000D03*
D24*
X189300000Y-86800000D03*
D25*
X189950000Y-87450000D03*
D20*
X190350000Y-87450000D03*
X190750000Y-87450000D03*
X191150000Y-87450000D03*
D26*
X191550000Y-87450000D03*
D27*
X192200000Y-86800000D03*
D23*
X192200000Y-86400000D03*
X192200000Y-86000000D03*
X192200000Y-85600000D03*
D28*
X192200000Y-85200000D03*
D12*
X126750000Y-82025000D03*
X126750000Y-80475000D03*
D16*
X185950000Y-101700000D03*
X184050000Y-101700000D03*
X185000000Y-103800000D03*
D10*
X188775000Y-118250000D03*
X190225000Y-118250000D03*
X118275000Y-61300000D03*
X119725000Y-61300000D03*
X150225000Y-77750000D03*
X148775000Y-77750000D03*
D18*
X119175000Y-85575000D03*
X118325000Y-85575000D03*
X119175000Y-86425000D03*
X118325000Y-86425000D03*
D19*
X119550000Y-84550000D03*
D20*
X119150000Y-84550000D03*
X118750000Y-84550000D03*
X118350000Y-84550000D03*
D21*
X117950000Y-84550000D03*
D22*
X117300000Y-85200000D03*
D23*
X117300000Y-85600000D03*
X117300000Y-86000000D03*
X117300000Y-86400000D03*
D24*
X117300000Y-86800000D03*
D25*
X117950000Y-87450000D03*
D20*
X118350000Y-87450000D03*
X118750000Y-87450000D03*
X119150000Y-87450000D03*
D26*
X119550000Y-87450000D03*
D27*
X120200000Y-86800000D03*
D23*
X120200000Y-86400000D03*
X120200000Y-86000000D03*
X120200000Y-85600000D03*
D28*
X120200000Y-85200000D03*
D12*
X117750000Y-82025000D03*
X117750000Y-80475000D03*
D17*
X152750000Y-97050000D03*
X152750000Y-95950000D03*
D16*
X144050000Y-58300000D03*
X145950000Y-58300000D03*
X145000000Y-56200000D03*
D32*
X193000000Y-95975000D03*
X193000000Y-97525000D03*
D14*
X147750000Y-56200000D03*
D15*
X147750000Y-58000000D03*
X149750000Y-58000000D03*
X149750000Y-56000000D03*
D10*
X172275000Y-61300000D03*
X173725000Y-61300000D03*
X166725000Y-116700000D03*
X165275000Y-116700000D03*
D33*
X147825000Y-110425000D03*
X148675000Y-110425000D03*
X147825000Y-109575000D03*
X148675000Y-109575000D03*
D34*
X147450000Y-111450000D03*
D35*
X147850000Y-111450000D03*
X148250000Y-111450000D03*
X148650000Y-111450000D03*
D36*
X149050000Y-111450000D03*
D37*
X149700000Y-110800000D03*
D38*
X149700000Y-110400000D03*
X149700000Y-110000000D03*
X149700000Y-109600000D03*
D39*
X149700000Y-109200000D03*
D40*
X149050000Y-108550000D03*
D35*
X148650000Y-108550000D03*
X148250000Y-108550000D03*
X147850000Y-108550000D03*
D41*
X147450000Y-108550000D03*
D42*
X146800000Y-109200000D03*
D38*
X146800000Y-109600000D03*
X146800000Y-110000000D03*
X146800000Y-110400000D03*
D43*
X146800000Y-110800000D03*
D16*
X131950000Y-119700000D03*
X130050000Y-119700000D03*
X131000000Y-121800000D03*
D18*
X119175000Y-67575000D03*
X118325000Y-67575000D03*
X119175000Y-68425000D03*
X118325000Y-68425000D03*
D19*
X119550000Y-66550000D03*
D20*
X119150000Y-66550000D03*
X118750000Y-66550000D03*
X118350000Y-66550000D03*
D21*
X117950000Y-66550000D03*
D22*
X117300000Y-67200000D03*
D23*
X117300000Y-67600000D03*
X117300000Y-68000000D03*
X117300000Y-68400000D03*
D24*
X117300000Y-68800000D03*
D25*
X117950000Y-69450000D03*
D20*
X118350000Y-69450000D03*
X118750000Y-69450000D03*
X119150000Y-69450000D03*
D26*
X119550000Y-69450000D03*
D27*
X120200000Y-68800000D03*
D23*
X120200000Y-68400000D03*
X120200000Y-68000000D03*
X120200000Y-67600000D03*
D28*
X120200000Y-67200000D03*
D14*
X147750000Y-74200000D03*
D15*
X147750000Y-76000000D03*
X149750000Y-76000000D03*
X149750000Y-74000000D03*
D30*
X108250000Y-77775000D03*
X108250000Y-79225000D03*
D29*
X146050000Y-98950000D03*
X146050000Y-97050000D03*
X143950000Y-98000000D03*
D10*
X170775000Y-93750000D03*
X172225000Y-93750000D03*
D17*
X134750000Y-115050000D03*
X134750000Y-113950000D03*
D32*
X155000000Y-82025000D03*
X155000000Y-80475000D03*
D16*
X171050000Y-76300000D03*
X172950000Y-76300000D03*
X172000000Y-74200000D03*
D17*
X107750000Y-97050000D03*
X107750000Y-95950000D03*
D10*
X163275000Y-79300000D03*
X164725000Y-79300000D03*
X121725000Y-116700000D03*
X120275000Y-116700000D03*
D11*
X171950000Y-65250000D03*
X173050000Y-65250000D03*
D17*
X159250000Y-80950000D03*
X159250000Y-82050000D03*
D10*
X132225000Y-66250000D03*
X130775000Y-66250000D03*
X127275000Y-79300000D03*
X128725000Y-79300000D03*
D11*
X189950000Y-83250000D03*
X191050000Y-83250000D03*
D14*
X182250000Y-103800000D03*
D15*
X182250000Y-102000000D03*
X180250000Y-102000000D03*
X180250000Y-104000000D03*
D10*
X143775000Y-93750000D03*
X145225000Y-93750000D03*
D32*
X182000000Y-64025000D03*
X182000000Y-62475000D03*
D12*
X176250000Y-95975000D03*
X176250000Y-97525000D03*
D29*
X147950000Y-79050000D03*
X147950000Y-80950000D03*
X150050000Y-80000000D03*
D16*
X126050000Y-58300000D03*
X127950000Y-58300000D03*
X127000000Y-56200000D03*
D18*
X128175000Y-67575000D03*
X127325000Y-67575000D03*
X128175000Y-68425000D03*
X127325000Y-68425000D03*
D19*
X128550000Y-66550000D03*
D20*
X128150000Y-66550000D03*
X127750000Y-66550000D03*
X127350000Y-66550000D03*
D21*
X126950000Y-66550000D03*
D22*
X126300000Y-67200000D03*
D23*
X126300000Y-67600000D03*
X126300000Y-68000000D03*
X126300000Y-68400000D03*
D24*
X126300000Y-68800000D03*
D25*
X126950000Y-69450000D03*
D20*
X127350000Y-69450000D03*
X127750000Y-69450000D03*
X128150000Y-69450000D03*
D26*
X128550000Y-69450000D03*
D27*
X129200000Y-68800000D03*
D23*
X129200000Y-68400000D03*
X129200000Y-68000000D03*
X129200000Y-67600000D03*
D28*
X129200000Y-67200000D03*
D16*
X153050000Y-76300000D03*
X154950000Y-76300000D03*
X154000000Y-74200000D03*
D18*
X146175000Y-67575000D03*
X145325000Y-67575000D03*
X146175000Y-68425000D03*
X145325000Y-68425000D03*
D19*
X146550000Y-66550000D03*
D20*
X146150000Y-66550000D03*
X145750000Y-66550000D03*
X145350000Y-66550000D03*
D21*
X144950000Y-66550000D03*
D22*
X144300000Y-67200000D03*
D23*
X144300000Y-67600000D03*
X144300000Y-68000000D03*
X144300000Y-68400000D03*
D24*
X144300000Y-68800000D03*
D25*
X144950000Y-69450000D03*
D20*
X145350000Y-69450000D03*
X145750000Y-69450000D03*
X146150000Y-69450000D03*
D26*
X146550000Y-69450000D03*
D27*
X147200000Y-68800000D03*
D23*
X147200000Y-68400000D03*
X147200000Y-68000000D03*
X147200000Y-67600000D03*
D28*
X147200000Y-67200000D03*
D33*
X183825000Y-92425000D03*
X184675000Y-92425000D03*
X183825000Y-91575000D03*
X184675000Y-91575000D03*
D34*
X183450000Y-93450000D03*
D35*
X183850000Y-93450000D03*
X184250000Y-93450000D03*
X184650000Y-93450000D03*
D36*
X185050000Y-93450000D03*
D37*
X185700000Y-92800000D03*
D38*
X185700000Y-92400000D03*
X185700000Y-92000000D03*
X185700000Y-91600000D03*
D39*
X185700000Y-91200000D03*
D40*
X185050000Y-90550000D03*
D35*
X184650000Y-90550000D03*
X184250000Y-90550000D03*
X183850000Y-90550000D03*
D41*
X183450000Y-90550000D03*
D42*
X182800000Y-91200000D03*
D38*
X182800000Y-91600000D03*
X182800000Y-92000000D03*
X182800000Y-92400000D03*
D43*
X182800000Y-92800000D03*
D10*
X116775000Y-118250000D03*
X118225000Y-118250000D03*
D31*
X156850000Y-59750000D03*
X154750000Y-59750000D03*
D10*
X186225000Y-77750000D03*
X184775000Y-77750000D03*
D13*
X183000000Y-49000000D03*
D10*
X154275000Y-61300000D03*
X155725000Y-61300000D03*
X186225000Y-66250000D03*
X184775000Y-66250000D03*
X179775000Y-93750000D03*
X181225000Y-93750000D03*
D14*
X129750000Y-56200000D03*
D15*
X129750000Y-58000000D03*
X131750000Y-58000000D03*
X131750000Y-56000000D03*
D16*
X149950000Y-101700000D03*
X148050000Y-101700000D03*
X149000000Y-103800000D03*
D12*
X149250000Y-95975000D03*
X149250000Y-97525000D03*
D14*
X164250000Y-103800000D03*
D15*
X164250000Y-102000000D03*
X162250000Y-102000000D03*
X162250000Y-104000000D03*
D18*
X164175000Y-67575000D03*
X163325000Y-67575000D03*
X164175000Y-68425000D03*
X163325000Y-68425000D03*
D19*
X164550000Y-66550000D03*
D20*
X164150000Y-66550000D03*
X163750000Y-66550000D03*
X163350000Y-66550000D03*
D21*
X162950000Y-66550000D03*
D22*
X162300000Y-67200000D03*
D23*
X162300000Y-67600000D03*
X162300000Y-68000000D03*
X162300000Y-68400000D03*
D24*
X162300000Y-68800000D03*
D25*
X162950000Y-69450000D03*
D20*
X163350000Y-69450000D03*
X163750000Y-69450000D03*
X164150000Y-69450000D03*
D26*
X164550000Y-69450000D03*
D27*
X165200000Y-68800000D03*
D23*
X165200000Y-68400000D03*
X165200000Y-68000000D03*
X165200000Y-67600000D03*
D28*
X165200000Y-67200000D03*
D32*
X130000000Y-95975000D03*
X130000000Y-97525000D03*
D14*
X165750000Y-56200000D03*
D15*
X165750000Y-58000000D03*
X167750000Y-58000000D03*
X167750000Y-56000000D03*
D29*
X138950000Y-61050000D03*
X138950000Y-62950000D03*
X141050000Y-62000000D03*
D32*
X191000000Y-64025000D03*
X191000000Y-62475000D03*
X157000000Y-113975000D03*
X157000000Y-115525000D03*
D31*
X110150000Y-100250000D03*
X112250000Y-100250000D03*
D29*
X164050000Y-116950000D03*
X164050000Y-115050000D03*
X161950000Y-116000000D03*
X147950000Y-61050000D03*
X147950000Y-62950000D03*
X150050000Y-62000000D03*
D16*
X113950000Y-101700000D03*
X112050000Y-101700000D03*
X113000000Y-103800000D03*
D10*
X193725000Y-98700000D03*
X192275000Y-98700000D03*
D12*
X171750000Y-64025000D03*
X171750000Y-62475000D03*
D29*
X192950000Y-61050000D03*
X192950000Y-62950000D03*
X195050000Y-62000000D03*
D10*
X130725000Y-98700000D03*
X129275000Y-98700000D03*
X112725000Y-98700000D03*
X111275000Y-98700000D03*
D17*
X125750000Y-115050000D03*
X125750000Y-113950000D03*
D13*
X111000000Y-49000000D03*
D10*
X127025000Y-113250000D03*
X128475000Y-113250000D03*
X190275000Y-79300000D03*
X191725000Y-79300000D03*
D16*
X126050000Y-76300000D03*
X127950000Y-76300000D03*
X127000000Y-74200000D03*
D12*
X162750000Y-64025000D03*
X162750000Y-62475000D03*
D10*
X114225000Y-66250000D03*
X112775000Y-66250000D03*
D12*
X149250000Y-113975000D03*
X149250000Y-115525000D03*
D14*
X138750000Y-74200000D03*
D15*
X138750000Y-76000000D03*
X140750000Y-76000000D03*
X140750000Y-74000000D03*
D14*
X164250000Y-121800000D03*
D15*
X164250000Y-120000000D03*
X162250000Y-120000000D03*
X162250000Y-122000000D03*
D14*
X129750000Y-74200000D03*
D15*
X129750000Y-76000000D03*
X131750000Y-76000000D03*
X131750000Y-74000000D03*
D18*
X173175000Y-67575000D03*
X172325000Y-67575000D03*
X173175000Y-68425000D03*
X172325000Y-68425000D03*
D19*
X173550000Y-66550000D03*
D20*
X173150000Y-66550000D03*
X172750000Y-66550000D03*
X172350000Y-66550000D03*
D21*
X171950000Y-66550000D03*
D22*
X171300000Y-67200000D03*
D23*
X171300000Y-67600000D03*
X171300000Y-68000000D03*
X171300000Y-68400000D03*
D24*
X171300000Y-68800000D03*
D25*
X171950000Y-69450000D03*
D20*
X172350000Y-69450000D03*
X172750000Y-69450000D03*
X173150000Y-69450000D03*
D26*
X173550000Y-69450000D03*
D27*
X174200000Y-68800000D03*
D23*
X174200000Y-68400000D03*
X174200000Y-68000000D03*
X174200000Y-67600000D03*
D28*
X174200000Y-67200000D03*
D33*
X165825000Y-110425000D03*
X166675000Y-110425000D03*
X165825000Y-109575000D03*
X166675000Y-109575000D03*
D34*
X165450000Y-111450000D03*
D35*
X165850000Y-111450000D03*
X166250000Y-111450000D03*
X166650000Y-111450000D03*
D36*
X167050000Y-111450000D03*
D37*
X167700000Y-110800000D03*
D38*
X167700000Y-110400000D03*
X167700000Y-110000000D03*
X167700000Y-109600000D03*
D39*
X167700000Y-109200000D03*
D40*
X167050000Y-108550000D03*
D35*
X166650000Y-108550000D03*
X166250000Y-108550000D03*
X165850000Y-108550000D03*
D41*
X165450000Y-108550000D03*
D42*
X164800000Y-109200000D03*
D38*
X164800000Y-109600000D03*
X164800000Y-110000000D03*
X164800000Y-110400000D03*
D43*
X164800000Y-110800000D03*
D31*
X165850000Y-77750000D03*
X163750000Y-77750000D03*
D10*
X150225000Y-59750000D03*
X148775000Y-59750000D03*
D32*
X166000000Y-113975000D03*
X166000000Y-115525000D03*
D12*
X126750000Y-64025000D03*
X126750000Y-62475000D03*
X171750000Y-82025000D03*
X171750000Y-80475000D03*
D18*
X164175000Y-85575000D03*
X163325000Y-85575000D03*
X164175000Y-86425000D03*
X163325000Y-86425000D03*
D19*
X164550000Y-84550000D03*
D20*
X164150000Y-84550000D03*
X163750000Y-84550000D03*
X163350000Y-84550000D03*
D21*
X162950000Y-84550000D03*
D22*
X162300000Y-85200000D03*
D23*
X162300000Y-85600000D03*
X162300000Y-86000000D03*
X162300000Y-86400000D03*
D24*
X162300000Y-86800000D03*
D25*
X162950000Y-87450000D03*
D20*
X163350000Y-87450000D03*
X163750000Y-87450000D03*
X164150000Y-87450000D03*
D26*
X164550000Y-87450000D03*
D27*
X165200000Y-86800000D03*
D23*
X165200000Y-86400000D03*
X165200000Y-86000000D03*
X165200000Y-85600000D03*
D28*
X165200000Y-85200000D03*
D14*
X128250000Y-121800000D03*
D15*
X128250000Y-120000000D03*
X126250000Y-120000000D03*
X126250000Y-122000000D03*
D12*
X153750000Y-64025000D03*
X153750000Y-62475000D03*
D10*
X134775000Y-118250000D03*
X136225000Y-118250000D03*
D30*
X113750000Y-118225000D03*
X113750000Y-116775000D03*
D31*
X191150000Y-100250000D03*
X193250000Y-100250000D03*
D12*
X180750000Y-82025000D03*
X180750000Y-80475000D03*
D30*
X149750000Y-118225000D03*
X149750000Y-116775000D03*
D31*
X164150000Y-100250000D03*
X166250000Y-100250000D03*
X137150000Y-100250000D03*
X139250000Y-100250000D03*
D10*
X181275000Y-79300000D03*
X182725000Y-79300000D03*
X150225000Y-66250000D03*
X148775000Y-66250000D03*
D17*
X161750000Y-115050000D03*
X161750000Y-113950000D03*
D11*
X113050000Y-112750000D03*
X111950000Y-112750000D03*
D17*
X134750000Y-97050000D03*
X134750000Y-95950000D03*
X132250000Y-80950000D03*
X132250000Y-82050000D03*
D14*
X120750000Y-74200000D03*
D15*
X120750000Y-76000000D03*
X122750000Y-76000000D03*
X122750000Y-74000000D03*
D17*
X179750000Y-115050000D03*
X179750000Y-113950000D03*
D29*
X155050000Y-98950000D03*
X155050000Y-97050000D03*
X152950000Y-98000000D03*
D10*
X172275000Y-79300000D03*
X173725000Y-79300000D03*
D14*
X146250000Y-103800000D03*
D15*
X146250000Y-102000000D03*
X144250000Y-102000000D03*
X144250000Y-104000000D03*
D31*
X182150000Y-118250000D03*
X184250000Y-118250000D03*
D17*
X125750000Y-97050000D03*
X125750000Y-95950000D03*
D10*
X188775000Y-93750000D03*
X190225000Y-93750000D03*
X175975000Y-82750000D03*
X174525000Y-82750000D03*
D33*
X129825000Y-92425000D03*
X130675000Y-92425000D03*
X129825000Y-91575000D03*
X130675000Y-91575000D03*
D34*
X129450000Y-93450000D03*
D35*
X129850000Y-93450000D03*
X130250000Y-93450000D03*
X130650000Y-93450000D03*
D36*
X131050000Y-93450000D03*
D37*
X131700000Y-92800000D03*
D38*
X131700000Y-92400000D03*
X131700000Y-92000000D03*
X131700000Y-91600000D03*
D39*
X131700000Y-91200000D03*
D40*
X131050000Y-90550000D03*
D35*
X130650000Y-90550000D03*
X130250000Y-90550000D03*
X129850000Y-90550000D03*
D41*
X129450000Y-90550000D03*
D42*
X128800000Y-91200000D03*
D38*
X128800000Y-91600000D03*
X128800000Y-92000000D03*
X128800000Y-92400000D03*
D43*
X128800000Y-92800000D03*
D31*
X164150000Y-118250000D03*
X166250000Y-118250000D03*
D30*
X135250000Y-59775000D03*
X135250000Y-61225000D03*
D11*
X180950000Y-65250000D03*
X182050000Y-65250000D03*
D10*
X148975000Y-82750000D03*
X147525000Y-82750000D03*
D30*
X126250000Y-59775000D03*
X126250000Y-61225000D03*
D10*
X181025000Y-113250000D03*
X182475000Y-113250000D03*
D17*
X168250000Y-62950000D03*
X168250000Y-64050000D03*
D16*
X189050000Y-58300000D03*
X190950000Y-58300000D03*
X190000000Y-56200000D03*
D10*
X112975000Y-82750000D03*
X111525000Y-82750000D03*
X175725000Y-98700000D03*
X174275000Y-98700000D03*
D11*
X176050000Y-94750000D03*
X174950000Y-94750000D03*
D32*
X119000000Y-64025000D03*
X119000000Y-62475000D03*
D14*
X182250000Y-121800000D03*
D15*
X182250000Y-120000000D03*
X180250000Y-120000000D03*
X180250000Y-122000000D03*
D32*
X128000000Y-64025000D03*
X128000000Y-62475000D03*
D30*
X185750000Y-118225000D03*
X185750000Y-116775000D03*
D12*
X189750000Y-82025000D03*
X189750000Y-80475000D03*
D10*
X145275000Y-79300000D03*
X146725000Y-79300000D03*
D16*
X189050000Y-76300000D03*
X190950000Y-76300000D03*
X190000000Y-74200000D03*
D31*
X147850000Y-77750000D03*
X145750000Y-77750000D03*
D29*
X137050000Y-116950000D03*
X137050000Y-115050000D03*
X134950000Y-116000000D03*
D33*
X174825000Y-92425000D03*
X175675000Y-92425000D03*
X174825000Y-91575000D03*
X175675000Y-91575000D03*
D34*
X174450000Y-93450000D03*
D35*
X174850000Y-93450000D03*
X175250000Y-93450000D03*
X175650000Y-93450000D03*
D36*
X176050000Y-93450000D03*
D37*
X176700000Y-92800000D03*
D38*
X176700000Y-92400000D03*
X176700000Y-92000000D03*
X176700000Y-91600000D03*
D39*
X176700000Y-91200000D03*
D40*
X176050000Y-90550000D03*
D35*
X175650000Y-90550000D03*
X175250000Y-90550000D03*
X174850000Y-90550000D03*
D41*
X174450000Y-90550000D03*
D42*
X173800000Y-91200000D03*
D38*
X173800000Y-91600000D03*
X173800000Y-92000000D03*
X173800000Y-92400000D03*
D43*
X173800000Y-92800000D03*
D10*
X159225000Y-84250000D03*
X157775000Y-84250000D03*
X181275000Y-61300000D03*
X182725000Y-61300000D03*
D14*
X128250000Y-103800000D03*
D15*
X128250000Y-102000000D03*
X126250000Y-102000000D03*
X126250000Y-104000000D03*
D29*
X138950000Y-79050000D03*
X138950000Y-80950000D03*
X141050000Y-80000000D03*
D16*
X162050000Y-76300000D03*
X163950000Y-76300000D03*
X163000000Y-74200000D03*
D17*
X116750000Y-115050000D03*
X116750000Y-113950000D03*
D10*
X177225000Y-77750000D03*
X175775000Y-77750000D03*
D31*
X138850000Y-77750000D03*
X136750000Y-77750000D03*
D10*
X130725000Y-116700000D03*
X129275000Y-116700000D03*
D14*
X192750000Y-74200000D03*
D15*
X192750000Y-76000000D03*
X194750000Y-76000000D03*
X194750000Y-74000000D03*
D10*
X179775000Y-118250000D03*
X181225000Y-118250000D03*
D16*
X194950000Y-101700000D03*
X193050000Y-101700000D03*
X194000000Y-103800000D03*
X135050000Y-58300000D03*
X136950000Y-58300000D03*
X136000000Y-56200000D03*
D10*
X121725000Y-98700000D03*
X120275000Y-98700000D03*
D31*
X155150000Y-118250000D03*
X157250000Y-118250000D03*
D10*
X109275000Y-61300000D03*
X110725000Y-61300000D03*
D33*
X111825000Y-92425000D03*
X112675000Y-92425000D03*
X111825000Y-91575000D03*
X112675000Y-91575000D03*
D34*
X111450000Y-93450000D03*
D35*
X111850000Y-93450000D03*
X112250000Y-93450000D03*
X112650000Y-93450000D03*
D36*
X113050000Y-93450000D03*
D37*
X113700000Y-92800000D03*
D38*
X113700000Y-92400000D03*
X113700000Y-92000000D03*
X113700000Y-91600000D03*
D39*
X113700000Y-91200000D03*
D40*
X113050000Y-90550000D03*
D35*
X112650000Y-90550000D03*
X112250000Y-90550000D03*
X111850000Y-90550000D03*
D41*
X111450000Y-90550000D03*
D42*
X110800000Y-91200000D03*
D38*
X110800000Y-91600000D03*
X110800000Y-92000000D03*
X110800000Y-92400000D03*
D43*
X110800000Y-92800000D03*
D12*
X122250000Y-95975000D03*
X122250000Y-97525000D03*
D30*
X122750000Y-118225000D03*
X122750000Y-116775000D03*
D29*
X129950000Y-79050000D03*
X129950000Y-80950000D03*
X132050000Y-80000000D03*
D10*
X170775000Y-118250000D03*
X172225000Y-118250000D03*
D13*
X147000000Y-49000000D03*
D10*
X179775000Y-111750000D03*
X181225000Y-111750000D03*
D11*
X140050000Y-94750000D03*
X138950000Y-94750000D03*
D10*
X157725000Y-98700000D03*
X156275000Y-98700000D03*
X184975000Y-64750000D03*
X183525000Y-64750000D03*
X184975000Y-82750000D03*
X183525000Y-82750000D03*
X123225000Y-77750000D03*
X121775000Y-77750000D03*
X107775000Y-118250000D03*
X109225000Y-118250000D03*
X186225000Y-84250000D03*
X184775000Y-84250000D03*
D11*
X117950000Y-83250000D03*
X119050000Y-83250000D03*
D29*
X174950000Y-61050000D03*
X174950000Y-62950000D03*
X177050000Y-62000000D03*
D30*
X153250000Y-77775000D03*
X153250000Y-79225000D03*
D32*
X119000000Y-82025000D03*
X119000000Y-80475000D03*
D30*
X113750000Y-100225000D03*
X113750000Y-98775000D03*
D18*
X128175000Y-85575000D03*
X127325000Y-85575000D03*
X128175000Y-86425000D03*
X127325000Y-86425000D03*
D19*
X128550000Y-84550000D03*
D20*
X128150000Y-84550000D03*
X127750000Y-84550000D03*
X127350000Y-84550000D03*
D21*
X126950000Y-84550000D03*
D22*
X126300000Y-85200000D03*
D23*
X126300000Y-85600000D03*
X126300000Y-86000000D03*
X126300000Y-86400000D03*
D24*
X126300000Y-86800000D03*
D25*
X126950000Y-87450000D03*
D20*
X127350000Y-87450000D03*
X127750000Y-87450000D03*
X128150000Y-87450000D03*
D26*
X128550000Y-87450000D03*
D27*
X129200000Y-86800000D03*
D23*
X129200000Y-86400000D03*
X129200000Y-86000000D03*
X129200000Y-85600000D03*
D28*
X129200000Y-85200000D03*
D17*
X179750000Y-97050000D03*
X179750000Y-95950000D03*
D10*
X107775000Y-93750000D03*
X109225000Y-93750000D03*
D31*
X137150000Y-118250000D03*
X139250000Y-118250000D03*
D14*
X138750000Y-56200000D03*
D15*
X138750000Y-58000000D03*
X140750000Y-58000000D03*
X140750000Y-56000000D03*
D30*
X140750000Y-118225000D03*
X140750000Y-116775000D03*
D14*
X119250000Y-121800000D03*
D15*
X119250000Y-120000000D03*
X117250000Y-120000000D03*
X117250000Y-122000000D03*
D29*
X183950000Y-79050000D03*
X183950000Y-80950000D03*
X186050000Y-80000000D03*
D10*
X159225000Y-66250000D03*
X157775000Y-66250000D03*
D11*
X162950000Y-65250000D03*
X164050000Y-65250000D03*
D18*
X110175000Y-67575000D03*
X109325000Y-67575000D03*
X110175000Y-68425000D03*
X109325000Y-68425000D03*
D19*
X110550000Y-66550000D03*
D20*
X110150000Y-66550000D03*
X109750000Y-66550000D03*
X109350000Y-66550000D03*
D21*
X108950000Y-66550000D03*
D22*
X108300000Y-67200000D03*
D23*
X108300000Y-67600000D03*
X108300000Y-68000000D03*
X108300000Y-68400000D03*
D24*
X108300000Y-68800000D03*
D25*
X108950000Y-69450000D03*
D20*
X109350000Y-69450000D03*
X109750000Y-69450000D03*
X110150000Y-69450000D03*
D26*
X110550000Y-69450000D03*
D27*
X111200000Y-68800000D03*
D23*
X111200000Y-68400000D03*
X111200000Y-68000000D03*
X111200000Y-67600000D03*
D28*
X111200000Y-67200000D03*
D11*
X158050000Y-112750000D03*
X156950000Y-112750000D03*
D10*
X161775000Y-93750000D03*
X163225000Y-93750000D03*
D32*
X173000000Y-82025000D03*
X173000000Y-80475000D03*
D33*
X111825000Y-110425000D03*
X112675000Y-110425000D03*
X111825000Y-109575000D03*
X112675000Y-109575000D03*
D34*
X111450000Y-111450000D03*
D35*
X111850000Y-111450000D03*
X112250000Y-111450000D03*
X112650000Y-111450000D03*
D36*
X113050000Y-111450000D03*
D37*
X113700000Y-110800000D03*
D38*
X113700000Y-110400000D03*
X113700000Y-110000000D03*
X113700000Y-109600000D03*
D39*
X113700000Y-109200000D03*
D40*
X113050000Y-108550000D03*
D35*
X112650000Y-108550000D03*
X112250000Y-108550000D03*
X111850000Y-108550000D03*
D41*
X111450000Y-108550000D03*
D42*
X110800000Y-109200000D03*
D38*
X110800000Y-109600000D03*
X110800000Y-110000000D03*
X110800000Y-110400000D03*
D43*
X110800000Y-110800000D03*
D10*
X168225000Y-66250000D03*
X166775000Y-66250000D03*
D13*
X138000000Y-49000000D03*
D29*
X110050000Y-116950000D03*
X110050000Y-115050000D03*
X107950000Y-116000000D03*
D10*
X112975000Y-64750000D03*
X111525000Y-64750000D03*
D18*
X155175000Y-67575000D03*
X154325000Y-67575000D03*
X155175000Y-68425000D03*
X154325000Y-68425000D03*
D19*
X155550000Y-66550000D03*
D20*
X155150000Y-66550000D03*
X154750000Y-66550000D03*
X154350000Y-66550000D03*
D21*
X153950000Y-66550000D03*
D22*
X153300000Y-67200000D03*
D23*
X153300000Y-67600000D03*
X153300000Y-68000000D03*
X153300000Y-68400000D03*
D24*
X153300000Y-68800000D03*
D25*
X153950000Y-69450000D03*
D20*
X154350000Y-69450000D03*
X154750000Y-69450000D03*
X155150000Y-69450000D03*
D26*
X155550000Y-69450000D03*
D27*
X156200000Y-68800000D03*
D23*
X156200000Y-68400000D03*
X156200000Y-68000000D03*
X156200000Y-67600000D03*
D28*
X156200000Y-67200000D03*
D32*
X137000000Y-64025000D03*
X137000000Y-62475000D03*
D10*
X168225000Y-84250000D03*
X166775000Y-84250000D03*
D29*
X192950000Y-79050000D03*
X192950000Y-80950000D03*
X195050000Y-80000000D03*
X191050000Y-98950000D03*
X191050000Y-97050000D03*
X188950000Y-98000000D03*
D31*
X174850000Y-77750000D03*
X172750000Y-77750000D03*
D11*
X153950000Y-65250000D03*
X155050000Y-65250000D03*
D14*
X155250000Y-103800000D03*
D15*
X155250000Y-102000000D03*
X153250000Y-102000000D03*
X153250000Y-104000000D03*
D30*
X180250000Y-59775000D03*
X180250000Y-61225000D03*
D16*
X176950000Y-119700000D03*
X175050000Y-119700000D03*
X176000000Y-121800000D03*
D32*
X193000000Y-113975000D03*
X193000000Y-115525000D03*
D10*
X195225000Y-66250000D03*
X193775000Y-66250000D03*
X107775000Y-111750000D03*
X109225000Y-111750000D03*
D29*
X137050000Y-98950000D03*
X137050000Y-97050000D03*
X134950000Y-98000000D03*
D10*
X152775000Y-111750000D03*
X154225000Y-111750000D03*
D17*
X132250000Y-62950000D03*
X132250000Y-64050000D03*
D10*
X148725000Y-116700000D03*
X147275000Y-116700000D03*
X118025000Y-95250000D03*
X119475000Y-95250000D03*
D16*
X153050000Y-58300000D03*
X154950000Y-58300000D03*
X154000000Y-56200000D03*
D10*
X125775000Y-118250000D03*
X127225000Y-118250000D03*
D30*
X180250000Y-77775000D03*
X180250000Y-79225000D03*
D11*
X167050000Y-94750000D03*
X165950000Y-94750000D03*
D13*
X192000000Y-49000000D03*
D30*
X176750000Y-118225000D03*
X176750000Y-116775000D03*
D11*
X126950000Y-65250000D03*
X128050000Y-65250000D03*
D16*
X108050000Y-76300000D03*
X109950000Y-76300000D03*
X109000000Y-74200000D03*
D17*
X114250000Y-80950000D03*
X114250000Y-82050000D03*
D18*
X191175000Y-67575000D03*
X190325000Y-67575000D03*
X191175000Y-68425000D03*
X190325000Y-68425000D03*
D19*
X191550000Y-66550000D03*
D20*
X191150000Y-66550000D03*
X190750000Y-66550000D03*
X190350000Y-66550000D03*
D21*
X189950000Y-66550000D03*
D22*
X189300000Y-67200000D03*
D23*
X189300000Y-67600000D03*
X189300000Y-68000000D03*
X189300000Y-68400000D03*
D24*
X189300000Y-68800000D03*
D25*
X189950000Y-69450000D03*
D20*
X190350000Y-69450000D03*
X190750000Y-69450000D03*
X191150000Y-69450000D03*
D26*
X191550000Y-69450000D03*
D27*
X192200000Y-68800000D03*
D23*
X192200000Y-68400000D03*
X192200000Y-68000000D03*
X192200000Y-67600000D03*
D28*
X192200000Y-67200000D03*
D10*
X134775000Y-93750000D03*
X136225000Y-93750000D03*
X190025000Y-95250000D03*
X191475000Y-95250000D03*
X145025000Y-95250000D03*
X146475000Y-95250000D03*
D11*
X122050000Y-112750000D03*
X120950000Y-112750000D03*
D29*
X156950000Y-79050000D03*
X156950000Y-80950000D03*
X159050000Y-80000000D03*
D30*
X162250000Y-59775000D03*
X162250000Y-61225000D03*
D16*
X131950000Y-101700000D03*
X130050000Y-101700000D03*
X131000000Y-103800000D03*
D11*
X135950000Y-83250000D03*
X137050000Y-83250000D03*
D10*
X143775000Y-100250000D03*
X145225000Y-100250000D03*
D13*
X147000000Y-129000000D03*
D10*
X148725000Y-98700000D03*
X147275000Y-98700000D03*
X188775000Y-100250000D03*
X190225000Y-100250000D03*
D30*
X135250000Y-77775000D03*
X135250000Y-79225000D03*
X131750000Y-118225000D03*
X131750000Y-116775000D03*
D10*
X157975000Y-64750000D03*
X156525000Y-64750000D03*
D32*
X148000000Y-95975000D03*
X148000000Y-97525000D03*
D33*
X120825000Y-110425000D03*
X121675000Y-110425000D03*
X120825000Y-109575000D03*
X121675000Y-109575000D03*
D34*
X120450000Y-111450000D03*
D35*
X120850000Y-111450000D03*
X121250000Y-111450000D03*
X121650000Y-111450000D03*
D36*
X122050000Y-111450000D03*
D37*
X122700000Y-110800000D03*
D38*
X122700000Y-110400000D03*
X122700000Y-110000000D03*
X122700000Y-109600000D03*
D39*
X122700000Y-109200000D03*
D40*
X122050000Y-108550000D03*
D35*
X121650000Y-108550000D03*
X121250000Y-108550000D03*
X120850000Y-108550000D03*
D41*
X120450000Y-108550000D03*
D42*
X119800000Y-109200000D03*
D38*
X119800000Y-109600000D03*
X119800000Y-110000000D03*
X119800000Y-110400000D03*
D43*
X119800000Y-110800000D03*
D32*
X157000000Y-95975000D03*
X157000000Y-97525000D03*
D31*
X192850000Y-59750000D03*
X190750000Y-59750000D03*
D11*
X126950000Y-83250000D03*
X128050000Y-83250000D03*
D32*
X146000000Y-64025000D03*
X146000000Y-62475000D03*
X121000000Y-113975000D03*
X121000000Y-115525000D03*
D10*
X186225000Y-59750000D03*
X184775000Y-59750000D03*
D14*
X120750000Y-56200000D03*
D15*
X120750000Y-58000000D03*
X122750000Y-58000000D03*
X122750000Y-56000000D03*
D18*
X137175000Y-85575000D03*
X136325000Y-85575000D03*
X137175000Y-86425000D03*
X136325000Y-86425000D03*
D19*
X137550000Y-84550000D03*
D20*
X137150000Y-84550000D03*
X136750000Y-84550000D03*
X136350000Y-84550000D03*
D21*
X135950000Y-84550000D03*
D22*
X135300000Y-85200000D03*
D23*
X135300000Y-85600000D03*
X135300000Y-86000000D03*
X135300000Y-86400000D03*
D24*
X135300000Y-86800000D03*
D25*
X135950000Y-87450000D03*
D20*
X136350000Y-87450000D03*
X136750000Y-87450000D03*
X137150000Y-87450000D03*
D26*
X137550000Y-87450000D03*
D27*
X138200000Y-86800000D03*
D23*
X138200000Y-86400000D03*
X138200000Y-86000000D03*
X138200000Y-85600000D03*
D28*
X138200000Y-85200000D03*
D10*
X159225000Y-59750000D03*
X157775000Y-59750000D03*
D17*
X150250000Y-80950000D03*
X150250000Y-82050000D03*
D11*
X131050000Y-112750000D03*
X129950000Y-112750000D03*
D31*
X119150000Y-118250000D03*
X121250000Y-118250000D03*
D10*
X172025000Y-95250000D03*
X173475000Y-95250000D03*
X125775000Y-100250000D03*
X127225000Y-100250000D03*
D12*
X140250000Y-95975000D03*
X140250000Y-97525000D03*
D30*
X185750000Y-100225000D03*
X185750000Y-98775000D03*
D32*
X137000000Y-82025000D03*
X137000000Y-80475000D03*
D14*
X174750000Y-56200000D03*
D15*
X174750000Y-58000000D03*
X176750000Y-58000000D03*
X176750000Y-56000000D03*
D10*
X193975000Y-64750000D03*
X192525000Y-64750000D03*
D14*
X137250000Y-103800000D03*
D15*
X137250000Y-102000000D03*
X135250000Y-102000000D03*
X135250000Y-104000000D03*
D16*
X113950000Y-119700000D03*
X112050000Y-119700000D03*
X113000000Y-121800000D03*
D32*
X112000000Y-95975000D03*
X112000000Y-97525000D03*
D12*
X117750000Y-64025000D03*
X117750000Y-62475000D03*
D14*
X191250000Y-103800000D03*
D15*
X191250000Y-102000000D03*
X189250000Y-102000000D03*
X189250000Y-104000000D03*
D16*
X162050000Y-58300000D03*
X163950000Y-58300000D03*
X163000000Y-56200000D03*
D14*
X174750000Y-74200000D03*
D15*
X174750000Y-76000000D03*
X176750000Y-76000000D03*
X176750000Y-74000000D03*
D12*
X108750000Y-64025000D03*
X108750000Y-62475000D03*
D11*
X113050000Y-94750000D03*
X111950000Y-94750000D03*
D12*
X131250000Y-95975000D03*
X131250000Y-97525000D03*
D31*
X147850000Y-59750000D03*
X145750000Y-59750000D03*
D17*
X188750000Y-97050000D03*
X188750000Y-95950000D03*
D10*
X145275000Y-61300000D03*
X146725000Y-61300000D03*
D31*
X173150000Y-100250000D03*
X175250000Y-100250000D03*
D17*
X195250000Y-80950000D03*
X195250000Y-82050000D03*
D10*
X109025000Y-95250000D03*
X110475000Y-95250000D03*
D14*
X111750000Y-74200000D03*
D15*
X111750000Y-76000000D03*
X113750000Y-76000000D03*
X113750000Y-74000000D03*
D32*
X182000000Y-82025000D03*
X182000000Y-80475000D03*
X184000000Y-95975000D03*
X184000000Y-97525000D03*
D18*
X155175000Y-85575000D03*
X154325000Y-85575000D03*
X155175000Y-86425000D03*
X154325000Y-86425000D03*
D19*
X155550000Y-84550000D03*
D20*
X155150000Y-84550000D03*
X154750000Y-84550000D03*
X154350000Y-84550000D03*
D21*
X153950000Y-84550000D03*
D22*
X153300000Y-85200000D03*
D23*
X153300000Y-85600000D03*
X153300000Y-86000000D03*
X153300000Y-86400000D03*
D24*
X153300000Y-86800000D03*
D25*
X153950000Y-87450000D03*
D20*
X154350000Y-87450000D03*
X154750000Y-87450000D03*
X155150000Y-87450000D03*
D26*
X155550000Y-87450000D03*
D27*
X156200000Y-86800000D03*
D23*
X156200000Y-86400000D03*
X156200000Y-86000000D03*
X156200000Y-85600000D03*
D28*
X156200000Y-85200000D03*
D10*
X130975000Y-82750000D03*
X129525000Y-82750000D03*
D14*
X137250000Y-121800000D03*
D15*
X137250000Y-120000000D03*
X135250000Y-120000000D03*
X135250000Y-122000000D03*
D10*
X152775000Y-93750000D03*
X154225000Y-93750000D03*
D16*
X185950000Y-119700000D03*
X184050000Y-119700000D03*
X185000000Y-121800000D03*
D33*
X174825000Y-110425000D03*
X175675000Y-110425000D03*
X174825000Y-109575000D03*
X175675000Y-109575000D03*
D34*
X174450000Y-111450000D03*
D35*
X174850000Y-111450000D03*
X175250000Y-111450000D03*
X175650000Y-111450000D03*
D36*
X176050000Y-111450000D03*
D37*
X176700000Y-110800000D03*
D38*
X176700000Y-110400000D03*
X176700000Y-110000000D03*
X176700000Y-109600000D03*
D39*
X176700000Y-109200000D03*
D40*
X176050000Y-108550000D03*
D35*
X175650000Y-108550000D03*
X175250000Y-108550000D03*
X174850000Y-108550000D03*
D41*
X174450000Y-108550000D03*
D42*
X173800000Y-109200000D03*
D38*
X173800000Y-109600000D03*
X173800000Y-110000000D03*
X173800000Y-110400000D03*
D43*
X173800000Y-110800000D03*
D16*
X140950000Y-101700000D03*
X139050000Y-101700000D03*
X140000000Y-103800000D03*
D32*
X164000000Y-64025000D03*
X164000000Y-62475000D03*
D30*
X126250000Y-77775000D03*
X126250000Y-79225000D03*
D17*
X195250000Y-62950000D03*
X195250000Y-64050000D03*
D31*
X192850000Y-77750000D03*
X190750000Y-77750000D03*
D17*
X177250000Y-80950000D03*
X177250000Y-82050000D03*
D29*
X173050000Y-98950000D03*
X173050000Y-97050000D03*
X170950000Y-98000000D03*
X146050000Y-116950000D03*
X146050000Y-115050000D03*
X143950000Y-116000000D03*
D10*
X184725000Y-98700000D03*
X183275000Y-98700000D03*
D12*
X153750000Y-82025000D03*
X153750000Y-80475000D03*
D10*
X141225000Y-59750000D03*
X139775000Y-59750000D03*
D11*
X189950000Y-65250000D03*
X191050000Y-65250000D03*
X108950000Y-83250000D03*
X110050000Y-83250000D03*
D31*
X138850000Y-59750000D03*
X136750000Y-59750000D03*
D12*
X162750000Y-82025000D03*
X162750000Y-80475000D03*
D17*
X141250000Y-80950000D03*
X141250000Y-82050000D03*
D11*
X176050000Y-112750000D03*
X174950000Y-112750000D03*
D18*
X182175000Y-67575000D03*
X181325000Y-67575000D03*
X182175000Y-68425000D03*
X181325000Y-68425000D03*
D19*
X182550000Y-66550000D03*
D20*
X182150000Y-66550000D03*
X181750000Y-66550000D03*
X181350000Y-66550000D03*
D21*
X180950000Y-66550000D03*
D22*
X180300000Y-67200000D03*
D23*
X180300000Y-67600000D03*
X180300000Y-68000000D03*
X180300000Y-68400000D03*
D24*
X180300000Y-68800000D03*
D25*
X180950000Y-69450000D03*
D20*
X181350000Y-69450000D03*
X181750000Y-69450000D03*
X182150000Y-69450000D03*
D26*
X182550000Y-69450000D03*
D27*
X183200000Y-68800000D03*
D23*
X183200000Y-68400000D03*
X183200000Y-68000000D03*
X183200000Y-67600000D03*
D28*
X183200000Y-67200000D03*
D29*
X165950000Y-61050000D03*
X165950000Y-62950000D03*
X168050000Y-62000000D03*
D12*
X131250000Y-113975000D03*
X131250000Y-115525000D03*
D10*
X125775000Y-93750000D03*
X127225000Y-93750000D03*
D30*
X194750000Y-100225000D03*
X194750000Y-98775000D03*
D17*
X177250000Y-62950000D03*
X177250000Y-64050000D03*
D32*
X110000000Y-82025000D03*
X110000000Y-80475000D03*
D30*
X131750000Y-100225000D03*
X131750000Y-98775000D03*
D17*
X186250000Y-80950000D03*
X186250000Y-82050000D03*
D10*
X195225000Y-84250000D03*
X193775000Y-84250000D03*
X148975000Y-64750000D03*
X147525000Y-64750000D03*
D16*
X180050000Y-76300000D03*
X181950000Y-76300000D03*
X181000000Y-74200000D03*
D29*
X191050000Y-116950000D03*
X191050000Y-115050000D03*
X188950000Y-116000000D03*
D32*
X148000000Y-113975000D03*
X148000000Y-115525000D03*
D30*
X167750000Y-100225000D03*
X167750000Y-98775000D03*
D14*
X183750000Y-56200000D03*
D15*
X183750000Y-58000000D03*
X185750000Y-58000000D03*
X185750000Y-56000000D03*
D30*
X189250000Y-59775000D03*
X189250000Y-61225000D03*
D17*
X116750000Y-97050000D03*
X116750000Y-95950000D03*
D16*
X158950000Y-101700000D03*
X157050000Y-101700000D03*
X158000000Y-103800000D03*
D31*
X173150000Y-118250000D03*
X175250000Y-118250000D03*
X165850000Y-59750000D03*
X163750000Y-59750000D03*
X129850000Y-77750000D03*
X127750000Y-77750000D03*
D10*
X123225000Y-84250000D03*
X121775000Y-84250000D03*
X114225000Y-77750000D03*
X112775000Y-77750000D03*
D12*
X140250000Y-113975000D03*
X140250000Y-115525000D03*
D30*
X176750000Y-100225000D03*
X176750000Y-98775000D03*
D12*
X167250000Y-113975000D03*
X167250000Y-115525000D03*
D31*
X128150000Y-100250000D03*
X130250000Y-100250000D03*
D10*
X154025000Y-113250000D03*
X155475000Y-113250000D03*
X163025000Y-95250000D03*
X164475000Y-95250000D03*
X166975000Y-82750000D03*
X165525000Y-82750000D03*
D18*
X110175000Y-85575000D03*
X109325000Y-85575000D03*
X110175000Y-86425000D03*
X109325000Y-86425000D03*
D19*
X110550000Y-84550000D03*
D20*
X110150000Y-84550000D03*
X109750000Y-84550000D03*
X109350000Y-84550000D03*
D21*
X108950000Y-84550000D03*
D22*
X108300000Y-85200000D03*
D23*
X108300000Y-85600000D03*
X108300000Y-86000000D03*
X108300000Y-86400000D03*
D24*
X108300000Y-86800000D03*
D25*
X108950000Y-87450000D03*
D20*
X109350000Y-87450000D03*
X109750000Y-87450000D03*
X110150000Y-87450000D03*
D26*
X110550000Y-87450000D03*
D27*
X111200000Y-86800000D03*
D23*
X111200000Y-86400000D03*
X111200000Y-86000000D03*
X111200000Y-85600000D03*
D28*
X111200000Y-85200000D03*
D16*
X167950000Y-119700000D03*
X166050000Y-119700000D03*
X167000000Y-121800000D03*
D10*
X132225000Y-77750000D03*
X130775000Y-77750000D03*
D33*
X129825000Y-110425000D03*
X130675000Y-110425000D03*
X129825000Y-109575000D03*
X130675000Y-109575000D03*
D34*
X129450000Y-111450000D03*
D35*
X129850000Y-111450000D03*
X130250000Y-111450000D03*
X130650000Y-111450000D03*
D36*
X131050000Y-111450000D03*
D37*
X131700000Y-110800000D03*
D38*
X131700000Y-110400000D03*
X131700000Y-110000000D03*
X131700000Y-109600000D03*
D39*
X131700000Y-109200000D03*
D40*
X131050000Y-108550000D03*
D35*
X130650000Y-108550000D03*
X130250000Y-108550000D03*
X129850000Y-108550000D03*
D41*
X129450000Y-108550000D03*
D42*
X128800000Y-109200000D03*
D38*
X128800000Y-109600000D03*
X128800000Y-110000000D03*
X128800000Y-110400000D03*
D43*
X128800000Y-110800000D03*
D10*
X116775000Y-93750000D03*
X118225000Y-93750000D03*
D11*
X180950000Y-83250000D03*
X182050000Y-83250000D03*
D33*
X138825000Y-92425000D03*
X139675000Y-92425000D03*
X138825000Y-91575000D03*
X139675000Y-91575000D03*
D34*
X138450000Y-93450000D03*
D35*
X138850000Y-93450000D03*
X139250000Y-93450000D03*
X139650000Y-93450000D03*
D36*
X140050000Y-93450000D03*
D37*
X140700000Y-92800000D03*
D38*
X140700000Y-92400000D03*
X140700000Y-92000000D03*
X140700000Y-91600000D03*
D39*
X140700000Y-91200000D03*
D40*
X140050000Y-90550000D03*
D35*
X139650000Y-90550000D03*
X139250000Y-90550000D03*
X138850000Y-90550000D03*
D41*
X138450000Y-90550000D03*
D42*
X137800000Y-91200000D03*
D38*
X137800000Y-91600000D03*
X137800000Y-92000000D03*
X137800000Y-92400000D03*
D43*
X137800000Y-92800000D03*
D29*
X128050000Y-116950000D03*
X128050000Y-115050000D03*
X125950000Y-116000000D03*
D10*
X150225000Y-84250000D03*
X148775000Y-84250000D03*
X190275000Y-61300000D03*
X191725000Y-61300000D03*
D11*
X162950000Y-83250000D03*
X164050000Y-83250000D03*
D14*
X110250000Y-121800000D03*
D15*
X110250000Y-120000000D03*
X108250000Y-120000000D03*
X108250000Y-122000000D03*
D30*
X144250000Y-77775000D03*
X144250000Y-79225000D03*
D13*
X165000000Y-129000000D03*
D12*
X144750000Y-82025000D03*
X144750000Y-80475000D03*
D29*
X111950000Y-61050000D03*
X111950000Y-62950000D03*
X114050000Y-62000000D03*
D11*
X117950000Y-65250000D03*
X119050000Y-65250000D03*
D32*
X191000000Y-82025000D03*
X191000000Y-80475000D03*
D12*
X113250000Y-113975000D03*
X113250000Y-115525000D03*
D31*
X120850000Y-77750000D03*
X118750000Y-77750000D03*
D10*
X184725000Y-116700000D03*
X183275000Y-116700000D03*
X125775000Y-111750000D03*
X127225000Y-111750000D03*
D11*
X194050000Y-112750000D03*
X192950000Y-112750000D03*
D32*
X139000000Y-95975000D03*
X139000000Y-97525000D03*
D10*
X145025000Y-113250000D03*
X146475000Y-113250000D03*
D31*
X146150000Y-100250000D03*
X148250000Y-100250000D03*
D29*
X129950000Y-61050000D03*
X129950000Y-62950000D03*
X132050000Y-62000000D03*
D10*
X193725000Y-116700000D03*
X192275000Y-116700000D03*
D33*
X156825000Y-92425000D03*
X157675000Y-92425000D03*
X156825000Y-91575000D03*
X157675000Y-91575000D03*
D34*
X156450000Y-93450000D03*
D35*
X156850000Y-93450000D03*
X157250000Y-93450000D03*
X157650000Y-93450000D03*
D36*
X158050000Y-93450000D03*
D37*
X158700000Y-92800000D03*
D38*
X158700000Y-92400000D03*
X158700000Y-92000000D03*
X158700000Y-91600000D03*
D39*
X158700000Y-91200000D03*
D40*
X158050000Y-90550000D03*
D35*
X157650000Y-90550000D03*
X157250000Y-90550000D03*
X156850000Y-90550000D03*
D41*
X156450000Y-90550000D03*
D42*
X155800000Y-91200000D03*
D38*
X155800000Y-91600000D03*
X155800000Y-92000000D03*
X155800000Y-92400000D03*
D43*
X155800000Y-92800000D03*
D11*
X171950000Y-83250000D03*
X173050000Y-83250000D03*
D10*
X139975000Y-64750000D03*
X138525000Y-64750000D03*
D29*
X111950000Y-79050000D03*
X111950000Y-80950000D03*
X114050000Y-80000000D03*
D33*
X192825000Y-92425000D03*
X193675000Y-92425000D03*
X192825000Y-91575000D03*
X193675000Y-91575000D03*
D34*
X192450000Y-93450000D03*
D35*
X192850000Y-93450000D03*
X193250000Y-93450000D03*
X193650000Y-93450000D03*
D36*
X194050000Y-93450000D03*
D37*
X194700000Y-92800000D03*
D38*
X194700000Y-92400000D03*
X194700000Y-92000000D03*
X194700000Y-91600000D03*
D39*
X194700000Y-91200000D03*
D40*
X194050000Y-90550000D03*
D35*
X193650000Y-90550000D03*
X193250000Y-90550000D03*
X192850000Y-90550000D03*
D41*
X192450000Y-90550000D03*
D42*
X191800000Y-91200000D03*
D38*
X191800000Y-91600000D03*
X191800000Y-92000000D03*
X191800000Y-92400000D03*
D43*
X191800000Y-92800000D03*
D10*
X190025000Y-113250000D03*
X191475000Y-113250000D03*
D18*
X173175000Y-85575000D03*
X172325000Y-85575000D03*
X173175000Y-86425000D03*
X172325000Y-86425000D03*
D19*
X173550000Y-84550000D03*
D20*
X173150000Y-84550000D03*
X172750000Y-84550000D03*
X172350000Y-84550000D03*
D21*
X171950000Y-84550000D03*
D22*
X171300000Y-85200000D03*
D23*
X171300000Y-85600000D03*
X171300000Y-86000000D03*
X171300000Y-86400000D03*
D24*
X171300000Y-86800000D03*
D25*
X171950000Y-87450000D03*
D20*
X172350000Y-87450000D03*
X172750000Y-87450000D03*
X173150000Y-87450000D03*
D26*
X173550000Y-87450000D03*
D27*
X174200000Y-86800000D03*
D23*
X174200000Y-86400000D03*
X174200000Y-86000000D03*
X174200000Y-85600000D03*
D28*
X174200000Y-85200000D03*
D31*
X182150000Y-100250000D03*
X184250000Y-100250000D03*
D11*
X185050000Y-94750000D03*
X183950000Y-94750000D03*
D10*
X157725000Y-116700000D03*
X156275000Y-116700000D03*
D30*
X189250000Y-77775000D03*
X189250000Y-79225000D03*
X117250000Y-59775000D03*
X117250000Y-61225000D03*
D10*
X168225000Y-77750000D03*
X166775000Y-77750000D03*
X136025000Y-95250000D03*
X137475000Y-95250000D03*
D31*
X146150000Y-118250000D03*
X148250000Y-118250000D03*
D10*
X141225000Y-66250000D03*
X139775000Y-66250000D03*
X175725000Y-116700000D03*
X174275000Y-116700000D03*
D32*
X166000000Y-95975000D03*
X166000000Y-97525000D03*
D10*
X152775000Y-118250000D03*
X154225000Y-118250000D03*
X114225000Y-84250000D03*
X112775000Y-84250000D03*
X154275000Y-79300000D03*
X155725000Y-79300000D03*
D31*
X128150000Y-118250000D03*
X130250000Y-118250000D03*
D29*
X156950000Y-61050000D03*
X156950000Y-62950000D03*
X159050000Y-62000000D03*
D31*
X111850000Y-77750000D03*
X109750000Y-77750000D03*
M02*
