M48
; DRILL file {KiCad 7.0.11} date Wed Feb 28 18:49:23 2024
; FORMAT={-:-/ absolute / metric / decimal}
; #@! TF.CreationDate,2024-02-28T18:49:23+09:00
; #@! TF.GenerationSoftware,Kicad,Pcbnew,7.0.11
; #@! TF.FileFunction,Plated,1,2,PTH
FMAT,2
METRIC
; #@! TA.AperFunction,Plated,PTH,ViaDrill
T1C0.400
; #@! TA.AperFunction,Plated,PTH,ViaDrill
T2C0.600
; #@! TA.AperFunction,Plated,PTH,ComponentDrill
T3C0.700
; #@! TA.AperFunction,Plated,PTH,ComponentDrill
T4C0.900
%
G90
G05
T1
X109.75Y-68.0
X109.75Y-86.0
X112.25Y-92.0
X112.25Y-110.0
X118.75Y-68.0
X118.75Y-86.0
X121.25Y-92.0
X121.25Y-110.0
X127.75Y-68.0
X127.75Y-86.0
X130.25Y-92.0
X130.25Y-110.0
X136.75Y-68.0
X136.75Y-86.0
X139.25Y-92.0
X139.25Y-110.0
X145.75Y-68.0
X145.75Y-86.0
X148.25Y-92.0
X148.25Y-110.0
X154.75Y-68.0
X154.75Y-86.0
X157.25Y-92.0
X157.25Y-110.0
X163.75Y-68.0
X163.75Y-86.0
X166.25Y-92.0
X166.25Y-110.0
X172.75Y-68.0
X172.75Y-86.0
X175.25Y-92.0
X175.25Y-110.0
X181.75Y-68.0
X181.75Y-86.0
X184.25Y-92.0
X184.25Y-110.0
X190.75Y-68.0
X190.75Y-86.0
X193.25Y-92.0
X193.25Y-110.0
T2
X107.9Y-94.75
X107.9Y-112.75
X108.75Y-96.5
X108.75Y-114.5
X110.6Y-59.2
X110.6Y-77.2
X110.75Y-65.25
X110.75Y-83.25
X110.9Y-55.8
X110.9Y-73.8
X111.1Y-104.2
X111.1Y-122.2
X111.25Y-94.75
X111.25Y-112.75
X111.4Y-100.8
X111.4Y-118.8
X113.25Y-63.5
X113.25Y-81.5
X114.1Y-65.25
X114.1Y-83.25
X116.9Y-94.75
X116.9Y-112.75
X117.75Y-96.5
X117.75Y-114.5
X119.6Y-59.2
X119.6Y-77.2
X119.75Y-65.25
X119.75Y-83.25
X119.9Y-55.8
X119.9Y-73.8
X120.1Y-104.2
X120.1Y-122.2
X120.25Y-94.75
X120.25Y-112.75
X120.4Y-100.8
X120.4Y-118.8
X122.25Y-63.5
X122.25Y-81.5
X123.1Y-65.25
X123.1Y-83.25
X125.9Y-94.75
X125.9Y-112.75
X126.75Y-96.5
X126.75Y-114.5
X128.6Y-59.2
X128.6Y-77.2
X128.75Y-65.25
X128.75Y-83.25
X128.9Y-55.8
X128.9Y-73.8
X129.1Y-104.2
X129.1Y-122.2
X129.25Y-94.75
X129.25Y-112.75
X129.4Y-100.8
X129.4Y-118.8
X131.25Y-63.5
X131.25Y-81.5
X132.1Y-65.25
X132.1Y-83.25
X134.9Y-94.75
X134.9Y-112.75
X135.75Y-96.5
X135.75Y-114.5
X137.6Y-59.2
X137.6Y-77.2
X137.75Y-65.25
X137.75Y-83.25
X137.9Y-55.8
X137.9Y-73.8
X138.1Y-104.2
X138.1Y-122.2
X138.25Y-94.75
X138.25Y-112.75
X138.4Y-100.8
X138.4Y-118.8
X140.25Y-63.5
X140.25Y-81.5
X141.1Y-65.25
X141.1Y-83.25
X143.9Y-94.75
X143.9Y-112.75
X144.75Y-96.5
X144.75Y-114.5
X146.6Y-59.2
X146.6Y-77.2
X146.75Y-65.25
X146.75Y-83.25
X146.9Y-55.8
X146.9Y-73.8
X147.1Y-104.2
X147.1Y-122.2
X147.25Y-94.75
X147.25Y-112.75
X147.4Y-100.8
X147.4Y-118.8
X149.25Y-63.5
X149.25Y-81.5
X150.1Y-65.25
X150.1Y-83.25
X152.9Y-94.75
X152.9Y-112.75
X153.75Y-96.5
X153.75Y-114.5
X155.6Y-59.2
X155.6Y-77.2
X155.75Y-65.25
X155.75Y-83.25
X155.9Y-55.8
X155.9Y-73.8
X156.1Y-104.2
X156.1Y-122.2
X156.25Y-94.75
X156.25Y-112.75
X156.4Y-100.8
X156.4Y-118.8
X158.25Y-63.5
X158.25Y-81.5
X159.1Y-65.25
X159.1Y-83.25
X161.9Y-94.75
X161.9Y-112.75
X162.75Y-96.5
X162.75Y-114.5
X164.6Y-59.2
X164.6Y-77.2
X164.75Y-65.25
X164.75Y-83.25
X164.9Y-55.8
X164.9Y-73.8
X165.1Y-104.2
X165.1Y-122.2
X165.25Y-94.75
X165.25Y-112.75
X165.4Y-100.8
X165.4Y-118.8
X167.25Y-63.5
X167.25Y-81.5
X168.1Y-65.25
X168.1Y-83.25
X170.9Y-94.75
X170.9Y-112.75
X171.75Y-96.5
X171.75Y-114.5
X173.6Y-59.2
X173.6Y-77.2
X173.75Y-65.25
X173.75Y-83.25
X173.9Y-55.8
X173.9Y-73.8
X174.1Y-104.2
X174.1Y-122.2
X174.25Y-94.75
X174.25Y-112.75
X174.4Y-100.8
X174.4Y-118.8
X176.25Y-63.5
X176.25Y-81.5
X177.1Y-65.25
X177.1Y-83.25
X179.9Y-94.75
X179.9Y-112.75
X180.75Y-96.5
X180.75Y-114.5
X182.6Y-59.2
X182.6Y-77.2
X182.75Y-65.25
X182.75Y-83.25
X182.9Y-55.8
X182.9Y-73.8
X183.1Y-104.2
X183.1Y-122.2
X183.25Y-94.75
X183.25Y-112.75
X183.4Y-100.8
X183.4Y-118.8
X185.25Y-63.5
X185.25Y-81.5
X186.1Y-65.25
X186.1Y-83.25
X188.9Y-94.75
X188.9Y-112.75
X189.75Y-96.5
X189.75Y-114.5
X191.6Y-59.2
X191.6Y-77.2
X191.75Y-65.25
X191.75Y-83.25
X191.9Y-55.8
X191.9Y-73.8
X192.1Y-104.2
X192.1Y-122.2
X192.25Y-94.75
X192.25Y-112.75
X192.4Y-100.8
X192.4Y-118.8
X194.25Y-63.5
X194.25Y-81.5
X195.1Y-65.25
X195.1Y-83.25
T3
X107.865Y-92.25
X107.865Y-110.25
X109.135Y-92.25
X109.135Y-110.25
X112.865Y-67.75
X112.865Y-85.75
X114.135Y-67.75
X114.135Y-85.75
X116.865Y-92.25
X116.865Y-110.25
X118.135Y-92.25
X118.135Y-110.25
X121.865Y-67.75
X121.865Y-85.75
X123.135Y-67.75
X123.135Y-85.75
X125.865Y-92.25
X125.865Y-110.25
X127.135Y-92.25
X127.135Y-110.25
X130.865Y-67.75
X130.865Y-85.75
X132.135Y-67.75
X132.135Y-85.75
X134.865Y-92.25
X134.865Y-110.25
X136.135Y-92.25
X136.135Y-110.25
X139.865Y-67.75
X139.865Y-85.75
X141.135Y-67.75
X141.135Y-85.75
X143.865Y-92.25
X143.865Y-110.25
X145.135Y-92.25
X145.135Y-110.25
X148.865Y-67.75
X148.865Y-85.75
X150.135Y-67.75
X150.135Y-85.75
X152.865Y-92.25
X152.865Y-110.25
X154.135Y-92.25
X154.135Y-110.25
X157.865Y-67.75
X157.865Y-85.75
X159.135Y-67.75
X159.135Y-85.75
X161.865Y-92.25
X161.865Y-110.25
X163.135Y-92.25
X163.135Y-110.25
X166.865Y-67.75
X166.865Y-85.75
X168.135Y-67.75
X168.135Y-85.75
X170.865Y-92.25
X170.865Y-110.25
X172.135Y-92.25
X172.135Y-110.25
X175.865Y-67.75
X175.865Y-85.75
X177.135Y-67.75
X177.135Y-85.75
X179.865Y-92.25
X179.865Y-110.25
X181.135Y-92.25
X181.135Y-110.25
X184.865Y-67.75
X184.865Y-85.75
X186.135Y-67.75
X186.135Y-85.75
X188.865Y-92.25
X188.865Y-110.25
X190.135Y-92.25
X190.135Y-110.25
X193.865Y-67.75
X193.865Y-85.75
X195.135Y-67.75
X195.135Y-85.75
T4
X108.0Y-54.25
X108.0Y-72.25
X108.0Y-105.75
X108.0Y-123.75
X108.25Y-90.5
X108.25Y-108.5
X110.0Y-54.25
X110.0Y-72.25
X110.0Y-105.75
X110.0Y-123.75
X112.0Y-54.25
X112.0Y-72.25
X112.0Y-105.75
X112.0Y-123.75
X113.75Y-69.5
X113.75Y-87.5
X114.0Y-54.25
X114.0Y-72.25
X114.0Y-105.75
X114.0Y-123.75
X117.0Y-54.25
X117.0Y-72.25
X117.0Y-105.75
X117.0Y-123.75
X117.25Y-90.5
X117.25Y-108.5
X119.0Y-54.25
X119.0Y-72.25
X119.0Y-105.75
X119.0Y-123.75
X121.0Y-54.25
X121.0Y-72.25
X121.0Y-105.75
X121.0Y-123.75
X122.75Y-69.5
X122.75Y-87.5
X123.0Y-54.25
X123.0Y-72.25
X123.0Y-105.75
X123.0Y-123.75
X126.0Y-54.25
X126.0Y-72.25
X126.0Y-105.75
X126.0Y-123.75
X126.25Y-90.5
X126.25Y-108.5
X128.0Y-54.25
X128.0Y-72.25
X128.0Y-105.75
X128.0Y-123.75
X130.0Y-54.25
X130.0Y-72.25
X130.0Y-105.75
X130.0Y-123.75
X131.75Y-69.5
X131.75Y-87.5
X132.0Y-54.25
X132.0Y-72.25
X132.0Y-105.75
X132.0Y-123.75
X135.0Y-54.25
X135.0Y-72.25
X135.0Y-105.75
X135.0Y-123.75
X135.25Y-90.5
X135.25Y-108.5
X137.0Y-54.25
X137.0Y-72.25
X137.0Y-105.75
X137.0Y-123.75
X139.0Y-54.25
X139.0Y-72.25
X139.0Y-105.75
X139.0Y-123.75
X140.75Y-69.5
X140.75Y-87.5
X141.0Y-54.25
X141.0Y-72.25
X141.0Y-105.75
X141.0Y-123.75
X144.0Y-54.25
X144.0Y-72.25
X144.0Y-105.75
X144.0Y-123.75
X144.25Y-90.5
X144.25Y-108.5
X146.0Y-54.25
X146.0Y-72.25
X146.0Y-105.75
X146.0Y-123.75
X148.0Y-54.25
X148.0Y-72.25
X148.0Y-105.75
X148.0Y-123.75
X149.75Y-69.5
X149.75Y-87.5
X150.0Y-54.25
X150.0Y-72.25
X150.0Y-105.75
X150.0Y-123.75
X153.0Y-54.25
X153.0Y-72.25
X153.0Y-105.75
X153.0Y-123.75
X153.25Y-90.5
X153.25Y-108.5
X155.0Y-54.25
X155.0Y-72.25
X155.0Y-105.75
X155.0Y-123.75
X157.0Y-54.25
X157.0Y-72.25
X157.0Y-105.75
X157.0Y-123.75
X158.75Y-69.5
X158.75Y-87.5
X159.0Y-54.25
X159.0Y-72.25
X159.0Y-105.75
X159.0Y-123.75
X162.0Y-54.25
X162.0Y-72.25
X162.0Y-105.75
X162.0Y-123.75
X162.25Y-90.5
X162.25Y-108.5
X164.0Y-54.25
X164.0Y-72.25
X164.0Y-105.75
X164.0Y-123.75
X166.0Y-54.25
X166.0Y-72.25
X166.0Y-105.75
X166.0Y-123.75
X167.75Y-69.5
X167.75Y-87.5
X168.0Y-54.25
X168.0Y-72.25
X168.0Y-105.75
X168.0Y-123.75
X171.0Y-54.25
X171.0Y-72.25
X171.0Y-105.75
X171.0Y-123.75
X171.25Y-90.5
X171.25Y-108.5
X173.0Y-54.25
X173.0Y-72.25
X173.0Y-105.75
X173.0Y-123.75
X175.0Y-54.25
X175.0Y-72.25
X175.0Y-105.75
X175.0Y-123.75
X176.75Y-69.5
X176.75Y-87.5
X177.0Y-54.25
X177.0Y-72.25
X177.0Y-105.75
X177.0Y-123.75
X180.0Y-54.25
X180.0Y-72.25
X180.0Y-105.75
X180.0Y-123.75
X180.25Y-90.5
X180.25Y-108.5
X182.0Y-54.25
X182.0Y-72.25
X182.0Y-105.75
X182.0Y-123.75
X184.0Y-54.25
X184.0Y-72.25
X184.0Y-105.75
X184.0Y-123.75
X185.75Y-69.5
X185.75Y-87.5
X186.0Y-54.25
X186.0Y-72.25
X186.0Y-105.75
X186.0Y-123.75
X189.0Y-54.25
X189.0Y-72.25
X189.0Y-105.75
X189.0Y-123.75
X189.25Y-90.5
X189.25Y-108.5
X191.0Y-54.25
X191.0Y-72.25
X191.0Y-105.75
X191.0Y-123.75
X193.0Y-54.25
X193.0Y-72.25
X193.0Y-105.75
X193.0Y-123.75
X194.75Y-69.5
X194.75Y-87.5
X195.0Y-54.25
X195.0Y-72.25
X195.0Y-105.75
X195.0Y-123.75
M30
