G04 #@! TF.GenerationSoftware,KiCad,Pcbnew,7.0.11*
G04 #@! TF.CreationDate,2024-06-06T00:44:59+09:00*
G04 #@! TF.ProjectId,motordecoder2-K3057,6d6f746f-7264-4656-936f-646572322d4b,rev?*
G04 #@! TF.SameCoordinates,Original*
G04 #@! TF.FileFunction,Profile,NP*
%FSLAX46Y46*%
G04 Gerber Fmt 4.6, Leading zero omitted, Abs format (unit mm)*
G04 Created by KiCad (PCBNEW 7.0.11) date 2024-06-06 00:44:59*
%MOMM*%
%LPD*%
G01*
G04 APERTURE LIST*
G04 #@! TA.AperFunction,Profile*
%ADD10C,0.150000*%
G04 #@! TD*
G04 APERTURE END LIST*
D10*
X108500000Y-102500000D02*
G75*
G03*
X109000000Y-102000000I0J500000D01*
G01*
X120000000Y-43500000D02*
G75*
G03*
X120500000Y-43000000I0J500000D01*
G01*
X120000000Y-127000000D02*
G75*
G03*
X119500000Y-126500000I-500000J0D01*
G01*
X119500000Y-101500000D02*
X117500000Y-101500000D01*
X127000000Y-113000000D02*
X120000000Y-113000000D01*
X137000000Y-72500000D02*
X140500000Y-72500000D01*
X141000000Y-73000000D02*
X141000000Y-75000000D01*
X117000000Y-47000000D02*
X117000000Y-49000000D01*
X116000000Y-105000000D02*
X116000000Y-107000000D01*
X164500000Y-37500000D02*
X164500000Y-35000000D01*
X120000000Y-79000000D02*
G75*
G03*
X119500000Y-78500000I-500000J0D01*
G01*
X141000000Y-41000000D02*
X141000000Y-43000000D01*
X127500000Y-127000000D02*
G75*
G03*
X127000000Y-127500000I0J-500000D01*
G01*
X141000000Y-105000000D02*
X141000000Y-107000000D01*
X130000000Y-63500000D02*
G75*
G03*
X129500000Y-63000000I-500000J0D01*
G01*
X163000000Y-45500000D02*
X163500000Y-45500000D01*
X94000000Y-77500000D02*
X93500000Y-77500000D01*
X137000000Y-120500000D02*
G75*
G03*
X136500000Y-121000000I0J-500000D01*
G01*
X119500000Y-110500000D02*
X117500000Y-110500000D01*
X136500000Y-123000000D02*
G75*
G03*
X137000000Y-123500000I500000J0D01*
G01*
X120000000Y-59500000D02*
G75*
G03*
X120500000Y-59000000I0J500000D01*
G01*
X92500000Y-78500000D02*
X92500000Y-82000000D01*
X140000000Y-51000000D02*
X148000000Y-51000000D01*
X137000000Y-85000000D02*
G75*
G03*
X137500000Y-85500000I500000J0D01*
G01*
X148500000Y-77500000D02*
G75*
G03*
X148000000Y-78000000I0J-500000D01*
G01*
X137000000Y-40500000D02*
X140500000Y-40500000D01*
X137000000Y-40500000D02*
G75*
G03*
X136500000Y-41000000I0J-500000D01*
G01*
X140000000Y-129000000D02*
X148000000Y-129000000D01*
X163500000Y-86500000D02*
G75*
G03*
X164500000Y-85500000I0J1000000D01*
G01*
X94000000Y-45500000D02*
X93500000Y-45500000D01*
X120000000Y-99000000D02*
X120000000Y-101000000D01*
X108500000Y-118500000D02*
X94000000Y-118500000D01*
X120500000Y-73000000D02*
G75*
G03*
X120000000Y-72500000I-500000J0D01*
G01*
X130000000Y-67000000D02*
X137000000Y-67000000D01*
X130000000Y-51000000D02*
X137000000Y-51000000D01*
X109000000Y-46000000D02*
G75*
G03*
X108500000Y-45500000I-500000J0D01*
G01*
X117000000Y-127000000D02*
X117000000Y-129000000D01*
X137500000Y-46500000D02*
X139500000Y-46500000D01*
X137500000Y-110500000D02*
X139500000Y-110500000D01*
X127500000Y-111000000D02*
G75*
G03*
X127000000Y-111500000I0J-500000D01*
G01*
X94000000Y-86500000D02*
X93500000Y-86500000D01*
X163500000Y-102500000D02*
G75*
G03*
X164500000Y-101500000I0J1000000D01*
G01*
X140000000Y-35000000D02*
X148000000Y-35000000D01*
X140000000Y-79000000D02*
X140000000Y-81000000D01*
X137000000Y-72500000D02*
G75*
G03*
X136500000Y-73000000I0J-500000D01*
G01*
X127500000Y-111000000D02*
X129500000Y-111000000D01*
X129500000Y-101000000D02*
G75*
G03*
X130000000Y-100500000I0J500000D01*
G01*
X109000000Y-35000000D02*
X109000000Y-38000000D01*
X119500000Y-117500000D02*
G75*
G03*
X120000000Y-117000000I0J500000D01*
G01*
X141000000Y-57000000D02*
X141000000Y-59000000D01*
X139500000Y-85500000D02*
G75*
G03*
X140000000Y-85000000I0J500000D01*
G01*
X140000000Y-83000000D02*
X140000000Y-85000000D01*
X120000000Y-65000000D02*
X120000000Y-63000000D01*
X109000000Y-97000000D02*
X109000000Y-94000000D01*
X117000000Y-69000000D02*
X117000000Y-67000000D01*
X163000000Y-118500000D02*
X148500000Y-118500000D01*
X148000000Y-94000000D02*
X148000000Y-97000000D01*
X137000000Y-104500000D02*
G75*
G03*
X136500000Y-105000000I0J-500000D01*
G01*
X119500000Y-46500000D02*
X117500000Y-46500000D01*
X141000000Y-121000000D02*
X141000000Y-123000000D01*
X92500000Y-110500000D02*
X92500000Y-114000000D01*
X130000000Y-127500000D02*
G75*
G03*
X129500000Y-127000000I-500000J0D01*
G01*
X141000000Y-57000000D02*
G75*
G03*
X140500000Y-56500000I-500000J0D01*
G01*
X116500000Y-40500000D02*
X120000000Y-40500000D01*
X119500000Y-62500000D02*
X117500000Y-62500000D01*
X108500000Y-70500000D02*
G75*
G03*
X109000000Y-70000000I0J500000D01*
G01*
X116000000Y-59000000D02*
G75*
G03*
X116500000Y-59500000I500000J0D01*
G01*
X139500000Y-37500000D02*
X137500000Y-37500000D01*
X164500000Y-35000000D02*
X172000000Y-35000000D01*
X117000000Y-49000000D02*
X109000000Y-49000000D01*
X127000000Y-127500000D02*
X127000000Y-129000000D01*
X116000000Y-121000000D02*
X116000000Y-123000000D01*
X136500000Y-59000000D02*
G75*
G03*
X137000000Y-59500000I500000J0D01*
G01*
X127000000Y-84500000D02*
G75*
G03*
X127500000Y-85000000I500000J0D01*
G01*
X120000000Y-115000000D02*
X120000000Y-117000000D01*
X127500000Y-37000000D02*
X129500000Y-37000000D01*
X140000000Y-97000000D02*
X148000000Y-97000000D01*
X108500000Y-102500000D02*
X94000000Y-102500000D01*
X117000000Y-81000000D02*
X109000000Y-81000000D01*
X108500000Y-125500000D02*
X94000000Y-125500000D01*
X108500000Y-77500000D02*
X94000000Y-77500000D01*
X130000000Y-127500000D02*
X130000000Y-129000000D01*
X140000000Y-111000000D02*
X140000000Y-113000000D01*
X137000000Y-88500000D02*
G75*
G03*
X136500000Y-89000000I0J-500000D01*
G01*
X116500000Y-72500000D02*
X120000000Y-72500000D01*
X127500000Y-95000000D02*
G75*
G03*
X127000000Y-95500000I0J-500000D01*
G01*
X109000000Y-65000000D02*
X109000000Y-62000000D01*
X137500000Y-94500000D02*
G75*
G03*
X137000000Y-95000000I0J-500000D01*
G01*
X117000000Y-113000000D02*
X109000000Y-113000000D01*
X139500000Y-117500000D02*
X137500000Y-117500000D01*
X116000000Y-91000000D02*
G75*
G03*
X116500000Y-91500000I500000J0D01*
G01*
X130000000Y-111500000D02*
X130000000Y-113000000D01*
X139500000Y-101500000D02*
G75*
G03*
X140000000Y-101000000I0J500000D01*
G01*
X148000000Y-38000000D02*
G75*
G03*
X148500000Y-38500000I500000J0D01*
G01*
X148000000Y-110000000D02*
X148000000Y-113000000D01*
X117500000Y-110500000D02*
G75*
G03*
X117000000Y-111000000I0J-500000D01*
G01*
X116500000Y-120500000D02*
G75*
G03*
X116000000Y-121000000I0J-500000D01*
G01*
X94000000Y-93500000D02*
X93500000Y-93500000D01*
X140000000Y-111000000D02*
G75*
G03*
X139500000Y-110500000I-500000J0D01*
G01*
X130000000Y-36500000D02*
X130000000Y-35000000D01*
X136500000Y-91000000D02*
G75*
G03*
X137000000Y-91500000I500000J0D01*
G01*
X163500000Y-38500000D02*
G75*
G03*
X164500000Y-37500000I0J1000000D01*
G01*
X117000000Y-37000000D02*
X117000000Y-35000000D01*
X92500000Y-37500000D02*
X92500000Y-35000000D01*
X141000000Y-89000000D02*
G75*
G03*
X140500000Y-88500000I-500000J0D01*
G01*
X117500000Y-62500000D02*
G75*
G03*
X117000000Y-63000000I0J-500000D01*
G01*
X148000000Y-102000000D02*
X148000000Y-99000000D01*
X148000000Y-126000000D02*
X148000000Y-129000000D01*
X108500000Y-38500000D02*
X94000000Y-38500000D01*
X127000000Y-68500000D02*
G75*
G03*
X127500000Y-69000000I500000J0D01*
G01*
X87000000Y-66000000D02*
X87000000Y-82000000D01*
X163000000Y-70500000D02*
X163500000Y-70500000D01*
X163000000Y-86500000D02*
X163500000Y-86500000D01*
X120000000Y-49000000D02*
X120000000Y-47000000D01*
X140000000Y-63000000D02*
X140000000Y-65000000D01*
X140000000Y-47000000D02*
X140000000Y-49000000D01*
X120000000Y-51000000D02*
X127000000Y-51000000D01*
X116500000Y-107500000D02*
X120000000Y-107500000D01*
X136500000Y-107000000D02*
X136500000Y-105000000D01*
X148500000Y-61500000D02*
X163000000Y-61500000D01*
X120000000Y-129000000D02*
X120000000Y-127000000D01*
X120000000Y-83000000D02*
X120000000Y-85000000D01*
X164500000Y-85500000D02*
X164500000Y-82000000D01*
X92500000Y-126500000D02*
X92500000Y-129000000D01*
X117000000Y-79000000D02*
X117000000Y-81000000D01*
X116000000Y-43000000D02*
G75*
G03*
X116500000Y-43500000I500000J0D01*
G01*
X127000000Y-52500000D02*
X127000000Y-51000000D01*
X148000000Y-86000000D02*
G75*
G03*
X148500000Y-86500000I500000J0D01*
G01*
X172000000Y-50000000D02*
X172000000Y-66000000D01*
X127000000Y-47500000D02*
X127000000Y-49000000D01*
X137000000Y-101000000D02*
X137000000Y-99000000D01*
X87000000Y-114000000D02*
X87000000Y-129000000D01*
X164500000Y-126500000D02*
X164500000Y-129000000D01*
X120000000Y-91500000D02*
G75*
G03*
X120500000Y-91000000I0J500000D01*
G01*
X129500000Y-85000000D02*
G75*
G03*
X130000000Y-84500000I0J500000D01*
G01*
X163000000Y-86500000D02*
X148500000Y-86500000D01*
X127000000Y-81000000D02*
X120000000Y-81000000D01*
X117500000Y-126500000D02*
G75*
G03*
X117000000Y-127000000I0J-500000D01*
G01*
X139500000Y-69500000D02*
G75*
G03*
X140000000Y-69000000I0J500000D01*
G01*
X148500000Y-125500000D02*
G75*
G03*
X148000000Y-126000000I0J-500000D01*
G01*
X139500000Y-53500000D02*
G75*
G03*
X140000000Y-53000000I0J500000D01*
G01*
X129500000Y-117000000D02*
G75*
G03*
X130000000Y-116500000I0J500000D01*
G01*
X120000000Y-67000000D02*
X127000000Y-67000000D01*
X109000000Y-126000000D02*
G75*
G03*
X108500000Y-125500000I-500000J0D01*
G01*
X116500000Y-59500000D02*
X120000000Y-59500000D01*
X148000000Y-102000000D02*
G75*
G03*
X148500000Y-102500000I500000J0D01*
G01*
X120000000Y-47000000D02*
G75*
G03*
X119500000Y-46500000I-500000J0D01*
G01*
X148000000Y-54000000D02*
G75*
G03*
X148500000Y-54500000I500000J0D01*
G01*
X108500000Y-45500000D02*
X94000000Y-45500000D01*
X137000000Y-123500000D02*
X140500000Y-123500000D01*
X137500000Y-46500000D02*
G75*
G03*
X137000000Y-47000000I0J-500000D01*
G01*
X120500000Y-105000000D02*
G75*
G03*
X120000000Y-104500000I-500000J0D01*
G01*
X148500000Y-61500000D02*
G75*
G03*
X148000000Y-62000000I0J-500000D01*
G01*
X140000000Y-99000000D02*
X140000000Y-101000000D01*
X130000000Y-113000000D02*
X137000000Y-113000000D01*
X109000000Y-94000000D02*
G75*
G03*
X108500000Y-93500000I-500000J0D01*
G01*
X137500000Y-78500000D02*
X139500000Y-78500000D01*
X127500000Y-69000000D02*
X129500000Y-69000000D01*
X120500000Y-73000000D02*
X120500000Y-75000000D01*
X130000000Y-99000000D02*
X137000000Y-99000000D01*
X116500000Y-88500000D02*
G75*
G03*
X116000000Y-89000000I0J-500000D01*
G01*
X120500000Y-57000000D02*
X120500000Y-59000000D01*
X137000000Y-43500000D02*
X140500000Y-43500000D01*
X137000000Y-91500000D02*
X140500000Y-91500000D01*
X116000000Y-89000000D02*
X116000000Y-91000000D01*
X148000000Y-46000000D02*
X148000000Y-49000000D01*
X117000000Y-117000000D02*
G75*
G03*
X117500000Y-117500000I500000J0D01*
G01*
X137000000Y-97000000D02*
X137000000Y-95000000D01*
X130000000Y-116500000D02*
X130000000Y-115000000D01*
X139500000Y-37500000D02*
G75*
G03*
X140000000Y-37000000I0J500000D01*
G01*
X117500000Y-46500000D02*
G75*
G03*
X117000000Y-47000000I0J-500000D01*
G01*
X108500000Y-109500000D02*
X94000000Y-109500000D01*
X148500000Y-109500000D02*
X163000000Y-109500000D01*
X127000000Y-52500000D02*
G75*
G03*
X127500000Y-53000000I500000J0D01*
G01*
X109000000Y-115000000D02*
X109000000Y-118000000D01*
X94000000Y-109500000D02*
X93500000Y-109500000D01*
X140000000Y-95000000D02*
G75*
G03*
X139500000Y-94500000I-500000J0D01*
G01*
X120000000Y-97000000D02*
X120000000Y-95000000D01*
X119500000Y-101500000D02*
G75*
G03*
X120000000Y-101000000I0J500000D01*
G01*
X92500000Y-117500000D02*
X92500000Y-114000000D01*
X92500000Y-62500000D02*
X92500000Y-66000000D01*
X163000000Y-70500000D02*
X148500000Y-70500000D01*
X140000000Y-51000000D02*
X140000000Y-53000000D01*
X117500000Y-78500000D02*
G75*
G03*
X117000000Y-79000000I0J-500000D01*
G01*
X92500000Y-53500000D02*
X92500000Y-50000000D01*
X137000000Y-37000000D02*
G75*
G03*
X137500000Y-37500000I500000J0D01*
G01*
X141000000Y-41000000D02*
G75*
G03*
X140500000Y-40500000I-500000J0D01*
G01*
X148500000Y-109500000D02*
G75*
G03*
X148000000Y-110000000I0J-500000D01*
G01*
X119500000Y-53500000D02*
X117500000Y-53500000D01*
X130000000Y-95500000D02*
X130000000Y-97000000D01*
X136500000Y-123000000D02*
X136500000Y-121000000D01*
X137000000Y-49000000D02*
X137000000Y-47000000D01*
X93500000Y-45500000D02*
G75*
G03*
X92500000Y-46500000I0J-1000000D01*
G01*
X140500000Y-123500000D02*
G75*
G03*
X141000000Y-123000000I0J500000D01*
G01*
X137500000Y-126500000D02*
X139500000Y-126500000D01*
X130000000Y-63500000D02*
X130000000Y-65000000D01*
X120000000Y-95000000D02*
G75*
G03*
X119500000Y-94500000I-500000J0D01*
G01*
X120000000Y-107500000D02*
G75*
G03*
X120500000Y-107000000I0J500000D01*
G01*
X130000000Y-47500000D02*
X130000000Y-49000000D01*
X141000000Y-121000000D02*
G75*
G03*
X140500000Y-120500000I-500000J0D01*
G01*
X109000000Y-129000000D02*
X109000000Y-126000000D01*
X120500000Y-89000000D02*
G75*
G03*
X120000000Y-88500000I-500000J0D01*
G01*
X116500000Y-104500000D02*
X120000000Y-104500000D01*
X136500000Y-43000000D02*
X136500000Y-41000000D01*
X92500000Y-101500000D02*
X92500000Y-98000000D01*
X163000000Y-102500000D02*
X163500000Y-102500000D01*
X137500000Y-126500000D02*
G75*
G03*
X137000000Y-127000000I0J-500000D01*
G01*
X108500000Y-93500000D02*
X94000000Y-93500000D01*
X129500000Y-69000000D02*
G75*
G03*
X130000000Y-68500000I0J500000D01*
G01*
X164500000Y-53500000D02*
X164500000Y-50000000D01*
X120000000Y-111000000D02*
G75*
G03*
X119500000Y-110500000I-500000J0D01*
G01*
X120000000Y-99000000D02*
X127000000Y-99000000D01*
X164500000Y-78500000D02*
G75*
G03*
X163500000Y-77500000I-1000000J0D01*
G01*
X92500000Y-101500000D02*
G75*
G03*
X93500000Y-102500000I1000000J0D01*
G01*
X92500000Y-129000000D02*
X87000000Y-129000000D01*
X108500000Y-70500000D02*
X94000000Y-70500000D01*
X116000000Y-57000000D02*
X116000000Y-59000000D01*
X116500000Y-91500000D02*
X120000000Y-91500000D01*
X92500000Y-85500000D02*
X92500000Y-82000000D01*
X130000000Y-35000000D02*
X137000000Y-35000000D01*
X164500000Y-94500000D02*
G75*
G03*
X163500000Y-93500000I-1000000J0D01*
G01*
X120000000Y-123500000D02*
G75*
G03*
X120500000Y-123000000I0J500000D01*
G01*
X141000000Y-105000000D02*
G75*
G03*
X140500000Y-104500000I-500000J0D01*
G01*
X93500000Y-109500000D02*
G75*
G03*
X92500000Y-110500000I0J-1000000D01*
G01*
X109000000Y-113000000D02*
X109000000Y-110000000D01*
X127000000Y-95500000D02*
X127000000Y-97000000D01*
X148000000Y-118000000D02*
G75*
G03*
X148500000Y-118500000I500000J0D01*
G01*
X94000000Y-54500000D02*
X93500000Y-54500000D01*
X94000000Y-102500000D02*
X93500000Y-102500000D01*
X127000000Y-97000000D02*
X120000000Y-97000000D01*
X109000000Y-83000000D02*
X117000000Y-83000000D01*
X127000000Y-129000000D02*
X120000000Y-129000000D01*
X87000000Y-98000000D02*
X87000000Y-114000000D01*
X127000000Y-111500000D02*
X127000000Y-113000000D01*
X172000000Y-98000000D02*
X172000000Y-114000000D01*
X130000000Y-81000000D02*
X137000000Y-81000000D01*
X127000000Y-100500000D02*
X127000000Y-99000000D01*
X129500000Y-37000000D02*
G75*
G03*
X130000000Y-36500000I0J500000D01*
G01*
X109000000Y-110000000D02*
G75*
G03*
X108500000Y-109500000I-500000J0D01*
G01*
X116500000Y-56500000D02*
G75*
G03*
X116000000Y-57000000I0J-500000D01*
G01*
X139500000Y-69500000D02*
X137500000Y-69500000D01*
X116000000Y-107000000D02*
G75*
G03*
X116500000Y-107500000I500000J0D01*
G01*
X94000000Y-70500000D02*
X93500000Y-70500000D01*
X137000000Y-85000000D02*
X137000000Y-83000000D01*
X137000000Y-56500000D02*
G75*
G03*
X136500000Y-57000000I0J-500000D01*
G01*
X94000000Y-125500000D02*
X93500000Y-125500000D01*
X117000000Y-117000000D02*
X117000000Y-115000000D01*
X163000000Y-118500000D02*
X163500000Y-118500000D01*
X163500000Y-54500000D02*
G75*
G03*
X164500000Y-53500000I0J1000000D01*
G01*
X92500000Y-117500000D02*
G75*
G03*
X93500000Y-118500000I1000000J0D01*
G01*
X117000000Y-95000000D02*
X117000000Y-97000000D01*
X120500000Y-41000000D02*
X120500000Y-43000000D01*
X127500000Y-47000000D02*
X129500000Y-47000000D01*
X140000000Y-67000000D02*
X140000000Y-69000000D01*
X140000000Y-113000000D02*
X148000000Y-113000000D01*
X163000000Y-54500000D02*
X148500000Y-54500000D01*
X164500000Y-101500000D02*
X164500000Y-98000000D01*
X127500000Y-53000000D02*
X129500000Y-53000000D01*
X136500000Y-75000000D02*
G75*
G03*
X137000000Y-75500000I500000J0D01*
G01*
X116500000Y-75500000D02*
X120000000Y-75500000D01*
X130000000Y-95500000D02*
G75*
G03*
X129500000Y-95000000I-500000J0D01*
G01*
X137500000Y-110500000D02*
G75*
G03*
X137000000Y-111000000I0J-500000D01*
G01*
X93500000Y-77500000D02*
G75*
G03*
X92500000Y-78500000I0J-1000000D01*
G01*
X116000000Y-123000000D02*
G75*
G03*
X116500000Y-123500000I500000J0D01*
G01*
X127000000Y-116500000D02*
X127000000Y-115000000D01*
X109000000Y-99000000D02*
X117000000Y-99000000D01*
X108500000Y-61500000D02*
X94000000Y-61500000D01*
X137000000Y-53000000D02*
X137000000Y-51000000D01*
X127000000Y-100500000D02*
G75*
G03*
X127500000Y-101000000I500000J0D01*
G01*
X116500000Y-88500000D02*
X120000000Y-88500000D01*
X117000000Y-101000000D02*
X117000000Y-99000000D01*
X148500000Y-45500000D02*
G75*
G03*
X148000000Y-46000000I0J-500000D01*
G01*
X164500000Y-69500000D02*
X164500000Y-66000000D01*
X116500000Y-72500000D02*
G75*
G03*
X116000000Y-73000000I0J-500000D01*
G01*
X92500000Y-46500000D02*
X92500000Y-50000000D01*
X137000000Y-53000000D02*
G75*
G03*
X137500000Y-53500000I500000J0D01*
G01*
X136500000Y-91000000D02*
X136500000Y-89000000D01*
X163500000Y-70500000D02*
G75*
G03*
X164500000Y-69500000I0J1000000D01*
G01*
X137000000Y-59500000D02*
X140500000Y-59500000D01*
X120000000Y-63000000D02*
G75*
G03*
X119500000Y-62500000I-500000J0D01*
G01*
X140000000Y-83000000D02*
X148000000Y-83000000D01*
X94000000Y-61500000D02*
X93500000Y-61500000D01*
X119500000Y-78500000D02*
X117500000Y-78500000D01*
X140000000Y-95000000D02*
X140000000Y-97000000D01*
X137000000Y-56500000D02*
X140500000Y-56500000D01*
X120000000Y-67000000D02*
X120000000Y-69000000D01*
X164500000Y-110500000D02*
X164500000Y-114000000D01*
X164500000Y-94500000D02*
X164500000Y-98000000D01*
X108500000Y-86500000D02*
G75*
G03*
X109000000Y-86000000I0J500000D01*
G01*
X164500000Y-62500000D02*
G75*
G03*
X163500000Y-61500000I-1000000J0D01*
G01*
X108500000Y-54500000D02*
X94000000Y-54500000D01*
X127500000Y-47000000D02*
G75*
G03*
X127000000Y-47500000I0J-500000D01*
G01*
X117000000Y-101000000D02*
G75*
G03*
X117500000Y-101500000I500000J0D01*
G01*
X148000000Y-86000000D02*
X148000000Y-83000000D01*
X117000000Y-69000000D02*
G75*
G03*
X117500000Y-69500000I500000J0D01*
G01*
X120000000Y-35000000D02*
X120000000Y-37000000D01*
X94000000Y-38500000D02*
X93500000Y-38500000D01*
X109000000Y-62000000D02*
G75*
G03*
X108500000Y-61500000I-500000J0D01*
G01*
X120000000Y-81000000D02*
X120000000Y-79000000D01*
X120000000Y-35000000D02*
X127000000Y-35000000D01*
X172000000Y-66000000D02*
X172000000Y-82000000D01*
X116500000Y-40500000D02*
G75*
G03*
X116000000Y-41000000I0J-500000D01*
G01*
X119500000Y-117500000D02*
X117500000Y-117500000D01*
X148500000Y-125500000D02*
X163000000Y-125500000D01*
X140000000Y-79000000D02*
G75*
G03*
X139500000Y-78500000I-500000J0D01*
G01*
X119500000Y-126500000D02*
X117500000Y-126500000D01*
X120000000Y-83000000D02*
X127000000Y-83000000D01*
X127500000Y-127000000D02*
X129500000Y-127000000D01*
X116500000Y-104500000D02*
G75*
G03*
X116000000Y-105000000I0J-500000D01*
G01*
X119500000Y-69500000D02*
G75*
G03*
X120000000Y-69000000I0J500000D01*
G01*
X109000000Y-67000000D02*
X109000000Y-70000000D01*
X94000000Y-118500000D02*
X93500000Y-118500000D01*
X116500000Y-43500000D02*
X120000000Y-43500000D01*
X137000000Y-69000000D02*
G75*
G03*
X137500000Y-69500000I500000J0D01*
G01*
X164500000Y-46500000D02*
X164500000Y-50000000D01*
X127000000Y-79500000D02*
X127000000Y-81000000D01*
X127500000Y-101000000D02*
X129500000Y-101000000D01*
X137000000Y-37000000D02*
X137000000Y-35000000D01*
X119500000Y-85500000D02*
X117500000Y-85500000D01*
X130000000Y-129000000D02*
X137000000Y-129000000D01*
X148000000Y-54000000D02*
X148000000Y-51000000D01*
X117000000Y-97000000D02*
X109000000Y-97000000D01*
X140000000Y-127000000D02*
X140000000Y-129000000D01*
X109000000Y-78000000D02*
G75*
G03*
X108500000Y-77500000I-500000J0D01*
G01*
X129500000Y-53000000D02*
G75*
G03*
X130000000Y-52500000I0J500000D01*
G01*
X127500000Y-79000000D02*
G75*
G03*
X127000000Y-79500000I0J-500000D01*
G01*
X92500000Y-85500000D02*
G75*
G03*
X93500000Y-86500000I1000000J0D01*
G01*
X172000000Y-114000000D02*
X172000000Y-129000000D01*
X119500000Y-37500000D02*
G75*
G03*
X120000000Y-37000000I0J500000D01*
G01*
X109000000Y-35000000D02*
X117000000Y-35000000D01*
X130000000Y-52500000D02*
X130000000Y-51000000D01*
X137500000Y-78500000D02*
G75*
G03*
X137000000Y-79000000I0J-500000D01*
G01*
X137500000Y-94500000D02*
X139500000Y-94500000D01*
X148000000Y-118000000D02*
X148000000Y-115000000D01*
X140000000Y-115000000D02*
X148000000Y-115000000D01*
X148000000Y-70000000D02*
X148000000Y-67000000D01*
X172000000Y-82000000D02*
X172000000Y-98000000D01*
X127000000Y-36500000D02*
G75*
G03*
X127500000Y-37000000I500000J0D01*
G01*
X119500000Y-37500000D02*
X117500000Y-37500000D01*
X140000000Y-49000000D02*
X148000000Y-49000000D01*
X127500000Y-85000000D02*
X129500000Y-85000000D01*
X120000000Y-51000000D02*
X120000000Y-53000000D01*
X137000000Y-117000000D02*
G75*
G03*
X137500000Y-117500000I500000J0D01*
G01*
X141000000Y-89000000D02*
X141000000Y-91000000D01*
X130000000Y-47500000D02*
G75*
G03*
X129500000Y-47000000I-500000J0D01*
G01*
X130000000Y-115000000D02*
X137000000Y-115000000D01*
X136500000Y-107000000D02*
G75*
G03*
X137000000Y-107500000I500000J0D01*
G01*
X108500000Y-54500000D02*
G75*
G03*
X109000000Y-54000000I0J500000D01*
G01*
X116500000Y-120500000D02*
X120000000Y-120500000D01*
X137000000Y-101000000D02*
G75*
G03*
X137500000Y-101500000I500000J0D01*
G01*
X164500000Y-126500000D02*
G75*
G03*
X163500000Y-125500000I-1000000J0D01*
G01*
X93500000Y-93500000D02*
G75*
G03*
X92500000Y-94500000I0J-1000000D01*
G01*
X140000000Y-47000000D02*
G75*
G03*
X139500000Y-46500000I-500000J0D01*
G01*
X127500000Y-95000000D02*
X129500000Y-95000000D01*
X130000000Y-68500000D02*
X130000000Y-67000000D01*
X172000000Y-35000000D02*
X172000000Y-50000000D01*
X117000000Y-37000000D02*
G75*
G03*
X117500000Y-37500000I500000J0D01*
G01*
X163000000Y-109500000D02*
X163500000Y-109500000D01*
X137000000Y-129000000D02*
X137000000Y-127000000D01*
X116500000Y-56500000D02*
X120000000Y-56500000D01*
X140500000Y-75500000D02*
G75*
G03*
X141000000Y-75000000I0J500000D01*
G01*
X139500000Y-101500000D02*
X137500000Y-101500000D01*
X163000000Y-38500000D02*
X163500000Y-38500000D01*
X92500000Y-94500000D02*
X92500000Y-98000000D01*
X141000000Y-73000000D02*
G75*
G03*
X140500000Y-72500000I-500000J0D01*
G01*
X164500000Y-62500000D02*
X164500000Y-66000000D01*
X137000000Y-88500000D02*
X140500000Y-88500000D01*
X116500000Y-123500000D02*
X120000000Y-123500000D01*
X120500000Y-41000000D02*
G75*
G03*
X120000000Y-40500000I-500000J0D01*
G01*
X117000000Y-53000000D02*
X117000000Y-51000000D01*
X127500000Y-63000000D02*
G75*
G03*
X127000000Y-63500000I0J-500000D01*
G01*
X164500000Y-78500000D02*
X164500000Y-82000000D01*
X127000000Y-116500000D02*
G75*
G03*
X127500000Y-117000000I500000J0D01*
G01*
X127500000Y-79000000D02*
X129500000Y-79000000D01*
X117000000Y-111000000D02*
X117000000Y-113000000D01*
X163000000Y-77500000D02*
X163500000Y-77500000D01*
X109000000Y-115000000D02*
X117000000Y-115000000D01*
X164500000Y-117500000D02*
X164500000Y-114000000D01*
X117000000Y-85000000D02*
G75*
G03*
X117500000Y-85500000I500000J0D01*
G01*
X127000000Y-84500000D02*
X127000000Y-83000000D01*
X119500000Y-53500000D02*
G75*
G03*
X120000000Y-53000000I0J500000D01*
G01*
X163500000Y-118500000D02*
G75*
G03*
X164500000Y-117500000I0J1000000D01*
G01*
X92500000Y-35000000D02*
X87000000Y-35000000D01*
X120500000Y-105000000D02*
X120500000Y-107000000D01*
X93500000Y-125500000D02*
G75*
G03*
X92500000Y-126500000I0J-1000000D01*
G01*
X140000000Y-63000000D02*
G75*
G03*
X139500000Y-62500000I-500000J0D01*
G01*
X137000000Y-75500000D02*
X140500000Y-75500000D01*
X130000000Y-111500000D02*
G75*
G03*
X129500000Y-111000000I-500000J0D01*
G01*
X109000000Y-49000000D02*
X109000000Y-46000000D01*
X130000000Y-83000000D02*
X137000000Y-83000000D01*
X148000000Y-62000000D02*
X148000000Y-65000000D01*
X93500000Y-61500000D02*
G75*
G03*
X92500000Y-62500000I0J-1000000D01*
G01*
X140000000Y-127000000D02*
G75*
G03*
X139500000Y-126500000I-500000J0D01*
G01*
X109000000Y-99000000D02*
X109000000Y-102000000D01*
X163000000Y-38500000D02*
X148500000Y-38500000D01*
X120500000Y-89000000D02*
X120500000Y-91000000D01*
X148500000Y-77500000D02*
X163000000Y-77500000D01*
X148000000Y-70000000D02*
G75*
G03*
X148500000Y-70500000I500000J0D01*
G01*
X140000000Y-81000000D02*
X148000000Y-81000000D01*
X130000000Y-79500000D02*
X130000000Y-81000000D01*
X137000000Y-65000000D02*
X137000000Y-63000000D01*
X117000000Y-85000000D02*
X117000000Y-83000000D01*
X140500000Y-91500000D02*
G75*
G03*
X141000000Y-91000000I0J500000D01*
G01*
X136500000Y-59000000D02*
X136500000Y-57000000D01*
X87000000Y-35000000D02*
X87000000Y-50000000D01*
X137000000Y-113000000D02*
X137000000Y-111000000D01*
X139500000Y-117500000D02*
G75*
G03*
X140000000Y-117000000I0J500000D01*
G01*
X130000000Y-79500000D02*
G75*
G03*
X129500000Y-79000000I-500000J0D01*
G01*
X140000000Y-35000000D02*
X140000000Y-37000000D01*
X119500000Y-69500000D02*
X117500000Y-69500000D01*
X136500000Y-43000000D02*
G75*
G03*
X137000000Y-43500000I500000J0D01*
G01*
X127000000Y-65000000D02*
X120000000Y-65000000D01*
X163000000Y-125500000D02*
X163500000Y-125500000D01*
X127000000Y-49000000D02*
X120000000Y-49000000D01*
X137000000Y-104500000D02*
X140500000Y-104500000D01*
X127000000Y-63500000D02*
X127000000Y-65000000D01*
X120000000Y-115000000D02*
X127000000Y-115000000D01*
X140500000Y-59500000D02*
G75*
G03*
X141000000Y-59000000I0J500000D01*
G01*
X108500000Y-38500000D02*
G75*
G03*
X109000000Y-38000000I0J500000D01*
G01*
X117000000Y-65000000D02*
X109000000Y-65000000D01*
X92500000Y-69500000D02*
X92500000Y-66000000D01*
X140000000Y-115000000D02*
X140000000Y-117000000D01*
X137500000Y-62500000D02*
G75*
G03*
X137000000Y-63000000I0J-500000D01*
G01*
X119500000Y-94500000D02*
X117500000Y-94500000D01*
X148000000Y-78000000D02*
X148000000Y-81000000D01*
X109000000Y-83000000D02*
X109000000Y-86000000D01*
X120500000Y-121000000D02*
X120500000Y-123000000D01*
X119500000Y-85500000D02*
G75*
G03*
X120000000Y-85000000I0J500000D01*
G01*
X120500000Y-57000000D02*
G75*
G03*
X120000000Y-56500000I-500000J0D01*
G01*
X87000000Y-50000000D02*
X87000000Y-66000000D01*
X130000000Y-49000000D02*
X137000000Y-49000000D01*
X130000000Y-100500000D02*
X130000000Y-99000000D01*
X139500000Y-53500000D02*
X137500000Y-53500000D01*
X117000000Y-53000000D02*
G75*
G03*
X117500000Y-53500000I500000J0D01*
G01*
X140500000Y-107500000D02*
G75*
G03*
X141000000Y-107000000I0J500000D01*
G01*
X127500000Y-63000000D02*
X129500000Y-63000000D01*
X117000000Y-129000000D02*
X109000000Y-129000000D01*
X137000000Y-120500000D02*
X140500000Y-120500000D01*
X164500000Y-110500000D02*
G75*
G03*
X163500000Y-109500000I-1000000J0D01*
G01*
X120000000Y-113000000D02*
X120000000Y-111000000D01*
X120500000Y-121000000D02*
G75*
G03*
X120000000Y-120500000I-500000J0D01*
G01*
X163000000Y-54500000D02*
X163500000Y-54500000D01*
X127500000Y-117000000D02*
X129500000Y-117000000D01*
X139500000Y-85500000D02*
X137500000Y-85500000D01*
X130000000Y-65000000D02*
X137000000Y-65000000D01*
X92500000Y-53500000D02*
G75*
G03*
X93500000Y-54500000I1000000J0D01*
G01*
X140500000Y-43500000D02*
G75*
G03*
X141000000Y-43000000I0J500000D01*
G01*
X127000000Y-36500000D02*
X127000000Y-35000000D01*
X109000000Y-51000000D02*
X109000000Y-54000000D01*
X148500000Y-93500000D02*
G75*
G03*
X148000000Y-94000000I0J-500000D01*
G01*
X108500000Y-118500000D02*
G75*
G03*
X109000000Y-118000000I0J500000D01*
G01*
X130000000Y-84500000D02*
X130000000Y-83000000D01*
X109000000Y-51000000D02*
X117000000Y-51000000D01*
X137000000Y-107500000D02*
X140500000Y-107500000D01*
X92500000Y-69500000D02*
G75*
G03*
X93500000Y-70500000I1000000J0D01*
G01*
X137000000Y-117000000D02*
X137000000Y-115000000D01*
X148000000Y-38000000D02*
X148000000Y-35000000D01*
X148500000Y-45500000D02*
X163000000Y-45500000D01*
X116000000Y-41000000D02*
X116000000Y-43000000D01*
X163000000Y-61500000D02*
X163500000Y-61500000D01*
X130000000Y-97000000D02*
X137000000Y-97000000D01*
X137000000Y-81000000D02*
X137000000Y-79000000D01*
X87000000Y-82000000D02*
X87000000Y-98000000D01*
X137500000Y-62500000D02*
X139500000Y-62500000D01*
X140000000Y-67000000D02*
X148000000Y-67000000D01*
X137000000Y-69000000D02*
X137000000Y-67000000D01*
X109000000Y-81000000D02*
X109000000Y-78000000D01*
X164500000Y-46500000D02*
G75*
G03*
X163500000Y-45500000I-1000000J0D01*
G01*
X117500000Y-94500000D02*
G75*
G03*
X117000000Y-95000000I0J-500000D01*
G01*
X163000000Y-93500000D02*
X163500000Y-93500000D01*
X163000000Y-102500000D02*
X148500000Y-102500000D01*
X120000000Y-75500000D02*
G75*
G03*
X120500000Y-75000000I0J500000D01*
G01*
X109000000Y-67000000D02*
X117000000Y-67000000D01*
X148500000Y-93500000D02*
X163000000Y-93500000D01*
X127000000Y-68500000D02*
X127000000Y-67000000D01*
X140000000Y-99000000D02*
X148000000Y-99000000D01*
X116000000Y-73000000D02*
X116000000Y-75000000D01*
X172000000Y-129000000D02*
X164500000Y-129000000D01*
X108500000Y-86500000D02*
X94000000Y-86500000D01*
X116000000Y-75000000D02*
G75*
G03*
X116500000Y-75500000I500000J0D01*
G01*
X117000000Y-63000000D02*
X117000000Y-65000000D01*
X136500000Y-75000000D02*
X136500000Y-73000000D01*
X140000000Y-65000000D02*
X148000000Y-65000000D01*
X92500000Y-37500000D02*
G75*
G03*
X93500000Y-38500000I1000000J0D01*
G01*
M02*
