G04 #@! TF.GenerationSoftware,KiCad,Pcbnew,7.0.11*
G04 #@! TF.CreationDate,2024-06-06T00:44:59+09:00*
G04 #@! TF.ProjectId,motordecoder2-K3057,6d6f746f-7264-4656-936f-646572322d4b,rev?*
G04 #@! TF.SameCoordinates,Original*
G04 #@! TF.FileFunction,Soldermask,Bot*
G04 #@! TF.FilePolarity,Negative*
%FSLAX46Y46*%
G04 Gerber Fmt 4.6, Leading zero omitted, Abs format (unit mm)*
G04 Created by KiCad (PCBNEW 7.0.11) date 2024-06-06 00:44:59*
%MOMM*%
%LPD*%
G01*
G04 APERTURE LIST*
%ADD10R,1.000000X1.000000*%
%ADD11R,0.950000X0.950000*%
%ADD12R,8.000000X2.000000*%
%ADD13R,7.000000X2.000000*%
%ADD14C,2.000000*%
%ADD15R,1.200000X1.200000*%
%ADD16R,0.500000X1.450000*%
%ADD17R,0.750000X1.300000*%
%ADD18R,0.300000X0.500000*%
G04 APERTURE END LIST*
D10*
X157100000Y-44700000D03*
X157400000Y-39300000D03*
D11*
X145165000Y-38500000D03*
X146435000Y-38500000D03*
D12*
X113000000Y-36000000D03*
D13*
X123500000Y-36000000D03*
X133500000Y-36000000D03*
D12*
X144000000Y-36000000D03*
X113000000Y-48000000D03*
D13*
X123500000Y-48000000D03*
X133500000Y-48000000D03*
D12*
X144000000Y-48000000D03*
X119500000Y-39500000D03*
X119500000Y-44500000D03*
D10*
X99800000Y-39300000D03*
X99500000Y-44700000D03*
D12*
X144000000Y-80000000D03*
D13*
X123500000Y-96000000D03*
D10*
X157400000Y-55300000D03*
D14*
X166500000Y-58000000D03*
D12*
X144000000Y-84000000D03*
X144000000Y-112000000D03*
D15*
X120900000Y-128100000D03*
D14*
X166500000Y-106000000D03*
D12*
X119500000Y-60500000D03*
D10*
X99500000Y-76700000D03*
D11*
X145165000Y-102500000D03*
X146435000Y-102500000D03*
D13*
X123500000Y-68000000D03*
D11*
X145165000Y-86500000D03*
X146435000Y-86500000D03*
D12*
X144000000Y-64000000D03*
D13*
X133500000Y-128000000D03*
D12*
X144000000Y-128000000D03*
D10*
X99500000Y-124700000D03*
X157100000Y-92700000D03*
D14*
X90500000Y-106000000D03*
D10*
X157400000Y-119300000D03*
X99500000Y-60700000D03*
X99800000Y-119300000D03*
D13*
X133500000Y-96000000D03*
D14*
X90500000Y-74000000D03*
X166500000Y-122000000D03*
D10*
X157100000Y-108700000D03*
D12*
X144000000Y-68000000D03*
D13*
X123500000Y-52000000D03*
D14*
X90500000Y-90000000D03*
X90500000Y-122000000D03*
D12*
X119500000Y-92500000D03*
X113000000Y-52000000D03*
X113000000Y-100000000D03*
X119500000Y-87500000D03*
X113000000Y-84000000D03*
X113000000Y-116000000D03*
D11*
X115200000Y-105365000D03*
X115200000Y-106635000D03*
D12*
X119500000Y-71500000D03*
D13*
X133500000Y-100000000D03*
D10*
X157100000Y-76700000D03*
D12*
X113000000Y-96000000D03*
D10*
X157100000Y-124700000D03*
X157400000Y-87300000D03*
D13*
X123500000Y-112000000D03*
D11*
X115200000Y-121365000D03*
X115200000Y-122635000D03*
D12*
X113000000Y-64000000D03*
D15*
X120900000Y-80100000D03*
D13*
X133500000Y-112000000D03*
X133500000Y-52000000D03*
D14*
X166500000Y-74000000D03*
D10*
X99800000Y-87300000D03*
D11*
X115200000Y-73365000D03*
X115200000Y-74635000D03*
D15*
X120900000Y-99900000D03*
D11*
X115200000Y-57365000D03*
X115200000Y-58635000D03*
D15*
X120900000Y-115900000D03*
D12*
X113000000Y-80000000D03*
X113000000Y-112000000D03*
D11*
X145165000Y-118500000D03*
X146435000Y-118500000D03*
D10*
X99800000Y-55300000D03*
X99800000Y-103300000D03*
D12*
X144000000Y-116000000D03*
D10*
X99800000Y-71300000D03*
D12*
X119500000Y-119500000D03*
D10*
X157400000Y-71300000D03*
D15*
X120900000Y-67900000D03*
D12*
X113000000Y-68000000D03*
D13*
X123500000Y-128000000D03*
D15*
X120900000Y-83900000D03*
D11*
X145165000Y-54500000D03*
X146435000Y-54500000D03*
D12*
X119500000Y-103500000D03*
D15*
X120900000Y-64100000D03*
D10*
X99500000Y-92700000D03*
D12*
X113000000Y-128000000D03*
D13*
X123500000Y-64000000D03*
D14*
X166500000Y-90000000D03*
D13*
X133500000Y-64000000D03*
D10*
X157100000Y-60700000D03*
D12*
X144000000Y-52000000D03*
D13*
X123500000Y-100000000D03*
D10*
X157400000Y-103300000D03*
D15*
X120900000Y-48100000D03*
D14*
X90500000Y-42000000D03*
D13*
X133500000Y-80000000D03*
D12*
X144000000Y-100000000D03*
D15*
X120900000Y-51900000D03*
D11*
X115200000Y-41365000D03*
X115200000Y-42635000D03*
D12*
X119500000Y-124500000D03*
X144000000Y-96000000D03*
D15*
X120900000Y-35900000D03*
D11*
X115200000Y-89365000D03*
X115200000Y-90635000D03*
X145165000Y-70500000D03*
X146435000Y-70500000D03*
D10*
X99500000Y-108700000D03*
D12*
X119500000Y-55500000D03*
X119500000Y-76500000D03*
D13*
X123500000Y-116000000D03*
X133500000Y-84000000D03*
X133500000Y-116000000D03*
D14*
X166500000Y-42000000D03*
D12*
X119500000Y-108500000D03*
D15*
X120900000Y-96100000D03*
D13*
X123500000Y-80000000D03*
X133500000Y-68000000D03*
X123500000Y-84000000D03*
D15*
X120900000Y-112100000D03*
D14*
X90500000Y-58000000D03*
D16*
X94950000Y-43375000D03*
D17*
X95575000Y-43300000D03*
D18*
X94950000Y-42550000D03*
X94950000Y-41450000D03*
D17*
X95575000Y-40700000D03*
D16*
X94950000Y-40625000D03*
X162050000Y-40625000D03*
D17*
X161425000Y-40700000D03*
D18*
X162050000Y-41450000D03*
X162050000Y-42550000D03*
D17*
X161425000Y-43300000D03*
D16*
X162050000Y-43375000D03*
X159250000Y-40625000D03*
D17*
X158625000Y-40700000D03*
D18*
X159250000Y-41450000D03*
X159250000Y-42550000D03*
D17*
X158625000Y-43300000D03*
D16*
X159250000Y-43375000D03*
X97750000Y-43375000D03*
D17*
X98375000Y-43300000D03*
D18*
X97750000Y-42550000D03*
X97750000Y-41450000D03*
D17*
X98375000Y-40700000D03*
D16*
X97750000Y-40625000D03*
X97750000Y-75375000D03*
D17*
X98375000Y-75300000D03*
D18*
X97750000Y-74550000D03*
X97750000Y-73450000D03*
D17*
X98375000Y-72700000D03*
D16*
X97750000Y-72625000D03*
X162050000Y-104625000D03*
D17*
X161425000Y-104700000D03*
D18*
X162050000Y-105450000D03*
X162050000Y-106550000D03*
D17*
X161425000Y-107300000D03*
D16*
X162050000Y-107375000D03*
X94950000Y-91375000D03*
D17*
X95575000Y-91300000D03*
D18*
X94950000Y-90550000D03*
X94950000Y-89450000D03*
D17*
X95575000Y-88700000D03*
D16*
X94950000Y-88625000D03*
X159250000Y-88625000D03*
D17*
X158625000Y-88700000D03*
D18*
X159250000Y-89450000D03*
X159250000Y-90550000D03*
D17*
X158625000Y-91300000D03*
D16*
X159250000Y-91375000D03*
X97750000Y-59375000D03*
D17*
X98375000Y-59300000D03*
D18*
X97750000Y-58550000D03*
X97750000Y-57450000D03*
D17*
X98375000Y-56700000D03*
D16*
X97750000Y-56625000D03*
X94950000Y-75375000D03*
D17*
X95575000Y-75300000D03*
D18*
X94950000Y-74550000D03*
X94950000Y-73450000D03*
D17*
X95575000Y-72700000D03*
D16*
X94950000Y-72625000D03*
X159250000Y-120625000D03*
D17*
X158625000Y-120700000D03*
D18*
X159250000Y-121450000D03*
X159250000Y-122550000D03*
D17*
X158625000Y-123300000D03*
D16*
X159250000Y-123375000D03*
X94950000Y-107375000D03*
D17*
X95575000Y-107300000D03*
D18*
X94950000Y-106550000D03*
X94950000Y-105450000D03*
D17*
X95575000Y-104700000D03*
D16*
X94950000Y-104625000D03*
X97750000Y-123375000D03*
D17*
X98375000Y-123300000D03*
D18*
X97750000Y-122550000D03*
X97750000Y-121450000D03*
D17*
X98375000Y-120700000D03*
D16*
X97750000Y-120625000D03*
X162050000Y-72625000D03*
D17*
X161425000Y-72700000D03*
D18*
X162050000Y-73450000D03*
X162050000Y-74550000D03*
D17*
X161425000Y-75300000D03*
D16*
X162050000Y-75375000D03*
X162050000Y-56625000D03*
D17*
X161425000Y-56700000D03*
D18*
X162050000Y-57450000D03*
X162050000Y-58550000D03*
D17*
X161425000Y-59300000D03*
D16*
X162050000Y-59375000D03*
X159250000Y-104625000D03*
D17*
X158625000Y-104700000D03*
D18*
X159250000Y-105450000D03*
X159250000Y-106550000D03*
D17*
X158625000Y-107300000D03*
D16*
X159250000Y-107375000D03*
X159250000Y-72625000D03*
D17*
X158625000Y-72700000D03*
D18*
X159250000Y-73450000D03*
X159250000Y-74550000D03*
D17*
X158625000Y-75300000D03*
D16*
X159250000Y-75375000D03*
X97750000Y-91375000D03*
D17*
X98375000Y-91300000D03*
D18*
X97750000Y-90550000D03*
X97750000Y-89450000D03*
D17*
X98375000Y-88700000D03*
D16*
X97750000Y-88625000D03*
X97750000Y-107375000D03*
D17*
X98375000Y-107300000D03*
D18*
X97750000Y-106550000D03*
X97750000Y-105450000D03*
D17*
X98375000Y-104700000D03*
D16*
X97750000Y-104625000D03*
X162050000Y-88625000D03*
D17*
X161425000Y-88700000D03*
D18*
X162050000Y-89450000D03*
X162050000Y-90550000D03*
D17*
X161425000Y-91300000D03*
D16*
X162050000Y-91375000D03*
X162050000Y-120625000D03*
D17*
X161425000Y-120700000D03*
D18*
X162050000Y-121450000D03*
X162050000Y-122550000D03*
D17*
X161425000Y-123300000D03*
D16*
X162050000Y-123375000D03*
X94950000Y-59375000D03*
D17*
X95575000Y-59300000D03*
D18*
X94950000Y-58550000D03*
X94950000Y-57450000D03*
D17*
X95575000Y-56700000D03*
D16*
X94950000Y-56625000D03*
X94950000Y-123375000D03*
D17*
X95575000Y-123300000D03*
D18*
X94950000Y-122550000D03*
X94950000Y-121450000D03*
D17*
X95575000Y-120700000D03*
D16*
X94950000Y-120625000D03*
X159250000Y-56625000D03*
D17*
X158625000Y-56700000D03*
D18*
X159250000Y-57450000D03*
X159250000Y-58550000D03*
D17*
X158625000Y-59300000D03*
D16*
X159250000Y-59375000D03*
M02*
