M48
; DRILL file {KiCad 7.0.11} date Thu Jun  6 00:44:59 2024
; FORMAT={-:-/ absolute / metric / decimal}
; #@! TF.CreationDate,2024-06-06T00:44:59+09:00
; #@! TF.GenerationSoftware,Kicad,Pcbnew,7.0.11
; #@! TF.FileFunction,Plated,1,2,PTH
FMAT,2
METRIC
; #@! TA.AperFunction,Plated,PTH,ViaDrill
T1C0.300
; #@! TA.AperFunction,Plated,PTH,ViaDrill
T2C0.400
; #@! TA.AperFunction,Plated,PTH,ViaDrill
T3C0.500
; #@! TA.AperFunction,Plated,PTH,ViaDrill
T4C0.600
; #@! TA.AperFunction,Plated,PTH,ComponentDrill
T5C0.600
; #@! TA.AperFunction,Plated,PTH,ComponentDrill
T6C0.700
%
G90
G05
T1
X95.9Y-39.5
X95.9Y-55.5
X95.9Y-71.5
X95.9Y-87.5
X95.9Y-103.5
X95.9Y-119.5
X96.5Y-40.1
X96.5Y-56.1
X96.5Y-72.1
X96.5Y-88.1
X96.5Y-104.1
X96.5Y-120.1
X99.4Y-40.6
X99.4Y-56.6
X99.4Y-72.6
X99.4Y-88.6
X99.4Y-104.6
X99.4Y-120.6
X100.4Y-43.8
X100.4Y-59.8
X100.4Y-75.8
X100.4Y-91.8
X100.4Y-107.8
X100.4Y-123.8
X102.6Y-43.0
X102.6Y-59.0
X102.6Y-75.0
X102.6Y-91.0
X102.6Y-107.0
X102.6Y-123.0
X104.398Y-40.0
X104.398Y-56.0
X104.398Y-72.0
X104.398Y-88.0
X104.398Y-104.0
X104.398Y-120.0
X104.9Y-39.3
X104.9Y-55.3
X104.9Y-71.3
X104.9Y-87.3
X104.9Y-103.3
X104.9Y-119.3
X106.7Y-44.7
X106.7Y-60.7
X106.7Y-76.7
X106.7Y-92.7
X106.7Y-108.7
X106.7Y-124.7
X108.5Y-40.3
X108.5Y-56.3
X108.5Y-72.3
X108.5Y-88.3
X108.5Y-104.3
X108.5Y-120.3
X115.25Y-37.75
X115.25Y-53.75
X115.25Y-69.75
X115.25Y-85.75
X115.25Y-101.75
X115.25Y-117.75
X120.3Y-44.1
X120.3Y-60.1
X120.3Y-76.1
X120.3Y-92.1
X120.3Y-108.1
X120.3Y-124.1
X121.5Y-46.25
X121.5Y-62.25
X121.5Y-78.25
X121.5Y-94.25
X121.5Y-110.25
X121.5Y-126.25
X121.75Y-42.4
X121.75Y-58.4
X121.75Y-74.4
X121.75Y-90.4
X121.75Y-106.4
X121.75Y-122.4
X122.25Y-40.6
X122.25Y-56.6
X122.25Y-72.6
X122.25Y-88.6
X122.25Y-104.6
X122.25Y-120.6
X122.887Y-41.202
X122.887Y-57.202
X122.887Y-73.202
X122.887Y-89.202
X122.887Y-105.202
X122.887Y-121.202
X129.7Y-40.2
X129.7Y-56.2
X129.7Y-72.2
X129.7Y-88.2
X129.7Y-104.2
X129.7Y-120.2
X130.5Y-44.5
X130.5Y-60.5
X130.5Y-76.5
X130.5Y-92.5
X130.5Y-108.5
X130.5Y-124.5
X131.25Y-38.75
X131.25Y-54.75
X131.25Y-70.75
X131.25Y-86.75
X131.25Y-102.75
X131.25Y-118.75
X132.6Y-38.5
X132.6Y-54.5
X132.6Y-70.5
X132.6Y-86.5
X132.6Y-102.5
X132.6Y-118.5
X133.3Y-38.6
X133.3Y-54.6
X133.3Y-70.6
X133.3Y-86.6
X133.3Y-102.6
X133.3Y-118.6
X133.5Y-42.4
X133.5Y-58.4
X133.5Y-74.4
X133.5Y-90.4
X133.5Y-106.4
X133.5Y-122.4
X135.1Y-39.7
X135.1Y-55.7
X135.1Y-71.7
X135.1Y-87.7
X135.1Y-103.7
X135.1Y-119.7
X135.5Y-44.75
X135.5Y-60.75
X135.5Y-76.75
X135.5Y-92.75
X135.5Y-108.75
X135.5Y-124.75
X141.1Y-40.0
X141.1Y-56.0
X141.1Y-72.0
X141.1Y-88.0
X141.1Y-104.0
X141.1Y-120.0
X141.3Y-46.4
X141.3Y-62.4
X141.3Y-78.4
X141.3Y-94.4
X141.3Y-110.4
X141.3Y-126.4
X141.5Y-45.2
X141.5Y-61.2
X141.5Y-77.2
X141.5Y-93.2
X141.5Y-109.2
X141.5Y-125.2
X141.85Y-38.7
X141.85Y-54.7
X141.85Y-70.7
X141.85Y-86.7
X141.85Y-102.7
X141.85Y-118.7
X142.2Y-43.4
X142.2Y-59.4
X142.2Y-75.4
X142.2Y-91.4
X142.2Y-107.4
X142.2Y-123.4
X142.9Y-39.9
X142.9Y-40.5
X142.9Y-55.9
X142.9Y-56.5
X142.9Y-71.9
X142.9Y-72.5
X142.9Y-87.9
X142.9Y-88.5
X142.9Y-103.9
X142.9Y-104.5
X142.9Y-119.9
X142.9Y-120.5
X143.372Y-45.428
X143.372Y-61.428
X143.372Y-77.428
X143.372Y-93.428
X143.372Y-109.428
X143.372Y-125.428
X143.5Y-43.6
X143.5Y-59.6
X143.5Y-75.6
X143.5Y-91.6
X143.5Y-107.6
X143.5Y-123.6
X143.6Y-38.3
X143.6Y-54.3
X143.6Y-70.3
X143.6Y-86.3
X143.6Y-102.3
X143.6Y-118.3
X144.3Y-43.9
X144.3Y-59.9
X144.3Y-75.9
X144.3Y-91.9
X144.3Y-107.9
X144.3Y-123.9
X144.5Y-39.9
X144.5Y-55.9
X144.5Y-71.9
X144.5Y-87.9
X144.5Y-103.9
X144.5Y-119.9
X144.8Y-45.5
X144.8Y-61.5
X144.8Y-77.5
X144.8Y-93.5
X144.8Y-109.5
X144.8Y-125.5
X145.25Y-42.5
X145.25Y-58.5
X145.25Y-74.5
X145.25Y-90.5
X145.25Y-106.5
X145.25Y-122.5
X145.5Y-47.9
X145.5Y-63.9
X145.5Y-79.9
X145.5Y-95.9
X145.5Y-111.9
X145.5Y-127.9
X145.7Y-39.5
X145.7Y-55.5
X145.7Y-71.5
X145.7Y-87.5
X145.7Y-103.5
X145.7Y-119.5
X146.0Y-45.8
X146.0Y-61.8
X146.0Y-77.8
X146.0Y-93.8
X146.0Y-109.8
X146.0Y-125.8
X146.2Y-47.9
X146.2Y-63.9
X146.2Y-79.9
X146.2Y-95.9
X146.2Y-111.9
X146.2Y-127.9
X146.25Y-41.5
X146.25Y-57.5
X146.25Y-73.5
X146.25Y-89.5
X146.25Y-105.5
X146.25Y-121.5
X146.5Y-39.6
X146.5Y-55.6
X146.5Y-71.6
X146.5Y-87.6
X146.5Y-103.6
X146.5Y-119.6
X146.9Y-44.1
X146.9Y-46.4
X146.9Y-60.1
X146.9Y-62.4
X146.9Y-76.1
X146.9Y-78.4
X146.9Y-92.1
X146.9Y-94.4
X146.9Y-108.1
X146.9Y-110.4
X146.9Y-124.1
X146.9Y-126.4
X147.3Y-40.1
X147.3Y-56.1
X147.3Y-72.1
X147.3Y-88.1
X147.3Y-104.1
X147.3Y-120.1
X148.8Y-41.9
X148.8Y-57.9
X148.8Y-73.9
X148.8Y-89.9
X148.8Y-105.9
X148.8Y-121.9
X149.2Y-45.0
X149.2Y-61.0
X149.2Y-77.0
X149.2Y-93.0
X149.2Y-109.0
X149.2Y-125.0
X150.0Y-42.7
X150.0Y-58.7
X150.0Y-74.7
X150.0Y-90.7
X150.0Y-106.7
X150.0Y-122.7
X151.3Y-41.0
X151.3Y-57.0
X151.3Y-73.0
X151.3Y-89.0
X151.3Y-105.0
X151.3Y-121.0
X152.9Y-44.5
X152.9Y-60.5
X152.9Y-76.5
X152.9Y-92.5
X152.9Y-108.5
X152.9Y-124.5
X154.0Y-42.0
X154.0Y-58.0
X154.0Y-74.0
X154.0Y-90.0
X154.0Y-106.0
X154.0Y-122.0
X154.3Y-42.9
X154.3Y-58.9
X154.3Y-74.9
X154.3Y-90.9
X154.3Y-106.9
X154.3Y-122.9
X156.4Y-39.5
X156.4Y-42.3
X156.4Y-55.5
X156.4Y-58.3
X156.4Y-71.5
X156.4Y-74.3
X156.4Y-87.5
X156.4Y-90.3
X156.4Y-103.5
X156.4Y-106.3
X156.4Y-119.5
X156.4Y-122.3
X156.7Y-43.1
X156.7Y-59.1
X156.7Y-75.1
X156.7Y-91.1
X156.7Y-107.1
X156.7Y-123.1
X156.9Y-40.6
X156.9Y-56.6
X156.9Y-72.6
X156.9Y-88.6
X156.9Y-104.6
X156.9Y-120.6
X157.6Y-40.6
X157.6Y-56.6
X157.6Y-72.6
X157.6Y-88.6
X157.6Y-104.6
X157.6Y-120.6
X157.7Y-43.6
X157.7Y-59.6
X157.7Y-75.6
X157.7Y-91.6
X157.7Y-107.6
X157.7Y-123.6
X158.1Y-42.0
X158.1Y-58.0
X158.1Y-74.0
X158.1Y-90.0
X158.1Y-106.0
X158.1Y-122.0
X160.5Y-43.8
X160.5Y-59.8
X160.5Y-75.8
X160.5Y-91.8
X160.5Y-107.8
X160.5Y-123.8
X161.0Y-44.5
X161.0Y-60.5
X161.0Y-76.5
X161.0Y-92.5
X161.0Y-108.5
X161.0Y-124.5
T2
X96.7Y-44.7
X96.7Y-44.7
X96.7Y-60.7
X96.7Y-60.7
X96.7Y-76.7
X96.7Y-76.7
X96.7Y-92.7
X96.7Y-92.7
X96.7Y-108.7
X96.7Y-108.7
X96.7Y-124.7
X96.7Y-124.7
X99.0Y-42.0
X99.0Y-58.0
X99.0Y-74.0
X99.0Y-90.0
X99.0Y-106.0
X99.0Y-122.0
X109.3Y-43.9
X109.3Y-59.9
X109.3Y-75.9
X109.3Y-91.9
X109.3Y-107.9
X109.3Y-123.9
X112.5Y-45.1
X112.5Y-61.1
X112.5Y-77.1
X112.5Y-93.1
X112.5Y-109.1
X112.5Y-125.1
X113.3Y-42.0
X113.3Y-58.0
X113.3Y-74.0
X113.3Y-90.0
X113.3Y-106.0
X113.3Y-122.0
X123.6Y-37.8
X123.6Y-53.8
X123.6Y-69.8
X123.6Y-85.8
X123.6Y-101.8
X123.6Y-117.8
X125.75Y-45.75
X125.75Y-61.75
X125.75Y-77.75
X125.75Y-93.75
X125.75Y-109.75
X125.75Y-125.75
X127.5Y-45.2
X127.5Y-61.2
X127.5Y-77.2
X127.5Y-93.2
X127.5Y-109.2
X127.5Y-125.2
X135.1Y-45.7
X135.1Y-61.7
X135.1Y-77.7
X135.1Y-93.7
X135.1Y-109.7
X135.1Y-125.7
X135.7Y-36.25
X135.7Y-52.25
X135.7Y-68.25
X135.7Y-84.25
X135.7Y-100.25
X135.7Y-116.25
X142.7Y-46.1
X142.7Y-62.1
X142.7Y-78.1
X142.7Y-94.1
X142.7Y-110.1
X142.7Y-126.1
X152.0Y-42.95
X152.0Y-58.95
X152.0Y-74.95
X152.0Y-90.95
X152.0Y-106.95
X152.0Y-122.95
X159.9Y-39.2
X159.9Y-55.2
X159.9Y-71.2
X159.9Y-87.2
X159.9Y-103.2
X159.9Y-119.2
T3
X101.0Y-41.0
X101.0Y-57.0
X101.0Y-73.0
X101.0Y-89.0
X101.0Y-105.0
X101.0Y-121.0
X110.5Y-42.1
X110.5Y-58.1
X110.5Y-74.1
X110.5Y-90.1
X110.5Y-106.1
X110.5Y-122.1
X111.3Y-38.6
X111.3Y-39.6
X111.3Y-54.6
X111.3Y-55.6
X111.3Y-70.6
X111.3Y-71.6
X111.3Y-86.6
X111.3Y-87.6
X111.3Y-102.6
X111.3Y-103.6
X111.3Y-118.6
X111.3Y-119.6
X111.4Y-46.5
X111.4Y-62.5
X111.4Y-78.5
X111.4Y-94.5
X111.4Y-110.5
X111.4Y-126.5
X112.5Y-44.0
X112.5Y-46.5
X112.5Y-60.0
X112.5Y-62.5
X112.5Y-76.0
X112.5Y-78.5
X112.5Y-92.0
X112.5Y-94.5
X112.5Y-108.0
X112.5Y-110.5
X112.5Y-124.0
X112.5Y-126.5
X122.5Y-44.0
X122.5Y-60.0
X122.5Y-76.0
X122.5Y-92.0
X122.5Y-108.0
X122.5Y-124.0
X124.5Y-39.25
X124.5Y-55.25
X124.5Y-71.25
X124.5Y-87.25
X124.5Y-103.25
X124.5Y-119.25
X127.5Y-40.3
X127.5Y-43.25
X127.5Y-56.3
X127.5Y-59.25
X127.5Y-72.3
X127.5Y-75.25
X127.5Y-88.3
X127.5Y-91.25
X127.5Y-104.3
X127.5Y-107.25
X127.5Y-120.3
X127.5Y-123.25
X145.0Y-36.2
X145.0Y-52.2
X145.0Y-68.2
X145.0Y-84.2
X145.0Y-100.2
X145.0Y-116.2
X146.1Y-36.2
X146.1Y-52.2
X146.1Y-68.2
X146.1Y-84.2
X146.1Y-100.2
X146.1Y-116.2
T4
X107.0Y-42.5
X107.0Y-58.5
X107.0Y-74.5
X107.0Y-90.5
X107.0Y-106.5
X107.0Y-122.5
X124.75Y-38.0
X124.75Y-54.0
X124.75Y-70.0
X124.75Y-86.0
X124.75Y-102.0
X124.75Y-118.0
X125.0Y-41.0
X125.0Y-42.9
X125.0Y-57.0
X125.0Y-58.9
X125.0Y-73.0
X125.0Y-74.9
X125.0Y-89.0
X125.0Y-90.9
X125.0Y-105.0
X125.0Y-106.9
X125.0Y-121.0
X125.0Y-122.9
X135.5Y-41.25
X135.5Y-42.5
X135.5Y-57.25
X135.5Y-58.5
X135.5Y-73.25
X135.5Y-74.5
X135.5Y-89.25
X135.5Y-90.5
X135.5Y-105.25
X135.5Y-106.5
X135.5Y-121.25
X135.5Y-122.5
T5
X99.5Y-44.7
X99.5Y-60.7
X99.5Y-76.7
X99.5Y-92.7
X99.5Y-108.7
X99.5Y-124.7
X99.8Y-39.3
X99.8Y-55.3
X99.8Y-71.3
X99.8Y-87.3
X99.8Y-103.3
X99.8Y-119.3
X115.2Y-41.365
X115.2Y-42.635
X115.2Y-57.365
X115.2Y-58.635
X115.2Y-73.365
X115.2Y-74.635
X115.2Y-89.365
X115.2Y-90.635
X115.2Y-105.365
X115.2Y-106.635
X115.2Y-121.365
X115.2Y-122.635
X157.1Y-44.7
X157.1Y-60.7
X157.1Y-76.7
X157.1Y-92.7
X157.1Y-108.7
X157.1Y-124.7
X157.4Y-39.3
X157.4Y-55.3
X157.4Y-71.3
X157.4Y-87.3
X157.4Y-103.3
X157.4Y-119.3
T6
X120.9Y-35.9
X120.9Y-48.1
X120.9Y-51.9
X120.9Y-64.1
X120.9Y-67.9
X120.9Y-80.1
X120.9Y-83.9
X120.9Y-96.1
X120.9Y-99.9
X120.9Y-112.1
X120.9Y-115.9
X120.9Y-128.1
X145.165Y-38.5
X145.165Y-54.5
X145.165Y-70.5
X145.165Y-86.5
X145.165Y-102.5
X145.165Y-118.5
X146.435Y-38.5
X146.435Y-54.5
X146.435Y-70.5
X146.435Y-86.5
X146.435Y-102.5
X146.435Y-118.5
M30
