G04 #@! TF.GenerationSoftware,KiCad,Pcbnew,7.0.11*
G04 #@! TF.CreationDate,2024-06-06T00:44:59+09:00*
G04 #@! TF.ProjectId,motordecoder2-K3057,6d6f746f-7264-4656-936f-646572322d4b,rev?*
G04 #@! TF.SameCoordinates,Original*
G04 #@! TF.FileFunction,Soldermask,Top*
G04 #@! TF.FilePolarity,Negative*
%FSLAX46Y46*%
G04 Gerber Fmt 4.6, Leading zero omitted, Abs format (unit mm)*
G04 Created by KiCad (PCBNEW 7.0.11) date 2024-06-06 00:44:59*
%MOMM*%
%LPD*%
G01*
G04 APERTURE LIST*
G04 Aperture macros list*
%AMRoundRect*
0 Rectangle with rounded corners*
0 $1 Rounding radius*
0 $2 $3 $4 $5 $6 $7 $8 $9 X,Y pos of 4 corners*
0 Add a 4 corners polygon primitive as box body*
4,1,4,$2,$3,$4,$5,$6,$7,$8,$9,$2,$3,0*
0 Add four circle primitives for the rounded corners*
1,1,$1+$1,$2,$3*
1,1,$1+$1,$4,$5*
1,1,$1+$1,$6,$7*
1,1,$1+$1,$8,$9*
0 Add four rect primitives between the rounded corners*
20,1,$1+$1,$2,$3,$4,$5,0*
20,1,$1+$1,$4,$5,$6,$7,0*
20,1,$1+$1,$6,$7,$8,$9,0*
20,1,$1+$1,$8,$9,$2,$3,0*%
%AMFreePoly0*
4,1,14,0.334644,0.085355,0.385355,0.034644,0.400000,-0.000711,0.400000,-0.050000,0.385355,-0.085355,0.350000,-0.100000,-0.350000,-0.100000,-0.385355,-0.085355,-0.400000,-0.050000,-0.400000,0.050000,-0.385355,0.085355,-0.350000,0.100000,0.299289,0.100000,0.334644,0.085355,0.334644,0.085355,$1*%
%AMFreePoly1*
4,1,14,0.385355,0.085355,0.400000,0.050000,0.400000,0.000711,0.385355,-0.034644,0.334644,-0.085355,0.299289,-0.100000,-0.350000,-0.100000,-0.385355,-0.085355,-0.400000,-0.050000,-0.400000,0.050000,-0.385355,0.085355,-0.350000,0.100000,0.350000,0.100000,0.385355,0.085355,0.385355,0.085355,$1*%
%AMFreePoly2*
4,1,14,0.085355,0.385355,0.100000,0.350000,0.100000,-0.350000,0.085355,-0.385355,0.050000,-0.400000,-0.050000,-0.400000,-0.085355,-0.385355,-0.100000,-0.350000,-0.100000,0.299289,-0.085355,0.334644,-0.034644,0.385355,0.000711,0.400000,0.050000,0.400000,0.085355,0.385355,0.085355,0.385355,$1*%
%AMFreePoly3*
4,1,14,0.034644,0.385355,0.085355,0.334644,0.100000,0.299289,0.100000,-0.350000,0.085355,-0.385355,0.050000,-0.400000,-0.050000,-0.400000,-0.085355,-0.385355,-0.100000,-0.350000,-0.100000,0.350000,-0.085355,0.385355,-0.050000,0.400000,-0.000711,0.400000,0.034644,0.385355,0.034644,0.385355,$1*%
%AMFreePoly4*
4,1,14,0.385355,0.085355,0.400000,0.050000,0.400000,-0.050000,0.385355,-0.085355,0.350000,-0.100000,-0.299289,-0.100000,-0.334644,-0.085355,-0.385355,-0.034644,-0.400000,0.000711,-0.400000,0.050000,-0.385355,0.085355,-0.350000,0.100000,0.350000,0.100000,0.385355,0.085355,0.385355,0.085355,$1*%
%AMFreePoly5*
4,1,14,0.385355,0.085355,0.400000,0.050000,0.400000,-0.050000,0.385355,-0.085355,0.350000,-0.100000,-0.350000,-0.100000,-0.385355,-0.085355,-0.400000,-0.050000,-0.400000,-0.000711,-0.385355,0.034644,-0.334644,0.085355,-0.299289,0.100000,0.350000,0.100000,0.385355,0.085355,0.385355,0.085355,$1*%
%AMFreePoly6*
4,1,14,0.085355,0.385355,0.100000,0.350000,0.100000,-0.299289,0.085355,-0.334644,0.034644,-0.385355,-0.000711,-0.400000,-0.050000,-0.400000,-0.085355,-0.385355,-0.100000,-0.350000,-0.100000,0.350000,-0.085355,0.385355,-0.050000,0.400000,0.050000,0.400000,0.085355,0.385355,0.085355,0.385355,$1*%
%AMFreePoly7*
4,1,14,0.085355,0.385355,0.100000,0.350000,0.100000,-0.350000,0.085355,-0.385355,0.050000,-0.400000,0.000711,-0.400000,-0.034644,-0.385355,-0.085355,-0.334644,-0.100000,-0.299289,-0.100000,0.350000,-0.085355,0.385355,-0.050000,0.400000,0.050000,0.400000,0.085355,0.385355,0.085355,0.385355,$1*%
G04 Aperture macros list end*
%ADD10C,0.100000*%
%ADD11R,0.500000X0.550000*%
%ADD12R,0.800000X0.800000*%
%ADD13R,0.550000X0.500000*%
%ADD14R,1.200000X0.900000*%
%ADD15R,0.800000X0.900000*%
%ADD16R,1.000000X1.000000*%
%ADD17R,1.800000X1.000000*%
%ADD18R,0.600000X1.000000*%
%ADD19R,0.950000X0.950000*%
%ADD20R,1.000000X0.600000*%
%ADD21R,0.500000X1.200000*%
%ADD22R,1.000000X0.700000*%
%ADD23R,0.300000X0.700000*%
%ADD24R,0.700000X0.300000*%
%ADD25R,0.900000X0.500000*%
%ADD26R,0.500000X0.900000*%
%ADD27R,0.600000X0.400000*%
%ADD28R,0.400000X0.600000*%
%ADD29FreePoly0,0.000000*%
%ADD30RoundRect,0.050000X-0.350000X-0.050000X0.350000X-0.050000X0.350000X0.050000X-0.350000X0.050000X0*%
%ADD31FreePoly1,0.000000*%
%ADD32FreePoly2,0.000000*%
%ADD33RoundRect,0.050000X-0.050000X-0.350000X0.050000X-0.350000X0.050000X0.350000X-0.050000X0.350000X0*%
%ADD34FreePoly3,0.000000*%
%ADD35FreePoly4,0.000000*%
%ADD36FreePoly5,0.000000*%
%ADD37FreePoly6,0.000000*%
%ADD38FreePoly7,0.000000*%
%ADD39R,1.700000X1.700000*%
%ADD40R,0.800000X0.600000*%
%ADD41R,0.600000X0.700000*%
%ADD42R,0.700000X0.800000*%
%ADD43R,0.800000X0.500000*%
%ADD44R,1.400000X1.000000*%
%ADD45R,1.000000X1.400000*%
%ADD46R,0.500000X1.450000*%
%ADD47R,0.750000X1.300000*%
%ADD48R,0.300000X0.500000*%
%ADD49R,1.200000X0.500000*%
%ADD50R,0.600000X0.800000*%
%ADD51C,2.000000*%
%ADD52R,1.200000X1.200000*%
G04 APERTURE END LIST*
D10*
X150600000Y-42000000D02*
X149400000Y-42000000D01*
X149400000Y-41400000D01*
X150600000Y-41400000D01*
X150600000Y-42000000D01*
G36*
X150600000Y-42000000D02*
G01*
X149400000Y-42000000D01*
X149400000Y-41400000D01*
X150600000Y-41400000D01*
X150600000Y-42000000D01*
G37*
X150600000Y-106000000D02*
X149400000Y-106000000D01*
X149400000Y-105400000D01*
X150600000Y-105400000D01*
X150600000Y-106000000D01*
G36*
X150600000Y-106000000D02*
G01*
X149400000Y-106000000D01*
X149400000Y-105400000D01*
X150600000Y-105400000D01*
X150600000Y-106000000D01*
G37*
X150600000Y-90000000D02*
X149400000Y-90000000D01*
X149400000Y-89400000D01*
X150600000Y-89400000D01*
X150600000Y-90000000D01*
G36*
X150600000Y-90000000D02*
G01*
X149400000Y-90000000D01*
X149400000Y-89400000D01*
X150600000Y-89400000D01*
X150600000Y-90000000D01*
G37*
X150600000Y-122000000D02*
X149400000Y-122000000D01*
X149400000Y-121400000D01*
X150600000Y-121400000D01*
X150600000Y-122000000D01*
G36*
X150600000Y-122000000D02*
G01*
X149400000Y-122000000D01*
X149400000Y-121400000D01*
X150600000Y-121400000D01*
X150600000Y-122000000D01*
G37*
X150600000Y-74000000D02*
X149400000Y-74000000D01*
X149400000Y-73400000D01*
X150600000Y-73400000D01*
X150600000Y-74000000D01*
G36*
X150600000Y-74000000D02*
G01*
X149400000Y-74000000D01*
X149400000Y-73400000D01*
X150600000Y-73400000D01*
X150600000Y-74000000D01*
G37*
X150600000Y-58000000D02*
X149400000Y-58000000D01*
X149400000Y-57400000D01*
X150600000Y-57400000D01*
X150600000Y-58000000D01*
G36*
X150600000Y-58000000D02*
G01*
X149400000Y-58000000D01*
X149400000Y-57400000D01*
X150600000Y-57400000D01*
X150600000Y-58000000D01*
G37*
D11*
X115000000Y-44975000D03*
X115000000Y-44025000D03*
D12*
X114000000Y-37725000D03*
X114000000Y-39275000D03*
D11*
X142650000Y-42125000D03*
X142650000Y-41175000D03*
X122500000Y-42275000D03*
X122500000Y-43225000D03*
D13*
X133975000Y-37750000D03*
X133025000Y-37750000D03*
D11*
X125600000Y-47725000D03*
X125600000Y-46775000D03*
D14*
X113300000Y-43000000D03*
D15*
X111500000Y-43000000D03*
X111500000Y-45000000D03*
X113500000Y-45000000D03*
X110700000Y-41000000D03*
X112800000Y-41000000D03*
D16*
X157100000Y-44700000D03*
X157400000Y-39300000D03*
D17*
X114900000Y-46600000D03*
D18*
X114000000Y-41000000D03*
D19*
X145165000Y-38500000D03*
X146435000Y-38500000D03*
D20*
X115200000Y-36300000D03*
D21*
X115200000Y-39500000D03*
D22*
X126200000Y-41200000D03*
X126200000Y-40250000D03*
X126200000Y-39300000D03*
X123800000Y-39300000D03*
X123800000Y-40250000D03*
X123800000Y-41200000D03*
X126200000Y-44700000D03*
X126200000Y-43750000D03*
X126200000Y-42800000D03*
X123800000Y-42800000D03*
X123800000Y-43750000D03*
X123800000Y-44700000D03*
D23*
X154700000Y-41050000D03*
X155200000Y-41050000D03*
X155700000Y-41050000D03*
X155700000Y-39550000D03*
X155200000Y-39550000D03*
X154700000Y-39550000D03*
D24*
X152950000Y-43200000D03*
X152950000Y-43700000D03*
X152950000Y-44200000D03*
X154450000Y-44200000D03*
X154450000Y-43700000D03*
X154450000Y-43200000D03*
X103750000Y-39500000D03*
X103750000Y-40000000D03*
X103750000Y-40500000D03*
X105250000Y-40500000D03*
X105250000Y-40000000D03*
X105250000Y-39500000D03*
X103150000Y-44500000D03*
X103150000Y-44000000D03*
X103150000Y-43500000D03*
X101650000Y-43500000D03*
X101650000Y-44000000D03*
X101650000Y-44500000D03*
X149650000Y-39300000D03*
X149650000Y-39800000D03*
X149650000Y-40300000D03*
X151150000Y-40300000D03*
X151150000Y-39800000D03*
X151150000Y-39300000D03*
D23*
X131750000Y-42750000D03*
X132250000Y-42750000D03*
X132750000Y-42750000D03*
X132750000Y-41250000D03*
X132250000Y-41250000D03*
X131750000Y-41250000D03*
X134750000Y-43250000D03*
X134250000Y-43250000D03*
X133750000Y-43250000D03*
X133750000Y-44750000D03*
X134250000Y-44750000D03*
X134750000Y-44750000D03*
D25*
X143800000Y-36050000D03*
X143800000Y-37550000D03*
X144200000Y-48050000D03*
X144200000Y-46550000D03*
X127750000Y-40850000D03*
X127750000Y-39350000D03*
X127750000Y-43750000D03*
X127750000Y-42250000D03*
D26*
X131750000Y-44750000D03*
X130250000Y-44750000D03*
D25*
X131600000Y-47350000D03*
X131600000Y-45850000D03*
D27*
X141750000Y-42550000D03*
X141750000Y-43450000D03*
D26*
X108050000Y-42100000D03*
X109550000Y-42100000D03*
D25*
X153600000Y-39550000D03*
X153600000Y-41050000D03*
D27*
X155700000Y-43450000D03*
X155700000Y-44350000D03*
D25*
X102300000Y-39450000D03*
X102300000Y-40950000D03*
X151400000Y-44750000D03*
X151400000Y-43250000D03*
D27*
X146900000Y-44950000D03*
X146900000Y-45850000D03*
D25*
X104700000Y-44150000D03*
X104700000Y-42650000D03*
D28*
X148350000Y-39500000D03*
X147450000Y-39500000D03*
D26*
X106050000Y-41600000D03*
X104550000Y-41600000D03*
D27*
X133800000Y-41450000D03*
X133800000Y-40550000D03*
D28*
X133950000Y-36750000D03*
X133050000Y-36750000D03*
D27*
X131750000Y-37700000D03*
X131750000Y-36800000D03*
D28*
X134350000Y-39500000D03*
X133450000Y-39500000D03*
D26*
X132950000Y-47200000D03*
X134450000Y-47200000D03*
D28*
X134050000Y-45750000D03*
X133150000Y-45750000D03*
D29*
X144300000Y-41200000D03*
D30*
X144300000Y-41600000D03*
X144300000Y-42000000D03*
X144300000Y-42400000D03*
D31*
X144300000Y-42800000D03*
D32*
X144950000Y-43450000D03*
D33*
X145350000Y-43450000D03*
X145750000Y-43450000D03*
X146150000Y-43450000D03*
D34*
X146550000Y-43450000D03*
D35*
X147200000Y-42800000D03*
D30*
X147200000Y-42400000D03*
X147200000Y-42000000D03*
X147200000Y-41600000D03*
D36*
X147200000Y-41200000D03*
D37*
X146550000Y-40550000D03*
D33*
X146150000Y-40550000D03*
X145750000Y-40550000D03*
X145350000Y-40550000D03*
D38*
X144950000Y-40550000D03*
D39*
X145750000Y-42000000D03*
D24*
X129250000Y-42250000D03*
X129250000Y-42750000D03*
X129250000Y-43250000D03*
X130750000Y-43250000D03*
X130750000Y-42750000D03*
X130750000Y-42250000D03*
D25*
X129100000Y-44150000D03*
X129100000Y-45650000D03*
D26*
X121000000Y-41400000D03*
X122500000Y-41400000D03*
D25*
X121250000Y-42550000D03*
X121250000Y-44050000D03*
D26*
X132450000Y-39900000D03*
X130950000Y-39900000D03*
D25*
X129500000Y-41250000D03*
X129500000Y-39750000D03*
D27*
X124600000Y-47700000D03*
X124600000Y-46800000D03*
D40*
X135600000Y-38850000D03*
X135600000Y-37150000D03*
D26*
X155050000Y-42200000D03*
X153550000Y-42200000D03*
D16*
X99800000Y-39300000D03*
D25*
X152300000Y-40750000D03*
X152300000Y-42250000D03*
D24*
X150050000Y-44900000D03*
X150050000Y-44400000D03*
X150050000Y-43900000D03*
X148550000Y-43900000D03*
X148550000Y-44400000D03*
X148550000Y-44900000D03*
D41*
X149600000Y-41700000D03*
X150400000Y-41700000D03*
D26*
X101850000Y-42400000D03*
X103350000Y-42400000D03*
D16*
X99500000Y-44700000D03*
D42*
X112500000Y-37725000D03*
X112500000Y-39275000D03*
D43*
X109450000Y-40950000D03*
X109450000Y-39650000D03*
X107550000Y-40300000D03*
D27*
X121300000Y-40350000D03*
X121300000Y-39450000D03*
D26*
X142650000Y-36400000D03*
X141150000Y-36400000D03*
D25*
X142700000Y-45150000D03*
X142700000Y-46650000D03*
D44*
X139500000Y-39500000D03*
D45*
X100200000Y-42600000D03*
D46*
X97750000Y-40625000D03*
D47*
X98375000Y-40700000D03*
D48*
X97750000Y-41450000D03*
X97750000Y-42550000D03*
D47*
X98375000Y-43300000D03*
D46*
X97750000Y-43375000D03*
X159250000Y-43375000D03*
D47*
X158625000Y-43300000D03*
D48*
X159250000Y-42550000D03*
X159250000Y-41450000D03*
D47*
X158625000Y-40700000D03*
D46*
X159250000Y-40625000D03*
X162050000Y-43375000D03*
D47*
X161425000Y-43300000D03*
D48*
X162050000Y-42550000D03*
X162050000Y-41450000D03*
D47*
X161425000Y-40700000D03*
D46*
X162050000Y-40625000D03*
X94950000Y-40625000D03*
D47*
X95575000Y-40700000D03*
D48*
X94950000Y-41450000D03*
X94950000Y-42550000D03*
D47*
X95575000Y-43300000D03*
D46*
X94950000Y-43375000D03*
D49*
X105100000Y-45000000D03*
D50*
X123750000Y-47750000D03*
X122050000Y-47750000D03*
D43*
X107850000Y-44750000D03*
X107850000Y-43450000D03*
X105950000Y-44100000D03*
D25*
X153600000Y-103550000D03*
X153600000Y-105050000D03*
D28*
X134050000Y-125750000D03*
X133150000Y-125750000D03*
D42*
X112500000Y-85725000D03*
X112500000Y-87275000D03*
D27*
X131750000Y-69700000D03*
X131750000Y-68800000D03*
D25*
X104700000Y-124150000D03*
X104700000Y-122650000D03*
D43*
X109450000Y-72950000D03*
X109450000Y-71650000D03*
X107550000Y-72300000D03*
D11*
X115000000Y-76975000D03*
X115000000Y-76025000D03*
D25*
X102300000Y-87450000D03*
X102300000Y-88950000D03*
D22*
X126200000Y-89200000D03*
X126200000Y-88250000D03*
X126200000Y-87300000D03*
X123800000Y-87300000D03*
X123800000Y-88250000D03*
X123800000Y-89200000D03*
D26*
X155050000Y-90200000D03*
X153550000Y-90200000D03*
D11*
X122500000Y-106275000D03*
X122500000Y-107225000D03*
D16*
X157400000Y-55300000D03*
D27*
X121300000Y-88350000D03*
X121300000Y-87450000D03*
D11*
X115000000Y-60975000D03*
X115000000Y-60025000D03*
D22*
X126200000Y-108700000D03*
X126200000Y-107750000D03*
X126200000Y-106800000D03*
X123800000Y-106800000D03*
X123800000Y-107750000D03*
X123800000Y-108700000D03*
D41*
X149600000Y-105700000D03*
X150400000Y-105700000D03*
D51*
X166500000Y-58000000D03*
D50*
X123750000Y-63750000D03*
X122050000Y-63750000D03*
D25*
X143800000Y-116050000D03*
X143800000Y-117550000D03*
D52*
X120900000Y-128100000D03*
D25*
X152300000Y-72750000D03*
X152300000Y-74250000D03*
D27*
X131750000Y-117700000D03*
X131750000Y-116800000D03*
X121300000Y-104350000D03*
X121300000Y-103450000D03*
D51*
X166500000Y-106000000D03*
D26*
X131750000Y-92750000D03*
X130250000Y-92750000D03*
D49*
X105100000Y-93000000D03*
D23*
X131750000Y-58750000D03*
X132250000Y-58750000D03*
X132750000Y-58750000D03*
X132750000Y-57250000D03*
X132250000Y-57250000D03*
X131750000Y-57250000D03*
D25*
X129500000Y-73250000D03*
X129500000Y-71750000D03*
D50*
X123750000Y-79750000D03*
X122050000Y-79750000D03*
D46*
X159250000Y-59375000D03*
D47*
X158625000Y-59300000D03*
D48*
X159250000Y-58550000D03*
X159250000Y-57450000D03*
D47*
X158625000Y-56700000D03*
D46*
X159250000Y-56625000D03*
D24*
X129250000Y-90250000D03*
X129250000Y-90750000D03*
X129250000Y-91250000D03*
X130750000Y-91250000D03*
X130750000Y-90750000D03*
X130750000Y-90250000D03*
D50*
X123750000Y-127750000D03*
X122050000Y-127750000D03*
D46*
X94950000Y-88625000D03*
D47*
X95575000Y-88700000D03*
D48*
X94950000Y-89450000D03*
X94950000Y-90550000D03*
D47*
X95575000Y-91300000D03*
D46*
X94950000Y-91375000D03*
D25*
X129500000Y-89250000D03*
X129500000Y-87750000D03*
D29*
X144300000Y-73200000D03*
D30*
X144300000Y-73600000D03*
X144300000Y-74000000D03*
X144300000Y-74400000D03*
D31*
X144300000Y-74800000D03*
D32*
X144950000Y-75450000D03*
D33*
X145350000Y-75450000D03*
X145750000Y-75450000D03*
X146150000Y-75450000D03*
D34*
X146550000Y-75450000D03*
D35*
X147200000Y-74800000D03*
D30*
X147200000Y-74400000D03*
X147200000Y-74000000D03*
X147200000Y-73600000D03*
D36*
X147200000Y-73200000D03*
D37*
X146550000Y-72550000D03*
D33*
X146150000Y-72550000D03*
X145750000Y-72550000D03*
X145350000Y-72550000D03*
D38*
X144950000Y-72550000D03*
D39*
X145750000Y-74000000D03*
D25*
X142700000Y-125150000D03*
X142700000Y-126650000D03*
D24*
X129250000Y-106250000D03*
X129250000Y-106750000D03*
X129250000Y-107250000D03*
X130750000Y-107250000D03*
X130750000Y-106750000D03*
X130750000Y-106250000D03*
D25*
X152300000Y-104750000D03*
X152300000Y-106250000D03*
X121250000Y-122550000D03*
X121250000Y-124050000D03*
D26*
X108050000Y-58100000D03*
X109550000Y-58100000D03*
D16*
X99500000Y-76700000D03*
D24*
X152950000Y-91200000D03*
X152950000Y-91700000D03*
X152950000Y-92200000D03*
X154450000Y-92200000D03*
X154450000Y-91700000D03*
X154450000Y-91200000D03*
D26*
X101850000Y-122400000D03*
X103350000Y-122400000D03*
D11*
X142650000Y-90125000D03*
X142650000Y-89175000D03*
D29*
X144300000Y-105200000D03*
D30*
X144300000Y-105600000D03*
X144300000Y-106000000D03*
X144300000Y-106400000D03*
D31*
X144300000Y-106800000D03*
D32*
X144950000Y-107450000D03*
D33*
X145350000Y-107450000D03*
X145750000Y-107450000D03*
X146150000Y-107450000D03*
D34*
X146550000Y-107450000D03*
D35*
X147200000Y-106800000D03*
D30*
X147200000Y-106400000D03*
X147200000Y-106000000D03*
X147200000Y-105600000D03*
D36*
X147200000Y-105200000D03*
D37*
X146550000Y-104550000D03*
D33*
X146150000Y-104550000D03*
X145750000Y-104550000D03*
X145350000Y-104550000D03*
D38*
X144950000Y-104550000D03*
D39*
X145750000Y-106000000D03*
D25*
X127750000Y-56850000D03*
X127750000Y-55350000D03*
D24*
X103150000Y-60500000D03*
X103150000Y-60000000D03*
X103150000Y-59500000D03*
X101650000Y-59500000D03*
X101650000Y-60000000D03*
X101650000Y-60500000D03*
X103750000Y-55500000D03*
X103750000Y-56000000D03*
X103750000Y-56500000D03*
X105250000Y-56500000D03*
X105250000Y-56000000D03*
X105250000Y-55500000D03*
D28*
X133950000Y-52750000D03*
X133050000Y-52750000D03*
D26*
X142650000Y-116400000D03*
X141150000Y-116400000D03*
D21*
X115200000Y-71500000D03*
D19*
X145165000Y-102500000D03*
X146435000Y-102500000D03*
X145165000Y-86500000D03*
X146435000Y-86500000D03*
D28*
X133950000Y-68750000D03*
X133050000Y-68750000D03*
X134050000Y-77750000D03*
X133150000Y-77750000D03*
D26*
X108050000Y-74100000D03*
X109550000Y-74100000D03*
D49*
X105100000Y-77000000D03*
D27*
X133800000Y-89450000D03*
X133800000Y-88550000D03*
D13*
X133975000Y-69750000D03*
X133025000Y-69750000D03*
D20*
X115200000Y-116300000D03*
D45*
X100200000Y-106600000D03*
D15*
X110700000Y-57000000D03*
X112800000Y-57000000D03*
D16*
X99500000Y-124700000D03*
D15*
X110700000Y-121000000D03*
X112800000Y-121000000D03*
D16*
X157100000Y-92700000D03*
D41*
X149600000Y-89700000D03*
X150400000Y-89700000D03*
D24*
X152950000Y-123200000D03*
X152950000Y-123700000D03*
X152950000Y-124200000D03*
X154450000Y-124200000D03*
X154450000Y-123700000D03*
X154450000Y-123200000D03*
D51*
X90500000Y-106000000D03*
D49*
X105100000Y-61000000D03*
D16*
X157400000Y-119300000D03*
D24*
X129250000Y-122250000D03*
X129250000Y-122750000D03*
X129250000Y-123250000D03*
X130750000Y-123250000D03*
X130750000Y-122750000D03*
X130750000Y-122250000D03*
D28*
X134350000Y-87500000D03*
X133450000Y-87500000D03*
D24*
X129250000Y-58250000D03*
X129250000Y-58750000D03*
X129250000Y-59250000D03*
X130750000Y-59250000D03*
X130750000Y-58750000D03*
X130750000Y-58250000D03*
D11*
X125600000Y-63725000D03*
X125600000Y-62775000D03*
D16*
X99500000Y-60700000D03*
D26*
X106050000Y-89600000D03*
X104550000Y-89600000D03*
X131750000Y-76750000D03*
X130250000Y-76750000D03*
D25*
X153600000Y-119550000D03*
X153600000Y-121050000D03*
D24*
X103750000Y-103500000D03*
X103750000Y-104000000D03*
X103750000Y-104500000D03*
X105250000Y-104500000D03*
X105250000Y-104000000D03*
X105250000Y-103500000D03*
X150050000Y-108900000D03*
X150050000Y-108400000D03*
X150050000Y-107900000D03*
X148550000Y-107900000D03*
X148550000Y-108400000D03*
X148550000Y-108900000D03*
D25*
X131600000Y-79350000D03*
X131600000Y-77850000D03*
D27*
X133800000Y-73450000D03*
X133800000Y-72550000D03*
D25*
X142700000Y-61150000D03*
X142700000Y-62650000D03*
D23*
X131750000Y-106750000D03*
X132250000Y-106750000D03*
X132750000Y-106750000D03*
X132750000Y-105250000D03*
X132250000Y-105250000D03*
X131750000Y-105250000D03*
D16*
X99800000Y-119300000D03*
D44*
X139500000Y-71500000D03*
D46*
X162050000Y-107375000D03*
D47*
X161425000Y-107300000D03*
D48*
X162050000Y-106550000D03*
X162050000Y-105450000D03*
D47*
X161425000Y-104700000D03*
D46*
X162050000Y-104625000D03*
D51*
X90500000Y-74000000D03*
D27*
X155700000Y-75450000D03*
X155700000Y-76350000D03*
D46*
X159250000Y-91375000D03*
D47*
X158625000Y-91300000D03*
D48*
X159250000Y-90550000D03*
X159250000Y-89450000D03*
D47*
X158625000Y-88700000D03*
D46*
X159250000Y-88625000D03*
D25*
X152300000Y-120750000D03*
X152300000Y-122250000D03*
D46*
X159250000Y-123375000D03*
D47*
X158625000Y-123300000D03*
D48*
X159250000Y-122550000D03*
X159250000Y-121450000D03*
D47*
X158625000Y-120700000D03*
D46*
X159250000Y-120625000D03*
D26*
X101850000Y-58400000D03*
X103350000Y-58400000D03*
D51*
X166500000Y-122000000D03*
D28*
X134350000Y-119500000D03*
X133450000Y-119500000D03*
D14*
X113300000Y-59000000D03*
D15*
X111500000Y-59000000D03*
X111500000Y-61000000D03*
X113500000Y-61000000D03*
D46*
X159250000Y-75375000D03*
D47*
X158625000Y-75300000D03*
D48*
X159250000Y-74550000D03*
X159250000Y-73450000D03*
D47*
X158625000Y-72700000D03*
D46*
X159250000Y-72625000D03*
D16*
X157100000Y-108700000D03*
D27*
X155700000Y-123450000D03*
X155700000Y-124350000D03*
D24*
X103150000Y-76500000D03*
X103150000Y-76000000D03*
X103150000Y-75500000D03*
X101650000Y-75500000D03*
X101650000Y-76000000D03*
X101650000Y-76500000D03*
D27*
X124600000Y-111700000D03*
X124600000Y-110800000D03*
X146900000Y-108950000D03*
X146900000Y-109850000D03*
D11*
X125600000Y-95725000D03*
X125600000Y-94775000D03*
D25*
X129100000Y-76150000D03*
X129100000Y-77650000D03*
D23*
X131750000Y-74750000D03*
X132250000Y-74750000D03*
X132750000Y-74750000D03*
X132750000Y-73250000D03*
X132250000Y-73250000D03*
X131750000Y-73250000D03*
D24*
X149650000Y-119300000D03*
X149650000Y-119800000D03*
X149650000Y-120300000D03*
X151150000Y-120300000D03*
X151150000Y-119800000D03*
X151150000Y-119300000D03*
D51*
X90500000Y-90000000D03*
D22*
X126200000Y-57200000D03*
X126200000Y-56250000D03*
X126200000Y-55300000D03*
X123800000Y-55300000D03*
X123800000Y-56250000D03*
X123800000Y-57200000D03*
D26*
X132450000Y-119900000D03*
X130950000Y-119900000D03*
D28*
X133950000Y-84750000D03*
X133050000Y-84750000D03*
D25*
X129500000Y-57250000D03*
X129500000Y-55750000D03*
D26*
X101850000Y-90400000D03*
X103350000Y-90400000D03*
D22*
X126200000Y-60700000D03*
X126200000Y-59750000D03*
X126200000Y-58800000D03*
X123800000Y-58800000D03*
X123800000Y-59750000D03*
X123800000Y-60700000D03*
D51*
X90500000Y-122000000D03*
D28*
X133950000Y-116750000D03*
X133050000Y-116750000D03*
D27*
X141750000Y-106550000D03*
X141750000Y-107450000D03*
D25*
X144200000Y-80050000D03*
X144200000Y-78550000D03*
X127750000Y-88850000D03*
X127750000Y-87350000D03*
D40*
X135600000Y-86850000D03*
X135600000Y-85150000D03*
D27*
X124600000Y-63700000D03*
X124600000Y-62800000D03*
D18*
X114000000Y-57000000D03*
D25*
X142700000Y-93150000D03*
X142700000Y-94650000D03*
D26*
X121000000Y-73400000D03*
X122500000Y-73400000D03*
D25*
X102300000Y-103450000D03*
X102300000Y-104950000D03*
D29*
X144300000Y-121200000D03*
D30*
X144300000Y-121600000D03*
X144300000Y-122000000D03*
X144300000Y-122400000D03*
D31*
X144300000Y-122800000D03*
D32*
X144950000Y-123450000D03*
D33*
X145350000Y-123450000D03*
X145750000Y-123450000D03*
X146150000Y-123450000D03*
D34*
X146550000Y-123450000D03*
D35*
X147200000Y-122800000D03*
D30*
X147200000Y-122400000D03*
X147200000Y-122000000D03*
X147200000Y-121600000D03*
D36*
X147200000Y-121200000D03*
D37*
X146550000Y-120550000D03*
D33*
X146150000Y-120550000D03*
X145750000Y-120550000D03*
X145350000Y-120550000D03*
D38*
X144950000Y-120550000D03*
D39*
X145750000Y-122000000D03*
D26*
X121000000Y-57400000D03*
X122500000Y-57400000D03*
D25*
X104700000Y-108150000D03*
X104700000Y-106650000D03*
D43*
X107850000Y-124750000D03*
X107850000Y-123450000D03*
X105950000Y-124100000D03*
D24*
X103750000Y-119500000D03*
X103750000Y-120000000D03*
X103750000Y-120500000D03*
X105250000Y-120500000D03*
X105250000Y-120000000D03*
X105250000Y-119500000D03*
D26*
X142650000Y-84400000D03*
X141150000Y-84400000D03*
D27*
X121300000Y-120350000D03*
X121300000Y-119450000D03*
D12*
X114000000Y-53725000D03*
X114000000Y-55275000D03*
D27*
X124600000Y-95700000D03*
X124600000Y-94800000D03*
D19*
X115200000Y-105365000D03*
X115200000Y-106635000D03*
D24*
X152950000Y-75200000D03*
X152950000Y-75700000D03*
X152950000Y-76200000D03*
X154450000Y-76200000D03*
X154450000Y-75700000D03*
X154450000Y-75200000D03*
D11*
X122500000Y-58275000D03*
X122500000Y-59225000D03*
D12*
X114000000Y-85725000D03*
X114000000Y-87275000D03*
D45*
X100200000Y-90600000D03*
D11*
X122500000Y-90275000D03*
X122500000Y-91225000D03*
D20*
X115200000Y-52300000D03*
D18*
X114000000Y-121000000D03*
D20*
X115200000Y-100300000D03*
D16*
X157100000Y-76700000D03*
D26*
X121000000Y-89400000D03*
X122500000Y-89400000D03*
D46*
X97750000Y-120625000D03*
D47*
X98375000Y-120700000D03*
D48*
X97750000Y-121450000D03*
X97750000Y-122550000D03*
D47*
X98375000Y-123300000D03*
D46*
X97750000Y-123375000D03*
D40*
X135600000Y-102850000D03*
X135600000Y-101150000D03*
D16*
X157100000Y-124700000D03*
X157400000Y-87300000D03*
D25*
X131600000Y-111350000D03*
X131600000Y-109850000D03*
D26*
X155050000Y-106200000D03*
X153550000Y-106200000D03*
D20*
X115200000Y-84300000D03*
D19*
X115200000Y-121365000D03*
X115200000Y-122635000D03*
D26*
X101850000Y-106400000D03*
X103350000Y-106400000D03*
D25*
X144200000Y-64050000D03*
X144200000Y-62550000D03*
D11*
X115000000Y-124975000D03*
X115000000Y-124025000D03*
D26*
X142650000Y-52400000D03*
X141150000Y-52400000D03*
D25*
X127750000Y-107750000D03*
X127750000Y-106250000D03*
D26*
X132950000Y-79200000D03*
X134450000Y-79200000D03*
D25*
X102300000Y-71450000D03*
X102300000Y-72950000D03*
D22*
X126200000Y-121200000D03*
X126200000Y-120250000D03*
X126200000Y-119300000D03*
X123800000Y-119300000D03*
X123800000Y-120250000D03*
X123800000Y-121200000D03*
D25*
X127750000Y-91750000D03*
X127750000Y-90250000D03*
D52*
X120900000Y-80100000D03*
D27*
X131750000Y-53700000D03*
X131750000Y-52800000D03*
D28*
X134350000Y-103500000D03*
X133450000Y-103500000D03*
X134050000Y-93750000D03*
X133150000Y-93750000D03*
D14*
X113300000Y-107000000D03*
D15*
X111500000Y-107000000D03*
X111500000Y-109000000D03*
X113500000Y-109000000D03*
D11*
X142650000Y-74125000D03*
X142650000Y-73175000D03*
D46*
X97750000Y-88625000D03*
D47*
X98375000Y-88700000D03*
D48*
X97750000Y-89450000D03*
X97750000Y-90550000D03*
D47*
X98375000Y-91300000D03*
D46*
X97750000Y-91375000D03*
D11*
X142650000Y-122125000D03*
X142650000Y-121175000D03*
D12*
X114000000Y-117725000D03*
X114000000Y-119275000D03*
D24*
X103150000Y-108500000D03*
X103150000Y-108000000D03*
X103150000Y-107500000D03*
X101650000Y-107500000D03*
X101650000Y-108000000D03*
X101650000Y-108500000D03*
D26*
X131750000Y-108750000D03*
X130250000Y-108750000D03*
D11*
X122500000Y-122275000D03*
X122500000Y-123225000D03*
D25*
X129100000Y-124150000D03*
X129100000Y-125650000D03*
D27*
X146900000Y-124950000D03*
X146900000Y-125850000D03*
D25*
X131600000Y-127350000D03*
X131600000Y-125850000D03*
D28*
X148350000Y-71500000D03*
X147450000Y-71500000D03*
D20*
X115200000Y-68300000D03*
D51*
X166500000Y-74000000D03*
D16*
X99800000Y-87300000D03*
D25*
X131600000Y-95350000D03*
X131600000Y-93850000D03*
D19*
X115200000Y-73365000D03*
X115200000Y-74635000D03*
D52*
X120900000Y-99900000D03*
D19*
X115200000Y-57365000D03*
X115200000Y-58635000D03*
D26*
X132450000Y-103900000D03*
X130950000Y-103900000D03*
D27*
X131750000Y-101700000D03*
X131750000Y-100800000D03*
D25*
X102300000Y-55450000D03*
X102300000Y-56950000D03*
D26*
X142650000Y-68400000D03*
X141150000Y-68400000D03*
D44*
X139500000Y-55500000D03*
D52*
X120900000Y-115900000D03*
D49*
X105100000Y-125000000D03*
D13*
X133975000Y-85750000D03*
X133025000Y-85750000D03*
D24*
X149650000Y-71300000D03*
X149650000Y-71800000D03*
X149650000Y-72300000D03*
X151150000Y-72300000D03*
X151150000Y-71800000D03*
X151150000Y-71300000D03*
D23*
X134750000Y-75250000D03*
X134250000Y-75250000D03*
X133750000Y-75250000D03*
X133750000Y-76750000D03*
X134250000Y-76750000D03*
X134750000Y-76750000D03*
D11*
X115000000Y-108975000D03*
X115000000Y-108025000D03*
D26*
X155050000Y-74200000D03*
X153550000Y-74200000D03*
D19*
X145165000Y-118500000D03*
X146435000Y-118500000D03*
D27*
X141750000Y-74550000D03*
X141750000Y-75450000D03*
D26*
X131750000Y-124750000D03*
X130250000Y-124750000D03*
D22*
X126200000Y-124700000D03*
X126200000Y-123750000D03*
X126200000Y-122800000D03*
X123800000Y-122800000D03*
X123800000Y-123750000D03*
X123800000Y-124700000D03*
D16*
X99800000Y-55300000D03*
D15*
X110700000Y-89000000D03*
X112800000Y-89000000D03*
D16*
X99800000Y-103300000D03*
D26*
X101850000Y-74400000D03*
X103350000Y-74400000D03*
D24*
X150050000Y-60900000D03*
X150050000Y-60400000D03*
X150050000Y-59900000D03*
X148550000Y-59900000D03*
X148550000Y-60400000D03*
X148550000Y-60900000D03*
D25*
X144200000Y-96050000D03*
X144200000Y-94550000D03*
D26*
X108050000Y-90100000D03*
X109550000Y-90100000D03*
D16*
X99800000Y-71300000D03*
D17*
X114900000Y-110600000D03*
D46*
X162050000Y-123375000D03*
D47*
X161425000Y-123300000D03*
D48*
X162050000Y-122550000D03*
X162050000Y-121450000D03*
D47*
X161425000Y-120700000D03*
D46*
X162050000Y-120625000D03*
D27*
X155700000Y-59450000D03*
X155700000Y-60350000D03*
D24*
X152950000Y-59200000D03*
X152950000Y-59700000D03*
X152950000Y-60200000D03*
X154450000Y-60200000D03*
X154450000Y-59700000D03*
X154450000Y-59200000D03*
D27*
X146900000Y-76950000D03*
X146900000Y-77850000D03*
D17*
X114900000Y-62600000D03*
D44*
X139500000Y-119500000D03*
D46*
X94950000Y-56625000D03*
D47*
X95575000Y-56700000D03*
D48*
X94950000Y-57450000D03*
X94950000Y-58550000D03*
D47*
X95575000Y-59300000D03*
D46*
X94950000Y-59375000D03*
D24*
X149650000Y-103300000D03*
X149650000Y-103800000D03*
X149650000Y-104300000D03*
X151150000Y-104300000D03*
X151150000Y-103800000D03*
X151150000Y-103300000D03*
D26*
X121000000Y-105400000D03*
X122500000Y-105400000D03*
D15*
X110700000Y-105000000D03*
X112800000Y-105000000D03*
D11*
X125600000Y-111725000D03*
X125600000Y-110775000D03*
D43*
X107850000Y-60750000D03*
X107850000Y-59450000D03*
X105950000Y-60100000D03*
D16*
X157400000Y-71300000D03*
D24*
X103750000Y-71500000D03*
X103750000Y-72000000D03*
X103750000Y-72500000D03*
X105250000Y-72500000D03*
X105250000Y-72000000D03*
X105250000Y-71500000D03*
D43*
X107850000Y-108750000D03*
X107850000Y-107450000D03*
X105950000Y-108100000D03*
D52*
X120900000Y-67900000D03*
D27*
X133800000Y-105450000D03*
X133800000Y-104550000D03*
D12*
X114000000Y-101725000D03*
X114000000Y-103275000D03*
D28*
X134050000Y-61750000D03*
X133150000Y-61750000D03*
D26*
X132950000Y-127200000D03*
X134450000Y-127200000D03*
D13*
X133975000Y-101750000D03*
X133025000Y-101750000D03*
D25*
X151400000Y-60750000D03*
X151400000Y-59250000D03*
D26*
X121000000Y-121400000D03*
X122500000Y-121400000D03*
D40*
X135600000Y-118850000D03*
X135600000Y-117150000D03*
D27*
X155700000Y-107450000D03*
X155700000Y-108350000D03*
X131750000Y-85700000D03*
X131750000Y-84800000D03*
D11*
X142650000Y-106125000D03*
X142650000Y-105175000D03*
D25*
X151400000Y-108750000D03*
X151400000Y-107250000D03*
D26*
X108050000Y-106100000D03*
X109550000Y-106100000D03*
D24*
X150050000Y-92900000D03*
X150050000Y-92400000D03*
X150050000Y-91900000D03*
X148550000Y-91900000D03*
X148550000Y-92400000D03*
X148550000Y-92900000D03*
D27*
X133800000Y-121450000D03*
X133800000Y-120550000D03*
D28*
X148350000Y-55500000D03*
X147450000Y-55500000D03*
D21*
X115200000Y-103500000D03*
D52*
X120900000Y-83900000D03*
D19*
X145165000Y-54500000D03*
X146435000Y-54500000D03*
D28*
X134350000Y-55500000D03*
X133450000Y-55500000D03*
D23*
X134750000Y-59250000D03*
X134250000Y-59250000D03*
X133750000Y-59250000D03*
X133750000Y-60750000D03*
X134250000Y-60750000D03*
X134750000Y-60750000D03*
D25*
X121250000Y-58550000D03*
X121250000Y-60050000D03*
D26*
X131750000Y-60750000D03*
X130250000Y-60750000D03*
D25*
X127750000Y-59750000D03*
X127750000Y-58250000D03*
D52*
X120900000Y-64100000D03*
D41*
X149600000Y-121700000D03*
X150400000Y-121700000D03*
D16*
X99500000Y-92700000D03*
D28*
X133950000Y-100750000D03*
X133050000Y-100750000D03*
D45*
X100200000Y-58600000D03*
D26*
X132950000Y-111200000D03*
X134450000Y-111200000D03*
D25*
X142700000Y-77150000D03*
X142700000Y-78650000D03*
D27*
X124600000Y-127700000D03*
X124600000Y-126800000D03*
D18*
X114000000Y-73000000D03*
D26*
X132950000Y-95200000D03*
X134450000Y-95200000D03*
D25*
X121250000Y-90550000D03*
X121250000Y-92050000D03*
X129500000Y-121250000D03*
X129500000Y-119750000D03*
X143800000Y-52050000D03*
X143800000Y-53550000D03*
X129500000Y-105250000D03*
X129500000Y-103750000D03*
D23*
X154700000Y-89050000D03*
X155200000Y-89050000D03*
X155700000Y-89050000D03*
X155700000Y-87550000D03*
X155200000Y-87550000D03*
X154700000Y-87550000D03*
D26*
X132450000Y-55900000D03*
X130950000Y-55900000D03*
D25*
X131600000Y-63350000D03*
X131600000Y-61850000D03*
D26*
X155050000Y-122200000D03*
X153550000Y-122200000D03*
D25*
X152300000Y-56750000D03*
X152300000Y-58250000D03*
X153600000Y-71550000D03*
X153600000Y-73050000D03*
X153600000Y-55550000D03*
X153600000Y-57050000D03*
X151400000Y-124750000D03*
X151400000Y-123250000D03*
D51*
X166500000Y-90000000D03*
D46*
X162050000Y-91375000D03*
D47*
X161425000Y-91300000D03*
D48*
X162050000Y-90550000D03*
X162050000Y-89450000D03*
D47*
X161425000Y-88700000D03*
D46*
X162050000Y-88625000D03*
D16*
X157100000Y-60700000D03*
D27*
X133800000Y-57450000D03*
X133800000Y-56550000D03*
D46*
X162050000Y-59375000D03*
D47*
X161425000Y-59300000D03*
D48*
X162050000Y-58550000D03*
X162050000Y-57450000D03*
D47*
X161425000Y-56700000D03*
D46*
X162050000Y-56625000D03*
D11*
X125600000Y-127725000D03*
X125600000Y-126775000D03*
D43*
X107850000Y-76750000D03*
X107850000Y-75450000D03*
X105950000Y-76100000D03*
D46*
X159250000Y-107375000D03*
D47*
X158625000Y-107300000D03*
D48*
X159250000Y-106550000D03*
X159250000Y-105450000D03*
D47*
X158625000Y-104700000D03*
D46*
X159250000Y-104625000D03*
D16*
X157400000Y-103300000D03*
D24*
X150050000Y-124900000D03*
X150050000Y-124400000D03*
X150050000Y-123900000D03*
X148550000Y-123900000D03*
X148550000Y-124400000D03*
X148550000Y-124900000D03*
D43*
X109450000Y-104950000D03*
X109450000Y-103650000D03*
X107550000Y-104300000D03*
D25*
X121250000Y-106550000D03*
X121250000Y-108050000D03*
D23*
X154700000Y-105050000D03*
X155200000Y-105050000D03*
X155700000Y-105050000D03*
X155700000Y-103550000D03*
X155200000Y-103550000D03*
X154700000Y-103550000D03*
D52*
X120900000Y-48100000D03*
D26*
X132450000Y-87900000D03*
X130950000Y-87900000D03*
D25*
X104700000Y-60150000D03*
X104700000Y-58650000D03*
D51*
X90500000Y-42000000D03*
D40*
X135600000Y-70850000D03*
X135600000Y-69150000D03*
D45*
X100200000Y-74600000D03*
D46*
X97750000Y-72625000D03*
D47*
X98375000Y-72700000D03*
D48*
X97750000Y-73450000D03*
X97750000Y-74550000D03*
D47*
X98375000Y-75300000D03*
D46*
X97750000Y-75375000D03*
D18*
X114000000Y-89000000D03*
D26*
X142650000Y-100400000D03*
X141150000Y-100400000D03*
D46*
X94950000Y-72625000D03*
D47*
X95575000Y-72700000D03*
D48*
X94950000Y-73450000D03*
X94950000Y-74550000D03*
D47*
X95575000Y-75300000D03*
D46*
X94950000Y-75375000D03*
D41*
X149600000Y-73700000D03*
X150400000Y-73700000D03*
D11*
X125600000Y-79725000D03*
X125600000Y-78775000D03*
D41*
X149600000Y-57700000D03*
X150400000Y-57700000D03*
D26*
X108050000Y-122100000D03*
X109550000Y-122100000D03*
D42*
X112500000Y-53725000D03*
X112500000Y-55275000D03*
D28*
X134350000Y-71500000D03*
X133450000Y-71500000D03*
D23*
X131750000Y-122750000D03*
X132250000Y-122750000D03*
X132750000Y-122750000D03*
X132750000Y-121250000D03*
X132250000Y-121250000D03*
X131750000Y-121250000D03*
D42*
X112500000Y-117725000D03*
X112500000Y-119275000D03*
D25*
X127750000Y-75750000D03*
X127750000Y-74250000D03*
D28*
X148350000Y-103500000D03*
X147450000Y-103500000D03*
D52*
X120900000Y-51900000D03*
D24*
X103750000Y-87500000D03*
X103750000Y-88000000D03*
X103750000Y-88500000D03*
X105250000Y-88500000D03*
X105250000Y-88000000D03*
X105250000Y-87500000D03*
D19*
X115200000Y-41365000D03*
X115200000Y-42635000D03*
D40*
X135600000Y-54850000D03*
X135600000Y-53150000D03*
D25*
X151400000Y-92750000D03*
X151400000Y-91250000D03*
D28*
X148350000Y-119500000D03*
X147450000Y-119500000D03*
D29*
X144300000Y-57200000D03*
D30*
X144300000Y-57600000D03*
X144300000Y-58000000D03*
X144300000Y-58400000D03*
D31*
X144300000Y-58800000D03*
D32*
X144950000Y-59450000D03*
D33*
X145350000Y-59450000D03*
X145750000Y-59450000D03*
X146150000Y-59450000D03*
D34*
X146550000Y-59450000D03*
D35*
X147200000Y-58800000D03*
D30*
X147200000Y-58400000D03*
X147200000Y-58000000D03*
X147200000Y-57600000D03*
D36*
X147200000Y-57200000D03*
D37*
X146550000Y-56550000D03*
D33*
X146150000Y-56550000D03*
X145750000Y-56550000D03*
X145350000Y-56550000D03*
D38*
X144950000Y-56550000D03*
D39*
X145750000Y-58000000D03*
D46*
X97750000Y-104625000D03*
D47*
X98375000Y-104700000D03*
D48*
X97750000Y-105450000D03*
X97750000Y-106550000D03*
D47*
X98375000Y-107300000D03*
D46*
X97750000Y-107375000D03*
D25*
X143800000Y-84050000D03*
X143800000Y-85550000D03*
D24*
X129250000Y-74250000D03*
X129250000Y-74750000D03*
X129250000Y-75250000D03*
X130750000Y-75250000D03*
X130750000Y-74750000D03*
X130750000Y-74250000D03*
D25*
X129100000Y-60150000D03*
X129100000Y-61650000D03*
D42*
X112500000Y-69725000D03*
X112500000Y-71275000D03*
D24*
X150050000Y-76900000D03*
X150050000Y-76400000D03*
X150050000Y-75900000D03*
X148550000Y-75900000D03*
X148550000Y-76400000D03*
X148550000Y-76900000D03*
D25*
X104700000Y-92150000D03*
X104700000Y-90650000D03*
D24*
X149650000Y-87300000D03*
X149650000Y-87800000D03*
X149650000Y-88300000D03*
X151150000Y-88300000D03*
X151150000Y-87800000D03*
X151150000Y-87300000D03*
X149650000Y-55300000D03*
X149650000Y-55800000D03*
X149650000Y-56300000D03*
X151150000Y-56300000D03*
X151150000Y-55800000D03*
X151150000Y-55300000D03*
D25*
X102300000Y-119450000D03*
X102300000Y-120950000D03*
D11*
X115000000Y-92975000D03*
X115000000Y-92025000D03*
D26*
X132950000Y-63200000D03*
X134450000Y-63200000D03*
D25*
X127750000Y-120850000D03*
X127750000Y-119350000D03*
D43*
X109450000Y-120950000D03*
X109450000Y-119650000D03*
X107550000Y-120300000D03*
D26*
X106050000Y-73600000D03*
X104550000Y-73600000D03*
X106050000Y-105600000D03*
X104550000Y-105600000D03*
D25*
X143800000Y-68050000D03*
X143800000Y-69550000D03*
X127750000Y-72850000D03*
X127750000Y-71350000D03*
D24*
X152950000Y-107200000D03*
X152950000Y-107700000D03*
X152950000Y-108200000D03*
X154450000Y-108200000D03*
X154450000Y-107700000D03*
X154450000Y-107200000D03*
D52*
X120900000Y-35900000D03*
D44*
X139500000Y-103500000D03*
D46*
X94950000Y-104625000D03*
D47*
X95575000Y-104700000D03*
D48*
X94950000Y-105450000D03*
X94950000Y-106550000D03*
D47*
X95575000Y-107300000D03*
D46*
X94950000Y-107375000D03*
D27*
X124600000Y-79700000D03*
X124600000Y-78800000D03*
D23*
X154700000Y-57050000D03*
X155200000Y-57050000D03*
X155700000Y-57050000D03*
X155700000Y-55550000D03*
X155200000Y-55550000D03*
X154700000Y-55550000D03*
D43*
X109450000Y-88950000D03*
X109450000Y-87650000D03*
X107550000Y-88300000D03*
D28*
X134050000Y-109750000D03*
X133150000Y-109750000D03*
D25*
X129100000Y-92150000D03*
X129100000Y-93650000D03*
D27*
X121300000Y-72350000D03*
X121300000Y-71450000D03*
X146900000Y-92950000D03*
X146900000Y-93850000D03*
D11*
X122500000Y-74275000D03*
X122500000Y-75225000D03*
D27*
X146900000Y-60950000D03*
X146900000Y-61850000D03*
D22*
X126200000Y-73200000D03*
X126200000Y-72250000D03*
X126200000Y-71300000D03*
X123800000Y-71300000D03*
X123800000Y-72250000D03*
X123800000Y-73200000D03*
D50*
X123750000Y-111750000D03*
X122050000Y-111750000D03*
D15*
X110700000Y-73000000D03*
X112800000Y-73000000D03*
D12*
X114000000Y-69725000D03*
X114000000Y-71275000D03*
D25*
X121250000Y-74550000D03*
X121250000Y-76050000D03*
D19*
X115200000Y-89365000D03*
X115200000Y-90635000D03*
X145165000Y-70500000D03*
X146435000Y-70500000D03*
D25*
X153600000Y-87550000D03*
X153600000Y-89050000D03*
D16*
X99500000Y-108700000D03*
D27*
X141750000Y-122550000D03*
X141750000Y-123450000D03*
D25*
X151400000Y-76750000D03*
X151400000Y-75250000D03*
D43*
X109450000Y-56950000D03*
X109450000Y-55650000D03*
X107550000Y-56300000D03*
D49*
X105100000Y-109000000D03*
D23*
X154700000Y-73050000D03*
X155200000Y-73050000D03*
X155700000Y-73050000D03*
X155700000Y-71550000D03*
X155200000Y-71550000D03*
X154700000Y-71550000D03*
D11*
X142650000Y-58125000D03*
X142650000Y-57175000D03*
D14*
X113300000Y-75000000D03*
D15*
X111500000Y-75000000D03*
X111500000Y-77000000D03*
X113500000Y-77000000D03*
D25*
X104700000Y-76150000D03*
X104700000Y-74650000D03*
D14*
X113300000Y-91000000D03*
D15*
X111500000Y-91000000D03*
X111500000Y-93000000D03*
X113500000Y-93000000D03*
D46*
X97750000Y-56625000D03*
D47*
X98375000Y-56700000D03*
D48*
X97750000Y-57450000D03*
X97750000Y-58550000D03*
D47*
X98375000Y-59300000D03*
D46*
X97750000Y-59375000D03*
D25*
X144200000Y-112050000D03*
X144200000Y-110550000D03*
X152300000Y-88750000D03*
X152300000Y-90250000D03*
D13*
X133975000Y-53750000D03*
X133025000Y-53750000D03*
D25*
X129100000Y-108150000D03*
X129100000Y-109650000D03*
D17*
X114900000Y-126600000D03*
D23*
X134750000Y-123250000D03*
X134250000Y-123250000D03*
X133750000Y-123250000D03*
X133750000Y-124750000D03*
X134250000Y-124750000D03*
X134750000Y-124750000D03*
D26*
X106050000Y-121600000D03*
X104550000Y-121600000D03*
D13*
X133975000Y-117750000D03*
X133025000Y-117750000D03*
D23*
X134750000Y-91250000D03*
X134250000Y-91250000D03*
X133750000Y-91250000D03*
X133750000Y-92750000D03*
X134250000Y-92750000D03*
X134750000Y-92750000D03*
D21*
X115200000Y-55500000D03*
D27*
X141750000Y-90550000D03*
X141750000Y-91450000D03*
D22*
X126200000Y-76700000D03*
X126200000Y-75750000D03*
X126200000Y-74800000D03*
X123800000Y-74800000D03*
X123800000Y-75750000D03*
X123800000Y-76700000D03*
D23*
X131750000Y-90750000D03*
X132250000Y-90750000D03*
X132750000Y-90750000D03*
X132750000Y-89250000D03*
X132250000Y-89250000D03*
X131750000Y-89250000D03*
D25*
X127750000Y-123750000D03*
X127750000Y-122250000D03*
D26*
X132450000Y-71900000D03*
X130950000Y-71900000D03*
D22*
X126200000Y-105200000D03*
X126200000Y-104250000D03*
X126200000Y-103300000D03*
X123800000Y-103300000D03*
X123800000Y-104250000D03*
X123800000Y-105200000D03*
D45*
X100200000Y-122600000D03*
D43*
X107850000Y-92750000D03*
X107850000Y-91450000D03*
X105950000Y-92100000D03*
D27*
X155700000Y-91450000D03*
X155700000Y-92350000D03*
D25*
X143800000Y-100050000D03*
X143800000Y-101550000D03*
D24*
X103150000Y-92500000D03*
X103150000Y-92000000D03*
X103150000Y-91500000D03*
X101650000Y-91500000D03*
X101650000Y-92000000D03*
X101650000Y-92500000D03*
D21*
X115200000Y-119500000D03*
D51*
X166500000Y-42000000D03*
D24*
X103150000Y-124500000D03*
X103150000Y-124000000D03*
X103150000Y-123500000D03*
X101650000Y-123500000D03*
X101650000Y-124000000D03*
X101650000Y-124500000D03*
D25*
X127750000Y-104850000D03*
X127750000Y-103350000D03*
D17*
X114900000Y-78600000D03*
D50*
X123750000Y-95750000D03*
X122050000Y-95750000D03*
D25*
X142700000Y-109150000D03*
X142700000Y-110650000D03*
D46*
X162050000Y-75375000D03*
D47*
X161425000Y-75300000D03*
D48*
X162050000Y-74550000D03*
X162050000Y-73450000D03*
D47*
X161425000Y-72700000D03*
D46*
X162050000Y-72625000D03*
D29*
X144300000Y-89200000D03*
D30*
X144300000Y-89600000D03*
X144300000Y-90000000D03*
X144300000Y-90400000D03*
D31*
X144300000Y-90800000D03*
D32*
X144950000Y-91450000D03*
D33*
X145350000Y-91450000D03*
X145750000Y-91450000D03*
X146150000Y-91450000D03*
D34*
X146550000Y-91450000D03*
D35*
X147200000Y-90800000D03*
D30*
X147200000Y-90400000D03*
X147200000Y-90000000D03*
X147200000Y-89600000D03*
D36*
X147200000Y-89200000D03*
D37*
X146550000Y-88550000D03*
D33*
X146150000Y-88550000D03*
X145750000Y-88550000D03*
X145350000Y-88550000D03*
D38*
X144950000Y-88550000D03*
D39*
X145750000Y-90000000D03*
D46*
X94950000Y-120625000D03*
D47*
X95575000Y-120700000D03*
D48*
X94950000Y-121450000D03*
X94950000Y-122550000D03*
D47*
X95575000Y-123300000D03*
D46*
X94950000Y-123375000D03*
D17*
X114900000Y-94600000D03*
D25*
X144200000Y-128050000D03*
X144200000Y-126550000D03*
D44*
X139500000Y-87500000D03*
D23*
X154700000Y-121050000D03*
X155200000Y-121050000D03*
X155700000Y-121050000D03*
X155700000Y-119550000D03*
X155200000Y-119550000D03*
X154700000Y-119550000D03*
D52*
X120900000Y-96100000D03*
D27*
X141750000Y-58550000D03*
X141750000Y-59450000D03*
D23*
X134750000Y-107250000D03*
X134250000Y-107250000D03*
X133750000Y-107250000D03*
X133750000Y-108750000D03*
X134250000Y-108750000D03*
X134750000Y-108750000D03*
D21*
X115200000Y-87500000D03*
D26*
X155050000Y-58200000D03*
X153550000Y-58200000D03*
D27*
X121300000Y-56350000D03*
X121300000Y-55450000D03*
D22*
X126200000Y-92700000D03*
X126200000Y-91750000D03*
X126200000Y-90800000D03*
X123800000Y-90800000D03*
X123800000Y-91750000D03*
X123800000Y-92700000D03*
D52*
X120900000Y-112100000D03*
D28*
X148350000Y-87500000D03*
X147450000Y-87500000D03*
D26*
X106050000Y-57600000D03*
X104550000Y-57600000D03*
D14*
X113300000Y-123000000D03*
D15*
X111500000Y-123000000D03*
X111500000Y-125000000D03*
X113500000Y-125000000D03*
D42*
X112500000Y-101725000D03*
X112500000Y-103275000D03*
D51*
X90500000Y-58000000D03*
D18*
X114000000Y-105000000D03*
M02*
