G04 #@! TF.GenerationSoftware,KiCad,Pcbnew,7.0.7*
G04 #@! TF.CreationDate,2023-09-19T00:26:09+09:00*
G04 #@! TF.ProjectId,motordecoder2-k3066v3-p,6d6f746f-7264-4656-936f-646572322d6b,rev?*
G04 #@! TF.SameCoordinates,Original*
G04 #@! TF.FileFunction,Soldermask,Bot*
G04 #@! TF.FilePolarity,Negative*
%FSLAX46Y46*%
G04 Gerber Fmt 4.6, Leading zero omitted, Abs format (unit mm)*
G04 Created by KiCad (PCBNEW 7.0.7) date 2023-09-19 00:26:09*
%MOMM*%
%LPD*%
G01*
G04 APERTURE LIST*
%ADD10R,1.500000X1.500000*%
%ADD11R,2.000000X1.500000*%
%ADD12R,0.950000X0.950000*%
%ADD13R,1.000000X1.000000*%
%ADD14R,6.500000X2.000000*%
%ADD15R,2.000000X2.000000*%
%ADD16C,2.000000*%
G04 APERTURE END LIST*
D10*
X151750000Y-45250000D03*
D11*
X153500000Y-45250000D03*
D10*
X155250000Y-45250000D03*
X151750000Y-52750000D03*
D11*
X153500000Y-52750000D03*
D10*
X155250000Y-52750000D03*
D12*
X167465000Y-45500000D03*
X168735000Y-45500000D03*
D11*
X165000000Y-45500000D03*
X165000000Y-52500000D03*
D13*
X177000000Y-52350000D03*
X175500000Y-52350000D03*
X177100000Y-45650000D03*
X175500000Y-45650000D03*
D14*
X125250000Y-45750000D03*
D15*
X121000000Y-45750000D03*
X119000000Y-45750000D03*
D14*
X125250000Y-52250000D03*
D15*
X121000000Y-52250000D03*
X119000000Y-52250000D03*
D11*
X165000000Y-58000000D03*
X165000000Y-83000000D03*
D16*
X114500000Y-86500000D03*
D11*
X165000000Y-95500000D03*
D13*
X175500000Y-95650000D03*
X177000000Y-102350000D03*
D10*
X151750000Y-65250000D03*
D11*
X153500000Y-65250000D03*
D10*
X155250000Y-65250000D03*
D11*
X165000000Y-65000000D03*
D10*
X151750000Y-140250000D03*
D11*
X153500000Y-140250000D03*
D10*
X155250000Y-140250000D03*
X151750000Y-115250000D03*
D11*
X153500000Y-115250000D03*
D10*
X155250000Y-115250000D03*
D13*
X177100000Y-70650000D03*
D10*
X151750000Y-127750000D03*
D11*
X153500000Y-127750000D03*
D10*
X155250000Y-127750000D03*
D13*
X177100000Y-133150000D03*
D16*
X181500000Y-136500000D03*
D13*
X175500000Y-127350000D03*
D10*
X151750000Y-82750000D03*
D11*
X153500000Y-82750000D03*
D10*
X155250000Y-82750000D03*
D14*
X125250000Y-127250000D03*
D15*
X121000000Y-127250000D03*
X119000000Y-127250000D03*
D13*
X175500000Y-64850000D03*
D14*
X125250000Y-133250000D03*
D15*
X121000000Y-133250000D03*
X119000000Y-133250000D03*
D12*
X167465000Y-70500000D03*
X168735000Y-70500000D03*
D13*
X175500000Y-114850000D03*
D16*
X114500000Y-61500000D03*
D13*
X175500000Y-102350000D03*
D14*
X125250000Y-120750000D03*
D15*
X121000000Y-120750000D03*
X119000000Y-120750000D03*
D13*
X177100000Y-58150000D03*
X177000000Y-89850000D03*
D14*
X125250000Y-108250000D03*
D15*
X121000000Y-108250000D03*
X119000000Y-108250000D03*
D10*
X151750000Y-120250000D03*
D11*
X153500000Y-120250000D03*
D10*
X155250000Y-120250000D03*
D16*
X181500000Y-74000000D03*
D13*
X175500000Y-139850000D03*
D10*
X151750000Y-77750000D03*
D11*
X153500000Y-77750000D03*
D10*
X155250000Y-77750000D03*
D16*
X181500000Y-61500000D03*
D12*
X167465000Y-108000000D03*
X168735000Y-108000000D03*
D13*
X177100000Y-95650000D03*
D12*
X167465000Y-83000000D03*
X168735000Y-83000000D03*
D16*
X114500000Y-74000000D03*
X181500000Y-86500000D03*
D10*
X151750000Y-90250000D03*
D11*
X153500000Y-90250000D03*
D10*
X155250000Y-90250000D03*
D13*
X175500000Y-120650000D03*
D16*
X114500000Y-136500000D03*
X114500000Y-49000000D03*
X181500000Y-99000000D03*
D14*
X125250000Y-83250000D03*
D15*
X121000000Y-83250000D03*
X119000000Y-83250000D03*
D13*
X177100000Y-108150000D03*
X177000000Y-114850000D03*
D14*
X125250000Y-77250000D03*
D15*
X121000000Y-77250000D03*
X119000000Y-77250000D03*
D13*
X175500000Y-133150000D03*
D14*
X125250000Y-139750000D03*
D15*
X121000000Y-139750000D03*
X119000000Y-139750000D03*
D10*
X151750000Y-70250000D03*
D11*
X153500000Y-70250000D03*
D10*
X155250000Y-70250000D03*
D13*
X177100000Y-120650000D03*
D10*
X151750000Y-57750000D03*
D11*
X153500000Y-57750000D03*
D10*
X155250000Y-57750000D03*
D11*
X165000000Y-115000000D03*
D13*
X177000000Y-64850000D03*
X175500000Y-108150000D03*
D14*
X125250000Y-70750000D03*
D15*
X121000000Y-70750000D03*
X119000000Y-70750000D03*
D11*
X165000000Y-127500000D03*
D13*
X175500000Y-89850000D03*
D14*
X125250000Y-102250000D03*
D15*
X121000000Y-102250000D03*
X119000000Y-102250000D03*
D13*
X175500000Y-83150000D03*
D12*
X167465000Y-120500000D03*
X168735000Y-120500000D03*
D13*
X177000000Y-127350000D03*
D11*
X165000000Y-90000000D03*
D13*
X175500000Y-58150000D03*
D11*
X165000000Y-120500000D03*
X165000000Y-77500000D03*
X165000000Y-108000000D03*
X165000000Y-70500000D03*
D13*
X175500000Y-77350000D03*
D11*
X165000000Y-102500000D03*
D10*
X151750000Y-107750000D03*
D11*
X153500000Y-107750000D03*
D10*
X155250000Y-107750000D03*
D13*
X177000000Y-77350000D03*
X177000000Y-139850000D03*
D16*
X181500000Y-111500000D03*
X114500000Y-111500000D03*
D14*
X125250000Y-114750000D03*
D15*
X121000000Y-114750000D03*
X119000000Y-114750000D03*
D16*
X181500000Y-124000000D03*
X114500000Y-124000000D03*
D12*
X167465000Y-133000000D03*
X168735000Y-133000000D03*
X167465000Y-95500000D03*
X168735000Y-95500000D03*
X167465000Y-58000000D03*
X168735000Y-58000000D03*
D11*
X165000000Y-140000000D03*
D14*
X125250000Y-58250000D03*
D15*
X121000000Y-58250000D03*
X119000000Y-58250000D03*
D10*
X151750000Y-102750000D03*
D11*
X153500000Y-102750000D03*
D10*
X155250000Y-102750000D03*
D13*
X177100000Y-83150000D03*
D14*
X125250000Y-89750000D03*
D15*
X121000000Y-89750000D03*
X119000000Y-89750000D03*
D13*
X175500000Y-70650000D03*
D14*
X125250000Y-64750000D03*
D15*
X121000000Y-64750000D03*
X119000000Y-64750000D03*
D16*
X114500000Y-99000000D03*
D10*
X151750000Y-132750000D03*
D11*
X153500000Y-132750000D03*
D10*
X155250000Y-132750000D03*
X151750000Y-95250000D03*
D11*
X153500000Y-95250000D03*
D10*
X155250000Y-95250000D03*
D11*
X165000000Y-133000000D03*
D16*
X181500000Y-49000000D03*
D14*
X125250000Y-95750000D03*
D15*
X121000000Y-95750000D03*
X119000000Y-95750000D03*
M02*
