M48
; DRILL file {KiCad 7.0.7} date Tue Sep 19 00:26:09 2023
; FORMAT={-:-/ absolute / metric / decimal}
; #@! TF.CreationDate,2023-09-19T00:26:09+09:00
; #@! TF.GenerationSoftware,Kicad,Pcbnew,7.0.7
; #@! TF.FileFunction,Plated,1,2,PTH
FMAT,2
METRIC
; #@! TA.AperFunction,Plated,PTH,ViaDrill
T1C0.300
; #@! TA.AperFunction,Plated,PTH,ViaDrill
T2C0.400
; #@! TA.AperFunction,Plated,PTH,ViaDrill
T3C0.500
; #@! TA.AperFunction,Plated,PTH,ComponentDrill
T4C0.600
; #@! TA.AperFunction,Plated,PTH,ComponentDrill
T5C0.700
; #@! TA.AperFunction,Plated,PTH,ComponentDrill
T6C0.800
; #@! TA.AperFunction,Plated,PTH,ComponentDrill
T7C0.900
%
G90
G05
T1
X124.9Y-48.75
X124.9Y-61.25
X124.9Y-73.75
X124.9Y-86.25
X124.9Y-98.75
X124.9Y-111.25
X124.9Y-123.75
X124.9Y-136.25
X125.2Y-50.35
X125.2Y-62.85
X125.2Y-75.35
X125.2Y-87.85
X125.2Y-100.35
X125.2Y-112.85
X125.2Y-125.35
X125.2Y-137.85
X126.5Y-47.45
X126.5Y-59.95
X126.5Y-72.45
X126.5Y-84.95
X126.5Y-97.45
X126.5Y-109.95
X126.5Y-122.45
X126.5Y-134.95
X126.7Y-48.45
X126.7Y-60.95
X126.7Y-73.45
X126.7Y-85.95
X126.7Y-98.45
X126.7Y-110.95
X126.7Y-123.45
X126.7Y-135.95
X130.1Y-47.85
X130.1Y-60.35
X130.1Y-72.85
X130.1Y-85.35
X130.1Y-97.85
X130.1Y-110.35
X130.1Y-122.85
X130.1Y-135.35
X132.1Y-47.8
X132.1Y-60.3
X132.1Y-72.8
X132.1Y-85.3
X132.1Y-97.8
X132.1Y-110.3
X132.1Y-122.8
X132.1Y-135.3
X135.7Y-47.3
X135.7Y-59.8
X135.7Y-72.3
X135.7Y-84.8
X135.7Y-97.3
X135.7Y-109.8
X135.7Y-122.3
X135.7Y-134.8
X138.5Y-47.85
X138.5Y-60.35
X138.5Y-72.85
X138.5Y-85.35
X138.5Y-97.85
X138.5Y-110.35
X138.5Y-122.85
X138.5Y-135.35
X144.3Y-49.75
X144.3Y-62.25
X144.3Y-74.75
X144.3Y-87.25
X144.3Y-99.75
X144.3Y-112.25
X144.3Y-124.75
X144.3Y-137.25
X146.25Y-50.99
X146.25Y-51.8
X146.25Y-63.49
X146.25Y-64.3
X146.25Y-75.99
X146.25Y-76.8
X146.25Y-88.49
X146.25Y-89.3
X146.25Y-100.99
X146.25Y-101.8
X146.25Y-113.49
X146.25Y-114.3
X146.25Y-125.99
X146.25Y-126.8
X146.25Y-138.49
X146.25Y-139.3
X148.25Y-45.75
X148.25Y-58.25
X148.25Y-70.75
X148.25Y-83.25
X148.25Y-95.75
X148.25Y-108.25
X148.25Y-120.75
X148.25Y-133.25
X148.6Y-49.15
X148.6Y-61.65
X148.6Y-74.15
X148.6Y-86.65
X148.6Y-99.15
X148.6Y-111.65
X148.6Y-124.15
X148.6Y-136.65
X149.8Y-51.65
X149.8Y-64.15
X149.8Y-76.65
X149.8Y-89.15
X149.8Y-101.65
X149.8Y-114.15
X149.8Y-126.65
X149.8Y-139.15
X152.6Y-49.55
X152.6Y-62.05
X152.6Y-74.55
X152.6Y-87.05
X152.6Y-99.55
X152.6Y-112.05
X152.6Y-124.55
X152.6Y-137.05
X154.0Y-49.15
X154.0Y-61.65
X154.0Y-74.15
X154.0Y-86.65
X154.0Y-99.15
X154.0Y-111.65
X154.0Y-124.15
X154.0Y-136.65
X154.7Y-49.75
X154.7Y-62.25
X154.7Y-74.75
X154.7Y-87.25
X154.7Y-99.75
X154.7Y-112.25
X154.7Y-124.75
X154.7Y-137.25
X157.6Y-48.15
X157.6Y-60.65
X157.6Y-73.15
X157.6Y-85.65
X157.6Y-98.15
X157.6Y-110.65
X157.6Y-123.15
X157.6Y-135.65
X158.4Y-50.25
X158.4Y-62.75
X158.4Y-75.25
X158.4Y-87.75
X158.4Y-100.25
X158.4Y-112.75
X158.4Y-125.25
X158.4Y-137.75
X158.9Y-48.15
X158.9Y-60.65
X158.9Y-73.15
X158.9Y-85.65
X158.9Y-98.15
X158.9Y-110.65
X158.9Y-123.15
X158.9Y-135.65
X162.0Y-49.15
X162.0Y-61.65
X162.0Y-74.15
X162.0Y-86.65
X162.0Y-99.15
X162.0Y-111.65
X162.0Y-124.15
X162.0Y-136.65
X163.6Y-49.95
X163.6Y-62.45
X163.6Y-74.95
X163.6Y-87.45
X163.6Y-99.95
X163.6Y-112.45
X163.6Y-124.95
X163.6Y-137.45
X166.0Y-48.45
X166.0Y-60.95
X166.0Y-73.45
X166.0Y-85.95
X166.0Y-98.45
X166.0Y-110.95
X166.0Y-123.45
X166.0Y-135.95
X166.8Y-51.05
X166.8Y-63.55
X166.8Y-76.05
X166.8Y-88.55
X166.8Y-101.05
X166.8Y-113.55
X166.8Y-126.05
X166.8Y-138.55
X166.9Y-52.65
X166.9Y-65.15
X166.9Y-77.65
X166.9Y-90.15
X166.9Y-102.65
X166.9Y-115.15
X166.9Y-127.65
X166.9Y-140.15
X167.1Y-51.85
X167.1Y-64.35
X167.1Y-76.85
X167.1Y-89.35
X167.1Y-101.85
X167.1Y-114.35
X167.1Y-126.85
X167.1Y-139.35
X167.8Y-48.55
X167.8Y-61.05
X167.8Y-73.55
X167.8Y-86.05
X167.8Y-98.55
X167.8Y-111.05
X167.8Y-123.55
X167.8Y-136.05
X168.2Y-46.55
X168.2Y-59.05
X168.2Y-71.55
X168.2Y-84.05
X168.2Y-96.55
X168.2Y-109.05
X168.2Y-121.55
X168.2Y-134.05
X168.8Y-49.45
X168.8Y-61.95
X168.8Y-74.45
X168.8Y-86.95
X168.8Y-99.45
X168.8Y-111.95
X168.8Y-124.45
X168.8Y-136.95
X169.1Y-46.55
X169.1Y-59.05
X169.1Y-71.55
X169.1Y-84.05
X169.1Y-96.55
X169.1Y-109.05
X169.1Y-121.55
X169.1Y-134.05
X170.1Y-50.45
X170.1Y-62.95
X170.1Y-75.45
X170.1Y-87.95
X170.1Y-100.45
X170.1Y-112.95
X170.1Y-125.45
X170.1Y-137.95
X170.6Y-48.45
X170.6Y-60.95
X170.6Y-73.45
X170.6Y-85.95
X170.6Y-98.45
X170.6Y-110.95
X170.6Y-123.45
X170.6Y-135.95
X171.9Y-46.45
X171.9Y-58.95
X171.9Y-71.45
X171.9Y-83.95
X171.9Y-96.45
X171.9Y-108.95
X171.9Y-121.45
X171.9Y-133.95
X172.0Y-51.15
X172.0Y-63.65
X172.0Y-76.15
X172.0Y-88.65
X172.0Y-101.15
X172.0Y-113.65
X172.0Y-126.15
X172.0Y-138.65
X172.4Y-48.05
X172.4Y-60.55
X172.4Y-73.05
X172.4Y-85.55
X172.4Y-98.05
X172.4Y-110.55
X172.4Y-123.05
X172.4Y-135.55
X172.8Y-49.85
X172.8Y-62.35
X172.8Y-74.85
X172.8Y-87.35
X172.8Y-99.85
X172.8Y-112.35
X172.8Y-124.85
X172.8Y-137.35
X174.9Y-48.55
X174.9Y-61.05
X174.9Y-73.55
X174.9Y-86.05
X174.9Y-98.55
X174.9Y-111.05
X174.9Y-123.55
X174.9Y-136.05
X176.6Y-50.35
X176.6Y-62.85
X176.6Y-75.35
X176.6Y-87.85
X176.6Y-100.35
X176.6Y-112.85
X176.6Y-125.35
X176.6Y-137.85
T2
X121.4Y-49.95
X121.4Y-62.45
X121.4Y-74.95
X121.4Y-87.45
X121.4Y-99.95
X121.4Y-112.45
X121.4Y-124.95
X121.4Y-137.45
X122.2Y-49.95
X122.2Y-62.45
X122.2Y-74.95
X122.2Y-87.45
X122.2Y-99.95
X122.2Y-112.45
X122.2Y-124.95
X122.2Y-137.45
X127.8Y-45.45
X127.8Y-46.25
X127.8Y-51.75
X127.8Y-52.55
X127.8Y-57.95
X127.8Y-58.75
X127.8Y-64.25
X127.8Y-65.05
X127.8Y-70.45
X127.8Y-71.25
X127.8Y-76.75
X127.8Y-77.55
X127.8Y-82.95
X127.8Y-83.75
X127.8Y-89.25
X127.8Y-90.05
X127.8Y-95.45
X127.8Y-96.25
X127.8Y-101.75
X127.8Y-102.55
X127.8Y-107.95
X127.8Y-108.75
X127.8Y-114.25
X127.8Y-115.05
X127.8Y-120.45
X127.8Y-121.25
X127.8Y-126.75
X127.8Y-127.55
X127.8Y-132.95
X127.8Y-133.75
X127.8Y-139.25
X127.8Y-140.05
X128.6Y-47.95
X128.6Y-60.45
X128.6Y-72.95
X128.6Y-85.45
X128.6Y-97.95
X128.6Y-110.45
X128.6Y-122.95
X128.6Y-135.45
X130.5Y-49.45
X130.5Y-61.95
X130.5Y-74.45
X130.5Y-86.95
X130.5Y-99.45
X130.5Y-111.95
X130.5Y-124.45
X130.5Y-136.95
X142.6Y-48.45
X142.6Y-60.95
X142.6Y-73.45
X142.6Y-85.95
X142.6Y-98.45
X142.6Y-110.95
X142.6Y-123.45
X142.6Y-135.95
X146.5Y-48.25
X146.5Y-60.75
X146.5Y-73.25
X146.5Y-85.75
X146.5Y-98.25
X146.5Y-110.75
X146.5Y-123.25
X146.5Y-135.75
X147.9Y-49.25
X147.9Y-49.95
X147.9Y-61.75
X147.9Y-62.45
X147.9Y-74.25
X147.9Y-74.95
X147.9Y-86.75
X147.9Y-87.45
X147.9Y-99.25
X147.9Y-99.95
X147.9Y-111.75
X147.9Y-112.45
X147.9Y-124.25
X147.9Y-124.95
X147.9Y-136.75
X147.9Y-137.45
X157.25Y-45.75
X157.25Y-58.25
X157.25Y-70.75
X157.25Y-83.25
X157.25Y-95.75
X157.25Y-108.25
X157.25Y-120.75
X157.25Y-133.25
X157.3Y-52.35
X157.3Y-64.85
X157.3Y-77.35
X157.3Y-89.85
X157.3Y-102.35
X157.3Y-114.85
X157.3Y-127.35
X157.3Y-139.85
X160.375Y-48.25
X160.375Y-60.75
X160.375Y-73.25
X160.375Y-85.75
X160.375Y-98.25
X160.375Y-110.75
X160.375Y-123.25
X160.375Y-135.75
T3
X128.8Y-49.55
X128.8Y-62.05
X128.8Y-74.55
X128.8Y-87.05
X128.8Y-99.55
X128.8Y-112.05
X128.8Y-124.55
X128.8Y-137.05
X145.75Y-44.5
X145.75Y-53.5
X145.75Y-57.0
X145.75Y-66.0
X145.75Y-69.5
X145.75Y-78.5
X145.75Y-82.0
X145.75Y-91.0
X145.75Y-94.5
X145.75Y-103.5
X145.75Y-107.0
X145.75Y-116.0
X145.75Y-119.5
X145.75Y-128.5
X145.75Y-132.0
X145.75Y-141.0
T4
X175.5Y-45.65
X175.5Y-52.35
X175.5Y-58.15
X175.5Y-64.85
X175.5Y-70.65
X175.5Y-77.35
X175.5Y-83.15
X175.5Y-89.85
X175.5Y-95.65
X175.5Y-102.35
X175.5Y-108.15
X175.5Y-114.85
X175.5Y-120.65
X175.5Y-127.35
X175.5Y-133.15
X175.5Y-139.85
X177.0Y-52.35
X177.0Y-64.85
X177.0Y-77.35
X177.0Y-89.85
X177.0Y-102.35
X177.0Y-114.85
X177.0Y-127.35
X177.0Y-139.85
X177.1Y-45.65
X177.1Y-58.15
X177.1Y-70.65
X177.1Y-83.15
X177.1Y-95.65
X177.1Y-108.15
X177.1Y-120.65
X177.1Y-133.15
T5
X165.0Y-45.5
X165.0Y-52.5
X165.0Y-58.0
X165.0Y-65.0
X165.0Y-70.5
X165.0Y-77.5
X165.0Y-83.0
X165.0Y-90.0
X165.0Y-95.5
X165.0Y-102.5
X165.0Y-108.0
X165.0Y-115.0
X165.0Y-120.5
X165.0Y-127.5
X165.0Y-133.0
X165.0Y-140.0
X167.465Y-45.5
X167.465Y-58.0
X167.465Y-70.5
X167.465Y-83.0
X167.465Y-95.5
X167.465Y-108.0
X167.465Y-120.5
X167.465Y-133.0
X168.735Y-45.5
X168.735Y-58.0
X168.735Y-70.5
X168.735Y-83.0
X168.735Y-95.5
X168.735Y-108.0
X168.735Y-120.5
X168.735Y-133.0
T6
X119.0Y-45.75
X119.0Y-52.25
X119.0Y-58.25
X119.0Y-64.75
X119.0Y-70.75
X119.0Y-77.25
X119.0Y-83.25
X119.0Y-89.75
X119.0Y-95.75
X119.0Y-102.25
X119.0Y-108.25
X119.0Y-114.75
X119.0Y-120.75
X119.0Y-127.25
X119.0Y-133.25
X119.0Y-139.75
X121.0Y-45.75
X121.0Y-52.25
X121.0Y-58.25
X121.0Y-64.75
X121.0Y-70.75
X121.0Y-77.25
X121.0Y-83.25
X121.0Y-89.75
X121.0Y-95.75
X121.0Y-102.25
X121.0Y-108.25
X121.0Y-114.75
X121.0Y-120.75
X121.0Y-127.25
X121.0Y-133.25
X121.0Y-139.75
T7
X151.75Y-45.25
X151.75Y-52.75
X151.75Y-57.75
X151.75Y-65.25
X151.75Y-70.25
X151.75Y-77.75
X151.75Y-82.75
X151.75Y-90.25
X151.75Y-95.25
X151.75Y-102.75
X151.75Y-107.75
X151.75Y-115.25
X151.75Y-120.25
X151.75Y-127.75
X151.75Y-132.75
X151.75Y-140.25
X155.25Y-45.25
X155.25Y-52.75
X155.25Y-57.75
X155.25Y-65.25
X155.25Y-70.25
X155.25Y-77.75
X155.25Y-82.75
X155.25Y-90.25
X155.25Y-95.25
X155.25Y-102.75
X155.25Y-107.75
X155.25Y-115.25
X155.25Y-120.25
X155.25Y-127.75
X155.25Y-132.75
X155.25Y-140.25
T0
M30
