%TF.GenerationSoftware,KiCad,Pcbnew,(5.1.9)-1*%
%TF.CreationDate,2021-04-24T22:15:52+09:00*%
%TF.ProjectId,motordecoder2,6d6f746f-7264-4656-936f-646572322e6b,rev?*%
%TF.SameCoordinates,PX66ff300PY81390e0*%
%TF.FileFunction,Paste,Top*%
%TF.FilePolarity,Positive*%
%FSLAX46Y46*%
G04 Gerber Fmt 4.6, Leading zero omitted, Abs format (unit mm)*
G04 Created by KiCad (PCBNEW (5.1.9)-1) date 2021-04-24 22:15:52*
%MOMM*%
%LPD*%
G01*
G04 APERTURE LIST*
%ADD10C,2.000000*%
%ADD11R,0.420000X0.385000*%
%ADD12R,0.385000X0.420000*%
%ADD13R,0.630000X0.455000*%
%ADD14R,0.455000X0.630000*%
%ADD15R,0.385000X0.350000*%
%ADD16R,0.350000X0.350000*%
%ADD17R,0.350000X0.385000*%
%ADD18R,0.490000X0.210000*%
%ADD19R,0.490000X0.560000*%
%ADD20R,0.420000X0.560000*%
%ADD21R,0.525000X0.910000*%
%ADD22R,0.210000X0.350000*%
%ADD23R,0.560000X0.350000*%
%ADD24R,0.490000X0.700000*%
%ADD25R,0.210000X0.490000*%
%ADD26R,0.630000X0.560000*%
%ADD27R,0.560000X0.560000*%
%ADD28C,0.100000*%
%ADD29R,0.560000X0.630000*%
%ADD30R,0.840000X0.630000*%
G04 APERTURE END LIST*
D10*
%TO.C,REF\u002A\u002A*%
X70500000Y5250000D03*
%TD*%
%TO.C,REF\u002A\u002A*%
X70500000Y17750000D03*
%TD*%
%TO.C,REF\u002A\u002A*%
X70500000Y30250000D03*
%TD*%
%TO.C,REF\u002A\u002A*%
X70500000Y42750000D03*
%TD*%
%TO.C,REF\u002A\u002A*%
X70500000Y55250000D03*
%TD*%
%TO.C,REF\u002A\u002A*%
X70500000Y67750000D03*
%TD*%
%TO.C,REF\u002A\u002A*%
X70500000Y80250000D03*
%TD*%
%TO.C,REF\u002A\u002A*%
X3500000Y5250000D03*
%TD*%
%TO.C,REF\u002A\u002A*%
X3500000Y17750000D03*
%TD*%
%TO.C,REF\u002A\u002A*%
X3500000Y30250000D03*
%TD*%
%TO.C,REF\u002A\u002A*%
X3500000Y42750000D03*
%TD*%
%TO.C,REF\u002A\u002A*%
X3500000Y55250000D03*
%TD*%
%TO.C,REF\u002A\u002A*%
X3500000Y67750000D03*
%TD*%
%TO.C,REF\u002A\u002A*%
X3500000Y80250000D03*
%TD*%
%TO.C,REF\u002A\u002A*%
X3500000Y92750000D03*
%TD*%
%TO.C,REF\u002A\u002A*%
X70500000Y92750000D03*
%TD*%
D11*
%TO.C,R33*%
X19000000Y3725000D03*
X19000000Y4775000D03*
%TD*%
%TO.C,R33*%
X19000000Y16225000D03*
X19000000Y17275000D03*
%TD*%
%TO.C,R33*%
X19000000Y28725000D03*
X19000000Y29775000D03*
%TD*%
%TO.C,R33*%
X19000000Y41225000D03*
X19000000Y42275000D03*
%TD*%
%TO.C,R33*%
X19000000Y53725000D03*
X19000000Y54775000D03*
%TD*%
%TO.C,R33*%
X19000000Y66225000D03*
X19000000Y67275000D03*
%TD*%
%TO.C,R33*%
X19000000Y78725000D03*
X19000000Y79775000D03*
%TD*%
D12*
%TO.C,R31*%
X21025000Y5750000D03*
X19975000Y5750000D03*
%TD*%
%TO.C,R31*%
X21025000Y18250000D03*
X19975000Y18250000D03*
%TD*%
%TO.C,R31*%
X21025000Y30750000D03*
X19975000Y30750000D03*
%TD*%
%TO.C,R31*%
X21025000Y43250000D03*
X19975000Y43250000D03*
%TD*%
%TO.C,R31*%
X21025000Y55750000D03*
X19975000Y55750000D03*
%TD*%
%TO.C,R31*%
X21025000Y68250000D03*
X19975000Y68250000D03*
%TD*%
%TO.C,R31*%
X21025000Y80750000D03*
X19975000Y80750000D03*
%TD*%
D13*
%TO.C,R5*%
X38750000Y7425000D03*
X38750000Y9075000D03*
%TD*%
%TO.C,R5*%
X38750000Y19925000D03*
X38750000Y21575000D03*
%TD*%
%TO.C,R5*%
X38750000Y32425000D03*
X38750000Y34075000D03*
%TD*%
%TO.C,R5*%
X38750000Y44925000D03*
X38750000Y46575000D03*
%TD*%
%TO.C,R5*%
X38750000Y57425000D03*
X38750000Y59075000D03*
%TD*%
%TO.C,R5*%
X38750000Y69925000D03*
X38750000Y71575000D03*
%TD*%
%TO.C,R5*%
X38750000Y82425000D03*
X38750000Y84075000D03*
%TD*%
D11*
%TO.C,R32*%
X18750000Y6775000D03*
X18750000Y5725000D03*
%TD*%
%TO.C,R32*%
X18750000Y19275000D03*
X18750000Y18225000D03*
%TD*%
%TO.C,R32*%
X18750000Y31775000D03*
X18750000Y30725000D03*
%TD*%
%TO.C,R32*%
X18750000Y44275000D03*
X18750000Y43225000D03*
%TD*%
%TO.C,R32*%
X18750000Y56775000D03*
X18750000Y55725000D03*
%TD*%
%TO.C,R32*%
X18750000Y69275000D03*
X18750000Y68225000D03*
%TD*%
%TO.C,R32*%
X18750000Y81775000D03*
X18750000Y80725000D03*
%TD*%
D13*
%TO.C,R14*%
X30200000Y4075000D03*
X30200000Y5725000D03*
%TD*%
%TO.C,R14*%
X30200000Y16575000D03*
X30200000Y18225000D03*
%TD*%
%TO.C,R14*%
X30200000Y29075000D03*
X30200000Y30725000D03*
%TD*%
%TO.C,R14*%
X30200000Y41575000D03*
X30200000Y43225000D03*
%TD*%
%TO.C,R14*%
X30200000Y54075000D03*
X30200000Y55725000D03*
%TD*%
%TO.C,R14*%
X30200000Y66575000D03*
X30200000Y68225000D03*
%TD*%
%TO.C,R14*%
X30200000Y79075000D03*
X30200000Y80725000D03*
%TD*%
D11*
%TO.C,R13*%
X60300000Y4725000D03*
X60300000Y3675000D03*
%TD*%
%TO.C,R13*%
X60300000Y17225000D03*
X60300000Y16175000D03*
%TD*%
%TO.C,R13*%
X60300000Y29725000D03*
X60300000Y28675000D03*
%TD*%
%TO.C,R13*%
X60300000Y42225000D03*
X60300000Y41175000D03*
%TD*%
%TO.C,R13*%
X60300000Y54725000D03*
X60300000Y53675000D03*
%TD*%
%TO.C,R13*%
X60300000Y67225000D03*
X60300000Y66175000D03*
%TD*%
%TO.C,R13*%
X60300000Y79725000D03*
X60300000Y78675000D03*
%TD*%
D14*
%TO.C,R4*%
X37175000Y4500000D03*
X38825000Y4500000D03*
%TD*%
%TO.C,R4*%
X37175000Y17000000D03*
X38825000Y17000000D03*
%TD*%
%TO.C,R4*%
X37175000Y29500000D03*
X38825000Y29500000D03*
%TD*%
%TO.C,R4*%
X37175000Y42000000D03*
X38825000Y42000000D03*
%TD*%
%TO.C,R4*%
X37175000Y54500000D03*
X38825000Y54500000D03*
%TD*%
%TO.C,R4*%
X37175000Y67000000D03*
X38825000Y67000000D03*
%TD*%
%TO.C,R4*%
X37175000Y79500000D03*
X38825000Y79500000D03*
%TD*%
D12*
%TO.C,R36*%
X24275000Y3500000D03*
X23225000Y3500000D03*
%TD*%
%TO.C,R36*%
X24275000Y16000000D03*
X23225000Y16000000D03*
%TD*%
%TO.C,R36*%
X24275000Y28500000D03*
X23225000Y28500000D03*
%TD*%
%TO.C,R36*%
X24275000Y41000000D03*
X23225000Y41000000D03*
%TD*%
%TO.C,R36*%
X24275000Y53500000D03*
X23225000Y53500000D03*
%TD*%
%TO.C,R36*%
X24275000Y66000000D03*
X23225000Y66000000D03*
%TD*%
%TO.C,R36*%
X24275000Y78500000D03*
X23225000Y78500000D03*
%TD*%
D14*
%TO.C,R3*%
X36175000Y6000000D03*
X37825000Y6000000D03*
%TD*%
%TO.C,R3*%
X36175000Y18500000D03*
X37825000Y18500000D03*
%TD*%
%TO.C,R3*%
X36175000Y31000000D03*
X37825000Y31000000D03*
%TD*%
%TO.C,R3*%
X36175000Y43500000D03*
X37825000Y43500000D03*
%TD*%
%TO.C,R3*%
X36175000Y56000000D03*
X37825000Y56000000D03*
%TD*%
%TO.C,R3*%
X36175000Y68500000D03*
X37825000Y68500000D03*
%TD*%
%TO.C,R3*%
X36175000Y81000000D03*
X37825000Y81000000D03*
%TD*%
%TO.C,R6*%
X39925000Y4000000D03*
X41575000Y4000000D03*
%TD*%
%TO.C,R6*%
X39925000Y16500000D03*
X41575000Y16500000D03*
%TD*%
%TO.C,R6*%
X39925000Y29000000D03*
X41575000Y29000000D03*
%TD*%
%TO.C,R6*%
X39925000Y41500000D03*
X41575000Y41500000D03*
%TD*%
%TO.C,R6*%
X39925000Y54000000D03*
X41575000Y54000000D03*
%TD*%
%TO.C,R6*%
X39925000Y66500000D03*
X41575000Y66500000D03*
%TD*%
%TO.C,R6*%
X39925000Y79000000D03*
X41575000Y79000000D03*
%TD*%
D11*
%TO.C,R11*%
X45500000Y6225000D03*
X45500000Y7275000D03*
%TD*%
%TO.C,R11*%
X45500000Y18725000D03*
X45500000Y19775000D03*
%TD*%
%TO.C,R11*%
X45500000Y31225000D03*
X45500000Y32275000D03*
%TD*%
%TO.C,R11*%
X45500000Y43725000D03*
X45500000Y44775000D03*
%TD*%
%TO.C,R11*%
X45500000Y56225000D03*
X45500000Y57275000D03*
%TD*%
%TO.C,R11*%
X45500000Y68725000D03*
X45500000Y69775000D03*
%TD*%
%TO.C,R11*%
X45500000Y81225000D03*
X45500000Y82275000D03*
%TD*%
D12*
%TO.C,R34*%
X21225000Y1750000D03*
X22275000Y1750000D03*
%TD*%
%TO.C,R34*%
X21225000Y14250000D03*
X22275000Y14250000D03*
%TD*%
%TO.C,R34*%
X21225000Y26750000D03*
X22275000Y26750000D03*
%TD*%
%TO.C,R34*%
X21225000Y39250000D03*
X22275000Y39250000D03*
%TD*%
%TO.C,R34*%
X21225000Y51750000D03*
X22275000Y51750000D03*
%TD*%
%TO.C,R34*%
X21225000Y64250000D03*
X22275000Y64250000D03*
%TD*%
%TO.C,R34*%
X21225000Y76750000D03*
X22275000Y76750000D03*
%TD*%
%TO.C,R8*%
X42425000Y7250000D03*
X41375000Y7250000D03*
%TD*%
%TO.C,R8*%
X42425000Y19750000D03*
X41375000Y19750000D03*
%TD*%
%TO.C,R8*%
X42425000Y32250000D03*
X41375000Y32250000D03*
%TD*%
%TO.C,R8*%
X42425000Y44750000D03*
X41375000Y44750000D03*
%TD*%
%TO.C,R8*%
X42425000Y57250000D03*
X41375000Y57250000D03*
%TD*%
%TO.C,R8*%
X42425000Y69750000D03*
X41375000Y69750000D03*
%TD*%
%TO.C,R8*%
X42425000Y82250000D03*
X41375000Y82250000D03*
%TD*%
D11*
%TO.C,R7*%
X41750000Y5225000D03*
X41750000Y6275000D03*
%TD*%
%TO.C,R7*%
X41750000Y17725000D03*
X41750000Y18775000D03*
%TD*%
%TO.C,R7*%
X41750000Y30225000D03*
X41750000Y31275000D03*
%TD*%
%TO.C,R7*%
X41750000Y42725000D03*
X41750000Y43775000D03*
%TD*%
%TO.C,R7*%
X41750000Y55225000D03*
X41750000Y56275000D03*
%TD*%
%TO.C,R7*%
X41750000Y67725000D03*
X41750000Y68775000D03*
%TD*%
%TO.C,R7*%
X41750000Y80225000D03*
X41750000Y81275000D03*
%TD*%
D12*
%TO.C,R38*%
X22525000Y7800000D03*
X21475000Y7800000D03*
%TD*%
%TO.C,R38*%
X22525000Y20300000D03*
X21475000Y20300000D03*
%TD*%
%TO.C,R38*%
X22525000Y32800000D03*
X21475000Y32800000D03*
%TD*%
%TO.C,R38*%
X22525000Y45300000D03*
X21475000Y45300000D03*
%TD*%
%TO.C,R38*%
X22525000Y57800000D03*
X21475000Y57800000D03*
%TD*%
%TO.C,R38*%
X22525000Y70300000D03*
X21475000Y70300000D03*
%TD*%
%TO.C,R38*%
X22525000Y82800000D03*
X21475000Y82800000D03*
%TD*%
%TO.C,R37*%
X21525000Y6750000D03*
X20475000Y6750000D03*
%TD*%
%TO.C,R37*%
X21525000Y19250000D03*
X20475000Y19250000D03*
%TD*%
%TO.C,R37*%
X21525000Y31750000D03*
X20475000Y31750000D03*
%TD*%
%TO.C,R37*%
X21525000Y44250000D03*
X20475000Y44250000D03*
%TD*%
%TO.C,R37*%
X21525000Y56750000D03*
X20475000Y56750000D03*
%TD*%
%TO.C,R37*%
X21525000Y69250000D03*
X20475000Y69250000D03*
%TD*%
%TO.C,R37*%
X21525000Y81750000D03*
X20475000Y81750000D03*
%TD*%
D14*
%TO.C,R22*%
X60975000Y5800000D03*
X62625000Y5800000D03*
%TD*%
%TO.C,R22*%
X60975000Y18300000D03*
X62625000Y18300000D03*
%TD*%
%TO.C,R22*%
X60975000Y30800000D03*
X62625000Y30800000D03*
%TD*%
%TO.C,R22*%
X60975000Y43300000D03*
X62625000Y43300000D03*
%TD*%
%TO.C,R22*%
X60975000Y55800000D03*
X62625000Y55800000D03*
%TD*%
%TO.C,R22*%
X60975000Y68300000D03*
X62625000Y68300000D03*
%TD*%
%TO.C,R22*%
X60975000Y80800000D03*
X62625000Y80800000D03*
%TD*%
D12*
%TO.C,R35*%
X22275000Y2750000D03*
X21225000Y2750000D03*
%TD*%
%TO.C,R35*%
X22275000Y15250000D03*
X21225000Y15250000D03*
%TD*%
%TO.C,R35*%
X22275000Y27750000D03*
X21225000Y27750000D03*
%TD*%
%TO.C,R35*%
X22275000Y40250000D03*
X21225000Y40250000D03*
%TD*%
%TO.C,R35*%
X22275000Y52750000D03*
X21225000Y52750000D03*
%TD*%
%TO.C,R35*%
X22275000Y65250000D03*
X21225000Y65250000D03*
%TD*%
%TO.C,R35*%
X22275000Y77750000D03*
X21225000Y77750000D03*
%TD*%
D15*
%TO.C,C12*%
X24275000Y4500000D03*
D16*
X23225000Y4500000D03*
%TD*%
D15*
%TO.C,C12*%
X24275000Y17000000D03*
D16*
X23225000Y17000000D03*
%TD*%
D15*
%TO.C,C12*%
X24275000Y29500000D03*
D16*
X23225000Y29500000D03*
%TD*%
D15*
%TO.C,C12*%
X24275000Y42000000D03*
D16*
X23225000Y42000000D03*
%TD*%
D15*
%TO.C,C12*%
X24275000Y54500000D03*
D16*
X23225000Y54500000D03*
%TD*%
D15*
%TO.C,C12*%
X24275000Y67000000D03*
D16*
X23225000Y67000000D03*
%TD*%
D15*
%TO.C,C12*%
X24275000Y79500000D03*
D16*
X23225000Y79500000D03*
%TD*%
D13*
%TO.C,R9*%
X44250000Y5925000D03*
X44250000Y7575000D03*
%TD*%
%TO.C,R9*%
X44250000Y18425000D03*
X44250000Y20075000D03*
%TD*%
%TO.C,R9*%
X44250000Y30925000D03*
X44250000Y32575000D03*
%TD*%
%TO.C,R9*%
X44250000Y43425000D03*
X44250000Y45075000D03*
%TD*%
%TO.C,R9*%
X44250000Y55925000D03*
X44250000Y57575000D03*
%TD*%
%TO.C,R9*%
X44250000Y68425000D03*
X44250000Y70075000D03*
%TD*%
%TO.C,R9*%
X44250000Y80925000D03*
X44250000Y82575000D03*
%TD*%
D12*
%TO.C,R24*%
X56775000Y2400000D03*
X57825000Y2400000D03*
%TD*%
%TO.C,R24*%
X56775000Y14900000D03*
X57825000Y14900000D03*
%TD*%
%TO.C,R24*%
X56775000Y27400000D03*
X57825000Y27400000D03*
%TD*%
%TO.C,R24*%
X56775000Y39900000D03*
X57825000Y39900000D03*
%TD*%
%TO.C,R24*%
X56775000Y52400000D03*
X57825000Y52400000D03*
%TD*%
%TO.C,R24*%
X56775000Y64900000D03*
X57825000Y64900000D03*
%TD*%
%TO.C,R24*%
X56775000Y77400000D03*
X57825000Y77400000D03*
%TD*%
%TO.C,R25*%
X60325000Y7600000D03*
X59275000Y7600000D03*
%TD*%
%TO.C,R25*%
X60325000Y20100000D03*
X59275000Y20100000D03*
%TD*%
%TO.C,R25*%
X60325000Y32600000D03*
X59275000Y32600000D03*
%TD*%
%TO.C,R25*%
X60325000Y45100000D03*
X59275000Y45100000D03*
%TD*%
%TO.C,R25*%
X60325000Y57600000D03*
X59275000Y57600000D03*
%TD*%
%TO.C,R25*%
X60325000Y70100000D03*
X59275000Y70100000D03*
%TD*%
%TO.C,R25*%
X60325000Y82600000D03*
X59275000Y82600000D03*
%TD*%
%TO.C,R15*%
X25975000Y5500000D03*
X27025000Y5500000D03*
%TD*%
%TO.C,R15*%
X25975000Y18000000D03*
X27025000Y18000000D03*
%TD*%
%TO.C,R15*%
X25975000Y30500000D03*
X27025000Y30500000D03*
%TD*%
%TO.C,R15*%
X25975000Y43000000D03*
X27025000Y43000000D03*
%TD*%
%TO.C,R15*%
X25975000Y55500000D03*
X27025000Y55500000D03*
%TD*%
%TO.C,R15*%
X25975000Y68000000D03*
X27025000Y68000000D03*
%TD*%
%TO.C,R15*%
X25975000Y80500000D03*
X27025000Y80500000D03*
%TD*%
D17*
%TO.C,C11*%
X17750000Y6775000D03*
D16*
X17750000Y5725000D03*
%TD*%
D17*
%TO.C,C11*%
X17750000Y19275000D03*
D16*
X17750000Y18225000D03*
%TD*%
D17*
%TO.C,C11*%
X17750000Y31775000D03*
D16*
X17750000Y30725000D03*
%TD*%
D17*
%TO.C,C11*%
X17750000Y44275000D03*
D16*
X17750000Y43225000D03*
%TD*%
D17*
%TO.C,C11*%
X17750000Y56775000D03*
D16*
X17750000Y55725000D03*
%TD*%
D17*
%TO.C,C11*%
X17750000Y69275000D03*
D16*
X17750000Y68225000D03*
%TD*%
D17*
%TO.C,C11*%
X17750000Y81775000D03*
D16*
X17750000Y80725000D03*
%TD*%
D11*
%TO.C,R23*%
X63100000Y1675000D03*
X63100000Y2725000D03*
%TD*%
%TO.C,R23*%
X63100000Y14175000D03*
X63100000Y15225000D03*
%TD*%
%TO.C,R23*%
X63100000Y26675000D03*
X63100000Y27725000D03*
%TD*%
%TO.C,R23*%
X63100000Y39175000D03*
X63100000Y40225000D03*
%TD*%
%TO.C,R23*%
X63100000Y51675000D03*
X63100000Y52725000D03*
%TD*%
%TO.C,R23*%
X63100000Y64175000D03*
X63100000Y65225000D03*
%TD*%
%TO.C,R23*%
X63100000Y76675000D03*
X63100000Y77725000D03*
%TD*%
D12*
%TO.C,R1*%
X54625000Y7100000D03*
X53575000Y7100000D03*
%TD*%
%TO.C,R1*%
X54625000Y19600000D03*
X53575000Y19600000D03*
%TD*%
%TO.C,R1*%
X54625000Y32100000D03*
X53575000Y32100000D03*
%TD*%
%TO.C,R1*%
X54625000Y44600000D03*
X53575000Y44600000D03*
%TD*%
%TO.C,R1*%
X54625000Y57100000D03*
X53575000Y57100000D03*
%TD*%
%TO.C,R1*%
X54625000Y69600000D03*
X53575000Y69600000D03*
%TD*%
%TO.C,R1*%
X54625000Y82100000D03*
X53575000Y82100000D03*
%TD*%
D16*
%TO.C,C7*%
X43000000Y4525000D03*
D17*
X43000000Y3475000D03*
%TD*%
D16*
%TO.C,C7*%
X43000000Y17025000D03*
D17*
X43000000Y15975000D03*
%TD*%
D16*
%TO.C,C7*%
X43000000Y29525000D03*
D17*
X43000000Y28475000D03*
%TD*%
D16*
%TO.C,C7*%
X43000000Y42025000D03*
D17*
X43000000Y40975000D03*
%TD*%
D16*
%TO.C,C7*%
X43000000Y54525000D03*
D17*
X43000000Y53475000D03*
%TD*%
D16*
%TO.C,C7*%
X43000000Y67025000D03*
D17*
X43000000Y65975000D03*
%TD*%
D16*
%TO.C,C7*%
X43000000Y79525000D03*
D17*
X43000000Y78475000D03*
%TD*%
D16*
%TO.C,C5*%
X51100000Y4875000D03*
D17*
X51100000Y5925000D03*
%TD*%
D16*
%TO.C,C5*%
X51100000Y17375000D03*
D17*
X51100000Y18425000D03*
%TD*%
D16*
%TO.C,C5*%
X51100000Y29875000D03*
D17*
X51100000Y30925000D03*
%TD*%
D16*
%TO.C,C5*%
X51100000Y42375000D03*
D17*
X51100000Y43425000D03*
%TD*%
D16*
%TO.C,C5*%
X51100000Y54875000D03*
D17*
X51100000Y55925000D03*
%TD*%
D16*
%TO.C,C5*%
X51100000Y67375000D03*
D17*
X51100000Y68425000D03*
%TD*%
D16*
%TO.C,C5*%
X51100000Y79875000D03*
D17*
X51100000Y80925000D03*
%TD*%
D11*
%TO.C,R2*%
X53600000Y3275000D03*
X53600000Y4325000D03*
%TD*%
%TO.C,R2*%
X53600000Y15775000D03*
X53600000Y16825000D03*
%TD*%
%TO.C,R2*%
X53600000Y28275000D03*
X53600000Y29325000D03*
%TD*%
%TO.C,R2*%
X53600000Y40775000D03*
X53600000Y41825000D03*
%TD*%
%TO.C,R2*%
X53600000Y53275000D03*
X53600000Y54325000D03*
%TD*%
%TO.C,R2*%
X53600000Y65775000D03*
X53600000Y66825000D03*
%TD*%
%TO.C,R2*%
X53600000Y78275000D03*
X53600000Y79325000D03*
%TD*%
D16*
%TO.C,C1*%
X17500000Y3725000D03*
D17*
X17500000Y4775000D03*
%TD*%
D16*
%TO.C,C1*%
X17500000Y16225000D03*
D17*
X17500000Y17275000D03*
%TD*%
D16*
%TO.C,C1*%
X17500000Y28725000D03*
D17*
X17500000Y29775000D03*
%TD*%
D16*
%TO.C,C1*%
X17500000Y41225000D03*
D17*
X17500000Y42275000D03*
%TD*%
D16*
%TO.C,C1*%
X17500000Y53725000D03*
D17*
X17500000Y54775000D03*
%TD*%
D16*
%TO.C,C1*%
X17500000Y66225000D03*
D17*
X17500000Y67275000D03*
%TD*%
D16*
%TO.C,C1*%
X17500000Y78725000D03*
D17*
X17500000Y79775000D03*
%TD*%
D13*
%TO.C,R10*%
X44250000Y2925000D03*
X44250000Y4575000D03*
%TD*%
%TO.C,R10*%
X44250000Y15425000D03*
X44250000Y17075000D03*
%TD*%
%TO.C,R10*%
X44250000Y27925000D03*
X44250000Y29575000D03*
%TD*%
%TO.C,R10*%
X44250000Y40425000D03*
X44250000Y42075000D03*
%TD*%
%TO.C,R10*%
X44250000Y52925000D03*
X44250000Y54575000D03*
%TD*%
%TO.C,R10*%
X44250000Y65425000D03*
X44250000Y67075000D03*
%TD*%
%TO.C,R10*%
X44250000Y77925000D03*
X44250000Y79575000D03*
%TD*%
D18*
%TO.C,Q14*%
X61450000Y8000000D03*
X61450000Y8500000D03*
X61450000Y9000000D03*
X62950000Y9000000D03*
X62950000Y8500000D03*
X62950000Y8000000D03*
%TD*%
%TO.C,Q14*%
X61450000Y20500000D03*
X61450000Y21000000D03*
X61450000Y21500000D03*
X62950000Y21500000D03*
X62950000Y21000000D03*
X62950000Y20500000D03*
%TD*%
%TO.C,Q14*%
X61450000Y33000000D03*
X61450000Y33500000D03*
X61450000Y34000000D03*
X62950000Y34000000D03*
X62950000Y33500000D03*
X62950000Y33000000D03*
%TD*%
%TO.C,Q14*%
X61450000Y45500000D03*
X61450000Y46000000D03*
X61450000Y46500000D03*
X62950000Y46500000D03*
X62950000Y46000000D03*
X62950000Y45500000D03*
%TD*%
%TO.C,Q14*%
X61450000Y58000000D03*
X61450000Y58500000D03*
X61450000Y59000000D03*
X62950000Y59000000D03*
X62950000Y58500000D03*
X62950000Y58000000D03*
%TD*%
%TO.C,Q14*%
X61450000Y70500000D03*
X61450000Y71000000D03*
X61450000Y71500000D03*
X62950000Y71500000D03*
X62950000Y71000000D03*
X62950000Y70500000D03*
%TD*%
%TO.C,Q14*%
X61450000Y83000000D03*
X61450000Y83500000D03*
X61450000Y84000000D03*
X62950000Y84000000D03*
X62950000Y83500000D03*
X62950000Y83000000D03*
%TD*%
%TO.C,Q13*%
X60350000Y1500000D03*
X60350000Y2000000D03*
X60350000Y2500000D03*
X58850000Y2500000D03*
X58850000Y2000000D03*
X58850000Y1500000D03*
%TD*%
%TO.C,Q13*%
X60350000Y14000000D03*
X60350000Y14500000D03*
X60350000Y15000000D03*
X58850000Y15000000D03*
X58850000Y14500000D03*
X58850000Y14000000D03*
%TD*%
%TO.C,Q13*%
X60350000Y26500000D03*
X60350000Y27000000D03*
X60350000Y27500000D03*
X58850000Y27500000D03*
X58850000Y27000000D03*
X58850000Y26500000D03*
%TD*%
%TO.C,Q13*%
X60350000Y39000000D03*
X60350000Y39500000D03*
X60350000Y40000000D03*
X58850000Y40000000D03*
X58850000Y39500000D03*
X58850000Y39000000D03*
%TD*%
%TO.C,Q13*%
X60350000Y51500000D03*
X60350000Y52000000D03*
X60350000Y52500000D03*
X58850000Y52500000D03*
X58850000Y52000000D03*
X58850000Y51500000D03*
%TD*%
%TO.C,Q13*%
X60350000Y64000000D03*
X60350000Y64500000D03*
X60350000Y65000000D03*
X58850000Y65000000D03*
X58850000Y64500000D03*
X58850000Y64000000D03*
%TD*%
%TO.C,Q13*%
X60350000Y76500000D03*
X60350000Y77000000D03*
X60350000Y77500000D03*
X58850000Y77500000D03*
X58850000Y77000000D03*
X58850000Y76500000D03*
%TD*%
D11*
%TO.C,R12*%
X31500000Y6025000D03*
X31500000Y4975000D03*
%TD*%
%TO.C,R12*%
X31500000Y18525000D03*
X31500000Y17475000D03*
%TD*%
%TO.C,R12*%
X31500000Y31025000D03*
X31500000Y29975000D03*
%TD*%
%TO.C,R12*%
X31500000Y43525000D03*
X31500000Y42475000D03*
%TD*%
%TO.C,R12*%
X31500000Y56025000D03*
X31500000Y54975000D03*
%TD*%
%TO.C,R12*%
X31500000Y68525000D03*
X31500000Y67475000D03*
%TD*%
%TO.C,R12*%
X31500000Y81025000D03*
X31500000Y79975000D03*
%TD*%
D19*
%TO.C,C4*%
X49300000Y5775000D03*
X49300000Y4225000D03*
%TD*%
%TO.C,C4*%
X49300000Y18275000D03*
X49300000Y16725000D03*
%TD*%
%TO.C,C4*%
X49300000Y30775000D03*
X49300000Y29225000D03*
%TD*%
%TO.C,C4*%
X49300000Y43275000D03*
X49300000Y41725000D03*
%TD*%
%TO.C,C4*%
X49300000Y55775000D03*
X49300000Y54225000D03*
%TD*%
%TO.C,C4*%
X49300000Y68275000D03*
X49300000Y66725000D03*
%TD*%
%TO.C,C4*%
X49300000Y80775000D03*
X49300000Y79225000D03*
%TD*%
D11*
%TO.C,R18*%
X54800000Y4225000D03*
X54800000Y3175000D03*
%TD*%
%TO.C,R18*%
X54800000Y16725000D03*
X54800000Y15675000D03*
%TD*%
%TO.C,R18*%
X54800000Y29225000D03*
X54800000Y28175000D03*
%TD*%
%TO.C,R18*%
X54800000Y41725000D03*
X54800000Y40675000D03*
%TD*%
%TO.C,R18*%
X54800000Y54225000D03*
X54800000Y53175000D03*
%TD*%
%TO.C,R18*%
X54800000Y66725000D03*
X54800000Y65675000D03*
%TD*%
%TO.C,R18*%
X54800000Y79225000D03*
X54800000Y78175000D03*
%TD*%
D18*
%TO.C,Q12*%
X62850000Y4700000D03*
X62850000Y4200000D03*
X62850000Y3700000D03*
X61350000Y3700000D03*
X61350000Y4200000D03*
X61350000Y4700000D03*
%TD*%
%TO.C,Q12*%
X62850000Y17200000D03*
X62850000Y16700000D03*
X62850000Y16200000D03*
X61350000Y16200000D03*
X61350000Y16700000D03*
X61350000Y17200000D03*
%TD*%
%TO.C,Q12*%
X62850000Y29700000D03*
X62850000Y29200000D03*
X62850000Y28700000D03*
X61350000Y28700000D03*
X61350000Y29200000D03*
X61350000Y29700000D03*
%TD*%
%TO.C,Q12*%
X62850000Y42200000D03*
X62850000Y41700000D03*
X62850000Y41200000D03*
X61350000Y41200000D03*
X61350000Y41700000D03*
X61350000Y42200000D03*
%TD*%
%TO.C,Q12*%
X62850000Y54700000D03*
X62850000Y54200000D03*
X62850000Y53700000D03*
X61350000Y53700000D03*
X61350000Y54200000D03*
X61350000Y54700000D03*
%TD*%
%TO.C,Q12*%
X62850000Y67200000D03*
X62850000Y66700000D03*
X62850000Y66200000D03*
X61350000Y66200000D03*
X61350000Y66700000D03*
X61350000Y67200000D03*
%TD*%
%TO.C,Q12*%
X62850000Y79700000D03*
X62850000Y79200000D03*
X62850000Y78700000D03*
X61350000Y78700000D03*
X61350000Y79200000D03*
X61350000Y79700000D03*
%TD*%
%TO.C,Q22*%
X22500000Y5750000D03*
X22500000Y6250000D03*
X22500000Y6750000D03*
X24000000Y6750000D03*
X24000000Y6250000D03*
X24000000Y5750000D03*
%TD*%
%TO.C,Q22*%
X22500000Y18250000D03*
X22500000Y18750000D03*
X22500000Y19250000D03*
X24000000Y19250000D03*
X24000000Y18750000D03*
X24000000Y18250000D03*
%TD*%
%TO.C,Q22*%
X22500000Y30750000D03*
X22500000Y31250000D03*
X22500000Y31750000D03*
X24000000Y31750000D03*
X24000000Y31250000D03*
X24000000Y30750000D03*
%TD*%
%TO.C,Q22*%
X22500000Y43250000D03*
X22500000Y43750000D03*
X22500000Y44250000D03*
X24000000Y44250000D03*
X24000000Y43750000D03*
X24000000Y43250000D03*
%TD*%
%TO.C,Q22*%
X22500000Y55750000D03*
X22500000Y56250000D03*
X22500000Y56750000D03*
X24000000Y56750000D03*
X24000000Y56250000D03*
X24000000Y55750000D03*
%TD*%
%TO.C,Q22*%
X22500000Y68250000D03*
X22500000Y68750000D03*
X22500000Y69250000D03*
X24000000Y69250000D03*
X24000000Y68750000D03*
X24000000Y68250000D03*
%TD*%
%TO.C,Q22*%
X22500000Y80750000D03*
X22500000Y81250000D03*
X22500000Y81750000D03*
X24000000Y81750000D03*
X24000000Y81250000D03*
X24000000Y80750000D03*
%TD*%
D20*
%TO.C,D21*%
X16100000Y5750000D03*
X14400000Y5750000D03*
%TD*%
%TO.C,D21*%
X16100000Y18250000D03*
X14400000Y18250000D03*
%TD*%
%TO.C,D21*%
X16100000Y30750000D03*
X14400000Y30750000D03*
%TD*%
%TO.C,D21*%
X16100000Y43250000D03*
X14400000Y43250000D03*
%TD*%
%TO.C,D21*%
X16100000Y55750000D03*
X14400000Y55750000D03*
%TD*%
%TO.C,D21*%
X16100000Y68250000D03*
X14400000Y68250000D03*
%TD*%
%TO.C,D21*%
X16100000Y80750000D03*
X14400000Y80750000D03*
%TD*%
D12*
%TO.C,R26*%
X59075000Y8900000D03*
X60125000Y8900000D03*
%TD*%
%TO.C,R26*%
X59075000Y21400000D03*
X60125000Y21400000D03*
%TD*%
%TO.C,R26*%
X59075000Y33900000D03*
X60125000Y33900000D03*
%TD*%
%TO.C,R26*%
X59075000Y46400000D03*
X60125000Y46400000D03*
%TD*%
%TO.C,R26*%
X59075000Y58900000D03*
X60125000Y58900000D03*
%TD*%
%TO.C,R26*%
X59075000Y71400000D03*
X60125000Y71400000D03*
%TD*%
%TO.C,R26*%
X59075000Y83900000D03*
X60125000Y83900000D03*
%TD*%
%TO.C,R17*%
X53275000Y5900000D03*
X54325000Y5900000D03*
%TD*%
%TO.C,R17*%
X53275000Y18400000D03*
X54325000Y18400000D03*
%TD*%
%TO.C,R17*%
X53275000Y30900000D03*
X54325000Y30900000D03*
%TD*%
%TO.C,R17*%
X53275000Y43400000D03*
X54325000Y43400000D03*
%TD*%
%TO.C,R17*%
X53275000Y55900000D03*
X54325000Y55900000D03*
%TD*%
%TO.C,R17*%
X53275000Y68400000D03*
X54325000Y68400000D03*
%TD*%
%TO.C,R17*%
X53275000Y80900000D03*
X54325000Y80900000D03*
%TD*%
%TO.C,R16*%
X46325000Y5250000D03*
X45275000Y5250000D03*
%TD*%
%TO.C,R16*%
X46325000Y17750000D03*
X45275000Y17750000D03*
%TD*%
%TO.C,R16*%
X46325000Y30250000D03*
X45275000Y30250000D03*
%TD*%
%TO.C,R16*%
X46325000Y42750000D03*
X45275000Y42750000D03*
%TD*%
%TO.C,R16*%
X46325000Y55250000D03*
X45275000Y55250000D03*
%TD*%
%TO.C,R16*%
X46325000Y67750000D03*
X45275000Y67750000D03*
%TD*%
%TO.C,R16*%
X46325000Y80250000D03*
X45275000Y80250000D03*
%TD*%
D21*
%TO.C,D11*%
X12375000Y6550000D03*
X12375000Y3950000D03*
D22*
X12250000Y5800000D03*
X12250000Y4700000D03*
%TD*%
D21*
%TO.C,D11*%
X12375000Y19050000D03*
X12375000Y16450000D03*
D22*
X12250000Y18300000D03*
X12250000Y17200000D03*
%TD*%
D21*
%TO.C,D11*%
X12375000Y31550000D03*
X12375000Y28950000D03*
D22*
X12250000Y30800000D03*
X12250000Y29700000D03*
%TD*%
D21*
%TO.C,D11*%
X12375000Y44050000D03*
X12375000Y41450000D03*
D22*
X12250000Y43300000D03*
X12250000Y42200000D03*
%TD*%
D21*
%TO.C,D11*%
X12375000Y56550000D03*
X12375000Y53950000D03*
D22*
X12250000Y55800000D03*
X12250000Y54700000D03*
%TD*%
D21*
%TO.C,D11*%
X12375000Y69050000D03*
X12375000Y66450000D03*
D22*
X12250000Y68300000D03*
X12250000Y67200000D03*
%TD*%
D21*
%TO.C,D11*%
X12375000Y81550000D03*
X12375000Y78950000D03*
D22*
X12250000Y80800000D03*
X12250000Y79700000D03*
%TD*%
D18*
%TO.C,Q21*%
X20000000Y3750000D03*
X20000000Y4250000D03*
X20000000Y4750000D03*
X21500000Y4750000D03*
X21500000Y4250000D03*
X21500000Y3750000D03*
%TD*%
%TO.C,Q21*%
X20000000Y16250000D03*
X20000000Y16750000D03*
X20000000Y17250000D03*
X21500000Y17250000D03*
X21500000Y16750000D03*
X21500000Y16250000D03*
%TD*%
%TO.C,Q21*%
X20000000Y28750000D03*
X20000000Y29250000D03*
X20000000Y29750000D03*
X21500000Y29750000D03*
X21500000Y29250000D03*
X21500000Y28750000D03*
%TD*%
%TO.C,Q21*%
X20000000Y41250000D03*
X20000000Y41750000D03*
X20000000Y42250000D03*
X21500000Y42250000D03*
X21500000Y41750000D03*
X21500000Y41250000D03*
%TD*%
%TO.C,Q21*%
X20000000Y53750000D03*
X20000000Y54250000D03*
X20000000Y54750000D03*
X21500000Y54750000D03*
X21500000Y54250000D03*
X21500000Y53750000D03*
%TD*%
%TO.C,Q21*%
X20000000Y66250000D03*
X20000000Y66750000D03*
X20000000Y67250000D03*
X21500000Y67250000D03*
X21500000Y66750000D03*
X21500000Y66250000D03*
%TD*%
%TO.C,Q21*%
X20000000Y78750000D03*
X20000000Y79250000D03*
X20000000Y79750000D03*
X21500000Y79750000D03*
X21500000Y79250000D03*
X21500000Y78750000D03*
%TD*%
D23*
%TO.C,Q11*%
X14200000Y7600000D03*
X14200000Y8900000D03*
X12300000Y8250000D03*
%TD*%
%TO.C,Q11*%
X14200000Y20100000D03*
X14200000Y21400000D03*
X12300000Y20750000D03*
%TD*%
%TO.C,Q11*%
X14200000Y32600000D03*
X14200000Y33900000D03*
X12300000Y33250000D03*
%TD*%
%TO.C,Q11*%
X14200000Y45100000D03*
X14200000Y46400000D03*
X12300000Y45750000D03*
%TD*%
%TO.C,Q11*%
X14200000Y57600000D03*
X14200000Y58900000D03*
X12300000Y58250000D03*
%TD*%
%TO.C,Q11*%
X14200000Y70100000D03*
X14200000Y71400000D03*
X12300000Y70750000D03*
%TD*%
%TO.C,Q11*%
X14200000Y82600000D03*
X14200000Y83900000D03*
X12300000Y83250000D03*
%TD*%
D13*
%TO.C,R21*%
X16000000Y7175000D03*
X16000000Y8825000D03*
%TD*%
%TO.C,R21*%
X16000000Y19675000D03*
X16000000Y21325000D03*
%TD*%
%TO.C,R21*%
X16000000Y32175000D03*
X16000000Y33825000D03*
%TD*%
%TO.C,R21*%
X16000000Y44675000D03*
X16000000Y46325000D03*
%TD*%
%TO.C,R21*%
X16000000Y57175000D03*
X16000000Y58825000D03*
%TD*%
%TO.C,R21*%
X16000000Y69675000D03*
X16000000Y71325000D03*
%TD*%
%TO.C,R21*%
X16000000Y82175000D03*
X16000000Y83825000D03*
%TD*%
D24*
%TO.C,Q1*%
X35550000Y9700000D03*
X36500000Y9700000D03*
X37450000Y9700000D03*
X37450000Y7300000D03*
X36500000Y7300000D03*
X35550000Y7300000D03*
%TD*%
%TO.C,Q1*%
X35550000Y22200000D03*
X36500000Y22200000D03*
X37450000Y22200000D03*
X37450000Y19800000D03*
X36500000Y19800000D03*
X35550000Y19800000D03*
%TD*%
%TO.C,Q1*%
X35550000Y34700000D03*
X36500000Y34700000D03*
X37450000Y34700000D03*
X37450000Y32300000D03*
X36500000Y32300000D03*
X35550000Y32300000D03*
%TD*%
%TO.C,Q1*%
X35550000Y47200000D03*
X36500000Y47200000D03*
X37450000Y47200000D03*
X37450000Y44800000D03*
X36500000Y44800000D03*
X35550000Y44800000D03*
%TD*%
%TO.C,Q1*%
X35550000Y59700000D03*
X36500000Y59700000D03*
X37450000Y59700000D03*
X37450000Y57300000D03*
X36500000Y57300000D03*
X35550000Y57300000D03*
%TD*%
%TO.C,Q1*%
X35550000Y72200000D03*
X36500000Y72200000D03*
X37450000Y72200000D03*
X37450000Y69800000D03*
X36500000Y69800000D03*
X35550000Y69800000D03*
%TD*%
%TO.C,Q1*%
X35550000Y84700000D03*
X36500000Y84700000D03*
X37450000Y84700000D03*
X37450000Y82300000D03*
X36500000Y82300000D03*
X35550000Y82300000D03*
%TD*%
D19*
%TO.C,D22*%
X25150000Y2250000D03*
X23350000Y2250000D03*
%TD*%
%TO.C,D22*%
X25150000Y14750000D03*
X23350000Y14750000D03*
%TD*%
%TO.C,D22*%
X25150000Y27250000D03*
X23350000Y27250000D03*
%TD*%
%TO.C,D22*%
X25150000Y39750000D03*
X23350000Y39750000D03*
%TD*%
%TO.C,D22*%
X25150000Y52250000D03*
X23350000Y52250000D03*
%TD*%
%TO.C,D22*%
X25150000Y64750000D03*
X23350000Y64750000D03*
%TD*%
%TO.C,D22*%
X25150000Y77250000D03*
X23350000Y77250000D03*
%TD*%
D18*
%TO.C,Q8*%
X26750000Y4500000D03*
X26750000Y4000000D03*
X26750000Y3500000D03*
X25250000Y3500000D03*
X25250000Y4000000D03*
X25250000Y4500000D03*
%TD*%
%TO.C,Q8*%
X26750000Y17000000D03*
X26750000Y16500000D03*
X26750000Y16000000D03*
X25250000Y16000000D03*
X25250000Y16500000D03*
X25250000Y17000000D03*
%TD*%
%TO.C,Q8*%
X26750000Y29500000D03*
X26750000Y29000000D03*
X26750000Y28500000D03*
X25250000Y28500000D03*
X25250000Y29000000D03*
X25250000Y29500000D03*
%TD*%
%TO.C,Q8*%
X26750000Y42000000D03*
X26750000Y41500000D03*
X26750000Y41000000D03*
X25250000Y41000000D03*
X25250000Y41500000D03*
X25250000Y42000000D03*
%TD*%
%TO.C,Q8*%
X26750000Y54500000D03*
X26750000Y54000000D03*
X26750000Y53500000D03*
X25250000Y53500000D03*
X25250000Y54000000D03*
X25250000Y54500000D03*
%TD*%
%TO.C,Q8*%
X26750000Y67000000D03*
X26750000Y66500000D03*
X26750000Y66000000D03*
X25250000Y66000000D03*
X25250000Y66500000D03*
X25250000Y67000000D03*
%TD*%
%TO.C,Q8*%
X26750000Y79500000D03*
X26750000Y79000000D03*
X26750000Y78500000D03*
X25250000Y78500000D03*
X25250000Y79000000D03*
X25250000Y79500000D03*
%TD*%
D25*
%TO.C,Q6*%
X29000000Y5250000D03*
X28500000Y5250000D03*
X28000000Y5250000D03*
X28000000Y3750000D03*
X28500000Y3750000D03*
X29000000Y3750000D03*
%TD*%
%TO.C,Q6*%
X29000000Y17750000D03*
X28500000Y17750000D03*
X28000000Y17750000D03*
X28000000Y16250000D03*
X28500000Y16250000D03*
X29000000Y16250000D03*
%TD*%
%TO.C,Q6*%
X29000000Y30250000D03*
X28500000Y30250000D03*
X28000000Y30250000D03*
X28000000Y28750000D03*
X28500000Y28750000D03*
X29000000Y28750000D03*
%TD*%
%TO.C,Q6*%
X29000000Y42750000D03*
X28500000Y42750000D03*
X28000000Y42750000D03*
X28000000Y41250000D03*
X28500000Y41250000D03*
X29000000Y41250000D03*
%TD*%
%TO.C,Q6*%
X29000000Y55250000D03*
X28500000Y55250000D03*
X28000000Y55250000D03*
X28000000Y53750000D03*
X28500000Y53750000D03*
X29000000Y53750000D03*
%TD*%
%TO.C,Q6*%
X29000000Y67750000D03*
X28500000Y67750000D03*
X28000000Y67750000D03*
X28000000Y66250000D03*
X28500000Y66250000D03*
X29000000Y66250000D03*
%TD*%
%TO.C,Q6*%
X29000000Y80250000D03*
X28500000Y80250000D03*
X28000000Y80250000D03*
X28000000Y78750000D03*
X28500000Y78750000D03*
X29000000Y78750000D03*
%TD*%
D26*
%TO.C,D3*%
X32750000Y4700000D03*
X32750000Y6800000D03*
%TD*%
%TO.C,D3*%
X32750000Y17200000D03*
X32750000Y19300000D03*
%TD*%
%TO.C,D3*%
X32750000Y29700000D03*
X32750000Y31800000D03*
%TD*%
%TO.C,D3*%
X32750000Y42200000D03*
X32750000Y44300000D03*
%TD*%
%TO.C,D3*%
X32750000Y54700000D03*
X32750000Y56800000D03*
%TD*%
%TO.C,D3*%
X32750000Y67200000D03*
X32750000Y69300000D03*
%TD*%
%TO.C,D3*%
X32750000Y79700000D03*
X32750000Y81800000D03*
%TD*%
D27*
%TO.C,C3*%
X47500000Y5775000D03*
X47500000Y4225000D03*
%TD*%
%TO.C,C3*%
X47500000Y18275000D03*
X47500000Y16725000D03*
%TD*%
%TO.C,C3*%
X47500000Y30775000D03*
X47500000Y29225000D03*
%TD*%
%TO.C,C3*%
X47500000Y43275000D03*
X47500000Y41725000D03*
%TD*%
%TO.C,C3*%
X47500000Y55775000D03*
X47500000Y54225000D03*
%TD*%
%TO.C,C3*%
X47500000Y68275000D03*
X47500000Y66725000D03*
%TD*%
%TO.C,C3*%
X47500000Y80775000D03*
X47500000Y79225000D03*
%TD*%
%TO.C,U2*%
G36*
G01*
X57580000Y4652500D02*
X57580000Y4997500D01*
G75*
G02*
X57752500Y5170000I172500J0D01*
G01*
X58097500Y5170000D01*
G75*
G02*
X58270000Y4997500I0J-172500D01*
G01*
X58270000Y4652500D01*
G75*
G02*
X58097500Y4480000I-172500J0D01*
G01*
X57752500Y4480000D01*
G75*
G02*
X57580000Y4652500I0J172500D01*
G01*
G37*
G36*
G01*
X57580000Y5502500D02*
X57580000Y5847500D01*
G75*
G02*
X57752500Y6020000I172500J0D01*
G01*
X58097500Y6020000D01*
G75*
G02*
X58270000Y5847500I0J-172500D01*
G01*
X58270000Y5502500D01*
G75*
G02*
X58097500Y5330000I-172500J0D01*
G01*
X57752500Y5330000D01*
G75*
G02*
X57580000Y5502500I0J172500D01*
G01*
G37*
G36*
G01*
X56730000Y4652500D02*
X56730000Y4997500D01*
G75*
G02*
X56902500Y5170000I172500J0D01*
G01*
X57247500Y5170000D01*
G75*
G02*
X57420000Y4997500I0J-172500D01*
G01*
X57420000Y4652500D01*
G75*
G02*
X57247500Y4480000I-172500J0D01*
G01*
X56902500Y4480000D01*
G75*
G02*
X56730000Y4652500I0J172500D01*
G01*
G37*
G36*
G01*
X56730000Y5502500D02*
X56730000Y5847500D01*
G75*
G02*
X56902500Y6020000I172500J0D01*
G01*
X57247500Y6020000D01*
G75*
G02*
X57420000Y5847500I0J-172500D01*
G01*
X57420000Y5502500D01*
G75*
G02*
X57247500Y5330000I-172500J0D01*
G01*
X56902500Y5330000D01*
G75*
G02*
X56730000Y5502500I0J172500D01*
G01*
G37*
D28*
G36*
X56755534Y7077836D02*
G01*
X56760864Y7076219D01*
X56765764Y7073600D01*
X56770068Y7070068D01*
X56773600Y7065764D01*
X56776219Y7060864D01*
X56777836Y7055534D01*
X56778485Y7048947D01*
X56778485Y6351053D01*
X56777836Y6344466D01*
X56776219Y6339136D01*
X56773600Y6334236D01*
X56770068Y6329932D01*
X56765764Y6326400D01*
X56760864Y6323781D01*
X56755534Y6322164D01*
X56748947Y6321515D01*
X56701764Y6321515D01*
X56695177Y6322164D01*
X56689847Y6323781D01*
X56684947Y6326400D01*
X56679815Y6330612D01*
X56630612Y6379815D01*
X56626400Y6384947D01*
X56623781Y6389847D01*
X56622164Y6395177D01*
X56621515Y6401764D01*
X56621515Y7048947D01*
X56622164Y7055534D01*
X56623781Y7060864D01*
X56626400Y7065764D01*
X56629932Y7070068D01*
X56634236Y7073600D01*
X56639136Y7076219D01*
X56644466Y7077836D01*
X56651053Y7078485D01*
X56748947Y7078485D01*
X56755534Y7077836D01*
G37*
G36*
G01*
X57030000Y6455000D02*
X57030000Y6945000D01*
G75*
G02*
X57065000Y6980000I35000J0D01*
G01*
X57135000Y6980000D01*
G75*
G02*
X57170000Y6945000I0J-35000D01*
G01*
X57170000Y6455000D01*
G75*
G02*
X57135000Y6420000I-35000J0D01*
G01*
X57065000Y6420000D01*
G75*
G02*
X57030000Y6455000I0J35000D01*
G01*
G37*
G36*
G01*
X57430000Y6455000D02*
X57430000Y6945000D01*
G75*
G02*
X57465000Y6980000I35000J0D01*
G01*
X57535000Y6980000D01*
G75*
G02*
X57570000Y6945000I0J-35000D01*
G01*
X57570000Y6455000D01*
G75*
G02*
X57535000Y6420000I-35000J0D01*
G01*
X57465000Y6420000D01*
G75*
G02*
X57430000Y6455000I0J35000D01*
G01*
G37*
G36*
G01*
X57830000Y6455000D02*
X57830000Y6945000D01*
G75*
G02*
X57865000Y6980000I35000J0D01*
G01*
X57935000Y6980000D01*
G75*
G02*
X57970000Y6945000I0J-35000D01*
G01*
X57970000Y6455000D01*
G75*
G02*
X57935000Y6420000I-35000J0D01*
G01*
X57865000Y6420000D01*
G75*
G02*
X57830000Y6455000I0J35000D01*
G01*
G37*
G36*
X58355534Y7077836D02*
G01*
X58360864Y7076219D01*
X58365764Y7073600D01*
X58370068Y7070068D01*
X58373600Y7065764D01*
X58376219Y7060864D01*
X58377836Y7055534D01*
X58378485Y7048947D01*
X58378485Y6401764D01*
X58377836Y6395177D01*
X58376219Y6389847D01*
X58373600Y6384947D01*
X58369388Y6379815D01*
X58320185Y6330612D01*
X58315053Y6326400D01*
X58310153Y6323781D01*
X58304823Y6322164D01*
X58298236Y6321515D01*
X58251053Y6321515D01*
X58244466Y6322164D01*
X58239136Y6323781D01*
X58234236Y6326400D01*
X58229932Y6329932D01*
X58226400Y6334236D01*
X58223781Y6339136D01*
X58222164Y6344466D01*
X58221515Y6351053D01*
X58221515Y7048947D01*
X58222164Y7055534D01*
X58223781Y7060864D01*
X58226400Y7065764D01*
X58229932Y7070068D01*
X58234236Y7073600D01*
X58239136Y7076219D01*
X58244466Y7077836D01*
X58251053Y7078485D01*
X58348947Y7078485D01*
X58355534Y7077836D01*
G37*
G36*
X59305534Y6127836D02*
G01*
X59310864Y6126219D01*
X59315764Y6123600D01*
X59320068Y6120068D01*
X59323600Y6115764D01*
X59326219Y6110864D01*
X59327836Y6105534D01*
X59328485Y6098947D01*
X59328485Y6001053D01*
X59327836Y5994466D01*
X59326219Y5989136D01*
X59323600Y5984236D01*
X59320068Y5979932D01*
X59315764Y5976400D01*
X59310864Y5973781D01*
X59305534Y5972164D01*
X59298947Y5971515D01*
X58601053Y5971515D01*
X58594466Y5972164D01*
X58589136Y5973781D01*
X58584236Y5976400D01*
X58579932Y5979932D01*
X58576400Y5984236D01*
X58573781Y5989136D01*
X58572164Y5994466D01*
X58571515Y6001053D01*
X58571515Y6048236D01*
X58572164Y6054823D01*
X58573781Y6060153D01*
X58576400Y6065053D01*
X58580612Y6070185D01*
X58629815Y6119388D01*
X58634947Y6123600D01*
X58639847Y6126219D01*
X58645177Y6127836D01*
X58651764Y6128485D01*
X59298947Y6128485D01*
X59305534Y6127836D01*
G37*
G36*
G01*
X58670000Y5615000D02*
X58670000Y5685000D01*
G75*
G02*
X58705000Y5720000I35000J0D01*
G01*
X59195000Y5720000D01*
G75*
G02*
X59230000Y5685000I0J-35000D01*
G01*
X59230000Y5615000D01*
G75*
G02*
X59195000Y5580000I-35000J0D01*
G01*
X58705000Y5580000D01*
G75*
G02*
X58670000Y5615000I0J35000D01*
G01*
G37*
G36*
G01*
X58670000Y5215000D02*
X58670000Y5285000D01*
G75*
G02*
X58705000Y5320000I35000J0D01*
G01*
X59195000Y5320000D01*
G75*
G02*
X59230000Y5285000I0J-35000D01*
G01*
X59230000Y5215000D01*
G75*
G02*
X59195000Y5180000I-35000J0D01*
G01*
X58705000Y5180000D01*
G75*
G02*
X58670000Y5215000I0J35000D01*
G01*
G37*
G36*
G01*
X58670000Y4815000D02*
X58670000Y4885000D01*
G75*
G02*
X58705000Y4920000I35000J0D01*
G01*
X59195000Y4920000D01*
G75*
G02*
X59230000Y4885000I0J-35000D01*
G01*
X59230000Y4815000D01*
G75*
G02*
X59195000Y4780000I-35000J0D01*
G01*
X58705000Y4780000D01*
G75*
G02*
X58670000Y4815000I0J35000D01*
G01*
G37*
G36*
X59305534Y4527836D02*
G01*
X59310864Y4526219D01*
X59315764Y4523600D01*
X59320068Y4520068D01*
X59323600Y4515764D01*
X59326219Y4510864D01*
X59327836Y4505534D01*
X59328485Y4498947D01*
X59328485Y4401053D01*
X59327836Y4394466D01*
X59326219Y4389136D01*
X59323600Y4384236D01*
X59320068Y4379932D01*
X59315764Y4376400D01*
X59310864Y4373781D01*
X59305534Y4372164D01*
X59298947Y4371515D01*
X58651764Y4371515D01*
X58645177Y4372164D01*
X58639847Y4373781D01*
X58634947Y4376400D01*
X58629815Y4380612D01*
X58580612Y4429815D01*
X58576400Y4434947D01*
X58573781Y4439847D01*
X58572164Y4445177D01*
X58571515Y4451764D01*
X58571515Y4498947D01*
X58572164Y4505534D01*
X58573781Y4510864D01*
X58576400Y4515764D01*
X58579932Y4520068D01*
X58584236Y4523600D01*
X58589136Y4526219D01*
X58594466Y4527836D01*
X58601053Y4528485D01*
X59298947Y4528485D01*
X59305534Y4527836D01*
G37*
G36*
X58304823Y4177836D02*
G01*
X58310153Y4176219D01*
X58315053Y4173600D01*
X58320185Y4169388D01*
X58369388Y4120185D01*
X58373600Y4115053D01*
X58376219Y4110153D01*
X58377836Y4104823D01*
X58378485Y4098236D01*
X58378485Y3451053D01*
X58377836Y3444466D01*
X58376219Y3439136D01*
X58373600Y3434236D01*
X58370068Y3429932D01*
X58365764Y3426400D01*
X58360864Y3423781D01*
X58355534Y3422164D01*
X58348947Y3421515D01*
X58251053Y3421515D01*
X58244466Y3422164D01*
X58239136Y3423781D01*
X58234236Y3426400D01*
X58229932Y3429932D01*
X58226400Y3434236D01*
X58223781Y3439136D01*
X58222164Y3444466D01*
X58221515Y3451053D01*
X58221515Y4148947D01*
X58222164Y4155534D01*
X58223781Y4160864D01*
X58226400Y4165764D01*
X58229932Y4170068D01*
X58234236Y4173600D01*
X58239136Y4176219D01*
X58244466Y4177836D01*
X58251053Y4178485D01*
X58298236Y4178485D01*
X58304823Y4177836D01*
G37*
G36*
G01*
X57830000Y3555000D02*
X57830000Y4045000D01*
G75*
G02*
X57865000Y4080000I35000J0D01*
G01*
X57935000Y4080000D01*
G75*
G02*
X57970000Y4045000I0J-35000D01*
G01*
X57970000Y3555000D01*
G75*
G02*
X57935000Y3520000I-35000J0D01*
G01*
X57865000Y3520000D01*
G75*
G02*
X57830000Y3555000I0J35000D01*
G01*
G37*
G36*
G01*
X57430000Y3555000D02*
X57430000Y4045000D01*
G75*
G02*
X57465000Y4080000I35000J0D01*
G01*
X57535000Y4080000D01*
G75*
G02*
X57570000Y4045000I0J-35000D01*
G01*
X57570000Y3555000D01*
G75*
G02*
X57535000Y3520000I-35000J0D01*
G01*
X57465000Y3520000D01*
G75*
G02*
X57430000Y3555000I0J35000D01*
G01*
G37*
G36*
G01*
X57030000Y3555000D02*
X57030000Y4045000D01*
G75*
G02*
X57065000Y4080000I35000J0D01*
G01*
X57135000Y4080000D01*
G75*
G02*
X57170000Y4045000I0J-35000D01*
G01*
X57170000Y3555000D01*
G75*
G02*
X57135000Y3520000I-35000J0D01*
G01*
X57065000Y3520000D01*
G75*
G02*
X57030000Y3555000I0J35000D01*
G01*
G37*
G36*
X56755534Y4177836D02*
G01*
X56760864Y4176219D01*
X56765764Y4173600D01*
X56770068Y4170068D01*
X56773600Y4165764D01*
X56776219Y4160864D01*
X56777836Y4155534D01*
X56778485Y4148947D01*
X56778485Y3451053D01*
X56777836Y3444466D01*
X56776219Y3439136D01*
X56773600Y3434236D01*
X56770068Y3429932D01*
X56765764Y3426400D01*
X56760864Y3423781D01*
X56755534Y3422164D01*
X56748947Y3421515D01*
X56651053Y3421515D01*
X56644466Y3422164D01*
X56639136Y3423781D01*
X56634236Y3426400D01*
X56629932Y3429932D01*
X56626400Y3434236D01*
X56623781Y3439136D01*
X56622164Y3444466D01*
X56621515Y3451053D01*
X56621515Y4098236D01*
X56622164Y4104823D01*
X56623781Y4110153D01*
X56626400Y4115053D01*
X56630612Y4120185D01*
X56679815Y4169388D01*
X56684947Y4173600D01*
X56689847Y4176219D01*
X56695177Y4177836D01*
X56701764Y4178485D01*
X56748947Y4178485D01*
X56755534Y4177836D01*
G37*
G36*
X56405534Y4527836D02*
G01*
X56410864Y4526219D01*
X56415764Y4523600D01*
X56420068Y4520068D01*
X56423600Y4515764D01*
X56426219Y4510864D01*
X56427836Y4505534D01*
X56428485Y4498947D01*
X56428485Y4451764D01*
X56427836Y4445177D01*
X56426219Y4439847D01*
X56423600Y4434947D01*
X56419388Y4429815D01*
X56370185Y4380612D01*
X56365053Y4376400D01*
X56360153Y4373781D01*
X56354823Y4372164D01*
X56348236Y4371515D01*
X55701053Y4371515D01*
X55694466Y4372164D01*
X55689136Y4373781D01*
X55684236Y4376400D01*
X55679932Y4379932D01*
X55676400Y4384236D01*
X55673781Y4389136D01*
X55672164Y4394466D01*
X55671515Y4401053D01*
X55671515Y4498947D01*
X55672164Y4505534D01*
X55673781Y4510864D01*
X55676400Y4515764D01*
X55679932Y4520068D01*
X55684236Y4523600D01*
X55689136Y4526219D01*
X55694466Y4527836D01*
X55701053Y4528485D01*
X56398947Y4528485D01*
X56405534Y4527836D01*
G37*
G36*
G01*
X55770000Y4815000D02*
X55770000Y4885000D01*
G75*
G02*
X55805000Y4920000I35000J0D01*
G01*
X56295000Y4920000D01*
G75*
G02*
X56330000Y4885000I0J-35000D01*
G01*
X56330000Y4815000D01*
G75*
G02*
X56295000Y4780000I-35000J0D01*
G01*
X55805000Y4780000D01*
G75*
G02*
X55770000Y4815000I0J35000D01*
G01*
G37*
G36*
G01*
X55770000Y5215000D02*
X55770000Y5285000D01*
G75*
G02*
X55805000Y5320000I35000J0D01*
G01*
X56295000Y5320000D01*
G75*
G02*
X56330000Y5285000I0J-35000D01*
G01*
X56330000Y5215000D01*
G75*
G02*
X56295000Y5180000I-35000J0D01*
G01*
X55805000Y5180000D01*
G75*
G02*
X55770000Y5215000I0J35000D01*
G01*
G37*
G36*
G01*
X55770000Y5615000D02*
X55770000Y5685000D01*
G75*
G02*
X55805000Y5720000I35000J0D01*
G01*
X56295000Y5720000D01*
G75*
G02*
X56330000Y5685000I0J-35000D01*
G01*
X56330000Y5615000D01*
G75*
G02*
X56295000Y5580000I-35000J0D01*
G01*
X55805000Y5580000D01*
G75*
G02*
X55770000Y5615000I0J35000D01*
G01*
G37*
G36*
X56354823Y6127836D02*
G01*
X56360153Y6126219D01*
X56365053Y6123600D01*
X56370185Y6119388D01*
X56419388Y6070185D01*
X56423600Y6065053D01*
X56426219Y6060153D01*
X56427836Y6054823D01*
X56428485Y6048236D01*
X56428485Y6001053D01*
X56427836Y5994466D01*
X56426219Y5989136D01*
X56423600Y5984236D01*
X56420068Y5979932D01*
X56415764Y5976400D01*
X56410864Y5973781D01*
X56405534Y5972164D01*
X56398947Y5971515D01*
X55701053Y5971515D01*
X55694466Y5972164D01*
X55689136Y5973781D01*
X55684236Y5976400D01*
X55679932Y5979932D01*
X55676400Y5984236D01*
X55673781Y5989136D01*
X55672164Y5994466D01*
X55671515Y6001053D01*
X55671515Y6098947D01*
X55672164Y6105534D01*
X55673781Y6110864D01*
X55676400Y6115764D01*
X55679932Y6120068D01*
X55684236Y6123600D01*
X55689136Y6126219D01*
X55694466Y6127836D01*
X55701053Y6128485D01*
X56348236Y6128485D01*
X56354823Y6127836D01*
G37*
%TD*%
%TO.C,U2*%
G36*
G01*
X57580000Y17152500D02*
X57580000Y17497500D01*
G75*
G02*
X57752500Y17670000I172500J0D01*
G01*
X58097500Y17670000D01*
G75*
G02*
X58270000Y17497500I0J-172500D01*
G01*
X58270000Y17152500D01*
G75*
G02*
X58097500Y16980000I-172500J0D01*
G01*
X57752500Y16980000D01*
G75*
G02*
X57580000Y17152500I0J172500D01*
G01*
G37*
G36*
G01*
X57580000Y18002500D02*
X57580000Y18347500D01*
G75*
G02*
X57752500Y18520000I172500J0D01*
G01*
X58097500Y18520000D01*
G75*
G02*
X58270000Y18347500I0J-172500D01*
G01*
X58270000Y18002500D01*
G75*
G02*
X58097500Y17830000I-172500J0D01*
G01*
X57752500Y17830000D01*
G75*
G02*
X57580000Y18002500I0J172500D01*
G01*
G37*
G36*
G01*
X56730000Y17152500D02*
X56730000Y17497500D01*
G75*
G02*
X56902500Y17670000I172500J0D01*
G01*
X57247500Y17670000D01*
G75*
G02*
X57420000Y17497500I0J-172500D01*
G01*
X57420000Y17152500D01*
G75*
G02*
X57247500Y16980000I-172500J0D01*
G01*
X56902500Y16980000D01*
G75*
G02*
X56730000Y17152500I0J172500D01*
G01*
G37*
G36*
G01*
X56730000Y18002500D02*
X56730000Y18347500D01*
G75*
G02*
X56902500Y18520000I172500J0D01*
G01*
X57247500Y18520000D01*
G75*
G02*
X57420000Y18347500I0J-172500D01*
G01*
X57420000Y18002500D01*
G75*
G02*
X57247500Y17830000I-172500J0D01*
G01*
X56902500Y17830000D01*
G75*
G02*
X56730000Y18002500I0J172500D01*
G01*
G37*
G36*
X56755534Y19577836D02*
G01*
X56760864Y19576219D01*
X56765764Y19573600D01*
X56770068Y19570068D01*
X56773600Y19565764D01*
X56776219Y19560864D01*
X56777836Y19555534D01*
X56778485Y19548947D01*
X56778485Y18851053D01*
X56777836Y18844466D01*
X56776219Y18839136D01*
X56773600Y18834236D01*
X56770068Y18829932D01*
X56765764Y18826400D01*
X56760864Y18823781D01*
X56755534Y18822164D01*
X56748947Y18821515D01*
X56701764Y18821515D01*
X56695177Y18822164D01*
X56689847Y18823781D01*
X56684947Y18826400D01*
X56679815Y18830612D01*
X56630612Y18879815D01*
X56626400Y18884947D01*
X56623781Y18889847D01*
X56622164Y18895177D01*
X56621515Y18901764D01*
X56621515Y19548947D01*
X56622164Y19555534D01*
X56623781Y19560864D01*
X56626400Y19565764D01*
X56629932Y19570068D01*
X56634236Y19573600D01*
X56639136Y19576219D01*
X56644466Y19577836D01*
X56651053Y19578485D01*
X56748947Y19578485D01*
X56755534Y19577836D01*
G37*
G36*
G01*
X57030000Y18955000D02*
X57030000Y19445000D01*
G75*
G02*
X57065000Y19480000I35000J0D01*
G01*
X57135000Y19480000D01*
G75*
G02*
X57170000Y19445000I0J-35000D01*
G01*
X57170000Y18955000D01*
G75*
G02*
X57135000Y18920000I-35000J0D01*
G01*
X57065000Y18920000D01*
G75*
G02*
X57030000Y18955000I0J35000D01*
G01*
G37*
G36*
G01*
X57430000Y18955000D02*
X57430000Y19445000D01*
G75*
G02*
X57465000Y19480000I35000J0D01*
G01*
X57535000Y19480000D01*
G75*
G02*
X57570000Y19445000I0J-35000D01*
G01*
X57570000Y18955000D01*
G75*
G02*
X57535000Y18920000I-35000J0D01*
G01*
X57465000Y18920000D01*
G75*
G02*
X57430000Y18955000I0J35000D01*
G01*
G37*
G36*
G01*
X57830000Y18955000D02*
X57830000Y19445000D01*
G75*
G02*
X57865000Y19480000I35000J0D01*
G01*
X57935000Y19480000D01*
G75*
G02*
X57970000Y19445000I0J-35000D01*
G01*
X57970000Y18955000D01*
G75*
G02*
X57935000Y18920000I-35000J0D01*
G01*
X57865000Y18920000D01*
G75*
G02*
X57830000Y18955000I0J35000D01*
G01*
G37*
G36*
X58355534Y19577836D02*
G01*
X58360864Y19576219D01*
X58365764Y19573600D01*
X58370068Y19570068D01*
X58373600Y19565764D01*
X58376219Y19560864D01*
X58377836Y19555534D01*
X58378485Y19548947D01*
X58378485Y18901764D01*
X58377836Y18895177D01*
X58376219Y18889847D01*
X58373600Y18884947D01*
X58369388Y18879815D01*
X58320185Y18830612D01*
X58315053Y18826400D01*
X58310153Y18823781D01*
X58304823Y18822164D01*
X58298236Y18821515D01*
X58251053Y18821515D01*
X58244466Y18822164D01*
X58239136Y18823781D01*
X58234236Y18826400D01*
X58229932Y18829932D01*
X58226400Y18834236D01*
X58223781Y18839136D01*
X58222164Y18844466D01*
X58221515Y18851053D01*
X58221515Y19548947D01*
X58222164Y19555534D01*
X58223781Y19560864D01*
X58226400Y19565764D01*
X58229932Y19570068D01*
X58234236Y19573600D01*
X58239136Y19576219D01*
X58244466Y19577836D01*
X58251053Y19578485D01*
X58348947Y19578485D01*
X58355534Y19577836D01*
G37*
G36*
X59305534Y18627836D02*
G01*
X59310864Y18626219D01*
X59315764Y18623600D01*
X59320068Y18620068D01*
X59323600Y18615764D01*
X59326219Y18610864D01*
X59327836Y18605534D01*
X59328485Y18598947D01*
X59328485Y18501053D01*
X59327836Y18494466D01*
X59326219Y18489136D01*
X59323600Y18484236D01*
X59320068Y18479932D01*
X59315764Y18476400D01*
X59310864Y18473781D01*
X59305534Y18472164D01*
X59298947Y18471515D01*
X58601053Y18471515D01*
X58594466Y18472164D01*
X58589136Y18473781D01*
X58584236Y18476400D01*
X58579932Y18479932D01*
X58576400Y18484236D01*
X58573781Y18489136D01*
X58572164Y18494466D01*
X58571515Y18501053D01*
X58571515Y18548236D01*
X58572164Y18554823D01*
X58573781Y18560153D01*
X58576400Y18565053D01*
X58580612Y18570185D01*
X58629815Y18619388D01*
X58634947Y18623600D01*
X58639847Y18626219D01*
X58645177Y18627836D01*
X58651764Y18628485D01*
X59298947Y18628485D01*
X59305534Y18627836D01*
G37*
G36*
G01*
X58670000Y18115000D02*
X58670000Y18185000D01*
G75*
G02*
X58705000Y18220000I35000J0D01*
G01*
X59195000Y18220000D01*
G75*
G02*
X59230000Y18185000I0J-35000D01*
G01*
X59230000Y18115000D01*
G75*
G02*
X59195000Y18080000I-35000J0D01*
G01*
X58705000Y18080000D01*
G75*
G02*
X58670000Y18115000I0J35000D01*
G01*
G37*
G36*
G01*
X58670000Y17715000D02*
X58670000Y17785000D01*
G75*
G02*
X58705000Y17820000I35000J0D01*
G01*
X59195000Y17820000D01*
G75*
G02*
X59230000Y17785000I0J-35000D01*
G01*
X59230000Y17715000D01*
G75*
G02*
X59195000Y17680000I-35000J0D01*
G01*
X58705000Y17680000D01*
G75*
G02*
X58670000Y17715000I0J35000D01*
G01*
G37*
G36*
G01*
X58670000Y17315000D02*
X58670000Y17385000D01*
G75*
G02*
X58705000Y17420000I35000J0D01*
G01*
X59195000Y17420000D01*
G75*
G02*
X59230000Y17385000I0J-35000D01*
G01*
X59230000Y17315000D01*
G75*
G02*
X59195000Y17280000I-35000J0D01*
G01*
X58705000Y17280000D01*
G75*
G02*
X58670000Y17315000I0J35000D01*
G01*
G37*
G36*
X59305534Y17027836D02*
G01*
X59310864Y17026219D01*
X59315764Y17023600D01*
X59320068Y17020068D01*
X59323600Y17015764D01*
X59326219Y17010864D01*
X59327836Y17005534D01*
X59328485Y16998947D01*
X59328485Y16901053D01*
X59327836Y16894466D01*
X59326219Y16889136D01*
X59323600Y16884236D01*
X59320068Y16879932D01*
X59315764Y16876400D01*
X59310864Y16873781D01*
X59305534Y16872164D01*
X59298947Y16871515D01*
X58651764Y16871515D01*
X58645177Y16872164D01*
X58639847Y16873781D01*
X58634947Y16876400D01*
X58629815Y16880612D01*
X58580612Y16929815D01*
X58576400Y16934947D01*
X58573781Y16939847D01*
X58572164Y16945177D01*
X58571515Y16951764D01*
X58571515Y16998947D01*
X58572164Y17005534D01*
X58573781Y17010864D01*
X58576400Y17015764D01*
X58579932Y17020068D01*
X58584236Y17023600D01*
X58589136Y17026219D01*
X58594466Y17027836D01*
X58601053Y17028485D01*
X59298947Y17028485D01*
X59305534Y17027836D01*
G37*
G36*
X58304823Y16677836D02*
G01*
X58310153Y16676219D01*
X58315053Y16673600D01*
X58320185Y16669388D01*
X58369388Y16620185D01*
X58373600Y16615053D01*
X58376219Y16610153D01*
X58377836Y16604823D01*
X58378485Y16598236D01*
X58378485Y15951053D01*
X58377836Y15944466D01*
X58376219Y15939136D01*
X58373600Y15934236D01*
X58370068Y15929932D01*
X58365764Y15926400D01*
X58360864Y15923781D01*
X58355534Y15922164D01*
X58348947Y15921515D01*
X58251053Y15921515D01*
X58244466Y15922164D01*
X58239136Y15923781D01*
X58234236Y15926400D01*
X58229932Y15929932D01*
X58226400Y15934236D01*
X58223781Y15939136D01*
X58222164Y15944466D01*
X58221515Y15951053D01*
X58221515Y16648947D01*
X58222164Y16655534D01*
X58223781Y16660864D01*
X58226400Y16665764D01*
X58229932Y16670068D01*
X58234236Y16673600D01*
X58239136Y16676219D01*
X58244466Y16677836D01*
X58251053Y16678485D01*
X58298236Y16678485D01*
X58304823Y16677836D01*
G37*
G36*
G01*
X57830000Y16055000D02*
X57830000Y16545000D01*
G75*
G02*
X57865000Y16580000I35000J0D01*
G01*
X57935000Y16580000D01*
G75*
G02*
X57970000Y16545000I0J-35000D01*
G01*
X57970000Y16055000D01*
G75*
G02*
X57935000Y16020000I-35000J0D01*
G01*
X57865000Y16020000D01*
G75*
G02*
X57830000Y16055000I0J35000D01*
G01*
G37*
G36*
G01*
X57430000Y16055000D02*
X57430000Y16545000D01*
G75*
G02*
X57465000Y16580000I35000J0D01*
G01*
X57535000Y16580000D01*
G75*
G02*
X57570000Y16545000I0J-35000D01*
G01*
X57570000Y16055000D01*
G75*
G02*
X57535000Y16020000I-35000J0D01*
G01*
X57465000Y16020000D01*
G75*
G02*
X57430000Y16055000I0J35000D01*
G01*
G37*
G36*
G01*
X57030000Y16055000D02*
X57030000Y16545000D01*
G75*
G02*
X57065000Y16580000I35000J0D01*
G01*
X57135000Y16580000D01*
G75*
G02*
X57170000Y16545000I0J-35000D01*
G01*
X57170000Y16055000D01*
G75*
G02*
X57135000Y16020000I-35000J0D01*
G01*
X57065000Y16020000D01*
G75*
G02*
X57030000Y16055000I0J35000D01*
G01*
G37*
G36*
X56755534Y16677836D02*
G01*
X56760864Y16676219D01*
X56765764Y16673600D01*
X56770068Y16670068D01*
X56773600Y16665764D01*
X56776219Y16660864D01*
X56777836Y16655534D01*
X56778485Y16648947D01*
X56778485Y15951053D01*
X56777836Y15944466D01*
X56776219Y15939136D01*
X56773600Y15934236D01*
X56770068Y15929932D01*
X56765764Y15926400D01*
X56760864Y15923781D01*
X56755534Y15922164D01*
X56748947Y15921515D01*
X56651053Y15921515D01*
X56644466Y15922164D01*
X56639136Y15923781D01*
X56634236Y15926400D01*
X56629932Y15929932D01*
X56626400Y15934236D01*
X56623781Y15939136D01*
X56622164Y15944466D01*
X56621515Y15951053D01*
X56621515Y16598236D01*
X56622164Y16604823D01*
X56623781Y16610153D01*
X56626400Y16615053D01*
X56630612Y16620185D01*
X56679815Y16669388D01*
X56684947Y16673600D01*
X56689847Y16676219D01*
X56695177Y16677836D01*
X56701764Y16678485D01*
X56748947Y16678485D01*
X56755534Y16677836D01*
G37*
G36*
X56405534Y17027836D02*
G01*
X56410864Y17026219D01*
X56415764Y17023600D01*
X56420068Y17020068D01*
X56423600Y17015764D01*
X56426219Y17010864D01*
X56427836Y17005534D01*
X56428485Y16998947D01*
X56428485Y16951764D01*
X56427836Y16945177D01*
X56426219Y16939847D01*
X56423600Y16934947D01*
X56419388Y16929815D01*
X56370185Y16880612D01*
X56365053Y16876400D01*
X56360153Y16873781D01*
X56354823Y16872164D01*
X56348236Y16871515D01*
X55701053Y16871515D01*
X55694466Y16872164D01*
X55689136Y16873781D01*
X55684236Y16876400D01*
X55679932Y16879932D01*
X55676400Y16884236D01*
X55673781Y16889136D01*
X55672164Y16894466D01*
X55671515Y16901053D01*
X55671515Y16998947D01*
X55672164Y17005534D01*
X55673781Y17010864D01*
X55676400Y17015764D01*
X55679932Y17020068D01*
X55684236Y17023600D01*
X55689136Y17026219D01*
X55694466Y17027836D01*
X55701053Y17028485D01*
X56398947Y17028485D01*
X56405534Y17027836D01*
G37*
G36*
G01*
X55770000Y17315000D02*
X55770000Y17385000D01*
G75*
G02*
X55805000Y17420000I35000J0D01*
G01*
X56295000Y17420000D01*
G75*
G02*
X56330000Y17385000I0J-35000D01*
G01*
X56330000Y17315000D01*
G75*
G02*
X56295000Y17280000I-35000J0D01*
G01*
X55805000Y17280000D01*
G75*
G02*
X55770000Y17315000I0J35000D01*
G01*
G37*
G36*
G01*
X55770000Y17715000D02*
X55770000Y17785000D01*
G75*
G02*
X55805000Y17820000I35000J0D01*
G01*
X56295000Y17820000D01*
G75*
G02*
X56330000Y17785000I0J-35000D01*
G01*
X56330000Y17715000D01*
G75*
G02*
X56295000Y17680000I-35000J0D01*
G01*
X55805000Y17680000D01*
G75*
G02*
X55770000Y17715000I0J35000D01*
G01*
G37*
G36*
G01*
X55770000Y18115000D02*
X55770000Y18185000D01*
G75*
G02*
X55805000Y18220000I35000J0D01*
G01*
X56295000Y18220000D01*
G75*
G02*
X56330000Y18185000I0J-35000D01*
G01*
X56330000Y18115000D01*
G75*
G02*
X56295000Y18080000I-35000J0D01*
G01*
X55805000Y18080000D01*
G75*
G02*
X55770000Y18115000I0J35000D01*
G01*
G37*
G36*
X56354823Y18627836D02*
G01*
X56360153Y18626219D01*
X56365053Y18623600D01*
X56370185Y18619388D01*
X56419388Y18570185D01*
X56423600Y18565053D01*
X56426219Y18560153D01*
X56427836Y18554823D01*
X56428485Y18548236D01*
X56428485Y18501053D01*
X56427836Y18494466D01*
X56426219Y18489136D01*
X56423600Y18484236D01*
X56420068Y18479932D01*
X56415764Y18476400D01*
X56410864Y18473781D01*
X56405534Y18472164D01*
X56398947Y18471515D01*
X55701053Y18471515D01*
X55694466Y18472164D01*
X55689136Y18473781D01*
X55684236Y18476400D01*
X55679932Y18479932D01*
X55676400Y18484236D01*
X55673781Y18489136D01*
X55672164Y18494466D01*
X55671515Y18501053D01*
X55671515Y18598947D01*
X55672164Y18605534D01*
X55673781Y18610864D01*
X55676400Y18615764D01*
X55679932Y18620068D01*
X55684236Y18623600D01*
X55689136Y18626219D01*
X55694466Y18627836D01*
X55701053Y18628485D01*
X56348236Y18628485D01*
X56354823Y18627836D01*
G37*
%TD*%
%TO.C,U2*%
G36*
G01*
X57580000Y29652500D02*
X57580000Y29997500D01*
G75*
G02*
X57752500Y30170000I172500J0D01*
G01*
X58097500Y30170000D01*
G75*
G02*
X58270000Y29997500I0J-172500D01*
G01*
X58270000Y29652500D01*
G75*
G02*
X58097500Y29480000I-172500J0D01*
G01*
X57752500Y29480000D01*
G75*
G02*
X57580000Y29652500I0J172500D01*
G01*
G37*
G36*
G01*
X57580000Y30502500D02*
X57580000Y30847500D01*
G75*
G02*
X57752500Y31020000I172500J0D01*
G01*
X58097500Y31020000D01*
G75*
G02*
X58270000Y30847500I0J-172500D01*
G01*
X58270000Y30502500D01*
G75*
G02*
X58097500Y30330000I-172500J0D01*
G01*
X57752500Y30330000D01*
G75*
G02*
X57580000Y30502500I0J172500D01*
G01*
G37*
G36*
G01*
X56730000Y29652500D02*
X56730000Y29997500D01*
G75*
G02*
X56902500Y30170000I172500J0D01*
G01*
X57247500Y30170000D01*
G75*
G02*
X57420000Y29997500I0J-172500D01*
G01*
X57420000Y29652500D01*
G75*
G02*
X57247500Y29480000I-172500J0D01*
G01*
X56902500Y29480000D01*
G75*
G02*
X56730000Y29652500I0J172500D01*
G01*
G37*
G36*
G01*
X56730000Y30502500D02*
X56730000Y30847500D01*
G75*
G02*
X56902500Y31020000I172500J0D01*
G01*
X57247500Y31020000D01*
G75*
G02*
X57420000Y30847500I0J-172500D01*
G01*
X57420000Y30502500D01*
G75*
G02*
X57247500Y30330000I-172500J0D01*
G01*
X56902500Y30330000D01*
G75*
G02*
X56730000Y30502500I0J172500D01*
G01*
G37*
G36*
X56755534Y32077836D02*
G01*
X56760864Y32076219D01*
X56765764Y32073600D01*
X56770068Y32070068D01*
X56773600Y32065764D01*
X56776219Y32060864D01*
X56777836Y32055534D01*
X56778485Y32048947D01*
X56778485Y31351053D01*
X56777836Y31344466D01*
X56776219Y31339136D01*
X56773600Y31334236D01*
X56770068Y31329932D01*
X56765764Y31326400D01*
X56760864Y31323781D01*
X56755534Y31322164D01*
X56748947Y31321515D01*
X56701764Y31321515D01*
X56695177Y31322164D01*
X56689847Y31323781D01*
X56684947Y31326400D01*
X56679815Y31330612D01*
X56630612Y31379815D01*
X56626400Y31384947D01*
X56623781Y31389847D01*
X56622164Y31395177D01*
X56621515Y31401764D01*
X56621515Y32048947D01*
X56622164Y32055534D01*
X56623781Y32060864D01*
X56626400Y32065764D01*
X56629932Y32070068D01*
X56634236Y32073600D01*
X56639136Y32076219D01*
X56644466Y32077836D01*
X56651053Y32078485D01*
X56748947Y32078485D01*
X56755534Y32077836D01*
G37*
G36*
G01*
X57030000Y31455000D02*
X57030000Y31945000D01*
G75*
G02*
X57065000Y31980000I35000J0D01*
G01*
X57135000Y31980000D01*
G75*
G02*
X57170000Y31945000I0J-35000D01*
G01*
X57170000Y31455000D01*
G75*
G02*
X57135000Y31420000I-35000J0D01*
G01*
X57065000Y31420000D01*
G75*
G02*
X57030000Y31455000I0J35000D01*
G01*
G37*
G36*
G01*
X57430000Y31455000D02*
X57430000Y31945000D01*
G75*
G02*
X57465000Y31980000I35000J0D01*
G01*
X57535000Y31980000D01*
G75*
G02*
X57570000Y31945000I0J-35000D01*
G01*
X57570000Y31455000D01*
G75*
G02*
X57535000Y31420000I-35000J0D01*
G01*
X57465000Y31420000D01*
G75*
G02*
X57430000Y31455000I0J35000D01*
G01*
G37*
G36*
G01*
X57830000Y31455000D02*
X57830000Y31945000D01*
G75*
G02*
X57865000Y31980000I35000J0D01*
G01*
X57935000Y31980000D01*
G75*
G02*
X57970000Y31945000I0J-35000D01*
G01*
X57970000Y31455000D01*
G75*
G02*
X57935000Y31420000I-35000J0D01*
G01*
X57865000Y31420000D01*
G75*
G02*
X57830000Y31455000I0J35000D01*
G01*
G37*
G36*
X58355534Y32077836D02*
G01*
X58360864Y32076219D01*
X58365764Y32073600D01*
X58370068Y32070068D01*
X58373600Y32065764D01*
X58376219Y32060864D01*
X58377836Y32055534D01*
X58378485Y32048947D01*
X58378485Y31401764D01*
X58377836Y31395177D01*
X58376219Y31389847D01*
X58373600Y31384947D01*
X58369388Y31379815D01*
X58320185Y31330612D01*
X58315053Y31326400D01*
X58310153Y31323781D01*
X58304823Y31322164D01*
X58298236Y31321515D01*
X58251053Y31321515D01*
X58244466Y31322164D01*
X58239136Y31323781D01*
X58234236Y31326400D01*
X58229932Y31329932D01*
X58226400Y31334236D01*
X58223781Y31339136D01*
X58222164Y31344466D01*
X58221515Y31351053D01*
X58221515Y32048947D01*
X58222164Y32055534D01*
X58223781Y32060864D01*
X58226400Y32065764D01*
X58229932Y32070068D01*
X58234236Y32073600D01*
X58239136Y32076219D01*
X58244466Y32077836D01*
X58251053Y32078485D01*
X58348947Y32078485D01*
X58355534Y32077836D01*
G37*
G36*
X59305534Y31127836D02*
G01*
X59310864Y31126219D01*
X59315764Y31123600D01*
X59320068Y31120068D01*
X59323600Y31115764D01*
X59326219Y31110864D01*
X59327836Y31105534D01*
X59328485Y31098947D01*
X59328485Y31001053D01*
X59327836Y30994466D01*
X59326219Y30989136D01*
X59323600Y30984236D01*
X59320068Y30979932D01*
X59315764Y30976400D01*
X59310864Y30973781D01*
X59305534Y30972164D01*
X59298947Y30971515D01*
X58601053Y30971515D01*
X58594466Y30972164D01*
X58589136Y30973781D01*
X58584236Y30976400D01*
X58579932Y30979932D01*
X58576400Y30984236D01*
X58573781Y30989136D01*
X58572164Y30994466D01*
X58571515Y31001053D01*
X58571515Y31048236D01*
X58572164Y31054823D01*
X58573781Y31060153D01*
X58576400Y31065053D01*
X58580612Y31070185D01*
X58629815Y31119388D01*
X58634947Y31123600D01*
X58639847Y31126219D01*
X58645177Y31127836D01*
X58651764Y31128485D01*
X59298947Y31128485D01*
X59305534Y31127836D01*
G37*
G36*
G01*
X58670000Y30615000D02*
X58670000Y30685000D01*
G75*
G02*
X58705000Y30720000I35000J0D01*
G01*
X59195000Y30720000D01*
G75*
G02*
X59230000Y30685000I0J-35000D01*
G01*
X59230000Y30615000D01*
G75*
G02*
X59195000Y30580000I-35000J0D01*
G01*
X58705000Y30580000D01*
G75*
G02*
X58670000Y30615000I0J35000D01*
G01*
G37*
G36*
G01*
X58670000Y30215000D02*
X58670000Y30285000D01*
G75*
G02*
X58705000Y30320000I35000J0D01*
G01*
X59195000Y30320000D01*
G75*
G02*
X59230000Y30285000I0J-35000D01*
G01*
X59230000Y30215000D01*
G75*
G02*
X59195000Y30180000I-35000J0D01*
G01*
X58705000Y30180000D01*
G75*
G02*
X58670000Y30215000I0J35000D01*
G01*
G37*
G36*
G01*
X58670000Y29815000D02*
X58670000Y29885000D01*
G75*
G02*
X58705000Y29920000I35000J0D01*
G01*
X59195000Y29920000D01*
G75*
G02*
X59230000Y29885000I0J-35000D01*
G01*
X59230000Y29815000D01*
G75*
G02*
X59195000Y29780000I-35000J0D01*
G01*
X58705000Y29780000D01*
G75*
G02*
X58670000Y29815000I0J35000D01*
G01*
G37*
G36*
X59305534Y29527836D02*
G01*
X59310864Y29526219D01*
X59315764Y29523600D01*
X59320068Y29520068D01*
X59323600Y29515764D01*
X59326219Y29510864D01*
X59327836Y29505534D01*
X59328485Y29498947D01*
X59328485Y29401053D01*
X59327836Y29394466D01*
X59326219Y29389136D01*
X59323600Y29384236D01*
X59320068Y29379932D01*
X59315764Y29376400D01*
X59310864Y29373781D01*
X59305534Y29372164D01*
X59298947Y29371515D01*
X58651764Y29371515D01*
X58645177Y29372164D01*
X58639847Y29373781D01*
X58634947Y29376400D01*
X58629815Y29380612D01*
X58580612Y29429815D01*
X58576400Y29434947D01*
X58573781Y29439847D01*
X58572164Y29445177D01*
X58571515Y29451764D01*
X58571515Y29498947D01*
X58572164Y29505534D01*
X58573781Y29510864D01*
X58576400Y29515764D01*
X58579932Y29520068D01*
X58584236Y29523600D01*
X58589136Y29526219D01*
X58594466Y29527836D01*
X58601053Y29528485D01*
X59298947Y29528485D01*
X59305534Y29527836D01*
G37*
G36*
X58304823Y29177836D02*
G01*
X58310153Y29176219D01*
X58315053Y29173600D01*
X58320185Y29169388D01*
X58369388Y29120185D01*
X58373600Y29115053D01*
X58376219Y29110153D01*
X58377836Y29104823D01*
X58378485Y29098236D01*
X58378485Y28451053D01*
X58377836Y28444466D01*
X58376219Y28439136D01*
X58373600Y28434236D01*
X58370068Y28429932D01*
X58365764Y28426400D01*
X58360864Y28423781D01*
X58355534Y28422164D01*
X58348947Y28421515D01*
X58251053Y28421515D01*
X58244466Y28422164D01*
X58239136Y28423781D01*
X58234236Y28426400D01*
X58229932Y28429932D01*
X58226400Y28434236D01*
X58223781Y28439136D01*
X58222164Y28444466D01*
X58221515Y28451053D01*
X58221515Y29148947D01*
X58222164Y29155534D01*
X58223781Y29160864D01*
X58226400Y29165764D01*
X58229932Y29170068D01*
X58234236Y29173600D01*
X58239136Y29176219D01*
X58244466Y29177836D01*
X58251053Y29178485D01*
X58298236Y29178485D01*
X58304823Y29177836D01*
G37*
G36*
G01*
X57830000Y28555000D02*
X57830000Y29045000D01*
G75*
G02*
X57865000Y29080000I35000J0D01*
G01*
X57935000Y29080000D01*
G75*
G02*
X57970000Y29045000I0J-35000D01*
G01*
X57970000Y28555000D01*
G75*
G02*
X57935000Y28520000I-35000J0D01*
G01*
X57865000Y28520000D01*
G75*
G02*
X57830000Y28555000I0J35000D01*
G01*
G37*
G36*
G01*
X57430000Y28555000D02*
X57430000Y29045000D01*
G75*
G02*
X57465000Y29080000I35000J0D01*
G01*
X57535000Y29080000D01*
G75*
G02*
X57570000Y29045000I0J-35000D01*
G01*
X57570000Y28555000D01*
G75*
G02*
X57535000Y28520000I-35000J0D01*
G01*
X57465000Y28520000D01*
G75*
G02*
X57430000Y28555000I0J35000D01*
G01*
G37*
G36*
G01*
X57030000Y28555000D02*
X57030000Y29045000D01*
G75*
G02*
X57065000Y29080000I35000J0D01*
G01*
X57135000Y29080000D01*
G75*
G02*
X57170000Y29045000I0J-35000D01*
G01*
X57170000Y28555000D01*
G75*
G02*
X57135000Y28520000I-35000J0D01*
G01*
X57065000Y28520000D01*
G75*
G02*
X57030000Y28555000I0J35000D01*
G01*
G37*
G36*
X56755534Y29177836D02*
G01*
X56760864Y29176219D01*
X56765764Y29173600D01*
X56770068Y29170068D01*
X56773600Y29165764D01*
X56776219Y29160864D01*
X56777836Y29155534D01*
X56778485Y29148947D01*
X56778485Y28451053D01*
X56777836Y28444466D01*
X56776219Y28439136D01*
X56773600Y28434236D01*
X56770068Y28429932D01*
X56765764Y28426400D01*
X56760864Y28423781D01*
X56755534Y28422164D01*
X56748947Y28421515D01*
X56651053Y28421515D01*
X56644466Y28422164D01*
X56639136Y28423781D01*
X56634236Y28426400D01*
X56629932Y28429932D01*
X56626400Y28434236D01*
X56623781Y28439136D01*
X56622164Y28444466D01*
X56621515Y28451053D01*
X56621515Y29098236D01*
X56622164Y29104823D01*
X56623781Y29110153D01*
X56626400Y29115053D01*
X56630612Y29120185D01*
X56679815Y29169388D01*
X56684947Y29173600D01*
X56689847Y29176219D01*
X56695177Y29177836D01*
X56701764Y29178485D01*
X56748947Y29178485D01*
X56755534Y29177836D01*
G37*
G36*
X56405534Y29527836D02*
G01*
X56410864Y29526219D01*
X56415764Y29523600D01*
X56420068Y29520068D01*
X56423600Y29515764D01*
X56426219Y29510864D01*
X56427836Y29505534D01*
X56428485Y29498947D01*
X56428485Y29451764D01*
X56427836Y29445177D01*
X56426219Y29439847D01*
X56423600Y29434947D01*
X56419388Y29429815D01*
X56370185Y29380612D01*
X56365053Y29376400D01*
X56360153Y29373781D01*
X56354823Y29372164D01*
X56348236Y29371515D01*
X55701053Y29371515D01*
X55694466Y29372164D01*
X55689136Y29373781D01*
X55684236Y29376400D01*
X55679932Y29379932D01*
X55676400Y29384236D01*
X55673781Y29389136D01*
X55672164Y29394466D01*
X55671515Y29401053D01*
X55671515Y29498947D01*
X55672164Y29505534D01*
X55673781Y29510864D01*
X55676400Y29515764D01*
X55679932Y29520068D01*
X55684236Y29523600D01*
X55689136Y29526219D01*
X55694466Y29527836D01*
X55701053Y29528485D01*
X56398947Y29528485D01*
X56405534Y29527836D01*
G37*
G36*
G01*
X55770000Y29815000D02*
X55770000Y29885000D01*
G75*
G02*
X55805000Y29920000I35000J0D01*
G01*
X56295000Y29920000D01*
G75*
G02*
X56330000Y29885000I0J-35000D01*
G01*
X56330000Y29815000D01*
G75*
G02*
X56295000Y29780000I-35000J0D01*
G01*
X55805000Y29780000D01*
G75*
G02*
X55770000Y29815000I0J35000D01*
G01*
G37*
G36*
G01*
X55770000Y30215000D02*
X55770000Y30285000D01*
G75*
G02*
X55805000Y30320000I35000J0D01*
G01*
X56295000Y30320000D01*
G75*
G02*
X56330000Y30285000I0J-35000D01*
G01*
X56330000Y30215000D01*
G75*
G02*
X56295000Y30180000I-35000J0D01*
G01*
X55805000Y30180000D01*
G75*
G02*
X55770000Y30215000I0J35000D01*
G01*
G37*
G36*
G01*
X55770000Y30615000D02*
X55770000Y30685000D01*
G75*
G02*
X55805000Y30720000I35000J0D01*
G01*
X56295000Y30720000D01*
G75*
G02*
X56330000Y30685000I0J-35000D01*
G01*
X56330000Y30615000D01*
G75*
G02*
X56295000Y30580000I-35000J0D01*
G01*
X55805000Y30580000D01*
G75*
G02*
X55770000Y30615000I0J35000D01*
G01*
G37*
G36*
X56354823Y31127836D02*
G01*
X56360153Y31126219D01*
X56365053Y31123600D01*
X56370185Y31119388D01*
X56419388Y31070185D01*
X56423600Y31065053D01*
X56426219Y31060153D01*
X56427836Y31054823D01*
X56428485Y31048236D01*
X56428485Y31001053D01*
X56427836Y30994466D01*
X56426219Y30989136D01*
X56423600Y30984236D01*
X56420068Y30979932D01*
X56415764Y30976400D01*
X56410864Y30973781D01*
X56405534Y30972164D01*
X56398947Y30971515D01*
X55701053Y30971515D01*
X55694466Y30972164D01*
X55689136Y30973781D01*
X55684236Y30976400D01*
X55679932Y30979932D01*
X55676400Y30984236D01*
X55673781Y30989136D01*
X55672164Y30994466D01*
X55671515Y31001053D01*
X55671515Y31098947D01*
X55672164Y31105534D01*
X55673781Y31110864D01*
X55676400Y31115764D01*
X55679932Y31120068D01*
X55684236Y31123600D01*
X55689136Y31126219D01*
X55694466Y31127836D01*
X55701053Y31128485D01*
X56348236Y31128485D01*
X56354823Y31127836D01*
G37*
%TD*%
%TO.C,U2*%
G36*
G01*
X57580000Y42152500D02*
X57580000Y42497500D01*
G75*
G02*
X57752500Y42670000I172500J0D01*
G01*
X58097500Y42670000D01*
G75*
G02*
X58270000Y42497500I0J-172500D01*
G01*
X58270000Y42152500D01*
G75*
G02*
X58097500Y41980000I-172500J0D01*
G01*
X57752500Y41980000D01*
G75*
G02*
X57580000Y42152500I0J172500D01*
G01*
G37*
G36*
G01*
X57580000Y43002500D02*
X57580000Y43347500D01*
G75*
G02*
X57752500Y43520000I172500J0D01*
G01*
X58097500Y43520000D01*
G75*
G02*
X58270000Y43347500I0J-172500D01*
G01*
X58270000Y43002500D01*
G75*
G02*
X58097500Y42830000I-172500J0D01*
G01*
X57752500Y42830000D01*
G75*
G02*
X57580000Y43002500I0J172500D01*
G01*
G37*
G36*
G01*
X56730000Y42152500D02*
X56730000Y42497500D01*
G75*
G02*
X56902500Y42670000I172500J0D01*
G01*
X57247500Y42670000D01*
G75*
G02*
X57420000Y42497500I0J-172500D01*
G01*
X57420000Y42152500D01*
G75*
G02*
X57247500Y41980000I-172500J0D01*
G01*
X56902500Y41980000D01*
G75*
G02*
X56730000Y42152500I0J172500D01*
G01*
G37*
G36*
G01*
X56730000Y43002500D02*
X56730000Y43347500D01*
G75*
G02*
X56902500Y43520000I172500J0D01*
G01*
X57247500Y43520000D01*
G75*
G02*
X57420000Y43347500I0J-172500D01*
G01*
X57420000Y43002500D01*
G75*
G02*
X57247500Y42830000I-172500J0D01*
G01*
X56902500Y42830000D01*
G75*
G02*
X56730000Y43002500I0J172500D01*
G01*
G37*
G36*
X56755534Y44577836D02*
G01*
X56760864Y44576219D01*
X56765764Y44573600D01*
X56770068Y44570068D01*
X56773600Y44565764D01*
X56776219Y44560864D01*
X56777836Y44555534D01*
X56778485Y44548947D01*
X56778485Y43851053D01*
X56777836Y43844466D01*
X56776219Y43839136D01*
X56773600Y43834236D01*
X56770068Y43829932D01*
X56765764Y43826400D01*
X56760864Y43823781D01*
X56755534Y43822164D01*
X56748947Y43821515D01*
X56701764Y43821515D01*
X56695177Y43822164D01*
X56689847Y43823781D01*
X56684947Y43826400D01*
X56679815Y43830612D01*
X56630612Y43879815D01*
X56626400Y43884947D01*
X56623781Y43889847D01*
X56622164Y43895177D01*
X56621515Y43901764D01*
X56621515Y44548947D01*
X56622164Y44555534D01*
X56623781Y44560864D01*
X56626400Y44565764D01*
X56629932Y44570068D01*
X56634236Y44573600D01*
X56639136Y44576219D01*
X56644466Y44577836D01*
X56651053Y44578485D01*
X56748947Y44578485D01*
X56755534Y44577836D01*
G37*
G36*
G01*
X57030000Y43955000D02*
X57030000Y44445000D01*
G75*
G02*
X57065000Y44480000I35000J0D01*
G01*
X57135000Y44480000D01*
G75*
G02*
X57170000Y44445000I0J-35000D01*
G01*
X57170000Y43955000D01*
G75*
G02*
X57135000Y43920000I-35000J0D01*
G01*
X57065000Y43920000D01*
G75*
G02*
X57030000Y43955000I0J35000D01*
G01*
G37*
G36*
G01*
X57430000Y43955000D02*
X57430000Y44445000D01*
G75*
G02*
X57465000Y44480000I35000J0D01*
G01*
X57535000Y44480000D01*
G75*
G02*
X57570000Y44445000I0J-35000D01*
G01*
X57570000Y43955000D01*
G75*
G02*
X57535000Y43920000I-35000J0D01*
G01*
X57465000Y43920000D01*
G75*
G02*
X57430000Y43955000I0J35000D01*
G01*
G37*
G36*
G01*
X57830000Y43955000D02*
X57830000Y44445000D01*
G75*
G02*
X57865000Y44480000I35000J0D01*
G01*
X57935000Y44480000D01*
G75*
G02*
X57970000Y44445000I0J-35000D01*
G01*
X57970000Y43955000D01*
G75*
G02*
X57935000Y43920000I-35000J0D01*
G01*
X57865000Y43920000D01*
G75*
G02*
X57830000Y43955000I0J35000D01*
G01*
G37*
G36*
X58355534Y44577836D02*
G01*
X58360864Y44576219D01*
X58365764Y44573600D01*
X58370068Y44570068D01*
X58373600Y44565764D01*
X58376219Y44560864D01*
X58377836Y44555534D01*
X58378485Y44548947D01*
X58378485Y43901764D01*
X58377836Y43895177D01*
X58376219Y43889847D01*
X58373600Y43884947D01*
X58369388Y43879815D01*
X58320185Y43830612D01*
X58315053Y43826400D01*
X58310153Y43823781D01*
X58304823Y43822164D01*
X58298236Y43821515D01*
X58251053Y43821515D01*
X58244466Y43822164D01*
X58239136Y43823781D01*
X58234236Y43826400D01*
X58229932Y43829932D01*
X58226400Y43834236D01*
X58223781Y43839136D01*
X58222164Y43844466D01*
X58221515Y43851053D01*
X58221515Y44548947D01*
X58222164Y44555534D01*
X58223781Y44560864D01*
X58226400Y44565764D01*
X58229932Y44570068D01*
X58234236Y44573600D01*
X58239136Y44576219D01*
X58244466Y44577836D01*
X58251053Y44578485D01*
X58348947Y44578485D01*
X58355534Y44577836D01*
G37*
G36*
X59305534Y43627836D02*
G01*
X59310864Y43626219D01*
X59315764Y43623600D01*
X59320068Y43620068D01*
X59323600Y43615764D01*
X59326219Y43610864D01*
X59327836Y43605534D01*
X59328485Y43598947D01*
X59328485Y43501053D01*
X59327836Y43494466D01*
X59326219Y43489136D01*
X59323600Y43484236D01*
X59320068Y43479932D01*
X59315764Y43476400D01*
X59310864Y43473781D01*
X59305534Y43472164D01*
X59298947Y43471515D01*
X58601053Y43471515D01*
X58594466Y43472164D01*
X58589136Y43473781D01*
X58584236Y43476400D01*
X58579932Y43479932D01*
X58576400Y43484236D01*
X58573781Y43489136D01*
X58572164Y43494466D01*
X58571515Y43501053D01*
X58571515Y43548236D01*
X58572164Y43554823D01*
X58573781Y43560153D01*
X58576400Y43565053D01*
X58580612Y43570185D01*
X58629815Y43619388D01*
X58634947Y43623600D01*
X58639847Y43626219D01*
X58645177Y43627836D01*
X58651764Y43628485D01*
X59298947Y43628485D01*
X59305534Y43627836D01*
G37*
G36*
G01*
X58670000Y43115000D02*
X58670000Y43185000D01*
G75*
G02*
X58705000Y43220000I35000J0D01*
G01*
X59195000Y43220000D01*
G75*
G02*
X59230000Y43185000I0J-35000D01*
G01*
X59230000Y43115000D01*
G75*
G02*
X59195000Y43080000I-35000J0D01*
G01*
X58705000Y43080000D01*
G75*
G02*
X58670000Y43115000I0J35000D01*
G01*
G37*
G36*
G01*
X58670000Y42715000D02*
X58670000Y42785000D01*
G75*
G02*
X58705000Y42820000I35000J0D01*
G01*
X59195000Y42820000D01*
G75*
G02*
X59230000Y42785000I0J-35000D01*
G01*
X59230000Y42715000D01*
G75*
G02*
X59195000Y42680000I-35000J0D01*
G01*
X58705000Y42680000D01*
G75*
G02*
X58670000Y42715000I0J35000D01*
G01*
G37*
G36*
G01*
X58670000Y42315000D02*
X58670000Y42385000D01*
G75*
G02*
X58705000Y42420000I35000J0D01*
G01*
X59195000Y42420000D01*
G75*
G02*
X59230000Y42385000I0J-35000D01*
G01*
X59230000Y42315000D01*
G75*
G02*
X59195000Y42280000I-35000J0D01*
G01*
X58705000Y42280000D01*
G75*
G02*
X58670000Y42315000I0J35000D01*
G01*
G37*
G36*
X59305534Y42027836D02*
G01*
X59310864Y42026219D01*
X59315764Y42023600D01*
X59320068Y42020068D01*
X59323600Y42015764D01*
X59326219Y42010864D01*
X59327836Y42005534D01*
X59328485Y41998947D01*
X59328485Y41901053D01*
X59327836Y41894466D01*
X59326219Y41889136D01*
X59323600Y41884236D01*
X59320068Y41879932D01*
X59315764Y41876400D01*
X59310864Y41873781D01*
X59305534Y41872164D01*
X59298947Y41871515D01*
X58651764Y41871515D01*
X58645177Y41872164D01*
X58639847Y41873781D01*
X58634947Y41876400D01*
X58629815Y41880612D01*
X58580612Y41929815D01*
X58576400Y41934947D01*
X58573781Y41939847D01*
X58572164Y41945177D01*
X58571515Y41951764D01*
X58571515Y41998947D01*
X58572164Y42005534D01*
X58573781Y42010864D01*
X58576400Y42015764D01*
X58579932Y42020068D01*
X58584236Y42023600D01*
X58589136Y42026219D01*
X58594466Y42027836D01*
X58601053Y42028485D01*
X59298947Y42028485D01*
X59305534Y42027836D01*
G37*
G36*
X58304823Y41677836D02*
G01*
X58310153Y41676219D01*
X58315053Y41673600D01*
X58320185Y41669388D01*
X58369388Y41620185D01*
X58373600Y41615053D01*
X58376219Y41610153D01*
X58377836Y41604823D01*
X58378485Y41598236D01*
X58378485Y40951053D01*
X58377836Y40944466D01*
X58376219Y40939136D01*
X58373600Y40934236D01*
X58370068Y40929932D01*
X58365764Y40926400D01*
X58360864Y40923781D01*
X58355534Y40922164D01*
X58348947Y40921515D01*
X58251053Y40921515D01*
X58244466Y40922164D01*
X58239136Y40923781D01*
X58234236Y40926400D01*
X58229932Y40929932D01*
X58226400Y40934236D01*
X58223781Y40939136D01*
X58222164Y40944466D01*
X58221515Y40951053D01*
X58221515Y41648947D01*
X58222164Y41655534D01*
X58223781Y41660864D01*
X58226400Y41665764D01*
X58229932Y41670068D01*
X58234236Y41673600D01*
X58239136Y41676219D01*
X58244466Y41677836D01*
X58251053Y41678485D01*
X58298236Y41678485D01*
X58304823Y41677836D01*
G37*
G36*
G01*
X57830000Y41055000D02*
X57830000Y41545000D01*
G75*
G02*
X57865000Y41580000I35000J0D01*
G01*
X57935000Y41580000D01*
G75*
G02*
X57970000Y41545000I0J-35000D01*
G01*
X57970000Y41055000D01*
G75*
G02*
X57935000Y41020000I-35000J0D01*
G01*
X57865000Y41020000D01*
G75*
G02*
X57830000Y41055000I0J35000D01*
G01*
G37*
G36*
G01*
X57430000Y41055000D02*
X57430000Y41545000D01*
G75*
G02*
X57465000Y41580000I35000J0D01*
G01*
X57535000Y41580000D01*
G75*
G02*
X57570000Y41545000I0J-35000D01*
G01*
X57570000Y41055000D01*
G75*
G02*
X57535000Y41020000I-35000J0D01*
G01*
X57465000Y41020000D01*
G75*
G02*
X57430000Y41055000I0J35000D01*
G01*
G37*
G36*
G01*
X57030000Y41055000D02*
X57030000Y41545000D01*
G75*
G02*
X57065000Y41580000I35000J0D01*
G01*
X57135000Y41580000D01*
G75*
G02*
X57170000Y41545000I0J-35000D01*
G01*
X57170000Y41055000D01*
G75*
G02*
X57135000Y41020000I-35000J0D01*
G01*
X57065000Y41020000D01*
G75*
G02*
X57030000Y41055000I0J35000D01*
G01*
G37*
G36*
X56755534Y41677836D02*
G01*
X56760864Y41676219D01*
X56765764Y41673600D01*
X56770068Y41670068D01*
X56773600Y41665764D01*
X56776219Y41660864D01*
X56777836Y41655534D01*
X56778485Y41648947D01*
X56778485Y40951053D01*
X56777836Y40944466D01*
X56776219Y40939136D01*
X56773600Y40934236D01*
X56770068Y40929932D01*
X56765764Y40926400D01*
X56760864Y40923781D01*
X56755534Y40922164D01*
X56748947Y40921515D01*
X56651053Y40921515D01*
X56644466Y40922164D01*
X56639136Y40923781D01*
X56634236Y40926400D01*
X56629932Y40929932D01*
X56626400Y40934236D01*
X56623781Y40939136D01*
X56622164Y40944466D01*
X56621515Y40951053D01*
X56621515Y41598236D01*
X56622164Y41604823D01*
X56623781Y41610153D01*
X56626400Y41615053D01*
X56630612Y41620185D01*
X56679815Y41669388D01*
X56684947Y41673600D01*
X56689847Y41676219D01*
X56695177Y41677836D01*
X56701764Y41678485D01*
X56748947Y41678485D01*
X56755534Y41677836D01*
G37*
G36*
X56405534Y42027836D02*
G01*
X56410864Y42026219D01*
X56415764Y42023600D01*
X56420068Y42020068D01*
X56423600Y42015764D01*
X56426219Y42010864D01*
X56427836Y42005534D01*
X56428485Y41998947D01*
X56428485Y41951764D01*
X56427836Y41945177D01*
X56426219Y41939847D01*
X56423600Y41934947D01*
X56419388Y41929815D01*
X56370185Y41880612D01*
X56365053Y41876400D01*
X56360153Y41873781D01*
X56354823Y41872164D01*
X56348236Y41871515D01*
X55701053Y41871515D01*
X55694466Y41872164D01*
X55689136Y41873781D01*
X55684236Y41876400D01*
X55679932Y41879932D01*
X55676400Y41884236D01*
X55673781Y41889136D01*
X55672164Y41894466D01*
X55671515Y41901053D01*
X55671515Y41998947D01*
X55672164Y42005534D01*
X55673781Y42010864D01*
X55676400Y42015764D01*
X55679932Y42020068D01*
X55684236Y42023600D01*
X55689136Y42026219D01*
X55694466Y42027836D01*
X55701053Y42028485D01*
X56398947Y42028485D01*
X56405534Y42027836D01*
G37*
G36*
G01*
X55770000Y42315000D02*
X55770000Y42385000D01*
G75*
G02*
X55805000Y42420000I35000J0D01*
G01*
X56295000Y42420000D01*
G75*
G02*
X56330000Y42385000I0J-35000D01*
G01*
X56330000Y42315000D01*
G75*
G02*
X56295000Y42280000I-35000J0D01*
G01*
X55805000Y42280000D01*
G75*
G02*
X55770000Y42315000I0J35000D01*
G01*
G37*
G36*
G01*
X55770000Y42715000D02*
X55770000Y42785000D01*
G75*
G02*
X55805000Y42820000I35000J0D01*
G01*
X56295000Y42820000D01*
G75*
G02*
X56330000Y42785000I0J-35000D01*
G01*
X56330000Y42715000D01*
G75*
G02*
X56295000Y42680000I-35000J0D01*
G01*
X55805000Y42680000D01*
G75*
G02*
X55770000Y42715000I0J35000D01*
G01*
G37*
G36*
G01*
X55770000Y43115000D02*
X55770000Y43185000D01*
G75*
G02*
X55805000Y43220000I35000J0D01*
G01*
X56295000Y43220000D01*
G75*
G02*
X56330000Y43185000I0J-35000D01*
G01*
X56330000Y43115000D01*
G75*
G02*
X56295000Y43080000I-35000J0D01*
G01*
X55805000Y43080000D01*
G75*
G02*
X55770000Y43115000I0J35000D01*
G01*
G37*
G36*
X56354823Y43627836D02*
G01*
X56360153Y43626219D01*
X56365053Y43623600D01*
X56370185Y43619388D01*
X56419388Y43570185D01*
X56423600Y43565053D01*
X56426219Y43560153D01*
X56427836Y43554823D01*
X56428485Y43548236D01*
X56428485Y43501053D01*
X56427836Y43494466D01*
X56426219Y43489136D01*
X56423600Y43484236D01*
X56420068Y43479932D01*
X56415764Y43476400D01*
X56410864Y43473781D01*
X56405534Y43472164D01*
X56398947Y43471515D01*
X55701053Y43471515D01*
X55694466Y43472164D01*
X55689136Y43473781D01*
X55684236Y43476400D01*
X55679932Y43479932D01*
X55676400Y43484236D01*
X55673781Y43489136D01*
X55672164Y43494466D01*
X55671515Y43501053D01*
X55671515Y43598947D01*
X55672164Y43605534D01*
X55673781Y43610864D01*
X55676400Y43615764D01*
X55679932Y43620068D01*
X55684236Y43623600D01*
X55689136Y43626219D01*
X55694466Y43627836D01*
X55701053Y43628485D01*
X56348236Y43628485D01*
X56354823Y43627836D01*
G37*
%TD*%
%TO.C,U2*%
G36*
G01*
X57580000Y54652500D02*
X57580000Y54997500D01*
G75*
G02*
X57752500Y55170000I172500J0D01*
G01*
X58097500Y55170000D01*
G75*
G02*
X58270000Y54997500I0J-172500D01*
G01*
X58270000Y54652500D01*
G75*
G02*
X58097500Y54480000I-172500J0D01*
G01*
X57752500Y54480000D01*
G75*
G02*
X57580000Y54652500I0J172500D01*
G01*
G37*
G36*
G01*
X57580000Y55502500D02*
X57580000Y55847500D01*
G75*
G02*
X57752500Y56020000I172500J0D01*
G01*
X58097500Y56020000D01*
G75*
G02*
X58270000Y55847500I0J-172500D01*
G01*
X58270000Y55502500D01*
G75*
G02*
X58097500Y55330000I-172500J0D01*
G01*
X57752500Y55330000D01*
G75*
G02*
X57580000Y55502500I0J172500D01*
G01*
G37*
G36*
G01*
X56730000Y54652500D02*
X56730000Y54997500D01*
G75*
G02*
X56902500Y55170000I172500J0D01*
G01*
X57247500Y55170000D01*
G75*
G02*
X57420000Y54997500I0J-172500D01*
G01*
X57420000Y54652500D01*
G75*
G02*
X57247500Y54480000I-172500J0D01*
G01*
X56902500Y54480000D01*
G75*
G02*
X56730000Y54652500I0J172500D01*
G01*
G37*
G36*
G01*
X56730000Y55502500D02*
X56730000Y55847500D01*
G75*
G02*
X56902500Y56020000I172500J0D01*
G01*
X57247500Y56020000D01*
G75*
G02*
X57420000Y55847500I0J-172500D01*
G01*
X57420000Y55502500D01*
G75*
G02*
X57247500Y55330000I-172500J0D01*
G01*
X56902500Y55330000D01*
G75*
G02*
X56730000Y55502500I0J172500D01*
G01*
G37*
G36*
X56755534Y57077836D02*
G01*
X56760864Y57076219D01*
X56765764Y57073600D01*
X56770068Y57070068D01*
X56773600Y57065764D01*
X56776219Y57060864D01*
X56777836Y57055534D01*
X56778485Y57048947D01*
X56778485Y56351053D01*
X56777836Y56344466D01*
X56776219Y56339136D01*
X56773600Y56334236D01*
X56770068Y56329932D01*
X56765764Y56326400D01*
X56760864Y56323781D01*
X56755534Y56322164D01*
X56748947Y56321515D01*
X56701764Y56321515D01*
X56695177Y56322164D01*
X56689847Y56323781D01*
X56684947Y56326400D01*
X56679815Y56330612D01*
X56630612Y56379815D01*
X56626400Y56384947D01*
X56623781Y56389847D01*
X56622164Y56395177D01*
X56621515Y56401764D01*
X56621515Y57048947D01*
X56622164Y57055534D01*
X56623781Y57060864D01*
X56626400Y57065764D01*
X56629932Y57070068D01*
X56634236Y57073600D01*
X56639136Y57076219D01*
X56644466Y57077836D01*
X56651053Y57078485D01*
X56748947Y57078485D01*
X56755534Y57077836D01*
G37*
G36*
G01*
X57030000Y56455000D02*
X57030000Y56945000D01*
G75*
G02*
X57065000Y56980000I35000J0D01*
G01*
X57135000Y56980000D01*
G75*
G02*
X57170000Y56945000I0J-35000D01*
G01*
X57170000Y56455000D01*
G75*
G02*
X57135000Y56420000I-35000J0D01*
G01*
X57065000Y56420000D01*
G75*
G02*
X57030000Y56455000I0J35000D01*
G01*
G37*
G36*
G01*
X57430000Y56455000D02*
X57430000Y56945000D01*
G75*
G02*
X57465000Y56980000I35000J0D01*
G01*
X57535000Y56980000D01*
G75*
G02*
X57570000Y56945000I0J-35000D01*
G01*
X57570000Y56455000D01*
G75*
G02*
X57535000Y56420000I-35000J0D01*
G01*
X57465000Y56420000D01*
G75*
G02*
X57430000Y56455000I0J35000D01*
G01*
G37*
G36*
G01*
X57830000Y56455000D02*
X57830000Y56945000D01*
G75*
G02*
X57865000Y56980000I35000J0D01*
G01*
X57935000Y56980000D01*
G75*
G02*
X57970000Y56945000I0J-35000D01*
G01*
X57970000Y56455000D01*
G75*
G02*
X57935000Y56420000I-35000J0D01*
G01*
X57865000Y56420000D01*
G75*
G02*
X57830000Y56455000I0J35000D01*
G01*
G37*
G36*
X58355534Y57077836D02*
G01*
X58360864Y57076219D01*
X58365764Y57073600D01*
X58370068Y57070068D01*
X58373600Y57065764D01*
X58376219Y57060864D01*
X58377836Y57055534D01*
X58378485Y57048947D01*
X58378485Y56401764D01*
X58377836Y56395177D01*
X58376219Y56389847D01*
X58373600Y56384947D01*
X58369388Y56379815D01*
X58320185Y56330612D01*
X58315053Y56326400D01*
X58310153Y56323781D01*
X58304823Y56322164D01*
X58298236Y56321515D01*
X58251053Y56321515D01*
X58244466Y56322164D01*
X58239136Y56323781D01*
X58234236Y56326400D01*
X58229932Y56329932D01*
X58226400Y56334236D01*
X58223781Y56339136D01*
X58222164Y56344466D01*
X58221515Y56351053D01*
X58221515Y57048947D01*
X58222164Y57055534D01*
X58223781Y57060864D01*
X58226400Y57065764D01*
X58229932Y57070068D01*
X58234236Y57073600D01*
X58239136Y57076219D01*
X58244466Y57077836D01*
X58251053Y57078485D01*
X58348947Y57078485D01*
X58355534Y57077836D01*
G37*
G36*
X59305534Y56127836D02*
G01*
X59310864Y56126219D01*
X59315764Y56123600D01*
X59320068Y56120068D01*
X59323600Y56115764D01*
X59326219Y56110864D01*
X59327836Y56105534D01*
X59328485Y56098947D01*
X59328485Y56001053D01*
X59327836Y55994466D01*
X59326219Y55989136D01*
X59323600Y55984236D01*
X59320068Y55979932D01*
X59315764Y55976400D01*
X59310864Y55973781D01*
X59305534Y55972164D01*
X59298947Y55971515D01*
X58601053Y55971515D01*
X58594466Y55972164D01*
X58589136Y55973781D01*
X58584236Y55976400D01*
X58579932Y55979932D01*
X58576400Y55984236D01*
X58573781Y55989136D01*
X58572164Y55994466D01*
X58571515Y56001053D01*
X58571515Y56048236D01*
X58572164Y56054823D01*
X58573781Y56060153D01*
X58576400Y56065053D01*
X58580612Y56070185D01*
X58629815Y56119388D01*
X58634947Y56123600D01*
X58639847Y56126219D01*
X58645177Y56127836D01*
X58651764Y56128485D01*
X59298947Y56128485D01*
X59305534Y56127836D01*
G37*
G36*
G01*
X58670000Y55615000D02*
X58670000Y55685000D01*
G75*
G02*
X58705000Y55720000I35000J0D01*
G01*
X59195000Y55720000D01*
G75*
G02*
X59230000Y55685000I0J-35000D01*
G01*
X59230000Y55615000D01*
G75*
G02*
X59195000Y55580000I-35000J0D01*
G01*
X58705000Y55580000D01*
G75*
G02*
X58670000Y55615000I0J35000D01*
G01*
G37*
G36*
G01*
X58670000Y55215000D02*
X58670000Y55285000D01*
G75*
G02*
X58705000Y55320000I35000J0D01*
G01*
X59195000Y55320000D01*
G75*
G02*
X59230000Y55285000I0J-35000D01*
G01*
X59230000Y55215000D01*
G75*
G02*
X59195000Y55180000I-35000J0D01*
G01*
X58705000Y55180000D01*
G75*
G02*
X58670000Y55215000I0J35000D01*
G01*
G37*
G36*
G01*
X58670000Y54815000D02*
X58670000Y54885000D01*
G75*
G02*
X58705000Y54920000I35000J0D01*
G01*
X59195000Y54920000D01*
G75*
G02*
X59230000Y54885000I0J-35000D01*
G01*
X59230000Y54815000D01*
G75*
G02*
X59195000Y54780000I-35000J0D01*
G01*
X58705000Y54780000D01*
G75*
G02*
X58670000Y54815000I0J35000D01*
G01*
G37*
G36*
X59305534Y54527836D02*
G01*
X59310864Y54526219D01*
X59315764Y54523600D01*
X59320068Y54520068D01*
X59323600Y54515764D01*
X59326219Y54510864D01*
X59327836Y54505534D01*
X59328485Y54498947D01*
X59328485Y54401053D01*
X59327836Y54394466D01*
X59326219Y54389136D01*
X59323600Y54384236D01*
X59320068Y54379932D01*
X59315764Y54376400D01*
X59310864Y54373781D01*
X59305534Y54372164D01*
X59298947Y54371515D01*
X58651764Y54371515D01*
X58645177Y54372164D01*
X58639847Y54373781D01*
X58634947Y54376400D01*
X58629815Y54380612D01*
X58580612Y54429815D01*
X58576400Y54434947D01*
X58573781Y54439847D01*
X58572164Y54445177D01*
X58571515Y54451764D01*
X58571515Y54498947D01*
X58572164Y54505534D01*
X58573781Y54510864D01*
X58576400Y54515764D01*
X58579932Y54520068D01*
X58584236Y54523600D01*
X58589136Y54526219D01*
X58594466Y54527836D01*
X58601053Y54528485D01*
X59298947Y54528485D01*
X59305534Y54527836D01*
G37*
G36*
X58304823Y54177836D02*
G01*
X58310153Y54176219D01*
X58315053Y54173600D01*
X58320185Y54169388D01*
X58369388Y54120185D01*
X58373600Y54115053D01*
X58376219Y54110153D01*
X58377836Y54104823D01*
X58378485Y54098236D01*
X58378485Y53451053D01*
X58377836Y53444466D01*
X58376219Y53439136D01*
X58373600Y53434236D01*
X58370068Y53429932D01*
X58365764Y53426400D01*
X58360864Y53423781D01*
X58355534Y53422164D01*
X58348947Y53421515D01*
X58251053Y53421515D01*
X58244466Y53422164D01*
X58239136Y53423781D01*
X58234236Y53426400D01*
X58229932Y53429932D01*
X58226400Y53434236D01*
X58223781Y53439136D01*
X58222164Y53444466D01*
X58221515Y53451053D01*
X58221515Y54148947D01*
X58222164Y54155534D01*
X58223781Y54160864D01*
X58226400Y54165764D01*
X58229932Y54170068D01*
X58234236Y54173600D01*
X58239136Y54176219D01*
X58244466Y54177836D01*
X58251053Y54178485D01*
X58298236Y54178485D01*
X58304823Y54177836D01*
G37*
G36*
G01*
X57830000Y53555000D02*
X57830000Y54045000D01*
G75*
G02*
X57865000Y54080000I35000J0D01*
G01*
X57935000Y54080000D01*
G75*
G02*
X57970000Y54045000I0J-35000D01*
G01*
X57970000Y53555000D01*
G75*
G02*
X57935000Y53520000I-35000J0D01*
G01*
X57865000Y53520000D01*
G75*
G02*
X57830000Y53555000I0J35000D01*
G01*
G37*
G36*
G01*
X57430000Y53555000D02*
X57430000Y54045000D01*
G75*
G02*
X57465000Y54080000I35000J0D01*
G01*
X57535000Y54080000D01*
G75*
G02*
X57570000Y54045000I0J-35000D01*
G01*
X57570000Y53555000D01*
G75*
G02*
X57535000Y53520000I-35000J0D01*
G01*
X57465000Y53520000D01*
G75*
G02*
X57430000Y53555000I0J35000D01*
G01*
G37*
G36*
G01*
X57030000Y53555000D02*
X57030000Y54045000D01*
G75*
G02*
X57065000Y54080000I35000J0D01*
G01*
X57135000Y54080000D01*
G75*
G02*
X57170000Y54045000I0J-35000D01*
G01*
X57170000Y53555000D01*
G75*
G02*
X57135000Y53520000I-35000J0D01*
G01*
X57065000Y53520000D01*
G75*
G02*
X57030000Y53555000I0J35000D01*
G01*
G37*
G36*
X56755534Y54177836D02*
G01*
X56760864Y54176219D01*
X56765764Y54173600D01*
X56770068Y54170068D01*
X56773600Y54165764D01*
X56776219Y54160864D01*
X56777836Y54155534D01*
X56778485Y54148947D01*
X56778485Y53451053D01*
X56777836Y53444466D01*
X56776219Y53439136D01*
X56773600Y53434236D01*
X56770068Y53429932D01*
X56765764Y53426400D01*
X56760864Y53423781D01*
X56755534Y53422164D01*
X56748947Y53421515D01*
X56651053Y53421515D01*
X56644466Y53422164D01*
X56639136Y53423781D01*
X56634236Y53426400D01*
X56629932Y53429932D01*
X56626400Y53434236D01*
X56623781Y53439136D01*
X56622164Y53444466D01*
X56621515Y53451053D01*
X56621515Y54098236D01*
X56622164Y54104823D01*
X56623781Y54110153D01*
X56626400Y54115053D01*
X56630612Y54120185D01*
X56679815Y54169388D01*
X56684947Y54173600D01*
X56689847Y54176219D01*
X56695177Y54177836D01*
X56701764Y54178485D01*
X56748947Y54178485D01*
X56755534Y54177836D01*
G37*
G36*
X56405534Y54527836D02*
G01*
X56410864Y54526219D01*
X56415764Y54523600D01*
X56420068Y54520068D01*
X56423600Y54515764D01*
X56426219Y54510864D01*
X56427836Y54505534D01*
X56428485Y54498947D01*
X56428485Y54451764D01*
X56427836Y54445177D01*
X56426219Y54439847D01*
X56423600Y54434947D01*
X56419388Y54429815D01*
X56370185Y54380612D01*
X56365053Y54376400D01*
X56360153Y54373781D01*
X56354823Y54372164D01*
X56348236Y54371515D01*
X55701053Y54371515D01*
X55694466Y54372164D01*
X55689136Y54373781D01*
X55684236Y54376400D01*
X55679932Y54379932D01*
X55676400Y54384236D01*
X55673781Y54389136D01*
X55672164Y54394466D01*
X55671515Y54401053D01*
X55671515Y54498947D01*
X55672164Y54505534D01*
X55673781Y54510864D01*
X55676400Y54515764D01*
X55679932Y54520068D01*
X55684236Y54523600D01*
X55689136Y54526219D01*
X55694466Y54527836D01*
X55701053Y54528485D01*
X56398947Y54528485D01*
X56405534Y54527836D01*
G37*
G36*
G01*
X55770000Y54815000D02*
X55770000Y54885000D01*
G75*
G02*
X55805000Y54920000I35000J0D01*
G01*
X56295000Y54920000D01*
G75*
G02*
X56330000Y54885000I0J-35000D01*
G01*
X56330000Y54815000D01*
G75*
G02*
X56295000Y54780000I-35000J0D01*
G01*
X55805000Y54780000D01*
G75*
G02*
X55770000Y54815000I0J35000D01*
G01*
G37*
G36*
G01*
X55770000Y55215000D02*
X55770000Y55285000D01*
G75*
G02*
X55805000Y55320000I35000J0D01*
G01*
X56295000Y55320000D01*
G75*
G02*
X56330000Y55285000I0J-35000D01*
G01*
X56330000Y55215000D01*
G75*
G02*
X56295000Y55180000I-35000J0D01*
G01*
X55805000Y55180000D01*
G75*
G02*
X55770000Y55215000I0J35000D01*
G01*
G37*
G36*
G01*
X55770000Y55615000D02*
X55770000Y55685000D01*
G75*
G02*
X55805000Y55720000I35000J0D01*
G01*
X56295000Y55720000D01*
G75*
G02*
X56330000Y55685000I0J-35000D01*
G01*
X56330000Y55615000D01*
G75*
G02*
X56295000Y55580000I-35000J0D01*
G01*
X55805000Y55580000D01*
G75*
G02*
X55770000Y55615000I0J35000D01*
G01*
G37*
G36*
X56354823Y56127836D02*
G01*
X56360153Y56126219D01*
X56365053Y56123600D01*
X56370185Y56119388D01*
X56419388Y56070185D01*
X56423600Y56065053D01*
X56426219Y56060153D01*
X56427836Y56054823D01*
X56428485Y56048236D01*
X56428485Y56001053D01*
X56427836Y55994466D01*
X56426219Y55989136D01*
X56423600Y55984236D01*
X56420068Y55979932D01*
X56415764Y55976400D01*
X56410864Y55973781D01*
X56405534Y55972164D01*
X56398947Y55971515D01*
X55701053Y55971515D01*
X55694466Y55972164D01*
X55689136Y55973781D01*
X55684236Y55976400D01*
X55679932Y55979932D01*
X55676400Y55984236D01*
X55673781Y55989136D01*
X55672164Y55994466D01*
X55671515Y56001053D01*
X55671515Y56098947D01*
X55672164Y56105534D01*
X55673781Y56110864D01*
X55676400Y56115764D01*
X55679932Y56120068D01*
X55684236Y56123600D01*
X55689136Y56126219D01*
X55694466Y56127836D01*
X55701053Y56128485D01*
X56348236Y56128485D01*
X56354823Y56127836D01*
G37*
%TD*%
%TO.C,U2*%
G36*
G01*
X57580000Y67152500D02*
X57580000Y67497500D01*
G75*
G02*
X57752500Y67670000I172500J0D01*
G01*
X58097500Y67670000D01*
G75*
G02*
X58270000Y67497500I0J-172500D01*
G01*
X58270000Y67152500D01*
G75*
G02*
X58097500Y66980000I-172500J0D01*
G01*
X57752500Y66980000D01*
G75*
G02*
X57580000Y67152500I0J172500D01*
G01*
G37*
G36*
G01*
X57580000Y68002500D02*
X57580000Y68347500D01*
G75*
G02*
X57752500Y68520000I172500J0D01*
G01*
X58097500Y68520000D01*
G75*
G02*
X58270000Y68347500I0J-172500D01*
G01*
X58270000Y68002500D01*
G75*
G02*
X58097500Y67830000I-172500J0D01*
G01*
X57752500Y67830000D01*
G75*
G02*
X57580000Y68002500I0J172500D01*
G01*
G37*
G36*
G01*
X56730000Y67152500D02*
X56730000Y67497500D01*
G75*
G02*
X56902500Y67670000I172500J0D01*
G01*
X57247500Y67670000D01*
G75*
G02*
X57420000Y67497500I0J-172500D01*
G01*
X57420000Y67152500D01*
G75*
G02*
X57247500Y66980000I-172500J0D01*
G01*
X56902500Y66980000D01*
G75*
G02*
X56730000Y67152500I0J172500D01*
G01*
G37*
G36*
G01*
X56730000Y68002500D02*
X56730000Y68347500D01*
G75*
G02*
X56902500Y68520000I172500J0D01*
G01*
X57247500Y68520000D01*
G75*
G02*
X57420000Y68347500I0J-172500D01*
G01*
X57420000Y68002500D01*
G75*
G02*
X57247500Y67830000I-172500J0D01*
G01*
X56902500Y67830000D01*
G75*
G02*
X56730000Y68002500I0J172500D01*
G01*
G37*
G36*
X56755534Y69577836D02*
G01*
X56760864Y69576219D01*
X56765764Y69573600D01*
X56770068Y69570068D01*
X56773600Y69565764D01*
X56776219Y69560864D01*
X56777836Y69555534D01*
X56778485Y69548947D01*
X56778485Y68851053D01*
X56777836Y68844466D01*
X56776219Y68839136D01*
X56773600Y68834236D01*
X56770068Y68829932D01*
X56765764Y68826400D01*
X56760864Y68823781D01*
X56755534Y68822164D01*
X56748947Y68821515D01*
X56701764Y68821515D01*
X56695177Y68822164D01*
X56689847Y68823781D01*
X56684947Y68826400D01*
X56679815Y68830612D01*
X56630612Y68879815D01*
X56626400Y68884947D01*
X56623781Y68889847D01*
X56622164Y68895177D01*
X56621515Y68901764D01*
X56621515Y69548947D01*
X56622164Y69555534D01*
X56623781Y69560864D01*
X56626400Y69565764D01*
X56629932Y69570068D01*
X56634236Y69573600D01*
X56639136Y69576219D01*
X56644466Y69577836D01*
X56651053Y69578485D01*
X56748947Y69578485D01*
X56755534Y69577836D01*
G37*
G36*
G01*
X57030000Y68955000D02*
X57030000Y69445000D01*
G75*
G02*
X57065000Y69480000I35000J0D01*
G01*
X57135000Y69480000D01*
G75*
G02*
X57170000Y69445000I0J-35000D01*
G01*
X57170000Y68955000D01*
G75*
G02*
X57135000Y68920000I-35000J0D01*
G01*
X57065000Y68920000D01*
G75*
G02*
X57030000Y68955000I0J35000D01*
G01*
G37*
G36*
G01*
X57430000Y68955000D02*
X57430000Y69445000D01*
G75*
G02*
X57465000Y69480000I35000J0D01*
G01*
X57535000Y69480000D01*
G75*
G02*
X57570000Y69445000I0J-35000D01*
G01*
X57570000Y68955000D01*
G75*
G02*
X57535000Y68920000I-35000J0D01*
G01*
X57465000Y68920000D01*
G75*
G02*
X57430000Y68955000I0J35000D01*
G01*
G37*
G36*
G01*
X57830000Y68955000D02*
X57830000Y69445000D01*
G75*
G02*
X57865000Y69480000I35000J0D01*
G01*
X57935000Y69480000D01*
G75*
G02*
X57970000Y69445000I0J-35000D01*
G01*
X57970000Y68955000D01*
G75*
G02*
X57935000Y68920000I-35000J0D01*
G01*
X57865000Y68920000D01*
G75*
G02*
X57830000Y68955000I0J35000D01*
G01*
G37*
G36*
X58355534Y69577836D02*
G01*
X58360864Y69576219D01*
X58365764Y69573600D01*
X58370068Y69570068D01*
X58373600Y69565764D01*
X58376219Y69560864D01*
X58377836Y69555534D01*
X58378485Y69548947D01*
X58378485Y68901764D01*
X58377836Y68895177D01*
X58376219Y68889847D01*
X58373600Y68884947D01*
X58369388Y68879815D01*
X58320185Y68830612D01*
X58315053Y68826400D01*
X58310153Y68823781D01*
X58304823Y68822164D01*
X58298236Y68821515D01*
X58251053Y68821515D01*
X58244466Y68822164D01*
X58239136Y68823781D01*
X58234236Y68826400D01*
X58229932Y68829932D01*
X58226400Y68834236D01*
X58223781Y68839136D01*
X58222164Y68844466D01*
X58221515Y68851053D01*
X58221515Y69548947D01*
X58222164Y69555534D01*
X58223781Y69560864D01*
X58226400Y69565764D01*
X58229932Y69570068D01*
X58234236Y69573600D01*
X58239136Y69576219D01*
X58244466Y69577836D01*
X58251053Y69578485D01*
X58348947Y69578485D01*
X58355534Y69577836D01*
G37*
G36*
X59305534Y68627836D02*
G01*
X59310864Y68626219D01*
X59315764Y68623600D01*
X59320068Y68620068D01*
X59323600Y68615764D01*
X59326219Y68610864D01*
X59327836Y68605534D01*
X59328485Y68598947D01*
X59328485Y68501053D01*
X59327836Y68494466D01*
X59326219Y68489136D01*
X59323600Y68484236D01*
X59320068Y68479932D01*
X59315764Y68476400D01*
X59310864Y68473781D01*
X59305534Y68472164D01*
X59298947Y68471515D01*
X58601053Y68471515D01*
X58594466Y68472164D01*
X58589136Y68473781D01*
X58584236Y68476400D01*
X58579932Y68479932D01*
X58576400Y68484236D01*
X58573781Y68489136D01*
X58572164Y68494466D01*
X58571515Y68501053D01*
X58571515Y68548236D01*
X58572164Y68554823D01*
X58573781Y68560153D01*
X58576400Y68565053D01*
X58580612Y68570185D01*
X58629815Y68619388D01*
X58634947Y68623600D01*
X58639847Y68626219D01*
X58645177Y68627836D01*
X58651764Y68628485D01*
X59298947Y68628485D01*
X59305534Y68627836D01*
G37*
G36*
G01*
X58670000Y68115000D02*
X58670000Y68185000D01*
G75*
G02*
X58705000Y68220000I35000J0D01*
G01*
X59195000Y68220000D01*
G75*
G02*
X59230000Y68185000I0J-35000D01*
G01*
X59230000Y68115000D01*
G75*
G02*
X59195000Y68080000I-35000J0D01*
G01*
X58705000Y68080000D01*
G75*
G02*
X58670000Y68115000I0J35000D01*
G01*
G37*
G36*
G01*
X58670000Y67715000D02*
X58670000Y67785000D01*
G75*
G02*
X58705000Y67820000I35000J0D01*
G01*
X59195000Y67820000D01*
G75*
G02*
X59230000Y67785000I0J-35000D01*
G01*
X59230000Y67715000D01*
G75*
G02*
X59195000Y67680000I-35000J0D01*
G01*
X58705000Y67680000D01*
G75*
G02*
X58670000Y67715000I0J35000D01*
G01*
G37*
G36*
G01*
X58670000Y67315000D02*
X58670000Y67385000D01*
G75*
G02*
X58705000Y67420000I35000J0D01*
G01*
X59195000Y67420000D01*
G75*
G02*
X59230000Y67385000I0J-35000D01*
G01*
X59230000Y67315000D01*
G75*
G02*
X59195000Y67280000I-35000J0D01*
G01*
X58705000Y67280000D01*
G75*
G02*
X58670000Y67315000I0J35000D01*
G01*
G37*
G36*
X59305534Y67027836D02*
G01*
X59310864Y67026219D01*
X59315764Y67023600D01*
X59320068Y67020068D01*
X59323600Y67015764D01*
X59326219Y67010864D01*
X59327836Y67005534D01*
X59328485Y66998947D01*
X59328485Y66901053D01*
X59327836Y66894466D01*
X59326219Y66889136D01*
X59323600Y66884236D01*
X59320068Y66879932D01*
X59315764Y66876400D01*
X59310864Y66873781D01*
X59305534Y66872164D01*
X59298947Y66871515D01*
X58651764Y66871515D01*
X58645177Y66872164D01*
X58639847Y66873781D01*
X58634947Y66876400D01*
X58629815Y66880612D01*
X58580612Y66929815D01*
X58576400Y66934947D01*
X58573781Y66939847D01*
X58572164Y66945177D01*
X58571515Y66951764D01*
X58571515Y66998947D01*
X58572164Y67005534D01*
X58573781Y67010864D01*
X58576400Y67015764D01*
X58579932Y67020068D01*
X58584236Y67023600D01*
X58589136Y67026219D01*
X58594466Y67027836D01*
X58601053Y67028485D01*
X59298947Y67028485D01*
X59305534Y67027836D01*
G37*
G36*
X58304823Y66677836D02*
G01*
X58310153Y66676219D01*
X58315053Y66673600D01*
X58320185Y66669388D01*
X58369388Y66620185D01*
X58373600Y66615053D01*
X58376219Y66610153D01*
X58377836Y66604823D01*
X58378485Y66598236D01*
X58378485Y65951053D01*
X58377836Y65944466D01*
X58376219Y65939136D01*
X58373600Y65934236D01*
X58370068Y65929932D01*
X58365764Y65926400D01*
X58360864Y65923781D01*
X58355534Y65922164D01*
X58348947Y65921515D01*
X58251053Y65921515D01*
X58244466Y65922164D01*
X58239136Y65923781D01*
X58234236Y65926400D01*
X58229932Y65929932D01*
X58226400Y65934236D01*
X58223781Y65939136D01*
X58222164Y65944466D01*
X58221515Y65951053D01*
X58221515Y66648947D01*
X58222164Y66655534D01*
X58223781Y66660864D01*
X58226400Y66665764D01*
X58229932Y66670068D01*
X58234236Y66673600D01*
X58239136Y66676219D01*
X58244466Y66677836D01*
X58251053Y66678485D01*
X58298236Y66678485D01*
X58304823Y66677836D01*
G37*
G36*
G01*
X57830000Y66055000D02*
X57830000Y66545000D01*
G75*
G02*
X57865000Y66580000I35000J0D01*
G01*
X57935000Y66580000D01*
G75*
G02*
X57970000Y66545000I0J-35000D01*
G01*
X57970000Y66055000D01*
G75*
G02*
X57935000Y66020000I-35000J0D01*
G01*
X57865000Y66020000D01*
G75*
G02*
X57830000Y66055000I0J35000D01*
G01*
G37*
G36*
G01*
X57430000Y66055000D02*
X57430000Y66545000D01*
G75*
G02*
X57465000Y66580000I35000J0D01*
G01*
X57535000Y66580000D01*
G75*
G02*
X57570000Y66545000I0J-35000D01*
G01*
X57570000Y66055000D01*
G75*
G02*
X57535000Y66020000I-35000J0D01*
G01*
X57465000Y66020000D01*
G75*
G02*
X57430000Y66055000I0J35000D01*
G01*
G37*
G36*
G01*
X57030000Y66055000D02*
X57030000Y66545000D01*
G75*
G02*
X57065000Y66580000I35000J0D01*
G01*
X57135000Y66580000D01*
G75*
G02*
X57170000Y66545000I0J-35000D01*
G01*
X57170000Y66055000D01*
G75*
G02*
X57135000Y66020000I-35000J0D01*
G01*
X57065000Y66020000D01*
G75*
G02*
X57030000Y66055000I0J35000D01*
G01*
G37*
G36*
X56755534Y66677836D02*
G01*
X56760864Y66676219D01*
X56765764Y66673600D01*
X56770068Y66670068D01*
X56773600Y66665764D01*
X56776219Y66660864D01*
X56777836Y66655534D01*
X56778485Y66648947D01*
X56778485Y65951053D01*
X56777836Y65944466D01*
X56776219Y65939136D01*
X56773600Y65934236D01*
X56770068Y65929932D01*
X56765764Y65926400D01*
X56760864Y65923781D01*
X56755534Y65922164D01*
X56748947Y65921515D01*
X56651053Y65921515D01*
X56644466Y65922164D01*
X56639136Y65923781D01*
X56634236Y65926400D01*
X56629932Y65929932D01*
X56626400Y65934236D01*
X56623781Y65939136D01*
X56622164Y65944466D01*
X56621515Y65951053D01*
X56621515Y66598236D01*
X56622164Y66604823D01*
X56623781Y66610153D01*
X56626400Y66615053D01*
X56630612Y66620185D01*
X56679815Y66669388D01*
X56684947Y66673600D01*
X56689847Y66676219D01*
X56695177Y66677836D01*
X56701764Y66678485D01*
X56748947Y66678485D01*
X56755534Y66677836D01*
G37*
G36*
X56405534Y67027836D02*
G01*
X56410864Y67026219D01*
X56415764Y67023600D01*
X56420068Y67020068D01*
X56423600Y67015764D01*
X56426219Y67010864D01*
X56427836Y67005534D01*
X56428485Y66998947D01*
X56428485Y66951764D01*
X56427836Y66945177D01*
X56426219Y66939847D01*
X56423600Y66934947D01*
X56419388Y66929815D01*
X56370185Y66880612D01*
X56365053Y66876400D01*
X56360153Y66873781D01*
X56354823Y66872164D01*
X56348236Y66871515D01*
X55701053Y66871515D01*
X55694466Y66872164D01*
X55689136Y66873781D01*
X55684236Y66876400D01*
X55679932Y66879932D01*
X55676400Y66884236D01*
X55673781Y66889136D01*
X55672164Y66894466D01*
X55671515Y66901053D01*
X55671515Y66998947D01*
X55672164Y67005534D01*
X55673781Y67010864D01*
X55676400Y67015764D01*
X55679932Y67020068D01*
X55684236Y67023600D01*
X55689136Y67026219D01*
X55694466Y67027836D01*
X55701053Y67028485D01*
X56398947Y67028485D01*
X56405534Y67027836D01*
G37*
G36*
G01*
X55770000Y67315000D02*
X55770000Y67385000D01*
G75*
G02*
X55805000Y67420000I35000J0D01*
G01*
X56295000Y67420000D01*
G75*
G02*
X56330000Y67385000I0J-35000D01*
G01*
X56330000Y67315000D01*
G75*
G02*
X56295000Y67280000I-35000J0D01*
G01*
X55805000Y67280000D01*
G75*
G02*
X55770000Y67315000I0J35000D01*
G01*
G37*
G36*
G01*
X55770000Y67715000D02*
X55770000Y67785000D01*
G75*
G02*
X55805000Y67820000I35000J0D01*
G01*
X56295000Y67820000D01*
G75*
G02*
X56330000Y67785000I0J-35000D01*
G01*
X56330000Y67715000D01*
G75*
G02*
X56295000Y67680000I-35000J0D01*
G01*
X55805000Y67680000D01*
G75*
G02*
X55770000Y67715000I0J35000D01*
G01*
G37*
G36*
G01*
X55770000Y68115000D02*
X55770000Y68185000D01*
G75*
G02*
X55805000Y68220000I35000J0D01*
G01*
X56295000Y68220000D01*
G75*
G02*
X56330000Y68185000I0J-35000D01*
G01*
X56330000Y68115000D01*
G75*
G02*
X56295000Y68080000I-35000J0D01*
G01*
X55805000Y68080000D01*
G75*
G02*
X55770000Y68115000I0J35000D01*
G01*
G37*
G36*
X56354823Y68627836D02*
G01*
X56360153Y68626219D01*
X56365053Y68623600D01*
X56370185Y68619388D01*
X56419388Y68570185D01*
X56423600Y68565053D01*
X56426219Y68560153D01*
X56427836Y68554823D01*
X56428485Y68548236D01*
X56428485Y68501053D01*
X56427836Y68494466D01*
X56426219Y68489136D01*
X56423600Y68484236D01*
X56420068Y68479932D01*
X56415764Y68476400D01*
X56410864Y68473781D01*
X56405534Y68472164D01*
X56398947Y68471515D01*
X55701053Y68471515D01*
X55694466Y68472164D01*
X55689136Y68473781D01*
X55684236Y68476400D01*
X55679932Y68479932D01*
X55676400Y68484236D01*
X55673781Y68489136D01*
X55672164Y68494466D01*
X55671515Y68501053D01*
X55671515Y68598947D01*
X55672164Y68605534D01*
X55673781Y68610864D01*
X55676400Y68615764D01*
X55679932Y68620068D01*
X55684236Y68623600D01*
X55689136Y68626219D01*
X55694466Y68627836D01*
X55701053Y68628485D01*
X56348236Y68628485D01*
X56354823Y68627836D01*
G37*
%TD*%
%TO.C,U2*%
G36*
G01*
X57580000Y79652500D02*
X57580000Y79997500D01*
G75*
G02*
X57752500Y80170000I172500J0D01*
G01*
X58097500Y80170000D01*
G75*
G02*
X58270000Y79997500I0J-172500D01*
G01*
X58270000Y79652500D01*
G75*
G02*
X58097500Y79480000I-172500J0D01*
G01*
X57752500Y79480000D01*
G75*
G02*
X57580000Y79652500I0J172500D01*
G01*
G37*
G36*
G01*
X57580000Y80502500D02*
X57580000Y80847500D01*
G75*
G02*
X57752500Y81020000I172500J0D01*
G01*
X58097500Y81020000D01*
G75*
G02*
X58270000Y80847500I0J-172500D01*
G01*
X58270000Y80502500D01*
G75*
G02*
X58097500Y80330000I-172500J0D01*
G01*
X57752500Y80330000D01*
G75*
G02*
X57580000Y80502500I0J172500D01*
G01*
G37*
G36*
G01*
X56730000Y79652500D02*
X56730000Y79997500D01*
G75*
G02*
X56902500Y80170000I172500J0D01*
G01*
X57247500Y80170000D01*
G75*
G02*
X57420000Y79997500I0J-172500D01*
G01*
X57420000Y79652500D01*
G75*
G02*
X57247500Y79480000I-172500J0D01*
G01*
X56902500Y79480000D01*
G75*
G02*
X56730000Y79652500I0J172500D01*
G01*
G37*
G36*
G01*
X56730000Y80502500D02*
X56730000Y80847500D01*
G75*
G02*
X56902500Y81020000I172500J0D01*
G01*
X57247500Y81020000D01*
G75*
G02*
X57420000Y80847500I0J-172500D01*
G01*
X57420000Y80502500D01*
G75*
G02*
X57247500Y80330000I-172500J0D01*
G01*
X56902500Y80330000D01*
G75*
G02*
X56730000Y80502500I0J172500D01*
G01*
G37*
G36*
X56755534Y82077836D02*
G01*
X56760864Y82076219D01*
X56765764Y82073600D01*
X56770068Y82070068D01*
X56773600Y82065764D01*
X56776219Y82060864D01*
X56777836Y82055534D01*
X56778485Y82048947D01*
X56778485Y81351053D01*
X56777836Y81344466D01*
X56776219Y81339136D01*
X56773600Y81334236D01*
X56770068Y81329932D01*
X56765764Y81326400D01*
X56760864Y81323781D01*
X56755534Y81322164D01*
X56748947Y81321515D01*
X56701764Y81321515D01*
X56695177Y81322164D01*
X56689847Y81323781D01*
X56684947Y81326400D01*
X56679815Y81330612D01*
X56630612Y81379815D01*
X56626400Y81384947D01*
X56623781Y81389847D01*
X56622164Y81395177D01*
X56621515Y81401764D01*
X56621515Y82048947D01*
X56622164Y82055534D01*
X56623781Y82060864D01*
X56626400Y82065764D01*
X56629932Y82070068D01*
X56634236Y82073600D01*
X56639136Y82076219D01*
X56644466Y82077836D01*
X56651053Y82078485D01*
X56748947Y82078485D01*
X56755534Y82077836D01*
G37*
G36*
G01*
X57030000Y81455000D02*
X57030000Y81945000D01*
G75*
G02*
X57065000Y81980000I35000J0D01*
G01*
X57135000Y81980000D01*
G75*
G02*
X57170000Y81945000I0J-35000D01*
G01*
X57170000Y81455000D01*
G75*
G02*
X57135000Y81420000I-35000J0D01*
G01*
X57065000Y81420000D01*
G75*
G02*
X57030000Y81455000I0J35000D01*
G01*
G37*
G36*
G01*
X57430000Y81455000D02*
X57430000Y81945000D01*
G75*
G02*
X57465000Y81980000I35000J0D01*
G01*
X57535000Y81980000D01*
G75*
G02*
X57570000Y81945000I0J-35000D01*
G01*
X57570000Y81455000D01*
G75*
G02*
X57535000Y81420000I-35000J0D01*
G01*
X57465000Y81420000D01*
G75*
G02*
X57430000Y81455000I0J35000D01*
G01*
G37*
G36*
G01*
X57830000Y81455000D02*
X57830000Y81945000D01*
G75*
G02*
X57865000Y81980000I35000J0D01*
G01*
X57935000Y81980000D01*
G75*
G02*
X57970000Y81945000I0J-35000D01*
G01*
X57970000Y81455000D01*
G75*
G02*
X57935000Y81420000I-35000J0D01*
G01*
X57865000Y81420000D01*
G75*
G02*
X57830000Y81455000I0J35000D01*
G01*
G37*
G36*
X58355534Y82077836D02*
G01*
X58360864Y82076219D01*
X58365764Y82073600D01*
X58370068Y82070068D01*
X58373600Y82065764D01*
X58376219Y82060864D01*
X58377836Y82055534D01*
X58378485Y82048947D01*
X58378485Y81401764D01*
X58377836Y81395177D01*
X58376219Y81389847D01*
X58373600Y81384947D01*
X58369388Y81379815D01*
X58320185Y81330612D01*
X58315053Y81326400D01*
X58310153Y81323781D01*
X58304823Y81322164D01*
X58298236Y81321515D01*
X58251053Y81321515D01*
X58244466Y81322164D01*
X58239136Y81323781D01*
X58234236Y81326400D01*
X58229932Y81329932D01*
X58226400Y81334236D01*
X58223781Y81339136D01*
X58222164Y81344466D01*
X58221515Y81351053D01*
X58221515Y82048947D01*
X58222164Y82055534D01*
X58223781Y82060864D01*
X58226400Y82065764D01*
X58229932Y82070068D01*
X58234236Y82073600D01*
X58239136Y82076219D01*
X58244466Y82077836D01*
X58251053Y82078485D01*
X58348947Y82078485D01*
X58355534Y82077836D01*
G37*
G36*
X59305534Y81127836D02*
G01*
X59310864Y81126219D01*
X59315764Y81123600D01*
X59320068Y81120068D01*
X59323600Y81115764D01*
X59326219Y81110864D01*
X59327836Y81105534D01*
X59328485Y81098947D01*
X59328485Y81001053D01*
X59327836Y80994466D01*
X59326219Y80989136D01*
X59323600Y80984236D01*
X59320068Y80979932D01*
X59315764Y80976400D01*
X59310864Y80973781D01*
X59305534Y80972164D01*
X59298947Y80971515D01*
X58601053Y80971515D01*
X58594466Y80972164D01*
X58589136Y80973781D01*
X58584236Y80976400D01*
X58579932Y80979932D01*
X58576400Y80984236D01*
X58573781Y80989136D01*
X58572164Y80994466D01*
X58571515Y81001053D01*
X58571515Y81048236D01*
X58572164Y81054823D01*
X58573781Y81060153D01*
X58576400Y81065053D01*
X58580612Y81070185D01*
X58629815Y81119388D01*
X58634947Y81123600D01*
X58639847Y81126219D01*
X58645177Y81127836D01*
X58651764Y81128485D01*
X59298947Y81128485D01*
X59305534Y81127836D01*
G37*
G36*
G01*
X58670000Y80615000D02*
X58670000Y80685000D01*
G75*
G02*
X58705000Y80720000I35000J0D01*
G01*
X59195000Y80720000D01*
G75*
G02*
X59230000Y80685000I0J-35000D01*
G01*
X59230000Y80615000D01*
G75*
G02*
X59195000Y80580000I-35000J0D01*
G01*
X58705000Y80580000D01*
G75*
G02*
X58670000Y80615000I0J35000D01*
G01*
G37*
G36*
G01*
X58670000Y80215000D02*
X58670000Y80285000D01*
G75*
G02*
X58705000Y80320000I35000J0D01*
G01*
X59195000Y80320000D01*
G75*
G02*
X59230000Y80285000I0J-35000D01*
G01*
X59230000Y80215000D01*
G75*
G02*
X59195000Y80180000I-35000J0D01*
G01*
X58705000Y80180000D01*
G75*
G02*
X58670000Y80215000I0J35000D01*
G01*
G37*
G36*
G01*
X58670000Y79815000D02*
X58670000Y79885000D01*
G75*
G02*
X58705000Y79920000I35000J0D01*
G01*
X59195000Y79920000D01*
G75*
G02*
X59230000Y79885000I0J-35000D01*
G01*
X59230000Y79815000D01*
G75*
G02*
X59195000Y79780000I-35000J0D01*
G01*
X58705000Y79780000D01*
G75*
G02*
X58670000Y79815000I0J35000D01*
G01*
G37*
G36*
X59305534Y79527836D02*
G01*
X59310864Y79526219D01*
X59315764Y79523600D01*
X59320068Y79520068D01*
X59323600Y79515764D01*
X59326219Y79510864D01*
X59327836Y79505534D01*
X59328485Y79498947D01*
X59328485Y79401053D01*
X59327836Y79394466D01*
X59326219Y79389136D01*
X59323600Y79384236D01*
X59320068Y79379932D01*
X59315764Y79376400D01*
X59310864Y79373781D01*
X59305534Y79372164D01*
X59298947Y79371515D01*
X58651764Y79371515D01*
X58645177Y79372164D01*
X58639847Y79373781D01*
X58634947Y79376400D01*
X58629815Y79380612D01*
X58580612Y79429815D01*
X58576400Y79434947D01*
X58573781Y79439847D01*
X58572164Y79445177D01*
X58571515Y79451764D01*
X58571515Y79498947D01*
X58572164Y79505534D01*
X58573781Y79510864D01*
X58576400Y79515764D01*
X58579932Y79520068D01*
X58584236Y79523600D01*
X58589136Y79526219D01*
X58594466Y79527836D01*
X58601053Y79528485D01*
X59298947Y79528485D01*
X59305534Y79527836D01*
G37*
G36*
X58304823Y79177836D02*
G01*
X58310153Y79176219D01*
X58315053Y79173600D01*
X58320185Y79169388D01*
X58369388Y79120185D01*
X58373600Y79115053D01*
X58376219Y79110153D01*
X58377836Y79104823D01*
X58378485Y79098236D01*
X58378485Y78451053D01*
X58377836Y78444466D01*
X58376219Y78439136D01*
X58373600Y78434236D01*
X58370068Y78429932D01*
X58365764Y78426400D01*
X58360864Y78423781D01*
X58355534Y78422164D01*
X58348947Y78421515D01*
X58251053Y78421515D01*
X58244466Y78422164D01*
X58239136Y78423781D01*
X58234236Y78426400D01*
X58229932Y78429932D01*
X58226400Y78434236D01*
X58223781Y78439136D01*
X58222164Y78444466D01*
X58221515Y78451053D01*
X58221515Y79148947D01*
X58222164Y79155534D01*
X58223781Y79160864D01*
X58226400Y79165764D01*
X58229932Y79170068D01*
X58234236Y79173600D01*
X58239136Y79176219D01*
X58244466Y79177836D01*
X58251053Y79178485D01*
X58298236Y79178485D01*
X58304823Y79177836D01*
G37*
G36*
G01*
X57830000Y78555000D02*
X57830000Y79045000D01*
G75*
G02*
X57865000Y79080000I35000J0D01*
G01*
X57935000Y79080000D01*
G75*
G02*
X57970000Y79045000I0J-35000D01*
G01*
X57970000Y78555000D01*
G75*
G02*
X57935000Y78520000I-35000J0D01*
G01*
X57865000Y78520000D01*
G75*
G02*
X57830000Y78555000I0J35000D01*
G01*
G37*
G36*
G01*
X57430000Y78555000D02*
X57430000Y79045000D01*
G75*
G02*
X57465000Y79080000I35000J0D01*
G01*
X57535000Y79080000D01*
G75*
G02*
X57570000Y79045000I0J-35000D01*
G01*
X57570000Y78555000D01*
G75*
G02*
X57535000Y78520000I-35000J0D01*
G01*
X57465000Y78520000D01*
G75*
G02*
X57430000Y78555000I0J35000D01*
G01*
G37*
G36*
G01*
X57030000Y78555000D02*
X57030000Y79045000D01*
G75*
G02*
X57065000Y79080000I35000J0D01*
G01*
X57135000Y79080000D01*
G75*
G02*
X57170000Y79045000I0J-35000D01*
G01*
X57170000Y78555000D01*
G75*
G02*
X57135000Y78520000I-35000J0D01*
G01*
X57065000Y78520000D01*
G75*
G02*
X57030000Y78555000I0J35000D01*
G01*
G37*
G36*
X56755534Y79177836D02*
G01*
X56760864Y79176219D01*
X56765764Y79173600D01*
X56770068Y79170068D01*
X56773600Y79165764D01*
X56776219Y79160864D01*
X56777836Y79155534D01*
X56778485Y79148947D01*
X56778485Y78451053D01*
X56777836Y78444466D01*
X56776219Y78439136D01*
X56773600Y78434236D01*
X56770068Y78429932D01*
X56765764Y78426400D01*
X56760864Y78423781D01*
X56755534Y78422164D01*
X56748947Y78421515D01*
X56651053Y78421515D01*
X56644466Y78422164D01*
X56639136Y78423781D01*
X56634236Y78426400D01*
X56629932Y78429932D01*
X56626400Y78434236D01*
X56623781Y78439136D01*
X56622164Y78444466D01*
X56621515Y78451053D01*
X56621515Y79098236D01*
X56622164Y79104823D01*
X56623781Y79110153D01*
X56626400Y79115053D01*
X56630612Y79120185D01*
X56679815Y79169388D01*
X56684947Y79173600D01*
X56689847Y79176219D01*
X56695177Y79177836D01*
X56701764Y79178485D01*
X56748947Y79178485D01*
X56755534Y79177836D01*
G37*
G36*
X56405534Y79527836D02*
G01*
X56410864Y79526219D01*
X56415764Y79523600D01*
X56420068Y79520068D01*
X56423600Y79515764D01*
X56426219Y79510864D01*
X56427836Y79505534D01*
X56428485Y79498947D01*
X56428485Y79451764D01*
X56427836Y79445177D01*
X56426219Y79439847D01*
X56423600Y79434947D01*
X56419388Y79429815D01*
X56370185Y79380612D01*
X56365053Y79376400D01*
X56360153Y79373781D01*
X56354823Y79372164D01*
X56348236Y79371515D01*
X55701053Y79371515D01*
X55694466Y79372164D01*
X55689136Y79373781D01*
X55684236Y79376400D01*
X55679932Y79379932D01*
X55676400Y79384236D01*
X55673781Y79389136D01*
X55672164Y79394466D01*
X55671515Y79401053D01*
X55671515Y79498947D01*
X55672164Y79505534D01*
X55673781Y79510864D01*
X55676400Y79515764D01*
X55679932Y79520068D01*
X55684236Y79523600D01*
X55689136Y79526219D01*
X55694466Y79527836D01*
X55701053Y79528485D01*
X56398947Y79528485D01*
X56405534Y79527836D01*
G37*
G36*
G01*
X55770000Y79815000D02*
X55770000Y79885000D01*
G75*
G02*
X55805000Y79920000I35000J0D01*
G01*
X56295000Y79920000D01*
G75*
G02*
X56330000Y79885000I0J-35000D01*
G01*
X56330000Y79815000D01*
G75*
G02*
X56295000Y79780000I-35000J0D01*
G01*
X55805000Y79780000D01*
G75*
G02*
X55770000Y79815000I0J35000D01*
G01*
G37*
G36*
G01*
X55770000Y80215000D02*
X55770000Y80285000D01*
G75*
G02*
X55805000Y80320000I35000J0D01*
G01*
X56295000Y80320000D01*
G75*
G02*
X56330000Y80285000I0J-35000D01*
G01*
X56330000Y80215000D01*
G75*
G02*
X56295000Y80180000I-35000J0D01*
G01*
X55805000Y80180000D01*
G75*
G02*
X55770000Y80215000I0J35000D01*
G01*
G37*
G36*
G01*
X55770000Y80615000D02*
X55770000Y80685000D01*
G75*
G02*
X55805000Y80720000I35000J0D01*
G01*
X56295000Y80720000D01*
G75*
G02*
X56330000Y80685000I0J-35000D01*
G01*
X56330000Y80615000D01*
G75*
G02*
X56295000Y80580000I-35000J0D01*
G01*
X55805000Y80580000D01*
G75*
G02*
X55770000Y80615000I0J35000D01*
G01*
G37*
G36*
X56354823Y81127836D02*
G01*
X56360153Y81126219D01*
X56365053Y81123600D01*
X56370185Y81119388D01*
X56419388Y81070185D01*
X56423600Y81065053D01*
X56426219Y81060153D01*
X56427836Y81054823D01*
X56428485Y81048236D01*
X56428485Y81001053D01*
X56427836Y80994466D01*
X56426219Y80989136D01*
X56423600Y80984236D01*
X56420068Y80979932D01*
X56415764Y80976400D01*
X56410864Y80973781D01*
X56405534Y80972164D01*
X56398947Y80971515D01*
X55701053Y80971515D01*
X55694466Y80972164D01*
X55689136Y80973781D01*
X55684236Y80976400D01*
X55679932Y80979932D01*
X55676400Y80984236D01*
X55673781Y80989136D01*
X55672164Y80994466D01*
X55671515Y81001053D01*
X55671515Y81098947D01*
X55672164Y81105534D01*
X55673781Y81110864D01*
X55676400Y81115764D01*
X55679932Y81120068D01*
X55684236Y81123600D01*
X55689136Y81126219D01*
X55694466Y81127836D01*
X55701053Y81128485D01*
X56348236Y81128485D01*
X56354823Y81127836D01*
G37*
%TD*%
D24*
%TO.C,Q2*%
X38700000Y3200000D03*
X37750000Y3200000D03*
X36800000Y3200000D03*
X36800000Y800000D03*
X37750000Y800000D03*
X38700000Y800000D03*
%TD*%
%TO.C,Q2*%
X38700000Y15700000D03*
X37750000Y15700000D03*
X36800000Y15700000D03*
X36800000Y13300000D03*
X37750000Y13300000D03*
X38700000Y13300000D03*
%TD*%
%TO.C,Q2*%
X38700000Y28200000D03*
X37750000Y28200000D03*
X36800000Y28200000D03*
X36800000Y25800000D03*
X37750000Y25800000D03*
X38700000Y25800000D03*
%TD*%
%TO.C,Q2*%
X38700000Y40700000D03*
X37750000Y40700000D03*
X36800000Y40700000D03*
X36800000Y38300000D03*
X37750000Y38300000D03*
X38700000Y38300000D03*
%TD*%
%TO.C,Q2*%
X38700000Y53200000D03*
X37750000Y53200000D03*
X36800000Y53200000D03*
X36800000Y50800000D03*
X37750000Y50800000D03*
X38700000Y50800000D03*
%TD*%
%TO.C,Q2*%
X38700000Y65700000D03*
X37750000Y65700000D03*
X36800000Y65700000D03*
X36800000Y63300000D03*
X37750000Y63300000D03*
X38700000Y63300000D03*
%TD*%
%TO.C,Q2*%
X38700000Y78200000D03*
X37750000Y78200000D03*
X36800000Y78200000D03*
X36800000Y75800000D03*
X37750000Y75800000D03*
X38700000Y75800000D03*
%TD*%
D22*
%TO.C,D12*%
X64250000Y5800000D03*
X64250000Y4700000D03*
D21*
X64125000Y6550000D03*
X64125000Y3950000D03*
%TD*%
D22*
%TO.C,D12*%
X64250000Y18300000D03*
X64250000Y17200000D03*
D21*
X64125000Y19050000D03*
X64125000Y16450000D03*
%TD*%
D22*
%TO.C,D12*%
X64250000Y30800000D03*
X64250000Y29700000D03*
D21*
X64125000Y31550000D03*
X64125000Y28950000D03*
%TD*%
D22*
%TO.C,D12*%
X64250000Y43300000D03*
X64250000Y42200000D03*
D21*
X64125000Y44050000D03*
X64125000Y41450000D03*
%TD*%
D22*
%TO.C,D12*%
X64250000Y55800000D03*
X64250000Y54700000D03*
D21*
X64125000Y56550000D03*
X64125000Y53950000D03*
%TD*%
D22*
%TO.C,D12*%
X64250000Y68300000D03*
X64250000Y67200000D03*
D21*
X64125000Y69050000D03*
X64125000Y66450000D03*
%TD*%
D22*
%TO.C,D12*%
X64250000Y80800000D03*
X64250000Y79700000D03*
D21*
X64125000Y81550000D03*
X64125000Y78950000D03*
%TD*%
D23*
%TO.C,Q5*%
X34050000Y5400000D03*
X34050000Y4100000D03*
X35950000Y4750000D03*
%TD*%
%TO.C,Q5*%
X34050000Y17900000D03*
X34050000Y16600000D03*
X35950000Y17250000D03*
%TD*%
%TO.C,Q5*%
X34050000Y30400000D03*
X34050000Y29100000D03*
X35950000Y29750000D03*
%TD*%
%TO.C,Q5*%
X34050000Y42900000D03*
X34050000Y41600000D03*
X35950000Y42250000D03*
%TD*%
%TO.C,Q5*%
X34050000Y55400000D03*
X34050000Y54100000D03*
X35950000Y54750000D03*
%TD*%
%TO.C,Q5*%
X34050000Y67900000D03*
X34050000Y66600000D03*
X35950000Y67250000D03*
%TD*%
%TO.C,Q5*%
X34050000Y80400000D03*
X34050000Y79100000D03*
X35950000Y79750000D03*
%TD*%
D29*
%TO.C,D1*%
X16250000Y2500000D03*
X14250000Y2500000D03*
X14250000Y4500000D03*
D30*
X16050000Y4500000D03*
%TD*%
D29*
%TO.C,D1*%
X16250000Y15000000D03*
X14250000Y15000000D03*
X14250000Y17000000D03*
D30*
X16050000Y17000000D03*
%TD*%
D29*
%TO.C,D1*%
X16250000Y27500000D03*
X14250000Y27500000D03*
X14250000Y29500000D03*
D30*
X16050000Y29500000D03*
%TD*%
D29*
%TO.C,D1*%
X16250000Y40000000D03*
X14250000Y40000000D03*
X14250000Y42000000D03*
D30*
X16050000Y42000000D03*
%TD*%
D29*
%TO.C,D1*%
X16250000Y52500000D03*
X14250000Y52500000D03*
X14250000Y54500000D03*
D30*
X16050000Y54500000D03*
%TD*%
D29*
%TO.C,D1*%
X16250000Y65000000D03*
X14250000Y65000000D03*
X14250000Y67000000D03*
D30*
X16050000Y67000000D03*
%TD*%
D29*
%TO.C,D1*%
X16250000Y77500000D03*
X14250000Y77500000D03*
X14250000Y79500000D03*
D30*
X16050000Y79500000D03*
%TD*%
D18*
%TO.C,Q3*%
X40500000Y6500000D03*
X40500000Y6000000D03*
X40500000Y5500000D03*
X39000000Y5500000D03*
X39000000Y6000000D03*
X39000000Y6500000D03*
%TD*%
%TO.C,Q3*%
X40500000Y19000000D03*
X40500000Y18500000D03*
X40500000Y18000000D03*
X39000000Y18000000D03*
X39000000Y18500000D03*
X39000000Y19000000D03*
%TD*%
%TO.C,Q3*%
X40500000Y31500000D03*
X40500000Y31000000D03*
X40500000Y30500000D03*
X39000000Y30500000D03*
X39000000Y31000000D03*
X39000000Y31500000D03*
%TD*%
%TO.C,Q3*%
X40500000Y44000000D03*
X40500000Y43500000D03*
X40500000Y43000000D03*
X39000000Y43000000D03*
X39000000Y43500000D03*
X39000000Y44000000D03*
%TD*%
%TO.C,Q3*%
X40500000Y56500000D03*
X40500000Y56000000D03*
X40500000Y55500000D03*
X39000000Y55500000D03*
X39000000Y56000000D03*
X39000000Y56500000D03*
%TD*%
%TO.C,Q3*%
X40500000Y69000000D03*
X40500000Y68500000D03*
X40500000Y68000000D03*
X39000000Y68000000D03*
X39000000Y68500000D03*
X39000000Y69000000D03*
%TD*%
%TO.C,Q3*%
X40500000Y81500000D03*
X40500000Y81000000D03*
X40500000Y80500000D03*
X39000000Y80500000D03*
X39000000Y81000000D03*
X39000000Y81500000D03*
%TD*%
D30*
%TO.C,D1*%
X16050000Y92000000D03*
D29*
X14250000Y92000000D03*
X14250000Y90000000D03*
X16250000Y90000000D03*
%TD*%
D18*
%TO.C,Q3*%
X39000000Y94000000D03*
X39000000Y93500000D03*
X39000000Y93000000D03*
X40500000Y93000000D03*
X40500000Y93500000D03*
X40500000Y94000000D03*
%TD*%
D23*
%TO.C,Q5*%
X35950000Y92250000D03*
X34050000Y91600000D03*
X34050000Y92900000D03*
%TD*%
D13*
%TO.C,R21*%
X16000000Y96325000D03*
X16000000Y94675000D03*
%TD*%
D27*
%TO.C,C3*%
X47500000Y91725000D03*
X47500000Y93275000D03*
%TD*%
D26*
%TO.C,D3*%
X32750000Y94300000D03*
X32750000Y92200000D03*
%TD*%
D22*
%TO.C,D11*%
X12250000Y92200000D03*
X12250000Y93300000D03*
D21*
X12375000Y91450000D03*
X12375000Y94050000D03*
%TD*%
%TO.C,D12*%
X64125000Y91450000D03*
X64125000Y94050000D03*
D22*
X64250000Y92200000D03*
X64250000Y93300000D03*
%TD*%
D19*
%TO.C,D22*%
X23350000Y89750000D03*
X25150000Y89750000D03*
%TD*%
D24*
%TO.C,Q1*%
X35550000Y94800000D03*
X36500000Y94800000D03*
X37450000Y94800000D03*
X37450000Y97200000D03*
X36500000Y97200000D03*
X35550000Y97200000D03*
%TD*%
%TO.C,Q2*%
X38700000Y88300000D03*
X37750000Y88300000D03*
X36800000Y88300000D03*
X36800000Y90700000D03*
X37750000Y90700000D03*
X38700000Y90700000D03*
%TD*%
D23*
%TO.C,Q11*%
X12300000Y95750000D03*
X14200000Y96400000D03*
X14200000Y95100000D03*
%TD*%
D28*
%TO.C,U2*%
G36*
X56354823Y93627836D02*
G01*
X56360153Y93626219D01*
X56365053Y93623600D01*
X56370185Y93619388D01*
X56419388Y93570185D01*
X56423600Y93565053D01*
X56426219Y93560153D01*
X56427836Y93554823D01*
X56428485Y93548236D01*
X56428485Y93501053D01*
X56427836Y93494466D01*
X56426219Y93489136D01*
X56423600Y93484236D01*
X56420068Y93479932D01*
X56415764Y93476400D01*
X56410864Y93473781D01*
X56405534Y93472164D01*
X56398947Y93471515D01*
X55701053Y93471515D01*
X55694466Y93472164D01*
X55689136Y93473781D01*
X55684236Y93476400D01*
X55679932Y93479932D01*
X55676400Y93484236D01*
X55673781Y93489136D01*
X55672164Y93494466D01*
X55671515Y93501053D01*
X55671515Y93598947D01*
X55672164Y93605534D01*
X55673781Y93610864D01*
X55676400Y93615764D01*
X55679932Y93620068D01*
X55684236Y93623600D01*
X55689136Y93626219D01*
X55694466Y93627836D01*
X55701053Y93628485D01*
X56348236Y93628485D01*
X56354823Y93627836D01*
G37*
G36*
G01*
X55770000Y93115000D02*
X55770000Y93185000D01*
G75*
G02*
X55805000Y93220000I35000J0D01*
G01*
X56295000Y93220000D01*
G75*
G02*
X56330000Y93185000I0J-35000D01*
G01*
X56330000Y93115000D01*
G75*
G02*
X56295000Y93080000I-35000J0D01*
G01*
X55805000Y93080000D01*
G75*
G02*
X55770000Y93115000I0J35000D01*
G01*
G37*
G36*
G01*
X55770000Y92715000D02*
X55770000Y92785000D01*
G75*
G02*
X55805000Y92820000I35000J0D01*
G01*
X56295000Y92820000D01*
G75*
G02*
X56330000Y92785000I0J-35000D01*
G01*
X56330000Y92715000D01*
G75*
G02*
X56295000Y92680000I-35000J0D01*
G01*
X55805000Y92680000D01*
G75*
G02*
X55770000Y92715000I0J35000D01*
G01*
G37*
G36*
G01*
X55770000Y92315000D02*
X55770000Y92385000D01*
G75*
G02*
X55805000Y92420000I35000J0D01*
G01*
X56295000Y92420000D01*
G75*
G02*
X56330000Y92385000I0J-35000D01*
G01*
X56330000Y92315000D01*
G75*
G02*
X56295000Y92280000I-35000J0D01*
G01*
X55805000Y92280000D01*
G75*
G02*
X55770000Y92315000I0J35000D01*
G01*
G37*
G36*
X56405534Y92027836D02*
G01*
X56410864Y92026219D01*
X56415764Y92023600D01*
X56420068Y92020068D01*
X56423600Y92015764D01*
X56426219Y92010864D01*
X56427836Y92005534D01*
X56428485Y91998947D01*
X56428485Y91951764D01*
X56427836Y91945177D01*
X56426219Y91939847D01*
X56423600Y91934947D01*
X56419388Y91929815D01*
X56370185Y91880612D01*
X56365053Y91876400D01*
X56360153Y91873781D01*
X56354823Y91872164D01*
X56348236Y91871515D01*
X55701053Y91871515D01*
X55694466Y91872164D01*
X55689136Y91873781D01*
X55684236Y91876400D01*
X55679932Y91879932D01*
X55676400Y91884236D01*
X55673781Y91889136D01*
X55672164Y91894466D01*
X55671515Y91901053D01*
X55671515Y91998947D01*
X55672164Y92005534D01*
X55673781Y92010864D01*
X55676400Y92015764D01*
X55679932Y92020068D01*
X55684236Y92023600D01*
X55689136Y92026219D01*
X55694466Y92027836D01*
X55701053Y92028485D01*
X56398947Y92028485D01*
X56405534Y92027836D01*
G37*
G36*
X56755534Y91677836D02*
G01*
X56760864Y91676219D01*
X56765764Y91673600D01*
X56770068Y91670068D01*
X56773600Y91665764D01*
X56776219Y91660864D01*
X56777836Y91655534D01*
X56778485Y91648947D01*
X56778485Y90951053D01*
X56777836Y90944466D01*
X56776219Y90939136D01*
X56773600Y90934236D01*
X56770068Y90929932D01*
X56765764Y90926400D01*
X56760864Y90923781D01*
X56755534Y90922164D01*
X56748947Y90921515D01*
X56651053Y90921515D01*
X56644466Y90922164D01*
X56639136Y90923781D01*
X56634236Y90926400D01*
X56629932Y90929932D01*
X56626400Y90934236D01*
X56623781Y90939136D01*
X56622164Y90944466D01*
X56621515Y90951053D01*
X56621515Y91598236D01*
X56622164Y91604823D01*
X56623781Y91610153D01*
X56626400Y91615053D01*
X56630612Y91620185D01*
X56679815Y91669388D01*
X56684947Y91673600D01*
X56689847Y91676219D01*
X56695177Y91677836D01*
X56701764Y91678485D01*
X56748947Y91678485D01*
X56755534Y91677836D01*
G37*
G36*
G01*
X57030000Y91055000D02*
X57030000Y91545000D01*
G75*
G02*
X57065000Y91580000I35000J0D01*
G01*
X57135000Y91580000D01*
G75*
G02*
X57170000Y91545000I0J-35000D01*
G01*
X57170000Y91055000D01*
G75*
G02*
X57135000Y91020000I-35000J0D01*
G01*
X57065000Y91020000D01*
G75*
G02*
X57030000Y91055000I0J35000D01*
G01*
G37*
G36*
G01*
X57430000Y91055000D02*
X57430000Y91545000D01*
G75*
G02*
X57465000Y91580000I35000J0D01*
G01*
X57535000Y91580000D01*
G75*
G02*
X57570000Y91545000I0J-35000D01*
G01*
X57570000Y91055000D01*
G75*
G02*
X57535000Y91020000I-35000J0D01*
G01*
X57465000Y91020000D01*
G75*
G02*
X57430000Y91055000I0J35000D01*
G01*
G37*
G36*
G01*
X57830000Y91055000D02*
X57830000Y91545000D01*
G75*
G02*
X57865000Y91580000I35000J0D01*
G01*
X57935000Y91580000D01*
G75*
G02*
X57970000Y91545000I0J-35000D01*
G01*
X57970000Y91055000D01*
G75*
G02*
X57935000Y91020000I-35000J0D01*
G01*
X57865000Y91020000D01*
G75*
G02*
X57830000Y91055000I0J35000D01*
G01*
G37*
G36*
X58304823Y91677836D02*
G01*
X58310153Y91676219D01*
X58315053Y91673600D01*
X58320185Y91669388D01*
X58369388Y91620185D01*
X58373600Y91615053D01*
X58376219Y91610153D01*
X58377836Y91604823D01*
X58378485Y91598236D01*
X58378485Y90951053D01*
X58377836Y90944466D01*
X58376219Y90939136D01*
X58373600Y90934236D01*
X58370068Y90929932D01*
X58365764Y90926400D01*
X58360864Y90923781D01*
X58355534Y90922164D01*
X58348947Y90921515D01*
X58251053Y90921515D01*
X58244466Y90922164D01*
X58239136Y90923781D01*
X58234236Y90926400D01*
X58229932Y90929932D01*
X58226400Y90934236D01*
X58223781Y90939136D01*
X58222164Y90944466D01*
X58221515Y90951053D01*
X58221515Y91648947D01*
X58222164Y91655534D01*
X58223781Y91660864D01*
X58226400Y91665764D01*
X58229932Y91670068D01*
X58234236Y91673600D01*
X58239136Y91676219D01*
X58244466Y91677836D01*
X58251053Y91678485D01*
X58298236Y91678485D01*
X58304823Y91677836D01*
G37*
G36*
X59305534Y92027836D02*
G01*
X59310864Y92026219D01*
X59315764Y92023600D01*
X59320068Y92020068D01*
X59323600Y92015764D01*
X59326219Y92010864D01*
X59327836Y92005534D01*
X59328485Y91998947D01*
X59328485Y91901053D01*
X59327836Y91894466D01*
X59326219Y91889136D01*
X59323600Y91884236D01*
X59320068Y91879932D01*
X59315764Y91876400D01*
X59310864Y91873781D01*
X59305534Y91872164D01*
X59298947Y91871515D01*
X58651764Y91871515D01*
X58645177Y91872164D01*
X58639847Y91873781D01*
X58634947Y91876400D01*
X58629815Y91880612D01*
X58580612Y91929815D01*
X58576400Y91934947D01*
X58573781Y91939847D01*
X58572164Y91945177D01*
X58571515Y91951764D01*
X58571515Y91998947D01*
X58572164Y92005534D01*
X58573781Y92010864D01*
X58576400Y92015764D01*
X58579932Y92020068D01*
X58584236Y92023600D01*
X58589136Y92026219D01*
X58594466Y92027836D01*
X58601053Y92028485D01*
X59298947Y92028485D01*
X59305534Y92027836D01*
G37*
G36*
G01*
X58670000Y92315000D02*
X58670000Y92385000D01*
G75*
G02*
X58705000Y92420000I35000J0D01*
G01*
X59195000Y92420000D01*
G75*
G02*
X59230000Y92385000I0J-35000D01*
G01*
X59230000Y92315000D01*
G75*
G02*
X59195000Y92280000I-35000J0D01*
G01*
X58705000Y92280000D01*
G75*
G02*
X58670000Y92315000I0J35000D01*
G01*
G37*
G36*
G01*
X58670000Y92715000D02*
X58670000Y92785000D01*
G75*
G02*
X58705000Y92820000I35000J0D01*
G01*
X59195000Y92820000D01*
G75*
G02*
X59230000Y92785000I0J-35000D01*
G01*
X59230000Y92715000D01*
G75*
G02*
X59195000Y92680000I-35000J0D01*
G01*
X58705000Y92680000D01*
G75*
G02*
X58670000Y92715000I0J35000D01*
G01*
G37*
G36*
G01*
X58670000Y93115000D02*
X58670000Y93185000D01*
G75*
G02*
X58705000Y93220000I35000J0D01*
G01*
X59195000Y93220000D01*
G75*
G02*
X59230000Y93185000I0J-35000D01*
G01*
X59230000Y93115000D01*
G75*
G02*
X59195000Y93080000I-35000J0D01*
G01*
X58705000Y93080000D01*
G75*
G02*
X58670000Y93115000I0J35000D01*
G01*
G37*
G36*
X59305534Y93627836D02*
G01*
X59310864Y93626219D01*
X59315764Y93623600D01*
X59320068Y93620068D01*
X59323600Y93615764D01*
X59326219Y93610864D01*
X59327836Y93605534D01*
X59328485Y93598947D01*
X59328485Y93501053D01*
X59327836Y93494466D01*
X59326219Y93489136D01*
X59323600Y93484236D01*
X59320068Y93479932D01*
X59315764Y93476400D01*
X59310864Y93473781D01*
X59305534Y93472164D01*
X59298947Y93471515D01*
X58601053Y93471515D01*
X58594466Y93472164D01*
X58589136Y93473781D01*
X58584236Y93476400D01*
X58579932Y93479932D01*
X58576400Y93484236D01*
X58573781Y93489136D01*
X58572164Y93494466D01*
X58571515Y93501053D01*
X58571515Y93548236D01*
X58572164Y93554823D01*
X58573781Y93560153D01*
X58576400Y93565053D01*
X58580612Y93570185D01*
X58629815Y93619388D01*
X58634947Y93623600D01*
X58639847Y93626219D01*
X58645177Y93627836D01*
X58651764Y93628485D01*
X59298947Y93628485D01*
X59305534Y93627836D01*
G37*
G36*
X58355534Y94577836D02*
G01*
X58360864Y94576219D01*
X58365764Y94573600D01*
X58370068Y94570068D01*
X58373600Y94565764D01*
X58376219Y94560864D01*
X58377836Y94555534D01*
X58378485Y94548947D01*
X58378485Y93901764D01*
X58377836Y93895177D01*
X58376219Y93889847D01*
X58373600Y93884947D01*
X58369388Y93879815D01*
X58320185Y93830612D01*
X58315053Y93826400D01*
X58310153Y93823781D01*
X58304823Y93822164D01*
X58298236Y93821515D01*
X58251053Y93821515D01*
X58244466Y93822164D01*
X58239136Y93823781D01*
X58234236Y93826400D01*
X58229932Y93829932D01*
X58226400Y93834236D01*
X58223781Y93839136D01*
X58222164Y93844466D01*
X58221515Y93851053D01*
X58221515Y94548947D01*
X58222164Y94555534D01*
X58223781Y94560864D01*
X58226400Y94565764D01*
X58229932Y94570068D01*
X58234236Y94573600D01*
X58239136Y94576219D01*
X58244466Y94577836D01*
X58251053Y94578485D01*
X58348947Y94578485D01*
X58355534Y94577836D01*
G37*
G36*
G01*
X57830000Y93955000D02*
X57830000Y94445000D01*
G75*
G02*
X57865000Y94480000I35000J0D01*
G01*
X57935000Y94480000D01*
G75*
G02*
X57970000Y94445000I0J-35000D01*
G01*
X57970000Y93955000D01*
G75*
G02*
X57935000Y93920000I-35000J0D01*
G01*
X57865000Y93920000D01*
G75*
G02*
X57830000Y93955000I0J35000D01*
G01*
G37*
G36*
G01*
X57430000Y93955000D02*
X57430000Y94445000D01*
G75*
G02*
X57465000Y94480000I35000J0D01*
G01*
X57535000Y94480000D01*
G75*
G02*
X57570000Y94445000I0J-35000D01*
G01*
X57570000Y93955000D01*
G75*
G02*
X57535000Y93920000I-35000J0D01*
G01*
X57465000Y93920000D01*
G75*
G02*
X57430000Y93955000I0J35000D01*
G01*
G37*
G36*
G01*
X57030000Y93955000D02*
X57030000Y94445000D01*
G75*
G02*
X57065000Y94480000I35000J0D01*
G01*
X57135000Y94480000D01*
G75*
G02*
X57170000Y94445000I0J-35000D01*
G01*
X57170000Y93955000D01*
G75*
G02*
X57135000Y93920000I-35000J0D01*
G01*
X57065000Y93920000D01*
G75*
G02*
X57030000Y93955000I0J35000D01*
G01*
G37*
G36*
X56755534Y94577836D02*
G01*
X56760864Y94576219D01*
X56765764Y94573600D01*
X56770068Y94570068D01*
X56773600Y94565764D01*
X56776219Y94560864D01*
X56777836Y94555534D01*
X56778485Y94548947D01*
X56778485Y93851053D01*
X56777836Y93844466D01*
X56776219Y93839136D01*
X56773600Y93834236D01*
X56770068Y93829932D01*
X56765764Y93826400D01*
X56760864Y93823781D01*
X56755534Y93822164D01*
X56748947Y93821515D01*
X56701764Y93821515D01*
X56695177Y93822164D01*
X56689847Y93823781D01*
X56684947Y93826400D01*
X56679815Y93830612D01*
X56630612Y93879815D01*
X56626400Y93884947D01*
X56623781Y93889847D01*
X56622164Y93895177D01*
X56621515Y93901764D01*
X56621515Y94548947D01*
X56622164Y94555534D01*
X56623781Y94560864D01*
X56626400Y94565764D01*
X56629932Y94570068D01*
X56634236Y94573600D01*
X56639136Y94576219D01*
X56644466Y94577836D01*
X56651053Y94578485D01*
X56748947Y94578485D01*
X56755534Y94577836D01*
G37*
G36*
G01*
X56730000Y93002500D02*
X56730000Y93347500D01*
G75*
G02*
X56902500Y93520000I172500J0D01*
G01*
X57247500Y93520000D01*
G75*
G02*
X57420000Y93347500I0J-172500D01*
G01*
X57420000Y93002500D01*
G75*
G02*
X57247500Y92830000I-172500J0D01*
G01*
X56902500Y92830000D01*
G75*
G02*
X56730000Y93002500I0J172500D01*
G01*
G37*
G36*
G01*
X56730000Y92152500D02*
X56730000Y92497500D01*
G75*
G02*
X56902500Y92670000I172500J0D01*
G01*
X57247500Y92670000D01*
G75*
G02*
X57420000Y92497500I0J-172500D01*
G01*
X57420000Y92152500D01*
G75*
G02*
X57247500Y91980000I-172500J0D01*
G01*
X56902500Y91980000D01*
G75*
G02*
X56730000Y92152500I0J172500D01*
G01*
G37*
G36*
G01*
X57580000Y93002500D02*
X57580000Y93347500D01*
G75*
G02*
X57752500Y93520000I172500J0D01*
G01*
X58097500Y93520000D01*
G75*
G02*
X58270000Y93347500I0J-172500D01*
G01*
X58270000Y93002500D01*
G75*
G02*
X58097500Y92830000I-172500J0D01*
G01*
X57752500Y92830000D01*
G75*
G02*
X57580000Y93002500I0J172500D01*
G01*
G37*
G36*
G01*
X57580000Y92152500D02*
X57580000Y92497500D01*
G75*
G02*
X57752500Y92670000I172500J0D01*
G01*
X58097500Y92670000D01*
G75*
G02*
X58270000Y92497500I0J-172500D01*
G01*
X58270000Y92152500D01*
G75*
G02*
X58097500Y91980000I-172500J0D01*
G01*
X57752500Y91980000D01*
G75*
G02*
X57580000Y92152500I0J172500D01*
G01*
G37*
%TD*%
D25*
%TO.C,Q6*%
X29000000Y91250000D03*
X28500000Y91250000D03*
X28000000Y91250000D03*
X28000000Y92750000D03*
X28500000Y92750000D03*
X29000000Y92750000D03*
%TD*%
D18*
%TO.C,Q8*%
X25250000Y92000000D03*
X25250000Y91500000D03*
X25250000Y91000000D03*
X26750000Y91000000D03*
X26750000Y91500000D03*
X26750000Y92000000D03*
%TD*%
%TO.C,Q21*%
X21500000Y91250000D03*
X21500000Y91750000D03*
X21500000Y92250000D03*
X20000000Y92250000D03*
X20000000Y91750000D03*
X20000000Y91250000D03*
%TD*%
D14*
%TO.C,R3*%
X37825000Y93500000D03*
X36175000Y93500000D03*
%TD*%
%TO.C,R4*%
X38825000Y92000000D03*
X37175000Y92000000D03*
%TD*%
D13*
%TO.C,R5*%
X38750000Y96575000D03*
X38750000Y94925000D03*
%TD*%
D14*
%TO.C,R6*%
X41575000Y91500000D03*
X39925000Y91500000D03*
%TD*%
D13*
%TO.C,R14*%
X30200000Y93225000D03*
X30200000Y91575000D03*
%TD*%
D14*
%TO.C,R22*%
X62625000Y93300000D03*
X60975000Y93300000D03*
%TD*%
D12*
%TO.C,R31*%
X19975000Y93250000D03*
X21025000Y93250000D03*
%TD*%
D11*
%TO.C,R32*%
X18750000Y93225000D03*
X18750000Y94275000D03*
%TD*%
%TO.C,R33*%
X19000000Y92275000D03*
X19000000Y91225000D03*
%TD*%
D12*
%TO.C,R34*%
X22275000Y89250000D03*
X21225000Y89250000D03*
%TD*%
%TO.C,R35*%
X21225000Y90250000D03*
X22275000Y90250000D03*
%TD*%
%TO.C,R36*%
X23225000Y91000000D03*
X24275000Y91000000D03*
%TD*%
%TO.C,R37*%
X20475000Y94250000D03*
X21525000Y94250000D03*
%TD*%
%TO.C,R38*%
X21475000Y95300000D03*
X22525000Y95300000D03*
%TD*%
D11*
%TO.C,R13*%
X60300000Y91175000D03*
X60300000Y92225000D03*
%TD*%
%TO.C,R7*%
X41750000Y93775000D03*
X41750000Y92725000D03*
%TD*%
D12*
%TO.C,R8*%
X41375000Y94750000D03*
X42425000Y94750000D03*
%TD*%
D11*
%TO.C,R11*%
X45500000Y94775000D03*
X45500000Y93725000D03*
%TD*%
D13*
%TO.C,R9*%
X44250000Y95075000D03*
X44250000Y93425000D03*
%TD*%
%TO.C,R10*%
X44250000Y92075000D03*
X44250000Y90425000D03*
%TD*%
D17*
%TO.C,C1*%
X17500000Y92275000D03*
D16*
X17500000Y91225000D03*
%TD*%
D17*
%TO.C,C5*%
X51100000Y93425000D03*
D16*
X51100000Y92375000D03*
%TD*%
D17*
%TO.C,C7*%
X43000000Y90975000D03*
D16*
X43000000Y92025000D03*
%TD*%
%TO.C,C11*%
X17750000Y93225000D03*
D17*
X17750000Y94275000D03*
%TD*%
D16*
%TO.C,C12*%
X23225000Y92000000D03*
D15*
X24275000Y92000000D03*
%TD*%
D12*
%TO.C,R15*%
X27025000Y93000000D03*
X25975000Y93000000D03*
%TD*%
D11*
%TO.C,R12*%
X31500000Y92475000D03*
X31500000Y93525000D03*
%TD*%
D12*
%TO.C,R1*%
X53575000Y94600000D03*
X54625000Y94600000D03*
%TD*%
D11*
%TO.C,R2*%
X53600000Y91825000D03*
X53600000Y90775000D03*
%TD*%
D18*
%TO.C,Q13*%
X58850000Y89000000D03*
X58850000Y89500000D03*
X58850000Y90000000D03*
X60350000Y90000000D03*
X60350000Y89500000D03*
X60350000Y89000000D03*
%TD*%
%TO.C,Q14*%
X62950000Y95500000D03*
X62950000Y96000000D03*
X62950000Y96500000D03*
X61450000Y96500000D03*
X61450000Y96000000D03*
X61450000Y95500000D03*
%TD*%
D11*
%TO.C,R23*%
X63100000Y90225000D03*
X63100000Y89175000D03*
%TD*%
D12*
%TO.C,R24*%
X57825000Y89900000D03*
X56775000Y89900000D03*
%TD*%
%TO.C,R25*%
X59275000Y95100000D03*
X60325000Y95100000D03*
%TD*%
%TO.C,R26*%
X60125000Y96400000D03*
X59075000Y96400000D03*
%TD*%
D18*
%TO.C,Q12*%
X61350000Y92200000D03*
X61350000Y91700000D03*
X61350000Y91200000D03*
X62850000Y91200000D03*
X62850000Y91700000D03*
X62850000Y92200000D03*
%TD*%
D19*
%TO.C,C4*%
X49300000Y91725000D03*
X49300000Y93275000D03*
%TD*%
D20*
%TO.C,D21*%
X14400000Y93250000D03*
X16100000Y93250000D03*
%TD*%
D18*
%TO.C,Q22*%
X24000000Y93250000D03*
X24000000Y93750000D03*
X24000000Y94250000D03*
X22500000Y94250000D03*
X22500000Y93750000D03*
X22500000Y93250000D03*
%TD*%
D12*
%TO.C,R16*%
X45275000Y92750000D03*
X46325000Y92750000D03*
%TD*%
%TO.C,R17*%
X54325000Y93400000D03*
X53275000Y93400000D03*
%TD*%
D11*
%TO.C,R18*%
X54800000Y90675000D03*
X54800000Y91725000D03*
%TD*%
M02*
