%TF.GenerationSoftware,KiCad,Pcbnew,(5.1.9)-1*%
%TF.CreationDate,2021-10-10T13:17:48+09:00*%
%TF.ProjectId,K7012RA,4b373031-3252-4412-9e6b-696361645f70,rev?*%
%TF.SameCoordinates,PX6b49d20PY8b79910*%
%TF.FileFunction,Legend,Bot*%
%TF.FilePolarity,Positive*%
%FSLAX46Y46*%
G04 Gerber Fmt 4.6, Leading zero omitted, Abs format (unit mm)*
G04 Created by KiCad (PCBNEW (5.1.9)-1) date 2021-10-10 13:17:48*
%MOMM*%
%LPD*%
G01*
G04 APERTURE LIST*
%ADD10C,0.180000*%
%ADD11C,0.150000*%
%ADD12C,2.050000*%
G04 APERTURE END LIST*
D10*
X45192857Y4342858D02*
X45492857Y4771429D01*
X45707142Y4342858D02*
X45707142Y5242858D01*
X45364285Y5242858D01*
X45278571Y5200000D01*
X45235714Y5157143D01*
X45192857Y5071429D01*
X45192857Y4942858D01*
X45235714Y4857143D01*
X45278571Y4814286D01*
X45364285Y4771429D01*
X45707142Y4771429D01*
X44464285Y4385715D02*
X44550000Y4342858D01*
X44721428Y4342858D01*
X44807142Y4385715D01*
X44850000Y4471429D01*
X44850000Y4814286D01*
X44807142Y4900000D01*
X44721428Y4942858D01*
X44550000Y4942858D01*
X44464285Y4900000D01*
X44421428Y4814286D01*
X44421428Y4728572D01*
X44850000Y4642858D01*
X44121428Y4942858D02*
X43907142Y4342858D01*
X43692857Y4942858D01*
X43350000Y4428572D02*
X43307142Y4385715D01*
X43350000Y4342858D01*
X43392857Y4385715D01*
X43350000Y4428572D01*
X43350000Y4342858D01*
X42450000Y4342858D02*
X42964285Y4342858D01*
X42707142Y4342858D02*
X42707142Y5242858D01*
X42792857Y5114286D01*
X42878571Y5028572D01*
X42964285Y4985715D01*
X45192857Y15342858D02*
X45492857Y15771429D01*
X45707142Y15342858D02*
X45707142Y16242858D01*
X45364285Y16242858D01*
X45278571Y16200000D01*
X45235714Y16157143D01*
X45192857Y16071429D01*
X45192857Y15942858D01*
X45235714Y15857143D01*
X45278571Y15814286D01*
X45364285Y15771429D01*
X45707142Y15771429D01*
X44464285Y15385715D02*
X44550000Y15342858D01*
X44721428Y15342858D01*
X44807142Y15385715D01*
X44850000Y15471429D01*
X44850000Y15814286D01*
X44807142Y15900000D01*
X44721428Y15942858D01*
X44550000Y15942858D01*
X44464285Y15900000D01*
X44421428Y15814286D01*
X44421428Y15728572D01*
X44850000Y15642858D01*
X44121428Y15942858D02*
X43907142Y15342858D01*
X43692857Y15942858D01*
X43350000Y15428572D02*
X43307142Y15385715D01*
X43350000Y15342858D01*
X43392857Y15385715D01*
X43350000Y15428572D01*
X43350000Y15342858D01*
X42450000Y15342858D02*
X42964285Y15342858D01*
X42707142Y15342858D02*
X42707142Y16242858D01*
X42792857Y16114286D01*
X42878571Y16028572D01*
X42964285Y15985715D01*
X45192857Y26342858D02*
X45492857Y26771429D01*
X45707142Y26342858D02*
X45707142Y27242858D01*
X45364285Y27242858D01*
X45278571Y27200000D01*
X45235714Y27157143D01*
X45192857Y27071429D01*
X45192857Y26942858D01*
X45235714Y26857143D01*
X45278571Y26814286D01*
X45364285Y26771429D01*
X45707142Y26771429D01*
X44464285Y26385715D02*
X44550000Y26342858D01*
X44721428Y26342858D01*
X44807142Y26385715D01*
X44850000Y26471429D01*
X44850000Y26814286D01*
X44807142Y26900000D01*
X44721428Y26942858D01*
X44550000Y26942858D01*
X44464285Y26900000D01*
X44421428Y26814286D01*
X44421428Y26728572D01*
X44850000Y26642858D01*
X44121428Y26942858D02*
X43907142Y26342858D01*
X43692857Y26942858D01*
X43350000Y26428572D02*
X43307142Y26385715D01*
X43350000Y26342858D01*
X43392857Y26385715D01*
X43350000Y26428572D01*
X43350000Y26342858D01*
X42450000Y26342858D02*
X42964285Y26342858D01*
X42707142Y26342858D02*
X42707142Y27242858D01*
X42792857Y27114286D01*
X42878571Y27028572D01*
X42964285Y26985715D01*
X45192857Y37342858D02*
X45492857Y37771429D01*
X45707142Y37342858D02*
X45707142Y38242858D01*
X45364285Y38242858D01*
X45278571Y38200000D01*
X45235714Y38157143D01*
X45192857Y38071429D01*
X45192857Y37942858D01*
X45235714Y37857143D01*
X45278571Y37814286D01*
X45364285Y37771429D01*
X45707142Y37771429D01*
X44464285Y37385715D02*
X44550000Y37342858D01*
X44721428Y37342858D01*
X44807142Y37385715D01*
X44850000Y37471429D01*
X44850000Y37814286D01*
X44807142Y37900000D01*
X44721428Y37942858D01*
X44550000Y37942858D01*
X44464285Y37900000D01*
X44421428Y37814286D01*
X44421428Y37728572D01*
X44850000Y37642858D01*
X44121428Y37942858D02*
X43907142Y37342858D01*
X43692857Y37942858D01*
X43350000Y37428572D02*
X43307142Y37385715D01*
X43350000Y37342858D01*
X43392857Y37385715D01*
X43350000Y37428572D01*
X43350000Y37342858D01*
X42450000Y37342858D02*
X42964285Y37342858D01*
X42707142Y37342858D02*
X42707142Y38242858D01*
X42792857Y38114286D01*
X42878571Y38028572D01*
X42964285Y37985715D01*
X45192857Y48342858D02*
X45492857Y48771429D01*
X45707142Y48342858D02*
X45707142Y49242858D01*
X45364285Y49242858D01*
X45278571Y49200000D01*
X45235714Y49157143D01*
X45192857Y49071429D01*
X45192857Y48942858D01*
X45235714Y48857143D01*
X45278571Y48814286D01*
X45364285Y48771429D01*
X45707142Y48771429D01*
X44464285Y48385715D02*
X44550000Y48342858D01*
X44721428Y48342858D01*
X44807142Y48385715D01*
X44850000Y48471429D01*
X44850000Y48814286D01*
X44807142Y48900000D01*
X44721428Y48942858D01*
X44550000Y48942858D01*
X44464285Y48900000D01*
X44421428Y48814286D01*
X44421428Y48728572D01*
X44850000Y48642858D01*
X44121428Y48942858D02*
X43907142Y48342858D01*
X43692857Y48942858D01*
X43350000Y48428572D02*
X43307142Y48385715D01*
X43350000Y48342858D01*
X43392857Y48385715D01*
X43350000Y48428572D01*
X43350000Y48342858D01*
X42450000Y48342858D02*
X42964285Y48342858D01*
X42707142Y48342858D02*
X42707142Y49242858D01*
X42792857Y49114286D01*
X42878571Y49028572D01*
X42964285Y48985715D01*
X45192857Y59342858D02*
X45492857Y59771429D01*
X45707142Y59342858D02*
X45707142Y60242858D01*
X45364285Y60242858D01*
X45278571Y60200000D01*
X45235714Y60157143D01*
X45192857Y60071429D01*
X45192857Y59942858D01*
X45235714Y59857143D01*
X45278571Y59814286D01*
X45364285Y59771429D01*
X45707142Y59771429D01*
X44464285Y59385715D02*
X44550000Y59342858D01*
X44721428Y59342858D01*
X44807142Y59385715D01*
X44850000Y59471429D01*
X44850000Y59814286D01*
X44807142Y59900000D01*
X44721428Y59942858D01*
X44550000Y59942858D01*
X44464285Y59900000D01*
X44421428Y59814286D01*
X44421428Y59728572D01*
X44850000Y59642858D01*
X44121428Y59942858D02*
X43907142Y59342858D01*
X43692857Y59942858D01*
X43350000Y59428572D02*
X43307142Y59385715D01*
X43350000Y59342858D01*
X43392857Y59385715D01*
X43350000Y59428572D01*
X43350000Y59342858D01*
X42450000Y59342858D02*
X42964285Y59342858D01*
X42707142Y59342858D02*
X42707142Y60242858D01*
X42792857Y60114286D01*
X42878571Y60028572D01*
X42964285Y59985715D01*
X45192857Y70342858D02*
X45492857Y70771429D01*
X45707142Y70342858D02*
X45707142Y71242858D01*
X45364285Y71242858D01*
X45278571Y71200000D01*
X45235714Y71157143D01*
X45192857Y71071429D01*
X45192857Y70942858D01*
X45235714Y70857143D01*
X45278571Y70814286D01*
X45364285Y70771429D01*
X45707142Y70771429D01*
X44464285Y70385715D02*
X44550000Y70342858D01*
X44721428Y70342858D01*
X44807142Y70385715D01*
X44850000Y70471429D01*
X44850000Y70814286D01*
X44807142Y70900000D01*
X44721428Y70942858D01*
X44550000Y70942858D01*
X44464285Y70900000D01*
X44421428Y70814286D01*
X44421428Y70728572D01*
X44850000Y70642858D01*
X44121428Y70942858D02*
X43907142Y70342858D01*
X43692857Y70942858D01*
X43350000Y70428572D02*
X43307142Y70385715D01*
X43350000Y70342858D01*
X43392857Y70385715D01*
X43350000Y70428572D01*
X43350000Y70342858D01*
X42450000Y70342858D02*
X42964285Y70342858D01*
X42707142Y70342858D02*
X42707142Y71242858D01*
X42792857Y71114286D01*
X42878571Y71028572D01*
X42964285Y70985715D01*
X45192857Y81342858D02*
X45492857Y81771429D01*
X45707142Y81342858D02*
X45707142Y82242858D01*
X45364285Y82242858D01*
X45278571Y82200000D01*
X45235714Y82157143D01*
X45192857Y82071429D01*
X45192857Y81942858D01*
X45235714Y81857143D01*
X45278571Y81814286D01*
X45364285Y81771429D01*
X45707142Y81771429D01*
X44464285Y81385715D02*
X44550000Y81342858D01*
X44721428Y81342858D01*
X44807142Y81385715D01*
X44850000Y81471429D01*
X44850000Y81814286D01*
X44807142Y81900000D01*
X44721428Y81942858D01*
X44550000Y81942858D01*
X44464285Y81900000D01*
X44421428Y81814286D01*
X44421428Y81728572D01*
X44850000Y81642858D01*
X44121428Y81942858D02*
X43907142Y81342858D01*
X43692857Y81942858D01*
X43350000Y81428572D02*
X43307142Y81385715D01*
X43350000Y81342858D01*
X43392857Y81385715D01*
X43350000Y81428572D01*
X43350000Y81342858D01*
X42450000Y81342858D02*
X42964285Y81342858D01*
X42707142Y81342858D02*
X42707142Y82242858D01*
X42792857Y82114286D01*
X42878571Y82028572D01*
X42964285Y81985715D01*
X45685714Y5642858D02*
X45685714Y6542858D01*
X45171428Y5642858D02*
X45557142Y6157143D01*
X45171428Y6542858D02*
X45685714Y6028572D01*
X44871428Y6542858D02*
X44271428Y6542858D01*
X44657142Y5642858D01*
X43757142Y6542858D02*
X43671428Y6542858D01*
X43585714Y6500000D01*
X43542857Y6457143D01*
X43500000Y6371429D01*
X43457142Y6200000D01*
X43457142Y5985715D01*
X43500000Y5814286D01*
X43542857Y5728572D01*
X43585714Y5685715D01*
X43671428Y5642858D01*
X43757142Y5642858D01*
X43842857Y5685715D01*
X43885714Y5728572D01*
X43928571Y5814286D01*
X43971428Y5985715D01*
X43971428Y6200000D01*
X43928571Y6371429D01*
X43885714Y6457143D01*
X43842857Y6500000D01*
X43757142Y6542858D01*
X42600000Y5642858D02*
X43114285Y5642858D01*
X42857142Y5642858D02*
X42857142Y6542858D01*
X42942857Y6414286D01*
X43028571Y6328572D01*
X43114285Y6285715D01*
X42257142Y6457143D02*
X42214285Y6500000D01*
X42128571Y6542858D01*
X41914285Y6542858D01*
X41828571Y6500000D01*
X41785714Y6457143D01*
X41742857Y6371429D01*
X41742857Y6285715D01*
X41785714Y6157143D01*
X42300000Y5642858D01*
X41742857Y5642858D01*
X40842857Y5642858D02*
X41142857Y6071429D01*
X41357142Y5642858D02*
X41357142Y6542858D01*
X41014285Y6542858D01*
X40928571Y6500000D01*
X40885714Y6457143D01*
X40842857Y6371429D01*
X40842857Y6242858D01*
X40885714Y6157143D01*
X40928571Y6114286D01*
X41014285Y6071429D01*
X41357142Y6071429D01*
X40500000Y5900000D02*
X40071428Y5900000D01*
X40585714Y5642858D02*
X40285714Y6542858D01*
X39985714Y5642858D01*
X45685714Y16642858D02*
X45685714Y17542858D01*
X45171428Y16642858D02*
X45557142Y17157143D01*
X45171428Y17542858D02*
X45685714Y17028572D01*
X44871428Y17542858D02*
X44271428Y17542858D01*
X44657142Y16642858D01*
X43757142Y17542858D02*
X43671428Y17542858D01*
X43585714Y17500000D01*
X43542857Y17457143D01*
X43500000Y17371429D01*
X43457142Y17200000D01*
X43457142Y16985715D01*
X43500000Y16814286D01*
X43542857Y16728572D01*
X43585714Y16685715D01*
X43671428Y16642858D01*
X43757142Y16642858D01*
X43842857Y16685715D01*
X43885714Y16728572D01*
X43928571Y16814286D01*
X43971428Y16985715D01*
X43971428Y17200000D01*
X43928571Y17371429D01*
X43885714Y17457143D01*
X43842857Y17500000D01*
X43757142Y17542858D01*
X42600000Y16642858D02*
X43114285Y16642858D01*
X42857142Y16642858D02*
X42857142Y17542858D01*
X42942857Y17414286D01*
X43028571Y17328572D01*
X43114285Y17285715D01*
X42257142Y17457143D02*
X42214285Y17500000D01*
X42128571Y17542858D01*
X41914285Y17542858D01*
X41828571Y17500000D01*
X41785714Y17457143D01*
X41742857Y17371429D01*
X41742857Y17285715D01*
X41785714Y17157143D01*
X42300000Y16642858D01*
X41742857Y16642858D01*
X40842857Y16642858D02*
X41142857Y17071429D01*
X41357142Y16642858D02*
X41357142Y17542858D01*
X41014285Y17542858D01*
X40928571Y17500000D01*
X40885714Y17457143D01*
X40842857Y17371429D01*
X40842857Y17242858D01*
X40885714Y17157143D01*
X40928571Y17114286D01*
X41014285Y17071429D01*
X41357142Y17071429D01*
X40500000Y16900000D02*
X40071428Y16900000D01*
X40585714Y16642858D02*
X40285714Y17542858D01*
X39985714Y16642858D01*
X45685714Y27642858D02*
X45685714Y28542858D01*
X45171428Y27642858D02*
X45557142Y28157143D01*
X45171428Y28542858D02*
X45685714Y28028572D01*
X44871428Y28542858D02*
X44271428Y28542858D01*
X44657142Y27642858D01*
X43757142Y28542858D02*
X43671428Y28542858D01*
X43585714Y28500000D01*
X43542857Y28457143D01*
X43500000Y28371429D01*
X43457142Y28200000D01*
X43457142Y27985715D01*
X43500000Y27814286D01*
X43542857Y27728572D01*
X43585714Y27685715D01*
X43671428Y27642858D01*
X43757142Y27642858D01*
X43842857Y27685715D01*
X43885714Y27728572D01*
X43928571Y27814286D01*
X43971428Y27985715D01*
X43971428Y28200000D01*
X43928571Y28371429D01*
X43885714Y28457143D01*
X43842857Y28500000D01*
X43757142Y28542858D01*
X42600000Y27642858D02*
X43114285Y27642858D01*
X42857142Y27642858D02*
X42857142Y28542858D01*
X42942857Y28414286D01*
X43028571Y28328572D01*
X43114285Y28285715D01*
X42257142Y28457143D02*
X42214285Y28500000D01*
X42128571Y28542858D01*
X41914285Y28542858D01*
X41828571Y28500000D01*
X41785714Y28457143D01*
X41742857Y28371429D01*
X41742857Y28285715D01*
X41785714Y28157143D01*
X42300000Y27642858D01*
X41742857Y27642858D01*
X40842857Y27642858D02*
X41142857Y28071429D01*
X41357142Y27642858D02*
X41357142Y28542858D01*
X41014285Y28542858D01*
X40928571Y28500000D01*
X40885714Y28457143D01*
X40842857Y28371429D01*
X40842857Y28242858D01*
X40885714Y28157143D01*
X40928571Y28114286D01*
X41014285Y28071429D01*
X41357142Y28071429D01*
X40500000Y27900000D02*
X40071428Y27900000D01*
X40585714Y27642858D02*
X40285714Y28542858D01*
X39985714Y27642858D01*
X45685714Y38642858D02*
X45685714Y39542858D01*
X45171428Y38642858D02*
X45557142Y39157143D01*
X45171428Y39542858D02*
X45685714Y39028572D01*
X44871428Y39542858D02*
X44271428Y39542858D01*
X44657142Y38642858D01*
X43757142Y39542858D02*
X43671428Y39542858D01*
X43585714Y39500000D01*
X43542857Y39457143D01*
X43500000Y39371429D01*
X43457142Y39200000D01*
X43457142Y38985715D01*
X43500000Y38814286D01*
X43542857Y38728572D01*
X43585714Y38685715D01*
X43671428Y38642858D01*
X43757142Y38642858D01*
X43842857Y38685715D01*
X43885714Y38728572D01*
X43928571Y38814286D01*
X43971428Y38985715D01*
X43971428Y39200000D01*
X43928571Y39371429D01*
X43885714Y39457143D01*
X43842857Y39500000D01*
X43757142Y39542858D01*
X42600000Y38642858D02*
X43114285Y38642858D01*
X42857142Y38642858D02*
X42857142Y39542858D01*
X42942857Y39414286D01*
X43028571Y39328572D01*
X43114285Y39285715D01*
X42257142Y39457143D02*
X42214285Y39500000D01*
X42128571Y39542858D01*
X41914285Y39542858D01*
X41828571Y39500000D01*
X41785714Y39457143D01*
X41742857Y39371429D01*
X41742857Y39285715D01*
X41785714Y39157143D01*
X42300000Y38642858D01*
X41742857Y38642858D01*
X40842857Y38642858D02*
X41142857Y39071429D01*
X41357142Y38642858D02*
X41357142Y39542858D01*
X41014285Y39542858D01*
X40928571Y39500000D01*
X40885714Y39457143D01*
X40842857Y39371429D01*
X40842857Y39242858D01*
X40885714Y39157143D01*
X40928571Y39114286D01*
X41014285Y39071429D01*
X41357142Y39071429D01*
X40500000Y38900000D02*
X40071428Y38900000D01*
X40585714Y38642858D02*
X40285714Y39542858D01*
X39985714Y38642858D01*
X45685714Y49642858D02*
X45685714Y50542858D01*
X45171428Y49642858D02*
X45557142Y50157143D01*
X45171428Y50542858D02*
X45685714Y50028572D01*
X44871428Y50542858D02*
X44271428Y50542858D01*
X44657142Y49642858D01*
X43757142Y50542858D02*
X43671428Y50542858D01*
X43585714Y50500000D01*
X43542857Y50457143D01*
X43500000Y50371429D01*
X43457142Y50200000D01*
X43457142Y49985715D01*
X43500000Y49814286D01*
X43542857Y49728572D01*
X43585714Y49685715D01*
X43671428Y49642858D01*
X43757142Y49642858D01*
X43842857Y49685715D01*
X43885714Y49728572D01*
X43928571Y49814286D01*
X43971428Y49985715D01*
X43971428Y50200000D01*
X43928571Y50371429D01*
X43885714Y50457143D01*
X43842857Y50500000D01*
X43757142Y50542858D01*
X42600000Y49642858D02*
X43114285Y49642858D01*
X42857142Y49642858D02*
X42857142Y50542858D01*
X42942857Y50414286D01*
X43028571Y50328572D01*
X43114285Y50285715D01*
X42257142Y50457143D02*
X42214285Y50500000D01*
X42128571Y50542858D01*
X41914285Y50542858D01*
X41828571Y50500000D01*
X41785714Y50457143D01*
X41742857Y50371429D01*
X41742857Y50285715D01*
X41785714Y50157143D01*
X42300000Y49642858D01*
X41742857Y49642858D01*
X40842857Y49642858D02*
X41142857Y50071429D01*
X41357142Y49642858D02*
X41357142Y50542858D01*
X41014285Y50542858D01*
X40928571Y50500000D01*
X40885714Y50457143D01*
X40842857Y50371429D01*
X40842857Y50242858D01*
X40885714Y50157143D01*
X40928571Y50114286D01*
X41014285Y50071429D01*
X41357142Y50071429D01*
X40500000Y49900000D02*
X40071428Y49900000D01*
X40585714Y49642858D02*
X40285714Y50542858D01*
X39985714Y49642858D01*
X45685714Y60642858D02*
X45685714Y61542858D01*
X45171428Y60642858D02*
X45557142Y61157143D01*
X45171428Y61542858D02*
X45685714Y61028572D01*
X44871428Y61542858D02*
X44271428Y61542858D01*
X44657142Y60642858D01*
X43757142Y61542858D02*
X43671428Y61542858D01*
X43585714Y61500000D01*
X43542857Y61457143D01*
X43500000Y61371429D01*
X43457142Y61200000D01*
X43457142Y60985715D01*
X43500000Y60814286D01*
X43542857Y60728572D01*
X43585714Y60685715D01*
X43671428Y60642858D01*
X43757142Y60642858D01*
X43842857Y60685715D01*
X43885714Y60728572D01*
X43928571Y60814286D01*
X43971428Y60985715D01*
X43971428Y61200000D01*
X43928571Y61371429D01*
X43885714Y61457143D01*
X43842857Y61500000D01*
X43757142Y61542858D01*
X42600000Y60642858D02*
X43114285Y60642858D01*
X42857142Y60642858D02*
X42857142Y61542858D01*
X42942857Y61414286D01*
X43028571Y61328572D01*
X43114285Y61285715D01*
X42257142Y61457143D02*
X42214285Y61500000D01*
X42128571Y61542858D01*
X41914285Y61542858D01*
X41828571Y61500000D01*
X41785714Y61457143D01*
X41742857Y61371429D01*
X41742857Y61285715D01*
X41785714Y61157143D01*
X42300000Y60642858D01*
X41742857Y60642858D01*
X40842857Y60642858D02*
X41142857Y61071429D01*
X41357142Y60642858D02*
X41357142Y61542858D01*
X41014285Y61542858D01*
X40928571Y61500000D01*
X40885714Y61457143D01*
X40842857Y61371429D01*
X40842857Y61242858D01*
X40885714Y61157143D01*
X40928571Y61114286D01*
X41014285Y61071429D01*
X41357142Y61071429D01*
X40500000Y60900000D02*
X40071428Y60900000D01*
X40585714Y60642858D02*
X40285714Y61542858D01*
X39985714Y60642858D01*
X45685714Y71642858D02*
X45685714Y72542858D01*
X45171428Y71642858D02*
X45557142Y72157143D01*
X45171428Y72542858D02*
X45685714Y72028572D01*
X44871428Y72542858D02*
X44271428Y72542858D01*
X44657142Y71642858D01*
X43757142Y72542858D02*
X43671428Y72542858D01*
X43585714Y72500000D01*
X43542857Y72457143D01*
X43500000Y72371429D01*
X43457142Y72200000D01*
X43457142Y71985715D01*
X43500000Y71814286D01*
X43542857Y71728572D01*
X43585714Y71685715D01*
X43671428Y71642858D01*
X43757142Y71642858D01*
X43842857Y71685715D01*
X43885714Y71728572D01*
X43928571Y71814286D01*
X43971428Y71985715D01*
X43971428Y72200000D01*
X43928571Y72371429D01*
X43885714Y72457143D01*
X43842857Y72500000D01*
X43757142Y72542858D01*
X42600000Y71642858D02*
X43114285Y71642858D01*
X42857142Y71642858D02*
X42857142Y72542858D01*
X42942857Y72414286D01*
X43028571Y72328572D01*
X43114285Y72285715D01*
X42257142Y72457143D02*
X42214285Y72500000D01*
X42128571Y72542858D01*
X41914285Y72542858D01*
X41828571Y72500000D01*
X41785714Y72457143D01*
X41742857Y72371429D01*
X41742857Y72285715D01*
X41785714Y72157143D01*
X42300000Y71642858D01*
X41742857Y71642858D01*
X40842857Y71642858D02*
X41142857Y72071429D01*
X41357142Y71642858D02*
X41357142Y72542858D01*
X41014285Y72542858D01*
X40928571Y72500000D01*
X40885714Y72457143D01*
X40842857Y72371429D01*
X40842857Y72242858D01*
X40885714Y72157143D01*
X40928571Y72114286D01*
X41014285Y72071429D01*
X41357142Y72071429D01*
X40500000Y71900000D02*
X40071428Y71900000D01*
X40585714Y71642858D02*
X40285714Y72542858D01*
X39985714Y71642858D01*
X45685714Y82642858D02*
X45685714Y83542858D01*
X45171428Y82642858D02*
X45557142Y83157143D01*
X45171428Y83542858D02*
X45685714Y83028572D01*
X44871428Y83542858D02*
X44271428Y83542858D01*
X44657142Y82642858D01*
X43757142Y83542858D02*
X43671428Y83542858D01*
X43585714Y83500000D01*
X43542857Y83457143D01*
X43500000Y83371429D01*
X43457142Y83200000D01*
X43457142Y82985715D01*
X43500000Y82814286D01*
X43542857Y82728572D01*
X43585714Y82685715D01*
X43671428Y82642858D01*
X43757142Y82642858D01*
X43842857Y82685715D01*
X43885714Y82728572D01*
X43928571Y82814286D01*
X43971428Y82985715D01*
X43971428Y83200000D01*
X43928571Y83371429D01*
X43885714Y83457143D01*
X43842857Y83500000D01*
X43757142Y83542858D01*
X42600000Y82642858D02*
X43114285Y82642858D01*
X42857142Y82642858D02*
X42857142Y83542858D01*
X42942857Y83414286D01*
X43028571Y83328572D01*
X43114285Y83285715D01*
X42257142Y83457143D02*
X42214285Y83500000D01*
X42128571Y83542858D01*
X41914285Y83542858D01*
X41828571Y83500000D01*
X41785714Y83457143D01*
X41742857Y83371429D01*
X41742857Y83285715D01*
X41785714Y83157143D01*
X42300000Y82642858D01*
X41742857Y82642858D01*
X40842857Y82642858D02*
X41142857Y83071429D01*
X41357142Y82642858D02*
X41357142Y83542858D01*
X41014285Y83542858D01*
X40928571Y83500000D01*
X40885714Y83457143D01*
X40842857Y83371429D01*
X40842857Y83242858D01*
X40885714Y83157143D01*
X40928571Y83114286D01*
X41014285Y83071429D01*
X41357142Y83071429D01*
X40500000Y82900000D02*
X40071428Y82900000D01*
X40585714Y82642858D02*
X40285714Y83542858D01*
X39985714Y82642858D01*
D11*
X12266666Y1633334D02*
X12500000Y1966667D01*
X12666666Y1633334D02*
X12666666Y2333334D01*
X12400000Y2333334D01*
X12333333Y2300000D01*
X12300000Y2266667D01*
X12266666Y2200000D01*
X12266666Y2100000D01*
X12300000Y2033334D01*
X12333333Y2000000D01*
X12400000Y1966667D01*
X12666666Y1966667D01*
X12000000Y1833334D02*
X11666666Y1833334D01*
X12066666Y1633334D02*
X11833333Y2333334D01*
X11600000Y1633334D01*
X11366666Y1633334D02*
X11366666Y2333334D01*
X10700000Y1633334D02*
X11033333Y1633334D01*
X11033333Y2333334D01*
X10466666Y1900000D02*
X9933333Y1900000D01*
X12266666Y12633334D02*
X12500000Y12966667D01*
X12666666Y12633334D02*
X12666666Y13333334D01*
X12400000Y13333334D01*
X12333333Y13300000D01*
X12300000Y13266667D01*
X12266666Y13200000D01*
X12266666Y13100000D01*
X12300000Y13033334D01*
X12333333Y13000000D01*
X12400000Y12966667D01*
X12666666Y12966667D01*
X12000000Y12833334D02*
X11666666Y12833334D01*
X12066666Y12633334D02*
X11833333Y13333334D01*
X11600000Y12633334D01*
X11366666Y12633334D02*
X11366666Y13333334D01*
X10700000Y12633334D02*
X11033333Y12633334D01*
X11033333Y13333334D01*
X10466666Y12900000D02*
X9933333Y12900000D01*
X12266666Y23633334D02*
X12500000Y23966667D01*
X12666666Y23633334D02*
X12666666Y24333334D01*
X12400000Y24333334D01*
X12333333Y24300000D01*
X12300000Y24266667D01*
X12266666Y24200000D01*
X12266666Y24100000D01*
X12300000Y24033334D01*
X12333333Y24000000D01*
X12400000Y23966667D01*
X12666666Y23966667D01*
X12000000Y23833334D02*
X11666666Y23833334D01*
X12066666Y23633334D02*
X11833333Y24333334D01*
X11600000Y23633334D01*
X11366666Y23633334D02*
X11366666Y24333334D01*
X10700000Y23633334D02*
X11033333Y23633334D01*
X11033333Y24333334D01*
X10466666Y23900000D02*
X9933333Y23900000D01*
X12266666Y34633334D02*
X12500000Y34966667D01*
X12666666Y34633334D02*
X12666666Y35333334D01*
X12400000Y35333334D01*
X12333333Y35300000D01*
X12300000Y35266667D01*
X12266666Y35200000D01*
X12266666Y35100000D01*
X12300000Y35033334D01*
X12333333Y35000000D01*
X12400000Y34966667D01*
X12666666Y34966667D01*
X12000000Y34833334D02*
X11666666Y34833334D01*
X12066666Y34633334D02*
X11833333Y35333334D01*
X11600000Y34633334D01*
X11366666Y34633334D02*
X11366666Y35333334D01*
X10700000Y34633334D02*
X11033333Y34633334D01*
X11033333Y35333334D01*
X10466666Y34900000D02*
X9933333Y34900000D01*
X12266666Y45633334D02*
X12500000Y45966667D01*
X12666666Y45633334D02*
X12666666Y46333334D01*
X12400000Y46333334D01*
X12333333Y46300000D01*
X12300000Y46266667D01*
X12266666Y46200000D01*
X12266666Y46100000D01*
X12300000Y46033334D01*
X12333333Y46000000D01*
X12400000Y45966667D01*
X12666666Y45966667D01*
X12000000Y45833334D02*
X11666666Y45833334D01*
X12066666Y45633334D02*
X11833333Y46333334D01*
X11600000Y45633334D01*
X11366666Y45633334D02*
X11366666Y46333334D01*
X10700000Y45633334D02*
X11033333Y45633334D01*
X11033333Y46333334D01*
X10466666Y45900000D02*
X9933333Y45900000D01*
X12266666Y56633334D02*
X12500000Y56966667D01*
X12666666Y56633334D02*
X12666666Y57333334D01*
X12400000Y57333334D01*
X12333333Y57300000D01*
X12300000Y57266667D01*
X12266666Y57200000D01*
X12266666Y57100000D01*
X12300000Y57033334D01*
X12333333Y57000000D01*
X12400000Y56966667D01*
X12666666Y56966667D01*
X12000000Y56833334D02*
X11666666Y56833334D01*
X12066666Y56633334D02*
X11833333Y57333334D01*
X11600000Y56633334D01*
X11366666Y56633334D02*
X11366666Y57333334D01*
X10700000Y56633334D02*
X11033333Y56633334D01*
X11033333Y57333334D01*
X10466666Y56900000D02*
X9933333Y56900000D01*
X12266666Y67633334D02*
X12500000Y67966667D01*
X12666666Y67633334D02*
X12666666Y68333334D01*
X12400000Y68333334D01*
X12333333Y68300000D01*
X12300000Y68266667D01*
X12266666Y68200000D01*
X12266666Y68100000D01*
X12300000Y68033334D01*
X12333333Y68000000D01*
X12400000Y67966667D01*
X12666666Y67966667D01*
X12000000Y67833334D02*
X11666666Y67833334D01*
X12066666Y67633334D02*
X11833333Y68333334D01*
X11600000Y67633334D01*
X11366666Y67633334D02*
X11366666Y68333334D01*
X10700000Y67633334D02*
X11033333Y67633334D01*
X11033333Y68333334D01*
X10466666Y67900000D02*
X9933333Y67900000D01*
X12266666Y78633334D02*
X12500000Y78966667D01*
X12666666Y78633334D02*
X12666666Y79333334D01*
X12400000Y79333334D01*
X12333333Y79300000D01*
X12300000Y79266667D01*
X12266666Y79200000D01*
X12266666Y79100000D01*
X12300000Y79033334D01*
X12333333Y79000000D01*
X12400000Y78966667D01*
X12666666Y78966667D01*
X12000000Y78833334D02*
X11666666Y78833334D01*
X12066666Y78633334D02*
X11833333Y79333334D01*
X11600000Y78633334D01*
X11366666Y78633334D02*
X11366666Y79333334D01*
X10700000Y78633334D02*
X11033333Y78633334D01*
X11033333Y79333334D01*
X10466666Y78900000D02*
X9933333Y78900000D01*
X57666666Y1433334D02*
X57900000Y1766667D01*
X58066666Y1433334D02*
X58066666Y2133334D01*
X57800000Y2133334D01*
X57733333Y2100000D01*
X57700000Y2066667D01*
X57666666Y2000000D01*
X57666666Y1900000D01*
X57700000Y1833334D01*
X57733333Y1800000D01*
X57800000Y1766667D01*
X58066666Y1766667D01*
X57400000Y1633334D02*
X57066666Y1633334D01*
X57466666Y1433334D02*
X57233333Y2133334D01*
X57000000Y1433334D01*
X56766666Y1433334D02*
X56766666Y2133334D01*
X56100000Y1433334D02*
X56433333Y1433334D01*
X56433333Y2133334D01*
X55866666Y1700000D02*
X55333333Y1700000D01*
X57666666Y12433334D02*
X57900000Y12766667D01*
X58066666Y12433334D02*
X58066666Y13133334D01*
X57800000Y13133334D01*
X57733333Y13100000D01*
X57700000Y13066667D01*
X57666666Y13000000D01*
X57666666Y12900000D01*
X57700000Y12833334D01*
X57733333Y12800000D01*
X57800000Y12766667D01*
X58066666Y12766667D01*
X57400000Y12633334D02*
X57066666Y12633334D01*
X57466666Y12433334D02*
X57233333Y13133334D01*
X57000000Y12433334D01*
X56766666Y12433334D02*
X56766666Y13133334D01*
X56100000Y12433334D02*
X56433333Y12433334D01*
X56433333Y13133334D01*
X55866666Y12700000D02*
X55333333Y12700000D01*
X57666666Y23433334D02*
X57900000Y23766667D01*
X58066666Y23433334D02*
X58066666Y24133334D01*
X57800000Y24133334D01*
X57733333Y24100000D01*
X57700000Y24066667D01*
X57666666Y24000000D01*
X57666666Y23900000D01*
X57700000Y23833334D01*
X57733333Y23800000D01*
X57800000Y23766667D01*
X58066666Y23766667D01*
X57400000Y23633334D02*
X57066666Y23633334D01*
X57466666Y23433334D02*
X57233333Y24133334D01*
X57000000Y23433334D01*
X56766666Y23433334D02*
X56766666Y24133334D01*
X56100000Y23433334D02*
X56433333Y23433334D01*
X56433333Y24133334D01*
X55866666Y23700000D02*
X55333333Y23700000D01*
X57666666Y34433334D02*
X57900000Y34766667D01*
X58066666Y34433334D02*
X58066666Y35133334D01*
X57800000Y35133334D01*
X57733333Y35100000D01*
X57700000Y35066667D01*
X57666666Y35000000D01*
X57666666Y34900000D01*
X57700000Y34833334D01*
X57733333Y34800000D01*
X57800000Y34766667D01*
X58066666Y34766667D01*
X57400000Y34633334D02*
X57066666Y34633334D01*
X57466666Y34433334D02*
X57233333Y35133334D01*
X57000000Y34433334D01*
X56766666Y34433334D02*
X56766666Y35133334D01*
X56100000Y34433334D02*
X56433333Y34433334D01*
X56433333Y35133334D01*
X55866666Y34700000D02*
X55333333Y34700000D01*
X57666666Y45433334D02*
X57900000Y45766667D01*
X58066666Y45433334D02*
X58066666Y46133334D01*
X57800000Y46133334D01*
X57733333Y46100000D01*
X57700000Y46066667D01*
X57666666Y46000000D01*
X57666666Y45900000D01*
X57700000Y45833334D01*
X57733333Y45800000D01*
X57800000Y45766667D01*
X58066666Y45766667D01*
X57400000Y45633334D02*
X57066666Y45633334D01*
X57466666Y45433334D02*
X57233333Y46133334D01*
X57000000Y45433334D01*
X56766666Y45433334D02*
X56766666Y46133334D01*
X56100000Y45433334D02*
X56433333Y45433334D01*
X56433333Y46133334D01*
X55866666Y45700000D02*
X55333333Y45700000D01*
X57666666Y56433334D02*
X57900000Y56766667D01*
X58066666Y56433334D02*
X58066666Y57133334D01*
X57800000Y57133334D01*
X57733333Y57100000D01*
X57700000Y57066667D01*
X57666666Y57000000D01*
X57666666Y56900000D01*
X57700000Y56833334D01*
X57733333Y56800000D01*
X57800000Y56766667D01*
X58066666Y56766667D01*
X57400000Y56633334D02*
X57066666Y56633334D01*
X57466666Y56433334D02*
X57233333Y57133334D01*
X57000000Y56433334D01*
X56766666Y56433334D02*
X56766666Y57133334D01*
X56100000Y56433334D02*
X56433333Y56433334D01*
X56433333Y57133334D01*
X55866666Y56700000D02*
X55333333Y56700000D01*
X57666666Y67433334D02*
X57900000Y67766667D01*
X58066666Y67433334D02*
X58066666Y68133334D01*
X57800000Y68133334D01*
X57733333Y68100000D01*
X57700000Y68066667D01*
X57666666Y68000000D01*
X57666666Y67900000D01*
X57700000Y67833334D01*
X57733333Y67800000D01*
X57800000Y67766667D01*
X58066666Y67766667D01*
X57400000Y67633334D02*
X57066666Y67633334D01*
X57466666Y67433334D02*
X57233333Y68133334D01*
X57000000Y67433334D01*
X56766666Y67433334D02*
X56766666Y68133334D01*
X56100000Y67433334D02*
X56433333Y67433334D01*
X56433333Y68133334D01*
X55866666Y67700000D02*
X55333333Y67700000D01*
X57666666Y78433334D02*
X57900000Y78766667D01*
X58066666Y78433334D02*
X58066666Y79133334D01*
X57800000Y79133334D01*
X57733333Y79100000D01*
X57700000Y79066667D01*
X57666666Y79000000D01*
X57666666Y78900000D01*
X57700000Y78833334D01*
X57733333Y78800000D01*
X57800000Y78766667D01*
X58066666Y78766667D01*
X57400000Y78633334D02*
X57066666Y78633334D01*
X57466666Y78433334D02*
X57233333Y79133334D01*
X57000000Y78433334D01*
X56766666Y78433334D02*
X56766666Y79133334D01*
X56100000Y78433334D02*
X56433333Y78433334D01*
X56433333Y79133334D01*
X55866666Y78700000D02*
X55333333Y78700000D01*
X12033333Y4800000D02*
X12266666Y4800000D01*
X12266666Y4433334D02*
X12266666Y5133334D01*
X11933333Y5133334D01*
X11733333Y5133334D02*
X11566666Y4433334D01*
X11433333Y4933334D01*
X11300000Y4433334D01*
X11133333Y5133334D01*
X10866666Y4433334D02*
X10866666Y5133334D01*
X10700000Y5133334D01*
X10600000Y5100000D01*
X10533333Y5033334D01*
X10500000Y4966667D01*
X10466666Y4833334D01*
X10466666Y4733334D01*
X10500000Y4600000D01*
X10533333Y4533334D01*
X10600000Y4466667D01*
X10700000Y4433334D01*
X10866666Y4433334D01*
X9633333Y4700000D02*
X9100000Y4700000D01*
X8766666Y4900000D02*
X8233333Y4700000D01*
X8766666Y4500000D01*
X12033333Y15800000D02*
X12266666Y15800000D01*
X12266666Y15433334D02*
X12266666Y16133334D01*
X11933333Y16133334D01*
X11733333Y16133334D02*
X11566666Y15433334D01*
X11433333Y15933334D01*
X11300000Y15433334D01*
X11133333Y16133334D01*
X10866666Y15433334D02*
X10866666Y16133334D01*
X10700000Y16133334D01*
X10600000Y16100000D01*
X10533333Y16033334D01*
X10500000Y15966667D01*
X10466666Y15833334D01*
X10466666Y15733334D01*
X10500000Y15600000D01*
X10533333Y15533334D01*
X10600000Y15466667D01*
X10700000Y15433334D01*
X10866666Y15433334D01*
X9633333Y15700000D02*
X9100000Y15700000D01*
X8766666Y15900000D02*
X8233333Y15700000D01*
X8766666Y15500000D01*
X12033333Y26800000D02*
X12266666Y26800000D01*
X12266666Y26433334D02*
X12266666Y27133334D01*
X11933333Y27133334D01*
X11733333Y27133334D02*
X11566666Y26433334D01*
X11433333Y26933334D01*
X11300000Y26433334D01*
X11133333Y27133334D01*
X10866666Y26433334D02*
X10866666Y27133334D01*
X10700000Y27133334D01*
X10600000Y27100000D01*
X10533333Y27033334D01*
X10500000Y26966667D01*
X10466666Y26833334D01*
X10466666Y26733334D01*
X10500000Y26600000D01*
X10533333Y26533334D01*
X10600000Y26466667D01*
X10700000Y26433334D01*
X10866666Y26433334D01*
X9633333Y26700000D02*
X9100000Y26700000D01*
X8766666Y26900000D02*
X8233333Y26700000D01*
X8766666Y26500000D01*
X12033333Y37800000D02*
X12266666Y37800000D01*
X12266666Y37433334D02*
X12266666Y38133334D01*
X11933333Y38133334D01*
X11733333Y38133334D02*
X11566666Y37433334D01*
X11433333Y37933334D01*
X11300000Y37433334D01*
X11133333Y38133334D01*
X10866666Y37433334D02*
X10866666Y38133334D01*
X10700000Y38133334D01*
X10600000Y38100000D01*
X10533333Y38033334D01*
X10500000Y37966667D01*
X10466666Y37833334D01*
X10466666Y37733334D01*
X10500000Y37600000D01*
X10533333Y37533334D01*
X10600000Y37466667D01*
X10700000Y37433334D01*
X10866666Y37433334D01*
X9633333Y37700000D02*
X9100000Y37700000D01*
X8766666Y37900000D02*
X8233333Y37700000D01*
X8766666Y37500000D01*
X12033333Y48800000D02*
X12266666Y48800000D01*
X12266666Y48433334D02*
X12266666Y49133334D01*
X11933333Y49133334D01*
X11733333Y49133334D02*
X11566666Y48433334D01*
X11433333Y48933334D01*
X11300000Y48433334D01*
X11133333Y49133334D01*
X10866666Y48433334D02*
X10866666Y49133334D01*
X10700000Y49133334D01*
X10600000Y49100000D01*
X10533333Y49033334D01*
X10500000Y48966667D01*
X10466666Y48833334D01*
X10466666Y48733334D01*
X10500000Y48600000D01*
X10533333Y48533334D01*
X10600000Y48466667D01*
X10700000Y48433334D01*
X10866666Y48433334D01*
X9633333Y48700000D02*
X9100000Y48700000D01*
X8766666Y48900000D02*
X8233333Y48700000D01*
X8766666Y48500000D01*
X12033333Y59800000D02*
X12266666Y59800000D01*
X12266666Y59433334D02*
X12266666Y60133334D01*
X11933333Y60133334D01*
X11733333Y60133334D02*
X11566666Y59433334D01*
X11433333Y59933334D01*
X11300000Y59433334D01*
X11133333Y60133334D01*
X10866666Y59433334D02*
X10866666Y60133334D01*
X10700000Y60133334D01*
X10600000Y60100000D01*
X10533333Y60033334D01*
X10500000Y59966667D01*
X10466666Y59833334D01*
X10466666Y59733334D01*
X10500000Y59600000D01*
X10533333Y59533334D01*
X10600000Y59466667D01*
X10700000Y59433334D01*
X10866666Y59433334D01*
X9633333Y59700000D02*
X9100000Y59700000D01*
X8766666Y59900000D02*
X8233333Y59700000D01*
X8766666Y59500000D01*
X12033333Y70800000D02*
X12266666Y70800000D01*
X12266666Y70433334D02*
X12266666Y71133334D01*
X11933333Y71133334D01*
X11733333Y71133334D02*
X11566666Y70433334D01*
X11433333Y70933334D01*
X11300000Y70433334D01*
X11133333Y71133334D01*
X10866666Y70433334D02*
X10866666Y71133334D01*
X10700000Y71133334D01*
X10600000Y71100000D01*
X10533333Y71033334D01*
X10500000Y70966667D01*
X10466666Y70833334D01*
X10466666Y70733334D01*
X10500000Y70600000D01*
X10533333Y70533334D01*
X10600000Y70466667D01*
X10700000Y70433334D01*
X10866666Y70433334D01*
X9633333Y70700000D02*
X9100000Y70700000D01*
X8766666Y70900000D02*
X8233333Y70700000D01*
X8766666Y70500000D01*
X12033333Y81800000D02*
X12266666Y81800000D01*
X12266666Y81433334D02*
X12266666Y82133334D01*
X11933333Y82133334D01*
X11733333Y82133334D02*
X11566666Y81433334D01*
X11433333Y81933334D01*
X11300000Y81433334D01*
X11133333Y82133334D01*
X10866666Y81433334D02*
X10866666Y82133334D01*
X10700000Y82133334D01*
X10600000Y82100000D01*
X10533333Y82033334D01*
X10500000Y81966667D01*
X10466666Y81833334D01*
X10466666Y81733334D01*
X10500000Y81600000D01*
X10533333Y81533334D01*
X10600000Y81466667D01*
X10700000Y81433334D01*
X10866666Y81433334D01*
X9633333Y81700000D02*
X9100000Y81700000D01*
X8766666Y81900000D02*
X8233333Y81700000D01*
X8766666Y81500000D01*
X12266666Y7233334D02*
X12500000Y7566667D01*
X12666666Y7233334D02*
X12666666Y7933334D01*
X12400000Y7933334D01*
X12333333Y7900000D01*
X12300000Y7866667D01*
X12266666Y7800000D01*
X12266666Y7700000D01*
X12300000Y7633334D01*
X12333333Y7600000D01*
X12400000Y7566667D01*
X12666666Y7566667D01*
X12000000Y7433334D02*
X11666666Y7433334D01*
X12066666Y7233334D02*
X11833333Y7933334D01*
X11600000Y7233334D01*
X11366666Y7233334D02*
X11366666Y7933334D01*
X10700000Y7233334D02*
X11033333Y7233334D01*
X11033333Y7933334D01*
X10466666Y7500000D02*
X9933333Y7500000D01*
X10200000Y7233334D02*
X10200000Y7766667D01*
X12266666Y18233334D02*
X12500000Y18566667D01*
X12666666Y18233334D02*
X12666666Y18933334D01*
X12400000Y18933334D01*
X12333333Y18900000D01*
X12300000Y18866667D01*
X12266666Y18800000D01*
X12266666Y18700000D01*
X12300000Y18633334D01*
X12333333Y18600000D01*
X12400000Y18566667D01*
X12666666Y18566667D01*
X12000000Y18433334D02*
X11666666Y18433334D01*
X12066666Y18233334D02*
X11833333Y18933334D01*
X11600000Y18233334D01*
X11366666Y18233334D02*
X11366666Y18933334D01*
X10700000Y18233334D02*
X11033333Y18233334D01*
X11033333Y18933334D01*
X10466666Y18500000D02*
X9933333Y18500000D01*
X10200000Y18233334D02*
X10200000Y18766667D01*
X12266666Y29233334D02*
X12500000Y29566667D01*
X12666666Y29233334D02*
X12666666Y29933334D01*
X12400000Y29933334D01*
X12333333Y29900000D01*
X12300000Y29866667D01*
X12266666Y29800000D01*
X12266666Y29700000D01*
X12300000Y29633334D01*
X12333333Y29600000D01*
X12400000Y29566667D01*
X12666666Y29566667D01*
X12000000Y29433334D02*
X11666666Y29433334D01*
X12066666Y29233334D02*
X11833333Y29933334D01*
X11600000Y29233334D01*
X11366666Y29233334D02*
X11366666Y29933334D01*
X10700000Y29233334D02*
X11033333Y29233334D01*
X11033333Y29933334D01*
X10466666Y29500000D02*
X9933333Y29500000D01*
X10200000Y29233334D02*
X10200000Y29766667D01*
X12266666Y40233334D02*
X12500000Y40566667D01*
X12666666Y40233334D02*
X12666666Y40933334D01*
X12400000Y40933334D01*
X12333333Y40900000D01*
X12300000Y40866667D01*
X12266666Y40800000D01*
X12266666Y40700000D01*
X12300000Y40633334D01*
X12333333Y40600000D01*
X12400000Y40566667D01*
X12666666Y40566667D01*
X12000000Y40433334D02*
X11666666Y40433334D01*
X12066666Y40233334D02*
X11833333Y40933334D01*
X11600000Y40233334D01*
X11366666Y40233334D02*
X11366666Y40933334D01*
X10700000Y40233334D02*
X11033333Y40233334D01*
X11033333Y40933334D01*
X10466666Y40500000D02*
X9933333Y40500000D01*
X10200000Y40233334D02*
X10200000Y40766667D01*
X12266666Y51233334D02*
X12500000Y51566667D01*
X12666666Y51233334D02*
X12666666Y51933334D01*
X12400000Y51933334D01*
X12333333Y51900000D01*
X12300000Y51866667D01*
X12266666Y51800000D01*
X12266666Y51700000D01*
X12300000Y51633334D01*
X12333333Y51600000D01*
X12400000Y51566667D01*
X12666666Y51566667D01*
X12000000Y51433334D02*
X11666666Y51433334D01*
X12066666Y51233334D02*
X11833333Y51933334D01*
X11600000Y51233334D01*
X11366666Y51233334D02*
X11366666Y51933334D01*
X10700000Y51233334D02*
X11033333Y51233334D01*
X11033333Y51933334D01*
X10466666Y51500000D02*
X9933333Y51500000D01*
X10200000Y51233334D02*
X10200000Y51766667D01*
X12266666Y62233334D02*
X12500000Y62566667D01*
X12666666Y62233334D02*
X12666666Y62933334D01*
X12400000Y62933334D01*
X12333333Y62900000D01*
X12300000Y62866667D01*
X12266666Y62800000D01*
X12266666Y62700000D01*
X12300000Y62633334D01*
X12333333Y62600000D01*
X12400000Y62566667D01*
X12666666Y62566667D01*
X12000000Y62433334D02*
X11666666Y62433334D01*
X12066666Y62233334D02*
X11833333Y62933334D01*
X11600000Y62233334D01*
X11366666Y62233334D02*
X11366666Y62933334D01*
X10700000Y62233334D02*
X11033333Y62233334D01*
X11033333Y62933334D01*
X10466666Y62500000D02*
X9933333Y62500000D01*
X10200000Y62233334D02*
X10200000Y62766667D01*
X12266666Y73233334D02*
X12500000Y73566667D01*
X12666666Y73233334D02*
X12666666Y73933334D01*
X12400000Y73933334D01*
X12333333Y73900000D01*
X12300000Y73866667D01*
X12266666Y73800000D01*
X12266666Y73700000D01*
X12300000Y73633334D01*
X12333333Y73600000D01*
X12400000Y73566667D01*
X12666666Y73566667D01*
X12000000Y73433334D02*
X11666666Y73433334D01*
X12066666Y73233334D02*
X11833333Y73933334D01*
X11600000Y73233334D01*
X11366666Y73233334D02*
X11366666Y73933334D01*
X10700000Y73233334D02*
X11033333Y73233334D01*
X11033333Y73933334D01*
X10466666Y73500000D02*
X9933333Y73500000D01*
X10200000Y73233334D02*
X10200000Y73766667D01*
X12266666Y84233334D02*
X12500000Y84566667D01*
X12666666Y84233334D02*
X12666666Y84933334D01*
X12400000Y84933334D01*
X12333333Y84900000D01*
X12300000Y84866667D01*
X12266666Y84800000D01*
X12266666Y84700000D01*
X12300000Y84633334D01*
X12333333Y84600000D01*
X12400000Y84566667D01*
X12666666Y84566667D01*
X12000000Y84433334D02*
X11666666Y84433334D01*
X12066666Y84233334D02*
X11833333Y84933334D01*
X11600000Y84233334D01*
X11366666Y84233334D02*
X11366666Y84933334D01*
X10700000Y84233334D02*
X11033333Y84233334D01*
X11033333Y84933334D01*
X10466666Y84500000D02*
X9933333Y84500000D01*
X10200000Y84233334D02*
X10200000Y84766667D01*
X60900000Y4900000D02*
X61433333Y4700000D01*
X60900000Y4500000D01*
X60566666Y4700000D02*
X60033333Y4700000D01*
X58766666Y4433334D02*
X59000000Y4766667D01*
X59166666Y4433334D02*
X59166666Y5133334D01*
X58900000Y5133334D01*
X58833333Y5100000D01*
X58800000Y5066667D01*
X58766666Y5000000D01*
X58766666Y4900000D01*
X58800000Y4833334D01*
X58833333Y4800000D01*
X58900000Y4766667D01*
X59166666Y4766667D01*
X58466666Y4800000D02*
X58233333Y4800000D01*
X58133333Y4433334D02*
X58466666Y4433334D01*
X58466666Y5133334D01*
X58133333Y5133334D01*
X57933333Y5133334D02*
X57700000Y4433334D01*
X57466666Y5133334D01*
X60900000Y15900000D02*
X61433333Y15700000D01*
X60900000Y15500000D01*
X60566666Y15700000D02*
X60033333Y15700000D01*
X58766666Y15433334D02*
X59000000Y15766667D01*
X59166666Y15433334D02*
X59166666Y16133334D01*
X58900000Y16133334D01*
X58833333Y16100000D01*
X58800000Y16066667D01*
X58766666Y16000000D01*
X58766666Y15900000D01*
X58800000Y15833334D01*
X58833333Y15800000D01*
X58900000Y15766667D01*
X59166666Y15766667D01*
X58466666Y15800000D02*
X58233333Y15800000D01*
X58133333Y15433334D02*
X58466666Y15433334D01*
X58466666Y16133334D01*
X58133333Y16133334D01*
X57933333Y16133334D02*
X57700000Y15433334D01*
X57466666Y16133334D01*
X60900000Y26900000D02*
X61433333Y26700000D01*
X60900000Y26500000D01*
X60566666Y26700000D02*
X60033333Y26700000D01*
X58766666Y26433334D02*
X59000000Y26766667D01*
X59166666Y26433334D02*
X59166666Y27133334D01*
X58900000Y27133334D01*
X58833333Y27100000D01*
X58800000Y27066667D01*
X58766666Y27000000D01*
X58766666Y26900000D01*
X58800000Y26833334D01*
X58833333Y26800000D01*
X58900000Y26766667D01*
X59166666Y26766667D01*
X58466666Y26800000D02*
X58233333Y26800000D01*
X58133333Y26433334D02*
X58466666Y26433334D01*
X58466666Y27133334D01*
X58133333Y27133334D01*
X57933333Y27133334D02*
X57700000Y26433334D01*
X57466666Y27133334D01*
X60900000Y37900000D02*
X61433333Y37700000D01*
X60900000Y37500000D01*
X60566666Y37700000D02*
X60033333Y37700000D01*
X58766666Y37433334D02*
X59000000Y37766667D01*
X59166666Y37433334D02*
X59166666Y38133334D01*
X58900000Y38133334D01*
X58833333Y38100000D01*
X58800000Y38066667D01*
X58766666Y38000000D01*
X58766666Y37900000D01*
X58800000Y37833334D01*
X58833333Y37800000D01*
X58900000Y37766667D01*
X59166666Y37766667D01*
X58466666Y37800000D02*
X58233333Y37800000D01*
X58133333Y37433334D02*
X58466666Y37433334D01*
X58466666Y38133334D01*
X58133333Y38133334D01*
X57933333Y38133334D02*
X57700000Y37433334D01*
X57466666Y38133334D01*
X60900000Y48900000D02*
X61433333Y48700000D01*
X60900000Y48500000D01*
X60566666Y48700000D02*
X60033333Y48700000D01*
X58766666Y48433334D02*
X59000000Y48766667D01*
X59166666Y48433334D02*
X59166666Y49133334D01*
X58900000Y49133334D01*
X58833333Y49100000D01*
X58800000Y49066667D01*
X58766666Y49000000D01*
X58766666Y48900000D01*
X58800000Y48833334D01*
X58833333Y48800000D01*
X58900000Y48766667D01*
X59166666Y48766667D01*
X58466666Y48800000D02*
X58233333Y48800000D01*
X58133333Y48433334D02*
X58466666Y48433334D01*
X58466666Y49133334D01*
X58133333Y49133334D01*
X57933333Y49133334D02*
X57700000Y48433334D01*
X57466666Y49133334D01*
X60900000Y59900000D02*
X61433333Y59700000D01*
X60900000Y59500000D01*
X60566666Y59700000D02*
X60033333Y59700000D01*
X58766666Y59433334D02*
X59000000Y59766667D01*
X59166666Y59433334D02*
X59166666Y60133334D01*
X58900000Y60133334D01*
X58833333Y60100000D01*
X58800000Y60066667D01*
X58766666Y60000000D01*
X58766666Y59900000D01*
X58800000Y59833334D01*
X58833333Y59800000D01*
X58900000Y59766667D01*
X59166666Y59766667D01*
X58466666Y59800000D02*
X58233333Y59800000D01*
X58133333Y59433334D02*
X58466666Y59433334D01*
X58466666Y60133334D01*
X58133333Y60133334D01*
X57933333Y60133334D02*
X57700000Y59433334D01*
X57466666Y60133334D01*
X60900000Y70900000D02*
X61433333Y70700000D01*
X60900000Y70500000D01*
X60566666Y70700000D02*
X60033333Y70700000D01*
X58766666Y70433334D02*
X59000000Y70766667D01*
X59166666Y70433334D02*
X59166666Y71133334D01*
X58900000Y71133334D01*
X58833333Y71100000D01*
X58800000Y71066667D01*
X58766666Y71000000D01*
X58766666Y70900000D01*
X58800000Y70833334D01*
X58833333Y70800000D01*
X58900000Y70766667D01*
X59166666Y70766667D01*
X58466666Y70800000D02*
X58233333Y70800000D01*
X58133333Y70433334D02*
X58466666Y70433334D01*
X58466666Y71133334D01*
X58133333Y71133334D01*
X57933333Y71133334D02*
X57700000Y70433334D01*
X57466666Y71133334D01*
X60900000Y81900000D02*
X61433333Y81700000D01*
X60900000Y81500000D01*
X60566666Y81700000D02*
X60033333Y81700000D01*
X58766666Y81433334D02*
X59000000Y81766667D01*
X59166666Y81433334D02*
X59166666Y82133334D01*
X58900000Y82133334D01*
X58833333Y82100000D01*
X58800000Y82066667D01*
X58766666Y82000000D01*
X58766666Y81900000D01*
X58800000Y81833334D01*
X58833333Y81800000D01*
X58900000Y81766667D01*
X59166666Y81766667D01*
X58466666Y81800000D02*
X58233333Y81800000D01*
X58133333Y81433334D02*
X58466666Y81433334D01*
X58466666Y82133334D01*
X58133333Y82133334D01*
X57933333Y82133334D02*
X57700000Y81433334D01*
X57466666Y82133334D01*
X23750000Y5933334D02*
X23750000Y6633334D01*
X23483333Y6633334D01*
X23416666Y6600000D01*
X23383333Y6566667D01*
X23350000Y6500000D01*
X23350000Y6400000D01*
X23383333Y6333334D01*
X23416666Y6300000D01*
X23483333Y6266667D01*
X23750000Y6266667D01*
X22650000Y5933334D02*
X22883333Y6266667D01*
X23050000Y5933334D02*
X23050000Y6633334D01*
X22783333Y6633334D01*
X22716666Y6600000D01*
X22683333Y6566667D01*
X22650000Y6500000D01*
X22650000Y6400000D01*
X22683333Y6333334D01*
X22716666Y6300000D01*
X22783333Y6266667D01*
X23050000Y6266667D01*
X22216666Y6633334D02*
X22083333Y6633334D01*
X22016666Y6600000D01*
X21950000Y6533334D01*
X21916666Y6400000D01*
X21916666Y6166667D01*
X21950000Y6033334D01*
X22016666Y5966667D01*
X22083333Y5933334D01*
X22216666Y5933334D01*
X22283333Y5966667D01*
X22350000Y6033334D01*
X22383333Y6166667D01*
X22383333Y6400000D01*
X22350000Y6533334D01*
X22283333Y6600000D01*
X22216666Y6633334D01*
X21250000Y6600000D02*
X21316666Y6633334D01*
X21416666Y6633334D01*
X21516666Y6600000D01*
X21583333Y6533334D01*
X21616666Y6466667D01*
X21650000Y6333334D01*
X21650000Y6233334D01*
X21616666Y6100000D01*
X21583333Y6033334D01*
X21516666Y5966667D01*
X21416666Y5933334D01*
X21350000Y5933334D01*
X21250000Y5966667D01*
X21216666Y6000000D01*
X21216666Y6233334D01*
X21350000Y6233334D01*
X23750000Y16933334D02*
X23750000Y17633334D01*
X23483333Y17633334D01*
X23416666Y17600000D01*
X23383333Y17566667D01*
X23350000Y17500000D01*
X23350000Y17400000D01*
X23383333Y17333334D01*
X23416666Y17300000D01*
X23483333Y17266667D01*
X23750000Y17266667D01*
X22650000Y16933334D02*
X22883333Y17266667D01*
X23050000Y16933334D02*
X23050000Y17633334D01*
X22783333Y17633334D01*
X22716666Y17600000D01*
X22683333Y17566667D01*
X22650000Y17500000D01*
X22650000Y17400000D01*
X22683333Y17333334D01*
X22716666Y17300000D01*
X22783333Y17266667D01*
X23050000Y17266667D01*
X22216666Y17633334D02*
X22083333Y17633334D01*
X22016666Y17600000D01*
X21950000Y17533334D01*
X21916666Y17400000D01*
X21916666Y17166667D01*
X21950000Y17033334D01*
X22016666Y16966667D01*
X22083333Y16933334D01*
X22216666Y16933334D01*
X22283333Y16966667D01*
X22350000Y17033334D01*
X22383333Y17166667D01*
X22383333Y17400000D01*
X22350000Y17533334D01*
X22283333Y17600000D01*
X22216666Y17633334D01*
X21250000Y17600000D02*
X21316666Y17633334D01*
X21416666Y17633334D01*
X21516666Y17600000D01*
X21583333Y17533334D01*
X21616666Y17466667D01*
X21650000Y17333334D01*
X21650000Y17233334D01*
X21616666Y17100000D01*
X21583333Y17033334D01*
X21516666Y16966667D01*
X21416666Y16933334D01*
X21350000Y16933334D01*
X21250000Y16966667D01*
X21216666Y17000000D01*
X21216666Y17233334D01*
X21350000Y17233334D01*
X23750000Y27933334D02*
X23750000Y28633334D01*
X23483333Y28633334D01*
X23416666Y28600000D01*
X23383333Y28566667D01*
X23350000Y28500000D01*
X23350000Y28400000D01*
X23383333Y28333334D01*
X23416666Y28300000D01*
X23483333Y28266667D01*
X23750000Y28266667D01*
X22650000Y27933334D02*
X22883333Y28266667D01*
X23050000Y27933334D02*
X23050000Y28633334D01*
X22783333Y28633334D01*
X22716666Y28600000D01*
X22683333Y28566667D01*
X22650000Y28500000D01*
X22650000Y28400000D01*
X22683333Y28333334D01*
X22716666Y28300000D01*
X22783333Y28266667D01*
X23050000Y28266667D01*
X22216666Y28633334D02*
X22083333Y28633334D01*
X22016666Y28600000D01*
X21950000Y28533334D01*
X21916666Y28400000D01*
X21916666Y28166667D01*
X21950000Y28033334D01*
X22016666Y27966667D01*
X22083333Y27933334D01*
X22216666Y27933334D01*
X22283333Y27966667D01*
X22350000Y28033334D01*
X22383333Y28166667D01*
X22383333Y28400000D01*
X22350000Y28533334D01*
X22283333Y28600000D01*
X22216666Y28633334D01*
X21250000Y28600000D02*
X21316666Y28633334D01*
X21416666Y28633334D01*
X21516666Y28600000D01*
X21583333Y28533334D01*
X21616666Y28466667D01*
X21650000Y28333334D01*
X21650000Y28233334D01*
X21616666Y28100000D01*
X21583333Y28033334D01*
X21516666Y27966667D01*
X21416666Y27933334D01*
X21350000Y27933334D01*
X21250000Y27966667D01*
X21216666Y28000000D01*
X21216666Y28233334D01*
X21350000Y28233334D01*
X23750000Y38933334D02*
X23750000Y39633334D01*
X23483333Y39633334D01*
X23416666Y39600000D01*
X23383333Y39566667D01*
X23350000Y39500000D01*
X23350000Y39400000D01*
X23383333Y39333334D01*
X23416666Y39300000D01*
X23483333Y39266667D01*
X23750000Y39266667D01*
X22650000Y38933334D02*
X22883333Y39266667D01*
X23050000Y38933334D02*
X23050000Y39633334D01*
X22783333Y39633334D01*
X22716666Y39600000D01*
X22683333Y39566667D01*
X22650000Y39500000D01*
X22650000Y39400000D01*
X22683333Y39333334D01*
X22716666Y39300000D01*
X22783333Y39266667D01*
X23050000Y39266667D01*
X22216666Y39633334D02*
X22083333Y39633334D01*
X22016666Y39600000D01*
X21950000Y39533334D01*
X21916666Y39400000D01*
X21916666Y39166667D01*
X21950000Y39033334D01*
X22016666Y38966667D01*
X22083333Y38933334D01*
X22216666Y38933334D01*
X22283333Y38966667D01*
X22350000Y39033334D01*
X22383333Y39166667D01*
X22383333Y39400000D01*
X22350000Y39533334D01*
X22283333Y39600000D01*
X22216666Y39633334D01*
X21250000Y39600000D02*
X21316666Y39633334D01*
X21416666Y39633334D01*
X21516666Y39600000D01*
X21583333Y39533334D01*
X21616666Y39466667D01*
X21650000Y39333334D01*
X21650000Y39233334D01*
X21616666Y39100000D01*
X21583333Y39033334D01*
X21516666Y38966667D01*
X21416666Y38933334D01*
X21350000Y38933334D01*
X21250000Y38966667D01*
X21216666Y39000000D01*
X21216666Y39233334D01*
X21350000Y39233334D01*
X23750000Y49933334D02*
X23750000Y50633334D01*
X23483333Y50633334D01*
X23416666Y50600000D01*
X23383333Y50566667D01*
X23350000Y50500000D01*
X23350000Y50400000D01*
X23383333Y50333334D01*
X23416666Y50300000D01*
X23483333Y50266667D01*
X23750000Y50266667D01*
X22650000Y49933334D02*
X22883333Y50266667D01*
X23050000Y49933334D02*
X23050000Y50633334D01*
X22783333Y50633334D01*
X22716666Y50600000D01*
X22683333Y50566667D01*
X22650000Y50500000D01*
X22650000Y50400000D01*
X22683333Y50333334D01*
X22716666Y50300000D01*
X22783333Y50266667D01*
X23050000Y50266667D01*
X22216666Y50633334D02*
X22083333Y50633334D01*
X22016666Y50600000D01*
X21950000Y50533334D01*
X21916666Y50400000D01*
X21916666Y50166667D01*
X21950000Y50033334D01*
X22016666Y49966667D01*
X22083333Y49933334D01*
X22216666Y49933334D01*
X22283333Y49966667D01*
X22350000Y50033334D01*
X22383333Y50166667D01*
X22383333Y50400000D01*
X22350000Y50533334D01*
X22283333Y50600000D01*
X22216666Y50633334D01*
X21250000Y50600000D02*
X21316666Y50633334D01*
X21416666Y50633334D01*
X21516666Y50600000D01*
X21583333Y50533334D01*
X21616666Y50466667D01*
X21650000Y50333334D01*
X21650000Y50233334D01*
X21616666Y50100000D01*
X21583333Y50033334D01*
X21516666Y49966667D01*
X21416666Y49933334D01*
X21350000Y49933334D01*
X21250000Y49966667D01*
X21216666Y50000000D01*
X21216666Y50233334D01*
X21350000Y50233334D01*
X23750000Y60933334D02*
X23750000Y61633334D01*
X23483333Y61633334D01*
X23416666Y61600000D01*
X23383333Y61566667D01*
X23350000Y61500000D01*
X23350000Y61400000D01*
X23383333Y61333334D01*
X23416666Y61300000D01*
X23483333Y61266667D01*
X23750000Y61266667D01*
X22650000Y60933334D02*
X22883333Y61266667D01*
X23050000Y60933334D02*
X23050000Y61633334D01*
X22783333Y61633334D01*
X22716666Y61600000D01*
X22683333Y61566667D01*
X22650000Y61500000D01*
X22650000Y61400000D01*
X22683333Y61333334D01*
X22716666Y61300000D01*
X22783333Y61266667D01*
X23050000Y61266667D01*
X22216666Y61633334D02*
X22083333Y61633334D01*
X22016666Y61600000D01*
X21950000Y61533334D01*
X21916666Y61400000D01*
X21916666Y61166667D01*
X21950000Y61033334D01*
X22016666Y60966667D01*
X22083333Y60933334D01*
X22216666Y60933334D01*
X22283333Y60966667D01*
X22350000Y61033334D01*
X22383333Y61166667D01*
X22383333Y61400000D01*
X22350000Y61533334D01*
X22283333Y61600000D01*
X22216666Y61633334D01*
X21250000Y61600000D02*
X21316666Y61633334D01*
X21416666Y61633334D01*
X21516666Y61600000D01*
X21583333Y61533334D01*
X21616666Y61466667D01*
X21650000Y61333334D01*
X21650000Y61233334D01*
X21616666Y61100000D01*
X21583333Y61033334D01*
X21516666Y60966667D01*
X21416666Y60933334D01*
X21350000Y60933334D01*
X21250000Y60966667D01*
X21216666Y61000000D01*
X21216666Y61233334D01*
X21350000Y61233334D01*
X23750000Y71933334D02*
X23750000Y72633334D01*
X23483333Y72633334D01*
X23416666Y72600000D01*
X23383333Y72566667D01*
X23350000Y72500000D01*
X23350000Y72400000D01*
X23383333Y72333334D01*
X23416666Y72300000D01*
X23483333Y72266667D01*
X23750000Y72266667D01*
X22650000Y71933334D02*
X22883333Y72266667D01*
X23050000Y71933334D02*
X23050000Y72633334D01*
X22783333Y72633334D01*
X22716666Y72600000D01*
X22683333Y72566667D01*
X22650000Y72500000D01*
X22650000Y72400000D01*
X22683333Y72333334D01*
X22716666Y72300000D01*
X22783333Y72266667D01*
X23050000Y72266667D01*
X22216666Y72633334D02*
X22083333Y72633334D01*
X22016666Y72600000D01*
X21950000Y72533334D01*
X21916666Y72400000D01*
X21916666Y72166667D01*
X21950000Y72033334D01*
X22016666Y71966667D01*
X22083333Y71933334D01*
X22216666Y71933334D01*
X22283333Y71966667D01*
X22350000Y72033334D01*
X22383333Y72166667D01*
X22383333Y72400000D01*
X22350000Y72533334D01*
X22283333Y72600000D01*
X22216666Y72633334D01*
X21250000Y72600000D02*
X21316666Y72633334D01*
X21416666Y72633334D01*
X21516666Y72600000D01*
X21583333Y72533334D01*
X21616666Y72466667D01*
X21650000Y72333334D01*
X21650000Y72233334D01*
X21616666Y72100000D01*
X21583333Y72033334D01*
X21516666Y71966667D01*
X21416666Y71933334D01*
X21350000Y71933334D01*
X21250000Y71966667D01*
X21216666Y72000000D01*
X21216666Y72233334D01*
X21350000Y72233334D01*
X23750000Y82933334D02*
X23750000Y83633334D01*
X23483333Y83633334D01*
X23416666Y83600000D01*
X23383333Y83566667D01*
X23350000Y83500000D01*
X23350000Y83400000D01*
X23383333Y83333334D01*
X23416666Y83300000D01*
X23483333Y83266667D01*
X23750000Y83266667D01*
X22650000Y82933334D02*
X22883333Y83266667D01*
X23050000Y82933334D02*
X23050000Y83633334D01*
X22783333Y83633334D01*
X22716666Y83600000D01*
X22683333Y83566667D01*
X22650000Y83500000D01*
X22650000Y83400000D01*
X22683333Y83333334D01*
X22716666Y83300000D01*
X22783333Y83266667D01*
X23050000Y83266667D01*
X22216666Y83633334D02*
X22083333Y83633334D01*
X22016666Y83600000D01*
X21950000Y83533334D01*
X21916666Y83400000D01*
X21916666Y83166667D01*
X21950000Y83033334D01*
X22016666Y82966667D01*
X22083333Y82933334D01*
X22216666Y82933334D01*
X22283333Y82966667D01*
X22350000Y83033334D01*
X22383333Y83166667D01*
X22383333Y83400000D01*
X22350000Y83533334D01*
X22283333Y83600000D01*
X22216666Y83633334D01*
X21250000Y83600000D02*
X21316666Y83633334D01*
X21416666Y83633334D01*
X21516666Y83600000D01*
X21583333Y83533334D01*
X21616666Y83466667D01*
X21650000Y83333334D01*
X21650000Y83233334D01*
X21616666Y83100000D01*
X21583333Y83033334D01*
X21516666Y82966667D01*
X21416666Y82933334D01*
X21350000Y82933334D01*
X21250000Y82966667D01*
X21216666Y83000000D01*
X21216666Y83233334D01*
X21350000Y83233334D01*
D10*
X45664285Y3757143D02*
X45621428Y3800000D01*
X45535714Y3842858D01*
X45321428Y3842858D01*
X45235714Y3800000D01*
X45192857Y3757143D01*
X45150000Y3671429D01*
X45150000Y3585715D01*
X45192857Y3457143D01*
X45707142Y2942858D01*
X45150000Y2942858D01*
X44592857Y3842858D02*
X44507142Y3842858D01*
X44421428Y3800000D01*
X44378571Y3757143D01*
X44335714Y3671429D01*
X44292857Y3500000D01*
X44292857Y3285715D01*
X44335714Y3114286D01*
X44378571Y3028572D01*
X44421428Y2985715D01*
X44507142Y2942858D01*
X44592857Y2942858D01*
X44678571Y2985715D01*
X44721428Y3028572D01*
X44764285Y3114286D01*
X44807142Y3285715D01*
X44807142Y3500000D01*
X44764285Y3671429D01*
X44721428Y3757143D01*
X44678571Y3800000D01*
X44592857Y3842858D01*
X43950000Y3757143D02*
X43907142Y3800000D01*
X43821428Y3842858D01*
X43607142Y3842858D01*
X43521428Y3800000D01*
X43478571Y3757143D01*
X43435714Y3671429D01*
X43435714Y3585715D01*
X43478571Y3457143D01*
X43992857Y2942858D01*
X43435714Y2942858D01*
X42578571Y2942858D02*
X43092857Y2942858D01*
X42835714Y2942858D02*
X42835714Y3842858D01*
X42921428Y3714286D01*
X43007142Y3628572D01*
X43092857Y3585715D01*
X42192857Y3028572D02*
X42150000Y2985715D01*
X42192857Y2942858D01*
X42235714Y2985715D01*
X42192857Y3028572D01*
X42192857Y2942858D01*
X41292857Y2942858D02*
X41807142Y2942858D01*
X41550000Y2942858D02*
X41550000Y3842858D01*
X41635714Y3714286D01*
X41721428Y3628572D01*
X41807142Y3585715D01*
X40735714Y3842858D02*
X40650000Y3842858D01*
X40564285Y3800000D01*
X40521428Y3757143D01*
X40478571Y3671429D01*
X40435714Y3500000D01*
X40435714Y3285715D01*
X40478571Y3114286D01*
X40521428Y3028572D01*
X40564285Y2985715D01*
X40650000Y2942858D01*
X40735714Y2942858D01*
X40821428Y2985715D01*
X40864285Y3028572D01*
X40907142Y3114286D01*
X40950000Y3285715D01*
X40950000Y3500000D01*
X40907142Y3671429D01*
X40864285Y3757143D01*
X40821428Y3800000D01*
X40735714Y3842858D01*
X45664285Y14757143D02*
X45621428Y14800000D01*
X45535714Y14842858D01*
X45321428Y14842858D01*
X45235714Y14800000D01*
X45192857Y14757143D01*
X45150000Y14671429D01*
X45150000Y14585715D01*
X45192857Y14457143D01*
X45707142Y13942858D01*
X45150000Y13942858D01*
X44592857Y14842858D02*
X44507142Y14842858D01*
X44421428Y14800000D01*
X44378571Y14757143D01*
X44335714Y14671429D01*
X44292857Y14500000D01*
X44292857Y14285715D01*
X44335714Y14114286D01*
X44378571Y14028572D01*
X44421428Y13985715D01*
X44507142Y13942858D01*
X44592857Y13942858D01*
X44678571Y13985715D01*
X44721428Y14028572D01*
X44764285Y14114286D01*
X44807142Y14285715D01*
X44807142Y14500000D01*
X44764285Y14671429D01*
X44721428Y14757143D01*
X44678571Y14800000D01*
X44592857Y14842858D01*
X43950000Y14757143D02*
X43907142Y14800000D01*
X43821428Y14842858D01*
X43607142Y14842858D01*
X43521428Y14800000D01*
X43478571Y14757143D01*
X43435714Y14671429D01*
X43435714Y14585715D01*
X43478571Y14457143D01*
X43992857Y13942858D01*
X43435714Y13942858D01*
X42578571Y13942858D02*
X43092857Y13942858D01*
X42835714Y13942858D02*
X42835714Y14842858D01*
X42921428Y14714286D01*
X43007142Y14628572D01*
X43092857Y14585715D01*
X42192857Y14028572D02*
X42150000Y13985715D01*
X42192857Y13942858D01*
X42235714Y13985715D01*
X42192857Y14028572D01*
X42192857Y13942858D01*
X41292857Y13942858D02*
X41807142Y13942858D01*
X41550000Y13942858D02*
X41550000Y14842858D01*
X41635714Y14714286D01*
X41721428Y14628572D01*
X41807142Y14585715D01*
X40735714Y14842858D02*
X40650000Y14842858D01*
X40564285Y14800000D01*
X40521428Y14757143D01*
X40478571Y14671429D01*
X40435714Y14500000D01*
X40435714Y14285715D01*
X40478571Y14114286D01*
X40521428Y14028572D01*
X40564285Y13985715D01*
X40650000Y13942858D01*
X40735714Y13942858D01*
X40821428Y13985715D01*
X40864285Y14028572D01*
X40907142Y14114286D01*
X40950000Y14285715D01*
X40950000Y14500000D01*
X40907142Y14671429D01*
X40864285Y14757143D01*
X40821428Y14800000D01*
X40735714Y14842858D01*
X45664285Y25757143D02*
X45621428Y25800000D01*
X45535714Y25842858D01*
X45321428Y25842858D01*
X45235714Y25800000D01*
X45192857Y25757143D01*
X45150000Y25671429D01*
X45150000Y25585715D01*
X45192857Y25457143D01*
X45707142Y24942858D01*
X45150000Y24942858D01*
X44592857Y25842858D02*
X44507142Y25842858D01*
X44421428Y25800000D01*
X44378571Y25757143D01*
X44335714Y25671429D01*
X44292857Y25500000D01*
X44292857Y25285715D01*
X44335714Y25114286D01*
X44378571Y25028572D01*
X44421428Y24985715D01*
X44507142Y24942858D01*
X44592857Y24942858D01*
X44678571Y24985715D01*
X44721428Y25028572D01*
X44764285Y25114286D01*
X44807142Y25285715D01*
X44807142Y25500000D01*
X44764285Y25671429D01*
X44721428Y25757143D01*
X44678571Y25800000D01*
X44592857Y25842858D01*
X43950000Y25757143D02*
X43907142Y25800000D01*
X43821428Y25842858D01*
X43607142Y25842858D01*
X43521428Y25800000D01*
X43478571Y25757143D01*
X43435714Y25671429D01*
X43435714Y25585715D01*
X43478571Y25457143D01*
X43992857Y24942858D01*
X43435714Y24942858D01*
X42578571Y24942858D02*
X43092857Y24942858D01*
X42835714Y24942858D02*
X42835714Y25842858D01*
X42921428Y25714286D01*
X43007142Y25628572D01*
X43092857Y25585715D01*
X42192857Y25028572D02*
X42150000Y24985715D01*
X42192857Y24942858D01*
X42235714Y24985715D01*
X42192857Y25028572D01*
X42192857Y24942858D01*
X41292857Y24942858D02*
X41807142Y24942858D01*
X41550000Y24942858D02*
X41550000Y25842858D01*
X41635714Y25714286D01*
X41721428Y25628572D01*
X41807142Y25585715D01*
X40735714Y25842858D02*
X40650000Y25842858D01*
X40564285Y25800000D01*
X40521428Y25757143D01*
X40478571Y25671429D01*
X40435714Y25500000D01*
X40435714Y25285715D01*
X40478571Y25114286D01*
X40521428Y25028572D01*
X40564285Y24985715D01*
X40650000Y24942858D01*
X40735714Y24942858D01*
X40821428Y24985715D01*
X40864285Y25028572D01*
X40907142Y25114286D01*
X40950000Y25285715D01*
X40950000Y25500000D01*
X40907142Y25671429D01*
X40864285Y25757143D01*
X40821428Y25800000D01*
X40735714Y25842858D01*
X45664285Y36757143D02*
X45621428Y36800000D01*
X45535714Y36842858D01*
X45321428Y36842858D01*
X45235714Y36800000D01*
X45192857Y36757143D01*
X45150000Y36671429D01*
X45150000Y36585715D01*
X45192857Y36457143D01*
X45707142Y35942858D01*
X45150000Y35942858D01*
X44592857Y36842858D02*
X44507142Y36842858D01*
X44421428Y36800000D01*
X44378571Y36757143D01*
X44335714Y36671429D01*
X44292857Y36500000D01*
X44292857Y36285715D01*
X44335714Y36114286D01*
X44378571Y36028572D01*
X44421428Y35985715D01*
X44507142Y35942858D01*
X44592857Y35942858D01*
X44678571Y35985715D01*
X44721428Y36028572D01*
X44764285Y36114286D01*
X44807142Y36285715D01*
X44807142Y36500000D01*
X44764285Y36671429D01*
X44721428Y36757143D01*
X44678571Y36800000D01*
X44592857Y36842858D01*
X43950000Y36757143D02*
X43907142Y36800000D01*
X43821428Y36842858D01*
X43607142Y36842858D01*
X43521428Y36800000D01*
X43478571Y36757143D01*
X43435714Y36671429D01*
X43435714Y36585715D01*
X43478571Y36457143D01*
X43992857Y35942858D01*
X43435714Y35942858D01*
X42578571Y35942858D02*
X43092857Y35942858D01*
X42835714Y35942858D02*
X42835714Y36842858D01*
X42921428Y36714286D01*
X43007142Y36628572D01*
X43092857Y36585715D01*
X42192857Y36028572D02*
X42150000Y35985715D01*
X42192857Y35942858D01*
X42235714Y35985715D01*
X42192857Y36028572D01*
X42192857Y35942858D01*
X41292857Y35942858D02*
X41807142Y35942858D01*
X41550000Y35942858D02*
X41550000Y36842858D01*
X41635714Y36714286D01*
X41721428Y36628572D01*
X41807142Y36585715D01*
X40735714Y36842858D02*
X40650000Y36842858D01*
X40564285Y36800000D01*
X40521428Y36757143D01*
X40478571Y36671429D01*
X40435714Y36500000D01*
X40435714Y36285715D01*
X40478571Y36114286D01*
X40521428Y36028572D01*
X40564285Y35985715D01*
X40650000Y35942858D01*
X40735714Y35942858D01*
X40821428Y35985715D01*
X40864285Y36028572D01*
X40907142Y36114286D01*
X40950000Y36285715D01*
X40950000Y36500000D01*
X40907142Y36671429D01*
X40864285Y36757143D01*
X40821428Y36800000D01*
X40735714Y36842858D01*
X45664285Y47757143D02*
X45621428Y47800000D01*
X45535714Y47842858D01*
X45321428Y47842858D01*
X45235714Y47800000D01*
X45192857Y47757143D01*
X45150000Y47671429D01*
X45150000Y47585715D01*
X45192857Y47457143D01*
X45707142Y46942858D01*
X45150000Y46942858D01*
X44592857Y47842858D02*
X44507142Y47842858D01*
X44421428Y47800000D01*
X44378571Y47757143D01*
X44335714Y47671429D01*
X44292857Y47500000D01*
X44292857Y47285715D01*
X44335714Y47114286D01*
X44378571Y47028572D01*
X44421428Y46985715D01*
X44507142Y46942858D01*
X44592857Y46942858D01*
X44678571Y46985715D01*
X44721428Y47028572D01*
X44764285Y47114286D01*
X44807142Y47285715D01*
X44807142Y47500000D01*
X44764285Y47671429D01*
X44721428Y47757143D01*
X44678571Y47800000D01*
X44592857Y47842858D01*
X43950000Y47757143D02*
X43907142Y47800000D01*
X43821428Y47842858D01*
X43607142Y47842858D01*
X43521428Y47800000D01*
X43478571Y47757143D01*
X43435714Y47671429D01*
X43435714Y47585715D01*
X43478571Y47457143D01*
X43992857Y46942858D01*
X43435714Y46942858D01*
X42578571Y46942858D02*
X43092857Y46942858D01*
X42835714Y46942858D02*
X42835714Y47842858D01*
X42921428Y47714286D01*
X43007142Y47628572D01*
X43092857Y47585715D01*
X42192857Y47028572D02*
X42150000Y46985715D01*
X42192857Y46942858D01*
X42235714Y46985715D01*
X42192857Y47028572D01*
X42192857Y46942858D01*
X41292857Y46942858D02*
X41807142Y46942858D01*
X41550000Y46942858D02*
X41550000Y47842858D01*
X41635714Y47714286D01*
X41721428Y47628572D01*
X41807142Y47585715D01*
X40735714Y47842858D02*
X40650000Y47842858D01*
X40564285Y47800000D01*
X40521428Y47757143D01*
X40478571Y47671429D01*
X40435714Y47500000D01*
X40435714Y47285715D01*
X40478571Y47114286D01*
X40521428Y47028572D01*
X40564285Y46985715D01*
X40650000Y46942858D01*
X40735714Y46942858D01*
X40821428Y46985715D01*
X40864285Y47028572D01*
X40907142Y47114286D01*
X40950000Y47285715D01*
X40950000Y47500000D01*
X40907142Y47671429D01*
X40864285Y47757143D01*
X40821428Y47800000D01*
X40735714Y47842858D01*
X45664285Y58757143D02*
X45621428Y58800000D01*
X45535714Y58842858D01*
X45321428Y58842858D01*
X45235714Y58800000D01*
X45192857Y58757143D01*
X45150000Y58671429D01*
X45150000Y58585715D01*
X45192857Y58457143D01*
X45707142Y57942858D01*
X45150000Y57942858D01*
X44592857Y58842858D02*
X44507142Y58842858D01*
X44421428Y58800000D01*
X44378571Y58757143D01*
X44335714Y58671429D01*
X44292857Y58500000D01*
X44292857Y58285715D01*
X44335714Y58114286D01*
X44378571Y58028572D01*
X44421428Y57985715D01*
X44507142Y57942858D01*
X44592857Y57942858D01*
X44678571Y57985715D01*
X44721428Y58028572D01*
X44764285Y58114286D01*
X44807142Y58285715D01*
X44807142Y58500000D01*
X44764285Y58671429D01*
X44721428Y58757143D01*
X44678571Y58800000D01*
X44592857Y58842858D01*
X43950000Y58757143D02*
X43907142Y58800000D01*
X43821428Y58842858D01*
X43607142Y58842858D01*
X43521428Y58800000D01*
X43478571Y58757143D01*
X43435714Y58671429D01*
X43435714Y58585715D01*
X43478571Y58457143D01*
X43992857Y57942858D01*
X43435714Y57942858D01*
X42578571Y57942858D02*
X43092857Y57942858D01*
X42835714Y57942858D02*
X42835714Y58842858D01*
X42921428Y58714286D01*
X43007142Y58628572D01*
X43092857Y58585715D01*
X42192857Y58028572D02*
X42150000Y57985715D01*
X42192857Y57942858D01*
X42235714Y57985715D01*
X42192857Y58028572D01*
X42192857Y57942858D01*
X41292857Y57942858D02*
X41807142Y57942858D01*
X41550000Y57942858D02*
X41550000Y58842858D01*
X41635714Y58714286D01*
X41721428Y58628572D01*
X41807142Y58585715D01*
X40735714Y58842858D02*
X40650000Y58842858D01*
X40564285Y58800000D01*
X40521428Y58757143D01*
X40478571Y58671429D01*
X40435714Y58500000D01*
X40435714Y58285715D01*
X40478571Y58114286D01*
X40521428Y58028572D01*
X40564285Y57985715D01*
X40650000Y57942858D01*
X40735714Y57942858D01*
X40821428Y57985715D01*
X40864285Y58028572D01*
X40907142Y58114286D01*
X40950000Y58285715D01*
X40950000Y58500000D01*
X40907142Y58671429D01*
X40864285Y58757143D01*
X40821428Y58800000D01*
X40735714Y58842858D01*
X45664285Y69757143D02*
X45621428Y69800000D01*
X45535714Y69842858D01*
X45321428Y69842858D01*
X45235714Y69800000D01*
X45192857Y69757143D01*
X45150000Y69671429D01*
X45150000Y69585715D01*
X45192857Y69457143D01*
X45707142Y68942858D01*
X45150000Y68942858D01*
X44592857Y69842858D02*
X44507142Y69842858D01*
X44421428Y69800000D01*
X44378571Y69757143D01*
X44335714Y69671429D01*
X44292857Y69500000D01*
X44292857Y69285715D01*
X44335714Y69114286D01*
X44378571Y69028572D01*
X44421428Y68985715D01*
X44507142Y68942858D01*
X44592857Y68942858D01*
X44678571Y68985715D01*
X44721428Y69028572D01*
X44764285Y69114286D01*
X44807142Y69285715D01*
X44807142Y69500000D01*
X44764285Y69671429D01*
X44721428Y69757143D01*
X44678571Y69800000D01*
X44592857Y69842858D01*
X43950000Y69757143D02*
X43907142Y69800000D01*
X43821428Y69842858D01*
X43607142Y69842858D01*
X43521428Y69800000D01*
X43478571Y69757143D01*
X43435714Y69671429D01*
X43435714Y69585715D01*
X43478571Y69457143D01*
X43992857Y68942858D01*
X43435714Y68942858D01*
X42578571Y68942858D02*
X43092857Y68942858D01*
X42835714Y68942858D02*
X42835714Y69842858D01*
X42921428Y69714286D01*
X43007142Y69628572D01*
X43092857Y69585715D01*
X42192857Y69028572D02*
X42150000Y68985715D01*
X42192857Y68942858D01*
X42235714Y68985715D01*
X42192857Y69028572D01*
X42192857Y68942858D01*
X41292857Y68942858D02*
X41807142Y68942858D01*
X41550000Y68942858D02*
X41550000Y69842858D01*
X41635714Y69714286D01*
X41721428Y69628572D01*
X41807142Y69585715D01*
X40735714Y69842858D02*
X40650000Y69842858D01*
X40564285Y69800000D01*
X40521428Y69757143D01*
X40478571Y69671429D01*
X40435714Y69500000D01*
X40435714Y69285715D01*
X40478571Y69114286D01*
X40521428Y69028572D01*
X40564285Y68985715D01*
X40650000Y68942858D01*
X40735714Y68942858D01*
X40821428Y68985715D01*
X40864285Y69028572D01*
X40907142Y69114286D01*
X40950000Y69285715D01*
X40950000Y69500000D01*
X40907142Y69671429D01*
X40864285Y69757143D01*
X40821428Y69800000D01*
X40735714Y69842858D01*
X45664285Y80757143D02*
X45621428Y80800000D01*
X45535714Y80842858D01*
X45321428Y80842858D01*
X45235714Y80800000D01*
X45192857Y80757143D01*
X45150000Y80671429D01*
X45150000Y80585715D01*
X45192857Y80457143D01*
X45707142Y79942858D01*
X45150000Y79942858D01*
X44592857Y80842858D02*
X44507142Y80842858D01*
X44421428Y80800000D01*
X44378571Y80757143D01*
X44335714Y80671429D01*
X44292857Y80500000D01*
X44292857Y80285715D01*
X44335714Y80114286D01*
X44378571Y80028572D01*
X44421428Y79985715D01*
X44507142Y79942858D01*
X44592857Y79942858D01*
X44678571Y79985715D01*
X44721428Y80028572D01*
X44764285Y80114286D01*
X44807142Y80285715D01*
X44807142Y80500000D01*
X44764285Y80671429D01*
X44721428Y80757143D01*
X44678571Y80800000D01*
X44592857Y80842858D01*
X43950000Y80757143D02*
X43907142Y80800000D01*
X43821428Y80842858D01*
X43607142Y80842858D01*
X43521428Y80800000D01*
X43478571Y80757143D01*
X43435714Y80671429D01*
X43435714Y80585715D01*
X43478571Y80457143D01*
X43992857Y79942858D01*
X43435714Y79942858D01*
X42578571Y79942858D02*
X43092857Y79942858D01*
X42835714Y79942858D02*
X42835714Y80842858D01*
X42921428Y80714286D01*
X43007142Y80628572D01*
X43092857Y80585715D01*
X42192857Y80028572D02*
X42150000Y79985715D01*
X42192857Y79942858D01*
X42235714Y79985715D01*
X42192857Y80028572D01*
X42192857Y79942858D01*
X41292857Y79942858D02*
X41807142Y79942858D01*
X41550000Y79942858D02*
X41550000Y80842858D01*
X41635714Y80714286D01*
X41721428Y80628572D01*
X41807142Y80585715D01*
X40735714Y80842858D02*
X40650000Y80842858D01*
X40564285Y80800000D01*
X40521428Y80757143D01*
X40478571Y80671429D01*
X40435714Y80500000D01*
X40435714Y80285715D01*
X40478571Y80114286D01*
X40521428Y80028572D01*
X40564285Y79985715D01*
X40650000Y79942858D01*
X40735714Y79942858D01*
X40821428Y79985715D01*
X40864285Y80028572D01*
X40907142Y80114286D01*
X40950000Y80285715D01*
X40950000Y80500000D01*
X40907142Y80671429D01*
X40864285Y80757143D01*
X40821428Y80800000D01*
X40735714Y80842858D01*
D11*
X57666666Y7433334D02*
X57900000Y7766667D01*
X58066666Y7433334D02*
X58066666Y8133334D01*
X57800000Y8133334D01*
X57733333Y8100000D01*
X57700000Y8066667D01*
X57666666Y8000000D01*
X57666666Y7900000D01*
X57700000Y7833334D01*
X57733333Y7800000D01*
X57800000Y7766667D01*
X58066666Y7766667D01*
X57400000Y7633334D02*
X57066666Y7633334D01*
X57466666Y7433334D02*
X57233333Y8133334D01*
X57000000Y7433334D01*
X56766666Y7433334D02*
X56766666Y8133334D01*
X56100000Y7433334D02*
X56433333Y7433334D01*
X56433333Y8133334D01*
X55866666Y7700000D02*
X55333333Y7700000D01*
X55600000Y7433334D02*
X55600000Y7966667D01*
X57666666Y18433334D02*
X57900000Y18766667D01*
X58066666Y18433334D02*
X58066666Y19133334D01*
X57800000Y19133334D01*
X57733333Y19100000D01*
X57700000Y19066667D01*
X57666666Y19000000D01*
X57666666Y18900000D01*
X57700000Y18833334D01*
X57733333Y18800000D01*
X57800000Y18766667D01*
X58066666Y18766667D01*
X57400000Y18633334D02*
X57066666Y18633334D01*
X57466666Y18433334D02*
X57233333Y19133334D01*
X57000000Y18433334D01*
X56766666Y18433334D02*
X56766666Y19133334D01*
X56100000Y18433334D02*
X56433333Y18433334D01*
X56433333Y19133334D01*
X55866666Y18700000D02*
X55333333Y18700000D01*
X55600000Y18433334D02*
X55600000Y18966667D01*
X57666666Y29433334D02*
X57900000Y29766667D01*
X58066666Y29433334D02*
X58066666Y30133334D01*
X57800000Y30133334D01*
X57733333Y30100000D01*
X57700000Y30066667D01*
X57666666Y30000000D01*
X57666666Y29900000D01*
X57700000Y29833334D01*
X57733333Y29800000D01*
X57800000Y29766667D01*
X58066666Y29766667D01*
X57400000Y29633334D02*
X57066666Y29633334D01*
X57466666Y29433334D02*
X57233333Y30133334D01*
X57000000Y29433334D01*
X56766666Y29433334D02*
X56766666Y30133334D01*
X56100000Y29433334D02*
X56433333Y29433334D01*
X56433333Y30133334D01*
X55866666Y29700000D02*
X55333333Y29700000D01*
X55600000Y29433334D02*
X55600000Y29966667D01*
X57666666Y40433334D02*
X57900000Y40766667D01*
X58066666Y40433334D02*
X58066666Y41133334D01*
X57800000Y41133334D01*
X57733333Y41100000D01*
X57700000Y41066667D01*
X57666666Y41000000D01*
X57666666Y40900000D01*
X57700000Y40833334D01*
X57733333Y40800000D01*
X57800000Y40766667D01*
X58066666Y40766667D01*
X57400000Y40633334D02*
X57066666Y40633334D01*
X57466666Y40433334D02*
X57233333Y41133334D01*
X57000000Y40433334D01*
X56766666Y40433334D02*
X56766666Y41133334D01*
X56100000Y40433334D02*
X56433333Y40433334D01*
X56433333Y41133334D01*
X55866666Y40700000D02*
X55333333Y40700000D01*
X55600000Y40433334D02*
X55600000Y40966667D01*
X57666666Y51433334D02*
X57900000Y51766667D01*
X58066666Y51433334D02*
X58066666Y52133334D01*
X57800000Y52133334D01*
X57733333Y52100000D01*
X57700000Y52066667D01*
X57666666Y52000000D01*
X57666666Y51900000D01*
X57700000Y51833334D01*
X57733333Y51800000D01*
X57800000Y51766667D01*
X58066666Y51766667D01*
X57400000Y51633334D02*
X57066666Y51633334D01*
X57466666Y51433334D02*
X57233333Y52133334D01*
X57000000Y51433334D01*
X56766666Y51433334D02*
X56766666Y52133334D01*
X56100000Y51433334D02*
X56433333Y51433334D01*
X56433333Y52133334D01*
X55866666Y51700000D02*
X55333333Y51700000D01*
X55600000Y51433334D02*
X55600000Y51966667D01*
X57666666Y62433334D02*
X57900000Y62766667D01*
X58066666Y62433334D02*
X58066666Y63133334D01*
X57800000Y63133334D01*
X57733333Y63100000D01*
X57700000Y63066667D01*
X57666666Y63000000D01*
X57666666Y62900000D01*
X57700000Y62833334D01*
X57733333Y62800000D01*
X57800000Y62766667D01*
X58066666Y62766667D01*
X57400000Y62633334D02*
X57066666Y62633334D01*
X57466666Y62433334D02*
X57233333Y63133334D01*
X57000000Y62433334D01*
X56766666Y62433334D02*
X56766666Y63133334D01*
X56100000Y62433334D02*
X56433333Y62433334D01*
X56433333Y63133334D01*
X55866666Y62700000D02*
X55333333Y62700000D01*
X55600000Y62433334D02*
X55600000Y62966667D01*
X57666666Y73433334D02*
X57900000Y73766667D01*
X58066666Y73433334D02*
X58066666Y74133334D01*
X57800000Y74133334D01*
X57733333Y74100000D01*
X57700000Y74066667D01*
X57666666Y74000000D01*
X57666666Y73900000D01*
X57700000Y73833334D01*
X57733333Y73800000D01*
X57800000Y73766667D01*
X58066666Y73766667D01*
X57400000Y73633334D02*
X57066666Y73633334D01*
X57466666Y73433334D02*
X57233333Y74133334D01*
X57000000Y73433334D01*
X56766666Y73433334D02*
X56766666Y74133334D01*
X56100000Y73433334D02*
X56433333Y73433334D01*
X56433333Y74133334D01*
X55866666Y73700000D02*
X55333333Y73700000D01*
X55600000Y73433334D02*
X55600000Y73966667D01*
X57666666Y84433334D02*
X57900000Y84766667D01*
X58066666Y84433334D02*
X58066666Y85133334D01*
X57800000Y85133334D01*
X57733333Y85100000D01*
X57700000Y85066667D01*
X57666666Y85000000D01*
X57666666Y84900000D01*
X57700000Y84833334D01*
X57733333Y84800000D01*
X57800000Y84766667D01*
X58066666Y84766667D01*
X57400000Y84633334D02*
X57066666Y84633334D01*
X57466666Y84433334D02*
X57233333Y85133334D01*
X57000000Y84433334D01*
X56766666Y84433334D02*
X56766666Y85133334D01*
X56100000Y84433334D02*
X56433333Y84433334D01*
X56433333Y85133334D01*
X55866666Y84700000D02*
X55333333Y84700000D01*
X55600000Y84433334D02*
X55600000Y84966667D01*
X60900000Y92900000D02*
X61433333Y92700000D01*
X60900000Y92500000D01*
X60566666Y92700000D02*
X60033333Y92700000D01*
X58766666Y92433334D02*
X59000000Y92766667D01*
X59166666Y92433334D02*
X59166666Y93133334D01*
X58900000Y93133334D01*
X58833333Y93100000D01*
X58800000Y93066667D01*
X58766666Y93000000D01*
X58766666Y92900000D01*
X58800000Y92833334D01*
X58833333Y92800000D01*
X58900000Y92766667D01*
X59166666Y92766667D01*
X58466666Y92800000D02*
X58233333Y92800000D01*
X58133333Y92433334D02*
X58466666Y92433334D01*
X58466666Y93133334D01*
X58133333Y93133334D01*
X57933333Y93133334D02*
X57700000Y92433334D01*
X57466666Y93133334D01*
X12033333Y92800000D02*
X12266666Y92800000D01*
X12266666Y92433334D02*
X12266666Y93133334D01*
X11933333Y93133334D01*
X11733333Y93133334D02*
X11566666Y92433334D01*
X11433333Y92933334D01*
X11300000Y92433334D01*
X11133333Y93133334D01*
X10866666Y92433334D02*
X10866666Y93133334D01*
X10700000Y93133334D01*
X10600000Y93100000D01*
X10533333Y93033334D01*
X10500000Y92966667D01*
X10466666Y92833334D01*
X10466666Y92733334D01*
X10500000Y92600000D01*
X10533333Y92533334D01*
X10600000Y92466667D01*
X10700000Y92433334D01*
X10866666Y92433334D01*
X9633333Y92700000D02*
X9100000Y92700000D01*
X8766666Y92900000D02*
X8233333Y92700000D01*
X8766666Y92500000D01*
X12266666Y95233334D02*
X12500000Y95566667D01*
X12666666Y95233334D02*
X12666666Y95933334D01*
X12400000Y95933334D01*
X12333333Y95900000D01*
X12300000Y95866667D01*
X12266666Y95800000D01*
X12266666Y95700000D01*
X12300000Y95633334D01*
X12333333Y95600000D01*
X12400000Y95566667D01*
X12666666Y95566667D01*
X12000000Y95433334D02*
X11666666Y95433334D01*
X12066666Y95233334D02*
X11833333Y95933334D01*
X11600000Y95233334D01*
X11366666Y95233334D02*
X11366666Y95933334D01*
X10700000Y95233334D02*
X11033333Y95233334D01*
X11033333Y95933334D01*
X10466666Y95500000D02*
X9933333Y95500000D01*
X10200000Y95233334D02*
X10200000Y95766667D01*
X12266666Y89633334D02*
X12500000Y89966667D01*
X12666666Y89633334D02*
X12666666Y90333334D01*
X12400000Y90333334D01*
X12333333Y90300000D01*
X12300000Y90266667D01*
X12266666Y90200000D01*
X12266666Y90100000D01*
X12300000Y90033334D01*
X12333333Y90000000D01*
X12400000Y89966667D01*
X12666666Y89966667D01*
X12000000Y89833334D02*
X11666666Y89833334D01*
X12066666Y89633334D02*
X11833333Y90333334D01*
X11600000Y89633334D01*
X11366666Y89633334D02*
X11366666Y90333334D01*
X10700000Y89633334D02*
X11033333Y89633334D01*
X11033333Y90333334D01*
X10466666Y89900000D02*
X9933333Y89900000D01*
X57666666Y89433334D02*
X57900000Y89766667D01*
X58066666Y89433334D02*
X58066666Y90133334D01*
X57800000Y90133334D01*
X57733333Y90100000D01*
X57700000Y90066667D01*
X57666666Y90000000D01*
X57666666Y89900000D01*
X57700000Y89833334D01*
X57733333Y89800000D01*
X57800000Y89766667D01*
X58066666Y89766667D01*
X57400000Y89633334D02*
X57066666Y89633334D01*
X57466666Y89433334D02*
X57233333Y90133334D01*
X57000000Y89433334D01*
X56766666Y89433334D02*
X56766666Y90133334D01*
X56100000Y89433334D02*
X56433333Y89433334D01*
X56433333Y90133334D01*
X55866666Y89700000D02*
X55333333Y89700000D01*
X57666666Y95433334D02*
X57900000Y95766667D01*
X58066666Y95433334D02*
X58066666Y96133334D01*
X57800000Y96133334D01*
X57733333Y96100000D01*
X57700000Y96066667D01*
X57666666Y96000000D01*
X57666666Y95900000D01*
X57700000Y95833334D01*
X57733333Y95800000D01*
X57800000Y95766667D01*
X58066666Y95766667D01*
X57400000Y95633334D02*
X57066666Y95633334D01*
X57466666Y95433334D02*
X57233333Y96133334D01*
X57000000Y95433334D01*
X56766666Y95433334D02*
X56766666Y96133334D01*
X56100000Y95433334D02*
X56433333Y95433334D01*
X56433333Y96133334D01*
X55866666Y95700000D02*
X55333333Y95700000D01*
X55600000Y95433334D02*
X55600000Y95966667D01*
X23750000Y93933334D02*
X23750000Y94633334D01*
X23483333Y94633334D01*
X23416666Y94600000D01*
X23383333Y94566667D01*
X23350000Y94500000D01*
X23350000Y94400000D01*
X23383333Y94333334D01*
X23416666Y94300000D01*
X23483333Y94266667D01*
X23750000Y94266667D01*
X22650000Y93933334D02*
X22883333Y94266667D01*
X23050000Y93933334D02*
X23050000Y94633334D01*
X22783333Y94633334D01*
X22716666Y94600000D01*
X22683333Y94566667D01*
X22650000Y94500000D01*
X22650000Y94400000D01*
X22683333Y94333334D01*
X22716666Y94300000D01*
X22783333Y94266667D01*
X23050000Y94266667D01*
X22216666Y94633334D02*
X22083333Y94633334D01*
X22016666Y94600000D01*
X21950000Y94533334D01*
X21916666Y94400000D01*
X21916666Y94166667D01*
X21950000Y94033334D01*
X22016666Y93966667D01*
X22083333Y93933334D01*
X22216666Y93933334D01*
X22283333Y93966667D01*
X22350000Y94033334D01*
X22383333Y94166667D01*
X22383333Y94400000D01*
X22350000Y94533334D01*
X22283333Y94600000D01*
X22216666Y94633334D01*
X21250000Y94600000D02*
X21316666Y94633334D01*
X21416666Y94633334D01*
X21516666Y94600000D01*
X21583333Y94533334D01*
X21616666Y94466667D01*
X21650000Y94333334D01*
X21650000Y94233334D01*
X21616666Y94100000D01*
X21583333Y94033334D01*
X21516666Y93966667D01*
X21416666Y93933334D01*
X21350000Y93933334D01*
X21250000Y93966667D01*
X21216666Y94000000D01*
X21216666Y94233334D01*
X21350000Y94233334D01*
D10*
X45664285Y91757143D02*
X45621428Y91800000D01*
X45535714Y91842858D01*
X45321428Y91842858D01*
X45235714Y91800000D01*
X45192857Y91757143D01*
X45150000Y91671429D01*
X45150000Y91585715D01*
X45192857Y91457143D01*
X45707142Y90942858D01*
X45150000Y90942858D01*
X44592857Y91842858D02*
X44507142Y91842858D01*
X44421428Y91800000D01*
X44378571Y91757143D01*
X44335714Y91671429D01*
X44292857Y91500000D01*
X44292857Y91285715D01*
X44335714Y91114286D01*
X44378571Y91028572D01*
X44421428Y90985715D01*
X44507142Y90942858D01*
X44592857Y90942858D01*
X44678571Y90985715D01*
X44721428Y91028572D01*
X44764285Y91114286D01*
X44807142Y91285715D01*
X44807142Y91500000D01*
X44764285Y91671429D01*
X44721428Y91757143D01*
X44678571Y91800000D01*
X44592857Y91842858D01*
X43950000Y91757143D02*
X43907142Y91800000D01*
X43821428Y91842858D01*
X43607142Y91842858D01*
X43521428Y91800000D01*
X43478571Y91757143D01*
X43435714Y91671429D01*
X43435714Y91585715D01*
X43478571Y91457143D01*
X43992857Y90942858D01*
X43435714Y90942858D01*
X42578571Y90942858D02*
X43092857Y90942858D01*
X42835714Y90942858D02*
X42835714Y91842858D01*
X42921428Y91714286D01*
X43007142Y91628572D01*
X43092857Y91585715D01*
X42192857Y91028572D02*
X42150000Y90985715D01*
X42192857Y90942858D01*
X42235714Y90985715D01*
X42192857Y91028572D01*
X42192857Y90942858D01*
X41292857Y90942858D02*
X41807142Y90942858D01*
X41550000Y90942858D02*
X41550000Y91842858D01*
X41635714Y91714286D01*
X41721428Y91628572D01*
X41807142Y91585715D01*
X40735714Y91842858D02*
X40650000Y91842858D01*
X40564285Y91800000D01*
X40521428Y91757143D01*
X40478571Y91671429D01*
X40435714Y91500000D01*
X40435714Y91285715D01*
X40478571Y91114286D01*
X40521428Y91028572D01*
X40564285Y90985715D01*
X40650000Y90942858D01*
X40735714Y90942858D01*
X40821428Y90985715D01*
X40864285Y91028572D01*
X40907142Y91114286D01*
X40950000Y91285715D01*
X40950000Y91500000D01*
X40907142Y91671429D01*
X40864285Y91757143D01*
X40821428Y91800000D01*
X40735714Y91842858D01*
X45192857Y92342858D02*
X45492857Y92771429D01*
X45707142Y92342858D02*
X45707142Y93242858D01*
X45364285Y93242858D01*
X45278571Y93200000D01*
X45235714Y93157143D01*
X45192857Y93071429D01*
X45192857Y92942858D01*
X45235714Y92857143D01*
X45278571Y92814286D01*
X45364285Y92771429D01*
X45707142Y92771429D01*
X44464285Y92385715D02*
X44550000Y92342858D01*
X44721428Y92342858D01*
X44807142Y92385715D01*
X44850000Y92471429D01*
X44850000Y92814286D01*
X44807142Y92900000D01*
X44721428Y92942858D01*
X44550000Y92942858D01*
X44464285Y92900000D01*
X44421428Y92814286D01*
X44421428Y92728572D01*
X44850000Y92642858D01*
X44121428Y92942858D02*
X43907142Y92342858D01*
X43692857Y92942858D01*
X43350000Y92428572D02*
X43307142Y92385715D01*
X43350000Y92342858D01*
X43392857Y92385715D01*
X43350000Y92428572D01*
X43350000Y92342858D01*
X42450000Y92342858D02*
X42964285Y92342858D01*
X42707142Y92342858D02*
X42707142Y93242858D01*
X42792857Y93114286D01*
X42878571Y93028572D01*
X42964285Y92985715D01*
X45685714Y93642858D02*
X45685714Y94542858D01*
X45171428Y93642858D02*
X45557142Y94157143D01*
X45171428Y94542858D02*
X45685714Y94028572D01*
X44871428Y94542858D02*
X44271428Y94542858D01*
X44657142Y93642858D01*
X43757142Y94542858D02*
X43671428Y94542858D01*
X43585714Y94500000D01*
X43542857Y94457143D01*
X43500000Y94371429D01*
X43457142Y94200000D01*
X43457142Y93985715D01*
X43500000Y93814286D01*
X43542857Y93728572D01*
X43585714Y93685715D01*
X43671428Y93642858D01*
X43757142Y93642858D01*
X43842857Y93685715D01*
X43885714Y93728572D01*
X43928571Y93814286D01*
X43971428Y93985715D01*
X43971428Y94200000D01*
X43928571Y94371429D01*
X43885714Y94457143D01*
X43842857Y94500000D01*
X43757142Y94542858D01*
X42600000Y93642858D02*
X43114285Y93642858D01*
X42857142Y93642858D02*
X42857142Y94542858D01*
X42942857Y94414286D01*
X43028571Y94328572D01*
X43114285Y94285715D01*
X42257142Y94457143D02*
X42214285Y94500000D01*
X42128571Y94542858D01*
X41914285Y94542858D01*
X41828571Y94500000D01*
X41785714Y94457143D01*
X41742857Y94371429D01*
X41742857Y94285715D01*
X41785714Y94157143D01*
X42300000Y93642858D01*
X41742857Y93642858D01*
X40842857Y93642858D02*
X41142857Y94071429D01*
X41357142Y93642858D02*
X41357142Y94542858D01*
X41014285Y94542858D01*
X40928571Y94500000D01*
X40885714Y94457143D01*
X40842857Y94371429D01*
X40842857Y94242858D01*
X40885714Y94157143D01*
X40928571Y94114286D01*
X41014285Y94071429D01*
X41357142Y94071429D01*
X40500000Y93900000D02*
X40071428Y93900000D01*
X40585714Y93642858D02*
X40285714Y94542858D01*
X39985714Y93642858D01*
%TO.C,P9*%
X23750000Y8280000D02*
X23750000Y7020000D01*
X21250000Y7020000D02*
X23750000Y7020000D01*
X21250000Y8280000D02*
X21250000Y7020000D01*
X23750000Y8280000D02*
X21250000Y8280000D01*
X23750000Y19280000D02*
X23750000Y18020000D01*
X21250000Y18020000D02*
X23750000Y18020000D01*
X21250000Y19280000D02*
X21250000Y18020000D01*
X23750000Y19280000D02*
X21250000Y19280000D01*
X23750000Y30280000D02*
X23750000Y29020000D01*
X21250000Y29020000D02*
X23750000Y29020000D01*
X21250000Y30280000D02*
X21250000Y29020000D01*
X23750000Y30280000D02*
X21250000Y30280000D01*
X23750000Y41280000D02*
X23750000Y40020000D01*
X21250000Y40020000D02*
X23750000Y40020000D01*
X21250000Y41280000D02*
X21250000Y40020000D01*
X23750000Y41280000D02*
X21250000Y41280000D01*
X23750000Y52280000D02*
X23750000Y51020000D01*
X21250000Y51020000D02*
X23750000Y51020000D01*
X21250000Y52280000D02*
X21250000Y51020000D01*
X23750000Y52280000D02*
X21250000Y52280000D01*
X23750000Y63280000D02*
X23750000Y62020000D01*
X21250000Y62020000D02*
X23750000Y62020000D01*
X21250000Y63280000D02*
X21250000Y62020000D01*
X23750000Y63280000D02*
X21250000Y63280000D01*
X23750000Y74280000D02*
X23750000Y73020000D01*
X21250000Y73020000D02*
X23750000Y73020000D01*
X21250000Y74280000D02*
X21250000Y73020000D01*
X23750000Y74280000D02*
X21250000Y74280000D01*
X23750000Y85280000D02*
X23750000Y84020000D01*
X21250000Y84020000D02*
X23750000Y84020000D01*
X21250000Y85280000D02*
X21250000Y84020000D01*
X23750000Y85280000D02*
X21250000Y85280000D01*
X23750000Y96280000D02*
X21250000Y96280000D01*
X21250000Y96280000D02*
X21250000Y95020000D01*
X21250000Y95020000D02*
X23750000Y95020000D01*
X23750000Y96280000D02*
X23750000Y95020000D01*
%TD*%
%LPC*%
D12*
%TO.C,REF\u002A\u002A*%
X66500000Y4750000D03*
%TD*%
%TO.C,REF\u002A\u002A*%
X66500000Y15750000D03*
%TD*%
%TO.C,REF\u002A\u002A*%
X66500000Y26750000D03*
%TD*%
%TO.C,REF\u002A\u002A*%
X66500000Y37750000D03*
%TD*%
%TO.C,REF\u002A\u002A*%
X66500000Y48750000D03*
%TD*%
%TO.C,REF\u002A\u002A*%
X66500000Y59750000D03*
%TD*%
%TO.C,REF\u002A\u002A*%
X66500000Y70750000D03*
%TD*%
%TO.C,REF\u002A\u002A*%
X66500000Y81750000D03*
%TD*%
%TO.C,REF\u002A\u002A*%
X3500000Y4750000D03*
%TD*%
%TO.C,REF\u002A\u002A*%
X3500000Y15750000D03*
%TD*%
%TO.C,REF\u002A\u002A*%
X3500000Y26750000D03*
%TD*%
%TO.C,REF\u002A\u002A*%
X3500000Y37750000D03*
%TD*%
%TO.C,REF\u002A\u002A*%
X3500000Y48750000D03*
%TD*%
%TO.C,REF\u002A\u002A*%
X3500000Y59750000D03*
%TD*%
%TO.C,REF\u002A\u002A*%
X3500000Y70750000D03*
%TD*%
%TO.C,REF\u002A\u002A*%
X3500000Y81750000D03*
%TD*%
%TO.C,REF\u002A\u002A*%
X3500000Y92750000D03*
%TD*%
%TO.C,REF\u002A\u002A*%
X66500000Y92750000D03*
%TD*%
%TO.C,P5*%
G36*
G01*
X41675000Y7000000D02*
X41675000Y8500000D01*
G75*
G02*
X41700000Y8525000I25000J0D01*
G01*
X43700000Y8525000D01*
G75*
G02*
X43725000Y8500000I0J-25000D01*
G01*
X43725000Y7000000D01*
G75*
G02*
X43700000Y6975000I-25000J0D01*
G01*
X41700000Y6975000D01*
G75*
G02*
X41675000Y7000000I0J25000D01*
G01*
G37*
G36*
G01*
X43675000Y7000000D02*
X43675000Y8500000D01*
G75*
G02*
X43700000Y8525000I25000J0D01*
G01*
X45200000Y8525000D01*
G75*
G02*
X45225000Y8500000I0J-25000D01*
G01*
X45225000Y7000000D01*
G75*
G02*
X45200000Y6975000I-25000J0D01*
G01*
X43700000Y6975000D01*
G75*
G02*
X43675000Y7000000I0J25000D01*
G01*
G37*
G36*
G01*
X40175000Y7000000D02*
X40175000Y8500000D01*
G75*
G02*
X40200000Y8525000I25000J0D01*
G01*
X41700000Y8525000D01*
G75*
G02*
X41725000Y8500000I0J-25000D01*
G01*
X41725000Y7000000D01*
G75*
G02*
X41700000Y6975000I-25000J0D01*
G01*
X40200000Y6975000D01*
G75*
G02*
X40175000Y7000000I0J25000D01*
G01*
G37*
%TD*%
%TO.C,P5*%
G36*
G01*
X41675000Y18000000D02*
X41675000Y19500000D01*
G75*
G02*
X41700000Y19525000I25000J0D01*
G01*
X43700000Y19525000D01*
G75*
G02*
X43725000Y19500000I0J-25000D01*
G01*
X43725000Y18000000D01*
G75*
G02*
X43700000Y17975000I-25000J0D01*
G01*
X41700000Y17975000D01*
G75*
G02*
X41675000Y18000000I0J25000D01*
G01*
G37*
G36*
G01*
X43675000Y18000000D02*
X43675000Y19500000D01*
G75*
G02*
X43700000Y19525000I25000J0D01*
G01*
X45200000Y19525000D01*
G75*
G02*
X45225000Y19500000I0J-25000D01*
G01*
X45225000Y18000000D01*
G75*
G02*
X45200000Y17975000I-25000J0D01*
G01*
X43700000Y17975000D01*
G75*
G02*
X43675000Y18000000I0J25000D01*
G01*
G37*
G36*
G01*
X40175000Y18000000D02*
X40175000Y19500000D01*
G75*
G02*
X40200000Y19525000I25000J0D01*
G01*
X41700000Y19525000D01*
G75*
G02*
X41725000Y19500000I0J-25000D01*
G01*
X41725000Y18000000D01*
G75*
G02*
X41700000Y17975000I-25000J0D01*
G01*
X40200000Y17975000D01*
G75*
G02*
X40175000Y18000000I0J25000D01*
G01*
G37*
%TD*%
%TO.C,P5*%
G36*
G01*
X41675000Y29000000D02*
X41675000Y30500000D01*
G75*
G02*
X41700000Y30525000I25000J0D01*
G01*
X43700000Y30525000D01*
G75*
G02*
X43725000Y30500000I0J-25000D01*
G01*
X43725000Y29000000D01*
G75*
G02*
X43700000Y28975000I-25000J0D01*
G01*
X41700000Y28975000D01*
G75*
G02*
X41675000Y29000000I0J25000D01*
G01*
G37*
G36*
G01*
X43675000Y29000000D02*
X43675000Y30500000D01*
G75*
G02*
X43700000Y30525000I25000J0D01*
G01*
X45200000Y30525000D01*
G75*
G02*
X45225000Y30500000I0J-25000D01*
G01*
X45225000Y29000000D01*
G75*
G02*
X45200000Y28975000I-25000J0D01*
G01*
X43700000Y28975000D01*
G75*
G02*
X43675000Y29000000I0J25000D01*
G01*
G37*
G36*
G01*
X40175000Y29000000D02*
X40175000Y30500000D01*
G75*
G02*
X40200000Y30525000I25000J0D01*
G01*
X41700000Y30525000D01*
G75*
G02*
X41725000Y30500000I0J-25000D01*
G01*
X41725000Y29000000D01*
G75*
G02*
X41700000Y28975000I-25000J0D01*
G01*
X40200000Y28975000D01*
G75*
G02*
X40175000Y29000000I0J25000D01*
G01*
G37*
%TD*%
%TO.C,P5*%
G36*
G01*
X41675000Y40000000D02*
X41675000Y41500000D01*
G75*
G02*
X41700000Y41525000I25000J0D01*
G01*
X43700000Y41525000D01*
G75*
G02*
X43725000Y41500000I0J-25000D01*
G01*
X43725000Y40000000D01*
G75*
G02*
X43700000Y39975000I-25000J0D01*
G01*
X41700000Y39975000D01*
G75*
G02*
X41675000Y40000000I0J25000D01*
G01*
G37*
G36*
G01*
X43675000Y40000000D02*
X43675000Y41500000D01*
G75*
G02*
X43700000Y41525000I25000J0D01*
G01*
X45200000Y41525000D01*
G75*
G02*
X45225000Y41500000I0J-25000D01*
G01*
X45225000Y40000000D01*
G75*
G02*
X45200000Y39975000I-25000J0D01*
G01*
X43700000Y39975000D01*
G75*
G02*
X43675000Y40000000I0J25000D01*
G01*
G37*
G36*
G01*
X40175000Y40000000D02*
X40175000Y41500000D01*
G75*
G02*
X40200000Y41525000I25000J0D01*
G01*
X41700000Y41525000D01*
G75*
G02*
X41725000Y41500000I0J-25000D01*
G01*
X41725000Y40000000D01*
G75*
G02*
X41700000Y39975000I-25000J0D01*
G01*
X40200000Y39975000D01*
G75*
G02*
X40175000Y40000000I0J25000D01*
G01*
G37*
%TD*%
%TO.C,P5*%
G36*
G01*
X41675000Y51000000D02*
X41675000Y52500000D01*
G75*
G02*
X41700000Y52525000I25000J0D01*
G01*
X43700000Y52525000D01*
G75*
G02*
X43725000Y52500000I0J-25000D01*
G01*
X43725000Y51000000D01*
G75*
G02*
X43700000Y50975000I-25000J0D01*
G01*
X41700000Y50975000D01*
G75*
G02*
X41675000Y51000000I0J25000D01*
G01*
G37*
G36*
G01*
X43675000Y51000000D02*
X43675000Y52500000D01*
G75*
G02*
X43700000Y52525000I25000J0D01*
G01*
X45200000Y52525000D01*
G75*
G02*
X45225000Y52500000I0J-25000D01*
G01*
X45225000Y51000000D01*
G75*
G02*
X45200000Y50975000I-25000J0D01*
G01*
X43700000Y50975000D01*
G75*
G02*
X43675000Y51000000I0J25000D01*
G01*
G37*
G36*
G01*
X40175000Y51000000D02*
X40175000Y52500000D01*
G75*
G02*
X40200000Y52525000I25000J0D01*
G01*
X41700000Y52525000D01*
G75*
G02*
X41725000Y52500000I0J-25000D01*
G01*
X41725000Y51000000D01*
G75*
G02*
X41700000Y50975000I-25000J0D01*
G01*
X40200000Y50975000D01*
G75*
G02*
X40175000Y51000000I0J25000D01*
G01*
G37*
%TD*%
%TO.C,P5*%
G36*
G01*
X41675000Y62000000D02*
X41675000Y63500000D01*
G75*
G02*
X41700000Y63525000I25000J0D01*
G01*
X43700000Y63525000D01*
G75*
G02*
X43725000Y63500000I0J-25000D01*
G01*
X43725000Y62000000D01*
G75*
G02*
X43700000Y61975000I-25000J0D01*
G01*
X41700000Y61975000D01*
G75*
G02*
X41675000Y62000000I0J25000D01*
G01*
G37*
G36*
G01*
X43675000Y62000000D02*
X43675000Y63500000D01*
G75*
G02*
X43700000Y63525000I25000J0D01*
G01*
X45200000Y63525000D01*
G75*
G02*
X45225000Y63500000I0J-25000D01*
G01*
X45225000Y62000000D01*
G75*
G02*
X45200000Y61975000I-25000J0D01*
G01*
X43700000Y61975000D01*
G75*
G02*
X43675000Y62000000I0J25000D01*
G01*
G37*
G36*
G01*
X40175000Y62000000D02*
X40175000Y63500000D01*
G75*
G02*
X40200000Y63525000I25000J0D01*
G01*
X41700000Y63525000D01*
G75*
G02*
X41725000Y63500000I0J-25000D01*
G01*
X41725000Y62000000D01*
G75*
G02*
X41700000Y61975000I-25000J0D01*
G01*
X40200000Y61975000D01*
G75*
G02*
X40175000Y62000000I0J25000D01*
G01*
G37*
%TD*%
%TO.C,P5*%
G36*
G01*
X41675000Y73000000D02*
X41675000Y74500000D01*
G75*
G02*
X41700000Y74525000I25000J0D01*
G01*
X43700000Y74525000D01*
G75*
G02*
X43725000Y74500000I0J-25000D01*
G01*
X43725000Y73000000D01*
G75*
G02*
X43700000Y72975000I-25000J0D01*
G01*
X41700000Y72975000D01*
G75*
G02*
X41675000Y73000000I0J25000D01*
G01*
G37*
G36*
G01*
X43675000Y73000000D02*
X43675000Y74500000D01*
G75*
G02*
X43700000Y74525000I25000J0D01*
G01*
X45200000Y74525000D01*
G75*
G02*
X45225000Y74500000I0J-25000D01*
G01*
X45225000Y73000000D01*
G75*
G02*
X45200000Y72975000I-25000J0D01*
G01*
X43700000Y72975000D01*
G75*
G02*
X43675000Y73000000I0J25000D01*
G01*
G37*
G36*
G01*
X40175000Y73000000D02*
X40175000Y74500000D01*
G75*
G02*
X40200000Y74525000I25000J0D01*
G01*
X41700000Y74525000D01*
G75*
G02*
X41725000Y74500000I0J-25000D01*
G01*
X41725000Y73000000D01*
G75*
G02*
X41700000Y72975000I-25000J0D01*
G01*
X40200000Y72975000D01*
G75*
G02*
X40175000Y73000000I0J25000D01*
G01*
G37*
%TD*%
%TO.C,P5*%
G36*
G01*
X41675000Y84000000D02*
X41675000Y85500000D01*
G75*
G02*
X41700000Y85525000I25000J0D01*
G01*
X43700000Y85525000D01*
G75*
G02*
X43725000Y85500000I0J-25000D01*
G01*
X43725000Y84000000D01*
G75*
G02*
X43700000Y83975000I-25000J0D01*
G01*
X41700000Y83975000D01*
G75*
G02*
X41675000Y84000000I0J25000D01*
G01*
G37*
G36*
G01*
X43675000Y84000000D02*
X43675000Y85500000D01*
G75*
G02*
X43700000Y85525000I25000J0D01*
G01*
X45200000Y85525000D01*
G75*
G02*
X45225000Y85500000I0J-25000D01*
G01*
X45225000Y84000000D01*
G75*
G02*
X45200000Y83975000I-25000J0D01*
G01*
X43700000Y83975000D01*
G75*
G02*
X43675000Y84000000I0J25000D01*
G01*
G37*
G36*
G01*
X40175000Y84000000D02*
X40175000Y85500000D01*
G75*
G02*
X40200000Y85525000I25000J0D01*
G01*
X41700000Y85525000D01*
G75*
G02*
X41725000Y85500000I0J-25000D01*
G01*
X41725000Y84000000D01*
G75*
G02*
X41700000Y83975000I-25000J0D01*
G01*
X40200000Y83975000D01*
G75*
G02*
X40175000Y84000000I0J25000D01*
G01*
G37*
%TD*%
%TO.C,P4*%
G36*
G01*
X53475000Y1000000D02*
X53475000Y2500000D01*
G75*
G02*
X53500000Y2525000I25000J0D01*
G01*
X55000000Y2525000D01*
G75*
G02*
X55025000Y2500000I0J-25000D01*
G01*
X55025000Y1000000D01*
G75*
G02*
X55000000Y975000I-25000J0D01*
G01*
X53500000Y975000D01*
G75*
G02*
X53475000Y1000000I0J25000D01*
G01*
G37*
%TD*%
%TO.C,P4*%
G36*
G01*
X53475000Y12000000D02*
X53475000Y13500000D01*
G75*
G02*
X53500000Y13525000I25000J0D01*
G01*
X55000000Y13525000D01*
G75*
G02*
X55025000Y13500000I0J-25000D01*
G01*
X55025000Y12000000D01*
G75*
G02*
X55000000Y11975000I-25000J0D01*
G01*
X53500000Y11975000D01*
G75*
G02*
X53475000Y12000000I0J25000D01*
G01*
G37*
%TD*%
%TO.C,P4*%
G36*
G01*
X53475000Y23000000D02*
X53475000Y24500000D01*
G75*
G02*
X53500000Y24525000I25000J0D01*
G01*
X55000000Y24525000D01*
G75*
G02*
X55025000Y24500000I0J-25000D01*
G01*
X55025000Y23000000D01*
G75*
G02*
X55000000Y22975000I-25000J0D01*
G01*
X53500000Y22975000D01*
G75*
G02*
X53475000Y23000000I0J25000D01*
G01*
G37*
%TD*%
%TO.C,P4*%
G36*
G01*
X53475000Y34000000D02*
X53475000Y35500000D01*
G75*
G02*
X53500000Y35525000I25000J0D01*
G01*
X55000000Y35525000D01*
G75*
G02*
X55025000Y35500000I0J-25000D01*
G01*
X55025000Y34000000D01*
G75*
G02*
X55000000Y33975000I-25000J0D01*
G01*
X53500000Y33975000D01*
G75*
G02*
X53475000Y34000000I0J25000D01*
G01*
G37*
%TD*%
%TO.C,P4*%
G36*
G01*
X53475000Y45000000D02*
X53475000Y46500000D01*
G75*
G02*
X53500000Y46525000I25000J0D01*
G01*
X55000000Y46525000D01*
G75*
G02*
X55025000Y46500000I0J-25000D01*
G01*
X55025000Y45000000D01*
G75*
G02*
X55000000Y44975000I-25000J0D01*
G01*
X53500000Y44975000D01*
G75*
G02*
X53475000Y45000000I0J25000D01*
G01*
G37*
%TD*%
%TO.C,P4*%
G36*
G01*
X53475000Y56000000D02*
X53475000Y57500000D01*
G75*
G02*
X53500000Y57525000I25000J0D01*
G01*
X55000000Y57525000D01*
G75*
G02*
X55025000Y57500000I0J-25000D01*
G01*
X55025000Y56000000D01*
G75*
G02*
X55000000Y55975000I-25000J0D01*
G01*
X53500000Y55975000D01*
G75*
G02*
X53475000Y56000000I0J25000D01*
G01*
G37*
%TD*%
%TO.C,P4*%
G36*
G01*
X53475000Y67000000D02*
X53475000Y68500000D01*
G75*
G02*
X53500000Y68525000I25000J0D01*
G01*
X55000000Y68525000D01*
G75*
G02*
X55025000Y68500000I0J-25000D01*
G01*
X55025000Y67000000D01*
G75*
G02*
X55000000Y66975000I-25000J0D01*
G01*
X53500000Y66975000D01*
G75*
G02*
X53475000Y67000000I0J25000D01*
G01*
G37*
%TD*%
%TO.C,P4*%
G36*
G01*
X53475000Y78000000D02*
X53475000Y79500000D01*
G75*
G02*
X53500000Y79525000I25000J0D01*
G01*
X55000000Y79525000D01*
G75*
G02*
X55025000Y79500000I0J-25000D01*
G01*
X55025000Y78000000D01*
G75*
G02*
X55000000Y77975000I-25000J0D01*
G01*
X53500000Y77975000D01*
G75*
G02*
X53475000Y78000000I0J25000D01*
G01*
G37*
%TD*%
%TO.C,P1*%
G36*
G01*
X9525000Y8500000D02*
X9525000Y6500000D01*
G75*
G02*
X9500000Y6475000I-25000J0D01*
G01*
X7500000Y6475000D01*
G75*
G02*
X7475000Y6500000I0J25000D01*
G01*
X7475000Y8500000D01*
G75*
G02*
X7500000Y8525000I25000J0D01*
G01*
X9500000Y8525000D01*
G75*
G02*
X9525000Y8500000I0J-25000D01*
G01*
G37*
%TD*%
%TO.C,P1*%
G36*
G01*
X9525000Y19500000D02*
X9525000Y17500000D01*
G75*
G02*
X9500000Y17475000I-25000J0D01*
G01*
X7500000Y17475000D01*
G75*
G02*
X7475000Y17500000I0J25000D01*
G01*
X7475000Y19500000D01*
G75*
G02*
X7500000Y19525000I25000J0D01*
G01*
X9500000Y19525000D01*
G75*
G02*
X9525000Y19500000I0J-25000D01*
G01*
G37*
%TD*%
%TO.C,P1*%
G36*
G01*
X9525000Y30500000D02*
X9525000Y28500000D01*
G75*
G02*
X9500000Y28475000I-25000J0D01*
G01*
X7500000Y28475000D01*
G75*
G02*
X7475000Y28500000I0J25000D01*
G01*
X7475000Y30500000D01*
G75*
G02*
X7500000Y30525000I25000J0D01*
G01*
X9500000Y30525000D01*
G75*
G02*
X9525000Y30500000I0J-25000D01*
G01*
G37*
%TD*%
%TO.C,P1*%
G36*
G01*
X9525000Y41500000D02*
X9525000Y39500000D01*
G75*
G02*
X9500000Y39475000I-25000J0D01*
G01*
X7500000Y39475000D01*
G75*
G02*
X7475000Y39500000I0J25000D01*
G01*
X7475000Y41500000D01*
G75*
G02*
X7500000Y41525000I25000J0D01*
G01*
X9500000Y41525000D01*
G75*
G02*
X9525000Y41500000I0J-25000D01*
G01*
G37*
%TD*%
%TO.C,P1*%
G36*
G01*
X9525000Y52500000D02*
X9525000Y50500000D01*
G75*
G02*
X9500000Y50475000I-25000J0D01*
G01*
X7500000Y50475000D01*
G75*
G02*
X7475000Y50500000I0J25000D01*
G01*
X7475000Y52500000D01*
G75*
G02*
X7500000Y52525000I25000J0D01*
G01*
X9500000Y52525000D01*
G75*
G02*
X9525000Y52500000I0J-25000D01*
G01*
G37*
%TD*%
%TO.C,P1*%
G36*
G01*
X9525000Y63500000D02*
X9525000Y61500000D01*
G75*
G02*
X9500000Y61475000I-25000J0D01*
G01*
X7500000Y61475000D01*
G75*
G02*
X7475000Y61500000I0J25000D01*
G01*
X7475000Y63500000D01*
G75*
G02*
X7500000Y63525000I25000J0D01*
G01*
X9500000Y63525000D01*
G75*
G02*
X9525000Y63500000I0J-25000D01*
G01*
G37*
%TD*%
%TO.C,P1*%
G36*
G01*
X9525000Y74500000D02*
X9525000Y72500000D01*
G75*
G02*
X9500000Y72475000I-25000J0D01*
G01*
X7500000Y72475000D01*
G75*
G02*
X7475000Y72500000I0J25000D01*
G01*
X7475000Y74500000D01*
G75*
G02*
X7500000Y74525000I25000J0D01*
G01*
X9500000Y74525000D01*
G75*
G02*
X9525000Y74500000I0J-25000D01*
G01*
G37*
%TD*%
%TO.C,P1*%
G36*
G01*
X9525000Y85500000D02*
X9525000Y83500000D01*
G75*
G02*
X9500000Y83475000I-25000J0D01*
G01*
X7500000Y83475000D01*
G75*
G02*
X7475000Y83500000I0J25000D01*
G01*
X7475000Y85500000D01*
G75*
G02*
X7500000Y85525000I25000J0D01*
G01*
X9500000Y85525000D01*
G75*
G02*
X9525000Y85500000I0J-25000D01*
G01*
G37*
%TD*%
%TO.C,P3*%
G36*
G01*
X9525000Y3000000D02*
X9525000Y1000000D01*
G75*
G02*
X9500000Y975000I-25000J0D01*
G01*
X7500000Y975000D01*
G75*
G02*
X7475000Y1000000I0J25000D01*
G01*
X7475000Y3000000D01*
G75*
G02*
X7500000Y3025000I25000J0D01*
G01*
X9500000Y3025000D01*
G75*
G02*
X9525000Y3000000I0J-25000D01*
G01*
G37*
%TD*%
%TO.C,P3*%
G36*
G01*
X9525000Y14000000D02*
X9525000Y12000000D01*
G75*
G02*
X9500000Y11975000I-25000J0D01*
G01*
X7500000Y11975000D01*
G75*
G02*
X7475000Y12000000I0J25000D01*
G01*
X7475000Y14000000D01*
G75*
G02*
X7500000Y14025000I25000J0D01*
G01*
X9500000Y14025000D01*
G75*
G02*
X9525000Y14000000I0J-25000D01*
G01*
G37*
%TD*%
%TO.C,P3*%
G36*
G01*
X9525000Y25000000D02*
X9525000Y23000000D01*
G75*
G02*
X9500000Y22975000I-25000J0D01*
G01*
X7500000Y22975000D01*
G75*
G02*
X7475000Y23000000I0J25000D01*
G01*
X7475000Y25000000D01*
G75*
G02*
X7500000Y25025000I25000J0D01*
G01*
X9500000Y25025000D01*
G75*
G02*
X9525000Y25000000I0J-25000D01*
G01*
G37*
%TD*%
%TO.C,P3*%
G36*
G01*
X9525000Y36000000D02*
X9525000Y34000000D01*
G75*
G02*
X9500000Y33975000I-25000J0D01*
G01*
X7500000Y33975000D01*
G75*
G02*
X7475000Y34000000I0J25000D01*
G01*
X7475000Y36000000D01*
G75*
G02*
X7500000Y36025000I25000J0D01*
G01*
X9500000Y36025000D01*
G75*
G02*
X9525000Y36000000I0J-25000D01*
G01*
G37*
%TD*%
%TO.C,P3*%
G36*
G01*
X9525000Y47000000D02*
X9525000Y45000000D01*
G75*
G02*
X9500000Y44975000I-25000J0D01*
G01*
X7500000Y44975000D01*
G75*
G02*
X7475000Y45000000I0J25000D01*
G01*
X7475000Y47000000D01*
G75*
G02*
X7500000Y47025000I25000J0D01*
G01*
X9500000Y47025000D01*
G75*
G02*
X9525000Y47000000I0J-25000D01*
G01*
G37*
%TD*%
%TO.C,P3*%
G36*
G01*
X9525000Y58000000D02*
X9525000Y56000000D01*
G75*
G02*
X9500000Y55975000I-25000J0D01*
G01*
X7500000Y55975000D01*
G75*
G02*
X7475000Y56000000I0J25000D01*
G01*
X7475000Y58000000D01*
G75*
G02*
X7500000Y58025000I25000J0D01*
G01*
X9500000Y58025000D01*
G75*
G02*
X9525000Y58000000I0J-25000D01*
G01*
G37*
%TD*%
%TO.C,P3*%
G36*
G01*
X9525000Y69000000D02*
X9525000Y67000000D01*
G75*
G02*
X9500000Y66975000I-25000J0D01*
G01*
X7500000Y66975000D01*
G75*
G02*
X7475000Y67000000I0J25000D01*
G01*
X7475000Y69000000D01*
G75*
G02*
X7500000Y69025000I25000J0D01*
G01*
X9500000Y69025000D01*
G75*
G02*
X9525000Y69000000I0J-25000D01*
G01*
G37*
%TD*%
%TO.C,P3*%
G36*
G01*
X9525000Y80000000D02*
X9525000Y78000000D01*
G75*
G02*
X9500000Y77975000I-25000J0D01*
G01*
X7500000Y77975000D01*
G75*
G02*
X7475000Y78000000I0J25000D01*
G01*
X7475000Y80000000D01*
G75*
G02*
X7500000Y80025000I25000J0D01*
G01*
X9500000Y80025000D01*
G75*
G02*
X9525000Y80000000I0J-25000D01*
G01*
G37*
%TD*%
%TO.C,P2*%
G36*
G01*
X53475000Y7000000D02*
X53475000Y8500000D01*
G75*
G02*
X53500000Y8525000I25000J0D01*
G01*
X55000000Y8525000D01*
G75*
G02*
X55025000Y8500000I0J-25000D01*
G01*
X55025000Y7000000D01*
G75*
G02*
X55000000Y6975000I-25000J0D01*
G01*
X53500000Y6975000D01*
G75*
G02*
X53475000Y7000000I0J25000D01*
G01*
G37*
%TD*%
%TO.C,P2*%
G36*
G01*
X53475000Y18000000D02*
X53475000Y19500000D01*
G75*
G02*
X53500000Y19525000I25000J0D01*
G01*
X55000000Y19525000D01*
G75*
G02*
X55025000Y19500000I0J-25000D01*
G01*
X55025000Y18000000D01*
G75*
G02*
X55000000Y17975000I-25000J0D01*
G01*
X53500000Y17975000D01*
G75*
G02*
X53475000Y18000000I0J25000D01*
G01*
G37*
%TD*%
%TO.C,P2*%
G36*
G01*
X53475000Y29000000D02*
X53475000Y30500000D01*
G75*
G02*
X53500000Y30525000I25000J0D01*
G01*
X55000000Y30525000D01*
G75*
G02*
X55025000Y30500000I0J-25000D01*
G01*
X55025000Y29000000D01*
G75*
G02*
X55000000Y28975000I-25000J0D01*
G01*
X53500000Y28975000D01*
G75*
G02*
X53475000Y29000000I0J25000D01*
G01*
G37*
%TD*%
%TO.C,P2*%
G36*
G01*
X53475000Y40000000D02*
X53475000Y41500000D01*
G75*
G02*
X53500000Y41525000I25000J0D01*
G01*
X55000000Y41525000D01*
G75*
G02*
X55025000Y41500000I0J-25000D01*
G01*
X55025000Y40000000D01*
G75*
G02*
X55000000Y39975000I-25000J0D01*
G01*
X53500000Y39975000D01*
G75*
G02*
X53475000Y40000000I0J25000D01*
G01*
G37*
%TD*%
%TO.C,P2*%
G36*
G01*
X53475000Y51000000D02*
X53475000Y52500000D01*
G75*
G02*
X53500000Y52525000I25000J0D01*
G01*
X55000000Y52525000D01*
G75*
G02*
X55025000Y52500000I0J-25000D01*
G01*
X55025000Y51000000D01*
G75*
G02*
X55000000Y50975000I-25000J0D01*
G01*
X53500000Y50975000D01*
G75*
G02*
X53475000Y51000000I0J25000D01*
G01*
G37*
%TD*%
%TO.C,P2*%
G36*
G01*
X53475000Y62000000D02*
X53475000Y63500000D01*
G75*
G02*
X53500000Y63525000I25000J0D01*
G01*
X55000000Y63525000D01*
G75*
G02*
X55025000Y63500000I0J-25000D01*
G01*
X55025000Y62000000D01*
G75*
G02*
X55000000Y61975000I-25000J0D01*
G01*
X53500000Y61975000D01*
G75*
G02*
X53475000Y62000000I0J25000D01*
G01*
G37*
%TD*%
%TO.C,P2*%
G36*
G01*
X53475000Y73000000D02*
X53475000Y74500000D01*
G75*
G02*
X53500000Y74525000I25000J0D01*
G01*
X55000000Y74525000D01*
G75*
G02*
X55025000Y74500000I0J-25000D01*
G01*
X55025000Y73000000D01*
G75*
G02*
X55000000Y72975000I-25000J0D01*
G01*
X53500000Y72975000D01*
G75*
G02*
X53475000Y73000000I0J25000D01*
G01*
G37*
%TD*%
%TO.C,P2*%
G36*
G01*
X53475000Y84000000D02*
X53475000Y85500000D01*
G75*
G02*
X53500000Y85525000I25000J0D01*
G01*
X55000000Y85525000D01*
G75*
G02*
X55025000Y85500000I0J-25000D01*
G01*
X55025000Y84000000D01*
G75*
G02*
X55000000Y83975000I-25000J0D01*
G01*
X53500000Y83975000D01*
G75*
G02*
X53475000Y84000000I0J25000D01*
G01*
G37*
%TD*%
%TO.C,P9*%
G36*
G01*
X22365000Y8125000D02*
X22365000Y7175000D01*
G75*
G02*
X22340000Y7150000I-25000J0D01*
G01*
X21390000Y7150000D01*
G75*
G02*
X21365000Y7175000I0J25000D01*
G01*
X21365000Y8125000D01*
G75*
G02*
X21390000Y8150000I25000J0D01*
G01*
X22340000Y8150000D01*
G75*
G02*
X22365000Y8125000I0J-25000D01*
G01*
G37*
G36*
G01*
X23635000Y8125000D02*
X23635000Y7175000D01*
G75*
G02*
X23610000Y7150000I-25000J0D01*
G01*
X22660000Y7150000D01*
G75*
G02*
X22635000Y7175000I0J25000D01*
G01*
X22635000Y8125000D01*
G75*
G02*
X22660000Y8150000I25000J0D01*
G01*
X23610000Y8150000D01*
G75*
G02*
X23635000Y8125000I0J-25000D01*
G01*
G37*
%TD*%
%TO.C,P9*%
G36*
G01*
X22365000Y19125000D02*
X22365000Y18175000D01*
G75*
G02*
X22340000Y18150000I-25000J0D01*
G01*
X21390000Y18150000D01*
G75*
G02*
X21365000Y18175000I0J25000D01*
G01*
X21365000Y19125000D01*
G75*
G02*
X21390000Y19150000I25000J0D01*
G01*
X22340000Y19150000D01*
G75*
G02*
X22365000Y19125000I0J-25000D01*
G01*
G37*
G36*
G01*
X23635000Y19125000D02*
X23635000Y18175000D01*
G75*
G02*
X23610000Y18150000I-25000J0D01*
G01*
X22660000Y18150000D01*
G75*
G02*
X22635000Y18175000I0J25000D01*
G01*
X22635000Y19125000D01*
G75*
G02*
X22660000Y19150000I25000J0D01*
G01*
X23610000Y19150000D01*
G75*
G02*
X23635000Y19125000I0J-25000D01*
G01*
G37*
%TD*%
%TO.C,P9*%
G36*
G01*
X22365000Y30125000D02*
X22365000Y29175000D01*
G75*
G02*
X22340000Y29150000I-25000J0D01*
G01*
X21390000Y29150000D01*
G75*
G02*
X21365000Y29175000I0J25000D01*
G01*
X21365000Y30125000D01*
G75*
G02*
X21390000Y30150000I25000J0D01*
G01*
X22340000Y30150000D01*
G75*
G02*
X22365000Y30125000I0J-25000D01*
G01*
G37*
G36*
G01*
X23635000Y30125000D02*
X23635000Y29175000D01*
G75*
G02*
X23610000Y29150000I-25000J0D01*
G01*
X22660000Y29150000D01*
G75*
G02*
X22635000Y29175000I0J25000D01*
G01*
X22635000Y30125000D01*
G75*
G02*
X22660000Y30150000I25000J0D01*
G01*
X23610000Y30150000D01*
G75*
G02*
X23635000Y30125000I0J-25000D01*
G01*
G37*
%TD*%
%TO.C,P9*%
G36*
G01*
X22365000Y41125000D02*
X22365000Y40175000D01*
G75*
G02*
X22340000Y40150000I-25000J0D01*
G01*
X21390000Y40150000D01*
G75*
G02*
X21365000Y40175000I0J25000D01*
G01*
X21365000Y41125000D01*
G75*
G02*
X21390000Y41150000I25000J0D01*
G01*
X22340000Y41150000D01*
G75*
G02*
X22365000Y41125000I0J-25000D01*
G01*
G37*
G36*
G01*
X23635000Y41125000D02*
X23635000Y40175000D01*
G75*
G02*
X23610000Y40150000I-25000J0D01*
G01*
X22660000Y40150000D01*
G75*
G02*
X22635000Y40175000I0J25000D01*
G01*
X22635000Y41125000D01*
G75*
G02*
X22660000Y41150000I25000J0D01*
G01*
X23610000Y41150000D01*
G75*
G02*
X23635000Y41125000I0J-25000D01*
G01*
G37*
%TD*%
%TO.C,P9*%
G36*
G01*
X22365000Y52125000D02*
X22365000Y51175000D01*
G75*
G02*
X22340000Y51150000I-25000J0D01*
G01*
X21390000Y51150000D01*
G75*
G02*
X21365000Y51175000I0J25000D01*
G01*
X21365000Y52125000D01*
G75*
G02*
X21390000Y52150000I25000J0D01*
G01*
X22340000Y52150000D01*
G75*
G02*
X22365000Y52125000I0J-25000D01*
G01*
G37*
G36*
G01*
X23635000Y52125000D02*
X23635000Y51175000D01*
G75*
G02*
X23610000Y51150000I-25000J0D01*
G01*
X22660000Y51150000D01*
G75*
G02*
X22635000Y51175000I0J25000D01*
G01*
X22635000Y52125000D01*
G75*
G02*
X22660000Y52150000I25000J0D01*
G01*
X23610000Y52150000D01*
G75*
G02*
X23635000Y52125000I0J-25000D01*
G01*
G37*
%TD*%
%TO.C,P9*%
G36*
G01*
X22365000Y63125000D02*
X22365000Y62175000D01*
G75*
G02*
X22340000Y62150000I-25000J0D01*
G01*
X21390000Y62150000D01*
G75*
G02*
X21365000Y62175000I0J25000D01*
G01*
X21365000Y63125000D01*
G75*
G02*
X21390000Y63150000I25000J0D01*
G01*
X22340000Y63150000D01*
G75*
G02*
X22365000Y63125000I0J-25000D01*
G01*
G37*
G36*
G01*
X23635000Y63125000D02*
X23635000Y62175000D01*
G75*
G02*
X23610000Y62150000I-25000J0D01*
G01*
X22660000Y62150000D01*
G75*
G02*
X22635000Y62175000I0J25000D01*
G01*
X22635000Y63125000D01*
G75*
G02*
X22660000Y63150000I25000J0D01*
G01*
X23610000Y63150000D01*
G75*
G02*
X23635000Y63125000I0J-25000D01*
G01*
G37*
%TD*%
%TO.C,P9*%
G36*
G01*
X22365000Y74125000D02*
X22365000Y73175000D01*
G75*
G02*
X22340000Y73150000I-25000J0D01*
G01*
X21390000Y73150000D01*
G75*
G02*
X21365000Y73175000I0J25000D01*
G01*
X21365000Y74125000D01*
G75*
G02*
X21390000Y74150000I25000J0D01*
G01*
X22340000Y74150000D01*
G75*
G02*
X22365000Y74125000I0J-25000D01*
G01*
G37*
G36*
G01*
X23635000Y74125000D02*
X23635000Y73175000D01*
G75*
G02*
X23610000Y73150000I-25000J0D01*
G01*
X22660000Y73150000D01*
G75*
G02*
X22635000Y73175000I0J25000D01*
G01*
X22635000Y74125000D01*
G75*
G02*
X22660000Y74150000I25000J0D01*
G01*
X23610000Y74150000D01*
G75*
G02*
X23635000Y74125000I0J-25000D01*
G01*
G37*
%TD*%
%TO.C,P9*%
G36*
G01*
X22365000Y85125000D02*
X22365000Y84175000D01*
G75*
G02*
X22340000Y84150000I-25000J0D01*
G01*
X21390000Y84150000D01*
G75*
G02*
X21365000Y84175000I0J25000D01*
G01*
X21365000Y85125000D01*
G75*
G02*
X21390000Y85150000I25000J0D01*
G01*
X22340000Y85150000D01*
G75*
G02*
X22365000Y85125000I0J-25000D01*
G01*
G37*
G36*
G01*
X23635000Y85125000D02*
X23635000Y84175000D01*
G75*
G02*
X23610000Y84150000I-25000J0D01*
G01*
X22660000Y84150000D01*
G75*
G02*
X22635000Y84175000I0J25000D01*
G01*
X22635000Y85125000D01*
G75*
G02*
X22660000Y85150000I25000J0D01*
G01*
X23610000Y85150000D01*
G75*
G02*
X23635000Y85125000I0J-25000D01*
G01*
G37*
%TD*%
%TO.C,P6*%
G36*
G01*
X40175000Y1000000D02*
X40175000Y2500000D01*
G75*
G02*
X40200000Y2525000I25000J0D01*
G01*
X41700000Y2525000D01*
G75*
G02*
X41725000Y2500000I0J-25000D01*
G01*
X41725000Y1000000D01*
G75*
G02*
X41700000Y975000I-25000J0D01*
G01*
X40200000Y975000D01*
G75*
G02*
X40175000Y1000000I0J25000D01*
G01*
G37*
G36*
G01*
X43675000Y1000000D02*
X43675000Y2500000D01*
G75*
G02*
X43700000Y2525000I25000J0D01*
G01*
X45200000Y2525000D01*
G75*
G02*
X45225000Y2500000I0J-25000D01*
G01*
X45225000Y1000000D01*
G75*
G02*
X45200000Y975000I-25000J0D01*
G01*
X43700000Y975000D01*
G75*
G02*
X43675000Y1000000I0J25000D01*
G01*
G37*
G36*
G01*
X41675000Y1000000D02*
X41675000Y2500000D01*
G75*
G02*
X41700000Y2525000I25000J0D01*
G01*
X43700000Y2525000D01*
G75*
G02*
X43725000Y2500000I0J-25000D01*
G01*
X43725000Y1000000D01*
G75*
G02*
X43700000Y975000I-25000J0D01*
G01*
X41700000Y975000D01*
G75*
G02*
X41675000Y1000000I0J25000D01*
G01*
G37*
%TD*%
%TO.C,P6*%
G36*
G01*
X40175000Y12000000D02*
X40175000Y13500000D01*
G75*
G02*
X40200000Y13525000I25000J0D01*
G01*
X41700000Y13525000D01*
G75*
G02*
X41725000Y13500000I0J-25000D01*
G01*
X41725000Y12000000D01*
G75*
G02*
X41700000Y11975000I-25000J0D01*
G01*
X40200000Y11975000D01*
G75*
G02*
X40175000Y12000000I0J25000D01*
G01*
G37*
G36*
G01*
X43675000Y12000000D02*
X43675000Y13500000D01*
G75*
G02*
X43700000Y13525000I25000J0D01*
G01*
X45200000Y13525000D01*
G75*
G02*
X45225000Y13500000I0J-25000D01*
G01*
X45225000Y12000000D01*
G75*
G02*
X45200000Y11975000I-25000J0D01*
G01*
X43700000Y11975000D01*
G75*
G02*
X43675000Y12000000I0J25000D01*
G01*
G37*
G36*
G01*
X41675000Y12000000D02*
X41675000Y13500000D01*
G75*
G02*
X41700000Y13525000I25000J0D01*
G01*
X43700000Y13525000D01*
G75*
G02*
X43725000Y13500000I0J-25000D01*
G01*
X43725000Y12000000D01*
G75*
G02*
X43700000Y11975000I-25000J0D01*
G01*
X41700000Y11975000D01*
G75*
G02*
X41675000Y12000000I0J25000D01*
G01*
G37*
%TD*%
%TO.C,P6*%
G36*
G01*
X40175000Y23000000D02*
X40175000Y24500000D01*
G75*
G02*
X40200000Y24525000I25000J0D01*
G01*
X41700000Y24525000D01*
G75*
G02*
X41725000Y24500000I0J-25000D01*
G01*
X41725000Y23000000D01*
G75*
G02*
X41700000Y22975000I-25000J0D01*
G01*
X40200000Y22975000D01*
G75*
G02*
X40175000Y23000000I0J25000D01*
G01*
G37*
G36*
G01*
X43675000Y23000000D02*
X43675000Y24500000D01*
G75*
G02*
X43700000Y24525000I25000J0D01*
G01*
X45200000Y24525000D01*
G75*
G02*
X45225000Y24500000I0J-25000D01*
G01*
X45225000Y23000000D01*
G75*
G02*
X45200000Y22975000I-25000J0D01*
G01*
X43700000Y22975000D01*
G75*
G02*
X43675000Y23000000I0J25000D01*
G01*
G37*
G36*
G01*
X41675000Y23000000D02*
X41675000Y24500000D01*
G75*
G02*
X41700000Y24525000I25000J0D01*
G01*
X43700000Y24525000D01*
G75*
G02*
X43725000Y24500000I0J-25000D01*
G01*
X43725000Y23000000D01*
G75*
G02*
X43700000Y22975000I-25000J0D01*
G01*
X41700000Y22975000D01*
G75*
G02*
X41675000Y23000000I0J25000D01*
G01*
G37*
%TD*%
%TO.C,P6*%
G36*
G01*
X40175000Y34000000D02*
X40175000Y35500000D01*
G75*
G02*
X40200000Y35525000I25000J0D01*
G01*
X41700000Y35525000D01*
G75*
G02*
X41725000Y35500000I0J-25000D01*
G01*
X41725000Y34000000D01*
G75*
G02*
X41700000Y33975000I-25000J0D01*
G01*
X40200000Y33975000D01*
G75*
G02*
X40175000Y34000000I0J25000D01*
G01*
G37*
G36*
G01*
X43675000Y34000000D02*
X43675000Y35500000D01*
G75*
G02*
X43700000Y35525000I25000J0D01*
G01*
X45200000Y35525000D01*
G75*
G02*
X45225000Y35500000I0J-25000D01*
G01*
X45225000Y34000000D01*
G75*
G02*
X45200000Y33975000I-25000J0D01*
G01*
X43700000Y33975000D01*
G75*
G02*
X43675000Y34000000I0J25000D01*
G01*
G37*
G36*
G01*
X41675000Y34000000D02*
X41675000Y35500000D01*
G75*
G02*
X41700000Y35525000I25000J0D01*
G01*
X43700000Y35525000D01*
G75*
G02*
X43725000Y35500000I0J-25000D01*
G01*
X43725000Y34000000D01*
G75*
G02*
X43700000Y33975000I-25000J0D01*
G01*
X41700000Y33975000D01*
G75*
G02*
X41675000Y34000000I0J25000D01*
G01*
G37*
%TD*%
%TO.C,P6*%
G36*
G01*
X40175000Y45000000D02*
X40175000Y46500000D01*
G75*
G02*
X40200000Y46525000I25000J0D01*
G01*
X41700000Y46525000D01*
G75*
G02*
X41725000Y46500000I0J-25000D01*
G01*
X41725000Y45000000D01*
G75*
G02*
X41700000Y44975000I-25000J0D01*
G01*
X40200000Y44975000D01*
G75*
G02*
X40175000Y45000000I0J25000D01*
G01*
G37*
G36*
G01*
X43675000Y45000000D02*
X43675000Y46500000D01*
G75*
G02*
X43700000Y46525000I25000J0D01*
G01*
X45200000Y46525000D01*
G75*
G02*
X45225000Y46500000I0J-25000D01*
G01*
X45225000Y45000000D01*
G75*
G02*
X45200000Y44975000I-25000J0D01*
G01*
X43700000Y44975000D01*
G75*
G02*
X43675000Y45000000I0J25000D01*
G01*
G37*
G36*
G01*
X41675000Y45000000D02*
X41675000Y46500000D01*
G75*
G02*
X41700000Y46525000I25000J0D01*
G01*
X43700000Y46525000D01*
G75*
G02*
X43725000Y46500000I0J-25000D01*
G01*
X43725000Y45000000D01*
G75*
G02*
X43700000Y44975000I-25000J0D01*
G01*
X41700000Y44975000D01*
G75*
G02*
X41675000Y45000000I0J25000D01*
G01*
G37*
%TD*%
%TO.C,P6*%
G36*
G01*
X40175000Y56000000D02*
X40175000Y57500000D01*
G75*
G02*
X40200000Y57525000I25000J0D01*
G01*
X41700000Y57525000D01*
G75*
G02*
X41725000Y57500000I0J-25000D01*
G01*
X41725000Y56000000D01*
G75*
G02*
X41700000Y55975000I-25000J0D01*
G01*
X40200000Y55975000D01*
G75*
G02*
X40175000Y56000000I0J25000D01*
G01*
G37*
G36*
G01*
X43675000Y56000000D02*
X43675000Y57500000D01*
G75*
G02*
X43700000Y57525000I25000J0D01*
G01*
X45200000Y57525000D01*
G75*
G02*
X45225000Y57500000I0J-25000D01*
G01*
X45225000Y56000000D01*
G75*
G02*
X45200000Y55975000I-25000J0D01*
G01*
X43700000Y55975000D01*
G75*
G02*
X43675000Y56000000I0J25000D01*
G01*
G37*
G36*
G01*
X41675000Y56000000D02*
X41675000Y57500000D01*
G75*
G02*
X41700000Y57525000I25000J0D01*
G01*
X43700000Y57525000D01*
G75*
G02*
X43725000Y57500000I0J-25000D01*
G01*
X43725000Y56000000D01*
G75*
G02*
X43700000Y55975000I-25000J0D01*
G01*
X41700000Y55975000D01*
G75*
G02*
X41675000Y56000000I0J25000D01*
G01*
G37*
%TD*%
%TO.C,P6*%
G36*
G01*
X40175000Y67000000D02*
X40175000Y68500000D01*
G75*
G02*
X40200000Y68525000I25000J0D01*
G01*
X41700000Y68525000D01*
G75*
G02*
X41725000Y68500000I0J-25000D01*
G01*
X41725000Y67000000D01*
G75*
G02*
X41700000Y66975000I-25000J0D01*
G01*
X40200000Y66975000D01*
G75*
G02*
X40175000Y67000000I0J25000D01*
G01*
G37*
G36*
G01*
X43675000Y67000000D02*
X43675000Y68500000D01*
G75*
G02*
X43700000Y68525000I25000J0D01*
G01*
X45200000Y68525000D01*
G75*
G02*
X45225000Y68500000I0J-25000D01*
G01*
X45225000Y67000000D01*
G75*
G02*
X45200000Y66975000I-25000J0D01*
G01*
X43700000Y66975000D01*
G75*
G02*
X43675000Y67000000I0J25000D01*
G01*
G37*
G36*
G01*
X41675000Y67000000D02*
X41675000Y68500000D01*
G75*
G02*
X41700000Y68525000I25000J0D01*
G01*
X43700000Y68525000D01*
G75*
G02*
X43725000Y68500000I0J-25000D01*
G01*
X43725000Y67000000D01*
G75*
G02*
X43700000Y66975000I-25000J0D01*
G01*
X41700000Y66975000D01*
G75*
G02*
X41675000Y67000000I0J25000D01*
G01*
G37*
%TD*%
%TO.C,P6*%
G36*
G01*
X40175000Y78000000D02*
X40175000Y79500000D01*
G75*
G02*
X40200000Y79525000I25000J0D01*
G01*
X41700000Y79525000D01*
G75*
G02*
X41725000Y79500000I0J-25000D01*
G01*
X41725000Y78000000D01*
G75*
G02*
X41700000Y77975000I-25000J0D01*
G01*
X40200000Y77975000D01*
G75*
G02*
X40175000Y78000000I0J25000D01*
G01*
G37*
G36*
G01*
X43675000Y78000000D02*
X43675000Y79500000D01*
G75*
G02*
X43700000Y79525000I25000J0D01*
G01*
X45200000Y79525000D01*
G75*
G02*
X45225000Y79500000I0J-25000D01*
G01*
X45225000Y78000000D01*
G75*
G02*
X45200000Y77975000I-25000J0D01*
G01*
X43700000Y77975000D01*
G75*
G02*
X43675000Y78000000I0J25000D01*
G01*
G37*
G36*
G01*
X41675000Y78000000D02*
X41675000Y79500000D01*
G75*
G02*
X41700000Y79525000I25000J0D01*
G01*
X43700000Y79525000D01*
G75*
G02*
X43725000Y79500000I0J-25000D01*
G01*
X43725000Y78000000D01*
G75*
G02*
X43700000Y77975000I-25000J0D01*
G01*
X41700000Y77975000D01*
G75*
G02*
X41675000Y78000000I0J25000D01*
G01*
G37*
%TD*%
%TO.C,P4*%
G36*
G01*
X53475000Y89000000D02*
X53475000Y90500000D01*
G75*
G02*
X53500000Y90525000I25000J0D01*
G01*
X55000000Y90525000D01*
G75*
G02*
X55025000Y90500000I0J-25000D01*
G01*
X55025000Y89000000D01*
G75*
G02*
X55000000Y88975000I-25000J0D01*
G01*
X53500000Y88975000D01*
G75*
G02*
X53475000Y89000000I0J25000D01*
G01*
G37*
%TD*%
%TO.C,P2*%
G36*
G01*
X53475000Y95000000D02*
X53475000Y96500000D01*
G75*
G02*
X53500000Y96525000I25000J0D01*
G01*
X55000000Y96525000D01*
G75*
G02*
X55025000Y96500000I0J-25000D01*
G01*
X55025000Y95000000D01*
G75*
G02*
X55000000Y94975000I-25000J0D01*
G01*
X53500000Y94975000D01*
G75*
G02*
X53475000Y95000000I0J25000D01*
G01*
G37*
%TD*%
%TO.C,P3*%
G36*
G01*
X9525000Y91000000D02*
X9525000Y89000000D01*
G75*
G02*
X9500000Y88975000I-25000J0D01*
G01*
X7500000Y88975000D01*
G75*
G02*
X7475000Y89000000I0J25000D01*
G01*
X7475000Y91000000D01*
G75*
G02*
X7500000Y91025000I25000J0D01*
G01*
X9500000Y91025000D01*
G75*
G02*
X9525000Y91000000I0J-25000D01*
G01*
G37*
%TD*%
%TO.C,P1*%
G36*
G01*
X9525000Y96500000D02*
X9525000Y94500000D01*
G75*
G02*
X9500000Y94475000I-25000J0D01*
G01*
X7500000Y94475000D01*
G75*
G02*
X7475000Y94500000I0J25000D01*
G01*
X7475000Y96500000D01*
G75*
G02*
X7500000Y96525000I25000J0D01*
G01*
X9500000Y96525000D01*
G75*
G02*
X9525000Y96500000I0J-25000D01*
G01*
G37*
%TD*%
%TO.C,P5*%
G36*
G01*
X40175000Y95000000D02*
X40175000Y96500000D01*
G75*
G02*
X40200000Y96525000I25000J0D01*
G01*
X41700000Y96525000D01*
G75*
G02*
X41725000Y96500000I0J-25000D01*
G01*
X41725000Y95000000D01*
G75*
G02*
X41700000Y94975000I-25000J0D01*
G01*
X40200000Y94975000D01*
G75*
G02*
X40175000Y95000000I0J25000D01*
G01*
G37*
G36*
G01*
X43675000Y95000000D02*
X43675000Y96500000D01*
G75*
G02*
X43700000Y96525000I25000J0D01*
G01*
X45200000Y96525000D01*
G75*
G02*
X45225000Y96500000I0J-25000D01*
G01*
X45225000Y95000000D01*
G75*
G02*
X45200000Y94975000I-25000J0D01*
G01*
X43700000Y94975000D01*
G75*
G02*
X43675000Y95000000I0J25000D01*
G01*
G37*
G36*
G01*
X41675000Y95000000D02*
X41675000Y96500000D01*
G75*
G02*
X41700000Y96525000I25000J0D01*
G01*
X43700000Y96525000D01*
G75*
G02*
X43725000Y96500000I0J-25000D01*
G01*
X43725000Y95000000D01*
G75*
G02*
X43700000Y94975000I-25000J0D01*
G01*
X41700000Y94975000D01*
G75*
G02*
X41675000Y95000000I0J25000D01*
G01*
G37*
%TD*%
%TO.C,P6*%
G36*
G01*
X41675000Y89000000D02*
X41675000Y90500000D01*
G75*
G02*
X41700000Y90525000I25000J0D01*
G01*
X43700000Y90525000D01*
G75*
G02*
X43725000Y90500000I0J-25000D01*
G01*
X43725000Y89000000D01*
G75*
G02*
X43700000Y88975000I-25000J0D01*
G01*
X41700000Y88975000D01*
G75*
G02*
X41675000Y89000000I0J25000D01*
G01*
G37*
G36*
G01*
X43675000Y89000000D02*
X43675000Y90500000D01*
G75*
G02*
X43700000Y90525000I25000J0D01*
G01*
X45200000Y90525000D01*
G75*
G02*
X45225000Y90500000I0J-25000D01*
G01*
X45225000Y89000000D01*
G75*
G02*
X45200000Y88975000I-25000J0D01*
G01*
X43700000Y88975000D01*
G75*
G02*
X43675000Y89000000I0J25000D01*
G01*
G37*
G36*
G01*
X40175000Y89000000D02*
X40175000Y90500000D01*
G75*
G02*
X40200000Y90525000I25000J0D01*
G01*
X41700000Y90525000D01*
G75*
G02*
X41725000Y90500000I0J-25000D01*
G01*
X41725000Y89000000D01*
G75*
G02*
X41700000Y88975000I-25000J0D01*
G01*
X40200000Y88975000D01*
G75*
G02*
X40175000Y89000000I0J25000D01*
G01*
G37*
%TD*%
%TO.C,P9*%
G36*
G01*
X23635000Y96125000D02*
X23635000Y95175000D01*
G75*
G02*
X23610000Y95150000I-25000J0D01*
G01*
X22660000Y95150000D01*
G75*
G02*
X22635000Y95175000I0J25000D01*
G01*
X22635000Y96125000D01*
G75*
G02*
X22660000Y96150000I25000J0D01*
G01*
X23610000Y96150000D01*
G75*
G02*
X23635000Y96125000I0J-25000D01*
G01*
G37*
G36*
G01*
X22365000Y96125000D02*
X22365000Y95175000D01*
G75*
G02*
X22340000Y95150000I-25000J0D01*
G01*
X21390000Y95150000D01*
G75*
G02*
X21365000Y95175000I0J25000D01*
G01*
X21365000Y96125000D01*
G75*
G02*
X21390000Y96150000I25000J0D01*
G01*
X22340000Y96150000D01*
G75*
G02*
X22365000Y96125000I0J-25000D01*
G01*
G37*
%TD*%
M02*
