%TF.GenerationSoftware,KiCad,Pcbnew,(5.1.9)-1*%
%TF.CreationDate,2021-10-10T13:17:48+09:00*%
%TF.ProjectId,K7012RA,4b373031-3252-4412-9e6b-696361645f70,rev?*%
%TF.SameCoordinates,PX6b49d20PY8b79910*%
%TF.FileFunction,Profile,NP*%
%FSLAX46Y46*%
G04 Gerber Fmt 4.6, Leading zero omitted, Abs format (unit mm)*
G04 Created by KiCad (PCBNEW (5.1.9)-1) date 2021-10-10 13:17:48*
%MOMM*%
%LPD*%
G01*
G04 APERTURE LIST*
%TA.AperFunction,Profile*%
%ADD10C,0.100000*%
%TD*%
G04 APERTURE END LIST*
D10*
X70000000Y0D02*
X70000000Y97500000D01*
X0Y97500000D02*
X0Y0D01*
X0Y97500000D02*
X5000000Y97500000D01*
X0Y0D02*
X5000000Y0D01*
X65000000Y0D02*
X70000000Y0D01*
X65000000Y97500000D02*
X70000000Y97500000D01*
X62500000Y7750000D02*
X64000000Y7750000D01*
X62500000Y18750000D02*
X64000000Y18750000D01*
X62500000Y29750000D02*
X64000000Y29750000D01*
X62500000Y40750000D02*
X64000000Y40750000D01*
X62500000Y51750000D02*
X64000000Y51750000D01*
X62500000Y62750000D02*
X64000000Y62750000D01*
X62500000Y73750000D02*
X64000000Y73750000D01*
X62500000Y84750000D02*
X64000000Y84750000D01*
X65000000Y9500000D02*
G75*
G02*
X64000000Y8500000I-1000000J0D01*
G01*
X65000000Y20500000D02*
G75*
G02*
X64000000Y19500000I-1000000J0D01*
G01*
X65000000Y31500000D02*
G75*
G02*
X64000000Y30500000I-1000000J0D01*
G01*
X65000000Y42500000D02*
G75*
G02*
X64000000Y41500000I-1000000J0D01*
G01*
X65000000Y53500000D02*
G75*
G02*
X64000000Y52500000I-1000000J0D01*
G01*
X65000000Y64500000D02*
G75*
G02*
X64000000Y63500000I-1000000J0D01*
G01*
X65000000Y75500000D02*
G75*
G02*
X64000000Y74500000I-1000000J0D01*
G01*
X65000000Y86500000D02*
G75*
G02*
X64000000Y85500000I-1000000J0D01*
G01*
X6000000Y1750000D02*
X6000000Y7750000D01*
X6000000Y12750000D02*
X6000000Y18750000D01*
X6000000Y23750000D02*
X6000000Y29750000D01*
X6000000Y34750000D02*
X6000000Y40750000D01*
X6000000Y45750000D02*
X6000000Y51750000D01*
X6000000Y56750000D02*
X6000000Y62750000D01*
X6000000Y67750000D02*
X6000000Y73750000D01*
X6000000Y78750000D02*
X6000000Y84750000D01*
X5000000Y0D02*
G75*
G02*
X6000000Y1000000I1000000J0D01*
G01*
X5000000Y11000000D02*
G75*
G02*
X6000000Y12000000I1000000J0D01*
G01*
X5000000Y22000000D02*
G75*
G02*
X6000000Y23000000I1000000J0D01*
G01*
X5000000Y33000000D02*
G75*
G02*
X6000000Y34000000I1000000J0D01*
G01*
X5000000Y44000000D02*
G75*
G02*
X6000000Y45000000I1000000J0D01*
G01*
X5000000Y55000000D02*
G75*
G02*
X6000000Y56000000I1000000J0D01*
G01*
X5000000Y66000000D02*
G75*
G02*
X6000000Y67000000I1000000J0D01*
G01*
X5000000Y77000000D02*
G75*
G02*
X6000000Y78000000I1000000J0D01*
G01*
X64000000Y7750000D02*
X64000000Y1750000D01*
X64000000Y18750000D02*
X64000000Y12750000D01*
X64000000Y29750000D02*
X64000000Y23750000D01*
X64000000Y40750000D02*
X64000000Y34750000D01*
X64000000Y51750000D02*
X64000000Y45750000D01*
X64000000Y62750000D02*
X64000000Y56750000D01*
X64000000Y73750000D02*
X64000000Y67750000D01*
X64000000Y84750000D02*
X64000000Y78750000D01*
X7500000Y1750000D02*
X6000000Y1750000D01*
X7500000Y12750000D02*
X6000000Y12750000D01*
X7500000Y23750000D02*
X6000000Y23750000D01*
X7500000Y34750000D02*
X6000000Y34750000D01*
X7500000Y45750000D02*
X6000000Y45750000D01*
X7500000Y56750000D02*
X6000000Y56750000D01*
X7500000Y67750000D02*
X6000000Y67750000D01*
X7500000Y78750000D02*
X6000000Y78750000D01*
X6000000Y7750000D02*
X7500000Y7750000D01*
X6000000Y18750000D02*
X7500000Y18750000D01*
X6000000Y29750000D02*
X7500000Y29750000D01*
X6000000Y40750000D02*
X7500000Y40750000D01*
X6000000Y51750000D02*
X7500000Y51750000D01*
X6000000Y62750000D02*
X7500000Y62750000D01*
X6000000Y73750000D02*
X7500000Y73750000D01*
X6000000Y84750000D02*
X7500000Y84750000D01*
X64000000Y1000000D02*
G75*
G02*
X65000000Y0I0J-1000000D01*
G01*
X64000000Y12000000D02*
G75*
G02*
X65000000Y11000000I0J-1000000D01*
G01*
X64000000Y23000000D02*
G75*
G02*
X65000000Y22000000I0J-1000000D01*
G01*
X64000000Y34000000D02*
G75*
G02*
X65000000Y33000000I0J-1000000D01*
G01*
X64000000Y45000000D02*
G75*
G02*
X65000000Y44000000I0J-1000000D01*
G01*
X64000000Y56000000D02*
G75*
G02*
X65000000Y55000000I0J-1000000D01*
G01*
X64000000Y67000000D02*
G75*
G02*
X65000000Y66000000I0J-1000000D01*
G01*
X64000000Y78000000D02*
G75*
G02*
X65000000Y77000000I0J-1000000D01*
G01*
X6000000Y8500000D02*
G75*
G02*
X5000000Y9500000I0J1000000D01*
G01*
X6000000Y19500000D02*
G75*
G02*
X5000000Y20500000I0J1000000D01*
G01*
X6000000Y30500000D02*
G75*
G02*
X5000000Y31500000I0J1000000D01*
G01*
X6000000Y41500000D02*
G75*
G02*
X5000000Y42500000I0J1000000D01*
G01*
X6000000Y52500000D02*
G75*
G02*
X5000000Y53500000I0J1000000D01*
G01*
X6000000Y63500000D02*
G75*
G02*
X5000000Y64500000I0J1000000D01*
G01*
X6000000Y74500000D02*
G75*
G02*
X5000000Y75500000I0J1000000D01*
G01*
X6000000Y85500000D02*
G75*
G02*
X5000000Y86500000I0J1000000D01*
G01*
X64000000Y1750000D02*
X62500000Y1750000D01*
X64000000Y12750000D02*
X62500000Y12750000D01*
X64000000Y23750000D02*
X62500000Y23750000D01*
X64000000Y34750000D02*
X62500000Y34750000D01*
X64000000Y45750000D02*
X62500000Y45750000D01*
X64000000Y56750000D02*
X62500000Y56750000D01*
X64000000Y67750000D02*
X62500000Y67750000D01*
X64000000Y78750000D02*
X62500000Y78750000D01*
X65000000Y11000000D02*
X65000000Y9500000D01*
X65000000Y22000000D02*
X65000000Y20500000D01*
X65000000Y33000000D02*
X65000000Y31500000D01*
X65000000Y44000000D02*
X65000000Y42500000D01*
X65000000Y55000000D02*
X65000000Y53500000D01*
X65000000Y66000000D02*
X65000000Y64500000D01*
X65000000Y77000000D02*
X65000000Y75500000D01*
X5000000Y11000000D02*
X5000000Y9500000D01*
X5000000Y22000000D02*
X5000000Y20500000D01*
X5000000Y33000000D02*
X5000000Y31500000D01*
X5000000Y44000000D02*
X5000000Y42500000D01*
X5000000Y55000000D02*
X5000000Y53500000D01*
X5000000Y66000000D02*
X5000000Y64500000D01*
X5000000Y77000000D02*
X5000000Y75500000D01*
X49500000Y6900000D02*
X53500000Y6900000D01*
X49500000Y17900000D02*
X53500000Y17900000D01*
X49500000Y28900000D02*
X53500000Y28900000D01*
X49500000Y39900000D02*
X53500000Y39900000D01*
X49500000Y50900000D02*
X53500000Y50900000D01*
X49500000Y61900000D02*
X53500000Y61900000D01*
X49500000Y72900000D02*
X53500000Y72900000D01*
X49500000Y83900000D02*
X53500000Y83900000D01*
X7500000Y7750000D02*
X7500000Y1750000D01*
X7500000Y18750000D02*
X7500000Y12750000D01*
X7500000Y29750000D02*
X7500000Y23750000D01*
X7500000Y40750000D02*
X7500000Y34750000D01*
X7500000Y51750000D02*
X7500000Y45750000D01*
X7500000Y62750000D02*
X7500000Y56750000D01*
X7500000Y73750000D02*
X7500000Y67750000D01*
X7500000Y84750000D02*
X7500000Y78750000D01*
X49500000Y9250000D02*
X49500000Y6900000D01*
X49500000Y20250000D02*
X49500000Y17900000D01*
X49500000Y31250000D02*
X49500000Y28900000D01*
X49500000Y42250000D02*
X49500000Y39900000D01*
X49500000Y53250000D02*
X49500000Y50900000D01*
X49500000Y64250000D02*
X49500000Y61900000D01*
X49500000Y75250000D02*
X49500000Y72900000D01*
X49500000Y86250000D02*
X49500000Y83900000D01*
X62500000Y7750000D02*
X62500000Y1750000D01*
X62500000Y18750000D02*
X62500000Y12750000D01*
X62500000Y29750000D02*
X62500000Y23750000D01*
X62500000Y40750000D02*
X62500000Y34750000D01*
X62500000Y51750000D02*
X62500000Y45750000D01*
X62500000Y62750000D02*
X62500000Y56750000D01*
X62500000Y73750000D02*
X62500000Y67750000D01*
X62500000Y84750000D02*
X62500000Y78750000D01*
X53500000Y8500000D02*
X64000000Y8500000D01*
X53500000Y19500000D02*
X64000000Y19500000D01*
X53500000Y30500000D02*
X64000000Y30500000D01*
X53500000Y41500000D02*
X64000000Y41500000D01*
X53500000Y52500000D02*
X64000000Y52500000D01*
X53500000Y63500000D02*
X64000000Y63500000D01*
X53500000Y74500000D02*
X64000000Y74500000D01*
X53500000Y85500000D02*
X64000000Y85500000D01*
X53500000Y6900000D02*
X53500000Y8500000D01*
X53500000Y17900000D02*
X53500000Y19500000D01*
X53500000Y28900000D02*
X53500000Y30500000D01*
X53500000Y39900000D02*
X53500000Y41500000D01*
X53500000Y50900000D02*
X53500000Y52500000D01*
X53500000Y61900000D02*
X53500000Y63500000D01*
X53500000Y72900000D02*
X53500000Y74500000D01*
X53500000Y83900000D02*
X53500000Y85500000D01*
X49500000Y2600000D02*
X49500000Y250000D01*
X49500000Y13600000D02*
X49500000Y11250000D01*
X49500000Y24600000D02*
X49500000Y22250000D01*
X49500000Y35600000D02*
X49500000Y33250000D01*
X49500000Y46600000D02*
X49500000Y44250000D01*
X49500000Y57600000D02*
X49500000Y55250000D01*
X49500000Y68600000D02*
X49500000Y66250000D01*
X49500000Y79600000D02*
X49500000Y77250000D01*
X6000000Y1000000D02*
X18000000Y1000000D01*
X6000000Y12000000D02*
X18000000Y12000000D01*
X6000000Y23000000D02*
X18000000Y23000000D01*
X6000000Y34000000D02*
X18000000Y34000000D01*
X6000000Y45000000D02*
X18000000Y45000000D01*
X6000000Y56000000D02*
X18000000Y56000000D01*
X6000000Y67000000D02*
X18000000Y67000000D01*
X6000000Y78000000D02*
X18000000Y78000000D01*
X64000000Y1000000D02*
X53500000Y1000000D01*
X64000000Y12000000D02*
X53500000Y12000000D01*
X64000000Y23000000D02*
X53500000Y23000000D01*
X64000000Y34000000D02*
X53500000Y34000000D01*
X64000000Y45000000D02*
X53500000Y45000000D01*
X64000000Y56000000D02*
X53500000Y56000000D01*
X64000000Y67000000D02*
X53500000Y67000000D01*
X64000000Y78000000D02*
X53500000Y78000000D01*
X53500000Y2600000D02*
X49500000Y2600000D01*
X53500000Y13600000D02*
X49500000Y13600000D01*
X53500000Y24600000D02*
X49500000Y24600000D01*
X53500000Y35600000D02*
X49500000Y35600000D01*
X53500000Y46600000D02*
X49500000Y46600000D01*
X53500000Y57600000D02*
X49500000Y57600000D01*
X53500000Y68600000D02*
X49500000Y68600000D01*
X53500000Y79600000D02*
X49500000Y79600000D01*
X6000000Y8500000D02*
X18000000Y8500000D01*
X6000000Y19500000D02*
X18000000Y19500000D01*
X6000000Y30500000D02*
X18000000Y30500000D01*
X6000000Y41500000D02*
X18000000Y41500000D01*
X6000000Y52500000D02*
X18000000Y52500000D01*
X6000000Y63500000D02*
X18000000Y63500000D01*
X6000000Y74500000D02*
X18000000Y74500000D01*
X6000000Y85500000D02*
X18000000Y85500000D01*
X18000000Y1000000D02*
X18000000Y2600000D01*
X18000000Y12000000D02*
X18000000Y13600000D01*
X18000000Y23000000D02*
X18000000Y24600000D01*
X18000000Y34000000D02*
X18000000Y35600000D01*
X18000000Y45000000D02*
X18000000Y46600000D01*
X18000000Y56000000D02*
X18000000Y57600000D01*
X18000000Y67000000D02*
X18000000Y68600000D01*
X18000000Y78000000D02*
X18000000Y79600000D01*
X21000000Y1000000D02*
X38000000Y1000000D01*
X21000000Y12000000D02*
X38000000Y12000000D01*
X21000000Y23000000D02*
X38000000Y23000000D01*
X21000000Y34000000D02*
X38000000Y34000000D01*
X21000000Y45000000D02*
X38000000Y45000000D01*
X21000000Y56000000D02*
X38000000Y56000000D01*
X21000000Y67000000D02*
X38000000Y67000000D01*
X21000000Y78000000D02*
X38000000Y78000000D01*
X53500000Y1000000D02*
X53500000Y2600000D01*
X53500000Y12000000D02*
X53500000Y13600000D01*
X53500000Y23000000D02*
X53500000Y24600000D01*
X53500000Y34000000D02*
X53500000Y35600000D01*
X53500000Y45000000D02*
X53500000Y46600000D01*
X53500000Y56000000D02*
X53500000Y57600000D01*
X53500000Y67000000D02*
X53500000Y68600000D01*
X53500000Y78000000D02*
X53500000Y79600000D01*
X38000000Y1000000D02*
X38000000Y250000D01*
X38000000Y12000000D02*
X38000000Y11250000D01*
X38000000Y23000000D02*
X38000000Y22250000D01*
X38000000Y34000000D02*
X38000000Y33250000D01*
X38000000Y45000000D02*
X38000000Y44250000D01*
X38000000Y56000000D02*
X38000000Y55250000D01*
X38000000Y67000000D02*
X38000000Y66250000D01*
X38000000Y78000000D02*
X38000000Y77250000D01*
X39700000Y250000D02*
X39700000Y750000D01*
X39700000Y11250000D02*
X39700000Y11750000D01*
X39700000Y22250000D02*
X39700000Y22750000D01*
X39700000Y33250000D02*
X39700000Y33750000D01*
X39700000Y44250000D02*
X39700000Y44750000D01*
X39700000Y55250000D02*
X39700000Y55750000D01*
X39700000Y66250000D02*
X39700000Y66750000D01*
X39700000Y77250000D02*
X39700000Y77750000D01*
X45700000Y9250000D02*
X49500000Y9250000D01*
X45700000Y20250000D02*
X49500000Y20250000D01*
X45700000Y31250000D02*
X49500000Y31250000D01*
X45700000Y42250000D02*
X49500000Y42250000D01*
X45700000Y53250000D02*
X49500000Y53250000D01*
X45700000Y64250000D02*
X49500000Y64250000D01*
X45700000Y75250000D02*
X49500000Y75250000D01*
X45700000Y86250000D02*
X49500000Y86250000D01*
X21000000Y8500000D02*
X38000000Y8500000D01*
X21000000Y19500000D02*
X38000000Y19500000D01*
X21000000Y30500000D02*
X38000000Y30500000D01*
X21000000Y41500000D02*
X38000000Y41500000D01*
X21000000Y52500000D02*
X38000000Y52500000D01*
X21000000Y63500000D02*
X38000000Y63500000D01*
X21000000Y74500000D02*
X38000000Y74500000D01*
X21000000Y85500000D02*
X38000000Y85500000D01*
X38000000Y250000D02*
X39700000Y250000D01*
X38000000Y11250000D02*
X39700000Y11250000D01*
X38000000Y22250000D02*
X39700000Y22250000D01*
X38000000Y33250000D02*
X39700000Y33250000D01*
X38000000Y44250000D02*
X39700000Y44250000D01*
X38000000Y55250000D02*
X39700000Y55250000D01*
X38000000Y66250000D02*
X39700000Y66250000D01*
X38000000Y77250000D02*
X39700000Y77250000D01*
X39700000Y9250000D02*
X39700000Y8750000D01*
X39700000Y20250000D02*
X39700000Y19750000D01*
X39700000Y31250000D02*
X39700000Y30750000D01*
X39700000Y42250000D02*
X39700000Y41750000D01*
X39700000Y53250000D02*
X39700000Y52750000D01*
X39700000Y64250000D02*
X39700000Y63750000D01*
X39700000Y75250000D02*
X39700000Y74750000D01*
X39700000Y86250000D02*
X39700000Y85750000D01*
X45700000Y250000D02*
X49500000Y250000D01*
X45700000Y11250000D02*
X49500000Y11250000D01*
X45700000Y22250000D02*
X49500000Y22250000D01*
X45700000Y33250000D02*
X49500000Y33250000D01*
X45700000Y44250000D02*
X49500000Y44250000D01*
X45700000Y55250000D02*
X49500000Y55250000D01*
X45700000Y66250000D02*
X49500000Y66250000D01*
X45700000Y77250000D02*
X49500000Y77250000D01*
X39700000Y8750000D02*
X45700000Y8750000D01*
X39700000Y19750000D02*
X45700000Y19750000D01*
X39700000Y30750000D02*
X45700000Y30750000D01*
X39700000Y41750000D02*
X45700000Y41750000D01*
X39700000Y52750000D02*
X45700000Y52750000D01*
X39700000Y63750000D02*
X45700000Y63750000D01*
X39700000Y74750000D02*
X45700000Y74750000D01*
X39700000Y85750000D02*
X45700000Y85750000D01*
X21000000Y1000000D02*
X21000000Y2600000D01*
X21000000Y12000000D02*
X21000000Y13600000D01*
X21000000Y23000000D02*
X21000000Y24600000D01*
X21000000Y34000000D02*
X21000000Y35600000D01*
X21000000Y45000000D02*
X21000000Y46600000D01*
X21000000Y56000000D02*
X21000000Y57600000D01*
X21000000Y67000000D02*
X21000000Y68600000D01*
X21000000Y78000000D02*
X21000000Y79600000D01*
X45700000Y8750000D02*
X45700000Y9250000D01*
X45700000Y19750000D02*
X45700000Y20250000D01*
X45700000Y30750000D02*
X45700000Y31250000D01*
X45700000Y41750000D02*
X45700000Y42250000D01*
X45700000Y52750000D02*
X45700000Y53250000D01*
X45700000Y63750000D02*
X45700000Y64250000D01*
X45700000Y74750000D02*
X45700000Y75250000D01*
X45700000Y85750000D02*
X45700000Y86250000D01*
X38000000Y9250000D02*
X39700000Y9250000D01*
X38000000Y20250000D02*
X39700000Y20250000D01*
X38000000Y31250000D02*
X39700000Y31250000D01*
X38000000Y42250000D02*
X39700000Y42250000D01*
X38000000Y53250000D02*
X39700000Y53250000D01*
X38000000Y64250000D02*
X39700000Y64250000D01*
X38000000Y75250000D02*
X39700000Y75250000D01*
X38000000Y86250000D02*
X39700000Y86250000D01*
X45700000Y750000D02*
X45700000Y250000D01*
X45700000Y11750000D02*
X45700000Y11250000D01*
X45700000Y22750000D02*
X45700000Y22250000D01*
X45700000Y33750000D02*
X45700000Y33250000D01*
X45700000Y44750000D02*
X45700000Y44250000D01*
X45700000Y55750000D02*
X45700000Y55250000D01*
X45700000Y66750000D02*
X45700000Y66250000D01*
X45700000Y77750000D02*
X45700000Y77250000D01*
X18000000Y8500000D02*
X18000000Y6900000D01*
X18000000Y19500000D02*
X18000000Y17900000D01*
X18000000Y30500000D02*
X18000000Y28900000D01*
X18000000Y41500000D02*
X18000000Y39900000D01*
X18000000Y52500000D02*
X18000000Y50900000D01*
X18000000Y63500000D02*
X18000000Y61900000D01*
X18000000Y74500000D02*
X18000000Y72900000D01*
X18000000Y85500000D02*
X18000000Y83900000D01*
X39700000Y750000D02*
X45700000Y750000D01*
X39700000Y11750000D02*
X45700000Y11750000D01*
X39700000Y22750000D02*
X45700000Y22750000D01*
X39700000Y33750000D02*
X45700000Y33750000D01*
X39700000Y44750000D02*
X45700000Y44750000D01*
X39700000Y55750000D02*
X45700000Y55750000D01*
X39700000Y66750000D02*
X45700000Y66750000D01*
X39700000Y77750000D02*
X45700000Y77750000D01*
X38000000Y8500000D02*
X38000000Y9250000D01*
X38000000Y19500000D02*
X38000000Y20250000D01*
X38000000Y30500000D02*
X38000000Y31250000D01*
X38000000Y41500000D02*
X38000000Y42250000D01*
X38000000Y52500000D02*
X38000000Y53250000D01*
X38000000Y63500000D02*
X38000000Y64250000D01*
X38000000Y74500000D02*
X38000000Y75250000D01*
X38000000Y85500000D02*
X38000000Y86250000D01*
X21000000Y6900000D02*
X21000000Y8500000D01*
X21000000Y17900000D02*
X21000000Y19500000D01*
X21000000Y28900000D02*
X21000000Y30500000D01*
X21000000Y39900000D02*
X21000000Y41500000D01*
X21000000Y50900000D02*
X21000000Y52500000D01*
X21000000Y61900000D02*
X21000000Y63500000D01*
X21000000Y72900000D02*
X21000000Y74500000D01*
X21000000Y83900000D02*
X21000000Y85500000D01*
X21000000Y2600000D02*
X18000000Y2600000D01*
X21000000Y13600000D02*
X18000000Y13600000D01*
X21000000Y24600000D02*
X18000000Y24600000D01*
X21000000Y35600000D02*
X18000000Y35600000D01*
X21000000Y46600000D02*
X18000000Y46600000D01*
X21000000Y57600000D02*
X18000000Y57600000D01*
X21000000Y68600000D02*
X18000000Y68600000D01*
X21000000Y79600000D02*
X18000000Y79600000D01*
X18000000Y6900000D02*
X21000000Y6900000D01*
X18000000Y17900000D02*
X21000000Y17900000D01*
X18000000Y28900000D02*
X21000000Y28900000D01*
X18000000Y39900000D02*
X21000000Y39900000D01*
X18000000Y50900000D02*
X21000000Y50900000D01*
X18000000Y61900000D02*
X21000000Y61900000D01*
X18000000Y72900000D02*
X21000000Y72900000D01*
X18000000Y83900000D02*
X21000000Y83900000D01*
X5000000Y88000000D02*
X5000000Y86500000D01*
X65000000Y88000000D02*
X65000000Y86500000D01*
X5000000Y88000000D02*
G75*
G02*
X6000000Y89000000I1000000J0D01*
G01*
X6000000Y96500000D02*
G75*
G02*
X5000000Y97500000I0J1000000D01*
G01*
X65000000Y97500000D02*
G75*
G02*
X64000000Y96500000I-1000000J0D01*
G01*
X64000000Y89000000D02*
G75*
G02*
X65000000Y88000000I0J-1000000D01*
G01*
X64000000Y89750000D02*
X62500000Y89750000D01*
X64000000Y95750000D02*
X64000000Y89750000D01*
X62500000Y95750000D02*
X64000000Y95750000D01*
X6000000Y95750000D02*
X7500000Y95750000D01*
X6000000Y89750000D02*
X6000000Y95750000D01*
X7500000Y89750000D02*
X6000000Y89750000D01*
X21000000Y94900000D02*
X21000000Y96500000D01*
X18000000Y94900000D02*
X21000000Y94900000D01*
X21000000Y90600000D02*
X18000000Y90600000D01*
X21000000Y89000000D02*
X21000000Y90600000D01*
X45700000Y88750000D02*
X45700000Y88250000D01*
X39700000Y88750000D02*
X45700000Y88750000D01*
X39700000Y88250000D02*
X39700000Y88750000D01*
X45700000Y88250000D02*
X49500000Y88250000D01*
X45700000Y96750000D02*
X45700000Y97250000D01*
X39700000Y96750000D02*
X45700000Y96750000D01*
X39700000Y97250000D02*
X39700000Y96750000D01*
X45700000Y97250000D02*
X49500000Y97250000D01*
X38000000Y97250000D02*
X39700000Y97250000D01*
X38000000Y88250000D02*
X39700000Y88250000D01*
X18000000Y96500000D02*
X18000000Y94900000D01*
X21000000Y96500000D02*
X38000000Y96500000D01*
X38000000Y89000000D02*
X38000000Y88250000D01*
X38000000Y96500000D02*
X38000000Y97250000D01*
X49500000Y97250000D02*
X49500000Y94900000D01*
X6000000Y96500000D02*
X18000000Y96500000D01*
X53500000Y89000000D02*
X53500000Y90600000D01*
X53500000Y96500000D02*
X64000000Y96500000D01*
X64000000Y89000000D02*
X53500000Y89000000D01*
X62500000Y95750000D02*
X62500000Y89750000D01*
X53500000Y94900000D02*
X53500000Y96500000D01*
X7500000Y95750000D02*
X7500000Y89750000D01*
X49500000Y94900000D02*
X53500000Y94900000D01*
X21000000Y89000000D02*
X38000000Y89000000D01*
X18000000Y89000000D02*
X18000000Y90600000D01*
X6000000Y89000000D02*
X18000000Y89000000D01*
X53500000Y90600000D02*
X49500000Y90600000D01*
X49500000Y90600000D02*
X49500000Y88250000D01*
M02*
