M48
; DRILL file {KiCad (5.1.9)-1} date 10/10/21 13:17:51
; FORMAT={-:-/ absolute / metric / decimal}
; #@! TF.CreationDate,2021-10-10T13:17:51+09:00
; #@! TF.GenerationSoftware,Kicad,Pcbnew,(5.1.9)-1
FMAT,2
METRIC
T1C0.300
T2C0.400
T3C0.700
T4C0.900
T5C2.000
%
G90
G05
T1
X11.3Y91.45
X11.3Y80.45
X11.3Y69.45
X11.3Y58.45
X11.3Y47.45
X11.3Y36.45
X11.3Y25.45
X11.3Y14.45
X11.3Y3.45
X12.6Y93.35
X12.6Y82.35
X12.6Y71.35
X12.6Y60.35
X12.6Y49.35
X12.6Y38.35
X12.6Y27.35
X12.6Y16.35
X12.6Y5.35
X13.3Y94.05
X13.3Y83.05
X13.3Y72.05
X13.3Y61.05
X13.3Y50.05
X13.3Y39.05
X13.3Y28.05
X13.3Y17.05
X13.3Y6.05
X16.1Y93.35
X16.1Y82.35
X16.1Y71.35
X16.1Y60.35
X16.1Y49.35
X16.1Y38.35
X16.1Y27.35
X16.1Y16.35
X16.1Y5.35
X16.5Y94.85
X16.5Y83.85
X16.5Y72.85
X16.5Y61.85
X16.5Y50.85
X16.5Y39.85
X16.5Y28.85
X16.5Y17.85
X16.5Y6.85
X16.6Y91.05
X16.6Y80.05
X16.6Y69.05
X16.6Y58.05
X16.6Y47.05
X16.6Y36.05
X16.6Y25.05
X16.6Y14.05
X16.6Y3.05
X17.3Y93.25
X17.3Y82.25
X17.3Y71.25
X17.3Y60.25
X17.3Y49.25
X17.3Y38.25
X17.3Y27.25
X17.3Y16.25
X17.3Y5.25
X20.9Y92.65
X20.9Y81.65
X20.9Y70.65
X20.9Y59.65
X20.9Y48.65
X20.9Y37.65
X20.9Y26.65
X20.9Y15.65
X20.9Y4.65
X22.3Y90.85
X22.3Y79.85
X22.3Y68.85
X22.3Y57.85
X22.3Y46.85
X22.3Y35.85
X22.3Y24.85
X22.3Y13.85
X22.3Y2.85
X23.2Y91.85
X23.2Y80.85
X23.2Y69.85
X23.2Y58.85
X23.2Y47.85
X23.2Y36.85
X23.2Y25.85
X23.2Y14.85
X23.2Y3.85
X23.5Y90.35
X23.5Y79.35
X23.5Y68.35
X23.5Y57.35
X23.5Y46.35
X23.5Y35.35
X23.5Y24.35
X23.5Y13.35
X23.5Y2.35
X24.4Y95.35
X24.4Y84.35
X24.4Y73.35
X24.4Y62.35
X24.4Y51.35
X24.4Y40.35
X24.4Y29.35
X24.4Y18.35
X24.4Y7.35
X25.7Y94.45
X25.7Y83.45
X25.7Y72.45
X25.7Y61.45
X25.7Y50.45
X25.7Y39.45
X25.7Y28.45
X25.7Y17.45
X25.7Y6.45
X26.6Y92.75
X26.6Y91.55
X26.6Y81.75
X26.6Y80.55
X26.6Y70.75
X26.6Y69.55
X26.6Y59.75
X26.6Y58.55
X26.6Y48.75
X26.6Y47.55
X26.6Y37.75
X26.6Y36.55
X26.6Y26.75
X26.6Y25.55
X26.6Y15.75
X26.6Y14.55
X26.6Y4.75
X26.6Y3.55
X28.5Y94.85
X28.5Y92.05
X28.5Y83.85
X28.5Y81.05
X28.5Y72.85
X28.5Y70.05
X28.5Y61.85
X28.5Y59.05
X28.5Y50.85
X28.5Y48.05
X28.5Y39.85
X28.5Y37.05
X28.5Y28.85
X28.5Y26.05
X28.5Y17.85
X28.5Y15.05
X28.5Y6.85
X28.5Y4.05
X28.6Y90.85
X28.6Y79.85
X28.6Y68.85
X28.6Y57.85
X28.6Y46.85
X28.6Y35.85
X28.6Y24.85
X28.6Y13.85
X28.6Y2.85
X28.7Y89.65
X28.7Y78.65
X28.7Y67.65
X28.7Y56.65
X28.7Y45.65
X28.7Y34.65
X28.7Y23.65
X28.7Y12.65
X28.7Y1.65
X29.6Y89.65
X29.6Y78.65
X29.6Y67.65
X29.6Y56.65
X29.6Y45.65
X29.6Y34.65
X29.6Y23.65
X29.6Y12.65
X29.6Y1.65
X29.7Y93.25
X29.7Y82.25
X29.7Y71.25
X29.7Y60.25
X29.7Y49.25
X29.7Y38.25
X29.7Y27.25
X29.7Y16.25
X29.7Y5.25
X30.4Y93.25
X30.4Y82.25
X30.4Y71.25
X30.4Y60.25
X30.4Y49.25
X30.4Y38.25
X30.4Y27.25
X30.4Y16.25
X30.4Y5.25
X32.3Y95.25
X32.3Y84.25
X32.3Y73.25
X32.3Y62.25
X32.3Y51.25
X32.3Y40.25
X32.3Y29.25
X32.3Y18.25
X32.3Y7.25
X33.1Y95.25
X33.1Y92.25
X33.1Y84.25
X33.1Y81.25
X33.1Y73.25
X33.1Y70.25
X33.1Y62.25
X33.1Y59.25
X33.1Y51.25
X33.1Y48.25
X33.1Y40.25
X33.1Y37.25
X33.1Y29.25
X33.1Y26.25
X33.1Y18.25
X33.1Y15.25
X33.1Y7.25
X33.1Y4.25
X34.0Y95.25
X34.0Y92.15
X34.0Y84.25
X34.0Y81.15
X34.0Y73.25
X34.0Y70.15
X34.0Y62.25
X34.0Y59.15
X34.0Y51.25
X34.0Y48.15
X34.0Y40.25
X34.0Y37.15
X34.0Y29.25
X34.0Y26.15
X34.0Y18.25
X34.0Y15.15
X34.0Y7.25
X34.0Y4.15
X35.4Y92.15
X35.4Y81.15
X35.4Y70.15
X35.4Y59.15
X35.4Y48.15
X35.4Y37.15
X35.4Y26.15
X35.4Y15.15
X35.4Y4.15
X37.4Y92.85
X37.4Y81.85
X37.4Y70.85
X37.4Y59.85
X37.4Y48.85
X37.4Y37.85
X37.4Y26.85
X37.4Y15.85
X37.4Y4.85
X37.7Y94.25
X37.7Y92.25
X37.7Y83.25
X37.7Y81.25
X37.7Y72.25
X37.7Y70.25
X37.7Y61.25
X37.7Y59.25
X37.7Y50.25
X37.7Y48.25
X37.7Y39.25
X37.7Y37.25
X37.7Y28.25
X37.7Y26.25
X37.7Y17.25
X37.7Y15.25
X37.7Y6.25
X37.7Y4.25
X38.8Y89.05
X38.8Y78.05
X38.8Y67.05
X38.8Y56.05
X38.8Y45.05
X38.8Y34.05
X38.8Y23.05
X38.8Y12.05
X38.8Y1.05
X38.9Y94.85
X38.9Y83.85
X38.9Y72.85
X38.9Y61.85
X38.9Y50.85
X38.9Y39.85
X38.9Y28.85
X38.9Y17.85
X38.9Y6.85
X46.5Y94.35
X46.5Y83.35
X46.5Y72.35
X46.5Y61.35
X46.5Y50.35
X46.5Y39.35
X46.5Y28.35
X46.5Y17.35
X46.5Y6.35
X46.8Y90.7
X46.8Y79.7
X46.8Y68.7
X46.8Y57.7
X46.8Y46.7
X46.8Y35.7
X46.8Y24.7
X46.8Y13.7
X46.8Y2.7
X48.3Y96.65
X48.3Y88.85
X48.3Y85.65
X48.3Y77.85
X48.3Y74.65
X48.3Y66.85
X48.3Y63.65
X48.3Y55.85
X48.3Y52.65
X48.3Y44.85
X48.3Y41.65
X48.3Y33.85
X48.3Y30.65
X48.3Y22.85
X48.3Y19.65
X48.3Y11.85
X48.3Y8.65
X48.3Y0.85
X48.7Y96.25
X48.7Y89.25
X48.7Y85.25
X48.7Y78.25
X48.7Y74.25
X48.7Y67.25
X48.7Y63.25
X48.7Y56.25
X48.7Y52.25
X48.7Y45.25
X48.7Y41.25
X48.7Y34.25
X48.7Y30.25
X48.7Y23.25
X48.7Y19.25
X48.7Y12.25
X48.7Y8.25
X48.7Y1.25
X51.1Y93.5
X51.1Y82.5
X51.1Y71.5
X51.1Y60.5
X51.1Y49.5
X51.1Y38.5
X51.1Y27.5
X51.1Y16.5
X51.1Y5.5
X51.7Y93.5
X51.7Y92.65
X51.7Y82.5
X51.7Y81.65
X51.7Y71.5
X51.7Y70.65
X51.7Y60.5
X51.7Y59.65
X51.7Y49.5
X51.7Y48.65
X51.7Y38.5
X51.7Y37.65
X51.7Y27.5
X51.7Y26.65
X51.7Y16.5
X51.7Y15.65
X51.7Y5.5
X51.7Y4.65
X53.6Y92.65
X53.6Y81.65
X53.6Y70.65
X53.6Y59.65
X53.6Y48.65
X53.6Y37.65
X53.6Y26.65
X53.6Y15.65
X53.6Y4.65
X55.5Y92.35
X55.5Y81.35
X55.5Y70.35
X55.5Y59.35
X55.5Y48.35
X55.5Y37.35
X55.5Y26.35
X55.5Y15.35
X55.5Y4.35
X56.2Y90.95
X56.2Y79.95
X56.2Y68.95
X56.2Y57.95
X56.2Y46.95
X56.2Y35.95
X56.2Y24.95
X56.2Y13.95
X56.2Y2.95
X58.4Y94.35
X58.4Y83.35
X58.4Y72.35
X58.4Y61.35
X58.4Y50.35
X58.4Y39.35
X58.4Y28.35
X58.4Y17.35
X58.4Y6.35
T2
X56.2Y92.75
X56.2Y81.75
X56.2Y70.75
X56.2Y59.75
X56.2Y48.75
X56.2Y37.75
X56.2Y26.75
X56.2Y15.75
X56.2Y4.75
X60.1Y89.95
X60.1Y78.95
X60.1Y67.95
X60.1Y56.95
X60.1Y45.95
X60.1Y34.95
X60.1Y23.95
X60.1Y12.95
X60.1Y1.95
X60.25Y95.45
X60.25Y84.45
X60.25Y73.45
X60.25Y62.45
X60.25Y51.45
X60.25Y40.45
X60.25Y29.45
X60.25Y18.45
X60.25Y7.45
T3
X21.865Y95.65
X21.865Y84.65
X21.865Y73.65
X21.865Y62.65
X21.865Y51.65
X21.865Y40.65
X21.865Y29.65
X21.865Y18.65
X21.865Y7.65
X23.135Y95.65
X23.135Y84.65
X23.135Y73.65
X23.135Y62.65
X23.135Y51.65
X23.135Y40.65
X23.135Y29.65
X23.135Y18.65
X23.135Y7.65
X54.25Y95.75
X54.25Y89.75
X54.25Y84.75
X54.25Y78.75
X54.25Y73.75
X54.25Y67.75
X54.25Y62.75
X54.25Y56.75
X54.25Y51.75
X54.25Y45.75
X54.25Y40.75
X54.25Y34.75
X54.25Y29.75
X54.25Y23.75
X54.25Y18.75
X54.25Y12.75
X54.25Y7.75
X54.25Y1.75
T4
X8.5Y95.5
X8.5Y90.0
X8.5Y84.5
X8.5Y79.0
X8.5Y73.5
X8.5Y68.0
X8.5Y62.5
X8.5Y57.0
X8.5Y51.5
X8.5Y46.0
X8.5Y40.5
X8.5Y35.0
X8.5Y29.5
X8.5Y24.0
X8.5Y18.5
X8.5Y13.0
X8.5Y7.5
X8.5Y2.0
X40.95Y95.75
X40.95Y89.75
X40.95Y84.75
X40.95Y78.75
X40.95Y73.75
X40.95Y67.75
X40.95Y62.75
X40.95Y56.75
X40.95Y51.75
X40.95Y45.75
X40.95Y40.75
X40.95Y34.75
X40.95Y29.75
X40.95Y23.75
X40.95Y18.75
X40.95Y12.75
X40.95Y7.75
X40.95Y1.75
X44.45Y95.75
X44.45Y89.75
X44.45Y84.75
X44.45Y78.75
X44.45Y73.75
X44.45Y67.75
X44.45Y62.75
X44.45Y56.75
X44.45Y51.75
X44.45Y45.75
X44.45Y40.75
X44.45Y34.75
X44.45Y29.75
X44.45Y23.75
X44.45Y18.75
X44.45Y12.75
X44.45Y7.75
X44.45Y1.75
T5
X3.5Y92.75
X3.5Y81.75
X3.5Y70.75
X3.5Y59.75
X3.5Y48.75
X3.5Y37.75
X3.5Y26.75
X3.5Y15.75
X3.5Y4.75
X66.5Y92.75
X66.5Y81.75
X66.5Y70.75
X66.5Y59.75
X66.5Y48.75
X66.5Y37.75
X66.5Y26.75
X66.5Y15.75
X66.5Y4.75
T0
M30
