M48
; DRILL file {KiCad (5.1.9)-1} date 03/16/21 21:24:54
; FORMAT={-:-/ absolute / metric / decimal}
; #@! TF.CreationDate,2021-03-16T21:24:54+09:00
; #@! TF.GenerationSoftware,Kicad,Pcbnew,(5.1.9)-1
FMAT,2
METRIC
T1C0.300
T2C0.400
T3C0.500
T4C0.600
T5C0.700
T6C0.800
T7C0.900
T8C2.000
%
G90
G05
T1
X13.25Y91.5
X13.25Y79.0
X13.25Y66.5
X13.25Y54.0
X13.25Y41.5
X13.25Y29.0
X13.25Y16.5
X13.25Y4.0
X14.25Y94.25
X14.25Y81.75
X14.25Y69.25
X14.25Y56.75
X14.25Y44.25
X14.25Y31.75
X14.25Y19.25
X14.25Y6.75
X16.5Y94.25
X16.5Y81.75
X16.5Y69.25
X16.5Y56.75
X16.5Y44.25
X16.5Y31.75
X16.5Y19.25
X16.5Y6.75
X17.0Y93.0
X17.0Y80.5
X17.0Y68.0
X17.0Y55.5
X17.0Y43.0
X17.0Y30.5
X17.0Y18.0
X17.0Y5.5
X18.25Y91.75
X18.25Y79.25
X18.25Y66.75
X18.25Y54.25
X18.25Y41.75
X18.25Y29.25
X18.25Y16.75
X18.25Y4.25
X22.4Y91.9
X22.4Y79.4
X22.4Y66.9
X22.4Y54.4
X22.4Y41.9
X22.4Y29.4
X22.4Y16.9
X22.4Y4.4
X23.5Y95.25
X23.5Y82.75
X23.5Y70.25
X23.5Y57.75
X23.5Y45.25
X23.5Y32.75
X23.5Y20.25
X23.5Y7.75
X24.75Y95.5
X24.75Y83.0
X24.75Y70.5
X24.75Y58.0
X24.75Y45.5
X24.75Y33.0
X24.75Y20.5
X24.75Y8.0
X25.0Y93.25
X25.0Y80.75
X25.0Y68.25
X25.0Y55.75
X25.0Y43.25
X25.0Y30.75
X25.0Y18.25
X25.0Y5.75
X25.25Y89.25
X25.25Y76.75
X25.25Y64.25
X25.25Y51.75
X25.25Y39.25
X25.25Y26.75
X25.25Y14.25
X25.25Y1.75
X27.75Y93.6
X27.75Y81.1
X27.75Y68.6
X27.75Y56.1
X27.75Y43.6
X27.75Y31.1
X27.75Y18.6
X27.75Y6.1
X31.5Y91.94
X31.5Y79.44
X31.5Y66.94
X31.5Y54.44
X31.5Y41.94
X31.5Y29.44
X31.5Y16.94
X31.5Y4.44
X35.25Y90.76
X35.25Y90.0
X35.25Y78.26
X35.25Y77.5
X35.25Y65.76
X35.25Y65.0
X35.25Y53.26
X35.25Y52.5
X35.25Y40.76
X35.25Y40.0
X35.25Y28.26
X35.25Y27.5
X35.25Y15.76
X35.25Y15.0
X35.25Y3.26
X35.25Y2.5
X37.0Y92.6
X37.0Y80.1
X37.0Y67.6
X37.0Y55.1
X37.0Y42.6
X37.0Y30.1
X37.0Y17.6
X37.0Y5.1
X37.25Y96.0
X37.25Y83.5
X37.25Y71.0
X37.25Y58.5
X37.25Y46.0
X37.25Y33.5
X37.25Y21.0
X37.25Y8.5
X38.75Y89.994
X38.75Y77.494
X38.75Y64.994
X38.75Y52.494
X38.75Y39.994
X38.75Y27.494
X38.75Y14.994
X38.75Y2.494
X42.6Y93.7
X42.6Y81.2
X42.6Y68.7
X42.6Y56.2
X42.6Y43.7
X42.6Y31.2
X42.6Y18.7
X42.6Y6.2
X45.9Y91.3
X45.9Y78.8
X45.9Y66.3
X45.9Y53.8
X45.9Y41.3
X45.9Y28.8
X45.9Y16.3
X45.9Y3.8
X46.5Y93.5
X46.5Y81.0
X46.5Y68.5
X46.5Y56.0
X46.5Y43.5
X46.5Y31.0
X46.5Y18.5
X46.5Y6.0
X50.3Y92.6
X50.3Y80.1
X50.3Y67.6
X50.3Y55.1
X50.3Y42.6
X50.3Y30.1
X50.3Y17.6
X50.3Y5.1
X51.7Y92.2
X51.7Y79.7
X51.7Y67.2
X51.7Y54.7
X51.7Y42.2
X51.7Y29.7
X51.7Y17.2
X51.7Y4.7
X54.9Y90.9
X54.9Y78.4
X54.9Y65.9
X54.9Y53.4
X54.9Y40.9
X54.9Y28.4
X54.9Y15.9
X54.9Y3.4
X55.1Y93.3
X55.1Y80.8
X55.1Y68.3
X55.1Y55.8
X55.1Y43.3
X55.1Y30.8
X55.1Y18.3
X55.1Y5.8
X55.9Y90.1
X55.9Y89.1
X55.9Y77.6
X55.9Y76.6
X55.9Y65.1
X55.9Y64.1
X55.9Y52.6
X55.9Y51.6
X55.9Y40.1
X55.9Y39.1
X55.9Y27.6
X55.9Y26.6
X55.9Y15.1
X55.9Y14.1
X55.9Y2.6
X55.9Y1.6
X57.0Y93.3
X57.0Y80.8
X57.0Y68.3
X57.0Y55.8
X57.0Y43.3
X57.0Y30.8
X57.0Y18.3
X57.0Y5.8
X57.5Y95.2
X57.5Y82.7
X57.5Y70.2
X57.5Y57.7
X57.5Y45.2
X57.5Y32.7
X57.5Y20.2
X57.5Y7.7
X58.0Y92.3
X58.0Y79.8
X58.0Y67.3
X58.0Y54.8
X58.0Y42.3
X58.0Y29.8
X58.0Y17.3
X58.0Y4.8
X58.3Y95.2
X58.3Y82.7
X58.3Y70.2
X58.3Y57.7
X58.3Y45.2
X58.3Y32.7
X58.3Y20.2
X58.3Y7.7
X59.1Y91.3
X59.1Y78.8
X59.1Y66.3
X59.1Y53.8
X59.1Y41.3
X59.1Y28.8
X59.1Y16.3
X59.1Y3.8
X60.0Y93.5
X60.0Y81.0
X60.0Y68.5
X60.0Y56.0
X60.0Y43.5
X60.0Y31.0
X60.0Y18.5
X60.0Y6.0
X61.102Y90.503
X61.102Y78.003
X61.102Y65.503
X61.102Y53.003
X61.102Y40.503
X61.102Y28.003
X61.102Y15.503
X61.102Y3.003
X61.2Y95.1
X61.2Y82.6
X61.2Y70.1
X61.2Y57.6
X61.2Y45.1
X61.2Y32.6
X61.2Y20.1
X61.2Y7.6
X62.202Y91.7
X62.202Y79.2
X62.202Y66.7
X62.202Y54.2
X62.202Y41.7
X62.202Y29.2
X62.202Y16.7
X62.202Y4.2
X62.9Y94.3
X62.9Y81.8
X62.9Y69.3
X62.9Y56.8
X62.9Y44.3
X62.9Y31.8
X62.9Y19.3
X62.9Y6.8
X63.5Y93.0
X63.5Y80.5
X63.5Y68.0
X63.5Y55.5
X63.5Y43.0
X63.5Y30.5
X63.5Y18.0
X63.5Y5.5
X65.6Y91.4
X65.6Y78.9
X65.6Y66.4
X65.6Y53.9
X65.6Y41.4
X65.6Y28.9
X65.6Y16.4
X65.6Y3.9
T2
X11.25Y92.25
X11.25Y91.5
X11.25Y79.75
X11.25Y79.0
X11.25Y67.25
X11.25Y66.5
X11.25Y54.75
X11.25Y54.0
X11.25Y42.25
X11.25Y41.5
X11.25Y29.75
X11.25Y29.0
X11.25Y17.25
X11.25Y16.5
X11.25Y4.75
X11.25Y4.0
X15.25Y94.25
X15.25Y81.75
X15.25Y69.25
X15.25Y56.75
X15.25Y44.25
X15.25Y31.75
X15.25Y19.25
X15.25Y6.75
X35.1Y93.5
X35.1Y81.0
X35.1Y68.5
X35.1Y56.0
X35.1Y43.5
X35.1Y31.0
X35.1Y18.5
X35.1Y6.0
X46.25Y96.0
X46.25Y89.5
X46.25Y83.5
X46.25Y77.0
X46.25Y71.0
X46.25Y64.5
X46.25Y58.5
X46.25Y52.0
X46.25Y46.0
X46.25Y39.5
X46.25Y33.5
X46.25Y27.0
X46.25Y21.0
X46.25Y14.5
X46.25Y8.5
X46.25Y2.0
X48.4Y93.5
X48.4Y81.0
X48.4Y68.5
X48.4Y56.0
X48.4Y43.5
X48.4Y31.0
X48.4Y18.5
X48.4Y6.0
T3
X34.75Y97.25
X34.75Y88.25
X34.75Y84.75
X34.75Y75.75
X34.75Y72.25
X34.75Y63.25
X34.75Y59.75
X34.75Y50.75
X34.75Y47.25
X34.75Y38.25
X34.75Y34.75
X34.75Y25.75
X34.75Y22.25
X34.75Y13.25
X34.75Y9.75
X34.75Y0.75
X37.75Y92.0
X37.75Y79.5
X37.75Y67.0
X37.75Y54.5
X37.75Y42.0
X37.75Y29.5
X37.75Y17.0
X37.75Y4.5
T4
X64.5Y96.1
X64.5Y89.4
X64.5Y83.6
X64.5Y76.9
X64.5Y71.1
X64.5Y64.4
X64.5Y58.6
X64.5Y51.9
X64.5Y46.1
X64.5Y39.4
X64.5Y33.6
X64.5Y26.9
X64.5Y21.1
X64.5Y14.4
X64.5Y8.6
X64.5Y1.9
X66.0Y89.4
X66.0Y76.9
X66.0Y64.4
X66.0Y51.9
X66.0Y39.4
X66.0Y26.9
X66.0Y14.4
X66.0Y1.9
X66.1Y96.1
X66.1Y83.6
X66.1Y71.1
X66.1Y58.6
X66.1Y46.1
X66.1Y33.6
X66.1Y21.1
X66.1Y8.6
T5
X54.0Y96.25
X54.0Y89.25
X54.0Y83.75
X54.0Y76.75
X54.0Y71.25
X54.0Y64.25
X54.0Y58.75
X54.0Y51.75
X54.0Y46.25
X54.0Y39.25
X54.0Y33.75
X54.0Y26.75
X54.0Y21.25
X54.0Y14.25
X54.0Y8.75
X54.0Y1.75
X56.465Y96.25
X56.465Y83.75
X56.465Y71.25
X56.465Y58.75
X56.465Y46.25
X56.465Y33.75
X56.465Y21.25
X56.465Y8.75
X57.735Y96.25
X57.735Y83.75
X57.735Y71.25
X57.735Y58.75
X57.735Y46.25
X57.735Y33.75
X57.735Y21.25
X57.735Y8.75
T6
X8.0Y96.0
X8.0Y89.5
X8.0Y83.5
X8.0Y77.0
X8.0Y71.0
X8.0Y64.5
X8.0Y58.5
X8.0Y52.0
X8.0Y46.0
X8.0Y39.5
X8.0Y33.5
X8.0Y27.0
X8.0Y21.0
X8.0Y14.5
X8.0Y8.5
X8.0Y2.0
X10.0Y96.0
X10.0Y89.5
X10.0Y83.5
X10.0Y77.0
X10.0Y71.0
X10.0Y64.5
X10.0Y58.5
X10.0Y52.0
X10.0Y46.0
X10.0Y39.5
X10.0Y33.5
X10.0Y27.0
X10.0Y21.0
X10.0Y14.5
X10.0Y8.5
X10.0Y2.0
T7
X40.75Y96.5
X40.75Y89.0
X40.75Y84.0
X40.75Y76.5
X40.75Y71.5
X40.75Y64.0
X40.75Y59.0
X40.75Y51.5
X40.75Y46.5
X40.75Y39.0
X40.75Y34.0
X40.75Y26.5
X40.75Y21.5
X40.75Y14.0
X40.75Y9.0
X40.75Y1.5
X44.25Y96.5
X44.25Y89.0
X44.25Y84.0
X44.25Y76.5
X44.25Y71.5
X44.25Y64.0
X44.25Y59.0
X44.25Y51.5
X44.25Y46.5
X44.25Y39.0
X44.25Y34.0
X44.25Y26.5
X44.25Y21.5
X44.25Y14.0
X44.25Y9.0
X44.25Y1.5
T8
X3.5Y92.75
X3.5Y80.25
X3.5Y67.75
X3.5Y55.25
X3.5Y42.75
X3.5Y30.25
X3.5Y17.75
X3.5Y5.25
X70.5Y92.75
X70.5Y80.25
X70.5Y67.75
X70.5Y55.25
X70.5Y42.75
X70.5Y30.25
X70.5Y17.75
X70.5Y5.25
T0
M30
