G04 #@! TF.GenerationSoftware,KiCad,Pcbnew,8.0.8*
G04 #@! TF.CreationDate,2025-12-28T14:22:15+09:00*
G04 #@! TF.ProjectId,motordecoder2-K3057,6d6f746f-7264-4656-936f-646572322d4b,rev?*
G04 #@! TF.SameCoordinates,Original*
G04 #@! TF.FileFunction,Paste,Top*
G04 #@! TF.FilePolarity,Positive*
%FSLAX46Y46*%
G04 Gerber Fmt 4.6, Leading zero omitted, Abs format (unit mm)*
G04 Created by KiCad (PCBNEW 8.0.8) date 2025-12-28 14:22:15*
%MOMM*%
%LPD*%
G01*
G04 APERTURE LIST*
G04 Aperture macros list*
%AMRoundRect*
0 Rectangle with rounded corners*
0 $1 Rounding radius*
0 $2 $3 $4 $5 $6 $7 $8 $9 X,Y pos of 4 corners*
0 Add a 4 corners polygon primitive as box body*
4,1,4,$2,$3,$4,$5,$6,$7,$8,$9,$2,$3,0*
0 Add four circle primitives for the rounded corners*
1,1,$1+$1,$2,$3*
1,1,$1+$1,$4,$5*
1,1,$1+$1,$6,$7*
1,1,$1+$1,$8,$9*
0 Add four rect primitives between the rounded corners*
20,1,$1+$1,$2,$3,$4,$5,0*
20,1,$1+$1,$4,$5,$6,$7,0*
20,1,$1+$1,$6,$7,$8,$9,0*
20,1,$1+$1,$8,$9,$2,$3,0*%
%AMFreePoly0*
4,1,14,0.317650,0.059922,0.359922,0.017650,0.370000,-0.006678,0.370000,-0.044032,0.362394,-0.062394,0.344033,-0.070000,-0.344033,-0.070000,-0.362394,-0.062394,-0.370000,-0.044032,-0.370000,0.044032,-0.362394,0.062394,-0.344033,0.070000,0.293322,0.070000,0.317650,0.059922,0.317650,0.059922,$1*%
%AMFreePoly1*
4,1,14,0.362394,0.062394,0.370000,0.044032,0.370000,0.006678,0.359922,-0.017650,0.317650,-0.059922,0.293322,-0.070000,-0.344033,-0.070000,-0.362394,-0.062394,-0.370000,-0.044032,-0.370000,0.044032,-0.362394,0.062394,-0.344033,0.070000,0.344033,0.070000,0.362394,0.062394,0.362394,0.062394,$1*%
%AMFreePoly2*
4,1,14,0.062394,0.362394,0.070000,0.344032,0.070000,-0.344032,0.062394,-0.362394,0.044033,-0.370000,-0.044033,-0.370000,-0.062394,-0.362394,-0.070000,-0.344032,-0.070000,0.293321,-0.059922,0.317650,-0.017650,0.359922,0.006678,0.370000,0.044033,0.370000,0.062394,0.362394,0.062394,0.362394,$1*%
%AMFreePoly3*
4,1,14,0.017650,0.359922,0.059922,0.317650,0.070000,0.293321,0.070000,-0.344032,0.062394,-0.362394,0.044033,-0.370000,-0.044033,-0.370000,-0.062394,-0.362394,-0.070000,-0.344032,-0.070000,0.344032,-0.062394,0.362394,-0.044033,0.370000,-0.006678,0.370000,0.017650,0.359922,0.017650,0.359922,$1*%
%AMFreePoly4*
4,1,14,0.362394,0.062394,0.370000,0.044032,0.370000,-0.044032,0.362394,-0.062394,0.344033,-0.070000,-0.293322,-0.070000,-0.317650,-0.059922,-0.359922,-0.017650,-0.370000,0.006678,-0.370000,0.044032,-0.362394,0.062394,-0.344033,0.070000,0.344033,0.070000,0.362394,0.062394,0.362394,0.062394,$1*%
%AMFreePoly5*
4,1,14,0.362394,0.062394,0.370000,0.044032,0.370000,-0.044032,0.362394,-0.062394,0.344033,-0.070000,-0.344033,-0.070000,-0.362394,-0.062394,-0.370000,-0.044032,-0.370000,-0.006678,-0.359922,0.017650,-0.317650,0.059922,-0.293322,0.070000,0.344033,0.070000,0.362394,0.062394,0.362394,0.062394,$1*%
%AMFreePoly6*
4,1,14,0.062394,0.362394,0.070000,0.344032,0.070000,-0.293321,0.059922,-0.317650,0.017650,-0.359922,-0.006678,-0.370000,-0.044033,-0.370000,-0.062394,-0.362394,-0.070000,-0.344032,-0.070000,0.344032,-0.062394,0.362394,-0.044033,0.370000,0.044033,0.370000,0.062394,0.362394,0.062394,0.362394,$1*%
%AMFreePoly7*
4,1,14,0.062394,0.362394,0.070000,0.344032,0.070000,-0.344032,0.062394,-0.362394,0.044033,-0.370000,0.006678,-0.370000,-0.017650,-0.359922,-0.059922,-0.317650,-0.070000,-0.293321,-0.070000,0.344032,-0.062394,0.362394,-0.044033,0.370000,0.044033,0.370000,0.062394,0.362394,0.062394,0.362394,$1*%
G04 Aperture macros list end*
%ADD10R,0.900000X0.500000*%
%ADD11R,0.520000X0.450000*%
%ADD12R,0.450000X0.520000*%
%ADD13R,0.500000X0.900000*%
%ADD14R,0.500000X0.550000*%
%ADD15R,0.700000X0.800000*%
%ADD16R,0.600000X0.400000*%
%ADD17R,0.800000X0.500000*%
%ADD18R,0.450000X0.300000*%
%ADD19R,0.300000X0.450000*%
%ADD20C,2.000000*%
%ADD21R,0.550000X0.500000*%
%ADD22R,0.400000X0.600000*%
%ADD23R,0.800000X0.800000*%
%ADD24R,0.800000X0.900000*%
%ADD25R,0.700000X0.700000*%
%ADD26RoundRect,0.172500X0.172500X0.172500X-0.172500X0.172500X-0.172500X-0.172500X0.172500X-0.172500X0*%
%ADD27FreePoly0,180.000000*%
%ADD28RoundRect,0.035000X0.335000X0.035000X-0.335000X0.035000X-0.335000X-0.035000X0.335000X-0.035000X0*%
%ADD29FreePoly1,180.000000*%
%ADD30FreePoly2,180.000000*%
%ADD31RoundRect,0.035000X0.035000X0.335000X-0.035000X0.335000X-0.035000X-0.335000X0.035000X-0.335000X0*%
%ADD32FreePoly3,180.000000*%
%ADD33FreePoly4,180.000000*%
%ADD34FreePoly5,180.000000*%
%ADD35FreePoly6,180.000000*%
%ADD36FreePoly7,180.000000*%
%ADD37R,0.750000X1.300000*%
%ADD38R,1.200000X0.900000*%
%ADD39RoundRect,0.172500X-0.172500X-0.172500X0.172500X-0.172500X0.172500X0.172500X-0.172500X0.172500X0*%
%ADD40FreePoly0,0.000000*%
%ADD41RoundRect,0.035000X-0.335000X-0.035000X0.335000X-0.035000X0.335000X0.035000X-0.335000X0.035000X0*%
%ADD42FreePoly1,0.000000*%
%ADD43FreePoly2,0.000000*%
%ADD44RoundRect,0.035000X-0.035000X-0.335000X0.035000X-0.335000X0.035000X0.335000X-0.035000X0.335000X0*%
%ADD45FreePoly3,0.000000*%
%ADD46FreePoly4,0.000000*%
%ADD47FreePoly5,0.000000*%
%ADD48FreePoly6,0.000000*%
%ADD49FreePoly7,0.000000*%
G04 APERTURE END LIST*
D10*
X105200000Y-92250000D03*
X105200000Y-90750000D03*
X131600000Y-63350000D03*
X131600000Y-61850000D03*
D11*
X133420000Y-116250000D03*
X134780000Y-116250000D03*
D12*
X121500000Y-93520000D03*
X121500000Y-94880000D03*
D13*
X125250000Y-103250000D03*
X126750000Y-103250000D03*
D10*
X104700000Y-44150000D03*
X104700000Y-42650000D03*
D11*
X123580000Y-47750000D03*
X122220000Y-47750000D03*
D13*
X154650000Y-74200000D03*
X153150000Y-74200000D03*
D14*
X134500000Y-89725000D03*
X134500000Y-88775000D03*
D15*
X142800000Y-126275000D03*
X142800000Y-124725000D03*
D16*
X110100000Y-103050000D03*
X110100000Y-102150000D03*
D13*
X122350000Y-86250000D03*
X123850000Y-86250000D03*
D16*
X132500000Y-100300000D03*
X132500000Y-101200000D03*
D17*
X149150000Y-119250000D03*
X149150000Y-120550000D03*
X151050000Y-119900000D03*
D18*
X103975000Y-104800000D03*
X103975000Y-104300000D03*
X103975000Y-103800000D03*
X102625000Y-103800000D03*
X102625000Y-104300000D03*
X102625000Y-104800000D03*
D10*
X102300000Y-71450000D03*
X102300000Y-72950000D03*
D19*
X131750000Y-42675000D03*
X132250000Y-42675000D03*
X132750000Y-42675000D03*
X132750000Y-41325000D03*
X132250000Y-41325000D03*
X131750000Y-41325000D03*
D20*
X166500000Y-58000000D03*
D17*
X107850000Y-76750000D03*
X107850000Y-75450000D03*
X105950000Y-76100000D03*
D10*
X129400000Y-73150000D03*
X129400000Y-71650000D03*
D19*
X154400000Y-72875000D03*
X154900000Y-72875000D03*
X155400000Y-72875000D03*
X155400000Y-71525000D03*
X154900000Y-71525000D03*
X154400000Y-71525000D03*
D13*
X102350000Y-105800000D03*
X103850000Y-105800000D03*
D16*
X125250000Y-110300000D03*
X125250000Y-111200000D03*
D13*
X125250000Y-87250000D03*
X126750000Y-87250000D03*
D21*
X123025000Y-126250000D03*
X123975000Y-126250000D03*
D16*
X124500000Y-63700000D03*
X124500000Y-62800000D03*
D15*
X114200000Y-69725000D03*
X114200000Y-71275000D03*
D20*
X166500000Y-106000000D03*
D22*
X148350000Y-55500000D03*
X147450000Y-55500000D03*
D16*
X115300000Y-121350000D03*
X115300000Y-120450000D03*
D22*
X123050000Y-95250000D03*
X123950000Y-95250000D03*
D10*
X152300000Y-103850000D03*
X152300000Y-105350000D03*
D13*
X155150000Y-89600000D03*
X153650000Y-89600000D03*
D23*
X112600000Y-53725000D03*
X112600000Y-55275000D03*
D18*
X153175000Y-124500000D03*
X153175000Y-124000000D03*
X153175000Y-123500000D03*
X151825000Y-123500000D03*
X151825000Y-124000000D03*
X151825000Y-124500000D03*
D13*
X108050000Y-58100000D03*
X109550000Y-58100000D03*
D14*
X122500000Y-42275000D03*
X122500000Y-43225000D03*
X125600000Y-79725000D03*
X125600000Y-78775000D03*
D16*
X141700000Y-58650000D03*
X141700000Y-59550000D03*
D10*
X104700000Y-76150000D03*
X104700000Y-74650000D03*
D16*
X135700000Y-91650000D03*
X135700000Y-92550000D03*
D10*
X114300000Y-102850000D03*
X114300000Y-101350000D03*
D18*
X149975000Y-44900000D03*
X149975000Y-44400000D03*
X149975000Y-43900000D03*
X148625000Y-43900000D03*
X148625000Y-44400000D03*
X148625000Y-44900000D03*
D19*
X102600000Y-107125000D03*
X102100000Y-107125000D03*
X101600000Y-107125000D03*
X101600000Y-108475000D03*
X102100000Y-108475000D03*
X102600000Y-108475000D03*
D17*
X109450000Y-40950000D03*
X109450000Y-39650000D03*
X107550000Y-40300000D03*
D13*
X108050000Y-74100000D03*
X109550000Y-74100000D03*
D10*
X125400000Y-84650000D03*
X125400000Y-86150000D03*
D14*
X125600000Y-63725000D03*
X125600000Y-62775000D03*
D10*
X112800000Y-99950000D03*
X112800000Y-101450000D03*
D12*
X121500000Y-109520000D03*
X121500000Y-110880000D03*
D13*
X106050000Y-73600000D03*
X104550000Y-73600000D03*
X133150000Y-47300000D03*
X134650000Y-47300000D03*
D18*
X103825000Y-39500000D03*
X103825000Y-40000000D03*
X103825000Y-40500000D03*
X105175000Y-40500000D03*
X105175000Y-40000000D03*
X105175000Y-39500000D03*
D22*
X123050000Y-127250000D03*
X123950000Y-127250000D03*
D13*
X135950000Y-90600000D03*
X134450000Y-90600000D03*
X131750000Y-76750000D03*
X130250000Y-76750000D03*
D18*
X149425000Y-71200000D03*
X149425000Y-71700000D03*
X149425000Y-72200000D03*
X150775000Y-72200000D03*
X150775000Y-71700000D03*
X150775000Y-71200000D03*
D16*
X131750000Y-53700000D03*
X131750000Y-52800000D03*
D10*
X131600000Y-79350000D03*
X131600000Y-77850000D03*
D13*
X114350000Y-95600000D03*
X115850000Y-95600000D03*
D10*
X153200000Y-55550000D03*
X153200000Y-57050000D03*
X151800000Y-71750000D03*
X151800000Y-73250000D03*
D13*
X154650000Y-58200000D03*
X153150000Y-58200000D03*
D16*
X133800000Y-41450000D03*
X133800000Y-40550000D03*
D19*
X125250000Y-105325000D03*
X124750000Y-105325000D03*
X124250000Y-105325000D03*
X124250000Y-106675000D03*
X124750000Y-106675000D03*
X125250000Y-106675000D03*
D10*
X129100000Y-60050000D03*
X129100000Y-61550000D03*
D16*
X121300000Y-72350000D03*
X121300000Y-71450000D03*
D13*
X106050000Y-41600000D03*
X104550000Y-41600000D03*
D18*
X103975000Y-120800000D03*
X103975000Y-120300000D03*
X103975000Y-119800000D03*
X102625000Y-119800000D03*
X102625000Y-120300000D03*
X102625000Y-120800000D03*
D10*
X151400000Y-44750000D03*
X151400000Y-43250000D03*
D13*
X102350000Y-121800000D03*
X103850000Y-121800000D03*
D10*
X142700000Y-61150000D03*
X142700000Y-62650000D03*
D18*
X127675000Y-105900000D03*
X127675000Y-105400000D03*
X127675000Y-104900000D03*
X126325000Y-104900000D03*
X126325000Y-105400000D03*
X126325000Y-105900000D03*
D24*
X146300000Y-91000000D03*
X144200000Y-91000000D03*
D11*
X123580000Y-79750000D03*
X122220000Y-79750000D03*
D10*
X105600000Y-87250000D03*
X105600000Y-88750000D03*
D20*
X90500000Y-106000000D03*
D18*
X103975000Y-88800000D03*
X103975000Y-88300000D03*
X103975000Y-87800000D03*
X102625000Y-87800000D03*
X102625000Y-88300000D03*
X102625000Y-88800000D03*
D13*
X150950000Y-90400000D03*
X152450000Y-90400000D03*
D15*
X142800000Y-94275000D03*
X142800000Y-92725000D03*
D10*
X102300000Y-39450000D03*
X102300000Y-40950000D03*
D19*
X154400000Y-56875000D03*
X154900000Y-56875000D03*
X155400000Y-56875000D03*
X155400000Y-55525000D03*
X154900000Y-55525000D03*
X154400000Y-55525000D03*
X102600000Y-123125000D03*
X102100000Y-123125000D03*
X101600000Y-123125000D03*
X101600000Y-124475000D03*
X102100000Y-124475000D03*
X102600000Y-124475000D03*
D25*
X126250000Y-57200000D03*
X126250000Y-56250000D03*
X126250000Y-55300000D03*
X123750000Y-55300000D03*
X123750000Y-56250000D03*
X123750000Y-57200000D03*
D26*
X111675000Y-90425000D03*
X111675000Y-89575000D03*
X110825000Y-90425000D03*
X110825000Y-89575000D03*
D27*
X112700000Y-90800000D03*
D28*
X112700000Y-90400000D03*
X112700000Y-90000000D03*
X112700000Y-89600000D03*
D29*
X112700000Y-89200000D03*
D30*
X112050000Y-88550000D03*
D31*
X111650000Y-88550000D03*
X111250000Y-88550000D03*
X110850000Y-88550000D03*
D32*
X110450000Y-88550000D03*
D33*
X109800000Y-89200000D03*
D28*
X109800000Y-89600000D03*
X109800000Y-90000000D03*
X109800000Y-90400000D03*
D34*
X109800000Y-90800000D03*
D35*
X110450000Y-91450000D03*
D31*
X110850000Y-91450000D03*
X111250000Y-91450000D03*
X111650000Y-91450000D03*
D36*
X112050000Y-91450000D03*
D16*
X133800000Y-73450000D03*
X133800000Y-72550000D03*
D10*
X121250000Y-74550000D03*
X121250000Y-76050000D03*
D13*
X142650000Y-52400000D03*
X141150000Y-52400000D03*
D14*
X122500000Y-74275000D03*
X122500000Y-75225000D03*
D24*
X146300000Y-123000000D03*
X144200000Y-123000000D03*
D13*
X135950000Y-106600000D03*
X134450000Y-106600000D03*
D16*
X131750000Y-69700000D03*
X131750000Y-68800000D03*
D37*
X161425000Y-59300000D03*
X161425000Y-56700000D03*
D14*
X131400000Y-84275000D03*
X131400000Y-85225000D03*
D20*
X90500000Y-74000000D03*
D14*
X131400000Y-100275000D03*
X131400000Y-101225000D03*
D25*
X126250000Y-76700000D03*
X126250000Y-75750000D03*
X126250000Y-74800000D03*
X123750000Y-74800000D03*
X123750000Y-75750000D03*
X123750000Y-76700000D03*
D37*
X161425000Y-43300000D03*
X161425000Y-40700000D03*
D13*
X122350000Y-118250000D03*
X123850000Y-118250000D03*
D20*
X166500000Y-122000000D03*
D13*
X135950000Y-122600000D03*
X134450000Y-122600000D03*
X106050000Y-57600000D03*
X104550000Y-57600000D03*
X132450000Y-55900000D03*
X130950000Y-55900000D03*
D18*
X153925000Y-103300000D03*
X153925000Y-103800000D03*
X153925000Y-104300000D03*
X155275000Y-104300000D03*
X155275000Y-103800000D03*
X155275000Y-103300000D03*
D19*
X134750000Y-43325000D03*
X134250000Y-43325000D03*
X133750000Y-43325000D03*
X133750000Y-44675000D03*
X134250000Y-44675000D03*
X134750000Y-44675000D03*
D13*
X122050000Y-92500000D03*
X123550000Y-92500000D03*
D22*
X108650000Y-108500000D03*
X109550000Y-108500000D03*
D19*
X134750000Y-75325000D03*
X134250000Y-75325000D03*
X133750000Y-75325000D03*
X133750000Y-76675000D03*
X134250000Y-76675000D03*
X134750000Y-76675000D03*
D16*
X146900000Y-60950000D03*
X146900000Y-61850000D03*
D10*
X135750000Y-121450000D03*
X135750000Y-119950000D03*
X127900000Y-119950000D03*
X127900000Y-118450000D03*
D20*
X90500000Y-90000000D03*
D13*
X131750000Y-44750000D03*
X130250000Y-44750000D03*
X148950000Y-121900000D03*
X147450000Y-121900000D03*
D10*
X127600000Y-122850000D03*
X127600000Y-124350000D03*
D22*
X108650000Y-92500000D03*
X109550000Y-92500000D03*
D18*
X103075000Y-60700000D03*
X103075000Y-60200000D03*
X103075000Y-59700000D03*
X101725000Y-59700000D03*
X101725000Y-60200000D03*
X101725000Y-60700000D03*
D10*
X113200000Y-111950000D03*
X113200000Y-110450000D03*
D22*
X148350000Y-39500000D03*
X147450000Y-39500000D03*
D10*
X142700000Y-45150000D03*
X142700000Y-46650000D03*
D14*
X125600000Y-47725000D03*
X125600000Y-46775000D03*
D20*
X90500000Y-122000000D03*
D10*
X129100000Y-44050000D03*
X129100000Y-45550000D03*
D37*
X98375000Y-56700000D03*
X98375000Y-59300000D03*
D22*
X133950000Y-52750000D03*
X133050000Y-52750000D03*
D18*
X103825000Y-55500000D03*
X103825000Y-56000000D03*
X103825000Y-56500000D03*
X105175000Y-56500000D03*
X105175000Y-56000000D03*
X105175000Y-55500000D03*
D13*
X132450000Y-71900000D03*
X130950000Y-71900000D03*
D10*
X142700000Y-77150000D03*
X142700000Y-78650000D03*
D14*
X142900000Y-42575000D03*
X142900000Y-41625000D03*
D10*
X143800000Y-52050000D03*
X143800000Y-53550000D03*
D19*
X122250000Y-120675000D03*
X122750000Y-120675000D03*
X123250000Y-120675000D03*
X123250000Y-119325000D03*
X122750000Y-119325000D03*
X122250000Y-119325000D03*
D14*
X114100000Y-105425000D03*
X114100000Y-106375000D03*
D16*
X121300000Y-56350000D03*
X121300000Y-55450000D03*
X121300000Y-40350000D03*
X121300000Y-39450000D03*
D37*
X158625000Y-59300000D03*
X158625000Y-56700000D03*
D10*
X144200000Y-48050000D03*
X144200000Y-46550000D03*
D14*
X142900000Y-58575000D03*
X142900000Y-57625000D03*
D37*
X95575000Y-40700000D03*
X95575000Y-43300000D03*
D22*
X108650000Y-124500000D03*
X109550000Y-124500000D03*
D14*
X142900000Y-74575000D03*
X142900000Y-73625000D03*
D37*
X98375000Y-72700000D03*
X98375000Y-75300000D03*
D10*
X113200000Y-127950000D03*
X113200000Y-126450000D03*
D14*
X114100000Y-89425000D03*
X114100000Y-90375000D03*
D18*
X153025000Y-59200000D03*
X153025000Y-59700000D03*
X153025000Y-60200000D03*
X154375000Y-60200000D03*
X154375000Y-59700000D03*
X154375000Y-59200000D03*
D10*
X127700000Y-75750000D03*
X127700000Y-74250000D03*
D18*
X107025000Y-87100000D03*
X107025000Y-87600000D03*
X107025000Y-88100000D03*
X108375000Y-88100000D03*
X108375000Y-87600000D03*
X108375000Y-87100000D03*
D10*
X153200000Y-39550000D03*
X153200000Y-41050000D03*
D16*
X141700000Y-74650000D03*
X141700000Y-75550000D03*
D13*
X121050000Y-57400000D03*
X122550000Y-57400000D03*
D18*
X107025000Y-103100000D03*
X107025000Y-103600000D03*
X107025000Y-104100000D03*
X108375000Y-104100000D03*
X108375000Y-103600000D03*
X108375000Y-103100000D03*
D10*
X101300000Y-88950000D03*
X101300000Y-87450000D03*
D24*
X110700000Y-73000000D03*
X112800000Y-73000000D03*
D10*
X125400000Y-100650000D03*
X125400000Y-102150000D03*
X127600000Y-106850000D03*
X127600000Y-108350000D03*
X151800000Y-55750000D03*
X151800000Y-57250000D03*
D13*
X101850000Y-42400000D03*
X103350000Y-42400000D03*
D14*
X115000000Y-44975000D03*
X115000000Y-44025000D03*
D19*
X154400000Y-40875000D03*
X154900000Y-40875000D03*
X155400000Y-40875000D03*
X155400000Y-39525000D03*
X154900000Y-39525000D03*
X154400000Y-39525000D03*
D10*
X154700000Y-124550000D03*
X154700000Y-123050000D03*
X125400000Y-116650000D03*
X125400000Y-118150000D03*
D13*
X134950000Y-71500000D03*
X133450000Y-71500000D03*
X108050000Y-42100000D03*
X109550000Y-42100000D03*
D19*
X122250000Y-88675000D03*
X122750000Y-88675000D03*
X123250000Y-88675000D03*
X123250000Y-87325000D03*
X122750000Y-87325000D03*
X122250000Y-87325000D03*
D18*
X153925000Y-119300000D03*
X153925000Y-119800000D03*
X153925000Y-120300000D03*
X155275000Y-120300000D03*
X155275000Y-119800000D03*
X155275000Y-119300000D03*
D13*
X131750000Y-60750000D03*
X130250000Y-60750000D03*
D14*
X134500000Y-121725000D03*
X134500000Y-120775000D03*
D37*
X158625000Y-75300000D03*
X158625000Y-72700000D03*
D10*
X104700000Y-60150000D03*
X104700000Y-58650000D03*
D19*
X134750000Y-59325000D03*
X134250000Y-59325000D03*
X133750000Y-59325000D03*
X133750000Y-60675000D03*
X134250000Y-60675000D03*
X134750000Y-60675000D03*
D13*
X155150000Y-105600000D03*
X153650000Y-105600000D03*
D16*
X115300000Y-105350000D03*
X115300000Y-104450000D03*
D22*
X148350000Y-71500000D03*
X147450000Y-71500000D03*
D21*
X133975000Y-69750000D03*
X133025000Y-69750000D03*
D19*
X125250000Y-89325000D03*
X124750000Y-89325000D03*
X124250000Y-89325000D03*
X124250000Y-90675000D03*
X124750000Y-90675000D03*
X125250000Y-90675000D03*
D18*
X149425000Y-39200000D03*
X149425000Y-39700000D03*
X149425000Y-40200000D03*
X150775000Y-40200000D03*
X150775000Y-39700000D03*
X150775000Y-39200000D03*
D23*
X112600000Y-69725000D03*
X112600000Y-71275000D03*
D10*
X129300000Y-88250000D03*
X129300000Y-89750000D03*
X143800000Y-68050000D03*
X143800000Y-69550000D03*
D13*
X133150000Y-63300000D03*
X134650000Y-63300000D03*
D19*
X131750000Y-58675000D03*
X132250000Y-58675000D03*
X132750000Y-58675000D03*
X132750000Y-57325000D03*
X132250000Y-57325000D03*
X131750000Y-57325000D03*
D10*
X102300000Y-55450000D03*
X102300000Y-56950000D03*
D20*
X166500000Y-74000000D03*
D16*
X133800000Y-57450000D03*
X133800000Y-56550000D03*
D10*
X121250000Y-42550000D03*
X121250000Y-44050000D03*
D21*
X133975000Y-37750000D03*
X133025000Y-37750000D03*
D18*
X129325000Y-74100000D03*
X129325000Y-74600000D03*
X129325000Y-75100000D03*
X130675000Y-75100000D03*
X130675000Y-74600000D03*
X130675000Y-74100000D03*
X153025000Y-75200000D03*
X153025000Y-75700000D03*
X153025000Y-76200000D03*
X154375000Y-76200000D03*
X154375000Y-75700000D03*
X154375000Y-75200000D03*
D13*
X150950000Y-122400000D03*
X152450000Y-122400000D03*
D16*
X115300000Y-89350000D03*
X115300000Y-88450000D03*
D10*
X129300000Y-107150000D03*
X129300000Y-108650000D03*
X129300000Y-120250000D03*
X129300000Y-121750000D03*
D38*
X143700000Y-89000000D03*
D24*
X145500000Y-89000000D03*
X145500000Y-87000000D03*
X143500000Y-87000000D03*
D16*
X146900000Y-44950000D03*
X146900000Y-45850000D03*
D10*
X103800000Y-92450000D03*
X103800000Y-90950000D03*
D13*
X122050000Y-108500000D03*
X123550000Y-108500000D03*
D19*
X131750000Y-74675000D03*
X132250000Y-74675000D03*
X132750000Y-74675000D03*
X132750000Y-73325000D03*
X132250000Y-73325000D03*
X131750000Y-73325000D03*
D16*
X132500000Y-116300000D03*
X132500000Y-117200000D03*
D18*
X103825000Y-71500000D03*
X103825000Y-72000000D03*
X103825000Y-72500000D03*
X105175000Y-72500000D03*
X105175000Y-72000000D03*
X105175000Y-71500000D03*
D23*
X144400000Y-110275000D03*
X144400000Y-108725000D03*
D16*
X125250000Y-94300000D03*
X125250000Y-95200000D03*
D10*
X112800000Y-115950000D03*
X112800000Y-117450000D03*
X105200000Y-124250000D03*
X105200000Y-122750000D03*
D25*
X126250000Y-60700000D03*
X126250000Y-59750000D03*
X126250000Y-58800000D03*
X123750000Y-58800000D03*
X123750000Y-59750000D03*
X123750000Y-60700000D03*
D16*
X110100000Y-87050000D03*
X110100000Y-86150000D03*
D25*
X130750000Y-122800000D03*
X130750000Y-123750000D03*
X130750000Y-124700000D03*
X133250000Y-124700000D03*
X133250000Y-123750000D03*
X133250000Y-122800000D03*
D16*
X131750000Y-37700000D03*
X131750000Y-36800000D03*
D23*
X112600000Y-37725000D03*
X112600000Y-39275000D03*
D14*
X122500000Y-58275000D03*
X122500000Y-59225000D03*
X115000000Y-60975000D03*
X115000000Y-60025000D03*
D18*
X107025000Y-119100000D03*
X107025000Y-119600000D03*
X107025000Y-120100000D03*
X108375000Y-120100000D03*
X108375000Y-119600000D03*
X108375000Y-119100000D03*
D38*
X113300000Y-59000000D03*
D24*
X111500000Y-59000000D03*
X111500000Y-61000000D03*
X113500000Y-61000000D03*
D22*
X133950000Y-68750000D03*
X133050000Y-68750000D03*
D14*
X115000000Y-76975000D03*
X115000000Y-76025000D03*
D12*
X135500000Y-54480000D03*
X135500000Y-53120000D03*
D13*
X154650000Y-42200000D03*
X153150000Y-42200000D03*
D17*
X107850000Y-44750000D03*
X107850000Y-43450000D03*
X105950000Y-44100000D03*
D12*
X135500000Y-38480000D03*
X135500000Y-37120000D03*
D10*
X129300000Y-91150000D03*
X129300000Y-92650000D03*
D37*
X158625000Y-43300000D03*
X158625000Y-40700000D03*
D16*
X123200000Y-90550000D03*
X123200000Y-91450000D03*
D13*
X122350000Y-102250000D03*
X123850000Y-102250000D03*
D10*
X155700000Y-43050000D03*
X155700000Y-44550000D03*
D13*
X148950000Y-105900000D03*
X147450000Y-105900000D03*
X134950000Y-39500000D03*
X133450000Y-39500000D03*
X122050000Y-124500000D03*
X123550000Y-124500000D03*
D23*
X144400000Y-126275000D03*
X144400000Y-124725000D03*
D26*
X111675000Y-122425000D03*
X111675000Y-121575000D03*
X110825000Y-122425000D03*
X110825000Y-121575000D03*
D27*
X112700000Y-122800000D03*
D28*
X112700000Y-122400000D03*
X112700000Y-122000000D03*
X112700000Y-121600000D03*
D29*
X112700000Y-121200000D03*
D30*
X112050000Y-120550000D03*
D31*
X111650000Y-120550000D03*
X111250000Y-120550000D03*
X110850000Y-120550000D03*
D32*
X110450000Y-120550000D03*
D33*
X109800000Y-121200000D03*
D28*
X109800000Y-121600000D03*
X109800000Y-122000000D03*
X109800000Y-122400000D03*
D34*
X109800000Y-122800000D03*
D35*
X110450000Y-123450000D03*
D31*
X110850000Y-123450000D03*
X111250000Y-123450000D03*
X111650000Y-123450000D03*
D36*
X112050000Y-123450000D03*
D13*
X124550000Y-92100000D03*
X126050000Y-92100000D03*
D24*
X110700000Y-41000000D03*
X112800000Y-41000000D03*
D11*
X133420000Y-100250000D03*
X134780000Y-100250000D03*
D39*
X145325000Y-57575000D03*
X145325000Y-58425000D03*
X146175000Y-57575000D03*
X146175000Y-58425000D03*
D40*
X144300000Y-57200000D03*
D41*
X144300000Y-57600000D03*
X144300000Y-58000000D03*
X144300000Y-58400000D03*
D42*
X144300000Y-58800000D03*
D43*
X144950000Y-59450000D03*
D44*
X145350000Y-59450000D03*
X145750000Y-59450000D03*
X146150000Y-59450000D03*
D45*
X146550000Y-59450000D03*
D46*
X147200000Y-58800000D03*
D41*
X147200000Y-58400000D03*
X147200000Y-58000000D03*
X147200000Y-57600000D03*
D47*
X147200000Y-57200000D03*
D48*
X146550000Y-56550000D03*
D44*
X146150000Y-56550000D03*
X145750000Y-56550000D03*
X145350000Y-56550000D03*
D49*
X144950000Y-56550000D03*
D25*
X126250000Y-44700000D03*
X126250000Y-43750000D03*
X126250000Y-42800000D03*
X123750000Y-42800000D03*
X123750000Y-43750000D03*
X123750000Y-44700000D03*
D13*
X134650000Y-77750000D03*
X133150000Y-77750000D03*
X150950000Y-106400000D03*
X152450000Y-106400000D03*
D16*
X146900000Y-76950000D03*
X146900000Y-77850000D03*
D10*
X114300000Y-118850000D03*
X114300000Y-117350000D03*
D18*
X149975000Y-60900000D03*
X149975000Y-60400000D03*
X149975000Y-59900000D03*
X148625000Y-59900000D03*
X148625000Y-60400000D03*
X148625000Y-60900000D03*
D17*
X147550000Y-91050000D03*
X147550000Y-92350000D03*
X149450000Y-91700000D03*
D15*
X114200000Y-53725000D03*
X114200000Y-55275000D03*
D10*
X135750000Y-89450000D03*
X135750000Y-87950000D03*
X101300000Y-120950000D03*
X101300000Y-119450000D03*
D16*
X124500000Y-47700000D03*
X124500000Y-46800000D03*
D12*
X121500000Y-125520000D03*
X121500000Y-126880000D03*
D21*
X123025000Y-110250000D03*
X123975000Y-110250000D03*
D14*
X134500000Y-105725000D03*
X134500000Y-104775000D03*
D10*
X155700000Y-59050000D03*
X155700000Y-60550000D03*
D13*
X101850000Y-58400000D03*
X103350000Y-58400000D03*
D18*
X153175000Y-92500000D03*
X153175000Y-92000000D03*
X153175000Y-91500000D03*
X151825000Y-91500000D03*
X151825000Y-92000000D03*
X151825000Y-92500000D03*
D10*
X129400000Y-41150000D03*
X129400000Y-39650000D03*
D21*
X123025000Y-94250000D03*
X123975000Y-94250000D03*
D13*
X134950000Y-55500000D03*
X133450000Y-55500000D03*
D10*
X105600000Y-119250000D03*
X105600000Y-120750000D03*
D16*
X141700000Y-42650000D03*
X141700000Y-43550000D03*
D11*
X133420000Y-84250000D03*
X134780000Y-84250000D03*
D10*
X129300000Y-123150000D03*
X129300000Y-124650000D03*
D18*
X103075000Y-44700000D03*
X103075000Y-44200000D03*
X103075000Y-43700000D03*
X101725000Y-43700000D03*
X101725000Y-44200000D03*
X101725000Y-44700000D03*
X127675000Y-89900000D03*
X127675000Y-89400000D03*
X127675000Y-88900000D03*
X126325000Y-88900000D03*
X126325000Y-89400000D03*
X126325000Y-89900000D03*
D10*
X144200000Y-80050000D03*
X144200000Y-78550000D03*
D38*
X113300000Y-43000000D03*
D24*
X111500000Y-43000000D03*
X111500000Y-45000000D03*
X113500000Y-45000000D03*
D13*
X134650000Y-45750000D03*
X133150000Y-45750000D03*
X155150000Y-121600000D03*
X153650000Y-121600000D03*
D10*
X114300000Y-86850000D03*
X114300000Y-85350000D03*
D17*
X109450000Y-56950000D03*
X109450000Y-55650000D03*
X107550000Y-56300000D03*
D16*
X110100000Y-119050000D03*
X110100000Y-118150000D03*
D13*
X114350000Y-111600000D03*
X115850000Y-111600000D03*
D10*
X151400000Y-76750000D03*
X151400000Y-75250000D03*
X154700000Y-92550000D03*
X154700000Y-91050000D03*
D18*
X129325000Y-58100000D03*
X129325000Y-58600000D03*
X129325000Y-59100000D03*
X130675000Y-59100000D03*
X130675000Y-58600000D03*
X130675000Y-58100000D03*
D25*
X126250000Y-73200000D03*
X126250000Y-72250000D03*
X126250000Y-71300000D03*
X123750000Y-71300000D03*
X123750000Y-72250000D03*
X123750000Y-73200000D03*
D11*
X123580000Y-63750000D03*
X122220000Y-63750000D03*
D10*
X127700000Y-56850000D03*
X127700000Y-55350000D03*
D23*
X144400000Y-94275000D03*
X144400000Y-92725000D03*
D10*
X121250000Y-58550000D03*
X121250000Y-60050000D03*
D17*
X107850000Y-60750000D03*
X107850000Y-59450000D03*
X105950000Y-60100000D03*
D12*
X135500000Y-70480000D03*
X135500000Y-69120000D03*
D16*
X125250000Y-126300000D03*
X125250000Y-127200000D03*
D20*
X166500000Y-90000000D03*
D14*
X142000000Y-119025000D03*
X142000000Y-119975000D03*
D13*
X142650000Y-36400000D03*
X141150000Y-36400000D03*
D25*
X130750000Y-103300000D03*
X130750000Y-104250000D03*
X130750000Y-105200000D03*
X133250000Y-105200000D03*
X133250000Y-104250000D03*
X133250000Y-103300000D03*
D17*
X109450000Y-72950000D03*
X109450000Y-71650000D03*
X107550000Y-72300000D03*
D13*
X123850000Y-84700000D03*
X122350000Y-84700000D03*
D10*
X135750000Y-105450000D03*
X135750000Y-103950000D03*
X129400000Y-57150000D03*
X129400000Y-55650000D03*
D15*
X142800000Y-110275000D03*
X142800000Y-108725000D03*
D18*
X127675000Y-121900000D03*
X127675000Y-121400000D03*
X127675000Y-120900000D03*
X126325000Y-120900000D03*
X126325000Y-121400000D03*
X126325000Y-121900000D03*
D10*
X105200000Y-108250000D03*
X105200000Y-106750000D03*
D16*
X124500000Y-79700000D03*
X124500000Y-78800000D03*
D14*
X142000000Y-103025000D03*
X142000000Y-103975000D03*
D13*
X101850000Y-74400000D03*
X103350000Y-74400000D03*
D10*
X103800000Y-124450000D03*
X103800000Y-122950000D03*
D13*
X114350000Y-127600000D03*
X115850000Y-127600000D03*
D25*
X130750000Y-106800000D03*
X130750000Y-107750000D03*
X130750000Y-108700000D03*
X133250000Y-108700000D03*
X133250000Y-107750000D03*
X133250000Y-106800000D03*
D10*
X112800000Y-83950000D03*
X112800000Y-85450000D03*
X154700000Y-108550000D03*
X154700000Y-107050000D03*
X113200000Y-95950000D03*
X113200000Y-94450000D03*
D13*
X123850000Y-116700000D03*
X122350000Y-116700000D03*
D10*
X143800000Y-36050000D03*
X143800000Y-37550000D03*
D37*
X95575000Y-72700000D03*
X95575000Y-75300000D03*
D13*
X121050000Y-73400000D03*
X122550000Y-73400000D03*
D20*
X90500000Y-42000000D03*
D25*
X126250000Y-41200000D03*
X126250000Y-40250000D03*
X126250000Y-39300000D03*
X123750000Y-39300000D03*
X123750000Y-40250000D03*
X123750000Y-41200000D03*
D13*
X134650000Y-61750000D03*
X133150000Y-61750000D03*
D10*
X127700000Y-59750000D03*
X127700000Y-58250000D03*
D15*
X114200000Y-37725000D03*
X114200000Y-39275000D03*
D13*
X125250000Y-119250000D03*
X126750000Y-119250000D03*
D25*
X130750000Y-119300000D03*
X130750000Y-120250000D03*
X130750000Y-121200000D03*
X133250000Y-121200000D03*
X133250000Y-120250000D03*
X133250000Y-119300000D03*
D24*
X146300000Y-107000000D03*
X144200000Y-107000000D03*
D37*
X95575000Y-56700000D03*
X95575000Y-59300000D03*
D19*
X122250000Y-104675000D03*
X122750000Y-104675000D03*
X123250000Y-104675000D03*
X123250000Y-103325000D03*
X122750000Y-103325000D03*
X122250000Y-103325000D03*
D10*
X152300000Y-87850000D03*
X152300000Y-89350000D03*
X127700000Y-40850000D03*
X127700000Y-39350000D03*
D18*
X153925000Y-87300000D03*
X153925000Y-87800000D03*
X153925000Y-88300000D03*
X155275000Y-88300000D03*
X155275000Y-87800000D03*
X155275000Y-87300000D03*
D13*
X123850000Y-100700000D03*
X122350000Y-100700000D03*
X148950000Y-89900000D03*
X147450000Y-89900000D03*
D39*
X145325000Y-41575000D03*
X145325000Y-42425000D03*
X146175000Y-41575000D03*
X146175000Y-42425000D03*
D40*
X144300000Y-41200000D03*
D41*
X144300000Y-41600000D03*
X144300000Y-42000000D03*
X144300000Y-42400000D03*
D42*
X144300000Y-42800000D03*
D43*
X144950000Y-43450000D03*
D44*
X145350000Y-43450000D03*
X145750000Y-43450000D03*
X146150000Y-43450000D03*
D45*
X146550000Y-43450000D03*
D46*
X147200000Y-42800000D03*
D41*
X147200000Y-42400000D03*
X147200000Y-42000000D03*
X147200000Y-41600000D03*
D47*
X147200000Y-41200000D03*
D48*
X146550000Y-40550000D03*
D44*
X146150000Y-40550000D03*
X145750000Y-40550000D03*
X145350000Y-40550000D03*
D49*
X144950000Y-40550000D03*
D26*
X111675000Y-106425000D03*
X111675000Y-105575000D03*
X110825000Y-106425000D03*
X110825000Y-105575000D03*
D27*
X112700000Y-106800000D03*
D28*
X112700000Y-106400000D03*
X112700000Y-106000000D03*
X112700000Y-105600000D03*
D29*
X112700000Y-105200000D03*
D30*
X112050000Y-104550000D03*
D31*
X111650000Y-104550000D03*
X111250000Y-104550000D03*
X110850000Y-104550000D03*
D32*
X110450000Y-104550000D03*
D33*
X109800000Y-105200000D03*
D28*
X109800000Y-105600000D03*
X109800000Y-106000000D03*
X109800000Y-106400000D03*
D34*
X109800000Y-106800000D03*
D35*
X110450000Y-107450000D03*
D31*
X110850000Y-107450000D03*
X111250000Y-107450000D03*
X111650000Y-107450000D03*
D36*
X112050000Y-107450000D03*
D14*
X142000000Y-87025000D03*
X142000000Y-87975000D03*
D18*
X129325000Y-42100000D03*
X129325000Y-42600000D03*
X129325000Y-43100000D03*
X130675000Y-43100000D03*
X130675000Y-42600000D03*
X130675000Y-42100000D03*
D17*
X147550000Y-107050000D03*
X147550000Y-108350000D03*
X149450000Y-107700000D03*
D10*
X129300000Y-104250000D03*
X129300000Y-105750000D03*
X153200000Y-71550000D03*
X153200000Y-73050000D03*
D17*
X149150000Y-103250000D03*
X149150000Y-104550000D03*
X151050000Y-103900000D03*
D18*
X103075000Y-76700000D03*
X103075000Y-76200000D03*
X103075000Y-75700000D03*
X101725000Y-75700000D03*
X101725000Y-76200000D03*
X101725000Y-76700000D03*
D13*
X124550000Y-108100000D03*
X126050000Y-108100000D03*
D38*
X143700000Y-105000000D03*
D24*
X145500000Y-105000000D03*
X145500000Y-103000000D03*
X143500000Y-103000000D03*
D13*
X142650000Y-68400000D03*
X141150000Y-68400000D03*
D10*
X101300000Y-104950000D03*
X101300000Y-103450000D03*
D22*
X123050000Y-111250000D03*
X123950000Y-111250000D03*
D18*
X149975000Y-76900000D03*
X149975000Y-76400000D03*
X149975000Y-75900000D03*
X148625000Y-75900000D03*
X148625000Y-76400000D03*
X148625000Y-76900000D03*
X153025000Y-43200000D03*
X153025000Y-43700000D03*
X153025000Y-44200000D03*
X154375000Y-44200000D03*
X154375000Y-43700000D03*
X154375000Y-43200000D03*
D10*
X127900000Y-103950000D03*
X127900000Y-102450000D03*
D16*
X135700000Y-107650000D03*
X135700000Y-108550000D03*
D19*
X125250000Y-121325000D03*
X124750000Y-121325000D03*
X124250000Y-121325000D03*
X124250000Y-122675000D03*
X124750000Y-122675000D03*
X125250000Y-122675000D03*
D38*
X113300000Y-75000000D03*
D24*
X111500000Y-75000000D03*
X111500000Y-77000000D03*
X113500000Y-77000000D03*
D13*
X121050000Y-41400000D03*
X122550000Y-41400000D03*
D37*
X161425000Y-75300000D03*
X161425000Y-72700000D03*
D13*
X132450000Y-39900000D03*
X130950000Y-39900000D03*
D16*
X132500000Y-84300000D03*
X132500000Y-85200000D03*
D10*
X152300000Y-119850000D03*
X152300000Y-121350000D03*
D16*
X123200000Y-122550000D03*
X123200000Y-123450000D03*
D13*
X133150000Y-79300000D03*
X134650000Y-79300000D03*
D14*
X114100000Y-121425000D03*
X114100000Y-122375000D03*
D10*
X103800000Y-108450000D03*
X103800000Y-106950000D03*
D21*
X133975000Y-53750000D03*
X133025000Y-53750000D03*
D19*
X102600000Y-91125000D03*
X102100000Y-91125000D03*
X101600000Y-91125000D03*
X101600000Y-92475000D03*
X102100000Y-92475000D03*
X102600000Y-92475000D03*
D25*
X130750000Y-87300000D03*
X130750000Y-88250000D03*
X130750000Y-89200000D03*
X133250000Y-89200000D03*
X133250000Y-88250000D03*
X133250000Y-87300000D03*
D10*
X127600000Y-90850000D03*
X127600000Y-92350000D03*
X127700000Y-72850000D03*
X127700000Y-71350000D03*
D16*
X123200000Y-106550000D03*
X123200000Y-107450000D03*
D18*
X107575000Y-124800000D03*
X107575000Y-124300000D03*
X107575000Y-123800000D03*
X106225000Y-123800000D03*
X106225000Y-124300000D03*
X106225000Y-124800000D03*
D10*
X151400000Y-60750000D03*
X151400000Y-59250000D03*
D18*
X149425000Y-55200000D03*
X149425000Y-55700000D03*
X149425000Y-56200000D03*
X150775000Y-56200000D03*
X150775000Y-55700000D03*
X150775000Y-55200000D03*
D13*
X102350000Y-89800000D03*
X103850000Y-89800000D03*
D14*
X131400000Y-116275000D03*
X131400000Y-117225000D03*
D13*
X124550000Y-124100000D03*
X126050000Y-124100000D03*
D10*
X155700000Y-75050000D03*
X155700000Y-76550000D03*
D20*
X166500000Y-42000000D03*
D16*
X135700000Y-123650000D03*
X135700000Y-124550000D03*
D18*
X107575000Y-108800000D03*
X107575000Y-108300000D03*
X107575000Y-107800000D03*
X106225000Y-107800000D03*
X106225000Y-108300000D03*
X106225000Y-108800000D03*
D10*
X144200000Y-64050000D03*
X144200000Y-62550000D03*
D38*
X143700000Y-121000000D03*
D24*
X145500000Y-121000000D03*
X145500000Y-119000000D03*
X143500000Y-119000000D03*
X110700000Y-57000000D03*
X112800000Y-57000000D03*
D10*
X131600000Y-47350000D03*
X131600000Y-45850000D03*
D25*
X130750000Y-90800000D03*
X130750000Y-91750000D03*
X130750000Y-92700000D03*
X133250000Y-92700000D03*
X133250000Y-91750000D03*
X133250000Y-90800000D03*
D37*
X98375000Y-40700000D03*
X98375000Y-43300000D03*
D18*
X107575000Y-92800000D03*
X107575000Y-92300000D03*
X107575000Y-91800000D03*
X106225000Y-91800000D03*
X106225000Y-92300000D03*
X106225000Y-92800000D03*
D10*
X127700000Y-43750000D03*
X127700000Y-42250000D03*
D17*
X147550000Y-123050000D03*
X147550000Y-124350000D03*
X149450000Y-123700000D03*
D39*
X145325000Y-73575000D03*
X145325000Y-74425000D03*
X146175000Y-73575000D03*
X146175000Y-74425000D03*
D40*
X144300000Y-73200000D03*
D41*
X144300000Y-73600000D03*
X144300000Y-74000000D03*
X144300000Y-74400000D03*
D42*
X144300000Y-74800000D03*
D43*
X144950000Y-75450000D03*
D44*
X145350000Y-75450000D03*
X145750000Y-75450000D03*
X146150000Y-75450000D03*
D45*
X146550000Y-75450000D03*
D46*
X147200000Y-74800000D03*
D41*
X147200000Y-74400000D03*
X147200000Y-74000000D03*
X147200000Y-73600000D03*
D47*
X147200000Y-73200000D03*
D48*
X146550000Y-72550000D03*
D44*
X146150000Y-72550000D03*
X145750000Y-72550000D03*
X145350000Y-72550000D03*
D49*
X144950000Y-72550000D03*
D10*
X105600000Y-103250000D03*
X105600000Y-104750000D03*
X127900000Y-87950000D03*
X127900000Y-86450000D03*
X151800000Y-39750000D03*
X151800000Y-41250000D03*
D18*
X153175000Y-108500000D03*
X153175000Y-108000000D03*
X153175000Y-107500000D03*
X151825000Y-107500000D03*
X151825000Y-108000000D03*
X151825000Y-108500000D03*
D10*
X129100000Y-76050000D03*
X129100000Y-77550000D03*
D22*
X133950000Y-36750000D03*
X133050000Y-36750000D03*
D20*
X90500000Y-58000000D03*
D17*
X149150000Y-87250000D03*
X149150000Y-88550000D03*
X151050000Y-87900000D03*
M02*
