M48
; DRILL file {KiCad 8.0.8} date 2025-12-28T14:22:16+0900
; FORMAT={-:-/ absolute / metric / decimal}
; #@! TF.CreationDate,2025-12-28T14:22:16+09:00
; #@! TF.GenerationSoftware,Kicad,Pcbnew,8.0.8
; #@! TF.FileFunction,Plated,1,2,PTH
FMAT,2
METRIC
; #@! TA.AperFunction,Plated,PTH,ViaDrill
T1C0.300
; #@! TA.AperFunction,Plated,PTH,ViaDrill
T2C0.400
; #@! TA.AperFunction,Plated,PTH,ViaDrill
T3C0.500
; #@! TA.AperFunction,Plated,PTH,ViaDrill
T4C0.600
; #@! TA.AperFunction,Plated,PTH,ComponentDrill
T5C0.600
; #@! TA.AperFunction,Plated,PTH,ComponentDrill
T6C0.700
%
G90
G05
T1
X95.9Y-39.5
X95.9Y-55.5
X95.9Y-71.5
X96.0Y-87.5
X96.0Y-103.5
X96.0Y-119.5
X96.5Y-40.1
X96.5Y-56.1
X96.5Y-72.1
X96.5Y-88.2
X96.5Y-104.2
X96.5Y-120.2
X98.5Y-90.0
X98.5Y-106.0
X98.5Y-122.0
X99.2Y-92.7
X99.2Y-108.7
X99.2Y-124.7
X99.3Y-88.4
X99.3Y-104.4
X99.3Y-120.4
X99.4Y-40.6
X99.4Y-56.6
X99.4Y-72.6
X99.4Y-89.4
X99.4Y-105.4
X99.4Y-121.4
X100.2Y-91.2
X100.2Y-107.2
X100.2Y-123.2
X100.3Y-88.9
X100.3Y-104.9
X100.3Y-120.9
X100.4Y-43.6
X100.4Y-59.6
X100.4Y-75.6
X100.9Y-91.2
X100.9Y-107.2
X100.9Y-123.2
X102.6Y-43.0
X102.6Y-59.0
X102.6Y-75.0
X103.1Y-89.2
X103.1Y-90.17
X103.1Y-105.2
X103.1Y-106.17
X103.1Y-121.2
X103.1Y-122.17
X104.1Y-87.5
X104.1Y-91.7
X104.1Y-103.5
X104.1Y-107.7
X104.1Y-119.5
X104.1Y-123.7
X104.398Y-40.0
X104.398Y-56.0
X104.398Y-72.0
X105.2Y-91.5
X105.2Y-107.5
X105.2Y-123.5
X105.7Y-39.2
X105.7Y-55.2
X105.7Y-71.2
X106.7Y-44.7
X106.7Y-60.7
X106.7Y-76.7
X107.0Y-89.3
X107.0Y-105.3
X107.0Y-121.3
X107.8Y-87.0
X107.8Y-103.0
X107.8Y-119.0
X108.2Y-90.1
X108.2Y-106.1
X108.2Y-122.1
X108.5Y-40.3
X108.5Y-56.3
X108.5Y-72.3
X109.7Y-91.9
X109.7Y-107.9
X109.7Y-123.9
X110.1Y-85.6
X110.1Y-87.9
X110.1Y-101.6
X110.1Y-103.9
X110.1Y-117.6
X110.1Y-119.9
X110.5Y-92.4
X110.5Y-108.4
X110.5Y-124.4
X110.75Y-90.5
X110.75Y-106.5
X110.75Y-122.5
X110.8Y-84.1
X110.8Y-100.1
X110.8Y-116.1
X111.0Y-86.2
X111.0Y-102.2
X111.0Y-118.2
X111.3Y-92.5
X111.3Y-108.5
X111.3Y-124.5
X111.5Y-84.1
X111.5Y-100.1
X111.5Y-116.1
X111.75Y-89.5
X111.75Y-105.5
X111.75Y-121.5
X112.2Y-86.5
X112.2Y-102.5
X112.2Y-118.5
X112.5Y-92.1
X112.5Y-108.1
X112.5Y-124.1
X112.7Y-88.1
X112.7Y-104.1
X112.7Y-120.1
X113.3Y-93.7
X113.3Y-109.7
X113.3Y-125.7
X113.5Y-88.4
X113.5Y-104.4
X113.5Y-120.4
X113.628Y-86.572
X113.628Y-102.572
X113.628Y-118.572
X114.1Y-91.2
X114.1Y-92.0
X114.1Y-107.2
X114.1Y-108.0
X114.1Y-123.2
X114.1Y-124.0
X114.8Y-88.6
X114.8Y-104.6
X114.8Y-120.6
X115.15Y-93.3
X115.15Y-109.3
X115.15Y-125.3
X115.25Y-37.75
X115.25Y-53.75
X115.25Y-69.75
X115.5Y-86.8
X115.5Y-102.8
X115.5Y-118.8
X115.7Y-85.6
X115.7Y-101.6
X115.7Y-117.6
X115.9Y-92.0
X115.9Y-108.0
X115.9Y-124.0
X120.3Y-44.1
X120.3Y-60.1
X120.3Y-76.1
X121.5Y-46.25
X121.5Y-62.25
X121.5Y-78.25
X121.5Y-87.25
X121.5Y-103.25
X121.5Y-119.25
X121.75Y-42.4
X121.75Y-58.4
X121.75Y-74.4
X122.25Y-40.6
X122.25Y-56.6
X122.25Y-72.6
X123.0Y-41.202
X123.0Y-57.202
X123.0Y-73.202
X123.1Y-86.2
X123.1Y-102.2
X123.1Y-118.2
X123.5Y-89.6
X123.5Y-105.6
X123.5Y-121.6
X123.7Y-93.5
X123.7Y-109.5
X123.7Y-125.5
X124.6Y-93.5
X124.6Y-109.5
X124.6Y-125.5
X125.9Y-93.3
X125.9Y-109.3
X125.9Y-125.3
X126.5Y-87.5
X126.5Y-103.5
X126.5Y-119.5
X127.3Y-91.7
X127.3Y-107.7
X127.3Y-123.7
X129.7Y-40.3
X129.7Y-56.3
X129.7Y-72.3
X130.5Y-44.5
X130.5Y-60.5
X130.5Y-76.5
X131.1Y-38.7
X131.1Y-54.7
X131.1Y-70.7
X132.4Y-38.5
X132.4Y-54.5
X132.4Y-70.5
X133.3Y-38.5
X133.3Y-54.5
X133.3Y-70.5
X133.5Y-42.4
X133.5Y-58.4
X133.5Y-74.4
X133.9Y-45.8
X133.9Y-61.8
X133.9Y-77.8
X134.0Y-90.798
X134.0Y-106.798
X134.0Y-122.798
X134.75Y-91.4
X134.75Y-107.4
X134.75Y-123.4
X135.25Y-89.6
X135.25Y-105.6
X135.25Y-121.6
X135.5Y-44.75
X135.5Y-60.75
X135.5Y-76.75
X135.5Y-85.75
X135.5Y-101.75
X135.5Y-117.75
X136.7Y-87.9
X136.7Y-103.9
X136.7Y-119.9
X141.1Y-40.0
X141.1Y-56.0
X141.1Y-72.0
X141.3Y-46.4
X141.3Y-62.4
X141.3Y-78.4
X141.5Y-45.2
X141.5Y-61.2
X141.5Y-77.2
X141.75Y-94.25
X141.75Y-110.25
X141.75Y-126.25
X141.85Y-38.7
X141.85Y-54.7
X141.85Y-70.7
X142.2Y-43.4
X142.2Y-59.4
X142.2Y-75.4
X142.9Y-40.0
X142.9Y-40.8
X142.9Y-56.0
X142.9Y-56.8
X142.9Y-72.0
X142.9Y-72.8
X143.372Y-45.428
X143.372Y-61.428
X143.372Y-77.428
X143.5Y-43.6
X143.5Y-59.6
X143.5Y-75.6
X143.7Y-38.3
X143.7Y-54.3
X143.7Y-70.3
X144.3Y-43.9
X144.3Y-59.9
X144.3Y-75.9
X144.5Y-39.9
X144.5Y-55.9
X144.5Y-71.9
X144.8Y-45.5
X144.8Y-61.5
X144.8Y-77.5
X145.25Y-42.5
X145.25Y-58.5
X145.25Y-74.5
X145.5Y-47.9
X145.5Y-63.9
X145.5Y-79.9
X145.7Y-39.5
X145.7Y-55.5
X145.7Y-71.5
X146.0Y-45.8
X146.0Y-61.8
X146.0Y-77.8
X146.2Y-47.9
X146.2Y-63.9
X146.2Y-79.9
X146.25Y-41.5
X146.25Y-57.5
X146.25Y-73.5
X146.5Y-39.6
X146.5Y-55.6
X146.5Y-71.6
X146.9Y-44.1
X146.9Y-46.4
X146.9Y-60.1
X146.9Y-62.4
X146.9Y-76.1
X146.9Y-78.4
X147.3Y-40.1
X147.3Y-56.1
X147.3Y-72.1
X148.5Y-91.7
X148.5Y-107.7
X148.5Y-123.7
X148.8Y-41.9
X148.8Y-57.9
X148.8Y-73.9
X149.2Y-45.0
X149.2Y-61.0
X149.2Y-77.0
X150.0Y-42.7
X150.0Y-58.7
X150.0Y-74.7
X150.3Y-87.3
X150.3Y-103.3
X150.3Y-119.3
X151.3Y-92.8
X151.3Y-108.8
X151.3Y-124.8
X151.8Y-40.5
X151.8Y-56.5
X151.8Y-72.5
X152.602Y-92.0
X152.602Y-108.0
X152.602Y-124.0
X152.9Y-40.3
X152.9Y-44.5
X152.9Y-56.3
X152.9Y-60.5
X152.9Y-72.3
X152.9Y-76.5
X153.9Y-41.83
X153.9Y-42.8
X153.9Y-57.83
X153.9Y-58.8
X153.9Y-73.83
X153.9Y-74.8
X154.4Y-89.0
X154.4Y-105.0
X154.4Y-121.0
X156.1Y-40.8
X156.1Y-56.8
X156.1Y-72.8
X156.6Y-88.4
X156.6Y-104.4
X156.6Y-120.4
X156.7Y-43.1
X156.7Y-59.1
X156.7Y-75.1
X156.8Y-40.8
X156.8Y-56.8
X156.8Y-72.8
X157.6Y-42.6
X157.6Y-58.6
X157.6Y-74.6
X157.6Y-91.4
X157.6Y-107.4
X157.6Y-123.4
X157.7Y-43.6
X157.7Y-59.6
X157.7Y-75.6
X157.8Y-39.3
X157.8Y-55.3
X157.8Y-71.3
X158.5Y-42.0
X158.5Y-58.0
X158.5Y-74.0
X160.5Y-43.8
X160.5Y-59.8
X160.5Y-75.8
X160.5Y-91.9
X160.5Y-107.9
X160.5Y-123.9
X161.0Y-44.5
X161.0Y-60.5
X161.0Y-76.5
X161.1Y-92.5
X161.1Y-108.5
X161.1Y-124.5
T2
X96.7Y-44.7
X96.7Y-60.7
X96.7Y-76.7
X97.1Y-92.8
X97.1Y-108.8
X97.1Y-124.8
X99.0Y-42.0
X99.0Y-58.0
X99.0Y-74.0
X104.8Y-89.2
X104.8Y-105.2
X104.8Y-121.2
X109.3Y-43.9
X109.3Y-59.9
X109.3Y-75.9
X112.5Y-45.1
X112.5Y-61.1
X112.5Y-77.1
X114.3Y-85.9
X114.3Y-101.9
X114.3Y-117.9
X121.3Y-95.75
X121.3Y-111.75
X121.3Y-127.75
X125.75Y-45.75
X125.75Y-61.75
X125.75Y-77.75
X127.5Y-45.2
X127.5Y-61.2
X127.5Y-77.2
X129.5Y-86.8
X129.5Y-102.8
X129.5Y-118.8
X131.25Y-86.25
X131.25Y-102.25
X131.25Y-118.25
X135.7Y-36.25
X135.7Y-52.25
X135.7Y-68.25
X142.7Y-46.1
X142.7Y-62.1
X142.7Y-78.1
X144.5Y-86.9
X144.5Y-102.9
X144.5Y-118.9
X147.7Y-88.1
X147.7Y-104.1
X147.7Y-120.1
X152.2Y-42.8
X152.2Y-58.8
X152.2Y-74.8
X158.0Y-90.0
X158.0Y-106.0
X158.0Y-122.0
X159.9Y-39.2
X159.9Y-55.2
X159.9Y-71.2
X160.3Y-87.3
X160.3Y-103.3
X160.3Y-119.3
T3
X110.5Y-42.1
X110.5Y-58.1
X110.5Y-74.1
X110.9Y-95.8
X110.9Y-111.8
X110.9Y-127.8
X112.0Y-95.8
X112.0Y-111.8
X112.0Y-127.8
X112.5Y-44.0
X112.5Y-60.0
X112.5Y-76.0
X113.3Y-42.0
X113.3Y-58.0
X113.3Y-74.0
X122.5Y-44.1
X122.5Y-60.1
X122.5Y-76.1
X123.7Y-37.8
X123.7Y-53.8
X123.7Y-69.8
X124.5Y-39.25
X124.5Y-55.25
X124.5Y-71.25
X127.4Y-43.2
X127.4Y-59.2
X127.4Y-75.2
X127.5Y-40.3
X127.5Y-56.3
X127.5Y-72.3
X129.5Y-91.7
X129.5Y-107.7
X129.5Y-123.7
X129.6Y-88.8
X129.6Y-104.8
X129.6Y-120.8
X132.5Y-92.75
X132.5Y-108.75
X132.5Y-124.75
X133.3Y-94.2
X133.3Y-110.2
X133.3Y-126.2
X134.5Y-87.9
X134.5Y-103.9
X134.5Y-119.9
X143.7Y-90.0
X143.7Y-106.0
X143.7Y-122.0
X144.5Y-88.0
X144.5Y-104.0
X144.5Y-120.0
X145.0Y-36.2
X145.0Y-52.2
X145.0Y-68.2
X146.1Y-36.2
X146.1Y-52.2
X146.1Y-68.2
X146.5Y-89.9
X146.5Y-105.9
X146.5Y-121.9
T4
X101.0Y-41.0
X101.0Y-57.0
X101.0Y-73.0
X107.0Y-42.5
X107.0Y-58.5
X107.0Y-74.5
X111.3Y-38.4
X111.3Y-39.6
X111.3Y-54.4
X111.3Y-55.6
X111.3Y-70.4
X111.3Y-71.6
X111.4Y-46.5
X111.4Y-62.5
X111.4Y-78.5
X112.5Y-46.5
X112.5Y-62.5
X112.5Y-78.5
X121.5Y-89.5
X121.5Y-90.75
X121.5Y-105.5
X121.5Y-106.75
X121.5Y-121.5
X121.5Y-122.75
X124.75Y-38.0
X124.75Y-54.0
X124.75Y-70.0
X124.8Y-41.0
X124.8Y-42.9
X124.8Y-57.0
X124.8Y-58.9
X124.8Y-73.0
X124.8Y-74.9
X132.2Y-89.1
X132.2Y-91.0
X132.2Y-105.1
X132.2Y-107.0
X132.2Y-121.1
X132.2Y-123.0
X132.25Y-94.0
X132.25Y-110.0
X132.25Y-126.0
X135.5Y-41.25
X135.5Y-42.5
X135.5Y-57.25
X135.5Y-58.5
X135.5Y-73.25
X135.5Y-74.5
X144.5Y-85.5
X144.5Y-101.5
X144.5Y-117.5
X145.6Y-85.5
X145.6Y-101.5
X145.6Y-117.5
X145.7Y-92.4
X145.7Y-93.6
X145.7Y-108.4
X145.7Y-109.6
X145.7Y-124.4
X145.7Y-125.6
X150.0Y-89.5
X150.0Y-105.5
X150.0Y-121.5
X156.0Y-91.0
X156.0Y-107.0
X156.0Y-123.0
T5
X99.8Y-39.3
X99.8Y-55.3
X99.8Y-71.3
X99.9Y-87.3
X99.9Y-103.3
X99.9Y-119.3
X100.1Y-44.7
X100.1Y-60.7
X100.1Y-76.7
X100.3Y-92.7
X100.3Y-108.7
X100.3Y-124.7
X115.2Y-41.365
X115.2Y-42.635
X115.2Y-57.365
X115.2Y-58.635
X115.2Y-73.365
X115.2Y-74.635
X141.8Y-89.365
X141.8Y-90.635
X141.8Y-105.365
X141.8Y-106.635
X141.8Y-121.365
X141.8Y-122.635
X156.7Y-39.3
X156.7Y-55.3
X156.7Y-71.3
X156.9Y-87.3
X156.9Y-103.3
X156.9Y-119.3
X157.1Y-44.7
X157.1Y-60.7
X157.1Y-76.7
X157.2Y-92.7
X157.2Y-108.7
X157.2Y-124.7
T6
X110.565Y-93.5
X110.565Y-109.5
X110.565Y-125.5
X111.835Y-93.5
X111.835Y-109.5
X111.835Y-125.5
X120.9Y-35.9
X120.9Y-48.1
X120.9Y-51.9
X120.9Y-64.1
X120.9Y-67.9
X120.9Y-80.1
X136.1Y-83.9
X136.1Y-96.1
X136.1Y-99.9
X136.1Y-112.1
X136.1Y-115.9
X136.1Y-128.1
X145.165Y-38.5
X145.165Y-54.5
X145.165Y-70.5
X146.435Y-38.5
X146.435Y-54.5
X146.435Y-70.5
M30
