G04 #@! TF.GenerationSoftware,KiCad,Pcbnew,8.0.8*
G04 #@! TF.CreationDate,2025-12-28T14:22:16+09:00*
G04 #@! TF.ProjectId,motordecoder2-K3057,6d6f746f-7264-4656-936f-646572322d4b,rev?*
G04 #@! TF.SameCoordinates,Original*
G04 #@! TF.FileFunction,Soldermask,Bot*
G04 #@! TF.FilePolarity,Negative*
%FSLAX46Y46*%
G04 Gerber Fmt 4.6, Leading zero omitted, Abs format (unit mm)*
G04 Created by KiCad (PCBNEW 8.0.8) date 2025-12-28 14:22:16*
%MOMM*%
%LPD*%
G01*
G04 APERTURE LIST*
%ADD10R,7.600000X1.800000*%
%ADD11R,0.950000X0.950000*%
%ADD12C,2.000000*%
%ADD13R,6.600000X1.800000*%
%ADD14R,1.200000X1.200000*%
%ADD15R,1.000000X1.000000*%
%ADD16R,8.000000X1.800000*%
%ADD17R,0.500000X1.450000*%
%ADD18R,0.750000X1.300000*%
%ADD19R,0.300000X0.500000*%
G04 APERTURE END LIST*
D10*
X113000000Y-47900000D03*
D11*
X141800000Y-106635000D03*
X141800000Y-105365000D03*
D10*
X113000000Y-36100000D03*
D12*
X166500000Y-58000000D03*
D13*
X123500000Y-47900000D03*
D14*
X120900000Y-67900000D03*
D10*
X144000000Y-95900000D03*
D12*
X166500000Y-106000000D03*
D14*
X120900000Y-35900000D03*
D15*
X156700000Y-71300000D03*
D13*
X133500000Y-116100000D03*
X123500000Y-100100000D03*
D11*
X115200000Y-73365000D03*
X115200000Y-74635000D03*
D10*
X113000000Y-63900000D03*
D16*
X137500000Y-124600000D03*
D13*
X133500000Y-111900000D03*
D15*
X100300000Y-92700000D03*
D14*
X120900000Y-51900000D03*
D11*
X145165000Y-38500000D03*
X146435000Y-38500000D03*
D14*
X120900000Y-80100000D03*
D15*
X99800000Y-39300000D03*
D13*
X123500000Y-68100000D03*
D12*
X90500000Y-106000000D03*
D15*
X156700000Y-39300000D03*
D14*
X120900000Y-64100000D03*
D16*
X119500000Y-71400000D03*
D10*
X144000000Y-36100000D03*
D13*
X133500000Y-36100000D03*
X123500000Y-79900000D03*
D15*
X156700000Y-55300000D03*
D12*
X90500000Y-74000000D03*
D10*
X113000000Y-111900000D03*
D13*
X123500000Y-127900000D03*
D12*
X166500000Y-122000000D03*
D14*
X136100000Y-99900000D03*
D10*
X113000000Y-95900000D03*
D11*
X115200000Y-41365000D03*
X115200000Y-42635000D03*
D15*
X100300000Y-124700000D03*
D12*
X90500000Y-90000000D03*
D15*
X99900000Y-119300000D03*
D10*
X144000000Y-116100000D03*
D13*
X133500000Y-68100000D03*
D12*
X90500000Y-122000000D03*
D10*
X113000000Y-84100000D03*
D16*
X137500000Y-103400000D03*
D15*
X100100000Y-44700000D03*
D13*
X133500000Y-84100000D03*
D11*
X145165000Y-54500000D03*
X146435000Y-54500000D03*
D13*
X123500000Y-63900000D03*
D10*
X144000000Y-100100000D03*
D15*
X157200000Y-92700000D03*
D11*
X111835000Y-93500000D03*
X110565000Y-93500000D03*
D10*
X144000000Y-84100000D03*
D15*
X156900000Y-119300000D03*
D13*
X133500000Y-63900000D03*
X123500000Y-95900000D03*
D15*
X157100000Y-76700000D03*
X157200000Y-124700000D03*
D14*
X136100000Y-115900000D03*
D13*
X133500000Y-100100000D03*
D10*
X113000000Y-79900000D03*
D16*
X119500000Y-60600000D03*
D12*
X166500000Y-74000000D03*
D10*
X144000000Y-52100000D03*
D15*
X99800000Y-71300000D03*
D10*
X113000000Y-100100000D03*
D14*
X136100000Y-83900000D03*
D13*
X133500000Y-52100000D03*
D10*
X144000000Y-127900000D03*
D16*
X119500000Y-39400000D03*
D11*
X111835000Y-125500000D03*
X110565000Y-125500000D03*
D10*
X113000000Y-116100000D03*
D13*
X123500000Y-111900000D03*
D10*
X144000000Y-63900000D03*
D16*
X119500000Y-44600000D03*
D15*
X99900000Y-103300000D03*
D16*
X119500000Y-76600000D03*
D15*
X100100000Y-60700000D03*
D13*
X123500000Y-52100000D03*
D15*
X99800000Y-55300000D03*
X156900000Y-103300000D03*
X99900000Y-87300000D03*
D10*
X113000000Y-52100000D03*
D13*
X133500000Y-47900000D03*
X133500000Y-127900000D03*
D10*
X144000000Y-111900000D03*
D11*
X145165000Y-70500000D03*
X146435000Y-70500000D03*
D12*
X166500000Y-90000000D03*
D15*
X100300000Y-108700000D03*
D13*
X133500000Y-95900000D03*
D11*
X141800000Y-122635000D03*
X141800000Y-121365000D03*
D12*
X90500000Y-42000000D03*
D13*
X123500000Y-84100000D03*
D10*
X144000000Y-47900000D03*
D14*
X120900000Y-48100000D03*
X136100000Y-112100000D03*
D15*
X100100000Y-76700000D03*
D13*
X123500000Y-116100000D03*
D16*
X137500000Y-87400000D03*
D11*
X141800000Y-90635000D03*
X141800000Y-89365000D03*
D10*
X144000000Y-79900000D03*
X113000000Y-127900000D03*
D14*
X136100000Y-96100000D03*
D10*
X144000000Y-68100000D03*
D16*
X137500000Y-92600000D03*
X137500000Y-108600000D03*
D13*
X133500000Y-79900000D03*
X123500000Y-36100000D03*
D10*
X113000000Y-68100000D03*
D14*
X136100000Y-128100000D03*
D15*
X157100000Y-60700000D03*
D12*
X166500000Y-42000000D03*
D11*
X111835000Y-109500000D03*
X110565000Y-109500000D03*
D15*
X156900000Y-87300000D03*
D16*
X119500000Y-55400000D03*
D11*
X115200000Y-57365000D03*
X115200000Y-58635000D03*
D16*
X137500000Y-119400000D03*
D15*
X157200000Y-108700000D03*
X157100000Y-44700000D03*
D12*
X90500000Y-58000000D03*
D17*
X97750000Y-91375000D03*
D18*
X98375000Y-91300000D03*
D19*
X97750000Y-90550000D03*
X97750000Y-89450000D03*
D18*
X98375000Y-88700000D03*
D17*
X97750000Y-88625000D03*
X159250000Y-72625000D03*
D18*
X158625000Y-72700000D03*
D19*
X159250000Y-73450000D03*
X159250000Y-74550000D03*
D18*
X158625000Y-75300000D03*
D17*
X159250000Y-75375000D03*
X94950000Y-75375000D03*
D18*
X95575000Y-75300000D03*
D19*
X94950000Y-74550000D03*
X94950000Y-73450000D03*
D18*
X95575000Y-72700000D03*
D17*
X94950000Y-72625000D03*
X162050000Y-104625000D03*
D18*
X161425000Y-104700000D03*
D19*
X162050000Y-105450000D03*
X162050000Y-106550000D03*
D18*
X161425000Y-107300000D03*
D17*
X162050000Y-107375000D03*
X162050000Y-88625000D03*
D18*
X161425000Y-88700000D03*
D19*
X162050000Y-89450000D03*
X162050000Y-90550000D03*
D18*
X161425000Y-91300000D03*
D17*
X162050000Y-91375000D03*
X162050000Y-56625000D03*
D18*
X161425000Y-56700000D03*
D19*
X162050000Y-57450000D03*
X162050000Y-58550000D03*
D18*
X161425000Y-59300000D03*
D17*
X162050000Y-59375000D03*
X97750000Y-43375000D03*
D18*
X98375000Y-43300000D03*
D19*
X97750000Y-42550000D03*
X97750000Y-41450000D03*
D18*
X98375000Y-40700000D03*
D17*
X97750000Y-40625000D03*
X159250000Y-120625000D03*
D18*
X158625000Y-120700000D03*
D19*
X159250000Y-121450000D03*
X159250000Y-122550000D03*
D18*
X158625000Y-123300000D03*
D17*
X159250000Y-123375000D03*
X97750000Y-107375000D03*
D18*
X98375000Y-107300000D03*
D19*
X97750000Y-106550000D03*
X97750000Y-105450000D03*
D18*
X98375000Y-104700000D03*
D17*
X97750000Y-104625000D03*
X94950000Y-91375000D03*
D18*
X95575000Y-91300000D03*
D19*
X94950000Y-90550000D03*
X94950000Y-89450000D03*
D18*
X95575000Y-88700000D03*
D17*
X94950000Y-88625000D03*
X97750000Y-59375000D03*
D18*
X98375000Y-59300000D03*
D19*
X97750000Y-58550000D03*
X97750000Y-57450000D03*
D18*
X98375000Y-56700000D03*
D17*
X97750000Y-56625000D03*
X94950000Y-123375000D03*
D18*
X95575000Y-123300000D03*
D19*
X94950000Y-122550000D03*
X94950000Y-121450000D03*
D18*
X95575000Y-120700000D03*
D17*
X94950000Y-120625000D03*
X94950000Y-43375000D03*
D18*
X95575000Y-43300000D03*
D19*
X94950000Y-42550000D03*
X94950000Y-41450000D03*
D18*
X95575000Y-40700000D03*
D17*
X94950000Y-40625000D03*
X159250000Y-40625000D03*
D18*
X158625000Y-40700000D03*
D19*
X159250000Y-41450000D03*
X159250000Y-42550000D03*
D18*
X158625000Y-43300000D03*
D17*
X159250000Y-43375000D03*
X94950000Y-107375000D03*
D18*
X95575000Y-107300000D03*
D19*
X94950000Y-106550000D03*
X94950000Y-105450000D03*
D18*
X95575000Y-104700000D03*
D17*
X94950000Y-104625000D03*
X162050000Y-72625000D03*
D18*
X161425000Y-72700000D03*
D19*
X162050000Y-73450000D03*
X162050000Y-74550000D03*
D18*
X161425000Y-75300000D03*
D17*
X162050000Y-75375000D03*
X159250000Y-56625000D03*
D18*
X158625000Y-56700000D03*
D19*
X159250000Y-57450000D03*
X159250000Y-58550000D03*
D18*
X158625000Y-59300000D03*
D17*
X159250000Y-59375000D03*
X97750000Y-123375000D03*
D18*
X98375000Y-123300000D03*
D19*
X97750000Y-122550000D03*
X97750000Y-121450000D03*
D18*
X98375000Y-120700000D03*
D17*
X97750000Y-120625000D03*
X159250000Y-88625000D03*
D18*
X158625000Y-88700000D03*
D19*
X159250000Y-89450000D03*
X159250000Y-90550000D03*
D18*
X158625000Y-91300000D03*
D17*
X159250000Y-91375000D03*
X94950000Y-59375000D03*
D18*
X95575000Y-59300000D03*
D19*
X94950000Y-58550000D03*
X94950000Y-57450000D03*
D18*
X95575000Y-56700000D03*
D17*
X94950000Y-56625000D03*
X162050000Y-40625000D03*
D18*
X161425000Y-40700000D03*
D19*
X162050000Y-41450000D03*
X162050000Y-42550000D03*
D18*
X161425000Y-43300000D03*
D17*
X162050000Y-43375000D03*
X97750000Y-75375000D03*
D18*
X98375000Y-75300000D03*
D19*
X97750000Y-74550000D03*
X97750000Y-73450000D03*
D18*
X98375000Y-72700000D03*
D17*
X97750000Y-72625000D03*
X159250000Y-104625000D03*
D18*
X158625000Y-104700000D03*
D19*
X159250000Y-105450000D03*
X159250000Y-106550000D03*
D18*
X158625000Y-107300000D03*
D17*
X159250000Y-107375000D03*
X162050000Y-120625000D03*
D18*
X161425000Y-120700000D03*
D19*
X162050000Y-121450000D03*
X162050000Y-122550000D03*
D18*
X161425000Y-123300000D03*
D17*
X162050000Y-123375000D03*
G36*
X147998828Y-35001172D02*
G01*
X148000000Y-35004000D01*
X148000000Y-36996000D01*
X147998828Y-36998828D01*
X147996000Y-37000000D01*
X140004000Y-37000000D01*
X140001172Y-36998828D01*
X140000000Y-36996000D01*
X140000000Y-35004000D01*
X140001172Y-35001172D01*
X140004000Y-35000000D01*
X147996000Y-35000000D01*
X147998828Y-35001172D01*
G37*
G36*
X136998828Y-35001172D02*
G01*
X137000000Y-35004000D01*
X137000000Y-36996000D01*
X136998828Y-36998828D01*
X136996000Y-37000000D01*
X129587946Y-37000000D01*
X129585118Y-36998828D01*
X129583946Y-36996000D01*
X129585118Y-36993172D01*
X129586911Y-36992136D01*
X129692166Y-36963933D01*
X129805695Y-36898387D01*
X129898387Y-36805695D01*
X129963933Y-36692166D01*
X129997860Y-36565546D01*
X130000000Y-36499996D01*
X130000000Y-35004000D01*
X130001172Y-35001172D01*
X130004000Y-35000000D01*
X136996000Y-35000000D01*
X136998828Y-35001172D01*
G37*
G36*
X126998828Y-35001172D02*
G01*
X127000000Y-35004000D01*
X127000000Y-36499996D01*
X127002139Y-36565546D01*
X127036066Y-36692166D01*
X127101612Y-36805695D01*
X127194304Y-36898387D01*
X127307833Y-36963933D01*
X127413089Y-36992136D01*
X127415518Y-36994000D01*
X127415918Y-36997035D01*
X127414054Y-36999464D01*
X127412054Y-37000000D01*
X120004000Y-37000000D01*
X120001172Y-36998828D01*
X120000000Y-36996000D01*
X120000000Y-35004000D01*
X120001172Y-35001172D01*
X120004000Y-35000000D01*
X126996000Y-35000000D01*
X126998828Y-35001172D01*
G37*
G36*
X116998828Y-35001172D02*
G01*
X117000000Y-35004000D01*
X117000000Y-36996000D01*
X116998828Y-36998828D01*
X116996000Y-37000000D01*
X109004000Y-37000000D01*
X109001172Y-36998828D01*
X109000000Y-36996000D01*
X109000000Y-35004000D01*
X109001172Y-35001172D01*
X109004000Y-35000000D01*
X116996000Y-35000000D01*
X116998828Y-35001172D01*
G37*
G36*
X147998828Y-63001172D02*
G01*
X148000000Y-63004000D01*
X148000000Y-64996000D01*
X147998828Y-64998828D01*
X147996000Y-65000000D01*
X140004000Y-65000000D01*
X140001172Y-64998828D01*
X140000000Y-64996000D01*
X140000000Y-63004000D01*
X140001172Y-63001172D01*
X140004000Y-63000000D01*
X147996000Y-63000000D01*
X147998828Y-63001172D01*
G37*
G36*
X136998828Y-63001172D02*
G01*
X137000000Y-63004000D01*
X137000000Y-64996000D01*
X136998828Y-64998828D01*
X136996000Y-65000000D01*
X130004000Y-65000000D01*
X130001172Y-64998828D01*
X130000000Y-64996000D01*
X130000000Y-63500003D01*
X129997860Y-63434453D01*
X129963933Y-63307833D01*
X129898387Y-63194304D01*
X129805695Y-63101612D01*
X129692166Y-63036066D01*
X129586911Y-63007864D01*
X129584482Y-63006000D01*
X129584082Y-63002965D01*
X129585946Y-63000536D01*
X129587946Y-63000000D01*
X136996000Y-63000000D01*
X136998828Y-63001172D01*
G37*
G36*
X127414882Y-63001172D02*
G01*
X127416054Y-63004000D01*
X127414882Y-63006828D01*
X127413089Y-63007864D01*
X127307833Y-63036066D01*
X127194304Y-63101612D01*
X127101612Y-63194304D01*
X127036066Y-63307833D01*
X127002139Y-63434453D01*
X127000000Y-63500003D01*
X127000000Y-64996000D01*
X126998828Y-64998828D01*
X126996000Y-65000000D01*
X120004000Y-65000000D01*
X120001172Y-64998828D01*
X120000000Y-64996000D01*
X120000000Y-63004000D01*
X120001172Y-63001172D01*
X120004000Y-63000000D01*
X127412054Y-63000000D01*
X127414882Y-63001172D01*
G37*
G36*
X116998828Y-63001172D02*
G01*
X117000000Y-63004000D01*
X117000000Y-64996000D01*
X116998828Y-64998828D01*
X116996000Y-65000000D01*
X109004000Y-65000000D01*
X109001172Y-64998828D01*
X109000000Y-64996000D01*
X109000000Y-63004000D01*
X109001172Y-63001172D01*
X109004000Y-63000000D01*
X116996000Y-63000000D01*
X116998828Y-63001172D01*
G37*
G36*
X147998828Y-51001172D02*
G01*
X148000000Y-51004000D01*
X148000000Y-52996000D01*
X147998828Y-52998828D01*
X147996000Y-53000000D01*
X140004000Y-53000000D01*
X140001172Y-52998828D01*
X140000000Y-52996000D01*
X140000000Y-51004000D01*
X140001172Y-51001172D01*
X140004000Y-51000000D01*
X147996000Y-51000000D01*
X147998828Y-51001172D01*
G37*
G36*
X136998828Y-51001172D02*
G01*
X137000000Y-51004000D01*
X137000000Y-52996000D01*
X136998828Y-52998828D01*
X136996000Y-53000000D01*
X129587946Y-53000000D01*
X129585118Y-52998828D01*
X129583946Y-52996000D01*
X129585118Y-52993172D01*
X129586911Y-52992136D01*
X129692166Y-52963933D01*
X129805695Y-52898387D01*
X129898387Y-52805695D01*
X129963933Y-52692166D01*
X129997860Y-52565546D01*
X130000000Y-52499996D01*
X130000000Y-51004000D01*
X130001172Y-51001172D01*
X130004000Y-51000000D01*
X136996000Y-51000000D01*
X136998828Y-51001172D01*
G37*
G36*
X126998828Y-51001172D02*
G01*
X127000000Y-51004000D01*
X127000000Y-52499996D01*
X127002139Y-52565546D01*
X127036066Y-52692166D01*
X127101612Y-52805695D01*
X127194304Y-52898387D01*
X127307833Y-52963933D01*
X127413089Y-52992136D01*
X127415518Y-52994000D01*
X127415918Y-52997035D01*
X127414054Y-52999464D01*
X127412054Y-53000000D01*
X120004000Y-53000000D01*
X120001172Y-52998828D01*
X120000000Y-52996000D01*
X120000000Y-51004000D01*
X120001172Y-51001172D01*
X120004000Y-51000000D01*
X126996000Y-51000000D01*
X126998828Y-51001172D01*
G37*
G36*
X116998828Y-51001172D02*
G01*
X117000000Y-51004000D01*
X117000000Y-52996000D01*
X116998828Y-52998828D01*
X116996000Y-53000000D01*
X109004000Y-53000000D01*
X109001172Y-52998828D01*
X109000000Y-52996000D01*
X109000000Y-51004000D01*
X109001172Y-51001172D01*
X109004000Y-51000000D01*
X116996000Y-51000000D01*
X116998828Y-51001172D01*
G37*
G36*
X147998828Y-83001172D02*
G01*
X148000000Y-83004000D01*
X148000000Y-84996000D01*
X147998828Y-84998828D01*
X147996000Y-85000000D01*
X140004000Y-85000000D01*
X140001172Y-84998828D01*
X140000000Y-84996000D01*
X140000000Y-83004000D01*
X140001172Y-83001172D01*
X140004000Y-83000000D01*
X147996000Y-83000000D01*
X147998828Y-83001172D01*
G37*
G36*
X136998828Y-83001172D02*
G01*
X137000000Y-83004000D01*
X137000000Y-84996000D01*
X136998828Y-84998828D01*
X136996000Y-85000000D01*
X129587946Y-85000000D01*
X129585118Y-84998828D01*
X129583946Y-84996000D01*
X129585118Y-84993172D01*
X129586911Y-84992136D01*
X129692166Y-84963933D01*
X129805695Y-84898387D01*
X129898387Y-84805695D01*
X129963933Y-84692166D01*
X129997860Y-84565546D01*
X130000000Y-84499996D01*
X130000000Y-83004000D01*
X130001172Y-83001172D01*
X130004000Y-83000000D01*
X136996000Y-83000000D01*
X136998828Y-83001172D01*
G37*
G36*
X126998828Y-83001172D02*
G01*
X127000000Y-83004000D01*
X127000000Y-84499996D01*
X127002139Y-84565546D01*
X127036066Y-84692166D01*
X127101612Y-84805695D01*
X127194304Y-84898387D01*
X127307833Y-84963933D01*
X127413089Y-84992136D01*
X127415518Y-84994000D01*
X127415918Y-84997035D01*
X127414054Y-84999464D01*
X127412054Y-85000000D01*
X120004000Y-85000000D01*
X120001172Y-84998828D01*
X120000000Y-84996000D01*
X120000000Y-83004000D01*
X120001172Y-83001172D01*
X120004000Y-83000000D01*
X126996000Y-83000000D01*
X126998828Y-83001172D01*
G37*
G36*
X116998828Y-83001172D02*
G01*
X117000000Y-83004000D01*
X117000000Y-84996000D01*
X116998828Y-84998828D01*
X116996000Y-85000000D01*
X109004000Y-85000000D01*
X109001172Y-84998828D01*
X109000000Y-84996000D01*
X109000000Y-83004000D01*
X109001172Y-83001172D01*
X109004000Y-83000000D01*
X116996000Y-83000000D01*
X116998828Y-83001172D01*
G37*
G36*
X147998828Y-67001172D02*
G01*
X148000000Y-67004000D01*
X148000000Y-68996000D01*
X147998828Y-68998828D01*
X147996000Y-69000000D01*
X140004000Y-69000000D01*
X140001172Y-68998828D01*
X140000000Y-68996000D01*
X140000000Y-67004000D01*
X140001172Y-67001172D01*
X140004000Y-67000000D01*
X147996000Y-67000000D01*
X147998828Y-67001172D01*
G37*
G36*
X136998828Y-67001172D02*
G01*
X137000000Y-67004000D01*
X137000000Y-68996000D01*
X136998828Y-68998828D01*
X136996000Y-69000000D01*
X129587946Y-69000000D01*
X129585118Y-68998828D01*
X129583946Y-68996000D01*
X129585118Y-68993172D01*
X129586911Y-68992136D01*
X129692166Y-68963933D01*
X129805695Y-68898387D01*
X129898387Y-68805695D01*
X129963933Y-68692166D01*
X129997860Y-68565546D01*
X130000000Y-68499996D01*
X130000000Y-67004000D01*
X130001172Y-67001172D01*
X130004000Y-67000000D01*
X136996000Y-67000000D01*
X136998828Y-67001172D01*
G37*
G36*
X126998828Y-67001172D02*
G01*
X127000000Y-67004000D01*
X127000000Y-68499996D01*
X127002139Y-68565546D01*
X127036066Y-68692166D01*
X127101612Y-68805695D01*
X127194304Y-68898387D01*
X127307833Y-68963933D01*
X127413089Y-68992136D01*
X127415518Y-68994000D01*
X127415918Y-68997035D01*
X127414054Y-68999464D01*
X127412054Y-69000000D01*
X120004000Y-69000000D01*
X120001172Y-68998828D01*
X120000000Y-68996000D01*
X120000000Y-67004000D01*
X120001172Y-67001172D01*
X120004000Y-67000000D01*
X126996000Y-67000000D01*
X126998828Y-67001172D01*
G37*
G36*
X116998828Y-67001172D02*
G01*
X117000000Y-67004000D01*
X117000000Y-68996000D01*
X116998828Y-68998828D01*
X116996000Y-69000000D01*
X109004000Y-69000000D01*
X109001172Y-68998828D01*
X109000000Y-68996000D01*
X109000000Y-67004000D01*
X109001172Y-67001172D01*
X109004000Y-67000000D01*
X116996000Y-67000000D01*
X116998828Y-67001172D01*
G37*
G36*
X147998828Y-95001172D02*
G01*
X148000000Y-95004000D01*
X148000000Y-96996000D01*
X147998828Y-96998828D01*
X147996000Y-97000000D01*
X140004000Y-97000000D01*
X140001172Y-96998828D01*
X140000000Y-96996000D01*
X140000000Y-95004000D01*
X140001172Y-95001172D01*
X140004000Y-95000000D01*
X147996000Y-95000000D01*
X147998828Y-95001172D01*
G37*
G36*
X136998828Y-95001172D02*
G01*
X137000000Y-95004000D01*
X137000000Y-96996000D01*
X136998828Y-96998828D01*
X136996000Y-97000000D01*
X130004000Y-97000000D01*
X130001172Y-96998828D01*
X130000000Y-96996000D01*
X130000000Y-95500003D01*
X129997860Y-95434453D01*
X129963933Y-95307833D01*
X129898387Y-95194304D01*
X129805695Y-95101612D01*
X129692166Y-95036066D01*
X129586911Y-95007864D01*
X129584482Y-95006000D01*
X129584082Y-95002965D01*
X129585946Y-95000536D01*
X129587946Y-95000000D01*
X136996000Y-95000000D01*
X136998828Y-95001172D01*
G37*
G36*
X127414882Y-95001172D02*
G01*
X127416054Y-95004000D01*
X127414882Y-95006828D01*
X127413089Y-95007864D01*
X127307833Y-95036066D01*
X127194304Y-95101612D01*
X127101612Y-95194304D01*
X127036066Y-95307833D01*
X127002139Y-95434453D01*
X127000000Y-95500003D01*
X127000000Y-96996000D01*
X126998828Y-96998828D01*
X126996000Y-97000000D01*
X120004000Y-97000000D01*
X120001172Y-96998828D01*
X120000000Y-96996000D01*
X120000000Y-95004000D01*
X120001172Y-95001172D01*
X120004000Y-95000000D01*
X127412054Y-95000000D01*
X127414882Y-95001172D01*
G37*
G36*
X116998828Y-95001172D02*
G01*
X117000000Y-95004000D01*
X117000000Y-96996000D01*
X116998828Y-96998828D01*
X116996000Y-97000000D01*
X109004000Y-97000000D01*
X109001172Y-96998828D01*
X109000000Y-96996000D01*
X109000000Y-95004000D01*
X109001172Y-95001172D01*
X109004000Y-95000000D01*
X116996000Y-95000000D01*
X116998828Y-95001172D01*
G37*
G36*
X147998828Y-111001172D02*
G01*
X148000000Y-111004000D01*
X148000000Y-112996000D01*
X147998828Y-112998828D01*
X147996000Y-113000000D01*
X140004000Y-113000000D01*
X140001172Y-112998828D01*
X140000000Y-112996000D01*
X140000000Y-111004000D01*
X140001172Y-111001172D01*
X140004000Y-111000000D01*
X147996000Y-111000000D01*
X147998828Y-111001172D01*
G37*
G36*
X136998828Y-111001172D02*
G01*
X137000000Y-111004000D01*
X137000000Y-112996000D01*
X136998828Y-112998828D01*
X136996000Y-113000000D01*
X130004000Y-113000000D01*
X130001172Y-112998828D01*
X130000000Y-112996000D01*
X130000000Y-111500003D01*
X129997860Y-111434453D01*
X129963933Y-111307833D01*
X129898387Y-111194304D01*
X129805695Y-111101612D01*
X129692166Y-111036066D01*
X129586911Y-111007864D01*
X129584482Y-111006000D01*
X129584082Y-111002965D01*
X129585946Y-111000536D01*
X129587946Y-111000000D01*
X136996000Y-111000000D01*
X136998828Y-111001172D01*
G37*
G36*
X127414882Y-111001172D02*
G01*
X127416054Y-111004000D01*
X127414882Y-111006828D01*
X127413089Y-111007864D01*
X127307833Y-111036066D01*
X127194304Y-111101612D01*
X127101612Y-111194304D01*
X127036066Y-111307833D01*
X127002139Y-111434453D01*
X127000000Y-111500003D01*
X127000000Y-112996000D01*
X126998828Y-112998828D01*
X126996000Y-113000000D01*
X120004000Y-113000000D01*
X120001172Y-112998828D01*
X120000000Y-112996000D01*
X120000000Y-111004000D01*
X120001172Y-111001172D01*
X120004000Y-111000000D01*
X127412054Y-111000000D01*
X127414882Y-111001172D01*
G37*
G36*
X116998828Y-111001172D02*
G01*
X117000000Y-111004000D01*
X117000000Y-112996000D01*
X116998828Y-112998828D01*
X116996000Y-113000000D01*
X109004000Y-113000000D01*
X109001172Y-112998828D01*
X109000000Y-112996000D01*
X109000000Y-111004000D01*
X109001172Y-111001172D01*
X109004000Y-111000000D01*
X116996000Y-111000000D01*
X116998828Y-111001172D01*
G37*
G36*
X140998828Y-104001172D02*
G01*
X141000000Y-104004000D01*
X141000000Y-104912054D01*
X140998828Y-104914882D01*
X140996000Y-104916054D01*
X140993172Y-104914882D01*
X140992136Y-104913089D01*
X140963933Y-104807833D01*
X140898387Y-104694304D01*
X140805695Y-104601612D01*
X140692166Y-104536066D01*
X140565546Y-104502139D01*
X140499996Y-104500000D01*
X137000004Y-104500000D01*
X136934453Y-104502139D01*
X136807833Y-104536066D01*
X136694304Y-104601612D01*
X136601612Y-104694304D01*
X136536066Y-104807833D01*
X136507864Y-104913089D01*
X136506000Y-104915518D01*
X136502965Y-104915918D01*
X136500536Y-104914054D01*
X136500000Y-104912054D01*
X136500000Y-104004000D01*
X136501172Y-104001172D01*
X136504000Y-104000000D01*
X140996000Y-104000000D01*
X140998828Y-104001172D01*
G37*
G36*
X136506828Y-107085117D02*
G01*
X136507864Y-107086910D01*
X136536066Y-107192166D01*
X136601612Y-107305695D01*
X136694304Y-107398387D01*
X136807833Y-107463933D01*
X136934453Y-107497860D01*
X137000004Y-107500000D01*
X140499996Y-107500000D01*
X140565546Y-107497860D01*
X140692166Y-107463933D01*
X140805695Y-107398387D01*
X140898387Y-107305695D01*
X140963933Y-107192166D01*
X140992136Y-107086910D01*
X140994000Y-107084481D01*
X140997035Y-107084081D01*
X140999464Y-107085945D01*
X141000000Y-107087945D01*
X141000000Y-107996000D01*
X140998828Y-107998828D01*
X140996000Y-108000000D01*
X136504000Y-108000000D01*
X136501172Y-107998828D01*
X136500000Y-107996000D01*
X136500000Y-107087945D01*
X136501172Y-107085117D01*
X136504000Y-107083945D01*
X136506828Y-107085117D01*
G37*
G36*
X147998828Y-127001172D02*
G01*
X148000000Y-127004000D01*
X148000000Y-128996000D01*
X147998828Y-128998828D01*
X147996000Y-129000000D01*
X140004000Y-129000000D01*
X140001172Y-128998828D01*
X140000000Y-128996000D01*
X140000000Y-127004000D01*
X140001172Y-127001172D01*
X140004000Y-127000000D01*
X147996000Y-127000000D01*
X147998828Y-127001172D01*
G37*
G36*
X136998828Y-127001172D02*
G01*
X137000000Y-127004000D01*
X137000000Y-128996000D01*
X136998828Y-128998828D01*
X136996000Y-129000000D01*
X130004000Y-129000000D01*
X130001172Y-128998828D01*
X130000000Y-128996000D01*
X130000000Y-127500003D01*
X129997860Y-127434453D01*
X129963933Y-127307833D01*
X129898387Y-127194304D01*
X129805695Y-127101612D01*
X129692166Y-127036066D01*
X129586911Y-127007864D01*
X129584482Y-127006000D01*
X129584082Y-127002965D01*
X129585946Y-127000536D01*
X129587946Y-127000000D01*
X136996000Y-127000000D01*
X136998828Y-127001172D01*
G37*
G36*
X127414882Y-127001172D02*
G01*
X127416054Y-127004000D01*
X127414882Y-127006828D01*
X127413089Y-127007864D01*
X127307833Y-127036066D01*
X127194304Y-127101612D01*
X127101612Y-127194304D01*
X127036066Y-127307833D01*
X127002139Y-127434453D01*
X127000000Y-127500003D01*
X127000000Y-128996000D01*
X126998828Y-128998828D01*
X126996000Y-129000000D01*
X120004000Y-129000000D01*
X120001172Y-128998828D01*
X120000000Y-128996000D01*
X120000000Y-127004000D01*
X120001172Y-127001172D01*
X120004000Y-127000000D01*
X127412054Y-127000000D01*
X127414882Y-127001172D01*
G37*
G36*
X116998828Y-127001172D02*
G01*
X117000000Y-127004000D01*
X117000000Y-128996000D01*
X116998828Y-128998828D01*
X116996000Y-129000000D01*
X109004000Y-129000000D01*
X109001172Y-128998828D01*
X109000000Y-128996000D01*
X109000000Y-127004000D01*
X109001172Y-127001172D01*
X109004000Y-127000000D01*
X116996000Y-127000000D01*
X116998828Y-127001172D01*
G37*
G36*
X120498828Y-72001172D02*
G01*
X120500000Y-72004000D01*
X120500000Y-72912054D01*
X120498828Y-72914882D01*
X120496000Y-72916054D01*
X120493172Y-72914882D01*
X120492136Y-72913089D01*
X120463933Y-72807833D01*
X120398387Y-72694304D01*
X120305695Y-72601612D01*
X120192166Y-72536066D01*
X120065546Y-72502139D01*
X119999996Y-72500000D01*
X116500004Y-72500000D01*
X116434453Y-72502139D01*
X116307833Y-72536066D01*
X116194304Y-72601612D01*
X116101612Y-72694304D01*
X116036066Y-72807833D01*
X116007864Y-72913089D01*
X116006000Y-72915518D01*
X116002965Y-72915918D01*
X116000536Y-72914054D01*
X116000000Y-72912054D01*
X116000000Y-72004000D01*
X116001172Y-72001172D01*
X116004000Y-72000000D01*
X120496000Y-72000000D01*
X120498828Y-72001172D01*
G37*
G36*
X116006828Y-75085117D02*
G01*
X116007864Y-75086910D01*
X116036066Y-75192166D01*
X116101612Y-75305695D01*
X116194304Y-75398387D01*
X116307833Y-75463933D01*
X116434453Y-75497860D01*
X116500004Y-75500000D01*
X119999996Y-75500000D01*
X120065546Y-75497860D01*
X120192166Y-75463933D01*
X120305695Y-75398387D01*
X120398387Y-75305695D01*
X120463933Y-75192166D01*
X120492136Y-75086910D01*
X120494000Y-75084481D01*
X120497035Y-75084081D01*
X120499464Y-75085945D01*
X120500000Y-75087945D01*
X120500000Y-75996000D01*
X120498828Y-75998828D01*
X120496000Y-76000000D01*
X116004000Y-76000000D01*
X116001172Y-75998828D01*
X116000000Y-75996000D01*
X116000000Y-75087945D01*
X116001172Y-75085117D01*
X116004000Y-75083945D01*
X116006828Y-75085117D01*
G37*
G36*
X140998828Y-88001172D02*
G01*
X141000000Y-88004000D01*
X141000000Y-88912054D01*
X140998828Y-88914882D01*
X140996000Y-88916054D01*
X140993172Y-88914882D01*
X140992136Y-88913089D01*
X140963933Y-88807833D01*
X140898387Y-88694304D01*
X140805695Y-88601612D01*
X140692166Y-88536066D01*
X140565546Y-88502139D01*
X140499996Y-88500000D01*
X137000004Y-88500000D01*
X136934453Y-88502139D01*
X136807833Y-88536066D01*
X136694304Y-88601612D01*
X136601612Y-88694304D01*
X136536066Y-88807833D01*
X136507864Y-88913089D01*
X136506000Y-88915518D01*
X136502965Y-88915918D01*
X136500536Y-88914054D01*
X136500000Y-88912054D01*
X136500000Y-88004000D01*
X136501172Y-88001172D01*
X136504000Y-88000000D01*
X140996000Y-88000000D01*
X140998828Y-88001172D01*
G37*
G36*
X136506828Y-91085117D02*
G01*
X136507864Y-91086910D01*
X136536066Y-91192166D01*
X136601612Y-91305695D01*
X136694304Y-91398387D01*
X136807833Y-91463933D01*
X136934453Y-91497860D01*
X137000004Y-91500000D01*
X140499996Y-91500000D01*
X140565546Y-91497860D01*
X140692166Y-91463933D01*
X140805695Y-91398387D01*
X140898387Y-91305695D01*
X140963933Y-91192166D01*
X140992136Y-91086910D01*
X140994000Y-91084481D01*
X140997035Y-91084081D01*
X140999464Y-91085945D01*
X141000000Y-91087945D01*
X141000000Y-91996000D01*
X140998828Y-91998828D01*
X140996000Y-92000000D01*
X136504000Y-92000000D01*
X136501172Y-91998828D01*
X136500000Y-91996000D01*
X136500000Y-91087945D01*
X136501172Y-91085117D01*
X136504000Y-91083945D01*
X136506828Y-91085117D01*
G37*
G36*
X147998828Y-115001172D02*
G01*
X148000000Y-115004000D01*
X148000000Y-116996000D01*
X147998828Y-116998828D01*
X147996000Y-117000000D01*
X140004000Y-117000000D01*
X140001172Y-116998828D01*
X140000000Y-116996000D01*
X140000000Y-115004000D01*
X140001172Y-115001172D01*
X140004000Y-115000000D01*
X147996000Y-115000000D01*
X147998828Y-115001172D01*
G37*
G36*
X136998828Y-115001172D02*
G01*
X137000000Y-115004000D01*
X137000000Y-116996000D01*
X136998828Y-116998828D01*
X136996000Y-117000000D01*
X129587946Y-117000000D01*
X129585118Y-116998828D01*
X129583946Y-116996000D01*
X129585118Y-116993172D01*
X129586911Y-116992136D01*
X129692166Y-116963933D01*
X129805695Y-116898387D01*
X129898387Y-116805695D01*
X129963933Y-116692166D01*
X129997860Y-116565546D01*
X130000000Y-116499996D01*
X130000000Y-115004000D01*
X130001172Y-115001172D01*
X130004000Y-115000000D01*
X136996000Y-115000000D01*
X136998828Y-115001172D01*
G37*
G36*
X126998828Y-115001172D02*
G01*
X127000000Y-115004000D01*
X127000000Y-116499996D01*
X127002139Y-116565546D01*
X127036066Y-116692166D01*
X127101612Y-116805695D01*
X127194304Y-116898387D01*
X127307833Y-116963933D01*
X127413089Y-116992136D01*
X127415518Y-116994000D01*
X127415918Y-116997035D01*
X127414054Y-116999464D01*
X127412054Y-117000000D01*
X120004000Y-117000000D01*
X120001172Y-116998828D01*
X120000000Y-116996000D01*
X120000000Y-115004000D01*
X120001172Y-115001172D01*
X120004000Y-115000000D01*
X126996000Y-115000000D01*
X126998828Y-115001172D01*
G37*
G36*
X116998828Y-115001172D02*
G01*
X117000000Y-115004000D01*
X117000000Y-116996000D01*
X116998828Y-116998828D01*
X116996000Y-117000000D01*
X109004000Y-117000000D01*
X109001172Y-116998828D01*
X109000000Y-116996000D01*
X109000000Y-115004000D01*
X109001172Y-115001172D01*
X109004000Y-115000000D01*
X116996000Y-115000000D01*
X116998828Y-115001172D01*
G37*
G36*
X120498828Y-40001172D02*
G01*
X120500000Y-40004000D01*
X120500000Y-40912054D01*
X120498828Y-40914882D01*
X120496000Y-40916054D01*
X120493172Y-40914882D01*
X120492136Y-40913089D01*
X120463933Y-40807833D01*
X120398387Y-40694304D01*
X120305695Y-40601612D01*
X120192166Y-40536066D01*
X120065546Y-40502139D01*
X119999996Y-40500000D01*
X116500004Y-40500000D01*
X116434453Y-40502139D01*
X116307833Y-40536066D01*
X116194304Y-40601612D01*
X116101612Y-40694304D01*
X116036066Y-40807833D01*
X116007864Y-40913089D01*
X116006000Y-40915518D01*
X116002965Y-40915918D01*
X116000536Y-40914054D01*
X116000000Y-40912054D01*
X116000000Y-40004000D01*
X116001172Y-40001172D01*
X116004000Y-40000000D01*
X120496000Y-40000000D01*
X120498828Y-40001172D01*
G37*
G36*
X116006828Y-43085117D02*
G01*
X116007864Y-43086910D01*
X116036066Y-43192166D01*
X116101612Y-43305695D01*
X116194304Y-43398387D01*
X116307833Y-43463933D01*
X116434453Y-43497860D01*
X116500004Y-43500000D01*
X119999996Y-43500000D01*
X120065546Y-43497860D01*
X120192166Y-43463933D01*
X120305695Y-43398387D01*
X120398387Y-43305695D01*
X120463933Y-43192166D01*
X120492136Y-43086910D01*
X120494000Y-43084481D01*
X120497035Y-43084081D01*
X120499464Y-43085945D01*
X120500000Y-43087945D01*
X120500000Y-43996000D01*
X120498828Y-43998828D01*
X120496000Y-44000000D01*
X116004000Y-44000000D01*
X116001172Y-43998828D01*
X116000000Y-43996000D01*
X116000000Y-43087945D01*
X116001172Y-43085117D01*
X116004000Y-43083945D01*
X116006828Y-43085117D01*
G37*
G36*
X147998828Y-47001172D02*
G01*
X148000000Y-47004000D01*
X148000000Y-48996000D01*
X147998828Y-48998828D01*
X147996000Y-49000000D01*
X140004000Y-49000000D01*
X140001172Y-48998828D01*
X140000000Y-48996000D01*
X140000000Y-47004000D01*
X140001172Y-47001172D01*
X140004000Y-47000000D01*
X147996000Y-47000000D01*
X147998828Y-47001172D01*
G37*
G36*
X136998828Y-47001172D02*
G01*
X137000000Y-47004000D01*
X137000000Y-48996000D01*
X136998828Y-48998828D01*
X136996000Y-49000000D01*
X130004000Y-49000000D01*
X130001172Y-48998828D01*
X130000000Y-48996000D01*
X130000000Y-47500003D01*
X129997860Y-47434453D01*
X129963933Y-47307833D01*
X129898387Y-47194304D01*
X129805695Y-47101612D01*
X129692166Y-47036066D01*
X129586911Y-47007864D01*
X129584482Y-47006000D01*
X129584082Y-47002965D01*
X129585946Y-47000536D01*
X129587946Y-47000000D01*
X136996000Y-47000000D01*
X136998828Y-47001172D01*
G37*
G36*
X127414882Y-47001172D02*
G01*
X127416054Y-47004000D01*
X127414882Y-47006828D01*
X127413089Y-47007864D01*
X127307833Y-47036066D01*
X127194304Y-47101612D01*
X127101612Y-47194304D01*
X127036066Y-47307833D01*
X127002139Y-47434453D01*
X127000000Y-47500003D01*
X127000000Y-48996000D01*
X126998828Y-48998828D01*
X126996000Y-49000000D01*
X120004000Y-49000000D01*
X120001172Y-48998828D01*
X120000000Y-48996000D01*
X120000000Y-47004000D01*
X120001172Y-47001172D01*
X120004000Y-47000000D01*
X127412054Y-47000000D01*
X127414882Y-47001172D01*
G37*
G36*
X116998828Y-47001172D02*
G01*
X117000000Y-47004000D01*
X117000000Y-48996000D01*
X116998828Y-48998828D01*
X116996000Y-49000000D01*
X109004000Y-49000000D01*
X109001172Y-48998828D01*
X109000000Y-48996000D01*
X109000000Y-47004000D01*
X109001172Y-47001172D01*
X109004000Y-47000000D01*
X116996000Y-47000000D01*
X116998828Y-47001172D01*
G37*
G36*
X147998828Y-79001172D02*
G01*
X148000000Y-79004000D01*
X148000000Y-80996000D01*
X147998828Y-80998828D01*
X147996000Y-81000000D01*
X140004000Y-81000000D01*
X140001172Y-80998828D01*
X140000000Y-80996000D01*
X140000000Y-79004000D01*
X140001172Y-79001172D01*
X140004000Y-79000000D01*
X147996000Y-79000000D01*
X147998828Y-79001172D01*
G37*
G36*
X136998828Y-79001172D02*
G01*
X137000000Y-79004000D01*
X137000000Y-80996000D01*
X136998828Y-80998828D01*
X136996000Y-81000000D01*
X130004000Y-81000000D01*
X130001172Y-80998828D01*
X130000000Y-80996000D01*
X130000000Y-79500003D01*
X129997860Y-79434453D01*
X129963933Y-79307833D01*
X129898387Y-79194304D01*
X129805695Y-79101612D01*
X129692166Y-79036066D01*
X129586911Y-79007864D01*
X129584482Y-79006000D01*
X129584082Y-79002965D01*
X129585946Y-79000536D01*
X129587946Y-79000000D01*
X136996000Y-79000000D01*
X136998828Y-79001172D01*
G37*
G36*
X127414882Y-79001172D02*
G01*
X127416054Y-79004000D01*
X127414882Y-79006828D01*
X127413089Y-79007864D01*
X127307833Y-79036066D01*
X127194304Y-79101612D01*
X127101612Y-79194304D01*
X127036066Y-79307833D01*
X127002139Y-79434453D01*
X127000000Y-79500003D01*
X127000000Y-80996000D01*
X126998828Y-80998828D01*
X126996000Y-81000000D01*
X120004000Y-81000000D01*
X120001172Y-80998828D01*
X120000000Y-80996000D01*
X120000000Y-79004000D01*
X120001172Y-79001172D01*
X120004000Y-79000000D01*
X127412054Y-79000000D01*
X127414882Y-79001172D01*
G37*
G36*
X116998828Y-79001172D02*
G01*
X117000000Y-79004000D01*
X117000000Y-80996000D01*
X116998828Y-80998828D01*
X116996000Y-81000000D01*
X109004000Y-81000000D01*
X109001172Y-80998828D01*
X109000000Y-80996000D01*
X109000000Y-79004000D01*
X109001172Y-79001172D01*
X109004000Y-79000000D01*
X116996000Y-79000000D01*
X116998828Y-79001172D01*
G37*
G36*
X140998828Y-120001172D02*
G01*
X141000000Y-120004000D01*
X141000000Y-120912054D01*
X140998828Y-120914882D01*
X140996000Y-120916054D01*
X140993172Y-120914882D01*
X140992136Y-120913089D01*
X140963933Y-120807833D01*
X140898387Y-120694304D01*
X140805695Y-120601612D01*
X140692166Y-120536066D01*
X140565546Y-120502139D01*
X140499996Y-120500000D01*
X137000004Y-120500000D01*
X136934453Y-120502139D01*
X136807833Y-120536066D01*
X136694304Y-120601612D01*
X136601612Y-120694304D01*
X136536066Y-120807833D01*
X136507864Y-120913089D01*
X136506000Y-120915518D01*
X136502965Y-120915918D01*
X136500536Y-120914054D01*
X136500000Y-120912054D01*
X136500000Y-120004000D01*
X136501172Y-120001172D01*
X136504000Y-120000000D01*
X140996000Y-120000000D01*
X140998828Y-120001172D01*
G37*
G36*
X136506828Y-123085117D02*
G01*
X136507864Y-123086910D01*
X136536066Y-123192166D01*
X136601612Y-123305695D01*
X136694304Y-123398387D01*
X136807833Y-123463933D01*
X136934453Y-123497860D01*
X137000004Y-123500000D01*
X140499996Y-123500000D01*
X140565546Y-123497860D01*
X140692166Y-123463933D01*
X140805695Y-123398387D01*
X140898387Y-123305695D01*
X140963933Y-123192166D01*
X140992136Y-123086910D01*
X140994000Y-123084481D01*
X140997035Y-123084081D01*
X140999464Y-123085945D01*
X141000000Y-123087945D01*
X141000000Y-123996000D01*
X140998828Y-123998828D01*
X140996000Y-124000000D01*
X136504000Y-124000000D01*
X136501172Y-123998828D01*
X136500000Y-123996000D01*
X136500000Y-123087945D01*
X136501172Y-123085117D01*
X136504000Y-123083945D01*
X136506828Y-123085117D01*
G37*
G36*
X147998828Y-99001172D02*
G01*
X148000000Y-99004000D01*
X148000000Y-100996000D01*
X147998828Y-100998828D01*
X147996000Y-101000000D01*
X140004000Y-101000000D01*
X140001172Y-100998828D01*
X140000000Y-100996000D01*
X140000000Y-99004000D01*
X140001172Y-99001172D01*
X140004000Y-99000000D01*
X147996000Y-99000000D01*
X147998828Y-99001172D01*
G37*
G36*
X136998828Y-99001172D02*
G01*
X137000000Y-99004000D01*
X137000000Y-100996000D01*
X136998828Y-100998828D01*
X136996000Y-101000000D01*
X129587946Y-101000000D01*
X129585118Y-100998828D01*
X129583946Y-100996000D01*
X129585118Y-100993172D01*
X129586911Y-100992136D01*
X129692166Y-100963933D01*
X129805695Y-100898387D01*
X129898387Y-100805695D01*
X129963933Y-100692166D01*
X129997860Y-100565546D01*
X130000000Y-100499996D01*
X130000000Y-99004000D01*
X130001172Y-99001172D01*
X130004000Y-99000000D01*
X136996000Y-99000000D01*
X136998828Y-99001172D01*
G37*
G36*
X126998828Y-99001172D02*
G01*
X127000000Y-99004000D01*
X127000000Y-100499996D01*
X127002139Y-100565546D01*
X127036066Y-100692166D01*
X127101612Y-100805695D01*
X127194304Y-100898387D01*
X127307833Y-100963933D01*
X127413089Y-100992136D01*
X127415518Y-100994000D01*
X127415918Y-100997035D01*
X127414054Y-100999464D01*
X127412054Y-101000000D01*
X120004000Y-101000000D01*
X120001172Y-100998828D01*
X120000000Y-100996000D01*
X120000000Y-99004000D01*
X120001172Y-99001172D01*
X120004000Y-99000000D01*
X126996000Y-99000000D01*
X126998828Y-99001172D01*
G37*
G36*
X116998828Y-99001172D02*
G01*
X117000000Y-99004000D01*
X117000000Y-100996000D01*
X116998828Y-100998828D01*
X116996000Y-101000000D01*
X109004000Y-101000000D01*
X109001172Y-100998828D01*
X109000000Y-100996000D01*
X109000000Y-99004000D01*
X109001172Y-99001172D01*
X109004000Y-99000000D01*
X116996000Y-99000000D01*
X116998828Y-99001172D01*
G37*
G36*
X120498828Y-56001172D02*
G01*
X120500000Y-56004000D01*
X120500000Y-56912054D01*
X120498828Y-56914882D01*
X120496000Y-56916054D01*
X120493172Y-56914882D01*
X120492136Y-56913089D01*
X120463933Y-56807833D01*
X120398387Y-56694304D01*
X120305695Y-56601612D01*
X120192166Y-56536066D01*
X120065546Y-56502139D01*
X119999996Y-56500000D01*
X116500004Y-56500000D01*
X116434453Y-56502139D01*
X116307833Y-56536066D01*
X116194304Y-56601612D01*
X116101612Y-56694304D01*
X116036066Y-56807833D01*
X116007864Y-56913089D01*
X116006000Y-56915518D01*
X116002965Y-56915918D01*
X116000536Y-56914054D01*
X116000000Y-56912054D01*
X116000000Y-56004000D01*
X116001172Y-56001172D01*
X116004000Y-56000000D01*
X120496000Y-56000000D01*
X120498828Y-56001172D01*
G37*
G36*
X116006828Y-59085117D02*
G01*
X116007864Y-59086910D01*
X116036066Y-59192166D01*
X116101612Y-59305695D01*
X116194304Y-59398387D01*
X116307833Y-59463933D01*
X116434453Y-59497860D01*
X116500004Y-59500000D01*
X119999996Y-59500000D01*
X120065546Y-59497860D01*
X120192166Y-59463933D01*
X120305695Y-59398387D01*
X120398387Y-59305695D01*
X120463933Y-59192166D01*
X120492136Y-59086910D01*
X120494000Y-59084481D01*
X120497035Y-59084081D01*
X120499464Y-59085945D01*
X120500000Y-59087945D01*
X120500000Y-59996000D01*
X120498828Y-59998828D01*
X120496000Y-60000000D01*
X116004000Y-60000000D01*
X116001172Y-59998828D01*
X116000000Y-59996000D01*
X116000000Y-59087945D01*
X116001172Y-59085117D01*
X116004000Y-59083945D01*
X116006828Y-59085117D01*
G37*
M02*
