M48
; DRILL file {KiCad 9.0.8} date 2026-07-16T19:40:56+0900
; FORMAT={-:-/ absolute / metric / decimal}
; #@! TF.CreationDate,2026-07-16T19:40:56+09:00
; #@! TF.GenerationSoftware,Kicad,Pcbnew,9.0.8
; #@! TF.FileFunction,Plated,1,2,PTH
FMAT,2
METRIC
; #@! TA.AperFunction,Plated,PTH,ViaDrill
T1C0.500
; #@! TA.AperFunction,Plated,PTH,ViaDrill
T2C0.700
; #@! TA.AperFunction,Plated,PTH,ComponentDrill
T3C0.800
%
G90
G05
T1
X112.75Y-42.25
X112.75Y-47.25
X112.75Y-52.75
X112.75Y-57.75
X112.75Y-63.25
X112.75Y-68.25
X112.75Y-73.75
X112.75Y-78.75
X112.75Y-84.25
X112.75Y-89.25
X183.25Y-94.75
X183.25Y-99.75
X183.25Y-105.25
X183.25Y-110.25
X183.25Y-115.75
X183.25Y-120.75
X183.25Y-126.25
X183.25Y-131.25
X183.25Y-136.75
X183.25Y-141.75
T2
X102.0Y-48.25
X102.0Y-58.75
X102.0Y-69.25
X102.0Y-79.75
X102.0Y-90.25
X103.5Y-44.25
X103.5Y-54.75
X103.5Y-65.25
X103.5Y-75.75
X103.5Y-86.25
X106.5Y-94.75
X106.5Y-105.25
X106.5Y-115.75
X106.5Y-126.25
X106.5Y-136.75
X107.25Y-97.5
X107.25Y-108.0
X107.25Y-118.5
X107.25Y-129.0
X107.25Y-139.5
X113.5Y-94.75
X113.5Y-105.25
X113.5Y-115.75
X113.5Y-126.25
X113.5Y-136.75
X125.0Y-94.75
X125.0Y-105.25
X125.0Y-115.75
X125.0Y-126.25
X125.0Y-136.75
X127.75Y-44.75
X127.75Y-55.25
X127.75Y-65.75
X127.75Y-76.25
X127.75Y-86.75
X133.25Y-44.75
X133.25Y-55.25
X133.25Y-65.75
X133.25Y-76.25
X133.25Y-86.75
X136.5Y-47.25
X136.5Y-57.75
X136.5Y-68.25
X136.5Y-78.75
X136.5Y-89.25
X136.5Y-94.75
X136.5Y-105.25
X136.5Y-115.75
X136.5Y-126.25
X136.5Y-136.75
X148.0Y-47.25
X148.0Y-57.75
X148.0Y-68.25
X148.0Y-78.75
X148.0Y-89.25
X148.0Y-94.75
X148.0Y-105.25
X148.0Y-115.75
X148.0Y-126.25
X148.0Y-136.75
X159.5Y-47.25
X159.5Y-57.75
X159.5Y-68.25
X159.5Y-78.75
X159.5Y-89.25
X159.5Y-94.75
X159.5Y-105.25
X159.5Y-115.75
X159.5Y-126.25
X159.5Y-136.75
X162.75Y-97.25
X162.75Y-107.75
X162.75Y-118.25
X162.75Y-128.75
X162.75Y-139.25
X168.25Y-97.25
X168.25Y-107.75
X168.25Y-118.25
X168.25Y-128.75
X168.25Y-139.25
X171.0Y-47.25
X171.0Y-57.75
X171.0Y-68.25
X171.0Y-78.75
X171.0Y-89.25
X182.5Y-47.25
X182.5Y-57.75
X182.5Y-68.25
X182.5Y-78.75
X182.5Y-89.25
X188.75Y-44.5
X188.75Y-55.0
X188.75Y-65.5
X188.75Y-76.0
X188.75Y-86.5
X189.5Y-47.25
X189.5Y-57.75
X189.5Y-68.25
X189.5Y-78.75
X189.5Y-89.25
X192.5Y-97.75
X192.5Y-108.25
X192.5Y-118.75
X192.5Y-129.25
X192.5Y-139.75
X194.0Y-93.75
X194.0Y-104.25
X194.0Y-114.75
X194.0Y-125.25
X194.0Y-135.75
T3
X107.25Y-42.25
X107.25Y-47.25
X107.25Y-52.75
X107.25Y-57.75
X107.25Y-63.25
X107.25Y-68.25
X107.25Y-73.75
X107.25Y-78.75
X107.25Y-84.25
X107.25Y-89.25
X188.75Y-94.75
X188.75Y-99.75
X188.75Y-105.25
X188.75Y-110.25
X188.75Y-115.75
X188.75Y-120.75
X188.75Y-126.25
X188.75Y-131.25
X188.75Y-136.75
X188.75Y-141.75
M30
