G04 #@! TF.GenerationSoftware,KiCad,Pcbnew,9.0.8*
G04 #@! TF.CreationDate,2026-07-16T19:40:56+09:00*
G04 #@! TF.ProjectId,roomlight-dc40-panelized,726f6f6d-6c69-4676-9874-2d646334302d,rev?*
G04 #@! TF.SameCoordinates,Original*
G04 #@! TF.FileFunction,Soldermask,Bot*
G04 #@! TF.FilePolarity,Negative*
%FSLAX46Y46*%
G04 Gerber Fmt 4.6, Leading zero omitted, Abs format (unit mm)*
G04 Created by KiCad (PCBNEW 9.0.8) date 2026-07-16 19:40:56*
%MOMM*%
%LPD*%
G01*
G04 APERTURE LIST*
%ADD10R,1.300000X1.300000*%
%ADD11C,2.000000*%
%ADD12R,2.500000X1.200000*%
G04 APERTURE END LIST*
D10*
X107250000Y-73750000D03*
D11*
X97500000Y-55250000D03*
X198500000Y-118250000D03*
D10*
X188750000Y-120750000D03*
X107250000Y-57750000D03*
D11*
X97500000Y-97250000D03*
D10*
X188750000Y-110250000D03*
D11*
X198500000Y-44750000D03*
D10*
X188750000Y-131250000D03*
D11*
X97500000Y-44750000D03*
X198500000Y-128750000D03*
X198500000Y-65750000D03*
D10*
X188750000Y-141750000D03*
D11*
X198500000Y-97250000D03*
D10*
X107250000Y-84250000D03*
X188750000Y-99750000D03*
D11*
X198500000Y-139250000D03*
X198500000Y-55250000D03*
X97500000Y-118250000D03*
D10*
X188750000Y-94750000D03*
X107250000Y-47250000D03*
X188750000Y-126250000D03*
D11*
X97500000Y-76250000D03*
D10*
X107250000Y-52750000D03*
D11*
X97500000Y-128750000D03*
X198500000Y-107750000D03*
D10*
X107250000Y-89250000D03*
X188750000Y-105250000D03*
D11*
X97500000Y-86750000D03*
X97500000Y-107750000D03*
D10*
X107250000Y-63250000D03*
X107250000Y-42250000D03*
D11*
X198500000Y-86750000D03*
X198500000Y-76250000D03*
D10*
X188750000Y-136750000D03*
X107250000Y-68250000D03*
X188750000Y-115750000D03*
D11*
X97500000Y-65750000D03*
X97500000Y-139250000D03*
D10*
X107250000Y-78750000D03*
D12*
X101500000Y-105750000D03*
X101500000Y-107750000D03*
X101500000Y-109750000D03*
X101500000Y-84750000D03*
X101500000Y-86750000D03*
X101500000Y-88750000D03*
X194500000Y-109750000D03*
X194500000Y-107750000D03*
X194500000Y-105750000D03*
X101500000Y-126750000D03*
X101500000Y-128750000D03*
X101500000Y-130750000D03*
X101500000Y-42750000D03*
X101500000Y-44750000D03*
X101500000Y-46750000D03*
X101500000Y-116250000D03*
X101500000Y-118250000D03*
X101500000Y-120250000D03*
X194500000Y-88750000D03*
X194500000Y-86750000D03*
X194500000Y-84750000D03*
X101500000Y-63750000D03*
X101500000Y-65750000D03*
X101500000Y-67750000D03*
X194500000Y-99250000D03*
X194500000Y-97250000D03*
X194500000Y-95250000D03*
X101500000Y-53250000D03*
X101500000Y-55250000D03*
X101500000Y-57250000D03*
X194500000Y-141250000D03*
X194500000Y-139250000D03*
X194500000Y-137250000D03*
X194500000Y-46750000D03*
X194500000Y-44750000D03*
X194500000Y-42750000D03*
X194500000Y-57250000D03*
X194500000Y-55250000D03*
X194500000Y-53250000D03*
X194500000Y-78250000D03*
X194500000Y-76250000D03*
X194500000Y-74250000D03*
X194500000Y-120250000D03*
X194500000Y-118250000D03*
X194500000Y-116250000D03*
X101500000Y-137250000D03*
X101500000Y-139250000D03*
X101500000Y-141250000D03*
X194500000Y-130750000D03*
X194500000Y-128750000D03*
X194500000Y-126750000D03*
X101500000Y-95250000D03*
X101500000Y-97250000D03*
X101500000Y-99250000D03*
X194500000Y-67750000D03*
X194500000Y-65750000D03*
X194500000Y-63750000D03*
X101500000Y-74250000D03*
X101500000Y-76250000D03*
X101500000Y-78250000D03*
G36*
X100250500Y-73649793D02*
G01*
X100250500Y-74850207D01*
X100250207Y-74850500D01*
X99999793Y-74850500D01*
X99999500Y-74850207D01*
X99999500Y-73649793D01*
X99999793Y-73649500D01*
X100250207Y-73649500D01*
X100250500Y-73649793D01*
G37*
G36*
X196000500Y-56649793D02*
G01*
X196000500Y-57850207D01*
X196000207Y-57850500D01*
X195749793Y-57850500D01*
X195749500Y-57850207D01*
X195749500Y-56649793D01*
X195749793Y-56649500D01*
X196000207Y-56649500D01*
X196000500Y-56649793D01*
G37*
G36*
X100250500Y-117649793D02*
G01*
X100250500Y-118850207D01*
X100250207Y-118850500D01*
X99999793Y-118850500D01*
X99999500Y-118850207D01*
X99999500Y-117649793D01*
X99999793Y-117649500D01*
X100250207Y-117649500D01*
X100250500Y-117649793D01*
G37*
G36*
X100250500Y-42149793D02*
G01*
X100250500Y-43350207D01*
X100250207Y-43350500D01*
X99999793Y-43350500D01*
X99999500Y-43350207D01*
X99999500Y-42149793D01*
X99999793Y-42149500D01*
X100250207Y-42149500D01*
X100250500Y-42149793D01*
G37*
G36*
X100250500Y-136649793D02*
G01*
X100250500Y-137850207D01*
X100250207Y-137850500D01*
X99999793Y-137850500D01*
X99999500Y-137850207D01*
X99999500Y-136649793D01*
X99999793Y-136649500D01*
X100250207Y-136649500D01*
X100250500Y-136649793D01*
G37*
G36*
X196000500Y-46149793D02*
G01*
X196000500Y-47350207D01*
X196000207Y-47350500D01*
X195749793Y-47350500D01*
X195749500Y-47350207D01*
X195749500Y-46149793D01*
X195749793Y-46149500D01*
X196000207Y-46149500D01*
X196000500Y-46149793D01*
G37*
G36*
X196000500Y-77649793D02*
G01*
X196000500Y-78850207D01*
X196000207Y-78850500D01*
X195749793Y-78850500D01*
X195749500Y-78850207D01*
X195749500Y-77649793D01*
X195749793Y-77649500D01*
X196000207Y-77649500D01*
X196000500Y-77649793D01*
G37*
G36*
X196000500Y-73649793D02*
G01*
X196000500Y-74850207D01*
X196000207Y-74850500D01*
X195749793Y-74850500D01*
X195749500Y-74850207D01*
X195749500Y-73649793D01*
X195749793Y-73649500D01*
X196000207Y-73649500D01*
X196000500Y-73649793D01*
G37*
G36*
X196000500Y-84149793D02*
G01*
X196000500Y-85350207D01*
X196000207Y-85350500D01*
X195749793Y-85350500D01*
X195749500Y-85350207D01*
X195749500Y-84149793D01*
X195749793Y-84149500D01*
X196000207Y-84149500D01*
X196000500Y-84149793D01*
G37*
G36*
X196000500Y-42149793D02*
G01*
X196000500Y-43350207D01*
X196000207Y-43350500D01*
X195749793Y-43350500D01*
X195749500Y-43350207D01*
X195749500Y-42149793D01*
X195749793Y-42149500D01*
X196000207Y-42149500D01*
X196000500Y-42149793D01*
G37*
G36*
X196000500Y-136649793D02*
G01*
X196000500Y-137850207D01*
X196000207Y-137850500D01*
X195749793Y-137850500D01*
X195749500Y-137850207D01*
X195749500Y-136649793D01*
X195749793Y-136649500D01*
X196000207Y-136649500D01*
X196000500Y-136649793D01*
G37*
G36*
X100250500Y-67149793D02*
G01*
X100250500Y-68350207D01*
X100250207Y-68350500D01*
X99999793Y-68350500D01*
X99999500Y-68350207D01*
X99999500Y-67149793D01*
X99999793Y-67149500D01*
X100250207Y-67149500D01*
X100250500Y-67149793D01*
G37*
G36*
X100250500Y-88149793D02*
G01*
X100250500Y-89350207D01*
X100250207Y-89350500D01*
X99999793Y-89350500D01*
X99999500Y-89350207D01*
X99999500Y-88149793D01*
X99999793Y-88149500D01*
X100250207Y-88149500D01*
X100250500Y-88149793D01*
G37*
G36*
X100250500Y-128149793D02*
G01*
X100250500Y-129350207D01*
X100250207Y-129350500D01*
X99999793Y-129350500D01*
X99999500Y-129350207D01*
X99999500Y-128149793D01*
X99999793Y-128149500D01*
X100250207Y-128149500D01*
X100250500Y-128149793D01*
G37*
G36*
X196000500Y-128149793D02*
G01*
X196000500Y-129350207D01*
X196000207Y-129350500D01*
X195749793Y-129350500D01*
X195749500Y-129350207D01*
X195749500Y-128149793D01*
X195749793Y-128149500D01*
X196000207Y-128149500D01*
X196000500Y-128149793D01*
G37*
G36*
X100250500Y-84149793D02*
G01*
X100250500Y-85350207D01*
X100250207Y-85350500D01*
X99999793Y-85350500D01*
X99999500Y-85350207D01*
X99999500Y-84149793D01*
X99999793Y-84149500D01*
X100250207Y-84149500D01*
X100250500Y-84149793D01*
G37*
G36*
X100250500Y-75649793D02*
G01*
X100250500Y-76850207D01*
X100250207Y-76850500D01*
X99999793Y-76850500D01*
X99999500Y-76850207D01*
X99999500Y-75649793D01*
X99999793Y-75649500D01*
X100250207Y-75649500D01*
X100250500Y-75649793D01*
G37*
G36*
X100250500Y-115649793D02*
G01*
X100250500Y-116850207D01*
X100250207Y-116850500D01*
X99999793Y-116850500D01*
X99999500Y-116850207D01*
X99999500Y-115649793D01*
X99999793Y-115649500D01*
X100250207Y-115649500D01*
X100250500Y-115649793D01*
G37*
G36*
X100250500Y-46149793D02*
G01*
X100250500Y-47350207D01*
X100250207Y-47350500D01*
X99999793Y-47350500D01*
X99999500Y-47350207D01*
X99999500Y-46149793D01*
X99999793Y-46149500D01*
X100250207Y-46149500D01*
X100250500Y-46149793D01*
G37*
G36*
X196000500Y-126149793D02*
G01*
X196000500Y-127350207D01*
X196000207Y-127350500D01*
X195749793Y-127350500D01*
X195749500Y-127350207D01*
X195749500Y-126149793D01*
X195749793Y-126149500D01*
X196000207Y-126149500D01*
X196000500Y-126149793D01*
G37*
G36*
X100250500Y-63149793D02*
G01*
X100250500Y-64350207D01*
X100250207Y-64350500D01*
X99999793Y-64350500D01*
X99999500Y-64350207D01*
X99999500Y-63149793D01*
X99999793Y-63149500D01*
X100250207Y-63149500D01*
X100250500Y-63149793D01*
G37*
G36*
X100250500Y-130149793D02*
G01*
X100250500Y-131350207D01*
X100250207Y-131350500D01*
X99999793Y-131350500D01*
X99999500Y-131350207D01*
X99999500Y-130149793D01*
X99999793Y-130149500D01*
X100250207Y-130149500D01*
X100250500Y-130149793D01*
G37*
G36*
X196000500Y-130149793D02*
G01*
X196000500Y-131350207D01*
X196000207Y-131350500D01*
X195749793Y-131350500D01*
X195749500Y-131350207D01*
X195749500Y-130149793D01*
X195749793Y-130149500D01*
X196000207Y-130149500D01*
X196000500Y-130149793D01*
G37*
G36*
X196000500Y-44149793D02*
G01*
X196000500Y-45350207D01*
X196000207Y-45350500D01*
X195749793Y-45350500D01*
X195749500Y-45350207D01*
X195749500Y-44149793D01*
X195749793Y-44149500D01*
X196000207Y-44149500D01*
X196000500Y-44149793D01*
G37*
G36*
X196000500Y-119649793D02*
G01*
X196000500Y-120850207D01*
X196000207Y-120850500D01*
X195749793Y-120850500D01*
X195749500Y-120850207D01*
X195749500Y-119649793D01*
X195749793Y-119649500D01*
X196000207Y-119649500D01*
X196000500Y-119649793D01*
G37*
G36*
X100250500Y-140649793D02*
G01*
X100250500Y-141850207D01*
X100250207Y-141850500D01*
X99999793Y-141850500D01*
X99999500Y-141850207D01*
X99999500Y-140649793D01*
X99999793Y-140649500D01*
X100250207Y-140649500D01*
X100250500Y-140649793D01*
G37*
G36*
X196000500Y-86149793D02*
G01*
X196000500Y-87350207D01*
X196000207Y-87350500D01*
X195749793Y-87350500D01*
X195749500Y-87350207D01*
X195749500Y-86149793D01*
X195749793Y-86149500D01*
X196000207Y-86149500D01*
X196000500Y-86149793D01*
G37*
G36*
X196000500Y-88149793D02*
G01*
X196000500Y-89350207D01*
X196000207Y-89350500D01*
X195749793Y-89350500D01*
X195749500Y-89350207D01*
X195749500Y-88149793D01*
X195749793Y-88149500D01*
X196000207Y-88149500D01*
X196000500Y-88149793D01*
G37*
G36*
X100250500Y-138649793D02*
G01*
X100250500Y-139850207D01*
X100250207Y-139850500D01*
X99999793Y-139850500D01*
X99999500Y-139850207D01*
X99999500Y-138649793D01*
X99999793Y-138649500D01*
X100250207Y-138649500D01*
X100250500Y-138649793D01*
G37*
G36*
X196000500Y-138649793D02*
G01*
X196000500Y-139850207D01*
X196000207Y-139850500D01*
X195749793Y-139850500D01*
X195749500Y-139850207D01*
X195749500Y-138649793D01*
X195749793Y-138649500D01*
X196000207Y-138649500D01*
X196000500Y-138649793D01*
G37*
G36*
X100250500Y-54649793D02*
G01*
X100250500Y-55850207D01*
X100250207Y-55850500D01*
X99999793Y-55850500D01*
X99999500Y-55850207D01*
X99999500Y-54649793D01*
X99999793Y-54649500D01*
X100250207Y-54649500D01*
X100250500Y-54649793D01*
G37*
G36*
X196000500Y-63149793D02*
G01*
X196000500Y-64350207D01*
X196000207Y-64350500D01*
X195749793Y-64350500D01*
X195749500Y-64350207D01*
X195749500Y-63149793D01*
X195749793Y-63149500D01*
X196000207Y-63149500D01*
X196000500Y-63149793D01*
G37*
G36*
X196000500Y-105149793D02*
G01*
X196000500Y-106350207D01*
X196000207Y-106350500D01*
X195749793Y-106350500D01*
X195749500Y-106350207D01*
X195749500Y-105149793D01*
X195749793Y-105149500D01*
X196000207Y-105149500D01*
X196000500Y-105149793D01*
G37*
G36*
X196000500Y-140649793D02*
G01*
X196000500Y-141850207D01*
X196000207Y-141850500D01*
X195749793Y-141850500D01*
X195749500Y-141850207D01*
X195749500Y-140649793D01*
X195749793Y-140649500D01*
X196000207Y-140649500D01*
X196000500Y-140649793D01*
G37*
G36*
X196000500Y-109149793D02*
G01*
X196000500Y-110350207D01*
X196000207Y-110350500D01*
X195749793Y-110350500D01*
X195749500Y-110350207D01*
X195749500Y-109149793D01*
X195749793Y-109149500D01*
X196000207Y-109149500D01*
X196000500Y-109149793D01*
G37*
G36*
X100250500Y-105149793D02*
G01*
X100250500Y-106350207D01*
X100250207Y-106350500D01*
X99999793Y-106350500D01*
X99999500Y-106350207D01*
X99999500Y-105149793D01*
X99999793Y-105149500D01*
X100250207Y-105149500D01*
X100250500Y-105149793D01*
G37*
G36*
X196000500Y-75649793D02*
G01*
X196000500Y-76850207D01*
X196000207Y-76850500D01*
X195749793Y-76850500D01*
X195749500Y-76850207D01*
X195749500Y-75649793D01*
X195749793Y-75649500D01*
X196000207Y-75649500D01*
X196000500Y-75649793D01*
G37*
G36*
X196000500Y-67149793D02*
G01*
X196000500Y-68350207D01*
X196000207Y-68350500D01*
X195749793Y-68350500D01*
X195749500Y-68350207D01*
X195749500Y-67149793D01*
X195749793Y-67149500D01*
X196000207Y-67149500D01*
X196000500Y-67149793D01*
G37*
G36*
X100250500Y-56649793D02*
G01*
X100250500Y-57850207D01*
X100250207Y-57850500D01*
X99999793Y-57850500D01*
X99999500Y-57850207D01*
X99999500Y-56649793D01*
X99999793Y-56649500D01*
X100250207Y-56649500D01*
X100250500Y-56649793D01*
G37*
G36*
X100250500Y-107149793D02*
G01*
X100250500Y-108350207D01*
X100250207Y-108350500D01*
X99999793Y-108350500D01*
X99999500Y-108350207D01*
X99999500Y-107149793D01*
X99999793Y-107149500D01*
X100250207Y-107149500D01*
X100250500Y-107149793D01*
G37*
G36*
X196000500Y-98649793D02*
G01*
X196000500Y-99850207D01*
X196000207Y-99850500D01*
X195749793Y-99850500D01*
X195749500Y-99850207D01*
X195749500Y-98649793D01*
X195749793Y-98649500D01*
X196000207Y-98649500D01*
X196000500Y-98649793D01*
G37*
G36*
X100250500Y-94649793D02*
G01*
X100250500Y-95850207D01*
X100250207Y-95850500D01*
X99999793Y-95850500D01*
X99999500Y-95850207D01*
X99999500Y-94649793D01*
X99999793Y-94649500D01*
X100250207Y-94649500D01*
X100250500Y-94649793D01*
G37*
G36*
X196000500Y-107149793D02*
G01*
X196000500Y-108350207D01*
X196000207Y-108350500D01*
X195749793Y-108350500D01*
X195749500Y-108350207D01*
X195749500Y-107149793D01*
X195749793Y-107149500D01*
X196000207Y-107149500D01*
X196000500Y-107149793D01*
G37*
G36*
X100250500Y-119649793D02*
G01*
X100250500Y-120850207D01*
X100250207Y-120850500D01*
X99999793Y-120850500D01*
X99999500Y-120850207D01*
X99999500Y-119649793D01*
X99999793Y-119649500D01*
X100250207Y-119649500D01*
X100250500Y-119649793D01*
G37*
G36*
X100250500Y-126149793D02*
G01*
X100250500Y-127350207D01*
X100250207Y-127350500D01*
X99999793Y-127350500D01*
X99999500Y-127350207D01*
X99999500Y-126149793D01*
X99999793Y-126149500D01*
X100250207Y-126149500D01*
X100250500Y-126149793D01*
G37*
G36*
X196000500Y-117649793D02*
G01*
X196000500Y-118850207D01*
X196000207Y-118850500D01*
X195749793Y-118850500D01*
X195749500Y-118850207D01*
X195749500Y-117649793D01*
X195749793Y-117649500D01*
X196000207Y-117649500D01*
X196000500Y-117649793D01*
G37*
G36*
X100250500Y-109149793D02*
G01*
X100250500Y-110350207D01*
X100250207Y-110350500D01*
X99999793Y-110350500D01*
X99999500Y-110350207D01*
X99999500Y-109149793D01*
X99999793Y-109149500D01*
X100250207Y-109149500D01*
X100250500Y-109149793D01*
G37*
G36*
X196000500Y-94649793D02*
G01*
X196000500Y-95850207D01*
X196000207Y-95850500D01*
X195749793Y-95850500D01*
X195749500Y-95850207D01*
X195749500Y-94649793D01*
X195749793Y-94649500D01*
X196000207Y-94649500D01*
X196000500Y-94649793D01*
G37*
G36*
X100250500Y-86149793D02*
G01*
X100250500Y-87350207D01*
X100250207Y-87350500D01*
X99999793Y-87350500D01*
X99999500Y-87350207D01*
X99999500Y-86149793D01*
X99999793Y-86149500D01*
X100250207Y-86149500D01*
X100250500Y-86149793D01*
G37*
G36*
X196000500Y-54649793D02*
G01*
X196000500Y-55850207D01*
X196000207Y-55850500D01*
X195749793Y-55850500D01*
X195749500Y-55850207D01*
X195749500Y-54649793D01*
X195749793Y-54649500D01*
X196000207Y-54649500D01*
X196000500Y-54649793D01*
G37*
G36*
X196000500Y-65149793D02*
G01*
X196000500Y-66350207D01*
X196000207Y-66350500D01*
X195749793Y-66350500D01*
X195749500Y-66350207D01*
X195749500Y-65149793D01*
X195749793Y-65149500D01*
X196000207Y-65149500D01*
X196000500Y-65149793D01*
G37*
G36*
X100250500Y-65149793D02*
G01*
X100250500Y-66350207D01*
X100250207Y-66350500D01*
X99999793Y-66350500D01*
X99999500Y-66350207D01*
X99999500Y-65149793D01*
X99999793Y-65149500D01*
X100250207Y-65149500D01*
X100250500Y-65149793D01*
G37*
G36*
X100250500Y-96649793D02*
G01*
X100250500Y-97850207D01*
X100250207Y-97850500D01*
X99999793Y-97850500D01*
X99999500Y-97850207D01*
X99999500Y-96649793D01*
X99999793Y-96649500D01*
X100250207Y-96649500D01*
X100250500Y-96649793D01*
G37*
G36*
X100250500Y-44149793D02*
G01*
X100250500Y-45350207D01*
X100250207Y-45350500D01*
X99999793Y-45350500D01*
X99999500Y-45350207D01*
X99999500Y-44149793D01*
X99999793Y-44149500D01*
X100250207Y-44149500D01*
X100250500Y-44149793D01*
G37*
G36*
X196000500Y-115649793D02*
G01*
X196000500Y-116850207D01*
X196000207Y-116850500D01*
X195749793Y-116850500D01*
X195749500Y-116850207D01*
X195749500Y-115649793D01*
X195749793Y-115649500D01*
X196000207Y-115649500D01*
X196000500Y-115649793D01*
G37*
G36*
X100250500Y-52649793D02*
G01*
X100250500Y-53850207D01*
X100250207Y-53850500D01*
X99999793Y-53850500D01*
X99999500Y-53850207D01*
X99999500Y-52649793D01*
X99999793Y-52649500D01*
X100250207Y-52649500D01*
X100250500Y-52649793D01*
G37*
G36*
X196000500Y-96649793D02*
G01*
X196000500Y-97850207D01*
X196000207Y-97850500D01*
X195749793Y-97850500D01*
X195749500Y-97850207D01*
X195749500Y-96649793D01*
X195749793Y-96649500D01*
X196000207Y-96649500D01*
X196000500Y-96649793D01*
G37*
G36*
X100250500Y-98649793D02*
G01*
X100250500Y-99850207D01*
X100250207Y-99850500D01*
X99999793Y-99850500D01*
X99999500Y-99850207D01*
X99999500Y-98649793D01*
X99999793Y-98649500D01*
X100250207Y-98649500D01*
X100250500Y-98649793D01*
G37*
G36*
X196000500Y-52649793D02*
G01*
X196000500Y-53850207D01*
X196000207Y-53850500D01*
X195749793Y-53850500D01*
X195749500Y-53850207D01*
X195749500Y-52649793D01*
X195749793Y-52649500D01*
X196000207Y-52649500D01*
X196000500Y-52649793D01*
G37*
G36*
X100250500Y-77649793D02*
G01*
X100250500Y-78850207D01*
X100250207Y-78850500D01*
X99999793Y-78850500D01*
X99999500Y-78850207D01*
X99999500Y-77649793D01*
X99999793Y-77649500D01*
X100250207Y-77649500D01*
X100250500Y-77649793D01*
G37*
M02*
