G04 #@! TF.GenerationSoftware,KiCad,Pcbnew,9.0.8*
G04 #@! TF.CreationDate,2026-07-16T19:40:56+09:00*
G04 #@! TF.ProjectId,roomlight-dc40-panelized,726f6f6d-6c69-4676-9874-2d646334302d,rev?*
G04 #@! TF.SameCoordinates,Original*
G04 #@! TF.FileFunction,Paste,Top*
G04 #@! TF.FilePolarity,Positive*
%FSLAX46Y46*%
G04 Gerber Fmt 4.6, Leading zero omitted, Abs format (unit mm)*
G04 Created by KiCad (PCBNEW 9.0.8) date 2026-07-16 19:40:56*
%MOMM*%
%LPD*%
G01*
G04 APERTURE LIST*
%ADD10R,0.500000X0.900000*%
%ADD11C,2.300000*%
%ADD12R,0.800000X0.650000*%
%ADD13C,2.000000*%
%ADD14R,1.100000X2.000000*%
%ADD15R,1.100000X0.800000*%
G04 APERTURE END LIST*
D10*
X191000000Y-65750000D03*
X192500000Y-65750000D03*
X105000000Y-128750000D03*
X103500000Y-128750000D03*
X174000000Y-107750000D03*
X172500000Y-107750000D03*
X168000000Y-55250000D03*
X169500000Y-55250000D03*
D11*
X104500000Y-42250000D03*
D10*
X156500000Y-107750000D03*
X158000000Y-107750000D03*
X117000000Y-87750000D03*
X115500000Y-87750000D03*
X168000000Y-86750000D03*
X169500000Y-86750000D03*
D12*
X194000000Y-107075000D03*
X194000000Y-108425000D03*
D10*
X156500000Y-139250000D03*
X158000000Y-139250000D03*
D12*
X159500000Y-117575000D03*
X159500000Y-118925000D03*
X125000000Y-76925000D03*
X125000000Y-75575000D03*
D10*
X105000000Y-97250000D03*
X103500000Y-97250000D03*
X179000000Y-119250000D03*
X180500000Y-119250000D03*
X179500000Y-76250000D03*
X181000000Y-76250000D03*
D12*
X159500000Y-55925000D03*
X159500000Y-54575000D03*
X136500000Y-107075000D03*
X136500000Y-108425000D03*
D10*
X122000000Y-44750000D03*
X123500000Y-44750000D03*
D13*
X97500000Y-55250000D03*
D12*
X136500000Y-138575000D03*
X136500000Y-139925000D03*
D13*
X198500000Y-118250000D03*
D10*
X179500000Y-65750000D03*
X181000000Y-65750000D03*
X191000000Y-44750000D03*
X192500000Y-44750000D03*
D14*
X131500000Y-63100000D03*
D15*
X131500000Y-65000000D03*
D12*
X136500000Y-128075000D03*
X136500000Y-129425000D03*
X125000000Y-117575000D03*
X125000000Y-118925000D03*
D10*
X179000000Y-140250000D03*
X180500000Y-140250000D03*
X168000000Y-65750000D03*
X169500000Y-65750000D03*
D14*
X131500000Y-73600000D03*
D15*
X131500000Y-75500000D03*
D10*
X139500000Y-118250000D03*
X138000000Y-118250000D03*
D12*
X194000000Y-96575000D03*
X194000000Y-97925000D03*
D14*
X164500000Y-95900000D03*
D15*
X164500000Y-94000000D03*
D10*
X151000000Y-118250000D03*
X149500000Y-118250000D03*
D13*
X97500000Y-97250000D03*
D12*
X194000000Y-76925000D03*
X194000000Y-75575000D03*
D10*
X105000000Y-139250000D03*
X103500000Y-139250000D03*
D12*
X148000000Y-45425000D03*
X148000000Y-44075000D03*
X113500000Y-87425000D03*
X113500000Y-86075000D03*
D10*
X139500000Y-76250000D03*
X138000000Y-76250000D03*
X139500000Y-86750000D03*
X138000000Y-86750000D03*
D14*
X131500000Y-84100000D03*
D15*
X131500000Y-86000000D03*
D12*
X113500000Y-128075000D03*
X113500000Y-129425000D03*
X159500000Y-66425000D03*
X159500000Y-65075000D03*
X182500000Y-107075000D03*
X182500000Y-108425000D03*
D13*
X198500000Y-44750000D03*
D11*
X104500000Y-73750000D03*
D12*
X125000000Y-128075000D03*
X125000000Y-129425000D03*
D10*
X191000000Y-76250000D03*
X192500000Y-76250000D03*
X139500000Y-107750000D03*
X138000000Y-107750000D03*
D14*
X129500000Y-46100000D03*
D15*
X129500000Y-48000000D03*
D14*
X131500000Y-42100000D03*
D15*
X131500000Y-44000000D03*
D12*
X113500000Y-96575000D03*
X113500000Y-97925000D03*
D10*
X156500000Y-97250000D03*
X158000000Y-97250000D03*
D12*
X194000000Y-138575000D03*
X194000000Y-139925000D03*
D10*
X117000000Y-77250000D03*
X115500000Y-77250000D03*
D12*
X148000000Y-96575000D03*
X148000000Y-97925000D03*
X159500000Y-87425000D03*
X159500000Y-86075000D03*
D13*
X97500000Y-44750000D03*
D10*
X116500000Y-128750000D03*
X115000000Y-128750000D03*
D11*
X186000000Y-141750000D03*
D10*
X156500000Y-86750000D03*
X158000000Y-86750000D03*
D11*
X104500000Y-68250000D03*
D12*
X182500000Y-76925000D03*
X182500000Y-75575000D03*
X182500000Y-87425000D03*
X182500000Y-86075000D03*
X125000000Y-66425000D03*
X125000000Y-65075000D03*
D11*
X104500000Y-52750000D03*
X186000000Y-126250000D03*
D14*
X166500000Y-131400000D03*
D15*
X166500000Y-129500000D03*
D12*
X136500000Y-96575000D03*
X136500000Y-97925000D03*
X102000000Y-117575000D03*
X102000000Y-118925000D03*
D10*
X105000000Y-118250000D03*
X103500000Y-118250000D03*
D12*
X159500000Y-128075000D03*
X159500000Y-129425000D03*
X148000000Y-107075000D03*
X148000000Y-108425000D03*
D13*
X198500000Y-128750000D03*
D14*
X131500000Y-77600000D03*
D15*
X131500000Y-79500000D03*
D14*
X166500000Y-141900000D03*
D15*
X166500000Y-140000000D03*
D12*
X102000000Y-87425000D03*
X102000000Y-86075000D03*
D13*
X198500000Y-65750000D03*
D10*
X128000000Y-118250000D03*
X126500000Y-118250000D03*
D12*
X136500000Y-117575000D03*
X136500000Y-118925000D03*
X182500000Y-66425000D03*
X182500000Y-65075000D03*
X194000000Y-55925000D03*
X194000000Y-54575000D03*
X182500000Y-128075000D03*
X182500000Y-129425000D03*
D10*
X145000000Y-86750000D03*
X146500000Y-86750000D03*
D14*
X131500000Y-56600000D03*
D15*
X131500000Y-58500000D03*
D10*
X117000000Y-75250000D03*
X115500000Y-75250000D03*
X179500000Y-55250000D03*
X181000000Y-55250000D03*
D14*
X166500000Y-120900000D03*
D15*
X166500000Y-119000000D03*
D14*
X129500000Y-73600000D03*
D15*
X129500000Y-75500000D03*
D11*
X186000000Y-131250000D03*
D12*
X182500000Y-96575000D03*
X182500000Y-97925000D03*
D10*
X117000000Y-56250000D03*
X115500000Y-56250000D03*
D14*
X129500000Y-63100000D03*
D15*
X129500000Y-65000000D03*
D10*
X139500000Y-44750000D03*
X138000000Y-44750000D03*
D12*
X182500000Y-117575000D03*
X182500000Y-118925000D03*
D10*
X116500000Y-139250000D03*
X115000000Y-139250000D03*
X139500000Y-139250000D03*
X138000000Y-139250000D03*
X156500000Y-76250000D03*
X158000000Y-76250000D03*
D14*
X129500000Y-77600000D03*
D15*
X129500000Y-79500000D03*
D13*
X198500000Y-97250000D03*
D14*
X131500000Y-88100000D03*
D15*
X131500000Y-90000000D03*
D12*
X194000000Y-66425000D03*
X194000000Y-65075000D03*
D13*
X198500000Y-139250000D03*
D14*
X164500000Y-110400000D03*
D15*
X164500000Y-108500000D03*
D11*
X186000000Y-136750000D03*
D13*
X198500000Y-55250000D03*
D12*
X171000000Y-138575000D03*
X171000000Y-139925000D03*
D13*
X97500000Y-118250000D03*
D10*
X145000000Y-65750000D03*
X146500000Y-65750000D03*
X117000000Y-85750000D03*
X115500000Y-85750000D03*
D12*
X159500000Y-138575000D03*
X159500000Y-139925000D03*
D10*
X117000000Y-64750000D03*
X115500000Y-64750000D03*
X117000000Y-43750000D03*
X115500000Y-43750000D03*
D14*
X164500000Y-106400000D03*
D15*
X164500000Y-104500000D03*
D10*
X179000000Y-108750000D03*
X180500000Y-108750000D03*
X139500000Y-97250000D03*
X138000000Y-97250000D03*
D12*
X102000000Y-45425000D03*
X102000000Y-44075000D03*
D10*
X139500000Y-65750000D03*
X138000000Y-65750000D03*
D14*
X164500000Y-131400000D03*
D15*
X164500000Y-129500000D03*
D12*
X194000000Y-45425000D03*
X194000000Y-44075000D03*
D14*
X164500000Y-99900000D03*
D15*
X164500000Y-98000000D03*
D10*
X174000000Y-139250000D03*
X172500000Y-139250000D03*
D14*
X131500000Y-46100000D03*
D15*
X131500000Y-48000000D03*
D10*
X122000000Y-65750000D03*
X123500000Y-65750000D03*
D12*
X148000000Y-128075000D03*
X148000000Y-129425000D03*
D10*
X145000000Y-44750000D03*
X146500000Y-44750000D03*
D12*
X125000000Y-45425000D03*
X125000000Y-44075000D03*
D10*
X156500000Y-128750000D03*
X158000000Y-128750000D03*
D13*
X97500000Y-76250000D03*
D10*
X117000000Y-45750000D03*
X115500000Y-45750000D03*
D12*
X159500000Y-107075000D03*
X159500000Y-108425000D03*
X113500000Y-45425000D03*
X113500000Y-44075000D03*
D11*
X104500000Y-57750000D03*
D10*
X191000000Y-86750000D03*
X192500000Y-86750000D03*
D12*
X125000000Y-138575000D03*
X125000000Y-139925000D03*
D14*
X164500000Y-116900000D03*
D15*
X164500000Y-115000000D03*
D13*
X97500000Y-128750000D03*
D12*
X102000000Y-107075000D03*
X102000000Y-108425000D03*
D14*
X164500000Y-137900000D03*
D15*
X164500000Y-136000000D03*
D10*
X156500000Y-44750000D03*
X158000000Y-44750000D03*
D13*
X198500000Y-107750000D03*
D10*
X128000000Y-139250000D03*
X126500000Y-139250000D03*
D12*
X102000000Y-55925000D03*
X102000000Y-54575000D03*
X148000000Y-66425000D03*
X148000000Y-65075000D03*
X171000000Y-107075000D03*
X171000000Y-108425000D03*
D10*
X168000000Y-44750000D03*
X169500000Y-44750000D03*
D12*
X125000000Y-55925000D03*
X125000000Y-54575000D03*
D10*
X156500000Y-118250000D03*
X158000000Y-118250000D03*
D14*
X129500000Y-52600000D03*
D15*
X129500000Y-54500000D03*
D11*
X186000000Y-105250000D03*
D12*
X113500000Y-138575000D03*
X113500000Y-139925000D03*
D10*
X151000000Y-107750000D03*
X149500000Y-107750000D03*
D12*
X113500000Y-55925000D03*
X113500000Y-54575000D03*
D11*
X186000000Y-110250000D03*
D12*
X125000000Y-87425000D03*
X125000000Y-86075000D03*
D10*
X117000000Y-54250000D03*
X115500000Y-54250000D03*
D11*
X186000000Y-94750000D03*
D10*
X151000000Y-128750000D03*
X149500000Y-128750000D03*
D12*
X125000000Y-107075000D03*
X125000000Y-108425000D03*
D11*
X104500000Y-63250000D03*
X186000000Y-120750000D03*
D12*
X148000000Y-138575000D03*
X148000000Y-139925000D03*
X125000000Y-96575000D03*
X125000000Y-97925000D03*
D13*
X97500000Y-86750000D03*
D10*
X179500000Y-44750000D03*
X181000000Y-44750000D03*
X122000000Y-55250000D03*
X123500000Y-55250000D03*
X128000000Y-97250000D03*
X126500000Y-97250000D03*
X174000000Y-97250000D03*
X172500000Y-97250000D03*
D12*
X182500000Y-45425000D03*
X182500000Y-44075000D03*
X102000000Y-138575000D03*
X102000000Y-139925000D03*
D11*
X104500000Y-47250000D03*
D14*
X164500000Y-141900000D03*
D15*
X164500000Y-140000000D03*
D13*
X97500000Y-107750000D03*
D10*
X105000000Y-107750000D03*
X103500000Y-107750000D03*
D14*
X166500000Y-116900000D03*
D15*
X166500000Y-115000000D03*
D10*
X179000000Y-129750000D03*
X180500000Y-129750000D03*
D11*
X104500000Y-78750000D03*
D12*
X113500000Y-117575000D03*
X113500000Y-118925000D03*
D10*
X179000000Y-117250000D03*
X180500000Y-117250000D03*
D12*
X102000000Y-76925000D03*
X102000000Y-75575000D03*
D10*
X191000000Y-55250000D03*
X192500000Y-55250000D03*
D12*
X136500000Y-66425000D03*
X136500000Y-65075000D03*
D10*
X179000000Y-98250000D03*
X180500000Y-98250000D03*
D13*
X198500000Y-86750000D03*
D11*
X104500000Y-89250000D03*
D10*
X168000000Y-76250000D03*
X169500000Y-76250000D03*
D12*
X171000000Y-55925000D03*
X171000000Y-54575000D03*
X113500000Y-107075000D03*
X113500000Y-108425000D03*
D10*
X174000000Y-118250000D03*
X172500000Y-118250000D03*
X179000000Y-106750000D03*
X180500000Y-106750000D03*
X156500000Y-65750000D03*
X158000000Y-65750000D03*
D12*
X136500000Y-55925000D03*
X136500000Y-54575000D03*
X159500000Y-76925000D03*
X159500000Y-75575000D03*
D13*
X198500000Y-76250000D03*
D12*
X171000000Y-45425000D03*
X171000000Y-44075000D03*
X148000000Y-87425000D03*
X148000000Y-86075000D03*
X136500000Y-45425000D03*
X136500000Y-44075000D03*
D14*
X164500000Y-120900000D03*
D15*
X164500000Y-119000000D03*
D14*
X131500000Y-52600000D03*
D15*
X131500000Y-54500000D03*
D10*
X179000000Y-138250000D03*
X180500000Y-138250000D03*
X128000000Y-107750000D03*
X126500000Y-107750000D03*
D12*
X148000000Y-76925000D03*
X148000000Y-75575000D03*
D10*
X179000000Y-96250000D03*
X180500000Y-96250000D03*
D14*
X166500000Y-106400000D03*
D15*
X166500000Y-104500000D03*
D12*
X171000000Y-76925000D03*
X171000000Y-75575000D03*
X194000000Y-128075000D03*
X194000000Y-129425000D03*
X136500000Y-87425000D03*
X136500000Y-86075000D03*
D14*
X166500000Y-137900000D03*
D15*
X166500000Y-136000000D03*
D12*
X159500000Y-45425000D03*
X159500000Y-44075000D03*
X182500000Y-138575000D03*
X182500000Y-139925000D03*
X194000000Y-87425000D03*
X194000000Y-86075000D03*
X171000000Y-87425000D03*
X171000000Y-86075000D03*
X102000000Y-66425000D03*
X102000000Y-65075000D03*
D14*
X166500000Y-110400000D03*
D15*
X166500000Y-108500000D03*
D12*
X148000000Y-117575000D03*
X148000000Y-118925000D03*
D11*
X186000000Y-99750000D03*
D14*
X131500000Y-67100000D03*
D15*
X131500000Y-69000000D03*
D12*
X148000000Y-55925000D03*
X148000000Y-54575000D03*
X171000000Y-128075000D03*
X171000000Y-129425000D03*
D10*
X116500000Y-118250000D03*
X115000000Y-118250000D03*
X145000000Y-76250000D03*
X146500000Y-76250000D03*
D14*
X129500000Y-42100000D03*
D15*
X129500000Y-44000000D03*
D14*
X166500000Y-127400000D03*
D15*
X166500000Y-125500000D03*
D11*
X104500000Y-84250000D03*
D12*
X171000000Y-66425000D03*
X171000000Y-65075000D03*
D10*
X122000000Y-76250000D03*
X123500000Y-76250000D03*
D14*
X129500000Y-67100000D03*
D15*
X129500000Y-69000000D03*
D12*
X194000000Y-117575000D03*
X194000000Y-118925000D03*
D10*
X139500000Y-128750000D03*
X138000000Y-128750000D03*
X116500000Y-107750000D03*
X115000000Y-107750000D03*
X151000000Y-97250000D03*
X149500000Y-97250000D03*
D12*
X102000000Y-128075000D03*
X102000000Y-129425000D03*
D14*
X166500000Y-99900000D03*
D15*
X166500000Y-98000000D03*
D10*
X117000000Y-66750000D03*
X115500000Y-66750000D03*
X145000000Y-55250000D03*
X146500000Y-55250000D03*
D13*
X97500000Y-65750000D03*
D10*
X128000000Y-128750000D03*
X126500000Y-128750000D03*
D11*
X186000000Y-115750000D03*
D14*
X164500000Y-127400000D03*
D15*
X164500000Y-125500000D03*
D12*
X171000000Y-96575000D03*
X171000000Y-97925000D03*
X159500000Y-96575000D03*
X159500000Y-97925000D03*
D10*
X179000000Y-127750000D03*
X180500000Y-127750000D03*
D14*
X129500000Y-84100000D03*
D15*
X129500000Y-86000000D03*
D12*
X136500000Y-76925000D03*
X136500000Y-75575000D03*
D10*
X139500000Y-55250000D03*
X138000000Y-55250000D03*
D12*
X113500000Y-76925000D03*
X113500000Y-75575000D03*
D14*
X129500000Y-88100000D03*
D15*
X129500000Y-90000000D03*
D12*
X182500000Y-55925000D03*
X182500000Y-54575000D03*
D10*
X179500000Y-86750000D03*
X181000000Y-86750000D03*
D12*
X113500000Y-66425000D03*
X113500000Y-65075000D03*
D10*
X174000000Y-128750000D03*
X172500000Y-128750000D03*
D14*
X129500000Y-56600000D03*
D15*
X129500000Y-58500000D03*
D10*
X116500000Y-97250000D03*
X115000000Y-97250000D03*
X156500000Y-55250000D03*
X158000000Y-55250000D03*
D13*
X97500000Y-139250000D03*
D14*
X166500000Y-95900000D03*
D15*
X166500000Y-94000000D03*
D10*
X151000000Y-139250000D03*
X149500000Y-139250000D03*
D12*
X171000000Y-117575000D03*
X171000000Y-118925000D03*
X102000000Y-96575000D03*
X102000000Y-97925000D03*
D10*
X122000000Y-86750000D03*
X123500000Y-86750000D03*
M02*
