G04 #@! TF.GenerationSoftware,KiCad,Pcbnew,9.0.8*
G04 #@! TF.CreationDate,2026-04-10T02:09:58+09:00*
G04 #@! TF.ProjectId,motordecoder2-t-ec40mra,6d6f746f-7264-4656-936f-646572322d74,rev?*
G04 #@! TF.SameCoordinates,Original*
G04 #@! TF.FileFunction,Paste,Bot*
G04 #@! TF.FilePolarity,Positive*
%FSLAX46Y46*%
G04 Gerber Fmt 4.6, Leading zero omitted, Abs format (unit mm)*
G04 Created by KiCad (PCBNEW 9.0.8) date 2026-04-10 02:09:58*
%MOMM*%
%LPD*%
G01*
G04 APERTURE LIST*
%ADD10C,2.000000*%
%ADD11R,0.400000X1.160000*%
%ADD12R,0.570000X0.988000*%
G04 APERTURE END LIST*
D10*
X86250000Y-128750000D03*
X215250000Y-58750000D03*
X86250000Y-100750000D03*
X86250000Y-58750000D03*
X86250000Y-142750000D03*
X215250000Y-72750000D03*
X215250000Y-114750000D03*
X215250000Y-128750000D03*
X86250000Y-114750000D03*
X86250000Y-72750000D03*
X215250000Y-86750000D03*
X86250000Y-86750000D03*
X215250000Y-142750000D03*
X215250000Y-100750000D03*
D11*
X90000000Y-116125000D03*
D12*
X90625000Y-116050000D03*
X90625000Y-113450000D03*
D11*
X90000000Y-113375000D03*
X211500000Y-99375000D03*
D12*
X210875000Y-99450000D03*
X210875000Y-102050000D03*
D11*
X211500000Y-102125000D03*
X90000000Y-102125000D03*
D12*
X90625000Y-102050000D03*
X90625000Y-99450000D03*
D11*
X90000000Y-99375000D03*
X90000000Y-144125000D03*
D12*
X90625000Y-144050000D03*
X90625000Y-141450000D03*
D11*
X90000000Y-141375000D03*
X90000000Y-88125000D03*
D12*
X90625000Y-88050000D03*
X90625000Y-85450000D03*
D11*
X90000000Y-85375000D03*
X211500000Y-127375000D03*
D12*
X210875000Y-127450000D03*
X210875000Y-130050000D03*
D11*
X211500000Y-130125000D03*
X90000000Y-130125000D03*
D12*
X90625000Y-130050000D03*
X90625000Y-127450000D03*
D11*
X90000000Y-127375000D03*
X211500000Y-113375000D03*
D12*
X210875000Y-113450000D03*
X210875000Y-116050000D03*
D11*
X211500000Y-116125000D03*
X211500000Y-141375000D03*
D12*
X210875000Y-141450000D03*
X210875000Y-144050000D03*
D11*
X211500000Y-144125000D03*
X90000000Y-74125000D03*
D12*
X90625000Y-74050000D03*
X90625000Y-71450000D03*
D11*
X90000000Y-71375000D03*
X90000000Y-60125000D03*
D12*
X90625000Y-60050000D03*
X90625000Y-57450000D03*
D11*
X90000000Y-57375000D03*
X211500000Y-85375000D03*
D12*
X210875000Y-85450000D03*
X210875000Y-88050000D03*
D11*
X211500000Y-88125000D03*
X211500000Y-57375000D03*
D12*
X210875000Y-57450000D03*
X210875000Y-60050000D03*
D11*
X211500000Y-60125000D03*
X211500000Y-71375000D03*
D12*
X210875000Y-71450000D03*
X210875000Y-74050000D03*
D11*
X211500000Y-74125000D03*
M02*
