M48
; DRILL file {KiCad 9.0.8} date 2026-04-10T02:09:58+0900
; FORMAT={-:-/ absolute / metric / decimal}
; #@! TF.CreationDate,2026-04-10T02:09:58+09:00
; #@! TF.GenerationSoftware,Kicad,Pcbnew,9.0.8
; #@! TF.FileFunction,NonPlated,1,2,NPTH
FMAT,2
METRIC
; #@! TA.AperFunction,NonPlated,NPTH,ComponentDrill
T1C1.300
; #@! TA.AperFunction,NonPlated,NPTH,ComponentDrill
T2C2.000
%
G90
G05
T1
X145.75Y-110.75
X145.75Y-118.75
X145.75Y-124.75
X145.75Y-132.75
X145.75Y-138.75
X145.75Y-146.75
X155.75Y-54.75
X155.75Y-62.75
X155.75Y-68.75
X155.75Y-76.75
X155.75Y-82.75
X155.75Y-90.75
X155.75Y-96.75
X155.75Y-104.75
T2
X86.25Y-58.75
X86.25Y-72.75
X86.25Y-86.75
X86.25Y-100.75
X86.25Y-114.75
X86.25Y-128.75
X86.25Y-142.75
X215.25Y-58.75
X215.25Y-72.75
X215.25Y-86.75
X215.25Y-100.75
X215.25Y-114.75
X215.25Y-128.75
X215.25Y-142.75
M30
