G04 #@! TF.GenerationSoftware,KiCad,Pcbnew,9.0.8*
G04 #@! TF.CreationDate,2026-04-10T02:09:58+09:00*
G04 #@! TF.ProjectId,motordecoder2-t-ec40mra,6d6f746f-7264-4656-936f-646572322d74,rev?*
G04 #@! TF.SameCoordinates,Original*
G04 #@! TF.FileFunction,Profile,NP*
%FSLAX46Y46*%
G04 Gerber Fmt 4.6, Leading zero omitted, Abs format (unit mm)*
G04 Created by KiCad (PCBNEW 9.0.8) date 2026-04-10 02:09:58*
%MOMM*%
%LPD*%
G01*
G04 APERTURE LIST*
G04 #@! TA.AperFunction,Profile*
%ADD10C,0.100000*%
G04 #@! TD*
%ADD11C,0.300000*%
G04 APERTURE END LIST*
D10*
X205500000Y-73500000D02*
X206000000Y-73500000D01*
X91750000Y-145250000D02*
X89250000Y-145250000D01*
X213750000Y-139250000D02*
X213750000Y-135750000D01*
X212750000Y-145250000D02*
G75*
G02*
X213750000Y-146250000I0J-1000000D01*
G01*
X96000000Y-128000000D02*
G75*
G02*
X96000000Y-129500000I0J-750000D01*
G01*
X89250000Y-112250000D02*
X91750000Y-112250000D01*
X209750000Y-117250000D02*
X212250000Y-117250000D01*
X102500000Y-114000000D02*
X105250000Y-114000000D01*
X209250000Y-106000000D02*
X203750000Y-106000000D01*
X199000000Y-131000000D02*
X196500000Y-131000000D01*
X199499994Y-61000000D02*
G75*
G02*
X199000000Y-60500000I6J500000D01*
G01*
X88750000Y-98250000D02*
X89250000Y-98250000D01*
X98250000Y-109000000D02*
X98250000Y-108500000D01*
X205500000Y-87500000D02*
G75*
G02*
X205500000Y-86000000I0J750000D01*
G01*
X205500000Y-59500000D02*
G75*
G02*
X205500000Y-58000000I0J750000D01*
G01*
X92250000Y-103750000D02*
X92250000Y-106000000D01*
X217750000Y-51750000D02*
X213750000Y-51750000D01*
X102500000Y-129500000D02*
X102500000Y-130500000D01*
X83750000Y-51750000D02*
X87750000Y-51750000D01*
X91750000Y-145250000D02*
G75*
G02*
X92250000Y-145750000I0J-500000D01*
G01*
X87750000Y-132250000D02*
G75*
G02*
X88750000Y-131250000I1000000J0D01*
G01*
X92250000Y-148000000D02*
X92250000Y-145750000D01*
X102500000Y-56500000D02*
X105000000Y-56500000D01*
X206000000Y-143500000D02*
X205500000Y-143500000D01*
X212750000Y-103250000D02*
G75*
G02*
X213750000Y-104250000I0J-1000000D01*
G01*
X96000000Y-115500000D02*
X95500000Y-115500000D01*
X209250000Y-137500000D02*
X203750000Y-137500000D01*
X88750000Y-112250000D02*
X89250000Y-112250000D01*
X102000001Y-145000000D02*
G75*
G02*
X102000000Y-140500000I499999J2250000D01*
G01*
X96000000Y-100000000D02*
G75*
G02*
X96000000Y-101500000I0J-750000D01*
G01*
X209250000Y-117750000D02*
G75*
G02*
X209750000Y-117250000I500000J0D01*
G01*
X88750000Y-84250000D02*
X89250000Y-84250000D01*
X209250000Y-125750000D02*
X209250000Y-123500000D01*
X199000000Y-100000000D02*
X199000000Y-99000000D01*
X203250000Y-106500000D02*
X203250000Y-107000000D01*
X203750000Y-53500000D02*
X209250000Y-53500000D01*
X205500000Y-58000000D02*
X206000000Y-58000000D01*
X88750000Y-117250000D02*
X89250000Y-117250000D01*
X89250000Y-145250000D02*
X89250000Y-140250000D01*
X83750000Y-51750000D02*
X83750000Y-65750000D01*
X88750000Y-70250000D02*
G75*
G02*
X87750000Y-69250000I0J1000000D01*
G01*
X199000000Y-112500000D02*
X196500000Y-112500000D01*
X212250000Y-61250000D02*
X209750000Y-61250000D01*
X102000006Y-126500000D02*
G75*
G02*
X102500000Y-127000000I-6J-500000D01*
G01*
X83750000Y-65750000D02*
X83750000Y-79750000D01*
X91750000Y-117250000D02*
X89250000Y-117250000D01*
X206000000Y-86000000D02*
G75*
G02*
X206000000Y-87500000I0J-750000D01*
G01*
X203250000Y-134500000D02*
G75*
G02*
X203750000Y-134000000I500000J0D01*
G01*
X98250000Y-94500000D02*
X203250000Y-94500000D01*
X199499999Y-84500000D02*
G75*
G02*
X199500000Y-89000000I-499999J-2250000D01*
G01*
X213750000Y-125250000D02*
G75*
G02*
X212750000Y-126250000I-1000000J0D01*
G01*
X212250000Y-140250000D02*
X212250000Y-145250000D01*
X98250000Y-53000000D02*
G75*
G02*
X97750000Y-53500000I-500000J0D01*
G01*
X196250000Y-88000000D02*
G75*
G02*
X195500000Y-88750000I-750000J0D01*
G01*
X105250000Y-128000000D02*
X105250000Y-127500000D01*
X203250000Y-109000000D02*
X203250000Y-108500000D01*
X195500000Y-56750000D02*
G75*
G02*
X196250000Y-57500000I0J-750000D01*
G01*
X91750000Y-84250000D02*
X89250000Y-84250000D01*
X209250000Y-111750000D02*
X209250000Y-109500000D01*
X96000000Y-142000000D02*
X95500000Y-142000000D01*
X92250000Y-55750000D02*
G75*
G02*
X91750000Y-56250000I-500000J0D01*
G01*
X95500000Y-87500000D02*
G75*
G02*
X95500000Y-86000000I0J750000D01*
G01*
X213750000Y-69250000D02*
X213750000Y-65750000D01*
X87750000Y-132250000D02*
X87750000Y-135750000D01*
X106000000Y-116750000D02*
G75*
G02*
X105250000Y-116000000I0J750000D01*
G01*
X87750000Y-62250000D02*
G75*
G02*
X88750000Y-61250000I1000000J0D01*
G01*
X102500000Y-75000000D02*
G75*
G02*
X102500000Y-70500000I0J2250000D01*
G01*
X217750000Y-149750000D02*
X217750000Y-135750000D01*
X203250000Y-66500000D02*
X203250000Y-67000000D01*
X212750000Y-140250000D02*
X212250000Y-140250000D01*
X203750000Y-148000000D02*
X209250000Y-148000000D01*
X205500000Y-100000000D02*
X206000000Y-100000000D01*
X212250000Y-98250000D02*
X212250000Y-103250000D01*
X91750000Y-61250000D02*
G75*
G02*
X92250000Y-61750000I0J-500000D01*
G01*
X206000000Y-114000000D02*
X205500000Y-114000000D01*
X83750000Y-135750000D02*
X83750000Y-149750000D01*
X212750000Y-103250000D02*
X212250000Y-103250000D01*
X105250000Y-144000000D02*
X105250000Y-143500000D01*
X87750000Y-146250000D02*
G75*
G02*
X88750000Y-145250000I1000000J0D01*
G01*
X92250000Y-95500000D02*
X92250000Y-97750000D01*
X95500000Y-72000000D02*
X96000000Y-72000000D01*
X203250000Y-52500000D02*
X203250000Y-53000000D01*
X209250000Y-89750000D02*
G75*
G02*
X209750000Y-89250000I500000J0D01*
G01*
X105250000Y-129500000D02*
X102500000Y-129500000D01*
X96000000Y-86000000D02*
G75*
G02*
X96000000Y-87500000I0J-750000D01*
G01*
X97750000Y-106000000D02*
G75*
G02*
X98250000Y-106500000I0J-500000D01*
G01*
X199000000Y-87500000D02*
X196250000Y-87500000D01*
X203250000Y-135000000D02*
X203250000Y-134500000D01*
X213750000Y-69250000D02*
G75*
G02*
X212750000Y-70250000I-1000000J0D01*
G01*
X199000000Y-145000000D02*
X196500000Y-145000000D01*
X212250000Y-70250000D02*
X212250000Y-75250000D01*
X213750000Y-93750000D02*
X213750000Y-90250000D01*
X203250000Y-64500000D02*
G75*
G02*
X203750000Y-64000000I500000J0D01*
G01*
X98250000Y-67000000D02*
G75*
G02*
X97750000Y-67500000I-500000J0D01*
G01*
X87750000Y-104250000D02*
X87750000Y-107750000D01*
X199000000Y-73500000D02*
X199000000Y-74500000D01*
X203250000Y-106500000D02*
G75*
G02*
X203750000Y-106000000I500000J0D01*
G01*
X89250000Y-117250000D02*
X89250000Y-112250000D01*
X209750000Y-84250000D02*
G75*
G02*
X209250000Y-83750000I0J500000D01*
G01*
X209250000Y-67500000D02*
X209250000Y-69750000D01*
X92250000Y-53500000D02*
X92250000Y-55750000D01*
X92250000Y-139750000D02*
G75*
G02*
X91750000Y-140250000I-500000J0D01*
G01*
X88750000Y-112250000D02*
G75*
G02*
X87750000Y-111250000I0J1000000D01*
G01*
X199000000Y-71000000D02*
G75*
G02*
X199499994Y-70500000I500000J0D01*
G01*
X105250000Y-116000000D02*
X105250000Y-115500000D01*
X203250000Y-149000000D02*
X98250000Y-149000000D01*
X102500000Y-144500000D02*
G75*
G02*
X102000006Y-145000000I-500000J0D01*
G01*
X95500000Y-58000000D02*
X96000000Y-58000000D01*
X203750000Y-81500000D02*
G75*
G02*
X203250000Y-81000000I0J500000D01*
G01*
X95500000Y-101500000D02*
X96000000Y-101500000D01*
X209750000Y-70250000D02*
X212250000Y-70250000D01*
X206000000Y-58000000D02*
G75*
G02*
X206000000Y-59500000I0J-750000D01*
G01*
X87750000Y-146250000D02*
X87750000Y-149750000D01*
X89250000Y-89250000D02*
X91750000Y-89250000D01*
X203750000Y-95500000D02*
G75*
G02*
X203250000Y-95000000I0J500000D01*
G01*
X209250000Y-53500000D02*
X209250000Y-55750000D01*
X97750000Y-78000000D02*
G75*
G02*
X98250000Y-78500000I0J-500000D01*
G01*
X212250000Y-112250000D02*
X209750000Y-112250000D01*
X83750000Y-107750000D02*
X83750000Y-121750000D01*
X88750000Y-89250000D02*
X89250000Y-89250000D01*
X89250000Y-112250000D02*
X89250000Y-117250000D01*
X88750000Y-126250000D02*
X89250000Y-126250000D01*
X212250000Y-112250000D02*
X212250000Y-117250000D01*
X209250000Y-75750000D02*
X209250000Y-78000000D01*
X199499994Y-103000000D02*
G75*
G02*
X199000000Y-102500000I6J500000D01*
G01*
X213750000Y-83250000D02*
G75*
G02*
X212750000Y-84250000I-1000000J0D01*
G01*
X95500000Y-73500000D02*
G75*
G02*
X95500000Y-72000000I0J750000D01*
G01*
X203750000Y-53500000D02*
G75*
G02*
X203250000Y-53000000I0J500000D01*
G01*
X83750000Y-79750000D02*
X83750000Y-93750000D01*
X203250000Y-137000000D02*
X203250000Y-136500000D01*
X199000000Y-59500000D02*
X199000000Y-60500000D01*
X212750000Y-70250000D02*
X212250000Y-70250000D01*
X203250000Y-107000000D02*
X98250000Y-107000000D01*
X199499999Y-56500000D02*
G75*
G02*
X199500000Y-61000000I-499999J-2250000D01*
G01*
X88750000Y-140250000D02*
G75*
G02*
X87750000Y-139250000I0J1000000D01*
G01*
X92250000Y-69750000D02*
G75*
G02*
X91750000Y-70250000I-500000J0D01*
G01*
X212250000Y-84250000D02*
X212250000Y-89250000D01*
X92250000Y-120000000D02*
X92250000Y-117750000D01*
X97750000Y-134000000D02*
G75*
G02*
X98250000Y-134500000I0J-500000D01*
G01*
X98250000Y-52500000D02*
X203250000Y-52500000D01*
X88750000Y-56250000D02*
G75*
G02*
X87750000Y-55250000I0J1000000D01*
G01*
X91750000Y-103250000D02*
G75*
G02*
X92250000Y-103750000I0J-500000D01*
G01*
X87750000Y-79750000D02*
X87750000Y-83250000D01*
X87750000Y-76250000D02*
G75*
G02*
X88750000Y-75250000I1000000J0D01*
G01*
X217750000Y-93750000D02*
X217750000Y-79750000D01*
X209250000Y-109500000D02*
X203750000Y-109500000D01*
X96000000Y-114000000D02*
X95500000Y-114000000D01*
X206000000Y-114000000D02*
G75*
G02*
X206000000Y-115500000I0J-750000D01*
G01*
X89250000Y-61250000D02*
X89250000Y-56250000D01*
X91750000Y-89250000D02*
G75*
G02*
X92250000Y-89750000I0J-500000D01*
G01*
X98250000Y-135000000D02*
X98250000Y-134500000D01*
X205500000Y-143500000D02*
G75*
G02*
X205500000Y-142000000I0J750000D01*
G01*
X212750000Y-117250000D02*
G75*
G02*
X213750000Y-118250000I0J-1000000D01*
G01*
X97750000Y-148000000D02*
X92250000Y-148000000D01*
X213750000Y-79750000D02*
X213750000Y-76250000D01*
X102500000Y-70500000D02*
X105000000Y-70500000D01*
X213750000Y-139250000D02*
G75*
G02*
X212750000Y-140250000I-1000000J0D01*
G01*
X212250000Y-140250000D02*
X209750000Y-140250000D01*
X95500000Y-73500000D02*
X96000000Y-73500000D01*
X209750000Y-145250000D02*
X212250000Y-145250000D01*
X98250000Y-136500000D02*
X203250000Y-136500000D01*
X209750000Y-56250000D02*
X212250000Y-56250000D01*
X209250000Y-61750000D02*
X209250000Y-64000000D01*
X98250000Y-149000000D02*
X98250000Y-148500000D01*
X91750000Y-117250000D02*
G75*
G02*
X92250000Y-117750000I0J-500000D01*
G01*
X89250000Y-98250000D02*
X89250000Y-103250000D01*
X212750000Y-61250000D02*
G75*
G02*
X213750000Y-62250000I0J-1000000D01*
G01*
X88750000Y-56250000D02*
X89250000Y-56250000D01*
X88750000Y-140250000D02*
X89250000Y-140250000D01*
X213750000Y-107750000D02*
X213750000Y-104250000D01*
X199000000Y-99000000D02*
G75*
G02*
X199499994Y-98500000I500000J0D01*
G01*
X199499994Y-89000000D02*
G75*
G02*
X199000000Y-88500000I6J500000D01*
G01*
X89250000Y-103250000D02*
X89250000Y-98250000D01*
X209750000Y-98250000D02*
X212250000Y-98250000D01*
X203250000Y-78500000D02*
G75*
G02*
X203750000Y-78000000I500000J0D01*
G01*
X106000000Y-140750000D02*
G75*
G02*
X106000000Y-144750000I-1000000J-2000000D01*
G01*
X205500000Y-101500000D02*
G75*
G02*
X205500000Y-100000000I0J750000D01*
G01*
X88750000Y-61250000D02*
X89250000Y-61250000D01*
X92250000Y-137500000D02*
X97750000Y-137500000D01*
X92250000Y-92000000D02*
X97750000Y-92000000D01*
X199000000Y-140500000D02*
G75*
G02*
X199000000Y-145000000I0J-2250000D01*
G01*
X96000000Y-142000000D02*
G75*
G02*
X96000000Y-143500000I0J-750000D01*
G01*
X95500000Y-115500000D02*
G75*
G02*
X95500000Y-114000000I0J750000D01*
G01*
X87750000Y-62250000D02*
X87750000Y-65750000D01*
X88750000Y-103250000D02*
X89250000Y-103250000D01*
X97750000Y-134000000D02*
X92250000Y-134000000D01*
X92250000Y-83750000D02*
G75*
G02*
X91750000Y-84250000I-500000J0D01*
G01*
X95500000Y-86000000D02*
X96000000Y-86000000D01*
X88750000Y-126250000D02*
G75*
G02*
X87750000Y-125250000I0J1000000D01*
G01*
X98250000Y-92500000D02*
X98250000Y-93000000D01*
X205500000Y-129500000D02*
G75*
G02*
X205500000Y-128000000I0J750000D01*
G01*
X97750000Y-148000000D02*
G75*
G02*
X98250000Y-148500000I0J-500000D01*
G01*
X199499999Y-98500000D02*
G75*
G02*
X199500000Y-103000000I-499999J-2250000D01*
G01*
X92250000Y-75750000D02*
X92250000Y-78000000D01*
X89250000Y-103250000D02*
X91750000Y-103250000D01*
X209250000Y-64000000D02*
X203750000Y-64000000D01*
X205500000Y-101500000D02*
X206000000Y-101500000D01*
X212250000Y-145250000D02*
X212250000Y-140250000D01*
X106000000Y-130750000D02*
G75*
G02*
X105250000Y-130000000I0J750000D01*
G01*
X212250000Y-103250000D02*
X209750000Y-103250000D01*
X105250000Y-143500000D02*
X102500000Y-143500000D01*
X96000000Y-114000000D02*
G75*
G02*
X96000000Y-115500000I0J-750000D01*
G01*
X195500000Y-74750000D02*
G75*
G02*
X195500000Y-70750000I1000000J2000000D01*
G01*
X96000000Y-143500000D02*
X95500000Y-143500000D01*
X98250000Y-95000000D02*
G75*
G02*
X97750000Y-95500000I-500000J0D01*
G01*
X195500000Y-70750000D02*
G75*
G02*
X196250000Y-71500000I0J-750000D01*
G01*
X206000000Y-72000000D02*
G75*
G02*
X206000000Y-73500000I0J-750000D01*
G01*
X203750000Y-67500000D02*
X209250000Y-67500000D01*
X206000000Y-128000000D02*
X205500000Y-128000000D01*
X213750000Y-55250000D02*
G75*
G02*
X212750000Y-56250000I-1000000J0D01*
G01*
X91750000Y-70250000D02*
X89250000Y-70250000D01*
X199000000Y-57000000D02*
G75*
G02*
X199499994Y-56500000I500000J0D01*
G01*
X87750000Y-118250000D02*
G75*
G02*
X88750000Y-117250000I1000000J0D01*
G01*
X195500000Y-60750000D02*
G75*
G02*
X195500000Y-56750000I1000000J2000000D01*
G01*
X196250000Y-87500000D02*
X196250000Y-88000000D01*
X91750000Y-75250000D02*
G75*
G02*
X92250000Y-75750000I0J-500000D01*
G01*
X203750000Y-120000000D02*
X209250000Y-120000000D01*
X102500000Y-116500000D02*
G75*
G02*
X102000006Y-117000000I-500000J0D01*
G01*
X96000000Y-72000000D02*
G75*
G02*
X96000000Y-73500000I0J-750000D01*
G01*
X203250000Y-135000000D02*
X98250000Y-135000000D01*
X206000000Y-115500000D02*
X205500000Y-115500000D01*
X98250000Y-106500000D02*
X98250000Y-107000000D01*
X95500000Y-87500000D02*
X96000000Y-87500000D01*
X92250000Y-134000000D02*
X92250000Y-131750000D01*
X217750000Y-149750000D02*
X213750000Y-149750000D01*
X205500000Y-86000000D02*
X206000000Y-86000000D01*
X95500000Y-59500000D02*
X96000000Y-59500000D01*
X89250000Y-126250000D02*
X89250000Y-131250000D01*
X97750000Y-53500000D02*
X92250000Y-53500000D01*
X212250000Y-126250000D02*
X212250000Y-131250000D01*
X196250000Y-60000000D02*
G75*
G02*
X195500000Y-60750000I-750000J0D01*
G01*
X98250000Y-81000000D02*
G75*
G02*
X97750000Y-81500000I-500000J0D01*
G01*
X203250000Y-123000000D02*
X203250000Y-122500000D01*
X206000000Y-142000000D02*
G75*
G02*
X206000000Y-143500000I0J-750000D01*
G01*
X98250000Y-80500000D02*
X203250000Y-80500000D01*
X98250000Y-121000000D02*
X98250000Y-120500000D01*
X105250000Y-142000000D02*
X105250000Y-141500000D01*
X95500000Y-129500000D02*
G75*
G02*
X95500000Y-128000000I0J750000D01*
G01*
X217750000Y-65750000D02*
X217750000Y-51750000D01*
X88750000Y-70250000D02*
X89250000Y-70250000D01*
X92250000Y-97750000D02*
G75*
G02*
X91750000Y-98250000I-500000J0D01*
G01*
X195500000Y-102750000D02*
G75*
G02*
X195500000Y-98750000I1000000J2000000D01*
G01*
X87750000Y-107750000D02*
X83750000Y-107750000D01*
X199499999Y-70500000D02*
G75*
G02*
X199500000Y-75000000I-499999J-2250000D01*
G01*
X105250000Y-127500000D02*
G75*
G02*
X106000000Y-126750000I750000J0D01*
G01*
X199000000Y-117000000D02*
X196500000Y-117000000D01*
X88750000Y-84250000D02*
G75*
G02*
X87750000Y-83250000I0J1000000D01*
G01*
X87750000Y-76250000D02*
X87750000Y-79750000D01*
X213750000Y-111250000D02*
X213750000Y-107750000D01*
X212250000Y-103250000D02*
X212250000Y-98250000D01*
X87750000Y-104250000D02*
G75*
G02*
X88750000Y-103250000I1000000J0D01*
G01*
X105000000Y-56500000D02*
G75*
G02*
X105000000Y-61000000I0J-2250000D01*
G01*
X87750000Y-107750000D02*
X83750000Y-107750000D01*
X87750000Y-65750000D02*
X87750000Y-69250000D01*
X92250000Y-81500000D02*
X92250000Y-83750000D01*
X217750000Y-107750000D02*
X217750000Y-93750000D01*
X92250000Y-139750000D02*
X92250000Y-137500000D01*
X212750000Y-89250000D02*
X212250000Y-89250000D01*
X203250000Y-121000000D02*
X98250000Y-121000000D01*
X98250000Y-137000000D02*
X98250000Y-136500000D01*
X203250000Y-121000000D02*
X203250000Y-120500000D01*
X212750000Y-131250000D02*
G75*
G02*
X213750000Y-132250000I0J-1000000D01*
G01*
X91750000Y-56250000D02*
X89250000Y-56250000D01*
X95500000Y-143500000D02*
G75*
G02*
X95500000Y-142000000I0J750000D01*
G01*
X102500000Y-98500000D02*
X105000000Y-98500000D01*
X98250000Y-78500000D02*
X98250000Y-79000000D01*
X92250000Y-64000000D02*
X97750000Y-64000000D01*
X203250000Y-93000000D02*
X98250000Y-93000000D01*
X98250000Y-66500000D02*
X98250000Y-67000000D01*
X102500000Y-128000000D02*
X102500000Y-127000000D01*
X196500000Y-117000000D02*
G75*
G02*
X196500000Y-112500000I0J2250000D01*
G01*
X87750000Y-121750000D02*
X87750000Y-125250000D01*
X102500000Y-75000000D02*
X105000000Y-75000000D01*
X205500000Y-115500000D02*
G75*
G02*
X205500000Y-114000000I0J750000D01*
G01*
X92250000Y-111750000D02*
X92250000Y-109500000D01*
X212250000Y-75250000D02*
X212250000Y-70250000D01*
X196250000Y-59500000D02*
X196250000Y-60000000D01*
X209250000Y-61750000D02*
G75*
G02*
X209750000Y-61250000I500000J0D01*
G01*
X213750000Y-97250000D02*
X213750000Y-93750000D01*
X106000000Y-112750000D02*
G75*
G02*
X106000000Y-116750000I-1000000J-2000000D01*
G01*
X87750000Y-90250000D02*
G75*
G02*
X88750000Y-89250000I1000000J0D01*
G01*
X203250000Y-64500000D02*
X203250000Y-65000000D01*
X102500000Y-103000000D02*
X105000000Y-103000000D01*
X199000000Y-112500000D02*
G75*
G02*
X199000000Y-117000000I0J-2250000D01*
G01*
X213750000Y-83250000D02*
X213750000Y-79750000D01*
X212250000Y-131250000D02*
X212250000Y-126250000D01*
X199000000Y-101500000D02*
X199000000Y-102500000D01*
X102500000Y-114000000D02*
X102500000Y-113000000D01*
X196250000Y-57500000D02*
X196250000Y-58000000D01*
X102500000Y-103000000D02*
G75*
G02*
X102500000Y-98500000I0J2250000D01*
G01*
X97750000Y-120000000D02*
X92250000Y-120000000D01*
X209250000Y-81500000D02*
X209250000Y-83750000D01*
X92250000Y-125750000D02*
X92250000Y-123500000D01*
X209250000Y-148000000D02*
X209250000Y-145750000D01*
X87750000Y-118250000D02*
X87750000Y-121750000D01*
X97750000Y-95500000D02*
X92250000Y-95500000D01*
X199000000Y-126500000D02*
X196500000Y-126500000D01*
X212250000Y-75250000D02*
X209750000Y-75250000D01*
X98250000Y-52500000D02*
X98250000Y-53000000D01*
X203750000Y-123500000D02*
G75*
G02*
X203250000Y-123000000I0J500000D01*
G01*
X209250000Y-89750000D02*
X209250000Y-92000000D01*
X196250000Y-100000000D02*
X199000000Y-100000000D01*
X212250000Y-61250000D02*
X212250000Y-56250000D01*
X212750000Y-145250000D02*
X212250000Y-145250000D01*
X213750000Y-107750000D02*
X217750000Y-107750000D01*
X102500000Y-61000000D02*
G75*
G02*
X102500000Y-56500000I0J2250000D01*
G01*
X102500000Y-115500000D02*
X102500000Y-116500000D01*
X196250000Y-86000000D02*
X199000000Y-86000000D01*
X96000000Y-58000000D02*
G75*
G02*
X96000000Y-59500000I0J-750000D01*
G01*
X213750000Y-149750000D02*
X213750000Y-146250000D01*
X95500000Y-100000000D02*
X96000000Y-100000000D01*
X212250000Y-89250000D02*
X209750000Y-89250000D01*
X98250000Y-109000000D02*
G75*
G02*
X97750000Y-109500000I-500000J0D01*
G01*
X89250000Y-56250000D02*
X89250000Y-61250000D01*
X203750000Y-137500000D02*
G75*
G02*
X203250000Y-137000000I0J500000D01*
G01*
X102000006Y-140500000D02*
G75*
G02*
X102500000Y-141000000I-6J-500000D01*
G01*
X212750000Y-98250000D02*
X212250000Y-98250000D01*
X105250000Y-115500000D02*
X102500000Y-115500000D01*
X102500000Y-84500000D02*
X105000000Y-84500000D01*
X203250000Y-148500000D02*
G75*
G02*
X203750000Y-148000000I500000J0D01*
G01*
X102500000Y-128000000D02*
X105250000Y-128000000D01*
X88750000Y-131250000D02*
X89250000Y-131250000D01*
X196250000Y-85500000D02*
X196250000Y-86000000D01*
X91750000Y-98250000D02*
X89250000Y-98250000D01*
X209750000Y-56250000D02*
G75*
G02*
X209250000Y-55750000I0J500000D01*
G01*
X203750000Y-81500000D02*
X209250000Y-81500000D01*
X212250000Y-89250000D02*
X212250000Y-84250000D01*
X199000000Y-73500000D02*
X196250000Y-73500000D01*
X209250000Y-75750000D02*
G75*
G02*
X209750000Y-75250000I500000J0D01*
G01*
X102500000Y-130500000D02*
G75*
G02*
X102000006Y-131000000I-500000J0D01*
G01*
X88750000Y-145250000D02*
X89250000Y-145250000D01*
X209250000Y-120000000D02*
X209250000Y-117750000D01*
X209250000Y-92000000D02*
X203750000Y-92000000D01*
X97750000Y-120000000D02*
G75*
G02*
X98250000Y-120500000I0J-500000D01*
G01*
X205500000Y-72000000D02*
X206000000Y-72000000D01*
X203250000Y-78500000D02*
X203250000Y-79000000D01*
X209250000Y-103750000D02*
X209250000Y-106000000D01*
X199000000Y-86000000D02*
X199000000Y-85000000D01*
X203250000Y-92500000D02*
G75*
G02*
X203750000Y-92000000I500000J0D01*
G01*
X102500000Y-61000000D02*
X105000000Y-61000000D01*
X89250000Y-75250000D02*
X89250000Y-70250000D01*
X217750000Y-79750000D02*
X217750000Y-65750000D01*
X206000000Y-100000000D02*
G75*
G02*
X206000000Y-101500000I0J-750000D01*
G01*
X212750000Y-84250000D02*
X212250000Y-84250000D01*
X102500000Y-142000000D02*
X102500000Y-141000000D01*
X105250000Y-130000000D02*
X105250000Y-129500000D01*
X83750000Y-121750000D02*
X83750000Y-135750000D01*
X88750000Y-75250000D02*
X89250000Y-75250000D01*
X212250000Y-126250000D02*
X209750000Y-126250000D01*
X203250000Y-92500000D02*
X203250000Y-93000000D01*
X92250000Y-89750000D02*
X92250000Y-92000000D01*
X89250000Y-131250000D02*
X89250000Y-126250000D01*
X199000000Y-140500000D02*
X196500000Y-140500000D01*
X217750000Y-135750000D02*
X217750000Y-121750000D01*
X106000000Y-144750000D02*
G75*
G02*
X105250000Y-144000000I0J750000D01*
G01*
X83750000Y-93750000D02*
X83750000Y-107750000D01*
X206000000Y-142000000D02*
X205500000Y-142000000D01*
X98250000Y-94500000D02*
X98250000Y-95000000D01*
X209750000Y-98250000D02*
G75*
G02*
X209250000Y-97750000I0J500000D01*
G01*
X209250000Y-139750000D02*
X209250000Y-137500000D01*
X91750000Y-131250000D02*
G75*
G02*
X92250000Y-131750000I0J-500000D01*
G01*
X213750000Y-121750000D02*
X213750000Y-118250000D01*
X206000000Y-129500000D02*
X205500000Y-129500000D01*
X199000000Y-59500000D02*
X196250000Y-59500000D01*
X213750000Y-65750000D02*
X213750000Y-62250000D01*
X196500000Y-145000000D02*
G75*
G02*
X196500000Y-140500000I0J2250000D01*
G01*
X89250000Y-84250000D02*
X89250000Y-89250000D01*
X89250000Y-140250000D02*
X91750000Y-140250000D01*
X92250000Y-106000000D02*
X97750000Y-106000000D01*
X213750000Y-125250000D02*
X213750000Y-121750000D01*
X213750000Y-55250000D02*
X213750000Y-51750000D01*
X196250000Y-99500000D02*
X196250000Y-100000000D01*
X203750000Y-134000000D02*
X209250000Y-134000000D01*
X203750000Y-109500000D02*
G75*
G02*
X203250000Y-109000000I0J500000D01*
G01*
X199499994Y-75000000D02*
G75*
G02*
X199000000Y-74500000I6J500000D01*
G01*
X199000000Y-72000000D02*
X199000000Y-71000000D01*
X92250000Y-67500000D02*
X92250000Y-69750000D01*
X209250000Y-123500000D02*
X203750000Y-123500000D01*
X105000000Y-70500000D02*
G75*
G02*
X105000000Y-75000000I0J-2250000D01*
G01*
X196250000Y-72000000D02*
X199000000Y-72000000D01*
X102000001Y-131000000D02*
G75*
G02*
X102000000Y-126500000I499999J2250000D01*
G01*
X213750000Y-97250000D02*
G75*
G02*
X212750000Y-98250000I-1000000J0D01*
G01*
X98250000Y-137000000D02*
G75*
G02*
X97750000Y-137500000I-500000J0D01*
G01*
X199000000Y-126500000D02*
G75*
G02*
X199000000Y-131000000I0J-2250000D01*
G01*
X95500000Y-59500000D02*
G75*
G02*
X95500000Y-58000000I0J750000D01*
G01*
X203750000Y-67500000D02*
G75*
G02*
X203250000Y-67000000I0J500000D01*
G01*
X97750000Y-67500000D02*
X92250000Y-67500000D01*
X209250000Y-95500000D02*
X209250000Y-97750000D01*
X89250000Y-126250000D02*
X91750000Y-126250000D01*
X212750000Y-75250000D02*
X212250000Y-75250000D01*
X199000000Y-101500000D02*
X196250000Y-101500000D01*
X92250000Y-61750000D02*
X92250000Y-64000000D01*
X205500000Y-59500000D02*
X206000000Y-59500000D01*
X199000000Y-85000000D02*
G75*
G02*
X199499994Y-84500000I500000J0D01*
G01*
X212250000Y-56250000D02*
X212250000Y-61250000D01*
X102500000Y-89000000D02*
X105000000Y-89000000D01*
X97750000Y-64000000D02*
G75*
G02*
X98250000Y-64500000I0J-500000D01*
G01*
X98250000Y-123000000D02*
X98250000Y-122500000D01*
X196250000Y-73500000D02*
X196250000Y-74000000D01*
X105250000Y-114000000D02*
X105250000Y-113500000D01*
X105250000Y-141500000D02*
G75*
G02*
X106000000Y-140750000I750000J0D01*
G01*
X89250000Y-89250000D02*
X89250000Y-84250000D01*
X196250000Y-58000000D02*
X199000000Y-58000000D01*
X96000000Y-129500000D02*
X95500000Y-129500000D01*
X102000006Y-112500000D02*
G75*
G02*
X102500000Y-113000000I-6J-500000D01*
G01*
X209750000Y-84250000D02*
X212250000Y-84250000D01*
X102500000Y-143500000D02*
X102500000Y-144500000D01*
X96000000Y-128000000D02*
X95500000Y-128000000D01*
X87750000Y-135750000D02*
X87750000Y-139250000D01*
X209250000Y-103750000D02*
G75*
G02*
X209750000Y-103250000I500000J0D01*
G01*
X209750000Y-131250000D02*
X212250000Y-131250000D01*
X217750000Y-121750000D02*
X217750000Y-107750000D01*
X195500000Y-88750000D02*
G75*
G02*
X195500000Y-84750000I1000000J2000000D01*
G01*
X203250000Y-80500000D02*
X203250000Y-81000000D01*
X209750000Y-112250000D02*
G75*
G02*
X209250000Y-111750000I0J500000D01*
G01*
X199000000Y-58000000D02*
X199000000Y-57000000D01*
X87750000Y-51750000D02*
X87750000Y-55250000D01*
X209750000Y-126250000D02*
G75*
G02*
X209250000Y-125750000I0J500000D01*
G01*
X209250000Y-131750000D02*
G75*
G02*
X209750000Y-131250000I500000J0D01*
G01*
X212750000Y-56250000D02*
X212250000Y-56250000D01*
X196250000Y-101500000D02*
X196250000Y-102000000D01*
X203250000Y-94500000D02*
X203250000Y-95000000D01*
X203250000Y-65000000D02*
X98250000Y-65000000D01*
X92250000Y-125750000D02*
G75*
G02*
X91750000Y-126250000I-500000J0D01*
G01*
X199000000Y-87500000D02*
X199000000Y-88500000D01*
X106000000Y-126750000D02*
G75*
G02*
X106000000Y-130750000I-1000000J-2000000D01*
G01*
X209250000Y-134000000D02*
X209250000Y-131750000D01*
X92250000Y-78000000D02*
X97750000Y-78000000D01*
X98250000Y-108500000D02*
X203250000Y-108500000D01*
X196250000Y-102000000D02*
G75*
G02*
X195500000Y-102750000I-750000J0D01*
G01*
X83750000Y-149750000D02*
X87750000Y-149750000D01*
X87750000Y-90250000D02*
X87750000Y-93750000D01*
X213750000Y-135750000D02*
X213750000Y-132250000D01*
X195500000Y-98750000D02*
G75*
G02*
X196250000Y-99500000I0J-750000D01*
G01*
X87750000Y-107750000D02*
X87750000Y-111250000D01*
X89250000Y-75250000D02*
X91750000Y-75250000D01*
X87750000Y-93750000D02*
X87750000Y-97250000D01*
X195500000Y-84750000D02*
G75*
G02*
X196250000Y-85500000I0J-750000D01*
G01*
X98250000Y-64500000D02*
X98250000Y-65000000D01*
X212250000Y-117250000D02*
X212250000Y-112250000D01*
X97750000Y-92000000D02*
G75*
G02*
X98250000Y-92500000I0J-500000D01*
G01*
X102500000Y-89000000D02*
G75*
G02*
X102500000Y-84500000I0J2250000D01*
G01*
X212750000Y-75250000D02*
G75*
G02*
X213750000Y-76250000I0J-1000000D01*
G01*
X98250000Y-123000000D02*
G75*
G02*
X97750000Y-123500000I-500000J0D01*
G01*
X205500000Y-87500000D02*
X206000000Y-87500000D01*
X105000000Y-84500000D02*
G75*
G02*
X105000000Y-89000000I0J-2250000D01*
G01*
X205500000Y-73500000D02*
G75*
G02*
X205500000Y-72000000I0J750000D01*
G01*
X212750000Y-131250000D02*
X212250000Y-131250000D01*
X92250000Y-109500000D02*
X97750000Y-109500000D01*
X105000000Y-98500000D02*
G75*
G02*
X105000000Y-103000000I0J-2250000D01*
G01*
X196250000Y-74000000D02*
G75*
G02*
X195500000Y-74750000I-750000J0D01*
G01*
X102500000Y-142000000D02*
X105250000Y-142000000D01*
X89250000Y-61250000D02*
X91750000Y-61250000D01*
X102000001Y-117000000D02*
G75*
G02*
X102000000Y-112500000I499999J2250000D01*
G01*
X212750000Y-117250000D02*
X212250000Y-117250000D01*
X212750000Y-61250000D02*
X212250000Y-61250000D01*
X92250000Y-111750000D02*
G75*
G02*
X91750000Y-112250000I-500000J0D01*
G01*
X97750000Y-81500000D02*
X92250000Y-81500000D01*
X203750000Y-95500000D02*
X209250000Y-95500000D01*
X89250000Y-140250000D02*
X89250000Y-145250000D01*
X212750000Y-112250000D02*
X212250000Y-112250000D01*
X98250000Y-80500000D02*
X98250000Y-81000000D01*
X196500000Y-131000000D02*
G75*
G02*
X196500000Y-126500000I0J2250000D01*
G01*
X98250000Y-66500000D02*
X203250000Y-66500000D01*
X209750000Y-140250000D02*
G75*
G02*
X209250000Y-139750000I0J500000D01*
G01*
X213750000Y-111250000D02*
G75*
G02*
X212750000Y-112250000I-1000000J0D01*
G01*
X203250000Y-79000000D02*
X98250000Y-79000000D01*
X95500000Y-101500000D02*
G75*
G02*
X95500000Y-100000000I0J750000D01*
G01*
X212750000Y-89250000D02*
G75*
G02*
X213750000Y-90250000I0J-1000000D01*
G01*
X209750000Y-70250000D02*
G75*
G02*
X209250000Y-69750000I0J500000D01*
G01*
X209250000Y-145750000D02*
G75*
G02*
X209750000Y-145250000I500000J0D01*
G01*
X209250000Y-78000000D02*
X203750000Y-78000000D01*
X92250000Y-123500000D02*
X97750000Y-123500000D01*
X203250000Y-149000000D02*
X203250000Y-148500000D01*
X206000000Y-128000000D02*
G75*
G02*
X206000000Y-129500000I0J-750000D01*
G01*
X91750000Y-131250000D02*
X89250000Y-131250000D01*
X212750000Y-126250000D02*
X212250000Y-126250000D01*
X203250000Y-120500000D02*
G75*
G02*
X203750000Y-120000000I500000J0D01*
G01*
X196250000Y-71500000D02*
X196250000Y-72000000D01*
X89250000Y-70250000D02*
X89250000Y-75250000D01*
X88750000Y-98250000D02*
G75*
G02*
X87750000Y-97250000I0J1000000D01*
G01*
X98250000Y-122500000D02*
X203250000Y-122500000D01*
X105250000Y-113500000D02*
G75*
G02*
X106000000Y-112750000I750000J0D01*
G01*
D11*
X211826304Y-49052632D02*
X212397733Y-50576441D01*
X212397733Y-50576441D02*
X212969161Y-49052632D01*
X212397733Y-48100251D02*
X212397733Y-46576442D01*
X211159638Y-44385965D02*
X213159638Y-43719299D01*
X213159638Y-43719299D02*
X211159638Y-43052632D01*
X212397733Y-42385965D02*
X212397733Y-40862156D01*
X212969161Y-38766918D02*
X213064400Y-38862156D01*
X213064400Y-38862156D02*
X213159638Y-39147870D01*
X213159638Y-39147870D02*
X213159638Y-39338346D01*
X213159638Y-39338346D02*
X213064400Y-39624061D01*
X213064400Y-39624061D02*
X212873923Y-39814537D01*
X212873923Y-39814537D02*
X212683447Y-39909775D01*
X212683447Y-39909775D02*
X212302495Y-40005013D01*
X212302495Y-40005013D02*
X212016780Y-40005013D01*
X212016780Y-40005013D02*
X211635828Y-39909775D01*
X211635828Y-39909775D02*
X211445352Y-39814537D01*
X211445352Y-39814537D02*
X211254876Y-39624061D01*
X211254876Y-39624061D02*
X211159638Y-39338346D01*
X211159638Y-39338346D02*
X211159638Y-39147870D01*
X211159638Y-39147870D02*
X211254876Y-38862156D01*
X211254876Y-38862156D02*
X211350114Y-38766918D01*
X211159638Y-37909775D02*
X212778685Y-37909775D01*
X212778685Y-37909775D02*
X212969161Y-37814537D01*
X212969161Y-37814537D02*
X213064400Y-37719299D01*
X213064400Y-37719299D02*
X213159638Y-37528823D01*
X213159638Y-37528823D02*
X213159638Y-37147870D01*
X213159638Y-37147870D02*
X213064400Y-36957394D01*
X213064400Y-36957394D02*
X212969161Y-36862156D01*
X212969161Y-36862156D02*
X212778685Y-36766918D01*
X212778685Y-36766918D02*
X211159638Y-36766918D01*
X211159638Y-36100251D02*
X211159638Y-34957394D01*
X213159638Y-35528823D02*
X211159638Y-35528823D01*
X212673695Y-153947368D02*
X212102266Y-152423558D01*
X212102266Y-152423558D02*
X211530838Y-153947368D01*
X212102266Y-154899748D02*
X212102266Y-156423558D01*
X213340361Y-158614034D02*
X211340361Y-159280700D01*
X211340361Y-159280700D02*
X213340361Y-159947367D01*
X212102266Y-160614034D02*
X212102266Y-162137844D01*
X211530838Y-164233081D02*
X211435600Y-164137843D01*
X211435600Y-164137843D02*
X211340361Y-163852129D01*
X211340361Y-163852129D02*
X211340361Y-163661653D01*
X211340361Y-163661653D02*
X211435600Y-163375938D01*
X211435600Y-163375938D02*
X211626076Y-163185462D01*
X211626076Y-163185462D02*
X211816552Y-163090224D01*
X211816552Y-163090224D02*
X212197504Y-162994986D01*
X212197504Y-162994986D02*
X212483219Y-162994986D01*
X212483219Y-162994986D02*
X212864171Y-163090224D01*
X212864171Y-163090224D02*
X213054647Y-163185462D01*
X213054647Y-163185462D02*
X213245123Y-163375938D01*
X213245123Y-163375938D02*
X213340361Y-163661653D01*
X213340361Y-163661653D02*
X213340361Y-163852129D01*
X213340361Y-163852129D02*
X213245123Y-164137843D01*
X213245123Y-164137843D02*
X213149885Y-164233081D01*
X213340361Y-165090224D02*
X211721314Y-165090224D01*
X211721314Y-165090224D02*
X211530838Y-165185462D01*
X211530838Y-165185462D02*
X211435600Y-165280700D01*
X211435600Y-165280700D02*
X211340361Y-165471176D01*
X211340361Y-165471176D02*
X211340361Y-165852129D01*
X211340361Y-165852129D02*
X211435600Y-166042605D01*
X211435600Y-166042605D02*
X211530838Y-166137843D01*
X211530838Y-166137843D02*
X211721314Y-166233081D01*
X211721314Y-166233081D02*
X213340361Y-166233081D01*
X213340361Y-166899748D02*
X213340361Y-168042605D01*
X211340361Y-167471176D02*
X213340361Y-167471176D01*
X222947368Y-107326304D02*
X221423558Y-107897733D01*
X221423558Y-107897733D02*
X222947368Y-108469161D01*
X223899748Y-107897733D02*
X225423558Y-107897733D01*
X227614034Y-106659638D02*
X228280700Y-108659638D01*
X228280700Y-108659638D02*
X228947367Y-106659638D01*
X229614034Y-107897733D02*
X231137844Y-107897733D01*
X233233081Y-108469161D02*
X233137843Y-108564400D01*
X233137843Y-108564400D02*
X232852129Y-108659638D01*
X232852129Y-108659638D02*
X232661653Y-108659638D01*
X232661653Y-108659638D02*
X232375938Y-108564400D01*
X232375938Y-108564400D02*
X232185462Y-108373923D01*
X232185462Y-108373923D02*
X232090224Y-108183447D01*
X232090224Y-108183447D02*
X231994986Y-107802495D01*
X231994986Y-107802495D02*
X231994986Y-107516780D01*
X231994986Y-107516780D02*
X232090224Y-107135828D01*
X232090224Y-107135828D02*
X232185462Y-106945352D01*
X232185462Y-106945352D02*
X232375938Y-106754876D01*
X232375938Y-106754876D02*
X232661653Y-106659638D01*
X232661653Y-106659638D02*
X232852129Y-106659638D01*
X232852129Y-106659638D02*
X233137843Y-106754876D01*
X233137843Y-106754876D02*
X233233081Y-106850114D01*
X234090224Y-106659638D02*
X234090224Y-108278685D01*
X234090224Y-108278685D02*
X234185462Y-108469161D01*
X234185462Y-108469161D02*
X234280700Y-108564400D01*
X234280700Y-108564400D02*
X234471176Y-108659638D01*
X234471176Y-108659638D02*
X234852129Y-108659638D01*
X234852129Y-108659638D02*
X235042605Y-108564400D01*
X235042605Y-108564400D02*
X235137843Y-108469161D01*
X235137843Y-108469161D02*
X235233081Y-108278685D01*
X235233081Y-108278685D02*
X235233081Y-106659638D01*
X235899748Y-106659638D02*
X237042605Y-106659638D01*
X236471176Y-108659638D02*
X236471176Y-106659638D01*
X88826304Y-48552632D02*
X89397733Y-50076441D01*
X89397733Y-50076441D02*
X89969161Y-48552632D01*
X89397733Y-47600251D02*
X89397733Y-46076442D01*
X88159638Y-43885965D02*
X90159638Y-43219299D01*
X90159638Y-43219299D02*
X88159638Y-42552632D01*
X89397733Y-41885965D02*
X89397733Y-40362156D01*
X89969161Y-38266918D02*
X90064400Y-38362156D01*
X90064400Y-38362156D02*
X90159638Y-38647870D01*
X90159638Y-38647870D02*
X90159638Y-38838346D01*
X90159638Y-38838346D02*
X90064400Y-39124061D01*
X90064400Y-39124061D02*
X89873923Y-39314537D01*
X89873923Y-39314537D02*
X89683447Y-39409775D01*
X89683447Y-39409775D02*
X89302495Y-39505013D01*
X89302495Y-39505013D02*
X89016780Y-39505013D01*
X89016780Y-39505013D02*
X88635828Y-39409775D01*
X88635828Y-39409775D02*
X88445352Y-39314537D01*
X88445352Y-39314537D02*
X88254876Y-39124061D01*
X88254876Y-39124061D02*
X88159638Y-38838346D01*
X88159638Y-38838346D02*
X88159638Y-38647870D01*
X88159638Y-38647870D02*
X88254876Y-38362156D01*
X88254876Y-38362156D02*
X88350114Y-38266918D01*
X88159638Y-37409775D02*
X89778685Y-37409775D01*
X89778685Y-37409775D02*
X89969161Y-37314537D01*
X89969161Y-37314537D02*
X90064400Y-37219299D01*
X90064400Y-37219299D02*
X90159638Y-37028823D01*
X90159638Y-37028823D02*
X90159638Y-36647870D01*
X90159638Y-36647870D02*
X90064400Y-36457394D01*
X90064400Y-36457394D02*
X89969161Y-36362156D01*
X89969161Y-36362156D02*
X89778685Y-36266918D01*
X89778685Y-36266918D02*
X88159638Y-36266918D01*
X88159638Y-35600251D02*
X88159638Y-34457394D01*
X90159638Y-35028823D02*
X88159638Y-35028823D01*
X89673695Y-154447368D02*
X89102266Y-152923558D01*
X89102266Y-152923558D02*
X88530838Y-154447368D01*
X89102266Y-155399748D02*
X89102266Y-156923558D01*
X90340361Y-159114034D02*
X88340361Y-159780700D01*
X88340361Y-159780700D02*
X90340361Y-160447367D01*
X89102266Y-161114034D02*
X89102266Y-162637844D01*
X88530838Y-164733081D02*
X88435600Y-164637843D01*
X88435600Y-164637843D02*
X88340361Y-164352129D01*
X88340361Y-164352129D02*
X88340361Y-164161653D01*
X88340361Y-164161653D02*
X88435600Y-163875938D01*
X88435600Y-163875938D02*
X88626076Y-163685462D01*
X88626076Y-163685462D02*
X88816552Y-163590224D01*
X88816552Y-163590224D02*
X89197504Y-163494986D01*
X89197504Y-163494986D02*
X89483219Y-163494986D01*
X89483219Y-163494986D02*
X89864171Y-163590224D01*
X89864171Y-163590224D02*
X90054647Y-163685462D01*
X90054647Y-163685462D02*
X90245123Y-163875938D01*
X90245123Y-163875938D02*
X90340361Y-164161653D01*
X90340361Y-164161653D02*
X90340361Y-164352129D01*
X90340361Y-164352129D02*
X90245123Y-164637843D01*
X90245123Y-164637843D02*
X90149885Y-164733081D01*
X90340361Y-165590224D02*
X88721314Y-165590224D01*
X88721314Y-165590224D02*
X88530838Y-165685462D01*
X88530838Y-165685462D02*
X88435600Y-165780700D01*
X88435600Y-165780700D02*
X88340361Y-165971176D01*
X88340361Y-165971176D02*
X88340361Y-166352129D01*
X88340361Y-166352129D02*
X88435600Y-166542605D01*
X88435600Y-166542605D02*
X88530838Y-166637843D01*
X88530838Y-166637843D02*
X88721314Y-166733081D01*
X88721314Y-166733081D02*
X90340361Y-166733081D01*
X90340361Y-167399748D02*
X90340361Y-168542605D01*
X88340361Y-167971176D02*
X90340361Y-167971176D01*
X79052632Y-108173695D02*
X80576441Y-107602266D01*
X80576441Y-107602266D02*
X79052632Y-107030838D01*
X78100251Y-107602266D02*
X76576442Y-107602266D01*
X74385965Y-108840361D02*
X73719299Y-106840361D01*
X73719299Y-106840361D02*
X73052632Y-108840361D01*
X72385965Y-107602266D02*
X70862156Y-107602266D01*
X68766918Y-107030838D02*
X68862156Y-106935600D01*
X68862156Y-106935600D02*
X69147870Y-106840361D01*
X69147870Y-106840361D02*
X69338346Y-106840361D01*
X69338346Y-106840361D02*
X69624061Y-106935600D01*
X69624061Y-106935600D02*
X69814537Y-107126076D01*
X69814537Y-107126076D02*
X69909775Y-107316552D01*
X69909775Y-107316552D02*
X70005013Y-107697504D01*
X70005013Y-107697504D02*
X70005013Y-107983219D01*
X70005013Y-107983219D02*
X69909775Y-108364171D01*
X69909775Y-108364171D02*
X69814537Y-108554647D01*
X69814537Y-108554647D02*
X69624061Y-108745123D01*
X69624061Y-108745123D02*
X69338346Y-108840361D01*
X69338346Y-108840361D02*
X69147870Y-108840361D01*
X69147870Y-108840361D02*
X68862156Y-108745123D01*
X68862156Y-108745123D02*
X68766918Y-108649885D01*
X67909775Y-108840361D02*
X67909775Y-107221314D01*
X67909775Y-107221314D02*
X67814537Y-107030838D01*
X67814537Y-107030838D02*
X67719299Y-106935600D01*
X67719299Y-106935600D02*
X67528823Y-106840361D01*
X67528823Y-106840361D02*
X67147870Y-106840361D01*
X67147870Y-106840361D02*
X66957394Y-106935600D01*
X66957394Y-106935600D02*
X66862156Y-107030838D01*
X66862156Y-107030838D02*
X66766918Y-107221314D01*
X66766918Y-107221314D02*
X66766918Y-108840361D01*
X66100251Y-108840361D02*
X64957394Y-108840361D01*
X65528823Y-106840361D02*
X65528823Y-108840361D01*
M02*
