G04 #@! TF.GenerationSoftware,KiCad,Pcbnew,9.0.8*
G04 #@! TF.CreationDate,2026-04-10T02:09:58+09:00*
G04 #@! TF.ProjectId,motordecoder2-t-ec40mra,6d6f746f-7264-4656-936f-646572322d74,rev?*
G04 #@! TF.SameCoordinates,Original*
G04 #@! TF.FileFunction,Legend,Bot*
G04 #@! TF.FilePolarity,Positive*
%FSLAX46Y46*%
G04 Gerber Fmt 4.6, Leading zero omitted, Abs format (unit mm)*
G04 Created by KiCad (PCBNEW 9.0.8) date 2026-04-10 02:09:58*
%MOMM*%
%LPD*%
G01*
G04 APERTURE LIST*
%ADD10C,0.150000*%
%ADD11C,0.180000*%
%ADD12C,0.120000*%
%ADD13C,2.000000*%
%ADD14R,0.950000X0.950000*%
%ADD15C,1.300000*%
%ADD16R,1.300000X1.300000*%
%ADD17R,1.200000X0.800000*%
%ADD18R,0.500000X1.450000*%
%ADD19R,0.750000X1.300000*%
%ADD20R,3.500000X3.500000*%
G04 APERTURE END LIST*
D10*
X209500000Y-102650000D02*
X209500000Y-102150000D01*
X210000000Y-116150000D02*
X209500000Y-115650000D01*
X210000000Y-101650000D02*
X209500000Y-101650000D01*
X92000000Y-71850000D02*
X92500000Y-71350000D01*
X210000000Y-59650000D02*
X209500000Y-59650000D01*
X210000000Y-143650000D02*
X209500000Y-143650000D01*
X91500000Y-127850000D02*
X92000000Y-127850000D01*
X92000000Y-57850000D02*
X92000000Y-58350000D01*
X209000000Y-60150000D02*
X210000000Y-60150000D01*
X92000000Y-112850000D02*
X92000000Y-113350000D01*
X209500000Y-143650000D02*
X209500000Y-143150000D01*
X209000000Y-102150000D02*
X210000000Y-102150000D01*
X91500000Y-99850000D02*
X92000000Y-99850000D01*
X91500000Y-71350000D02*
X92000000Y-71850000D01*
X92000000Y-140850000D02*
X92000000Y-141350000D01*
X209500000Y-143650000D02*
X209000000Y-144150000D01*
X209500000Y-73650000D02*
X209000000Y-74150000D01*
X209500000Y-115650000D02*
X209000000Y-116150000D01*
X209500000Y-130650000D02*
X209500000Y-130150000D01*
X92000000Y-113850000D02*
X92000000Y-114350000D01*
X210000000Y-129650000D02*
X209500000Y-129650000D01*
X91500000Y-57850000D02*
X92000000Y-57850000D01*
X209500000Y-101650000D02*
X209500000Y-101150000D01*
X209000000Y-87650000D02*
X210000000Y-87650000D01*
X209500000Y-59650000D02*
X209000000Y-60150000D01*
X92500000Y-57850000D02*
X91500000Y-57850000D01*
X209500000Y-129650000D02*
X209000000Y-130150000D01*
X92000000Y-127850000D02*
X92000000Y-128350000D01*
X210000000Y-73650000D02*
X209500000Y-73650000D01*
X92000000Y-99850000D02*
X92000000Y-100350000D01*
X92000000Y-98850000D02*
X92000000Y-99350000D01*
X210000000Y-88150000D02*
X209500000Y-87650000D01*
X92000000Y-57850000D02*
X92500000Y-57350000D01*
X92000000Y-85850000D02*
X92500000Y-85350000D01*
X209000000Y-74150000D02*
X210000000Y-74150000D01*
X210000000Y-60150000D02*
X209500000Y-59650000D01*
X209500000Y-87650000D02*
X209000000Y-88150000D01*
X210000000Y-144150000D02*
X209500000Y-143650000D01*
X91500000Y-71850000D02*
X92000000Y-71850000D01*
X209000000Y-130150000D02*
X210000000Y-130150000D01*
X209000000Y-129650000D02*
X210000000Y-129650000D01*
X92500000Y-85850000D02*
X91500000Y-85850000D01*
X210000000Y-87650000D02*
X209500000Y-87650000D01*
X92000000Y-84850000D02*
X92000000Y-85350000D01*
X209500000Y-87650000D02*
X209500000Y-87150000D01*
X210000000Y-102150000D02*
X209500000Y-101650000D01*
X92000000Y-141850000D02*
X92000000Y-142350000D01*
X92500000Y-141350000D02*
X91500000Y-141350000D01*
X92500000Y-57350000D02*
X91500000Y-57350000D01*
X209500000Y-115650000D02*
X209500000Y-115150000D01*
X209500000Y-59650000D02*
X209500000Y-59150000D01*
X91500000Y-141850000D02*
X92000000Y-141850000D01*
X92000000Y-56850000D02*
X92000000Y-57350000D01*
X209000000Y-116150000D02*
X210000000Y-116150000D01*
X209000000Y-143650000D02*
X210000000Y-143650000D01*
X92500000Y-99350000D02*
X91500000Y-99350000D01*
X92000000Y-71850000D02*
X92000000Y-72350000D01*
X92500000Y-71850000D02*
X91500000Y-71850000D01*
X210000000Y-74150000D02*
X209500000Y-73650000D01*
X92000000Y-70850000D02*
X92000000Y-71350000D01*
X91500000Y-113850000D02*
X92000000Y-113850000D01*
X92500000Y-85350000D02*
X91500000Y-85350000D01*
X92000000Y-127850000D02*
X92500000Y-127350000D01*
X92500000Y-113850000D02*
X91500000Y-113850000D01*
X210000000Y-130150000D02*
X209500000Y-129650000D01*
X209000000Y-101650000D02*
X210000000Y-101650000D01*
X92000000Y-113850000D02*
X92500000Y-113350000D01*
X92500000Y-141850000D02*
X91500000Y-141850000D01*
X91500000Y-85850000D02*
X92000000Y-85850000D01*
X210000000Y-115650000D02*
X209500000Y-115650000D01*
X92500000Y-99850000D02*
X91500000Y-99850000D01*
X91500000Y-57350000D02*
X92000000Y-57850000D01*
X209000000Y-115650000D02*
X210000000Y-115650000D01*
X209000000Y-88150000D02*
X210000000Y-88150000D01*
X209500000Y-88650000D02*
X209500000Y-88150000D01*
X91500000Y-85350000D02*
X92000000Y-85850000D01*
X209000000Y-144150000D02*
X210000000Y-144150000D01*
X209500000Y-129650000D02*
X209500000Y-129150000D01*
X209500000Y-74650000D02*
X209500000Y-74150000D01*
X209500000Y-116650000D02*
X209500000Y-116150000D01*
X91500000Y-99350000D02*
X92000000Y-99850000D01*
X92500000Y-127850000D02*
X91500000Y-127850000D01*
X209500000Y-144650000D02*
X209500000Y-144150000D01*
X92000000Y-126850000D02*
X92000000Y-127350000D01*
X92000000Y-99850000D02*
X92500000Y-99350000D01*
X92500000Y-113350000D02*
X91500000Y-113350000D01*
X209000000Y-73650000D02*
X210000000Y-73650000D01*
X92000000Y-141850000D02*
X92500000Y-141350000D01*
X91500000Y-113350000D02*
X92000000Y-113850000D01*
X92000000Y-85850000D02*
X92000000Y-86350000D01*
X209500000Y-101650000D02*
X209000000Y-102150000D01*
X209000000Y-59650000D02*
X210000000Y-59650000D01*
X209500000Y-60650000D02*
X209500000Y-60150000D01*
X92500000Y-127350000D02*
X91500000Y-127350000D01*
X209500000Y-73650000D02*
X209500000Y-73150000D01*
X91500000Y-141350000D02*
X92000000Y-141850000D01*
X91500000Y-127350000D02*
X92000000Y-127850000D01*
X92500000Y-71350000D02*
X91500000Y-71350000D01*
X91287704Y-116921428D02*
X92087704Y-116921428D01*
X92087704Y-116921428D02*
X92087704Y-116730952D01*
X92087704Y-116730952D02*
X92049609Y-116616666D01*
X92049609Y-116616666D02*
X91973419Y-116540476D01*
X91973419Y-116540476D02*
X91897228Y-116502381D01*
X91897228Y-116502381D02*
X91744847Y-116464285D01*
X91744847Y-116464285D02*
X91630561Y-116464285D01*
X91630561Y-116464285D02*
X91478180Y-116502381D01*
X91478180Y-116502381D02*
X91401990Y-116540476D01*
X91401990Y-116540476D02*
X91325800Y-116616666D01*
X91325800Y-116616666D02*
X91287704Y-116730952D01*
X91287704Y-116730952D02*
X91287704Y-116921428D01*
X91287704Y-115702381D02*
X91287704Y-116159524D01*
X91287704Y-115930952D02*
X92087704Y-115930952D01*
X92087704Y-115930952D02*
X91973419Y-116007143D01*
X91973419Y-116007143D02*
X91897228Y-116083333D01*
X91897228Y-116083333D02*
X91859133Y-116159524D01*
X92087704Y-114978571D02*
X92087704Y-115359523D01*
X92087704Y-115359523D02*
X91706752Y-115397619D01*
X91706752Y-115397619D02*
X91744847Y-115359523D01*
X91744847Y-115359523D02*
X91782942Y-115283333D01*
X91782942Y-115283333D02*
X91782942Y-115092857D01*
X91782942Y-115092857D02*
X91744847Y-115016666D01*
X91744847Y-115016666D02*
X91706752Y-114978571D01*
X91706752Y-114978571D02*
X91630561Y-114940476D01*
X91630561Y-114940476D02*
X91440085Y-114940476D01*
X91440085Y-114940476D02*
X91363895Y-114978571D01*
X91363895Y-114978571D02*
X91325800Y-115016666D01*
X91325800Y-115016666D02*
X91287704Y-115092857D01*
X91287704Y-115092857D02*
X91287704Y-115283333D01*
X91287704Y-115283333D02*
X91325800Y-115359523D01*
X91325800Y-115359523D02*
X91363895Y-115397619D01*
X210212295Y-98578571D02*
X209412295Y-98578571D01*
X209412295Y-98578571D02*
X209412295Y-98769047D01*
X209412295Y-98769047D02*
X209450390Y-98883333D01*
X209450390Y-98883333D02*
X209526580Y-98959523D01*
X209526580Y-98959523D02*
X209602771Y-98997618D01*
X209602771Y-98997618D02*
X209755152Y-99035714D01*
X209755152Y-99035714D02*
X209869438Y-99035714D01*
X209869438Y-99035714D02*
X210021819Y-98997618D01*
X210021819Y-98997618D02*
X210098009Y-98959523D01*
X210098009Y-98959523D02*
X210174200Y-98883333D01*
X210174200Y-98883333D02*
X210212295Y-98769047D01*
X210212295Y-98769047D02*
X210212295Y-98578571D01*
X210212295Y-99797618D02*
X210212295Y-99340475D01*
X210212295Y-99569047D02*
X209412295Y-99569047D01*
X209412295Y-99569047D02*
X209526580Y-99492856D01*
X209526580Y-99492856D02*
X209602771Y-99416666D01*
X209602771Y-99416666D02*
X209640866Y-99340475D01*
X209412295Y-100521428D02*
X209412295Y-100140476D01*
X209412295Y-100140476D02*
X209793247Y-100102380D01*
X209793247Y-100102380D02*
X209755152Y-100140476D01*
X209755152Y-100140476D02*
X209717057Y-100216666D01*
X209717057Y-100216666D02*
X209717057Y-100407142D01*
X209717057Y-100407142D02*
X209755152Y-100483333D01*
X209755152Y-100483333D02*
X209793247Y-100521428D01*
X209793247Y-100521428D02*
X209869438Y-100559523D01*
X209869438Y-100559523D02*
X210059914Y-100559523D01*
X210059914Y-100559523D02*
X210136104Y-100521428D01*
X210136104Y-100521428D02*
X210174200Y-100483333D01*
X210174200Y-100483333D02*
X210212295Y-100407142D01*
X210212295Y-100407142D02*
X210212295Y-100216666D01*
X210212295Y-100216666D02*
X210174200Y-100140476D01*
X210174200Y-100140476D02*
X210136104Y-100102380D01*
X92112295Y-100878571D02*
X91312295Y-100878571D01*
X91312295Y-100878571D02*
X91312295Y-101069047D01*
X91312295Y-101069047D02*
X91350390Y-101183333D01*
X91350390Y-101183333D02*
X91426580Y-101259523D01*
X91426580Y-101259523D02*
X91502771Y-101297618D01*
X91502771Y-101297618D02*
X91655152Y-101335714D01*
X91655152Y-101335714D02*
X91769438Y-101335714D01*
X91769438Y-101335714D02*
X91921819Y-101297618D01*
X91921819Y-101297618D02*
X91998009Y-101259523D01*
X91998009Y-101259523D02*
X92074200Y-101183333D01*
X92074200Y-101183333D02*
X92112295Y-101069047D01*
X92112295Y-101069047D02*
X92112295Y-100878571D01*
X92112295Y-102097618D02*
X92112295Y-101640475D01*
X92112295Y-101869047D02*
X91312295Y-101869047D01*
X91312295Y-101869047D02*
X91426580Y-101792856D01*
X91426580Y-101792856D02*
X91502771Y-101716666D01*
X91502771Y-101716666D02*
X91540866Y-101640475D01*
X91388485Y-102402380D02*
X91350390Y-102440476D01*
X91350390Y-102440476D02*
X91312295Y-102516666D01*
X91312295Y-102516666D02*
X91312295Y-102707142D01*
X91312295Y-102707142D02*
X91350390Y-102783333D01*
X91350390Y-102783333D02*
X91388485Y-102821428D01*
X91388485Y-102821428D02*
X91464676Y-102859523D01*
X91464676Y-102859523D02*
X91540866Y-102859523D01*
X91540866Y-102859523D02*
X91655152Y-102821428D01*
X91655152Y-102821428D02*
X92112295Y-102364285D01*
X92112295Y-102364285D02*
X92112295Y-102859523D01*
X91287704Y-144921428D02*
X92087704Y-144921428D01*
X92087704Y-144921428D02*
X92087704Y-144730952D01*
X92087704Y-144730952D02*
X92049609Y-144616666D01*
X92049609Y-144616666D02*
X91973419Y-144540476D01*
X91973419Y-144540476D02*
X91897228Y-144502381D01*
X91897228Y-144502381D02*
X91744847Y-144464285D01*
X91744847Y-144464285D02*
X91630561Y-144464285D01*
X91630561Y-144464285D02*
X91478180Y-144502381D01*
X91478180Y-144502381D02*
X91401990Y-144540476D01*
X91401990Y-144540476D02*
X91325800Y-144616666D01*
X91325800Y-144616666D02*
X91287704Y-144730952D01*
X91287704Y-144730952D02*
X91287704Y-144921428D01*
X91287704Y-143702381D02*
X91287704Y-144159524D01*
X91287704Y-143930952D02*
X92087704Y-143930952D01*
X92087704Y-143930952D02*
X91973419Y-144007143D01*
X91973419Y-144007143D02*
X91897228Y-144083333D01*
X91897228Y-144083333D02*
X91859133Y-144159524D01*
X92087704Y-142978571D02*
X92087704Y-143359523D01*
X92087704Y-143359523D02*
X91706752Y-143397619D01*
X91706752Y-143397619D02*
X91744847Y-143359523D01*
X91744847Y-143359523D02*
X91782942Y-143283333D01*
X91782942Y-143283333D02*
X91782942Y-143092857D01*
X91782942Y-143092857D02*
X91744847Y-143016666D01*
X91744847Y-143016666D02*
X91706752Y-142978571D01*
X91706752Y-142978571D02*
X91630561Y-142940476D01*
X91630561Y-142940476D02*
X91440085Y-142940476D01*
X91440085Y-142940476D02*
X91363895Y-142978571D01*
X91363895Y-142978571D02*
X91325800Y-143016666D01*
X91325800Y-143016666D02*
X91287704Y-143092857D01*
X91287704Y-143092857D02*
X91287704Y-143283333D01*
X91287704Y-143283333D02*
X91325800Y-143359523D01*
X91325800Y-143359523D02*
X91363895Y-143397619D01*
X92112295Y-86878571D02*
X91312295Y-86878571D01*
X91312295Y-86878571D02*
X91312295Y-87069047D01*
X91312295Y-87069047D02*
X91350390Y-87183333D01*
X91350390Y-87183333D02*
X91426580Y-87259523D01*
X91426580Y-87259523D02*
X91502771Y-87297618D01*
X91502771Y-87297618D02*
X91655152Y-87335714D01*
X91655152Y-87335714D02*
X91769438Y-87335714D01*
X91769438Y-87335714D02*
X91921819Y-87297618D01*
X91921819Y-87297618D02*
X91998009Y-87259523D01*
X91998009Y-87259523D02*
X92074200Y-87183333D01*
X92074200Y-87183333D02*
X92112295Y-87069047D01*
X92112295Y-87069047D02*
X92112295Y-86878571D01*
X92112295Y-88097618D02*
X92112295Y-87640475D01*
X92112295Y-87869047D02*
X91312295Y-87869047D01*
X91312295Y-87869047D02*
X91426580Y-87792856D01*
X91426580Y-87792856D02*
X91502771Y-87716666D01*
X91502771Y-87716666D02*
X91540866Y-87640475D01*
X91388485Y-88402380D02*
X91350390Y-88440476D01*
X91350390Y-88440476D02*
X91312295Y-88516666D01*
X91312295Y-88516666D02*
X91312295Y-88707142D01*
X91312295Y-88707142D02*
X91350390Y-88783333D01*
X91350390Y-88783333D02*
X91388485Y-88821428D01*
X91388485Y-88821428D02*
X91464676Y-88859523D01*
X91464676Y-88859523D02*
X91540866Y-88859523D01*
X91540866Y-88859523D02*
X91655152Y-88821428D01*
X91655152Y-88821428D02*
X92112295Y-88364285D01*
X92112295Y-88364285D02*
X92112295Y-88859523D01*
X209387704Y-128621428D02*
X210187704Y-128621428D01*
X210187704Y-128621428D02*
X210187704Y-128430952D01*
X210187704Y-128430952D02*
X210149609Y-128316666D01*
X210149609Y-128316666D02*
X210073419Y-128240476D01*
X210073419Y-128240476D02*
X209997228Y-128202381D01*
X209997228Y-128202381D02*
X209844847Y-128164285D01*
X209844847Y-128164285D02*
X209730561Y-128164285D01*
X209730561Y-128164285D02*
X209578180Y-128202381D01*
X209578180Y-128202381D02*
X209501990Y-128240476D01*
X209501990Y-128240476D02*
X209425800Y-128316666D01*
X209425800Y-128316666D02*
X209387704Y-128430952D01*
X209387704Y-128430952D02*
X209387704Y-128621428D01*
X209387704Y-127402381D02*
X209387704Y-127859524D01*
X209387704Y-127630952D02*
X210187704Y-127630952D01*
X210187704Y-127630952D02*
X210073419Y-127707143D01*
X210073419Y-127707143D02*
X209997228Y-127783333D01*
X209997228Y-127783333D02*
X209959133Y-127859524D01*
X210111514Y-127097619D02*
X210149609Y-127059523D01*
X210149609Y-127059523D02*
X210187704Y-126983333D01*
X210187704Y-126983333D02*
X210187704Y-126792857D01*
X210187704Y-126792857D02*
X210149609Y-126716666D01*
X210149609Y-126716666D02*
X210111514Y-126678571D01*
X210111514Y-126678571D02*
X210035323Y-126640476D01*
X210035323Y-126640476D02*
X209959133Y-126640476D01*
X209959133Y-126640476D02*
X209844847Y-126678571D01*
X209844847Y-126678571D02*
X209387704Y-127135714D01*
X209387704Y-127135714D02*
X209387704Y-126640476D01*
X91287704Y-130921428D02*
X92087704Y-130921428D01*
X92087704Y-130921428D02*
X92087704Y-130730952D01*
X92087704Y-130730952D02*
X92049609Y-130616666D01*
X92049609Y-130616666D02*
X91973419Y-130540476D01*
X91973419Y-130540476D02*
X91897228Y-130502381D01*
X91897228Y-130502381D02*
X91744847Y-130464285D01*
X91744847Y-130464285D02*
X91630561Y-130464285D01*
X91630561Y-130464285D02*
X91478180Y-130502381D01*
X91478180Y-130502381D02*
X91401990Y-130540476D01*
X91401990Y-130540476D02*
X91325800Y-130616666D01*
X91325800Y-130616666D02*
X91287704Y-130730952D01*
X91287704Y-130730952D02*
X91287704Y-130921428D01*
X91287704Y-129702381D02*
X91287704Y-130159524D01*
X91287704Y-129930952D02*
X92087704Y-129930952D01*
X92087704Y-129930952D02*
X91973419Y-130007143D01*
X91973419Y-130007143D02*
X91897228Y-130083333D01*
X91897228Y-130083333D02*
X91859133Y-130159524D01*
X92087704Y-128978571D02*
X92087704Y-129359523D01*
X92087704Y-129359523D02*
X91706752Y-129397619D01*
X91706752Y-129397619D02*
X91744847Y-129359523D01*
X91744847Y-129359523D02*
X91782942Y-129283333D01*
X91782942Y-129283333D02*
X91782942Y-129092857D01*
X91782942Y-129092857D02*
X91744847Y-129016666D01*
X91744847Y-129016666D02*
X91706752Y-128978571D01*
X91706752Y-128978571D02*
X91630561Y-128940476D01*
X91630561Y-128940476D02*
X91440085Y-128940476D01*
X91440085Y-128940476D02*
X91363895Y-128978571D01*
X91363895Y-128978571D02*
X91325800Y-129016666D01*
X91325800Y-129016666D02*
X91287704Y-129092857D01*
X91287704Y-129092857D02*
X91287704Y-129283333D01*
X91287704Y-129283333D02*
X91325800Y-129359523D01*
X91325800Y-129359523D02*
X91363895Y-129397619D01*
X209387704Y-114621428D02*
X210187704Y-114621428D01*
X210187704Y-114621428D02*
X210187704Y-114430952D01*
X210187704Y-114430952D02*
X210149609Y-114316666D01*
X210149609Y-114316666D02*
X210073419Y-114240476D01*
X210073419Y-114240476D02*
X209997228Y-114202381D01*
X209997228Y-114202381D02*
X209844847Y-114164285D01*
X209844847Y-114164285D02*
X209730561Y-114164285D01*
X209730561Y-114164285D02*
X209578180Y-114202381D01*
X209578180Y-114202381D02*
X209501990Y-114240476D01*
X209501990Y-114240476D02*
X209425800Y-114316666D01*
X209425800Y-114316666D02*
X209387704Y-114430952D01*
X209387704Y-114430952D02*
X209387704Y-114621428D01*
X209387704Y-113402381D02*
X209387704Y-113859524D01*
X209387704Y-113630952D02*
X210187704Y-113630952D01*
X210187704Y-113630952D02*
X210073419Y-113707143D01*
X210073419Y-113707143D02*
X209997228Y-113783333D01*
X209997228Y-113783333D02*
X209959133Y-113859524D01*
X210111514Y-113097619D02*
X210149609Y-113059523D01*
X210149609Y-113059523D02*
X210187704Y-112983333D01*
X210187704Y-112983333D02*
X210187704Y-112792857D01*
X210187704Y-112792857D02*
X210149609Y-112716666D01*
X210149609Y-112716666D02*
X210111514Y-112678571D01*
X210111514Y-112678571D02*
X210035323Y-112640476D01*
X210035323Y-112640476D02*
X209959133Y-112640476D01*
X209959133Y-112640476D02*
X209844847Y-112678571D01*
X209844847Y-112678571D02*
X209387704Y-113135714D01*
X209387704Y-113135714D02*
X209387704Y-112640476D01*
X209387704Y-142621428D02*
X210187704Y-142621428D01*
X210187704Y-142621428D02*
X210187704Y-142430952D01*
X210187704Y-142430952D02*
X210149609Y-142316666D01*
X210149609Y-142316666D02*
X210073419Y-142240476D01*
X210073419Y-142240476D02*
X209997228Y-142202381D01*
X209997228Y-142202381D02*
X209844847Y-142164285D01*
X209844847Y-142164285D02*
X209730561Y-142164285D01*
X209730561Y-142164285D02*
X209578180Y-142202381D01*
X209578180Y-142202381D02*
X209501990Y-142240476D01*
X209501990Y-142240476D02*
X209425800Y-142316666D01*
X209425800Y-142316666D02*
X209387704Y-142430952D01*
X209387704Y-142430952D02*
X209387704Y-142621428D01*
X209387704Y-141402381D02*
X209387704Y-141859524D01*
X209387704Y-141630952D02*
X210187704Y-141630952D01*
X210187704Y-141630952D02*
X210073419Y-141707143D01*
X210073419Y-141707143D02*
X209997228Y-141783333D01*
X209997228Y-141783333D02*
X209959133Y-141859524D01*
X210111514Y-141097619D02*
X210149609Y-141059523D01*
X210149609Y-141059523D02*
X210187704Y-140983333D01*
X210187704Y-140983333D02*
X210187704Y-140792857D01*
X210187704Y-140792857D02*
X210149609Y-140716666D01*
X210149609Y-140716666D02*
X210111514Y-140678571D01*
X210111514Y-140678571D02*
X210035323Y-140640476D01*
X210035323Y-140640476D02*
X209959133Y-140640476D01*
X209959133Y-140640476D02*
X209844847Y-140678571D01*
X209844847Y-140678571D02*
X209387704Y-141135714D01*
X209387704Y-141135714D02*
X209387704Y-140640476D01*
X92112295Y-72878571D02*
X91312295Y-72878571D01*
X91312295Y-72878571D02*
X91312295Y-73069047D01*
X91312295Y-73069047D02*
X91350390Y-73183333D01*
X91350390Y-73183333D02*
X91426580Y-73259523D01*
X91426580Y-73259523D02*
X91502771Y-73297618D01*
X91502771Y-73297618D02*
X91655152Y-73335714D01*
X91655152Y-73335714D02*
X91769438Y-73335714D01*
X91769438Y-73335714D02*
X91921819Y-73297618D01*
X91921819Y-73297618D02*
X91998009Y-73259523D01*
X91998009Y-73259523D02*
X92074200Y-73183333D01*
X92074200Y-73183333D02*
X92112295Y-73069047D01*
X92112295Y-73069047D02*
X92112295Y-72878571D01*
X92112295Y-74097618D02*
X92112295Y-73640475D01*
X92112295Y-73869047D02*
X91312295Y-73869047D01*
X91312295Y-73869047D02*
X91426580Y-73792856D01*
X91426580Y-73792856D02*
X91502771Y-73716666D01*
X91502771Y-73716666D02*
X91540866Y-73640475D01*
X91388485Y-74402380D02*
X91350390Y-74440476D01*
X91350390Y-74440476D02*
X91312295Y-74516666D01*
X91312295Y-74516666D02*
X91312295Y-74707142D01*
X91312295Y-74707142D02*
X91350390Y-74783333D01*
X91350390Y-74783333D02*
X91388485Y-74821428D01*
X91388485Y-74821428D02*
X91464676Y-74859523D01*
X91464676Y-74859523D02*
X91540866Y-74859523D01*
X91540866Y-74859523D02*
X91655152Y-74821428D01*
X91655152Y-74821428D02*
X92112295Y-74364285D01*
X92112295Y-74364285D02*
X92112295Y-74859523D01*
X92112295Y-58878571D02*
X91312295Y-58878571D01*
X91312295Y-58878571D02*
X91312295Y-59069047D01*
X91312295Y-59069047D02*
X91350390Y-59183333D01*
X91350390Y-59183333D02*
X91426580Y-59259523D01*
X91426580Y-59259523D02*
X91502771Y-59297618D01*
X91502771Y-59297618D02*
X91655152Y-59335714D01*
X91655152Y-59335714D02*
X91769438Y-59335714D01*
X91769438Y-59335714D02*
X91921819Y-59297618D01*
X91921819Y-59297618D02*
X91998009Y-59259523D01*
X91998009Y-59259523D02*
X92074200Y-59183333D01*
X92074200Y-59183333D02*
X92112295Y-59069047D01*
X92112295Y-59069047D02*
X92112295Y-58878571D01*
X92112295Y-60097618D02*
X92112295Y-59640475D01*
X92112295Y-59869047D02*
X91312295Y-59869047D01*
X91312295Y-59869047D02*
X91426580Y-59792856D01*
X91426580Y-59792856D02*
X91502771Y-59716666D01*
X91502771Y-59716666D02*
X91540866Y-59640475D01*
X91388485Y-60402380D02*
X91350390Y-60440476D01*
X91350390Y-60440476D02*
X91312295Y-60516666D01*
X91312295Y-60516666D02*
X91312295Y-60707142D01*
X91312295Y-60707142D02*
X91350390Y-60783333D01*
X91350390Y-60783333D02*
X91388485Y-60821428D01*
X91388485Y-60821428D02*
X91464676Y-60859523D01*
X91464676Y-60859523D02*
X91540866Y-60859523D01*
X91540866Y-60859523D02*
X91655152Y-60821428D01*
X91655152Y-60821428D02*
X92112295Y-60364285D01*
X92112295Y-60364285D02*
X92112295Y-60859523D01*
X210212295Y-84578571D02*
X209412295Y-84578571D01*
X209412295Y-84578571D02*
X209412295Y-84769047D01*
X209412295Y-84769047D02*
X209450390Y-84883333D01*
X209450390Y-84883333D02*
X209526580Y-84959523D01*
X209526580Y-84959523D02*
X209602771Y-84997618D01*
X209602771Y-84997618D02*
X209755152Y-85035714D01*
X209755152Y-85035714D02*
X209869438Y-85035714D01*
X209869438Y-85035714D02*
X210021819Y-84997618D01*
X210021819Y-84997618D02*
X210098009Y-84959523D01*
X210098009Y-84959523D02*
X210174200Y-84883333D01*
X210174200Y-84883333D02*
X210212295Y-84769047D01*
X210212295Y-84769047D02*
X210212295Y-84578571D01*
X210212295Y-85797618D02*
X210212295Y-85340475D01*
X210212295Y-85569047D02*
X209412295Y-85569047D01*
X209412295Y-85569047D02*
X209526580Y-85492856D01*
X209526580Y-85492856D02*
X209602771Y-85416666D01*
X209602771Y-85416666D02*
X209640866Y-85340475D01*
X209412295Y-86521428D02*
X209412295Y-86140476D01*
X209412295Y-86140476D02*
X209793247Y-86102380D01*
X209793247Y-86102380D02*
X209755152Y-86140476D01*
X209755152Y-86140476D02*
X209717057Y-86216666D01*
X209717057Y-86216666D02*
X209717057Y-86407142D01*
X209717057Y-86407142D02*
X209755152Y-86483333D01*
X209755152Y-86483333D02*
X209793247Y-86521428D01*
X209793247Y-86521428D02*
X209869438Y-86559523D01*
X209869438Y-86559523D02*
X210059914Y-86559523D01*
X210059914Y-86559523D02*
X210136104Y-86521428D01*
X210136104Y-86521428D02*
X210174200Y-86483333D01*
X210174200Y-86483333D02*
X210212295Y-86407142D01*
X210212295Y-86407142D02*
X210212295Y-86216666D01*
X210212295Y-86216666D02*
X210174200Y-86140476D01*
X210174200Y-86140476D02*
X210136104Y-86102380D01*
X210212295Y-56578571D02*
X209412295Y-56578571D01*
X209412295Y-56578571D02*
X209412295Y-56769047D01*
X209412295Y-56769047D02*
X209450390Y-56883333D01*
X209450390Y-56883333D02*
X209526580Y-56959523D01*
X209526580Y-56959523D02*
X209602771Y-56997618D01*
X209602771Y-56997618D02*
X209755152Y-57035714D01*
X209755152Y-57035714D02*
X209869438Y-57035714D01*
X209869438Y-57035714D02*
X210021819Y-56997618D01*
X210021819Y-56997618D02*
X210098009Y-56959523D01*
X210098009Y-56959523D02*
X210174200Y-56883333D01*
X210174200Y-56883333D02*
X210212295Y-56769047D01*
X210212295Y-56769047D02*
X210212295Y-56578571D01*
X210212295Y-57797618D02*
X210212295Y-57340475D01*
X210212295Y-57569047D02*
X209412295Y-57569047D01*
X209412295Y-57569047D02*
X209526580Y-57492856D01*
X209526580Y-57492856D02*
X209602771Y-57416666D01*
X209602771Y-57416666D02*
X209640866Y-57340475D01*
X209412295Y-58521428D02*
X209412295Y-58140476D01*
X209412295Y-58140476D02*
X209793247Y-58102380D01*
X209793247Y-58102380D02*
X209755152Y-58140476D01*
X209755152Y-58140476D02*
X209717057Y-58216666D01*
X209717057Y-58216666D02*
X209717057Y-58407142D01*
X209717057Y-58407142D02*
X209755152Y-58483333D01*
X209755152Y-58483333D02*
X209793247Y-58521428D01*
X209793247Y-58521428D02*
X209869438Y-58559523D01*
X209869438Y-58559523D02*
X210059914Y-58559523D01*
X210059914Y-58559523D02*
X210136104Y-58521428D01*
X210136104Y-58521428D02*
X210174200Y-58483333D01*
X210174200Y-58483333D02*
X210212295Y-58407142D01*
X210212295Y-58407142D02*
X210212295Y-58216666D01*
X210212295Y-58216666D02*
X210174200Y-58140476D01*
X210174200Y-58140476D02*
X210136104Y-58102380D01*
X210212295Y-70578571D02*
X209412295Y-70578571D01*
X209412295Y-70578571D02*
X209412295Y-70769047D01*
X209412295Y-70769047D02*
X209450390Y-70883333D01*
X209450390Y-70883333D02*
X209526580Y-70959523D01*
X209526580Y-70959523D02*
X209602771Y-70997618D01*
X209602771Y-70997618D02*
X209755152Y-71035714D01*
X209755152Y-71035714D02*
X209869438Y-71035714D01*
X209869438Y-71035714D02*
X210021819Y-70997618D01*
X210021819Y-70997618D02*
X210098009Y-70959523D01*
X210098009Y-70959523D02*
X210174200Y-70883333D01*
X210174200Y-70883333D02*
X210212295Y-70769047D01*
X210212295Y-70769047D02*
X210212295Y-70578571D01*
X210212295Y-71797618D02*
X210212295Y-71340475D01*
X210212295Y-71569047D02*
X209412295Y-71569047D01*
X209412295Y-71569047D02*
X209526580Y-71492856D01*
X209526580Y-71492856D02*
X209602771Y-71416666D01*
X209602771Y-71416666D02*
X209640866Y-71340475D01*
X209412295Y-72521428D02*
X209412295Y-72140476D01*
X209412295Y-72140476D02*
X209793247Y-72102380D01*
X209793247Y-72102380D02*
X209755152Y-72140476D01*
X209755152Y-72140476D02*
X209717057Y-72216666D01*
X209717057Y-72216666D02*
X209717057Y-72407142D01*
X209717057Y-72407142D02*
X209755152Y-72483333D01*
X209755152Y-72483333D02*
X209793247Y-72521428D01*
X209793247Y-72521428D02*
X209869438Y-72559523D01*
X209869438Y-72559523D02*
X210059914Y-72559523D01*
X210059914Y-72559523D02*
X210136104Y-72521428D01*
X210136104Y-72521428D02*
X210174200Y-72483333D01*
X210174200Y-72483333D02*
X210212295Y-72407142D01*
X210212295Y-72407142D02*
X210212295Y-72216666D01*
X210212295Y-72216666D02*
X210174200Y-72140476D01*
X210174200Y-72140476D02*
X210136104Y-72102380D01*
D11*
X163400000Y-70520000D02*
X165900000Y-70520000D01*
X163400000Y-71780000D02*
X163400000Y-70520000D01*
X165900000Y-71780000D02*
X163400000Y-71780000D01*
X165900000Y-71780000D02*
X165900000Y-70520000D01*
X135600000Y-143720000D02*
X135600000Y-144980000D01*
X135600000Y-143720000D02*
X138100000Y-143720000D01*
X138100000Y-143720000D02*
X138100000Y-144980000D01*
X138100000Y-144980000D02*
X135600000Y-144980000D01*
X163400000Y-98520000D02*
X165900000Y-98520000D01*
X163400000Y-99780000D02*
X163400000Y-98520000D01*
X165900000Y-99780000D02*
X163400000Y-99780000D01*
X165900000Y-99780000D02*
X165900000Y-98520000D01*
X163400000Y-84520000D02*
X165900000Y-84520000D01*
X163400000Y-85780000D02*
X163400000Y-84520000D01*
X165900000Y-85780000D02*
X163400000Y-85780000D01*
X165900000Y-85780000D02*
X165900000Y-84520000D01*
X135600000Y-129720000D02*
X135600000Y-130980000D01*
X135600000Y-129720000D02*
X138100000Y-129720000D01*
X138100000Y-129720000D02*
X138100000Y-130980000D01*
X138100000Y-130980000D02*
X135600000Y-130980000D01*
X135600000Y-115720000D02*
X135600000Y-116980000D01*
X135600000Y-115720000D02*
X138100000Y-115720000D01*
X138100000Y-115720000D02*
X138100000Y-116980000D01*
X138100000Y-116980000D02*
X135600000Y-116980000D01*
X163400000Y-56520000D02*
X165900000Y-56520000D01*
X163400000Y-57780000D02*
X163400000Y-56520000D01*
X165900000Y-57780000D02*
X163400000Y-57780000D01*
X165900000Y-57780000D02*
X165900000Y-56520000D01*
D12*
X89750000Y-115500000D02*
X89750000Y-114000000D01*
X90150000Y-115330000D02*
X90150000Y-114170000D01*
X90750000Y-114500000D02*
X91000000Y-114250000D01*
X90750000Y-115000000D02*
X90750000Y-114500000D01*
X91000000Y-114250000D02*
X91000000Y-113500000D01*
X91000000Y-115250000D02*
X90750000Y-115000000D01*
X91000000Y-116000000D02*
X91000000Y-115250000D01*
X210500000Y-99500000D02*
X210500000Y-100250000D01*
X210500000Y-100250000D02*
X210750000Y-100500000D01*
X210500000Y-101250000D02*
X210500000Y-102000000D01*
X210750000Y-100500000D02*
X210750000Y-101000000D01*
X210750000Y-101000000D02*
X210500000Y-101250000D01*
X211350000Y-100170000D02*
X211350000Y-101330000D01*
X211750000Y-100000000D02*
X211750000Y-101500000D01*
X89750000Y-101500000D02*
X89750000Y-100000000D01*
X90150000Y-101330000D02*
X90150000Y-100170000D01*
X90750000Y-100500000D02*
X91000000Y-100250000D01*
X90750000Y-101000000D02*
X90750000Y-100500000D01*
X91000000Y-100250000D02*
X91000000Y-99500000D01*
X91000000Y-101250000D02*
X90750000Y-101000000D01*
X91000000Y-102000000D02*
X91000000Y-101250000D01*
X89750000Y-143500000D02*
X89750000Y-142000000D01*
X90150000Y-143330000D02*
X90150000Y-142170000D01*
X90750000Y-142500000D02*
X91000000Y-142250000D01*
X90750000Y-143000000D02*
X90750000Y-142500000D01*
X91000000Y-142250000D02*
X91000000Y-141500000D01*
X91000000Y-143250000D02*
X90750000Y-143000000D01*
X91000000Y-144000000D02*
X91000000Y-143250000D01*
X89750000Y-87500000D02*
X89750000Y-86000000D01*
X90150000Y-87330000D02*
X90150000Y-86170000D01*
X90750000Y-86500000D02*
X91000000Y-86250000D01*
X90750000Y-87000000D02*
X90750000Y-86500000D01*
X91000000Y-86250000D02*
X91000000Y-85500000D01*
X91000000Y-87250000D02*
X90750000Y-87000000D01*
X91000000Y-88000000D02*
X91000000Y-87250000D01*
X210500000Y-127500000D02*
X210500000Y-128250000D01*
X210500000Y-128250000D02*
X210750000Y-128500000D01*
X210500000Y-129250000D02*
X210500000Y-130000000D01*
X210750000Y-128500000D02*
X210750000Y-129000000D01*
X210750000Y-129000000D02*
X210500000Y-129250000D01*
X211350000Y-128170000D02*
X211350000Y-129330000D01*
X211750000Y-128000000D02*
X211750000Y-129500000D01*
X89750000Y-129500000D02*
X89750000Y-128000000D01*
X90150000Y-129330000D02*
X90150000Y-128170000D01*
X90750000Y-128500000D02*
X91000000Y-128250000D01*
X90750000Y-129000000D02*
X90750000Y-128500000D01*
X91000000Y-128250000D02*
X91000000Y-127500000D01*
X91000000Y-129250000D02*
X90750000Y-129000000D01*
X91000000Y-130000000D02*
X91000000Y-129250000D01*
X210500000Y-113500000D02*
X210500000Y-114250000D01*
X210500000Y-114250000D02*
X210750000Y-114500000D01*
X210500000Y-115250000D02*
X210500000Y-116000000D01*
X210750000Y-114500000D02*
X210750000Y-115000000D01*
X210750000Y-115000000D02*
X210500000Y-115250000D01*
X211350000Y-114170000D02*
X211350000Y-115330000D01*
X211750000Y-114000000D02*
X211750000Y-115500000D01*
X210500000Y-141500000D02*
X210500000Y-142250000D01*
X210500000Y-142250000D02*
X210750000Y-142500000D01*
X210500000Y-143250000D02*
X210500000Y-144000000D01*
X210750000Y-142500000D02*
X210750000Y-143000000D01*
X210750000Y-143000000D02*
X210500000Y-143250000D01*
X211350000Y-142170000D02*
X211350000Y-143330000D01*
X211750000Y-142000000D02*
X211750000Y-143500000D01*
X89750000Y-73500000D02*
X89750000Y-72000000D01*
X90150000Y-73330000D02*
X90150000Y-72170000D01*
X90750000Y-72500000D02*
X91000000Y-72250000D01*
X90750000Y-73000000D02*
X90750000Y-72500000D01*
X91000000Y-72250000D02*
X91000000Y-71500000D01*
X91000000Y-73250000D02*
X90750000Y-73000000D01*
X91000000Y-74000000D02*
X91000000Y-73250000D01*
X89750000Y-59500000D02*
X89750000Y-58000000D01*
X90150000Y-59330000D02*
X90150000Y-58170000D01*
X90750000Y-58500000D02*
X91000000Y-58250000D01*
X90750000Y-59000000D02*
X90750000Y-58500000D01*
X91000000Y-58250000D02*
X91000000Y-57500000D01*
X91000000Y-59250000D02*
X90750000Y-59000000D01*
X91000000Y-60000000D02*
X91000000Y-59250000D01*
X210500000Y-85500000D02*
X210500000Y-86250000D01*
X210500000Y-86250000D02*
X210750000Y-86500000D01*
X210500000Y-87250000D02*
X210500000Y-88000000D01*
X210750000Y-86500000D02*
X210750000Y-87000000D01*
X210750000Y-87000000D02*
X210500000Y-87250000D01*
X211350000Y-86170000D02*
X211350000Y-87330000D01*
X211750000Y-86000000D02*
X211750000Y-87500000D01*
X210500000Y-57500000D02*
X210500000Y-58250000D01*
X210500000Y-58250000D02*
X210750000Y-58500000D01*
X210500000Y-59250000D02*
X210500000Y-60000000D01*
X210750000Y-58500000D02*
X210750000Y-59000000D01*
X210750000Y-59000000D02*
X210500000Y-59250000D01*
X211350000Y-58170000D02*
X211350000Y-59330000D01*
X211750000Y-58000000D02*
X211750000Y-59500000D01*
X210500000Y-71500000D02*
X210500000Y-72250000D01*
X210500000Y-72250000D02*
X210750000Y-72500000D01*
X210500000Y-73250000D02*
X210500000Y-74000000D01*
X210750000Y-72500000D02*
X210750000Y-73000000D01*
X210750000Y-73000000D02*
X210500000Y-73250000D01*
X211350000Y-72170000D02*
X211350000Y-73330000D01*
X211750000Y-72000000D02*
X211750000Y-73500000D01*
G36*
X97943039Y-81769685D02*
G01*
X97988794Y-81822489D01*
X98000000Y-81874000D01*
X98000000Y-91626000D01*
X97980315Y-91693039D01*
X97927511Y-91738794D01*
X97876000Y-91750000D01*
X92624000Y-91750000D01*
X92556961Y-91730315D01*
X92511206Y-91677511D01*
X92500000Y-91626000D01*
X92500000Y-89301362D01*
X92519685Y-89234323D01*
X92536319Y-89213681D01*
X92749999Y-89000000D01*
X92750000Y-88999999D01*
X92750000Y-84500000D01*
X92536319Y-84286319D01*
X92502834Y-84224996D01*
X92500000Y-84198638D01*
X92500000Y-81874000D01*
X92519685Y-81806961D01*
X92572489Y-81761206D01*
X92624000Y-81750000D01*
X97876000Y-81750000D01*
X97943039Y-81769685D01*
G37*
G36*
X97943039Y-137769685D02*
G01*
X97988794Y-137822489D01*
X98000000Y-137874000D01*
X98000000Y-147626000D01*
X97980315Y-147693039D01*
X97927511Y-147738794D01*
X97876000Y-147750000D01*
X92624000Y-147750000D01*
X92556961Y-147730315D01*
X92511206Y-147677511D01*
X92500000Y-147626000D01*
X92500000Y-145301362D01*
X92519685Y-145234323D01*
X92536319Y-145213681D01*
X92749999Y-145000000D01*
X92750000Y-144999999D01*
X92750000Y-140500000D01*
X92536319Y-140286319D01*
X92502834Y-140224996D01*
X92500000Y-140198638D01*
X92500000Y-137874000D01*
X92519685Y-137806961D01*
X92572489Y-137761206D01*
X92624000Y-137750000D01*
X97876000Y-137750000D01*
X97943039Y-137769685D01*
G37*
G36*
X208943039Y-123769685D02*
G01*
X208988794Y-123822489D01*
X209000000Y-123874000D01*
X209000000Y-126198638D01*
X208980315Y-126265677D01*
X208963681Y-126286319D01*
X208750000Y-126499999D01*
X208750000Y-131000000D01*
X208963681Y-131213681D01*
X208997166Y-131275004D01*
X209000000Y-131301362D01*
X209000000Y-133626000D01*
X208980315Y-133693039D01*
X208927511Y-133738794D01*
X208876000Y-133750000D01*
X203624000Y-133750000D01*
X203556961Y-133730315D01*
X203511206Y-133677511D01*
X203500000Y-133626000D01*
X203500000Y-123874000D01*
X203519685Y-123806961D01*
X203572489Y-123761206D01*
X203624000Y-123750000D01*
X208876000Y-123750000D01*
X208943039Y-123769685D01*
G37*
G36*
X208943039Y-81769685D02*
G01*
X208988794Y-81822489D01*
X209000000Y-81874000D01*
X209000000Y-84198638D01*
X208980315Y-84265677D01*
X208963681Y-84286319D01*
X208750000Y-84499999D01*
X208750000Y-89000000D01*
X208963681Y-89213681D01*
X208997166Y-89275004D01*
X209000000Y-89301362D01*
X209000000Y-91626000D01*
X208980315Y-91693039D01*
X208927511Y-91738794D01*
X208876000Y-91750000D01*
X203624000Y-91750000D01*
X203556961Y-91730315D01*
X203511206Y-91677511D01*
X203500000Y-91626000D01*
X203500000Y-81874000D01*
X203519685Y-81806961D01*
X203572489Y-81761206D01*
X203624000Y-81750000D01*
X208876000Y-81750000D01*
X208943039Y-81769685D01*
G37*
G36*
X97943039Y-67769685D02*
G01*
X97988794Y-67822489D01*
X98000000Y-67874000D01*
X98000000Y-77626000D01*
X97980315Y-77693039D01*
X97927511Y-77738794D01*
X97876000Y-77750000D01*
X92624000Y-77750000D01*
X92556961Y-77730315D01*
X92511206Y-77677511D01*
X92500000Y-77626000D01*
X92500000Y-75301362D01*
X92519685Y-75234323D01*
X92536319Y-75213681D01*
X92749999Y-75000000D01*
X92750000Y-74999999D01*
X92750000Y-70500000D01*
X92536319Y-70286319D01*
X92502834Y-70224996D01*
X92500000Y-70198638D01*
X92500000Y-67874000D01*
X92519685Y-67806961D01*
X92572489Y-67761206D01*
X92624000Y-67750000D01*
X97876000Y-67750000D01*
X97943039Y-67769685D01*
G37*
G36*
X156961979Y-136752382D02*
G01*
X157040611Y-136768022D01*
X157085311Y-136786537D01*
X157141623Y-136824163D01*
X157175836Y-136858376D01*
X157213462Y-136914688D01*
X157231976Y-136959387D01*
X157247617Y-137038019D01*
X157250000Y-137062210D01*
X157250000Y-141250000D01*
X161750000Y-141250000D01*
X161750000Y-137062210D01*
X161752382Y-137038020D01*
X161768022Y-136959388D01*
X161786537Y-136914688D01*
X161824163Y-136858376D01*
X161858376Y-136824163D01*
X161914688Y-136786537D01*
X161959388Y-136768022D01*
X162038021Y-136752382D01*
X162062211Y-136750000D01*
X191187789Y-136750000D01*
X191211979Y-136752382D01*
X191290611Y-136768022D01*
X191335311Y-136786537D01*
X191391623Y-136824163D01*
X191425836Y-136858376D01*
X191463462Y-136914688D01*
X191481976Y-136959387D01*
X191497617Y-137038019D01*
X191500000Y-137062210D01*
X191500000Y-148437789D01*
X191497617Y-148461980D01*
X191481976Y-148540612D01*
X191463462Y-148585311D01*
X191425836Y-148641623D01*
X191391623Y-148675836D01*
X191335311Y-148713462D01*
X191290612Y-148731976D01*
X191211980Y-148747617D01*
X191187789Y-148750000D01*
X162062211Y-148750000D01*
X162038020Y-148747617D01*
X161959387Y-148731976D01*
X161914688Y-148713462D01*
X161858376Y-148675836D01*
X161824163Y-148641623D01*
X161786537Y-148585311D01*
X161768022Y-148540611D01*
X161752382Y-148461979D01*
X161750000Y-148437789D01*
X161750000Y-144250000D01*
X157250000Y-144250000D01*
X157250000Y-148437789D01*
X157247617Y-148461980D01*
X157231976Y-148540612D01*
X157213462Y-148585311D01*
X157175836Y-148641623D01*
X157141623Y-148675836D01*
X157085311Y-148713462D01*
X157040612Y-148731976D01*
X156961980Y-148747617D01*
X156937789Y-148750000D01*
X110312211Y-148750000D01*
X110288020Y-148747617D01*
X110209387Y-148731976D01*
X110164688Y-148713462D01*
X110108376Y-148675836D01*
X110074163Y-148641623D01*
X110036537Y-148585311D01*
X110018022Y-148540611D01*
X110002382Y-148461979D01*
X110000000Y-148437789D01*
X110000000Y-137062210D01*
X110002382Y-137038020D01*
X110018022Y-136959388D01*
X110036537Y-136914688D01*
X110074163Y-136858376D01*
X110108376Y-136824163D01*
X110164688Y-136786537D01*
X110209388Y-136768022D01*
X110288021Y-136752382D01*
X110312211Y-136750000D01*
X156937789Y-136750000D01*
X156961979Y-136752382D01*
G37*
G36*
X156961979Y-108752382D02*
G01*
X157040611Y-108768022D01*
X157085311Y-108786537D01*
X157141623Y-108824163D01*
X157175836Y-108858376D01*
X157213462Y-108914688D01*
X157231976Y-108959387D01*
X157247617Y-109038019D01*
X157250000Y-109062210D01*
X157250000Y-113250000D01*
X161750000Y-113250000D01*
X161750000Y-109062210D01*
X161752382Y-109038020D01*
X161768022Y-108959388D01*
X161786537Y-108914688D01*
X161824163Y-108858376D01*
X161858376Y-108824163D01*
X161914688Y-108786537D01*
X161959388Y-108768022D01*
X162038021Y-108752382D01*
X162062211Y-108750000D01*
X191187789Y-108750000D01*
X191211979Y-108752382D01*
X191290611Y-108768022D01*
X191335311Y-108786537D01*
X191391623Y-108824163D01*
X191425836Y-108858376D01*
X191463462Y-108914688D01*
X191481976Y-108959387D01*
X191497617Y-109038019D01*
X191500000Y-109062210D01*
X191500000Y-120437789D01*
X191497617Y-120461980D01*
X191481976Y-120540612D01*
X191463462Y-120585311D01*
X191425836Y-120641623D01*
X191391623Y-120675836D01*
X191335311Y-120713462D01*
X191290612Y-120731976D01*
X191211980Y-120747617D01*
X191187789Y-120750000D01*
X162062211Y-120750000D01*
X162038020Y-120747617D01*
X161959387Y-120731976D01*
X161914688Y-120713462D01*
X161858376Y-120675836D01*
X161824163Y-120641623D01*
X161786537Y-120585311D01*
X161768022Y-120540611D01*
X161752382Y-120461979D01*
X161750000Y-120437789D01*
X161750000Y-116250000D01*
X157250000Y-116250000D01*
X157250000Y-120437789D01*
X157247617Y-120461980D01*
X157231976Y-120540612D01*
X157213462Y-120585311D01*
X157175836Y-120641623D01*
X157141623Y-120675836D01*
X157085311Y-120713462D01*
X157040612Y-120731976D01*
X156961980Y-120747617D01*
X156937789Y-120750000D01*
X110312211Y-120750000D01*
X110288020Y-120747617D01*
X110209387Y-120731976D01*
X110164688Y-120713462D01*
X110108376Y-120675836D01*
X110074163Y-120641623D01*
X110036537Y-120585311D01*
X110018022Y-120540611D01*
X110002382Y-120461979D01*
X110000000Y-120437789D01*
X110000000Y-109062210D01*
X110002382Y-109038020D01*
X110018022Y-108959388D01*
X110036537Y-108914688D01*
X110074163Y-108858376D01*
X110108376Y-108824163D01*
X110164688Y-108786537D01*
X110209388Y-108768022D01*
X110288021Y-108752382D01*
X110312211Y-108750000D01*
X156937789Y-108750000D01*
X156961979Y-108752382D01*
G37*
G36*
X97943039Y-95769685D02*
G01*
X97988794Y-95822489D01*
X98000000Y-95874000D01*
X98000000Y-105626000D01*
X97980315Y-105693039D01*
X97927511Y-105738794D01*
X97876000Y-105750000D01*
X92624000Y-105750000D01*
X92556961Y-105730315D01*
X92511206Y-105677511D01*
X92500000Y-105626000D01*
X92500000Y-103301362D01*
X92519685Y-103234323D01*
X92536319Y-103213681D01*
X92749999Y-103000000D01*
X92750000Y-102999999D01*
X92750000Y-98500000D01*
X92536319Y-98286319D01*
X92502834Y-98224996D01*
X92500000Y-98198638D01*
X92500000Y-95874000D01*
X92519685Y-95806961D01*
X92572489Y-95761206D01*
X92624000Y-95750000D01*
X97876000Y-95750000D01*
X97943039Y-95769685D01*
G37*
G36*
X208943039Y-53769685D02*
G01*
X208988794Y-53822489D01*
X209000000Y-53874000D01*
X209000000Y-56198638D01*
X208980315Y-56265677D01*
X208963681Y-56286319D01*
X208750000Y-56499999D01*
X208750000Y-61000000D01*
X208963681Y-61213681D01*
X208997166Y-61275004D01*
X209000000Y-61301362D01*
X209000000Y-63626000D01*
X208980315Y-63693039D01*
X208927511Y-63738794D01*
X208876000Y-63750000D01*
X203624000Y-63750000D01*
X203556961Y-63730315D01*
X203511206Y-63677511D01*
X203500000Y-63626000D01*
X203500000Y-53874000D01*
X203519685Y-53806961D01*
X203572489Y-53761206D01*
X203624000Y-53750000D01*
X208876000Y-53750000D01*
X208943039Y-53769685D01*
G37*
G36*
X139461979Y-94752382D02*
G01*
X139540611Y-94768022D01*
X139585311Y-94786537D01*
X139641623Y-94824163D01*
X139675836Y-94858376D01*
X139713462Y-94914688D01*
X139731976Y-94959387D01*
X139747617Y-95038019D01*
X139750000Y-95062210D01*
X139750000Y-99250000D01*
X144250000Y-99250000D01*
X144250000Y-95062210D01*
X144252382Y-95038020D01*
X144268022Y-94959388D01*
X144286537Y-94914688D01*
X144324163Y-94858376D01*
X144358376Y-94824163D01*
X144414688Y-94786537D01*
X144459388Y-94768022D01*
X144538021Y-94752382D01*
X144562211Y-94750000D01*
X191187789Y-94750000D01*
X191211979Y-94752382D01*
X191290611Y-94768022D01*
X191335311Y-94786537D01*
X191391623Y-94824163D01*
X191425836Y-94858376D01*
X191463462Y-94914688D01*
X191481976Y-94959387D01*
X191497617Y-95038019D01*
X191500000Y-95062210D01*
X191500000Y-106437789D01*
X191497617Y-106461980D01*
X191481976Y-106540612D01*
X191463462Y-106585311D01*
X191425836Y-106641623D01*
X191391623Y-106675836D01*
X191335311Y-106713462D01*
X191290612Y-106731976D01*
X191211980Y-106747617D01*
X191187789Y-106750000D01*
X144562211Y-106750000D01*
X144538020Y-106747617D01*
X144459387Y-106731976D01*
X144414688Y-106713462D01*
X144358376Y-106675836D01*
X144324163Y-106641623D01*
X144286537Y-106585311D01*
X144268022Y-106540611D01*
X144252382Y-106461979D01*
X144250000Y-106437789D01*
X144250000Y-102250000D01*
X139750000Y-102250000D01*
X139750000Y-106437789D01*
X139747617Y-106461980D01*
X139731976Y-106540612D01*
X139713462Y-106585311D01*
X139675836Y-106641623D01*
X139641623Y-106675836D01*
X139585311Y-106713462D01*
X139540612Y-106731976D01*
X139461980Y-106747617D01*
X139437789Y-106750000D01*
X110312211Y-106750000D01*
X110288020Y-106747617D01*
X110209387Y-106731976D01*
X110164688Y-106713462D01*
X110108376Y-106675836D01*
X110074163Y-106641623D01*
X110036537Y-106585311D01*
X110018022Y-106540611D01*
X110002382Y-106461979D01*
X110000000Y-106437789D01*
X110000000Y-95062210D01*
X110002382Y-95038020D01*
X110018022Y-94959388D01*
X110036537Y-94914688D01*
X110074163Y-94858376D01*
X110108376Y-94824163D01*
X110164688Y-94786537D01*
X110209388Y-94768022D01*
X110288021Y-94752382D01*
X110312211Y-94750000D01*
X139437789Y-94750000D01*
X139461979Y-94752382D01*
G37*
G36*
X97943039Y-109769685D02*
G01*
X97988794Y-109822489D01*
X98000000Y-109874000D01*
X98000000Y-119626000D01*
X97980315Y-119693039D01*
X97927511Y-119738794D01*
X97876000Y-119750000D01*
X92624000Y-119750000D01*
X92556961Y-119730315D01*
X92511206Y-119677511D01*
X92500000Y-119626000D01*
X92500000Y-117301362D01*
X92519685Y-117234323D01*
X92536319Y-117213681D01*
X92749999Y-117000000D01*
X92750000Y-116999999D01*
X92750000Y-112500000D01*
X92536319Y-112286319D01*
X92502834Y-112224996D01*
X92500000Y-112198638D01*
X92500000Y-109874000D01*
X92519685Y-109806961D01*
X92572489Y-109761206D01*
X92624000Y-109750000D01*
X97876000Y-109750000D01*
X97943039Y-109769685D01*
G37*
G36*
X97943039Y-123769685D02*
G01*
X97988794Y-123822489D01*
X98000000Y-123874000D01*
X98000000Y-133626000D01*
X97980315Y-133693039D01*
X97927511Y-133738794D01*
X97876000Y-133750000D01*
X92624000Y-133750000D01*
X92556961Y-133730315D01*
X92511206Y-133677511D01*
X92500000Y-133626000D01*
X92500000Y-131301362D01*
X92519685Y-131234323D01*
X92536319Y-131213681D01*
X92749999Y-131000000D01*
X92750000Y-130999999D01*
X92750000Y-126500000D01*
X92536319Y-126286319D01*
X92502834Y-126224996D01*
X92500000Y-126198638D01*
X92500000Y-123874000D01*
X92519685Y-123806961D01*
X92572489Y-123761206D01*
X92624000Y-123750000D01*
X97876000Y-123750000D01*
X97943039Y-123769685D01*
G37*
G36*
X208943039Y-95769685D02*
G01*
X208988794Y-95822489D01*
X209000000Y-95874000D01*
X209000000Y-98198638D01*
X208980315Y-98265677D01*
X208963681Y-98286319D01*
X208750000Y-98499999D01*
X208750000Y-103000000D01*
X208963681Y-103213681D01*
X208997166Y-103275004D01*
X209000000Y-103301362D01*
X209000000Y-105626000D01*
X208980315Y-105693039D01*
X208927511Y-105738794D01*
X208876000Y-105750000D01*
X203624000Y-105750000D01*
X203556961Y-105730315D01*
X203511206Y-105677511D01*
X203500000Y-105626000D01*
X203500000Y-95874000D01*
X203519685Y-95806961D01*
X203572489Y-95761206D01*
X203624000Y-95750000D01*
X208876000Y-95750000D01*
X208943039Y-95769685D01*
G37*
G36*
X208943039Y-67769685D02*
G01*
X208988794Y-67822489D01*
X209000000Y-67874000D01*
X209000000Y-70198638D01*
X208980315Y-70265677D01*
X208963681Y-70286319D01*
X208750000Y-70499999D01*
X208750000Y-75000000D01*
X208963681Y-75213681D01*
X208997166Y-75275004D01*
X209000000Y-75301362D01*
X209000000Y-77626000D01*
X208980315Y-77693039D01*
X208927511Y-77738794D01*
X208876000Y-77750000D01*
X203624000Y-77750000D01*
X203556961Y-77730315D01*
X203511206Y-77677511D01*
X203500000Y-77626000D01*
X203500000Y-67874000D01*
X203519685Y-67806961D01*
X203572489Y-67761206D01*
X203624000Y-67750000D01*
X208876000Y-67750000D01*
X208943039Y-67769685D01*
G37*
G36*
X208943039Y-109769685D02*
G01*
X208988794Y-109822489D01*
X209000000Y-109874000D01*
X209000000Y-112198638D01*
X208980315Y-112265677D01*
X208963681Y-112286319D01*
X208750000Y-112499999D01*
X208750000Y-117000000D01*
X208963681Y-117213681D01*
X208997166Y-117275004D01*
X209000000Y-117301362D01*
X209000000Y-119626000D01*
X208980315Y-119693039D01*
X208927511Y-119738794D01*
X208876000Y-119750000D01*
X203624000Y-119750000D01*
X203556961Y-119730315D01*
X203511206Y-119677511D01*
X203500000Y-119626000D01*
X203500000Y-109874000D01*
X203519685Y-109806961D01*
X203572489Y-109761206D01*
X203624000Y-109750000D01*
X208876000Y-109750000D01*
X208943039Y-109769685D01*
G37*
G36*
X208943039Y-137769685D02*
G01*
X208988794Y-137822489D01*
X209000000Y-137874000D01*
X209000000Y-140198638D01*
X208980315Y-140265677D01*
X208963681Y-140286319D01*
X208750000Y-140499999D01*
X208750000Y-145000000D01*
X208963681Y-145213681D01*
X208997166Y-145275004D01*
X209000000Y-145301362D01*
X209000000Y-147626000D01*
X208980315Y-147693039D01*
X208927511Y-147738794D01*
X208876000Y-147750000D01*
X203624000Y-147750000D01*
X203556961Y-147730315D01*
X203511206Y-147677511D01*
X203500000Y-147626000D01*
X203500000Y-137874000D01*
X203519685Y-137806961D01*
X203572489Y-137761206D01*
X203624000Y-137750000D01*
X208876000Y-137750000D01*
X208943039Y-137769685D01*
G37*
G36*
X139461979Y-52752382D02*
G01*
X139540611Y-52768022D01*
X139585311Y-52786537D01*
X139641623Y-52824163D01*
X139675836Y-52858376D01*
X139713462Y-52914688D01*
X139731976Y-52959387D01*
X139747617Y-53038019D01*
X139750000Y-53062210D01*
X139750000Y-57250000D01*
X144250000Y-57250000D01*
X144250000Y-53062210D01*
X144252382Y-53038020D01*
X144268022Y-52959388D01*
X144286537Y-52914688D01*
X144324163Y-52858376D01*
X144358376Y-52824163D01*
X144414688Y-52786537D01*
X144459388Y-52768022D01*
X144538021Y-52752382D01*
X144562211Y-52750000D01*
X191187789Y-52750000D01*
X191211979Y-52752382D01*
X191290611Y-52768022D01*
X191335311Y-52786537D01*
X191391623Y-52824163D01*
X191425836Y-52858376D01*
X191463462Y-52914688D01*
X191481976Y-52959387D01*
X191497617Y-53038019D01*
X191500000Y-53062210D01*
X191500000Y-64437789D01*
X191497617Y-64461980D01*
X191481976Y-64540612D01*
X191463462Y-64585311D01*
X191425836Y-64641623D01*
X191391623Y-64675836D01*
X191335311Y-64713462D01*
X191290612Y-64731976D01*
X191211980Y-64747617D01*
X191187789Y-64750000D01*
X144562211Y-64750000D01*
X144538020Y-64747617D01*
X144459387Y-64731976D01*
X144414688Y-64713462D01*
X144358376Y-64675836D01*
X144324163Y-64641623D01*
X144286537Y-64585311D01*
X144268022Y-64540611D01*
X144252382Y-64461979D01*
X144250000Y-64437789D01*
X144250000Y-60250000D01*
X139750000Y-60250000D01*
X139750000Y-64437789D01*
X139747617Y-64461980D01*
X139731976Y-64540612D01*
X139713462Y-64585311D01*
X139675836Y-64641623D01*
X139641623Y-64675836D01*
X139585311Y-64713462D01*
X139540612Y-64731976D01*
X139461980Y-64747617D01*
X139437789Y-64750000D01*
X110312211Y-64750000D01*
X110288020Y-64747617D01*
X110209387Y-64731976D01*
X110164688Y-64713462D01*
X110108376Y-64675836D01*
X110074163Y-64641623D01*
X110036537Y-64585311D01*
X110018022Y-64540611D01*
X110002382Y-64461979D01*
X110000000Y-64437789D01*
X110000000Y-53062210D01*
X110002382Y-53038020D01*
X110018022Y-52959388D01*
X110036537Y-52914688D01*
X110074163Y-52858376D01*
X110108376Y-52824163D01*
X110164688Y-52786537D01*
X110209388Y-52768022D01*
X110288021Y-52752382D01*
X110312211Y-52750000D01*
X139437789Y-52750000D01*
X139461979Y-52752382D01*
G37*
G36*
X97943039Y-53769685D02*
G01*
X97988794Y-53822489D01*
X98000000Y-53874000D01*
X98000000Y-63626000D01*
X97980315Y-63693039D01*
X97927511Y-63738794D01*
X97876000Y-63750000D01*
X92624000Y-63750000D01*
X92556961Y-63730315D01*
X92511206Y-63677511D01*
X92500000Y-63626000D01*
X92500000Y-61301362D01*
X92519685Y-61234323D01*
X92536319Y-61213681D01*
X92749999Y-61000000D01*
X92750000Y-60999999D01*
X92750000Y-56500000D01*
X92536319Y-56286319D01*
X92502834Y-56224996D01*
X92500000Y-56198638D01*
X92500000Y-53874000D01*
X92519685Y-53806961D01*
X92572489Y-53761206D01*
X92624000Y-53750000D01*
X97876000Y-53750000D01*
X97943039Y-53769685D01*
G37*
G36*
X139461979Y-80752382D02*
G01*
X139540611Y-80768022D01*
X139585311Y-80786537D01*
X139641623Y-80824163D01*
X139675836Y-80858376D01*
X139713462Y-80914688D01*
X139731976Y-80959387D01*
X139747617Y-81038019D01*
X139750000Y-81062210D01*
X139750000Y-85250000D01*
X144250000Y-85250000D01*
X144250000Y-81062210D01*
X144252382Y-81038020D01*
X144268022Y-80959388D01*
X144286537Y-80914688D01*
X144324163Y-80858376D01*
X144358376Y-80824163D01*
X144414688Y-80786537D01*
X144459388Y-80768022D01*
X144538021Y-80752382D01*
X144562211Y-80750000D01*
X191187789Y-80750000D01*
X191211979Y-80752382D01*
X191290611Y-80768022D01*
X191335311Y-80786537D01*
X191391623Y-80824163D01*
X191425836Y-80858376D01*
X191463462Y-80914688D01*
X191481976Y-80959387D01*
X191497617Y-81038019D01*
X191500000Y-81062210D01*
X191500000Y-92437789D01*
X191497617Y-92461980D01*
X191481976Y-92540612D01*
X191463462Y-92585311D01*
X191425836Y-92641623D01*
X191391623Y-92675836D01*
X191335311Y-92713462D01*
X191290612Y-92731976D01*
X191211980Y-92747617D01*
X191187789Y-92750000D01*
X144562211Y-92750000D01*
X144538020Y-92747617D01*
X144459387Y-92731976D01*
X144414688Y-92713462D01*
X144358376Y-92675836D01*
X144324163Y-92641623D01*
X144286537Y-92585311D01*
X144268022Y-92540611D01*
X144252382Y-92461979D01*
X144250000Y-92437789D01*
X144250000Y-88250000D01*
X139750000Y-88250000D01*
X139750000Y-92437789D01*
X139747617Y-92461980D01*
X139731976Y-92540612D01*
X139713462Y-92585311D01*
X139675836Y-92641623D01*
X139641623Y-92675836D01*
X139585311Y-92713462D01*
X139540612Y-92731976D01*
X139461980Y-92747617D01*
X139437789Y-92750000D01*
X110312211Y-92750000D01*
X110288020Y-92747617D01*
X110209387Y-92731976D01*
X110164688Y-92713462D01*
X110108376Y-92675836D01*
X110074163Y-92641623D01*
X110036537Y-92585311D01*
X110018022Y-92540611D01*
X110002382Y-92461979D01*
X110000000Y-92437789D01*
X110000000Y-81062210D01*
X110002382Y-81038020D01*
X110018022Y-80959388D01*
X110036537Y-80914688D01*
X110074163Y-80858376D01*
X110108376Y-80824163D01*
X110164688Y-80786537D01*
X110209388Y-80768022D01*
X110288021Y-80752382D01*
X110312211Y-80750000D01*
X139437789Y-80750000D01*
X139461979Y-80752382D01*
G37*
G36*
X139461979Y-66752382D02*
G01*
X139540611Y-66768022D01*
X139585311Y-66786537D01*
X139641623Y-66824163D01*
X139675836Y-66858376D01*
X139713462Y-66914688D01*
X139731976Y-66959387D01*
X139747617Y-67038019D01*
X139750000Y-67062210D01*
X139750000Y-71250000D01*
X144250000Y-71250000D01*
X144250000Y-67062210D01*
X144252382Y-67038020D01*
X144268022Y-66959388D01*
X144286537Y-66914688D01*
X144324163Y-66858376D01*
X144358376Y-66824163D01*
X144414688Y-66786537D01*
X144459388Y-66768022D01*
X144538021Y-66752382D01*
X144562211Y-66750000D01*
X191187789Y-66750000D01*
X191211979Y-66752382D01*
X191290611Y-66768022D01*
X191335311Y-66786537D01*
X191391623Y-66824163D01*
X191425836Y-66858376D01*
X191463462Y-66914688D01*
X191481976Y-66959387D01*
X191497617Y-67038019D01*
X191500000Y-67062210D01*
X191500000Y-78437789D01*
X191497617Y-78461980D01*
X191481976Y-78540612D01*
X191463462Y-78585311D01*
X191425836Y-78641623D01*
X191391623Y-78675836D01*
X191335311Y-78713462D01*
X191290612Y-78731976D01*
X191211980Y-78747617D01*
X191187789Y-78750000D01*
X144562211Y-78750000D01*
X144538020Y-78747617D01*
X144459387Y-78731976D01*
X144414688Y-78713462D01*
X144358376Y-78675836D01*
X144324163Y-78641623D01*
X144286537Y-78585311D01*
X144268022Y-78540611D01*
X144252382Y-78461979D01*
X144250000Y-78437789D01*
X144250000Y-74250000D01*
X139750000Y-74250000D01*
X139750000Y-78437789D01*
X139747617Y-78461980D01*
X139731976Y-78540612D01*
X139713462Y-78585311D01*
X139675836Y-78641623D01*
X139641623Y-78675836D01*
X139585311Y-78713462D01*
X139540612Y-78731976D01*
X139461980Y-78747617D01*
X139437789Y-78750000D01*
X110312211Y-78750000D01*
X110288020Y-78747617D01*
X110209387Y-78731976D01*
X110164688Y-78713462D01*
X110108376Y-78675836D01*
X110074163Y-78641623D01*
X110036537Y-78585311D01*
X110018022Y-78540611D01*
X110002382Y-78461979D01*
X110000000Y-78437789D01*
X110000000Y-67062210D01*
X110002382Y-67038020D01*
X110018022Y-66959388D01*
X110036537Y-66914688D01*
X110074163Y-66858376D01*
X110108376Y-66824163D01*
X110164688Y-66786537D01*
X110209388Y-66768022D01*
X110288021Y-66752382D01*
X110312211Y-66750000D01*
X139437789Y-66750000D01*
X139461979Y-66752382D01*
G37*
G36*
X156961979Y-122752382D02*
G01*
X157040611Y-122768022D01*
X157085311Y-122786537D01*
X157141623Y-122824163D01*
X157175836Y-122858376D01*
X157213462Y-122914688D01*
X157231976Y-122959387D01*
X157247617Y-123038019D01*
X157250000Y-123062210D01*
X157250000Y-127250000D01*
X161750000Y-127250000D01*
X161750000Y-123062210D01*
X161752382Y-123038020D01*
X161768022Y-122959388D01*
X161786537Y-122914688D01*
X161824163Y-122858376D01*
X161858376Y-122824163D01*
X161914688Y-122786537D01*
X161959388Y-122768022D01*
X162038021Y-122752382D01*
X162062211Y-122750000D01*
X191187789Y-122750000D01*
X191211979Y-122752382D01*
X191290611Y-122768022D01*
X191335311Y-122786537D01*
X191391623Y-122824163D01*
X191425836Y-122858376D01*
X191463462Y-122914688D01*
X191481976Y-122959387D01*
X191497617Y-123038019D01*
X191500000Y-123062210D01*
X191500000Y-134437789D01*
X191497617Y-134461980D01*
X191481976Y-134540612D01*
X191463462Y-134585311D01*
X191425836Y-134641623D01*
X191391623Y-134675836D01*
X191335311Y-134713462D01*
X191290612Y-134731976D01*
X191211980Y-134747617D01*
X191187789Y-134750000D01*
X162062211Y-134750000D01*
X162038020Y-134747617D01*
X161959387Y-134731976D01*
X161914688Y-134713462D01*
X161858376Y-134675836D01*
X161824163Y-134641623D01*
X161786537Y-134585311D01*
X161768022Y-134540611D01*
X161752382Y-134461979D01*
X161750000Y-134437789D01*
X161750000Y-130250000D01*
X157250000Y-130250000D01*
X157250000Y-134437789D01*
X157247617Y-134461980D01*
X157231976Y-134540612D01*
X157213462Y-134585311D01*
X157175836Y-134641623D01*
X157141623Y-134675836D01*
X157085311Y-134713462D01*
X157040612Y-134731976D01*
X156961980Y-134747617D01*
X156937789Y-134750000D01*
X110312211Y-134750000D01*
X110288020Y-134747617D01*
X110209387Y-134731976D01*
X110164688Y-134713462D01*
X110108376Y-134675836D01*
X110074163Y-134641623D01*
X110036537Y-134585311D01*
X110018022Y-134540611D01*
X110002382Y-134461979D01*
X110000000Y-134437789D01*
X110000000Y-123062210D01*
X110002382Y-123038020D01*
X110018022Y-122959388D01*
X110036537Y-122914688D01*
X110074163Y-122858376D01*
X110108376Y-122824163D01*
X110164688Y-122786537D01*
X110209388Y-122768022D01*
X110288021Y-122752382D01*
X110312211Y-122750000D01*
X156937789Y-122750000D01*
X156961979Y-122752382D01*
G37*
%LPC*%
D13*
X86250000Y-128750000D03*
D14*
X165285000Y-71150000D03*
X164015000Y-71150000D03*
D13*
X215250000Y-58750000D03*
D15*
X145750000Y-110750000D03*
D13*
X86250000Y-100750000D03*
D16*
X138500000Y-98000000D03*
D13*
X86250000Y-58750000D03*
D14*
X136215000Y-144350000D03*
X137485000Y-144350000D03*
D16*
X200250000Y-137500000D03*
X201750707Y-144999293D03*
X138500000Y-56000000D03*
D15*
X155750000Y-62750000D03*
D16*
X138500000Y-70000000D03*
D13*
X86250000Y-142750000D03*
X215250000Y-72750000D03*
X215250000Y-114750000D03*
D16*
X99749293Y-84500707D03*
X138500000Y-84000000D03*
D13*
X215250000Y-128750000D03*
D16*
X138500000Y-75500000D03*
D15*
X145750000Y-138750000D03*
D16*
X101250000Y-64000000D03*
X201750707Y-116999293D03*
D15*
X145750000Y-124750000D03*
D13*
X86250000Y-114750000D03*
X86250000Y-72750000D03*
D16*
X101250000Y-106000000D03*
X163000000Y-140000000D03*
X163000000Y-126000000D03*
X99749293Y-70500707D03*
D13*
X215250000Y-86750000D03*
D14*
X165285000Y-99150000D03*
X164015000Y-99150000D03*
D16*
X138500000Y-103500000D03*
D15*
X155750000Y-90750000D03*
D14*
X165285000Y-85150000D03*
X164015000Y-85150000D03*
D16*
X99749293Y-98500707D03*
X138500000Y-61500000D03*
X200250000Y-109500000D03*
D15*
X145750000Y-132750000D03*
D13*
X86250000Y-86750000D03*
D15*
X155750000Y-68750000D03*
X155750000Y-82750000D03*
D16*
X163000000Y-131500000D03*
X200250000Y-123500000D03*
X163000000Y-145500000D03*
X201750707Y-130999293D03*
D15*
X145750000Y-118750000D03*
D16*
X163000000Y-117500000D03*
D14*
X136215000Y-130350000D03*
X137485000Y-130350000D03*
D16*
X101250000Y-78000000D03*
D15*
X155750000Y-54750000D03*
D16*
X163000000Y-112000000D03*
X138500000Y-89500000D03*
D15*
X155750000Y-76750000D03*
X155750000Y-96750000D03*
X145750000Y-146750000D03*
D13*
X215250000Y-142750000D03*
X215250000Y-100750000D03*
D16*
X101250000Y-92000000D03*
X99749293Y-56500707D03*
D14*
X136215000Y-116350000D03*
X137485000Y-116350000D03*
X165285000Y-57150000D03*
X164015000Y-57150000D03*
D15*
X155750000Y-104750000D03*
D17*
X104250000Y-90550000D03*
X197250000Y-76000000D03*
D18*
X90000000Y-116125000D03*
D19*
X90625000Y-116050000D03*
X90625000Y-113450000D03*
D18*
X90000000Y-113375000D03*
D17*
X103850000Y-132150000D03*
X197250000Y-138950000D03*
D20*
X142000000Y-76500000D03*
X159500000Y-111000000D03*
X142000000Y-55000000D03*
D17*
X104250000Y-62550000D03*
D18*
X211500000Y-99375000D03*
D19*
X210875000Y-99450000D03*
X210875000Y-102050000D03*
D18*
X211500000Y-102125000D03*
D17*
X197650000Y-83350000D03*
X105350000Y-83550000D03*
X197250000Y-90000000D03*
D18*
X90000000Y-102125000D03*
D19*
X90625000Y-102050000D03*
X90625000Y-99450000D03*
D18*
X90000000Y-99375000D03*
X90000000Y-144125000D03*
D19*
X90625000Y-144050000D03*
X90625000Y-141450000D03*
D18*
X90000000Y-141375000D03*
D17*
X196150000Y-117950000D03*
D20*
X159500000Y-125000000D03*
X142000000Y-104500000D03*
D18*
X90000000Y-88125000D03*
D19*
X90625000Y-88050000D03*
X90625000Y-85450000D03*
D18*
X90000000Y-85375000D03*
D17*
X197650000Y-97350000D03*
D18*
X211500000Y-127375000D03*
D19*
X210875000Y-127450000D03*
X210875000Y-130050000D03*
D18*
X211500000Y-130125000D03*
X90000000Y-130125000D03*
D19*
X90625000Y-130050000D03*
X90625000Y-127450000D03*
D18*
X90000000Y-127375000D03*
D17*
X196150000Y-131950000D03*
X104250000Y-111500000D03*
X104250000Y-139500000D03*
D18*
X211500000Y-113375000D03*
D19*
X210875000Y-113450000D03*
X210875000Y-116050000D03*
D18*
X211500000Y-116125000D03*
X211500000Y-141375000D03*
D19*
X210875000Y-141450000D03*
X210875000Y-144050000D03*
D18*
X211500000Y-144125000D03*
X90000000Y-74125000D03*
D19*
X90625000Y-74050000D03*
X90625000Y-71450000D03*
D18*
X90000000Y-71375000D03*
D20*
X142000000Y-90500000D03*
D17*
X197650000Y-69350000D03*
X103850000Y-146150000D03*
X104250000Y-125500000D03*
X104250000Y-104550000D03*
D18*
X90000000Y-60125000D03*
D19*
X90625000Y-60050000D03*
X90625000Y-57450000D03*
D18*
X90000000Y-57375000D03*
D17*
X105350000Y-55550000D03*
X197250000Y-110950000D03*
D20*
X142000000Y-83000000D03*
D17*
X197250000Y-124950000D03*
X196150000Y-145950000D03*
D20*
X142000000Y-69000000D03*
D17*
X105350000Y-97550000D03*
D20*
X159500000Y-118500000D03*
D17*
X197250000Y-104000000D03*
D18*
X211500000Y-85375000D03*
D19*
X210875000Y-85450000D03*
X210875000Y-88050000D03*
D18*
X211500000Y-88125000D03*
D20*
X142000000Y-97000000D03*
D17*
X197650000Y-55350000D03*
X104250000Y-76550000D03*
X105350000Y-69550000D03*
X197250000Y-62000000D03*
D20*
X159500000Y-132500000D03*
D17*
X103850000Y-118150000D03*
D20*
X159500000Y-139000000D03*
X142000000Y-62500000D03*
X159500000Y-146500000D03*
D18*
X211500000Y-57375000D03*
D19*
X210875000Y-57450000D03*
X210875000Y-60050000D03*
D18*
X211500000Y-60125000D03*
X211500000Y-71375000D03*
D19*
X210875000Y-71450000D03*
X210875000Y-74050000D03*
D18*
X211500000Y-74125000D03*
G36*
X107505039Y-94519685D02*
G01*
X107537200Y-94549600D01*
X109725200Y-97466933D01*
X109749676Y-97532375D01*
X109750000Y-97541333D01*
X109750000Y-99876000D01*
X109730315Y-99943039D01*
X109677511Y-99988794D01*
X109626000Y-100000000D01*
X98374000Y-100000000D01*
X98306961Y-99980315D01*
X98261206Y-99927511D01*
X98250000Y-99876000D01*
X98250000Y-97541333D01*
X98269685Y-97474294D01*
X98274800Y-97466933D01*
X100462800Y-94549600D01*
X100518771Y-94507779D01*
X100562000Y-94500000D01*
X107438000Y-94500000D01*
X107505039Y-94519685D01*
G37*
G36*
X203193039Y-73519685D02*
G01*
X203238794Y-73572489D01*
X203250000Y-73624000D01*
X203250000Y-75958666D01*
X203230315Y-76025705D01*
X203225200Y-76033066D01*
X201037200Y-78950400D01*
X200981229Y-78992221D01*
X200938000Y-79000000D01*
X194062000Y-79000000D01*
X193994961Y-78980315D01*
X193962800Y-78950400D01*
X191774800Y-76033066D01*
X191750324Y-75967624D01*
X191750000Y-75958666D01*
X191750000Y-73624000D01*
X191769685Y-73556961D01*
X191822489Y-73511206D01*
X191874000Y-73500000D01*
X203126000Y-73500000D01*
X203193039Y-73519685D01*
G37*
G36*
X109693039Y-129519685D02*
G01*
X109738794Y-129572489D01*
X109750000Y-129624000D01*
X109750000Y-131958666D01*
X109730315Y-132025705D01*
X109725200Y-132033066D01*
X107537200Y-134950400D01*
X107481229Y-134992221D01*
X107438000Y-135000000D01*
X100562000Y-135000000D01*
X100494961Y-134980315D01*
X100462800Y-134950400D01*
X98274800Y-132033066D01*
X98250324Y-131967624D01*
X98250000Y-131958666D01*
X98250000Y-129624000D01*
X98269685Y-129556961D01*
X98322489Y-129511206D01*
X98374000Y-129500000D01*
X109626000Y-129500000D01*
X109693039Y-129519685D01*
G37*
G36*
X201005039Y-52519685D02*
G01*
X201037200Y-52549600D01*
X203225200Y-55466933D01*
X203249676Y-55532375D01*
X203250000Y-55541333D01*
X203250000Y-57876000D01*
X203230315Y-57943039D01*
X203177511Y-57988794D01*
X203126000Y-58000000D01*
X191874000Y-58000000D01*
X191806961Y-57980315D01*
X191761206Y-57927511D01*
X191750000Y-57876000D01*
X191750000Y-55541333D01*
X191769685Y-55474294D01*
X191774800Y-55466933D01*
X193962800Y-52549600D01*
X194018771Y-52507779D01*
X194062000Y-52500000D01*
X200938000Y-52500000D01*
X201005039Y-52519685D01*
G37*
G36*
X107505039Y-52519685D02*
G01*
X107537200Y-52549600D01*
X109725200Y-55466933D01*
X109749676Y-55532375D01*
X109750000Y-55541333D01*
X109750000Y-57876000D01*
X109730315Y-57943039D01*
X109677511Y-57988794D01*
X109626000Y-58000000D01*
X98374000Y-58000000D01*
X98306961Y-57980315D01*
X98261206Y-57927511D01*
X98250000Y-57876000D01*
X98250000Y-55541333D01*
X98269685Y-55474294D01*
X98274800Y-55466933D01*
X100462800Y-52549600D01*
X100518771Y-52507779D01*
X100562000Y-52500000D01*
X107438000Y-52500000D01*
X107505039Y-52519685D01*
G37*
G36*
X203193039Y-101519685D02*
G01*
X203238794Y-101572489D01*
X203250000Y-101624000D01*
X203250000Y-103958666D01*
X203230315Y-104025705D01*
X203225200Y-104033066D01*
X201037200Y-106950400D01*
X200981229Y-106992221D01*
X200938000Y-107000000D01*
X194062000Y-107000000D01*
X193994961Y-106980315D01*
X193962800Y-106950400D01*
X191774800Y-104033066D01*
X191750324Y-103967624D01*
X191750000Y-103958666D01*
X191750000Y-101624000D01*
X191769685Y-101556961D01*
X191822489Y-101511206D01*
X191874000Y-101500000D01*
X203126000Y-101500000D01*
X203193039Y-101519685D01*
G37*
G36*
X201005039Y-108519685D02*
G01*
X201037200Y-108549600D01*
X203225200Y-111466933D01*
X203249676Y-111532375D01*
X203250000Y-111541333D01*
X203250000Y-113876000D01*
X203230315Y-113943039D01*
X203177511Y-113988794D01*
X203126000Y-114000000D01*
X191874000Y-114000000D01*
X191806961Y-113980315D01*
X191761206Y-113927511D01*
X191750000Y-113876000D01*
X191750000Y-111541333D01*
X191769685Y-111474294D01*
X191774800Y-111466933D01*
X193962800Y-108549600D01*
X194018771Y-108507779D01*
X194062000Y-108500000D01*
X200938000Y-108500000D01*
X201005039Y-108519685D01*
G37*
G36*
X107505039Y-136519685D02*
G01*
X107537200Y-136549600D01*
X109725200Y-139466933D01*
X109749676Y-139532375D01*
X109750000Y-139541333D01*
X109750000Y-141876000D01*
X109730315Y-141943039D01*
X109677511Y-141988794D01*
X109626000Y-142000000D01*
X98374000Y-142000000D01*
X98306961Y-141980315D01*
X98261206Y-141927511D01*
X98250000Y-141876000D01*
X98250000Y-139541333D01*
X98269685Y-139474294D01*
X98274800Y-139466933D01*
X100462800Y-136549600D01*
X100518771Y-136507779D01*
X100562000Y-136500000D01*
X107438000Y-136500000D01*
X107505039Y-136519685D01*
G37*
G36*
X201005039Y-122519685D02*
G01*
X201037200Y-122549600D01*
X203225200Y-125466933D01*
X203249676Y-125532375D01*
X203250000Y-125541333D01*
X203250000Y-127876000D01*
X203230315Y-127943039D01*
X203177511Y-127988794D01*
X203126000Y-128000000D01*
X191874000Y-128000000D01*
X191806961Y-127980315D01*
X191761206Y-127927511D01*
X191750000Y-127876000D01*
X191750000Y-125541333D01*
X191769685Y-125474294D01*
X191774800Y-125466933D01*
X193962800Y-122549600D01*
X194018771Y-122507779D01*
X194062000Y-122500000D01*
X200938000Y-122500000D01*
X201005039Y-122519685D01*
G37*
G36*
X201005039Y-66519685D02*
G01*
X201037200Y-66549600D01*
X203225200Y-69466933D01*
X203249676Y-69532375D01*
X203250000Y-69541333D01*
X203250000Y-71876000D01*
X203230315Y-71943039D01*
X203177511Y-71988794D01*
X203126000Y-72000000D01*
X191874000Y-72000000D01*
X191806961Y-71980315D01*
X191761206Y-71927511D01*
X191750000Y-71876000D01*
X191750000Y-69541333D01*
X191769685Y-69474294D01*
X191774800Y-69466933D01*
X193962800Y-66549600D01*
X194018771Y-66507779D01*
X194062000Y-66500000D01*
X200938000Y-66500000D01*
X201005039Y-66519685D01*
G37*
G36*
X201005039Y-136519685D02*
G01*
X201037200Y-136549600D01*
X203225200Y-139466933D01*
X203249676Y-139532375D01*
X203250000Y-139541333D01*
X203250000Y-141876000D01*
X203230315Y-141943039D01*
X203177511Y-141988794D01*
X203126000Y-142000000D01*
X191874000Y-142000000D01*
X191806961Y-141980315D01*
X191761206Y-141927511D01*
X191750000Y-141876000D01*
X191750000Y-139541333D01*
X191769685Y-139474294D01*
X191774800Y-139466933D01*
X193962800Y-136549600D01*
X194018771Y-136507779D01*
X194062000Y-136500000D01*
X200938000Y-136500000D01*
X201005039Y-136519685D01*
G37*
G36*
X107505039Y-80519685D02*
G01*
X107537200Y-80549600D01*
X109725200Y-83466933D01*
X109749676Y-83532375D01*
X109750000Y-83541333D01*
X109750000Y-85876000D01*
X109730315Y-85943039D01*
X109677511Y-85988794D01*
X109626000Y-86000000D01*
X98374000Y-86000000D01*
X98306961Y-85980315D01*
X98261206Y-85927511D01*
X98250000Y-85876000D01*
X98250000Y-83541333D01*
X98269685Y-83474294D01*
X98274800Y-83466933D01*
X100462800Y-80549600D01*
X100518771Y-80507779D01*
X100562000Y-80500000D01*
X107438000Y-80500000D01*
X107505039Y-80519685D01*
G37*
G36*
X203193039Y-87519685D02*
G01*
X203238794Y-87572489D01*
X203250000Y-87624000D01*
X203250000Y-89958666D01*
X203230315Y-90025705D01*
X203225200Y-90033066D01*
X201037200Y-92950400D01*
X200981229Y-92992221D01*
X200938000Y-93000000D01*
X194062000Y-93000000D01*
X193994961Y-92980315D01*
X193962800Y-92950400D01*
X191774800Y-90033066D01*
X191750324Y-89967624D01*
X191750000Y-89958666D01*
X191750000Y-87624000D01*
X191769685Y-87556961D01*
X191822489Y-87511206D01*
X191874000Y-87500000D01*
X203126000Y-87500000D01*
X203193039Y-87519685D01*
G37*
G36*
X109693039Y-143519685D02*
G01*
X109738794Y-143572489D01*
X109750000Y-143624000D01*
X109750000Y-145958666D01*
X109730315Y-146025705D01*
X109725200Y-146033066D01*
X107537200Y-148950400D01*
X107481229Y-148992221D01*
X107438000Y-149000000D01*
X100562000Y-149000000D01*
X100494961Y-148980315D01*
X100462800Y-148950400D01*
X98274800Y-146033066D01*
X98250324Y-145967624D01*
X98250000Y-145958666D01*
X98250000Y-143624000D01*
X98269685Y-143556961D01*
X98322489Y-143511206D01*
X98374000Y-143500000D01*
X109626000Y-143500000D01*
X109693039Y-143519685D01*
G37*
G36*
X109693039Y-101519685D02*
G01*
X109738794Y-101572489D01*
X109750000Y-101624000D01*
X109750000Y-103958666D01*
X109730315Y-104025705D01*
X109725200Y-104033066D01*
X107537200Y-106950400D01*
X107481229Y-106992221D01*
X107438000Y-107000000D01*
X100562000Y-107000000D01*
X100494961Y-106980315D01*
X100462800Y-106950400D01*
X98274800Y-104033066D01*
X98250324Y-103967624D01*
X98250000Y-103958666D01*
X98250000Y-101624000D01*
X98269685Y-101556961D01*
X98322489Y-101511206D01*
X98374000Y-101500000D01*
X109626000Y-101500000D01*
X109693039Y-101519685D01*
G37*
G36*
X109693039Y-115519685D02*
G01*
X109738794Y-115572489D01*
X109750000Y-115624000D01*
X109750000Y-117958666D01*
X109730315Y-118025705D01*
X109725200Y-118033066D01*
X107537200Y-120950400D01*
X107481229Y-120992221D01*
X107438000Y-121000000D01*
X100562000Y-121000000D01*
X100494961Y-120980315D01*
X100462800Y-120950400D01*
X98274800Y-118033066D01*
X98250324Y-117967624D01*
X98250000Y-117958666D01*
X98250000Y-115624000D01*
X98269685Y-115556961D01*
X98322489Y-115511206D01*
X98374000Y-115500000D01*
X109626000Y-115500000D01*
X109693039Y-115519685D01*
G37*
G36*
X109693039Y-59519685D02*
G01*
X109738794Y-59572489D01*
X109750000Y-59624000D01*
X109750000Y-61958666D01*
X109730315Y-62025705D01*
X109725200Y-62033066D01*
X107537200Y-64950400D01*
X107481229Y-64992221D01*
X107438000Y-65000000D01*
X100562000Y-65000000D01*
X100494961Y-64980315D01*
X100462800Y-64950400D01*
X98274800Y-62033066D01*
X98250324Y-61967624D01*
X98250000Y-61958666D01*
X98250000Y-59624000D01*
X98269685Y-59556961D01*
X98322489Y-59511206D01*
X98374000Y-59500000D01*
X109626000Y-59500000D01*
X109693039Y-59519685D01*
G37*
G36*
X107505039Y-122519685D02*
G01*
X107537200Y-122549600D01*
X109725200Y-125466933D01*
X109749676Y-125532375D01*
X109750000Y-125541333D01*
X109750000Y-127876000D01*
X109730315Y-127943039D01*
X109677511Y-127988794D01*
X109626000Y-128000000D01*
X98374000Y-128000000D01*
X98306961Y-127980315D01*
X98261206Y-127927511D01*
X98250000Y-127876000D01*
X98250000Y-125541333D01*
X98269685Y-125474294D01*
X98274800Y-125466933D01*
X100462800Y-122549600D01*
X100518771Y-122507779D01*
X100562000Y-122500000D01*
X107438000Y-122500000D01*
X107505039Y-122519685D01*
G37*
G36*
X109693039Y-87519685D02*
G01*
X109738794Y-87572489D01*
X109750000Y-87624000D01*
X109750000Y-89958666D01*
X109730315Y-90025705D01*
X109725200Y-90033066D01*
X107537200Y-92950400D01*
X107481229Y-92992221D01*
X107438000Y-93000000D01*
X100562000Y-93000000D01*
X100494961Y-92980315D01*
X100462800Y-92950400D01*
X98274800Y-90033066D01*
X98250324Y-89967624D01*
X98250000Y-89958666D01*
X98250000Y-87624000D01*
X98269685Y-87556961D01*
X98322489Y-87511206D01*
X98374000Y-87500000D01*
X109626000Y-87500000D01*
X109693039Y-87519685D01*
G37*
G36*
X109693039Y-73519685D02*
G01*
X109738794Y-73572489D01*
X109750000Y-73624000D01*
X109750000Y-75958666D01*
X109730315Y-76025705D01*
X109725200Y-76033066D01*
X107537200Y-78950400D01*
X107481229Y-78992221D01*
X107438000Y-79000000D01*
X100562000Y-79000000D01*
X100494961Y-78980315D01*
X100462800Y-78950400D01*
X98274800Y-76033066D01*
X98250324Y-75967624D01*
X98250000Y-75958666D01*
X98250000Y-73624000D01*
X98269685Y-73556961D01*
X98322489Y-73511206D01*
X98374000Y-73500000D01*
X109626000Y-73500000D01*
X109693039Y-73519685D01*
G37*
G36*
X203193039Y-129519685D02*
G01*
X203238794Y-129572489D01*
X203250000Y-129624000D01*
X203250000Y-131958666D01*
X203230315Y-132025705D01*
X203225200Y-132033066D01*
X201037200Y-134950400D01*
X200981229Y-134992221D01*
X200938000Y-135000000D01*
X194062000Y-135000000D01*
X193994961Y-134980315D01*
X193962800Y-134950400D01*
X191774800Y-132033066D01*
X191750324Y-131967624D01*
X191750000Y-131958666D01*
X191750000Y-129624000D01*
X191769685Y-129556961D01*
X191822489Y-129511206D01*
X191874000Y-129500000D01*
X203126000Y-129500000D01*
X203193039Y-129519685D01*
G37*
G36*
X203193039Y-59519685D02*
G01*
X203238794Y-59572489D01*
X203250000Y-59624000D01*
X203250000Y-61958666D01*
X203230315Y-62025705D01*
X203225200Y-62033066D01*
X201037200Y-64950400D01*
X200981229Y-64992221D01*
X200938000Y-65000000D01*
X194062000Y-65000000D01*
X193994961Y-64980315D01*
X193962800Y-64950400D01*
X191774800Y-62033066D01*
X191750324Y-61967624D01*
X191750000Y-61958666D01*
X191750000Y-59624000D01*
X191769685Y-59556961D01*
X191822489Y-59511206D01*
X191874000Y-59500000D01*
X203126000Y-59500000D01*
X203193039Y-59519685D01*
G37*
G36*
X107505039Y-66519685D02*
G01*
X107537200Y-66549600D01*
X109725200Y-69466933D01*
X109749676Y-69532375D01*
X109750000Y-69541333D01*
X109750000Y-71876000D01*
X109730315Y-71943039D01*
X109677511Y-71988794D01*
X109626000Y-72000000D01*
X98374000Y-72000000D01*
X98306961Y-71980315D01*
X98261206Y-71927511D01*
X98250000Y-71876000D01*
X98250000Y-69541333D01*
X98269685Y-69474294D01*
X98274800Y-69466933D01*
X100462800Y-66549600D01*
X100518771Y-66507779D01*
X100562000Y-66500000D01*
X107438000Y-66500000D01*
X107505039Y-66519685D01*
G37*
G36*
X201005039Y-80519685D02*
G01*
X201037200Y-80549600D01*
X203225200Y-83466933D01*
X203249676Y-83532375D01*
X203250000Y-83541333D01*
X203250000Y-85876000D01*
X203230315Y-85943039D01*
X203177511Y-85988794D01*
X203126000Y-86000000D01*
X191874000Y-86000000D01*
X191806961Y-85980315D01*
X191761206Y-85927511D01*
X191750000Y-85876000D01*
X191750000Y-83541333D01*
X191769685Y-83474294D01*
X191774800Y-83466933D01*
X193962800Y-80549600D01*
X194018771Y-80507779D01*
X194062000Y-80500000D01*
X200938000Y-80500000D01*
X201005039Y-80519685D01*
G37*
G36*
X203193039Y-115519685D02*
G01*
X203238794Y-115572489D01*
X203250000Y-115624000D01*
X203250000Y-117958666D01*
X203230315Y-118025705D01*
X203225200Y-118033066D01*
X201037200Y-120950400D01*
X200981229Y-120992221D01*
X200938000Y-121000000D01*
X194062000Y-121000000D01*
X193994961Y-120980315D01*
X193962800Y-120950400D01*
X191774800Y-118033066D01*
X191750324Y-117967624D01*
X191750000Y-117958666D01*
X191750000Y-115624000D01*
X191769685Y-115556961D01*
X191822489Y-115511206D01*
X191874000Y-115500000D01*
X203126000Y-115500000D01*
X203193039Y-115519685D01*
G37*
G36*
X107505039Y-108519685D02*
G01*
X107537200Y-108549600D01*
X109725200Y-111466933D01*
X109749676Y-111532375D01*
X109750000Y-111541333D01*
X109750000Y-113876000D01*
X109730315Y-113943039D01*
X109677511Y-113988794D01*
X109626000Y-114000000D01*
X98374000Y-114000000D01*
X98306961Y-113980315D01*
X98261206Y-113927511D01*
X98250000Y-113876000D01*
X98250000Y-111541333D01*
X98269685Y-111474294D01*
X98274800Y-111466933D01*
X100462800Y-108549600D01*
X100518771Y-108507779D01*
X100562000Y-108500000D01*
X107438000Y-108500000D01*
X107505039Y-108519685D01*
G37*
G36*
X203193039Y-143519685D02*
G01*
X203238794Y-143572489D01*
X203250000Y-143624000D01*
X203250000Y-145958666D01*
X203230315Y-146025705D01*
X203225200Y-146033066D01*
X201037200Y-148950400D01*
X200981229Y-148992221D01*
X200938000Y-149000000D01*
X194062000Y-149000000D01*
X193994961Y-148980315D01*
X193962800Y-148950400D01*
X191774800Y-146033066D01*
X191750324Y-145967624D01*
X191750000Y-145958666D01*
X191750000Y-143624000D01*
X191769685Y-143556961D01*
X191822489Y-143511206D01*
X191874000Y-143500000D01*
X203126000Y-143500000D01*
X203193039Y-143519685D01*
G37*
G36*
X201005039Y-94519685D02*
G01*
X201037200Y-94549600D01*
X203225200Y-97466933D01*
X203249676Y-97532375D01*
X203250000Y-97541333D01*
X203250000Y-99876000D01*
X203230315Y-99943039D01*
X203177511Y-99988794D01*
X203126000Y-100000000D01*
X191874000Y-100000000D01*
X191806961Y-99980315D01*
X191761206Y-99927511D01*
X191750000Y-99876000D01*
X191750000Y-97541333D01*
X191769685Y-97474294D01*
X191774800Y-97466933D01*
X193962800Y-94549600D01*
X194018771Y-94507779D01*
X194062000Y-94500000D01*
X200938000Y-94500000D01*
X201005039Y-94519685D01*
G37*
%LPD*%
M02*
