M48
; DRILL file {KiCad (5.1.9)-1} date 10/10/21 12:58:31
; FORMAT={-:-/ absolute / metric / decimal}
; #@! TF.CreationDate,2021-10-10T12:58:31+09:00
; #@! TF.GenerationSoftware,Kicad,Pcbnew,(5.1.9)-1
FMAT,2
METRIC
T1C0.300
T2C0.400
T3C0.500
T4C0.600
T5C0.700
T6C0.800
T7C0.900
T8C2.000
%
G90
G05
T1
X13.9Y93.0
X13.9Y80.5
X13.9Y68.0
X13.9Y55.5
X13.9Y43.0
X13.9Y30.5
X13.9Y18.0
X13.9Y5.5
X14.2Y91.4
X14.2Y78.9
X14.2Y66.4
X14.2Y53.9
X14.2Y41.4
X14.2Y28.9
X14.2Y16.4
X14.2Y3.9
X15.5Y94.3
X15.5Y81.8
X15.5Y69.3
X15.5Y56.8
X15.5Y44.3
X15.5Y31.8
X15.5Y19.3
X15.5Y6.8
X15.7Y93.3
X15.7Y80.8
X15.7Y68.3
X15.7Y55.8
X15.7Y43.3
X15.7Y30.8
X15.7Y18.3
X15.7Y5.8
X19.1Y93.9
X19.1Y81.4
X19.1Y68.9
X19.1Y56.4
X19.1Y43.9
X19.1Y31.4
X19.1Y18.9
X19.1Y6.4
X21.1Y93.95
X21.1Y81.45
X21.1Y68.95
X21.1Y56.45
X21.1Y43.95
X21.1Y31.45
X21.1Y18.95
X21.1Y6.45
X24.7Y94.45
X24.7Y81.95
X24.7Y69.45
X24.7Y56.95
X24.7Y44.45
X24.7Y31.95
X24.7Y19.45
X24.7Y6.95
X27.5Y93.9
X27.5Y81.4
X27.5Y68.9
X27.5Y56.4
X27.5Y43.9
X27.5Y31.4
X27.5Y18.9
X27.5Y6.4
X33.3Y92.0
X33.3Y79.5
X33.3Y67.0
X33.3Y54.5
X33.3Y42.0
X33.3Y29.5
X33.3Y17.0
X33.3Y4.5
X35.25Y90.76
X35.25Y89.95
X35.25Y78.26
X35.25Y77.45
X35.25Y65.76
X35.25Y64.95
X35.25Y53.26
X35.25Y52.45
X35.25Y40.76
X35.25Y39.95
X35.25Y28.26
X35.25Y27.45
X35.25Y15.76
X35.25Y14.95
X35.25Y3.26
X35.25Y2.45
X37.25Y96.0
X37.25Y83.5
X37.25Y71.0
X37.25Y58.5
X37.25Y46.0
X37.25Y33.5
X37.25Y21.0
X37.25Y8.5
X37.6Y92.6
X37.6Y80.1
X37.6Y67.6
X37.6Y55.1
X37.6Y42.6
X37.6Y30.1
X37.6Y17.6
X37.6Y5.1
X38.8Y90.1
X38.8Y77.6
X38.8Y65.1
X38.8Y52.6
X38.8Y40.1
X38.8Y27.6
X38.8Y15.1
X38.8Y2.6
X42.2Y92.2
X42.2Y79.7
X42.2Y67.2
X42.2Y54.7
X42.2Y42.2
X42.2Y29.7
X42.2Y17.2
X42.2Y4.7
X43.7Y92.0
X43.7Y79.5
X43.7Y67.0
X43.7Y54.5
X43.7Y42.0
X43.7Y29.5
X43.7Y17.0
X43.7Y4.5
X46.6Y93.6
X46.6Y81.1
X46.6Y68.6
X46.6Y56.1
X46.6Y43.6
X46.6Y31.1
X46.6Y18.6
X46.6Y6.1
X47.4Y91.5
X47.4Y79.0
X47.4Y66.5
X47.4Y54.0
X47.4Y41.5
X47.4Y29.0
X47.4Y16.5
X47.4Y4.0
X47.9Y93.6
X47.9Y81.1
X47.9Y68.6
X47.9Y56.1
X47.9Y43.6
X47.9Y31.1
X47.9Y18.6
X47.9Y6.1
X51.0Y92.6
X51.0Y80.1
X51.0Y67.6
X51.0Y55.1
X51.0Y42.6
X51.0Y30.1
X51.0Y17.6
X51.0Y5.1
X52.6Y91.8
X52.6Y79.3
X52.6Y66.8
X52.6Y54.3
X52.6Y41.8
X52.6Y29.3
X52.6Y16.8
X52.6Y4.3
X55.0Y93.3
X55.0Y80.8
X55.0Y68.3
X55.0Y55.8
X55.0Y43.3
X55.0Y30.8
X55.0Y18.3
X55.0Y5.8
X55.8Y90.7
X55.8Y78.2
X55.8Y65.7
X55.8Y53.2
X55.8Y40.7
X55.8Y28.2
X55.8Y15.7
X55.8Y3.2
X55.9Y89.1
X55.9Y76.6
X55.9Y64.1
X55.9Y51.6
X55.9Y39.1
X55.9Y26.6
X55.9Y14.1
X55.9Y1.6
X56.1Y89.9
X56.1Y77.4
X56.1Y64.9
X56.1Y52.4
X56.1Y39.9
X56.1Y27.4
X56.1Y14.9
X56.1Y2.4
X56.8Y93.2
X56.8Y80.7
X56.8Y68.2
X56.8Y55.7
X56.8Y43.2
X56.8Y30.7
X56.8Y18.2
X56.8Y5.7
X57.2Y95.2
X57.2Y82.7
X57.2Y70.2
X57.2Y57.7
X57.2Y45.2
X57.2Y32.7
X57.2Y20.2
X57.2Y7.7
X57.8Y92.3
X57.8Y79.8
X57.8Y67.3
X57.8Y54.8
X57.8Y42.3
X57.8Y29.8
X57.8Y17.3
X57.8Y4.8
X58.1Y95.2
X58.1Y82.7
X58.1Y70.2
X58.1Y57.7
X58.1Y45.2
X58.1Y32.7
X58.1Y20.2
X58.1Y7.7
X59.1Y91.3
X59.1Y78.8
X59.1Y66.3
X59.1Y53.8
X59.1Y41.3
X59.1Y28.8
X59.1Y16.3
X59.1Y3.8
X59.6Y93.3
X59.6Y80.8
X59.6Y68.3
X59.6Y55.8
X59.6Y43.3
X59.6Y30.8
X59.6Y18.3
X59.6Y5.8
X60.9Y95.3
X60.9Y82.8
X60.9Y70.3
X60.9Y57.8
X60.9Y45.3
X60.9Y32.8
X60.9Y20.3
X60.9Y7.8
X61.0Y90.6
X61.0Y78.1
X61.0Y65.6
X61.0Y53.1
X61.0Y40.6
X61.0Y28.1
X61.0Y15.6
X61.0Y3.1
X61.4Y93.7
X61.4Y81.2
X61.4Y68.7
X61.4Y56.2
X61.4Y43.7
X61.4Y31.2
X61.4Y18.7
X61.4Y6.2
X61.8Y91.9
X61.8Y79.4
X61.8Y66.9
X61.8Y54.4
X61.8Y41.9
X61.8Y29.4
X61.8Y16.9
X61.8Y4.4
X63.9Y93.2
X63.9Y80.7
X63.9Y68.2
X63.9Y55.7
X63.9Y43.2
X63.9Y30.7
X63.9Y18.2
X63.9Y5.7
X65.6Y91.4
X65.6Y78.9
X65.6Y66.4
X65.6Y53.9
X65.6Y41.4
X65.6Y28.9
X65.6Y16.4
X65.6Y3.9
T2
X10.4Y91.8
X10.4Y79.3
X10.4Y66.8
X10.4Y54.3
X10.4Y41.8
X10.4Y29.3
X10.4Y16.8
X10.4Y4.3
X11.2Y91.8
X11.2Y79.3
X11.2Y66.8
X11.2Y54.3
X11.2Y41.8
X11.2Y29.3
X11.2Y16.8
X11.2Y4.3
X16.8Y96.3
X16.8Y95.5
X16.8Y90.0
X16.8Y89.2
X16.8Y83.8
X16.8Y83.0
X16.8Y77.5
X16.8Y76.7
X16.8Y71.3
X16.8Y70.5
X16.8Y65.0
X16.8Y64.2
X16.8Y58.8
X16.8Y58.0
X16.8Y52.5
X16.8Y51.7
X16.8Y46.3
X16.8Y45.5
X16.8Y40.0
X16.8Y39.2
X16.8Y33.8
X16.8Y33.0
X16.8Y27.5
X16.8Y26.7
X16.8Y21.3
X16.8Y20.5
X16.8Y15.0
X16.8Y14.2
X16.8Y8.8
X16.8Y8.0
X16.8Y2.5
X16.8Y1.7
X17.6Y93.8
X17.6Y81.3
X17.6Y68.8
X17.6Y56.3
X17.6Y43.8
X17.6Y31.3
X17.6Y18.8
X17.6Y6.3
X19.5Y92.3
X19.5Y79.8
X19.5Y67.3
X19.5Y54.8
X19.5Y42.3
X19.5Y29.8
X19.5Y17.3
X19.5Y4.8
X31.6Y93.3
X31.6Y80.8
X31.6Y68.3
X31.6Y55.8
X31.6Y43.3
X31.6Y30.8
X31.6Y18.3
X31.6Y5.8
X35.5Y93.5
X35.5Y81.0
X35.5Y68.5
X35.5Y56.0
X35.5Y43.5
X35.5Y31.0
X35.5Y18.5
X35.5Y6.0
X36.9Y92.5
X36.9Y91.8
X36.9Y80.0
X36.9Y79.3
X36.9Y67.5
X36.9Y66.8
X36.9Y55.0
X36.9Y54.3
X36.9Y42.5
X36.9Y41.8
X36.9Y30.0
X36.9Y29.3
X36.9Y17.5
X36.9Y16.8
X36.9Y5.0
X36.9Y4.3
X46.25Y96.0
X46.25Y83.5
X46.25Y71.0
X46.25Y58.5
X46.25Y46.0
X46.25Y33.5
X46.25Y21.0
X46.25Y8.5
X46.3Y89.4
X46.3Y76.9
X46.3Y64.4
X46.3Y51.9
X46.3Y39.4
X46.3Y26.9
X46.3Y14.4
X46.3Y1.9
X49.375Y93.5
X49.375Y81.0
X49.375Y68.5
X49.375Y56.0
X49.375Y43.5
X49.375Y31.0
X49.375Y18.5
X49.375Y6.0
T3
X17.8Y92.2
X17.8Y79.7
X17.8Y67.2
X17.8Y54.7
X17.8Y42.2
X17.8Y29.7
X17.8Y17.2
X17.8Y4.7
X34.75Y97.25
X34.75Y88.25
X34.75Y84.75
X34.75Y75.75
X34.75Y72.25
X34.75Y63.25
X34.75Y59.75
X34.75Y50.75
X34.75Y47.25
X34.75Y38.25
X34.75Y34.75
X34.75Y25.75
X34.75Y22.25
X34.75Y13.25
X34.75Y9.75
X34.75Y0.75
T4
X64.5Y96.1
X64.5Y89.4
X64.5Y83.6
X64.5Y76.9
X64.5Y71.1
X64.5Y64.4
X64.5Y58.6
X64.5Y51.9
X64.5Y46.1
X64.5Y39.4
X64.5Y33.6
X64.5Y26.9
X64.5Y21.1
X64.5Y14.4
X64.5Y8.6
X64.5Y1.9
X66.0Y89.4
X66.0Y76.9
X66.0Y64.4
X66.0Y51.9
X66.0Y39.4
X66.0Y26.9
X66.0Y14.4
X66.0Y1.9
X66.1Y96.1
X66.1Y83.6
X66.1Y71.1
X66.1Y58.6
X66.1Y46.1
X66.1Y33.6
X66.1Y21.1
X66.1Y8.6
T5
X54.0Y96.25
X54.0Y89.25
X54.0Y83.75
X54.0Y76.75
X54.0Y71.25
X54.0Y64.25
X54.0Y58.75
X54.0Y51.75
X54.0Y46.25
X54.0Y39.25
X54.0Y33.75
X54.0Y26.75
X54.0Y21.25
X54.0Y14.25
X54.0Y8.75
X54.0Y1.75
X56.465Y96.25
X56.465Y83.75
X56.465Y71.25
X56.465Y58.75
X56.465Y46.25
X56.465Y33.75
X56.465Y21.25
X56.465Y8.75
X57.735Y96.25
X57.735Y83.75
X57.735Y71.25
X57.735Y58.75
X57.735Y46.25
X57.735Y33.75
X57.735Y21.25
X57.735Y8.75
T6
X8.0Y96.0
X8.0Y89.5
X8.0Y83.5
X8.0Y77.0
X8.0Y71.0
X8.0Y64.5
X8.0Y58.5
X8.0Y52.0
X8.0Y46.0
X8.0Y39.5
X8.0Y33.5
X8.0Y27.0
X8.0Y21.0
X8.0Y14.5
X8.0Y8.5
X8.0Y2.0
X10.0Y96.0
X10.0Y89.5
X10.0Y83.5
X10.0Y77.0
X10.0Y71.0
X10.0Y64.5
X10.0Y58.5
X10.0Y52.0
X10.0Y46.0
X10.0Y39.5
X10.0Y33.5
X10.0Y27.0
X10.0Y21.0
X10.0Y14.5
X10.0Y8.5
X10.0Y2.0
T7
X40.75Y96.5
X40.75Y89.0
X40.75Y84.0
X40.75Y76.5
X40.75Y71.5
X40.75Y64.0
X40.75Y59.0
X40.75Y51.5
X40.75Y46.5
X40.75Y39.0
X40.75Y34.0
X40.75Y26.5
X40.75Y21.5
X40.75Y14.0
X40.75Y9.0
X40.75Y1.5
X44.25Y96.5
X44.25Y89.0
X44.25Y84.0
X44.25Y76.5
X44.25Y71.5
X44.25Y64.0
X44.25Y59.0
X44.25Y51.5
X44.25Y46.5
X44.25Y39.0
X44.25Y34.0
X44.25Y26.5
X44.25Y21.5
X44.25Y14.0
X44.25Y9.0
X44.25Y1.5
T8
X3.5Y92.75
X3.5Y80.25
X3.5Y67.75
X3.5Y55.25
X3.5Y42.75
X3.5Y30.25
X3.5Y17.75
X3.5Y5.25
X70.5Y92.75
X70.5Y80.25
X70.5Y67.75
X70.5Y55.25
X70.5Y42.75
X70.5Y30.25
X70.5Y17.75
X70.5Y5.25
T0
M30
