%TF.GenerationSoftware,KiCad,Pcbnew,(5.1.9)-1*%
%TF.CreationDate,2021-10-10T12:49:54+09:00*%
%TF.ProjectId,motordecoder2,6d6f746f-7264-4656-936f-646572322e6b,rev?*%
%TF.SameCoordinates,PX66ff300PY7e5ca20*%
%TF.FileFunction,Soldermask,Top*%
%TF.FilePolarity,Negative*%
%FSLAX46Y46*%
G04 Gerber Fmt 4.6, Leading zero omitted, Abs format (unit mm)*
G04 Created by KiCad (PCBNEW (5.1.9)-1) date 2021-10-10 12:49:54*
%MOMM*%
%LPD*%
G01*
G04 APERTURE LIST*
%ADD10C,2.000000*%
%ADD11R,0.550000X0.600000*%
%ADD12R,0.600000X0.550000*%
%ADD13R,1.000000X0.600000*%
%ADD14R,0.500000X1.450000*%
%ADD15R,0.300000X0.500000*%
%ADD16R,0.750000X1.300000*%
%ADD17R,0.700000X0.900000*%
%ADD18R,2.000000X2.000000*%
%ADD19R,1.000000X1.000000*%
%ADD20R,0.900000X0.700000*%
%ADD21R,0.600000X1.000000*%
%ADD22R,0.800000X0.600000*%
%ADD23R,0.700000X0.800000*%
%ADD24R,0.700000X0.300000*%
%ADD25R,0.500000X0.800000*%
%ADD26R,0.700000X1.000000*%
%ADD27R,1.500000X1.500000*%
%ADD28R,0.650000X0.900000*%
%ADD29R,0.900000X0.650000*%
%ADD30R,0.800000X0.800000*%
%ADD31R,0.900000X0.800000*%
%ADD32R,1.700000X1.700000*%
%ADD33C,0.100000*%
%ADD34R,0.950000X0.950000*%
%ADD35R,1.000000X1.800000*%
%ADD36R,2.000000X1.500000*%
%ADD37R,1.200000X0.900000*%
%ADD38R,0.800000X0.900000*%
%ADD39R,0.500000X0.550000*%
%ADD40R,0.800000X0.500000*%
%ADD41R,0.300000X0.700000*%
%ADD42C,0.200000*%
G04 APERTURE END LIST*
D10*
%TO.C,REF\u002A\u002A*%
X70500000Y5250000D03*
%TD*%
%TO.C,REF\u002A\u002A*%
X70500000Y17750000D03*
%TD*%
%TO.C,REF\u002A\u002A*%
X70500000Y30250000D03*
%TD*%
%TO.C,REF\u002A\u002A*%
X70500000Y42750000D03*
%TD*%
%TO.C,REF\u002A\u002A*%
X70500000Y55250000D03*
%TD*%
%TO.C,REF\u002A\u002A*%
X70500000Y67750000D03*
%TD*%
%TO.C,REF\u002A\u002A*%
X70500000Y80250000D03*
%TD*%
%TO.C,REF\u002A\u002A*%
X3500000Y5250000D03*
%TD*%
%TO.C,REF\u002A\u002A*%
X3500000Y17750000D03*
%TD*%
%TO.C,REF\u002A\u002A*%
X3500000Y30250000D03*
%TD*%
%TO.C,REF\u002A\u002A*%
X3500000Y42750000D03*
%TD*%
%TO.C,REF\u002A\u002A*%
X3500000Y55250000D03*
%TD*%
%TO.C,REF\u002A\u002A*%
X3500000Y67750000D03*
%TD*%
%TO.C,REF\u002A\u002A*%
X3500000Y80250000D03*
%TD*%
%TO.C,REF\u002A\u002A*%
X70500000Y92750000D03*
%TD*%
%TO.C,REF\u002A\u002A*%
X3500000Y92750000D03*
%TD*%
D11*
%TO.C,R4*%
X37775000Y4400000D03*
X38825000Y4400000D03*
%TD*%
%TO.C,R4*%
X37775000Y16900000D03*
X38825000Y16900000D03*
%TD*%
%TO.C,R4*%
X37775000Y29400000D03*
X38825000Y29400000D03*
%TD*%
%TO.C,R4*%
X37775000Y41900000D03*
X38825000Y41900000D03*
%TD*%
%TO.C,R4*%
X37775000Y54400000D03*
X38825000Y54400000D03*
%TD*%
%TO.C,R4*%
X37775000Y66900000D03*
X38825000Y66900000D03*
%TD*%
%TO.C,R4*%
X37775000Y79400000D03*
X38825000Y79400000D03*
%TD*%
D12*
%TO.C,R5*%
X38700000Y7375000D03*
X38700000Y8425000D03*
%TD*%
%TO.C,R5*%
X38700000Y19875000D03*
X38700000Y20925000D03*
%TD*%
%TO.C,R5*%
X38700000Y32375000D03*
X38700000Y33425000D03*
%TD*%
%TO.C,R5*%
X38700000Y44875000D03*
X38700000Y45925000D03*
%TD*%
%TO.C,R5*%
X38700000Y57375000D03*
X38700000Y58425000D03*
%TD*%
%TO.C,R5*%
X38700000Y69875000D03*
X38700000Y70925000D03*
%TD*%
%TO.C,R5*%
X38700000Y82375000D03*
X38700000Y83425000D03*
%TD*%
D13*
%TO.C,J13*%
X33000000Y4100000D03*
%TD*%
%TO.C,J13*%
X33000000Y16600000D03*
%TD*%
%TO.C,J13*%
X33000000Y29100000D03*
%TD*%
%TO.C,J13*%
X33000000Y41600000D03*
%TD*%
%TO.C,J13*%
X33000000Y54100000D03*
%TD*%
%TO.C,J13*%
X33000000Y66600000D03*
%TD*%
%TO.C,J13*%
X33000000Y79100000D03*
%TD*%
D12*
%TO.C,R6*%
X39900000Y3375000D03*
X39900000Y4425000D03*
%TD*%
%TO.C,R6*%
X39900000Y15875000D03*
X39900000Y16925000D03*
%TD*%
%TO.C,R6*%
X39900000Y28375000D03*
X39900000Y29425000D03*
%TD*%
%TO.C,R6*%
X39900000Y40875000D03*
X39900000Y41925000D03*
%TD*%
%TO.C,R6*%
X39900000Y53375000D03*
X39900000Y54425000D03*
%TD*%
%TO.C,R6*%
X39900000Y65875000D03*
X39900000Y66925000D03*
%TD*%
%TO.C,R6*%
X39900000Y78375000D03*
X39900000Y79425000D03*
%TD*%
%TO.C,R10*%
X42000000Y6525000D03*
X42000000Y5475000D03*
%TD*%
%TO.C,R10*%
X42000000Y19025000D03*
X42000000Y17975000D03*
%TD*%
%TO.C,R10*%
X42000000Y31525000D03*
X42000000Y30475000D03*
%TD*%
%TO.C,R10*%
X42000000Y44025000D03*
X42000000Y42975000D03*
%TD*%
%TO.C,R10*%
X42000000Y56525000D03*
X42000000Y55475000D03*
%TD*%
%TO.C,R10*%
X42000000Y69025000D03*
X42000000Y67975000D03*
%TD*%
%TO.C,R10*%
X42000000Y81525000D03*
X42000000Y80475000D03*
%TD*%
D14*
%TO.C,D12*%
X64250000Y3875000D03*
X64250000Y6625000D03*
D15*
X64250000Y4700000D03*
X64250000Y5800000D03*
D16*
X63625000Y3950000D03*
X63625000Y6550000D03*
%TD*%
D14*
%TO.C,D12*%
X64250000Y16375000D03*
X64250000Y19125000D03*
D15*
X64250000Y17200000D03*
X64250000Y18300000D03*
D16*
X63625000Y16450000D03*
X63625000Y19050000D03*
%TD*%
D14*
%TO.C,D12*%
X64250000Y28875000D03*
X64250000Y31625000D03*
D15*
X64250000Y29700000D03*
X64250000Y30800000D03*
D16*
X63625000Y28950000D03*
X63625000Y31550000D03*
%TD*%
D14*
%TO.C,D12*%
X64250000Y41375000D03*
X64250000Y44125000D03*
D15*
X64250000Y42200000D03*
X64250000Y43300000D03*
D16*
X63625000Y41450000D03*
X63625000Y44050000D03*
%TD*%
D14*
%TO.C,D12*%
X64250000Y53875000D03*
X64250000Y56625000D03*
D15*
X64250000Y54700000D03*
X64250000Y55800000D03*
D16*
X63625000Y53950000D03*
X63625000Y56550000D03*
%TD*%
D14*
%TO.C,D12*%
X64250000Y66375000D03*
X64250000Y69125000D03*
D15*
X64250000Y67200000D03*
X64250000Y68300000D03*
D16*
X63625000Y66450000D03*
X63625000Y69050000D03*
%TD*%
D14*
%TO.C,D12*%
X64250000Y78875000D03*
X64250000Y81625000D03*
D15*
X64250000Y79700000D03*
X64250000Y80800000D03*
D16*
X63625000Y78950000D03*
X63625000Y81550000D03*
%TD*%
D17*
%TO.C,P7*%
X12300000Y2400000D03*
%TD*%
%TO.C,P7*%
X12300000Y14900000D03*
%TD*%
%TO.C,P7*%
X12300000Y27400000D03*
%TD*%
%TO.C,P7*%
X12300000Y39900000D03*
%TD*%
%TO.C,P7*%
X12300000Y52400000D03*
%TD*%
%TO.C,P7*%
X12300000Y64900000D03*
%TD*%
%TO.C,P7*%
X12300000Y77400000D03*
%TD*%
D14*
%TO.C,D11*%
X12250000Y6625000D03*
X12250000Y3875000D03*
D15*
X12250000Y5800000D03*
X12250000Y4700000D03*
D16*
X12875000Y6550000D03*
X12875000Y3950000D03*
%TD*%
D14*
%TO.C,D11*%
X12250000Y19125000D03*
X12250000Y16375000D03*
D15*
X12250000Y18300000D03*
X12250000Y17200000D03*
D16*
X12875000Y19050000D03*
X12875000Y16450000D03*
%TD*%
D14*
%TO.C,D11*%
X12250000Y31625000D03*
X12250000Y28875000D03*
D15*
X12250000Y30800000D03*
X12250000Y29700000D03*
D16*
X12875000Y31550000D03*
X12875000Y28950000D03*
%TD*%
D14*
%TO.C,D11*%
X12250000Y44125000D03*
X12250000Y41375000D03*
D15*
X12250000Y43300000D03*
X12250000Y42200000D03*
D16*
X12875000Y44050000D03*
X12875000Y41450000D03*
%TD*%
D14*
%TO.C,D11*%
X12250000Y56625000D03*
X12250000Y53875000D03*
D15*
X12250000Y55800000D03*
X12250000Y54700000D03*
D16*
X12875000Y56550000D03*
X12875000Y53950000D03*
%TD*%
D14*
%TO.C,D11*%
X12250000Y69125000D03*
X12250000Y66375000D03*
D15*
X12250000Y68300000D03*
X12250000Y67200000D03*
D16*
X12875000Y69050000D03*
X12875000Y66450000D03*
%TD*%
D14*
%TO.C,D11*%
X12250000Y81625000D03*
X12250000Y78875000D03*
D15*
X12250000Y80800000D03*
X12250000Y79700000D03*
D16*
X12875000Y81550000D03*
X12875000Y78950000D03*
%TD*%
D11*
%TO.C,R3*%
X37525000Y6000000D03*
X36475000Y6000000D03*
%TD*%
%TO.C,R3*%
X37525000Y18500000D03*
X36475000Y18500000D03*
%TD*%
%TO.C,R3*%
X37525000Y31000000D03*
X36475000Y31000000D03*
%TD*%
%TO.C,R3*%
X37525000Y43500000D03*
X36475000Y43500000D03*
%TD*%
%TO.C,R3*%
X37525000Y56000000D03*
X36475000Y56000000D03*
%TD*%
%TO.C,R3*%
X37525000Y68500000D03*
X36475000Y68500000D03*
%TD*%
%TO.C,R3*%
X37525000Y81000000D03*
X36475000Y81000000D03*
%TD*%
D18*
%TO.C,P1*%
X10000000Y8500000D03*
X8000000Y8500000D03*
%TD*%
%TO.C,P1*%
X10000000Y21000000D03*
X8000000Y21000000D03*
%TD*%
%TO.C,P1*%
X10000000Y33500000D03*
X8000000Y33500000D03*
%TD*%
%TO.C,P1*%
X10000000Y46000000D03*
X8000000Y46000000D03*
%TD*%
%TO.C,P1*%
X10000000Y58500000D03*
X8000000Y58500000D03*
%TD*%
%TO.C,P1*%
X10000000Y71000000D03*
X8000000Y71000000D03*
%TD*%
%TO.C,P1*%
X10000000Y83500000D03*
X8000000Y83500000D03*
%TD*%
D19*
%TO.C,J12*%
X66000000Y1900000D03*
%TD*%
%TO.C,J12*%
X66000000Y14400000D03*
%TD*%
%TO.C,J12*%
X66000000Y26900000D03*
%TD*%
%TO.C,J12*%
X66000000Y39400000D03*
%TD*%
%TO.C,J12*%
X66000000Y51900000D03*
%TD*%
%TO.C,J12*%
X66000000Y64400000D03*
%TD*%
%TO.C,J12*%
X66000000Y76900000D03*
%TD*%
D11*
%TO.C,R9*%
X40875000Y7400000D03*
X41925000Y7400000D03*
%TD*%
%TO.C,R9*%
X40875000Y19900000D03*
X41925000Y19900000D03*
%TD*%
%TO.C,R9*%
X40875000Y32400000D03*
X41925000Y32400000D03*
%TD*%
%TO.C,R9*%
X40875000Y44900000D03*
X41925000Y44900000D03*
%TD*%
%TO.C,R9*%
X40875000Y57400000D03*
X41925000Y57400000D03*
%TD*%
%TO.C,R9*%
X40875000Y69900000D03*
X41925000Y69900000D03*
%TD*%
%TO.C,R9*%
X40875000Y82400000D03*
X41925000Y82400000D03*
%TD*%
D20*
%TO.C,P11*%
X47250000Y6000000D03*
%TD*%
%TO.C,P11*%
X47250000Y18500000D03*
%TD*%
%TO.C,P11*%
X47250000Y31000000D03*
%TD*%
%TO.C,P11*%
X47250000Y43500000D03*
%TD*%
%TO.C,P11*%
X47250000Y56000000D03*
%TD*%
%TO.C,P11*%
X47250000Y68500000D03*
%TD*%
%TO.C,P11*%
X47250000Y81000000D03*
%TD*%
D12*
%TO.C,R18*%
X54800000Y4225000D03*
X54800000Y3175000D03*
%TD*%
%TO.C,R18*%
X54800000Y16725000D03*
X54800000Y15675000D03*
%TD*%
%TO.C,R18*%
X54800000Y29225000D03*
X54800000Y28175000D03*
%TD*%
%TO.C,R18*%
X54800000Y41725000D03*
X54800000Y40675000D03*
%TD*%
%TO.C,R18*%
X54800000Y54225000D03*
X54800000Y53175000D03*
%TD*%
%TO.C,R18*%
X54800000Y66725000D03*
X54800000Y65675000D03*
%TD*%
%TO.C,R18*%
X54800000Y79225000D03*
X54800000Y78175000D03*
%TD*%
D11*
%TO.C,R17*%
X53175000Y5900000D03*
X54225000Y5900000D03*
%TD*%
%TO.C,R17*%
X53175000Y18400000D03*
X54225000Y18400000D03*
%TD*%
%TO.C,R17*%
X53175000Y30900000D03*
X54225000Y30900000D03*
%TD*%
%TO.C,R17*%
X53175000Y43400000D03*
X54225000Y43400000D03*
%TD*%
%TO.C,R17*%
X53175000Y55900000D03*
X54225000Y55900000D03*
%TD*%
%TO.C,R17*%
X53175000Y68400000D03*
X54225000Y68400000D03*
%TD*%
%TO.C,R17*%
X53175000Y80900000D03*
X54225000Y80900000D03*
%TD*%
D21*
%TO.C,P8*%
X15500000Y8700000D03*
%TD*%
%TO.C,P8*%
X15500000Y21200000D03*
%TD*%
%TO.C,P8*%
X15500000Y33700000D03*
%TD*%
%TO.C,P8*%
X15500000Y46200000D03*
%TD*%
%TO.C,P8*%
X15500000Y58700000D03*
%TD*%
%TO.C,P8*%
X15500000Y71200000D03*
%TD*%
%TO.C,P8*%
X15500000Y83700000D03*
%TD*%
D11*
%TO.C,R26*%
X58975000Y8900000D03*
X60025000Y8900000D03*
%TD*%
%TO.C,R26*%
X58975000Y21400000D03*
X60025000Y21400000D03*
%TD*%
%TO.C,R26*%
X58975000Y33900000D03*
X60025000Y33900000D03*
%TD*%
%TO.C,R26*%
X58975000Y46400000D03*
X60025000Y46400000D03*
%TD*%
%TO.C,R26*%
X58975000Y58900000D03*
X60025000Y58900000D03*
%TD*%
%TO.C,R26*%
X58975000Y71400000D03*
X60025000Y71400000D03*
%TD*%
%TO.C,R26*%
X58975000Y83900000D03*
X60025000Y83900000D03*
%TD*%
D13*
%TO.C,P10*%
X51300000Y4100000D03*
%TD*%
%TO.C,P10*%
X51300000Y16600000D03*
%TD*%
%TO.C,P10*%
X51300000Y29100000D03*
%TD*%
%TO.C,P10*%
X51300000Y41600000D03*
%TD*%
%TO.C,P10*%
X51300000Y54100000D03*
%TD*%
%TO.C,P10*%
X51300000Y66600000D03*
%TD*%
%TO.C,P10*%
X51300000Y79100000D03*
%TD*%
D11*
%TO.C,R25*%
X60025000Y7600000D03*
X58975000Y7600000D03*
%TD*%
%TO.C,R25*%
X60025000Y20100000D03*
X58975000Y20100000D03*
%TD*%
%TO.C,R25*%
X60025000Y32600000D03*
X58975000Y32600000D03*
%TD*%
%TO.C,R25*%
X60025000Y45100000D03*
X58975000Y45100000D03*
%TD*%
%TO.C,R25*%
X60025000Y57600000D03*
X58975000Y57600000D03*
%TD*%
%TO.C,R25*%
X60025000Y70100000D03*
X58975000Y70100000D03*
%TD*%
%TO.C,R25*%
X60025000Y82600000D03*
X58975000Y82600000D03*
%TD*%
D22*
%TO.C,D21*%
X25600000Y5150000D03*
X25600000Y6850000D03*
%TD*%
%TO.C,D21*%
X25600000Y17650000D03*
X25600000Y19350000D03*
%TD*%
%TO.C,D21*%
X25600000Y30150000D03*
X25600000Y31850000D03*
%TD*%
%TO.C,D21*%
X25600000Y42650000D03*
X25600000Y44350000D03*
%TD*%
%TO.C,D21*%
X25600000Y55150000D03*
X25600000Y56850000D03*
%TD*%
%TO.C,D21*%
X25600000Y67650000D03*
X25600000Y69350000D03*
%TD*%
%TO.C,D21*%
X25600000Y80150000D03*
X25600000Y81850000D03*
%TD*%
D23*
%TO.C,C4*%
X50100000Y5775000D03*
X50100000Y4225000D03*
%TD*%
%TO.C,C4*%
X50100000Y18275000D03*
X50100000Y16725000D03*
%TD*%
%TO.C,C4*%
X50100000Y30775000D03*
X50100000Y29225000D03*
%TD*%
%TO.C,C4*%
X50100000Y43275000D03*
X50100000Y41725000D03*
%TD*%
%TO.C,C4*%
X50100000Y55775000D03*
X50100000Y54225000D03*
%TD*%
%TO.C,C4*%
X50100000Y68275000D03*
X50100000Y66725000D03*
%TD*%
%TO.C,C4*%
X50100000Y80775000D03*
X50100000Y79225000D03*
%TD*%
D19*
%TO.C,J18*%
X64500000Y8600000D03*
%TD*%
%TO.C,J18*%
X64500000Y21100000D03*
%TD*%
%TO.C,J18*%
X64500000Y33600000D03*
%TD*%
%TO.C,J18*%
X64500000Y46100000D03*
%TD*%
%TO.C,J18*%
X64500000Y58600000D03*
%TD*%
%TO.C,J18*%
X64500000Y71100000D03*
%TD*%
%TO.C,J18*%
X64500000Y83600000D03*
%TD*%
D24*
%TO.C,Q12*%
X62450000Y4900000D03*
X62450000Y4400000D03*
X62450000Y3900000D03*
X60950000Y3900000D03*
X60950000Y4400000D03*
X60950000Y4900000D03*
%TD*%
%TO.C,Q12*%
X62450000Y17400000D03*
X62450000Y16900000D03*
X62450000Y16400000D03*
X60950000Y16400000D03*
X60950000Y16900000D03*
X60950000Y17400000D03*
%TD*%
%TO.C,Q12*%
X62450000Y29900000D03*
X62450000Y29400000D03*
X62450000Y28900000D03*
X60950000Y28900000D03*
X60950000Y29400000D03*
X60950000Y29900000D03*
%TD*%
%TO.C,Q12*%
X62450000Y42400000D03*
X62450000Y41900000D03*
X62450000Y41400000D03*
X60950000Y41400000D03*
X60950000Y41900000D03*
X60950000Y42400000D03*
%TD*%
%TO.C,Q12*%
X62450000Y54900000D03*
X62450000Y54400000D03*
X62450000Y53900000D03*
X60950000Y53900000D03*
X60950000Y54400000D03*
X60950000Y54900000D03*
%TD*%
%TO.C,Q12*%
X62450000Y67400000D03*
X62450000Y66900000D03*
X62450000Y66400000D03*
X60950000Y66400000D03*
X60950000Y66900000D03*
X60950000Y67400000D03*
%TD*%
%TO.C,Q12*%
X62450000Y79900000D03*
X62450000Y79400000D03*
X62450000Y78900000D03*
X60950000Y78900000D03*
X60950000Y79400000D03*
X60950000Y79900000D03*
%TD*%
D19*
%TO.C,J14*%
X64500000Y1900000D03*
%TD*%
%TO.C,J14*%
X64500000Y14400000D03*
%TD*%
%TO.C,J14*%
X64500000Y26900000D03*
%TD*%
%TO.C,J14*%
X64500000Y39400000D03*
%TD*%
%TO.C,J14*%
X64500000Y51900000D03*
%TD*%
%TO.C,J14*%
X64500000Y64400000D03*
%TD*%
%TO.C,J14*%
X64500000Y76900000D03*
%TD*%
D11*
%TO.C,R24*%
X56775000Y2400000D03*
X57825000Y2400000D03*
%TD*%
%TO.C,R24*%
X56775000Y14900000D03*
X57825000Y14900000D03*
%TD*%
%TO.C,R24*%
X56775000Y27400000D03*
X57825000Y27400000D03*
%TD*%
%TO.C,R24*%
X56775000Y39900000D03*
X57825000Y39900000D03*
%TD*%
%TO.C,R24*%
X56775000Y52400000D03*
X57825000Y52400000D03*
%TD*%
%TO.C,R24*%
X56775000Y64900000D03*
X57825000Y64900000D03*
%TD*%
%TO.C,R24*%
X56775000Y77400000D03*
X57825000Y77400000D03*
%TD*%
D21*
%TO.C,J19*%
X61900000Y2700000D03*
%TD*%
%TO.C,J19*%
X61900000Y15200000D03*
%TD*%
%TO.C,J19*%
X61900000Y27700000D03*
%TD*%
%TO.C,J19*%
X61900000Y40200000D03*
%TD*%
%TO.C,J19*%
X61900000Y52700000D03*
%TD*%
%TO.C,J19*%
X61900000Y65200000D03*
%TD*%
%TO.C,J19*%
X61900000Y77700000D03*
%TD*%
D19*
%TO.C,J16*%
X66100000Y8600000D03*
%TD*%
%TO.C,J16*%
X66100000Y21100000D03*
%TD*%
%TO.C,J16*%
X66100000Y33600000D03*
%TD*%
%TO.C,J16*%
X66100000Y46100000D03*
%TD*%
%TO.C,J16*%
X66100000Y58600000D03*
%TD*%
%TO.C,J16*%
X66100000Y71100000D03*
%TD*%
%TO.C,J16*%
X66100000Y83600000D03*
%TD*%
D25*
%TO.C,Q11*%
X14900000Y5250000D03*
X14250000Y7150000D03*
X15550000Y7150000D03*
%TD*%
%TO.C,Q11*%
X14900000Y17750000D03*
X14250000Y19650000D03*
X15550000Y19650000D03*
%TD*%
%TO.C,Q11*%
X14900000Y30250000D03*
X14250000Y32150000D03*
X15550000Y32150000D03*
%TD*%
%TO.C,Q11*%
X14900000Y42750000D03*
X14250000Y44650000D03*
X15550000Y44650000D03*
%TD*%
%TO.C,Q11*%
X14900000Y55250000D03*
X14250000Y57150000D03*
X15550000Y57150000D03*
%TD*%
%TO.C,Q11*%
X14900000Y67750000D03*
X14250000Y69650000D03*
X15550000Y69650000D03*
%TD*%
%TO.C,Q11*%
X14900000Y80250000D03*
X14250000Y82150000D03*
X15550000Y82150000D03*
%TD*%
D26*
%TO.C,Q2*%
X38700000Y3200000D03*
X37750000Y3200000D03*
X36800000Y3200000D03*
X36800000Y800000D03*
X37750000Y800000D03*
X38700000Y800000D03*
%TD*%
%TO.C,Q2*%
X38700000Y15700000D03*
X37750000Y15700000D03*
X36800000Y15700000D03*
X36800000Y13300000D03*
X37750000Y13300000D03*
X38700000Y13300000D03*
%TD*%
%TO.C,Q2*%
X38700000Y28200000D03*
X37750000Y28200000D03*
X36800000Y28200000D03*
X36800000Y25800000D03*
X37750000Y25800000D03*
X38700000Y25800000D03*
%TD*%
%TO.C,Q2*%
X38700000Y40700000D03*
X37750000Y40700000D03*
X36800000Y40700000D03*
X36800000Y38300000D03*
X37750000Y38300000D03*
X38700000Y38300000D03*
%TD*%
%TO.C,Q2*%
X38700000Y53200000D03*
X37750000Y53200000D03*
X36800000Y53200000D03*
X36800000Y50800000D03*
X37750000Y50800000D03*
X38700000Y50800000D03*
%TD*%
%TO.C,Q2*%
X38700000Y65700000D03*
X37750000Y65700000D03*
X36800000Y65700000D03*
X36800000Y63300000D03*
X37750000Y63300000D03*
X38700000Y63300000D03*
%TD*%
%TO.C,Q2*%
X38700000Y78200000D03*
X37750000Y78200000D03*
X36800000Y78200000D03*
X36800000Y75800000D03*
X37750000Y75800000D03*
X38700000Y75800000D03*
%TD*%
D27*
%TO.C,P6*%
X40750000Y1500000D03*
X44250000Y1500000D03*
%TD*%
%TO.C,P6*%
X40750000Y14000000D03*
X44250000Y14000000D03*
%TD*%
%TO.C,P6*%
X40750000Y26500000D03*
X44250000Y26500000D03*
%TD*%
%TO.C,P6*%
X40750000Y39000000D03*
X44250000Y39000000D03*
%TD*%
%TO.C,P6*%
X40750000Y51500000D03*
X44250000Y51500000D03*
%TD*%
%TO.C,P6*%
X40750000Y64000000D03*
X44250000Y64000000D03*
%TD*%
%TO.C,P6*%
X40750000Y76500000D03*
X44250000Y76500000D03*
%TD*%
D11*
%TO.C,R33*%
X22475000Y6400000D03*
X23525000Y6400000D03*
%TD*%
%TO.C,R33*%
X22475000Y18900000D03*
X23525000Y18900000D03*
%TD*%
%TO.C,R33*%
X22475000Y31400000D03*
X23525000Y31400000D03*
%TD*%
%TO.C,R33*%
X22475000Y43900000D03*
X23525000Y43900000D03*
%TD*%
%TO.C,R33*%
X22475000Y56400000D03*
X23525000Y56400000D03*
%TD*%
%TO.C,R33*%
X22475000Y68900000D03*
X23525000Y68900000D03*
%TD*%
%TO.C,R33*%
X22475000Y81400000D03*
X23525000Y81400000D03*
%TD*%
D24*
%TO.C,Q6*%
X43050000Y4200000D03*
X43050000Y3700000D03*
X43050000Y3200000D03*
X44550000Y3200000D03*
X44550000Y3700000D03*
X44550000Y4200000D03*
%TD*%
%TO.C,Q6*%
X43050000Y16700000D03*
X43050000Y16200000D03*
X43050000Y15700000D03*
X44550000Y15700000D03*
X44550000Y16200000D03*
X44550000Y16700000D03*
%TD*%
%TO.C,Q6*%
X43050000Y29200000D03*
X43050000Y28700000D03*
X43050000Y28200000D03*
X44550000Y28200000D03*
X44550000Y28700000D03*
X44550000Y29200000D03*
%TD*%
%TO.C,Q6*%
X43050000Y41700000D03*
X43050000Y41200000D03*
X43050000Y40700000D03*
X44550000Y40700000D03*
X44550000Y41200000D03*
X44550000Y41700000D03*
%TD*%
%TO.C,Q6*%
X43050000Y54200000D03*
X43050000Y53700000D03*
X43050000Y53200000D03*
X44550000Y53200000D03*
X44550000Y53700000D03*
X44550000Y54200000D03*
%TD*%
%TO.C,Q6*%
X43050000Y66700000D03*
X43050000Y66200000D03*
X43050000Y65700000D03*
X44550000Y65700000D03*
X44550000Y66200000D03*
X44550000Y66700000D03*
%TD*%
%TO.C,Q6*%
X43050000Y79200000D03*
X43050000Y78700000D03*
X43050000Y78200000D03*
X44550000Y78200000D03*
X44550000Y78700000D03*
X44550000Y79200000D03*
%TD*%
D28*
%TO.C,R22*%
X60475000Y6000000D03*
X62125000Y6000000D03*
%TD*%
%TO.C,R22*%
X60475000Y18500000D03*
X62125000Y18500000D03*
%TD*%
%TO.C,R22*%
X60475000Y31000000D03*
X62125000Y31000000D03*
%TD*%
%TO.C,R22*%
X60475000Y43500000D03*
X62125000Y43500000D03*
%TD*%
%TO.C,R22*%
X60475000Y56000000D03*
X62125000Y56000000D03*
%TD*%
%TO.C,R22*%
X60475000Y68500000D03*
X62125000Y68500000D03*
%TD*%
%TO.C,R22*%
X60475000Y81000000D03*
X62125000Y81000000D03*
%TD*%
D26*
%TO.C,Q1*%
X35550000Y9700000D03*
X36500000Y9700000D03*
X37450000Y9700000D03*
X37450000Y7300000D03*
X36500000Y7300000D03*
X35550000Y7300000D03*
%TD*%
%TO.C,Q1*%
X35550000Y22200000D03*
X36500000Y22200000D03*
X37450000Y22200000D03*
X37450000Y19800000D03*
X36500000Y19800000D03*
X35550000Y19800000D03*
%TD*%
%TO.C,Q1*%
X35550000Y34700000D03*
X36500000Y34700000D03*
X37450000Y34700000D03*
X37450000Y32300000D03*
X36500000Y32300000D03*
X35550000Y32300000D03*
%TD*%
%TO.C,Q1*%
X35550000Y47200000D03*
X36500000Y47200000D03*
X37450000Y47200000D03*
X37450000Y44800000D03*
X36500000Y44800000D03*
X35550000Y44800000D03*
%TD*%
%TO.C,Q1*%
X35550000Y59700000D03*
X36500000Y59700000D03*
X37450000Y59700000D03*
X37450000Y57300000D03*
X36500000Y57300000D03*
X35550000Y57300000D03*
%TD*%
%TO.C,Q1*%
X35550000Y72200000D03*
X36500000Y72200000D03*
X37450000Y72200000D03*
X37450000Y69800000D03*
X36500000Y69800000D03*
X35550000Y69800000D03*
%TD*%
%TO.C,Q1*%
X35550000Y84700000D03*
X36500000Y84700000D03*
X37450000Y84700000D03*
X37450000Y82300000D03*
X36500000Y82300000D03*
X35550000Y82300000D03*
%TD*%
D28*
%TO.C,R21*%
X12575000Y8600000D03*
X14225000Y8600000D03*
%TD*%
%TO.C,R21*%
X12575000Y21100000D03*
X14225000Y21100000D03*
%TD*%
%TO.C,R21*%
X12575000Y33600000D03*
X14225000Y33600000D03*
%TD*%
%TO.C,R21*%
X12575000Y46100000D03*
X14225000Y46100000D03*
%TD*%
%TO.C,R21*%
X12575000Y58600000D03*
X14225000Y58600000D03*
%TD*%
%TO.C,R21*%
X12575000Y71100000D03*
X14225000Y71100000D03*
%TD*%
%TO.C,R21*%
X12575000Y83600000D03*
X14225000Y83600000D03*
%TD*%
D24*
%TO.C,Q8*%
X14950000Y2600000D03*
X14950000Y2100000D03*
X14950000Y1600000D03*
X13450000Y1600000D03*
X13450000Y2100000D03*
X13450000Y2600000D03*
%TD*%
%TO.C,Q8*%
X14950000Y15100000D03*
X14950000Y14600000D03*
X14950000Y14100000D03*
X13450000Y14100000D03*
X13450000Y14600000D03*
X13450000Y15100000D03*
%TD*%
%TO.C,Q8*%
X14950000Y27600000D03*
X14950000Y27100000D03*
X14950000Y26600000D03*
X13450000Y26600000D03*
X13450000Y27100000D03*
X13450000Y27600000D03*
%TD*%
%TO.C,Q8*%
X14950000Y40100000D03*
X14950000Y39600000D03*
X14950000Y39100000D03*
X13450000Y39100000D03*
X13450000Y39600000D03*
X13450000Y40100000D03*
%TD*%
%TO.C,Q8*%
X14950000Y52600000D03*
X14950000Y52100000D03*
X14950000Y51600000D03*
X13450000Y51600000D03*
X13450000Y52100000D03*
X13450000Y52600000D03*
%TD*%
%TO.C,Q8*%
X14950000Y65100000D03*
X14950000Y64600000D03*
X14950000Y64100000D03*
X13450000Y64100000D03*
X13450000Y64600000D03*
X13450000Y65100000D03*
%TD*%
%TO.C,Q8*%
X14950000Y77600000D03*
X14950000Y77100000D03*
X14950000Y76600000D03*
X13450000Y76600000D03*
X13450000Y77100000D03*
X13450000Y77600000D03*
%TD*%
D29*
%TO.C,R14*%
X45700000Y4775000D03*
X45700000Y3125000D03*
%TD*%
%TO.C,R14*%
X45700000Y17275000D03*
X45700000Y15625000D03*
%TD*%
%TO.C,R14*%
X45700000Y29775000D03*
X45700000Y28125000D03*
%TD*%
%TO.C,R14*%
X45700000Y42275000D03*
X45700000Y40625000D03*
%TD*%
%TO.C,R14*%
X45700000Y54775000D03*
X45700000Y53125000D03*
%TD*%
%TO.C,R14*%
X45700000Y67275000D03*
X45700000Y65625000D03*
%TD*%
%TO.C,R14*%
X45700000Y79775000D03*
X45700000Y78125000D03*
%TD*%
D30*
%TO.C,C3*%
X48600000Y5775000D03*
X48600000Y4225000D03*
%TD*%
%TO.C,C3*%
X48600000Y18275000D03*
X48600000Y16725000D03*
%TD*%
%TO.C,C3*%
X48600000Y30775000D03*
X48600000Y29225000D03*
%TD*%
%TO.C,C3*%
X48600000Y43275000D03*
X48600000Y41725000D03*
%TD*%
%TO.C,C3*%
X48600000Y55775000D03*
X48600000Y54225000D03*
%TD*%
%TO.C,C3*%
X48600000Y68275000D03*
X48600000Y66725000D03*
%TD*%
%TO.C,C3*%
X48600000Y80775000D03*
X48600000Y79225000D03*
%TD*%
D27*
%TO.C,P5*%
X44250000Y9000000D03*
X40750000Y9000000D03*
%TD*%
%TO.C,P5*%
X44250000Y21500000D03*
X40750000Y21500000D03*
%TD*%
%TO.C,P5*%
X44250000Y34000000D03*
X40750000Y34000000D03*
%TD*%
%TO.C,P5*%
X44250000Y46500000D03*
X40750000Y46500000D03*
%TD*%
%TO.C,P5*%
X44250000Y59000000D03*
X40750000Y59000000D03*
%TD*%
%TO.C,P5*%
X44250000Y71500000D03*
X40750000Y71500000D03*
%TD*%
%TO.C,P5*%
X44250000Y84000000D03*
X40750000Y84000000D03*
%TD*%
D31*
%TO.C,D3*%
X31700000Y4750000D03*
X31700000Y6850000D03*
%TD*%
%TO.C,D3*%
X31700000Y17250000D03*
X31700000Y19350000D03*
%TD*%
%TO.C,D3*%
X31700000Y29750000D03*
X31700000Y31850000D03*
%TD*%
%TO.C,D3*%
X31700000Y42250000D03*
X31700000Y44350000D03*
%TD*%
%TO.C,D3*%
X31700000Y54750000D03*
X31700000Y56850000D03*
%TD*%
%TO.C,D3*%
X31700000Y67250000D03*
X31700000Y69350000D03*
%TD*%
%TO.C,D3*%
X31700000Y79750000D03*
X31700000Y81850000D03*
%TD*%
D32*
%TO.C,U2*%
X57300000Y5250000D03*
D33*
G36*
X56559755Y7099039D02*
G01*
X56569134Y7096194D01*
X56577779Y7091573D01*
X56585355Y7085355D01*
X56591573Y7077779D01*
X56596194Y7069134D01*
X56599039Y7059755D01*
X56600000Y7050000D01*
X56600000Y6350000D01*
X56599039Y6340245D01*
X56596194Y6330866D01*
X56591573Y6322221D01*
X56585355Y6314645D01*
X56577779Y6308427D01*
X56569134Y6303806D01*
X56559755Y6300961D01*
X56550000Y6300000D01*
X56500711Y6300000D01*
X56490956Y6300961D01*
X56481577Y6303806D01*
X56472932Y6308427D01*
X56465356Y6314645D01*
X56414645Y6365356D01*
X56408427Y6372932D01*
X56403806Y6381577D01*
X56400961Y6390956D01*
X56400000Y6400711D01*
X56400000Y7050000D01*
X56400961Y7059755D01*
X56403806Y7069134D01*
X56408427Y7077779D01*
X56414645Y7085355D01*
X56422221Y7091573D01*
X56430866Y7096194D01*
X56440245Y7099039D01*
X56450000Y7100000D01*
X56550000Y7100000D01*
X56559755Y7099039D01*
G37*
G36*
G01*
X56800000Y6350000D02*
X56800000Y7050000D01*
G75*
G02*
X56850000Y7100000I50000J0D01*
G01*
X56950000Y7100000D01*
G75*
G02*
X57000000Y7050000I0J-50000D01*
G01*
X57000000Y6350000D01*
G75*
G02*
X56950000Y6300000I-50000J0D01*
G01*
X56850000Y6300000D01*
G75*
G02*
X56800000Y6350000I0J50000D01*
G01*
G37*
G36*
G01*
X57200000Y6350000D02*
X57200000Y7050000D01*
G75*
G02*
X57250000Y7100000I50000J0D01*
G01*
X57350000Y7100000D01*
G75*
G02*
X57400000Y7050000I0J-50000D01*
G01*
X57400000Y6350000D01*
G75*
G02*
X57350000Y6300000I-50000J0D01*
G01*
X57250000Y6300000D01*
G75*
G02*
X57200000Y6350000I0J50000D01*
G01*
G37*
G36*
G01*
X57600000Y6350000D02*
X57600000Y7050000D01*
G75*
G02*
X57650000Y7100000I50000J0D01*
G01*
X57750000Y7100000D01*
G75*
G02*
X57800000Y7050000I0J-50000D01*
G01*
X57800000Y6350000D01*
G75*
G02*
X57750000Y6300000I-50000J0D01*
G01*
X57650000Y6300000D01*
G75*
G02*
X57600000Y6350000I0J50000D01*
G01*
G37*
G36*
X58159755Y7099039D02*
G01*
X58169134Y7096194D01*
X58177779Y7091573D01*
X58185355Y7085355D01*
X58191573Y7077779D01*
X58196194Y7069134D01*
X58199039Y7059755D01*
X58200000Y7050000D01*
X58200000Y6400711D01*
X58199039Y6390956D01*
X58196194Y6381577D01*
X58191573Y6372932D01*
X58185355Y6365356D01*
X58134644Y6314645D01*
X58127068Y6308427D01*
X58118423Y6303806D01*
X58109044Y6300961D01*
X58099289Y6300000D01*
X58050000Y6300000D01*
X58040245Y6300961D01*
X58030866Y6303806D01*
X58022221Y6308427D01*
X58014645Y6314645D01*
X58008427Y6322221D01*
X58003806Y6330866D01*
X58000961Y6340245D01*
X58000000Y6350000D01*
X58000000Y7050000D01*
X58000961Y7059755D01*
X58003806Y7069134D01*
X58008427Y7077779D01*
X58014645Y7085355D01*
X58022221Y7091573D01*
X58030866Y7096194D01*
X58040245Y7099039D01*
X58050000Y7100000D01*
X58150000Y7100000D01*
X58159755Y7099039D01*
G37*
G36*
X59109755Y6149039D02*
G01*
X59119134Y6146194D01*
X59127779Y6141573D01*
X59135355Y6135355D01*
X59141573Y6127779D01*
X59146194Y6119134D01*
X59149039Y6109755D01*
X59150000Y6100000D01*
X59150000Y6000000D01*
X59149039Y5990245D01*
X59146194Y5980866D01*
X59141573Y5972221D01*
X59135355Y5964645D01*
X59127779Y5958427D01*
X59119134Y5953806D01*
X59109755Y5950961D01*
X59100000Y5950000D01*
X58400000Y5950000D01*
X58390245Y5950961D01*
X58380866Y5953806D01*
X58372221Y5958427D01*
X58364645Y5964645D01*
X58358427Y5972221D01*
X58353806Y5980866D01*
X58350961Y5990245D01*
X58350000Y6000000D01*
X58350000Y6049289D01*
X58350961Y6059044D01*
X58353806Y6068423D01*
X58358427Y6077068D01*
X58364645Y6084644D01*
X58415356Y6135355D01*
X58422932Y6141573D01*
X58431577Y6146194D01*
X58440956Y6149039D01*
X58450711Y6150000D01*
X59100000Y6150000D01*
X59109755Y6149039D01*
G37*
G36*
G01*
X58350000Y5600000D02*
X58350000Y5700000D01*
G75*
G02*
X58400000Y5750000I50000J0D01*
G01*
X59100000Y5750000D01*
G75*
G02*
X59150000Y5700000I0J-50000D01*
G01*
X59150000Y5600000D01*
G75*
G02*
X59100000Y5550000I-50000J0D01*
G01*
X58400000Y5550000D01*
G75*
G02*
X58350000Y5600000I0J50000D01*
G01*
G37*
G36*
G01*
X58350000Y5200000D02*
X58350000Y5300000D01*
G75*
G02*
X58400000Y5350000I50000J0D01*
G01*
X59100000Y5350000D01*
G75*
G02*
X59150000Y5300000I0J-50000D01*
G01*
X59150000Y5200000D01*
G75*
G02*
X59100000Y5150000I-50000J0D01*
G01*
X58400000Y5150000D01*
G75*
G02*
X58350000Y5200000I0J50000D01*
G01*
G37*
G36*
G01*
X58350000Y4800000D02*
X58350000Y4900000D01*
G75*
G02*
X58400000Y4950000I50000J0D01*
G01*
X59100000Y4950000D01*
G75*
G02*
X59150000Y4900000I0J-50000D01*
G01*
X59150000Y4800000D01*
G75*
G02*
X59100000Y4750000I-50000J0D01*
G01*
X58400000Y4750000D01*
G75*
G02*
X58350000Y4800000I0J50000D01*
G01*
G37*
G36*
X59109755Y4549039D02*
G01*
X59119134Y4546194D01*
X59127779Y4541573D01*
X59135355Y4535355D01*
X59141573Y4527779D01*
X59146194Y4519134D01*
X59149039Y4509755D01*
X59150000Y4500000D01*
X59150000Y4400000D01*
X59149039Y4390245D01*
X59146194Y4380866D01*
X59141573Y4372221D01*
X59135355Y4364645D01*
X59127779Y4358427D01*
X59119134Y4353806D01*
X59109755Y4350961D01*
X59100000Y4350000D01*
X58450711Y4350000D01*
X58440956Y4350961D01*
X58431577Y4353806D01*
X58422932Y4358427D01*
X58415356Y4364645D01*
X58364645Y4415356D01*
X58358427Y4422932D01*
X58353806Y4431577D01*
X58350961Y4440956D01*
X58350000Y4450711D01*
X58350000Y4500000D01*
X58350961Y4509755D01*
X58353806Y4519134D01*
X58358427Y4527779D01*
X58364645Y4535355D01*
X58372221Y4541573D01*
X58380866Y4546194D01*
X58390245Y4549039D01*
X58400000Y4550000D01*
X59100000Y4550000D01*
X59109755Y4549039D01*
G37*
G36*
X58109044Y4199039D02*
G01*
X58118423Y4196194D01*
X58127068Y4191573D01*
X58134644Y4185355D01*
X58185355Y4134644D01*
X58191573Y4127068D01*
X58196194Y4118423D01*
X58199039Y4109044D01*
X58200000Y4099289D01*
X58200000Y3450000D01*
X58199039Y3440245D01*
X58196194Y3430866D01*
X58191573Y3422221D01*
X58185355Y3414645D01*
X58177779Y3408427D01*
X58169134Y3403806D01*
X58159755Y3400961D01*
X58150000Y3400000D01*
X58050000Y3400000D01*
X58040245Y3400961D01*
X58030866Y3403806D01*
X58022221Y3408427D01*
X58014645Y3414645D01*
X58008427Y3422221D01*
X58003806Y3430866D01*
X58000961Y3440245D01*
X58000000Y3450000D01*
X58000000Y4150000D01*
X58000961Y4159755D01*
X58003806Y4169134D01*
X58008427Y4177779D01*
X58014645Y4185355D01*
X58022221Y4191573D01*
X58030866Y4196194D01*
X58040245Y4199039D01*
X58050000Y4200000D01*
X58099289Y4200000D01*
X58109044Y4199039D01*
G37*
G36*
G01*
X57600000Y3450000D02*
X57600000Y4150000D01*
G75*
G02*
X57650000Y4200000I50000J0D01*
G01*
X57750000Y4200000D01*
G75*
G02*
X57800000Y4150000I0J-50000D01*
G01*
X57800000Y3450000D01*
G75*
G02*
X57750000Y3400000I-50000J0D01*
G01*
X57650000Y3400000D01*
G75*
G02*
X57600000Y3450000I0J50000D01*
G01*
G37*
G36*
G01*
X57200000Y3450000D02*
X57200000Y4150000D01*
G75*
G02*
X57250000Y4200000I50000J0D01*
G01*
X57350000Y4200000D01*
G75*
G02*
X57400000Y4150000I0J-50000D01*
G01*
X57400000Y3450000D01*
G75*
G02*
X57350000Y3400000I-50000J0D01*
G01*
X57250000Y3400000D01*
G75*
G02*
X57200000Y3450000I0J50000D01*
G01*
G37*
G36*
G01*
X56800000Y3450000D02*
X56800000Y4150000D01*
G75*
G02*
X56850000Y4200000I50000J0D01*
G01*
X56950000Y4200000D01*
G75*
G02*
X57000000Y4150000I0J-50000D01*
G01*
X57000000Y3450000D01*
G75*
G02*
X56950000Y3400000I-50000J0D01*
G01*
X56850000Y3400000D01*
G75*
G02*
X56800000Y3450000I0J50000D01*
G01*
G37*
G36*
X56559755Y4199039D02*
G01*
X56569134Y4196194D01*
X56577779Y4191573D01*
X56585355Y4185355D01*
X56591573Y4177779D01*
X56596194Y4169134D01*
X56599039Y4159755D01*
X56600000Y4150000D01*
X56600000Y3450000D01*
X56599039Y3440245D01*
X56596194Y3430866D01*
X56591573Y3422221D01*
X56585355Y3414645D01*
X56577779Y3408427D01*
X56569134Y3403806D01*
X56559755Y3400961D01*
X56550000Y3400000D01*
X56450000Y3400000D01*
X56440245Y3400961D01*
X56430866Y3403806D01*
X56422221Y3408427D01*
X56414645Y3414645D01*
X56408427Y3422221D01*
X56403806Y3430866D01*
X56400961Y3440245D01*
X56400000Y3450000D01*
X56400000Y4099289D01*
X56400961Y4109044D01*
X56403806Y4118423D01*
X56408427Y4127068D01*
X56414645Y4134644D01*
X56465356Y4185355D01*
X56472932Y4191573D01*
X56481577Y4196194D01*
X56490956Y4199039D01*
X56500711Y4200000D01*
X56550000Y4200000D01*
X56559755Y4199039D01*
G37*
G36*
X56209755Y4549039D02*
G01*
X56219134Y4546194D01*
X56227779Y4541573D01*
X56235355Y4535355D01*
X56241573Y4527779D01*
X56246194Y4519134D01*
X56249039Y4509755D01*
X56250000Y4500000D01*
X56250000Y4450711D01*
X56249039Y4440956D01*
X56246194Y4431577D01*
X56241573Y4422932D01*
X56235355Y4415356D01*
X56184644Y4364645D01*
X56177068Y4358427D01*
X56168423Y4353806D01*
X56159044Y4350961D01*
X56149289Y4350000D01*
X55500000Y4350000D01*
X55490245Y4350961D01*
X55480866Y4353806D01*
X55472221Y4358427D01*
X55464645Y4364645D01*
X55458427Y4372221D01*
X55453806Y4380866D01*
X55450961Y4390245D01*
X55450000Y4400000D01*
X55450000Y4500000D01*
X55450961Y4509755D01*
X55453806Y4519134D01*
X55458427Y4527779D01*
X55464645Y4535355D01*
X55472221Y4541573D01*
X55480866Y4546194D01*
X55490245Y4549039D01*
X55500000Y4550000D01*
X56200000Y4550000D01*
X56209755Y4549039D01*
G37*
G36*
G01*
X55450000Y4800000D02*
X55450000Y4900000D01*
G75*
G02*
X55500000Y4950000I50000J0D01*
G01*
X56200000Y4950000D01*
G75*
G02*
X56250000Y4900000I0J-50000D01*
G01*
X56250000Y4800000D01*
G75*
G02*
X56200000Y4750000I-50000J0D01*
G01*
X55500000Y4750000D01*
G75*
G02*
X55450000Y4800000I0J50000D01*
G01*
G37*
G36*
G01*
X55450000Y5200000D02*
X55450000Y5300000D01*
G75*
G02*
X55500000Y5350000I50000J0D01*
G01*
X56200000Y5350000D01*
G75*
G02*
X56250000Y5300000I0J-50000D01*
G01*
X56250000Y5200000D01*
G75*
G02*
X56200000Y5150000I-50000J0D01*
G01*
X55500000Y5150000D01*
G75*
G02*
X55450000Y5200000I0J50000D01*
G01*
G37*
G36*
G01*
X55450000Y5600000D02*
X55450000Y5700000D01*
G75*
G02*
X55500000Y5750000I50000J0D01*
G01*
X56200000Y5750000D01*
G75*
G02*
X56250000Y5700000I0J-50000D01*
G01*
X56250000Y5600000D01*
G75*
G02*
X56200000Y5550000I-50000J0D01*
G01*
X55500000Y5550000D01*
G75*
G02*
X55450000Y5600000I0J50000D01*
G01*
G37*
G36*
X56159044Y6149039D02*
G01*
X56168423Y6146194D01*
X56177068Y6141573D01*
X56184644Y6135355D01*
X56235355Y6084644D01*
X56241573Y6077068D01*
X56246194Y6068423D01*
X56249039Y6059044D01*
X56250000Y6049289D01*
X56250000Y6000000D01*
X56249039Y5990245D01*
X56246194Y5980866D01*
X56241573Y5972221D01*
X56235355Y5964645D01*
X56227779Y5958427D01*
X56219134Y5953806D01*
X56209755Y5950961D01*
X56200000Y5950000D01*
X55500000Y5950000D01*
X55490245Y5950961D01*
X55480866Y5953806D01*
X55472221Y5958427D01*
X55464645Y5964645D01*
X55458427Y5972221D01*
X55453806Y5980866D01*
X55450961Y5990245D01*
X55450000Y6000000D01*
X55450000Y6100000D01*
X55450961Y6109755D01*
X55453806Y6119134D01*
X55458427Y6127779D01*
X55464645Y6135355D01*
X55472221Y6141573D01*
X55480866Y6146194D01*
X55490245Y6149039D01*
X55500000Y6150000D01*
X56149289Y6150000D01*
X56159044Y6149039D01*
G37*
%TD*%
D32*
%TO.C,U2*%
X57300000Y17750000D03*
D33*
G36*
X56559755Y19599039D02*
G01*
X56569134Y19596194D01*
X56577779Y19591573D01*
X56585355Y19585355D01*
X56591573Y19577779D01*
X56596194Y19569134D01*
X56599039Y19559755D01*
X56600000Y19550000D01*
X56600000Y18850000D01*
X56599039Y18840245D01*
X56596194Y18830866D01*
X56591573Y18822221D01*
X56585355Y18814645D01*
X56577779Y18808427D01*
X56569134Y18803806D01*
X56559755Y18800961D01*
X56550000Y18800000D01*
X56500711Y18800000D01*
X56490956Y18800961D01*
X56481577Y18803806D01*
X56472932Y18808427D01*
X56465356Y18814645D01*
X56414645Y18865356D01*
X56408427Y18872932D01*
X56403806Y18881577D01*
X56400961Y18890956D01*
X56400000Y18900711D01*
X56400000Y19550000D01*
X56400961Y19559755D01*
X56403806Y19569134D01*
X56408427Y19577779D01*
X56414645Y19585355D01*
X56422221Y19591573D01*
X56430866Y19596194D01*
X56440245Y19599039D01*
X56450000Y19600000D01*
X56550000Y19600000D01*
X56559755Y19599039D01*
G37*
G36*
G01*
X56800000Y18850000D02*
X56800000Y19550000D01*
G75*
G02*
X56850000Y19600000I50000J0D01*
G01*
X56950000Y19600000D01*
G75*
G02*
X57000000Y19550000I0J-50000D01*
G01*
X57000000Y18850000D01*
G75*
G02*
X56950000Y18800000I-50000J0D01*
G01*
X56850000Y18800000D01*
G75*
G02*
X56800000Y18850000I0J50000D01*
G01*
G37*
G36*
G01*
X57200000Y18850000D02*
X57200000Y19550000D01*
G75*
G02*
X57250000Y19600000I50000J0D01*
G01*
X57350000Y19600000D01*
G75*
G02*
X57400000Y19550000I0J-50000D01*
G01*
X57400000Y18850000D01*
G75*
G02*
X57350000Y18800000I-50000J0D01*
G01*
X57250000Y18800000D01*
G75*
G02*
X57200000Y18850000I0J50000D01*
G01*
G37*
G36*
G01*
X57600000Y18850000D02*
X57600000Y19550000D01*
G75*
G02*
X57650000Y19600000I50000J0D01*
G01*
X57750000Y19600000D01*
G75*
G02*
X57800000Y19550000I0J-50000D01*
G01*
X57800000Y18850000D01*
G75*
G02*
X57750000Y18800000I-50000J0D01*
G01*
X57650000Y18800000D01*
G75*
G02*
X57600000Y18850000I0J50000D01*
G01*
G37*
G36*
X58159755Y19599039D02*
G01*
X58169134Y19596194D01*
X58177779Y19591573D01*
X58185355Y19585355D01*
X58191573Y19577779D01*
X58196194Y19569134D01*
X58199039Y19559755D01*
X58200000Y19550000D01*
X58200000Y18900711D01*
X58199039Y18890956D01*
X58196194Y18881577D01*
X58191573Y18872932D01*
X58185355Y18865356D01*
X58134644Y18814645D01*
X58127068Y18808427D01*
X58118423Y18803806D01*
X58109044Y18800961D01*
X58099289Y18800000D01*
X58050000Y18800000D01*
X58040245Y18800961D01*
X58030866Y18803806D01*
X58022221Y18808427D01*
X58014645Y18814645D01*
X58008427Y18822221D01*
X58003806Y18830866D01*
X58000961Y18840245D01*
X58000000Y18850000D01*
X58000000Y19550000D01*
X58000961Y19559755D01*
X58003806Y19569134D01*
X58008427Y19577779D01*
X58014645Y19585355D01*
X58022221Y19591573D01*
X58030866Y19596194D01*
X58040245Y19599039D01*
X58050000Y19600000D01*
X58150000Y19600000D01*
X58159755Y19599039D01*
G37*
G36*
X59109755Y18649039D02*
G01*
X59119134Y18646194D01*
X59127779Y18641573D01*
X59135355Y18635355D01*
X59141573Y18627779D01*
X59146194Y18619134D01*
X59149039Y18609755D01*
X59150000Y18600000D01*
X59150000Y18500000D01*
X59149039Y18490245D01*
X59146194Y18480866D01*
X59141573Y18472221D01*
X59135355Y18464645D01*
X59127779Y18458427D01*
X59119134Y18453806D01*
X59109755Y18450961D01*
X59100000Y18450000D01*
X58400000Y18450000D01*
X58390245Y18450961D01*
X58380866Y18453806D01*
X58372221Y18458427D01*
X58364645Y18464645D01*
X58358427Y18472221D01*
X58353806Y18480866D01*
X58350961Y18490245D01*
X58350000Y18500000D01*
X58350000Y18549289D01*
X58350961Y18559044D01*
X58353806Y18568423D01*
X58358427Y18577068D01*
X58364645Y18584644D01*
X58415356Y18635355D01*
X58422932Y18641573D01*
X58431577Y18646194D01*
X58440956Y18649039D01*
X58450711Y18650000D01*
X59100000Y18650000D01*
X59109755Y18649039D01*
G37*
G36*
G01*
X58350000Y18100000D02*
X58350000Y18200000D01*
G75*
G02*
X58400000Y18250000I50000J0D01*
G01*
X59100000Y18250000D01*
G75*
G02*
X59150000Y18200000I0J-50000D01*
G01*
X59150000Y18100000D01*
G75*
G02*
X59100000Y18050000I-50000J0D01*
G01*
X58400000Y18050000D01*
G75*
G02*
X58350000Y18100000I0J50000D01*
G01*
G37*
G36*
G01*
X58350000Y17700000D02*
X58350000Y17800000D01*
G75*
G02*
X58400000Y17850000I50000J0D01*
G01*
X59100000Y17850000D01*
G75*
G02*
X59150000Y17800000I0J-50000D01*
G01*
X59150000Y17700000D01*
G75*
G02*
X59100000Y17650000I-50000J0D01*
G01*
X58400000Y17650000D01*
G75*
G02*
X58350000Y17700000I0J50000D01*
G01*
G37*
G36*
G01*
X58350000Y17300000D02*
X58350000Y17400000D01*
G75*
G02*
X58400000Y17450000I50000J0D01*
G01*
X59100000Y17450000D01*
G75*
G02*
X59150000Y17400000I0J-50000D01*
G01*
X59150000Y17300000D01*
G75*
G02*
X59100000Y17250000I-50000J0D01*
G01*
X58400000Y17250000D01*
G75*
G02*
X58350000Y17300000I0J50000D01*
G01*
G37*
G36*
X59109755Y17049039D02*
G01*
X59119134Y17046194D01*
X59127779Y17041573D01*
X59135355Y17035355D01*
X59141573Y17027779D01*
X59146194Y17019134D01*
X59149039Y17009755D01*
X59150000Y17000000D01*
X59150000Y16900000D01*
X59149039Y16890245D01*
X59146194Y16880866D01*
X59141573Y16872221D01*
X59135355Y16864645D01*
X59127779Y16858427D01*
X59119134Y16853806D01*
X59109755Y16850961D01*
X59100000Y16850000D01*
X58450711Y16850000D01*
X58440956Y16850961D01*
X58431577Y16853806D01*
X58422932Y16858427D01*
X58415356Y16864645D01*
X58364645Y16915356D01*
X58358427Y16922932D01*
X58353806Y16931577D01*
X58350961Y16940956D01*
X58350000Y16950711D01*
X58350000Y17000000D01*
X58350961Y17009755D01*
X58353806Y17019134D01*
X58358427Y17027779D01*
X58364645Y17035355D01*
X58372221Y17041573D01*
X58380866Y17046194D01*
X58390245Y17049039D01*
X58400000Y17050000D01*
X59100000Y17050000D01*
X59109755Y17049039D01*
G37*
G36*
X58109044Y16699039D02*
G01*
X58118423Y16696194D01*
X58127068Y16691573D01*
X58134644Y16685355D01*
X58185355Y16634644D01*
X58191573Y16627068D01*
X58196194Y16618423D01*
X58199039Y16609044D01*
X58200000Y16599289D01*
X58200000Y15950000D01*
X58199039Y15940245D01*
X58196194Y15930866D01*
X58191573Y15922221D01*
X58185355Y15914645D01*
X58177779Y15908427D01*
X58169134Y15903806D01*
X58159755Y15900961D01*
X58150000Y15900000D01*
X58050000Y15900000D01*
X58040245Y15900961D01*
X58030866Y15903806D01*
X58022221Y15908427D01*
X58014645Y15914645D01*
X58008427Y15922221D01*
X58003806Y15930866D01*
X58000961Y15940245D01*
X58000000Y15950000D01*
X58000000Y16650000D01*
X58000961Y16659755D01*
X58003806Y16669134D01*
X58008427Y16677779D01*
X58014645Y16685355D01*
X58022221Y16691573D01*
X58030866Y16696194D01*
X58040245Y16699039D01*
X58050000Y16700000D01*
X58099289Y16700000D01*
X58109044Y16699039D01*
G37*
G36*
G01*
X57600000Y15950000D02*
X57600000Y16650000D01*
G75*
G02*
X57650000Y16700000I50000J0D01*
G01*
X57750000Y16700000D01*
G75*
G02*
X57800000Y16650000I0J-50000D01*
G01*
X57800000Y15950000D01*
G75*
G02*
X57750000Y15900000I-50000J0D01*
G01*
X57650000Y15900000D01*
G75*
G02*
X57600000Y15950000I0J50000D01*
G01*
G37*
G36*
G01*
X57200000Y15950000D02*
X57200000Y16650000D01*
G75*
G02*
X57250000Y16700000I50000J0D01*
G01*
X57350000Y16700000D01*
G75*
G02*
X57400000Y16650000I0J-50000D01*
G01*
X57400000Y15950000D01*
G75*
G02*
X57350000Y15900000I-50000J0D01*
G01*
X57250000Y15900000D01*
G75*
G02*
X57200000Y15950000I0J50000D01*
G01*
G37*
G36*
G01*
X56800000Y15950000D02*
X56800000Y16650000D01*
G75*
G02*
X56850000Y16700000I50000J0D01*
G01*
X56950000Y16700000D01*
G75*
G02*
X57000000Y16650000I0J-50000D01*
G01*
X57000000Y15950000D01*
G75*
G02*
X56950000Y15900000I-50000J0D01*
G01*
X56850000Y15900000D01*
G75*
G02*
X56800000Y15950000I0J50000D01*
G01*
G37*
G36*
X56559755Y16699039D02*
G01*
X56569134Y16696194D01*
X56577779Y16691573D01*
X56585355Y16685355D01*
X56591573Y16677779D01*
X56596194Y16669134D01*
X56599039Y16659755D01*
X56600000Y16650000D01*
X56600000Y15950000D01*
X56599039Y15940245D01*
X56596194Y15930866D01*
X56591573Y15922221D01*
X56585355Y15914645D01*
X56577779Y15908427D01*
X56569134Y15903806D01*
X56559755Y15900961D01*
X56550000Y15900000D01*
X56450000Y15900000D01*
X56440245Y15900961D01*
X56430866Y15903806D01*
X56422221Y15908427D01*
X56414645Y15914645D01*
X56408427Y15922221D01*
X56403806Y15930866D01*
X56400961Y15940245D01*
X56400000Y15950000D01*
X56400000Y16599289D01*
X56400961Y16609044D01*
X56403806Y16618423D01*
X56408427Y16627068D01*
X56414645Y16634644D01*
X56465356Y16685355D01*
X56472932Y16691573D01*
X56481577Y16696194D01*
X56490956Y16699039D01*
X56500711Y16700000D01*
X56550000Y16700000D01*
X56559755Y16699039D01*
G37*
G36*
X56209755Y17049039D02*
G01*
X56219134Y17046194D01*
X56227779Y17041573D01*
X56235355Y17035355D01*
X56241573Y17027779D01*
X56246194Y17019134D01*
X56249039Y17009755D01*
X56250000Y17000000D01*
X56250000Y16950711D01*
X56249039Y16940956D01*
X56246194Y16931577D01*
X56241573Y16922932D01*
X56235355Y16915356D01*
X56184644Y16864645D01*
X56177068Y16858427D01*
X56168423Y16853806D01*
X56159044Y16850961D01*
X56149289Y16850000D01*
X55500000Y16850000D01*
X55490245Y16850961D01*
X55480866Y16853806D01*
X55472221Y16858427D01*
X55464645Y16864645D01*
X55458427Y16872221D01*
X55453806Y16880866D01*
X55450961Y16890245D01*
X55450000Y16900000D01*
X55450000Y17000000D01*
X55450961Y17009755D01*
X55453806Y17019134D01*
X55458427Y17027779D01*
X55464645Y17035355D01*
X55472221Y17041573D01*
X55480866Y17046194D01*
X55490245Y17049039D01*
X55500000Y17050000D01*
X56200000Y17050000D01*
X56209755Y17049039D01*
G37*
G36*
G01*
X55450000Y17300000D02*
X55450000Y17400000D01*
G75*
G02*
X55500000Y17450000I50000J0D01*
G01*
X56200000Y17450000D01*
G75*
G02*
X56250000Y17400000I0J-50000D01*
G01*
X56250000Y17300000D01*
G75*
G02*
X56200000Y17250000I-50000J0D01*
G01*
X55500000Y17250000D01*
G75*
G02*
X55450000Y17300000I0J50000D01*
G01*
G37*
G36*
G01*
X55450000Y17700000D02*
X55450000Y17800000D01*
G75*
G02*
X55500000Y17850000I50000J0D01*
G01*
X56200000Y17850000D01*
G75*
G02*
X56250000Y17800000I0J-50000D01*
G01*
X56250000Y17700000D01*
G75*
G02*
X56200000Y17650000I-50000J0D01*
G01*
X55500000Y17650000D01*
G75*
G02*
X55450000Y17700000I0J50000D01*
G01*
G37*
G36*
G01*
X55450000Y18100000D02*
X55450000Y18200000D01*
G75*
G02*
X55500000Y18250000I50000J0D01*
G01*
X56200000Y18250000D01*
G75*
G02*
X56250000Y18200000I0J-50000D01*
G01*
X56250000Y18100000D01*
G75*
G02*
X56200000Y18050000I-50000J0D01*
G01*
X55500000Y18050000D01*
G75*
G02*
X55450000Y18100000I0J50000D01*
G01*
G37*
G36*
X56159044Y18649039D02*
G01*
X56168423Y18646194D01*
X56177068Y18641573D01*
X56184644Y18635355D01*
X56235355Y18584644D01*
X56241573Y18577068D01*
X56246194Y18568423D01*
X56249039Y18559044D01*
X56250000Y18549289D01*
X56250000Y18500000D01*
X56249039Y18490245D01*
X56246194Y18480866D01*
X56241573Y18472221D01*
X56235355Y18464645D01*
X56227779Y18458427D01*
X56219134Y18453806D01*
X56209755Y18450961D01*
X56200000Y18450000D01*
X55500000Y18450000D01*
X55490245Y18450961D01*
X55480866Y18453806D01*
X55472221Y18458427D01*
X55464645Y18464645D01*
X55458427Y18472221D01*
X55453806Y18480866D01*
X55450961Y18490245D01*
X55450000Y18500000D01*
X55450000Y18600000D01*
X55450961Y18609755D01*
X55453806Y18619134D01*
X55458427Y18627779D01*
X55464645Y18635355D01*
X55472221Y18641573D01*
X55480866Y18646194D01*
X55490245Y18649039D01*
X55500000Y18650000D01*
X56149289Y18650000D01*
X56159044Y18649039D01*
G37*
%TD*%
D32*
%TO.C,U2*%
X57300000Y30250000D03*
D33*
G36*
X56559755Y32099039D02*
G01*
X56569134Y32096194D01*
X56577779Y32091573D01*
X56585355Y32085355D01*
X56591573Y32077779D01*
X56596194Y32069134D01*
X56599039Y32059755D01*
X56600000Y32050000D01*
X56600000Y31350000D01*
X56599039Y31340245D01*
X56596194Y31330866D01*
X56591573Y31322221D01*
X56585355Y31314645D01*
X56577779Y31308427D01*
X56569134Y31303806D01*
X56559755Y31300961D01*
X56550000Y31300000D01*
X56500711Y31300000D01*
X56490956Y31300961D01*
X56481577Y31303806D01*
X56472932Y31308427D01*
X56465356Y31314645D01*
X56414645Y31365356D01*
X56408427Y31372932D01*
X56403806Y31381577D01*
X56400961Y31390956D01*
X56400000Y31400711D01*
X56400000Y32050000D01*
X56400961Y32059755D01*
X56403806Y32069134D01*
X56408427Y32077779D01*
X56414645Y32085355D01*
X56422221Y32091573D01*
X56430866Y32096194D01*
X56440245Y32099039D01*
X56450000Y32100000D01*
X56550000Y32100000D01*
X56559755Y32099039D01*
G37*
G36*
G01*
X56800000Y31350000D02*
X56800000Y32050000D01*
G75*
G02*
X56850000Y32100000I50000J0D01*
G01*
X56950000Y32100000D01*
G75*
G02*
X57000000Y32050000I0J-50000D01*
G01*
X57000000Y31350000D01*
G75*
G02*
X56950000Y31300000I-50000J0D01*
G01*
X56850000Y31300000D01*
G75*
G02*
X56800000Y31350000I0J50000D01*
G01*
G37*
G36*
G01*
X57200000Y31350000D02*
X57200000Y32050000D01*
G75*
G02*
X57250000Y32100000I50000J0D01*
G01*
X57350000Y32100000D01*
G75*
G02*
X57400000Y32050000I0J-50000D01*
G01*
X57400000Y31350000D01*
G75*
G02*
X57350000Y31300000I-50000J0D01*
G01*
X57250000Y31300000D01*
G75*
G02*
X57200000Y31350000I0J50000D01*
G01*
G37*
G36*
G01*
X57600000Y31350000D02*
X57600000Y32050000D01*
G75*
G02*
X57650000Y32100000I50000J0D01*
G01*
X57750000Y32100000D01*
G75*
G02*
X57800000Y32050000I0J-50000D01*
G01*
X57800000Y31350000D01*
G75*
G02*
X57750000Y31300000I-50000J0D01*
G01*
X57650000Y31300000D01*
G75*
G02*
X57600000Y31350000I0J50000D01*
G01*
G37*
G36*
X58159755Y32099039D02*
G01*
X58169134Y32096194D01*
X58177779Y32091573D01*
X58185355Y32085355D01*
X58191573Y32077779D01*
X58196194Y32069134D01*
X58199039Y32059755D01*
X58200000Y32050000D01*
X58200000Y31400711D01*
X58199039Y31390956D01*
X58196194Y31381577D01*
X58191573Y31372932D01*
X58185355Y31365356D01*
X58134644Y31314645D01*
X58127068Y31308427D01*
X58118423Y31303806D01*
X58109044Y31300961D01*
X58099289Y31300000D01*
X58050000Y31300000D01*
X58040245Y31300961D01*
X58030866Y31303806D01*
X58022221Y31308427D01*
X58014645Y31314645D01*
X58008427Y31322221D01*
X58003806Y31330866D01*
X58000961Y31340245D01*
X58000000Y31350000D01*
X58000000Y32050000D01*
X58000961Y32059755D01*
X58003806Y32069134D01*
X58008427Y32077779D01*
X58014645Y32085355D01*
X58022221Y32091573D01*
X58030866Y32096194D01*
X58040245Y32099039D01*
X58050000Y32100000D01*
X58150000Y32100000D01*
X58159755Y32099039D01*
G37*
G36*
X59109755Y31149039D02*
G01*
X59119134Y31146194D01*
X59127779Y31141573D01*
X59135355Y31135355D01*
X59141573Y31127779D01*
X59146194Y31119134D01*
X59149039Y31109755D01*
X59150000Y31100000D01*
X59150000Y31000000D01*
X59149039Y30990245D01*
X59146194Y30980866D01*
X59141573Y30972221D01*
X59135355Y30964645D01*
X59127779Y30958427D01*
X59119134Y30953806D01*
X59109755Y30950961D01*
X59100000Y30950000D01*
X58400000Y30950000D01*
X58390245Y30950961D01*
X58380866Y30953806D01*
X58372221Y30958427D01*
X58364645Y30964645D01*
X58358427Y30972221D01*
X58353806Y30980866D01*
X58350961Y30990245D01*
X58350000Y31000000D01*
X58350000Y31049289D01*
X58350961Y31059044D01*
X58353806Y31068423D01*
X58358427Y31077068D01*
X58364645Y31084644D01*
X58415356Y31135355D01*
X58422932Y31141573D01*
X58431577Y31146194D01*
X58440956Y31149039D01*
X58450711Y31150000D01*
X59100000Y31150000D01*
X59109755Y31149039D01*
G37*
G36*
G01*
X58350000Y30600000D02*
X58350000Y30700000D01*
G75*
G02*
X58400000Y30750000I50000J0D01*
G01*
X59100000Y30750000D01*
G75*
G02*
X59150000Y30700000I0J-50000D01*
G01*
X59150000Y30600000D01*
G75*
G02*
X59100000Y30550000I-50000J0D01*
G01*
X58400000Y30550000D01*
G75*
G02*
X58350000Y30600000I0J50000D01*
G01*
G37*
G36*
G01*
X58350000Y30200000D02*
X58350000Y30300000D01*
G75*
G02*
X58400000Y30350000I50000J0D01*
G01*
X59100000Y30350000D01*
G75*
G02*
X59150000Y30300000I0J-50000D01*
G01*
X59150000Y30200000D01*
G75*
G02*
X59100000Y30150000I-50000J0D01*
G01*
X58400000Y30150000D01*
G75*
G02*
X58350000Y30200000I0J50000D01*
G01*
G37*
G36*
G01*
X58350000Y29800000D02*
X58350000Y29900000D01*
G75*
G02*
X58400000Y29950000I50000J0D01*
G01*
X59100000Y29950000D01*
G75*
G02*
X59150000Y29900000I0J-50000D01*
G01*
X59150000Y29800000D01*
G75*
G02*
X59100000Y29750000I-50000J0D01*
G01*
X58400000Y29750000D01*
G75*
G02*
X58350000Y29800000I0J50000D01*
G01*
G37*
G36*
X59109755Y29549039D02*
G01*
X59119134Y29546194D01*
X59127779Y29541573D01*
X59135355Y29535355D01*
X59141573Y29527779D01*
X59146194Y29519134D01*
X59149039Y29509755D01*
X59150000Y29500000D01*
X59150000Y29400000D01*
X59149039Y29390245D01*
X59146194Y29380866D01*
X59141573Y29372221D01*
X59135355Y29364645D01*
X59127779Y29358427D01*
X59119134Y29353806D01*
X59109755Y29350961D01*
X59100000Y29350000D01*
X58450711Y29350000D01*
X58440956Y29350961D01*
X58431577Y29353806D01*
X58422932Y29358427D01*
X58415356Y29364645D01*
X58364645Y29415356D01*
X58358427Y29422932D01*
X58353806Y29431577D01*
X58350961Y29440956D01*
X58350000Y29450711D01*
X58350000Y29500000D01*
X58350961Y29509755D01*
X58353806Y29519134D01*
X58358427Y29527779D01*
X58364645Y29535355D01*
X58372221Y29541573D01*
X58380866Y29546194D01*
X58390245Y29549039D01*
X58400000Y29550000D01*
X59100000Y29550000D01*
X59109755Y29549039D01*
G37*
G36*
X58109044Y29199039D02*
G01*
X58118423Y29196194D01*
X58127068Y29191573D01*
X58134644Y29185355D01*
X58185355Y29134644D01*
X58191573Y29127068D01*
X58196194Y29118423D01*
X58199039Y29109044D01*
X58200000Y29099289D01*
X58200000Y28450000D01*
X58199039Y28440245D01*
X58196194Y28430866D01*
X58191573Y28422221D01*
X58185355Y28414645D01*
X58177779Y28408427D01*
X58169134Y28403806D01*
X58159755Y28400961D01*
X58150000Y28400000D01*
X58050000Y28400000D01*
X58040245Y28400961D01*
X58030866Y28403806D01*
X58022221Y28408427D01*
X58014645Y28414645D01*
X58008427Y28422221D01*
X58003806Y28430866D01*
X58000961Y28440245D01*
X58000000Y28450000D01*
X58000000Y29150000D01*
X58000961Y29159755D01*
X58003806Y29169134D01*
X58008427Y29177779D01*
X58014645Y29185355D01*
X58022221Y29191573D01*
X58030866Y29196194D01*
X58040245Y29199039D01*
X58050000Y29200000D01*
X58099289Y29200000D01*
X58109044Y29199039D01*
G37*
G36*
G01*
X57600000Y28450000D02*
X57600000Y29150000D01*
G75*
G02*
X57650000Y29200000I50000J0D01*
G01*
X57750000Y29200000D01*
G75*
G02*
X57800000Y29150000I0J-50000D01*
G01*
X57800000Y28450000D01*
G75*
G02*
X57750000Y28400000I-50000J0D01*
G01*
X57650000Y28400000D01*
G75*
G02*
X57600000Y28450000I0J50000D01*
G01*
G37*
G36*
G01*
X57200000Y28450000D02*
X57200000Y29150000D01*
G75*
G02*
X57250000Y29200000I50000J0D01*
G01*
X57350000Y29200000D01*
G75*
G02*
X57400000Y29150000I0J-50000D01*
G01*
X57400000Y28450000D01*
G75*
G02*
X57350000Y28400000I-50000J0D01*
G01*
X57250000Y28400000D01*
G75*
G02*
X57200000Y28450000I0J50000D01*
G01*
G37*
G36*
G01*
X56800000Y28450000D02*
X56800000Y29150000D01*
G75*
G02*
X56850000Y29200000I50000J0D01*
G01*
X56950000Y29200000D01*
G75*
G02*
X57000000Y29150000I0J-50000D01*
G01*
X57000000Y28450000D01*
G75*
G02*
X56950000Y28400000I-50000J0D01*
G01*
X56850000Y28400000D01*
G75*
G02*
X56800000Y28450000I0J50000D01*
G01*
G37*
G36*
X56559755Y29199039D02*
G01*
X56569134Y29196194D01*
X56577779Y29191573D01*
X56585355Y29185355D01*
X56591573Y29177779D01*
X56596194Y29169134D01*
X56599039Y29159755D01*
X56600000Y29150000D01*
X56600000Y28450000D01*
X56599039Y28440245D01*
X56596194Y28430866D01*
X56591573Y28422221D01*
X56585355Y28414645D01*
X56577779Y28408427D01*
X56569134Y28403806D01*
X56559755Y28400961D01*
X56550000Y28400000D01*
X56450000Y28400000D01*
X56440245Y28400961D01*
X56430866Y28403806D01*
X56422221Y28408427D01*
X56414645Y28414645D01*
X56408427Y28422221D01*
X56403806Y28430866D01*
X56400961Y28440245D01*
X56400000Y28450000D01*
X56400000Y29099289D01*
X56400961Y29109044D01*
X56403806Y29118423D01*
X56408427Y29127068D01*
X56414645Y29134644D01*
X56465356Y29185355D01*
X56472932Y29191573D01*
X56481577Y29196194D01*
X56490956Y29199039D01*
X56500711Y29200000D01*
X56550000Y29200000D01*
X56559755Y29199039D01*
G37*
G36*
X56209755Y29549039D02*
G01*
X56219134Y29546194D01*
X56227779Y29541573D01*
X56235355Y29535355D01*
X56241573Y29527779D01*
X56246194Y29519134D01*
X56249039Y29509755D01*
X56250000Y29500000D01*
X56250000Y29450711D01*
X56249039Y29440956D01*
X56246194Y29431577D01*
X56241573Y29422932D01*
X56235355Y29415356D01*
X56184644Y29364645D01*
X56177068Y29358427D01*
X56168423Y29353806D01*
X56159044Y29350961D01*
X56149289Y29350000D01*
X55500000Y29350000D01*
X55490245Y29350961D01*
X55480866Y29353806D01*
X55472221Y29358427D01*
X55464645Y29364645D01*
X55458427Y29372221D01*
X55453806Y29380866D01*
X55450961Y29390245D01*
X55450000Y29400000D01*
X55450000Y29500000D01*
X55450961Y29509755D01*
X55453806Y29519134D01*
X55458427Y29527779D01*
X55464645Y29535355D01*
X55472221Y29541573D01*
X55480866Y29546194D01*
X55490245Y29549039D01*
X55500000Y29550000D01*
X56200000Y29550000D01*
X56209755Y29549039D01*
G37*
G36*
G01*
X55450000Y29800000D02*
X55450000Y29900000D01*
G75*
G02*
X55500000Y29950000I50000J0D01*
G01*
X56200000Y29950000D01*
G75*
G02*
X56250000Y29900000I0J-50000D01*
G01*
X56250000Y29800000D01*
G75*
G02*
X56200000Y29750000I-50000J0D01*
G01*
X55500000Y29750000D01*
G75*
G02*
X55450000Y29800000I0J50000D01*
G01*
G37*
G36*
G01*
X55450000Y30200000D02*
X55450000Y30300000D01*
G75*
G02*
X55500000Y30350000I50000J0D01*
G01*
X56200000Y30350000D01*
G75*
G02*
X56250000Y30300000I0J-50000D01*
G01*
X56250000Y30200000D01*
G75*
G02*
X56200000Y30150000I-50000J0D01*
G01*
X55500000Y30150000D01*
G75*
G02*
X55450000Y30200000I0J50000D01*
G01*
G37*
G36*
G01*
X55450000Y30600000D02*
X55450000Y30700000D01*
G75*
G02*
X55500000Y30750000I50000J0D01*
G01*
X56200000Y30750000D01*
G75*
G02*
X56250000Y30700000I0J-50000D01*
G01*
X56250000Y30600000D01*
G75*
G02*
X56200000Y30550000I-50000J0D01*
G01*
X55500000Y30550000D01*
G75*
G02*
X55450000Y30600000I0J50000D01*
G01*
G37*
G36*
X56159044Y31149039D02*
G01*
X56168423Y31146194D01*
X56177068Y31141573D01*
X56184644Y31135355D01*
X56235355Y31084644D01*
X56241573Y31077068D01*
X56246194Y31068423D01*
X56249039Y31059044D01*
X56250000Y31049289D01*
X56250000Y31000000D01*
X56249039Y30990245D01*
X56246194Y30980866D01*
X56241573Y30972221D01*
X56235355Y30964645D01*
X56227779Y30958427D01*
X56219134Y30953806D01*
X56209755Y30950961D01*
X56200000Y30950000D01*
X55500000Y30950000D01*
X55490245Y30950961D01*
X55480866Y30953806D01*
X55472221Y30958427D01*
X55464645Y30964645D01*
X55458427Y30972221D01*
X55453806Y30980866D01*
X55450961Y30990245D01*
X55450000Y31000000D01*
X55450000Y31100000D01*
X55450961Y31109755D01*
X55453806Y31119134D01*
X55458427Y31127779D01*
X55464645Y31135355D01*
X55472221Y31141573D01*
X55480866Y31146194D01*
X55490245Y31149039D01*
X55500000Y31150000D01*
X56149289Y31150000D01*
X56159044Y31149039D01*
G37*
%TD*%
D32*
%TO.C,U2*%
X57300000Y42750000D03*
D33*
G36*
X56559755Y44599039D02*
G01*
X56569134Y44596194D01*
X56577779Y44591573D01*
X56585355Y44585355D01*
X56591573Y44577779D01*
X56596194Y44569134D01*
X56599039Y44559755D01*
X56600000Y44550000D01*
X56600000Y43850000D01*
X56599039Y43840245D01*
X56596194Y43830866D01*
X56591573Y43822221D01*
X56585355Y43814645D01*
X56577779Y43808427D01*
X56569134Y43803806D01*
X56559755Y43800961D01*
X56550000Y43800000D01*
X56500711Y43800000D01*
X56490956Y43800961D01*
X56481577Y43803806D01*
X56472932Y43808427D01*
X56465356Y43814645D01*
X56414645Y43865356D01*
X56408427Y43872932D01*
X56403806Y43881577D01*
X56400961Y43890956D01*
X56400000Y43900711D01*
X56400000Y44550000D01*
X56400961Y44559755D01*
X56403806Y44569134D01*
X56408427Y44577779D01*
X56414645Y44585355D01*
X56422221Y44591573D01*
X56430866Y44596194D01*
X56440245Y44599039D01*
X56450000Y44600000D01*
X56550000Y44600000D01*
X56559755Y44599039D01*
G37*
G36*
G01*
X56800000Y43850000D02*
X56800000Y44550000D01*
G75*
G02*
X56850000Y44600000I50000J0D01*
G01*
X56950000Y44600000D01*
G75*
G02*
X57000000Y44550000I0J-50000D01*
G01*
X57000000Y43850000D01*
G75*
G02*
X56950000Y43800000I-50000J0D01*
G01*
X56850000Y43800000D01*
G75*
G02*
X56800000Y43850000I0J50000D01*
G01*
G37*
G36*
G01*
X57200000Y43850000D02*
X57200000Y44550000D01*
G75*
G02*
X57250000Y44600000I50000J0D01*
G01*
X57350000Y44600000D01*
G75*
G02*
X57400000Y44550000I0J-50000D01*
G01*
X57400000Y43850000D01*
G75*
G02*
X57350000Y43800000I-50000J0D01*
G01*
X57250000Y43800000D01*
G75*
G02*
X57200000Y43850000I0J50000D01*
G01*
G37*
G36*
G01*
X57600000Y43850000D02*
X57600000Y44550000D01*
G75*
G02*
X57650000Y44600000I50000J0D01*
G01*
X57750000Y44600000D01*
G75*
G02*
X57800000Y44550000I0J-50000D01*
G01*
X57800000Y43850000D01*
G75*
G02*
X57750000Y43800000I-50000J0D01*
G01*
X57650000Y43800000D01*
G75*
G02*
X57600000Y43850000I0J50000D01*
G01*
G37*
G36*
X58159755Y44599039D02*
G01*
X58169134Y44596194D01*
X58177779Y44591573D01*
X58185355Y44585355D01*
X58191573Y44577779D01*
X58196194Y44569134D01*
X58199039Y44559755D01*
X58200000Y44550000D01*
X58200000Y43900711D01*
X58199039Y43890956D01*
X58196194Y43881577D01*
X58191573Y43872932D01*
X58185355Y43865356D01*
X58134644Y43814645D01*
X58127068Y43808427D01*
X58118423Y43803806D01*
X58109044Y43800961D01*
X58099289Y43800000D01*
X58050000Y43800000D01*
X58040245Y43800961D01*
X58030866Y43803806D01*
X58022221Y43808427D01*
X58014645Y43814645D01*
X58008427Y43822221D01*
X58003806Y43830866D01*
X58000961Y43840245D01*
X58000000Y43850000D01*
X58000000Y44550000D01*
X58000961Y44559755D01*
X58003806Y44569134D01*
X58008427Y44577779D01*
X58014645Y44585355D01*
X58022221Y44591573D01*
X58030866Y44596194D01*
X58040245Y44599039D01*
X58050000Y44600000D01*
X58150000Y44600000D01*
X58159755Y44599039D01*
G37*
G36*
X59109755Y43649039D02*
G01*
X59119134Y43646194D01*
X59127779Y43641573D01*
X59135355Y43635355D01*
X59141573Y43627779D01*
X59146194Y43619134D01*
X59149039Y43609755D01*
X59150000Y43600000D01*
X59150000Y43500000D01*
X59149039Y43490245D01*
X59146194Y43480866D01*
X59141573Y43472221D01*
X59135355Y43464645D01*
X59127779Y43458427D01*
X59119134Y43453806D01*
X59109755Y43450961D01*
X59100000Y43450000D01*
X58400000Y43450000D01*
X58390245Y43450961D01*
X58380866Y43453806D01*
X58372221Y43458427D01*
X58364645Y43464645D01*
X58358427Y43472221D01*
X58353806Y43480866D01*
X58350961Y43490245D01*
X58350000Y43500000D01*
X58350000Y43549289D01*
X58350961Y43559044D01*
X58353806Y43568423D01*
X58358427Y43577068D01*
X58364645Y43584644D01*
X58415356Y43635355D01*
X58422932Y43641573D01*
X58431577Y43646194D01*
X58440956Y43649039D01*
X58450711Y43650000D01*
X59100000Y43650000D01*
X59109755Y43649039D01*
G37*
G36*
G01*
X58350000Y43100000D02*
X58350000Y43200000D01*
G75*
G02*
X58400000Y43250000I50000J0D01*
G01*
X59100000Y43250000D01*
G75*
G02*
X59150000Y43200000I0J-50000D01*
G01*
X59150000Y43100000D01*
G75*
G02*
X59100000Y43050000I-50000J0D01*
G01*
X58400000Y43050000D01*
G75*
G02*
X58350000Y43100000I0J50000D01*
G01*
G37*
G36*
G01*
X58350000Y42700000D02*
X58350000Y42800000D01*
G75*
G02*
X58400000Y42850000I50000J0D01*
G01*
X59100000Y42850000D01*
G75*
G02*
X59150000Y42800000I0J-50000D01*
G01*
X59150000Y42700000D01*
G75*
G02*
X59100000Y42650000I-50000J0D01*
G01*
X58400000Y42650000D01*
G75*
G02*
X58350000Y42700000I0J50000D01*
G01*
G37*
G36*
G01*
X58350000Y42300000D02*
X58350000Y42400000D01*
G75*
G02*
X58400000Y42450000I50000J0D01*
G01*
X59100000Y42450000D01*
G75*
G02*
X59150000Y42400000I0J-50000D01*
G01*
X59150000Y42300000D01*
G75*
G02*
X59100000Y42250000I-50000J0D01*
G01*
X58400000Y42250000D01*
G75*
G02*
X58350000Y42300000I0J50000D01*
G01*
G37*
G36*
X59109755Y42049039D02*
G01*
X59119134Y42046194D01*
X59127779Y42041573D01*
X59135355Y42035355D01*
X59141573Y42027779D01*
X59146194Y42019134D01*
X59149039Y42009755D01*
X59150000Y42000000D01*
X59150000Y41900000D01*
X59149039Y41890245D01*
X59146194Y41880866D01*
X59141573Y41872221D01*
X59135355Y41864645D01*
X59127779Y41858427D01*
X59119134Y41853806D01*
X59109755Y41850961D01*
X59100000Y41850000D01*
X58450711Y41850000D01*
X58440956Y41850961D01*
X58431577Y41853806D01*
X58422932Y41858427D01*
X58415356Y41864645D01*
X58364645Y41915356D01*
X58358427Y41922932D01*
X58353806Y41931577D01*
X58350961Y41940956D01*
X58350000Y41950711D01*
X58350000Y42000000D01*
X58350961Y42009755D01*
X58353806Y42019134D01*
X58358427Y42027779D01*
X58364645Y42035355D01*
X58372221Y42041573D01*
X58380866Y42046194D01*
X58390245Y42049039D01*
X58400000Y42050000D01*
X59100000Y42050000D01*
X59109755Y42049039D01*
G37*
G36*
X58109044Y41699039D02*
G01*
X58118423Y41696194D01*
X58127068Y41691573D01*
X58134644Y41685355D01*
X58185355Y41634644D01*
X58191573Y41627068D01*
X58196194Y41618423D01*
X58199039Y41609044D01*
X58200000Y41599289D01*
X58200000Y40950000D01*
X58199039Y40940245D01*
X58196194Y40930866D01*
X58191573Y40922221D01*
X58185355Y40914645D01*
X58177779Y40908427D01*
X58169134Y40903806D01*
X58159755Y40900961D01*
X58150000Y40900000D01*
X58050000Y40900000D01*
X58040245Y40900961D01*
X58030866Y40903806D01*
X58022221Y40908427D01*
X58014645Y40914645D01*
X58008427Y40922221D01*
X58003806Y40930866D01*
X58000961Y40940245D01*
X58000000Y40950000D01*
X58000000Y41650000D01*
X58000961Y41659755D01*
X58003806Y41669134D01*
X58008427Y41677779D01*
X58014645Y41685355D01*
X58022221Y41691573D01*
X58030866Y41696194D01*
X58040245Y41699039D01*
X58050000Y41700000D01*
X58099289Y41700000D01*
X58109044Y41699039D01*
G37*
G36*
G01*
X57600000Y40950000D02*
X57600000Y41650000D01*
G75*
G02*
X57650000Y41700000I50000J0D01*
G01*
X57750000Y41700000D01*
G75*
G02*
X57800000Y41650000I0J-50000D01*
G01*
X57800000Y40950000D01*
G75*
G02*
X57750000Y40900000I-50000J0D01*
G01*
X57650000Y40900000D01*
G75*
G02*
X57600000Y40950000I0J50000D01*
G01*
G37*
G36*
G01*
X57200000Y40950000D02*
X57200000Y41650000D01*
G75*
G02*
X57250000Y41700000I50000J0D01*
G01*
X57350000Y41700000D01*
G75*
G02*
X57400000Y41650000I0J-50000D01*
G01*
X57400000Y40950000D01*
G75*
G02*
X57350000Y40900000I-50000J0D01*
G01*
X57250000Y40900000D01*
G75*
G02*
X57200000Y40950000I0J50000D01*
G01*
G37*
G36*
G01*
X56800000Y40950000D02*
X56800000Y41650000D01*
G75*
G02*
X56850000Y41700000I50000J0D01*
G01*
X56950000Y41700000D01*
G75*
G02*
X57000000Y41650000I0J-50000D01*
G01*
X57000000Y40950000D01*
G75*
G02*
X56950000Y40900000I-50000J0D01*
G01*
X56850000Y40900000D01*
G75*
G02*
X56800000Y40950000I0J50000D01*
G01*
G37*
G36*
X56559755Y41699039D02*
G01*
X56569134Y41696194D01*
X56577779Y41691573D01*
X56585355Y41685355D01*
X56591573Y41677779D01*
X56596194Y41669134D01*
X56599039Y41659755D01*
X56600000Y41650000D01*
X56600000Y40950000D01*
X56599039Y40940245D01*
X56596194Y40930866D01*
X56591573Y40922221D01*
X56585355Y40914645D01*
X56577779Y40908427D01*
X56569134Y40903806D01*
X56559755Y40900961D01*
X56550000Y40900000D01*
X56450000Y40900000D01*
X56440245Y40900961D01*
X56430866Y40903806D01*
X56422221Y40908427D01*
X56414645Y40914645D01*
X56408427Y40922221D01*
X56403806Y40930866D01*
X56400961Y40940245D01*
X56400000Y40950000D01*
X56400000Y41599289D01*
X56400961Y41609044D01*
X56403806Y41618423D01*
X56408427Y41627068D01*
X56414645Y41634644D01*
X56465356Y41685355D01*
X56472932Y41691573D01*
X56481577Y41696194D01*
X56490956Y41699039D01*
X56500711Y41700000D01*
X56550000Y41700000D01*
X56559755Y41699039D01*
G37*
G36*
X56209755Y42049039D02*
G01*
X56219134Y42046194D01*
X56227779Y42041573D01*
X56235355Y42035355D01*
X56241573Y42027779D01*
X56246194Y42019134D01*
X56249039Y42009755D01*
X56250000Y42000000D01*
X56250000Y41950711D01*
X56249039Y41940956D01*
X56246194Y41931577D01*
X56241573Y41922932D01*
X56235355Y41915356D01*
X56184644Y41864645D01*
X56177068Y41858427D01*
X56168423Y41853806D01*
X56159044Y41850961D01*
X56149289Y41850000D01*
X55500000Y41850000D01*
X55490245Y41850961D01*
X55480866Y41853806D01*
X55472221Y41858427D01*
X55464645Y41864645D01*
X55458427Y41872221D01*
X55453806Y41880866D01*
X55450961Y41890245D01*
X55450000Y41900000D01*
X55450000Y42000000D01*
X55450961Y42009755D01*
X55453806Y42019134D01*
X55458427Y42027779D01*
X55464645Y42035355D01*
X55472221Y42041573D01*
X55480866Y42046194D01*
X55490245Y42049039D01*
X55500000Y42050000D01*
X56200000Y42050000D01*
X56209755Y42049039D01*
G37*
G36*
G01*
X55450000Y42300000D02*
X55450000Y42400000D01*
G75*
G02*
X55500000Y42450000I50000J0D01*
G01*
X56200000Y42450000D01*
G75*
G02*
X56250000Y42400000I0J-50000D01*
G01*
X56250000Y42300000D01*
G75*
G02*
X56200000Y42250000I-50000J0D01*
G01*
X55500000Y42250000D01*
G75*
G02*
X55450000Y42300000I0J50000D01*
G01*
G37*
G36*
G01*
X55450000Y42700000D02*
X55450000Y42800000D01*
G75*
G02*
X55500000Y42850000I50000J0D01*
G01*
X56200000Y42850000D01*
G75*
G02*
X56250000Y42800000I0J-50000D01*
G01*
X56250000Y42700000D01*
G75*
G02*
X56200000Y42650000I-50000J0D01*
G01*
X55500000Y42650000D01*
G75*
G02*
X55450000Y42700000I0J50000D01*
G01*
G37*
G36*
G01*
X55450000Y43100000D02*
X55450000Y43200000D01*
G75*
G02*
X55500000Y43250000I50000J0D01*
G01*
X56200000Y43250000D01*
G75*
G02*
X56250000Y43200000I0J-50000D01*
G01*
X56250000Y43100000D01*
G75*
G02*
X56200000Y43050000I-50000J0D01*
G01*
X55500000Y43050000D01*
G75*
G02*
X55450000Y43100000I0J50000D01*
G01*
G37*
G36*
X56159044Y43649039D02*
G01*
X56168423Y43646194D01*
X56177068Y43641573D01*
X56184644Y43635355D01*
X56235355Y43584644D01*
X56241573Y43577068D01*
X56246194Y43568423D01*
X56249039Y43559044D01*
X56250000Y43549289D01*
X56250000Y43500000D01*
X56249039Y43490245D01*
X56246194Y43480866D01*
X56241573Y43472221D01*
X56235355Y43464645D01*
X56227779Y43458427D01*
X56219134Y43453806D01*
X56209755Y43450961D01*
X56200000Y43450000D01*
X55500000Y43450000D01*
X55490245Y43450961D01*
X55480866Y43453806D01*
X55472221Y43458427D01*
X55464645Y43464645D01*
X55458427Y43472221D01*
X55453806Y43480866D01*
X55450961Y43490245D01*
X55450000Y43500000D01*
X55450000Y43600000D01*
X55450961Y43609755D01*
X55453806Y43619134D01*
X55458427Y43627779D01*
X55464645Y43635355D01*
X55472221Y43641573D01*
X55480866Y43646194D01*
X55490245Y43649039D01*
X55500000Y43650000D01*
X56149289Y43650000D01*
X56159044Y43649039D01*
G37*
%TD*%
D32*
%TO.C,U2*%
X57300000Y55250000D03*
D33*
G36*
X56559755Y57099039D02*
G01*
X56569134Y57096194D01*
X56577779Y57091573D01*
X56585355Y57085355D01*
X56591573Y57077779D01*
X56596194Y57069134D01*
X56599039Y57059755D01*
X56600000Y57050000D01*
X56600000Y56350000D01*
X56599039Y56340245D01*
X56596194Y56330866D01*
X56591573Y56322221D01*
X56585355Y56314645D01*
X56577779Y56308427D01*
X56569134Y56303806D01*
X56559755Y56300961D01*
X56550000Y56300000D01*
X56500711Y56300000D01*
X56490956Y56300961D01*
X56481577Y56303806D01*
X56472932Y56308427D01*
X56465356Y56314645D01*
X56414645Y56365356D01*
X56408427Y56372932D01*
X56403806Y56381577D01*
X56400961Y56390956D01*
X56400000Y56400711D01*
X56400000Y57050000D01*
X56400961Y57059755D01*
X56403806Y57069134D01*
X56408427Y57077779D01*
X56414645Y57085355D01*
X56422221Y57091573D01*
X56430866Y57096194D01*
X56440245Y57099039D01*
X56450000Y57100000D01*
X56550000Y57100000D01*
X56559755Y57099039D01*
G37*
G36*
G01*
X56800000Y56350000D02*
X56800000Y57050000D01*
G75*
G02*
X56850000Y57100000I50000J0D01*
G01*
X56950000Y57100000D01*
G75*
G02*
X57000000Y57050000I0J-50000D01*
G01*
X57000000Y56350000D01*
G75*
G02*
X56950000Y56300000I-50000J0D01*
G01*
X56850000Y56300000D01*
G75*
G02*
X56800000Y56350000I0J50000D01*
G01*
G37*
G36*
G01*
X57200000Y56350000D02*
X57200000Y57050000D01*
G75*
G02*
X57250000Y57100000I50000J0D01*
G01*
X57350000Y57100000D01*
G75*
G02*
X57400000Y57050000I0J-50000D01*
G01*
X57400000Y56350000D01*
G75*
G02*
X57350000Y56300000I-50000J0D01*
G01*
X57250000Y56300000D01*
G75*
G02*
X57200000Y56350000I0J50000D01*
G01*
G37*
G36*
G01*
X57600000Y56350000D02*
X57600000Y57050000D01*
G75*
G02*
X57650000Y57100000I50000J0D01*
G01*
X57750000Y57100000D01*
G75*
G02*
X57800000Y57050000I0J-50000D01*
G01*
X57800000Y56350000D01*
G75*
G02*
X57750000Y56300000I-50000J0D01*
G01*
X57650000Y56300000D01*
G75*
G02*
X57600000Y56350000I0J50000D01*
G01*
G37*
G36*
X58159755Y57099039D02*
G01*
X58169134Y57096194D01*
X58177779Y57091573D01*
X58185355Y57085355D01*
X58191573Y57077779D01*
X58196194Y57069134D01*
X58199039Y57059755D01*
X58200000Y57050000D01*
X58200000Y56400711D01*
X58199039Y56390956D01*
X58196194Y56381577D01*
X58191573Y56372932D01*
X58185355Y56365356D01*
X58134644Y56314645D01*
X58127068Y56308427D01*
X58118423Y56303806D01*
X58109044Y56300961D01*
X58099289Y56300000D01*
X58050000Y56300000D01*
X58040245Y56300961D01*
X58030866Y56303806D01*
X58022221Y56308427D01*
X58014645Y56314645D01*
X58008427Y56322221D01*
X58003806Y56330866D01*
X58000961Y56340245D01*
X58000000Y56350000D01*
X58000000Y57050000D01*
X58000961Y57059755D01*
X58003806Y57069134D01*
X58008427Y57077779D01*
X58014645Y57085355D01*
X58022221Y57091573D01*
X58030866Y57096194D01*
X58040245Y57099039D01*
X58050000Y57100000D01*
X58150000Y57100000D01*
X58159755Y57099039D01*
G37*
G36*
X59109755Y56149039D02*
G01*
X59119134Y56146194D01*
X59127779Y56141573D01*
X59135355Y56135355D01*
X59141573Y56127779D01*
X59146194Y56119134D01*
X59149039Y56109755D01*
X59150000Y56100000D01*
X59150000Y56000000D01*
X59149039Y55990245D01*
X59146194Y55980866D01*
X59141573Y55972221D01*
X59135355Y55964645D01*
X59127779Y55958427D01*
X59119134Y55953806D01*
X59109755Y55950961D01*
X59100000Y55950000D01*
X58400000Y55950000D01*
X58390245Y55950961D01*
X58380866Y55953806D01*
X58372221Y55958427D01*
X58364645Y55964645D01*
X58358427Y55972221D01*
X58353806Y55980866D01*
X58350961Y55990245D01*
X58350000Y56000000D01*
X58350000Y56049289D01*
X58350961Y56059044D01*
X58353806Y56068423D01*
X58358427Y56077068D01*
X58364645Y56084644D01*
X58415356Y56135355D01*
X58422932Y56141573D01*
X58431577Y56146194D01*
X58440956Y56149039D01*
X58450711Y56150000D01*
X59100000Y56150000D01*
X59109755Y56149039D01*
G37*
G36*
G01*
X58350000Y55600000D02*
X58350000Y55700000D01*
G75*
G02*
X58400000Y55750000I50000J0D01*
G01*
X59100000Y55750000D01*
G75*
G02*
X59150000Y55700000I0J-50000D01*
G01*
X59150000Y55600000D01*
G75*
G02*
X59100000Y55550000I-50000J0D01*
G01*
X58400000Y55550000D01*
G75*
G02*
X58350000Y55600000I0J50000D01*
G01*
G37*
G36*
G01*
X58350000Y55200000D02*
X58350000Y55300000D01*
G75*
G02*
X58400000Y55350000I50000J0D01*
G01*
X59100000Y55350000D01*
G75*
G02*
X59150000Y55300000I0J-50000D01*
G01*
X59150000Y55200000D01*
G75*
G02*
X59100000Y55150000I-50000J0D01*
G01*
X58400000Y55150000D01*
G75*
G02*
X58350000Y55200000I0J50000D01*
G01*
G37*
G36*
G01*
X58350000Y54800000D02*
X58350000Y54900000D01*
G75*
G02*
X58400000Y54950000I50000J0D01*
G01*
X59100000Y54950000D01*
G75*
G02*
X59150000Y54900000I0J-50000D01*
G01*
X59150000Y54800000D01*
G75*
G02*
X59100000Y54750000I-50000J0D01*
G01*
X58400000Y54750000D01*
G75*
G02*
X58350000Y54800000I0J50000D01*
G01*
G37*
G36*
X59109755Y54549039D02*
G01*
X59119134Y54546194D01*
X59127779Y54541573D01*
X59135355Y54535355D01*
X59141573Y54527779D01*
X59146194Y54519134D01*
X59149039Y54509755D01*
X59150000Y54500000D01*
X59150000Y54400000D01*
X59149039Y54390245D01*
X59146194Y54380866D01*
X59141573Y54372221D01*
X59135355Y54364645D01*
X59127779Y54358427D01*
X59119134Y54353806D01*
X59109755Y54350961D01*
X59100000Y54350000D01*
X58450711Y54350000D01*
X58440956Y54350961D01*
X58431577Y54353806D01*
X58422932Y54358427D01*
X58415356Y54364645D01*
X58364645Y54415356D01*
X58358427Y54422932D01*
X58353806Y54431577D01*
X58350961Y54440956D01*
X58350000Y54450711D01*
X58350000Y54500000D01*
X58350961Y54509755D01*
X58353806Y54519134D01*
X58358427Y54527779D01*
X58364645Y54535355D01*
X58372221Y54541573D01*
X58380866Y54546194D01*
X58390245Y54549039D01*
X58400000Y54550000D01*
X59100000Y54550000D01*
X59109755Y54549039D01*
G37*
G36*
X58109044Y54199039D02*
G01*
X58118423Y54196194D01*
X58127068Y54191573D01*
X58134644Y54185355D01*
X58185355Y54134644D01*
X58191573Y54127068D01*
X58196194Y54118423D01*
X58199039Y54109044D01*
X58200000Y54099289D01*
X58200000Y53450000D01*
X58199039Y53440245D01*
X58196194Y53430866D01*
X58191573Y53422221D01*
X58185355Y53414645D01*
X58177779Y53408427D01*
X58169134Y53403806D01*
X58159755Y53400961D01*
X58150000Y53400000D01*
X58050000Y53400000D01*
X58040245Y53400961D01*
X58030866Y53403806D01*
X58022221Y53408427D01*
X58014645Y53414645D01*
X58008427Y53422221D01*
X58003806Y53430866D01*
X58000961Y53440245D01*
X58000000Y53450000D01*
X58000000Y54150000D01*
X58000961Y54159755D01*
X58003806Y54169134D01*
X58008427Y54177779D01*
X58014645Y54185355D01*
X58022221Y54191573D01*
X58030866Y54196194D01*
X58040245Y54199039D01*
X58050000Y54200000D01*
X58099289Y54200000D01*
X58109044Y54199039D01*
G37*
G36*
G01*
X57600000Y53450000D02*
X57600000Y54150000D01*
G75*
G02*
X57650000Y54200000I50000J0D01*
G01*
X57750000Y54200000D01*
G75*
G02*
X57800000Y54150000I0J-50000D01*
G01*
X57800000Y53450000D01*
G75*
G02*
X57750000Y53400000I-50000J0D01*
G01*
X57650000Y53400000D01*
G75*
G02*
X57600000Y53450000I0J50000D01*
G01*
G37*
G36*
G01*
X57200000Y53450000D02*
X57200000Y54150000D01*
G75*
G02*
X57250000Y54200000I50000J0D01*
G01*
X57350000Y54200000D01*
G75*
G02*
X57400000Y54150000I0J-50000D01*
G01*
X57400000Y53450000D01*
G75*
G02*
X57350000Y53400000I-50000J0D01*
G01*
X57250000Y53400000D01*
G75*
G02*
X57200000Y53450000I0J50000D01*
G01*
G37*
G36*
G01*
X56800000Y53450000D02*
X56800000Y54150000D01*
G75*
G02*
X56850000Y54200000I50000J0D01*
G01*
X56950000Y54200000D01*
G75*
G02*
X57000000Y54150000I0J-50000D01*
G01*
X57000000Y53450000D01*
G75*
G02*
X56950000Y53400000I-50000J0D01*
G01*
X56850000Y53400000D01*
G75*
G02*
X56800000Y53450000I0J50000D01*
G01*
G37*
G36*
X56559755Y54199039D02*
G01*
X56569134Y54196194D01*
X56577779Y54191573D01*
X56585355Y54185355D01*
X56591573Y54177779D01*
X56596194Y54169134D01*
X56599039Y54159755D01*
X56600000Y54150000D01*
X56600000Y53450000D01*
X56599039Y53440245D01*
X56596194Y53430866D01*
X56591573Y53422221D01*
X56585355Y53414645D01*
X56577779Y53408427D01*
X56569134Y53403806D01*
X56559755Y53400961D01*
X56550000Y53400000D01*
X56450000Y53400000D01*
X56440245Y53400961D01*
X56430866Y53403806D01*
X56422221Y53408427D01*
X56414645Y53414645D01*
X56408427Y53422221D01*
X56403806Y53430866D01*
X56400961Y53440245D01*
X56400000Y53450000D01*
X56400000Y54099289D01*
X56400961Y54109044D01*
X56403806Y54118423D01*
X56408427Y54127068D01*
X56414645Y54134644D01*
X56465356Y54185355D01*
X56472932Y54191573D01*
X56481577Y54196194D01*
X56490956Y54199039D01*
X56500711Y54200000D01*
X56550000Y54200000D01*
X56559755Y54199039D01*
G37*
G36*
X56209755Y54549039D02*
G01*
X56219134Y54546194D01*
X56227779Y54541573D01*
X56235355Y54535355D01*
X56241573Y54527779D01*
X56246194Y54519134D01*
X56249039Y54509755D01*
X56250000Y54500000D01*
X56250000Y54450711D01*
X56249039Y54440956D01*
X56246194Y54431577D01*
X56241573Y54422932D01*
X56235355Y54415356D01*
X56184644Y54364645D01*
X56177068Y54358427D01*
X56168423Y54353806D01*
X56159044Y54350961D01*
X56149289Y54350000D01*
X55500000Y54350000D01*
X55490245Y54350961D01*
X55480866Y54353806D01*
X55472221Y54358427D01*
X55464645Y54364645D01*
X55458427Y54372221D01*
X55453806Y54380866D01*
X55450961Y54390245D01*
X55450000Y54400000D01*
X55450000Y54500000D01*
X55450961Y54509755D01*
X55453806Y54519134D01*
X55458427Y54527779D01*
X55464645Y54535355D01*
X55472221Y54541573D01*
X55480866Y54546194D01*
X55490245Y54549039D01*
X55500000Y54550000D01*
X56200000Y54550000D01*
X56209755Y54549039D01*
G37*
G36*
G01*
X55450000Y54800000D02*
X55450000Y54900000D01*
G75*
G02*
X55500000Y54950000I50000J0D01*
G01*
X56200000Y54950000D01*
G75*
G02*
X56250000Y54900000I0J-50000D01*
G01*
X56250000Y54800000D01*
G75*
G02*
X56200000Y54750000I-50000J0D01*
G01*
X55500000Y54750000D01*
G75*
G02*
X55450000Y54800000I0J50000D01*
G01*
G37*
G36*
G01*
X55450000Y55200000D02*
X55450000Y55300000D01*
G75*
G02*
X55500000Y55350000I50000J0D01*
G01*
X56200000Y55350000D01*
G75*
G02*
X56250000Y55300000I0J-50000D01*
G01*
X56250000Y55200000D01*
G75*
G02*
X56200000Y55150000I-50000J0D01*
G01*
X55500000Y55150000D01*
G75*
G02*
X55450000Y55200000I0J50000D01*
G01*
G37*
G36*
G01*
X55450000Y55600000D02*
X55450000Y55700000D01*
G75*
G02*
X55500000Y55750000I50000J0D01*
G01*
X56200000Y55750000D01*
G75*
G02*
X56250000Y55700000I0J-50000D01*
G01*
X56250000Y55600000D01*
G75*
G02*
X56200000Y55550000I-50000J0D01*
G01*
X55500000Y55550000D01*
G75*
G02*
X55450000Y55600000I0J50000D01*
G01*
G37*
G36*
X56159044Y56149039D02*
G01*
X56168423Y56146194D01*
X56177068Y56141573D01*
X56184644Y56135355D01*
X56235355Y56084644D01*
X56241573Y56077068D01*
X56246194Y56068423D01*
X56249039Y56059044D01*
X56250000Y56049289D01*
X56250000Y56000000D01*
X56249039Y55990245D01*
X56246194Y55980866D01*
X56241573Y55972221D01*
X56235355Y55964645D01*
X56227779Y55958427D01*
X56219134Y55953806D01*
X56209755Y55950961D01*
X56200000Y55950000D01*
X55500000Y55950000D01*
X55490245Y55950961D01*
X55480866Y55953806D01*
X55472221Y55958427D01*
X55464645Y55964645D01*
X55458427Y55972221D01*
X55453806Y55980866D01*
X55450961Y55990245D01*
X55450000Y56000000D01*
X55450000Y56100000D01*
X55450961Y56109755D01*
X55453806Y56119134D01*
X55458427Y56127779D01*
X55464645Y56135355D01*
X55472221Y56141573D01*
X55480866Y56146194D01*
X55490245Y56149039D01*
X55500000Y56150000D01*
X56149289Y56150000D01*
X56159044Y56149039D01*
G37*
%TD*%
D32*
%TO.C,U2*%
X57300000Y67750000D03*
D33*
G36*
X56559755Y69599039D02*
G01*
X56569134Y69596194D01*
X56577779Y69591573D01*
X56585355Y69585355D01*
X56591573Y69577779D01*
X56596194Y69569134D01*
X56599039Y69559755D01*
X56600000Y69550000D01*
X56600000Y68850000D01*
X56599039Y68840245D01*
X56596194Y68830866D01*
X56591573Y68822221D01*
X56585355Y68814645D01*
X56577779Y68808427D01*
X56569134Y68803806D01*
X56559755Y68800961D01*
X56550000Y68800000D01*
X56500711Y68800000D01*
X56490956Y68800961D01*
X56481577Y68803806D01*
X56472932Y68808427D01*
X56465356Y68814645D01*
X56414645Y68865356D01*
X56408427Y68872932D01*
X56403806Y68881577D01*
X56400961Y68890956D01*
X56400000Y68900711D01*
X56400000Y69550000D01*
X56400961Y69559755D01*
X56403806Y69569134D01*
X56408427Y69577779D01*
X56414645Y69585355D01*
X56422221Y69591573D01*
X56430866Y69596194D01*
X56440245Y69599039D01*
X56450000Y69600000D01*
X56550000Y69600000D01*
X56559755Y69599039D01*
G37*
G36*
G01*
X56800000Y68850000D02*
X56800000Y69550000D01*
G75*
G02*
X56850000Y69600000I50000J0D01*
G01*
X56950000Y69600000D01*
G75*
G02*
X57000000Y69550000I0J-50000D01*
G01*
X57000000Y68850000D01*
G75*
G02*
X56950000Y68800000I-50000J0D01*
G01*
X56850000Y68800000D01*
G75*
G02*
X56800000Y68850000I0J50000D01*
G01*
G37*
G36*
G01*
X57200000Y68850000D02*
X57200000Y69550000D01*
G75*
G02*
X57250000Y69600000I50000J0D01*
G01*
X57350000Y69600000D01*
G75*
G02*
X57400000Y69550000I0J-50000D01*
G01*
X57400000Y68850000D01*
G75*
G02*
X57350000Y68800000I-50000J0D01*
G01*
X57250000Y68800000D01*
G75*
G02*
X57200000Y68850000I0J50000D01*
G01*
G37*
G36*
G01*
X57600000Y68850000D02*
X57600000Y69550000D01*
G75*
G02*
X57650000Y69600000I50000J0D01*
G01*
X57750000Y69600000D01*
G75*
G02*
X57800000Y69550000I0J-50000D01*
G01*
X57800000Y68850000D01*
G75*
G02*
X57750000Y68800000I-50000J0D01*
G01*
X57650000Y68800000D01*
G75*
G02*
X57600000Y68850000I0J50000D01*
G01*
G37*
G36*
X58159755Y69599039D02*
G01*
X58169134Y69596194D01*
X58177779Y69591573D01*
X58185355Y69585355D01*
X58191573Y69577779D01*
X58196194Y69569134D01*
X58199039Y69559755D01*
X58200000Y69550000D01*
X58200000Y68900711D01*
X58199039Y68890956D01*
X58196194Y68881577D01*
X58191573Y68872932D01*
X58185355Y68865356D01*
X58134644Y68814645D01*
X58127068Y68808427D01*
X58118423Y68803806D01*
X58109044Y68800961D01*
X58099289Y68800000D01*
X58050000Y68800000D01*
X58040245Y68800961D01*
X58030866Y68803806D01*
X58022221Y68808427D01*
X58014645Y68814645D01*
X58008427Y68822221D01*
X58003806Y68830866D01*
X58000961Y68840245D01*
X58000000Y68850000D01*
X58000000Y69550000D01*
X58000961Y69559755D01*
X58003806Y69569134D01*
X58008427Y69577779D01*
X58014645Y69585355D01*
X58022221Y69591573D01*
X58030866Y69596194D01*
X58040245Y69599039D01*
X58050000Y69600000D01*
X58150000Y69600000D01*
X58159755Y69599039D01*
G37*
G36*
X59109755Y68649039D02*
G01*
X59119134Y68646194D01*
X59127779Y68641573D01*
X59135355Y68635355D01*
X59141573Y68627779D01*
X59146194Y68619134D01*
X59149039Y68609755D01*
X59150000Y68600000D01*
X59150000Y68500000D01*
X59149039Y68490245D01*
X59146194Y68480866D01*
X59141573Y68472221D01*
X59135355Y68464645D01*
X59127779Y68458427D01*
X59119134Y68453806D01*
X59109755Y68450961D01*
X59100000Y68450000D01*
X58400000Y68450000D01*
X58390245Y68450961D01*
X58380866Y68453806D01*
X58372221Y68458427D01*
X58364645Y68464645D01*
X58358427Y68472221D01*
X58353806Y68480866D01*
X58350961Y68490245D01*
X58350000Y68500000D01*
X58350000Y68549289D01*
X58350961Y68559044D01*
X58353806Y68568423D01*
X58358427Y68577068D01*
X58364645Y68584644D01*
X58415356Y68635355D01*
X58422932Y68641573D01*
X58431577Y68646194D01*
X58440956Y68649039D01*
X58450711Y68650000D01*
X59100000Y68650000D01*
X59109755Y68649039D01*
G37*
G36*
G01*
X58350000Y68100000D02*
X58350000Y68200000D01*
G75*
G02*
X58400000Y68250000I50000J0D01*
G01*
X59100000Y68250000D01*
G75*
G02*
X59150000Y68200000I0J-50000D01*
G01*
X59150000Y68100000D01*
G75*
G02*
X59100000Y68050000I-50000J0D01*
G01*
X58400000Y68050000D01*
G75*
G02*
X58350000Y68100000I0J50000D01*
G01*
G37*
G36*
G01*
X58350000Y67700000D02*
X58350000Y67800000D01*
G75*
G02*
X58400000Y67850000I50000J0D01*
G01*
X59100000Y67850000D01*
G75*
G02*
X59150000Y67800000I0J-50000D01*
G01*
X59150000Y67700000D01*
G75*
G02*
X59100000Y67650000I-50000J0D01*
G01*
X58400000Y67650000D01*
G75*
G02*
X58350000Y67700000I0J50000D01*
G01*
G37*
G36*
G01*
X58350000Y67300000D02*
X58350000Y67400000D01*
G75*
G02*
X58400000Y67450000I50000J0D01*
G01*
X59100000Y67450000D01*
G75*
G02*
X59150000Y67400000I0J-50000D01*
G01*
X59150000Y67300000D01*
G75*
G02*
X59100000Y67250000I-50000J0D01*
G01*
X58400000Y67250000D01*
G75*
G02*
X58350000Y67300000I0J50000D01*
G01*
G37*
G36*
X59109755Y67049039D02*
G01*
X59119134Y67046194D01*
X59127779Y67041573D01*
X59135355Y67035355D01*
X59141573Y67027779D01*
X59146194Y67019134D01*
X59149039Y67009755D01*
X59150000Y67000000D01*
X59150000Y66900000D01*
X59149039Y66890245D01*
X59146194Y66880866D01*
X59141573Y66872221D01*
X59135355Y66864645D01*
X59127779Y66858427D01*
X59119134Y66853806D01*
X59109755Y66850961D01*
X59100000Y66850000D01*
X58450711Y66850000D01*
X58440956Y66850961D01*
X58431577Y66853806D01*
X58422932Y66858427D01*
X58415356Y66864645D01*
X58364645Y66915356D01*
X58358427Y66922932D01*
X58353806Y66931577D01*
X58350961Y66940956D01*
X58350000Y66950711D01*
X58350000Y67000000D01*
X58350961Y67009755D01*
X58353806Y67019134D01*
X58358427Y67027779D01*
X58364645Y67035355D01*
X58372221Y67041573D01*
X58380866Y67046194D01*
X58390245Y67049039D01*
X58400000Y67050000D01*
X59100000Y67050000D01*
X59109755Y67049039D01*
G37*
G36*
X58109044Y66699039D02*
G01*
X58118423Y66696194D01*
X58127068Y66691573D01*
X58134644Y66685355D01*
X58185355Y66634644D01*
X58191573Y66627068D01*
X58196194Y66618423D01*
X58199039Y66609044D01*
X58200000Y66599289D01*
X58200000Y65950000D01*
X58199039Y65940245D01*
X58196194Y65930866D01*
X58191573Y65922221D01*
X58185355Y65914645D01*
X58177779Y65908427D01*
X58169134Y65903806D01*
X58159755Y65900961D01*
X58150000Y65900000D01*
X58050000Y65900000D01*
X58040245Y65900961D01*
X58030866Y65903806D01*
X58022221Y65908427D01*
X58014645Y65914645D01*
X58008427Y65922221D01*
X58003806Y65930866D01*
X58000961Y65940245D01*
X58000000Y65950000D01*
X58000000Y66650000D01*
X58000961Y66659755D01*
X58003806Y66669134D01*
X58008427Y66677779D01*
X58014645Y66685355D01*
X58022221Y66691573D01*
X58030866Y66696194D01*
X58040245Y66699039D01*
X58050000Y66700000D01*
X58099289Y66700000D01*
X58109044Y66699039D01*
G37*
G36*
G01*
X57600000Y65950000D02*
X57600000Y66650000D01*
G75*
G02*
X57650000Y66700000I50000J0D01*
G01*
X57750000Y66700000D01*
G75*
G02*
X57800000Y66650000I0J-50000D01*
G01*
X57800000Y65950000D01*
G75*
G02*
X57750000Y65900000I-50000J0D01*
G01*
X57650000Y65900000D01*
G75*
G02*
X57600000Y65950000I0J50000D01*
G01*
G37*
G36*
G01*
X57200000Y65950000D02*
X57200000Y66650000D01*
G75*
G02*
X57250000Y66700000I50000J0D01*
G01*
X57350000Y66700000D01*
G75*
G02*
X57400000Y66650000I0J-50000D01*
G01*
X57400000Y65950000D01*
G75*
G02*
X57350000Y65900000I-50000J0D01*
G01*
X57250000Y65900000D01*
G75*
G02*
X57200000Y65950000I0J50000D01*
G01*
G37*
G36*
G01*
X56800000Y65950000D02*
X56800000Y66650000D01*
G75*
G02*
X56850000Y66700000I50000J0D01*
G01*
X56950000Y66700000D01*
G75*
G02*
X57000000Y66650000I0J-50000D01*
G01*
X57000000Y65950000D01*
G75*
G02*
X56950000Y65900000I-50000J0D01*
G01*
X56850000Y65900000D01*
G75*
G02*
X56800000Y65950000I0J50000D01*
G01*
G37*
G36*
X56559755Y66699039D02*
G01*
X56569134Y66696194D01*
X56577779Y66691573D01*
X56585355Y66685355D01*
X56591573Y66677779D01*
X56596194Y66669134D01*
X56599039Y66659755D01*
X56600000Y66650000D01*
X56600000Y65950000D01*
X56599039Y65940245D01*
X56596194Y65930866D01*
X56591573Y65922221D01*
X56585355Y65914645D01*
X56577779Y65908427D01*
X56569134Y65903806D01*
X56559755Y65900961D01*
X56550000Y65900000D01*
X56450000Y65900000D01*
X56440245Y65900961D01*
X56430866Y65903806D01*
X56422221Y65908427D01*
X56414645Y65914645D01*
X56408427Y65922221D01*
X56403806Y65930866D01*
X56400961Y65940245D01*
X56400000Y65950000D01*
X56400000Y66599289D01*
X56400961Y66609044D01*
X56403806Y66618423D01*
X56408427Y66627068D01*
X56414645Y66634644D01*
X56465356Y66685355D01*
X56472932Y66691573D01*
X56481577Y66696194D01*
X56490956Y66699039D01*
X56500711Y66700000D01*
X56550000Y66700000D01*
X56559755Y66699039D01*
G37*
G36*
X56209755Y67049039D02*
G01*
X56219134Y67046194D01*
X56227779Y67041573D01*
X56235355Y67035355D01*
X56241573Y67027779D01*
X56246194Y67019134D01*
X56249039Y67009755D01*
X56250000Y67000000D01*
X56250000Y66950711D01*
X56249039Y66940956D01*
X56246194Y66931577D01*
X56241573Y66922932D01*
X56235355Y66915356D01*
X56184644Y66864645D01*
X56177068Y66858427D01*
X56168423Y66853806D01*
X56159044Y66850961D01*
X56149289Y66850000D01*
X55500000Y66850000D01*
X55490245Y66850961D01*
X55480866Y66853806D01*
X55472221Y66858427D01*
X55464645Y66864645D01*
X55458427Y66872221D01*
X55453806Y66880866D01*
X55450961Y66890245D01*
X55450000Y66900000D01*
X55450000Y67000000D01*
X55450961Y67009755D01*
X55453806Y67019134D01*
X55458427Y67027779D01*
X55464645Y67035355D01*
X55472221Y67041573D01*
X55480866Y67046194D01*
X55490245Y67049039D01*
X55500000Y67050000D01*
X56200000Y67050000D01*
X56209755Y67049039D01*
G37*
G36*
G01*
X55450000Y67300000D02*
X55450000Y67400000D01*
G75*
G02*
X55500000Y67450000I50000J0D01*
G01*
X56200000Y67450000D01*
G75*
G02*
X56250000Y67400000I0J-50000D01*
G01*
X56250000Y67300000D01*
G75*
G02*
X56200000Y67250000I-50000J0D01*
G01*
X55500000Y67250000D01*
G75*
G02*
X55450000Y67300000I0J50000D01*
G01*
G37*
G36*
G01*
X55450000Y67700000D02*
X55450000Y67800000D01*
G75*
G02*
X55500000Y67850000I50000J0D01*
G01*
X56200000Y67850000D01*
G75*
G02*
X56250000Y67800000I0J-50000D01*
G01*
X56250000Y67700000D01*
G75*
G02*
X56200000Y67650000I-50000J0D01*
G01*
X55500000Y67650000D01*
G75*
G02*
X55450000Y67700000I0J50000D01*
G01*
G37*
G36*
G01*
X55450000Y68100000D02*
X55450000Y68200000D01*
G75*
G02*
X55500000Y68250000I50000J0D01*
G01*
X56200000Y68250000D01*
G75*
G02*
X56250000Y68200000I0J-50000D01*
G01*
X56250000Y68100000D01*
G75*
G02*
X56200000Y68050000I-50000J0D01*
G01*
X55500000Y68050000D01*
G75*
G02*
X55450000Y68100000I0J50000D01*
G01*
G37*
G36*
X56159044Y68649039D02*
G01*
X56168423Y68646194D01*
X56177068Y68641573D01*
X56184644Y68635355D01*
X56235355Y68584644D01*
X56241573Y68577068D01*
X56246194Y68568423D01*
X56249039Y68559044D01*
X56250000Y68549289D01*
X56250000Y68500000D01*
X56249039Y68490245D01*
X56246194Y68480866D01*
X56241573Y68472221D01*
X56235355Y68464645D01*
X56227779Y68458427D01*
X56219134Y68453806D01*
X56209755Y68450961D01*
X56200000Y68450000D01*
X55500000Y68450000D01*
X55490245Y68450961D01*
X55480866Y68453806D01*
X55472221Y68458427D01*
X55464645Y68464645D01*
X55458427Y68472221D01*
X55453806Y68480866D01*
X55450961Y68490245D01*
X55450000Y68500000D01*
X55450000Y68600000D01*
X55450961Y68609755D01*
X55453806Y68619134D01*
X55458427Y68627779D01*
X55464645Y68635355D01*
X55472221Y68641573D01*
X55480866Y68646194D01*
X55490245Y68649039D01*
X55500000Y68650000D01*
X56149289Y68650000D01*
X56159044Y68649039D01*
G37*
%TD*%
D32*
%TO.C,U2*%
X57300000Y80250000D03*
D33*
G36*
X56559755Y82099039D02*
G01*
X56569134Y82096194D01*
X56577779Y82091573D01*
X56585355Y82085355D01*
X56591573Y82077779D01*
X56596194Y82069134D01*
X56599039Y82059755D01*
X56600000Y82050000D01*
X56600000Y81350000D01*
X56599039Y81340245D01*
X56596194Y81330866D01*
X56591573Y81322221D01*
X56585355Y81314645D01*
X56577779Y81308427D01*
X56569134Y81303806D01*
X56559755Y81300961D01*
X56550000Y81300000D01*
X56500711Y81300000D01*
X56490956Y81300961D01*
X56481577Y81303806D01*
X56472932Y81308427D01*
X56465356Y81314645D01*
X56414645Y81365356D01*
X56408427Y81372932D01*
X56403806Y81381577D01*
X56400961Y81390956D01*
X56400000Y81400711D01*
X56400000Y82050000D01*
X56400961Y82059755D01*
X56403806Y82069134D01*
X56408427Y82077779D01*
X56414645Y82085355D01*
X56422221Y82091573D01*
X56430866Y82096194D01*
X56440245Y82099039D01*
X56450000Y82100000D01*
X56550000Y82100000D01*
X56559755Y82099039D01*
G37*
G36*
G01*
X56800000Y81350000D02*
X56800000Y82050000D01*
G75*
G02*
X56850000Y82100000I50000J0D01*
G01*
X56950000Y82100000D01*
G75*
G02*
X57000000Y82050000I0J-50000D01*
G01*
X57000000Y81350000D01*
G75*
G02*
X56950000Y81300000I-50000J0D01*
G01*
X56850000Y81300000D01*
G75*
G02*
X56800000Y81350000I0J50000D01*
G01*
G37*
G36*
G01*
X57200000Y81350000D02*
X57200000Y82050000D01*
G75*
G02*
X57250000Y82100000I50000J0D01*
G01*
X57350000Y82100000D01*
G75*
G02*
X57400000Y82050000I0J-50000D01*
G01*
X57400000Y81350000D01*
G75*
G02*
X57350000Y81300000I-50000J0D01*
G01*
X57250000Y81300000D01*
G75*
G02*
X57200000Y81350000I0J50000D01*
G01*
G37*
G36*
G01*
X57600000Y81350000D02*
X57600000Y82050000D01*
G75*
G02*
X57650000Y82100000I50000J0D01*
G01*
X57750000Y82100000D01*
G75*
G02*
X57800000Y82050000I0J-50000D01*
G01*
X57800000Y81350000D01*
G75*
G02*
X57750000Y81300000I-50000J0D01*
G01*
X57650000Y81300000D01*
G75*
G02*
X57600000Y81350000I0J50000D01*
G01*
G37*
G36*
X58159755Y82099039D02*
G01*
X58169134Y82096194D01*
X58177779Y82091573D01*
X58185355Y82085355D01*
X58191573Y82077779D01*
X58196194Y82069134D01*
X58199039Y82059755D01*
X58200000Y82050000D01*
X58200000Y81400711D01*
X58199039Y81390956D01*
X58196194Y81381577D01*
X58191573Y81372932D01*
X58185355Y81365356D01*
X58134644Y81314645D01*
X58127068Y81308427D01*
X58118423Y81303806D01*
X58109044Y81300961D01*
X58099289Y81300000D01*
X58050000Y81300000D01*
X58040245Y81300961D01*
X58030866Y81303806D01*
X58022221Y81308427D01*
X58014645Y81314645D01*
X58008427Y81322221D01*
X58003806Y81330866D01*
X58000961Y81340245D01*
X58000000Y81350000D01*
X58000000Y82050000D01*
X58000961Y82059755D01*
X58003806Y82069134D01*
X58008427Y82077779D01*
X58014645Y82085355D01*
X58022221Y82091573D01*
X58030866Y82096194D01*
X58040245Y82099039D01*
X58050000Y82100000D01*
X58150000Y82100000D01*
X58159755Y82099039D01*
G37*
G36*
X59109755Y81149039D02*
G01*
X59119134Y81146194D01*
X59127779Y81141573D01*
X59135355Y81135355D01*
X59141573Y81127779D01*
X59146194Y81119134D01*
X59149039Y81109755D01*
X59150000Y81100000D01*
X59150000Y81000000D01*
X59149039Y80990245D01*
X59146194Y80980866D01*
X59141573Y80972221D01*
X59135355Y80964645D01*
X59127779Y80958427D01*
X59119134Y80953806D01*
X59109755Y80950961D01*
X59100000Y80950000D01*
X58400000Y80950000D01*
X58390245Y80950961D01*
X58380866Y80953806D01*
X58372221Y80958427D01*
X58364645Y80964645D01*
X58358427Y80972221D01*
X58353806Y80980866D01*
X58350961Y80990245D01*
X58350000Y81000000D01*
X58350000Y81049289D01*
X58350961Y81059044D01*
X58353806Y81068423D01*
X58358427Y81077068D01*
X58364645Y81084644D01*
X58415356Y81135355D01*
X58422932Y81141573D01*
X58431577Y81146194D01*
X58440956Y81149039D01*
X58450711Y81150000D01*
X59100000Y81150000D01*
X59109755Y81149039D01*
G37*
G36*
G01*
X58350000Y80600000D02*
X58350000Y80700000D01*
G75*
G02*
X58400000Y80750000I50000J0D01*
G01*
X59100000Y80750000D01*
G75*
G02*
X59150000Y80700000I0J-50000D01*
G01*
X59150000Y80600000D01*
G75*
G02*
X59100000Y80550000I-50000J0D01*
G01*
X58400000Y80550000D01*
G75*
G02*
X58350000Y80600000I0J50000D01*
G01*
G37*
G36*
G01*
X58350000Y80200000D02*
X58350000Y80300000D01*
G75*
G02*
X58400000Y80350000I50000J0D01*
G01*
X59100000Y80350000D01*
G75*
G02*
X59150000Y80300000I0J-50000D01*
G01*
X59150000Y80200000D01*
G75*
G02*
X59100000Y80150000I-50000J0D01*
G01*
X58400000Y80150000D01*
G75*
G02*
X58350000Y80200000I0J50000D01*
G01*
G37*
G36*
G01*
X58350000Y79800000D02*
X58350000Y79900000D01*
G75*
G02*
X58400000Y79950000I50000J0D01*
G01*
X59100000Y79950000D01*
G75*
G02*
X59150000Y79900000I0J-50000D01*
G01*
X59150000Y79800000D01*
G75*
G02*
X59100000Y79750000I-50000J0D01*
G01*
X58400000Y79750000D01*
G75*
G02*
X58350000Y79800000I0J50000D01*
G01*
G37*
G36*
X59109755Y79549039D02*
G01*
X59119134Y79546194D01*
X59127779Y79541573D01*
X59135355Y79535355D01*
X59141573Y79527779D01*
X59146194Y79519134D01*
X59149039Y79509755D01*
X59150000Y79500000D01*
X59150000Y79400000D01*
X59149039Y79390245D01*
X59146194Y79380866D01*
X59141573Y79372221D01*
X59135355Y79364645D01*
X59127779Y79358427D01*
X59119134Y79353806D01*
X59109755Y79350961D01*
X59100000Y79350000D01*
X58450711Y79350000D01*
X58440956Y79350961D01*
X58431577Y79353806D01*
X58422932Y79358427D01*
X58415356Y79364645D01*
X58364645Y79415356D01*
X58358427Y79422932D01*
X58353806Y79431577D01*
X58350961Y79440956D01*
X58350000Y79450711D01*
X58350000Y79500000D01*
X58350961Y79509755D01*
X58353806Y79519134D01*
X58358427Y79527779D01*
X58364645Y79535355D01*
X58372221Y79541573D01*
X58380866Y79546194D01*
X58390245Y79549039D01*
X58400000Y79550000D01*
X59100000Y79550000D01*
X59109755Y79549039D01*
G37*
G36*
X58109044Y79199039D02*
G01*
X58118423Y79196194D01*
X58127068Y79191573D01*
X58134644Y79185355D01*
X58185355Y79134644D01*
X58191573Y79127068D01*
X58196194Y79118423D01*
X58199039Y79109044D01*
X58200000Y79099289D01*
X58200000Y78450000D01*
X58199039Y78440245D01*
X58196194Y78430866D01*
X58191573Y78422221D01*
X58185355Y78414645D01*
X58177779Y78408427D01*
X58169134Y78403806D01*
X58159755Y78400961D01*
X58150000Y78400000D01*
X58050000Y78400000D01*
X58040245Y78400961D01*
X58030866Y78403806D01*
X58022221Y78408427D01*
X58014645Y78414645D01*
X58008427Y78422221D01*
X58003806Y78430866D01*
X58000961Y78440245D01*
X58000000Y78450000D01*
X58000000Y79150000D01*
X58000961Y79159755D01*
X58003806Y79169134D01*
X58008427Y79177779D01*
X58014645Y79185355D01*
X58022221Y79191573D01*
X58030866Y79196194D01*
X58040245Y79199039D01*
X58050000Y79200000D01*
X58099289Y79200000D01*
X58109044Y79199039D01*
G37*
G36*
G01*
X57600000Y78450000D02*
X57600000Y79150000D01*
G75*
G02*
X57650000Y79200000I50000J0D01*
G01*
X57750000Y79200000D01*
G75*
G02*
X57800000Y79150000I0J-50000D01*
G01*
X57800000Y78450000D01*
G75*
G02*
X57750000Y78400000I-50000J0D01*
G01*
X57650000Y78400000D01*
G75*
G02*
X57600000Y78450000I0J50000D01*
G01*
G37*
G36*
G01*
X57200000Y78450000D02*
X57200000Y79150000D01*
G75*
G02*
X57250000Y79200000I50000J0D01*
G01*
X57350000Y79200000D01*
G75*
G02*
X57400000Y79150000I0J-50000D01*
G01*
X57400000Y78450000D01*
G75*
G02*
X57350000Y78400000I-50000J0D01*
G01*
X57250000Y78400000D01*
G75*
G02*
X57200000Y78450000I0J50000D01*
G01*
G37*
G36*
G01*
X56800000Y78450000D02*
X56800000Y79150000D01*
G75*
G02*
X56850000Y79200000I50000J0D01*
G01*
X56950000Y79200000D01*
G75*
G02*
X57000000Y79150000I0J-50000D01*
G01*
X57000000Y78450000D01*
G75*
G02*
X56950000Y78400000I-50000J0D01*
G01*
X56850000Y78400000D01*
G75*
G02*
X56800000Y78450000I0J50000D01*
G01*
G37*
G36*
X56559755Y79199039D02*
G01*
X56569134Y79196194D01*
X56577779Y79191573D01*
X56585355Y79185355D01*
X56591573Y79177779D01*
X56596194Y79169134D01*
X56599039Y79159755D01*
X56600000Y79150000D01*
X56600000Y78450000D01*
X56599039Y78440245D01*
X56596194Y78430866D01*
X56591573Y78422221D01*
X56585355Y78414645D01*
X56577779Y78408427D01*
X56569134Y78403806D01*
X56559755Y78400961D01*
X56550000Y78400000D01*
X56450000Y78400000D01*
X56440245Y78400961D01*
X56430866Y78403806D01*
X56422221Y78408427D01*
X56414645Y78414645D01*
X56408427Y78422221D01*
X56403806Y78430866D01*
X56400961Y78440245D01*
X56400000Y78450000D01*
X56400000Y79099289D01*
X56400961Y79109044D01*
X56403806Y79118423D01*
X56408427Y79127068D01*
X56414645Y79134644D01*
X56465356Y79185355D01*
X56472932Y79191573D01*
X56481577Y79196194D01*
X56490956Y79199039D01*
X56500711Y79200000D01*
X56550000Y79200000D01*
X56559755Y79199039D01*
G37*
G36*
X56209755Y79549039D02*
G01*
X56219134Y79546194D01*
X56227779Y79541573D01*
X56235355Y79535355D01*
X56241573Y79527779D01*
X56246194Y79519134D01*
X56249039Y79509755D01*
X56250000Y79500000D01*
X56250000Y79450711D01*
X56249039Y79440956D01*
X56246194Y79431577D01*
X56241573Y79422932D01*
X56235355Y79415356D01*
X56184644Y79364645D01*
X56177068Y79358427D01*
X56168423Y79353806D01*
X56159044Y79350961D01*
X56149289Y79350000D01*
X55500000Y79350000D01*
X55490245Y79350961D01*
X55480866Y79353806D01*
X55472221Y79358427D01*
X55464645Y79364645D01*
X55458427Y79372221D01*
X55453806Y79380866D01*
X55450961Y79390245D01*
X55450000Y79400000D01*
X55450000Y79500000D01*
X55450961Y79509755D01*
X55453806Y79519134D01*
X55458427Y79527779D01*
X55464645Y79535355D01*
X55472221Y79541573D01*
X55480866Y79546194D01*
X55490245Y79549039D01*
X55500000Y79550000D01*
X56200000Y79550000D01*
X56209755Y79549039D01*
G37*
G36*
G01*
X55450000Y79800000D02*
X55450000Y79900000D01*
G75*
G02*
X55500000Y79950000I50000J0D01*
G01*
X56200000Y79950000D01*
G75*
G02*
X56250000Y79900000I0J-50000D01*
G01*
X56250000Y79800000D01*
G75*
G02*
X56200000Y79750000I-50000J0D01*
G01*
X55500000Y79750000D01*
G75*
G02*
X55450000Y79800000I0J50000D01*
G01*
G37*
G36*
G01*
X55450000Y80200000D02*
X55450000Y80300000D01*
G75*
G02*
X55500000Y80350000I50000J0D01*
G01*
X56200000Y80350000D01*
G75*
G02*
X56250000Y80300000I0J-50000D01*
G01*
X56250000Y80200000D01*
G75*
G02*
X56200000Y80150000I-50000J0D01*
G01*
X55500000Y80150000D01*
G75*
G02*
X55450000Y80200000I0J50000D01*
G01*
G37*
G36*
G01*
X55450000Y80600000D02*
X55450000Y80700000D01*
G75*
G02*
X55500000Y80750000I50000J0D01*
G01*
X56200000Y80750000D01*
G75*
G02*
X56250000Y80700000I0J-50000D01*
G01*
X56250000Y80600000D01*
G75*
G02*
X56200000Y80550000I-50000J0D01*
G01*
X55500000Y80550000D01*
G75*
G02*
X55450000Y80600000I0J50000D01*
G01*
G37*
G36*
X56159044Y81149039D02*
G01*
X56168423Y81146194D01*
X56177068Y81141573D01*
X56184644Y81135355D01*
X56235355Y81084644D01*
X56241573Y81077068D01*
X56246194Y81068423D01*
X56249039Y81059044D01*
X56250000Y81049289D01*
X56250000Y81000000D01*
X56249039Y80990245D01*
X56246194Y80980866D01*
X56241573Y80972221D01*
X56235355Y80964645D01*
X56227779Y80958427D01*
X56219134Y80953806D01*
X56209755Y80950961D01*
X56200000Y80950000D01*
X55500000Y80950000D01*
X55490245Y80950961D01*
X55480866Y80953806D01*
X55472221Y80958427D01*
X55464645Y80964645D01*
X55458427Y80972221D01*
X55453806Y80980866D01*
X55450961Y80990245D01*
X55450000Y81000000D01*
X55450000Y81100000D01*
X55450961Y81109755D01*
X55453806Y81119134D01*
X55458427Y81127779D01*
X55464645Y81135355D01*
X55472221Y81141573D01*
X55480866Y81146194D01*
X55490245Y81149039D01*
X55500000Y81150000D01*
X56149289Y81150000D01*
X56159044Y81149039D01*
G37*
%TD*%
D34*
%TO.C,P9*%
X57735000Y8750000D03*
X56465000Y8750000D03*
%TD*%
%TO.C,P9*%
X57735000Y21250000D03*
X56465000Y21250000D03*
%TD*%
%TO.C,P9*%
X57735000Y33750000D03*
X56465000Y33750000D03*
%TD*%
%TO.C,P9*%
X57735000Y46250000D03*
X56465000Y46250000D03*
%TD*%
%TO.C,P9*%
X57735000Y58750000D03*
X56465000Y58750000D03*
%TD*%
%TO.C,P9*%
X57735000Y71250000D03*
X56465000Y71250000D03*
%TD*%
%TO.C,P9*%
X57735000Y83750000D03*
X56465000Y83750000D03*
%TD*%
D12*
%TO.C,R32*%
X24500000Y6125000D03*
X24500000Y5075000D03*
%TD*%
%TO.C,R32*%
X24500000Y18625000D03*
X24500000Y17575000D03*
%TD*%
%TO.C,R32*%
X24500000Y31125000D03*
X24500000Y30075000D03*
%TD*%
%TO.C,R32*%
X24500000Y43625000D03*
X24500000Y42575000D03*
%TD*%
%TO.C,R32*%
X24500000Y56125000D03*
X24500000Y55075000D03*
%TD*%
%TO.C,R32*%
X24500000Y68625000D03*
X24500000Y67575000D03*
%TD*%
%TO.C,R32*%
X24500000Y81125000D03*
X24500000Y80075000D03*
%TD*%
D35*
%TO.C,J11*%
X66200000Y5400000D03*
%TD*%
%TO.C,J11*%
X66200000Y17900000D03*
%TD*%
%TO.C,J11*%
X66200000Y30400000D03*
%TD*%
%TO.C,J11*%
X66200000Y42900000D03*
%TD*%
%TO.C,J11*%
X66200000Y55400000D03*
%TD*%
%TO.C,J11*%
X66200000Y67900000D03*
%TD*%
%TO.C,J11*%
X66200000Y80400000D03*
%TD*%
D23*
%TO.C,D22*%
X19700000Y3700000D03*
X21500000Y3700000D03*
%TD*%
%TO.C,D22*%
X19700000Y16200000D03*
X21500000Y16200000D03*
%TD*%
%TO.C,D22*%
X19700000Y28700000D03*
X21500000Y28700000D03*
%TD*%
%TO.C,D22*%
X19700000Y41200000D03*
X21500000Y41200000D03*
%TD*%
%TO.C,D22*%
X19700000Y53700000D03*
X21500000Y53700000D03*
%TD*%
%TO.C,D22*%
X19700000Y66200000D03*
X21500000Y66200000D03*
%TD*%
%TO.C,D22*%
X19700000Y78700000D03*
X21500000Y78700000D03*
%TD*%
D12*
%TO.C,R36*%
X20650000Y6725000D03*
X20650000Y5675000D03*
%TD*%
%TO.C,R36*%
X20650000Y19225000D03*
X20650000Y18175000D03*
%TD*%
%TO.C,R36*%
X20650000Y31725000D03*
X20650000Y30675000D03*
%TD*%
%TO.C,R36*%
X20650000Y44225000D03*
X20650000Y43175000D03*
%TD*%
%TO.C,R36*%
X20650000Y56725000D03*
X20650000Y55675000D03*
%TD*%
%TO.C,R36*%
X20650000Y69225000D03*
X20650000Y68175000D03*
%TD*%
%TO.C,R36*%
X20650000Y81725000D03*
X20650000Y80675000D03*
%TD*%
D11*
%TO.C,R1*%
X54625000Y7100000D03*
X53575000Y7100000D03*
%TD*%
%TO.C,R1*%
X54625000Y19600000D03*
X53575000Y19600000D03*
%TD*%
%TO.C,R1*%
X54625000Y32100000D03*
X53575000Y32100000D03*
%TD*%
%TO.C,R1*%
X54625000Y44600000D03*
X53575000Y44600000D03*
%TD*%
%TO.C,R1*%
X54625000Y57100000D03*
X53575000Y57100000D03*
%TD*%
%TO.C,R1*%
X54625000Y69600000D03*
X53575000Y69600000D03*
%TD*%
%TO.C,R1*%
X54625000Y82100000D03*
X53575000Y82100000D03*
%TD*%
D12*
%TO.C,R12*%
X33100000Y6125000D03*
X33100000Y5075000D03*
%TD*%
%TO.C,R12*%
X33100000Y18625000D03*
X33100000Y17575000D03*
%TD*%
%TO.C,R12*%
X33100000Y31125000D03*
X33100000Y30075000D03*
%TD*%
%TO.C,R12*%
X33100000Y43625000D03*
X33100000Y42575000D03*
%TD*%
%TO.C,R12*%
X33100000Y56125000D03*
X33100000Y55075000D03*
%TD*%
%TO.C,R12*%
X33100000Y68625000D03*
X33100000Y67575000D03*
%TD*%
%TO.C,R12*%
X33100000Y81125000D03*
X33100000Y80075000D03*
%TD*%
D11*
%TO.C,R15*%
X15425000Y3500000D03*
X14375000Y3500000D03*
%TD*%
%TO.C,R15*%
X15425000Y16000000D03*
X14375000Y16000000D03*
%TD*%
%TO.C,R15*%
X15425000Y28500000D03*
X14375000Y28500000D03*
%TD*%
%TO.C,R15*%
X15425000Y41000000D03*
X14375000Y41000000D03*
%TD*%
%TO.C,R15*%
X15425000Y53500000D03*
X14375000Y53500000D03*
%TD*%
%TO.C,R15*%
X15425000Y66000000D03*
X14375000Y66000000D03*
%TD*%
%TO.C,R15*%
X15425000Y78500000D03*
X14375000Y78500000D03*
%TD*%
%TO.C,R7*%
X43925000Y6100000D03*
X42875000Y6100000D03*
%TD*%
%TO.C,R7*%
X43925000Y18600000D03*
X42875000Y18600000D03*
%TD*%
%TO.C,R7*%
X43925000Y31100000D03*
X42875000Y31100000D03*
%TD*%
%TO.C,R7*%
X43925000Y43600000D03*
X42875000Y43600000D03*
%TD*%
%TO.C,R7*%
X43925000Y56100000D03*
X42875000Y56100000D03*
%TD*%
%TO.C,R7*%
X43925000Y68600000D03*
X42875000Y68600000D03*
%TD*%
%TO.C,R7*%
X43925000Y81100000D03*
X42875000Y81100000D03*
%TD*%
D12*
%TO.C,R13*%
X59900000Y4925000D03*
X59900000Y3875000D03*
%TD*%
%TO.C,R13*%
X59900000Y17425000D03*
X59900000Y16375000D03*
%TD*%
%TO.C,R13*%
X59900000Y29925000D03*
X59900000Y28875000D03*
%TD*%
%TO.C,R13*%
X59900000Y42425000D03*
X59900000Y41375000D03*
%TD*%
%TO.C,R13*%
X59900000Y54925000D03*
X59900000Y53875000D03*
%TD*%
%TO.C,R13*%
X59900000Y67425000D03*
X59900000Y66375000D03*
%TD*%
%TO.C,R13*%
X59900000Y79925000D03*
X59900000Y78875000D03*
%TD*%
D36*
%TO.C,P4*%
X54000000Y1750000D03*
%TD*%
%TO.C,P4*%
X54000000Y14250000D03*
%TD*%
%TO.C,P4*%
X54000000Y26750000D03*
%TD*%
%TO.C,P4*%
X54000000Y39250000D03*
%TD*%
%TO.C,P4*%
X54000000Y51750000D03*
%TD*%
%TO.C,P4*%
X54000000Y64250000D03*
%TD*%
%TO.C,P4*%
X54000000Y76750000D03*
%TD*%
%TO.C,P2*%
X54000000Y8750000D03*
%TD*%
%TO.C,P2*%
X54000000Y21250000D03*
%TD*%
%TO.C,P2*%
X54000000Y33750000D03*
%TD*%
%TO.C,P2*%
X54000000Y46250000D03*
%TD*%
%TO.C,P2*%
X54000000Y58750000D03*
%TD*%
%TO.C,P2*%
X54000000Y71250000D03*
%TD*%
%TO.C,P2*%
X54000000Y83750000D03*
%TD*%
D12*
%TO.C,R34*%
X28400000Y5475000D03*
X28400000Y6525000D03*
%TD*%
%TO.C,R34*%
X28400000Y17975000D03*
X28400000Y19025000D03*
%TD*%
%TO.C,R34*%
X28400000Y30475000D03*
X28400000Y31525000D03*
%TD*%
%TO.C,R34*%
X28400000Y42975000D03*
X28400000Y44025000D03*
%TD*%
%TO.C,R34*%
X28400000Y55475000D03*
X28400000Y56525000D03*
%TD*%
%TO.C,R34*%
X28400000Y67975000D03*
X28400000Y69025000D03*
%TD*%
%TO.C,R34*%
X28400000Y80475000D03*
X28400000Y81525000D03*
%TD*%
D11*
%TO.C,R38*%
X28525000Y3600000D03*
X27475000Y3600000D03*
%TD*%
%TO.C,R38*%
X28525000Y16100000D03*
X27475000Y16100000D03*
%TD*%
%TO.C,R38*%
X28525000Y28600000D03*
X27475000Y28600000D03*
%TD*%
%TO.C,R38*%
X28525000Y41100000D03*
X27475000Y41100000D03*
%TD*%
%TO.C,R38*%
X28525000Y53600000D03*
X27475000Y53600000D03*
%TD*%
%TO.C,R38*%
X28525000Y66100000D03*
X27475000Y66100000D03*
%TD*%
%TO.C,R38*%
X28525000Y78600000D03*
X27475000Y78600000D03*
%TD*%
D12*
%TO.C,R23*%
X63100000Y1575000D03*
X63100000Y2625000D03*
%TD*%
%TO.C,R23*%
X63100000Y14075000D03*
X63100000Y15125000D03*
%TD*%
%TO.C,R23*%
X63100000Y26575000D03*
X63100000Y27625000D03*
%TD*%
%TO.C,R23*%
X63100000Y39075000D03*
X63100000Y40125000D03*
%TD*%
%TO.C,R23*%
X63100000Y51575000D03*
X63100000Y52625000D03*
%TD*%
%TO.C,R23*%
X63100000Y64075000D03*
X63100000Y65125000D03*
%TD*%
%TO.C,R23*%
X63100000Y76575000D03*
X63100000Y77625000D03*
%TD*%
D11*
%TO.C,R37*%
X27475000Y4600000D03*
X28525000Y4600000D03*
%TD*%
%TO.C,R37*%
X27475000Y17100000D03*
X28525000Y17100000D03*
%TD*%
%TO.C,R37*%
X27475000Y29600000D03*
X28525000Y29600000D03*
%TD*%
%TO.C,R37*%
X27475000Y42100000D03*
X28525000Y42100000D03*
%TD*%
%TO.C,R37*%
X27475000Y54600000D03*
X28525000Y54600000D03*
%TD*%
%TO.C,R37*%
X27475000Y67100000D03*
X28525000Y67100000D03*
%TD*%
%TO.C,R37*%
X27475000Y79600000D03*
X28525000Y79600000D03*
%TD*%
D24*
%TO.C,Q14*%
X61450000Y8000000D03*
X61450000Y8500000D03*
X61450000Y9000000D03*
X62950000Y9000000D03*
X62950000Y8500000D03*
X62950000Y8000000D03*
%TD*%
%TO.C,Q14*%
X61450000Y20500000D03*
X61450000Y21000000D03*
X61450000Y21500000D03*
X62950000Y21500000D03*
X62950000Y21000000D03*
X62950000Y20500000D03*
%TD*%
%TO.C,Q14*%
X61450000Y33000000D03*
X61450000Y33500000D03*
X61450000Y34000000D03*
X62950000Y34000000D03*
X62950000Y33500000D03*
X62950000Y33000000D03*
%TD*%
%TO.C,Q14*%
X61450000Y45500000D03*
X61450000Y46000000D03*
X61450000Y46500000D03*
X62950000Y46500000D03*
X62950000Y46000000D03*
X62950000Y45500000D03*
%TD*%
%TO.C,Q14*%
X61450000Y58000000D03*
X61450000Y58500000D03*
X61450000Y59000000D03*
X62950000Y59000000D03*
X62950000Y58500000D03*
X62950000Y58000000D03*
%TD*%
%TO.C,Q14*%
X61450000Y70500000D03*
X61450000Y71000000D03*
X61450000Y71500000D03*
X62950000Y71500000D03*
X62950000Y71000000D03*
X62950000Y70500000D03*
%TD*%
%TO.C,Q14*%
X61450000Y83000000D03*
X61450000Y83500000D03*
X61450000Y84000000D03*
X62950000Y84000000D03*
X62950000Y83500000D03*
X62950000Y83000000D03*
%TD*%
%TO.C,Q13*%
X60350000Y1500000D03*
X60350000Y2000000D03*
X60350000Y2500000D03*
X58850000Y2500000D03*
X58850000Y2000000D03*
X58850000Y1500000D03*
%TD*%
%TO.C,Q13*%
X60350000Y14000000D03*
X60350000Y14500000D03*
X60350000Y15000000D03*
X58850000Y15000000D03*
X58850000Y14500000D03*
X58850000Y14000000D03*
%TD*%
%TO.C,Q13*%
X60350000Y26500000D03*
X60350000Y27000000D03*
X60350000Y27500000D03*
X58850000Y27500000D03*
X58850000Y27000000D03*
X58850000Y26500000D03*
%TD*%
%TO.C,Q13*%
X60350000Y39000000D03*
X60350000Y39500000D03*
X60350000Y40000000D03*
X58850000Y40000000D03*
X58850000Y39500000D03*
X58850000Y39000000D03*
%TD*%
%TO.C,Q13*%
X60350000Y51500000D03*
X60350000Y52000000D03*
X60350000Y52500000D03*
X58850000Y52500000D03*
X58850000Y52000000D03*
X58850000Y51500000D03*
%TD*%
%TO.C,Q13*%
X60350000Y64000000D03*
X60350000Y64500000D03*
X60350000Y65000000D03*
X58850000Y65000000D03*
X58850000Y64500000D03*
X58850000Y64000000D03*
%TD*%
%TO.C,Q13*%
X60350000Y76500000D03*
X60350000Y77000000D03*
X60350000Y77500000D03*
X58850000Y77500000D03*
X58850000Y77000000D03*
X58850000Y76500000D03*
%TD*%
D12*
%TO.C,R2*%
X53600000Y3275000D03*
X53600000Y4325000D03*
%TD*%
%TO.C,R2*%
X53600000Y15775000D03*
X53600000Y16825000D03*
%TD*%
%TO.C,R2*%
X53600000Y28275000D03*
X53600000Y29325000D03*
%TD*%
%TO.C,R2*%
X53600000Y40775000D03*
X53600000Y41825000D03*
%TD*%
%TO.C,R2*%
X53600000Y53275000D03*
X53600000Y54325000D03*
%TD*%
%TO.C,R2*%
X53600000Y65775000D03*
X53600000Y66825000D03*
%TD*%
%TO.C,R2*%
X53600000Y78275000D03*
X53600000Y79325000D03*
%TD*%
%TO.C,R11*%
X45800000Y7425000D03*
X45800000Y6375000D03*
%TD*%
%TO.C,R11*%
X45800000Y19925000D03*
X45800000Y18875000D03*
%TD*%
%TO.C,R11*%
X45800000Y32425000D03*
X45800000Y31375000D03*
%TD*%
%TO.C,R11*%
X45800000Y44925000D03*
X45800000Y43875000D03*
%TD*%
%TO.C,R11*%
X45800000Y57425000D03*
X45800000Y56375000D03*
%TD*%
%TO.C,R11*%
X45800000Y69925000D03*
X45800000Y68875000D03*
%TD*%
%TO.C,R11*%
X45800000Y82425000D03*
X45800000Y81375000D03*
%TD*%
D11*
%TO.C,R8*%
X43925000Y7100000D03*
X42875000Y7100000D03*
%TD*%
%TO.C,R8*%
X43925000Y19600000D03*
X42875000Y19600000D03*
%TD*%
%TO.C,R8*%
X43925000Y32100000D03*
X42875000Y32100000D03*
%TD*%
%TO.C,R8*%
X43925000Y44600000D03*
X42875000Y44600000D03*
%TD*%
%TO.C,R8*%
X43925000Y57100000D03*
X42875000Y57100000D03*
%TD*%
%TO.C,R8*%
X43925000Y69600000D03*
X42875000Y69600000D03*
%TD*%
%TO.C,R8*%
X43925000Y82100000D03*
X42875000Y82100000D03*
%TD*%
%TO.C,R35*%
X20475000Y4800000D03*
X21525000Y4800000D03*
%TD*%
%TO.C,R35*%
X20475000Y17300000D03*
X21525000Y17300000D03*
%TD*%
%TO.C,R35*%
X20475000Y29800000D03*
X21525000Y29800000D03*
%TD*%
%TO.C,R35*%
X20475000Y42300000D03*
X21525000Y42300000D03*
%TD*%
%TO.C,R35*%
X20475000Y54800000D03*
X21525000Y54800000D03*
%TD*%
%TO.C,R35*%
X20475000Y67300000D03*
X21525000Y67300000D03*
%TD*%
%TO.C,R35*%
X20475000Y79800000D03*
X21525000Y79800000D03*
%TD*%
D37*
%TO.C,D1*%
X18400000Y6600000D03*
D38*
X16600000Y6600000D03*
X16600000Y4600000D03*
X18600000Y4600000D03*
%TD*%
D37*
%TO.C,D1*%
X18400000Y19100000D03*
D38*
X16600000Y19100000D03*
X16600000Y17100000D03*
X18600000Y17100000D03*
%TD*%
D37*
%TO.C,D1*%
X18400000Y31600000D03*
D38*
X16600000Y31600000D03*
X16600000Y29600000D03*
X18600000Y29600000D03*
%TD*%
D37*
%TO.C,D1*%
X18400000Y44100000D03*
D38*
X16600000Y44100000D03*
X16600000Y42100000D03*
X18600000Y42100000D03*
%TD*%
D37*
%TO.C,D1*%
X18400000Y56600000D03*
D38*
X16600000Y56600000D03*
X16600000Y54600000D03*
X18600000Y54600000D03*
%TD*%
D37*
%TO.C,D1*%
X18400000Y69100000D03*
D38*
X16600000Y69100000D03*
X16600000Y67100000D03*
X18600000Y67100000D03*
%TD*%
D37*
%TO.C,D1*%
X18400000Y81600000D03*
D38*
X16600000Y81600000D03*
X16600000Y79600000D03*
X18600000Y79600000D03*
%TD*%
D11*
%TO.C,R31*%
X25375000Y4100000D03*
X26425000Y4100000D03*
%TD*%
%TO.C,R31*%
X25375000Y16600000D03*
X26425000Y16600000D03*
%TD*%
%TO.C,R31*%
X25375000Y29100000D03*
X26425000Y29100000D03*
%TD*%
%TO.C,R31*%
X25375000Y41600000D03*
X26425000Y41600000D03*
%TD*%
%TO.C,R31*%
X25375000Y54100000D03*
X26425000Y54100000D03*
%TD*%
%TO.C,R31*%
X25375000Y66600000D03*
X26425000Y66600000D03*
%TD*%
%TO.C,R31*%
X25375000Y79100000D03*
X26425000Y79100000D03*
%TD*%
D39*
%TO.C,C11*%
X26700000Y5250000D03*
X26700000Y6350000D03*
%TD*%
%TO.C,C11*%
X26700000Y17750000D03*
X26700000Y18850000D03*
%TD*%
%TO.C,C11*%
X26700000Y30250000D03*
X26700000Y31350000D03*
%TD*%
%TO.C,C11*%
X26700000Y42750000D03*
X26700000Y43850000D03*
%TD*%
%TO.C,C11*%
X26700000Y55250000D03*
X26700000Y56350000D03*
%TD*%
%TO.C,C11*%
X26700000Y67750000D03*
X26700000Y68850000D03*
%TD*%
%TO.C,C11*%
X26700000Y80250000D03*
X26700000Y81350000D03*
%TD*%
D40*
%TO.C,Q5*%
X34250000Y5400000D03*
X34250000Y4100000D03*
X36150000Y4750000D03*
%TD*%
%TO.C,Q5*%
X34250000Y17900000D03*
X34250000Y16600000D03*
X36150000Y17250000D03*
%TD*%
%TO.C,Q5*%
X34250000Y30400000D03*
X34250000Y29100000D03*
X36150000Y29750000D03*
%TD*%
%TO.C,Q5*%
X34250000Y42900000D03*
X34250000Y41600000D03*
X36150000Y42250000D03*
%TD*%
%TO.C,Q5*%
X34250000Y55400000D03*
X34250000Y54100000D03*
X36150000Y54750000D03*
%TD*%
%TO.C,Q5*%
X34250000Y67900000D03*
X34250000Y66600000D03*
X36150000Y67250000D03*
%TD*%
%TO.C,Q5*%
X34250000Y80400000D03*
X34250000Y79100000D03*
X36150000Y79750000D03*
%TD*%
D41*
%TO.C,Q22*%
X30400000Y4050000D03*
X29900000Y4050000D03*
X29400000Y4050000D03*
X29400000Y5550000D03*
X29900000Y5550000D03*
X30400000Y5550000D03*
%TD*%
%TO.C,Q22*%
X30400000Y16550000D03*
X29900000Y16550000D03*
X29400000Y16550000D03*
X29400000Y18050000D03*
X29900000Y18050000D03*
X30400000Y18050000D03*
%TD*%
%TO.C,Q22*%
X30400000Y29050000D03*
X29900000Y29050000D03*
X29400000Y29050000D03*
X29400000Y30550000D03*
X29900000Y30550000D03*
X30400000Y30550000D03*
%TD*%
%TO.C,Q22*%
X30400000Y41550000D03*
X29900000Y41550000D03*
X29400000Y41550000D03*
X29400000Y43050000D03*
X29900000Y43050000D03*
X30400000Y43050000D03*
%TD*%
%TO.C,Q22*%
X30400000Y54050000D03*
X29900000Y54050000D03*
X29400000Y54050000D03*
X29400000Y55550000D03*
X29900000Y55550000D03*
X30400000Y55550000D03*
%TD*%
%TO.C,Q22*%
X30400000Y66550000D03*
X29900000Y66550000D03*
X29400000Y66550000D03*
X29400000Y68050000D03*
X29900000Y68050000D03*
X30400000Y68050000D03*
%TD*%
%TO.C,Q22*%
X30400000Y79050000D03*
X29900000Y79050000D03*
X29400000Y79050000D03*
X29400000Y80550000D03*
X29900000Y80550000D03*
X30400000Y80550000D03*
%TD*%
D39*
%TO.C,C7*%
X41000000Y6450000D03*
X41000000Y5350000D03*
%TD*%
%TO.C,C7*%
X41000000Y18950000D03*
X41000000Y17850000D03*
%TD*%
%TO.C,C7*%
X41000000Y31450000D03*
X41000000Y30350000D03*
%TD*%
%TO.C,C7*%
X41000000Y43950000D03*
X41000000Y42850000D03*
%TD*%
%TO.C,C7*%
X41000000Y56450000D03*
X41000000Y55350000D03*
%TD*%
%TO.C,C7*%
X41000000Y68950000D03*
X41000000Y67850000D03*
%TD*%
%TO.C,C7*%
X41000000Y81450000D03*
X41000000Y80350000D03*
%TD*%
%TO.C,C12*%
X21600000Y5650000D03*
X21600000Y6750000D03*
%TD*%
%TO.C,C12*%
X21600000Y18150000D03*
X21600000Y19250000D03*
%TD*%
%TO.C,C12*%
X21600000Y30650000D03*
X21600000Y31750000D03*
%TD*%
%TO.C,C12*%
X21600000Y43150000D03*
X21600000Y44250000D03*
%TD*%
%TO.C,C12*%
X21600000Y55650000D03*
X21600000Y56750000D03*
%TD*%
%TO.C,C12*%
X21600000Y68150000D03*
X21600000Y69250000D03*
%TD*%
%TO.C,C12*%
X21600000Y80650000D03*
X21600000Y81750000D03*
%TD*%
D41*
%TO.C,Q21*%
X22500000Y5150000D03*
X23000000Y5150000D03*
X23500000Y5150000D03*
X23500000Y3650000D03*
X23000000Y3650000D03*
X22500000Y3650000D03*
%TD*%
%TO.C,Q21*%
X22500000Y17650000D03*
X23000000Y17650000D03*
X23500000Y17650000D03*
X23500000Y16150000D03*
X23000000Y16150000D03*
X22500000Y16150000D03*
%TD*%
%TO.C,Q21*%
X22500000Y30150000D03*
X23000000Y30150000D03*
X23500000Y30150000D03*
X23500000Y28650000D03*
X23000000Y28650000D03*
X22500000Y28650000D03*
%TD*%
%TO.C,Q21*%
X22500000Y42650000D03*
X23000000Y42650000D03*
X23500000Y42650000D03*
X23500000Y41150000D03*
X23000000Y41150000D03*
X22500000Y41150000D03*
%TD*%
%TO.C,Q21*%
X22500000Y55150000D03*
X23000000Y55150000D03*
X23500000Y55150000D03*
X23500000Y53650000D03*
X23000000Y53650000D03*
X22500000Y53650000D03*
%TD*%
%TO.C,Q21*%
X22500000Y67650000D03*
X23000000Y67650000D03*
X23500000Y67650000D03*
X23500000Y66150000D03*
X23000000Y66150000D03*
X22500000Y66150000D03*
%TD*%
%TO.C,Q21*%
X22500000Y80150000D03*
X23000000Y80150000D03*
X23500000Y80150000D03*
X23500000Y78650000D03*
X23000000Y78650000D03*
X22500000Y78650000D03*
%TD*%
D18*
%TO.C,P3*%
X8000000Y2000000D03*
X10000000Y2000000D03*
%TD*%
%TO.C,P3*%
X8000000Y14500000D03*
X10000000Y14500000D03*
%TD*%
%TO.C,P3*%
X8000000Y27000000D03*
X10000000Y27000000D03*
%TD*%
%TO.C,P3*%
X8000000Y39500000D03*
X10000000Y39500000D03*
%TD*%
%TO.C,P3*%
X8000000Y52000000D03*
X10000000Y52000000D03*
%TD*%
%TO.C,P3*%
X8000000Y64500000D03*
X10000000Y64500000D03*
%TD*%
%TO.C,P3*%
X8000000Y77000000D03*
X10000000Y77000000D03*
%TD*%
D24*
%TO.C,Q3*%
X38550000Y6400000D03*
X38550000Y5900000D03*
X38550000Y5400000D03*
X40050000Y5400000D03*
X40050000Y5900000D03*
X40050000Y6400000D03*
%TD*%
%TO.C,Q3*%
X38550000Y18900000D03*
X38550000Y18400000D03*
X38550000Y17900000D03*
X40050000Y17900000D03*
X40050000Y18400000D03*
X40050000Y18900000D03*
%TD*%
%TO.C,Q3*%
X38550000Y31400000D03*
X38550000Y30900000D03*
X38550000Y30400000D03*
X40050000Y30400000D03*
X40050000Y30900000D03*
X40050000Y31400000D03*
%TD*%
%TO.C,Q3*%
X38550000Y43900000D03*
X38550000Y43400000D03*
X38550000Y42900000D03*
X40050000Y42900000D03*
X40050000Y43400000D03*
X40050000Y43900000D03*
%TD*%
%TO.C,Q3*%
X38550000Y56400000D03*
X38550000Y55900000D03*
X38550000Y55400000D03*
X40050000Y55400000D03*
X40050000Y55900000D03*
X40050000Y56400000D03*
%TD*%
%TO.C,Q3*%
X38550000Y68900000D03*
X38550000Y68400000D03*
X38550000Y67900000D03*
X40050000Y67900000D03*
X40050000Y68400000D03*
X40050000Y68900000D03*
%TD*%
%TO.C,Q3*%
X38550000Y81400000D03*
X38550000Y80900000D03*
X38550000Y80400000D03*
X40050000Y80400000D03*
X40050000Y80900000D03*
X40050000Y81400000D03*
%TD*%
D12*
%TO.C,R16*%
X44800000Y6375000D03*
X44800000Y7425000D03*
%TD*%
%TO.C,R16*%
X44800000Y18875000D03*
X44800000Y19925000D03*
%TD*%
%TO.C,R16*%
X44800000Y31375000D03*
X44800000Y32425000D03*
%TD*%
%TO.C,R16*%
X44800000Y43875000D03*
X44800000Y44925000D03*
%TD*%
%TO.C,R16*%
X44800000Y56375000D03*
X44800000Y57425000D03*
%TD*%
%TO.C,R16*%
X44800000Y68875000D03*
X44800000Y69925000D03*
%TD*%
%TO.C,R16*%
X44800000Y81375000D03*
X44800000Y82425000D03*
%TD*%
D39*
%TO.C,C1*%
X19700000Y5650000D03*
X19700000Y6750000D03*
%TD*%
%TO.C,C1*%
X19700000Y18150000D03*
X19700000Y19250000D03*
%TD*%
%TO.C,C1*%
X19700000Y30650000D03*
X19700000Y31750000D03*
%TD*%
%TO.C,C1*%
X19700000Y43150000D03*
X19700000Y44250000D03*
%TD*%
%TO.C,C1*%
X19700000Y55650000D03*
X19700000Y56750000D03*
%TD*%
%TO.C,C1*%
X19700000Y68150000D03*
X19700000Y69250000D03*
%TD*%
%TO.C,C1*%
X19700000Y80650000D03*
X19700000Y81750000D03*
%TD*%
%TO.C,C5*%
X51800000Y4950000D03*
X51800000Y6050000D03*
%TD*%
%TO.C,C5*%
X51800000Y17450000D03*
X51800000Y18550000D03*
%TD*%
%TO.C,C5*%
X51800000Y29950000D03*
X51800000Y31050000D03*
%TD*%
%TO.C,C5*%
X51800000Y42450000D03*
X51800000Y43550000D03*
%TD*%
%TO.C,C5*%
X51800000Y54950000D03*
X51800000Y56050000D03*
%TD*%
%TO.C,C5*%
X51800000Y67450000D03*
X51800000Y68550000D03*
%TD*%
%TO.C,C5*%
X51800000Y79950000D03*
X51800000Y81050000D03*
%TD*%
%TO.C,C1*%
X19700000Y94250000D03*
X19700000Y93150000D03*
%TD*%
%TO.C,C12*%
X21600000Y94250000D03*
X21600000Y93150000D03*
%TD*%
%TO.C,C11*%
X26700000Y93850000D03*
X26700000Y92750000D03*
%TD*%
%TO.C,C5*%
X51800000Y93550000D03*
X51800000Y92450000D03*
%TD*%
%TO.C,C7*%
X41000000Y92850000D03*
X41000000Y93950000D03*
%TD*%
D18*
%TO.C,P3*%
X10000000Y89500000D03*
X8000000Y89500000D03*
%TD*%
D11*
%TO.C,R31*%
X26425000Y91600000D03*
X25375000Y91600000D03*
%TD*%
D41*
%TO.C,Q21*%
X22500000Y91150000D03*
X23000000Y91150000D03*
X23500000Y91150000D03*
X23500000Y92650000D03*
X23000000Y92650000D03*
X22500000Y92650000D03*
%TD*%
%TO.C,Q22*%
X30400000Y93050000D03*
X29900000Y93050000D03*
X29400000Y93050000D03*
X29400000Y91550000D03*
X29900000Y91550000D03*
X30400000Y91550000D03*
%TD*%
D12*
%TO.C,R16*%
X44800000Y94925000D03*
X44800000Y93875000D03*
%TD*%
D38*
%TO.C,D1*%
X18600000Y92100000D03*
X16600000Y92100000D03*
X16600000Y94100000D03*
D37*
X18400000Y94100000D03*
%TD*%
D24*
%TO.C,Q3*%
X40050000Y93900000D03*
X40050000Y93400000D03*
X40050000Y92900000D03*
X38550000Y92900000D03*
X38550000Y93400000D03*
X38550000Y93900000D03*
%TD*%
D40*
%TO.C,Q5*%
X36150000Y92250000D03*
X34250000Y91600000D03*
X34250000Y92900000D03*
%TD*%
D28*
%TO.C,R21*%
X14225000Y96100000D03*
X12575000Y96100000D03*
%TD*%
D30*
%TO.C,C3*%
X48600000Y91725000D03*
X48600000Y93275000D03*
%TD*%
D31*
%TO.C,D3*%
X31700000Y94350000D03*
X31700000Y92250000D03*
%TD*%
D23*
%TO.C,D22*%
X21500000Y91200000D03*
X19700000Y91200000D03*
%TD*%
D35*
%TO.C,J11*%
X66200000Y92900000D03*
%TD*%
D27*
%TO.C,P5*%
X40750000Y96500000D03*
X44250000Y96500000D03*
%TD*%
%TO.C,P6*%
X44250000Y89000000D03*
X40750000Y89000000D03*
%TD*%
D34*
%TO.C,P9*%
X56465000Y96250000D03*
X57735000Y96250000D03*
%TD*%
D26*
%TO.C,Q1*%
X35550000Y94800000D03*
X36500000Y94800000D03*
X37450000Y94800000D03*
X37450000Y97200000D03*
X36500000Y97200000D03*
X35550000Y97200000D03*
%TD*%
%TO.C,Q2*%
X38700000Y88300000D03*
X37750000Y88300000D03*
X36800000Y88300000D03*
X36800000Y90700000D03*
X37750000Y90700000D03*
X38700000Y90700000D03*
%TD*%
D25*
%TO.C,Q11*%
X15550000Y94650000D03*
X14250000Y94650000D03*
X14900000Y92750000D03*
%TD*%
D33*
%TO.C,U2*%
G36*
X56159044Y93649039D02*
G01*
X56168423Y93646194D01*
X56177068Y93641573D01*
X56184644Y93635355D01*
X56235355Y93584644D01*
X56241573Y93577068D01*
X56246194Y93568423D01*
X56249039Y93559044D01*
X56250000Y93549289D01*
X56250000Y93500000D01*
X56249039Y93490245D01*
X56246194Y93480866D01*
X56241573Y93472221D01*
X56235355Y93464645D01*
X56227779Y93458427D01*
X56219134Y93453806D01*
X56209755Y93450961D01*
X56200000Y93450000D01*
X55500000Y93450000D01*
X55490245Y93450961D01*
X55480866Y93453806D01*
X55472221Y93458427D01*
X55464645Y93464645D01*
X55458427Y93472221D01*
X55453806Y93480866D01*
X55450961Y93490245D01*
X55450000Y93500000D01*
X55450000Y93600000D01*
X55450961Y93609755D01*
X55453806Y93619134D01*
X55458427Y93627779D01*
X55464645Y93635355D01*
X55472221Y93641573D01*
X55480866Y93646194D01*
X55490245Y93649039D01*
X55500000Y93650000D01*
X56149289Y93650000D01*
X56159044Y93649039D01*
G37*
G36*
G01*
X55450000Y93100000D02*
X55450000Y93200000D01*
G75*
G02*
X55500000Y93250000I50000J0D01*
G01*
X56200000Y93250000D01*
G75*
G02*
X56250000Y93200000I0J-50000D01*
G01*
X56250000Y93100000D01*
G75*
G02*
X56200000Y93050000I-50000J0D01*
G01*
X55500000Y93050000D01*
G75*
G02*
X55450000Y93100000I0J50000D01*
G01*
G37*
G36*
G01*
X55450000Y92700000D02*
X55450000Y92800000D01*
G75*
G02*
X55500000Y92850000I50000J0D01*
G01*
X56200000Y92850000D01*
G75*
G02*
X56250000Y92800000I0J-50000D01*
G01*
X56250000Y92700000D01*
G75*
G02*
X56200000Y92650000I-50000J0D01*
G01*
X55500000Y92650000D01*
G75*
G02*
X55450000Y92700000I0J50000D01*
G01*
G37*
G36*
G01*
X55450000Y92300000D02*
X55450000Y92400000D01*
G75*
G02*
X55500000Y92450000I50000J0D01*
G01*
X56200000Y92450000D01*
G75*
G02*
X56250000Y92400000I0J-50000D01*
G01*
X56250000Y92300000D01*
G75*
G02*
X56200000Y92250000I-50000J0D01*
G01*
X55500000Y92250000D01*
G75*
G02*
X55450000Y92300000I0J50000D01*
G01*
G37*
G36*
X56209755Y92049039D02*
G01*
X56219134Y92046194D01*
X56227779Y92041573D01*
X56235355Y92035355D01*
X56241573Y92027779D01*
X56246194Y92019134D01*
X56249039Y92009755D01*
X56250000Y92000000D01*
X56250000Y91950711D01*
X56249039Y91940956D01*
X56246194Y91931577D01*
X56241573Y91922932D01*
X56235355Y91915356D01*
X56184644Y91864645D01*
X56177068Y91858427D01*
X56168423Y91853806D01*
X56159044Y91850961D01*
X56149289Y91850000D01*
X55500000Y91850000D01*
X55490245Y91850961D01*
X55480866Y91853806D01*
X55472221Y91858427D01*
X55464645Y91864645D01*
X55458427Y91872221D01*
X55453806Y91880866D01*
X55450961Y91890245D01*
X55450000Y91900000D01*
X55450000Y92000000D01*
X55450961Y92009755D01*
X55453806Y92019134D01*
X55458427Y92027779D01*
X55464645Y92035355D01*
X55472221Y92041573D01*
X55480866Y92046194D01*
X55490245Y92049039D01*
X55500000Y92050000D01*
X56200000Y92050000D01*
X56209755Y92049039D01*
G37*
G36*
X56559755Y91699039D02*
G01*
X56569134Y91696194D01*
X56577779Y91691573D01*
X56585355Y91685355D01*
X56591573Y91677779D01*
X56596194Y91669134D01*
X56599039Y91659755D01*
X56600000Y91650000D01*
X56600000Y90950000D01*
X56599039Y90940245D01*
X56596194Y90930866D01*
X56591573Y90922221D01*
X56585355Y90914645D01*
X56577779Y90908427D01*
X56569134Y90903806D01*
X56559755Y90900961D01*
X56550000Y90900000D01*
X56450000Y90900000D01*
X56440245Y90900961D01*
X56430866Y90903806D01*
X56422221Y90908427D01*
X56414645Y90914645D01*
X56408427Y90922221D01*
X56403806Y90930866D01*
X56400961Y90940245D01*
X56400000Y90950000D01*
X56400000Y91599289D01*
X56400961Y91609044D01*
X56403806Y91618423D01*
X56408427Y91627068D01*
X56414645Y91634644D01*
X56465356Y91685355D01*
X56472932Y91691573D01*
X56481577Y91696194D01*
X56490956Y91699039D01*
X56500711Y91700000D01*
X56550000Y91700000D01*
X56559755Y91699039D01*
G37*
G36*
G01*
X56800000Y90950000D02*
X56800000Y91650000D01*
G75*
G02*
X56850000Y91700000I50000J0D01*
G01*
X56950000Y91700000D01*
G75*
G02*
X57000000Y91650000I0J-50000D01*
G01*
X57000000Y90950000D01*
G75*
G02*
X56950000Y90900000I-50000J0D01*
G01*
X56850000Y90900000D01*
G75*
G02*
X56800000Y90950000I0J50000D01*
G01*
G37*
G36*
G01*
X57200000Y90950000D02*
X57200000Y91650000D01*
G75*
G02*
X57250000Y91700000I50000J0D01*
G01*
X57350000Y91700000D01*
G75*
G02*
X57400000Y91650000I0J-50000D01*
G01*
X57400000Y90950000D01*
G75*
G02*
X57350000Y90900000I-50000J0D01*
G01*
X57250000Y90900000D01*
G75*
G02*
X57200000Y90950000I0J50000D01*
G01*
G37*
G36*
G01*
X57600000Y90950000D02*
X57600000Y91650000D01*
G75*
G02*
X57650000Y91700000I50000J0D01*
G01*
X57750000Y91700000D01*
G75*
G02*
X57800000Y91650000I0J-50000D01*
G01*
X57800000Y90950000D01*
G75*
G02*
X57750000Y90900000I-50000J0D01*
G01*
X57650000Y90900000D01*
G75*
G02*
X57600000Y90950000I0J50000D01*
G01*
G37*
G36*
X58109044Y91699039D02*
G01*
X58118423Y91696194D01*
X58127068Y91691573D01*
X58134644Y91685355D01*
X58185355Y91634644D01*
X58191573Y91627068D01*
X58196194Y91618423D01*
X58199039Y91609044D01*
X58200000Y91599289D01*
X58200000Y90950000D01*
X58199039Y90940245D01*
X58196194Y90930866D01*
X58191573Y90922221D01*
X58185355Y90914645D01*
X58177779Y90908427D01*
X58169134Y90903806D01*
X58159755Y90900961D01*
X58150000Y90900000D01*
X58050000Y90900000D01*
X58040245Y90900961D01*
X58030866Y90903806D01*
X58022221Y90908427D01*
X58014645Y90914645D01*
X58008427Y90922221D01*
X58003806Y90930866D01*
X58000961Y90940245D01*
X58000000Y90950000D01*
X58000000Y91650000D01*
X58000961Y91659755D01*
X58003806Y91669134D01*
X58008427Y91677779D01*
X58014645Y91685355D01*
X58022221Y91691573D01*
X58030866Y91696194D01*
X58040245Y91699039D01*
X58050000Y91700000D01*
X58099289Y91700000D01*
X58109044Y91699039D01*
G37*
G36*
X59109755Y92049039D02*
G01*
X59119134Y92046194D01*
X59127779Y92041573D01*
X59135355Y92035355D01*
X59141573Y92027779D01*
X59146194Y92019134D01*
X59149039Y92009755D01*
X59150000Y92000000D01*
X59150000Y91900000D01*
X59149039Y91890245D01*
X59146194Y91880866D01*
X59141573Y91872221D01*
X59135355Y91864645D01*
X59127779Y91858427D01*
X59119134Y91853806D01*
X59109755Y91850961D01*
X59100000Y91850000D01*
X58450711Y91850000D01*
X58440956Y91850961D01*
X58431577Y91853806D01*
X58422932Y91858427D01*
X58415356Y91864645D01*
X58364645Y91915356D01*
X58358427Y91922932D01*
X58353806Y91931577D01*
X58350961Y91940956D01*
X58350000Y91950711D01*
X58350000Y92000000D01*
X58350961Y92009755D01*
X58353806Y92019134D01*
X58358427Y92027779D01*
X58364645Y92035355D01*
X58372221Y92041573D01*
X58380866Y92046194D01*
X58390245Y92049039D01*
X58400000Y92050000D01*
X59100000Y92050000D01*
X59109755Y92049039D01*
G37*
G36*
G01*
X58350000Y92300000D02*
X58350000Y92400000D01*
G75*
G02*
X58400000Y92450000I50000J0D01*
G01*
X59100000Y92450000D01*
G75*
G02*
X59150000Y92400000I0J-50000D01*
G01*
X59150000Y92300000D01*
G75*
G02*
X59100000Y92250000I-50000J0D01*
G01*
X58400000Y92250000D01*
G75*
G02*
X58350000Y92300000I0J50000D01*
G01*
G37*
G36*
G01*
X58350000Y92700000D02*
X58350000Y92800000D01*
G75*
G02*
X58400000Y92850000I50000J0D01*
G01*
X59100000Y92850000D01*
G75*
G02*
X59150000Y92800000I0J-50000D01*
G01*
X59150000Y92700000D01*
G75*
G02*
X59100000Y92650000I-50000J0D01*
G01*
X58400000Y92650000D01*
G75*
G02*
X58350000Y92700000I0J50000D01*
G01*
G37*
G36*
G01*
X58350000Y93100000D02*
X58350000Y93200000D01*
G75*
G02*
X58400000Y93250000I50000J0D01*
G01*
X59100000Y93250000D01*
G75*
G02*
X59150000Y93200000I0J-50000D01*
G01*
X59150000Y93100000D01*
G75*
G02*
X59100000Y93050000I-50000J0D01*
G01*
X58400000Y93050000D01*
G75*
G02*
X58350000Y93100000I0J50000D01*
G01*
G37*
G36*
X59109755Y93649039D02*
G01*
X59119134Y93646194D01*
X59127779Y93641573D01*
X59135355Y93635355D01*
X59141573Y93627779D01*
X59146194Y93619134D01*
X59149039Y93609755D01*
X59150000Y93600000D01*
X59150000Y93500000D01*
X59149039Y93490245D01*
X59146194Y93480866D01*
X59141573Y93472221D01*
X59135355Y93464645D01*
X59127779Y93458427D01*
X59119134Y93453806D01*
X59109755Y93450961D01*
X59100000Y93450000D01*
X58400000Y93450000D01*
X58390245Y93450961D01*
X58380866Y93453806D01*
X58372221Y93458427D01*
X58364645Y93464645D01*
X58358427Y93472221D01*
X58353806Y93480866D01*
X58350961Y93490245D01*
X58350000Y93500000D01*
X58350000Y93549289D01*
X58350961Y93559044D01*
X58353806Y93568423D01*
X58358427Y93577068D01*
X58364645Y93584644D01*
X58415356Y93635355D01*
X58422932Y93641573D01*
X58431577Y93646194D01*
X58440956Y93649039D01*
X58450711Y93650000D01*
X59100000Y93650000D01*
X59109755Y93649039D01*
G37*
G36*
X58159755Y94599039D02*
G01*
X58169134Y94596194D01*
X58177779Y94591573D01*
X58185355Y94585355D01*
X58191573Y94577779D01*
X58196194Y94569134D01*
X58199039Y94559755D01*
X58200000Y94550000D01*
X58200000Y93900711D01*
X58199039Y93890956D01*
X58196194Y93881577D01*
X58191573Y93872932D01*
X58185355Y93865356D01*
X58134644Y93814645D01*
X58127068Y93808427D01*
X58118423Y93803806D01*
X58109044Y93800961D01*
X58099289Y93800000D01*
X58050000Y93800000D01*
X58040245Y93800961D01*
X58030866Y93803806D01*
X58022221Y93808427D01*
X58014645Y93814645D01*
X58008427Y93822221D01*
X58003806Y93830866D01*
X58000961Y93840245D01*
X58000000Y93850000D01*
X58000000Y94550000D01*
X58000961Y94559755D01*
X58003806Y94569134D01*
X58008427Y94577779D01*
X58014645Y94585355D01*
X58022221Y94591573D01*
X58030866Y94596194D01*
X58040245Y94599039D01*
X58050000Y94600000D01*
X58150000Y94600000D01*
X58159755Y94599039D01*
G37*
G36*
G01*
X57600000Y93850000D02*
X57600000Y94550000D01*
G75*
G02*
X57650000Y94600000I50000J0D01*
G01*
X57750000Y94600000D01*
G75*
G02*
X57800000Y94550000I0J-50000D01*
G01*
X57800000Y93850000D01*
G75*
G02*
X57750000Y93800000I-50000J0D01*
G01*
X57650000Y93800000D01*
G75*
G02*
X57600000Y93850000I0J50000D01*
G01*
G37*
G36*
G01*
X57200000Y93850000D02*
X57200000Y94550000D01*
G75*
G02*
X57250000Y94600000I50000J0D01*
G01*
X57350000Y94600000D01*
G75*
G02*
X57400000Y94550000I0J-50000D01*
G01*
X57400000Y93850000D01*
G75*
G02*
X57350000Y93800000I-50000J0D01*
G01*
X57250000Y93800000D01*
G75*
G02*
X57200000Y93850000I0J50000D01*
G01*
G37*
G36*
G01*
X56800000Y93850000D02*
X56800000Y94550000D01*
G75*
G02*
X56850000Y94600000I50000J0D01*
G01*
X56950000Y94600000D01*
G75*
G02*
X57000000Y94550000I0J-50000D01*
G01*
X57000000Y93850000D01*
G75*
G02*
X56950000Y93800000I-50000J0D01*
G01*
X56850000Y93800000D01*
G75*
G02*
X56800000Y93850000I0J50000D01*
G01*
G37*
G36*
X56559755Y94599039D02*
G01*
X56569134Y94596194D01*
X56577779Y94591573D01*
X56585355Y94585355D01*
X56591573Y94577779D01*
X56596194Y94569134D01*
X56599039Y94559755D01*
X56600000Y94550000D01*
X56600000Y93850000D01*
X56599039Y93840245D01*
X56596194Y93830866D01*
X56591573Y93822221D01*
X56585355Y93814645D01*
X56577779Y93808427D01*
X56569134Y93803806D01*
X56559755Y93800961D01*
X56550000Y93800000D01*
X56500711Y93800000D01*
X56490956Y93800961D01*
X56481577Y93803806D01*
X56472932Y93808427D01*
X56465356Y93814645D01*
X56414645Y93865356D01*
X56408427Y93872932D01*
X56403806Y93881577D01*
X56400961Y93890956D01*
X56400000Y93900711D01*
X56400000Y94550000D01*
X56400961Y94559755D01*
X56403806Y94569134D01*
X56408427Y94577779D01*
X56414645Y94585355D01*
X56422221Y94591573D01*
X56430866Y94596194D01*
X56440245Y94599039D01*
X56450000Y94600000D01*
X56550000Y94600000D01*
X56559755Y94599039D01*
G37*
D32*
X57300000Y92750000D03*
%TD*%
D24*
%TO.C,Q6*%
X44550000Y91700000D03*
X44550000Y91200000D03*
X44550000Y90700000D03*
X43050000Y90700000D03*
X43050000Y91200000D03*
X43050000Y91700000D03*
%TD*%
%TO.C,Q8*%
X13450000Y90100000D03*
X13450000Y89600000D03*
X13450000Y89100000D03*
X14950000Y89100000D03*
X14950000Y89600000D03*
X14950000Y90100000D03*
%TD*%
D29*
%TO.C,R14*%
X45700000Y90625000D03*
X45700000Y92275000D03*
%TD*%
D28*
%TO.C,R22*%
X62125000Y93500000D03*
X60475000Y93500000D03*
%TD*%
D12*
%TO.C,R32*%
X24500000Y92575000D03*
X24500000Y93625000D03*
%TD*%
D11*
%TO.C,R33*%
X23525000Y93900000D03*
X22475000Y93900000D03*
%TD*%
D12*
%TO.C,R34*%
X28400000Y94025000D03*
X28400000Y92975000D03*
%TD*%
D11*
%TO.C,R35*%
X21525000Y92300000D03*
X20475000Y92300000D03*
%TD*%
D12*
%TO.C,R36*%
X20650000Y93175000D03*
X20650000Y94225000D03*
%TD*%
D11*
%TO.C,R37*%
X28525000Y92100000D03*
X27475000Y92100000D03*
%TD*%
%TO.C,R38*%
X27475000Y91100000D03*
X28525000Y91100000D03*
%TD*%
D12*
%TO.C,R13*%
X59900000Y91375000D03*
X59900000Y92425000D03*
%TD*%
D11*
%TO.C,R7*%
X42875000Y93600000D03*
X43925000Y93600000D03*
%TD*%
%TO.C,R8*%
X42875000Y94600000D03*
X43925000Y94600000D03*
%TD*%
D12*
%TO.C,R11*%
X45800000Y93875000D03*
X45800000Y94925000D03*
%TD*%
D36*
%TO.C,P2*%
X54000000Y96250000D03*
%TD*%
%TO.C,P4*%
X54000000Y89250000D03*
%TD*%
D11*
%TO.C,R15*%
X14375000Y91000000D03*
X15425000Y91000000D03*
%TD*%
D12*
%TO.C,R12*%
X33100000Y92575000D03*
X33100000Y93625000D03*
%TD*%
D11*
%TO.C,R1*%
X53575000Y94600000D03*
X54625000Y94600000D03*
%TD*%
D12*
%TO.C,R2*%
X53600000Y91825000D03*
X53600000Y90775000D03*
%TD*%
D24*
%TO.C,Q13*%
X58850000Y89000000D03*
X58850000Y89500000D03*
X58850000Y90000000D03*
X60350000Y90000000D03*
X60350000Y89500000D03*
X60350000Y89000000D03*
%TD*%
%TO.C,Q14*%
X62950000Y95500000D03*
X62950000Y96000000D03*
X62950000Y96500000D03*
X61450000Y96500000D03*
X61450000Y96000000D03*
X61450000Y95500000D03*
%TD*%
D12*
%TO.C,R23*%
X63100000Y90125000D03*
X63100000Y89075000D03*
%TD*%
D11*
%TO.C,R24*%
X57825000Y89900000D03*
X56775000Y89900000D03*
%TD*%
%TO.C,R25*%
X58975000Y95100000D03*
X60025000Y95100000D03*
%TD*%
%TO.C,R26*%
X60025000Y96400000D03*
X58975000Y96400000D03*
%TD*%
D19*
%TO.C,J12*%
X66000000Y89400000D03*
%TD*%
%TO.C,J14*%
X64500000Y89400000D03*
%TD*%
%TO.C,J16*%
X66100000Y96100000D03*
%TD*%
%TO.C,J18*%
X64500000Y96100000D03*
%TD*%
D24*
%TO.C,Q12*%
X60950000Y92400000D03*
X60950000Y91900000D03*
X60950000Y91400000D03*
X62450000Y91400000D03*
X62450000Y91900000D03*
X62450000Y92400000D03*
%TD*%
D21*
%TO.C,J19*%
X61900000Y90200000D03*
%TD*%
D23*
%TO.C,C4*%
X50100000Y91725000D03*
X50100000Y93275000D03*
%TD*%
D18*
%TO.C,P1*%
X8000000Y96000000D03*
X10000000Y96000000D03*
%TD*%
D22*
%TO.C,D21*%
X25600000Y94350000D03*
X25600000Y92650000D03*
%TD*%
D13*
%TO.C,P10*%
X51300000Y91600000D03*
%TD*%
D21*
%TO.C,P8*%
X15500000Y96200000D03*
%TD*%
D11*
%TO.C,R17*%
X54225000Y93400000D03*
X53175000Y93400000D03*
%TD*%
D12*
%TO.C,R18*%
X54800000Y90675000D03*
X54800000Y91725000D03*
%TD*%
D20*
%TO.C,P11*%
X47250000Y93500000D03*
%TD*%
D11*
%TO.C,R9*%
X41925000Y94900000D03*
X40875000Y94900000D03*
%TD*%
D12*
%TO.C,R10*%
X42000000Y92975000D03*
X42000000Y94025000D03*
%TD*%
D11*
%TO.C,R3*%
X36475000Y93500000D03*
X37525000Y93500000D03*
%TD*%
%TO.C,R4*%
X38825000Y91900000D03*
X37775000Y91900000D03*
%TD*%
D12*
%TO.C,R5*%
X38700000Y95925000D03*
X38700000Y94875000D03*
%TD*%
%TO.C,R6*%
X39900000Y91925000D03*
X39900000Y90875000D03*
%TD*%
D17*
%TO.C,P7*%
X12300000Y89900000D03*
%TD*%
D16*
%TO.C,D11*%
X12875000Y91450000D03*
X12875000Y94050000D03*
D15*
X12250000Y92200000D03*
X12250000Y93300000D03*
D14*
X12250000Y91375000D03*
X12250000Y94125000D03*
%TD*%
D16*
%TO.C,D12*%
X63625000Y94050000D03*
X63625000Y91450000D03*
D15*
X64250000Y93300000D03*
X64250000Y92200000D03*
D14*
X64250000Y94125000D03*
X64250000Y91375000D03*
%TD*%
D13*
%TO.C,J13*%
X33000000Y91600000D03*
%TD*%
D42*
X46437520Y89140577D02*
X46469325Y89119325D01*
X46490577Y89087520D01*
X46500000Y89040149D01*
X46500000Y88459851D01*
X46490577Y88412480D01*
X46469325Y88380675D01*
X46437520Y88359423D01*
X46390149Y88350000D01*
X46109851Y88350000D01*
X46062480Y88359423D01*
X46030675Y88380675D01*
X46009423Y88412480D01*
X46000000Y88459851D01*
X46000000Y89040149D01*
X46009423Y89087520D01*
X46030675Y89119325D01*
X46062480Y89140577D01*
X46109851Y89150000D01*
X46390149Y89150000D01*
X46437520Y89140577D01*
D33*
G36*
X46437520Y89140577D02*
G01*
X46469325Y89119325D01*
X46490577Y89087520D01*
X46500000Y89040149D01*
X46500000Y88459851D01*
X46490577Y88412480D01*
X46469325Y88380675D01*
X46437520Y88359423D01*
X46390149Y88350000D01*
X46109851Y88350000D01*
X46062480Y88359423D01*
X46030675Y88380675D01*
X46009423Y88412480D01*
X46000000Y88459851D01*
X46000000Y89040149D01*
X46009423Y89087520D01*
X46030675Y89119325D01*
X46062480Y89140577D01*
X46109851Y89150000D01*
X46390149Y89150000D01*
X46437520Y89140577D01*
G37*
D42*
X46437520Y97140577D02*
X46469325Y97119325D01*
X46490577Y97087520D01*
X46500000Y97040149D01*
X46500000Y96459851D01*
X46490577Y96412480D01*
X46469325Y96380675D01*
X46437520Y96359423D01*
X46390149Y96350000D01*
X46109851Y96350000D01*
X46062480Y96359423D01*
X46030675Y96380675D01*
X46009423Y96412480D01*
X46000000Y96459851D01*
X46000000Y97040149D01*
X46009423Y97087520D01*
X46030675Y97119325D01*
X46062480Y97140577D01*
X46109851Y97150000D01*
X46390149Y97150000D01*
X46437520Y97140577D01*
D33*
G36*
X46437520Y97140577D02*
G01*
X46469325Y97119325D01*
X46490577Y97087520D01*
X46500000Y97040149D01*
X46500000Y96459851D01*
X46490577Y96412480D01*
X46469325Y96380675D01*
X46437520Y96359423D01*
X46390149Y96350000D01*
X46109851Y96350000D01*
X46062480Y96359423D01*
X46030675Y96380675D01*
X46009423Y96412480D01*
X46000000Y96459851D01*
X46000000Y97040149D01*
X46009423Y97087520D01*
X46030675Y97119325D01*
X46062480Y97140577D01*
X46109851Y97150000D01*
X46390149Y97150000D01*
X46437520Y97140577D01*
G37*
D42*
X46437520Y76640577D02*
X46469325Y76619325D01*
X46490577Y76587520D01*
X46500000Y76540149D01*
X46500000Y75959851D01*
X46490577Y75912480D01*
X46469325Y75880675D01*
X46437520Y75859423D01*
X46390149Y75850000D01*
X46109851Y75850000D01*
X46062480Y75859423D01*
X46030675Y75880675D01*
X46009423Y75912480D01*
X46000000Y75959851D01*
X46000000Y76540149D01*
X46009423Y76587520D01*
X46030675Y76619325D01*
X46062480Y76640577D01*
X46109851Y76650000D01*
X46390149Y76650000D01*
X46437520Y76640577D01*
D33*
G36*
X46437520Y76640577D02*
G01*
X46469325Y76619325D01*
X46490577Y76587520D01*
X46500000Y76540149D01*
X46500000Y75959851D01*
X46490577Y75912480D01*
X46469325Y75880675D01*
X46437520Y75859423D01*
X46390149Y75850000D01*
X46109851Y75850000D01*
X46062480Y75859423D01*
X46030675Y75880675D01*
X46009423Y75912480D01*
X46000000Y75959851D01*
X46000000Y76540149D01*
X46009423Y76587520D01*
X46030675Y76619325D01*
X46062480Y76640577D01*
X46109851Y76650000D01*
X46390149Y76650000D01*
X46437520Y76640577D01*
G37*
D42*
X46437520Y64140577D02*
X46469325Y64119325D01*
X46490577Y64087520D01*
X46500000Y64040149D01*
X46500000Y63459851D01*
X46490577Y63412480D01*
X46469325Y63380675D01*
X46437520Y63359423D01*
X46390149Y63350000D01*
X46109851Y63350000D01*
X46062480Y63359423D01*
X46030675Y63380675D01*
X46009423Y63412480D01*
X46000000Y63459851D01*
X46000000Y64040149D01*
X46009423Y64087520D01*
X46030675Y64119325D01*
X46062480Y64140577D01*
X46109851Y64150000D01*
X46390149Y64150000D01*
X46437520Y64140577D01*
D33*
G36*
X46437520Y64140577D02*
G01*
X46469325Y64119325D01*
X46490577Y64087520D01*
X46500000Y64040149D01*
X46500000Y63459851D01*
X46490577Y63412480D01*
X46469325Y63380675D01*
X46437520Y63359423D01*
X46390149Y63350000D01*
X46109851Y63350000D01*
X46062480Y63359423D01*
X46030675Y63380675D01*
X46009423Y63412480D01*
X46000000Y63459851D01*
X46000000Y64040149D01*
X46009423Y64087520D01*
X46030675Y64119325D01*
X46062480Y64140577D01*
X46109851Y64150000D01*
X46390149Y64150000D01*
X46437520Y64140577D01*
G37*
D42*
X46437520Y51640577D02*
X46469325Y51619325D01*
X46490577Y51587520D01*
X46500000Y51540149D01*
X46500000Y50959851D01*
X46490577Y50912480D01*
X46469325Y50880675D01*
X46437520Y50859423D01*
X46390149Y50850000D01*
X46109851Y50850000D01*
X46062480Y50859423D01*
X46030675Y50880675D01*
X46009423Y50912480D01*
X46000000Y50959851D01*
X46000000Y51540149D01*
X46009423Y51587520D01*
X46030675Y51619325D01*
X46062480Y51640577D01*
X46109851Y51650000D01*
X46390149Y51650000D01*
X46437520Y51640577D01*
D33*
G36*
X46437520Y51640577D02*
G01*
X46469325Y51619325D01*
X46490577Y51587520D01*
X46500000Y51540149D01*
X46500000Y50959851D01*
X46490577Y50912480D01*
X46469325Y50880675D01*
X46437520Y50859423D01*
X46390149Y50850000D01*
X46109851Y50850000D01*
X46062480Y50859423D01*
X46030675Y50880675D01*
X46009423Y50912480D01*
X46000000Y50959851D01*
X46000000Y51540149D01*
X46009423Y51587520D01*
X46030675Y51619325D01*
X46062480Y51640577D01*
X46109851Y51650000D01*
X46390149Y51650000D01*
X46437520Y51640577D01*
G37*
D42*
X46437520Y39140577D02*
X46469325Y39119325D01*
X46490577Y39087520D01*
X46500000Y39040149D01*
X46500000Y38459851D01*
X46490577Y38412480D01*
X46469325Y38380675D01*
X46437520Y38359423D01*
X46390149Y38350000D01*
X46109851Y38350000D01*
X46062480Y38359423D01*
X46030675Y38380675D01*
X46009423Y38412480D01*
X46000000Y38459851D01*
X46000000Y39040149D01*
X46009423Y39087520D01*
X46030675Y39119325D01*
X46062480Y39140577D01*
X46109851Y39150000D01*
X46390149Y39150000D01*
X46437520Y39140577D01*
D33*
G36*
X46437520Y39140577D02*
G01*
X46469325Y39119325D01*
X46490577Y39087520D01*
X46500000Y39040149D01*
X46500000Y38459851D01*
X46490577Y38412480D01*
X46469325Y38380675D01*
X46437520Y38359423D01*
X46390149Y38350000D01*
X46109851Y38350000D01*
X46062480Y38359423D01*
X46030675Y38380675D01*
X46009423Y38412480D01*
X46000000Y38459851D01*
X46000000Y39040149D01*
X46009423Y39087520D01*
X46030675Y39119325D01*
X46062480Y39140577D01*
X46109851Y39150000D01*
X46390149Y39150000D01*
X46437520Y39140577D01*
G37*
D42*
X46437520Y26640577D02*
X46469325Y26619325D01*
X46490577Y26587520D01*
X46500000Y26540149D01*
X46500000Y25959851D01*
X46490577Y25912480D01*
X46469325Y25880675D01*
X46437520Y25859423D01*
X46390149Y25850000D01*
X46109851Y25850000D01*
X46062480Y25859423D01*
X46030675Y25880675D01*
X46009423Y25912480D01*
X46000000Y25959851D01*
X46000000Y26540149D01*
X46009423Y26587520D01*
X46030675Y26619325D01*
X46062480Y26640577D01*
X46109851Y26650000D01*
X46390149Y26650000D01*
X46437520Y26640577D01*
D33*
G36*
X46437520Y26640577D02*
G01*
X46469325Y26619325D01*
X46490577Y26587520D01*
X46500000Y26540149D01*
X46500000Y25959851D01*
X46490577Y25912480D01*
X46469325Y25880675D01*
X46437520Y25859423D01*
X46390149Y25850000D01*
X46109851Y25850000D01*
X46062480Y25859423D01*
X46030675Y25880675D01*
X46009423Y25912480D01*
X46000000Y25959851D01*
X46000000Y26540149D01*
X46009423Y26587520D01*
X46030675Y26619325D01*
X46062480Y26640577D01*
X46109851Y26650000D01*
X46390149Y26650000D01*
X46437520Y26640577D01*
G37*
D42*
X46437520Y14140577D02*
X46469325Y14119325D01*
X46490577Y14087520D01*
X46500000Y14040149D01*
X46500000Y13459851D01*
X46490577Y13412480D01*
X46469325Y13380675D01*
X46437520Y13359423D01*
X46390149Y13350000D01*
X46109851Y13350000D01*
X46062480Y13359423D01*
X46030675Y13380675D01*
X46009423Y13412480D01*
X46000000Y13459851D01*
X46000000Y14040149D01*
X46009423Y14087520D01*
X46030675Y14119325D01*
X46062480Y14140577D01*
X46109851Y14150000D01*
X46390149Y14150000D01*
X46437520Y14140577D01*
D33*
G36*
X46437520Y14140577D02*
G01*
X46469325Y14119325D01*
X46490577Y14087520D01*
X46500000Y14040149D01*
X46500000Y13459851D01*
X46490577Y13412480D01*
X46469325Y13380675D01*
X46437520Y13359423D01*
X46390149Y13350000D01*
X46109851Y13350000D01*
X46062480Y13359423D01*
X46030675Y13380675D01*
X46009423Y13412480D01*
X46000000Y13459851D01*
X46000000Y14040149D01*
X46009423Y14087520D01*
X46030675Y14119325D01*
X46062480Y14140577D01*
X46109851Y14150000D01*
X46390149Y14150000D01*
X46437520Y14140577D01*
G37*
D42*
X46437520Y1640577D02*
X46469325Y1619325D01*
X46490577Y1587520D01*
X46500000Y1540149D01*
X46500000Y959851D01*
X46490577Y912480D01*
X46469325Y880675D01*
X46437520Y859423D01*
X46390149Y850000D01*
X46109851Y850000D01*
X46062480Y859423D01*
X46030675Y880675D01*
X46009423Y912480D01*
X46000000Y959851D01*
X46000000Y1540149D01*
X46009423Y1587520D01*
X46030675Y1619325D01*
X46062480Y1640577D01*
X46109851Y1650000D01*
X46390149Y1650000D01*
X46437520Y1640577D01*
D33*
G36*
X46437520Y1640577D02*
G01*
X46469325Y1619325D01*
X46490577Y1587520D01*
X46500000Y1540149D01*
X46500000Y959851D01*
X46490577Y912480D01*
X46469325Y880675D01*
X46437520Y859423D01*
X46390149Y850000D01*
X46109851Y850000D01*
X46062480Y859423D01*
X46030675Y880675D01*
X46009423Y912480D01*
X46000000Y959851D01*
X46000000Y1540149D01*
X46009423Y1587520D01*
X46030675Y1619325D01*
X46062480Y1640577D01*
X46109851Y1650000D01*
X46390149Y1650000D01*
X46437520Y1640577D01*
G37*
D42*
X46437520Y84640577D02*
X46469325Y84619325D01*
X46490577Y84587520D01*
X46500000Y84540149D01*
X46500000Y83959851D01*
X46490577Y83912480D01*
X46469325Y83880675D01*
X46437520Y83859423D01*
X46390149Y83850000D01*
X46109851Y83850000D01*
X46062480Y83859423D01*
X46030675Y83880675D01*
X46009423Y83912480D01*
X46000000Y83959851D01*
X46000000Y84540149D01*
X46009423Y84587520D01*
X46030675Y84619325D01*
X46062480Y84640577D01*
X46109851Y84650000D01*
X46390149Y84650000D01*
X46437520Y84640577D01*
D33*
G36*
X46437520Y84640577D02*
G01*
X46469325Y84619325D01*
X46490577Y84587520D01*
X46500000Y84540149D01*
X46500000Y83959851D01*
X46490577Y83912480D01*
X46469325Y83880675D01*
X46437520Y83859423D01*
X46390149Y83850000D01*
X46109851Y83850000D01*
X46062480Y83859423D01*
X46030675Y83880675D01*
X46009423Y83912480D01*
X46000000Y83959851D01*
X46000000Y84540149D01*
X46009423Y84587520D01*
X46030675Y84619325D01*
X46062480Y84640577D01*
X46109851Y84650000D01*
X46390149Y84650000D01*
X46437520Y84640577D01*
G37*
D42*
X46437520Y72140577D02*
X46469325Y72119325D01*
X46490577Y72087520D01*
X46500000Y72040149D01*
X46500000Y71459851D01*
X46490577Y71412480D01*
X46469325Y71380675D01*
X46437520Y71359423D01*
X46390149Y71350000D01*
X46109851Y71350000D01*
X46062480Y71359423D01*
X46030675Y71380675D01*
X46009423Y71412480D01*
X46000000Y71459851D01*
X46000000Y72040149D01*
X46009423Y72087520D01*
X46030675Y72119325D01*
X46062480Y72140577D01*
X46109851Y72150000D01*
X46390149Y72150000D01*
X46437520Y72140577D01*
D33*
G36*
X46437520Y72140577D02*
G01*
X46469325Y72119325D01*
X46490577Y72087520D01*
X46500000Y72040149D01*
X46500000Y71459851D01*
X46490577Y71412480D01*
X46469325Y71380675D01*
X46437520Y71359423D01*
X46390149Y71350000D01*
X46109851Y71350000D01*
X46062480Y71359423D01*
X46030675Y71380675D01*
X46009423Y71412480D01*
X46000000Y71459851D01*
X46000000Y72040149D01*
X46009423Y72087520D01*
X46030675Y72119325D01*
X46062480Y72140577D01*
X46109851Y72150000D01*
X46390149Y72150000D01*
X46437520Y72140577D01*
G37*
D42*
X46437520Y59640577D02*
X46469325Y59619325D01*
X46490577Y59587520D01*
X46500000Y59540149D01*
X46500000Y58959851D01*
X46490577Y58912480D01*
X46469325Y58880675D01*
X46437520Y58859423D01*
X46390149Y58850000D01*
X46109851Y58850000D01*
X46062480Y58859423D01*
X46030675Y58880675D01*
X46009423Y58912480D01*
X46000000Y58959851D01*
X46000000Y59540149D01*
X46009423Y59587520D01*
X46030675Y59619325D01*
X46062480Y59640577D01*
X46109851Y59650000D01*
X46390149Y59650000D01*
X46437520Y59640577D01*
D33*
G36*
X46437520Y59640577D02*
G01*
X46469325Y59619325D01*
X46490577Y59587520D01*
X46500000Y59540149D01*
X46500000Y58959851D01*
X46490577Y58912480D01*
X46469325Y58880675D01*
X46437520Y58859423D01*
X46390149Y58850000D01*
X46109851Y58850000D01*
X46062480Y58859423D01*
X46030675Y58880675D01*
X46009423Y58912480D01*
X46000000Y58959851D01*
X46000000Y59540149D01*
X46009423Y59587520D01*
X46030675Y59619325D01*
X46062480Y59640577D01*
X46109851Y59650000D01*
X46390149Y59650000D01*
X46437520Y59640577D01*
G37*
D42*
X46437520Y47140577D02*
X46469325Y47119325D01*
X46490577Y47087520D01*
X46500000Y47040149D01*
X46500000Y46459851D01*
X46490577Y46412480D01*
X46469325Y46380675D01*
X46437520Y46359423D01*
X46390149Y46350000D01*
X46109851Y46350000D01*
X46062480Y46359423D01*
X46030675Y46380675D01*
X46009423Y46412480D01*
X46000000Y46459851D01*
X46000000Y47040149D01*
X46009423Y47087520D01*
X46030675Y47119325D01*
X46062480Y47140577D01*
X46109851Y47150000D01*
X46390149Y47150000D01*
X46437520Y47140577D01*
D33*
G36*
X46437520Y47140577D02*
G01*
X46469325Y47119325D01*
X46490577Y47087520D01*
X46500000Y47040149D01*
X46500000Y46459851D01*
X46490577Y46412480D01*
X46469325Y46380675D01*
X46437520Y46359423D01*
X46390149Y46350000D01*
X46109851Y46350000D01*
X46062480Y46359423D01*
X46030675Y46380675D01*
X46009423Y46412480D01*
X46000000Y46459851D01*
X46000000Y47040149D01*
X46009423Y47087520D01*
X46030675Y47119325D01*
X46062480Y47140577D01*
X46109851Y47150000D01*
X46390149Y47150000D01*
X46437520Y47140577D01*
G37*
D42*
X46437520Y34640577D02*
X46469325Y34619325D01*
X46490577Y34587520D01*
X46500000Y34540149D01*
X46500000Y33959851D01*
X46490577Y33912480D01*
X46469325Y33880675D01*
X46437520Y33859423D01*
X46390149Y33850000D01*
X46109851Y33850000D01*
X46062480Y33859423D01*
X46030675Y33880675D01*
X46009423Y33912480D01*
X46000000Y33959851D01*
X46000000Y34540149D01*
X46009423Y34587520D01*
X46030675Y34619325D01*
X46062480Y34640577D01*
X46109851Y34650000D01*
X46390149Y34650000D01*
X46437520Y34640577D01*
D33*
G36*
X46437520Y34640577D02*
G01*
X46469325Y34619325D01*
X46490577Y34587520D01*
X46500000Y34540149D01*
X46500000Y33959851D01*
X46490577Y33912480D01*
X46469325Y33880675D01*
X46437520Y33859423D01*
X46390149Y33850000D01*
X46109851Y33850000D01*
X46062480Y33859423D01*
X46030675Y33880675D01*
X46009423Y33912480D01*
X46000000Y33959851D01*
X46000000Y34540149D01*
X46009423Y34587520D01*
X46030675Y34619325D01*
X46062480Y34640577D01*
X46109851Y34650000D01*
X46390149Y34650000D01*
X46437520Y34640577D01*
G37*
D42*
X46437520Y22140577D02*
X46469325Y22119325D01*
X46490577Y22087520D01*
X46500000Y22040149D01*
X46500000Y21459851D01*
X46490577Y21412480D01*
X46469325Y21380675D01*
X46437520Y21359423D01*
X46390149Y21350000D01*
X46109851Y21350000D01*
X46062480Y21359423D01*
X46030675Y21380675D01*
X46009423Y21412480D01*
X46000000Y21459851D01*
X46000000Y22040149D01*
X46009423Y22087520D01*
X46030675Y22119325D01*
X46062480Y22140577D01*
X46109851Y22150000D01*
X46390149Y22150000D01*
X46437520Y22140577D01*
D33*
G36*
X46437520Y22140577D02*
G01*
X46469325Y22119325D01*
X46490577Y22087520D01*
X46500000Y22040149D01*
X46500000Y21459851D01*
X46490577Y21412480D01*
X46469325Y21380675D01*
X46437520Y21359423D01*
X46390149Y21350000D01*
X46109851Y21350000D01*
X46062480Y21359423D01*
X46030675Y21380675D01*
X46009423Y21412480D01*
X46000000Y21459851D01*
X46000000Y22040149D01*
X46009423Y22087520D01*
X46030675Y22119325D01*
X46062480Y22140577D01*
X46109851Y22150000D01*
X46390149Y22150000D01*
X46437520Y22140577D01*
G37*
D42*
X46437520Y9640577D02*
X46469325Y9619325D01*
X46490577Y9587520D01*
X46500000Y9540149D01*
X46500000Y8959851D01*
X46490577Y8912480D01*
X46469325Y8880675D01*
X46437520Y8859423D01*
X46390149Y8850000D01*
X46109851Y8850000D01*
X46062480Y8859423D01*
X46030675Y8880675D01*
X46009423Y8912480D01*
X46000000Y8959851D01*
X46000000Y9540149D01*
X46009423Y9587520D01*
X46030675Y9619325D01*
X46062480Y9640577D01*
X46109851Y9650000D01*
X46390149Y9650000D01*
X46437520Y9640577D01*
D33*
G36*
X46437520Y9640577D02*
G01*
X46469325Y9619325D01*
X46490577Y9587520D01*
X46500000Y9540149D01*
X46500000Y8959851D01*
X46490577Y8912480D01*
X46469325Y8880675D01*
X46437520Y8859423D01*
X46390149Y8850000D01*
X46109851Y8850000D01*
X46062480Y8859423D01*
X46030675Y8880675D01*
X46009423Y8912480D01*
X46000000Y8959851D01*
X46000000Y9540149D01*
X46009423Y9587520D01*
X46030675Y9619325D01*
X46062480Y9640577D01*
X46109851Y9650000D01*
X46390149Y9650000D01*
X46437520Y9640577D01*
G37*
M02*
