%TF.GenerationSoftware,KiCad,Pcbnew,(5.1.9)-1*%
%TF.CreationDate,2021-10-10T12:49:55+09:00*%
%TF.ProjectId,motordecoder2,6d6f746f-7264-4656-936f-646572322e6b,rev?*%
%TF.SameCoordinates,PX66ff300PY7e5ca20*%
%TF.FileFunction,Profile,NP*%
%FSLAX46Y46*%
G04 Gerber Fmt 4.6, Leading zero omitted, Abs format (unit mm)*
G04 Created by KiCad (PCBNEW (5.1.9)-1) date 2021-10-10 12:49:55*
%MOMM*%
%LPD*%
G01*
G04 APERTURE LIST*
%TA.AperFunction,Profile*%
%ADD10C,0.100000*%
%TD*%
G04 APERTURE END LIST*
D10*
X0Y0D02*
X5000000Y0D01*
X0Y98000000D02*
X0Y0D01*
X5000000Y98000000D02*
X0Y98000000D01*
X76000000Y0D02*
X69000000Y0D01*
X76000000Y98000000D02*
X76000000Y0D01*
X69000000Y98000000D02*
X76000000Y98000000D01*
X67000000Y2000000D02*
X68000000Y2000000D01*
X67000000Y14500000D02*
X68000000Y14500000D01*
X67000000Y27000000D02*
X68000000Y27000000D01*
X67000000Y39500000D02*
X68000000Y39500000D01*
X67000000Y52000000D02*
X68000000Y52000000D01*
X67000000Y64500000D02*
X68000000Y64500000D01*
X67000000Y77000000D02*
X68000000Y77000000D01*
X6000000Y9500000D02*
G75*
G02*
X5000000Y10500000I0J1000000D01*
G01*
X6000000Y22000000D02*
G75*
G02*
X5000000Y23000000I0J1000000D01*
G01*
X6000000Y34500000D02*
G75*
G02*
X5000000Y35500000I0J1000000D01*
G01*
X6000000Y47000000D02*
G75*
G02*
X5000000Y48000000I0J1000000D01*
G01*
X6000000Y59500000D02*
G75*
G02*
X5000000Y60500000I0J1000000D01*
G01*
X6000000Y72000000D02*
G75*
G02*
X5000000Y73000000I0J1000000D01*
G01*
X6000000Y84500000D02*
G75*
G02*
X5000000Y85500000I0J1000000D01*
G01*
X7000000Y2000000D02*
X6000000Y2000000D01*
X7000000Y14500000D02*
X6000000Y14500000D01*
X7000000Y27000000D02*
X6000000Y27000000D01*
X7000000Y39500000D02*
X6000000Y39500000D01*
X7000000Y52000000D02*
X6000000Y52000000D01*
X7000000Y64500000D02*
X6000000Y64500000D01*
X7000000Y77000000D02*
X6000000Y77000000D01*
X68000000Y1000000D02*
G75*
G02*
X69000000Y0I0J-1000000D01*
G01*
X68000000Y13500000D02*
G75*
G02*
X69000000Y12500000I0J-1000000D01*
G01*
X68000000Y26000000D02*
G75*
G02*
X69000000Y25000000I0J-1000000D01*
G01*
X68000000Y38500000D02*
G75*
G02*
X69000000Y37500000I0J-1000000D01*
G01*
X68000000Y51000000D02*
G75*
G02*
X69000000Y50000000I0J-1000000D01*
G01*
X68000000Y63500000D02*
G75*
G02*
X69000000Y62500000I0J-1000000D01*
G01*
X68000000Y76000000D02*
G75*
G02*
X69000000Y75000000I0J-1000000D01*
G01*
X5000000Y0D02*
G75*
G02*
X6000000Y1000000I1000000J0D01*
G01*
X5000000Y12500000D02*
G75*
G02*
X6000000Y13500000I1000000J0D01*
G01*
X5000000Y25000000D02*
G75*
G02*
X6000000Y26000000I1000000J0D01*
G01*
X5000000Y37500000D02*
G75*
G02*
X6000000Y38500000I1000000J0D01*
G01*
X5000000Y50000000D02*
G75*
G02*
X6000000Y51000000I1000000J0D01*
G01*
X5000000Y62500000D02*
G75*
G02*
X6000000Y63500000I1000000J0D01*
G01*
X5000000Y75000000D02*
G75*
G02*
X6000000Y76000000I1000000J0D01*
G01*
X6000000Y2000000D02*
X6000000Y8500000D01*
X6000000Y14500000D02*
X6000000Y21000000D01*
X6000000Y27000000D02*
X6000000Y33500000D01*
X6000000Y39500000D02*
X6000000Y46000000D01*
X6000000Y52000000D02*
X6000000Y58500000D01*
X6000000Y64500000D02*
X6000000Y71000000D01*
X6000000Y77000000D02*
X6000000Y83500000D01*
X6000000Y8500000D02*
X7000000Y8500000D01*
X6000000Y21000000D02*
X7000000Y21000000D01*
X6000000Y33500000D02*
X7000000Y33500000D01*
X6000000Y46000000D02*
X7000000Y46000000D01*
X6000000Y58500000D02*
X7000000Y58500000D01*
X6000000Y71000000D02*
X7000000Y71000000D01*
X6000000Y83500000D02*
X7000000Y83500000D01*
X69000000Y12500000D02*
X69000000Y10500000D01*
X69000000Y25000000D02*
X69000000Y23000000D01*
X69000000Y37500000D02*
X69000000Y35500000D01*
X69000000Y50000000D02*
X69000000Y48000000D01*
X69000000Y62500000D02*
X69000000Y60500000D01*
X69000000Y75000000D02*
X69000000Y73000000D01*
X68000000Y8500000D02*
X68000000Y2000000D01*
X68000000Y21000000D02*
X68000000Y14500000D01*
X68000000Y33500000D02*
X68000000Y27000000D01*
X68000000Y46000000D02*
X68000000Y39500000D01*
X68000000Y58500000D02*
X68000000Y52000000D01*
X68000000Y71000000D02*
X68000000Y64500000D01*
X68000000Y83500000D02*
X68000000Y77000000D01*
X67000000Y8500000D02*
X68000000Y8500000D01*
X67000000Y21000000D02*
X68000000Y21000000D01*
X67000000Y33500000D02*
X68000000Y33500000D01*
X67000000Y46000000D02*
X68000000Y46000000D01*
X67000000Y58500000D02*
X68000000Y58500000D01*
X67000000Y71000000D02*
X68000000Y71000000D01*
X67000000Y83500000D02*
X68000000Y83500000D01*
X5000000Y12500000D02*
X5000000Y10500000D01*
X5000000Y25000000D02*
X5000000Y23000000D01*
X5000000Y37500000D02*
X5000000Y35500000D01*
X5000000Y50000000D02*
X5000000Y48000000D01*
X5000000Y62500000D02*
X5000000Y60500000D01*
X5000000Y75000000D02*
X5000000Y73000000D01*
X69000000Y10500000D02*
G75*
G02*
X68000000Y9500000I-1000000J0D01*
G01*
X69000000Y23000000D02*
G75*
G02*
X68000000Y22000000I-1000000J0D01*
G01*
X69000000Y35500000D02*
G75*
G02*
X68000000Y34500000I-1000000J0D01*
G01*
X69000000Y48000000D02*
G75*
G02*
X68000000Y47000000I-1000000J0D01*
G01*
X69000000Y60500000D02*
G75*
G02*
X68000000Y59500000I-1000000J0D01*
G01*
X69000000Y73000000D02*
G75*
G02*
X68000000Y72000000I-1000000J0D01*
G01*
X69000000Y85500000D02*
G75*
G02*
X68000000Y84500000I-1000000J0D01*
G01*
X34000000Y10500000D02*
X34000000Y9500000D01*
X34000000Y23000000D02*
X34000000Y22000000D01*
X34000000Y35500000D02*
X34000000Y34500000D01*
X34000000Y48000000D02*
X34000000Y47000000D01*
X34000000Y60500000D02*
X34000000Y59500000D01*
X34000000Y73000000D02*
X34000000Y72000000D01*
X34000000Y85500000D02*
X34000000Y84500000D01*
X68000000Y9500000D02*
X53000000Y9500000D01*
X68000000Y22000000D02*
X53000000Y22000000D01*
X68000000Y34500000D02*
X53000000Y34500000D01*
X68000000Y47000000D02*
X53000000Y47000000D01*
X68000000Y59500000D02*
X53000000Y59500000D01*
X68000000Y72000000D02*
X53000000Y72000000D01*
X68000000Y84500000D02*
X53000000Y84500000D01*
X17500000Y9500000D02*
X6000000Y9500000D01*
X17500000Y22000000D02*
X6000000Y22000000D01*
X17500000Y34500000D02*
X6000000Y34500000D01*
X17500000Y47000000D02*
X6000000Y47000000D01*
X17500000Y59500000D02*
X6000000Y59500000D01*
X17500000Y72000000D02*
X6000000Y72000000D01*
X17500000Y84500000D02*
X6000000Y84500000D01*
X53000000Y1000000D02*
X53000000Y3000000D01*
X53000000Y13500000D02*
X53000000Y15500000D01*
X53000000Y26000000D02*
X53000000Y28000000D01*
X53000000Y38500000D02*
X53000000Y40500000D01*
X53000000Y51000000D02*
X53000000Y53000000D01*
X53000000Y63500000D02*
X53000000Y65500000D01*
X53000000Y76000000D02*
X53000000Y78000000D01*
X17500000Y3000000D02*
X17500000Y1000000D01*
X17500000Y15500000D02*
X17500000Y13500000D01*
X17500000Y28000000D02*
X17500000Y26000000D01*
X17500000Y40500000D02*
X17500000Y38500000D01*
X17500000Y53000000D02*
X17500000Y51000000D01*
X17500000Y65500000D02*
X17500000Y63500000D01*
X17500000Y78000000D02*
X17500000Y76000000D01*
X53000000Y7500000D02*
X47000000Y7500000D01*
X53000000Y20000000D02*
X47000000Y20000000D01*
X53000000Y32500000D02*
X47000000Y32500000D01*
X53000000Y45000000D02*
X47000000Y45000000D01*
X53000000Y57500000D02*
X47000000Y57500000D01*
X53000000Y70000000D02*
X47000000Y70000000D01*
X53000000Y82500000D02*
X47000000Y82500000D01*
X68000000Y1000000D02*
X53000000Y1000000D01*
X68000000Y13500000D02*
X53000000Y13500000D01*
X68000000Y26000000D02*
X53000000Y26000000D01*
X68000000Y38500000D02*
X53000000Y38500000D01*
X68000000Y51000000D02*
X53000000Y51000000D01*
X68000000Y63500000D02*
X53000000Y63500000D01*
X68000000Y76000000D02*
X53000000Y76000000D01*
X47000000Y7500000D02*
X47000000Y10500000D01*
X47000000Y20000000D02*
X47000000Y23000000D01*
X47000000Y32500000D02*
X47000000Y35500000D01*
X47000000Y45000000D02*
X47000000Y48000000D01*
X47000000Y57500000D02*
X47000000Y60500000D01*
X47000000Y70000000D02*
X47000000Y73000000D01*
X47000000Y82500000D02*
X47000000Y85500000D01*
X47000000Y3000000D02*
X47000000Y0D01*
X47000000Y15500000D02*
X47000000Y12500000D01*
X47000000Y28000000D02*
X47000000Y25000000D01*
X47000000Y40500000D02*
X47000000Y37500000D01*
X47000000Y53000000D02*
X47000000Y50000000D01*
X47000000Y65500000D02*
X47000000Y62500000D01*
X47000000Y78000000D02*
X47000000Y75000000D01*
X34000000Y0D02*
X34000000Y1000000D01*
X34000000Y12500000D02*
X34000000Y13500000D01*
X34000000Y25000000D02*
X34000000Y26000000D01*
X34000000Y37500000D02*
X34000000Y38500000D01*
X34000000Y50000000D02*
X34000000Y51000000D01*
X34000000Y62500000D02*
X34000000Y63500000D01*
X34000000Y75000000D02*
X34000000Y76000000D01*
X53000000Y7500000D02*
X53000000Y9500000D01*
X53000000Y20000000D02*
X53000000Y22000000D01*
X53000000Y32500000D02*
X53000000Y34500000D01*
X53000000Y45000000D02*
X53000000Y47000000D01*
X53000000Y57500000D02*
X53000000Y59500000D01*
X53000000Y70000000D02*
X53000000Y72000000D01*
X53000000Y82500000D02*
X53000000Y84500000D01*
X45500000Y10000000D02*
X39500000Y10000000D01*
X45500000Y22500000D02*
X39500000Y22500000D01*
X45500000Y35000000D02*
X39500000Y35000000D01*
X45500000Y47500000D02*
X39500000Y47500000D01*
X45500000Y60000000D02*
X39500000Y60000000D01*
X45500000Y72500000D02*
X39500000Y72500000D01*
X45500000Y85000000D02*
X39500000Y85000000D01*
X17500000Y7500000D02*
X17500000Y9500000D01*
X17500000Y20000000D02*
X17500000Y22000000D01*
X17500000Y32500000D02*
X17500000Y34500000D01*
X17500000Y45000000D02*
X17500000Y47000000D01*
X17500000Y57500000D02*
X17500000Y59500000D01*
X17500000Y70000000D02*
X17500000Y72000000D01*
X17500000Y82500000D02*
X17500000Y84500000D01*
X45500000Y500000D02*
X39500000Y500000D01*
X45500000Y13000000D02*
X39500000Y13000000D01*
X45500000Y25500000D02*
X39500000Y25500000D01*
X45500000Y38000000D02*
X39500000Y38000000D01*
X45500000Y50500000D02*
X39500000Y50500000D01*
X45500000Y63000000D02*
X39500000Y63000000D01*
X45500000Y75500000D02*
X39500000Y75500000D01*
X7000000Y8500000D02*
X7000000Y2000000D01*
X7000000Y21000000D02*
X7000000Y14500000D01*
X7000000Y33500000D02*
X7000000Y27000000D01*
X7000000Y46000000D02*
X7000000Y39500000D01*
X7000000Y58500000D02*
X7000000Y52000000D01*
X7000000Y71000000D02*
X7000000Y64500000D01*
X7000000Y83500000D02*
X7000000Y77000000D01*
X17500000Y1000000D02*
X6000000Y1000000D01*
X17500000Y13500000D02*
X6000000Y13500000D01*
X17500000Y26000000D02*
X6000000Y26000000D01*
X17500000Y38500000D02*
X6000000Y38500000D01*
X17500000Y51000000D02*
X6000000Y51000000D01*
X17500000Y63500000D02*
X6000000Y63500000D01*
X17500000Y76000000D02*
X6000000Y76000000D01*
X39500000Y500000D02*
X39500000Y0D01*
X39500000Y13000000D02*
X39500000Y12500000D01*
X39500000Y25500000D02*
X39500000Y25000000D01*
X39500000Y38000000D02*
X39500000Y37500000D01*
X39500000Y50500000D02*
X39500000Y50000000D01*
X39500000Y63000000D02*
X39500000Y62500000D01*
X39500000Y75500000D02*
X39500000Y75000000D01*
X67000000Y8500000D02*
X67000000Y2000000D01*
X67000000Y21000000D02*
X67000000Y14500000D01*
X67000000Y33500000D02*
X67000000Y27000000D01*
X67000000Y46000000D02*
X67000000Y39500000D01*
X67000000Y58500000D02*
X67000000Y52000000D01*
X67000000Y71000000D02*
X67000000Y64500000D01*
X67000000Y83500000D02*
X67000000Y77000000D01*
X45500000Y500000D02*
X45500000Y0D01*
X45500000Y13000000D02*
X45500000Y12500000D01*
X45500000Y25500000D02*
X45500000Y25000000D01*
X45500000Y38000000D02*
X45500000Y37500000D01*
X45500000Y50500000D02*
X45500000Y50000000D01*
X45500000Y63000000D02*
X45500000Y62500000D01*
X45500000Y75500000D02*
X45500000Y75000000D01*
X39500000Y10000000D02*
X39500000Y10500000D01*
X39500000Y22500000D02*
X39500000Y23000000D01*
X39500000Y35000000D02*
X39500000Y35500000D01*
X39500000Y47500000D02*
X39500000Y48000000D01*
X39500000Y60000000D02*
X39500000Y60500000D01*
X39500000Y72500000D02*
X39500000Y73000000D01*
X39500000Y85000000D02*
X39500000Y85500000D01*
X47000000Y0D02*
X45500000Y0D01*
X47000000Y12500000D02*
X45500000Y12500000D01*
X47000000Y25000000D02*
X45500000Y25000000D01*
X47000000Y37500000D02*
X45500000Y37500000D01*
X47000000Y50000000D02*
X45500000Y50000000D01*
X47000000Y62500000D02*
X45500000Y62500000D01*
X47000000Y75000000D02*
X45500000Y75000000D01*
X53000000Y3000000D02*
X47000000Y3000000D01*
X53000000Y15500000D02*
X47000000Y15500000D01*
X53000000Y28000000D02*
X47000000Y28000000D01*
X53000000Y40500000D02*
X47000000Y40500000D01*
X53000000Y53000000D02*
X47000000Y53000000D01*
X53000000Y65500000D02*
X47000000Y65500000D01*
X53000000Y78000000D02*
X47000000Y78000000D01*
X45500000Y10000000D02*
X45500000Y10500000D01*
X45500000Y22500000D02*
X45500000Y23000000D01*
X45500000Y35000000D02*
X45500000Y35500000D01*
X45500000Y47500000D02*
X45500000Y48000000D01*
X45500000Y60000000D02*
X45500000Y60500000D01*
X45500000Y72500000D02*
X45500000Y73000000D01*
X45500000Y85000000D02*
X45500000Y85500000D01*
X39500000Y0D02*
X34000000Y0D01*
X39500000Y12500000D02*
X34000000Y12500000D01*
X39500000Y25000000D02*
X34000000Y25000000D01*
X39500000Y37500000D02*
X34000000Y37500000D01*
X39500000Y50000000D02*
X34000000Y50000000D01*
X39500000Y62500000D02*
X34000000Y62500000D01*
X39500000Y75000000D02*
X34000000Y75000000D01*
X39500000Y10500000D02*
X34000000Y10500000D01*
X39500000Y23000000D02*
X34000000Y23000000D01*
X39500000Y35500000D02*
X34000000Y35500000D01*
X39500000Y48000000D02*
X34000000Y48000000D01*
X39500000Y60500000D02*
X34000000Y60500000D01*
X39500000Y73000000D02*
X34000000Y73000000D01*
X39500000Y85500000D02*
X34000000Y85500000D01*
X34000000Y7500000D02*
X34000000Y9500000D01*
X34000000Y20000000D02*
X34000000Y22000000D01*
X34000000Y32500000D02*
X34000000Y34500000D01*
X34000000Y45000000D02*
X34000000Y47000000D01*
X34000000Y57500000D02*
X34000000Y59500000D01*
X34000000Y70000000D02*
X34000000Y72000000D01*
X34000000Y82500000D02*
X34000000Y84500000D01*
X17500000Y7500000D02*
X34000000Y7500000D01*
X17500000Y20000000D02*
X34000000Y20000000D01*
X17500000Y32500000D02*
X34000000Y32500000D01*
X17500000Y45000000D02*
X34000000Y45000000D01*
X17500000Y57500000D02*
X34000000Y57500000D01*
X17500000Y70000000D02*
X34000000Y70000000D01*
X17500000Y82500000D02*
X34000000Y82500000D01*
X34000000Y3000000D02*
X34000000Y1000000D01*
X34000000Y15500000D02*
X34000000Y13500000D01*
X34000000Y28000000D02*
X34000000Y26000000D01*
X34000000Y40500000D02*
X34000000Y38500000D01*
X34000000Y53000000D02*
X34000000Y51000000D01*
X34000000Y65500000D02*
X34000000Y63500000D01*
X34000000Y78000000D02*
X34000000Y76000000D01*
X17500000Y3000000D02*
X34000000Y3000000D01*
X17500000Y15500000D02*
X34000000Y15500000D01*
X17500000Y28000000D02*
X34000000Y28000000D01*
X17500000Y40500000D02*
X34000000Y40500000D01*
X17500000Y53000000D02*
X34000000Y53000000D01*
X17500000Y65500000D02*
X34000000Y65500000D01*
X17500000Y78000000D02*
X34000000Y78000000D01*
X47000000Y10500000D02*
X45500000Y10500000D01*
X47000000Y23000000D02*
X45500000Y23000000D01*
X47000000Y35500000D02*
X45500000Y35500000D01*
X47000000Y48000000D02*
X45500000Y48000000D01*
X47000000Y60500000D02*
X45500000Y60500000D01*
X47000000Y73000000D02*
X45500000Y73000000D01*
X47000000Y85500000D02*
X45500000Y85500000D01*
X69000000Y87500000D02*
X69000000Y85500000D01*
X69000000Y98000000D02*
G75*
G02*
X68000000Y97000000I-1000000J0D01*
G01*
X68000000Y88500000D02*
G75*
G02*
X69000000Y87500000I0J-1000000D01*
G01*
X67000000Y89500000D02*
X68000000Y89500000D01*
X68000000Y96000000D02*
X68000000Y89500000D01*
X67000000Y96000000D02*
X68000000Y96000000D01*
X5000000Y87500000D02*
X5000000Y85500000D01*
X5000000Y87500000D02*
G75*
G02*
X6000000Y88500000I1000000J0D01*
G01*
X6000000Y97000000D02*
G75*
G02*
X5000000Y98000000I0J1000000D01*
G01*
X6000000Y96000000D02*
X7000000Y96000000D01*
X6000000Y89500000D02*
X6000000Y96000000D01*
X7000000Y89500000D02*
X6000000Y89500000D01*
X47000000Y98000000D02*
X45500000Y98000000D01*
X45500000Y97500000D02*
X45500000Y98000000D01*
X34000000Y95000000D02*
X34000000Y97000000D01*
X17500000Y95000000D02*
X34000000Y95000000D01*
X34000000Y90500000D02*
X34000000Y88500000D01*
X17500000Y90500000D02*
X34000000Y90500000D01*
X39500000Y98000000D02*
X34000000Y98000000D01*
X39500000Y87500000D02*
X34000000Y87500000D01*
X47000000Y87500000D02*
X45500000Y87500000D01*
X39500000Y88000000D02*
X39500000Y87500000D01*
X45500000Y88000000D02*
X45500000Y87500000D01*
X39500000Y97500000D02*
X39500000Y98000000D01*
X45500000Y97500000D02*
X39500000Y97500000D01*
X45500000Y88000000D02*
X39500000Y88000000D01*
X7000000Y96000000D02*
X7000000Y89500000D01*
X17500000Y95000000D02*
X17500000Y97000000D01*
X67000000Y96000000D02*
X67000000Y89500000D01*
X53000000Y95000000D02*
X53000000Y97000000D01*
X53000000Y88500000D02*
X53000000Y90500000D01*
X17500000Y97000000D02*
X6000000Y97000000D01*
X17500000Y88500000D02*
X6000000Y88500000D01*
X17500000Y90500000D02*
X17500000Y88500000D01*
X34000000Y87500000D02*
X34000000Y88500000D01*
X47000000Y90500000D02*
X47000000Y87500000D01*
X34000000Y98000000D02*
X34000000Y97000000D01*
X47000000Y95000000D02*
X47000000Y98000000D01*
X68000000Y97000000D02*
X53000000Y97000000D01*
X68000000Y88500000D02*
X53000000Y88500000D01*
X53000000Y95000000D02*
X47000000Y95000000D01*
X53000000Y90500000D02*
X47000000Y90500000D01*
M02*
