%TF.GenerationSoftware,KiCad,Pcbnew,(5.1.9)-1*%
%TF.CreationDate,2021-03-16T21:36:36+09:00*%
%TF.ProjectId,motordecoder2-roomlight,6d6f746f-7264-4656-936f-646572322d72,rev?*%
%TF.SameCoordinates,PX5b8d800PY7ed6b40*%
%TF.FileFunction,Legend,Top*%
%TF.FilePolarity,Positive*%
%FSLAX46Y46*%
G04 Gerber Fmt 4.6, Leading zero omitted, Abs format (unit mm)*
G04 Created by KiCad (PCBNEW (5.1.9)-1) date 2021-03-16 21:36:36*
%MOMM*%
%LPD*%
G01*
G04 APERTURE LIST*
%ADD10C,0.170000*%
%ADD11C,0.200000*%
%ADD12C,0.180000*%
%ADD13C,0.300000*%
%ADD14C,2.000000*%
%ADD15R,0.950000X0.950000*%
%ADD16R,1.200000X0.800000*%
%ADD17R,2.500000X1.200000*%
%ADD18R,1.800000X1.000000*%
%ADD19R,1.400000X1.000000*%
%ADD20R,1.300000X1.300000*%
G04 APERTURE END LIST*
D10*
X23433333Y2357143D02*
X23166666Y2357143D01*
X23166666Y1938096D02*
X23166666Y2738096D01*
X23547619Y2738096D01*
X24195238Y2471429D02*
X24195238Y1938096D01*
X24004761Y2776191D02*
X23814285Y2204762D01*
X24309523Y2204762D01*
X23433333Y14357143D02*
X23166666Y14357143D01*
X23166666Y13938096D02*
X23166666Y14738096D01*
X23547619Y14738096D01*
X24195238Y14471429D02*
X24195238Y13938096D01*
X24004761Y14776191D02*
X23814285Y14204762D01*
X24309523Y14204762D01*
X23433333Y26357143D02*
X23166666Y26357143D01*
X23166666Y25938096D02*
X23166666Y26738096D01*
X23547619Y26738096D01*
X24195238Y26471429D02*
X24195238Y25938096D01*
X24004761Y26776191D02*
X23814285Y26204762D01*
X24309523Y26204762D01*
X23433333Y38357143D02*
X23166666Y38357143D01*
X23166666Y37938096D02*
X23166666Y38738096D01*
X23547619Y38738096D01*
X24195238Y38471429D02*
X24195238Y37938096D01*
X24004761Y38776191D02*
X23814285Y38204762D01*
X24309523Y38204762D01*
X23433333Y50357143D02*
X23166666Y50357143D01*
X23166666Y49938096D02*
X23166666Y50738096D01*
X23547619Y50738096D01*
X24195238Y50471429D02*
X24195238Y49938096D01*
X24004761Y50776191D02*
X23814285Y50204762D01*
X24309523Y50204762D01*
X23433333Y62357143D02*
X23166666Y62357143D01*
X23166666Y61938096D02*
X23166666Y62738096D01*
X23547619Y62738096D01*
X24195238Y62471429D02*
X24195238Y61938096D01*
X24004761Y62776191D02*
X23814285Y62204762D01*
X24309523Y62204762D01*
X23433333Y74357143D02*
X23166666Y74357143D01*
X23166666Y73938096D02*
X23166666Y74738096D01*
X23547619Y74738096D01*
X24195238Y74471429D02*
X24195238Y73938096D01*
X24004761Y74776191D02*
X23814285Y74204762D01*
X24309523Y74204762D01*
D11*
X61890476Y3100000D02*
X61814285Y3138096D01*
X61700000Y3138096D01*
X61585714Y3100000D01*
X61509523Y3023810D01*
X61471428Y2947620D01*
X61433333Y2795239D01*
X61433333Y2680953D01*
X61471428Y2528572D01*
X61509523Y2452381D01*
X61585714Y2376191D01*
X61700000Y2338096D01*
X61776190Y2338096D01*
X61890476Y2376191D01*
X61928571Y2414286D01*
X61928571Y2680953D01*
X61776190Y2680953D01*
X62271428Y2338096D02*
X62271428Y3138096D01*
X62728571Y2338096D01*
X62728571Y3138096D01*
X63109523Y2338096D02*
X63109523Y3138096D01*
X63300000Y3138096D01*
X63414285Y3100000D01*
X63490476Y3023810D01*
X63528571Y2947620D01*
X63566666Y2795239D01*
X63566666Y2680953D01*
X63528571Y2528572D01*
X63490476Y2452381D01*
X63414285Y2376191D01*
X63300000Y2338096D01*
X63109523Y2338096D01*
X61890476Y15100000D02*
X61814285Y15138096D01*
X61700000Y15138096D01*
X61585714Y15100000D01*
X61509523Y15023810D01*
X61471428Y14947620D01*
X61433333Y14795239D01*
X61433333Y14680953D01*
X61471428Y14528572D01*
X61509523Y14452381D01*
X61585714Y14376191D01*
X61700000Y14338096D01*
X61776190Y14338096D01*
X61890476Y14376191D01*
X61928571Y14414286D01*
X61928571Y14680953D01*
X61776190Y14680953D01*
X62271428Y14338096D02*
X62271428Y15138096D01*
X62728571Y14338096D01*
X62728571Y15138096D01*
X63109523Y14338096D02*
X63109523Y15138096D01*
X63300000Y15138096D01*
X63414285Y15100000D01*
X63490476Y15023810D01*
X63528571Y14947620D01*
X63566666Y14795239D01*
X63566666Y14680953D01*
X63528571Y14528572D01*
X63490476Y14452381D01*
X63414285Y14376191D01*
X63300000Y14338096D01*
X63109523Y14338096D01*
X61890476Y27100000D02*
X61814285Y27138096D01*
X61700000Y27138096D01*
X61585714Y27100000D01*
X61509523Y27023810D01*
X61471428Y26947620D01*
X61433333Y26795239D01*
X61433333Y26680953D01*
X61471428Y26528572D01*
X61509523Y26452381D01*
X61585714Y26376191D01*
X61700000Y26338096D01*
X61776190Y26338096D01*
X61890476Y26376191D01*
X61928571Y26414286D01*
X61928571Y26680953D01*
X61776190Y26680953D01*
X62271428Y26338096D02*
X62271428Y27138096D01*
X62728571Y26338096D01*
X62728571Y27138096D01*
X63109523Y26338096D02*
X63109523Y27138096D01*
X63300000Y27138096D01*
X63414285Y27100000D01*
X63490476Y27023810D01*
X63528571Y26947620D01*
X63566666Y26795239D01*
X63566666Y26680953D01*
X63528571Y26528572D01*
X63490476Y26452381D01*
X63414285Y26376191D01*
X63300000Y26338096D01*
X63109523Y26338096D01*
X61890476Y39100000D02*
X61814285Y39138096D01*
X61700000Y39138096D01*
X61585714Y39100000D01*
X61509523Y39023810D01*
X61471428Y38947620D01*
X61433333Y38795239D01*
X61433333Y38680953D01*
X61471428Y38528572D01*
X61509523Y38452381D01*
X61585714Y38376191D01*
X61700000Y38338096D01*
X61776190Y38338096D01*
X61890476Y38376191D01*
X61928571Y38414286D01*
X61928571Y38680953D01*
X61776190Y38680953D01*
X62271428Y38338096D02*
X62271428Y39138096D01*
X62728571Y38338096D01*
X62728571Y39138096D01*
X63109523Y38338096D02*
X63109523Y39138096D01*
X63300000Y39138096D01*
X63414285Y39100000D01*
X63490476Y39023810D01*
X63528571Y38947620D01*
X63566666Y38795239D01*
X63566666Y38680953D01*
X63528571Y38528572D01*
X63490476Y38452381D01*
X63414285Y38376191D01*
X63300000Y38338096D01*
X63109523Y38338096D01*
X61890476Y51100000D02*
X61814285Y51138096D01*
X61700000Y51138096D01*
X61585714Y51100000D01*
X61509523Y51023810D01*
X61471428Y50947620D01*
X61433333Y50795239D01*
X61433333Y50680953D01*
X61471428Y50528572D01*
X61509523Y50452381D01*
X61585714Y50376191D01*
X61700000Y50338096D01*
X61776190Y50338096D01*
X61890476Y50376191D01*
X61928571Y50414286D01*
X61928571Y50680953D01*
X61776190Y50680953D01*
X62271428Y50338096D02*
X62271428Y51138096D01*
X62728571Y50338096D01*
X62728571Y51138096D01*
X63109523Y50338096D02*
X63109523Y51138096D01*
X63300000Y51138096D01*
X63414285Y51100000D01*
X63490476Y51023810D01*
X63528571Y50947620D01*
X63566666Y50795239D01*
X63566666Y50680953D01*
X63528571Y50528572D01*
X63490476Y50452381D01*
X63414285Y50376191D01*
X63300000Y50338096D01*
X63109523Y50338096D01*
X61890476Y63100000D02*
X61814285Y63138096D01*
X61700000Y63138096D01*
X61585714Y63100000D01*
X61509523Y63023810D01*
X61471428Y62947620D01*
X61433333Y62795239D01*
X61433333Y62680953D01*
X61471428Y62528572D01*
X61509523Y62452381D01*
X61585714Y62376191D01*
X61700000Y62338096D01*
X61776190Y62338096D01*
X61890476Y62376191D01*
X61928571Y62414286D01*
X61928571Y62680953D01*
X61776190Y62680953D01*
X62271428Y62338096D02*
X62271428Y63138096D01*
X62728571Y62338096D01*
X62728571Y63138096D01*
X63109523Y62338096D02*
X63109523Y63138096D01*
X63300000Y63138096D01*
X63414285Y63100000D01*
X63490476Y63023810D01*
X63528571Y62947620D01*
X63566666Y62795239D01*
X63566666Y62680953D01*
X63528571Y62528572D01*
X63490476Y62452381D01*
X63414285Y62376191D01*
X63300000Y62338096D01*
X63109523Y62338096D01*
X61890476Y75100000D02*
X61814285Y75138096D01*
X61700000Y75138096D01*
X61585714Y75100000D01*
X61509523Y75023810D01*
X61471428Y74947620D01*
X61433333Y74795239D01*
X61433333Y74680953D01*
X61471428Y74528572D01*
X61509523Y74452381D01*
X61585714Y74376191D01*
X61700000Y74338096D01*
X61776190Y74338096D01*
X61890476Y74376191D01*
X61928571Y74414286D01*
X61928571Y74680953D01*
X61776190Y74680953D01*
X62271428Y74338096D02*
X62271428Y75138096D01*
X62728571Y74338096D01*
X62728571Y75138096D01*
X63109523Y74338096D02*
X63109523Y75138096D01*
X63300000Y75138096D01*
X63414285Y75100000D01*
X63490476Y75023810D01*
X63528571Y74947620D01*
X63566666Y74795239D01*
X63566666Y74680953D01*
X63528571Y74528572D01*
X63490476Y74452381D01*
X63414285Y74376191D01*
X63300000Y74338096D01*
X63109523Y74338096D01*
X66104761Y2338096D02*
X65647619Y2338096D01*
X65876190Y2338096D02*
X65876190Y3138096D01*
X65800000Y3023810D01*
X65723809Y2947620D01*
X65647619Y2909524D01*
X66409523Y3061905D02*
X66447619Y3100000D01*
X66523809Y3138096D01*
X66714285Y3138096D01*
X66790476Y3100000D01*
X66828571Y3061905D01*
X66866666Y2985715D01*
X66866666Y2909524D01*
X66828571Y2795239D01*
X66371428Y2338096D01*
X66866666Y2338096D01*
X67095238Y3138096D02*
X67361904Y2338096D01*
X67628571Y3138096D01*
X66104761Y14338096D02*
X65647619Y14338096D01*
X65876190Y14338096D02*
X65876190Y15138096D01*
X65800000Y15023810D01*
X65723809Y14947620D01*
X65647619Y14909524D01*
X66409523Y15061905D02*
X66447619Y15100000D01*
X66523809Y15138096D01*
X66714285Y15138096D01*
X66790476Y15100000D01*
X66828571Y15061905D01*
X66866666Y14985715D01*
X66866666Y14909524D01*
X66828571Y14795239D01*
X66371428Y14338096D01*
X66866666Y14338096D01*
X67095238Y15138096D02*
X67361904Y14338096D01*
X67628571Y15138096D01*
X66104761Y26338096D02*
X65647619Y26338096D01*
X65876190Y26338096D02*
X65876190Y27138096D01*
X65800000Y27023810D01*
X65723809Y26947620D01*
X65647619Y26909524D01*
X66409523Y27061905D02*
X66447619Y27100000D01*
X66523809Y27138096D01*
X66714285Y27138096D01*
X66790476Y27100000D01*
X66828571Y27061905D01*
X66866666Y26985715D01*
X66866666Y26909524D01*
X66828571Y26795239D01*
X66371428Y26338096D01*
X66866666Y26338096D01*
X67095238Y27138096D02*
X67361904Y26338096D01*
X67628571Y27138096D01*
X66104761Y38338096D02*
X65647619Y38338096D01*
X65876190Y38338096D02*
X65876190Y39138096D01*
X65800000Y39023810D01*
X65723809Y38947620D01*
X65647619Y38909524D01*
X66409523Y39061905D02*
X66447619Y39100000D01*
X66523809Y39138096D01*
X66714285Y39138096D01*
X66790476Y39100000D01*
X66828571Y39061905D01*
X66866666Y38985715D01*
X66866666Y38909524D01*
X66828571Y38795239D01*
X66371428Y38338096D01*
X66866666Y38338096D01*
X67095238Y39138096D02*
X67361904Y38338096D01*
X67628571Y39138096D01*
X66104761Y50338096D02*
X65647619Y50338096D01*
X65876190Y50338096D02*
X65876190Y51138096D01*
X65800000Y51023810D01*
X65723809Y50947620D01*
X65647619Y50909524D01*
X66409523Y51061905D02*
X66447619Y51100000D01*
X66523809Y51138096D01*
X66714285Y51138096D01*
X66790476Y51100000D01*
X66828571Y51061905D01*
X66866666Y50985715D01*
X66866666Y50909524D01*
X66828571Y50795239D01*
X66371428Y50338096D01*
X66866666Y50338096D01*
X67095238Y51138096D02*
X67361904Y50338096D01*
X67628571Y51138096D01*
X66104761Y62338096D02*
X65647619Y62338096D01*
X65876190Y62338096D02*
X65876190Y63138096D01*
X65800000Y63023810D01*
X65723809Y62947620D01*
X65647619Y62909524D01*
X66409523Y63061905D02*
X66447619Y63100000D01*
X66523809Y63138096D01*
X66714285Y63138096D01*
X66790476Y63100000D01*
X66828571Y63061905D01*
X66866666Y62985715D01*
X66866666Y62909524D01*
X66828571Y62795239D01*
X66371428Y62338096D01*
X66866666Y62338096D01*
X67095238Y63138096D02*
X67361904Y62338096D01*
X67628571Y63138096D01*
X66104761Y74338096D02*
X65647619Y74338096D01*
X65876190Y74338096D02*
X65876190Y75138096D01*
X65800000Y75023810D01*
X65723809Y74947620D01*
X65647619Y74909524D01*
X66409523Y75061905D02*
X66447619Y75100000D01*
X66523809Y75138096D01*
X66714285Y75138096D01*
X66790476Y75100000D01*
X66828571Y75061905D01*
X66866666Y74985715D01*
X66866666Y74909524D01*
X66828571Y74795239D01*
X66371428Y74338096D01*
X66866666Y74338096D01*
X67095238Y75138096D02*
X67361904Y74338096D01*
X67628571Y75138096D01*
X19390476Y2442858D02*
X20000000Y2442858D01*
X19695238Y2138096D02*
X19695238Y2747620D01*
X20800000Y2138096D02*
X20342857Y2138096D01*
X20571428Y2138096D02*
X20571428Y2938096D01*
X20495238Y2823810D01*
X20419047Y2747620D01*
X20342857Y2709524D01*
X21104761Y2861905D02*
X21142857Y2900000D01*
X21219047Y2938096D01*
X21409523Y2938096D01*
X21485714Y2900000D01*
X21523809Y2861905D01*
X21561904Y2785715D01*
X21561904Y2709524D01*
X21523809Y2595239D01*
X21066666Y2138096D01*
X21561904Y2138096D01*
X21790476Y2938096D02*
X22057142Y2138096D01*
X22323809Y2938096D01*
X19390476Y14442858D02*
X20000000Y14442858D01*
X19695238Y14138096D02*
X19695238Y14747620D01*
X20800000Y14138096D02*
X20342857Y14138096D01*
X20571428Y14138096D02*
X20571428Y14938096D01*
X20495238Y14823810D01*
X20419047Y14747620D01*
X20342857Y14709524D01*
X21104761Y14861905D02*
X21142857Y14900000D01*
X21219047Y14938096D01*
X21409523Y14938096D01*
X21485714Y14900000D01*
X21523809Y14861905D01*
X21561904Y14785715D01*
X21561904Y14709524D01*
X21523809Y14595239D01*
X21066666Y14138096D01*
X21561904Y14138096D01*
X21790476Y14938096D02*
X22057142Y14138096D01*
X22323809Y14938096D01*
X19390476Y26442858D02*
X20000000Y26442858D01*
X19695238Y26138096D02*
X19695238Y26747620D01*
X20800000Y26138096D02*
X20342857Y26138096D01*
X20571428Y26138096D02*
X20571428Y26938096D01*
X20495238Y26823810D01*
X20419047Y26747620D01*
X20342857Y26709524D01*
X21104761Y26861905D02*
X21142857Y26900000D01*
X21219047Y26938096D01*
X21409523Y26938096D01*
X21485714Y26900000D01*
X21523809Y26861905D01*
X21561904Y26785715D01*
X21561904Y26709524D01*
X21523809Y26595239D01*
X21066666Y26138096D01*
X21561904Y26138096D01*
X21790476Y26938096D02*
X22057142Y26138096D01*
X22323809Y26938096D01*
X19390476Y38442858D02*
X20000000Y38442858D01*
X19695238Y38138096D02*
X19695238Y38747620D01*
X20800000Y38138096D02*
X20342857Y38138096D01*
X20571428Y38138096D02*
X20571428Y38938096D01*
X20495238Y38823810D01*
X20419047Y38747620D01*
X20342857Y38709524D01*
X21104761Y38861905D02*
X21142857Y38900000D01*
X21219047Y38938096D01*
X21409523Y38938096D01*
X21485714Y38900000D01*
X21523809Y38861905D01*
X21561904Y38785715D01*
X21561904Y38709524D01*
X21523809Y38595239D01*
X21066666Y38138096D01*
X21561904Y38138096D01*
X21790476Y38938096D02*
X22057142Y38138096D01*
X22323809Y38938096D01*
X19390476Y50442858D02*
X20000000Y50442858D01*
X19695238Y50138096D02*
X19695238Y50747620D01*
X20800000Y50138096D02*
X20342857Y50138096D01*
X20571428Y50138096D02*
X20571428Y50938096D01*
X20495238Y50823810D01*
X20419047Y50747620D01*
X20342857Y50709524D01*
X21104761Y50861905D02*
X21142857Y50900000D01*
X21219047Y50938096D01*
X21409523Y50938096D01*
X21485714Y50900000D01*
X21523809Y50861905D01*
X21561904Y50785715D01*
X21561904Y50709524D01*
X21523809Y50595239D01*
X21066666Y50138096D01*
X21561904Y50138096D01*
X21790476Y50938096D02*
X22057142Y50138096D01*
X22323809Y50938096D01*
X19390476Y62442858D02*
X20000000Y62442858D01*
X19695238Y62138096D02*
X19695238Y62747620D01*
X20800000Y62138096D02*
X20342857Y62138096D01*
X20571428Y62138096D02*
X20571428Y62938096D01*
X20495238Y62823810D01*
X20419047Y62747620D01*
X20342857Y62709524D01*
X21104761Y62861905D02*
X21142857Y62900000D01*
X21219047Y62938096D01*
X21409523Y62938096D01*
X21485714Y62900000D01*
X21523809Y62861905D01*
X21561904Y62785715D01*
X21561904Y62709524D01*
X21523809Y62595239D01*
X21066666Y62138096D01*
X21561904Y62138096D01*
X21790476Y62938096D02*
X22057142Y62138096D01*
X22323809Y62938096D01*
X19390476Y74442858D02*
X20000000Y74442858D01*
X19695238Y74138096D02*
X19695238Y74747620D01*
X20800000Y74138096D02*
X20342857Y74138096D01*
X20571428Y74138096D02*
X20571428Y74938096D01*
X20495238Y74823810D01*
X20419047Y74747620D01*
X20342857Y74709524D01*
X21104761Y74861905D02*
X21142857Y74900000D01*
X21219047Y74938096D01*
X21409523Y74938096D01*
X21485714Y74900000D01*
X21523809Y74861905D01*
X21561904Y74785715D01*
X21561904Y74709524D01*
X21523809Y74595239D01*
X21066666Y74138096D01*
X21561904Y74138096D01*
X21790476Y74938096D02*
X22057142Y74138096D01*
X22323809Y74938096D01*
X32490476Y2142858D02*
X33100000Y2142858D01*
X32795238Y1838096D02*
X32795238Y2447620D01*
X33900000Y1838096D02*
X33442857Y1838096D01*
X33671428Y1838096D02*
X33671428Y2638096D01*
X33595238Y2523810D01*
X33519047Y2447620D01*
X33442857Y2409524D01*
X34204761Y2561905D02*
X34242857Y2600000D01*
X34319047Y2638096D01*
X34509523Y2638096D01*
X34585714Y2600000D01*
X34623809Y2561905D01*
X34661904Y2485715D01*
X34661904Y2409524D01*
X34623809Y2295239D01*
X34166666Y1838096D01*
X34661904Y1838096D01*
X34890476Y2638096D02*
X35157142Y1838096D01*
X35423809Y2638096D01*
X32490476Y14142858D02*
X33100000Y14142858D01*
X32795238Y13838096D02*
X32795238Y14447620D01*
X33900000Y13838096D02*
X33442857Y13838096D01*
X33671428Y13838096D02*
X33671428Y14638096D01*
X33595238Y14523810D01*
X33519047Y14447620D01*
X33442857Y14409524D01*
X34204761Y14561905D02*
X34242857Y14600000D01*
X34319047Y14638096D01*
X34509523Y14638096D01*
X34585714Y14600000D01*
X34623809Y14561905D01*
X34661904Y14485715D01*
X34661904Y14409524D01*
X34623809Y14295239D01*
X34166666Y13838096D01*
X34661904Y13838096D01*
X34890476Y14638096D02*
X35157142Y13838096D01*
X35423809Y14638096D01*
X32490476Y26142858D02*
X33100000Y26142858D01*
X32795238Y25838096D02*
X32795238Y26447620D01*
X33900000Y25838096D02*
X33442857Y25838096D01*
X33671428Y25838096D02*
X33671428Y26638096D01*
X33595238Y26523810D01*
X33519047Y26447620D01*
X33442857Y26409524D01*
X34204761Y26561905D02*
X34242857Y26600000D01*
X34319047Y26638096D01*
X34509523Y26638096D01*
X34585714Y26600000D01*
X34623809Y26561905D01*
X34661904Y26485715D01*
X34661904Y26409524D01*
X34623809Y26295239D01*
X34166666Y25838096D01*
X34661904Y25838096D01*
X34890476Y26638096D02*
X35157142Y25838096D01*
X35423809Y26638096D01*
X32490476Y38142858D02*
X33100000Y38142858D01*
X32795238Y37838096D02*
X32795238Y38447620D01*
X33900000Y37838096D02*
X33442857Y37838096D01*
X33671428Y37838096D02*
X33671428Y38638096D01*
X33595238Y38523810D01*
X33519047Y38447620D01*
X33442857Y38409524D01*
X34204761Y38561905D02*
X34242857Y38600000D01*
X34319047Y38638096D01*
X34509523Y38638096D01*
X34585714Y38600000D01*
X34623809Y38561905D01*
X34661904Y38485715D01*
X34661904Y38409524D01*
X34623809Y38295239D01*
X34166666Y37838096D01*
X34661904Y37838096D01*
X34890476Y38638096D02*
X35157142Y37838096D01*
X35423809Y38638096D01*
X32490476Y50142858D02*
X33100000Y50142858D01*
X32795238Y49838096D02*
X32795238Y50447620D01*
X33900000Y49838096D02*
X33442857Y49838096D01*
X33671428Y49838096D02*
X33671428Y50638096D01*
X33595238Y50523810D01*
X33519047Y50447620D01*
X33442857Y50409524D01*
X34204761Y50561905D02*
X34242857Y50600000D01*
X34319047Y50638096D01*
X34509523Y50638096D01*
X34585714Y50600000D01*
X34623809Y50561905D01*
X34661904Y50485715D01*
X34661904Y50409524D01*
X34623809Y50295239D01*
X34166666Y49838096D01*
X34661904Y49838096D01*
X34890476Y50638096D02*
X35157142Y49838096D01*
X35423809Y50638096D01*
X32490476Y62142858D02*
X33100000Y62142858D01*
X32795238Y61838096D02*
X32795238Y62447620D01*
X33900000Y61838096D02*
X33442857Y61838096D01*
X33671428Y61838096D02*
X33671428Y62638096D01*
X33595238Y62523810D01*
X33519047Y62447620D01*
X33442857Y62409524D01*
X34204761Y62561905D02*
X34242857Y62600000D01*
X34319047Y62638096D01*
X34509523Y62638096D01*
X34585714Y62600000D01*
X34623809Y62561905D01*
X34661904Y62485715D01*
X34661904Y62409524D01*
X34623809Y62295239D01*
X34166666Y61838096D01*
X34661904Y61838096D01*
X34890476Y62638096D02*
X35157142Y61838096D01*
X35423809Y62638096D01*
X32490476Y74142858D02*
X33100000Y74142858D01*
X32795238Y73838096D02*
X32795238Y74447620D01*
X33900000Y73838096D02*
X33442857Y73838096D01*
X33671428Y73838096D02*
X33671428Y74638096D01*
X33595238Y74523810D01*
X33519047Y74447620D01*
X33442857Y74409524D01*
X34204761Y74561905D02*
X34242857Y74600000D01*
X34319047Y74638096D01*
X34509523Y74638096D01*
X34585714Y74600000D01*
X34623809Y74561905D01*
X34661904Y74485715D01*
X34661904Y74409524D01*
X34623809Y74295239D01*
X34166666Y73838096D01*
X34661904Y73838096D01*
X34890476Y74638096D02*
X35157142Y73838096D01*
X35423809Y74638096D01*
X9445238Y6692858D02*
X10054761Y6692858D01*
X9445238Y18692858D02*
X10054761Y18692858D01*
X9445238Y30692858D02*
X10054761Y30692858D01*
X9445238Y42692858D02*
X10054761Y42692858D01*
X9445238Y54692858D02*
X10054761Y54692858D01*
X9445238Y66692858D02*
X10054761Y66692858D01*
X9445238Y78692858D02*
X10054761Y78692858D01*
D10*
X40833333Y7457143D02*
X40566666Y7457143D01*
X40566666Y7038096D02*
X40566666Y7838096D01*
X40947619Y7838096D01*
X41595238Y7838096D02*
X41442857Y7838096D01*
X41366666Y7800000D01*
X41328571Y7761905D01*
X41252380Y7647620D01*
X41214285Y7495239D01*
X41214285Y7190477D01*
X41252380Y7114286D01*
X41290476Y7076191D01*
X41366666Y7038096D01*
X41519047Y7038096D01*
X41595238Y7076191D01*
X41633333Y7114286D01*
X41671428Y7190477D01*
X41671428Y7380953D01*
X41633333Y7457143D01*
X41595238Y7495239D01*
X41519047Y7533334D01*
X41366666Y7533334D01*
X41290476Y7495239D01*
X41252380Y7457143D01*
X41214285Y7380953D01*
X40833333Y19457143D02*
X40566666Y19457143D01*
X40566666Y19038096D02*
X40566666Y19838096D01*
X40947619Y19838096D01*
X41595238Y19838096D02*
X41442857Y19838096D01*
X41366666Y19800000D01*
X41328571Y19761905D01*
X41252380Y19647620D01*
X41214285Y19495239D01*
X41214285Y19190477D01*
X41252380Y19114286D01*
X41290476Y19076191D01*
X41366666Y19038096D01*
X41519047Y19038096D01*
X41595238Y19076191D01*
X41633333Y19114286D01*
X41671428Y19190477D01*
X41671428Y19380953D01*
X41633333Y19457143D01*
X41595238Y19495239D01*
X41519047Y19533334D01*
X41366666Y19533334D01*
X41290476Y19495239D01*
X41252380Y19457143D01*
X41214285Y19380953D01*
X40833333Y31457143D02*
X40566666Y31457143D01*
X40566666Y31038096D02*
X40566666Y31838096D01*
X40947619Y31838096D01*
X41595238Y31838096D02*
X41442857Y31838096D01*
X41366666Y31800000D01*
X41328571Y31761905D01*
X41252380Y31647620D01*
X41214285Y31495239D01*
X41214285Y31190477D01*
X41252380Y31114286D01*
X41290476Y31076191D01*
X41366666Y31038096D01*
X41519047Y31038096D01*
X41595238Y31076191D01*
X41633333Y31114286D01*
X41671428Y31190477D01*
X41671428Y31380953D01*
X41633333Y31457143D01*
X41595238Y31495239D01*
X41519047Y31533334D01*
X41366666Y31533334D01*
X41290476Y31495239D01*
X41252380Y31457143D01*
X41214285Y31380953D01*
X40833333Y43457143D02*
X40566666Y43457143D01*
X40566666Y43038096D02*
X40566666Y43838096D01*
X40947619Y43838096D01*
X41595238Y43838096D02*
X41442857Y43838096D01*
X41366666Y43800000D01*
X41328571Y43761905D01*
X41252380Y43647620D01*
X41214285Y43495239D01*
X41214285Y43190477D01*
X41252380Y43114286D01*
X41290476Y43076191D01*
X41366666Y43038096D01*
X41519047Y43038096D01*
X41595238Y43076191D01*
X41633333Y43114286D01*
X41671428Y43190477D01*
X41671428Y43380953D01*
X41633333Y43457143D01*
X41595238Y43495239D01*
X41519047Y43533334D01*
X41366666Y43533334D01*
X41290476Y43495239D01*
X41252380Y43457143D01*
X41214285Y43380953D01*
X40833333Y55457143D02*
X40566666Y55457143D01*
X40566666Y55038096D02*
X40566666Y55838096D01*
X40947619Y55838096D01*
X41595238Y55838096D02*
X41442857Y55838096D01*
X41366666Y55800000D01*
X41328571Y55761905D01*
X41252380Y55647620D01*
X41214285Y55495239D01*
X41214285Y55190477D01*
X41252380Y55114286D01*
X41290476Y55076191D01*
X41366666Y55038096D01*
X41519047Y55038096D01*
X41595238Y55076191D01*
X41633333Y55114286D01*
X41671428Y55190477D01*
X41671428Y55380953D01*
X41633333Y55457143D01*
X41595238Y55495239D01*
X41519047Y55533334D01*
X41366666Y55533334D01*
X41290476Y55495239D01*
X41252380Y55457143D01*
X41214285Y55380953D01*
X40833333Y67457143D02*
X40566666Y67457143D01*
X40566666Y67038096D02*
X40566666Y67838096D01*
X40947619Y67838096D01*
X41595238Y67838096D02*
X41442857Y67838096D01*
X41366666Y67800000D01*
X41328571Y67761905D01*
X41252380Y67647620D01*
X41214285Y67495239D01*
X41214285Y67190477D01*
X41252380Y67114286D01*
X41290476Y67076191D01*
X41366666Y67038096D01*
X41519047Y67038096D01*
X41595238Y67076191D01*
X41633333Y67114286D01*
X41671428Y67190477D01*
X41671428Y67380953D01*
X41633333Y67457143D01*
X41595238Y67495239D01*
X41519047Y67533334D01*
X41366666Y67533334D01*
X41290476Y67495239D01*
X41252380Y67457143D01*
X41214285Y67380953D01*
X40833333Y79457143D02*
X40566666Y79457143D01*
X40566666Y79038096D02*
X40566666Y79838096D01*
X40947619Y79838096D01*
X41595238Y79838096D02*
X41442857Y79838096D01*
X41366666Y79800000D01*
X41328571Y79761905D01*
X41252380Y79647620D01*
X41214285Y79495239D01*
X41214285Y79190477D01*
X41252380Y79114286D01*
X41290476Y79076191D01*
X41366666Y79038096D01*
X41519047Y79038096D01*
X41595238Y79076191D01*
X41633333Y79114286D01*
X41671428Y79190477D01*
X41671428Y79380953D01*
X41633333Y79457143D01*
X41595238Y79495239D01*
X41519047Y79533334D01*
X41366666Y79533334D01*
X41290476Y79495239D01*
X41252380Y79457143D01*
X41214285Y79380953D01*
D11*
X70895238Y638096D02*
X70628571Y1019048D01*
X70438095Y638096D02*
X70438095Y1438096D01*
X70742857Y1438096D01*
X70819047Y1400000D01*
X70857142Y1361905D01*
X70895238Y1285715D01*
X70895238Y1171429D01*
X70857142Y1095239D01*
X70819047Y1057143D01*
X70742857Y1019048D01*
X70438095Y1019048D01*
X71200000Y866667D02*
X71580952Y866667D01*
X71123809Y638096D02*
X71390476Y1438096D01*
X71657142Y638096D01*
X71923809Y638096D02*
X71923809Y1438096D01*
X72685714Y638096D02*
X72304761Y638096D01*
X72304761Y1438096D01*
X72952380Y942858D02*
X73561904Y942858D01*
X70895238Y12638096D02*
X70628571Y13019048D01*
X70438095Y12638096D02*
X70438095Y13438096D01*
X70742857Y13438096D01*
X70819047Y13400000D01*
X70857142Y13361905D01*
X70895238Y13285715D01*
X70895238Y13171429D01*
X70857142Y13095239D01*
X70819047Y13057143D01*
X70742857Y13019048D01*
X70438095Y13019048D01*
X71200000Y12866667D02*
X71580952Y12866667D01*
X71123809Y12638096D02*
X71390476Y13438096D01*
X71657142Y12638096D01*
X71923809Y12638096D02*
X71923809Y13438096D01*
X72685714Y12638096D02*
X72304761Y12638096D01*
X72304761Y13438096D01*
X72952380Y12942858D02*
X73561904Y12942858D01*
X70895238Y24638096D02*
X70628571Y25019048D01*
X70438095Y24638096D02*
X70438095Y25438096D01*
X70742857Y25438096D01*
X70819047Y25400000D01*
X70857142Y25361905D01*
X70895238Y25285715D01*
X70895238Y25171429D01*
X70857142Y25095239D01*
X70819047Y25057143D01*
X70742857Y25019048D01*
X70438095Y25019048D01*
X71200000Y24866667D02*
X71580952Y24866667D01*
X71123809Y24638096D02*
X71390476Y25438096D01*
X71657142Y24638096D01*
X71923809Y24638096D02*
X71923809Y25438096D01*
X72685714Y24638096D02*
X72304761Y24638096D01*
X72304761Y25438096D01*
X72952380Y24942858D02*
X73561904Y24942858D01*
X70895238Y36638096D02*
X70628571Y37019048D01*
X70438095Y36638096D02*
X70438095Y37438096D01*
X70742857Y37438096D01*
X70819047Y37400000D01*
X70857142Y37361905D01*
X70895238Y37285715D01*
X70895238Y37171429D01*
X70857142Y37095239D01*
X70819047Y37057143D01*
X70742857Y37019048D01*
X70438095Y37019048D01*
X71200000Y36866667D02*
X71580952Y36866667D01*
X71123809Y36638096D02*
X71390476Y37438096D01*
X71657142Y36638096D01*
X71923809Y36638096D02*
X71923809Y37438096D01*
X72685714Y36638096D02*
X72304761Y36638096D01*
X72304761Y37438096D01*
X72952380Y36942858D02*
X73561904Y36942858D01*
X70895238Y48638096D02*
X70628571Y49019048D01*
X70438095Y48638096D02*
X70438095Y49438096D01*
X70742857Y49438096D01*
X70819047Y49400000D01*
X70857142Y49361905D01*
X70895238Y49285715D01*
X70895238Y49171429D01*
X70857142Y49095239D01*
X70819047Y49057143D01*
X70742857Y49019048D01*
X70438095Y49019048D01*
X71200000Y48866667D02*
X71580952Y48866667D01*
X71123809Y48638096D02*
X71390476Y49438096D01*
X71657142Y48638096D01*
X71923809Y48638096D02*
X71923809Y49438096D01*
X72685714Y48638096D02*
X72304761Y48638096D01*
X72304761Y49438096D01*
X72952380Y48942858D02*
X73561904Y48942858D01*
X70895238Y60638096D02*
X70628571Y61019048D01*
X70438095Y60638096D02*
X70438095Y61438096D01*
X70742857Y61438096D01*
X70819047Y61400000D01*
X70857142Y61361905D01*
X70895238Y61285715D01*
X70895238Y61171429D01*
X70857142Y61095239D01*
X70819047Y61057143D01*
X70742857Y61019048D01*
X70438095Y61019048D01*
X71200000Y60866667D02*
X71580952Y60866667D01*
X71123809Y60638096D02*
X71390476Y61438096D01*
X71657142Y60638096D01*
X71923809Y60638096D02*
X71923809Y61438096D01*
X72685714Y60638096D02*
X72304761Y60638096D01*
X72304761Y61438096D01*
X72952380Y60942858D02*
X73561904Y60942858D01*
X70895238Y72638096D02*
X70628571Y73019048D01*
X70438095Y72638096D02*
X70438095Y73438096D01*
X70742857Y73438096D01*
X70819047Y73400000D01*
X70857142Y73361905D01*
X70895238Y73285715D01*
X70895238Y73171429D01*
X70857142Y73095239D01*
X70819047Y73057143D01*
X70742857Y73019048D01*
X70438095Y73019048D01*
X71200000Y72866667D02*
X71580952Y72866667D01*
X71123809Y72638096D02*
X71390476Y73438096D01*
X71657142Y72638096D01*
X71923809Y72638096D02*
X71923809Y73438096D01*
X72685714Y72638096D02*
X72304761Y72638096D01*
X72304761Y73438096D01*
X72952380Y72942858D02*
X73561904Y72942858D01*
X70895238Y8638096D02*
X70628571Y9019048D01*
X70438095Y8638096D02*
X70438095Y9438096D01*
X70742857Y9438096D01*
X70819047Y9400000D01*
X70857142Y9361905D01*
X70895238Y9285715D01*
X70895238Y9171429D01*
X70857142Y9095239D01*
X70819047Y9057143D01*
X70742857Y9019048D01*
X70438095Y9019048D01*
X71200000Y8866667D02*
X71580952Y8866667D01*
X71123809Y8638096D02*
X71390476Y9438096D01*
X71657142Y8638096D01*
X71923809Y8638096D02*
X71923809Y9438096D01*
X72685714Y8638096D02*
X72304761Y8638096D01*
X72304761Y9438096D01*
X72952380Y8942858D02*
X73561904Y8942858D01*
X73257142Y8638096D02*
X73257142Y9247620D01*
X70895238Y20638096D02*
X70628571Y21019048D01*
X70438095Y20638096D02*
X70438095Y21438096D01*
X70742857Y21438096D01*
X70819047Y21400000D01*
X70857142Y21361905D01*
X70895238Y21285715D01*
X70895238Y21171429D01*
X70857142Y21095239D01*
X70819047Y21057143D01*
X70742857Y21019048D01*
X70438095Y21019048D01*
X71200000Y20866667D02*
X71580952Y20866667D01*
X71123809Y20638096D02*
X71390476Y21438096D01*
X71657142Y20638096D01*
X71923809Y20638096D02*
X71923809Y21438096D01*
X72685714Y20638096D02*
X72304761Y20638096D01*
X72304761Y21438096D01*
X72952380Y20942858D02*
X73561904Y20942858D01*
X73257142Y20638096D02*
X73257142Y21247620D01*
X70895238Y32638096D02*
X70628571Y33019048D01*
X70438095Y32638096D02*
X70438095Y33438096D01*
X70742857Y33438096D01*
X70819047Y33400000D01*
X70857142Y33361905D01*
X70895238Y33285715D01*
X70895238Y33171429D01*
X70857142Y33095239D01*
X70819047Y33057143D01*
X70742857Y33019048D01*
X70438095Y33019048D01*
X71200000Y32866667D02*
X71580952Y32866667D01*
X71123809Y32638096D02*
X71390476Y33438096D01*
X71657142Y32638096D01*
X71923809Y32638096D02*
X71923809Y33438096D01*
X72685714Y32638096D02*
X72304761Y32638096D01*
X72304761Y33438096D01*
X72952380Y32942858D02*
X73561904Y32942858D01*
X73257142Y32638096D02*
X73257142Y33247620D01*
X70895238Y44638096D02*
X70628571Y45019048D01*
X70438095Y44638096D02*
X70438095Y45438096D01*
X70742857Y45438096D01*
X70819047Y45400000D01*
X70857142Y45361905D01*
X70895238Y45285715D01*
X70895238Y45171429D01*
X70857142Y45095239D01*
X70819047Y45057143D01*
X70742857Y45019048D01*
X70438095Y45019048D01*
X71200000Y44866667D02*
X71580952Y44866667D01*
X71123809Y44638096D02*
X71390476Y45438096D01*
X71657142Y44638096D01*
X71923809Y44638096D02*
X71923809Y45438096D01*
X72685714Y44638096D02*
X72304761Y44638096D01*
X72304761Y45438096D01*
X72952380Y44942858D02*
X73561904Y44942858D01*
X73257142Y44638096D02*
X73257142Y45247620D01*
X70895238Y56638096D02*
X70628571Y57019048D01*
X70438095Y56638096D02*
X70438095Y57438096D01*
X70742857Y57438096D01*
X70819047Y57400000D01*
X70857142Y57361905D01*
X70895238Y57285715D01*
X70895238Y57171429D01*
X70857142Y57095239D01*
X70819047Y57057143D01*
X70742857Y57019048D01*
X70438095Y57019048D01*
X71200000Y56866667D02*
X71580952Y56866667D01*
X71123809Y56638096D02*
X71390476Y57438096D01*
X71657142Y56638096D01*
X71923809Y56638096D02*
X71923809Y57438096D01*
X72685714Y56638096D02*
X72304761Y56638096D01*
X72304761Y57438096D01*
X72952380Y56942858D02*
X73561904Y56942858D01*
X73257142Y56638096D02*
X73257142Y57247620D01*
X70895238Y68638096D02*
X70628571Y69019048D01*
X70438095Y68638096D02*
X70438095Y69438096D01*
X70742857Y69438096D01*
X70819047Y69400000D01*
X70857142Y69361905D01*
X70895238Y69285715D01*
X70895238Y69171429D01*
X70857142Y69095239D01*
X70819047Y69057143D01*
X70742857Y69019048D01*
X70438095Y69019048D01*
X71200000Y68866667D02*
X71580952Y68866667D01*
X71123809Y68638096D02*
X71390476Y69438096D01*
X71657142Y68638096D01*
X71923809Y68638096D02*
X71923809Y69438096D01*
X72685714Y68638096D02*
X72304761Y68638096D01*
X72304761Y69438096D01*
X72952380Y68942858D02*
X73561904Y68942858D01*
X73257142Y68638096D02*
X73257142Y69247620D01*
X70895238Y80638096D02*
X70628571Y81019048D01*
X70438095Y80638096D02*
X70438095Y81438096D01*
X70742857Y81438096D01*
X70819047Y81400000D01*
X70857142Y81361905D01*
X70895238Y81285715D01*
X70895238Y81171429D01*
X70857142Y81095239D01*
X70819047Y81057143D01*
X70742857Y81019048D01*
X70438095Y81019048D01*
X71200000Y80866667D02*
X71580952Y80866667D01*
X71123809Y80638096D02*
X71390476Y81438096D01*
X71657142Y80638096D01*
X71923809Y80638096D02*
X71923809Y81438096D01*
X72685714Y80638096D02*
X72304761Y80638096D01*
X72304761Y81438096D01*
X72952380Y80942858D02*
X73561904Y80942858D01*
X73257142Y80638096D02*
X73257142Y81247620D01*
D12*
X35264619Y3338096D02*
X34997952Y3719048D01*
X34807476Y3338096D02*
X34807476Y4138096D01*
X35112238Y4138096D01*
X35188428Y4100000D01*
X35226523Y4061905D01*
X35264619Y3985715D01*
X35264619Y3871429D01*
X35226523Y3795239D01*
X35188428Y3757143D01*
X35112238Y3719048D01*
X34807476Y3719048D01*
X35912238Y3376191D02*
X35836047Y3338096D01*
X35683666Y3338096D01*
X35607476Y3376191D01*
X35569380Y3452381D01*
X35569380Y3757143D01*
X35607476Y3833334D01*
X35683666Y3871429D01*
X35836047Y3871429D01*
X35912238Y3833334D01*
X35950333Y3757143D01*
X35950333Y3680953D01*
X35569380Y3604762D01*
X36217000Y3871429D02*
X36407476Y3338096D01*
X36597952Y3871429D01*
X36902714Y3414286D02*
X36940809Y3376191D01*
X36902714Y3338096D01*
X36864619Y3376191D01*
X36902714Y3414286D01*
X36902714Y3338096D01*
X37702714Y3338096D02*
X37245571Y3338096D01*
X37474142Y3338096D02*
X37474142Y4138096D01*
X37397952Y4023810D01*
X37321761Y3947620D01*
X37245571Y3909524D01*
X38617000Y4061905D02*
X38655095Y4100000D01*
X38731285Y4138096D01*
X38921761Y4138096D01*
X38997952Y4100000D01*
X39036047Y4061905D01*
X39074142Y3985715D01*
X39074142Y3909524D01*
X39036047Y3795239D01*
X38578904Y3338096D01*
X39074142Y3338096D01*
X39569380Y4138096D02*
X39645571Y4138096D01*
X39721761Y4100000D01*
X39759857Y4061905D01*
X39797952Y3985715D01*
X39836047Y3833334D01*
X39836047Y3642858D01*
X39797952Y3490477D01*
X39759857Y3414286D01*
X39721761Y3376191D01*
X39645571Y3338096D01*
X39569380Y3338096D01*
X39493190Y3376191D01*
X39455095Y3414286D01*
X39417000Y3490477D01*
X39378904Y3642858D01*
X39378904Y3833334D01*
X39417000Y3985715D01*
X39455095Y4061905D01*
X39493190Y4100000D01*
X39569380Y4138096D01*
X40140809Y4061905D02*
X40178904Y4100000D01*
X40255095Y4138096D01*
X40445571Y4138096D01*
X40521761Y4100000D01*
X40559857Y4061905D01*
X40597952Y3985715D01*
X40597952Y3909524D01*
X40559857Y3795239D01*
X40102714Y3338096D01*
X40597952Y3338096D01*
X41359857Y3338096D02*
X40902714Y3338096D01*
X41131285Y3338096D02*
X41131285Y4138096D01*
X41055095Y4023810D01*
X40978904Y3947620D01*
X40902714Y3909524D01*
X41702714Y3414286D02*
X41740809Y3376191D01*
X41702714Y3338096D01*
X41664619Y3376191D01*
X41702714Y3414286D01*
X41702714Y3338096D01*
X42236047Y4138096D02*
X42312238Y4138096D01*
X42388428Y4100000D01*
X42426523Y4061905D01*
X42464619Y3985715D01*
X42502714Y3833334D01*
X42502714Y3642858D01*
X42464619Y3490477D01*
X42426523Y3414286D01*
X42388428Y3376191D01*
X42312238Y3338096D01*
X42236047Y3338096D01*
X42159857Y3376191D01*
X42121761Y3414286D01*
X42083666Y3490477D01*
X42045571Y3642858D01*
X42045571Y3833334D01*
X42083666Y3985715D01*
X42121761Y4061905D01*
X42159857Y4100000D01*
X42236047Y4138096D01*
X42769380Y4138096D02*
X43264619Y4138096D01*
X42997952Y3833334D01*
X43112238Y3833334D01*
X43188428Y3795239D01*
X43226523Y3757143D01*
X43264619Y3680953D01*
X43264619Y3490477D01*
X43226523Y3414286D01*
X43188428Y3376191D01*
X43112238Y3338096D01*
X42883666Y3338096D01*
X42807476Y3376191D01*
X42769380Y3414286D01*
X35264619Y15338096D02*
X34997952Y15719048D01*
X34807476Y15338096D02*
X34807476Y16138096D01*
X35112238Y16138096D01*
X35188428Y16100000D01*
X35226523Y16061905D01*
X35264619Y15985715D01*
X35264619Y15871429D01*
X35226523Y15795239D01*
X35188428Y15757143D01*
X35112238Y15719048D01*
X34807476Y15719048D01*
X35912238Y15376191D02*
X35836047Y15338096D01*
X35683666Y15338096D01*
X35607476Y15376191D01*
X35569380Y15452381D01*
X35569380Y15757143D01*
X35607476Y15833334D01*
X35683666Y15871429D01*
X35836047Y15871429D01*
X35912238Y15833334D01*
X35950333Y15757143D01*
X35950333Y15680953D01*
X35569380Y15604762D01*
X36217000Y15871429D02*
X36407476Y15338096D01*
X36597952Y15871429D01*
X36902714Y15414286D02*
X36940809Y15376191D01*
X36902714Y15338096D01*
X36864619Y15376191D01*
X36902714Y15414286D01*
X36902714Y15338096D01*
X37702714Y15338096D02*
X37245571Y15338096D01*
X37474142Y15338096D02*
X37474142Y16138096D01*
X37397952Y16023810D01*
X37321761Y15947620D01*
X37245571Y15909524D01*
X38617000Y16061905D02*
X38655095Y16100000D01*
X38731285Y16138096D01*
X38921761Y16138096D01*
X38997952Y16100000D01*
X39036047Y16061905D01*
X39074142Y15985715D01*
X39074142Y15909524D01*
X39036047Y15795239D01*
X38578904Y15338096D01*
X39074142Y15338096D01*
X39569380Y16138096D02*
X39645571Y16138096D01*
X39721761Y16100000D01*
X39759857Y16061905D01*
X39797952Y15985715D01*
X39836047Y15833334D01*
X39836047Y15642858D01*
X39797952Y15490477D01*
X39759857Y15414286D01*
X39721761Y15376191D01*
X39645571Y15338096D01*
X39569380Y15338096D01*
X39493190Y15376191D01*
X39455095Y15414286D01*
X39417000Y15490477D01*
X39378904Y15642858D01*
X39378904Y15833334D01*
X39417000Y15985715D01*
X39455095Y16061905D01*
X39493190Y16100000D01*
X39569380Y16138096D01*
X40140809Y16061905D02*
X40178904Y16100000D01*
X40255095Y16138096D01*
X40445571Y16138096D01*
X40521761Y16100000D01*
X40559857Y16061905D01*
X40597952Y15985715D01*
X40597952Y15909524D01*
X40559857Y15795239D01*
X40102714Y15338096D01*
X40597952Y15338096D01*
X41359857Y15338096D02*
X40902714Y15338096D01*
X41131285Y15338096D02*
X41131285Y16138096D01*
X41055095Y16023810D01*
X40978904Y15947620D01*
X40902714Y15909524D01*
X41702714Y15414286D02*
X41740809Y15376191D01*
X41702714Y15338096D01*
X41664619Y15376191D01*
X41702714Y15414286D01*
X41702714Y15338096D01*
X42236047Y16138096D02*
X42312238Y16138096D01*
X42388428Y16100000D01*
X42426523Y16061905D01*
X42464619Y15985715D01*
X42502714Y15833334D01*
X42502714Y15642858D01*
X42464619Y15490477D01*
X42426523Y15414286D01*
X42388428Y15376191D01*
X42312238Y15338096D01*
X42236047Y15338096D01*
X42159857Y15376191D01*
X42121761Y15414286D01*
X42083666Y15490477D01*
X42045571Y15642858D01*
X42045571Y15833334D01*
X42083666Y15985715D01*
X42121761Y16061905D01*
X42159857Y16100000D01*
X42236047Y16138096D01*
X42769380Y16138096D02*
X43264619Y16138096D01*
X42997952Y15833334D01*
X43112238Y15833334D01*
X43188428Y15795239D01*
X43226523Y15757143D01*
X43264619Y15680953D01*
X43264619Y15490477D01*
X43226523Y15414286D01*
X43188428Y15376191D01*
X43112238Y15338096D01*
X42883666Y15338096D01*
X42807476Y15376191D01*
X42769380Y15414286D01*
X35264619Y27338096D02*
X34997952Y27719048D01*
X34807476Y27338096D02*
X34807476Y28138096D01*
X35112238Y28138096D01*
X35188428Y28100000D01*
X35226523Y28061905D01*
X35264619Y27985715D01*
X35264619Y27871429D01*
X35226523Y27795239D01*
X35188428Y27757143D01*
X35112238Y27719048D01*
X34807476Y27719048D01*
X35912238Y27376191D02*
X35836047Y27338096D01*
X35683666Y27338096D01*
X35607476Y27376191D01*
X35569380Y27452381D01*
X35569380Y27757143D01*
X35607476Y27833334D01*
X35683666Y27871429D01*
X35836047Y27871429D01*
X35912238Y27833334D01*
X35950333Y27757143D01*
X35950333Y27680953D01*
X35569380Y27604762D01*
X36217000Y27871429D02*
X36407476Y27338096D01*
X36597952Y27871429D01*
X36902714Y27414286D02*
X36940809Y27376191D01*
X36902714Y27338096D01*
X36864619Y27376191D01*
X36902714Y27414286D01*
X36902714Y27338096D01*
X37702714Y27338096D02*
X37245571Y27338096D01*
X37474142Y27338096D02*
X37474142Y28138096D01*
X37397952Y28023810D01*
X37321761Y27947620D01*
X37245571Y27909524D01*
X38617000Y28061905D02*
X38655095Y28100000D01*
X38731285Y28138096D01*
X38921761Y28138096D01*
X38997952Y28100000D01*
X39036047Y28061905D01*
X39074142Y27985715D01*
X39074142Y27909524D01*
X39036047Y27795239D01*
X38578904Y27338096D01*
X39074142Y27338096D01*
X39569380Y28138096D02*
X39645571Y28138096D01*
X39721761Y28100000D01*
X39759857Y28061905D01*
X39797952Y27985715D01*
X39836047Y27833334D01*
X39836047Y27642858D01*
X39797952Y27490477D01*
X39759857Y27414286D01*
X39721761Y27376191D01*
X39645571Y27338096D01*
X39569380Y27338096D01*
X39493190Y27376191D01*
X39455095Y27414286D01*
X39417000Y27490477D01*
X39378904Y27642858D01*
X39378904Y27833334D01*
X39417000Y27985715D01*
X39455095Y28061905D01*
X39493190Y28100000D01*
X39569380Y28138096D01*
X40140809Y28061905D02*
X40178904Y28100000D01*
X40255095Y28138096D01*
X40445571Y28138096D01*
X40521761Y28100000D01*
X40559857Y28061905D01*
X40597952Y27985715D01*
X40597952Y27909524D01*
X40559857Y27795239D01*
X40102714Y27338096D01*
X40597952Y27338096D01*
X41359857Y27338096D02*
X40902714Y27338096D01*
X41131285Y27338096D02*
X41131285Y28138096D01*
X41055095Y28023810D01*
X40978904Y27947620D01*
X40902714Y27909524D01*
X41702714Y27414286D02*
X41740809Y27376191D01*
X41702714Y27338096D01*
X41664619Y27376191D01*
X41702714Y27414286D01*
X41702714Y27338096D01*
X42236047Y28138096D02*
X42312238Y28138096D01*
X42388428Y28100000D01*
X42426523Y28061905D01*
X42464619Y27985715D01*
X42502714Y27833334D01*
X42502714Y27642858D01*
X42464619Y27490477D01*
X42426523Y27414286D01*
X42388428Y27376191D01*
X42312238Y27338096D01*
X42236047Y27338096D01*
X42159857Y27376191D01*
X42121761Y27414286D01*
X42083666Y27490477D01*
X42045571Y27642858D01*
X42045571Y27833334D01*
X42083666Y27985715D01*
X42121761Y28061905D01*
X42159857Y28100000D01*
X42236047Y28138096D01*
X42769380Y28138096D02*
X43264619Y28138096D01*
X42997952Y27833334D01*
X43112238Y27833334D01*
X43188428Y27795239D01*
X43226523Y27757143D01*
X43264619Y27680953D01*
X43264619Y27490477D01*
X43226523Y27414286D01*
X43188428Y27376191D01*
X43112238Y27338096D01*
X42883666Y27338096D01*
X42807476Y27376191D01*
X42769380Y27414286D01*
X35264619Y39338096D02*
X34997952Y39719048D01*
X34807476Y39338096D02*
X34807476Y40138096D01*
X35112238Y40138096D01*
X35188428Y40100000D01*
X35226523Y40061905D01*
X35264619Y39985715D01*
X35264619Y39871429D01*
X35226523Y39795239D01*
X35188428Y39757143D01*
X35112238Y39719048D01*
X34807476Y39719048D01*
X35912238Y39376191D02*
X35836047Y39338096D01*
X35683666Y39338096D01*
X35607476Y39376191D01*
X35569380Y39452381D01*
X35569380Y39757143D01*
X35607476Y39833334D01*
X35683666Y39871429D01*
X35836047Y39871429D01*
X35912238Y39833334D01*
X35950333Y39757143D01*
X35950333Y39680953D01*
X35569380Y39604762D01*
X36217000Y39871429D02*
X36407476Y39338096D01*
X36597952Y39871429D01*
X36902714Y39414286D02*
X36940809Y39376191D01*
X36902714Y39338096D01*
X36864619Y39376191D01*
X36902714Y39414286D01*
X36902714Y39338096D01*
X37702714Y39338096D02*
X37245571Y39338096D01*
X37474142Y39338096D02*
X37474142Y40138096D01*
X37397952Y40023810D01*
X37321761Y39947620D01*
X37245571Y39909524D01*
X38617000Y40061905D02*
X38655095Y40100000D01*
X38731285Y40138096D01*
X38921761Y40138096D01*
X38997952Y40100000D01*
X39036047Y40061905D01*
X39074142Y39985715D01*
X39074142Y39909524D01*
X39036047Y39795239D01*
X38578904Y39338096D01*
X39074142Y39338096D01*
X39569380Y40138096D02*
X39645571Y40138096D01*
X39721761Y40100000D01*
X39759857Y40061905D01*
X39797952Y39985715D01*
X39836047Y39833334D01*
X39836047Y39642858D01*
X39797952Y39490477D01*
X39759857Y39414286D01*
X39721761Y39376191D01*
X39645571Y39338096D01*
X39569380Y39338096D01*
X39493190Y39376191D01*
X39455095Y39414286D01*
X39417000Y39490477D01*
X39378904Y39642858D01*
X39378904Y39833334D01*
X39417000Y39985715D01*
X39455095Y40061905D01*
X39493190Y40100000D01*
X39569380Y40138096D01*
X40140809Y40061905D02*
X40178904Y40100000D01*
X40255095Y40138096D01*
X40445571Y40138096D01*
X40521761Y40100000D01*
X40559857Y40061905D01*
X40597952Y39985715D01*
X40597952Y39909524D01*
X40559857Y39795239D01*
X40102714Y39338096D01*
X40597952Y39338096D01*
X41359857Y39338096D02*
X40902714Y39338096D01*
X41131285Y39338096D02*
X41131285Y40138096D01*
X41055095Y40023810D01*
X40978904Y39947620D01*
X40902714Y39909524D01*
X41702714Y39414286D02*
X41740809Y39376191D01*
X41702714Y39338096D01*
X41664619Y39376191D01*
X41702714Y39414286D01*
X41702714Y39338096D01*
X42236047Y40138096D02*
X42312238Y40138096D01*
X42388428Y40100000D01*
X42426523Y40061905D01*
X42464619Y39985715D01*
X42502714Y39833334D01*
X42502714Y39642858D01*
X42464619Y39490477D01*
X42426523Y39414286D01*
X42388428Y39376191D01*
X42312238Y39338096D01*
X42236047Y39338096D01*
X42159857Y39376191D01*
X42121761Y39414286D01*
X42083666Y39490477D01*
X42045571Y39642858D01*
X42045571Y39833334D01*
X42083666Y39985715D01*
X42121761Y40061905D01*
X42159857Y40100000D01*
X42236047Y40138096D01*
X42769380Y40138096D02*
X43264619Y40138096D01*
X42997952Y39833334D01*
X43112238Y39833334D01*
X43188428Y39795239D01*
X43226523Y39757143D01*
X43264619Y39680953D01*
X43264619Y39490477D01*
X43226523Y39414286D01*
X43188428Y39376191D01*
X43112238Y39338096D01*
X42883666Y39338096D01*
X42807476Y39376191D01*
X42769380Y39414286D01*
X35264619Y51338096D02*
X34997952Y51719048D01*
X34807476Y51338096D02*
X34807476Y52138096D01*
X35112238Y52138096D01*
X35188428Y52100000D01*
X35226523Y52061905D01*
X35264619Y51985715D01*
X35264619Y51871429D01*
X35226523Y51795239D01*
X35188428Y51757143D01*
X35112238Y51719048D01*
X34807476Y51719048D01*
X35912238Y51376191D02*
X35836047Y51338096D01*
X35683666Y51338096D01*
X35607476Y51376191D01*
X35569380Y51452381D01*
X35569380Y51757143D01*
X35607476Y51833334D01*
X35683666Y51871429D01*
X35836047Y51871429D01*
X35912238Y51833334D01*
X35950333Y51757143D01*
X35950333Y51680953D01*
X35569380Y51604762D01*
X36217000Y51871429D02*
X36407476Y51338096D01*
X36597952Y51871429D01*
X36902714Y51414286D02*
X36940809Y51376191D01*
X36902714Y51338096D01*
X36864619Y51376191D01*
X36902714Y51414286D01*
X36902714Y51338096D01*
X37702714Y51338096D02*
X37245571Y51338096D01*
X37474142Y51338096D02*
X37474142Y52138096D01*
X37397952Y52023810D01*
X37321761Y51947620D01*
X37245571Y51909524D01*
X38617000Y52061905D02*
X38655095Y52100000D01*
X38731285Y52138096D01*
X38921761Y52138096D01*
X38997952Y52100000D01*
X39036047Y52061905D01*
X39074142Y51985715D01*
X39074142Y51909524D01*
X39036047Y51795239D01*
X38578904Y51338096D01*
X39074142Y51338096D01*
X39569380Y52138096D02*
X39645571Y52138096D01*
X39721761Y52100000D01*
X39759857Y52061905D01*
X39797952Y51985715D01*
X39836047Y51833334D01*
X39836047Y51642858D01*
X39797952Y51490477D01*
X39759857Y51414286D01*
X39721761Y51376191D01*
X39645571Y51338096D01*
X39569380Y51338096D01*
X39493190Y51376191D01*
X39455095Y51414286D01*
X39417000Y51490477D01*
X39378904Y51642858D01*
X39378904Y51833334D01*
X39417000Y51985715D01*
X39455095Y52061905D01*
X39493190Y52100000D01*
X39569380Y52138096D01*
X40140809Y52061905D02*
X40178904Y52100000D01*
X40255095Y52138096D01*
X40445571Y52138096D01*
X40521761Y52100000D01*
X40559857Y52061905D01*
X40597952Y51985715D01*
X40597952Y51909524D01*
X40559857Y51795239D01*
X40102714Y51338096D01*
X40597952Y51338096D01*
X41359857Y51338096D02*
X40902714Y51338096D01*
X41131285Y51338096D02*
X41131285Y52138096D01*
X41055095Y52023810D01*
X40978904Y51947620D01*
X40902714Y51909524D01*
X41702714Y51414286D02*
X41740809Y51376191D01*
X41702714Y51338096D01*
X41664619Y51376191D01*
X41702714Y51414286D01*
X41702714Y51338096D01*
X42236047Y52138096D02*
X42312238Y52138096D01*
X42388428Y52100000D01*
X42426523Y52061905D01*
X42464619Y51985715D01*
X42502714Y51833334D01*
X42502714Y51642858D01*
X42464619Y51490477D01*
X42426523Y51414286D01*
X42388428Y51376191D01*
X42312238Y51338096D01*
X42236047Y51338096D01*
X42159857Y51376191D01*
X42121761Y51414286D01*
X42083666Y51490477D01*
X42045571Y51642858D01*
X42045571Y51833334D01*
X42083666Y51985715D01*
X42121761Y52061905D01*
X42159857Y52100000D01*
X42236047Y52138096D01*
X42769380Y52138096D02*
X43264619Y52138096D01*
X42997952Y51833334D01*
X43112238Y51833334D01*
X43188428Y51795239D01*
X43226523Y51757143D01*
X43264619Y51680953D01*
X43264619Y51490477D01*
X43226523Y51414286D01*
X43188428Y51376191D01*
X43112238Y51338096D01*
X42883666Y51338096D01*
X42807476Y51376191D01*
X42769380Y51414286D01*
X35264619Y63338096D02*
X34997952Y63719048D01*
X34807476Y63338096D02*
X34807476Y64138096D01*
X35112238Y64138096D01*
X35188428Y64100000D01*
X35226523Y64061905D01*
X35264619Y63985715D01*
X35264619Y63871429D01*
X35226523Y63795239D01*
X35188428Y63757143D01*
X35112238Y63719048D01*
X34807476Y63719048D01*
X35912238Y63376191D02*
X35836047Y63338096D01*
X35683666Y63338096D01*
X35607476Y63376191D01*
X35569380Y63452381D01*
X35569380Y63757143D01*
X35607476Y63833334D01*
X35683666Y63871429D01*
X35836047Y63871429D01*
X35912238Y63833334D01*
X35950333Y63757143D01*
X35950333Y63680953D01*
X35569380Y63604762D01*
X36217000Y63871429D02*
X36407476Y63338096D01*
X36597952Y63871429D01*
X36902714Y63414286D02*
X36940809Y63376191D01*
X36902714Y63338096D01*
X36864619Y63376191D01*
X36902714Y63414286D01*
X36902714Y63338096D01*
X37702714Y63338096D02*
X37245571Y63338096D01*
X37474142Y63338096D02*
X37474142Y64138096D01*
X37397952Y64023810D01*
X37321761Y63947620D01*
X37245571Y63909524D01*
X38617000Y64061905D02*
X38655095Y64100000D01*
X38731285Y64138096D01*
X38921761Y64138096D01*
X38997952Y64100000D01*
X39036047Y64061905D01*
X39074142Y63985715D01*
X39074142Y63909524D01*
X39036047Y63795239D01*
X38578904Y63338096D01*
X39074142Y63338096D01*
X39569380Y64138096D02*
X39645571Y64138096D01*
X39721761Y64100000D01*
X39759857Y64061905D01*
X39797952Y63985715D01*
X39836047Y63833334D01*
X39836047Y63642858D01*
X39797952Y63490477D01*
X39759857Y63414286D01*
X39721761Y63376191D01*
X39645571Y63338096D01*
X39569380Y63338096D01*
X39493190Y63376191D01*
X39455095Y63414286D01*
X39417000Y63490477D01*
X39378904Y63642858D01*
X39378904Y63833334D01*
X39417000Y63985715D01*
X39455095Y64061905D01*
X39493190Y64100000D01*
X39569380Y64138096D01*
X40140809Y64061905D02*
X40178904Y64100000D01*
X40255095Y64138096D01*
X40445571Y64138096D01*
X40521761Y64100000D01*
X40559857Y64061905D01*
X40597952Y63985715D01*
X40597952Y63909524D01*
X40559857Y63795239D01*
X40102714Y63338096D01*
X40597952Y63338096D01*
X41359857Y63338096D02*
X40902714Y63338096D01*
X41131285Y63338096D02*
X41131285Y64138096D01*
X41055095Y64023810D01*
X40978904Y63947620D01*
X40902714Y63909524D01*
X41702714Y63414286D02*
X41740809Y63376191D01*
X41702714Y63338096D01*
X41664619Y63376191D01*
X41702714Y63414286D01*
X41702714Y63338096D01*
X42236047Y64138096D02*
X42312238Y64138096D01*
X42388428Y64100000D01*
X42426523Y64061905D01*
X42464619Y63985715D01*
X42502714Y63833334D01*
X42502714Y63642858D01*
X42464619Y63490477D01*
X42426523Y63414286D01*
X42388428Y63376191D01*
X42312238Y63338096D01*
X42236047Y63338096D01*
X42159857Y63376191D01*
X42121761Y63414286D01*
X42083666Y63490477D01*
X42045571Y63642858D01*
X42045571Y63833334D01*
X42083666Y63985715D01*
X42121761Y64061905D01*
X42159857Y64100000D01*
X42236047Y64138096D01*
X42769380Y64138096D02*
X43264619Y64138096D01*
X42997952Y63833334D01*
X43112238Y63833334D01*
X43188428Y63795239D01*
X43226523Y63757143D01*
X43264619Y63680953D01*
X43264619Y63490477D01*
X43226523Y63414286D01*
X43188428Y63376191D01*
X43112238Y63338096D01*
X42883666Y63338096D01*
X42807476Y63376191D01*
X42769380Y63414286D01*
X35264619Y75338096D02*
X34997952Y75719048D01*
X34807476Y75338096D02*
X34807476Y76138096D01*
X35112238Y76138096D01*
X35188428Y76100000D01*
X35226523Y76061905D01*
X35264619Y75985715D01*
X35264619Y75871429D01*
X35226523Y75795239D01*
X35188428Y75757143D01*
X35112238Y75719048D01*
X34807476Y75719048D01*
X35912238Y75376191D02*
X35836047Y75338096D01*
X35683666Y75338096D01*
X35607476Y75376191D01*
X35569380Y75452381D01*
X35569380Y75757143D01*
X35607476Y75833334D01*
X35683666Y75871429D01*
X35836047Y75871429D01*
X35912238Y75833334D01*
X35950333Y75757143D01*
X35950333Y75680953D01*
X35569380Y75604762D01*
X36217000Y75871429D02*
X36407476Y75338096D01*
X36597952Y75871429D01*
X36902714Y75414286D02*
X36940809Y75376191D01*
X36902714Y75338096D01*
X36864619Y75376191D01*
X36902714Y75414286D01*
X36902714Y75338096D01*
X37702714Y75338096D02*
X37245571Y75338096D01*
X37474142Y75338096D02*
X37474142Y76138096D01*
X37397952Y76023810D01*
X37321761Y75947620D01*
X37245571Y75909524D01*
X38617000Y76061905D02*
X38655095Y76100000D01*
X38731285Y76138096D01*
X38921761Y76138096D01*
X38997952Y76100000D01*
X39036047Y76061905D01*
X39074142Y75985715D01*
X39074142Y75909524D01*
X39036047Y75795239D01*
X38578904Y75338096D01*
X39074142Y75338096D01*
X39569380Y76138096D02*
X39645571Y76138096D01*
X39721761Y76100000D01*
X39759857Y76061905D01*
X39797952Y75985715D01*
X39836047Y75833334D01*
X39836047Y75642858D01*
X39797952Y75490477D01*
X39759857Y75414286D01*
X39721761Y75376191D01*
X39645571Y75338096D01*
X39569380Y75338096D01*
X39493190Y75376191D01*
X39455095Y75414286D01*
X39417000Y75490477D01*
X39378904Y75642858D01*
X39378904Y75833334D01*
X39417000Y75985715D01*
X39455095Y76061905D01*
X39493190Y76100000D01*
X39569380Y76138096D01*
X40140809Y76061905D02*
X40178904Y76100000D01*
X40255095Y76138096D01*
X40445571Y76138096D01*
X40521761Y76100000D01*
X40559857Y76061905D01*
X40597952Y75985715D01*
X40597952Y75909524D01*
X40559857Y75795239D01*
X40102714Y75338096D01*
X40597952Y75338096D01*
X41359857Y75338096D02*
X40902714Y75338096D01*
X41131285Y75338096D02*
X41131285Y76138096D01*
X41055095Y76023810D01*
X40978904Y75947620D01*
X40902714Y75909524D01*
X41702714Y75414286D02*
X41740809Y75376191D01*
X41702714Y75338096D01*
X41664619Y75376191D01*
X41702714Y75414286D01*
X41702714Y75338096D01*
X42236047Y76138096D02*
X42312238Y76138096D01*
X42388428Y76100000D01*
X42426523Y76061905D01*
X42464619Y75985715D01*
X42502714Y75833334D01*
X42502714Y75642858D01*
X42464619Y75490477D01*
X42426523Y75414286D01*
X42388428Y75376191D01*
X42312238Y75338096D01*
X42236047Y75338096D01*
X42159857Y75376191D01*
X42121761Y75414286D01*
X42083666Y75490477D01*
X42045571Y75642858D01*
X42045571Y75833334D01*
X42083666Y75985715D01*
X42121761Y76061905D01*
X42159857Y76100000D01*
X42236047Y76138096D01*
X42769380Y76138096D02*
X43264619Y76138096D01*
X42997952Y75833334D01*
X43112238Y75833334D01*
X43188428Y75795239D01*
X43226523Y75757143D01*
X43264619Y75680953D01*
X43264619Y75490477D01*
X43226523Y75414286D01*
X43188428Y75376191D01*
X43112238Y75338096D01*
X42883666Y75338096D01*
X42807476Y75376191D01*
X42769380Y75414286D01*
D10*
X55833333Y2357143D02*
X55566666Y2357143D01*
X55566666Y1938096D02*
X55566666Y2738096D01*
X55947619Y2738096D01*
X56633333Y2738096D02*
X56252380Y2738096D01*
X56214285Y2357143D01*
X56252380Y2395239D01*
X56328571Y2433334D01*
X56519047Y2433334D01*
X56595238Y2395239D01*
X56633333Y2357143D01*
X56671428Y2280953D01*
X56671428Y2090477D01*
X56633333Y2014286D01*
X56595238Y1976191D01*
X56519047Y1938096D01*
X56328571Y1938096D01*
X56252380Y1976191D01*
X56214285Y2014286D01*
X55833333Y14357143D02*
X55566666Y14357143D01*
X55566666Y13938096D02*
X55566666Y14738096D01*
X55947619Y14738096D01*
X56633333Y14738096D02*
X56252380Y14738096D01*
X56214285Y14357143D01*
X56252380Y14395239D01*
X56328571Y14433334D01*
X56519047Y14433334D01*
X56595238Y14395239D01*
X56633333Y14357143D01*
X56671428Y14280953D01*
X56671428Y14090477D01*
X56633333Y14014286D01*
X56595238Y13976191D01*
X56519047Y13938096D01*
X56328571Y13938096D01*
X56252380Y13976191D01*
X56214285Y14014286D01*
X55833333Y26357143D02*
X55566666Y26357143D01*
X55566666Y25938096D02*
X55566666Y26738096D01*
X55947619Y26738096D01*
X56633333Y26738096D02*
X56252380Y26738096D01*
X56214285Y26357143D01*
X56252380Y26395239D01*
X56328571Y26433334D01*
X56519047Y26433334D01*
X56595238Y26395239D01*
X56633333Y26357143D01*
X56671428Y26280953D01*
X56671428Y26090477D01*
X56633333Y26014286D01*
X56595238Y25976191D01*
X56519047Y25938096D01*
X56328571Y25938096D01*
X56252380Y25976191D01*
X56214285Y26014286D01*
X55833333Y38357143D02*
X55566666Y38357143D01*
X55566666Y37938096D02*
X55566666Y38738096D01*
X55947619Y38738096D01*
X56633333Y38738096D02*
X56252380Y38738096D01*
X56214285Y38357143D01*
X56252380Y38395239D01*
X56328571Y38433334D01*
X56519047Y38433334D01*
X56595238Y38395239D01*
X56633333Y38357143D01*
X56671428Y38280953D01*
X56671428Y38090477D01*
X56633333Y38014286D01*
X56595238Y37976191D01*
X56519047Y37938096D01*
X56328571Y37938096D01*
X56252380Y37976191D01*
X56214285Y38014286D01*
X55833333Y50357143D02*
X55566666Y50357143D01*
X55566666Y49938096D02*
X55566666Y50738096D01*
X55947619Y50738096D01*
X56633333Y50738096D02*
X56252380Y50738096D01*
X56214285Y50357143D01*
X56252380Y50395239D01*
X56328571Y50433334D01*
X56519047Y50433334D01*
X56595238Y50395239D01*
X56633333Y50357143D01*
X56671428Y50280953D01*
X56671428Y50090477D01*
X56633333Y50014286D01*
X56595238Y49976191D01*
X56519047Y49938096D01*
X56328571Y49938096D01*
X56252380Y49976191D01*
X56214285Y50014286D01*
X55833333Y62357143D02*
X55566666Y62357143D01*
X55566666Y61938096D02*
X55566666Y62738096D01*
X55947619Y62738096D01*
X56633333Y62738096D02*
X56252380Y62738096D01*
X56214285Y62357143D01*
X56252380Y62395239D01*
X56328571Y62433334D01*
X56519047Y62433334D01*
X56595238Y62395239D01*
X56633333Y62357143D01*
X56671428Y62280953D01*
X56671428Y62090477D01*
X56633333Y62014286D01*
X56595238Y61976191D01*
X56519047Y61938096D01*
X56328571Y61938096D01*
X56252380Y61976191D01*
X56214285Y62014286D01*
X55833333Y74357143D02*
X55566666Y74357143D01*
X55566666Y73938096D02*
X55566666Y74738096D01*
X55947619Y74738096D01*
X56633333Y74738096D02*
X56252380Y74738096D01*
X56214285Y74357143D01*
X56252380Y74395239D01*
X56328571Y74433334D01*
X56519047Y74433334D01*
X56595238Y74395239D01*
X56633333Y74357143D01*
X56671428Y74280953D01*
X56671428Y74090477D01*
X56633333Y74014286D01*
X56595238Y73976191D01*
X56519047Y73938096D01*
X56328571Y73938096D01*
X56252380Y73976191D01*
X56214285Y74014286D01*
X24433333Y6857143D02*
X24166666Y6857143D01*
X24166666Y6438096D02*
X24166666Y7238096D01*
X24547619Y7238096D01*
X25271428Y6438096D02*
X24814285Y6438096D01*
X25042857Y6438096D02*
X25042857Y7238096D01*
X24966666Y7123810D01*
X24890476Y7047620D01*
X24814285Y7009524D01*
X24433333Y18857143D02*
X24166666Y18857143D01*
X24166666Y18438096D02*
X24166666Y19238096D01*
X24547619Y19238096D01*
X25271428Y18438096D02*
X24814285Y18438096D01*
X25042857Y18438096D02*
X25042857Y19238096D01*
X24966666Y19123810D01*
X24890476Y19047620D01*
X24814285Y19009524D01*
X24433333Y30857143D02*
X24166666Y30857143D01*
X24166666Y30438096D02*
X24166666Y31238096D01*
X24547619Y31238096D01*
X25271428Y30438096D02*
X24814285Y30438096D01*
X25042857Y30438096D02*
X25042857Y31238096D01*
X24966666Y31123810D01*
X24890476Y31047620D01*
X24814285Y31009524D01*
X24433333Y42857143D02*
X24166666Y42857143D01*
X24166666Y42438096D02*
X24166666Y43238096D01*
X24547619Y43238096D01*
X25271428Y42438096D02*
X24814285Y42438096D01*
X25042857Y42438096D02*
X25042857Y43238096D01*
X24966666Y43123810D01*
X24890476Y43047620D01*
X24814285Y43009524D01*
X24433333Y54857143D02*
X24166666Y54857143D01*
X24166666Y54438096D02*
X24166666Y55238096D01*
X24547619Y55238096D01*
X25271428Y54438096D02*
X24814285Y54438096D01*
X25042857Y54438096D02*
X25042857Y55238096D01*
X24966666Y55123810D01*
X24890476Y55047620D01*
X24814285Y55009524D01*
X24433333Y66857143D02*
X24166666Y66857143D01*
X24166666Y66438096D02*
X24166666Y67238096D01*
X24547619Y67238096D01*
X25271428Y66438096D02*
X24814285Y66438096D01*
X25042857Y66438096D02*
X25042857Y67238096D01*
X24966666Y67123810D01*
X24890476Y67047620D01*
X24814285Y67009524D01*
X24433333Y78857143D02*
X24166666Y78857143D01*
X24166666Y78438096D02*
X24166666Y79238096D01*
X24547619Y79238096D01*
X25271428Y78438096D02*
X24814285Y78438096D01*
X25042857Y78438096D02*
X25042857Y79238096D01*
X24966666Y79123810D01*
X24890476Y79047620D01*
X24814285Y79009524D01*
X59233333Y2457143D02*
X58966666Y2457143D01*
X58966666Y2038096D02*
X58966666Y2838096D01*
X59347619Y2838096D01*
X59576190Y2838096D02*
X60071428Y2838096D01*
X59804761Y2533334D01*
X59919047Y2533334D01*
X59995238Y2495239D01*
X60033333Y2457143D01*
X60071428Y2380953D01*
X60071428Y2190477D01*
X60033333Y2114286D01*
X59995238Y2076191D01*
X59919047Y2038096D01*
X59690476Y2038096D01*
X59614285Y2076191D01*
X59576190Y2114286D01*
X59233333Y14457143D02*
X58966666Y14457143D01*
X58966666Y14038096D02*
X58966666Y14838096D01*
X59347619Y14838096D01*
X59576190Y14838096D02*
X60071428Y14838096D01*
X59804761Y14533334D01*
X59919047Y14533334D01*
X59995238Y14495239D01*
X60033333Y14457143D01*
X60071428Y14380953D01*
X60071428Y14190477D01*
X60033333Y14114286D01*
X59995238Y14076191D01*
X59919047Y14038096D01*
X59690476Y14038096D01*
X59614285Y14076191D01*
X59576190Y14114286D01*
X59233333Y26457143D02*
X58966666Y26457143D01*
X58966666Y26038096D02*
X58966666Y26838096D01*
X59347619Y26838096D01*
X59576190Y26838096D02*
X60071428Y26838096D01*
X59804761Y26533334D01*
X59919047Y26533334D01*
X59995238Y26495239D01*
X60033333Y26457143D01*
X60071428Y26380953D01*
X60071428Y26190477D01*
X60033333Y26114286D01*
X59995238Y26076191D01*
X59919047Y26038096D01*
X59690476Y26038096D01*
X59614285Y26076191D01*
X59576190Y26114286D01*
X59233333Y38457143D02*
X58966666Y38457143D01*
X58966666Y38038096D02*
X58966666Y38838096D01*
X59347619Y38838096D01*
X59576190Y38838096D02*
X60071428Y38838096D01*
X59804761Y38533334D01*
X59919047Y38533334D01*
X59995238Y38495239D01*
X60033333Y38457143D01*
X60071428Y38380953D01*
X60071428Y38190477D01*
X60033333Y38114286D01*
X59995238Y38076191D01*
X59919047Y38038096D01*
X59690476Y38038096D01*
X59614285Y38076191D01*
X59576190Y38114286D01*
X59233333Y50457143D02*
X58966666Y50457143D01*
X58966666Y50038096D02*
X58966666Y50838096D01*
X59347619Y50838096D01*
X59576190Y50838096D02*
X60071428Y50838096D01*
X59804761Y50533334D01*
X59919047Y50533334D01*
X59995238Y50495239D01*
X60033333Y50457143D01*
X60071428Y50380953D01*
X60071428Y50190477D01*
X60033333Y50114286D01*
X59995238Y50076191D01*
X59919047Y50038096D01*
X59690476Y50038096D01*
X59614285Y50076191D01*
X59576190Y50114286D01*
X59233333Y62457143D02*
X58966666Y62457143D01*
X58966666Y62038096D02*
X58966666Y62838096D01*
X59347619Y62838096D01*
X59576190Y62838096D02*
X60071428Y62838096D01*
X59804761Y62533334D01*
X59919047Y62533334D01*
X59995238Y62495239D01*
X60033333Y62457143D01*
X60071428Y62380953D01*
X60071428Y62190477D01*
X60033333Y62114286D01*
X59995238Y62076191D01*
X59919047Y62038096D01*
X59690476Y62038096D01*
X59614285Y62076191D01*
X59576190Y62114286D01*
X59233333Y74457143D02*
X58966666Y74457143D01*
X58966666Y74038096D02*
X58966666Y74838096D01*
X59347619Y74838096D01*
X59576190Y74838096D02*
X60071428Y74838096D01*
X59804761Y74533334D01*
X59919047Y74533334D01*
X59995238Y74495239D01*
X60033333Y74457143D01*
X60071428Y74380953D01*
X60071428Y74190477D01*
X60033333Y74114286D01*
X59995238Y74076191D01*
X59919047Y74038096D01*
X59690476Y74038096D01*
X59614285Y74076191D01*
X59576190Y74114286D01*
D11*
X9445238Y3192858D02*
X10054761Y3192858D01*
X9750000Y2888096D02*
X9750000Y3497620D01*
X9445238Y15192858D02*
X10054761Y15192858D01*
X9750000Y14888096D02*
X9750000Y15497620D01*
X9445238Y27192858D02*
X10054761Y27192858D01*
X9750000Y26888096D02*
X9750000Y27497620D01*
X9445238Y39192858D02*
X10054761Y39192858D01*
X9750000Y38888096D02*
X9750000Y39497620D01*
X9445238Y51192858D02*
X10054761Y51192858D01*
X9750000Y50888096D02*
X9750000Y51497620D01*
X9445238Y63192858D02*
X10054761Y63192858D01*
X9750000Y62888096D02*
X9750000Y63497620D01*
X9445238Y75192858D02*
X10054761Y75192858D01*
X9750000Y74888096D02*
X9750000Y75497620D01*
X48090476Y842858D02*
X48700000Y842858D01*
X48395238Y538096D02*
X48395238Y1147620D01*
X49500000Y538096D02*
X49042857Y538096D01*
X49271428Y538096D02*
X49271428Y1338096D01*
X49195238Y1223810D01*
X49119047Y1147620D01*
X49042857Y1109524D01*
X49804761Y1261905D02*
X49842857Y1300000D01*
X49919047Y1338096D01*
X50109523Y1338096D01*
X50185714Y1300000D01*
X50223809Y1261905D01*
X50261904Y1185715D01*
X50261904Y1109524D01*
X50223809Y995239D01*
X49766666Y538096D01*
X50261904Y538096D01*
X50490476Y1338096D02*
X50757142Y538096D01*
X51023809Y1338096D01*
X48090476Y12842858D02*
X48700000Y12842858D01*
X48395238Y12538096D02*
X48395238Y13147620D01*
X49500000Y12538096D02*
X49042857Y12538096D01*
X49271428Y12538096D02*
X49271428Y13338096D01*
X49195238Y13223810D01*
X49119047Y13147620D01*
X49042857Y13109524D01*
X49804761Y13261905D02*
X49842857Y13300000D01*
X49919047Y13338096D01*
X50109523Y13338096D01*
X50185714Y13300000D01*
X50223809Y13261905D01*
X50261904Y13185715D01*
X50261904Y13109524D01*
X50223809Y12995239D01*
X49766666Y12538096D01*
X50261904Y12538096D01*
X50490476Y13338096D02*
X50757142Y12538096D01*
X51023809Y13338096D01*
X48090476Y24842858D02*
X48700000Y24842858D01*
X48395238Y24538096D02*
X48395238Y25147620D01*
X49500000Y24538096D02*
X49042857Y24538096D01*
X49271428Y24538096D02*
X49271428Y25338096D01*
X49195238Y25223810D01*
X49119047Y25147620D01*
X49042857Y25109524D01*
X49804761Y25261905D02*
X49842857Y25300000D01*
X49919047Y25338096D01*
X50109523Y25338096D01*
X50185714Y25300000D01*
X50223809Y25261905D01*
X50261904Y25185715D01*
X50261904Y25109524D01*
X50223809Y24995239D01*
X49766666Y24538096D01*
X50261904Y24538096D01*
X50490476Y25338096D02*
X50757142Y24538096D01*
X51023809Y25338096D01*
X48090476Y36842858D02*
X48700000Y36842858D01*
X48395238Y36538096D02*
X48395238Y37147620D01*
X49500000Y36538096D02*
X49042857Y36538096D01*
X49271428Y36538096D02*
X49271428Y37338096D01*
X49195238Y37223810D01*
X49119047Y37147620D01*
X49042857Y37109524D01*
X49804761Y37261905D02*
X49842857Y37300000D01*
X49919047Y37338096D01*
X50109523Y37338096D01*
X50185714Y37300000D01*
X50223809Y37261905D01*
X50261904Y37185715D01*
X50261904Y37109524D01*
X50223809Y36995239D01*
X49766666Y36538096D01*
X50261904Y36538096D01*
X50490476Y37338096D02*
X50757142Y36538096D01*
X51023809Y37338096D01*
X48090476Y48842858D02*
X48700000Y48842858D01*
X48395238Y48538096D02*
X48395238Y49147620D01*
X49500000Y48538096D02*
X49042857Y48538096D01*
X49271428Y48538096D02*
X49271428Y49338096D01*
X49195238Y49223810D01*
X49119047Y49147620D01*
X49042857Y49109524D01*
X49804761Y49261905D02*
X49842857Y49300000D01*
X49919047Y49338096D01*
X50109523Y49338096D01*
X50185714Y49300000D01*
X50223809Y49261905D01*
X50261904Y49185715D01*
X50261904Y49109524D01*
X50223809Y48995239D01*
X49766666Y48538096D01*
X50261904Y48538096D01*
X50490476Y49338096D02*
X50757142Y48538096D01*
X51023809Y49338096D01*
X48090476Y60842858D02*
X48700000Y60842858D01*
X48395238Y60538096D02*
X48395238Y61147620D01*
X49500000Y60538096D02*
X49042857Y60538096D01*
X49271428Y60538096D02*
X49271428Y61338096D01*
X49195238Y61223810D01*
X49119047Y61147620D01*
X49042857Y61109524D01*
X49804761Y61261905D02*
X49842857Y61300000D01*
X49919047Y61338096D01*
X50109523Y61338096D01*
X50185714Y61300000D01*
X50223809Y61261905D01*
X50261904Y61185715D01*
X50261904Y61109524D01*
X50223809Y60995239D01*
X49766666Y60538096D01*
X50261904Y60538096D01*
X50490476Y61338096D02*
X50757142Y60538096D01*
X51023809Y61338096D01*
X48090476Y72842858D02*
X48700000Y72842858D01*
X48395238Y72538096D02*
X48395238Y73147620D01*
X49500000Y72538096D02*
X49042857Y72538096D01*
X49271428Y72538096D02*
X49271428Y73338096D01*
X49195238Y73223810D01*
X49119047Y73147620D01*
X49042857Y73109524D01*
X49804761Y73261905D02*
X49842857Y73300000D01*
X49919047Y73338096D01*
X50109523Y73338096D01*
X50185714Y73300000D01*
X50223809Y73261905D01*
X50261904Y73185715D01*
X50261904Y73109524D01*
X50223809Y72995239D01*
X49766666Y72538096D01*
X50261904Y72538096D01*
X50490476Y73338096D02*
X50757142Y72538096D01*
X51023809Y73338096D01*
X50690476Y7700000D02*
X50614285Y7738096D01*
X50500000Y7738096D01*
X50385714Y7700000D01*
X50309523Y7623810D01*
X50271428Y7547620D01*
X50233333Y7395239D01*
X50233333Y7280953D01*
X50271428Y7128572D01*
X50309523Y7052381D01*
X50385714Y6976191D01*
X50500000Y6938096D01*
X50576190Y6938096D01*
X50690476Y6976191D01*
X50728571Y7014286D01*
X50728571Y7280953D01*
X50576190Y7280953D01*
X51071428Y6938096D02*
X51071428Y7738096D01*
X51528571Y6938096D01*
X51528571Y7738096D01*
X51909523Y6938096D02*
X51909523Y7738096D01*
X52100000Y7738096D01*
X52214285Y7700000D01*
X52290476Y7623810D01*
X52328571Y7547620D01*
X52366666Y7395239D01*
X52366666Y7280953D01*
X52328571Y7128572D01*
X52290476Y7052381D01*
X52214285Y6976191D01*
X52100000Y6938096D01*
X51909523Y6938096D01*
X50690476Y19700000D02*
X50614285Y19738096D01*
X50500000Y19738096D01*
X50385714Y19700000D01*
X50309523Y19623810D01*
X50271428Y19547620D01*
X50233333Y19395239D01*
X50233333Y19280953D01*
X50271428Y19128572D01*
X50309523Y19052381D01*
X50385714Y18976191D01*
X50500000Y18938096D01*
X50576190Y18938096D01*
X50690476Y18976191D01*
X50728571Y19014286D01*
X50728571Y19280953D01*
X50576190Y19280953D01*
X51071428Y18938096D02*
X51071428Y19738096D01*
X51528571Y18938096D01*
X51528571Y19738096D01*
X51909523Y18938096D02*
X51909523Y19738096D01*
X52100000Y19738096D01*
X52214285Y19700000D01*
X52290476Y19623810D01*
X52328571Y19547620D01*
X52366666Y19395239D01*
X52366666Y19280953D01*
X52328571Y19128572D01*
X52290476Y19052381D01*
X52214285Y18976191D01*
X52100000Y18938096D01*
X51909523Y18938096D01*
X50690476Y31700000D02*
X50614285Y31738096D01*
X50500000Y31738096D01*
X50385714Y31700000D01*
X50309523Y31623810D01*
X50271428Y31547620D01*
X50233333Y31395239D01*
X50233333Y31280953D01*
X50271428Y31128572D01*
X50309523Y31052381D01*
X50385714Y30976191D01*
X50500000Y30938096D01*
X50576190Y30938096D01*
X50690476Y30976191D01*
X50728571Y31014286D01*
X50728571Y31280953D01*
X50576190Y31280953D01*
X51071428Y30938096D02*
X51071428Y31738096D01*
X51528571Y30938096D01*
X51528571Y31738096D01*
X51909523Y30938096D02*
X51909523Y31738096D01*
X52100000Y31738096D01*
X52214285Y31700000D01*
X52290476Y31623810D01*
X52328571Y31547620D01*
X52366666Y31395239D01*
X52366666Y31280953D01*
X52328571Y31128572D01*
X52290476Y31052381D01*
X52214285Y30976191D01*
X52100000Y30938096D01*
X51909523Y30938096D01*
X50690476Y43700000D02*
X50614285Y43738096D01*
X50500000Y43738096D01*
X50385714Y43700000D01*
X50309523Y43623810D01*
X50271428Y43547620D01*
X50233333Y43395239D01*
X50233333Y43280953D01*
X50271428Y43128572D01*
X50309523Y43052381D01*
X50385714Y42976191D01*
X50500000Y42938096D01*
X50576190Y42938096D01*
X50690476Y42976191D01*
X50728571Y43014286D01*
X50728571Y43280953D01*
X50576190Y43280953D01*
X51071428Y42938096D02*
X51071428Y43738096D01*
X51528571Y42938096D01*
X51528571Y43738096D01*
X51909523Y42938096D02*
X51909523Y43738096D01*
X52100000Y43738096D01*
X52214285Y43700000D01*
X52290476Y43623810D01*
X52328571Y43547620D01*
X52366666Y43395239D01*
X52366666Y43280953D01*
X52328571Y43128572D01*
X52290476Y43052381D01*
X52214285Y42976191D01*
X52100000Y42938096D01*
X51909523Y42938096D01*
X50690476Y55700000D02*
X50614285Y55738096D01*
X50500000Y55738096D01*
X50385714Y55700000D01*
X50309523Y55623810D01*
X50271428Y55547620D01*
X50233333Y55395239D01*
X50233333Y55280953D01*
X50271428Y55128572D01*
X50309523Y55052381D01*
X50385714Y54976191D01*
X50500000Y54938096D01*
X50576190Y54938096D01*
X50690476Y54976191D01*
X50728571Y55014286D01*
X50728571Y55280953D01*
X50576190Y55280953D01*
X51071428Y54938096D02*
X51071428Y55738096D01*
X51528571Y54938096D01*
X51528571Y55738096D01*
X51909523Y54938096D02*
X51909523Y55738096D01*
X52100000Y55738096D01*
X52214285Y55700000D01*
X52290476Y55623810D01*
X52328571Y55547620D01*
X52366666Y55395239D01*
X52366666Y55280953D01*
X52328571Y55128572D01*
X52290476Y55052381D01*
X52214285Y54976191D01*
X52100000Y54938096D01*
X51909523Y54938096D01*
X50690476Y67700000D02*
X50614285Y67738096D01*
X50500000Y67738096D01*
X50385714Y67700000D01*
X50309523Y67623810D01*
X50271428Y67547620D01*
X50233333Y67395239D01*
X50233333Y67280953D01*
X50271428Y67128572D01*
X50309523Y67052381D01*
X50385714Y66976191D01*
X50500000Y66938096D01*
X50576190Y66938096D01*
X50690476Y66976191D01*
X50728571Y67014286D01*
X50728571Y67280953D01*
X50576190Y67280953D01*
X51071428Y66938096D02*
X51071428Y67738096D01*
X51528571Y66938096D01*
X51528571Y67738096D01*
X51909523Y66938096D02*
X51909523Y67738096D01*
X52100000Y67738096D01*
X52214285Y67700000D01*
X52290476Y67623810D01*
X52328571Y67547620D01*
X52366666Y67395239D01*
X52366666Y67280953D01*
X52328571Y67128572D01*
X52290476Y67052381D01*
X52214285Y66976191D01*
X52100000Y66938096D01*
X51909523Y66938096D01*
X50690476Y79700000D02*
X50614285Y79738096D01*
X50500000Y79738096D01*
X50385714Y79700000D01*
X50309523Y79623810D01*
X50271428Y79547620D01*
X50233333Y79395239D01*
X50233333Y79280953D01*
X50271428Y79128572D01*
X50309523Y79052381D01*
X50385714Y78976191D01*
X50500000Y78938096D01*
X50576190Y78938096D01*
X50690476Y78976191D01*
X50728571Y79014286D01*
X50728571Y79280953D01*
X50576190Y79280953D01*
X51071428Y78938096D02*
X51071428Y79738096D01*
X51528571Y78938096D01*
X51528571Y79738096D01*
X51909523Y78938096D02*
X51909523Y79738096D01*
X52100000Y79738096D01*
X52214285Y79700000D01*
X52290476Y79623810D01*
X52328571Y79547620D01*
X52366666Y79395239D01*
X52366666Y79280953D01*
X52328571Y79128572D01*
X52290476Y79052381D01*
X52214285Y78976191D01*
X52100000Y78938096D01*
X51909523Y78938096D01*
X25695238Y2238096D02*
X25695238Y3038096D01*
X25961904Y2466667D01*
X26228571Y3038096D01*
X26228571Y2238096D01*
X26761904Y3038096D02*
X26914285Y3038096D01*
X26990476Y3000000D01*
X27066666Y2923810D01*
X27104761Y2771429D01*
X27104761Y2504762D01*
X27066666Y2352381D01*
X26990476Y2276191D01*
X26914285Y2238096D01*
X26761904Y2238096D01*
X26685714Y2276191D01*
X26609523Y2352381D01*
X26571428Y2504762D01*
X26571428Y2771429D01*
X26609523Y2923810D01*
X26685714Y3000000D01*
X26761904Y3038096D01*
X27333333Y3038096D02*
X27790476Y3038096D01*
X27561904Y2238096D02*
X27561904Y3038096D01*
X28209523Y3038096D02*
X28361904Y3038096D01*
X28438095Y3000000D01*
X28514285Y2923810D01*
X28552380Y2771429D01*
X28552380Y2504762D01*
X28514285Y2352381D01*
X28438095Y2276191D01*
X28361904Y2238096D01*
X28209523Y2238096D01*
X28133333Y2276191D01*
X28057142Y2352381D01*
X28019047Y2504762D01*
X28019047Y2771429D01*
X28057142Y2923810D01*
X28133333Y3000000D01*
X28209523Y3038096D01*
X29352380Y2238096D02*
X29085714Y2619048D01*
X28895238Y2238096D02*
X28895238Y3038096D01*
X29200000Y3038096D01*
X29276190Y3000000D01*
X29314285Y2961905D01*
X29352380Y2885715D01*
X29352380Y2771429D01*
X29314285Y2695239D01*
X29276190Y2657143D01*
X29200000Y2619048D01*
X28895238Y2619048D01*
X29695238Y2542858D02*
X30304761Y2542858D01*
X25695238Y14238096D02*
X25695238Y15038096D01*
X25961904Y14466667D01*
X26228571Y15038096D01*
X26228571Y14238096D01*
X26761904Y15038096D02*
X26914285Y15038096D01*
X26990476Y15000000D01*
X27066666Y14923810D01*
X27104761Y14771429D01*
X27104761Y14504762D01*
X27066666Y14352381D01*
X26990476Y14276191D01*
X26914285Y14238096D01*
X26761904Y14238096D01*
X26685714Y14276191D01*
X26609523Y14352381D01*
X26571428Y14504762D01*
X26571428Y14771429D01*
X26609523Y14923810D01*
X26685714Y15000000D01*
X26761904Y15038096D01*
X27333333Y15038096D02*
X27790476Y15038096D01*
X27561904Y14238096D02*
X27561904Y15038096D01*
X28209523Y15038096D02*
X28361904Y15038096D01*
X28438095Y15000000D01*
X28514285Y14923810D01*
X28552380Y14771429D01*
X28552380Y14504762D01*
X28514285Y14352381D01*
X28438095Y14276191D01*
X28361904Y14238096D01*
X28209523Y14238096D01*
X28133333Y14276191D01*
X28057142Y14352381D01*
X28019047Y14504762D01*
X28019047Y14771429D01*
X28057142Y14923810D01*
X28133333Y15000000D01*
X28209523Y15038096D01*
X29352380Y14238096D02*
X29085714Y14619048D01*
X28895238Y14238096D02*
X28895238Y15038096D01*
X29200000Y15038096D01*
X29276190Y15000000D01*
X29314285Y14961905D01*
X29352380Y14885715D01*
X29352380Y14771429D01*
X29314285Y14695239D01*
X29276190Y14657143D01*
X29200000Y14619048D01*
X28895238Y14619048D01*
X29695238Y14542858D02*
X30304761Y14542858D01*
X25695238Y26238096D02*
X25695238Y27038096D01*
X25961904Y26466667D01*
X26228571Y27038096D01*
X26228571Y26238096D01*
X26761904Y27038096D02*
X26914285Y27038096D01*
X26990476Y27000000D01*
X27066666Y26923810D01*
X27104761Y26771429D01*
X27104761Y26504762D01*
X27066666Y26352381D01*
X26990476Y26276191D01*
X26914285Y26238096D01*
X26761904Y26238096D01*
X26685714Y26276191D01*
X26609523Y26352381D01*
X26571428Y26504762D01*
X26571428Y26771429D01*
X26609523Y26923810D01*
X26685714Y27000000D01*
X26761904Y27038096D01*
X27333333Y27038096D02*
X27790476Y27038096D01*
X27561904Y26238096D02*
X27561904Y27038096D01*
X28209523Y27038096D02*
X28361904Y27038096D01*
X28438095Y27000000D01*
X28514285Y26923810D01*
X28552380Y26771429D01*
X28552380Y26504762D01*
X28514285Y26352381D01*
X28438095Y26276191D01*
X28361904Y26238096D01*
X28209523Y26238096D01*
X28133333Y26276191D01*
X28057142Y26352381D01*
X28019047Y26504762D01*
X28019047Y26771429D01*
X28057142Y26923810D01*
X28133333Y27000000D01*
X28209523Y27038096D01*
X29352380Y26238096D02*
X29085714Y26619048D01*
X28895238Y26238096D02*
X28895238Y27038096D01*
X29200000Y27038096D01*
X29276190Y27000000D01*
X29314285Y26961905D01*
X29352380Y26885715D01*
X29352380Y26771429D01*
X29314285Y26695239D01*
X29276190Y26657143D01*
X29200000Y26619048D01*
X28895238Y26619048D01*
X29695238Y26542858D02*
X30304761Y26542858D01*
X25695238Y38238096D02*
X25695238Y39038096D01*
X25961904Y38466667D01*
X26228571Y39038096D01*
X26228571Y38238096D01*
X26761904Y39038096D02*
X26914285Y39038096D01*
X26990476Y39000000D01*
X27066666Y38923810D01*
X27104761Y38771429D01*
X27104761Y38504762D01*
X27066666Y38352381D01*
X26990476Y38276191D01*
X26914285Y38238096D01*
X26761904Y38238096D01*
X26685714Y38276191D01*
X26609523Y38352381D01*
X26571428Y38504762D01*
X26571428Y38771429D01*
X26609523Y38923810D01*
X26685714Y39000000D01*
X26761904Y39038096D01*
X27333333Y39038096D02*
X27790476Y39038096D01*
X27561904Y38238096D02*
X27561904Y39038096D01*
X28209523Y39038096D02*
X28361904Y39038096D01*
X28438095Y39000000D01*
X28514285Y38923810D01*
X28552380Y38771429D01*
X28552380Y38504762D01*
X28514285Y38352381D01*
X28438095Y38276191D01*
X28361904Y38238096D01*
X28209523Y38238096D01*
X28133333Y38276191D01*
X28057142Y38352381D01*
X28019047Y38504762D01*
X28019047Y38771429D01*
X28057142Y38923810D01*
X28133333Y39000000D01*
X28209523Y39038096D01*
X29352380Y38238096D02*
X29085714Y38619048D01*
X28895238Y38238096D02*
X28895238Y39038096D01*
X29200000Y39038096D01*
X29276190Y39000000D01*
X29314285Y38961905D01*
X29352380Y38885715D01*
X29352380Y38771429D01*
X29314285Y38695239D01*
X29276190Y38657143D01*
X29200000Y38619048D01*
X28895238Y38619048D01*
X29695238Y38542858D02*
X30304761Y38542858D01*
X25695238Y50238096D02*
X25695238Y51038096D01*
X25961904Y50466667D01*
X26228571Y51038096D01*
X26228571Y50238096D01*
X26761904Y51038096D02*
X26914285Y51038096D01*
X26990476Y51000000D01*
X27066666Y50923810D01*
X27104761Y50771429D01*
X27104761Y50504762D01*
X27066666Y50352381D01*
X26990476Y50276191D01*
X26914285Y50238096D01*
X26761904Y50238096D01*
X26685714Y50276191D01*
X26609523Y50352381D01*
X26571428Y50504762D01*
X26571428Y50771429D01*
X26609523Y50923810D01*
X26685714Y51000000D01*
X26761904Y51038096D01*
X27333333Y51038096D02*
X27790476Y51038096D01*
X27561904Y50238096D02*
X27561904Y51038096D01*
X28209523Y51038096D02*
X28361904Y51038096D01*
X28438095Y51000000D01*
X28514285Y50923810D01*
X28552380Y50771429D01*
X28552380Y50504762D01*
X28514285Y50352381D01*
X28438095Y50276191D01*
X28361904Y50238096D01*
X28209523Y50238096D01*
X28133333Y50276191D01*
X28057142Y50352381D01*
X28019047Y50504762D01*
X28019047Y50771429D01*
X28057142Y50923810D01*
X28133333Y51000000D01*
X28209523Y51038096D01*
X29352380Y50238096D02*
X29085714Y50619048D01*
X28895238Y50238096D02*
X28895238Y51038096D01*
X29200000Y51038096D01*
X29276190Y51000000D01*
X29314285Y50961905D01*
X29352380Y50885715D01*
X29352380Y50771429D01*
X29314285Y50695239D01*
X29276190Y50657143D01*
X29200000Y50619048D01*
X28895238Y50619048D01*
X29695238Y50542858D02*
X30304761Y50542858D01*
X25695238Y62238096D02*
X25695238Y63038096D01*
X25961904Y62466667D01*
X26228571Y63038096D01*
X26228571Y62238096D01*
X26761904Y63038096D02*
X26914285Y63038096D01*
X26990476Y63000000D01*
X27066666Y62923810D01*
X27104761Y62771429D01*
X27104761Y62504762D01*
X27066666Y62352381D01*
X26990476Y62276191D01*
X26914285Y62238096D01*
X26761904Y62238096D01*
X26685714Y62276191D01*
X26609523Y62352381D01*
X26571428Y62504762D01*
X26571428Y62771429D01*
X26609523Y62923810D01*
X26685714Y63000000D01*
X26761904Y63038096D01*
X27333333Y63038096D02*
X27790476Y63038096D01*
X27561904Y62238096D02*
X27561904Y63038096D01*
X28209523Y63038096D02*
X28361904Y63038096D01*
X28438095Y63000000D01*
X28514285Y62923810D01*
X28552380Y62771429D01*
X28552380Y62504762D01*
X28514285Y62352381D01*
X28438095Y62276191D01*
X28361904Y62238096D01*
X28209523Y62238096D01*
X28133333Y62276191D01*
X28057142Y62352381D01*
X28019047Y62504762D01*
X28019047Y62771429D01*
X28057142Y62923810D01*
X28133333Y63000000D01*
X28209523Y63038096D01*
X29352380Y62238096D02*
X29085714Y62619048D01*
X28895238Y62238096D02*
X28895238Y63038096D01*
X29200000Y63038096D01*
X29276190Y63000000D01*
X29314285Y62961905D01*
X29352380Y62885715D01*
X29352380Y62771429D01*
X29314285Y62695239D01*
X29276190Y62657143D01*
X29200000Y62619048D01*
X28895238Y62619048D01*
X29695238Y62542858D02*
X30304761Y62542858D01*
X25695238Y74238096D02*
X25695238Y75038096D01*
X25961904Y74466667D01*
X26228571Y75038096D01*
X26228571Y74238096D01*
X26761904Y75038096D02*
X26914285Y75038096D01*
X26990476Y75000000D01*
X27066666Y74923810D01*
X27104761Y74771429D01*
X27104761Y74504762D01*
X27066666Y74352381D01*
X26990476Y74276191D01*
X26914285Y74238096D01*
X26761904Y74238096D01*
X26685714Y74276191D01*
X26609523Y74352381D01*
X26571428Y74504762D01*
X26571428Y74771429D01*
X26609523Y74923810D01*
X26685714Y75000000D01*
X26761904Y75038096D01*
X27333333Y75038096D02*
X27790476Y75038096D01*
X27561904Y74238096D02*
X27561904Y75038096D01*
X28209523Y75038096D02*
X28361904Y75038096D01*
X28438095Y75000000D01*
X28514285Y74923810D01*
X28552380Y74771429D01*
X28552380Y74504762D01*
X28514285Y74352381D01*
X28438095Y74276191D01*
X28361904Y74238096D01*
X28209523Y74238096D01*
X28133333Y74276191D01*
X28057142Y74352381D01*
X28019047Y74504762D01*
X28019047Y74771429D01*
X28057142Y74923810D01*
X28133333Y75000000D01*
X28209523Y75038096D01*
X29352380Y74238096D02*
X29085714Y74619048D01*
X28895238Y74238096D02*
X28895238Y75038096D01*
X29200000Y75038096D01*
X29276190Y75000000D01*
X29314285Y74961905D01*
X29352380Y74885715D01*
X29352380Y74771429D01*
X29314285Y74695239D01*
X29276190Y74657143D01*
X29200000Y74619048D01*
X28895238Y74619048D01*
X29695238Y74542858D02*
X30304761Y74542858D01*
D10*
X39033333Y7457143D02*
X38766666Y7457143D01*
X38766666Y7038096D02*
X38766666Y7838096D01*
X39147619Y7838096D01*
X39414285Y7761905D02*
X39452380Y7800000D01*
X39528571Y7838096D01*
X39719047Y7838096D01*
X39795238Y7800000D01*
X39833333Y7761905D01*
X39871428Y7685715D01*
X39871428Y7609524D01*
X39833333Y7495239D01*
X39376190Y7038096D01*
X39871428Y7038096D01*
X39033333Y19457143D02*
X38766666Y19457143D01*
X38766666Y19038096D02*
X38766666Y19838096D01*
X39147619Y19838096D01*
X39414285Y19761905D02*
X39452380Y19800000D01*
X39528571Y19838096D01*
X39719047Y19838096D01*
X39795238Y19800000D01*
X39833333Y19761905D01*
X39871428Y19685715D01*
X39871428Y19609524D01*
X39833333Y19495239D01*
X39376190Y19038096D01*
X39871428Y19038096D01*
X39033333Y31457143D02*
X38766666Y31457143D01*
X38766666Y31038096D02*
X38766666Y31838096D01*
X39147619Y31838096D01*
X39414285Y31761905D02*
X39452380Y31800000D01*
X39528571Y31838096D01*
X39719047Y31838096D01*
X39795238Y31800000D01*
X39833333Y31761905D01*
X39871428Y31685715D01*
X39871428Y31609524D01*
X39833333Y31495239D01*
X39376190Y31038096D01*
X39871428Y31038096D01*
X39033333Y43457143D02*
X38766666Y43457143D01*
X38766666Y43038096D02*
X38766666Y43838096D01*
X39147619Y43838096D01*
X39414285Y43761905D02*
X39452380Y43800000D01*
X39528571Y43838096D01*
X39719047Y43838096D01*
X39795238Y43800000D01*
X39833333Y43761905D01*
X39871428Y43685715D01*
X39871428Y43609524D01*
X39833333Y43495239D01*
X39376190Y43038096D01*
X39871428Y43038096D01*
X39033333Y55457143D02*
X38766666Y55457143D01*
X38766666Y55038096D02*
X38766666Y55838096D01*
X39147619Y55838096D01*
X39414285Y55761905D02*
X39452380Y55800000D01*
X39528571Y55838096D01*
X39719047Y55838096D01*
X39795238Y55800000D01*
X39833333Y55761905D01*
X39871428Y55685715D01*
X39871428Y55609524D01*
X39833333Y55495239D01*
X39376190Y55038096D01*
X39871428Y55038096D01*
X39033333Y67457143D02*
X38766666Y67457143D01*
X38766666Y67038096D02*
X38766666Y67838096D01*
X39147619Y67838096D01*
X39414285Y67761905D02*
X39452380Y67800000D01*
X39528571Y67838096D01*
X39719047Y67838096D01*
X39795238Y67800000D01*
X39833333Y67761905D01*
X39871428Y67685715D01*
X39871428Y67609524D01*
X39833333Y67495239D01*
X39376190Y67038096D01*
X39871428Y67038096D01*
X39033333Y79457143D02*
X38766666Y79457143D01*
X38766666Y79038096D02*
X38766666Y79838096D01*
X39147619Y79838096D01*
X39414285Y79761905D02*
X39452380Y79800000D01*
X39528571Y79838096D01*
X39719047Y79838096D01*
X39795238Y79800000D01*
X39833333Y79761905D01*
X39871428Y79685715D01*
X39871428Y79609524D01*
X39833333Y79495239D01*
X39376190Y79038096D01*
X39871428Y79038096D01*
D11*
X26195238Y6738096D02*
X26195238Y7538096D01*
X26461904Y6966667D01*
X26728571Y7538096D01*
X26728571Y6738096D01*
X27261904Y7538096D02*
X27414285Y7538096D01*
X27490476Y7500000D01*
X27566666Y7423810D01*
X27604761Y7271429D01*
X27604761Y7004762D01*
X27566666Y6852381D01*
X27490476Y6776191D01*
X27414285Y6738096D01*
X27261904Y6738096D01*
X27185714Y6776191D01*
X27109523Y6852381D01*
X27071428Y7004762D01*
X27071428Y7271429D01*
X27109523Y7423810D01*
X27185714Y7500000D01*
X27261904Y7538096D01*
X27833333Y7538096D02*
X28290476Y7538096D01*
X28061904Y6738096D02*
X28061904Y7538096D01*
X28709523Y7538096D02*
X28861904Y7538096D01*
X28938095Y7500000D01*
X29014285Y7423810D01*
X29052380Y7271429D01*
X29052380Y7004762D01*
X29014285Y6852381D01*
X28938095Y6776191D01*
X28861904Y6738096D01*
X28709523Y6738096D01*
X28633333Y6776191D01*
X28557142Y6852381D01*
X28519047Y7004762D01*
X28519047Y7271429D01*
X28557142Y7423810D01*
X28633333Y7500000D01*
X28709523Y7538096D01*
X29852380Y6738096D02*
X29585714Y7119048D01*
X29395238Y6738096D02*
X29395238Y7538096D01*
X29700000Y7538096D01*
X29776190Y7500000D01*
X29814285Y7461905D01*
X29852380Y7385715D01*
X29852380Y7271429D01*
X29814285Y7195239D01*
X29776190Y7157143D01*
X29700000Y7119048D01*
X29395238Y7119048D01*
X30195238Y7042858D02*
X30804761Y7042858D01*
X30500000Y6738096D02*
X30500000Y7347620D01*
X26195238Y18738096D02*
X26195238Y19538096D01*
X26461904Y18966667D01*
X26728571Y19538096D01*
X26728571Y18738096D01*
X27261904Y19538096D02*
X27414285Y19538096D01*
X27490476Y19500000D01*
X27566666Y19423810D01*
X27604761Y19271429D01*
X27604761Y19004762D01*
X27566666Y18852381D01*
X27490476Y18776191D01*
X27414285Y18738096D01*
X27261904Y18738096D01*
X27185714Y18776191D01*
X27109523Y18852381D01*
X27071428Y19004762D01*
X27071428Y19271429D01*
X27109523Y19423810D01*
X27185714Y19500000D01*
X27261904Y19538096D01*
X27833333Y19538096D02*
X28290476Y19538096D01*
X28061904Y18738096D02*
X28061904Y19538096D01*
X28709523Y19538096D02*
X28861904Y19538096D01*
X28938095Y19500000D01*
X29014285Y19423810D01*
X29052380Y19271429D01*
X29052380Y19004762D01*
X29014285Y18852381D01*
X28938095Y18776191D01*
X28861904Y18738096D01*
X28709523Y18738096D01*
X28633333Y18776191D01*
X28557142Y18852381D01*
X28519047Y19004762D01*
X28519047Y19271429D01*
X28557142Y19423810D01*
X28633333Y19500000D01*
X28709523Y19538096D01*
X29852380Y18738096D02*
X29585714Y19119048D01*
X29395238Y18738096D02*
X29395238Y19538096D01*
X29700000Y19538096D01*
X29776190Y19500000D01*
X29814285Y19461905D01*
X29852380Y19385715D01*
X29852380Y19271429D01*
X29814285Y19195239D01*
X29776190Y19157143D01*
X29700000Y19119048D01*
X29395238Y19119048D01*
X30195238Y19042858D02*
X30804761Y19042858D01*
X30500000Y18738096D02*
X30500000Y19347620D01*
X26195238Y30738096D02*
X26195238Y31538096D01*
X26461904Y30966667D01*
X26728571Y31538096D01*
X26728571Y30738096D01*
X27261904Y31538096D02*
X27414285Y31538096D01*
X27490476Y31500000D01*
X27566666Y31423810D01*
X27604761Y31271429D01*
X27604761Y31004762D01*
X27566666Y30852381D01*
X27490476Y30776191D01*
X27414285Y30738096D01*
X27261904Y30738096D01*
X27185714Y30776191D01*
X27109523Y30852381D01*
X27071428Y31004762D01*
X27071428Y31271429D01*
X27109523Y31423810D01*
X27185714Y31500000D01*
X27261904Y31538096D01*
X27833333Y31538096D02*
X28290476Y31538096D01*
X28061904Y30738096D02*
X28061904Y31538096D01*
X28709523Y31538096D02*
X28861904Y31538096D01*
X28938095Y31500000D01*
X29014285Y31423810D01*
X29052380Y31271429D01*
X29052380Y31004762D01*
X29014285Y30852381D01*
X28938095Y30776191D01*
X28861904Y30738096D01*
X28709523Y30738096D01*
X28633333Y30776191D01*
X28557142Y30852381D01*
X28519047Y31004762D01*
X28519047Y31271429D01*
X28557142Y31423810D01*
X28633333Y31500000D01*
X28709523Y31538096D01*
X29852380Y30738096D02*
X29585714Y31119048D01*
X29395238Y30738096D02*
X29395238Y31538096D01*
X29700000Y31538096D01*
X29776190Y31500000D01*
X29814285Y31461905D01*
X29852380Y31385715D01*
X29852380Y31271429D01*
X29814285Y31195239D01*
X29776190Y31157143D01*
X29700000Y31119048D01*
X29395238Y31119048D01*
X30195238Y31042858D02*
X30804761Y31042858D01*
X30500000Y30738096D02*
X30500000Y31347620D01*
X26195238Y42738096D02*
X26195238Y43538096D01*
X26461904Y42966667D01*
X26728571Y43538096D01*
X26728571Y42738096D01*
X27261904Y43538096D02*
X27414285Y43538096D01*
X27490476Y43500000D01*
X27566666Y43423810D01*
X27604761Y43271429D01*
X27604761Y43004762D01*
X27566666Y42852381D01*
X27490476Y42776191D01*
X27414285Y42738096D01*
X27261904Y42738096D01*
X27185714Y42776191D01*
X27109523Y42852381D01*
X27071428Y43004762D01*
X27071428Y43271429D01*
X27109523Y43423810D01*
X27185714Y43500000D01*
X27261904Y43538096D01*
X27833333Y43538096D02*
X28290476Y43538096D01*
X28061904Y42738096D02*
X28061904Y43538096D01*
X28709523Y43538096D02*
X28861904Y43538096D01*
X28938095Y43500000D01*
X29014285Y43423810D01*
X29052380Y43271429D01*
X29052380Y43004762D01*
X29014285Y42852381D01*
X28938095Y42776191D01*
X28861904Y42738096D01*
X28709523Y42738096D01*
X28633333Y42776191D01*
X28557142Y42852381D01*
X28519047Y43004762D01*
X28519047Y43271429D01*
X28557142Y43423810D01*
X28633333Y43500000D01*
X28709523Y43538096D01*
X29852380Y42738096D02*
X29585714Y43119048D01*
X29395238Y42738096D02*
X29395238Y43538096D01*
X29700000Y43538096D01*
X29776190Y43500000D01*
X29814285Y43461905D01*
X29852380Y43385715D01*
X29852380Y43271429D01*
X29814285Y43195239D01*
X29776190Y43157143D01*
X29700000Y43119048D01*
X29395238Y43119048D01*
X30195238Y43042858D02*
X30804761Y43042858D01*
X30500000Y42738096D02*
X30500000Y43347620D01*
X26195238Y54738096D02*
X26195238Y55538096D01*
X26461904Y54966667D01*
X26728571Y55538096D01*
X26728571Y54738096D01*
X27261904Y55538096D02*
X27414285Y55538096D01*
X27490476Y55500000D01*
X27566666Y55423810D01*
X27604761Y55271429D01*
X27604761Y55004762D01*
X27566666Y54852381D01*
X27490476Y54776191D01*
X27414285Y54738096D01*
X27261904Y54738096D01*
X27185714Y54776191D01*
X27109523Y54852381D01*
X27071428Y55004762D01*
X27071428Y55271429D01*
X27109523Y55423810D01*
X27185714Y55500000D01*
X27261904Y55538096D01*
X27833333Y55538096D02*
X28290476Y55538096D01*
X28061904Y54738096D02*
X28061904Y55538096D01*
X28709523Y55538096D02*
X28861904Y55538096D01*
X28938095Y55500000D01*
X29014285Y55423810D01*
X29052380Y55271429D01*
X29052380Y55004762D01*
X29014285Y54852381D01*
X28938095Y54776191D01*
X28861904Y54738096D01*
X28709523Y54738096D01*
X28633333Y54776191D01*
X28557142Y54852381D01*
X28519047Y55004762D01*
X28519047Y55271429D01*
X28557142Y55423810D01*
X28633333Y55500000D01*
X28709523Y55538096D01*
X29852380Y54738096D02*
X29585714Y55119048D01*
X29395238Y54738096D02*
X29395238Y55538096D01*
X29700000Y55538096D01*
X29776190Y55500000D01*
X29814285Y55461905D01*
X29852380Y55385715D01*
X29852380Y55271429D01*
X29814285Y55195239D01*
X29776190Y55157143D01*
X29700000Y55119048D01*
X29395238Y55119048D01*
X30195238Y55042858D02*
X30804761Y55042858D01*
X30500000Y54738096D02*
X30500000Y55347620D01*
X26195238Y66738096D02*
X26195238Y67538096D01*
X26461904Y66966667D01*
X26728571Y67538096D01*
X26728571Y66738096D01*
X27261904Y67538096D02*
X27414285Y67538096D01*
X27490476Y67500000D01*
X27566666Y67423810D01*
X27604761Y67271429D01*
X27604761Y67004762D01*
X27566666Y66852381D01*
X27490476Y66776191D01*
X27414285Y66738096D01*
X27261904Y66738096D01*
X27185714Y66776191D01*
X27109523Y66852381D01*
X27071428Y67004762D01*
X27071428Y67271429D01*
X27109523Y67423810D01*
X27185714Y67500000D01*
X27261904Y67538096D01*
X27833333Y67538096D02*
X28290476Y67538096D01*
X28061904Y66738096D02*
X28061904Y67538096D01*
X28709523Y67538096D02*
X28861904Y67538096D01*
X28938095Y67500000D01*
X29014285Y67423810D01*
X29052380Y67271429D01*
X29052380Y67004762D01*
X29014285Y66852381D01*
X28938095Y66776191D01*
X28861904Y66738096D01*
X28709523Y66738096D01*
X28633333Y66776191D01*
X28557142Y66852381D01*
X28519047Y67004762D01*
X28519047Y67271429D01*
X28557142Y67423810D01*
X28633333Y67500000D01*
X28709523Y67538096D01*
X29852380Y66738096D02*
X29585714Y67119048D01*
X29395238Y66738096D02*
X29395238Y67538096D01*
X29700000Y67538096D01*
X29776190Y67500000D01*
X29814285Y67461905D01*
X29852380Y67385715D01*
X29852380Y67271429D01*
X29814285Y67195239D01*
X29776190Y67157143D01*
X29700000Y67119048D01*
X29395238Y67119048D01*
X30195238Y67042858D02*
X30804761Y67042858D01*
X30500000Y66738096D02*
X30500000Y67347620D01*
X26195238Y78738096D02*
X26195238Y79538096D01*
X26461904Y78966667D01*
X26728571Y79538096D01*
X26728571Y78738096D01*
X27261904Y79538096D02*
X27414285Y79538096D01*
X27490476Y79500000D01*
X27566666Y79423810D01*
X27604761Y79271429D01*
X27604761Y79004762D01*
X27566666Y78852381D01*
X27490476Y78776191D01*
X27414285Y78738096D01*
X27261904Y78738096D01*
X27185714Y78776191D01*
X27109523Y78852381D01*
X27071428Y79004762D01*
X27071428Y79271429D01*
X27109523Y79423810D01*
X27185714Y79500000D01*
X27261904Y79538096D01*
X27833333Y79538096D02*
X28290476Y79538096D01*
X28061904Y78738096D02*
X28061904Y79538096D01*
X28709523Y79538096D02*
X28861904Y79538096D01*
X28938095Y79500000D01*
X29014285Y79423810D01*
X29052380Y79271429D01*
X29052380Y79004762D01*
X29014285Y78852381D01*
X28938095Y78776191D01*
X28861904Y78738096D01*
X28709523Y78738096D01*
X28633333Y78776191D01*
X28557142Y78852381D01*
X28519047Y79004762D01*
X28519047Y79271429D01*
X28557142Y79423810D01*
X28633333Y79500000D01*
X28709523Y79538096D01*
X29852380Y78738096D02*
X29585714Y79119048D01*
X29395238Y78738096D02*
X29395238Y79538096D01*
X29700000Y79538096D01*
X29776190Y79500000D01*
X29814285Y79461905D01*
X29852380Y79385715D01*
X29852380Y79271429D01*
X29814285Y79195239D01*
X29776190Y79157143D01*
X29700000Y79119048D01*
X29395238Y79119048D01*
X30195238Y79042858D02*
X30804761Y79042858D01*
X30500000Y78738096D02*
X30500000Y79347620D01*
X20390476Y7800000D02*
X20314285Y7838096D01*
X20200000Y7838096D01*
X20085714Y7800000D01*
X20009523Y7723810D01*
X19971428Y7647620D01*
X19933333Y7495239D01*
X19933333Y7380953D01*
X19971428Y7228572D01*
X20009523Y7152381D01*
X20085714Y7076191D01*
X20200000Y7038096D01*
X20276190Y7038096D01*
X20390476Y7076191D01*
X20428571Y7114286D01*
X20428571Y7380953D01*
X20276190Y7380953D01*
X20771428Y7038096D02*
X20771428Y7838096D01*
X21228571Y7038096D01*
X21228571Y7838096D01*
X21609523Y7038096D02*
X21609523Y7838096D01*
X21800000Y7838096D01*
X21914285Y7800000D01*
X21990476Y7723810D01*
X22028571Y7647620D01*
X22066666Y7495239D01*
X22066666Y7380953D01*
X22028571Y7228572D01*
X21990476Y7152381D01*
X21914285Y7076191D01*
X21800000Y7038096D01*
X21609523Y7038096D01*
X20390476Y19800000D02*
X20314285Y19838096D01*
X20200000Y19838096D01*
X20085714Y19800000D01*
X20009523Y19723810D01*
X19971428Y19647620D01*
X19933333Y19495239D01*
X19933333Y19380953D01*
X19971428Y19228572D01*
X20009523Y19152381D01*
X20085714Y19076191D01*
X20200000Y19038096D01*
X20276190Y19038096D01*
X20390476Y19076191D01*
X20428571Y19114286D01*
X20428571Y19380953D01*
X20276190Y19380953D01*
X20771428Y19038096D02*
X20771428Y19838096D01*
X21228571Y19038096D01*
X21228571Y19838096D01*
X21609523Y19038096D02*
X21609523Y19838096D01*
X21800000Y19838096D01*
X21914285Y19800000D01*
X21990476Y19723810D01*
X22028571Y19647620D01*
X22066666Y19495239D01*
X22066666Y19380953D01*
X22028571Y19228572D01*
X21990476Y19152381D01*
X21914285Y19076191D01*
X21800000Y19038096D01*
X21609523Y19038096D01*
X20390476Y31800000D02*
X20314285Y31838096D01*
X20200000Y31838096D01*
X20085714Y31800000D01*
X20009523Y31723810D01*
X19971428Y31647620D01*
X19933333Y31495239D01*
X19933333Y31380953D01*
X19971428Y31228572D01*
X20009523Y31152381D01*
X20085714Y31076191D01*
X20200000Y31038096D01*
X20276190Y31038096D01*
X20390476Y31076191D01*
X20428571Y31114286D01*
X20428571Y31380953D01*
X20276190Y31380953D01*
X20771428Y31038096D02*
X20771428Y31838096D01*
X21228571Y31038096D01*
X21228571Y31838096D01*
X21609523Y31038096D02*
X21609523Y31838096D01*
X21800000Y31838096D01*
X21914285Y31800000D01*
X21990476Y31723810D01*
X22028571Y31647620D01*
X22066666Y31495239D01*
X22066666Y31380953D01*
X22028571Y31228572D01*
X21990476Y31152381D01*
X21914285Y31076191D01*
X21800000Y31038096D01*
X21609523Y31038096D01*
X20390476Y43800000D02*
X20314285Y43838096D01*
X20200000Y43838096D01*
X20085714Y43800000D01*
X20009523Y43723810D01*
X19971428Y43647620D01*
X19933333Y43495239D01*
X19933333Y43380953D01*
X19971428Y43228572D01*
X20009523Y43152381D01*
X20085714Y43076191D01*
X20200000Y43038096D01*
X20276190Y43038096D01*
X20390476Y43076191D01*
X20428571Y43114286D01*
X20428571Y43380953D01*
X20276190Y43380953D01*
X20771428Y43038096D02*
X20771428Y43838096D01*
X21228571Y43038096D01*
X21228571Y43838096D01*
X21609523Y43038096D02*
X21609523Y43838096D01*
X21800000Y43838096D01*
X21914285Y43800000D01*
X21990476Y43723810D01*
X22028571Y43647620D01*
X22066666Y43495239D01*
X22066666Y43380953D01*
X22028571Y43228572D01*
X21990476Y43152381D01*
X21914285Y43076191D01*
X21800000Y43038096D01*
X21609523Y43038096D01*
X20390476Y55800000D02*
X20314285Y55838096D01*
X20200000Y55838096D01*
X20085714Y55800000D01*
X20009523Y55723810D01*
X19971428Y55647620D01*
X19933333Y55495239D01*
X19933333Y55380953D01*
X19971428Y55228572D01*
X20009523Y55152381D01*
X20085714Y55076191D01*
X20200000Y55038096D01*
X20276190Y55038096D01*
X20390476Y55076191D01*
X20428571Y55114286D01*
X20428571Y55380953D01*
X20276190Y55380953D01*
X20771428Y55038096D02*
X20771428Y55838096D01*
X21228571Y55038096D01*
X21228571Y55838096D01*
X21609523Y55038096D02*
X21609523Y55838096D01*
X21800000Y55838096D01*
X21914285Y55800000D01*
X21990476Y55723810D01*
X22028571Y55647620D01*
X22066666Y55495239D01*
X22066666Y55380953D01*
X22028571Y55228572D01*
X21990476Y55152381D01*
X21914285Y55076191D01*
X21800000Y55038096D01*
X21609523Y55038096D01*
X20390476Y67800000D02*
X20314285Y67838096D01*
X20200000Y67838096D01*
X20085714Y67800000D01*
X20009523Y67723810D01*
X19971428Y67647620D01*
X19933333Y67495239D01*
X19933333Y67380953D01*
X19971428Y67228572D01*
X20009523Y67152381D01*
X20085714Y67076191D01*
X20200000Y67038096D01*
X20276190Y67038096D01*
X20390476Y67076191D01*
X20428571Y67114286D01*
X20428571Y67380953D01*
X20276190Y67380953D01*
X20771428Y67038096D02*
X20771428Y67838096D01*
X21228571Y67038096D01*
X21228571Y67838096D01*
X21609523Y67038096D02*
X21609523Y67838096D01*
X21800000Y67838096D01*
X21914285Y67800000D01*
X21990476Y67723810D01*
X22028571Y67647620D01*
X22066666Y67495239D01*
X22066666Y67380953D01*
X22028571Y67228572D01*
X21990476Y67152381D01*
X21914285Y67076191D01*
X21800000Y67038096D01*
X21609523Y67038096D01*
X20390476Y79800000D02*
X20314285Y79838096D01*
X20200000Y79838096D01*
X20085714Y79800000D01*
X20009523Y79723810D01*
X19971428Y79647620D01*
X19933333Y79495239D01*
X19933333Y79380953D01*
X19971428Y79228572D01*
X20009523Y79152381D01*
X20085714Y79076191D01*
X20200000Y79038096D01*
X20276190Y79038096D01*
X20390476Y79076191D01*
X20428571Y79114286D01*
X20428571Y79380953D01*
X20276190Y79380953D01*
X20771428Y79038096D02*
X20771428Y79838096D01*
X21228571Y79038096D01*
X21228571Y79838096D01*
X21609523Y79038096D02*
X21609523Y79838096D01*
X21800000Y79838096D01*
X21914285Y79800000D01*
X21990476Y79723810D01*
X22028571Y79647620D01*
X22066666Y79495239D01*
X22066666Y79380953D01*
X22028571Y79228572D01*
X21990476Y79152381D01*
X21914285Y79076191D01*
X21800000Y79038096D01*
X21609523Y79038096D01*
D12*
X42571428Y6438096D02*
X42571428Y7238096D01*
X42876190Y7238096D01*
X42952380Y7200000D01*
X42990476Y7161905D01*
X43028571Y7085715D01*
X43028571Y6971429D01*
X42990476Y6895239D01*
X42952380Y6857143D01*
X42876190Y6819048D01*
X42571428Y6819048D01*
X43828571Y6438096D02*
X43561904Y6819048D01*
X43371428Y6438096D02*
X43371428Y7238096D01*
X43676190Y7238096D01*
X43752380Y7200000D01*
X43790476Y7161905D01*
X43828571Y7085715D01*
X43828571Y6971429D01*
X43790476Y6895239D01*
X43752380Y6857143D01*
X43676190Y6819048D01*
X43371428Y6819048D01*
X44323809Y7238096D02*
X44476190Y7238096D01*
X44552380Y7200000D01*
X44628571Y7123810D01*
X44666666Y6971429D01*
X44666666Y6704762D01*
X44628571Y6552381D01*
X44552380Y6476191D01*
X44476190Y6438096D01*
X44323809Y6438096D01*
X44247619Y6476191D01*
X44171428Y6552381D01*
X44133333Y6704762D01*
X44133333Y6971429D01*
X44171428Y7123810D01*
X44247619Y7200000D01*
X44323809Y7238096D01*
X45428571Y7200000D02*
X45352380Y7238096D01*
X45238095Y7238096D01*
X45123809Y7200000D01*
X45047619Y7123810D01*
X45009523Y7047620D01*
X44971428Y6895239D01*
X44971428Y6780953D01*
X45009523Y6628572D01*
X45047619Y6552381D01*
X45123809Y6476191D01*
X45238095Y6438096D01*
X45314285Y6438096D01*
X45428571Y6476191D01*
X45466666Y6514286D01*
X45466666Y6780953D01*
X45314285Y6780953D01*
X42571428Y18438096D02*
X42571428Y19238096D01*
X42876190Y19238096D01*
X42952380Y19200000D01*
X42990476Y19161905D01*
X43028571Y19085715D01*
X43028571Y18971429D01*
X42990476Y18895239D01*
X42952380Y18857143D01*
X42876190Y18819048D01*
X42571428Y18819048D01*
X43828571Y18438096D02*
X43561904Y18819048D01*
X43371428Y18438096D02*
X43371428Y19238096D01*
X43676190Y19238096D01*
X43752380Y19200000D01*
X43790476Y19161905D01*
X43828571Y19085715D01*
X43828571Y18971429D01*
X43790476Y18895239D01*
X43752380Y18857143D01*
X43676190Y18819048D01*
X43371428Y18819048D01*
X44323809Y19238096D02*
X44476190Y19238096D01*
X44552380Y19200000D01*
X44628571Y19123810D01*
X44666666Y18971429D01*
X44666666Y18704762D01*
X44628571Y18552381D01*
X44552380Y18476191D01*
X44476190Y18438096D01*
X44323809Y18438096D01*
X44247619Y18476191D01*
X44171428Y18552381D01*
X44133333Y18704762D01*
X44133333Y18971429D01*
X44171428Y19123810D01*
X44247619Y19200000D01*
X44323809Y19238096D01*
X45428571Y19200000D02*
X45352380Y19238096D01*
X45238095Y19238096D01*
X45123809Y19200000D01*
X45047619Y19123810D01*
X45009523Y19047620D01*
X44971428Y18895239D01*
X44971428Y18780953D01*
X45009523Y18628572D01*
X45047619Y18552381D01*
X45123809Y18476191D01*
X45238095Y18438096D01*
X45314285Y18438096D01*
X45428571Y18476191D01*
X45466666Y18514286D01*
X45466666Y18780953D01*
X45314285Y18780953D01*
X42571428Y30438096D02*
X42571428Y31238096D01*
X42876190Y31238096D01*
X42952380Y31200000D01*
X42990476Y31161905D01*
X43028571Y31085715D01*
X43028571Y30971429D01*
X42990476Y30895239D01*
X42952380Y30857143D01*
X42876190Y30819048D01*
X42571428Y30819048D01*
X43828571Y30438096D02*
X43561904Y30819048D01*
X43371428Y30438096D02*
X43371428Y31238096D01*
X43676190Y31238096D01*
X43752380Y31200000D01*
X43790476Y31161905D01*
X43828571Y31085715D01*
X43828571Y30971429D01*
X43790476Y30895239D01*
X43752380Y30857143D01*
X43676190Y30819048D01*
X43371428Y30819048D01*
X44323809Y31238096D02*
X44476190Y31238096D01*
X44552380Y31200000D01*
X44628571Y31123810D01*
X44666666Y30971429D01*
X44666666Y30704762D01*
X44628571Y30552381D01*
X44552380Y30476191D01*
X44476190Y30438096D01*
X44323809Y30438096D01*
X44247619Y30476191D01*
X44171428Y30552381D01*
X44133333Y30704762D01*
X44133333Y30971429D01*
X44171428Y31123810D01*
X44247619Y31200000D01*
X44323809Y31238096D01*
X45428571Y31200000D02*
X45352380Y31238096D01*
X45238095Y31238096D01*
X45123809Y31200000D01*
X45047619Y31123810D01*
X45009523Y31047620D01*
X44971428Y30895239D01*
X44971428Y30780953D01*
X45009523Y30628572D01*
X45047619Y30552381D01*
X45123809Y30476191D01*
X45238095Y30438096D01*
X45314285Y30438096D01*
X45428571Y30476191D01*
X45466666Y30514286D01*
X45466666Y30780953D01*
X45314285Y30780953D01*
X42571428Y42438096D02*
X42571428Y43238096D01*
X42876190Y43238096D01*
X42952380Y43200000D01*
X42990476Y43161905D01*
X43028571Y43085715D01*
X43028571Y42971429D01*
X42990476Y42895239D01*
X42952380Y42857143D01*
X42876190Y42819048D01*
X42571428Y42819048D01*
X43828571Y42438096D02*
X43561904Y42819048D01*
X43371428Y42438096D02*
X43371428Y43238096D01*
X43676190Y43238096D01*
X43752380Y43200000D01*
X43790476Y43161905D01*
X43828571Y43085715D01*
X43828571Y42971429D01*
X43790476Y42895239D01*
X43752380Y42857143D01*
X43676190Y42819048D01*
X43371428Y42819048D01*
X44323809Y43238096D02*
X44476190Y43238096D01*
X44552380Y43200000D01*
X44628571Y43123810D01*
X44666666Y42971429D01*
X44666666Y42704762D01*
X44628571Y42552381D01*
X44552380Y42476191D01*
X44476190Y42438096D01*
X44323809Y42438096D01*
X44247619Y42476191D01*
X44171428Y42552381D01*
X44133333Y42704762D01*
X44133333Y42971429D01*
X44171428Y43123810D01*
X44247619Y43200000D01*
X44323809Y43238096D01*
X45428571Y43200000D02*
X45352380Y43238096D01*
X45238095Y43238096D01*
X45123809Y43200000D01*
X45047619Y43123810D01*
X45009523Y43047620D01*
X44971428Y42895239D01*
X44971428Y42780953D01*
X45009523Y42628572D01*
X45047619Y42552381D01*
X45123809Y42476191D01*
X45238095Y42438096D01*
X45314285Y42438096D01*
X45428571Y42476191D01*
X45466666Y42514286D01*
X45466666Y42780953D01*
X45314285Y42780953D01*
X42571428Y54438096D02*
X42571428Y55238096D01*
X42876190Y55238096D01*
X42952380Y55200000D01*
X42990476Y55161905D01*
X43028571Y55085715D01*
X43028571Y54971429D01*
X42990476Y54895239D01*
X42952380Y54857143D01*
X42876190Y54819048D01*
X42571428Y54819048D01*
X43828571Y54438096D02*
X43561904Y54819048D01*
X43371428Y54438096D02*
X43371428Y55238096D01*
X43676190Y55238096D01*
X43752380Y55200000D01*
X43790476Y55161905D01*
X43828571Y55085715D01*
X43828571Y54971429D01*
X43790476Y54895239D01*
X43752380Y54857143D01*
X43676190Y54819048D01*
X43371428Y54819048D01*
X44323809Y55238096D02*
X44476190Y55238096D01*
X44552380Y55200000D01*
X44628571Y55123810D01*
X44666666Y54971429D01*
X44666666Y54704762D01*
X44628571Y54552381D01*
X44552380Y54476191D01*
X44476190Y54438096D01*
X44323809Y54438096D01*
X44247619Y54476191D01*
X44171428Y54552381D01*
X44133333Y54704762D01*
X44133333Y54971429D01*
X44171428Y55123810D01*
X44247619Y55200000D01*
X44323809Y55238096D01*
X45428571Y55200000D02*
X45352380Y55238096D01*
X45238095Y55238096D01*
X45123809Y55200000D01*
X45047619Y55123810D01*
X45009523Y55047620D01*
X44971428Y54895239D01*
X44971428Y54780953D01*
X45009523Y54628572D01*
X45047619Y54552381D01*
X45123809Y54476191D01*
X45238095Y54438096D01*
X45314285Y54438096D01*
X45428571Y54476191D01*
X45466666Y54514286D01*
X45466666Y54780953D01*
X45314285Y54780953D01*
X42571428Y66438096D02*
X42571428Y67238096D01*
X42876190Y67238096D01*
X42952380Y67200000D01*
X42990476Y67161905D01*
X43028571Y67085715D01*
X43028571Y66971429D01*
X42990476Y66895239D01*
X42952380Y66857143D01*
X42876190Y66819048D01*
X42571428Y66819048D01*
X43828571Y66438096D02*
X43561904Y66819048D01*
X43371428Y66438096D02*
X43371428Y67238096D01*
X43676190Y67238096D01*
X43752380Y67200000D01*
X43790476Y67161905D01*
X43828571Y67085715D01*
X43828571Y66971429D01*
X43790476Y66895239D01*
X43752380Y66857143D01*
X43676190Y66819048D01*
X43371428Y66819048D01*
X44323809Y67238096D02*
X44476190Y67238096D01*
X44552380Y67200000D01*
X44628571Y67123810D01*
X44666666Y66971429D01*
X44666666Y66704762D01*
X44628571Y66552381D01*
X44552380Y66476191D01*
X44476190Y66438096D01*
X44323809Y66438096D01*
X44247619Y66476191D01*
X44171428Y66552381D01*
X44133333Y66704762D01*
X44133333Y66971429D01*
X44171428Y67123810D01*
X44247619Y67200000D01*
X44323809Y67238096D01*
X45428571Y67200000D02*
X45352380Y67238096D01*
X45238095Y67238096D01*
X45123809Y67200000D01*
X45047619Y67123810D01*
X45009523Y67047620D01*
X44971428Y66895239D01*
X44971428Y66780953D01*
X45009523Y66628572D01*
X45047619Y66552381D01*
X45123809Y66476191D01*
X45238095Y66438096D01*
X45314285Y66438096D01*
X45428571Y66476191D01*
X45466666Y66514286D01*
X45466666Y66780953D01*
X45314285Y66780953D01*
X42571428Y78438096D02*
X42571428Y79238096D01*
X42876190Y79238096D01*
X42952380Y79200000D01*
X42990476Y79161905D01*
X43028571Y79085715D01*
X43028571Y78971429D01*
X42990476Y78895239D01*
X42952380Y78857143D01*
X42876190Y78819048D01*
X42571428Y78819048D01*
X43828571Y78438096D02*
X43561904Y78819048D01*
X43371428Y78438096D02*
X43371428Y79238096D01*
X43676190Y79238096D01*
X43752380Y79200000D01*
X43790476Y79161905D01*
X43828571Y79085715D01*
X43828571Y78971429D01*
X43790476Y78895239D01*
X43752380Y78857143D01*
X43676190Y78819048D01*
X43371428Y78819048D01*
X44323809Y79238096D02*
X44476190Y79238096D01*
X44552380Y79200000D01*
X44628571Y79123810D01*
X44666666Y78971429D01*
X44666666Y78704762D01*
X44628571Y78552381D01*
X44552380Y78476191D01*
X44476190Y78438096D01*
X44323809Y78438096D01*
X44247619Y78476191D01*
X44171428Y78552381D01*
X44133333Y78704762D01*
X44133333Y78971429D01*
X44171428Y79123810D01*
X44247619Y79200000D01*
X44323809Y79238096D01*
X45428571Y79200000D02*
X45352380Y79238096D01*
X45238095Y79238096D01*
X45123809Y79200000D01*
X45047619Y79123810D01*
X45009523Y79047620D01*
X44971428Y78895239D01*
X44971428Y78780953D01*
X45009523Y78628572D01*
X45047619Y78552381D01*
X45123809Y78476191D01*
X45238095Y78438096D01*
X45314285Y78438096D01*
X45428571Y78476191D01*
X45466666Y78514286D01*
X45466666Y78780953D01*
X45314285Y78780953D01*
X34831285Y4492858D02*
X34831285Y5392858D01*
X35131285Y4750000D01*
X35431285Y5392858D01*
X35431285Y4492858D01*
X36031285Y5392858D02*
X36117000Y5392858D01*
X36202714Y5350000D01*
X36245571Y5307143D01*
X36288428Y5221429D01*
X36331285Y5050000D01*
X36331285Y4835715D01*
X36288428Y4664286D01*
X36245571Y4578572D01*
X36202714Y4535715D01*
X36117000Y4492858D01*
X36031285Y4492858D01*
X35945571Y4535715D01*
X35902714Y4578572D01*
X35859857Y4664286D01*
X35817000Y4835715D01*
X35817000Y5050000D01*
X35859857Y5221429D01*
X35902714Y5307143D01*
X35945571Y5350000D01*
X36031285Y5392858D01*
X36674142Y5307143D02*
X36717000Y5350000D01*
X36802714Y5392858D01*
X37017000Y5392858D01*
X37102714Y5350000D01*
X37145571Y5307143D01*
X37188428Y5221429D01*
X37188428Y5135715D01*
X37145571Y5007143D01*
X36631285Y4492858D01*
X37188428Y4492858D01*
X37874142Y4964286D02*
X37574142Y4964286D01*
X37574142Y4492858D02*
X37574142Y5392858D01*
X38002714Y5392858D01*
X38259857Y5392858D02*
X38859857Y5392858D01*
X38474142Y4492858D01*
X39717000Y4492858D02*
X39417000Y4921429D01*
X39202714Y4492858D02*
X39202714Y5392858D01*
X39545571Y5392858D01*
X39631285Y5350000D01*
X39674142Y5307143D01*
X39717000Y5221429D01*
X39717000Y5092858D01*
X39674142Y5007143D01*
X39631285Y4964286D01*
X39545571Y4921429D01*
X39202714Y4921429D01*
X40059857Y4750000D02*
X40488428Y4750000D01*
X39974142Y4492858D02*
X40274142Y5392858D01*
X40574142Y4492858D01*
X42074142Y4492858D02*
X41774142Y4921429D01*
X41559857Y4492858D02*
X41559857Y5392858D01*
X41902714Y5392858D01*
X41988428Y5350000D01*
X42031285Y5307143D01*
X42074142Y5221429D01*
X42074142Y5092858D01*
X42031285Y5007143D01*
X41988428Y4964286D01*
X41902714Y4921429D01*
X41559857Y4921429D01*
X42588428Y4492858D02*
X42502714Y4535715D01*
X42459857Y4578572D01*
X42417000Y4664286D01*
X42417000Y4921429D01*
X42459857Y5007143D01*
X42502714Y5050000D01*
X42588428Y5092858D01*
X42717000Y5092858D01*
X42802714Y5050000D01*
X42845571Y5007143D01*
X42888428Y4921429D01*
X42888428Y4664286D01*
X42845571Y4578572D01*
X42802714Y4535715D01*
X42717000Y4492858D01*
X42588428Y4492858D01*
X43402714Y4492858D02*
X43317000Y4535715D01*
X43274142Y4578572D01*
X43231285Y4664286D01*
X43231285Y4921429D01*
X43274142Y5007143D01*
X43317000Y5050000D01*
X43402714Y5092858D01*
X43531285Y5092858D01*
X43617000Y5050000D01*
X43659857Y5007143D01*
X43702714Y4921429D01*
X43702714Y4664286D01*
X43659857Y4578572D01*
X43617000Y4535715D01*
X43531285Y4492858D01*
X43402714Y4492858D01*
X44088428Y4492858D02*
X44088428Y5092858D01*
X44088428Y5007143D02*
X44131285Y5050000D01*
X44217000Y5092858D01*
X44345571Y5092858D01*
X44431285Y5050000D01*
X44474142Y4964286D01*
X44474142Y4492858D01*
X44474142Y4964286D02*
X44517000Y5050000D01*
X44602714Y5092858D01*
X44731285Y5092858D01*
X44817000Y5050000D01*
X44859857Y4964286D01*
X44859857Y4492858D01*
X45417000Y4492858D02*
X45331285Y4535715D01*
X45288428Y4621429D01*
X45288428Y5392858D01*
X45759857Y4492858D02*
X45759857Y5092858D01*
X45759857Y5392858D02*
X45717000Y5350000D01*
X45759857Y5307143D01*
X45802714Y5350000D01*
X45759857Y5392858D01*
X45759857Y5307143D01*
X46574142Y5092858D02*
X46574142Y4364286D01*
X46531285Y4278572D01*
X46488428Y4235715D01*
X46402714Y4192858D01*
X46274142Y4192858D01*
X46188428Y4235715D01*
X46574142Y4535715D02*
X46488428Y4492858D01*
X46317000Y4492858D01*
X46231285Y4535715D01*
X46188428Y4578572D01*
X46145571Y4664286D01*
X46145571Y4921429D01*
X46188428Y5007143D01*
X46231285Y5050000D01*
X46317000Y5092858D01*
X46488428Y5092858D01*
X46574142Y5050000D01*
X47002714Y4492858D02*
X47002714Y5392858D01*
X47388428Y4492858D02*
X47388428Y4964286D01*
X47345571Y5050000D01*
X47259857Y5092858D01*
X47131285Y5092858D01*
X47045571Y5050000D01*
X47002714Y5007143D01*
X47688428Y5092858D02*
X48031285Y5092858D01*
X47817000Y5392858D02*
X47817000Y4621429D01*
X47859857Y4535715D01*
X47945571Y4492858D01*
X48031285Y4492858D01*
X48331285Y4835715D02*
X49017000Y4835715D01*
X49445571Y4492858D02*
X49445571Y5392858D01*
X49959857Y4492858D01*
X49959857Y5392858D01*
X34831285Y16492858D02*
X34831285Y17392858D01*
X35131285Y16750000D01*
X35431285Y17392858D01*
X35431285Y16492858D01*
X36031285Y17392858D02*
X36117000Y17392858D01*
X36202714Y17350000D01*
X36245571Y17307143D01*
X36288428Y17221429D01*
X36331285Y17050000D01*
X36331285Y16835715D01*
X36288428Y16664286D01*
X36245571Y16578572D01*
X36202714Y16535715D01*
X36117000Y16492858D01*
X36031285Y16492858D01*
X35945571Y16535715D01*
X35902714Y16578572D01*
X35859857Y16664286D01*
X35817000Y16835715D01*
X35817000Y17050000D01*
X35859857Y17221429D01*
X35902714Y17307143D01*
X35945571Y17350000D01*
X36031285Y17392858D01*
X36674142Y17307143D02*
X36717000Y17350000D01*
X36802714Y17392858D01*
X37017000Y17392858D01*
X37102714Y17350000D01*
X37145571Y17307143D01*
X37188428Y17221429D01*
X37188428Y17135715D01*
X37145571Y17007143D01*
X36631285Y16492858D01*
X37188428Y16492858D01*
X37874142Y16964286D02*
X37574142Y16964286D01*
X37574142Y16492858D02*
X37574142Y17392858D01*
X38002714Y17392858D01*
X38259857Y17392858D02*
X38859857Y17392858D01*
X38474142Y16492858D01*
X39717000Y16492858D02*
X39417000Y16921429D01*
X39202714Y16492858D02*
X39202714Y17392858D01*
X39545571Y17392858D01*
X39631285Y17350000D01*
X39674142Y17307143D01*
X39717000Y17221429D01*
X39717000Y17092858D01*
X39674142Y17007143D01*
X39631285Y16964286D01*
X39545571Y16921429D01*
X39202714Y16921429D01*
X40059857Y16750000D02*
X40488428Y16750000D01*
X39974142Y16492858D02*
X40274142Y17392858D01*
X40574142Y16492858D01*
X42074142Y16492858D02*
X41774142Y16921429D01*
X41559857Y16492858D02*
X41559857Y17392858D01*
X41902714Y17392858D01*
X41988428Y17350000D01*
X42031285Y17307143D01*
X42074142Y17221429D01*
X42074142Y17092858D01*
X42031285Y17007143D01*
X41988428Y16964286D01*
X41902714Y16921429D01*
X41559857Y16921429D01*
X42588428Y16492858D02*
X42502714Y16535715D01*
X42459857Y16578572D01*
X42417000Y16664286D01*
X42417000Y16921429D01*
X42459857Y17007143D01*
X42502714Y17050000D01*
X42588428Y17092858D01*
X42717000Y17092858D01*
X42802714Y17050000D01*
X42845571Y17007143D01*
X42888428Y16921429D01*
X42888428Y16664286D01*
X42845571Y16578572D01*
X42802714Y16535715D01*
X42717000Y16492858D01*
X42588428Y16492858D01*
X43402714Y16492858D02*
X43317000Y16535715D01*
X43274142Y16578572D01*
X43231285Y16664286D01*
X43231285Y16921429D01*
X43274142Y17007143D01*
X43317000Y17050000D01*
X43402714Y17092858D01*
X43531285Y17092858D01*
X43617000Y17050000D01*
X43659857Y17007143D01*
X43702714Y16921429D01*
X43702714Y16664286D01*
X43659857Y16578572D01*
X43617000Y16535715D01*
X43531285Y16492858D01*
X43402714Y16492858D01*
X44088428Y16492858D02*
X44088428Y17092858D01*
X44088428Y17007143D02*
X44131285Y17050000D01*
X44217000Y17092858D01*
X44345571Y17092858D01*
X44431285Y17050000D01*
X44474142Y16964286D01*
X44474142Y16492858D01*
X44474142Y16964286D02*
X44517000Y17050000D01*
X44602714Y17092858D01*
X44731285Y17092858D01*
X44817000Y17050000D01*
X44859857Y16964286D01*
X44859857Y16492858D01*
X45417000Y16492858D02*
X45331285Y16535715D01*
X45288428Y16621429D01*
X45288428Y17392858D01*
X45759857Y16492858D02*
X45759857Y17092858D01*
X45759857Y17392858D02*
X45717000Y17350000D01*
X45759857Y17307143D01*
X45802714Y17350000D01*
X45759857Y17392858D01*
X45759857Y17307143D01*
X46574142Y17092858D02*
X46574142Y16364286D01*
X46531285Y16278572D01*
X46488428Y16235715D01*
X46402714Y16192858D01*
X46274142Y16192858D01*
X46188428Y16235715D01*
X46574142Y16535715D02*
X46488428Y16492858D01*
X46317000Y16492858D01*
X46231285Y16535715D01*
X46188428Y16578572D01*
X46145571Y16664286D01*
X46145571Y16921429D01*
X46188428Y17007143D01*
X46231285Y17050000D01*
X46317000Y17092858D01*
X46488428Y17092858D01*
X46574142Y17050000D01*
X47002714Y16492858D02*
X47002714Y17392858D01*
X47388428Y16492858D02*
X47388428Y16964286D01*
X47345571Y17050000D01*
X47259857Y17092858D01*
X47131285Y17092858D01*
X47045571Y17050000D01*
X47002714Y17007143D01*
X47688428Y17092858D02*
X48031285Y17092858D01*
X47817000Y17392858D02*
X47817000Y16621429D01*
X47859857Y16535715D01*
X47945571Y16492858D01*
X48031285Y16492858D01*
X48331285Y16835715D02*
X49017000Y16835715D01*
X49445571Y16492858D02*
X49445571Y17392858D01*
X49959857Y16492858D01*
X49959857Y17392858D01*
X34831285Y28492858D02*
X34831285Y29392858D01*
X35131285Y28750000D01*
X35431285Y29392858D01*
X35431285Y28492858D01*
X36031285Y29392858D02*
X36117000Y29392858D01*
X36202714Y29350000D01*
X36245571Y29307143D01*
X36288428Y29221429D01*
X36331285Y29050000D01*
X36331285Y28835715D01*
X36288428Y28664286D01*
X36245571Y28578572D01*
X36202714Y28535715D01*
X36117000Y28492858D01*
X36031285Y28492858D01*
X35945571Y28535715D01*
X35902714Y28578572D01*
X35859857Y28664286D01*
X35817000Y28835715D01*
X35817000Y29050000D01*
X35859857Y29221429D01*
X35902714Y29307143D01*
X35945571Y29350000D01*
X36031285Y29392858D01*
X36674142Y29307143D02*
X36717000Y29350000D01*
X36802714Y29392858D01*
X37017000Y29392858D01*
X37102714Y29350000D01*
X37145571Y29307143D01*
X37188428Y29221429D01*
X37188428Y29135715D01*
X37145571Y29007143D01*
X36631285Y28492858D01*
X37188428Y28492858D01*
X37874142Y28964286D02*
X37574142Y28964286D01*
X37574142Y28492858D02*
X37574142Y29392858D01*
X38002714Y29392858D01*
X38259857Y29392858D02*
X38859857Y29392858D01*
X38474142Y28492858D01*
X39717000Y28492858D02*
X39417000Y28921429D01*
X39202714Y28492858D02*
X39202714Y29392858D01*
X39545571Y29392858D01*
X39631285Y29350000D01*
X39674142Y29307143D01*
X39717000Y29221429D01*
X39717000Y29092858D01*
X39674142Y29007143D01*
X39631285Y28964286D01*
X39545571Y28921429D01*
X39202714Y28921429D01*
X40059857Y28750000D02*
X40488428Y28750000D01*
X39974142Y28492858D02*
X40274142Y29392858D01*
X40574142Y28492858D01*
X42074142Y28492858D02*
X41774142Y28921429D01*
X41559857Y28492858D02*
X41559857Y29392858D01*
X41902714Y29392858D01*
X41988428Y29350000D01*
X42031285Y29307143D01*
X42074142Y29221429D01*
X42074142Y29092858D01*
X42031285Y29007143D01*
X41988428Y28964286D01*
X41902714Y28921429D01*
X41559857Y28921429D01*
X42588428Y28492858D02*
X42502714Y28535715D01*
X42459857Y28578572D01*
X42417000Y28664286D01*
X42417000Y28921429D01*
X42459857Y29007143D01*
X42502714Y29050000D01*
X42588428Y29092858D01*
X42717000Y29092858D01*
X42802714Y29050000D01*
X42845571Y29007143D01*
X42888428Y28921429D01*
X42888428Y28664286D01*
X42845571Y28578572D01*
X42802714Y28535715D01*
X42717000Y28492858D01*
X42588428Y28492858D01*
X43402714Y28492858D02*
X43317000Y28535715D01*
X43274142Y28578572D01*
X43231285Y28664286D01*
X43231285Y28921429D01*
X43274142Y29007143D01*
X43317000Y29050000D01*
X43402714Y29092858D01*
X43531285Y29092858D01*
X43617000Y29050000D01*
X43659857Y29007143D01*
X43702714Y28921429D01*
X43702714Y28664286D01*
X43659857Y28578572D01*
X43617000Y28535715D01*
X43531285Y28492858D01*
X43402714Y28492858D01*
X44088428Y28492858D02*
X44088428Y29092858D01*
X44088428Y29007143D02*
X44131285Y29050000D01*
X44217000Y29092858D01*
X44345571Y29092858D01*
X44431285Y29050000D01*
X44474142Y28964286D01*
X44474142Y28492858D01*
X44474142Y28964286D02*
X44517000Y29050000D01*
X44602714Y29092858D01*
X44731285Y29092858D01*
X44817000Y29050000D01*
X44859857Y28964286D01*
X44859857Y28492858D01*
X45417000Y28492858D02*
X45331285Y28535715D01*
X45288428Y28621429D01*
X45288428Y29392858D01*
X45759857Y28492858D02*
X45759857Y29092858D01*
X45759857Y29392858D02*
X45717000Y29350000D01*
X45759857Y29307143D01*
X45802714Y29350000D01*
X45759857Y29392858D01*
X45759857Y29307143D01*
X46574142Y29092858D02*
X46574142Y28364286D01*
X46531285Y28278572D01*
X46488428Y28235715D01*
X46402714Y28192858D01*
X46274142Y28192858D01*
X46188428Y28235715D01*
X46574142Y28535715D02*
X46488428Y28492858D01*
X46317000Y28492858D01*
X46231285Y28535715D01*
X46188428Y28578572D01*
X46145571Y28664286D01*
X46145571Y28921429D01*
X46188428Y29007143D01*
X46231285Y29050000D01*
X46317000Y29092858D01*
X46488428Y29092858D01*
X46574142Y29050000D01*
X47002714Y28492858D02*
X47002714Y29392858D01*
X47388428Y28492858D02*
X47388428Y28964286D01*
X47345571Y29050000D01*
X47259857Y29092858D01*
X47131285Y29092858D01*
X47045571Y29050000D01*
X47002714Y29007143D01*
X47688428Y29092858D02*
X48031285Y29092858D01*
X47817000Y29392858D02*
X47817000Y28621429D01*
X47859857Y28535715D01*
X47945571Y28492858D01*
X48031285Y28492858D01*
X48331285Y28835715D02*
X49017000Y28835715D01*
X49445571Y28492858D02*
X49445571Y29392858D01*
X49959857Y28492858D01*
X49959857Y29392858D01*
X34831285Y40492858D02*
X34831285Y41392858D01*
X35131285Y40750000D01*
X35431285Y41392858D01*
X35431285Y40492858D01*
X36031285Y41392858D02*
X36117000Y41392858D01*
X36202714Y41350000D01*
X36245571Y41307143D01*
X36288428Y41221429D01*
X36331285Y41050000D01*
X36331285Y40835715D01*
X36288428Y40664286D01*
X36245571Y40578572D01*
X36202714Y40535715D01*
X36117000Y40492858D01*
X36031285Y40492858D01*
X35945571Y40535715D01*
X35902714Y40578572D01*
X35859857Y40664286D01*
X35817000Y40835715D01*
X35817000Y41050000D01*
X35859857Y41221429D01*
X35902714Y41307143D01*
X35945571Y41350000D01*
X36031285Y41392858D01*
X36674142Y41307143D02*
X36717000Y41350000D01*
X36802714Y41392858D01*
X37017000Y41392858D01*
X37102714Y41350000D01*
X37145571Y41307143D01*
X37188428Y41221429D01*
X37188428Y41135715D01*
X37145571Y41007143D01*
X36631285Y40492858D01*
X37188428Y40492858D01*
X37874142Y40964286D02*
X37574142Y40964286D01*
X37574142Y40492858D02*
X37574142Y41392858D01*
X38002714Y41392858D01*
X38259857Y41392858D02*
X38859857Y41392858D01*
X38474142Y40492858D01*
X39717000Y40492858D02*
X39417000Y40921429D01*
X39202714Y40492858D02*
X39202714Y41392858D01*
X39545571Y41392858D01*
X39631285Y41350000D01*
X39674142Y41307143D01*
X39717000Y41221429D01*
X39717000Y41092858D01*
X39674142Y41007143D01*
X39631285Y40964286D01*
X39545571Y40921429D01*
X39202714Y40921429D01*
X40059857Y40750000D02*
X40488428Y40750000D01*
X39974142Y40492858D02*
X40274142Y41392858D01*
X40574142Y40492858D01*
X42074142Y40492858D02*
X41774142Y40921429D01*
X41559857Y40492858D02*
X41559857Y41392858D01*
X41902714Y41392858D01*
X41988428Y41350000D01*
X42031285Y41307143D01*
X42074142Y41221429D01*
X42074142Y41092858D01*
X42031285Y41007143D01*
X41988428Y40964286D01*
X41902714Y40921429D01*
X41559857Y40921429D01*
X42588428Y40492858D02*
X42502714Y40535715D01*
X42459857Y40578572D01*
X42417000Y40664286D01*
X42417000Y40921429D01*
X42459857Y41007143D01*
X42502714Y41050000D01*
X42588428Y41092858D01*
X42717000Y41092858D01*
X42802714Y41050000D01*
X42845571Y41007143D01*
X42888428Y40921429D01*
X42888428Y40664286D01*
X42845571Y40578572D01*
X42802714Y40535715D01*
X42717000Y40492858D01*
X42588428Y40492858D01*
X43402714Y40492858D02*
X43317000Y40535715D01*
X43274142Y40578572D01*
X43231285Y40664286D01*
X43231285Y40921429D01*
X43274142Y41007143D01*
X43317000Y41050000D01*
X43402714Y41092858D01*
X43531285Y41092858D01*
X43617000Y41050000D01*
X43659857Y41007143D01*
X43702714Y40921429D01*
X43702714Y40664286D01*
X43659857Y40578572D01*
X43617000Y40535715D01*
X43531285Y40492858D01*
X43402714Y40492858D01*
X44088428Y40492858D02*
X44088428Y41092858D01*
X44088428Y41007143D02*
X44131285Y41050000D01*
X44217000Y41092858D01*
X44345571Y41092858D01*
X44431285Y41050000D01*
X44474142Y40964286D01*
X44474142Y40492858D01*
X44474142Y40964286D02*
X44517000Y41050000D01*
X44602714Y41092858D01*
X44731285Y41092858D01*
X44817000Y41050000D01*
X44859857Y40964286D01*
X44859857Y40492858D01*
X45417000Y40492858D02*
X45331285Y40535715D01*
X45288428Y40621429D01*
X45288428Y41392858D01*
X45759857Y40492858D02*
X45759857Y41092858D01*
X45759857Y41392858D02*
X45717000Y41350000D01*
X45759857Y41307143D01*
X45802714Y41350000D01*
X45759857Y41392858D01*
X45759857Y41307143D01*
X46574142Y41092858D02*
X46574142Y40364286D01*
X46531285Y40278572D01*
X46488428Y40235715D01*
X46402714Y40192858D01*
X46274142Y40192858D01*
X46188428Y40235715D01*
X46574142Y40535715D02*
X46488428Y40492858D01*
X46317000Y40492858D01*
X46231285Y40535715D01*
X46188428Y40578572D01*
X46145571Y40664286D01*
X46145571Y40921429D01*
X46188428Y41007143D01*
X46231285Y41050000D01*
X46317000Y41092858D01*
X46488428Y41092858D01*
X46574142Y41050000D01*
X47002714Y40492858D02*
X47002714Y41392858D01*
X47388428Y40492858D02*
X47388428Y40964286D01*
X47345571Y41050000D01*
X47259857Y41092858D01*
X47131285Y41092858D01*
X47045571Y41050000D01*
X47002714Y41007143D01*
X47688428Y41092858D02*
X48031285Y41092858D01*
X47817000Y41392858D02*
X47817000Y40621429D01*
X47859857Y40535715D01*
X47945571Y40492858D01*
X48031285Y40492858D01*
X48331285Y40835715D02*
X49017000Y40835715D01*
X49445571Y40492858D02*
X49445571Y41392858D01*
X49959857Y40492858D01*
X49959857Y41392858D01*
X34831285Y52492858D02*
X34831285Y53392858D01*
X35131285Y52750000D01*
X35431285Y53392858D01*
X35431285Y52492858D01*
X36031285Y53392858D02*
X36117000Y53392858D01*
X36202714Y53350000D01*
X36245571Y53307143D01*
X36288428Y53221429D01*
X36331285Y53050000D01*
X36331285Y52835715D01*
X36288428Y52664286D01*
X36245571Y52578572D01*
X36202714Y52535715D01*
X36117000Y52492858D01*
X36031285Y52492858D01*
X35945571Y52535715D01*
X35902714Y52578572D01*
X35859857Y52664286D01*
X35817000Y52835715D01*
X35817000Y53050000D01*
X35859857Y53221429D01*
X35902714Y53307143D01*
X35945571Y53350000D01*
X36031285Y53392858D01*
X36674142Y53307143D02*
X36717000Y53350000D01*
X36802714Y53392858D01*
X37017000Y53392858D01*
X37102714Y53350000D01*
X37145571Y53307143D01*
X37188428Y53221429D01*
X37188428Y53135715D01*
X37145571Y53007143D01*
X36631285Y52492858D01*
X37188428Y52492858D01*
X37874142Y52964286D02*
X37574142Y52964286D01*
X37574142Y52492858D02*
X37574142Y53392858D01*
X38002714Y53392858D01*
X38259857Y53392858D02*
X38859857Y53392858D01*
X38474142Y52492858D01*
X39717000Y52492858D02*
X39417000Y52921429D01*
X39202714Y52492858D02*
X39202714Y53392858D01*
X39545571Y53392858D01*
X39631285Y53350000D01*
X39674142Y53307143D01*
X39717000Y53221429D01*
X39717000Y53092858D01*
X39674142Y53007143D01*
X39631285Y52964286D01*
X39545571Y52921429D01*
X39202714Y52921429D01*
X40059857Y52750000D02*
X40488428Y52750000D01*
X39974142Y52492858D02*
X40274142Y53392858D01*
X40574142Y52492858D01*
X42074142Y52492858D02*
X41774142Y52921429D01*
X41559857Y52492858D02*
X41559857Y53392858D01*
X41902714Y53392858D01*
X41988428Y53350000D01*
X42031285Y53307143D01*
X42074142Y53221429D01*
X42074142Y53092858D01*
X42031285Y53007143D01*
X41988428Y52964286D01*
X41902714Y52921429D01*
X41559857Y52921429D01*
X42588428Y52492858D02*
X42502714Y52535715D01*
X42459857Y52578572D01*
X42417000Y52664286D01*
X42417000Y52921429D01*
X42459857Y53007143D01*
X42502714Y53050000D01*
X42588428Y53092858D01*
X42717000Y53092858D01*
X42802714Y53050000D01*
X42845571Y53007143D01*
X42888428Y52921429D01*
X42888428Y52664286D01*
X42845571Y52578572D01*
X42802714Y52535715D01*
X42717000Y52492858D01*
X42588428Y52492858D01*
X43402714Y52492858D02*
X43317000Y52535715D01*
X43274142Y52578572D01*
X43231285Y52664286D01*
X43231285Y52921429D01*
X43274142Y53007143D01*
X43317000Y53050000D01*
X43402714Y53092858D01*
X43531285Y53092858D01*
X43617000Y53050000D01*
X43659857Y53007143D01*
X43702714Y52921429D01*
X43702714Y52664286D01*
X43659857Y52578572D01*
X43617000Y52535715D01*
X43531285Y52492858D01*
X43402714Y52492858D01*
X44088428Y52492858D02*
X44088428Y53092858D01*
X44088428Y53007143D02*
X44131285Y53050000D01*
X44217000Y53092858D01*
X44345571Y53092858D01*
X44431285Y53050000D01*
X44474142Y52964286D01*
X44474142Y52492858D01*
X44474142Y52964286D02*
X44517000Y53050000D01*
X44602714Y53092858D01*
X44731285Y53092858D01*
X44817000Y53050000D01*
X44859857Y52964286D01*
X44859857Y52492858D01*
X45417000Y52492858D02*
X45331285Y52535715D01*
X45288428Y52621429D01*
X45288428Y53392858D01*
X45759857Y52492858D02*
X45759857Y53092858D01*
X45759857Y53392858D02*
X45717000Y53350000D01*
X45759857Y53307143D01*
X45802714Y53350000D01*
X45759857Y53392858D01*
X45759857Y53307143D01*
X46574142Y53092858D02*
X46574142Y52364286D01*
X46531285Y52278572D01*
X46488428Y52235715D01*
X46402714Y52192858D01*
X46274142Y52192858D01*
X46188428Y52235715D01*
X46574142Y52535715D02*
X46488428Y52492858D01*
X46317000Y52492858D01*
X46231285Y52535715D01*
X46188428Y52578572D01*
X46145571Y52664286D01*
X46145571Y52921429D01*
X46188428Y53007143D01*
X46231285Y53050000D01*
X46317000Y53092858D01*
X46488428Y53092858D01*
X46574142Y53050000D01*
X47002714Y52492858D02*
X47002714Y53392858D01*
X47388428Y52492858D02*
X47388428Y52964286D01*
X47345571Y53050000D01*
X47259857Y53092858D01*
X47131285Y53092858D01*
X47045571Y53050000D01*
X47002714Y53007143D01*
X47688428Y53092858D02*
X48031285Y53092858D01*
X47817000Y53392858D02*
X47817000Y52621429D01*
X47859857Y52535715D01*
X47945571Y52492858D01*
X48031285Y52492858D01*
X48331285Y52835715D02*
X49017000Y52835715D01*
X49445571Y52492858D02*
X49445571Y53392858D01*
X49959857Y52492858D01*
X49959857Y53392858D01*
X34831285Y64492858D02*
X34831285Y65392858D01*
X35131285Y64750000D01*
X35431285Y65392858D01*
X35431285Y64492858D01*
X36031285Y65392858D02*
X36117000Y65392858D01*
X36202714Y65350000D01*
X36245571Y65307143D01*
X36288428Y65221429D01*
X36331285Y65050000D01*
X36331285Y64835715D01*
X36288428Y64664286D01*
X36245571Y64578572D01*
X36202714Y64535715D01*
X36117000Y64492858D01*
X36031285Y64492858D01*
X35945571Y64535715D01*
X35902714Y64578572D01*
X35859857Y64664286D01*
X35817000Y64835715D01*
X35817000Y65050000D01*
X35859857Y65221429D01*
X35902714Y65307143D01*
X35945571Y65350000D01*
X36031285Y65392858D01*
X36674142Y65307143D02*
X36717000Y65350000D01*
X36802714Y65392858D01*
X37017000Y65392858D01*
X37102714Y65350000D01*
X37145571Y65307143D01*
X37188428Y65221429D01*
X37188428Y65135715D01*
X37145571Y65007143D01*
X36631285Y64492858D01*
X37188428Y64492858D01*
X37874142Y64964286D02*
X37574142Y64964286D01*
X37574142Y64492858D02*
X37574142Y65392858D01*
X38002714Y65392858D01*
X38259857Y65392858D02*
X38859857Y65392858D01*
X38474142Y64492858D01*
X39717000Y64492858D02*
X39417000Y64921429D01*
X39202714Y64492858D02*
X39202714Y65392858D01*
X39545571Y65392858D01*
X39631285Y65350000D01*
X39674142Y65307143D01*
X39717000Y65221429D01*
X39717000Y65092858D01*
X39674142Y65007143D01*
X39631285Y64964286D01*
X39545571Y64921429D01*
X39202714Y64921429D01*
X40059857Y64750000D02*
X40488428Y64750000D01*
X39974142Y64492858D02*
X40274142Y65392858D01*
X40574142Y64492858D01*
X42074142Y64492858D02*
X41774142Y64921429D01*
X41559857Y64492858D02*
X41559857Y65392858D01*
X41902714Y65392858D01*
X41988428Y65350000D01*
X42031285Y65307143D01*
X42074142Y65221429D01*
X42074142Y65092858D01*
X42031285Y65007143D01*
X41988428Y64964286D01*
X41902714Y64921429D01*
X41559857Y64921429D01*
X42588428Y64492858D02*
X42502714Y64535715D01*
X42459857Y64578572D01*
X42417000Y64664286D01*
X42417000Y64921429D01*
X42459857Y65007143D01*
X42502714Y65050000D01*
X42588428Y65092858D01*
X42717000Y65092858D01*
X42802714Y65050000D01*
X42845571Y65007143D01*
X42888428Y64921429D01*
X42888428Y64664286D01*
X42845571Y64578572D01*
X42802714Y64535715D01*
X42717000Y64492858D01*
X42588428Y64492858D01*
X43402714Y64492858D02*
X43317000Y64535715D01*
X43274142Y64578572D01*
X43231285Y64664286D01*
X43231285Y64921429D01*
X43274142Y65007143D01*
X43317000Y65050000D01*
X43402714Y65092858D01*
X43531285Y65092858D01*
X43617000Y65050000D01*
X43659857Y65007143D01*
X43702714Y64921429D01*
X43702714Y64664286D01*
X43659857Y64578572D01*
X43617000Y64535715D01*
X43531285Y64492858D01*
X43402714Y64492858D01*
X44088428Y64492858D02*
X44088428Y65092858D01*
X44088428Y65007143D02*
X44131285Y65050000D01*
X44217000Y65092858D01*
X44345571Y65092858D01*
X44431285Y65050000D01*
X44474142Y64964286D01*
X44474142Y64492858D01*
X44474142Y64964286D02*
X44517000Y65050000D01*
X44602714Y65092858D01*
X44731285Y65092858D01*
X44817000Y65050000D01*
X44859857Y64964286D01*
X44859857Y64492858D01*
X45417000Y64492858D02*
X45331285Y64535715D01*
X45288428Y64621429D01*
X45288428Y65392858D01*
X45759857Y64492858D02*
X45759857Y65092858D01*
X45759857Y65392858D02*
X45717000Y65350000D01*
X45759857Y65307143D01*
X45802714Y65350000D01*
X45759857Y65392858D01*
X45759857Y65307143D01*
X46574142Y65092858D02*
X46574142Y64364286D01*
X46531285Y64278572D01*
X46488428Y64235715D01*
X46402714Y64192858D01*
X46274142Y64192858D01*
X46188428Y64235715D01*
X46574142Y64535715D02*
X46488428Y64492858D01*
X46317000Y64492858D01*
X46231285Y64535715D01*
X46188428Y64578572D01*
X46145571Y64664286D01*
X46145571Y64921429D01*
X46188428Y65007143D01*
X46231285Y65050000D01*
X46317000Y65092858D01*
X46488428Y65092858D01*
X46574142Y65050000D01*
X47002714Y64492858D02*
X47002714Y65392858D01*
X47388428Y64492858D02*
X47388428Y64964286D01*
X47345571Y65050000D01*
X47259857Y65092858D01*
X47131285Y65092858D01*
X47045571Y65050000D01*
X47002714Y65007143D01*
X47688428Y65092858D02*
X48031285Y65092858D01*
X47817000Y65392858D02*
X47817000Y64621429D01*
X47859857Y64535715D01*
X47945571Y64492858D01*
X48031285Y64492858D01*
X48331285Y64835715D02*
X49017000Y64835715D01*
X49445571Y64492858D02*
X49445571Y65392858D01*
X49959857Y64492858D01*
X49959857Y65392858D01*
X34831285Y76492858D02*
X34831285Y77392858D01*
X35131285Y76750000D01*
X35431285Y77392858D01*
X35431285Y76492858D01*
X36031285Y77392858D02*
X36117000Y77392858D01*
X36202714Y77350000D01*
X36245571Y77307143D01*
X36288428Y77221429D01*
X36331285Y77050000D01*
X36331285Y76835715D01*
X36288428Y76664286D01*
X36245571Y76578572D01*
X36202714Y76535715D01*
X36117000Y76492858D01*
X36031285Y76492858D01*
X35945571Y76535715D01*
X35902714Y76578572D01*
X35859857Y76664286D01*
X35817000Y76835715D01*
X35817000Y77050000D01*
X35859857Y77221429D01*
X35902714Y77307143D01*
X35945571Y77350000D01*
X36031285Y77392858D01*
X36674142Y77307143D02*
X36717000Y77350000D01*
X36802714Y77392858D01*
X37017000Y77392858D01*
X37102714Y77350000D01*
X37145571Y77307143D01*
X37188428Y77221429D01*
X37188428Y77135715D01*
X37145571Y77007143D01*
X36631285Y76492858D01*
X37188428Y76492858D01*
X37874142Y76964286D02*
X37574142Y76964286D01*
X37574142Y76492858D02*
X37574142Y77392858D01*
X38002714Y77392858D01*
X38259857Y77392858D02*
X38859857Y77392858D01*
X38474142Y76492858D01*
X39717000Y76492858D02*
X39417000Y76921429D01*
X39202714Y76492858D02*
X39202714Y77392858D01*
X39545571Y77392858D01*
X39631285Y77350000D01*
X39674142Y77307143D01*
X39717000Y77221429D01*
X39717000Y77092858D01*
X39674142Y77007143D01*
X39631285Y76964286D01*
X39545571Y76921429D01*
X39202714Y76921429D01*
X40059857Y76750000D02*
X40488428Y76750000D01*
X39974142Y76492858D02*
X40274142Y77392858D01*
X40574142Y76492858D01*
X42074142Y76492858D02*
X41774142Y76921429D01*
X41559857Y76492858D02*
X41559857Y77392858D01*
X41902714Y77392858D01*
X41988428Y77350000D01*
X42031285Y77307143D01*
X42074142Y77221429D01*
X42074142Y77092858D01*
X42031285Y77007143D01*
X41988428Y76964286D01*
X41902714Y76921429D01*
X41559857Y76921429D01*
X42588428Y76492858D02*
X42502714Y76535715D01*
X42459857Y76578572D01*
X42417000Y76664286D01*
X42417000Y76921429D01*
X42459857Y77007143D01*
X42502714Y77050000D01*
X42588428Y77092858D01*
X42717000Y77092858D01*
X42802714Y77050000D01*
X42845571Y77007143D01*
X42888428Y76921429D01*
X42888428Y76664286D01*
X42845571Y76578572D01*
X42802714Y76535715D01*
X42717000Y76492858D01*
X42588428Y76492858D01*
X43402714Y76492858D02*
X43317000Y76535715D01*
X43274142Y76578572D01*
X43231285Y76664286D01*
X43231285Y76921429D01*
X43274142Y77007143D01*
X43317000Y77050000D01*
X43402714Y77092858D01*
X43531285Y77092858D01*
X43617000Y77050000D01*
X43659857Y77007143D01*
X43702714Y76921429D01*
X43702714Y76664286D01*
X43659857Y76578572D01*
X43617000Y76535715D01*
X43531285Y76492858D01*
X43402714Y76492858D01*
X44088428Y76492858D02*
X44088428Y77092858D01*
X44088428Y77007143D02*
X44131285Y77050000D01*
X44217000Y77092858D01*
X44345571Y77092858D01*
X44431285Y77050000D01*
X44474142Y76964286D01*
X44474142Y76492858D01*
X44474142Y76964286D02*
X44517000Y77050000D01*
X44602714Y77092858D01*
X44731285Y77092858D01*
X44817000Y77050000D01*
X44859857Y76964286D01*
X44859857Y76492858D01*
X45417000Y76492858D02*
X45331285Y76535715D01*
X45288428Y76621429D01*
X45288428Y77392858D01*
X45759857Y76492858D02*
X45759857Y77092858D01*
X45759857Y77392858D02*
X45717000Y77350000D01*
X45759857Y77307143D01*
X45802714Y77350000D01*
X45759857Y77392858D01*
X45759857Y77307143D01*
X46574142Y77092858D02*
X46574142Y76364286D01*
X46531285Y76278572D01*
X46488428Y76235715D01*
X46402714Y76192858D01*
X46274142Y76192858D01*
X46188428Y76235715D01*
X46574142Y76535715D02*
X46488428Y76492858D01*
X46317000Y76492858D01*
X46231285Y76535715D01*
X46188428Y76578572D01*
X46145571Y76664286D01*
X46145571Y76921429D01*
X46188428Y77007143D01*
X46231285Y77050000D01*
X46317000Y77092858D01*
X46488428Y77092858D01*
X46574142Y77050000D01*
X47002714Y76492858D02*
X47002714Y77392858D01*
X47388428Y76492858D02*
X47388428Y76964286D01*
X47345571Y77050000D01*
X47259857Y77092858D01*
X47131285Y77092858D01*
X47045571Y77050000D01*
X47002714Y77007143D01*
X47688428Y77092858D02*
X48031285Y77092858D01*
X47817000Y77392858D02*
X47817000Y76621429D01*
X47859857Y76535715D01*
X47945571Y76492858D01*
X48031285Y76492858D01*
X48331285Y76835715D02*
X49017000Y76835715D01*
X49445571Y76492858D02*
X49445571Y77392858D01*
X49959857Y76492858D01*
X49959857Y77392858D01*
D13*
X76000000Y9000000D02*
X76000000Y1000000D01*
X76000000Y21000000D02*
X76000000Y13000000D01*
X76000000Y33000000D02*
X76000000Y25000000D01*
X76000000Y45000000D02*
X76000000Y37000000D01*
X76000000Y57000000D02*
X76000000Y49000000D01*
X76000000Y69000000D02*
X76000000Y61000000D01*
X76000000Y81000000D02*
X76000000Y73000000D01*
X86000000Y9000000D02*
X86000000Y1000000D01*
X86000000Y21000000D02*
X86000000Y13000000D01*
X86000000Y33000000D02*
X86000000Y25000000D01*
X86000000Y45000000D02*
X86000000Y37000000D01*
X86000000Y57000000D02*
X86000000Y49000000D01*
X86000000Y69000000D02*
X86000000Y61000000D01*
X86000000Y81000000D02*
X86000000Y73000000D01*
X16000000Y9000000D02*
X16000000Y1000000D01*
X16000000Y21000000D02*
X16000000Y13000000D01*
X16000000Y33000000D02*
X16000000Y25000000D01*
X16000000Y45000000D02*
X16000000Y37000000D01*
X16000000Y57000000D02*
X16000000Y49000000D01*
X16000000Y69000000D02*
X16000000Y61000000D01*
X16000000Y81000000D02*
X16000000Y73000000D01*
D12*
X6000000Y5000000D02*
X10000000Y5000000D01*
X6000000Y17000000D02*
X10000000Y17000000D01*
X6000000Y29000000D02*
X10000000Y29000000D01*
X6000000Y41000000D02*
X10000000Y41000000D01*
X6000000Y53000000D02*
X10000000Y53000000D01*
X6000000Y65000000D02*
X10000000Y65000000D01*
X6000000Y77000000D02*
X10000000Y77000000D01*
X6000000Y89000000D02*
X10000000Y89000000D01*
D11*
X9445238Y90692858D02*
X10054761Y90692858D01*
X9445238Y87192858D02*
X10054761Y87192858D01*
X9750000Y86888096D02*
X9750000Y87497620D01*
X48090476Y84842858D02*
X48700000Y84842858D01*
X48395238Y84538096D02*
X48395238Y85147620D01*
X49500000Y84538096D02*
X49042857Y84538096D01*
X49271428Y84538096D02*
X49271428Y85338096D01*
X49195238Y85223810D01*
X49119047Y85147620D01*
X49042857Y85109524D01*
X49804761Y85261905D02*
X49842857Y85300000D01*
X49919047Y85338096D01*
X50109523Y85338096D01*
X50185714Y85300000D01*
X50223809Y85261905D01*
X50261904Y85185715D01*
X50261904Y85109524D01*
X50223809Y84995239D01*
X49766666Y84538096D01*
X50261904Y84538096D01*
X50490476Y85338096D02*
X50757142Y84538096D01*
X51023809Y85338096D01*
D10*
X24433333Y90857143D02*
X24166666Y90857143D01*
X24166666Y90438096D02*
X24166666Y91238096D01*
X24547619Y91238096D01*
X25271428Y90438096D02*
X24814285Y90438096D01*
X25042857Y90438096D02*
X25042857Y91238096D01*
X24966666Y91123810D01*
X24890476Y91047620D01*
X24814285Y91009524D01*
X23433333Y86357143D02*
X23166666Y86357143D01*
X23166666Y85938096D02*
X23166666Y86738096D01*
X23547619Y86738096D01*
X24195238Y86471429D02*
X24195238Y85938096D01*
X24004761Y86776191D02*
X23814285Y86204762D01*
X24309523Y86204762D01*
D12*
X42571428Y90438096D02*
X42571428Y91238096D01*
X42876190Y91238096D01*
X42952380Y91200000D01*
X42990476Y91161905D01*
X43028571Y91085715D01*
X43028571Y90971429D01*
X42990476Y90895239D01*
X42952380Y90857143D01*
X42876190Y90819048D01*
X42571428Y90819048D01*
X43828571Y90438096D02*
X43561904Y90819048D01*
X43371428Y90438096D02*
X43371428Y91238096D01*
X43676190Y91238096D01*
X43752380Y91200000D01*
X43790476Y91161905D01*
X43828571Y91085715D01*
X43828571Y90971429D01*
X43790476Y90895239D01*
X43752380Y90857143D01*
X43676190Y90819048D01*
X43371428Y90819048D01*
X44323809Y91238096D02*
X44476190Y91238096D01*
X44552380Y91200000D01*
X44628571Y91123810D01*
X44666666Y90971429D01*
X44666666Y90704762D01*
X44628571Y90552381D01*
X44552380Y90476191D01*
X44476190Y90438096D01*
X44323809Y90438096D01*
X44247619Y90476191D01*
X44171428Y90552381D01*
X44133333Y90704762D01*
X44133333Y90971429D01*
X44171428Y91123810D01*
X44247619Y91200000D01*
X44323809Y91238096D01*
X45428571Y91200000D02*
X45352380Y91238096D01*
X45238095Y91238096D01*
X45123809Y91200000D01*
X45047619Y91123810D01*
X45009523Y91047620D01*
X44971428Y90895239D01*
X44971428Y90780953D01*
X45009523Y90628572D01*
X45047619Y90552381D01*
X45123809Y90476191D01*
X45238095Y90438096D01*
X45314285Y90438096D01*
X45428571Y90476191D01*
X45466666Y90514286D01*
X45466666Y90780953D01*
X45314285Y90780953D01*
X34831285Y88492858D02*
X34831285Y89392858D01*
X35131285Y88750000D01*
X35431285Y89392858D01*
X35431285Y88492858D01*
X36031285Y89392858D02*
X36117000Y89392858D01*
X36202714Y89350000D01*
X36245571Y89307143D01*
X36288428Y89221429D01*
X36331285Y89050000D01*
X36331285Y88835715D01*
X36288428Y88664286D01*
X36245571Y88578572D01*
X36202714Y88535715D01*
X36117000Y88492858D01*
X36031285Y88492858D01*
X35945571Y88535715D01*
X35902714Y88578572D01*
X35859857Y88664286D01*
X35817000Y88835715D01*
X35817000Y89050000D01*
X35859857Y89221429D01*
X35902714Y89307143D01*
X35945571Y89350000D01*
X36031285Y89392858D01*
X36674142Y89307143D02*
X36717000Y89350000D01*
X36802714Y89392858D01*
X37017000Y89392858D01*
X37102714Y89350000D01*
X37145571Y89307143D01*
X37188428Y89221429D01*
X37188428Y89135715D01*
X37145571Y89007143D01*
X36631285Y88492858D01*
X37188428Y88492858D01*
X37874142Y88964286D02*
X37574142Y88964286D01*
X37574142Y88492858D02*
X37574142Y89392858D01*
X38002714Y89392858D01*
X38259857Y89392858D02*
X38859857Y89392858D01*
X38474142Y88492858D01*
X39717000Y88492858D02*
X39417000Y88921429D01*
X39202714Y88492858D02*
X39202714Y89392858D01*
X39545571Y89392858D01*
X39631285Y89350000D01*
X39674142Y89307143D01*
X39717000Y89221429D01*
X39717000Y89092858D01*
X39674142Y89007143D01*
X39631285Y88964286D01*
X39545571Y88921429D01*
X39202714Y88921429D01*
X40059857Y88750000D02*
X40488428Y88750000D01*
X39974142Y88492858D02*
X40274142Y89392858D01*
X40574142Y88492858D01*
X42074142Y88492858D02*
X41774142Y88921429D01*
X41559857Y88492858D02*
X41559857Y89392858D01*
X41902714Y89392858D01*
X41988428Y89350000D01*
X42031285Y89307143D01*
X42074142Y89221429D01*
X42074142Y89092858D01*
X42031285Y89007143D01*
X41988428Y88964286D01*
X41902714Y88921429D01*
X41559857Y88921429D01*
X42588428Y88492858D02*
X42502714Y88535715D01*
X42459857Y88578572D01*
X42417000Y88664286D01*
X42417000Y88921429D01*
X42459857Y89007143D01*
X42502714Y89050000D01*
X42588428Y89092858D01*
X42717000Y89092858D01*
X42802714Y89050000D01*
X42845571Y89007143D01*
X42888428Y88921429D01*
X42888428Y88664286D01*
X42845571Y88578572D01*
X42802714Y88535715D01*
X42717000Y88492858D01*
X42588428Y88492858D01*
X43402714Y88492858D02*
X43317000Y88535715D01*
X43274142Y88578572D01*
X43231285Y88664286D01*
X43231285Y88921429D01*
X43274142Y89007143D01*
X43317000Y89050000D01*
X43402714Y89092858D01*
X43531285Y89092858D01*
X43617000Y89050000D01*
X43659857Y89007143D01*
X43702714Y88921429D01*
X43702714Y88664286D01*
X43659857Y88578572D01*
X43617000Y88535715D01*
X43531285Y88492858D01*
X43402714Y88492858D01*
X44088428Y88492858D02*
X44088428Y89092858D01*
X44088428Y89007143D02*
X44131285Y89050000D01*
X44217000Y89092858D01*
X44345571Y89092858D01*
X44431285Y89050000D01*
X44474142Y88964286D01*
X44474142Y88492858D01*
X44474142Y88964286D02*
X44517000Y89050000D01*
X44602714Y89092858D01*
X44731285Y89092858D01*
X44817000Y89050000D01*
X44859857Y88964286D01*
X44859857Y88492858D01*
X45417000Y88492858D02*
X45331285Y88535715D01*
X45288428Y88621429D01*
X45288428Y89392858D01*
X45759857Y88492858D02*
X45759857Y89092858D01*
X45759857Y89392858D02*
X45717000Y89350000D01*
X45759857Y89307143D01*
X45802714Y89350000D01*
X45759857Y89392858D01*
X45759857Y89307143D01*
X46574142Y89092858D02*
X46574142Y88364286D01*
X46531285Y88278572D01*
X46488428Y88235715D01*
X46402714Y88192858D01*
X46274142Y88192858D01*
X46188428Y88235715D01*
X46574142Y88535715D02*
X46488428Y88492858D01*
X46317000Y88492858D01*
X46231285Y88535715D01*
X46188428Y88578572D01*
X46145571Y88664286D01*
X46145571Y88921429D01*
X46188428Y89007143D01*
X46231285Y89050000D01*
X46317000Y89092858D01*
X46488428Y89092858D01*
X46574142Y89050000D01*
X47002714Y88492858D02*
X47002714Y89392858D01*
X47388428Y88492858D02*
X47388428Y88964286D01*
X47345571Y89050000D01*
X47259857Y89092858D01*
X47131285Y89092858D01*
X47045571Y89050000D01*
X47002714Y89007143D01*
X47688428Y89092858D02*
X48031285Y89092858D01*
X47817000Y89392858D02*
X47817000Y88621429D01*
X47859857Y88535715D01*
X47945571Y88492858D01*
X48031285Y88492858D01*
X48331285Y88835715D02*
X49017000Y88835715D01*
X49445571Y88492858D02*
X49445571Y89392858D01*
X49959857Y88492858D01*
X49959857Y89392858D01*
D10*
X39033333Y91457143D02*
X38766666Y91457143D01*
X38766666Y91038096D02*
X38766666Y91838096D01*
X39147619Y91838096D01*
X39414285Y91761905D02*
X39452380Y91800000D01*
X39528571Y91838096D01*
X39719047Y91838096D01*
X39795238Y91800000D01*
X39833333Y91761905D01*
X39871428Y91685715D01*
X39871428Y91609524D01*
X39833333Y91495239D01*
X39376190Y91038096D01*
X39871428Y91038096D01*
X59233333Y86457143D02*
X58966666Y86457143D01*
X58966666Y86038096D02*
X58966666Y86838096D01*
X59347619Y86838096D01*
X59576190Y86838096D02*
X60071428Y86838096D01*
X59804761Y86533334D01*
X59919047Y86533334D01*
X59995238Y86495239D01*
X60033333Y86457143D01*
X60071428Y86380953D01*
X60071428Y86190477D01*
X60033333Y86114286D01*
X59995238Y86076191D01*
X59919047Y86038096D01*
X59690476Y86038096D01*
X59614285Y86076191D01*
X59576190Y86114286D01*
X55833333Y86357143D02*
X55566666Y86357143D01*
X55566666Y85938096D02*
X55566666Y86738096D01*
X55947619Y86738096D01*
X56633333Y86738096D02*
X56252380Y86738096D01*
X56214285Y86357143D01*
X56252380Y86395239D01*
X56328571Y86433334D01*
X56519047Y86433334D01*
X56595238Y86395239D01*
X56633333Y86357143D01*
X56671428Y86280953D01*
X56671428Y86090477D01*
X56633333Y86014286D01*
X56595238Y85976191D01*
X56519047Y85938096D01*
X56328571Y85938096D01*
X56252380Y85976191D01*
X56214285Y86014286D01*
X40833333Y91457143D02*
X40566666Y91457143D01*
X40566666Y91038096D02*
X40566666Y91838096D01*
X40947619Y91838096D01*
X41595238Y91838096D02*
X41442857Y91838096D01*
X41366666Y91800000D01*
X41328571Y91761905D01*
X41252380Y91647620D01*
X41214285Y91495239D01*
X41214285Y91190477D01*
X41252380Y91114286D01*
X41290476Y91076191D01*
X41366666Y91038096D01*
X41519047Y91038096D01*
X41595238Y91076191D01*
X41633333Y91114286D01*
X41671428Y91190477D01*
X41671428Y91380953D01*
X41633333Y91457143D01*
X41595238Y91495239D01*
X41519047Y91533334D01*
X41366666Y91533334D01*
X41290476Y91495239D01*
X41252380Y91457143D01*
X41214285Y91380953D01*
D13*
X16000000Y93000000D02*
X16000000Y85000000D01*
D12*
X35264619Y87338096D02*
X34997952Y87719048D01*
X34807476Y87338096D02*
X34807476Y88138096D01*
X35112238Y88138096D01*
X35188428Y88100000D01*
X35226523Y88061905D01*
X35264619Y87985715D01*
X35264619Y87871429D01*
X35226523Y87795239D01*
X35188428Y87757143D01*
X35112238Y87719048D01*
X34807476Y87719048D01*
X35912238Y87376191D02*
X35836047Y87338096D01*
X35683666Y87338096D01*
X35607476Y87376191D01*
X35569380Y87452381D01*
X35569380Y87757143D01*
X35607476Y87833334D01*
X35683666Y87871429D01*
X35836047Y87871429D01*
X35912238Y87833334D01*
X35950333Y87757143D01*
X35950333Y87680953D01*
X35569380Y87604762D01*
X36217000Y87871429D02*
X36407476Y87338096D01*
X36597952Y87871429D01*
X36902714Y87414286D02*
X36940809Y87376191D01*
X36902714Y87338096D01*
X36864619Y87376191D01*
X36902714Y87414286D01*
X36902714Y87338096D01*
X37702714Y87338096D02*
X37245571Y87338096D01*
X37474142Y87338096D02*
X37474142Y88138096D01*
X37397952Y88023810D01*
X37321761Y87947620D01*
X37245571Y87909524D01*
X38617000Y88061905D02*
X38655095Y88100000D01*
X38731285Y88138096D01*
X38921761Y88138096D01*
X38997952Y88100000D01*
X39036047Y88061905D01*
X39074142Y87985715D01*
X39074142Y87909524D01*
X39036047Y87795239D01*
X38578904Y87338096D01*
X39074142Y87338096D01*
X39569380Y88138096D02*
X39645571Y88138096D01*
X39721761Y88100000D01*
X39759857Y88061905D01*
X39797952Y87985715D01*
X39836047Y87833334D01*
X39836047Y87642858D01*
X39797952Y87490477D01*
X39759857Y87414286D01*
X39721761Y87376191D01*
X39645571Y87338096D01*
X39569380Y87338096D01*
X39493190Y87376191D01*
X39455095Y87414286D01*
X39417000Y87490477D01*
X39378904Y87642858D01*
X39378904Y87833334D01*
X39417000Y87985715D01*
X39455095Y88061905D01*
X39493190Y88100000D01*
X39569380Y88138096D01*
X40140809Y88061905D02*
X40178904Y88100000D01*
X40255095Y88138096D01*
X40445571Y88138096D01*
X40521761Y88100000D01*
X40559857Y88061905D01*
X40597952Y87985715D01*
X40597952Y87909524D01*
X40559857Y87795239D01*
X40102714Y87338096D01*
X40597952Y87338096D01*
X41359857Y87338096D02*
X40902714Y87338096D01*
X41131285Y87338096D02*
X41131285Y88138096D01*
X41055095Y88023810D01*
X40978904Y87947620D01*
X40902714Y87909524D01*
X41702714Y87414286D02*
X41740809Y87376191D01*
X41702714Y87338096D01*
X41664619Y87376191D01*
X41702714Y87414286D01*
X41702714Y87338096D01*
X42236047Y88138096D02*
X42312238Y88138096D01*
X42388428Y88100000D01*
X42426523Y88061905D01*
X42464619Y87985715D01*
X42502714Y87833334D01*
X42502714Y87642858D01*
X42464619Y87490477D01*
X42426523Y87414286D01*
X42388428Y87376191D01*
X42312238Y87338096D01*
X42236047Y87338096D01*
X42159857Y87376191D01*
X42121761Y87414286D01*
X42083666Y87490477D01*
X42045571Y87642858D01*
X42045571Y87833334D01*
X42083666Y87985715D01*
X42121761Y88061905D01*
X42159857Y88100000D01*
X42236047Y88138096D01*
X42769380Y88138096D02*
X43264619Y88138096D01*
X42997952Y87833334D01*
X43112238Y87833334D01*
X43188428Y87795239D01*
X43226523Y87757143D01*
X43264619Y87680953D01*
X43264619Y87490477D01*
X43226523Y87414286D01*
X43188428Y87376191D01*
X43112238Y87338096D01*
X42883666Y87338096D01*
X42807476Y87376191D01*
X42769380Y87414286D01*
D11*
X50690476Y91700000D02*
X50614285Y91738096D01*
X50500000Y91738096D01*
X50385714Y91700000D01*
X50309523Y91623810D01*
X50271428Y91547620D01*
X50233333Y91395239D01*
X50233333Y91280953D01*
X50271428Y91128572D01*
X50309523Y91052381D01*
X50385714Y90976191D01*
X50500000Y90938096D01*
X50576190Y90938096D01*
X50690476Y90976191D01*
X50728571Y91014286D01*
X50728571Y91280953D01*
X50576190Y91280953D01*
X51071428Y90938096D02*
X51071428Y91738096D01*
X51528571Y90938096D01*
X51528571Y91738096D01*
X51909523Y90938096D02*
X51909523Y91738096D01*
X52100000Y91738096D01*
X52214285Y91700000D01*
X52290476Y91623810D01*
X52328571Y91547620D01*
X52366666Y91395239D01*
X52366666Y91280953D01*
X52328571Y91128572D01*
X52290476Y91052381D01*
X52214285Y90976191D01*
X52100000Y90938096D01*
X51909523Y90938096D01*
X32490476Y86142858D02*
X33100000Y86142858D01*
X32795238Y85838096D02*
X32795238Y86447620D01*
X33900000Y85838096D02*
X33442857Y85838096D01*
X33671428Y85838096D02*
X33671428Y86638096D01*
X33595238Y86523810D01*
X33519047Y86447620D01*
X33442857Y86409524D01*
X34204761Y86561905D02*
X34242857Y86600000D01*
X34319047Y86638096D01*
X34509523Y86638096D01*
X34585714Y86600000D01*
X34623809Y86561905D01*
X34661904Y86485715D01*
X34661904Y86409524D01*
X34623809Y86295239D01*
X34166666Y85838096D01*
X34661904Y85838096D01*
X34890476Y86638096D02*
X35157142Y85838096D01*
X35423809Y86638096D01*
X20390476Y91800000D02*
X20314285Y91838096D01*
X20200000Y91838096D01*
X20085714Y91800000D01*
X20009523Y91723810D01*
X19971428Y91647620D01*
X19933333Y91495239D01*
X19933333Y91380953D01*
X19971428Y91228572D01*
X20009523Y91152381D01*
X20085714Y91076191D01*
X20200000Y91038096D01*
X20276190Y91038096D01*
X20390476Y91076191D01*
X20428571Y91114286D01*
X20428571Y91380953D01*
X20276190Y91380953D01*
X20771428Y91038096D02*
X20771428Y91838096D01*
X21228571Y91038096D01*
X21228571Y91838096D01*
X21609523Y91038096D02*
X21609523Y91838096D01*
X21800000Y91838096D01*
X21914285Y91800000D01*
X21990476Y91723810D01*
X22028571Y91647620D01*
X22066666Y91495239D01*
X22066666Y91380953D01*
X22028571Y91228572D01*
X21990476Y91152381D01*
X21914285Y91076191D01*
X21800000Y91038096D01*
X21609523Y91038096D01*
X19390476Y86442858D02*
X20000000Y86442858D01*
X19695238Y86138096D02*
X19695238Y86747620D01*
X20800000Y86138096D02*
X20342857Y86138096D01*
X20571428Y86138096D02*
X20571428Y86938096D01*
X20495238Y86823810D01*
X20419047Y86747620D01*
X20342857Y86709524D01*
X21104761Y86861905D02*
X21142857Y86900000D01*
X21219047Y86938096D01*
X21409523Y86938096D01*
X21485714Y86900000D01*
X21523809Y86861905D01*
X21561904Y86785715D01*
X21561904Y86709524D01*
X21523809Y86595239D01*
X21066666Y86138096D01*
X21561904Y86138096D01*
X21790476Y86938096D02*
X22057142Y86138096D01*
X22323809Y86938096D01*
X25695238Y86238096D02*
X25695238Y87038096D01*
X25961904Y86466667D01*
X26228571Y87038096D01*
X26228571Y86238096D01*
X26761904Y87038096D02*
X26914285Y87038096D01*
X26990476Y87000000D01*
X27066666Y86923810D01*
X27104761Y86771429D01*
X27104761Y86504762D01*
X27066666Y86352381D01*
X26990476Y86276191D01*
X26914285Y86238096D01*
X26761904Y86238096D01*
X26685714Y86276191D01*
X26609523Y86352381D01*
X26571428Y86504762D01*
X26571428Y86771429D01*
X26609523Y86923810D01*
X26685714Y87000000D01*
X26761904Y87038096D01*
X27333333Y87038096D02*
X27790476Y87038096D01*
X27561904Y86238096D02*
X27561904Y87038096D01*
X28209523Y87038096D02*
X28361904Y87038096D01*
X28438095Y87000000D01*
X28514285Y86923810D01*
X28552380Y86771429D01*
X28552380Y86504762D01*
X28514285Y86352381D01*
X28438095Y86276191D01*
X28361904Y86238096D01*
X28209523Y86238096D01*
X28133333Y86276191D01*
X28057142Y86352381D01*
X28019047Y86504762D01*
X28019047Y86771429D01*
X28057142Y86923810D01*
X28133333Y87000000D01*
X28209523Y87038096D01*
X29352380Y86238096D02*
X29085714Y86619048D01*
X28895238Y86238096D02*
X28895238Y87038096D01*
X29200000Y87038096D01*
X29276190Y87000000D01*
X29314285Y86961905D01*
X29352380Y86885715D01*
X29352380Y86771429D01*
X29314285Y86695239D01*
X29276190Y86657143D01*
X29200000Y86619048D01*
X28895238Y86619048D01*
X29695238Y86542858D02*
X30304761Y86542858D01*
X26195238Y90738096D02*
X26195238Y91538096D01*
X26461904Y90966667D01*
X26728571Y91538096D01*
X26728571Y90738096D01*
X27261904Y91538096D02*
X27414285Y91538096D01*
X27490476Y91500000D01*
X27566666Y91423810D01*
X27604761Y91271429D01*
X27604761Y91004762D01*
X27566666Y90852381D01*
X27490476Y90776191D01*
X27414285Y90738096D01*
X27261904Y90738096D01*
X27185714Y90776191D01*
X27109523Y90852381D01*
X27071428Y91004762D01*
X27071428Y91271429D01*
X27109523Y91423810D01*
X27185714Y91500000D01*
X27261904Y91538096D01*
X27833333Y91538096D02*
X28290476Y91538096D01*
X28061904Y90738096D02*
X28061904Y91538096D01*
X28709523Y91538096D02*
X28861904Y91538096D01*
X28938095Y91500000D01*
X29014285Y91423810D01*
X29052380Y91271429D01*
X29052380Y91004762D01*
X29014285Y90852381D01*
X28938095Y90776191D01*
X28861904Y90738096D01*
X28709523Y90738096D01*
X28633333Y90776191D01*
X28557142Y90852381D01*
X28519047Y91004762D01*
X28519047Y91271429D01*
X28557142Y91423810D01*
X28633333Y91500000D01*
X28709523Y91538096D01*
X29852380Y90738096D02*
X29585714Y91119048D01*
X29395238Y90738096D02*
X29395238Y91538096D01*
X29700000Y91538096D01*
X29776190Y91500000D01*
X29814285Y91461905D01*
X29852380Y91385715D01*
X29852380Y91271429D01*
X29814285Y91195239D01*
X29776190Y91157143D01*
X29700000Y91119048D01*
X29395238Y91119048D01*
X30195238Y91042858D02*
X30804761Y91042858D01*
X30500000Y90738096D02*
X30500000Y91347620D01*
X61890476Y87100000D02*
X61814285Y87138096D01*
X61700000Y87138096D01*
X61585714Y87100000D01*
X61509523Y87023810D01*
X61471428Y86947620D01*
X61433333Y86795239D01*
X61433333Y86680953D01*
X61471428Y86528572D01*
X61509523Y86452381D01*
X61585714Y86376191D01*
X61700000Y86338096D01*
X61776190Y86338096D01*
X61890476Y86376191D01*
X61928571Y86414286D01*
X61928571Y86680953D01*
X61776190Y86680953D01*
X62271428Y86338096D02*
X62271428Y87138096D01*
X62728571Y86338096D01*
X62728571Y87138096D01*
X63109523Y86338096D02*
X63109523Y87138096D01*
X63300000Y87138096D01*
X63414285Y87100000D01*
X63490476Y87023810D01*
X63528571Y86947620D01*
X63566666Y86795239D01*
X63566666Y86680953D01*
X63528571Y86528572D01*
X63490476Y86452381D01*
X63414285Y86376191D01*
X63300000Y86338096D01*
X63109523Y86338096D01*
X70895238Y92638096D02*
X70628571Y93019048D01*
X70438095Y92638096D02*
X70438095Y93438096D01*
X70742857Y93438096D01*
X70819047Y93400000D01*
X70857142Y93361905D01*
X70895238Y93285715D01*
X70895238Y93171429D01*
X70857142Y93095239D01*
X70819047Y93057143D01*
X70742857Y93019048D01*
X70438095Y93019048D01*
X71200000Y92866667D02*
X71580952Y92866667D01*
X71123809Y92638096D02*
X71390476Y93438096D01*
X71657142Y92638096D01*
X71923809Y92638096D02*
X71923809Y93438096D01*
X72685714Y92638096D02*
X72304761Y92638096D01*
X72304761Y93438096D01*
X72952380Y92942858D02*
X73561904Y92942858D01*
X73257142Y92638096D02*
X73257142Y93247620D01*
X70895238Y84638096D02*
X70628571Y85019048D01*
X70438095Y84638096D02*
X70438095Y85438096D01*
X70742857Y85438096D01*
X70819047Y85400000D01*
X70857142Y85361905D01*
X70895238Y85285715D01*
X70895238Y85171429D01*
X70857142Y85095239D01*
X70819047Y85057143D01*
X70742857Y85019048D01*
X70438095Y85019048D01*
X71200000Y84866667D02*
X71580952Y84866667D01*
X71123809Y84638096D02*
X71390476Y85438096D01*
X71657142Y84638096D01*
X71923809Y84638096D02*
X71923809Y85438096D01*
X72685714Y84638096D02*
X72304761Y84638096D01*
X72304761Y85438096D01*
X72952380Y84942858D02*
X73561904Y84942858D01*
X66104761Y86338096D02*
X65647619Y86338096D01*
X65876190Y86338096D02*
X65876190Y87138096D01*
X65800000Y87023810D01*
X65723809Y86947620D01*
X65647619Y86909524D01*
X66409523Y87061905D02*
X66447619Y87100000D01*
X66523809Y87138096D01*
X66714285Y87138096D01*
X66790476Y87100000D01*
X66828571Y87061905D01*
X66866666Y86985715D01*
X66866666Y86909524D01*
X66828571Y86795239D01*
X66371428Y86338096D01*
X66866666Y86338096D01*
X67095238Y87138096D02*
X67361904Y86338096D01*
X67628571Y87138096D01*
D13*
X86000000Y93000000D02*
X86000000Y85000000D01*
X76000000Y93000000D02*
X76000000Y85000000D01*
D12*
%TO.C,P9*%
X45250000Y8830000D02*
X42750000Y8830000D01*
X42750000Y8830000D02*
X42750000Y7570000D01*
X42750000Y7570000D02*
X45250000Y7570000D01*
X45250000Y8830000D02*
X45250000Y7570000D01*
X45250000Y20830000D02*
X42750000Y20830000D01*
X42750000Y20830000D02*
X42750000Y19570000D01*
X42750000Y19570000D02*
X45250000Y19570000D01*
X45250000Y20830000D02*
X45250000Y19570000D01*
X45250000Y32830000D02*
X42750000Y32830000D01*
X42750000Y32830000D02*
X42750000Y31570000D01*
X42750000Y31570000D02*
X45250000Y31570000D01*
X45250000Y32830000D02*
X45250000Y31570000D01*
X45250000Y44830000D02*
X42750000Y44830000D01*
X42750000Y44830000D02*
X42750000Y43570000D01*
X42750000Y43570000D02*
X45250000Y43570000D01*
X45250000Y44830000D02*
X45250000Y43570000D01*
X45250000Y56830000D02*
X42750000Y56830000D01*
X42750000Y56830000D02*
X42750000Y55570000D01*
X42750000Y55570000D02*
X45250000Y55570000D01*
X45250000Y56830000D02*
X45250000Y55570000D01*
X45250000Y68830000D02*
X42750000Y68830000D01*
X42750000Y68830000D02*
X42750000Y67570000D01*
X42750000Y67570000D02*
X45250000Y67570000D01*
X45250000Y68830000D02*
X45250000Y67570000D01*
X45250000Y80830000D02*
X42750000Y80830000D01*
X42750000Y80830000D02*
X42750000Y79570000D01*
X42750000Y79570000D02*
X45250000Y79570000D01*
X45250000Y80830000D02*
X45250000Y79570000D01*
X45250000Y92830000D02*
X45250000Y91570000D01*
X42750000Y91570000D02*
X45250000Y91570000D01*
X42750000Y92830000D02*
X42750000Y91570000D01*
X45250000Y92830000D02*
X42750000Y92830000D01*
%TD*%
%LPC*%
D14*
%TO.C,REF\u002A\u002A*%
X2500000Y77000000D03*
%TD*%
%TO.C,REF\u002A\u002A*%
X2500000Y89000000D03*
%TD*%
%TO.C,REF\u002A\u002A*%
X2500000Y65000000D03*
%TD*%
%TO.C,REF\u002A\u002A*%
X2500000Y53000000D03*
%TD*%
%TO.C,REF\u002A\u002A*%
X2500000Y17000000D03*
%TD*%
%TO.C,REF\u002A\u002A*%
X2500000Y41000000D03*
%TD*%
%TO.C,REF\u002A\u002A*%
X2500000Y5000000D03*
%TD*%
%TO.C,REF\u002A\u002A*%
X2500000Y29000000D03*
%TD*%
%TO.C,REF\u002A\u002A*%
X96500000Y17000000D03*
%TD*%
%TO.C,REF\u002A\u002A*%
X96500000Y5000000D03*
%TD*%
%TO.C,REF\u002A\u002A*%
X96500000Y41000000D03*
%TD*%
%TO.C,REF\u002A\u002A*%
X96500000Y53000000D03*
%TD*%
%TO.C,REF\u002A\u002A*%
X96500000Y29000000D03*
%TD*%
%TO.C,REF\u002A\u002A*%
X96500000Y65000000D03*
%TD*%
%TO.C,REF\u002A\u002A*%
X96500000Y77000000D03*
%TD*%
%TO.C,REF\u002A\u002A*%
X96500000Y89000000D03*
%TD*%
D15*
%TO.C,P9*%
X44635000Y8200000D03*
X43365000Y8200000D03*
%TD*%
%TO.C,P9*%
X44635000Y20200000D03*
X43365000Y20200000D03*
%TD*%
%TO.C,P9*%
X44635000Y32200000D03*
X43365000Y32200000D03*
%TD*%
%TO.C,P9*%
X44635000Y44200000D03*
X43365000Y44200000D03*
%TD*%
%TO.C,P9*%
X44635000Y56200000D03*
X43365000Y56200000D03*
%TD*%
%TO.C,P9*%
X44635000Y68200000D03*
X43365000Y68200000D03*
%TD*%
%TO.C,P9*%
X44635000Y80200000D03*
X43365000Y80200000D03*
%TD*%
D16*
%TO.C,J11*%
X24800000Y7800000D03*
%TD*%
%TO.C,J11*%
X24800000Y19800000D03*
%TD*%
%TO.C,J11*%
X24800000Y31800000D03*
%TD*%
%TO.C,J11*%
X24800000Y43800000D03*
%TD*%
%TO.C,J11*%
X24800000Y55800000D03*
%TD*%
%TO.C,J11*%
X24800000Y67800000D03*
%TD*%
%TO.C,J11*%
X24800000Y79800000D03*
%TD*%
%TO.C,J16*%
X41100000Y6400000D03*
%TD*%
%TO.C,J16*%
X41100000Y18400000D03*
%TD*%
%TO.C,J16*%
X41100000Y30400000D03*
%TD*%
%TO.C,J16*%
X41100000Y42400000D03*
%TD*%
%TO.C,J16*%
X41100000Y54400000D03*
%TD*%
%TO.C,J16*%
X41100000Y66400000D03*
%TD*%
%TO.C,J16*%
X41100000Y78400000D03*
%TD*%
%TO.C,J14*%
X59500000Y1400000D03*
%TD*%
%TO.C,J14*%
X59500000Y13400000D03*
%TD*%
%TO.C,J14*%
X59500000Y25400000D03*
%TD*%
%TO.C,J14*%
X59500000Y37400000D03*
%TD*%
%TO.C,J14*%
X59500000Y49400000D03*
%TD*%
%TO.C,J14*%
X59500000Y61400000D03*
%TD*%
%TO.C,J14*%
X59500000Y73400000D03*
%TD*%
%TO.C,J13*%
X56100000Y3400000D03*
%TD*%
%TO.C,J13*%
X56100000Y15400000D03*
%TD*%
%TO.C,J13*%
X56100000Y27400000D03*
%TD*%
%TO.C,J13*%
X56100000Y39400000D03*
%TD*%
%TO.C,J13*%
X56100000Y51400000D03*
%TD*%
%TO.C,J13*%
X56100000Y63400000D03*
%TD*%
%TO.C,J13*%
X56100000Y75400000D03*
%TD*%
D17*
%TO.C,J21*%
X7750000Y3250000D03*
%TD*%
%TO.C,J21*%
X7750000Y15250000D03*
%TD*%
%TO.C,J21*%
X7750000Y27250000D03*
%TD*%
%TO.C,J21*%
X7750000Y39250000D03*
%TD*%
%TO.C,J21*%
X7750000Y51250000D03*
%TD*%
%TO.C,J21*%
X7750000Y63250000D03*
%TD*%
%TO.C,J21*%
X7750000Y75250000D03*
%TD*%
D16*
%TO.C,J12*%
X23700000Y1300000D03*
%TD*%
%TO.C,J12*%
X23700000Y13300000D03*
%TD*%
%TO.C,J12*%
X23700000Y25300000D03*
%TD*%
%TO.C,J12*%
X23700000Y37300000D03*
%TD*%
%TO.C,J12*%
X23700000Y49300000D03*
%TD*%
%TO.C,J12*%
X23700000Y61300000D03*
%TD*%
%TO.C,J12*%
X23700000Y73300000D03*
%TD*%
%TO.C,J17*%
X33100000Y1200000D03*
%TD*%
%TO.C,J17*%
X33100000Y13200000D03*
%TD*%
%TO.C,J17*%
X33100000Y25200000D03*
%TD*%
%TO.C,J17*%
X33100000Y37200000D03*
%TD*%
%TO.C,J17*%
X33100000Y49200000D03*
%TD*%
%TO.C,J17*%
X33100000Y61200000D03*
%TD*%
%TO.C,J17*%
X33100000Y73200000D03*
%TD*%
%TO.C,J18*%
X39300000Y6400000D03*
%TD*%
%TO.C,J18*%
X39300000Y18400000D03*
%TD*%
%TO.C,J18*%
X39300000Y30400000D03*
%TD*%
%TO.C,J18*%
X39300000Y42400000D03*
%TD*%
%TO.C,J18*%
X39300000Y54400000D03*
%TD*%
%TO.C,J18*%
X39300000Y66400000D03*
%TD*%
%TO.C,J18*%
X39300000Y78400000D03*
%TD*%
D18*
%TO.C,J19*%
X51300000Y8400000D03*
%TD*%
%TO.C,J19*%
X51300000Y20400000D03*
%TD*%
%TO.C,J19*%
X51300000Y32400000D03*
%TD*%
%TO.C,J19*%
X51300000Y44400000D03*
%TD*%
%TO.C,J19*%
X51300000Y56400000D03*
%TD*%
%TO.C,J19*%
X51300000Y68400000D03*
%TD*%
%TO.C,J19*%
X51300000Y80400000D03*
%TD*%
D19*
%TO.C,P8*%
X62500000Y1500000D03*
%TD*%
%TO.C,P8*%
X62500000Y13500000D03*
%TD*%
%TO.C,P8*%
X62500000Y25500000D03*
%TD*%
%TO.C,P8*%
X62500000Y37500000D03*
%TD*%
%TO.C,P8*%
X62500000Y49500000D03*
%TD*%
%TO.C,P8*%
X62500000Y61500000D03*
%TD*%
%TO.C,P8*%
X62500000Y73500000D03*
%TD*%
D18*
%TO.C,P7*%
X67100000Y1500000D03*
%TD*%
%TO.C,P7*%
X67100000Y13500000D03*
%TD*%
%TO.C,P7*%
X67100000Y25500000D03*
%TD*%
%TO.C,P7*%
X67100000Y37500000D03*
%TD*%
%TO.C,P7*%
X67100000Y49500000D03*
%TD*%
%TO.C,P7*%
X67100000Y61500000D03*
%TD*%
%TO.C,P7*%
X67100000Y73500000D03*
%TD*%
%TO.C,J15*%
X52200000Y1000000D03*
%TD*%
%TO.C,J15*%
X52200000Y13000000D03*
%TD*%
%TO.C,J15*%
X52200000Y25000000D03*
%TD*%
%TO.C,J15*%
X52200000Y37000000D03*
%TD*%
%TO.C,J15*%
X52200000Y49000000D03*
%TD*%
%TO.C,J15*%
X52200000Y61000000D03*
%TD*%
%TO.C,J15*%
X52200000Y73000000D03*
%TD*%
D16*
%TO.C,P11*%
X21000000Y8500000D03*
%TD*%
%TO.C,P11*%
X21000000Y20500000D03*
%TD*%
%TO.C,P11*%
X21000000Y32500000D03*
%TD*%
%TO.C,P11*%
X21000000Y44500000D03*
%TD*%
%TO.C,P11*%
X21000000Y56500000D03*
%TD*%
%TO.C,P11*%
X21000000Y68500000D03*
%TD*%
%TO.C,P11*%
X21000000Y80500000D03*
%TD*%
%TO.C,P10*%
X21000000Y1400000D03*
%TD*%
%TO.C,P10*%
X21000000Y13400000D03*
%TD*%
%TO.C,P10*%
X21000000Y25400000D03*
%TD*%
%TO.C,P10*%
X21000000Y37400000D03*
%TD*%
%TO.C,P10*%
X21000000Y49400000D03*
%TD*%
%TO.C,P10*%
X21000000Y61400000D03*
%TD*%
%TO.C,P10*%
X21000000Y73400000D03*
%TD*%
D20*
%TO.C,P3*%
X72000000Y2750000D03*
%TD*%
%TO.C,P3*%
X72000000Y14750000D03*
%TD*%
%TO.C,P3*%
X72000000Y26750000D03*
%TD*%
%TO.C,P3*%
X72000000Y38750000D03*
%TD*%
%TO.C,P3*%
X72000000Y50750000D03*
%TD*%
%TO.C,P3*%
X72000000Y62750000D03*
%TD*%
%TO.C,P3*%
X72000000Y74750000D03*
%TD*%
%TO.C,P1*%
X72000000Y7250000D03*
%TD*%
%TO.C,P1*%
X72000000Y19250000D03*
%TD*%
%TO.C,P1*%
X72000000Y31250000D03*
%TD*%
%TO.C,P1*%
X72000000Y43250000D03*
%TD*%
%TO.C,P1*%
X72000000Y55250000D03*
%TD*%
%TO.C,P1*%
X72000000Y67250000D03*
%TD*%
%TO.C,P1*%
X72000000Y79250000D03*
%TD*%
%TO.C,P5*%
X27250000Y8750000D03*
%TD*%
%TO.C,P5*%
X27250000Y20750000D03*
%TD*%
%TO.C,P5*%
X27250000Y32750000D03*
%TD*%
%TO.C,P5*%
X27250000Y44750000D03*
%TD*%
%TO.C,P5*%
X27250000Y56750000D03*
%TD*%
%TO.C,P5*%
X27250000Y68750000D03*
%TD*%
%TO.C,P5*%
X27250000Y80750000D03*
%TD*%
%TO.C,P6*%
X27250000Y1250000D03*
%TD*%
%TO.C,P6*%
X27250000Y13250000D03*
%TD*%
%TO.C,P6*%
X27250000Y25250000D03*
%TD*%
%TO.C,P6*%
X27250000Y37250000D03*
%TD*%
%TO.C,P6*%
X27250000Y49250000D03*
%TD*%
%TO.C,P6*%
X27250000Y61250000D03*
%TD*%
%TO.C,P6*%
X27250000Y73250000D03*
%TD*%
D17*
%TO.C,J22*%
X7750000Y6750000D03*
%TD*%
%TO.C,J22*%
X7750000Y18750000D03*
%TD*%
%TO.C,J22*%
X7750000Y30750000D03*
%TD*%
%TO.C,J22*%
X7750000Y42750000D03*
%TD*%
%TO.C,J22*%
X7750000Y54750000D03*
%TD*%
%TO.C,J22*%
X7750000Y66750000D03*
%TD*%
%TO.C,J22*%
X7750000Y78750000D03*
%TD*%
D20*
%TO.C,P3*%
X72000000Y86750000D03*
%TD*%
%TO.C,P1*%
X72000000Y91250000D03*
%TD*%
D16*
%TO.C,P10*%
X21000000Y85400000D03*
%TD*%
%TO.C,P11*%
X21000000Y92500000D03*
%TD*%
D18*
%TO.C,J15*%
X52200000Y85000000D03*
%TD*%
%TO.C,P7*%
X67100000Y85500000D03*
%TD*%
D19*
%TO.C,P8*%
X62500000Y85500000D03*
%TD*%
D15*
%TO.C,P9*%
X43365000Y92200000D03*
X44635000Y92200000D03*
%TD*%
D20*
%TO.C,P5*%
X27250000Y92750000D03*
%TD*%
%TO.C,P6*%
X27250000Y85250000D03*
%TD*%
D16*
%TO.C,J13*%
X56100000Y87400000D03*
%TD*%
%TO.C,J17*%
X33100000Y85200000D03*
%TD*%
%TO.C,J14*%
X59500000Y85400000D03*
%TD*%
%TO.C,J16*%
X41100000Y90400000D03*
%TD*%
%TO.C,J18*%
X39300000Y90400000D03*
%TD*%
%TO.C,J11*%
X24800000Y91800000D03*
%TD*%
%TO.C,J12*%
X23700000Y85300000D03*
%TD*%
D18*
%TO.C,J19*%
X51300000Y92400000D03*
%TD*%
D17*
%TO.C,J21*%
X7750000Y87250000D03*
%TD*%
%TO.C,J22*%
X7750000Y90750000D03*
%TD*%
M02*
