%TF.GenerationSoftware,KiCad,Pcbnew,(5.1.9)-1*%
%TF.CreationDate,2021-05-10T22:59:38+09:00*%
%TF.ProjectId,motordecoder2-roomlight,6d6f746f-7264-4656-936f-646572322d72,rev?*%
%TF.SameCoordinates,Original*%
%TF.FileFunction,Profile,NP*%
%FSLAX46Y46*%
G04 Gerber Fmt 4.6, Leading zero omitted, Abs format (unit mm)*
G04 Created by KiCad (PCBNEW (5.1.9)-1) date 2021-05-10 22:59:38*
%MOMM*%
%LPD*%
G01*
G04 APERTURE LIST*
%TA.AperFunction,Profile*%
%ADD10C,0.100000*%
%TD*%
G04 APERTURE END LIST*
D10*
X100000000Y-33000000D02*
X100000000Y-34000000D01*
X95000000Y-33000000D02*
X100000000Y-33000000D01*
X95000000Y-127000000D02*
X95000000Y-33000000D01*
X100000000Y-127000000D02*
X95000000Y-127000000D01*
X194000000Y-127000000D02*
X189000000Y-127000000D01*
X194000000Y-33000000D02*
X194000000Y-127000000D01*
X189000000Y-33000000D02*
X194000000Y-33000000D01*
X189000000Y-34000000D02*
X189000000Y-33000000D01*
X101000000Y-119000000D02*
X100000000Y-119000000D01*
X101000000Y-107000000D02*
X100000000Y-107000000D01*
X101000000Y-95000000D02*
X100000000Y-95000000D01*
X101000000Y-83000000D02*
X100000000Y-83000000D01*
X101000000Y-71000000D02*
X100000000Y-71000000D01*
X101000000Y-59000000D02*
X100000000Y-59000000D01*
X101000000Y-47000000D02*
X100000000Y-47000000D01*
X189000000Y-125000000D02*
X188000000Y-125000000D01*
X189000000Y-113000000D02*
X188000000Y-113000000D01*
X189000000Y-101000000D02*
X188000000Y-101000000D01*
X189000000Y-89000000D02*
X188000000Y-89000000D01*
X189000000Y-77000000D02*
X188000000Y-77000000D01*
X189000000Y-65000000D02*
X188000000Y-65000000D01*
X189000000Y-53000000D02*
X188000000Y-53000000D01*
X188000000Y-119000000D02*
X189000000Y-119000000D01*
X188000000Y-107000000D02*
X189000000Y-107000000D01*
X188000000Y-95000000D02*
X189000000Y-95000000D01*
X188000000Y-83000000D02*
X189000000Y-83000000D01*
X188000000Y-71000000D02*
X189000000Y-71000000D01*
X188000000Y-59000000D02*
X189000000Y-59000000D01*
X188000000Y-47000000D02*
X189000000Y-47000000D01*
X100000000Y-125000000D02*
X101000000Y-125000000D01*
X100000000Y-113000000D02*
X101000000Y-113000000D01*
X100000000Y-101000000D02*
X101000000Y-101000000D01*
X100000000Y-89000000D02*
X101000000Y-89000000D01*
X100000000Y-77000000D02*
X101000000Y-77000000D01*
X100000000Y-65000000D02*
X101000000Y-65000000D01*
X100000000Y-53000000D02*
X101000000Y-53000000D01*
X189000000Y-119000000D02*
X189000000Y-125000000D01*
X189000000Y-107000000D02*
X189000000Y-113000000D01*
X189000000Y-95000000D02*
X189000000Y-101000000D01*
X189000000Y-83000000D02*
X189000000Y-89000000D01*
X189000000Y-71000000D02*
X189000000Y-77000000D01*
X189000000Y-59000000D02*
X189000000Y-65000000D01*
X189000000Y-47000000D02*
X189000000Y-53000000D01*
X100000000Y-119000000D02*
X100000000Y-125000000D01*
X100000000Y-107000000D02*
X100000000Y-113000000D01*
X100000000Y-95000000D02*
X100000000Y-101000000D01*
X100000000Y-83000000D02*
X100000000Y-89000000D01*
X100000000Y-71000000D02*
X100000000Y-77000000D01*
X100000000Y-59000000D02*
X100000000Y-65000000D01*
X100000000Y-47000000D02*
X100000000Y-53000000D01*
X188000000Y-119000000D02*
X188000000Y-125000000D01*
X188000000Y-107000000D02*
X188000000Y-113000000D01*
X188000000Y-95000000D02*
X188000000Y-101000000D01*
X188000000Y-83000000D02*
X188000000Y-89000000D01*
X188000000Y-71000000D02*
X188000000Y-77000000D01*
X188000000Y-59000000D02*
X188000000Y-65000000D01*
X188000000Y-47000000D02*
X188000000Y-53000000D01*
X111000000Y-127000000D02*
X171000000Y-127000000D01*
X111000000Y-115000000D02*
X171000000Y-115000000D01*
X111000000Y-103000000D02*
X171000000Y-103000000D01*
X111000000Y-91000000D02*
X171000000Y-91000000D01*
X111000000Y-79000000D02*
X171000000Y-79000000D01*
X111000000Y-67000000D02*
X171000000Y-67000000D01*
X111000000Y-55000000D02*
X171000000Y-55000000D01*
X171000000Y-127000000D02*
X171000000Y-126000000D01*
X171000000Y-115000000D02*
X171000000Y-114000000D01*
X171000000Y-103000000D02*
X171000000Y-102000000D01*
X171000000Y-91000000D02*
X171000000Y-90000000D01*
X171000000Y-79000000D02*
X171000000Y-78000000D01*
X171000000Y-67000000D02*
X171000000Y-66000000D01*
X171000000Y-55000000D02*
X171000000Y-54000000D01*
X111000000Y-118000000D02*
X111000000Y-117000000D01*
X111000000Y-106000000D02*
X111000000Y-105000000D01*
X111000000Y-94000000D02*
X111000000Y-93000000D01*
X111000000Y-82000000D02*
X111000000Y-81000000D01*
X111000000Y-70000000D02*
X111000000Y-69000000D01*
X111000000Y-58000000D02*
X111000000Y-57000000D01*
X111000000Y-46000000D02*
X111000000Y-45000000D01*
X111000000Y-117000000D02*
X171000000Y-117000000D01*
X111000000Y-105000000D02*
X171000000Y-105000000D01*
X111000000Y-93000000D02*
X171000000Y-93000000D01*
X111000000Y-81000000D02*
X171000000Y-81000000D01*
X111000000Y-69000000D02*
X171000000Y-69000000D01*
X111000000Y-57000000D02*
X171000000Y-57000000D01*
X111000000Y-45000000D02*
X171000000Y-45000000D01*
X111000000Y-126000000D02*
X111000000Y-127000000D01*
X111000000Y-114000000D02*
X111000000Y-115000000D01*
X111000000Y-102000000D02*
X111000000Y-103000000D01*
X111000000Y-90000000D02*
X111000000Y-91000000D01*
X111000000Y-78000000D02*
X111000000Y-79000000D01*
X111000000Y-66000000D02*
X111000000Y-67000000D01*
X111000000Y-54000000D02*
X111000000Y-55000000D01*
X171000000Y-117000000D02*
X171000000Y-118000000D01*
X171000000Y-105000000D02*
X171000000Y-106000000D01*
X171000000Y-93000000D02*
X171000000Y-94000000D01*
X171000000Y-81000000D02*
X171000000Y-82000000D01*
X171000000Y-69000000D02*
X171000000Y-70000000D01*
X171000000Y-57000000D02*
X171000000Y-58000000D01*
X171000000Y-45000000D02*
X171000000Y-46000000D01*
X171000000Y-126000000D02*
X189000000Y-126000000D01*
X171000000Y-114000000D02*
X189000000Y-114000000D01*
X171000000Y-102000000D02*
X189000000Y-102000000D01*
X171000000Y-90000000D02*
X189000000Y-90000000D01*
X171000000Y-78000000D02*
X189000000Y-78000000D01*
X171000000Y-66000000D02*
X189000000Y-66000000D01*
X171000000Y-54000000D02*
X189000000Y-54000000D01*
X171000000Y-118000000D02*
X189000000Y-118000000D01*
X171000000Y-106000000D02*
X189000000Y-106000000D01*
X171000000Y-94000000D02*
X189000000Y-94000000D01*
X171000000Y-82000000D02*
X189000000Y-82000000D01*
X171000000Y-70000000D02*
X189000000Y-70000000D01*
X171000000Y-58000000D02*
X189000000Y-58000000D01*
X171000000Y-46000000D02*
X189000000Y-46000000D01*
X189000000Y-126000000D02*
X189000000Y-127000000D01*
X189000000Y-114000000D02*
X189000000Y-118000000D01*
X189000000Y-102000000D02*
X189000000Y-106000000D01*
X189000000Y-90000000D02*
X189000000Y-94000000D01*
X189000000Y-78000000D02*
X189000000Y-82000000D01*
X189000000Y-66000000D02*
X189000000Y-70000000D01*
X189000000Y-54000000D02*
X189000000Y-58000000D01*
X100000000Y-126000000D02*
X100000000Y-127000000D01*
X100000000Y-114000000D02*
X100000000Y-118000000D01*
X100000000Y-102000000D02*
X100000000Y-106000000D01*
X100000000Y-90000000D02*
X100000000Y-94000000D01*
X100000000Y-78000000D02*
X100000000Y-82000000D01*
X100000000Y-66000000D02*
X100000000Y-70000000D01*
X100000000Y-54000000D02*
X100000000Y-58000000D01*
X101000000Y-119000000D02*
X101000000Y-125000000D01*
X101000000Y-107000000D02*
X101000000Y-113000000D01*
X101000000Y-95000000D02*
X101000000Y-101000000D01*
X101000000Y-83000000D02*
X101000000Y-89000000D01*
X101000000Y-71000000D02*
X101000000Y-77000000D01*
X101000000Y-59000000D02*
X101000000Y-65000000D01*
X101000000Y-47000000D02*
X101000000Y-53000000D01*
X111000000Y-118000000D02*
X100000000Y-118000000D01*
X111000000Y-106000000D02*
X100000000Y-106000000D01*
X111000000Y-94000000D02*
X100000000Y-94000000D01*
X111000000Y-82000000D02*
X100000000Y-82000000D01*
X111000000Y-70000000D02*
X100000000Y-70000000D01*
X111000000Y-58000000D02*
X100000000Y-58000000D01*
X111000000Y-46000000D02*
X100000000Y-46000000D01*
X100000000Y-126000000D02*
X111000000Y-126000000D01*
X100000000Y-114000000D02*
X111000000Y-114000000D01*
X100000000Y-102000000D02*
X111000000Y-102000000D01*
X100000000Y-90000000D02*
X111000000Y-90000000D01*
X100000000Y-78000000D02*
X111000000Y-78000000D01*
X100000000Y-66000000D02*
X111000000Y-66000000D01*
X100000000Y-54000000D02*
X111000000Y-54000000D01*
X100000000Y-42000000D02*
X100000000Y-46000000D01*
X189000000Y-42000000D02*
X189000000Y-46000000D01*
X100000000Y-41000000D02*
X101000000Y-41000000D01*
X100000000Y-35000000D02*
X100000000Y-41000000D01*
X101000000Y-35000000D02*
X100000000Y-35000000D01*
X189000000Y-41000000D02*
X188000000Y-41000000D01*
X189000000Y-35000000D02*
X189000000Y-41000000D01*
X188000000Y-35000000D02*
X189000000Y-35000000D01*
X100000000Y-42000000D02*
X111000000Y-42000000D01*
X111000000Y-34000000D02*
X100000000Y-34000000D01*
X101000000Y-35000000D02*
X101000000Y-41000000D01*
X171000000Y-42000000D02*
X189000000Y-42000000D01*
X171000000Y-43000000D02*
X171000000Y-42000000D01*
X111000000Y-43000000D02*
X171000000Y-43000000D01*
X111000000Y-42000000D02*
X111000000Y-43000000D01*
X171000000Y-34000000D02*
X189000000Y-34000000D01*
X171000000Y-33000000D02*
X171000000Y-34000000D01*
X111000000Y-33000000D02*
X171000000Y-33000000D01*
X111000000Y-34000000D02*
X111000000Y-33000000D01*
X188000000Y-35000000D02*
X188000000Y-41000000D01*
M02*
