M48
; DRILL file {KiCad (5.1.9)-1} date 05/10/21 22:59:10
; FORMAT={-:-/ absolute / metric / decimal}
; #@! TF.CreationDate,2021-05-10T22:59:10+09:00
; #@! TF.GenerationSoftware,Kicad,Pcbnew,(5.1.9)-1
FMAT,2
METRIC
T1C0.300
T2C0.400
T3C0.500
T4C0.700
T5C0.800
T6C2.000
%
G90
G05
T1
X117.2Y-41.7
X117.2Y-53.7
X117.2Y-65.7
X117.2Y-77.7
X117.2Y-89.7
X117.2Y-101.7
X117.2Y-113.7
X117.2Y-125.7
X119.7Y-34.4
X119.7Y-40.5
X119.7Y-46.4
X119.7Y-52.5
X119.7Y-58.4
X119.7Y-64.5
X119.7Y-70.4
X119.7Y-76.5
X119.7Y-82.4
X119.7Y-88.5
X119.7Y-94.4
X119.7Y-100.5
X119.7Y-106.4
X119.7Y-112.5
X119.7Y-118.4
X119.7Y-124.5
X119.9Y-41.8
X119.9Y-53.8
X119.9Y-65.8
X119.9Y-77.8
X119.9Y-89.8
X119.9Y-101.8
X119.9Y-113.8
X119.9Y-125.8
X120.8Y-35.9
X120.8Y-47.9
X120.8Y-59.9
X120.8Y-71.9
X120.8Y-83.9
X120.8Y-95.9
X120.8Y-107.9
X120.8Y-119.9
X121.3Y-38.4
X121.3Y-50.4
X121.3Y-62.4
X121.3Y-74.4
X121.3Y-86.4
X121.3Y-98.4
X121.3Y-110.4
X121.3Y-122.4
X126.2Y-39.4
X126.2Y-51.4
X126.2Y-63.4
X126.2Y-75.4
X126.2Y-87.4
X126.2Y-99.4
X126.2Y-111.4
X126.2Y-123.4
X128.9Y-35.6
X128.9Y-47.6
X128.9Y-59.6
X128.9Y-71.6
X128.9Y-83.6
X128.9Y-95.6
X128.9Y-107.6
X128.9Y-119.6
X129.3Y-42.4
X129.3Y-54.4
X129.3Y-66.4
X129.3Y-78.4
X129.3Y-90.4
X129.3Y-102.4
X129.3Y-114.4
X129.3Y-126.4
X130.8Y-34.3
X130.8Y-46.3
X130.8Y-58.3
X130.8Y-70.3
X130.8Y-82.3
X130.8Y-94.3
X130.8Y-106.3
X130.8Y-118.3
X131.4Y-40.0
X131.4Y-41.3
X131.4Y-52.0
X131.4Y-53.3
X131.4Y-64.0
X131.4Y-65.3
X131.4Y-76.0
X131.4Y-77.3
X131.4Y-88.0
X131.4Y-89.3
X131.4Y-100.0
X131.4Y-101.3
X131.4Y-112.0
X131.4Y-113.3
X131.4Y-124.0
X131.4Y-125.3
X132.2Y-40.8
X132.2Y-52.8
X132.2Y-64.8
X132.2Y-76.8
X132.2Y-88.8
X132.2Y-100.8
X132.2Y-112.8
X132.2Y-124.8
X133.25Y-35.5
X133.25Y-47.5
X133.25Y-59.5
X133.25Y-71.5
X133.25Y-83.5
X133.25Y-95.5
X133.25Y-107.5
X133.25Y-119.5
X134.8Y-37.4
X134.8Y-49.4
X134.8Y-61.4
X134.8Y-73.4
X134.8Y-85.4
X134.8Y-97.4
X134.8Y-109.4
X134.8Y-121.4
X135.4Y-41.2
X135.4Y-53.2
X135.4Y-65.2
X135.4Y-77.2
X135.4Y-89.2
X135.4Y-101.2
X135.4Y-113.2
X135.4Y-125.2
X137.1Y-36.8
X137.1Y-48.8
X137.1Y-60.8
X137.1Y-72.8
X137.1Y-84.8
X137.1Y-96.8
X137.1Y-108.8
X137.1Y-120.8
X137.5Y-37.6
X137.5Y-49.6
X137.5Y-61.6
X137.5Y-73.6
X137.5Y-85.6
X137.5Y-97.6
X137.5Y-109.6
X137.5Y-121.6
X137.7Y-39.9
X137.7Y-51.9
X137.7Y-63.9
X137.7Y-75.9
X137.7Y-87.9
X137.7Y-99.9
X137.7Y-111.9
X137.7Y-123.9
X138.7Y-36.8
X138.7Y-48.8
X138.7Y-60.8
X138.7Y-72.8
X138.7Y-84.8
X138.7Y-96.8
X138.7Y-108.8
X138.7Y-120.8
X139.7Y-39.745
X139.7Y-51.745
X139.7Y-63.745
X139.7Y-75.745
X139.7Y-87.745
X139.7Y-99.745
X139.7Y-111.745
X139.7Y-123.745
X140.6Y-38.8
X140.6Y-50.8
X140.6Y-62.8
X140.6Y-74.8
X140.6Y-86.8
X140.6Y-98.8
X140.6Y-110.8
X140.6Y-122.8
X140.7Y-41.6
X140.7Y-53.6
X140.7Y-65.6
X140.7Y-77.6
X140.7Y-89.6
X140.7Y-101.6
X140.7Y-113.6
X140.7Y-125.6
X142.0Y-40.8
X142.0Y-52.8
X142.0Y-64.8
X142.0Y-76.8
X142.0Y-88.8
X142.0Y-100.8
X142.0Y-112.8
X142.0Y-124.8
X142.9Y-38.9
X142.9Y-50.9
X142.9Y-62.9
X142.9Y-74.9
X142.9Y-86.9
X142.9Y-98.9
X142.9Y-110.9
X142.9Y-122.9
X144.2Y-34.2
X144.2Y-46.2
X144.2Y-58.2
X144.2Y-70.2
X144.2Y-82.2
X144.2Y-94.2
X144.2Y-106.2
X144.2Y-118.2
X148.2Y-40.8
X148.2Y-52.8
X148.2Y-64.8
X148.2Y-76.8
X148.2Y-88.8
X148.2Y-100.8
X148.2Y-112.8
X148.2Y-124.8
X149.0Y-35.3
X149.0Y-47.3
X149.0Y-59.3
X149.0Y-71.3
X149.0Y-83.3
X149.0Y-95.3
X149.0Y-107.3
X149.0Y-119.3
X149.8Y-41.2
X149.8Y-53.2
X149.8Y-65.2
X149.8Y-77.2
X149.8Y-89.2
X149.8Y-101.2
X149.8Y-113.2
X149.8Y-125.2
X150.0Y-39.8
X150.0Y-51.8
X150.0Y-63.8
X150.0Y-75.8
X150.0Y-87.8
X150.0Y-99.8
X150.0Y-111.8
X150.0Y-123.8
X150.6Y-37.6
X150.6Y-49.6
X150.6Y-61.6
X150.6Y-73.6
X150.6Y-85.6
X150.6Y-97.6
X150.6Y-109.6
X150.6Y-121.6
X151.7Y-35.9
X151.7Y-47.9
X151.7Y-59.9
X151.7Y-71.9
X151.7Y-83.9
X151.7Y-95.9
X151.7Y-107.9
X151.7Y-119.9
X153.3Y-39.8
X153.3Y-41.7
X153.3Y-51.8
X153.3Y-53.7
X153.3Y-63.8
X153.3Y-65.7
X153.3Y-75.8
X153.3Y-77.7
X153.3Y-87.8
X153.3Y-89.7
X153.3Y-99.8
X153.3Y-101.7
X153.3Y-111.8
X153.3Y-113.7
X153.3Y-123.8
X153.3Y-125.7
X153.302Y-40.794
X153.302Y-52.794
X153.302Y-64.794
X153.302Y-76.794
X153.302Y-88.794
X153.302Y-100.794
X153.302Y-112.794
X153.302Y-124.794
X153.4Y-36.5
X153.4Y-48.5
X153.4Y-60.5
X153.4Y-72.5
X153.4Y-84.5
X153.4Y-96.5
X153.4Y-108.5
X153.4Y-120.5
X153.5Y-37.4
X153.5Y-49.4
X153.5Y-61.4
X153.5Y-73.4
X153.5Y-85.4
X153.5Y-97.4
X153.5Y-109.4
X153.5Y-121.4
X156.4Y-37.1
X156.4Y-49.1
X156.4Y-61.1
X156.4Y-73.1
X156.4Y-85.1
X156.4Y-97.1
X156.4Y-109.1
X156.4Y-121.1
X161.7Y-35.8
X161.7Y-47.8
X161.7Y-59.8
X161.7Y-71.8
X161.7Y-83.8
X161.7Y-95.8
X161.7Y-107.8
X161.7Y-119.8
X161.825Y-39.2
X161.825Y-51.2
X161.825Y-63.2
X161.825Y-75.2
X161.825Y-87.2
X161.825Y-99.2
X161.825Y-111.2
X161.825Y-123.2
X163.75Y-41.25
X163.75Y-53.25
X163.75Y-65.25
X163.75Y-77.25
X163.75Y-89.25
X163.75Y-101.25
X163.75Y-113.25
X163.75Y-125.25
X165.0Y-35.25
X165.0Y-47.25
X165.0Y-59.25
X165.0Y-71.25
X165.0Y-83.25
X165.0Y-95.25
X165.0Y-107.25
X165.0Y-119.25
T2
X106.0Y-35.0
X106.0Y-41.0
X106.0Y-47.0
X106.0Y-53.0
X106.0Y-59.0
X106.0Y-65.0
X106.0Y-71.0
X106.0Y-77.0
X106.0Y-83.0
X106.0Y-89.0
X106.0Y-95.0
X106.0Y-101.0
X106.0Y-107.0
X106.0Y-113.0
X106.0Y-119.0
X106.0Y-125.0
X112.75Y-38.0
X112.75Y-50.0
X112.75Y-62.0
X112.75Y-74.0
X112.75Y-86.0
X112.75Y-98.0
X112.75Y-110.0
X112.75Y-122.0
X116.25Y-38.0
X116.25Y-50.0
X116.25Y-62.0
X116.25Y-74.0
X116.25Y-86.0
X116.25Y-98.0
X116.25Y-110.0
X116.25Y-122.0
X118.5Y-35.0
X118.5Y-47.0
X118.5Y-59.0
X118.5Y-71.0
X118.5Y-83.0
X118.5Y-95.0
X118.5Y-107.0
X118.5Y-119.0
X119.6Y-38.0
X119.6Y-50.0
X119.6Y-62.0
X119.6Y-74.0
X119.6Y-86.0
X119.6Y-98.0
X119.6Y-110.0
X119.6Y-122.0
X125.0Y-35.15
X125.0Y-39.1
X125.0Y-40.0
X125.0Y-41.6
X125.0Y-47.15
X125.0Y-51.1
X125.0Y-52.0
X125.0Y-53.6
X125.0Y-59.15
X125.0Y-63.1
X125.0Y-64.0
X125.0Y-65.6
X125.0Y-71.15
X125.0Y-75.1
X125.0Y-76.0
X125.0Y-77.6
X125.0Y-83.15
X125.0Y-87.1
X125.0Y-88.0
X125.0Y-89.6
X125.0Y-95.15
X125.0Y-99.1
X125.0Y-100.0
X125.0Y-101.6
X125.0Y-107.15
X125.0Y-111.1
X125.0Y-112.0
X125.0Y-113.6
X125.0Y-119.15
X125.0Y-123.1
X125.0Y-124.0
X125.0Y-125.6
X127.2Y-36.3
X127.2Y-48.3
X127.2Y-60.3
X127.2Y-72.3
X127.2Y-84.3
X127.2Y-96.3
X127.2Y-108.3
X127.2Y-120.3
X127.3Y-41.25
X127.3Y-53.25
X127.3Y-65.25
X127.3Y-77.25
X127.3Y-89.25
X127.3Y-101.25
X127.3Y-113.25
X127.3Y-125.25
X128.0Y-36.3
X128.0Y-48.3
X128.0Y-60.3
X128.0Y-72.3
X128.0Y-84.3
X128.0Y-96.3
X128.0Y-108.3
X128.0Y-120.3
X128.8Y-39.5
X128.8Y-51.5
X128.8Y-63.5
X128.8Y-75.5
X128.8Y-87.5
X128.8Y-99.5
X128.8Y-111.5
X128.8Y-123.5
X130.5Y-36.2
X130.5Y-48.2
X130.5Y-60.2
X130.5Y-72.2
X130.5Y-84.2
X130.5Y-96.2
X130.5Y-108.2
X130.5Y-120.2
X132.1Y-36.3
X132.1Y-48.3
X132.1Y-60.3
X132.1Y-72.3
X132.1Y-84.3
X132.1Y-96.3
X132.1Y-108.3
X132.1Y-120.3
X144.7Y-36.4
X144.7Y-48.4
X144.7Y-60.4
X144.7Y-72.4
X144.7Y-84.4
X144.7Y-96.4
X144.7Y-108.4
X144.7Y-120.4
X145.8Y-35.6
X145.8Y-47.6
X145.8Y-59.6
X145.8Y-71.6
X145.8Y-83.6
X145.8Y-95.6
X145.8Y-107.6
X145.8Y-119.6
X147.5Y-35.0
X147.5Y-47.0
X147.5Y-59.0
X147.5Y-71.0
X147.5Y-83.0
X147.5Y-95.0
X147.5Y-107.0
X147.5Y-119.0
X148.3Y-41.7
X148.3Y-53.7
X148.3Y-65.7
X148.3Y-77.7
X148.3Y-89.7
X148.3Y-101.7
X148.3Y-113.7
X148.3Y-125.7
X151.5Y-34.4
X151.5Y-46.4
X151.5Y-58.4
X151.5Y-70.4
X151.5Y-82.4
X151.5Y-94.4
X151.5Y-106.4
X151.5Y-118.4
X154.0Y-34.4
X154.0Y-46.4
X154.0Y-58.4
X154.0Y-70.4
X154.0Y-82.4
X154.0Y-94.4
X154.0Y-106.4
X154.0Y-118.4
X155.1Y-39.3
X155.1Y-51.3
X155.1Y-63.3
X155.1Y-75.3
X155.1Y-87.3
X155.1Y-99.3
X155.1Y-111.3
X155.1Y-123.3
X156.3Y-39.3
X156.3Y-51.3
X156.3Y-63.3
X156.3Y-75.3
X156.3Y-87.3
X156.3Y-99.3
X156.3Y-111.3
X156.3Y-123.3
X158.0Y-35.25
X158.0Y-47.25
X158.0Y-59.25
X158.0Y-71.25
X158.0Y-83.25
X158.0Y-95.25
X158.0Y-107.25
X158.0Y-119.25
X159.0Y-34.5
X159.0Y-46.5
X159.0Y-58.5
X159.0Y-70.5
X159.0Y-82.5
X159.0Y-94.5
X159.0Y-106.5
X159.0Y-118.5
X160.1Y-40.25
X160.1Y-52.25
X160.1Y-64.25
X160.1Y-76.25
X160.1Y-88.25
X160.1Y-100.25
X160.1Y-112.25
X160.1Y-124.25
X162.0Y-38.25
X162.0Y-50.25
X162.0Y-62.25
X162.0Y-74.25
X162.0Y-86.25
X162.0Y-98.25
X162.0Y-110.25
X162.0Y-122.25
X162.95Y-40.25
X162.95Y-52.25
X162.95Y-64.25
X162.95Y-76.25
X162.95Y-88.25
X162.95Y-100.25
X162.95Y-112.25
X162.95Y-124.25
X169.5Y-35.0
X169.5Y-41.0
X169.5Y-47.0
X169.5Y-53.0
X169.5Y-59.0
X169.5Y-65.0
X169.5Y-71.0
X169.5Y-77.0
X169.5Y-83.0
X169.5Y-89.0
X169.5Y-95.0
X169.5Y-101.0
X169.5Y-107.0
X169.5Y-113.0
X169.5Y-119.0
X169.5Y-125.0
T3
X159.25Y-41.5
X159.25Y-53.5
X159.25Y-65.5
X159.25Y-77.5
X159.25Y-89.5
X159.25Y-101.5
X159.25Y-113.5
X159.25Y-125.5
X160.25Y-41.5
X160.25Y-53.5
X160.25Y-65.5
X160.25Y-77.5
X160.25Y-89.5
X160.25Y-101.5
X160.25Y-113.5
X160.25Y-125.5
T4
X102.3Y-36.25
X102.3Y-39.75
X102.3Y-48.25
X102.3Y-51.75
X102.3Y-60.25
X102.3Y-63.75
X102.3Y-72.25
X102.3Y-75.75
X102.3Y-84.25
X102.3Y-87.75
X102.3Y-96.25
X102.3Y-99.75
X102.3Y-108.25
X102.3Y-111.75
X102.3Y-120.25
X102.3Y-123.75
X138.365Y-34.8
X138.365Y-46.8
X138.365Y-58.8
X138.365Y-70.8
X138.365Y-82.8
X138.365Y-94.8
X138.365Y-106.8
X138.365Y-118.8
X139.635Y-34.8
X139.635Y-46.8
X139.635Y-58.8
X139.635Y-70.8
X139.635Y-82.8
X139.635Y-94.8
X139.635Y-106.8
X139.635Y-118.8
T5
X122.25Y-34.25
X122.25Y-41.75
X122.25Y-46.25
X122.25Y-53.75
X122.25Y-58.25
X122.25Y-65.75
X122.25Y-70.25
X122.25Y-77.75
X122.25Y-82.25
X122.25Y-89.75
X122.25Y-94.25
X122.25Y-101.75
X122.25Y-106.25
X122.25Y-113.75
X122.25Y-118.25
X122.25Y-125.75
X167.0Y-35.75
X167.0Y-35.75
X167.0Y-40.25
X167.0Y-40.25
X167.0Y-47.75
X167.0Y-47.75
X167.0Y-52.25
X167.0Y-52.25
X167.0Y-59.75
X167.0Y-59.75
X167.0Y-64.25
X167.0Y-64.25
X167.0Y-71.75
X167.0Y-71.75
X167.0Y-76.25
X167.0Y-76.25
X167.0Y-83.75
X167.0Y-83.75
X167.0Y-88.25
X167.0Y-88.25
X167.0Y-95.75
X167.0Y-95.75
X167.0Y-100.25
X167.0Y-100.25
X167.0Y-107.75
X167.0Y-107.75
X167.0Y-112.25
X167.0Y-112.25
X167.0Y-119.75
X167.0Y-119.75
X167.0Y-124.25
X167.0Y-124.25
T6
X97.5Y-38.0
X97.5Y-50.0
X97.5Y-62.0
X97.5Y-74.0
X97.5Y-86.0
X97.5Y-98.0
X97.5Y-110.0
X97.5Y-122.0
X191.5Y-38.0
X191.5Y-50.0
X191.5Y-62.0
X191.5Y-74.0
X191.5Y-86.0
X191.5Y-98.0
X191.5Y-110.0
X191.5Y-122.0
T0
M30
