%TF.GenerationSoftware,KiCad,Pcbnew,(5.1.9)-1*%
%TF.CreationDate,2021-03-16T21:36:36+09:00*%
%TF.ProjectId,motordecoder2-roomlight,6d6f746f-7264-4656-936f-646572322d72,rev?*%
%TF.SameCoordinates,PX5b8d800PY7ed6b40*%
%TF.FileFunction,Profile,NP*%
%FSLAX46Y46*%
G04 Gerber Fmt 4.6, Leading zero omitted, Abs format (unit mm)*
G04 Created by KiCad (PCBNEW (5.1.9)-1) date 2021-03-16 21:36:36*
%MOMM*%
%LPD*%
G01*
G04 APERTURE LIST*
%TA.AperFunction,Profile*%
%ADD10C,0.100000*%
%TD*%
G04 APERTURE END LIST*
D10*
X5000000Y94000000D02*
X5000000Y93000000D01*
X0Y94000000D02*
X5000000Y94000000D01*
X0Y0D02*
X0Y94000000D01*
X5000000Y0D02*
X0Y0D01*
X5000000Y1000000D02*
X5000000Y0D01*
X99000000Y0D02*
X94000000Y0D01*
X99000000Y94000000D02*
X99000000Y0D01*
X94000000Y94000000D02*
X99000000Y94000000D01*
X94000000Y93000000D02*
X94000000Y94000000D01*
X5000000Y13000000D02*
X5000000Y9000000D01*
X5000000Y25000000D02*
X5000000Y21000000D01*
X5000000Y37000000D02*
X5000000Y33000000D01*
X5000000Y49000000D02*
X5000000Y45000000D01*
X5000000Y61000000D02*
X5000000Y57000000D01*
X5000000Y73000000D02*
X5000000Y69000000D01*
X5000000Y8000000D02*
X5000000Y2000000D01*
X5000000Y20000000D02*
X5000000Y14000000D01*
X5000000Y32000000D02*
X5000000Y26000000D01*
X5000000Y44000000D02*
X5000000Y38000000D01*
X5000000Y56000000D02*
X5000000Y50000000D01*
X5000000Y68000000D02*
X5000000Y62000000D01*
X5000000Y80000000D02*
X5000000Y74000000D01*
X94000000Y8000000D02*
X94000000Y2000000D01*
X94000000Y20000000D02*
X94000000Y14000000D01*
X94000000Y32000000D02*
X94000000Y26000000D01*
X94000000Y44000000D02*
X94000000Y38000000D01*
X94000000Y56000000D02*
X94000000Y50000000D01*
X94000000Y68000000D02*
X94000000Y62000000D01*
X94000000Y80000000D02*
X94000000Y74000000D01*
X6000000Y8000000D02*
X5000000Y8000000D01*
X6000000Y20000000D02*
X5000000Y20000000D01*
X6000000Y32000000D02*
X5000000Y32000000D01*
X6000000Y44000000D02*
X5000000Y44000000D01*
X6000000Y56000000D02*
X5000000Y56000000D01*
X6000000Y68000000D02*
X5000000Y68000000D01*
X6000000Y80000000D02*
X5000000Y80000000D01*
X94000000Y2000000D02*
X93000000Y2000000D01*
X94000000Y14000000D02*
X93000000Y14000000D01*
X94000000Y26000000D02*
X93000000Y26000000D01*
X94000000Y38000000D02*
X93000000Y38000000D01*
X94000000Y50000000D02*
X93000000Y50000000D01*
X94000000Y62000000D02*
X93000000Y62000000D01*
X94000000Y74000000D02*
X93000000Y74000000D01*
X93000000Y8000000D02*
X94000000Y8000000D01*
X93000000Y20000000D02*
X94000000Y20000000D01*
X93000000Y32000000D02*
X94000000Y32000000D01*
X93000000Y44000000D02*
X94000000Y44000000D01*
X93000000Y56000000D02*
X94000000Y56000000D01*
X93000000Y68000000D02*
X94000000Y68000000D01*
X93000000Y80000000D02*
X94000000Y80000000D01*
X94000000Y1000000D02*
X94000000Y0D01*
X94000000Y13000000D02*
X94000000Y9000000D01*
X94000000Y25000000D02*
X94000000Y21000000D01*
X94000000Y37000000D02*
X94000000Y33000000D01*
X94000000Y49000000D02*
X94000000Y45000000D01*
X94000000Y61000000D02*
X94000000Y57000000D01*
X94000000Y73000000D02*
X94000000Y69000000D01*
X5000000Y2000000D02*
X6000000Y2000000D01*
X5000000Y14000000D02*
X6000000Y14000000D01*
X5000000Y26000000D02*
X6000000Y26000000D01*
X5000000Y38000000D02*
X6000000Y38000000D01*
X5000000Y50000000D02*
X6000000Y50000000D01*
X5000000Y62000000D02*
X6000000Y62000000D01*
X5000000Y74000000D02*
X6000000Y74000000D01*
X93000000Y8000000D02*
X93000000Y2000000D01*
X93000000Y20000000D02*
X93000000Y14000000D01*
X93000000Y32000000D02*
X93000000Y26000000D01*
X93000000Y44000000D02*
X93000000Y38000000D01*
X93000000Y56000000D02*
X93000000Y50000000D01*
X93000000Y68000000D02*
X93000000Y62000000D01*
X93000000Y80000000D02*
X93000000Y74000000D01*
X16000000Y1000000D02*
X16000000Y0D01*
X16000000Y13000000D02*
X16000000Y12000000D01*
X16000000Y25000000D02*
X16000000Y24000000D01*
X16000000Y37000000D02*
X16000000Y36000000D01*
X16000000Y49000000D02*
X16000000Y48000000D01*
X16000000Y61000000D02*
X16000000Y60000000D01*
X16000000Y73000000D02*
X16000000Y72000000D01*
X16000000Y10000000D02*
X76000000Y10000000D01*
X16000000Y22000000D02*
X76000000Y22000000D01*
X16000000Y34000000D02*
X76000000Y34000000D01*
X16000000Y46000000D02*
X76000000Y46000000D01*
X16000000Y58000000D02*
X76000000Y58000000D01*
X16000000Y70000000D02*
X76000000Y70000000D01*
X16000000Y82000000D02*
X76000000Y82000000D01*
X76000000Y9000000D02*
X94000000Y9000000D01*
X76000000Y21000000D02*
X94000000Y21000000D01*
X76000000Y33000000D02*
X94000000Y33000000D01*
X76000000Y45000000D02*
X94000000Y45000000D01*
X76000000Y57000000D02*
X94000000Y57000000D01*
X76000000Y69000000D02*
X94000000Y69000000D01*
X76000000Y81000000D02*
X94000000Y81000000D01*
X16000000Y9000000D02*
X16000000Y10000000D01*
X16000000Y21000000D02*
X16000000Y22000000D01*
X16000000Y33000000D02*
X16000000Y34000000D01*
X16000000Y45000000D02*
X16000000Y46000000D01*
X16000000Y57000000D02*
X16000000Y58000000D01*
X16000000Y69000000D02*
X16000000Y70000000D01*
X16000000Y81000000D02*
X16000000Y82000000D01*
X76000000Y10000000D02*
X76000000Y9000000D01*
X76000000Y22000000D02*
X76000000Y21000000D01*
X76000000Y34000000D02*
X76000000Y33000000D01*
X76000000Y46000000D02*
X76000000Y45000000D01*
X76000000Y58000000D02*
X76000000Y57000000D01*
X76000000Y70000000D02*
X76000000Y69000000D01*
X76000000Y82000000D02*
X76000000Y81000000D01*
X16000000Y0D02*
X76000000Y0D01*
X16000000Y12000000D02*
X76000000Y12000000D01*
X16000000Y24000000D02*
X76000000Y24000000D01*
X16000000Y36000000D02*
X76000000Y36000000D01*
X16000000Y48000000D02*
X76000000Y48000000D01*
X16000000Y60000000D02*
X76000000Y60000000D01*
X16000000Y72000000D02*
X76000000Y72000000D01*
X5000000Y1000000D02*
X16000000Y1000000D01*
X5000000Y13000000D02*
X16000000Y13000000D01*
X5000000Y25000000D02*
X16000000Y25000000D01*
X5000000Y37000000D02*
X16000000Y37000000D01*
X5000000Y49000000D02*
X16000000Y49000000D01*
X5000000Y61000000D02*
X16000000Y61000000D01*
X5000000Y73000000D02*
X16000000Y73000000D01*
X76000000Y0D02*
X76000000Y1000000D01*
X76000000Y12000000D02*
X76000000Y13000000D01*
X76000000Y24000000D02*
X76000000Y25000000D01*
X76000000Y36000000D02*
X76000000Y37000000D01*
X76000000Y48000000D02*
X76000000Y49000000D01*
X76000000Y60000000D02*
X76000000Y61000000D01*
X76000000Y72000000D02*
X76000000Y73000000D01*
X76000000Y1000000D02*
X94000000Y1000000D01*
X76000000Y13000000D02*
X94000000Y13000000D01*
X76000000Y25000000D02*
X94000000Y25000000D01*
X76000000Y37000000D02*
X94000000Y37000000D01*
X76000000Y49000000D02*
X94000000Y49000000D01*
X76000000Y61000000D02*
X94000000Y61000000D01*
X76000000Y73000000D02*
X94000000Y73000000D01*
X6000000Y8000000D02*
X6000000Y2000000D01*
X6000000Y20000000D02*
X6000000Y14000000D01*
X6000000Y32000000D02*
X6000000Y26000000D01*
X6000000Y44000000D02*
X6000000Y38000000D01*
X6000000Y56000000D02*
X6000000Y50000000D01*
X6000000Y68000000D02*
X6000000Y62000000D01*
X6000000Y80000000D02*
X6000000Y74000000D01*
X16000000Y9000000D02*
X5000000Y9000000D01*
X16000000Y21000000D02*
X5000000Y21000000D01*
X16000000Y33000000D02*
X5000000Y33000000D01*
X16000000Y45000000D02*
X5000000Y45000000D01*
X16000000Y57000000D02*
X5000000Y57000000D01*
X16000000Y69000000D02*
X5000000Y69000000D01*
X16000000Y81000000D02*
X5000000Y81000000D01*
X5000000Y85000000D02*
X5000000Y81000000D01*
X5000000Y86000000D02*
X6000000Y86000000D01*
X5000000Y92000000D02*
X5000000Y86000000D01*
X6000000Y92000000D02*
X5000000Y92000000D01*
X94000000Y85000000D02*
X94000000Y81000000D01*
X94000000Y86000000D02*
X93000000Y86000000D01*
X94000000Y92000000D02*
X94000000Y86000000D01*
X93000000Y92000000D02*
X94000000Y92000000D01*
X5000000Y85000000D02*
X16000000Y85000000D01*
X16000000Y93000000D02*
X5000000Y93000000D01*
X6000000Y92000000D02*
X6000000Y86000000D01*
X76000000Y85000000D02*
X94000000Y85000000D01*
X76000000Y84000000D02*
X76000000Y85000000D01*
X16000000Y84000000D02*
X76000000Y84000000D01*
X16000000Y85000000D02*
X16000000Y84000000D01*
X76000000Y93000000D02*
X94000000Y93000000D01*
X76000000Y94000000D02*
X76000000Y93000000D01*
X16000000Y94000000D02*
X76000000Y94000000D01*
X16000000Y93000000D02*
X16000000Y94000000D01*
X93000000Y92000000D02*
X93000000Y86000000D01*
M02*
