M48
; DRILL file {KiCad (5.1.9)-1} date 03/16/21 21:36:41
; FORMAT={-:-/ absolute / metric / decimal}
; #@! TF.CreationDate,2021-03-16T21:36:41+09:00
; #@! TF.GenerationSoftware,Kicad,Pcbnew,(5.1.9)-1
FMAT,2
METRIC
T1C0.300
T2C0.400
T3C0.500
T4C0.700
T5C0.800
T6C2.000
%
G90
G05
T1
X22.2Y85.3
X22.2Y73.3
X22.2Y61.3
X22.2Y49.3
X22.2Y37.3
X22.2Y25.3
X22.2Y13.3
X22.2Y1.3
X24.7Y92.6
X24.7Y86.5
X24.7Y80.6
X24.7Y74.5
X24.7Y68.6
X24.7Y62.5
X24.7Y56.6
X24.7Y50.5
X24.7Y44.6
X24.7Y38.5
X24.7Y32.6
X24.7Y26.5
X24.7Y20.6
X24.7Y14.5
X24.7Y8.6
X24.7Y2.5
X24.9Y85.2
X24.9Y73.2
X24.9Y61.2
X24.9Y49.2
X24.9Y37.2
X24.9Y25.2
X24.9Y13.2
X24.9Y1.2
X25.8Y91.1
X25.8Y79.1
X25.8Y67.1
X25.8Y55.1
X25.8Y43.1
X25.8Y31.1
X25.8Y19.1
X25.8Y7.1
X26.3Y88.6
X26.3Y76.6
X26.3Y64.6
X26.3Y52.6
X26.3Y40.6
X26.3Y28.6
X26.3Y16.6
X26.3Y4.6
X31.2Y87.6
X31.2Y75.6
X31.2Y63.6
X31.2Y51.6
X31.2Y39.6
X31.2Y27.6
X31.2Y15.6
X31.2Y3.6
X33.9Y91.4
X33.9Y79.4
X33.9Y67.4
X33.9Y55.4
X33.9Y43.4
X33.9Y31.4
X33.9Y19.4
X33.9Y7.4
X34.3Y84.6
X34.3Y72.6
X34.3Y60.6
X34.3Y48.6
X34.3Y36.6
X34.3Y24.6
X34.3Y12.6
X34.3Y0.6
X35.8Y92.7
X35.8Y80.7
X35.8Y68.7
X35.8Y56.7
X35.8Y44.7
X35.8Y32.7
X35.8Y20.7
X35.8Y8.7
X36.4Y87.0
X36.4Y85.7
X36.4Y75.0
X36.4Y73.7
X36.4Y63.0
X36.4Y61.7
X36.4Y51.0
X36.4Y49.7
X36.4Y39.0
X36.4Y37.7
X36.4Y27.0
X36.4Y25.7
X36.4Y15.0
X36.4Y13.7
X36.4Y3.0
X36.4Y1.7
X37.2Y86.2
X37.2Y74.2
X37.2Y62.2
X37.2Y50.2
X37.2Y38.2
X37.2Y26.2
X37.2Y14.2
X37.2Y2.2
X38.25Y91.5
X38.25Y79.5
X38.25Y67.5
X38.25Y55.5
X38.25Y43.5
X38.25Y31.5
X38.25Y19.5
X38.25Y7.5
X39.8Y89.6
X39.8Y77.6
X39.8Y65.6
X39.8Y53.6
X39.8Y41.6
X39.8Y29.6
X39.8Y17.6
X39.8Y5.6
X40.4Y85.8
X40.4Y73.8
X40.4Y61.8
X40.4Y49.8
X40.4Y37.8
X40.4Y25.8
X40.4Y13.8
X40.4Y1.8
X42.1Y90.2
X42.1Y78.2
X42.1Y66.2
X42.1Y54.2
X42.1Y42.2
X42.1Y30.2
X42.1Y18.2
X42.1Y6.2
X42.5Y89.4
X42.5Y77.4
X42.5Y65.4
X42.5Y53.4
X42.5Y41.4
X42.5Y29.4
X42.5Y17.4
X42.5Y5.4
X42.7Y87.1
X42.7Y75.1
X42.7Y63.1
X42.7Y51.1
X42.7Y39.1
X42.7Y27.1
X42.7Y15.1
X42.7Y3.1
X43.7Y90.2
X43.7Y78.2
X43.7Y66.2
X43.7Y54.2
X43.7Y42.2
X43.7Y30.2
X43.7Y18.2
X43.7Y6.2
X44.7Y87.255
X44.7Y75.255
X44.7Y63.255
X44.7Y51.255
X44.7Y39.255
X44.7Y27.255
X44.7Y15.255
X44.7Y3.255
X45.6Y88.2
X45.6Y76.2
X45.6Y64.2
X45.6Y52.2
X45.6Y40.2
X45.6Y28.2
X45.6Y16.2
X45.6Y4.2
X45.7Y85.4
X45.7Y73.4
X45.7Y61.4
X45.7Y49.4
X45.7Y37.4
X45.7Y25.4
X45.7Y13.4
X45.7Y1.4
X47.4Y86.3
X47.4Y74.3
X47.4Y62.3
X47.4Y50.3
X47.4Y38.3
X47.4Y26.3
X47.4Y14.3
X47.4Y2.3
X47.9Y88.1
X47.9Y76.1
X47.9Y64.1
X47.9Y52.1
X47.9Y40.1
X47.9Y28.1
X47.9Y16.1
X47.9Y4.1
X48.0Y92.6
X48.0Y80.6
X48.0Y68.6
X48.0Y56.6
X48.0Y44.6
X48.0Y32.6
X48.0Y20.6
X48.0Y8.6
X53.2Y86.2
X53.2Y74.2
X53.2Y62.2
X53.2Y50.2
X53.2Y38.2
X53.2Y26.2
X53.2Y14.2
X53.2Y2.2
X54.0Y91.7
X54.0Y79.7
X54.0Y67.7
X54.0Y55.7
X54.0Y43.7
X54.0Y31.7
X54.0Y19.7
X54.0Y7.7
X54.8Y85.8
X54.8Y73.8
X54.8Y61.8
X54.8Y49.8
X54.8Y37.8
X54.8Y25.8
X54.8Y13.8
X54.8Y1.8
X55.0Y87.2
X55.0Y75.2
X55.0Y63.2
X55.0Y51.2
X55.0Y39.2
X55.0Y27.2
X55.0Y15.2
X55.0Y3.2
X55.6Y89.4
X55.6Y77.4
X55.6Y65.4
X55.6Y53.4
X55.6Y41.4
X55.6Y29.4
X55.6Y17.4
X55.6Y5.4
X56.7Y91.1
X56.7Y79.1
X56.7Y67.1
X56.7Y55.1
X56.7Y43.1
X56.7Y31.1
X56.7Y19.1
X56.7Y7.1
X58.3Y87.2
X58.3Y85.3
X58.3Y75.2
X58.3Y73.3
X58.3Y63.2
X58.3Y61.3
X58.3Y51.2
X58.3Y49.3
X58.3Y39.2
X58.3Y37.3
X58.3Y27.2
X58.3Y25.3
X58.3Y15.2
X58.3Y13.3
X58.3Y3.2
X58.3Y1.3
X58.302Y86.206
X58.302Y74.206
X58.302Y62.206
X58.302Y50.206
X58.302Y38.206
X58.302Y26.206
X58.302Y14.206
X58.302Y2.206
X58.4Y90.5
X58.4Y78.5
X58.4Y66.5
X58.4Y54.5
X58.4Y42.5
X58.4Y30.5
X58.4Y18.5
X58.4Y6.5
X58.5Y89.6
X58.5Y77.6
X58.5Y65.6
X58.5Y53.6
X58.5Y41.6
X58.5Y29.6
X58.5Y17.6
X58.5Y5.6
X61.4Y89.9
X61.4Y77.9
X61.4Y65.9
X61.4Y53.9
X61.4Y41.9
X61.4Y29.9
X61.4Y17.9
X61.4Y5.9
X66.7Y91.2
X66.7Y79.2
X66.7Y67.2
X66.7Y55.2
X66.7Y43.2
X66.7Y31.2
X66.7Y19.2
X66.7Y7.2
X66.825Y87.8
X66.825Y75.8
X66.825Y63.8
X66.825Y51.8
X66.825Y39.8
X66.825Y27.8
X66.825Y15.8
X66.825Y3.8
X68.75Y85.75
X68.75Y73.75
X68.75Y61.75
X68.75Y49.75
X68.75Y37.75
X68.75Y25.75
X68.75Y13.75
X68.75Y1.75
X70.0Y91.75
X70.0Y79.75
X70.0Y67.75
X70.0Y55.75
X70.0Y43.75
X70.0Y31.75
X70.0Y19.75
X70.0Y7.75
T2
X11.0Y92.0
X11.0Y86.0
X11.0Y80.0
X11.0Y74.0
X11.0Y68.0
X11.0Y62.0
X11.0Y56.0
X11.0Y50.0
X11.0Y44.0
X11.0Y38.0
X11.0Y32.0
X11.0Y26.0
X11.0Y20.0
X11.0Y14.0
X11.0Y8.0
X11.0Y2.0
X17.75Y89.0
X17.75Y77.0
X17.75Y65.0
X17.75Y53.0
X17.75Y41.0
X17.75Y29.0
X17.75Y17.0
X17.75Y5.0
X21.25Y89.0
X21.25Y77.0
X21.25Y65.0
X21.25Y53.0
X21.25Y41.0
X21.25Y29.0
X21.25Y17.0
X21.25Y5.0
X23.5Y92.0
X23.5Y80.0
X23.5Y68.0
X23.5Y56.0
X23.5Y44.0
X23.5Y32.0
X23.5Y20.0
X23.5Y8.0
X24.6Y89.0
X24.6Y77.0
X24.6Y65.0
X24.6Y53.0
X24.6Y41.0
X24.6Y29.0
X24.6Y17.0
X24.6Y5.0
X30.0Y91.85
X30.0Y87.9
X30.0Y87.0
X30.0Y85.4
X30.0Y79.85
X30.0Y75.9
X30.0Y75.0
X30.0Y73.4
X30.0Y67.85
X30.0Y63.9
X30.0Y63.0
X30.0Y61.4
X30.0Y55.85
X30.0Y51.9
X30.0Y51.0
X30.0Y49.4
X30.0Y43.85
X30.0Y39.9
X30.0Y39.0
X30.0Y37.4
X30.0Y31.85
X30.0Y27.9
X30.0Y27.0
X30.0Y25.4
X30.0Y19.85
X30.0Y15.9
X30.0Y15.0
X30.0Y13.4
X30.0Y7.85
X30.0Y3.9
X30.0Y3.0
X30.0Y1.4
X32.2Y90.7
X32.2Y78.7
X32.2Y66.7
X32.2Y54.7
X32.2Y42.7
X32.2Y30.7
X32.2Y18.7
X32.2Y6.7
X32.3Y85.75
X32.3Y73.75
X32.3Y61.75
X32.3Y49.75
X32.3Y37.75
X32.3Y25.75
X32.3Y13.75
X32.3Y1.75
X33.0Y90.7
X33.0Y78.7
X33.0Y66.7
X33.0Y54.7
X33.0Y42.7
X33.0Y30.7
X33.0Y18.7
X33.0Y6.7
X33.8Y87.5
X33.8Y75.5
X33.8Y63.5
X33.8Y51.5
X33.8Y39.5
X33.8Y27.5
X33.8Y15.5
X33.8Y3.5
X35.5Y90.8
X35.5Y78.8
X35.5Y66.8
X35.5Y54.8
X35.5Y42.8
X35.5Y30.8
X35.5Y18.8
X35.5Y6.8
X37.1Y90.7
X37.1Y78.7
X37.1Y66.7
X37.1Y54.7
X37.1Y42.7
X37.1Y30.7
X37.1Y18.7
X37.1Y6.7
X48.75Y91.5
X48.75Y79.5
X48.75Y67.5
X48.75Y55.5
X48.75Y43.5
X48.75Y31.5
X48.75Y19.5
X48.75Y7.5
X50.0Y92.0
X50.0Y80.0
X50.0Y68.0
X50.0Y56.0
X50.0Y44.0
X50.0Y32.0
X50.0Y20.0
X50.0Y8.0
X52.5Y92.0
X52.5Y80.0
X52.5Y68.0
X52.5Y56.0
X52.5Y44.0
X52.5Y32.0
X52.5Y20.0
X52.5Y8.0
X53.3Y85.2
X53.3Y73.2
X53.3Y61.2
X53.3Y49.2
X53.3Y37.2
X53.3Y25.2
X53.3Y13.2
X53.3Y1.2
X56.5Y92.6
X56.5Y80.6
X56.5Y68.6
X56.5Y56.6
X56.5Y44.6
X56.5Y32.6
X56.5Y20.6
X56.5Y8.6
X59.0Y92.6
X59.0Y80.6
X59.0Y68.6
X59.0Y56.6
X59.0Y44.6
X59.0Y32.6
X59.0Y20.6
X59.0Y8.6
X60.1Y87.7
X60.1Y75.7
X60.1Y63.7
X60.1Y51.7
X60.1Y39.7
X60.1Y27.7
X60.1Y15.7
X60.1Y3.7
X61.3Y87.7
X61.3Y75.7
X61.3Y63.7
X61.3Y51.7
X61.3Y39.7
X61.3Y27.7
X61.3Y15.7
X61.3Y3.7
X63.0Y91.75
X63.0Y79.75
X63.0Y67.75
X63.0Y55.75
X63.0Y43.75
X63.0Y31.75
X63.0Y19.75
X63.0Y7.75
X64.0Y92.5
X64.0Y80.5
X64.0Y68.5
X64.0Y56.5
X64.0Y44.5
X64.0Y32.5
X64.0Y20.5
X64.0Y8.5
X65.1Y86.75
X65.1Y74.75
X65.1Y62.75
X65.1Y50.75
X65.1Y38.75
X65.1Y26.75
X65.1Y14.75
X65.1Y2.75
X67.0Y88.75
X67.0Y76.75
X67.0Y64.75
X67.0Y52.75
X67.0Y40.75
X67.0Y28.75
X67.0Y16.75
X67.0Y4.75
X67.95Y86.75
X67.95Y74.75
X67.95Y62.75
X67.95Y50.75
X67.95Y38.75
X67.95Y26.75
X67.95Y14.75
X67.95Y2.75
X74.5Y92.0
X74.5Y86.0
X74.5Y80.0
X74.5Y74.0
X74.5Y68.0
X74.5Y62.0
X74.5Y56.0
X74.5Y50.0
X74.5Y44.0
X74.5Y38.0
X74.5Y32.0
X74.5Y26.0
X74.5Y20.0
X74.5Y14.0
X74.5Y8.0
X74.5Y2.0
T3
X64.25Y85.5
X64.25Y73.5
X64.25Y61.5
X64.25Y49.5
X64.25Y37.5
X64.25Y25.5
X64.25Y13.5
X64.25Y1.5
X65.25Y85.5
X65.25Y73.5
X65.25Y61.5
X65.25Y49.5
X65.25Y37.5
X65.25Y25.5
X65.25Y13.5
X65.25Y1.5
T4
X7.75Y90.75
X7.75Y87.25
X7.75Y78.75
X7.75Y75.25
X7.75Y66.75
X7.75Y63.25
X7.75Y54.75
X7.75Y51.25
X7.75Y42.75
X7.75Y39.25
X7.75Y30.75
X7.75Y27.25
X7.75Y18.75
X7.75Y15.25
X7.75Y6.75
X7.75Y3.25
X43.365Y92.2
X43.365Y80.2
X43.365Y68.2
X43.365Y56.2
X43.365Y44.2
X43.365Y32.2
X43.365Y20.2
X43.365Y8.2
X44.635Y92.2
X44.635Y80.2
X44.635Y68.2
X44.635Y56.2
X44.635Y44.2
X44.635Y32.2
X44.635Y20.2
X44.635Y8.2
T5
X27.25Y92.75
X27.25Y85.25
X27.25Y80.75
X27.25Y73.25
X27.25Y68.75
X27.25Y61.25
X27.25Y56.75
X27.25Y49.25
X27.25Y44.75
X27.25Y37.25
X27.25Y32.75
X27.25Y25.25
X27.25Y20.75
X27.25Y13.25
X27.25Y8.75
X27.25Y1.25
X72.0Y91.25
X72.0Y91.25
X72.0Y86.75
X72.0Y86.75
X72.0Y79.25
X72.0Y79.25
X72.0Y74.75
X72.0Y74.75
X72.0Y67.25
X72.0Y67.25
X72.0Y62.75
X72.0Y62.75
X72.0Y55.25
X72.0Y55.25
X72.0Y50.75
X72.0Y50.75
X72.0Y43.25
X72.0Y43.25
X72.0Y38.75
X72.0Y38.75
X72.0Y31.25
X72.0Y31.25
X72.0Y26.75
X72.0Y26.75
X72.0Y19.25
X72.0Y19.25
X72.0Y14.75
X72.0Y14.75
X72.0Y7.25
X72.0Y7.25
X72.0Y2.75
X72.0Y2.75
T6
X2.5Y89.0
X2.5Y77.0
X2.5Y65.0
X2.5Y53.0
X2.5Y41.0
X2.5Y29.0
X2.5Y17.0
X2.5Y5.0
X96.5Y89.0
X96.5Y77.0
X96.5Y65.0
X96.5Y53.0
X96.5Y41.0
X96.5Y29.0
X96.5Y17.0
X96.5Y5.0
T0
M30
