%TF.GenerationSoftware,KiCad,Pcbnew,(5.1.9)-1*%
%TF.CreationDate,2021-03-16T21:43:32+09:00*%
%TF.ProjectId,RoomLightExtensionBoard,526f6f6d-4c69-4676-9874-457874656e73,rev?*%
%TF.SameCoordinates,PX5c81a40PY7b06240*%
%TF.FileFunction,Copper,L1,Top*%
%TF.FilePolarity,Positive*%
%FSLAX46Y46*%
G04 Gerber Fmt 4.6, Leading zero omitted, Abs format (unit mm)*
G04 Created by KiCad (PCBNEW (5.1.9)-1) date 2021-03-16 21:43:32*
%MOMM*%
%LPD*%
G01*
G04 APERTURE LIST*
%TA.AperFunction,ComponentPad*%
%ADD10R,2.500000X1.200000*%
%TD*%
G04 APERTURE END LIST*
D10*
%TO.P,J2,1*%
%TO.N,+12V*%
X42500000Y2250000D03*
%TD*%
%TO.P,J2,1*%
%TO.N,+12V*%
X7500000Y2250000D03*
%TD*%
%TO.P,J2,1*%
%TO.N,+12V*%
X42500000Y12250000D03*
%TD*%
%TO.P,J2,1*%
%TO.N,+12V*%
X7500000Y12250000D03*
%TD*%
%TO.P,J2,1*%
%TO.N,+12V*%
X42500000Y22250000D03*
%TD*%
%TO.P,J2,1*%
%TO.N,+12V*%
X7500000Y22250000D03*
%TD*%
%TO.P,J2,1*%
%TO.N,+12V*%
X42500000Y32250000D03*
%TD*%
%TO.P,J2,1*%
%TO.N,+12V*%
X7500000Y32250000D03*
%TD*%
%TO.P,J2,1*%
%TO.N,+12V*%
X42500000Y42250000D03*
%TD*%
%TO.P,J2,1*%
%TO.N,+12V*%
X7500000Y42250000D03*
%TD*%
%TO.P,J2,1*%
%TO.N,+12V*%
X42500000Y52250000D03*
%TD*%
%TO.P,J2,1*%
%TO.N,+12V*%
X7500000Y52250000D03*
%TD*%
%TO.P,J2,1*%
%TO.N,+12V*%
X42500000Y62250000D03*
%TD*%
%TO.P,J2,1*%
%TO.N,+12V*%
X7500000Y62250000D03*
%TD*%
%TO.P,J2,1*%
%TO.N,+12V*%
X42500000Y72250000D03*
%TD*%
%TO.P,J2,1*%
%TO.N,+12V*%
X7500000Y72250000D03*
%TD*%
%TO.P,J2,1*%
%TO.N,+12V*%
X42500000Y82250000D03*
%TD*%
%TO.P,J2,1*%
%TO.N,+12V*%
X7500000Y82250000D03*
%TD*%
%TO.P,J2,1*%
%TO.N,+12V*%
X42500000Y92250000D03*
%TD*%
%TO.P,J4,1*%
%TO.N,GND*%
X42500000Y5750000D03*
%TD*%
%TO.P,J4,1*%
%TO.N,GND*%
X7500000Y5750000D03*
%TD*%
%TO.P,J4,1*%
%TO.N,GND*%
X42500000Y15750000D03*
%TD*%
%TO.P,J4,1*%
%TO.N,GND*%
X7500000Y15750000D03*
%TD*%
%TO.P,J4,1*%
%TO.N,GND*%
X42500000Y25750000D03*
%TD*%
%TO.P,J4,1*%
%TO.N,GND*%
X7500000Y25750000D03*
%TD*%
%TO.P,J4,1*%
%TO.N,GND*%
X42500000Y35750000D03*
%TD*%
%TO.P,J4,1*%
%TO.N,GND*%
X7500000Y35750000D03*
%TD*%
%TO.P,J4,1*%
%TO.N,GND*%
X42500000Y45750000D03*
%TD*%
%TO.P,J4,1*%
%TO.N,GND*%
X7500000Y45750000D03*
%TD*%
%TO.P,J4,1*%
%TO.N,GND*%
X42500000Y55750000D03*
%TD*%
%TO.P,J4,1*%
%TO.N,GND*%
X7500000Y55750000D03*
%TD*%
%TO.P,J4,1*%
%TO.N,GND*%
X42500000Y65750000D03*
%TD*%
%TO.P,J4,1*%
%TO.N,GND*%
X7500000Y65750000D03*
%TD*%
%TO.P,J4,1*%
%TO.N,GND*%
X42500000Y75750000D03*
%TD*%
%TO.P,J4,1*%
%TO.N,GND*%
X7500000Y75750000D03*
%TD*%
%TO.P,J4,1*%
%TO.N,GND*%
X42500000Y85750000D03*
%TD*%
%TO.P,J4,1*%
%TO.N,GND*%
X7500000Y85750000D03*
%TD*%
%TO.P,J4,1*%
%TO.N,GND*%
X42500000Y95750000D03*
%TD*%
%TO.P,J3,1*%
%TO.N,GND*%
X69500000Y5750000D03*
%TD*%
%TO.P,J3,1*%
%TO.N,GND*%
X34500000Y5750000D03*
%TD*%
%TO.P,J3,1*%
%TO.N,GND*%
X69500000Y15750000D03*
%TD*%
%TO.P,J3,1*%
%TO.N,GND*%
X34500000Y15750000D03*
%TD*%
%TO.P,J3,1*%
%TO.N,GND*%
X69500000Y25750000D03*
%TD*%
%TO.P,J3,1*%
%TO.N,GND*%
X34500000Y25750000D03*
%TD*%
%TO.P,J3,1*%
%TO.N,GND*%
X69500000Y35750000D03*
%TD*%
%TO.P,J3,1*%
%TO.N,GND*%
X34500000Y35750000D03*
%TD*%
%TO.P,J3,1*%
%TO.N,GND*%
X69500000Y45750000D03*
%TD*%
%TO.P,J3,1*%
%TO.N,GND*%
X34500000Y45750000D03*
%TD*%
%TO.P,J3,1*%
%TO.N,GND*%
X69500000Y55750000D03*
%TD*%
%TO.P,J3,1*%
%TO.N,GND*%
X34500000Y55750000D03*
%TD*%
%TO.P,J3,1*%
%TO.N,GND*%
X69500000Y65750000D03*
%TD*%
%TO.P,J3,1*%
%TO.N,GND*%
X34500000Y65750000D03*
%TD*%
%TO.P,J3,1*%
%TO.N,GND*%
X69500000Y75750000D03*
%TD*%
%TO.P,J3,1*%
%TO.N,GND*%
X34500000Y75750000D03*
%TD*%
%TO.P,J3,1*%
%TO.N,GND*%
X69500000Y85750000D03*
%TD*%
%TO.P,J3,1*%
%TO.N,GND*%
X34500000Y85750000D03*
%TD*%
%TO.P,J3,1*%
%TO.N,GND*%
X69500000Y95750000D03*
%TD*%
%TO.P,J1,1*%
%TO.N,+12V*%
X69500000Y2250000D03*
%TD*%
%TO.P,J1,1*%
%TO.N,+12V*%
X34500000Y2250000D03*
%TD*%
%TO.P,J1,1*%
%TO.N,+12V*%
X69500000Y12250000D03*
%TD*%
%TO.P,J1,1*%
%TO.N,+12V*%
X34500000Y12250000D03*
%TD*%
%TO.P,J1,1*%
%TO.N,+12V*%
X69500000Y22250000D03*
%TD*%
%TO.P,J1,1*%
%TO.N,+12V*%
X34500000Y22250000D03*
%TD*%
%TO.P,J1,1*%
%TO.N,+12V*%
X69500000Y32250000D03*
%TD*%
%TO.P,J1,1*%
%TO.N,+12V*%
X34500000Y32250000D03*
%TD*%
%TO.P,J1,1*%
%TO.N,+12V*%
X69500000Y42250000D03*
%TD*%
%TO.P,J1,1*%
%TO.N,+12V*%
X34500000Y42250000D03*
%TD*%
%TO.P,J1,1*%
%TO.N,+12V*%
X69500000Y52250000D03*
%TD*%
%TO.P,J1,1*%
%TO.N,+12V*%
X34500000Y52250000D03*
%TD*%
%TO.P,J1,1*%
%TO.N,+12V*%
X69500000Y62250000D03*
%TD*%
%TO.P,J1,1*%
%TO.N,+12V*%
X34500000Y62250000D03*
%TD*%
%TO.P,J1,1*%
%TO.N,+12V*%
X69500000Y72250000D03*
%TD*%
%TO.P,J1,1*%
%TO.N,+12V*%
X34500000Y72250000D03*
%TD*%
%TO.P,J1,1*%
%TO.N,+12V*%
X69500000Y82250000D03*
%TD*%
%TO.P,J1,1*%
%TO.N,+12V*%
X34500000Y82250000D03*
%TD*%
%TO.P,J1,1*%
%TO.N,+12V*%
X69500000Y92250000D03*
%TD*%
%TO.P,J1,1*%
%TO.N,+12V*%
X34500000Y92250000D03*
%TD*%
%TO.P,J2,1*%
%TO.N,+12V*%
X7500000Y92250000D03*
%TD*%
%TO.P,J3,1*%
%TO.N,GND*%
X34500000Y95750000D03*
%TD*%
%TO.P,J4,1*%
%TO.N,GND*%
X7500000Y95750000D03*
%TD*%
M02*
