%TF.GenerationSoftware,KiCad,Pcbnew,(5.1.9)-1*%
%TF.CreationDate,2021-03-16T21:43:32+09:00*%
%TF.ProjectId,RoomLightExtensionBoard,526f6f6d-4c69-4676-9874-457874656e73,rev?*%
%TF.SameCoordinates,PX5c81a40PY7b06240*%
%TF.FileFunction,Legend,Bot*%
%TF.FilePolarity,Positive*%
%FSLAX46Y46*%
G04 Gerber Fmt 4.6, Leading zero omitted, Abs format (unit mm)*
G04 Created by KiCad (PCBNEW (5.1.9)-1) date 2021-03-16 21:43:32*
%MOMM*%
%LPD*%
G01*
G04 APERTURE LIST*
%ADD10C,0.300000*%
%ADD11C,0.220000*%
%ADD12C,0.150000*%
%ADD13C,0.180000*%
%ADD14C,0.200000*%
%ADD15C,0.140000*%
%ADD16C,2.000000*%
%ADD17R,0.900000X0.650000*%
%ADD18R,2.500000X1.200000*%
%ADD19R,0.800000X1.000000*%
G04 APERTURE END LIST*
D10*
X61000000Y0D02*
X61000000Y8000000D01*
X26000000Y0D02*
X26000000Y8000000D01*
X61000000Y10000000D02*
X61000000Y18000000D01*
X26000000Y10000000D02*
X26000000Y18000000D01*
X61000000Y20000000D02*
X61000000Y28000000D01*
X26000000Y20000000D02*
X26000000Y28000000D01*
X61000000Y30000000D02*
X61000000Y38000000D01*
X26000000Y30000000D02*
X26000000Y38000000D01*
X61000000Y40000000D02*
X61000000Y48000000D01*
X26000000Y40000000D02*
X26000000Y48000000D01*
X61000000Y50000000D02*
X61000000Y58000000D01*
X26000000Y50000000D02*
X26000000Y58000000D01*
X61000000Y60000000D02*
X61000000Y68000000D01*
X26000000Y60000000D02*
X26000000Y68000000D01*
X61000000Y70000000D02*
X61000000Y78000000D01*
X26000000Y70000000D02*
X26000000Y78000000D01*
X61000000Y80000000D02*
X61000000Y88000000D01*
X26000000Y80000000D02*
X26000000Y88000000D01*
X61000000Y90000000D02*
X61000000Y98000000D01*
X51000000Y0D02*
X51000000Y8000000D01*
X16000000Y0D02*
X16000000Y8000000D01*
X51000000Y10000000D02*
X51000000Y18000000D01*
X16000000Y10000000D02*
X16000000Y18000000D01*
X51000000Y20000000D02*
X51000000Y28000000D01*
X16000000Y20000000D02*
X16000000Y28000000D01*
X51000000Y30000000D02*
X51000000Y38000000D01*
X16000000Y30000000D02*
X16000000Y38000000D01*
X51000000Y40000000D02*
X51000000Y48000000D01*
X16000000Y40000000D02*
X16000000Y48000000D01*
X51000000Y50000000D02*
X51000000Y58000000D01*
X16000000Y50000000D02*
X16000000Y58000000D01*
X51000000Y60000000D02*
X51000000Y68000000D01*
X16000000Y60000000D02*
X16000000Y68000000D01*
X51000000Y70000000D02*
X51000000Y78000000D01*
X16000000Y70000000D02*
X16000000Y78000000D01*
X51000000Y80000000D02*
X51000000Y88000000D01*
X16000000Y80000000D02*
X16000000Y88000000D01*
X51000000Y90000000D02*
X51000000Y98000000D01*
D11*
X69880952Y928572D02*
X69119047Y928572D01*
X69500000Y547620D02*
X69500000Y1309524D01*
X34880952Y928572D02*
X34119047Y928572D01*
X34500000Y547620D02*
X34500000Y1309524D01*
X69880952Y10928572D02*
X69119047Y10928572D01*
X69500000Y10547620D02*
X69500000Y11309524D01*
X34880952Y10928572D02*
X34119047Y10928572D01*
X34500000Y10547620D02*
X34500000Y11309524D01*
X69880952Y20928572D02*
X69119047Y20928572D01*
X69500000Y20547620D02*
X69500000Y21309524D01*
X34880952Y20928572D02*
X34119047Y20928572D01*
X34500000Y20547620D02*
X34500000Y21309524D01*
X69880952Y30928572D02*
X69119047Y30928572D01*
X69500000Y30547620D02*
X69500000Y31309524D01*
X34880952Y30928572D02*
X34119047Y30928572D01*
X34500000Y30547620D02*
X34500000Y31309524D01*
X69880952Y40928572D02*
X69119047Y40928572D01*
X69500000Y40547620D02*
X69500000Y41309524D01*
X34880952Y40928572D02*
X34119047Y40928572D01*
X34500000Y40547620D02*
X34500000Y41309524D01*
X69880952Y50928572D02*
X69119047Y50928572D01*
X69500000Y50547620D02*
X69500000Y51309524D01*
X34880952Y50928572D02*
X34119047Y50928572D01*
X34500000Y50547620D02*
X34500000Y51309524D01*
X69880952Y60928572D02*
X69119047Y60928572D01*
X69500000Y60547620D02*
X69500000Y61309524D01*
X34880952Y60928572D02*
X34119047Y60928572D01*
X34500000Y60547620D02*
X34500000Y61309524D01*
X69880952Y70928572D02*
X69119047Y70928572D01*
X69500000Y70547620D02*
X69500000Y71309524D01*
X34880952Y70928572D02*
X34119047Y70928572D01*
X34500000Y70547620D02*
X34500000Y71309524D01*
X69880952Y80928572D02*
X69119047Y80928572D01*
X69500000Y80547620D02*
X69500000Y81309524D01*
X34880952Y80928572D02*
X34119047Y80928572D01*
X34500000Y80547620D02*
X34500000Y81309524D01*
X69880952Y90928572D02*
X69119047Y90928572D01*
X69500000Y90547620D02*
X69500000Y91309524D01*
X42880952Y928572D02*
X42119047Y928572D01*
X42500000Y547620D02*
X42500000Y1309524D01*
X7880952Y928572D02*
X7119047Y928572D01*
X7500000Y547620D02*
X7500000Y1309524D01*
X42880952Y10928572D02*
X42119047Y10928572D01*
X42500000Y10547620D02*
X42500000Y11309524D01*
X7880952Y10928572D02*
X7119047Y10928572D01*
X7500000Y10547620D02*
X7500000Y11309524D01*
X42880952Y20928572D02*
X42119047Y20928572D01*
X42500000Y20547620D02*
X42500000Y21309524D01*
X7880952Y20928572D02*
X7119047Y20928572D01*
X7500000Y20547620D02*
X7500000Y21309524D01*
X42880952Y30928572D02*
X42119047Y30928572D01*
X42500000Y30547620D02*
X42500000Y31309524D01*
X7880952Y30928572D02*
X7119047Y30928572D01*
X7500000Y30547620D02*
X7500000Y31309524D01*
X42880952Y40928572D02*
X42119047Y40928572D01*
X42500000Y40547620D02*
X42500000Y41309524D01*
X7880952Y40928572D02*
X7119047Y40928572D01*
X7500000Y40547620D02*
X7500000Y41309524D01*
X42880952Y50928572D02*
X42119047Y50928572D01*
X42500000Y50547620D02*
X42500000Y51309524D01*
X7880952Y50928572D02*
X7119047Y50928572D01*
X7500000Y50547620D02*
X7500000Y51309524D01*
X42880952Y60928572D02*
X42119047Y60928572D01*
X42500000Y60547620D02*
X42500000Y61309524D01*
X7880952Y60928572D02*
X7119047Y60928572D01*
X7500000Y60547620D02*
X7500000Y61309524D01*
X42880952Y70928572D02*
X42119047Y70928572D01*
X42500000Y70547620D02*
X42500000Y71309524D01*
X7880952Y70928572D02*
X7119047Y70928572D01*
X7500000Y70547620D02*
X7500000Y71309524D01*
X42880952Y80928572D02*
X42119047Y80928572D01*
X42500000Y80547620D02*
X42500000Y81309524D01*
X7880952Y80928572D02*
X7119047Y80928572D01*
X7500000Y80547620D02*
X7500000Y81309524D01*
X42880952Y90928572D02*
X42119047Y90928572D01*
X42500000Y90547620D02*
X42500000Y91309524D01*
X42880952Y7178572D02*
X42119047Y7178572D01*
X7880952Y7178572D02*
X7119047Y7178572D01*
X42880952Y17178572D02*
X42119047Y17178572D01*
X7880952Y17178572D02*
X7119047Y17178572D01*
X42880952Y27178572D02*
X42119047Y27178572D01*
X7880952Y27178572D02*
X7119047Y27178572D01*
X42880952Y37178572D02*
X42119047Y37178572D01*
X7880952Y37178572D02*
X7119047Y37178572D01*
X42880952Y47178572D02*
X42119047Y47178572D01*
X7880952Y47178572D02*
X7119047Y47178572D01*
X42880952Y57178572D02*
X42119047Y57178572D01*
X7880952Y57178572D02*
X7119047Y57178572D01*
X42880952Y67178572D02*
X42119047Y67178572D01*
X7880952Y67178572D02*
X7119047Y67178572D01*
X42880952Y77178572D02*
X42119047Y77178572D01*
X7880952Y77178572D02*
X7119047Y77178572D01*
X42880952Y87178572D02*
X42119047Y87178572D01*
X7880952Y87178572D02*
X7119047Y87178572D01*
X42880952Y97178572D02*
X42119047Y97178572D01*
X69880952Y7178572D02*
X69119047Y7178572D01*
X34880952Y7178572D02*
X34119047Y7178572D01*
X69880952Y17178572D02*
X69119047Y17178572D01*
X34880952Y17178572D02*
X34119047Y17178572D01*
X69880952Y27178572D02*
X69119047Y27178572D01*
X34880952Y27178572D02*
X34119047Y27178572D01*
X69880952Y37178572D02*
X69119047Y37178572D01*
X34880952Y37178572D02*
X34119047Y37178572D01*
X69880952Y47178572D02*
X69119047Y47178572D01*
X34880952Y47178572D02*
X34119047Y47178572D01*
X69880952Y57178572D02*
X69119047Y57178572D01*
X34880952Y57178572D02*
X34119047Y57178572D01*
X69880952Y67178572D02*
X69119047Y67178572D01*
X34880952Y67178572D02*
X34119047Y67178572D01*
X69880952Y77178572D02*
X69119047Y77178572D01*
X34880952Y77178572D02*
X34119047Y77178572D01*
X69880952Y87178572D02*
X69119047Y87178572D01*
X34880952Y87178572D02*
X34119047Y87178572D01*
X69880952Y97178572D02*
X69119047Y97178572D01*
D12*
X71000000Y4000000D02*
X69750000Y4000000D01*
X36000000Y4000000D02*
X34750000Y4000000D01*
X71000000Y14000000D02*
X69750000Y14000000D01*
X36000000Y14000000D02*
X34750000Y14000000D01*
X71000000Y24000000D02*
X69750000Y24000000D01*
X36000000Y24000000D02*
X34750000Y24000000D01*
X71000000Y34000000D02*
X69750000Y34000000D01*
X36000000Y34000000D02*
X34750000Y34000000D01*
X71000000Y44000000D02*
X69750000Y44000000D01*
X36000000Y44000000D02*
X34750000Y44000000D01*
X71000000Y54000000D02*
X69750000Y54000000D01*
X36000000Y54000000D02*
X34750000Y54000000D01*
X71000000Y64000000D02*
X69750000Y64000000D01*
X36000000Y64000000D02*
X34750000Y64000000D01*
X71000000Y74000000D02*
X69750000Y74000000D01*
X36000000Y74000000D02*
X34750000Y74000000D01*
X71000000Y84000000D02*
X69750000Y84000000D01*
X36000000Y84000000D02*
X34750000Y84000000D01*
X71000000Y94000000D02*
X69750000Y94000000D01*
X41000000Y4000000D02*
X43750000Y4000000D01*
X6000000Y4000000D02*
X8750000Y4000000D01*
X41000000Y14000000D02*
X43750000Y14000000D01*
X6000000Y14000000D02*
X8750000Y14000000D01*
X41000000Y24000000D02*
X43750000Y24000000D01*
X6000000Y24000000D02*
X8750000Y24000000D01*
X41000000Y34000000D02*
X43750000Y34000000D01*
X6000000Y34000000D02*
X8750000Y34000000D01*
X41000000Y44000000D02*
X43750000Y44000000D01*
X6000000Y44000000D02*
X8750000Y44000000D01*
X41000000Y54000000D02*
X43750000Y54000000D01*
X6000000Y54000000D02*
X8750000Y54000000D01*
X41000000Y64000000D02*
X43750000Y64000000D01*
X6000000Y64000000D02*
X8750000Y64000000D01*
X41000000Y74000000D02*
X43750000Y74000000D01*
X6000000Y74000000D02*
X8750000Y74000000D01*
X41000000Y84000000D02*
X43750000Y84000000D01*
X6000000Y84000000D02*
X8750000Y84000000D01*
X41000000Y94000000D02*
X43750000Y94000000D01*
X6000000Y94000000D02*
X8750000Y94000000D01*
X36000000Y94000000D02*
X34750000Y94000000D01*
D11*
X34880952Y97178572D02*
X34119047Y97178572D01*
X7880952Y97178572D02*
X7119047Y97178572D01*
X7880952Y90928572D02*
X7119047Y90928572D01*
X7500000Y90547620D02*
X7500000Y91309524D01*
X34880952Y90928572D02*
X34119047Y90928572D01*
X34500000Y90547620D02*
X34500000Y91309524D01*
D10*
X16000000Y90000000D02*
X16000000Y98000000D01*
X26000000Y90000000D02*
X26000000Y98000000D01*
D13*
%TO.C,R1*%
X66920000Y5280000D02*
X66920000Y4450000D01*
X68080000Y5280000D02*
X66920000Y5280000D01*
X68080000Y4450000D02*
X68080000Y5280000D01*
X66920000Y2720000D02*
X66920000Y3550000D01*
X68080000Y2720000D02*
X66920000Y2720000D01*
X68080000Y3550000D02*
X68080000Y2720000D01*
X31920000Y5280000D02*
X31920000Y4450000D01*
X33080000Y5280000D02*
X31920000Y5280000D01*
X33080000Y4450000D02*
X33080000Y5280000D01*
X31920000Y2720000D02*
X31920000Y3550000D01*
X33080000Y2720000D02*
X31920000Y2720000D01*
X33080000Y3550000D02*
X33080000Y2720000D01*
X66920000Y15280000D02*
X66920000Y14450000D01*
X68080000Y15280000D02*
X66920000Y15280000D01*
X68080000Y14450000D02*
X68080000Y15280000D01*
X66920000Y12720000D02*
X66920000Y13550000D01*
X68080000Y12720000D02*
X66920000Y12720000D01*
X68080000Y13550000D02*
X68080000Y12720000D01*
X31920000Y15280000D02*
X31920000Y14450000D01*
X33080000Y15280000D02*
X31920000Y15280000D01*
X33080000Y14450000D02*
X33080000Y15280000D01*
X31920000Y12720000D02*
X31920000Y13550000D01*
X33080000Y12720000D02*
X31920000Y12720000D01*
X33080000Y13550000D02*
X33080000Y12720000D01*
X66920000Y25280000D02*
X66920000Y24450000D01*
X68080000Y25280000D02*
X66920000Y25280000D01*
X68080000Y24450000D02*
X68080000Y25280000D01*
X66920000Y22720000D02*
X66920000Y23550000D01*
X68080000Y22720000D02*
X66920000Y22720000D01*
X68080000Y23550000D02*
X68080000Y22720000D01*
X31920000Y25280000D02*
X31920000Y24450000D01*
X33080000Y25280000D02*
X31920000Y25280000D01*
X33080000Y24450000D02*
X33080000Y25280000D01*
X31920000Y22720000D02*
X31920000Y23550000D01*
X33080000Y22720000D02*
X31920000Y22720000D01*
X33080000Y23550000D02*
X33080000Y22720000D01*
X66920000Y35280000D02*
X66920000Y34450000D01*
X68080000Y35280000D02*
X66920000Y35280000D01*
X68080000Y34450000D02*
X68080000Y35280000D01*
X66920000Y32720000D02*
X66920000Y33550000D01*
X68080000Y32720000D02*
X66920000Y32720000D01*
X68080000Y33550000D02*
X68080000Y32720000D01*
X31920000Y35280000D02*
X31920000Y34450000D01*
X33080000Y35280000D02*
X31920000Y35280000D01*
X33080000Y34450000D02*
X33080000Y35280000D01*
X31920000Y32720000D02*
X31920000Y33550000D01*
X33080000Y32720000D02*
X31920000Y32720000D01*
X33080000Y33550000D02*
X33080000Y32720000D01*
X66920000Y45280000D02*
X66920000Y44450000D01*
X68080000Y45280000D02*
X66920000Y45280000D01*
X68080000Y44450000D02*
X68080000Y45280000D01*
X66920000Y42720000D02*
X66920000Y43550000D01*
X68080000Y42720000D02*
X66920000Y42720000D01*
X68080000Y43550000D02*
X68080000Y42720000D01*
X31920000Y45280000D02*
X31920000Y44450000D01*
X33080000Y45280000D02*
X31920000Y45280000D01*
X33080000Y44450000D02*
X33080000Y45280000D01*
X31920000Y42720000D02*
X31920000Y43550000D01*
X33080000Y42720000D02*
X31920000Y42720000D01*
X33080000Y43550000D02*
X33080000Y42720000D01*
X66920000Y55280000D02*
X66920000Y54450000D01*
X68080000Y55280000D02*
X66920000Y55280000D01*
X68080000Y54450000D02*
X68080000Y55280000D01*
X66920000Y52720000D02*
X66920000Y53550000D01*
X68080000Y52720000D02*
X66920000Y52720000D01*
X68080000Y53550000D02*
X68080000Y52720000D01*
X31920000Y55280000D02*
X31920000Y54450000D01*
X33080000Y55280000D02*
X31920000Y55280000D01*
X33080000Y54450000D02*
X33080000Y55280000D01*
X31920000Y52720000D02*
X31920000Y53550000D01*
X33080000Y52720000D02*
X31920000Y52720000D01*
X33080000Y53550000D02*
X33080000Y52720000D01*
X66920000Y65280000D02*
X66920000Y64450000D01*
X68080000Y65280000D02*
X66920000Y65280000D01*
X68080000Y64450000D02*
X68080000Y65280000D01*
X66920000Y62720000D02*
X66920000Y63550000D01*
X68080000Y62720000D02*
X66920000Y62720000D01*
X68080000Y63550000D02*
X68080000Y62720000D01*
X31920000Y65280000D02*
X31920000Y64450000D01*
X33080000Y65280000D02*
X31920000Y65280000D01*
X33080000Y64450000D02*
X33080000Y65280000D01*
X31920000Y62720000D02*
X31920000Y63550000D01*
X33080000Y62720000D02*
X31920000Y62720000D01*
X33080000Y63550000D02*
X33080000Y62720000D01*
X66920000Y75280000D02*
X66920000Y74450000D01*
X68080000Y75280000D02*
X66920000Y75280000D01*
X68080000Y74450000D02*
X68080000Y75280000D01*
X66920000Y72720000D02*
X66920000Y73550000D01*
X68080000Y72720000D02*
X66920000Y72720000D01*
X68080000Y73550000D02*
X68080000Y72720000D01*
X31920000Y75280000D02*
X31920000Y74450000D01*
X33080000Y75280000D02*
X31920000Y75280000D01*
X33080000Y74450000D02*
X33080000Y75280000D01*
X31920000Y72720000D02*
X31920000Y73550000D01*
X33080000Y72720000D02*
X31920000Y72720000D01*
X33080000Y73550000D02*
X33080000Y72720000D01*
X66920000Y85280000D02*
X66920000Y84450000D01*
X68080000Y85280000D02*
X66920000Y85280000D01*
X68080000Y84450000D02*
X68080000Y85280000D01*
X66920000Y82720000D02*
X66920000Y83550000D01*
X68080000Y82720000D02*
X66920000Y82720000D01*
X68080000Y83550000D02*
X68080000Y82720000D01*
X31920000Y85280000D02*
X31920000Y84450000D01*
X33080000Y85280000D02*
X31920000Y85280000D01*
X33080000Y84450000D02*
X33080000Y85280000D01*
X31920000Y82720000D02*
X31920000Y83550000D01*
X33080000Y82720000D02*
X31920000Y82720000D01*
X33080000Y83550000D02*
X33080000Y82720000D01*
X66920000Y95280000D02*
X66920000Y94450000D01*
X68080000Y95280000D02*
X66920000Y95280000D01*
X68080000Y94450000D02*
X68080000Y95280000D01*
X66920000Y92720000D02*
X66920000Y93550000D01*
X68080000Y92720000D02*
X66920000Y92720000D01*
X68080000Y93550000D02*
X68080000Y92720000D01*
%TO.C,R2*%
X58080000Y3550000D02*
X58080000Y2720000D01*
X58080000Y2720000D02*
X56920000Y2720000D01*
X56920000Y2720000D02*
X56920000Y3550000D01*
X58080000Y4450000D02*
X58080000Y5280000D01*
X58080000Y5280000D02*
X56920000Y5280000D01*
X56920000Y5280000D02*
X56920000Y4450000D01*
X23080000Y3550000D02*
X23080000Y2720000D01*
X23080000Y2720000D02*
X21920000Y2720000D01*
X21920000Y2720000D02*
X21920000Y3550000D01*
X23080000Y4450000D02*
X23080000Y5280000D01*
X23080000Y5280000D02*
X21920000Y5280000D01*
X21920000Y5280000D02*
X21920000Y4450000D01*
X58080000Y13550000D02*
X58080000Y12720000D01*
X58080000Y12720000D02*
X56920000Y12720000D01*
X56920000Y12720000D02*
X56920000Y13550000D01*
X58080000Y14450000D02*
X58080000Y15280000D01*
X58080000Y15280000D02*
X56920000Y15280000D01*
X56920000Y15280000D02*
X56920000Y14450000D01*
X23080000Y13550000D02*
X23080000Y12720000D01*
X23080000Y12720000D02*
X21920000Y12720000D01*
X21920000Y12720000D02*
X21920000Y13550000D01*
X23080000Y14450000D02*
X23080000Y15280000D01*
X23080000Y15280000D02*
X21920000Y15280000D01*
X21920000Y15280000D02*
X21920000Y14450000D01*
X58080000Y23550000D02*
X58080000Y22720000D01*
X58080000Y22720000D02*
X56920000Y22720000D01*
X56920000Y22720000D02*
X56920000Y23550000D01*
X58080000Y24450000D02*
X58080000Y25280000D01*
X58080000Y25280000D02*
X56920000Y25280000D01*
X56920000Y25280000D02*
X56920000Y24450000D01*
X23080000Y23550000D02*
X23080000Y22720000D01*
X23080000Y22720000D02*
X21920000Y22720000D01*
X21920000Y22720000D02*
X21920000Y23550000D01*
X23080000Y24450000D02*
X23080000Y25280000D01*
X23080000Y25280000D02*
X21920000Y25280000D01*
X21920000Y25280000D02*
X21920000Y24450000D01*
X58080000Y33550000D02*
X58080000Y32720000D01*
X58080000Y32720000D02*
X56920000Y32720000D01*
X56920000Y32720000D02*
X56920000Y33550000D01*
X58080000Y34450000D02*
X58080000Y35280000D01*
X58080000Y35280000D02*
X56920000Y35280000D01*
X56920000Y35280000D02*
X56920000Y34450000D01*
X23080000Y33550000D02*
X23080000Y32720000D01*
X23080000Y32720000D02*
X21920000Y32720000D01*
X21920000Y32720000D02*
X21920000Y33550000D01*
X23080000Y34450000D02*
X23080000Y35280000D01*
X23080000Y35280000D02*
X21920000Y35280000D01*
X21920000Y35280000D02*
X21920000Y34450000D01*
X58080000Y43550000D02*
X58080000Y42720000D01*
X58080000Y42720000D02*
X56920000Y42720000D01*
X56920000Y42720000D02*
X56920000Y43550000D01*
X58080000Y44450000D02*
X58080000Y45280000D01*
X58080000Y45280000D02*
X56920000Y45280000D01*
X56920000Y45280000D02*
X56920000Y44450000D01*
X23080000Y43550000D02*
X23080000Y42720000D01*
X23080000Y42720000D02*
X21920000Y42720000D01*
X21920000Y42720000D02*
X21920000Y43550000D01*
X23080000Y44450000D02*
X23080000Y45280000D01*
X23080000Y45280000D02*
X21920000Y45280000D01*
X21920000Y45280000D02*
X21920000Y44450000D01*
X58080000Y53550000D02*
X58080000Y52720000D01*
X58080000Y52720000D02*
X56920000Y52720000D01*
X56920000Y52720000D02*
X56920000Y53550000D01*
X58080000Y54450000D02*
X58080000Y55280000D01*
X58080000Y55280000D02*
X56920000Y55280000D01*
X56920000Y55280000D02*
X56920000Y54450000D01*
X23080000Y53550000D02*
X23080000Y52720000D01*
X23080000Y52720000D02*
X21920000Y52720000D01*
X21920000Y52720000D02*
X21920000Y53550000D01*
X23080000Y54450000D02*
X23080000Y55280000D01*
X23080000Y55280000D02*
X21920000Y55280000D01*
X21920000Y55280000D02*
X21920000Y54450000D01*
X58080000Y63550000D02*
X58080000Y62720000D01*
X58080000Y62720000D02*
X56920000Y62720000D01*
X56920000Y62720000D02*
X56920000Y63550000D01*
X58080000Y64450000D02*
X58080000Y65280000D01*
X58080000Y65280000D02*
X56920000Y65280000D01*
X56920000Y65280000D02*
X56920000Y64450000D01*
X23080000Y63550000D02*
X23080000Y62720000D01*
X23080000Y62720000D02*
X21920000Y62720000D01*
X21920000Y62720000D02*
X21920000Y63550000D01*
X23080000Y64450000D02*
X23080000Y65280000D01*
X23080000Y65280000D02*
X21920000Y65280000D01*
X21920000Y65280000D02*
X21920000Y64450000D01*
X58080000Y73550000D02*
X58080000Y72720000D01*
X58080000Y72720000D02*
X56920000Y72720000D01*
X56920000Y72720000D02*
X56920000Y73550000D01*
X58080000Y74450000D02*
X58080000Y75280000D01*
X58080000Y75280000D02*
X56920000Y75280000D01*
X56920000Y75280000D02*
X56920000Y74450000D01*
X23080000Y73550000D02*
X23080000Y72720000D01*
X23080000Y72720000D02*
X21920000Y72720000D01*
X21920000Y72720000D02*
X21920000Y73550000D01*
X23080000Y74450000D02*
X23080000Y75280000D01*
X23080000Y75280000D02*
X21920000Y75280000D01*
X21920000Y75280000D02*
X21920000Y74450000D01*
X58080000Y83550000D02*
X58080000Y82720000D01*
X58080000Y82720000D02*
X56920000Y82720000D01*
X56920000Y82720000D02*
X56920000Y83550000D01*
X58080000Y84450000D02*
X58080000Y85280000D01*
X58080000Y85280000D02*
X56920000Y85280000D01*
X56920000Y85280000D02*
X56920000Y84450000D01*
X23080000Y83550000D02*
X23080000Y82720000D01*
X23080000Y82720000D02*
X21920000Y82720000D01*
X21920000Y82720000D02*
X21920000Y83550000D01*
X23080000Y84450000D02*
X23080000Y85280000D01*
X23080000Y85280000D02*
X21920000Y85280000D01*
X21920000Y85280000D02*
X21920000Y84450000D01*
X58080000Y93550000D02*
X58080000Y92720000D01*
X58080000Y92720000D02*
X56920000Y92720000D01*
X56920000Y92720000D02*
X56920000Y93550000D01*
X58080000Y94450000D02*
X58080000Y95280000D01*
X58080000Y95280000D02*
X56920000Y95280000D01*
X56920000Y95280000D02*
X56920000Y94450000D01*
D14*
%TO.C,D3*%
X46500000Y4800000D02*
X46500000Y3200000D01*
X45500000Y4800000D02*
X45500000Y3200000D01*
D12*
X46000000Y4200000D02*
X45700000Y3800000D01*
X46300000Y3800000D02*
X46000000Y4200000D01*
X45700000Y3800000D02*
X46300000Y3800000D01*
D14*
X11500000Y4800000D02*
X11500000Y3200000D01*
X10500000Y4800000D02*
X10500000Y3200000D01*
D12*
X11000000Y4200000D02*
X10700000Y3800000D01*
X11300000Y3800000D02*
X11000000Y4200000D01*
X10700000Y3800000D02*
X11300000Y3800000D01*
D14*
X46500000Y14800000D02*
X46500000Y13200000D01*
X45500000Y14800000D02*
X45500000Y13200000D01*
D12*
X46000000Y14200000D02*
X45700000Y13800000D01*
X46300000Y13800000D02*
X46000000Y14200000D01*
X45700000Y13800000D02*
X46300000Y13800000D01*
D14*
X11500000Y14800000D02*
X11500000Y13200000D01*
X10500000Y14800000D02*
X10500000Y13200000D01*
D12*
X11000000Y14200000D02*
X10700000Y13800000D01*
X11300000Y13800000D02*
X11000000Y14200000D01*
X10700000Y13800000D02*
X11300000Y13800000D01*
D14*
X46500000Y24800000D02*
X46500000Y23200000D01*
X45500000Y24800000D02*
X45500000Y23200000D01*
D12*
X46000000Y24200000D02*
X45700000Y23800000D01*
X46300000Y23800000D02*
X46000000Y24200000D01*
X45700000Y23800000D02*
X46300000Y23800000D01*
D14*
X11500000Y24800000D02*
X11500000Y23200000D01*
X10500000Y24800000D02*
X10500000Y23200000D01*
D12*
X11000000Y24200000D02*
X10700000Y23800000D01*
X11300000Y23800000D02*
X11000000Y24200000D01*
X10700000Y23800000D02*
X11300000Y23800000D01*
D14*
X46500000Y34800000D02*
X46500000Y33200000D01*
X45500000Y34800000D02*
X45500000Y33200000D01*
D12*
X46000000Y34200000D02*
X45700000Y33800000D01*
X46300000Y33800000D02*
X46000000Y34200000D01*
X45700000Y33800000D02*
X46300000Y33800000D01*
D14*
X11500000Y34800000D02*
X11500000Y33200000D01*
X10500000Y34800000D02*
X10500000Y33200000D01*
D12*
X11000000Y34200000D02*
X10700000Y33800000D01*
X11300000Y33800000D02*
X11000000Y34200000D01*
X10700000Y33800000D02*
X11300000Y33800000D01*
D14*
X46500000Y44800000D02*
X46500000Y43200000D01*
X45500000Y44800000D02*
X45500000Y43200000D01*
D12*
X46000000Y44200000D02*
X45700000Y43800000D01*
X46300000Y43800000D02*
X46000000Y44200000D01*
X45700000Y43800000D02*
X46300000Y43800000D01*
D14*
X11500000Y44800000D02*
X11500000Y43200000D01*
X10500000Y44800000D02*
X10500000Y43200000D01*
D12*
X11000000Y44200000D02*
X10700000Y43800000D01*
X11300000Y43800000D02*
X11000000Y44200000D01*
X10700000Y43800000D02*
X11300000Y43800000D01*
D14*
X46500000Y54800000D02*
X46500000Y53200000D01*
X45500000Y54800000D02*
X45500000Y53200000D01*
D12*
X46000000Y54200000D02*
X45700000Y53800000D01*
X46300000Y53800000D02*
X46000000Y54200000D01*
X45700000Y53800000D02*
X46300000Y53800000D01*
D14*
X11500000Y54800000D02*
X11500000Y53200000D01*
X10500000Y54800000D02*
X10500000Y53200000D01*
D12*
X11000000Y54200000D02*
X10700000Y53800000D01*
X11300000Y53800000D02*
X11000000Y54200000D01*
X10700000Y53800000D02*
X11300000Y53800000D01*
D14*
X46500000Y64800000D02*
X46500000Y63200000D01*
X45500000Y64800000D02*
X45500000Y63200000D01*
D12*
X46000000Y64200000D02*
X45700000Y63800000D01*
X46300000Y63800000D02*
X46000000Y64200000D01*
X45700000Y63800000D02*
X46300000Y63800000D01*
D14*
X11500000Y64800000D02*
X11500000Y63200000D01*
X10500000Y64800000D02*
X10500000Y63200000D01*
D12*
X11000000Y64200000D02*
X10700000Y63800000D01*
X11300000Y63800000D02*
X11000000Y64200000D01*
X10700000Y63800000D02*
X11300000Y63800000D01*
D14*
X46500000Y74800000D02*
X46500000Y73200000D01*
X45500000Y74800000D02*
X45500000Y73200000D01*
D12*
X46000000Y74200000D02*
X45700000Y73800000D01*
X46300000Y73800000D02*
X46000000Y74200000D01*
X45700000Y73800000D02*
X46300000Y73800000D01*
D14*
X11500000Y74800000D02*
X11500000Y73200000D01*
X10500000Y74800000D02*
X10500000Y73200000D01*
D12*
X11000000Y74200000D02*
X10700000Y73800000D01*
X11300000Y73800000D02*
X11000000Y74200000D01*
X10700000Y73800000D02*
X11300000Y73800000D01*
D14*
X46500000Y84800000D02*
X46500000Y83200000D01*
X45500000Y84800000D02*
X45500000Y83200000D01*
D12*
X46000000Y84200000D02*
X45700000Y83800000D01*
X46300000Y83800000D02*
X46000000Y84200000D01*
X45700000Y83800000D02*
X46300000Y83800000D01*
D14*
X11500000Y84800000D02*
X11500000Y83200000D01*
X10500000Y84800000D02*
X10500000Y83200000D01*
D12*
X11000000Y84200000D02*
X10700000Y83800000D01*
X11300000Y83800000D02*
X11000000Y84200000D01*
X10700000Y83800000D02*
X11300000Y83800000D01*
D14*
X46500000Y94800000D02*
X46500000Y93200000D01*
X45500000Y94800000D02*
X45500000Y93200000D01*
D12*
X46000000Y94200000D02*
X45700000Y93800000D01*
X46300000Y93800000D02*
X46000000Y94200000D01*
X45700000Y93800000D02*
X46300000Y93800000D01*
D14*
%TO.C,D1*%
X66500000Y4800000D02*
X66500000Y3200000D01*
X65500000Y4800000D02*
X65500000Y3200000D01*
D12*
X66000000Y4200000D02*
X65700000Y3800000D01*
X66300000Y3800000D02*
X66000000Y4200000D01*
X65700000Y3800000D02*
X66300000Y3800000D01*
D14*
X31500000Y4800000D02*
X31500000Y3200000D01*
X30500000Y4800000D02*
X30500000Y3200000D01*
D12*
X31000000Y4200000D02*
X30700000Y3800000D01*
X31300000Y3800000D02*
X31000000Y4200000D01*
X30700000Y3800000D02*
X31300000Y3800000D01*
D14*
X66500000Y14800000D02*
X66500000Y13200000D01*
X65500000Y14800000D02*
X65500000Y13200000D01*
D12*
X66000000Y14200000D02*
X65700000Y13800000D01*
X66300000Y13800000D02*
X66000000Y14200000D01*
X65700000Y13800000D02*
X66300000Y13800000D01*
D14*
X31500000Y14800000D02*
X31500000Y13200000D01*
X30500000Y14800000D02*
X30500000Y13200000D01*
D12*
X31000000Y14200000D02*
X30700000Y13800000D01*
X31300000Y13800000D02*
X31000000Y14200000D01*
X30700000Y13800000D02*
X31300000Y13800000D01*
D14*
X66500000Y24800000D02*
X66500000Y23200000D01*
X65500000Y24800000D02*
X65500000Y23200000D01*
D12*
X66000000Y24200000D02*
X65700000Y23800000D01*
X66300000Y23800000D02*
X66000000Y24200000D01*
X65700000Y23800000D02*
X66300000Y23800000D01*
D14*
X31500000Y24800000D02*
X31500000Y23200000D01*
X30500000Y24800000D02*
X30500000Y23200000D01*
D12*
X31000000Y24200000D02*
X30700000Y23800000D01*
X31300000Y23800000D02*
X31000000Y24200000D01*
X30700000Y23800000D02*
X31300000Y23800000D01*
D14*
X66500000Y34800000D02*
X66500000Y33200000D01*
X65500000Y34800000D02*
X65500000Y33200000D01*
D12*
X66000000Y34200000D02*
X65700000Y33800000D01*
X66300000Y33800000D02*
X66000000Y34200000D01*
X65700000Y33800000D02*
X66300000Y33800000D01*
D14*
X31500000Y34800000D02*
X31500000Y33200000D01*
X30500000Y34800000D02*
X30500000Y33200000D01*
D12*
X31000000Y34200000D02*
X30700000Y33800000D01*
X31300000Y33800000D02*
X31000000Y34200000D01*
X30700000Y33800000D02*
X31300000Y33800000D01*
D14*
X66500000Y44800000D02*
X66500000Y43200000D01*
X65500000Y44800000D02*
X65500000Y43200000D01*
D12*
X66000000Y44200000D02*
X65700000Y43800000D01*
X66300000Y43800000D02*
X66000000Y44200000D01*
X65700000Y43800000D02*
X66300000Y43800000D01*
D14*
X31500000Y44800000D02*
X31500000Y43200000D01*
X30500000Y44800000D02*
X30500000Y43200000D01*
D12*
X31000000Y44200000D02*
X30700000Y43800000D01*
X31300000Y43800000D02*
X31000000Y44200000D01*
X30700000Y43800000D02*
X31300000Y43800000D01*
D14*
X66500000Y54800000D02*
X66500000Y53200000D01*
X65500000Y54800000D02*
X65500000Y53200000D01*
D12*
X66000000Y54200000D02*
X65700000Y53800000D01*
X66300000Y53800000D02*
X66000000Y54200000D01*
X65700000Y53800000D02*
X66300000Y53800000D01*
D14*
X31500000Y54800000D02*
X31500000Y53200000D01*
X30500000Y54800000D02*
X30500000Y53200000D01*
D12*
X31000000Y54200000D02*
X30700000Y53800000D01*
X31300000Y53800000D02*
X31000000Y54200000D01*
X30700000Y53800000D02*
X31300000Y53800000D01*
D14*
X66500000Y64800000D02*
X66500000Y63200000D01*
X65500000Y64800000D02*
X65500000Y63200000D01*
D12*
X66000000Y64200000D02*
X65700000Y63800000D01*
X66300000Y63800000D02*
X66000000Y64200000D01*
X65700000Y63800000D02*
X66300000Y63800000D01*
D14*
X31500000Y64800000D02*
X31500000Y63200000D01*
X30500000Y64800000D02*
X30500000Y63200000D01*
D12*
X31000000Y64200000D02*
X30700000Y63800000D01*
X31300000Y63800000D02*
X31000000Y64200000D01*
X30700000Y63800000D02*
X31300000Y63800000D01*
D14*
X66500000Y74800000D02*
X66500000Y73200000D01*
X65500000Y74800000D02*
X65500000Y73200000D01*
D12*
X66000000Y74200000D02*
X65700000Y73800000D01*
X66300000Y73800000D02*
X66000000Y74200000D01*
X65700000Y73800000D02*
X66300000Y73800000D01*
D14*
X31500000Y74800000D02*
X31500000Y73200000D01*
X30500000Y74800000D02*
X30500000Y73200000D01*
D12*
X31000000Y74200000D02*
X30700000Y73800000D01*
X31300000Y73800000D02*
X31000000Y74200000D01*
X30700000Y73800000D02*
X31300000Y73800000D01*
D14*
X66500000Y84800000D02*
X66500000Y83200000D01*
X65500000Y84800000D02*
X65500000Y83200000D01*
D12*
X66000000Y84200000D02*
X65700000Y83800000D01*
X66300000Y83800000D02*
X66000000Y84200000D01*
X65700000Y83800000D02*
X66300000Y83800000D01*
D14*
X31500000Y84800000D02*
X31500000Y83200000D01*
X30500000Y84800000D02*
X30500000Y83200000D01*
D12*
X31000000Y84200000D02*
X30700000Y83800000D01*
X31300000Y83800000D02*
X31000000Y84200000D01*
X30700000Y83800000D02*
X31300000Y83800000D01*
D14*
X66500000Y94800000D02*
X66500000Y93200000D01*
X65500000Y94800000D02*
X65500000Y93200000D01*
D12*
X66000000Y94200000D02*
X65700000Y93800000D01*
X66300000Y93800000D02*
X66000000Y94200000D01*
X65700000Y93800000D02*
X66300000Y93800000D01*
%TO.C,D2*%
X55700000Y3800000D02*
X56300000Y3800000D01*
X56300000Y3800000D02*
X56000000Y4200000D01*
X56000000Y4200000D02*
X55700000Y3800000D01*
D14*
X55500000Y4800000D02*
X55500000Y3200000D01*
X56500000Y4800000D02*
X56500000Y3200000D01*
D12*
X20700000Y3800000D02*
X21300000Y3800000D01*
X21300000Y3800000D02*
X21000000Y4200000D01*
X21000000Y4200000D02*
X20700000Y3800000D01*
D14*
X20500000Y4800000D02*
X20500000Y3200000D01*
X21500000Y4800000D02*
X21500000Y3200000D01*
D12*
X55700000Y13800000D02*
X56300000Y13800000D01*
X56300000Y13800000D02*
X56000000Y14200000D01*
X56000000Y14200000D02*
X55700000Y13800000D01*
D14*
X55500000Y14800000D02*
X55500000Y13200000D01*
X56500000Y14800000D02*
X56500000Y13200000D01*
D12*
X20700000Y13800000D02*
X21300000Y13800000D01*
X21300000Y13800000D02*
X21000000Y14200000D01*
X21000000Y14200000D02*
X20700000Y13800000D01*
D14*
X20500000Y14800000D02*
X20500000Y13200000D01*
X21500000Y14800000D02*
X21500000Y13200000D01*
D12*
X55700000Y23800000D02*
X56300000Y23800000D01*
X56300000Y23800000D02*
X56000000Y24200000D01*
X56000000Y24200000D02*
X55700000Y23800000D01*
D14*
X55500000Y24800000D02*
X55500000Y23200000D01*
X56500000Y24800000D02*
X56500000Y23200000D01*
D12*
X20700000Y23800000D02*
X21300000Y23800000D01*
X21300000Y23800000D02*
X21000000Y24200000D01*
X21000000Y24200000D02*
X20700000Y23800000D01*
D14*
X20500000Y24800000D02*
X20500000Y23200000D01*
X21500000Y24800000D02*
X21500000Y23200000D01*
D12*
X55700000Y33800000D02*
X56300000Y33800000D01*
X56300000Y33800000D02*
X56000000Y34200000D01*
X56000000Y34200000D02*
X55700000Y33800000D01*
D14*
X55500000Y34800000D02*
X55500000Y33200000D01*
X56500000Y34800000D02*
X56500000Y33200000D01*
D12*
X20700000Y33800000D02*
X21300000Y33800000D01*
X21300000Y33800000D02*
X21000000Y34200000D01*
X21000000Y34200000D02*
X20700000Y33800000D01*
D14*
X20500000Y34800000D02*
X20500000Y33200000D01*
X21500000Y34800000D02*
X21500000Y33200000D01*
D12*
X55700000Y43800000D02*
X56300000Y43800000D01*
X56300000Y43800000D02*
X56000000Y44200000D01*
X56000000Y44200000D02*
X55700000Y43800000D01*
D14*
X55500000Y44800000D02*
X55500000Y43200000D01*
X56500000Y44800000D02*
X56500000Y43200000D01*
D12*
X20700000Y43800000D02*
X21300000Y43800000D01*
X21300000Y43800000D02*
X21000000Y44200000D01*
X21000000Y44200000D02*
X20700000Y43800000D01*
D14*
X20500000Y44800000D02*
X20500000Y43200000D01*
X21500000Y44800000D02*
X21500000Y43200000D01*
D12*
X55700000Y53800000D02*
X56300000Y53800000D01*
X56300000Y53800000D02*
X56000000Y54200000D01*
X56000000Y54200000D02*
X55700000Y53800000D01*
D14*
X55500000Y54800000D02*
X55500000Y53200000D01*
X56500000Y54800000D02*
X56500000Y53200000D01*
D12*
X20700000Y53800000D02*
X21300000Y53800000D01*
X21300000Y53800000D02*
X21000000Y54200000D01*
X21000000Y54200000D02*
X20700000Y53800000D01*
D14*
X20500000Y54800000D02*
X20500000Y53200000D01*
X21500000Y54800000D02*
X21500000Y53200000D01*
D12*
X55700000Y63800000D02*
X56300000Y63800000D01*
X56300000Y63800000D02*
X56000000Y64200000D01*
X56000000Y64200000D02*
X55700000Y63800000D01*
D14*
X55500000Y64800000D02*
X55500000Y63200000D01*
X56500000Y64800000D02*
X56500000Y63200000D01*
D12*
X20700000Y63800000D02*
X21300000Y63800000D01*
X21300000Y63800000D02*
X21000000Y64200000D01*
X21000000Y64200000D02*
X20700000Y63800000D01*
D14*
X20500000Y64800000D02*
X20500000Y63200000D01*
X21500000Y64800000D02*
X21500000Y63200000D01*
D12*
X55700000Y73800000D02*
X56300000Y73800000D01*
X56300000Y73800000D02*
X56000000Y74200000D01*
X56000000Y74200000D02*
X55700000Y73800000D01*
D14*
X55500000Y74800000D02*
X55500000Y73200000D01*
X56500000Y74800000D02*
X56500000Y73200000D01*
D12*
X20700000Y73800000D02*
X21300000Y73800000D01*
X21300000Y73800000D02*
X21000000Y74200000D01*
X21000000Y74200000D02*
X20700000Y73800000D01*
D14*
X20500000Y74800000D02*
X20500000Y73200000D01*
X21500000Y74800000D02*
X21500000Y73200000D01*
D12*
X55700000Y83800000D02*
X56300000Y83800000D01*
X56300000Y83800000D02*
X56000000Y84200000D01*
X56000000Y84200000D02*
X55700000Y83800000D01*
D14*
X55500000Y84800000D02*
X55500000Y83200000D01*
X56500000Y84800000D02*
X56500000Y83200000D01*
D12*
X20700000Y83800000D02*
X21300000Y83800000D01*
X21300000Y83800000D02*
X21000000Y84200000D01*
X21000000Y84200000D02*
X20700000Y83800000D01*
D14*
X20500000Y84800000D02*
X20500000Y83200000D01*
X21500000Y84800000D02*
X21500000Y83200000D01*
D12*
X55700000Y93800000D02*
X56300000Y93800000D01*
X56300000Y93800000D02*
X56000000Y94200000D01*
X56000000Y94200000D02*
X55700000Y93800000D01*
D14*
X55500000Y94800000D02*
X55500000Y93200000D01*
X56500000Y94800000D02*
X56500000Y93200000D01*
D13*
%TO.C,R3*%
X46920000Y5280000D02*
X46920000Y4450000D01*
X48080000Y5280000D02*
X46920000Y5280000D01*
X48080000Y4450000D02*
X48080000Y5280000D01*
X46920000Y2720000D02*
X46920000Y3550000D01*
X48080000Y2720000D02*
X46920000Y2720000D01*
X48080000Y3550000D02*
X48080000Y2720000D01*
X11920000Y5280000D02*
X11920000Y4450000D01*
X13080000Y5280000D02*
X11920000Y5280000D01*
X13080000Y4450000D02*
X13080000Y5280000D01*
X11920000Y2720000D02*
X11920000Y3550000D01*
X13080000Y2720000D02*
X11920000Y2720000D01*
X13080000Y3550000D02*
X13080000Y2720000D01*
X46920000Y15280000D02*
X46920000Y14450000D01*
X48080000Y15280000D02*
X46920000Y15280000D01*
X48080000Y14450000D02*
X48080000Y15280000D01*
X46920000Y12720000D02*
X46920000Y13550000D01*
X48080000Y12720000D02*
X46920000Y12720000D01*
X48080000Y13550000D02*
X48080000Y12720000D01*
X11920000Y15280000D02*
X11920000Y14450000D01*
X13080000Y15280000D02*
X11920000Y15280000D01*
X13080000Y14450000D02*
X13080000Y15280000D01*
X11920000Y12720000D02*
X11920000Y13550000D01*
X13080000Y12720000D02*
X11920000Y12720000D01*
X13080000Y13550000D02*
X13080000Y12720000D01*
X46920000Y25280000D02*
X46920000Y24450000D01*
X48080000Y25280000D02*
X46920000Y25280000D01*
X48080000Y24450000D02*
X48080000Y25280000D01*
X46920000Y22720000D02*
X46920000Y23550000D01*
X48080000Y22720000D02*
X46920000Y22720000D01*
X48080000Y23550000D02*
X48080000Y22720000D01*
X11920000Y25280000D02*
X11920000Y24450000D01*
X13080000Y25280000D02*
X11920000Y25280000D01*
X13080000Y24450000D02*
X13080000Y25280000D01*
X11920000Y22720000D02*
X11920000Y23550000D01*
X13080000Y22720000D02*
X11920000Y22720000D01*
X13080000Y23550000D02*
X13080000Y22720000D01*
X46920000Y35280000D02*
X46920000Y34450000D01*
X48080000Y35280000D02*
X46920000Y35280000D01*
X48080000Y34450000D02*
X48080000Y35280000D01*
X46920000Y32720000D02*
X46920000Y33550000D01*
X48080000Y32720000D02*
X46920000Y32720000D01*
X48080000Y33550000D02*
X48080000Y32720000D01*
X11920000Y35280000D02*
X11920000Y34450000D01*
X13080000Y35280000D02*
X11920000Y35280000D01*
X13080000Y34450000D02*
X13080000Y35280000D01*
X11920000Y32720000D02*
X11920000Y33550000D01*
X13080000Y32720000D02*
X11920000Y32720000D01*
X13080000Y33550000D02*
X13080000Y32720000D01*
X46920000Y45280000D02*
X46920000Y44450000D01*
X48080000Y45280000D02*
X46920000Y45280000D01*
X48080000Y44450000D02*
X48080000Y45280000D01*
X46920000Y42720000D02*
X46920000Y43550000D01*
X48080000Y42720000D02*
X46920000Y42720000D01*
X48080000Y43550000D02*
X48080000Y42720000D01*
X11920000Y45280000D02*
X11920000Y44450000D01*
X13080000Y45280000D02*
X11920000Y45280000D01*
X13080000Y44450000D02*
X13080000Y45280000D01*
X11920000Y42720000D02*
X11920000Y43550000D01*
X13080000Y42720000D02*
X11920000Y42720000D01*
X13080000Y43550000D02*
X13080000Y42720000D01*
X46920000Y55280000D02*
X46920000Y54450000D01*
X48080000Y55280000D02*
X46920000Y55280000D01*
X48080000Y54450000D02*
X48080000Y55280000D01*
X46920000Y52720000D02*
X46920000Y53550000D01*
X48080000Y52720000D02*
X46920000Y52720000D01*
X48080000Y53550000D02*
X48080000Y52720000D01*
X11920000Y55280000D02*
X11920000Y54450000D01*
X13080000Y55280000D02*
X11920000Y55280000D01*
X13080000Y54450000D02*
X13080000Y55280000D01*
X11920000Y52720000D02*
X11920000Y53550000D01*
X13080000Y52720000D02*
X11920000Y52720000D01*
X13080000Y53550000D02*
X13080000Y52720000D01*
X46920000Y65280000D02*
X46920000Y64450000D01*
X48080000Y65280000D02*
X46920000Y65280000D01*
X48080000Y64450000D02*
X48080000Y65280000D01*
X46920000Y62720000D02*
X46920000Y63550000D01*
X48080000Y62720000D02*
X46920000Y62720000D01*
X48080000Y63550000D02*
X48080000Y62720000D01*
X11920000Y65280000D02*
X11920000Y64450000D01*
X13080000Y65280000D02*
X11920000Y65280000D01*
X13080000Y64450000D02*
X13080000Y65280000D01*
X11920000Y62720000D02*
X11920000Y63550000D01*
X13080000Y62720000D02*
X11920000Y62720000D01*
X13080000Y63550000D02*
X13080000Y62720000D01*
X46920000Y75280000D02*
X46920000Y74450000D01*
X48080000Y75280000D02*
X46920000Y75280000D01*
X48080000Y74450000D02*
X48080000Y75280000D01*
X46920000Y72720000D02*
X46920000Y73550000D01*
X48080000Y72720000D02*
X46920000Y72720000D01*
X48080000Y73550000D02*
X48080000Y72720000D01*
X11920000Y75280000D02*
X11920000Y74450000D01*
X13080000Y75280000D02*
X11920000Y75280000D01*
X13080000Y74450000D02*
X13080000Y75280000D01*
X11920000Y72720000D02*
X11920000Y73550000D01*
X13080000Y72720000D02*
X11920000Y72720000D01*
X13080000Y73550000D02*
X13080000Y72720000D01*
X46920000Y85280000D02*
X46920000Y84450000D01*
X48080000Y85280000D02*
X46920000Y85280000D01*
X48080000Y84450000D02*
X48080000Y85280000D01*
X46920000Y82720000D02*
X46920000Y83550000D01*
X48080000Y82720000D02*
X46920000Y82720000D01*
X48080000Y83550000D02*
X48080000Y82720000D01*
X11920000Y85280000D02*
X11920000Y84450000D01*
X13080000Y85280000D02*
X11920000Y85280000D01*
X13080000Y84450000D02*
X13080000Y85280000D01*
X11920000Y82720000D02*
X11920000Y83550000D01*
X13080000Y82720000D02*
X11920000Y82720000D01*
X13080000Y83550000D02*
X13080000Y82720000D01*
X46920000Y95280000D02*
X46920000Y94450000D01*
X48080000Y95280000D02*
X46920000Y95280000D01*
X48080000Y94450000D02*
X48080000Y95280000D01*
X46920000Y92720000D02*
X46920000Y93550000D01*
X48080000Y92720000D02*
X46920000Y92720000D01*
X48080000Y93550000D02*
X48080000Y92720000D01*
D12*
%TO.C,D1*%
X30700000Y93800000D02*
X31300000Y93800000D01*
X31300000Y93800000D02*
X31000000Y94200000D01*
X31000000Y94200000D02*
X30700000Y93800000D01*
D14*
X30500000Y94800000D02*
X30500000Y93200000D01*
X31500000Y94800000D02*
X31500000Y93200000D01*
%TO.C,D2*%
X21500000Y94800000D02*
X21500000Y93200000D01*
X20500000Y94800000D02*
X20500000Y93200000D01*
D12*
X21000000Y94200000D02*
X20700000Y93800000D01*
X21300000Y93800000D02*
X21000000Y94200000D01*
X20700000Y93800000D02*
X21300000Y93800000D01*
%TO.C,D3*%
X10700000Y93800000D02*
X11300000Y93800000D01*
X11300000Y93800000D02*
X11000000Y94200000D01*
X11000000Y94200000D02*
X10700000Y93800000D01*
D14*
X10500000Y94800000D02*
X10500000Y93200000D01*
X11500000Y94800000D02*
X11500000Y93200000D01*
D13*
%TO.C,R1*%
X33080000Y93550000D02*
X33080000Y92720000D01*
X33080000Y92720000D02*
X31920000Y92720000D01*
X31920000Y92720000D02*
X31920000Y93550000D01*
X33080000Y94450000D02*
X33080000Y95280000D01*
X33080000Y95280000D02*
X31920000Y95280000D01*
X31920000Y95280000D02*
X31920000Y94450000D01*
%TO.C,R2*%
X21920000Y95280000D02*
X21920000Y94450000D01*
X23080000Y95280000D02*
X21920000Y95280000D01*
X23080000Y94450000D02*
X23080000Y95280000D01*
X21920000Y92720000D02*
X21920000Y93550000D01*
X23080000Y92720000D02*
X21920000Y92720000D01*
X23080000Y93550000D02*
X23080000Y92720000D01*
%TO.C,R3*%
X13080000Y93550000D02*
X13080000Y92720000D01*
X13080000Y92720000D02*
X11920000Y92720000D01*
X11920000Y92720000D02*
X11920000Y93550000D01*
X13080000Y94450000D02*
X13080000Y95280000D01*
X13080000Y95280000D02*
X11920000Y95280000D01*
X11920000Y95280000D02*
X11920000Y94450000D01*
%TO.C,R1*%
D15*
X69261904Y4133334D02*
X68880952Y4400000D01*
X69261904Y4590477D02*
X68461904Y4590477D01*
X68461904Y4285715D01*
X68500000Y4209524D01*
X68538095Y4171429D01*
X68614285Y4133334D01*
X68728571Y4133334D01*
X68804761Y4171429D01*
X68842857Y4209524D01*
X68880952Y4285715D01*
X68880952Y4590477D01*
X69261904Y3371429D02*
X69261904Y3828572D01*
X69261904Y3600000D02*
X68461904Y3600000D01*
X68576190Y3676191D01*
X68652380Y3752381D01*
X68690476Y3828572D01*
X34261904Y4133334D02*
X33880952Y4400000D01*
X34261904Y4590477D02*
X33461904Y4590477D01*
X33461904Y4285715D01*
X33500000Y4209524D01*
X33538095Y4171429D01*
X33614285Y4133334D01*
X33728571Y4133334D01*
X33804761Y4171429D01*
X33842857Y4209524D01*
X33880952Y4285715D01*
X33880952Y4590477D01*
X34261904Y3371429D02*
X34261904Y3828572D01*
X34261904Y3600000D02*
X33461904Y3600000D01*
X33576190Y3676191D01*
X33652380Y3752381D01*
X33690476Y3828572D01*
X69261904Y14133334D02*
X68880952Y14400000D01*
X69261904Y14590477D02*
X68461904Y14590477D01*
X68461904Y14285715D01*
X68500000Y14209524D01*
X68538095Y14171429D01*
X68614285Y14133334D01*
X68728571Y14133334D01*
X68804761Y14171429D01*
X68842857Y14209524D01*
X68880952Y14285715D01*
X68880952Y14590477D01*
X69261904Y13371429D02*
X69261904Y13828572D01*
X69261904Y13600000D02*
X68461904Y13600000D01*
X68576190Y13676191D01*
X68652380Y13752381D01*
X68690476Y13828572D01*
X34261904Y14133334D02*
X33880952Y14400000D01*
X34261904Y14590477D02*
X33461904Y14590477D01*
X33461904Y14285715D01*
X33500000Y14209524D01*
X33538095Y14171429D01*
X33614285Y14133334D01*
X33728571Y14133334D01*
X33804761Y14171429D01*
X33842857Y14209524D01*
X33880952Y14285715D01*
X33880952Y14590477D01*
X34261904Y13371429D02*
X34261904Y13828572D01*
X34261904Y13600000D02*
X33461904Y13600000D01*
X33576190Y13676191D01*
X33652380Y13752381D01*
X33690476Y13828572D01*
X69261904Y24133334D02*
X68880952Y24400000D01*
X69261904Y24590477D02*
X68461904Y24590477D01*
X68461904Y24285715D01*
X68500000Y24209524D01*
X68538095Y24171429D01*
X68614285Y24133334D01*
X68728571Y24133334D01*
X68804761Y24171429D01*
X68842857Y24209524D01*
X68880952Y24285715D01*
X68880952Y24590477D01*
X69261904Y23371429D02*
X69261904Y23828572D01*
X69261904Y23600000D02*
X68461904Y23600000D01*
X68576190Y23676191D01*
X68652380Y23752381D01*
X68690476Y23828572D01*
X34261904Y24133334D02*
X33880952Y24400000D01*
X34261904Y24590477D02*
X33461904Y24590477D01*
X33461904Y24285715D01*
X33500000Y24209524D01*
X33538095Y24171429D01*
X33614285Y24133334D01*
X33728571Y24133334D01*
X33804761Y24171429D01*
X33842857Y24209524D01*
X33880952Y24285715D01*
X33880952Y24590477D01*
X34261904Y23371429D02*
X34261904Y23828572D01*
X34261904Y23600000D02*
X33461904Y23600000D01*
X33576190Y23676191D01*
X33652380Y23752381D01*
X33690476Y23828572D01*
X69261904Y34133334D02*
X68880952Y34400000D01*
X69261904Y34590477D02*
X68461904Y34590477D01*
X68461904Y34285715D01*
X68500000Y34209524D01*
X68538095Y34171429D01*
X68614285Y34133334D01*
X68728571Y34133334D01*
X68804761Y34171429D01*
X68842857Y34209524D01*
X68880952Y34285715D01*
X68880952Y34590477D01*
X69261904Y33371429D02*
X69261904Y33828572D01*
X69261904Y33600000D02*
X68461904Y33600000D01*
X68576190Y33676191D01*
X68652380Y33752381D01*
X68690476Y33828572D01*
X34261904Y34133334D02*
X33880952Y34400000D01*
X34261904Y34590477D02*
X33461904Y34590477D01*
X33461904Y34285715D01*
X33500000Y34209524D01*
X33538095Y34171429D01*
X33614285Y34133334D01*
X33728571Y34133334D01*
X33804761Y34171429D01*
X33842857Y34209524D01*
X33880952Y34285715D01*
X33880952Y34590477D01*
X34261904Y33371429D02*
X34261904Y33828572D01*
X34261904Y33600000D02*
X33461904Y33600000D01*
X33576190Y33676191D01*
X33652380Y33752381D01*
X33690476Y33828572D01*
X69261904Y44133334D02*
X68880952Y44400000D01*
X69261904Y44590477D02*
X68461904Y44590477D01*
X68461904Y44285715D01*
X68500000Y44209524D01*
X68538095Y44171429D01*
X68614285Y44133334D01*
X68728571Y44133334D01*
X68804761Y44171429D01*
X68842857Y44209524D01*
X68880952Y44285715D01*
X68880952Y44590477D01*
X69261904Y43371429D02*
X69261904Y43828572D01*
X69261904Y43600000D02*
X68461904Y43600000D01*
X68576190Y43676191D01*
X68652380Y43752381D01*
X68690476Y43828572D01*
X34261904Y44133334D02*
X33880952Y44400000D01*
X34261904Y44590477D02*
X33461904Y44590477D01*
X33461904Y44285715D01*
X33500000Y44209524D01*
X33538095Y44171429D01*
X33614285Y44133334D01*
X33728571Y44133334D01*
X33804761Y44171429D01*
X33842857Y44209524D01*
X33880952Y44285715D01*
X33880952Y44590477D01*
X34261904Y43371429D02*
X34261904Y43828572D01*
X34261904Y43600000D02*
X33461904Y43600000D01*
X33576190Y43676191D01*
X33652380Y43752381D01*
X33690476Y43828572D01*
X69261904Y54133334D02*
X68880952Y54400000D01*
X69261904Y54590477D02*
X68461904Y54590477D01*
X68461904Y54285715D01*
X68500000Y54209524D01*
X68538095Y54171429D01*
X68614285Y54133334D01*
X68728571Y54133334D01*
X68804761Y54171429D01*
X68842857Y54209524D01*
X68880952Y54285715D01*
X68880952Y54590477D01*
X69261904Y53371429D02*
X69261904Y53828572D01*
X69261904Y53600000D02*
X68461904Y53600000D01*
X68576190Y53676191D01*
X68652380Y53752381D01*
X68690476Y53828572D01*
X34261904Y54133334D02*
X33880952Y54400000D01*
X34261904Y54590477D02*
X33461904Y54590477D01*
X33461904Y54285715D01*
X33500000Y54209524D01*
X33538095Y54171429D01*
X33614285Y54133334D01*
X33728571Y54133334D01*
X33804761Y54171429D01*
X33842857Y54209524D01*
X33880952Y54285715D01*
X33880952Y54590477D01*
X34261904Y53371429D02*
X34261904Y53828572D01*
X34261904Y53600000D02*
X33461904Y53600000D01*
X33576190Y53676191D01*
X33652380Y53752381D01*
X33690476Y53828572D01*
X69261904Y64133334D02*
X68880952Y64400000D01*
X69261904Y64590477D02*
X68461904Y64590477D01*
X68461904Y64285715D01*
X68500000Y64209524D01*
X68538095Y64171429D01*
X68614285Y64133334D01*
X68728571Y64133334D01*
X68804761Y64171429D01*
X68842857Y64209524D01*
X68880952Y64285715D01*
X68880952Y64590477D01*
X69261904Y63371429D02*
X69261904Y63828572D01*
X69261904Y63600000D02*
X68461904Y63600000D01*
X68576190Y63676191D01*
X68652380Y63752381D01*
X68690476Y63828572D01*
X34261904Y64133334D02*
X33880952Y64400000D01*
X34261904Y64590477D02*
X33461904Y64590477D01*
X33461904Y64285715D01*
X33500000Y64209524D01*
X33538095Y64171429D01*
X33614285Y64133334D01*
X33728571Y64133334D01*
X33804761Y64171429D01*
X33842857Y64209524D01*
X33880952Y64285715D01*
X33880952Y64590477D01*
X34261904Y63371429D02*
X34261904Y63828572D01*
X34261904Y63600000D02*
X33461904Y63600000D01*
X33576190Y63676191D01*
X33652380Y63752381D01*
X33690476Y63828572D01*
X69261904Y74133334D02*
X68880952Y74400000D01*
X69261904Y74590477D02*
X68461904Y74590477D01*
X68461904Y74285715D01*
X68500000Y74209524D01*
X68538095Y74171429D01*
X68614285Y74133334D01*
X68728571Y74133334D01*
X68804761Y74171429D01*
X68842857Y74209524D01*
X68880952Y74285715D01*
X68880952Y74590477D01*
X69261904Y73371429D02*
X69261904Y73828572D01*
X69261904Y73600000D02*
X68461904Y73600000D01*
X68576190Y73676191D01*
X68652380Y73752381D01*
X68690476Y73828572D01*
X34261904Y74133334D02*
X33880952Y74400000D01*
X34261904Y74590477D02*
X33461904Y74590477D01*
X33461904Y74285715D01*
X33500000Y74209524D01*
X33538095Y74171429D01*
X33614285Y74133334D01*
X33728571Y74133334D01*
X33804761Y74171429D01*
X33842857Y74209524D01*
X33880952Y74285715D01*
X33880952Y74590477D01*
X34261904Y73371429D02*
X34261904Y73828572D01*
X34261904Y73600000D02*
X33461904Y73600000D01*
X33576190Y73676191D01*
X33652380Y73752381D01*
X33690476Y73828572D01*
X69261904Y84133334D02*
X68880952Y84400000D01*
X69261904Y84590477D02*
X68461904Y84590477D01*
X68461904Y84285715D01*
X68500000Y84209524D01*
X68538095Y84171429D01*
X68614285Y84133334D01*
X68728571Y84133334D01*
X68804761Y84171429D01*
X68842857Y84209524D01*
X68880952Y84285715D01*
X68880952Y84590477D01*
X69261904Y83371429D02*
X69261904Y83828572D01*
X69261904Y83600000D02*
X68461904Y83600000D01*
X68576190Y83676191D01*
X68652380Y83752381D01*
X68690476Y83828572D01*
X34261904Y84133334D02*
X33880952Y84400000D01*
X34261904Y84590477D02*
X33461904Y84590477D01*
X33461904Y84285715D01*
X33500000Y84209524D01*
X33538095Y84171429D01*
X33614285Y84133334D01*
X33728571Y84133334D01*
X33804761Y84171429D01*
X33842857Y84209524D01*
X33880952Y84285715D01*
X33880952Y84590477D01*
X34261904Y83371429D02*
X34261904Y83828572D01*
X34261904Y83600000D02*
X33461904Y83600000D01*
X33576190Y83676191D01*
X33652380Y83752381D01*
X33690476Y83828572D01*
X69261904Y94133334D02*
X68880952Y94400000D01*
X69261904Y94590477D02*
X68461904Y94590477D01*
X68461904Y94285715D01*
X68500000Y94209524D01*
X68538095Y94171429D01*
X68614285Y94133334D01*
X68728571Y94133334D01*
X68804761Y94171429D01*
X68842857Y94209524D01*
X68880952Y94285715D01*
X68880952Y94590477D01*
X69261904Y93371429D02*
X69261904Y93828572D01*
X69261904Y93600000D02*
X68461904Y93600000D01*
X68576190Y93676191D01*
X68652380Y93752381D01*
X68690476Y93828572D01*
%TO.C,R2*%
X59261904Y4133334D02*
X58880952Y4400000D01*
X59261904Y4590477D02*
X58461904Y4590477D01*
X58461904Y4285715D01*
X58500000Y4209524D01*
X58538095Y4171429D01*
X58614285Y4133334D01*
X58728571Y4133334D01*
X58804761Y4171429D01*
X58842857Y4209524D01*
X58880952Y4285715D01*
X58880952Y4590477D01*
X58538095Y3828572D02*
X58500000Y3790477D01*
X58461904Y3714286D01*
X58461904Y3523810D01*
X58500000Y3447620D01*
X58538095Y3409524D01*
X58614285Y3371429D01*
X58690476Y3371429D01*
X58804761Y3409524D01*
X59261904Y3866667D01*
X59261904Y3371429D01*
X24261904Y4133334D02*
X23880952Y4400000D01*
X24261904Y4590477D02*
X23461904Y4590477D01*
X23461904Y4285715D01*
X23500000Y4209524D01*
X23538095Y4171429D01*
X23614285Y4133334D01*
X23728571Y4133334D01*
X23804761Y4171429D01*
X23842857Y4209524D01*
X23880952Y4285715D01*
X23880952Y4590477D01*
X23538095Y3828572D02*
X23500000Y3790477D01*
X23461904Y3714286D01*
X23461904Y3523810D01*
X23500000Y3447620D01*
X23538095Y3409524D01*
X23614285Y3371429D01*
X23690476Y3371429D01*
X23804761Y3409524D01*
X24261904Y3866667D01*
X24261904Y3371429D01*
X59261904Y14133334D02*
X58880952Y14400000D01*
X59261904Y14590477D02*
X58461904Y14590477D01*
X58461904Y14285715D01*
X58500000Y14209524D01*
X58538095Y14171429D01*
X58614285Y14133334D01*
X58728571Y14133334D01*
X58804761Y14171429D01*
X58842857Y14209524D01*
X58880952Y14285715D01*
X58880952Y14590477D01*
X58538095Y13828572D02*
X58500000Y13790477D01*
X58461904Y13714286D01*
X58461904Y13523810D01*
X58500000Y13447620D01*
X58538095Y13409524D01*
X58614285Y13371429D01*
X58690476Y13371429D01*
X58804761Y13409524D01*
X59261904Y13866667D01*
X59261904Y13371429D01*
X24261904Y14133334D02*
X23880952Y14400000D01*
X24261904Y14590477D02*
X23461904Y14590477D01*
X23461904Y14285715D01*
X23500000Y14209524D01*
X23538095Y14171429D01*
X23614285Y14133334D01*
X23728571Y14133334D01*
X23804761Y14171429D01*
X23842857Y14209524D01*
X23880952Y14285715D01*
X23880952Y14590477D01*
X23538095Y13828572D02*
X23500000Y13790477D01*
X23461904Y13714286D01*
X23461904Y13523810D01*
X23500000Y13447620D01*
X23538095Y13409524D01*
X23614285Y13371429D01*
X23690476Y13371429D01*
X23804761Y13409524D01*
X24261904Y13866667D01*
X24261904Y13371429D01*
X59261904Y24133334D02*
X58880952Y24400000D01*
X59261904Y24590477D02*
X58461904Y24590477D01*
X58461904Y24285715D01*
X58500000Y24209524D01*
X58538095Y24171429D01*
X58614285Y24133334D01*
X58728571Y24133334D01*
X58804761Y24171429D01*
X58842857Y24209524D01*
X58880952Y24285715D01*
X58880952Y24590477D01*
X58538095Y23828572D02*
X58500000Y23790477D01*
X58461904Y23714286D01*
X58461904Y23523810D01*
X58500000Y23447620D01*
X58538095Y23409524D01*
X58614285Y23371429D01*
X58690476Y23371429D01*
X58804761Y23409524D01*
X59261904Y23866667D01*
X59261904Y23371429D01*
X24261904Y24133334D02*
X23880952Y24400000D01*
X24261904Y24590477D02*
X23461904Y24590477D01*
X23461904Y24285715D01*
X23500000Y24209524D01*
X23538095Y24171429D01*
X23614285Y24133334D01*
X23728571Y24133334D01*
X23804761Y24171429D01*
X23842857Y24209524D01*
X23880952Y24285715D01*
X23880952Y24590477D01*
X23538095Y23828572D02*
X23500000Y23790477D01*
X23461904Y23714286D01*
X23461904Y23523810D01*
X23500000Y23447620D01*
X23538095Y23409524D01*
X23614285Y23371429D01*
X23690476Y23371429D01*
X23804761Y23409524D01*
X24261904Y23866667D01*
X24261904Y23371429D01*
X59261904Y34133334D02*
X58880952Y34400000D01*
X59261904Y34590477D02*
X58461904Y34590477D01*
X58461904Y34285715D01*
X58500000Y34209524D01*
X58538095Y34171429D01*
X58614285Y34133334D01*
X58728571Y34133334D01*
X58804761Y34171429D01*
X58842857Y34209524D01*
X58880952Y34285715D01*
X58880952Y34590477D01*
X58538095Y33828572D02*
X58500000Y33790477D01*
X58461904Y33714286D01*
X58461904Y33523810D01*
X58500000Y33447620D01*
X58538095Y33409524D01*
X58614285Y33371429D01*
X58690476Y33371429D01*
X58804761Y33409524D01*
X59261904Y33866667D01*
X59261904Y33371429D01*
X24261904Y34133334D02*
X23880952Y34400000D01*
X24261904Y34590477D02*
X23461904Y34590477D01*
X23461904Y34285715D01*
X23500000Y34209524D01*
X23538095Y34171429D01*
X23614285Y34133334D01*
X23728571Y34133334D01*
X23804761Y34171429D01*
X23842857Y34209524D01*
X23880952Y34285715D01*
X23880952Y34590477D01*
X23538095Y33828572D02*
X23500000Y33790477D01*
X23461904Y33714286D01*
X23461904Y33523810D01*
X23500000Y33447620D01*
X23538095Y33409524D01*
X23614285Y33371429D01*
X23690476Y33371429D01*
X23804761Y33409524D01*
X24261904Y33866667D01*
X24261904Y33371429D01*
X59261904Y44133334D02*
X58880952Y44400000D01*
X59261904Y44590477D02*
X58461904Y44590477D01*
X58461904Y44285715D01*
X58500000Y44209524D01*
X58538095Y44171429D01*
X58614285Y44133334D01*
X58728571Y44133334D01*
X58804761Y44171429D01*
X58842857Y44209524D01*
X58880952Y44285715D01*
X58880952Y44590477D01*
X58538095Y43828572D02*
X58500000Y43790477D01*
X58461904Y43714286D01*
X58461904Y43523810D01*
X58500000Y43447620D01*
X58538095Y43409524D01*
X58614285Y43371429D01*
X58690476Y43371429D01*
X58804761Y43409524D01*
X59261904Y43866667D01*
X59261904Y43371429D01*
X24261904Y44133334D02*
X23880952Y44400000D01*
X24261904Y44590477D02*
X23461904Y44590477D01*
X23461904Y44285715D01*
X23500000Y44209524D01*
X23538095Y44171429D01*
X23614285Y44133334D01*
X23728571Y44133334D01*
X23804761Y44171429D01*
X23842857Y44209524D01*
X23880952Y44285715D01*
X23880952Y44590477D01*
X23538095Y43828572D02*
X23500000Y43790477D01*
X23461904Y43714286D01*
X23461904Y43523810D01*
X23500000Y43447620D01*
X23538095Y43409524D01*
X23614285Y43371429D01*
X23690476Y43371429D01*
X23804761Y43409524D01*
X24261904Y43866667D01*
X24261904Y43371429D01*
X59261904Y54133334D02*
X58880952Y54400000D01*
X59261904Y54590477D02*
X58461904Y54590477D01*
X58461904Y54285715D01*
X58500000Y54209524D01*
X58538095Y54171429D01*
X58614285Y54133334D01*
X58728571Y54133334D01*
X58804761Y54171429D01*
X58842857Y54209524D01*
X58880952Y54285715D01*
X58880952Y54590477D01*
X58538095Y53828572D02*
X58500000Y53790477D01*
X58461904Y53714286D01*
X58461904Y53523810D01*
X58500000Y53447620D01*
X58538095Y53409524D01*
X58614285Y53371429D01*
X58690476Y53371429D01*
X58804761Y53409524D01*
X59261904Y53866667D01*
X59261904Y53371429D01*
X24261904Y54133334D02*
X23880952Y54400000D01*
X24261904Y54590477D02*
X23461904Y54590477D01*
X23461904Y54285715D01*
X23500000Y54209524D01*
X23538095Y54171429D01*
X23614285Y54133334D01*
X23728571Y54133334D01*
X23804761Y54171429D01*
X23842857Y54209524D01*
X23880952Y54285715D01*
X23880952Y54590477D01*
X23538095Y53828572D02*
X23500000Y53790477D01*
X23461904Y53714286D01*
X23461904Y53523810D01*
X23500000Y53447620D01*
X23538095Y53409524D01*
X23614285Y53371429D01*
X23690476Y53371429D01*
X23804761Y53409524D01*
X24261904Y53866667D01*
X24261904Y53371429D01*
X59261904Y64133334D02*
X58880952Y64400000D01*
X59261904Y64590477D02*
X58461904Y64590477D01*
X58461904Y64285715D01*
X58500000Y64209524D01*
X58538095Y64171429D01*
X58614285Y64133334D01*
X58728571Y64133334D01*
X58804761Y64171429D01*
X58842857Y64209524D01*
X58880952Y64285715D01*
X58880952Y64590477D01*
X58538095Y63828572D02*
X58500000Y63790477D01*
X58461904Y63714286D01*
X58461904Y63523810D01*
X58500000Y63447620D01*
X58538095Y63409524D01*
X58614285Y63371429D01*
X58690476Y63371429D01*
X58804761Y63409524D01*
X59261904Y63866667D01*
X59261904Y63371429D01*
X24261904Y64133334D02*
X23880952Y64400000D01*
X24261904Y64590477D02*
X23461904Y64590477D01*
X23461904Y64285715D01*
X23500000Y64209524D01*
X23538095Y64171429D01*
X23614285Y64133334D01*
X23728571Y64133334D01*
X23804761Y64171429D01*
X23842857Y64209524D01*
X23880952Y64285715D01*
X23880952Y64590477D01*
X23538095Y63828572D02*
X23500000Y63790477D01*
X23461904Y63714286D01*
X23461904Y63523810D01*
X23500000Y63447620D01*
X23538095Y63409524D01*
X23614285Y63371429D01*
X23690476Y63371429D01*
X23804761Y63409524D01*
X24261904Y63866667D01*
X24261904Y63371429D01*
X59261904Y74133334D02*
X58880952Y74400000D01*
X59261904Y74590477D02*
X58461904Y74590477D01*
X58461904Y74285715D01*
X58500000Y74209524D01*
X58538095Y74171429D01*
X58614285Y74133334D01*
X58728571Y74133334D01*
X58804761Y74171429D01*
X58842857Y74209524D01*
X58880952Y74285715D01*
X58880952Y74590477D01*
X58538095Y73828572D02*
X58500000Y73790477D01*
X58461904Y73714286D01*
X58461904Y73523810D01*
X58500000Y73447620D01*
X58538095Y73409524D01*
X58614285Y73371429D01*
X58690476Y73371429D01*
X58804761Y73409524D01*
X59261904Y73866667D01*
X59261904Y73371429D01*
X24261904Y74133334D02*
X23880952Y74400000D01*
X24261904Y74590477D02*
X23461904Y74590477D01*
X23461904Y74285715D01*
X23500000Y74209524D01*
X23538095Y74171429D01*
X23614285Y74133334D01*
X23728571Y74133334D01*
X23804761Y74171429D01*
X23842857Y74209524D01*
X23880952Y74285715D01*
X23880952Y74590477D01*
X23538095Y73828572D02*
X23500000Y73790477D01*
X23461904Y73714286D01*
X23461904Y73523810D01*
X23500000Y73447620D01*
X23538095Y73409524D01*
X23614285Y73371429D01*
X23690476Y73371429D01*
X23804761Y73409524D01*
X24261904Y73866667D01*
X24261904Y73371429D01*
X59261904Y84133334D02*
X58880952Y84400000D01*
X59261904Y84590477D02*
X58461904Y84590477D01*
X58461904Y84285715D01*
X58500000Y84209524D01*
X58538095Y84171429D01*
X58614285Y84133334D01*
X58728571Y84133334D01*
X58804761Y84171429D01*
X58842857Y84209524D01*
X58880952Y84285715D01*
X58880952Y84590477D01*
X58538095Y83828572D02*
X58500000Y83790477D01*
X58461904Y83714286D01*
X58461904Y83523810D01*
X58500000Y83447620D01*
X58538095Y83409524D01*
X58614285Y83371429D01*
X58690476Y83371429D01*
X58804761Y83409524D01*
X59261904Y83866667D01*
X59261904Y83371429D01*
X24261904Y84133334D02*
X23880952Y84400000D01*
X24261904Y84590477D02*
X23461904Y84590477D01*
X23461904Y84285715D01*
X23500000Y84209524D01*
X23538095Y84171429D01*
X23614285Y84133334D01*
X23728571Y84133334D01*
X23804761Y84171429D01*
X23842857Y84209524D01*
X23880952Y84285715D01*
X23880952Y84590477D01*
X23538095Y83828572D02*
X23500000Y83790477D01*
X23461904Y83714286D01*
X23461904Y83523810D01*
X23500000Y83447620D01*
X23538095Y83409524D01*
X23614285Y83371429D01*
X23690476Y83371429D01*
X23804761Y83409524D01*
X24261904Y83866667D01*
X24261904Y83371429D01*
X59261904Y94133334D02*
X58880952Y94400000D01*
X59261904Y94590477D02*
X58461904Y94590477D01*
X58461904Y94285715D01*
X58500000Y94209524D01*
X58538095Y94171429D01*
X58614285Y94133334D01*
X58728571Y94133334D01*
X58804761Y94171429D01*
X58842857Y94209524D01*
X58880952Y94285715D01*
X58880952Y94590477D01*
X58538095Y93828572D02*
X58500000Y93790477D01*
X58461904Y93714286D01*
X58461904Y93523810D01*
X58500000Y93447620D01*
X58538095Y93409524D01*
X58614285Y93371429D01*
X58690476Y93371429D01*
X58804761Y93409524D01*
X59261904Y93866667D01*
X59261904Y93371429D01*
%TO.C,D3*%
X45116666Y4516667D02*
X44416666Y4516667D01*
X44416666Y4350000D01*
X44450000Y4250000D01*
X44516666Y4183334D01*
X44583333Y4150000D01*
X44716666Y4116667D01*
X44816666Y4116667D01*
X44950000Y4150000D01*
X45016666Y4183334D01*
X45083333Y4250000D01*
X45116666Y4350000D01*
X45116666Y4516667D01*
X44416666Y3883334D02*
X44416666Y3450000D01*
X44683333Y3683334D01*
X44683333Y3583334D01*
X44716666Y3516667D01*
X44750000Y3483334D01*
X44816666Y3450000D01*
X44983333Y3450000D01*
X45050000Y3483334D01*
X45083333Y3516667D01*
X45116666Y3583334D01*
X45116666Y3783334D01*
X45083333Y3850000D01*
X45050000Y3883334D01*
X10116666Y4516667D02*
X9416666Y4516667D01*
X9416666Y4350000D01*
X9450000Y4250000D01*
X9516666Y4183334D01*
X9583333Y4150000D01*
X9716666Y4116667D01*
X9816666Y4116667D01*
X9950000Y4150000D01*
X10016666Y4183334D01*
X10083333Y4250000D01*
X10116666Y4350000D01*
X10116666Y4516667D01*
X9416666Y3883334D02*
X9416666Y3450000D01*
X9683333Y3683334D01*
X9683333Y3583334D01*
X9716666Y3516667D01*
X9750000Y3483334D01*
X9816666Y3450000D01*
X9983333Y3450000D01*
X10050000Y3483334D01*
X10083333Y3516667D01*
X10116666Y3583334D01*
X10116666Y3783334D01*
X10083333Y3850000D01*
X10050000Y3883334D01*
X45116666Y14516667D02*
X44416666Y14516667D01*
X44416666Y14350000D01*
X44450000Y14250000D01*
X44516666Y14183334D01*
X44583333Y14150000D01*
X44716666Y14116667D01*
X44816666Y14116667D01*
X44950000Y14150000D01*
X45016666Y14183334D01*
X45083333Y14250000D01*
X45116666Y14350000D01*
X45116666Y14516667D01*
X44416666Y13883334D02*
X44416666Y13450000D01*
X44683333Y13683334D01*
X44683333Y13583334D01*
X44716666Y13516667D01*
X44750000Y13483334D01*
X44816666Y13450000D01*
X44983333Y13450000D01*
X45050000Y13483334D01*
X45083333Y13516667D01*
X45116666Y13583334D01*
X45116666Y13783334D01*
X45083333Y13850000D01*
X45050000Y13883334D01*
X10116666Y14516667D02*
X9416666Y14516667D01*
X9416666Y14350000D01*
X9450000Y14250000D01*
X9516666Y14183334D01*
X9583333Y14150000D01*
X9716666Y14116667D01*
X9816666Y14116667D01*
X9950000Y14150000D01*
X10016666Y14183334D01*
X10083333Y14250000D01*
X10116666Y14350000D01*
X10116666Y14516667D01*
X9416666Y13883334D02*
X9416666Y13450000D01*
X9683333Y13683334D01*
X9683333Y13583334D01*
X9716666Y13516667D01*
X9750000Y13483334D01*
X9816666Y13450000D01*
X9983333Y13450000D01*
X10050000Y13483334D01*
X10083333Y13516667D01*
X10116666Y13583334D01*
X10116666Y13783334D01*
X10083333Y13850000D01*
X10050000Y13883334D01*
X45116666Y24516667D02*
X44416666Y24516667D01*
X44416666Y24350000D01*
X44450000Y24250000D01*
X44516666Y24183334D01*
X44583333Y24150000D01*
X44716666Y24116667D01*
X44816666Y24116667D01*
X44950000Y24150000D01*
X45016666Y24183334D01*
X45083333Y24250000D01*
X45116666Y24350000D01*
X45116666Y24516667D01*
X44416666Y23883334D02*
X44416666Y23450000D01*
X44683333Y23683334D01*
X44683333Y23583334D01*
X44716666Y23516667D01*
X44750000Y23483334D01*
X44816666Y23450000D01*
X44983333Y23450000D01*
X45050000Y23483334D01*
X45083333Y23516667D01*
X45116666Y23583334D01*
X45116666Y23783334D01*
X45083333Y23850000D01*
X45050000Y23883334D01*
X10116666Y24516667D02*
X9416666Y24516667D01*
X9416666Y24350000D01*
X9450000Y24250000D01*
X9516666Y24183334D01*
X9583333Y24150000D01*
X9716666Y24116667D01*
X9816666Y24116667D01*
X9950000Y24150000D01*
X10016666Y24183334D01*
X10083333Y24250000D01*
X10116666Y24350000D01*
X10116666Y24516667D01*
X9416666Y23883334D02*
X9416666Y23450000D01*
X9683333Y23683334D01*
X9683333Y23583334D01*
X9716666Y23516667D01*
X9750000Y23483334D01*
X9816666Y23450000D01*
X9983333Y23450000D01*
X10050000Y23483334D01*
X10083333Y23516667D01*
X10116666Y23583334D01*
X10116666Y23783334D01*
X10083333Y23850000D01*
X10050000Y23883334D01*
X45116666Y34516667D02*
X44416666Y34516667D01*
X44416666Y34350000D01*
X44450000Y34250000D01*
X44516666Y34183334D01*
X44583333Y34150000D01*
X44716666Y34116667D01*
X44816666Y34116667D01*
X44950000Y34150000D01*
X45016666Y34183334D01*
X45083333Y34250000D01*
X45116666Y34350000D01*
X45116666Y34516667D01*
X44416666Y33883334D02*
X44416666Y33450000D01*
X44683333Y33683334D01*
X44683333Y33583334D01*
X44716666Y33516667D01*
X44750000Y33483334D01*
X44816666Y33450000D01*
X44983333Y33450000D01*
X45050000Y33483334D01*
X45083333Y33516667D01*
X45116666Y33583334D01*
X45116666Y33783334D01*
X45083333Y33850000D01*
X45050000Y33883334D01*
X10116666Y34516667D02*
X9416666Y34516667D01*
X9416666Y34350000D01*
X9450000Y34250000D01*
X9516666Y34183334D01*
X9583333Y34150000D01*
X9716666Y34116667D01*
X9816666Y34116667D01*
X9950000Y34150000D01*
X10016666Y34183334D01*
X10083333Y34250000D01*
X10116666Y34350000D01*
X10116666Y34516667D01*
X9416666Y33883334D02*
X9416666Y33450000D01*
X9683333Y33683334D01*
X9683333Y33583334D01*
X9716666Y33516667D01*
X9750000Y33483334D01*
X9816666Y33450000D01*
X9983333Y33450000D01*
X10050000Y33483334D01*
X10083333Y33516667D01*
X10116666Y33583334D01*
X10116666Y33783334D01*
X10083333Y33850000D01*
X10050000Y33883334D01*
X45116666Y44516667D02*
X44416666Y44516667D01*
X44416666Y44350000D01*
X44450000Y44250000D01*
X44516666Y44183334D01*
X44583333Y44150000D01*
X44716666Y44116667D01*
X44816666Y44116667D01*
X44950000Y44150000D01*
X45016666Y44183334D01*
X45083333Y44250000D01*
X45116666Y44350000D01*
X45116666Y44516667D01*
X44416666Y43883334D02*
X44416666Y43450000D01*
X44683333Y43683334D01*
X44683333Y43583334D01*
X44716666Y43516667D01*
X44750000Y43483334D01*
X44816666Y43450000D01*
X44983333Y43450000D01*
X45050000Y43483334D01*
X45083333Y43516667D01*
X45116666Y43583334D01*
X45116666Y43783334D01*
X45083333Y43850000D01*
X45050000Y43883334D01*
X10116666Y44516667D02*
X9416666Y44516667D01*
X9416666Y44350000D01*
X9450000Y44250000D01*
X9516666Y44183334D01*
X9583333Y44150000D01*
X9716666Y44116667D01*
X9816666Y44116667D01*
X9950000Y44150000D01*
X10016666Y44183334D01*
X10083333Y44250000D01*
X10116666Y44350000D01*
X10116666Y44516667D01*
X9416666Y43883334D02*
X9416666Y43450000D01*
X9683333Y43683334D01*
X9683333Y43583334D01*
X9716666Y43516667D01*
X9750000Y43483334D01*
X9816666Y43450000D01*
X9983333Y43450000D01*
X10050000Y43483334D01*
X10083333Y43516667D01*
X10116666Y43583334D01*
X10116666Y43783334D01*
X10083333Y43850000D01*
X10050000Y43883334D01*
X45116666Y54516667D02*
X44416666Y54516667D01*
X44416666Y54350000D01*
X44450000Y54250000D01*
X44516666Y54183334D01*
X44583333Y54150000D01*
X44716666Y54116667D01*
X44816666Y54116667D01*
X44950000Y54150000D01*
X45016666Y54183334D01*
X45083333Y54250000D01*
X45116666Y54350000D01*
X45116666Y54516667D01*
X44416666Y53883334D02*
X44416666Y53450000D01*
X44683333Y53683334D01*
X44683333Y53583334D01*
X44716666Y53516667D01*
X44750000Y53483334D01*
X44816666Y53450000D01*
X44983333Y53450000D01*
X45050000Y53483334D01*
X45083333Y53516667D01*
X45116666Y53583334D01*
X45116666Y53783334D01*
X45083333Y53850000D01*
X45050000Y53883334D01*
X10116666Y54516667D02*
X9416666Y54516667D01*
X9416666Y54350000D01*
X9450000Y54250000D01*
X9516666Y54183334D01*
X9583333Y54150000D01*
X9716666Y54116667D01*
X9816666Y54116667D01*
X9950000Y54150000D01*
X10016666Y54183334D01*
X10083333Y54250000D01*
X10116666Y54350000D01*
X10116666Y54516667D01*
X9416666Y53883334D02*
X9416666Y53450000D01*
X9683333Y53683334D01*
X9683333Y53583334D01*
X9716666Y53516667D01*
X9750000Y53483334D01*
X9816666Y53450000D01*
X9983333Y53450000D01*
X10050000Y53483334D01*
X10083333Y53516667D01*
X10116666Y53583334D01*
X10116666Y53783334D01*
X10083333Y53850000D01*
X10050000Y53883334D01*
X45116666Y64516667D02*
X44416666Y64516667D01*
X44416666Y64350000D01*
X44450000Y64250000D01*
X44516666Y64183334D01*
X44583333Y64150000D01*
X44716666Y64116667D01*
X44816666Y64116667D01*
X44950000Y64150000D01*
X45016666Y64183334D01*
X45083333Y64250000D01*
X45116666Y64350000D01*
X45116666Y64516667D01*
X44416666Y63883334D02*
X44416666Y63450000D01*
X44683333Y63683334D01*
X44683333Y63583334D01*
X44716666Y63516667D01*
X44750000Y63483334D01*
X44816666Y63450000D01*
X44983333Y63450000D01*
X45050000Y63483334D01*
X45083333Y63516667D01*
X45116666Y63583334D01*
X45116666Y63783334D01*
X45083333Y63850000D01*
X45050000Y63883334D01*
X10116666Y64516667D02*
X9416666Y64516667D01*
X9416666Y64350000D01*
X9450000Y64250000D01*
X9516666Y64183334D01*
X9583333Y64150000D01*
X9716666Y64116667D01*
X9816666Y64116667D01*
X9950000Y64150000D01*
X10016666Y64183334D01*
X10083333Y64250000D01*
X10116666Y64350000D01*
X10116666Y64516667D01*
X9416666Y63883334D02*
X9416666Y63450000D01*
X9683333Y63683334D01*
X9683333Y63583334D01*
X9716666Y63516667D01*
X9750000Y63483334D01*
X9816666Y63450000D01*
X9983333Y63450000D01*
X10050000Y63483334D01*
X10083333Y63516667D01*
X10116666Y63583334D01*
X10116666Y63783334D01*
X10083333Y63850000D01*
X10050000Y63883334D01*
X45116666Y74516667D02*
X44416666Y74516667D01*
X44416666Y74350000D01*
X44450000Y74250000D01*
X44516666Y74183334D01*
X44583333Y74150000D01*
X44716666Y74116667D01*
X44816666Y74116667D01*
X44950000Y74150000D01*
X45016666Y74183334D01*
X45083333Y74250000D01*
X45116666Y74350000D01*
X45116666Y74516667D01*
X44416666Y73883334D02*
X44416666Y73450000D01*
X44683333Y73683334D01*
X44683333Y73583334D01*
X44716666Y73516667D01*
X44750000Y73483334D01*
X44816666Y73450000D01*
X44983333Y73450000D01*
X45050000Y73483334D01*
X45083333Y73516667D01*
X45116666Y73583334D01*
X45116666Y73783334D01*
X45083333Y73850000D01*
X45050000Y73883334D01*
X10116666Y74516667D02*
X9416666Y74516667D01*
X9416666Y74350000D01*
X9450000Y74250000D01*
X9516666Y74183334D01*
X9583333Y74150000D01*
X9716666Y74116667D01*
X9816666Y74116667D01*
X9950000Y74150000D01*
X10016666Y74183334D01*
X10083333Y74250000D01*
X10116666Y74350000D01*
X10116666Y74516667D01*
X9416666Y73883334D02*
X9416666Y73450000D01*
X9683333Y73683334D01*
X9683333Y73583334D01*
X9716666Y73516667D01*
X9750000Y73483334D01*
X9816666Y73450000D01*
X9983333Y73450000D01*
X10050000Y73483334D01*
X10083333Y73516667D01*
X10116666Y73583334D01*
X10116666Y73783334D01*
X10083333Y73850000D01*
X10050000Y73883334D01*
X45116666Y84516667D02*
X44416666Y84516667D01*
X44416666Y84350000D01*
X44450000Y84250000D01*
X44516666Y84183334D01*
X44583333Y84150000D01*
X44716666Y84116667D01*
X44816666Y84116667D01*
X44950000Y84150000D01*
X45016666Y84183334D01*
X45083333Y84250000D01*
X45116666Y84350000D01*
X45116666Y84516667D01*
X44416666Y83883334D02*
X44416666Y83450000D01*
X44683333Y83683334D01*
X44683333Y83583334D01*
X44716666Y83516667D01*
X44750000Y83483334D01*
X44816666Y83450000D01*
X44983333Y83450000D01*
X45050000Y83483334D01*
X45083333Y83516667D01*
X45116666Y83583334D01*
X45116666Y83783334D01*
X45083333Y83850000D01*
X45050000Y83883334D01*
X10116666Y84516667D02*
X9416666Y84516667D01*
X9416666Y84350000D01*
X9450000Y84250000D01*
X9516666Y84183334D01*
X9583333Y84150000D01*
X9716666Y84116667D01*
X9816666Y84116667D01*
X9950000Y84150000D01*
X10016666Y84183334D01*
X10083333Y84250000D01*
X10116666Y84350000D01*
X10116666Y84516667D01*
X9416666Y83883334D02*
X9416666Y83450000D01*
X9683333Y83683334D01*
X9683333Y83583334D01*
X9716666Y83516667D01*
X9750000Y83483334D01*
X9816666Y83450000D01*
X9983333Y83450000D01*
X10050000Y83483334D01*
X10083333Y83516667D01*
X10116666Y83583334D01*
X10116666Y83783334D01*
X10083333Y83850000D01*
X10050000Y83883334D01*
X45116666Y94516667D02*
X44416666Y94516667D01*
X44416666Y94350000D01*
X44450000Y94250000D01*
X44516666Y94183334D01*
X44583333Y94150000D01*
X44716666Y94116667D01*
X44816666Y94116667D01*
X44950000Y94150000D01*
X45016666Y94183334D01*
X45083333Y94250000D01*
X45116666Y94350000D01*
X45116666Y94516667D01*
X44416666Y93883334D02*
X44416666Y93450000D01*
X44683333Y93683334D01*
X44683333Y93583334D01*
X44716666Y93516667D01*
X44750000Y93483334D01*
X44816666Y93450000D01*
X44983333Y93450000D01*
X45050000Y93483334D01*
X45083333Y93516667D01*
X45116666Y93583334D01*
X45116666Y93783334D01*
X45083333Y93850000D01*
X45050000Y93883334D01*
%TO.C,D1*%
X65116666Y4516667D02*
X64416666Y4516667D01*
X64416666Y4350000D01*
X64450000Y4250000D01*
X64516666Y4183334D01*
X64583333Y4150000D01*
X64716666Y4116667D01*
X64816666Y4116667D01*
X64950000Y4150000D01*
X65016666Y4183334D01*
X65083333Y4250000D01*
X65116666Y4350000D01*
X65116666Y4516667D01*
X65116666Y3450000D02*
X65116666Y3850000D01*
X65116666Y3650000D02*
X64416666Y3650000D01*
X64516666Y3716667D01*
X64583333Y3783334D01*
X64616666Y3850000D01*
X30116666Y4516667D02*
X29416666Y4516667D01*
X29416666Y4350000D01*
X29450000Y4250000D01*
X29516666Y4183334D01*
X29583333Y4150000D01*
X29716666Y4116667D01*
X29816666Y4116667D01*
X29950000Y4150000D01*
X30016666Y4183334D01*
X30083333Y4250000D01*
X30116666Y4350000D01*
X30116666Y4516667D01*
X30116666Y3450000D02*
X30116666Y3850000D01*
X30116666Y3650000D02*
X29416666Y3650000D01*
X29516666Y3716667D01*
X29583333Y3783334D01*
X29616666Y3850000D01*
X65116666Y14516667D02*
X64416666Y14516667D01*
X64416666Y14350000D01*
X64450000Y14250000D01*
X64516666Y14183334D01*
X64583333Y14150000D01*
X64716666Y14116667D01*
X64816666Y14116667D01*
X64950000Y14150000D01*
X65016666Y14183334D01*
X65083333Y14250000D01*
X65116666Y14350000D01*
X65116666Y14516667D01*
X65116666Y13450000D02*
X65116666Y13850000D01*
X65116666Y13650000D02*
X64416666Y13650000D01*
X64516666Y13716667D01*
X64583333Y13783334D01*
X64616666Y13850000D01*
X30116666Y14516667D02*
X29416666Y14516667D01*
X29416666Y14350000D01*
X29450000Y14250000D01*
X29516666Y14183334D01*
X29583333Y14150000D01*
X29716666Y14116667D01*
X29816666Y14116667D01*
X29950000Y14150000D01*
X30016666Y14183334D01*
X30083333Y14250000D01*
X30116666Y14350000D01*
X30116666Y14516667D01*
X30116666Y13450000D02*
X30116666Y13850000D01*
X30116666Y13650000D02*
X29416666Y13650000D01*
X29516666Y13716667D01*
X29583333Y13783334D01*
X29616666Y13850000D01*
X65116666Y24516667D02*
X64416666Y24516667D01*
X64416666Y24350000D01*
X64450000Y24250000D01*
X64516666Y24183334D01*
X64583333Y24150000D01*
X64716666Y24116667D01*
X64816666Y24116667D01*
X64950000Y24150000D01*
X65016666Y24183334D01*
X65083333Y24250000D01*
X65116666Y24350000D01*
X65116666Y24516667D01*
X65116666Y23450000D02*
X65116666Y23850000D01*
X65116666Y23650000D02*
X64416666Y23650000D01*
X64516666Y23716667D01*
X64583333Y23783334D01*
X64616666Y23850000D01*
X30116666Y24516667D02*
X29416666Y24516667D01*
X29416666Y24350000D01*
X29450000Y24250000D01*
X29516666Y24183334D01*
X29583333Y24150000D01*
X29716666Y24116667D01*
X29816666Y24116667D01*
X29950000Y24150000D01*
X30016666Y24183334D01*
X30083333Y24250000D01*
X30116666Y24350000D01*
X30116666Y24516667D01*
X30116666Y23450000D02*
X30116666Y23850000D01*
X30116666Y23650000D02*
X29416666Y23650000D01*
X29516666Y23716667D01*
X29583333Y23783334D01*
X29616666Y23850000D01*
X65116666Y34516667D02*
X64416666Y34516667D01*
X64416666Y34350000D01*
X64450000Y34250000D01*
X64516666Y34183334D01*
X64583333Y34150000D01*
X64716666Y34116667D01*
X64816666Y34116667D01*
X64950000Y34150000D01*
X65016666Y34183334D01*
X65083333Y34250000D01*
X65116666Y34350000D01*
X65116666Y34516667D01*
X65116666Y33450000D02*
X65116666Y33850000D01*
X65116666Y33650000D02*
X64416666Y33650000D01*
X64516666Y33716667D01*
X64583333Y33783334D01*
X64616666Y33850000D01*
X30116666Y34516667D02*
X29416666Y34516667D01*
X29416666Y34350000D01*
X29450000Y34250000D01*
X29516666Y34183334D01*
X29583333Y34150000D01*
X29716666Y34116667D01*
X29816666Y34116667D01*
X29950000Y34150000D01*
X30016666Y34183334D01*
X30083333Y34250000D01*
X30116666Y34350000D01*
X30116666Y34516667D01*
X30116666Y33450000D02*
X30116666Y33850000D01*
X30116666Y33650000D02*
X29416666Y33650000D01*
X29516666Y33716667D01*
X29583333Y33783334D01*
X29616666Y33850000D01*
X65116666Y44516667D02*
X64416666Y44516667D01*
X64416666Y44350000D01*
X64450000Y44250000D01*
X64516666Y44183334D01*
X64583333Y44150000D01*
X64716666Y44116667D01*
X64816666Y44116667D01*
X64950000Y44150000D01*
X65016666Y44183334D01*
X65083333Y44250000D01*
X65116666Y44350000D01*
X65116666Y44516667D01*
X65116666Y43450000D02*
X65116666Y43850000D01*
X65116666Y43650000D02*
X64416666Y43650000D01*
X64516666Y43716667D01*
X64583333Y43783334D01*
X64616666Y43850000D01*
X30116666Y44516667D02*
X29416666Y44516667D01*
X29416666Y44350000D01*
X29450000Y44250000D01*
X29516666Y44183334D01*
X29583333Y44150000D01*
X29716666Y44116667D01*
X29816666Y44116667D01*
X29950000Y44150000D01*
X30016666Y44183334D01*
X30083333Y44250000D01*
X30116666Y44350000D01*
X30116666Y44516667D01*
X30116666Y43450000D02*
X30116666Y43850000D01*
X30116666Y43650000D02*
X29416666Y43650000D01*
X29516666Y43716667D01*
X29583333Y43783334D01*
X29616666Y43850000D01*
X65116666Y54516667D02*
X64416666Y54516667D01*
X64416666Y54350000D01*
X64450000Y54250000D01*
X64516666Y54183334D01*
X64583333Y54150000D01*
X64716666Y54116667D01*
X64816666Y54116667D01*
X64950000Y54150000D01*
X65016666Y54183334D01*
X65083333Y54250000D01*
X65116666Y54350000D01*
X65116666Y54516667D01*
X65116666Y53450000D02*
X65116666Y53850000D01*
X65116666Y53650000D02*
X64416666Y53650000D01*
X64516666Y53716667D01*
X64583333Y53783334D01*
X64616666Y53850000D01*
X30116666Y54516667D02*
X29416666Y54516667D01*
X29416666Y54350000D01*
X29450000Y54250000D01*
X29516666Y54183334D01*
X29583333Y54150000D01*
X29716666Y54116667D01*
X29816666Y54116667D01*
X29950000Y54150000D01*
X30016666Y54183334D01*
X30083333Y54250000D01*
X30116666Y54350000D01*
X30116666Y54516667D01*
X30116666Y53450000D02*
X30116666Y53850000D01*
X30116666Y53650000D02*
X29416666Y53650000D01*
X29516666Y53716667D01*
X29583333Y53783334D01*
X29616666Y53850000D01*
X65116666Y64516667D02*
X64416666Y64516667D01*
X64416666Y64350000D01*
X64450000Y64250000D01*
X64516666Y64183334D01*
X64583333Y64150000D01*
X64716666Y64116667D01*
X64816666Y64116667D01*
X64950000Y64150000D01*
X65016666Y64183334D01*
X65083333Y64250000D01*
X65116666Y64350000D01*
X65116666Y64516667D01*
X65116666Y63450000D02*
X65116666Y63850000D01*
X65116666Y63650000D02*
X64416666Y63650000D01*
X64516666Y63716667D01*
X64583333Y63783334D01*
X64616666Y63850000D01*
X30116666Y64516667D02*
X29416666Y64516667D01*
X29416666Y64350000D01*
X29450000Y64250000D01*
X29516666Y64183334D01*
X29583333Y64150000D01*
X29716666Y64116667D01*
X29816666Y64116667D01*
X29950000Y64150000D01*
X30016666Y64183334D01*
X30083333Y64250000D01*
X30116666Y64350000D01*
X30116666Y64516667D01*
X30116666Y63450000D02*
X30116666Y63850000D01*
X30116666Y63650000D02*
X29416666Y63650000D01*
X29516666Y63716667D01*
X29583333Y63783334D01*
X29616666Y63850000D01*
X65116666Y74516667D02*
X64416666Y74516667D01*
X64416666Y74350000D01*
X64450000Y74250000D01*
X64516666Y74183334D01*
X64583333Y74150000D01*
X64716666Y74116667D01*
X64816666Y74116667D01*
X64950000Y74150000D01*
X65016666Y74183334D01*
X65083333Y74250000D01*
X65116666Y74350000D01*
X65116666Y74516667D01*
X65116666Y73450000D02*
X65116666Y73850000D01*
X65116666Y73650000D02*
X64416666Y73650000D01*
X64516666Y73716667D01*
X64583333Y73783334D01*
X64616666Y73850000D01*
X30116666Y74516667D02*
X29416666Y74516667D01*
X29416666Y74350000D01*
X29450000Y74250000D01*
X29516666Y74183334D01*
X29583333Y74150000D01*
X29716666Y74116667D01*
X29816666Y74116667D01*
X29950000Y74150000D01*
X30016666Y74183334D01*
X30083333Y74250000D01*
X30116666Y74350000D01*
X30116666Y74516667D01*
X30116666Y73450000D02*
X30116666Y73850000D01*
X30116666Y73650000D02*
X29416666Y73650000D01*
X29516666Y73716667D01*
X29583333Y73783334D01*
X29616666Y73850000D01*
X65116666Y84516667D02*
X64416666Y84516667D01*
X64416666Y84350000D01*
X64450000Y84250000D01*
X64516666Y84183334D01*
X64583333Y84150000D01*
X64716666Y84116667D01*
X64816666Y84116667D01*
X64950000Y84150000D01*
X65016666Y84183334D01*
X65083333Y84250000D01*
X65116666Y84350000D01*
X65116666Y84516667D01*
X65116666Y83450000D02*
X65116666Y83850000D01*
X65116666Y83650000D02*
X64416666Y83650000D01*
X64516666Y83716667D01*
X64583333Y83783334D01*
X64616666Y83850000D01*
X30116666Y84516667D02*
X29416666Y84516667D01*
X29416666Y84350000D01*
X29450000Y84250000D01*
X29516666Y84183334D01*
X29583333Y84150000D01*
X29716666Y84116667D01*
X29816666Y84116667D01*
X29950000Y84150000D01*
X30016666Y84183334D01*
X30083333Y84250000D01*
X30116666Y84350000D01*
X30116666Y84516667D01*
X30116666Y83450000D02*
X30116666Y83850000D01*
X30116666Y83650000D02*
X29416666Y83650000D01*
X29516666Y83716667D01*
X29583333Y83783334D01*
X29616666Y83850000D01*
X65116666Y94516667D02*
X64416666Y94516667D01*
X64416666Y94350000D01*
X64450000Y94250000D01*
X64516666Y94183334D01*
X64583333Y94150000D01*
X64716666Y94116667D01*
X64816666Y94116667D01*
X64950000Y94150000D01*
X65016666Y94183334D01*
X65083333Y94250000D01*
X65116666Y94350000D01*
X65116666Y94516667D01*
X65116666Y93450000D02*
X65116666Y93850000D01*
X65116666Y93650000D02*
X64416666Y93650000D01*
X64516666Y93716667D01*
X64583333Y93783334D01*
X64616666Y93850000D01*
%TO.C,D2*%
X55116666Y4516667D02*
X54416666Y4516667D01*
X54416666Y4350000D01*
X54450000Y4250000D01*
X54516666Y4183334D01*
X54583333Y4150000D01*
X54716666Y4116667D01*
X54816666Y4116667D01*
X54950000Y4150000D01*
X55016666Y4183334D01*
X55083333Y4250000D01*
X55116666Y4350000D01*
X55116666Y4516667D01*
X54483333Y3850000D02*
X54450000Y3816667D01*
X54416666Y3750000D01*
X54416666Y3583334D01*
X54450000Y3516667D01*
X54483333Y3483334D01*
X54550000Y3450000D01*
X54616666Y3450000D01*
X54716666Y3483334D01*
X55116666Y3883334D01*
X55116666Y3450000D01*
X20116666Y4516667D02*
X19416666Y4516667D01*
X19416666Y4350000D01*
X19450000Y4250000D01*
X19516666Y4183334D01*
X19583333Y4150000D01*
X19716666Y4116667D01*
X19816666Y4116667D01*
X19950000Y4150000D01*
X20016666Y4183334D01*
X20083333Y4250000D01*
X20116666Y4350000D01*
X20116666Y4516667D01*
X19483333Y3850000D02*
X19450000Y3816667D01*
X19416666Y3750000D01*
X19416666Y3583334D01*
X19450000Y3516667D01*
X19483333Y3483334D01*
X19550000Y3450000D01*
X19616666Y3450000D01*
X19716666Y3483334D01*
X20116666Y3883334D01*
X20116666Y3450000D01*
X55116666Y14516667D02*
X54416666Y14516667D01*
X54416666Y14350000D01*
X54450000Y14250000D01*
X54516666Y14183334D01*
X54583333Y14150000D01*
X54716666Y14116667D01*
X54816666Y14116667D01*
X54950000Y14150000D01*
X55016666Y14183334D01*
X55083333Y14250000D01*
X55116666Y14350000D01*
X55116666Y14516667D01*
X54483333Y13850000D02*
X54450000Y13816667D01*
X54416666Y13750000D01*
X54416666Y13583334D01*
X54450000Y13516667D01*
X54483333Y13483334D01*
X54550000Y13450000D01*
X54616666Y13450000D01*
X54716666Y13483334D01*
X55116666Y13883334D01*
X55116666Y13450000D01*
X20116666Y14516667D02*
X19416666Y14516667D01*
X19416666Y14350000D01*
X19450000Y14250000D01*
X19516666Y14183334D01*
X19583333Y14150000D01*
X19716666Y14116667D01*
X19816666Y14116667D01*
X19950000Y14150000D01*
X20016666Y14183334D01*
X20083333Y14250000D01*
X20116666Y14350000D01*
X20116666Y14516667D01*
X19483333Y13850000D02*
X19450000Y13816667D01*
X19416666Y13750000D01*
X19416666Y13583334D01*
X19450000Y13516667D01*
X19483333Y13483334D01*
X19550000Y13450000D01*
X19616666Y13450000D01*
X19716666Y13483334D01*
X20116666Y13883334D01*
X20116666Y13450000D01*
X55116666Y24516667D02*
X54416666Y24516667D01*
X54416666Y24350000D01*
X54450000Y24250000D01*
X54516666Y24183334D01*
X54583333Y24150000D01*
X54716666Y24116667D01*
X54816666Y24116667D01*
X54950000Y24150000D01*
X55016666Y24183334D01*
X55083333Y24250000D01*
X55116666Y24350000D01*
X55116666Y24516667D01*
X54483333Y23850000D02*
X54450000Y23816667D01*
X54416666Y23750000D01*
X54416666Y23583334D01*
X54450000Y23516667D01*
X54483333Y23483334D01*
X54550000Y23450000D01*
X54616666Y23450000D01*
X54716666Y23483334D01*
X55116666Y23883334D01*
X55116666Y23450000D01*
X20116666Y24516667D02*
X19416666Y24516667D01*
X19416666Y24350000D01*
X19450000Y24250000D01*
X19516666Y24183334D01*
X19583333Y24150000D01*
X19716666Y24116667D01*
X19816666Y24116667D01*
X19950000Y24150000D01*
X20016666Y24183334D01*
X20083333Y24250000D01*
X20116666Y24350000D01*
X20116666Y24516667D01*
X19483333Y23850000D02*
X19450000Y23816667D01*
X19416666Y23750000D01*
X19416666Y23583334D01*
X19450000Y23516667D01*
X19483333Y23483334D01*
X19550000Y23450000D01*
X19616666Y23450000D01*
X19716666Y23483334D01*
X20116666Y23883334D01*
X20116666Y23450000D01*
X55116666Y34516667D02*
X54416666Y34516667D01*
X54416666Y34350000D01*
X54450000Y34250000D01*
X54516666Y34183334D01*
X54583333Y34150000D01*
X54716666Y34116667D01*
X54816666Y34116667D01*
X54950000Y34150000D01*
X55016666Y34183334D01*
X55083333Y34250000D01*
X55116666Y34350000D01*
X55116666Y34516667D01*
X54483333Y33850000D02*
X54450000Y33816667D01*
X54416666Y33750000D01*
X54416666Y33583334D01*
X54450000Y33516667D01*
X54483333Y33483334D01*
X54550000Y33450000D01*
X54616666Y33450000D01*
X54716666Y33483334D01*
X55116666Y33883334D01*
X55116666Y33450000D01*
X20116666Y34516667D02*
X19416666Y34516667D01*
X19416666Y34350000D01*
X19450000Y34250000D01*
X19516666Y34183334D01*
X19583333Y34150000D01*
X19716666Y34116667D01*
X19816666Y34116667D01*
X19950000Y34150000D01*
X20016666Y34183334D01*
X20083333Y34250000D01*
X20116666Y34350000D01*
X20116666Y34516667D01*
X19483333Y33850000D02*
X19450000Y33816667D01*
X19416666Y33750000D01*
X19416666Y33583334D01*
X19450000Y33516667D01*
X19483333Y33483334D01*
X19550000Y33450000D01*
X19616666Y33450000D01*
X19716666Y33483334D01*
X20116666Y33883334D01*
X20116666Y33450000D01*
X55116666Y44516667D02*
X54416666Y44516667D01*
X54416666Y44350000D01*
X54450000Y44250000D01*
X54516666Y44183334D01*
X54583333Y44150000D01*
X54716666Y44116667D01*
X54816666Y44116667D01*
X54950000Y44150000D01*
X55016666Y44183334D01*
X55083333Y44250000D01*
X55116666Y44350000D01*
X55116666Y44516667D01*
X54483333Y43850000D02*
X54450000Y43816667D01*
X54416666Y43750000D01*
X54416666Y43583334D01*
X54450000Y43516667D01*
X54483333Y43483334D01*
X54550000Y43450000D01*
X54616666Y43450000D01*
X54716666Y43483334D01*
X55116666Y43883334D01*
X55116666Y43450000D01*
X20116666Y44516667D02*
X19416666Y44516667D01*
X19416666Y44350000D01*
X19450000Y44250000D01*
X19516666Y44183334D01*
X19583333Y44150000D01*
X19716666Y44116667D01*
X19816666Y44116667D01*
X19950000Y44150000D01*
X20016666Y44183334D01*
X20083333Y44250000D01*
X20116666Y44350000D01*
X20116666Y44516667D01*
X19483333Y43850000D02*
X19450000Y43816667D01*
X19416666Y43750000D01*
X19416666Y43583334D01*
X19450000Y43516667D01*
X19483333Y43483334D01*
X19550000Y43450000D01*
X19616666Y43450000D01*
X19716666Y43483334D01*
X20116666Y43883334D01*
X20116666Y43450000D01*
X55116666Y54516667D02*
X54416666Y54516667D01*
X54416666Y54350000D01*
X54450000Y54250000D01*
X54516666Y54183334D01*
X54583333Y54150000D01*
X54716666Y54116667D01*
X54816666Y54116667D01*
X54950000Y54150000D01*
X55016666Y54183334D01*
X55083333Y54250000D01*
X55116666Y54350000D01*
X55116666Y54516667D01*
X54483333Y53850000D02*
X54450000Y53816667D01*
X54416666Y53750000D01*
X54416666Y53583334D01*
X54450000Y53516667D01*
X54483333Y53483334D01*
X54550000Y53450000D01*
X54616666Y53450000D01*
X54716666Y53483334D01*
X55116666Y53883334D01*
X55116666Y53450000D01*
X20116666Y54516667D02*
X19416666Y54516667D01*
X19416666Y54350000D01*
X19450000Y54250000D01*
X19516666Y54183334D01*
X19583333Y54150000D01*
X19716666Y54116667D01*
X19816666Y54116667D01*
X19950000Y54150000D01*
X20016666Y54183334D01*
X20083333Y54250000D01*
X20116666Y54350000D01*
X20116666Y54516667D01*
X19483333Y53850000D02*
X19450000Y53816667D01*
X19416666Y53750000D01*
X19416666Y53583334D01*
X19450000Y53516667D01*
X19483333Y53483334D01*
X19550000Y53450000D01*
X19616666Y53450000D01*
X19716666Y53483334D01*
X20116666Y53883334D01*
X20116666Y53450000D01*
X55116666Y64516667D02*
X54416666Y64516667D01*
X54416666Y64350000D01*
X54450000Y64250000D01*
X54516666Y64183334D01*
X54583333Y64150000D01*
X54716666Y64116667D01*
X54816666Y64116667D01*
X54950000Y64150000D01*
X55016666Y64183334D01*
X55083333Y64250000D01*
X55116666Y64350000D01*
X55116666Y64516667D01*
X54483333Y63850000D02*
X54450000Y63816667D01*
X54416666Y63750000D01*
X54416666Y63583334D01*
X54450000Y63516667D01*
X54483333Y63483334D01*
X54550000Y63450000D01*
X54616666Y63450000D01*
X54716666Y63483334D01*
X55116666Y63883334D01*
X55116666Y63450000D01*
X20116666Y64516667D02*
X19416666Y64516667D01*
X19416666Y64350000D01*
X19450000Y64250000D01*
X19516666Y64183334D01*
X19583333Y64150000D01*
X19716666Y64116667D01*
X19816666Y64116667D01*
X19950000Y64150000D01*
X20016666Y64183334D01*
X20083333Y64250000D01*
X20116666Y64350000D01*
X20116666Y64516667D01*
X19483333Y63850000D02*
X19450000Y63816667D01*
X19416666Y63750000D01*
X19416666Y63583334D01*
X19450000Y63516667D01*
X19483333Y63483334D01*
X19550000Y63450000D01*
X19616666Y63450000D01*
X19716666Y63483334D01*
X20116666Y63883334D01*
X20116666Y63450000D01*
X55116666Y74516667D02*
X54416666Y74516667D01*
X54416666Y74350000D01*
X54450000Y74250000D01*
X54516666Y74183334D01*
X54583333Y74150000D01*
X54716666Y74116667D01*
X54816666Y74116667D01*
X54950000Y74150000D01*
X55016666Y74183334D01*
X55083333Y74250000D01*
X55116666Y74350000D01*
X55116666Y74516667D01*
X54483333Y73850000D02*
X54450000Y73816667D01*
X54416666Y73750000D01*
X54416666Y73583334D01*
X54450000Y73516667D01*
X54483333Y73483334D01*
X54550000Y73450000D01*
X54616666Y73450000D01*
X54716666Y73483334D01*
X55116666Y73883334D01*
X55116666Y73450000D01*
X20116666Y74516667D02*
X19416666Y74516667D01*
X19416666Y74350000D01*
X19450000Y74250000D01*
X19516666Y74183334D01*
X19583333Y74150000D01*
X19716666Y74116667D01*
X19816666Y74116667D01*
X19950000Y74150000D01*
X20016666Y74183334D01*
X20083333Y74250000D01*
X20116666Y74350000D01*
X20116666Y74516667D01*
X19483333Y73850000D02*
X19450000Y73816667D01*
X19416666Y73750000D01*
X19416666Y73583334D01*
X19450000Y73516667D01*
X19483333Y73483334D01*
X19550000Y73450000D01*
X19616666Y73450000D01*
X19716666Y73483334D01*
X20116666Y73883334D01*
X20116666Y73450000D01*
X55116666Y84516667D02*
X54416666Y84516667D01*
X54416666Y84350000D01*
X54450000Y84250000D01*
X54516666Y84183334D01*
X54583333Y84150000D01*
X54716666Y84116667D01*
X54816666Y84116667D01*
X54950000Y84150000D01*
X55016666Y84183334D01*
X55083333Y84250000D01*
X55116666Y84350000D01*
X55116666Y84516667D01*
X54483333Y83850000D02*
X54450000Y83816667D01*
X54416666Y83750000D01*
X54416666Y83583334D01*
X54450000Y83516667D01*
X54483333Y83483334D01*
X54550000Y83450000D01*
X54616666Y83450000D01*
X54716666Y83483334D01*
X55116666Y83883334D01*
X55116666Y83450000D01*
X20116666Y84516667D02*
X19416666Y84516667D01*
X19416666Y84350000D01*
X19450000Y84250000D01*
X19516666Y84183334D01*
X19583333Y84150000D01*
X19716666Y84116667D01*
X19816666Y84116667D01*
X19950000Y84150000D01*
X20016666Y84183334D01*
X20083333Y84250000D01*
X20116666Y84350000D01*
X20116666Y84516667D01*
X19483333Y83850000D02*
X19450000Y83816667D01*
X19416666Y83750000D01*
X19416666Y83583334D01*
X19450000Y83516667D01*
X19483333Y83483334D01*
X19550000Y83450000D01*
X19616666Y83450000D01*
X19716666Y83483334D01*
X20116666Y83883334D01*
X20116666Y83450000D01*
X55116666Y94516667D02*
X54416666Y94516667D01*
X54416666Y94350000D01*
X54450000Y94250000D01*
X54516666Y94183334D01*
X54583333Y94150000D01*
X54716666Y94116667D01*
X54816666Y94116667D01*
X54950000Y94150000D01*
X55016666Y94183334D01*
X55083333Y94250000D01*
X55116666Y94350000D01*
X55116666Y94516667D01*
X54483333Y93850000D02*
X54450000Y93816667D01*
X54416666Y93750000D01*
X54416666Y93583334D01*
X54450000Y93516667D01*
X54483333Y93483334D01*
X54550000Y93450000D01*
X54616666Y93450000D01*
X54716666Y93483334D01*
X55116666Y93883334D01*
X55116666Y93450000D01*
%TO.C,R3*%
X49261904Y4133334D02*
X48880952Y4400000D01*
X49261904Y4590477D02*
X48461904Y4590477D01*
X48461904Y4285715D01*
X48500000Y4209524D01*
X48538095Y4171429D01*
X48614285Y4133334D01*
X48728571Y4133334D01*
X48804761Y4171429D01*
X48842857Y4209524D01*
X48880952Y4285715D01*
X48880952Y4590477D01*
X48461904Y3866667D02*
X48461904Y3371429D01*
X48766666Y3638096D01*
X48766666Y3523810D01*
X48804761Y3447620D01*
X48842857Y3409524D01*
X48919047Y3371429D01*
X49109523Y3371429D01*
X49185714Y3409524D01*
X49223809Y3447620D01*
X49261904Y3523810D01*
X49261904Y3752381D01*
X49223809Y3828572D01*
X49185714Y3866667D01*
X14261904Y4133334D02*
X13880952Y4400000D01*
X14261904Y4590477D02*
X13461904Y4590477D01*
X13461904Y4285715D01*
X13500000Y4209524D01*
X13538095Y4171429D01*
X13614285Y4133334D01*
X13728571Y4133334D01*
X13804761Y4171429D01*
X13842857Y4209524D01*
X13880952Y4285715D01*
X13880952Y4590477D01*
X13461904Y3866667D02*
X13461904Y3371429D01*
X13766666Y3638096D01*
X13766666Y3523810D01*
X13804761Y3447620D01*
X13842857Y3409524D01*
X13919047Y3371429D01*
X14109523Y3371429D01*
X14185714Y3409524D01*
X14223809Y3447620D01*
X14261904Y3523810D01*
X14261904Y3752381D01*
X14223809Y3828572D01*
X14185714Y3866667D01*
X49261904Y14133334D02*
X48880952Y14400000D01*
X49261904Y14590477D02*
X48461904Y14590477D01*
X48461904Y14285715D01*
X48500000Y14209524D01*
X48538095Y14171429D01*
X48614285Y14133334D01*
X48728571Y14133334D01*
X48804761Y14171429D01*
X48842857Y14209524D01*
X48880952Y14285715D01*
X48880952Y14590477D01*
X48461904Y13866667D02*
X48461904Y13371429D01*
X48766666Y13638096D01*
X48766666Y13523810D01*
X48804761Y13447620D01*
X48842857Y13409524D01*
X48919047Y13371429D01*
X49109523Y13371429D01*
X49185714Y13409524D01*
X49223809Y13447620D01*
X49261904Y13523810D01*
X49261904Y13752381D01*
X49223809Y13828572D01*
X49185714Y13866667D01*
X14261904Y14133334D02*
X13880952Y14400000D01*
X14261904Y14590477D02*
X13461904Y14590477D01*
X13461904Y14285715D01*
X13500000Y14209524D01*
X13538095Y14171429D01*
X13614285Y14133334D01*
X13728571Y14133334D01*
X13804761Y14171429D01*
X13842857Y14209524D01*
X13880952Y14285715D01*
X13880952Y14590477D01*
X13461904Y13866667D02*
X13461904Y13371429D01*
X13766666Y13638096D01*
X13766666Y13523810D01*
X13804761Y13447620D01*
X13842857Y13409524D01*
X13919047Y13371429D01*
X14109523Y13371429D01*
X14185714Y13409524D01*
X14223809Y13447620D01*
X14261904Y13523810D01*
X14261904Y13752381D01*
X14223809Y13828572D01*
X14185714Y13866667D01*
X49261904Y24133334D02*
X48880952Y24400000D01*
X49261904Y24590477D02*
X48461904Y24590477D01*
X48461904Y24285715D01*
X48500000Y24209524D01*
X48538095Y24171429D01*
X48614285Y24133334D01*
X48728571Y24133334D01*
X48804761Y24171429D01*
X48842857Y24209524D01*
X48880952Y24285715D01*
X48880952Y24590477D01*
X48461904Y23866667D02*
X48461904Y23371429D01*
X48766666Y23638096D01*
X48766666Y23523810D01*
X48804761Y23447620D01*
X48842857Y23409524D01*
X48919047Y23371429D01*
X49109523Y23371429D01*
X49185714Y23409524D01*
X49223809Y23447620D01*
X49261904Y23523810D01*
X49261904Y23752381D01*
X49223809Y23828572D01*
X49185714Y23866667D01*
X14261904Y24133334D02*
X13880952Y24400000D01*
X14261904Y24590477D02*
X13461904Y24590477D01*
X13461904Y24285715D01*
X13500000Y24209524D01*
X13538095Y24171429D01*
X13614285Y24133334D01*
X13728571Y24133334D01*
X13804761Y24171429D01*
X13842857Y24209524D01*
X13880952Y24285715D01*
X13880952Y24590477D01*
X13461904Y23866667D02*
X13461904Y23371429D01*
X13766666Y23638096D01*
X13766666Y23523810D01*
X13804761Y23447620D01*
X13842857Y23409524D01*
X13919047Y23371429D01*
X14109523Y23371429D01*
X14185714Y23409524D01*
X14223809Y23447620D01*
X14261904Y23523810D01*
X14261904Y23752381D01*
X14223809Y23828572D01*
X14185714Y23866667D01*
X49261904Y34133334D02*
X48880952Y34400000D01*
X49261904Y34590477D02*
X48461904Y34590477D01*
X48461904Y34285715D01*
X48500000Y34209524D01*
X48538095Y34171429D01*
X48614285Y34133334D01*
X48728571Y34133334D01*
X48804761Y34171429D01*
X48842857Y34209524D01*
X48880952Y34285715D01*
X48880952Y34590477D01*
X48461904Y33866667D02*
X48461904Y33371429D01*
X48766666Y33638096D01*
X48766666Y33523810D01*
X48804761Y33447620D01*
X48842857Y33409524D01*
X48919047Y33371429D01*
X49109523Y33371429D01*
X49185714Y33409524D01*
X49223809Y33447620D01*
X49261904Y33523810D01*
X49261904Y33752381D01*
X49223809Y33828572D01*
X49185714Y33866667D01*
X14261904Y34133334D02*
X13880952Y34400000D01*
X14261904Y34590477D02*
X13461904Y34590477D01*
X13461904Y34285715D01*
X13500000Y34209524D01*
X13538095Y34171429D01*
X13614285Y34133334D01*
X13728571Y34133334D01*
X13804761Y34171429D01*
X13842857Y34209524D01*
X13880952Y34285715D01*
X13880952Y34590477D01*
X13461904Y33866667D02*
X13461904Y33371429D01*
X13766666Y33638096D01*
X13766666Y33523810D01*
X13804761Y33447620D01*
X13842857Y33409524D01*
X13919047Y33371429D01*
X14109523Y33371429D01*
X14185714Y33409524D01*
X14223809Y33447620D01*
X14261904Y33523810D01*
X14261904Y33752381D01*
X14223809Y33828572D01*
X14185714Y33866667D01*
X49261904Y44133334D02*
X48880952Y44400000D01*
X49261904Y44590477D02*
X48461904Y44590477D01*
X48461904Y44285715D01*
X48500000Y44209524D01*
X48538095Y44171429D01*
X48614285Y44133334D01*
X48728571Y44133334D01*
X48804761Y44171429D01*
X48842857Y44209524D01*
X48880952Y44285715D01*
X48880952Y44590477D01*
X48461904Y43866667D02*
X48461904Y43371429D01*
X48766666Y43638096D01*
X48766666Y43523810D01*
X48804761Y43447620D01*
X48842857Y43409524D01*
X48919047Y43371429D01*
X49109523Y43371429D01*
X49185714Y43409524D01*
X49223809Y43447620D01*
X49261904Y43523810D01*
X49261904Y43752381D01*
X49223809Y43828572D01*
X49185714Y43866667D01*
X14261904Y44133334D02*
X13880952Y44400000D01*
X14261904Y44590477D02*
X13461904Y44590477D01*
X13461904Y44285715D01*
X13500000Y44209524D01*
X13538095Y44171429D01*
X13614285Y44133334D01*
X13728571Y44133334D01*
X13804761Y44171429D01*
X13842857Y44209524D01*
X13880952Y44285715D01*
X13880952Y44590477D01*
X13461904Y43866667D02*
X13461904Y43371429D01*
X13766666Y43638096D01*
X13766666Y43523810D01*
X13804761Y43447620D01*
X13842857Y43409524D01*
X13919047Y43371429D01*
X14109523Y43371429D01*
X14185714Y43409524D01*
X14223809Y43447620D01*
X14261904Y43523810D01*
X14261904Y43752381D01*
X14223809Y43828572D01*
X14185714Y43866667D01*
X49261904Y54133334D02*
X48880952Y54400000D01*
X49261904Y54590477D02*
X48461904Y54590477D01*
X48461904Y54285715D01*
X48500000Y54209524D01*
X48538095Y54171429D01*
X48614285Y54133334D01*
X48728571Y54133334D01*
X48804761Y54171429D01*
X48842857Y54209524D01*
X48880952Y54285715D01*
X48880952Y54590477D01*
X48461904Y53866667D02*
X48461904Y53371429D01*
X48766666Y53638096D01*
X48766666Y53523810D01*
X48804761Y53447620D01*
X48842857Y53409524D01*
X48919047Y53371429D01*
X49109523Y53371429D01*
X49185714Y53409524D01*
X49223809Y53447620D01*
X49261904Y53523810D01*
X49261904Y53752381D01*
X49223809Y53828572D01*
X49185714Y53866667D01*
X14261904Y54133334D02*
X13880952Y54400000D01*
X14261904Y54590477D02*
X13461904Y54590477D01*
X13461904Y54285715D01*
X13500000Y54209524D01*
X13538095Y54171429D01*
X13614285Y54133334D01*
X13728571Y54133334D01*
X13804761Y54171429D01*
X13842857Y54209524D01*
X13880952Y54285715D01*
X13880952Y54590477D01*
X13461904Y53866667D02*
X13461904Y53371429D01*
X13766666Y53638096D01*
X13766666Y53523810D01*
X13804761Y53447620D01*
X13842857Y53409524D01*
X13919047Y53371429D01*
X14109523Y53371429D01*
X14185714Y53409524D01*
X14223809Y53447620D01*
X14261904Y53523810D01*
X14261904Y53752381D01*
X14223809Y53828572D01*
X14185714Y53866667D01*
X49261904Y64133334D02*
X48880952Y64400000D01*
X49261904Y64590477D02*
X48461904Y64590477D01*
X48461904Y64285715D01*
X48500000Y64209524D01*
X48538095Y64171429D01*
X48614285Y64133334D01*
X48728571Y64133334D01*
X48804761Y64171429D01*
X48842857Y64209524D01*
X48880952Y64285715D01*
X48880952Y64590477D01*
X48461904Y63866667D02*
X48461904Y63371429D01*
X48766666Y63638096D01*
X48766666Y63523810D01*
X48804761Y63447620D01*
X48842857Y63409524D01*
X48919047Y63371429D01*
X49109523Y63371429D01*
X49185714Y63409524D01*
X49223809Y63447620D01*
X49261904Y63523810D01*
X49261904Y63752381D01*
X49223809Y63828572D01*
X49185714Y63866667D01*
X14261904Y64133334D02*
X13880952Y64400000D01*
X14261904Y64590477D02*
X13461904Y64590477D01*
X13461904Y64285715D01*
X13500000Y64209524D01*
X13538095Y64171429D01*
X13614285Y64133334D01*
X13728571Y64133334D01*
X13804761Y64171429D01*
X13842857Y64209524D01*
X13880952Y64285715D01*
X13880952Y64590477D01*
X13461904Y63866667D02*
X13461904Y63371429D01*
X13766666Y63638096D01*
X13766666Y63523810D01*
X13804761Y63447620D01*
X13842857Y63409524D01*
X13919047Y63371429D01*
X14109523Y63371429D01*
X14185714Y63409524D01*
X14223809Y63447620D01*
X14261904Y63523810D01*
X14261904Y63752381D01*
X14223809Y63828572D01*
X14185714Y63866667D01*
X49261904Y74133334D02*
X48880952Y74400000D01*
X49261904Y74590477D02*
X48461904Y74590477D01*
X48461904Y74285715D01*
X48500000Y74209524D01*
X48538095Y74171429D01*
X48614285Y74133334D01*
X48728571Y74133334D01*
X48804761Y74171429D01*
X48842857Y74209524D01*
X48880952Y74285715D01*
X48880952Y74590477D01*
X48461904Y73866667D02*
X48461904Y73371429D01*
X48766666Y73638096D01*
X48766666Y73523810D01*
X48804761Y73447620D01*
X48842857Y73409524D01*
X48919047Y73371429D01*
X49109523Y73371429D01*
X49185714Y73409524D01*
X49223809Y73447620D01*
X49261904Y73523810D01*
X49261904Y73752381D01*
X49223809Y73828572D01*
X49185714Y73866667D01*
X14261904Y74133334D02*
X13880952Y74400000D01*
X14261904Y74590477D02*
X13461904Y74590477D01*
X13461904Y74285715D01*
X13500000Y74209524D01*
X13538095Y74171429D01*
X13614285Y74133334D01*
X13728571Y74133334D01*
X13804761Y74171429D01*
X13842857Y74209524D01*
X13880952Y74285715D01*
X13880952Y74590477D01*
X13461904Y73866667D02*
X13461904Y73371429D01*
X13766666Y73638096D01*
X13766666Y73523810D01*
X13804761Y73447620D01*
X13842857Y73409524D01*
X13919047Y73371429D01*
X14109523Y73371429D01*
X14185714Y73409524D01*
X14223809Y73447620D01*
X14261904Y73523810D01*
X14261904Y73752381D01*
X14223809Y73828572D01*
X14185714Y73866667D01*
X49261904Y84133334D02*
X48880952Y84400000D01*
X49261904Y84590477D02*
X48461904Y84590477D01*
X48461904Y84285715D01*
X48500000Y84209524D01*
X48538095Y84171429D01*
X48614285Y84133334D01*
X48728571Y84133334D01*
X48804761Y84171429D01*
X48842857Y84209524D01*
X48880952Y84285715D01*
X48880952Y84590477D01*
X48461904Y83866667D02*
X48461904Y83371429D01*
X48766666Y83638096D01*
X48766666Y83523810D01*
X48804761Y83447620D01*
X48842857Y83409524D01*
X48919047Y83371429D01*
X49109523Y83371429D01*
X49185714Y83409524D01*
X49223809Y83447620D01*
X49261904Y83523810D01*
X49261904Y83752381D01*
X49223809Y83828572D01*
X49185714Y83866667D01*
X14261904Y84133334D02*
X13880952Y84400000D01*
X14261904Y84590477D02*
X13461904Y84590477D01*
X13461904Y84285715D01*
X13500000Y84209524D01*
X13538095Y84171429D01*
X13614285Y84133334D01*
X13728571Y84133334D01*
X13804761Y84171429D01*
X13842857Y84209524D01*
X13880952Y84285715D01*
X13880952Y84590477D01*
X13461904Y83866667D02*
X13461904Y83371429D01*
X13766666Y83638096D01*
X13766666Y83523810D01*
X13804761Y83447620D01*
X13842857Y83409524D01*
X13919047Y83371429D01*
X14109523Y83371429D01*
X14185714Y83409524D01*
X14223809Y83447620D01*
X14261904Y83523810D01*
X14261904Y83752381D01*
X14223809Y83828572D01*
X14185714Y83866667D01*
X49261904Y94133334D02*
X48880952Y94400000D01*
X49261904Y94590477D02*
X48461904Y94590477D01*
X48461904Y94285715D01*
X48500000Y94209524D01*
X48538095Y94171429D01*
X48614285Y94133334D01*
X48728571Y94133334D01*
X48804761Y94171429D01*
X48842857Y94209524D01*
X48880952Y94285715D01*
X48880952Y94590477D01*
X48461904Y93866667D02*
X48461904Y93371429D01*
X48766666Y93638096D01*
X48766666Y93523810D01*
X48804761Y93447620D01*
X48842857Y93409524D01*
X48919047Y93371429D01*
X49109523Y93371429D01*
X49185714Y93409524D01*
X49223809Y93447620D01*
X49261904Y93523810D01*
X49261904Y93752381D01*
X49223809Y93828572D01*
X49185714Y93866667D01*
%TO.C,D1*%
X30116666Y94516667D02*
X29416666Y94516667D01*
X29416666Y94350000D01*
X29450000Y94250000D01*
X29516666Y94183334D01*
X29583333Y94150000D01*
X29716666Y94116667D01*
X29816666Y94116667D01*
X29950000Y94150000D01*
X30016666Y94183334D01*
X30083333Y94250000D01*
X30116666Y94350000D01*
X30116666Y94516667D01*
X30116666Y93450000D02*
X30116666Y93850000D01*
X30116666Y93650000D02*
X29416666Y93650000D01*
X29516666Y93716667D01*
X29583333Y93783334D01*
X29616666Y93850000D01*
%TO.C,D2*%
X20116666Y94516667D02*
X19416666Y94516667D01*
X19416666Y94350000D01*
X19450000Y94250000D01*
X19516666Y94183334D01*
X19583333Y94150000D01*
X19716666Y94116667D01*
X19816666Y94116667D01*
X19950000Y94150000D01*
X20016666Y94183334D01*
X20083333Y94250000D01*
X20116666Y94350000D01*
X20116666Y94516667D01*
X19483333Y93850000D02*
X19450000Y93816667D01*
X19416666Y93750000D01*
X19416666Y93583334D01*
X19450000Y93516667D01*
X19483333Y93483334D01*
X19550000Y93450000D01*
X19616666Y93450000D01*
X19716666Y93483334D01*
X20116666Y93883334D01*
X20116666Y93450000D01*
%TO.C,D3*%
X10116666Y94516667D02*
X9416666Y94516667D01*
X9416666Y94350000D01*
X9450000Y94250000D01*
X9516666Y94183334D01*
X9583333Y94150000D01*
X9716666Y94116667D01*
X9816666Y94116667D01*
X9950000Y94150000D01*
X10016666Y94183334D01*
X10083333Y94250000D01*
X10116666Y94350000D01*
X10116666Y94516667D01*
X9416666Y93883334D02*
X9416666Y93450000D01*
X9683333Y93683334D01*
X9683333Y93583334D01*
X9716666Y93516667D01*
X9750000Y93483334D01*
X9816666Y93450000D01*
X9983333Y93450000D01*
X10050000Y93483334D01*
X10083333Y93516667D01*
X10116666Y93583334D01*
X10116666Y93783334D01*
X10083333Y93850000D01*
X10050000Y93883334D01*
%TO.C,R1*%
X34261904Y94133334D02*
X33880952Y94400000D01*
X34261904Y94590477D02*
X33461904Y94590477D01*
X33461904Y94285715D01*
X33500000Y94209524D01*
X33538095Y94171429D01*
X33614285Y94133334D01*
X33728571Y94133334D01*
X33804761Y94171429D01*
X33842857Y94209524D01*
X33880952Y94285715D01*
X33880952Y94590477D01*
X34261904Y93371429D02*
X34261904Y93828572D01*
X34261904Y93600000D02*
X33461904Y93600000D01*
X33576190Y93676191D01*
X33652380Y93752381D01*
X33690476Y93828572D01*
%TO.C,R2*%
X24261904Y94133334D02*
X23880952Y94400000D01*
X24261904Y94590477D02*
X23461904Y94590477D01*
X23461904Y94285715D01*
X23500000Y94209524D01*
X23538095Y94171429D01*
X23614285Y94133334D01*
X23728571Y94133334D01*
X23804761Y94171429D01*
X23842857Y94209524D01*
X23880952Y94285715D01*
X23880952Y94590477D01*
X23538095Y93828572D02*
X23500000Y93790477D01*
X23461904Y93714286D01*
X23461904Y93523810D01*
X23500000Y93447620D01*
X23538095Y93409524D01*
X23614285Y93371429D01*
X23690476Y93371429D01*
X23804761Y93409524D01*
X24261904Y93866667D01*
X24261904Y93371429D01*
%TO.C,R3*%
X14261904Y94133334D02*
X13880952Y94400000D01*
X14261904Y94590477D02*
X13461904Y94590477D01*
X13461904Y94285715D01*
X13500000Y94209524D01*
X13538095Y94171429D01*
X13614285Y94133334D01*
X13728571Y94133334D01*
X13804761Y94171429D01*
X13842857Y94209524D01*
X13880952Y94285715D01*
X13880952Y94590477D01*
X13461904Y93866667D02*
X13461904Y93371429D01*
X13766666Y93638096D01*
X13766666Y93523810D01*
X13804761Y93447620D01*
X13842857Y93409524D01*
X13919047Y93371429D01*
X14109523Y93371429D01*
X14185714Y93409524D01*
X14223809Y93447620D01*
X14261904Y93523810D01*
X14261904Y93752381D01*
X14223809Y93828572D01*
X14185714Y93866667D01*
%TD*%
%LPC*%
D16*
%TO.C,REF\u002A\u002A*%
X74500000Y4000000D03*
%TD*%
%TO.C,REF\u002A\u002A*%
X74500000Y14000000D03*
%TD*%
%TO.C,REF\u002A\u002A*%
X74500000Y24000000D03*
%TD*%
%TO.C,REF\u002A\u002A*%
X74500000Y34000000D03*
%TD*%
%TO.C,REF\u002A\u002A*%
X74500000Y44000000D03*
%TD*%
%TO.C,REF\u002A\u002A*%
X74500000Y54000000D03*
%TD*%
%TO.C,REF\u002A\u002A*%
X74500000Y64000000D03*
%TD*%
%TO.C,REF\u002A\u002A*%
X74500000Y74000000D03*
%TD*%
%TO.C,REF\u002A\u002A*%
X74500000Y84000000D03*
%TD*%
%TO.C,REF\u002A\u002A*%
X74500000Y94000000D03*
%TD*%
%TO.C,REF\u002A\u002A*%
X2500000Y4000000D03*
%TD*%
%TO.C,REF\u002A\u002A*%
X2500000Y14000000D03*
%TD*%
%TO.C,REF\u002A\u002A*%
X2500000Y24000000D03*
%TD*%
%TO.C,REF\u002A\u002A*%
X2500000Y34000000D03*
%TD*%
%TO.C,REF\u002A\u002A*%
X2500000Y44000000D03*
%TD*%
%TO.C,REF\u002A\u002A*%
X2500000Y54000000D03*
%TD*%
%TO.C,REF\u002A\u002A*%
X2500000Y64000000D03*
%TD*%
%TO.C,REF\u002A\u002A*%
X2500000Y74000000D03*
%TD*%
%TO.C,REF\u002A\u002A*%
X2500000Y84000000D03*
%TD*%
D17*
%TO.C,R1*%
X67500000Y4825000D03*
X67500000Y3175000D03*
%TD*%
%TO.C,R1*%
X32500000Y4825000D03*
X32500000Y3175000D03*
%TD*%
%TO.C,R1*%
X67500000Y14825000D03*
X67500000Y13175000D03*
%TD*%
%TO.C,R1*%
X32500000Y14825000D03*
X32500000Y13175000D03*
%TD*%
%TO.C,R1*%
X67500000Y24825000D03*
X67500000Y23175000D03*
%TD*%
%TO.C,R1*%
X32500000Y24825000D03*
X32500000Y23175000D03*
%TD*%
%TO.C,R1*%
X67500000Y34825000D03*
X67500000Y33175000D03*
%TD*%
%TO.C,R1*%
X32500000Y34825000D03*
X32500000Y33175000D03*
%TD*%
%TO.C,R1*%
X67500000Y44825000D03*
X67500000Y43175000D03*
%TD*%
%TO.C,R1*%
X32500000Y44825000D03*
X32500000Y43175000D03*
%TD*%
%TO.C,R1*%
X67500000Y54825000D03*
X67500000Y53175000D03*
%TD*%
%TO.C,R1*%
X32500000Y54825000D03*
X32500000Y53175000D03*
%TD*%
%TO.C,R1*%
X67500000Y64825000D03*
X67500000Y63175000D03*
%TD*%
%TO.C,R1*%
X32500000Y64825000D03*
X32500000Y63175000D03*
%TD*%
%TO.C,R1*%
X67500000Y74825000D03*
X67500000Y73175000D03*
%TD*%
%TO.C,R1*%
X32500000Y74825000D03*
X32500000Y73175000D03*
%TD*%
%TO.C,R1*%
X67500000Y84825000D03*
X67500000Y83175000D03*
%TD*%
%TO.C,R1*%
X32500000Y84825000D03*
X32500000Y83175000D03*
%TD*%
%TO.C,R1*%
X67500000Y94825000D03*
X67500000Y93175000D03*
%TD*%
D18*
%TO.C,J2*%
X42500000Y2250000D03*
%TD*%
%TO.C,J2*%
X7500000Y2250000D03*
%TD*%
%TO.C,J2*%
X42500000Y12250000D03*
%TD*%
%TO.C,J2*%
X7500000Y12250000D03*
%TD*%
%TO.C,J2*%
X42500000Y22250000D03*
%TD*%
%TO.C,J2*%
X7500000Y22250000D03*
%TD*%
%TO.C,J2*%
X42500000Y32250000D03*
%TD*%
%TO.C,J2*%
X7500000Y32250000D03*
%TD*%
%TO.C,J2*%
X42500000Y42250000D03*
%TD*%
%TO.C,J2*%
X7500000Y42250000D03*
%TD*%
%TO.C,J2*%
X42500000Y52250000D03*
%TD*%
%TO.C,J2*%
X7500000Y52250000D03*
%TD*%
%TO.C,J2*%
X42500000Y62250000D03*
%TD*%
%TO.C,J2*%
X7500000Y62250000D03*
%TD*%
%TO.C,J2*%
X42500000Y72250000D03*
%TD*%
%TO.C,J2*%
X7500000Y72250000D03*
%TD*%
%TO.C,J2*%
X42500000Y82250000D03*
%TD*%
%TO.C,J2*%
X7500000Y82250000D03*
%TD*%
%TO.C,J2*%
X42500000Y92250000D03*
%TD*%
%TO.C,J4*%
X42500000Y5750000D03*
%TD*%
%TO.C,J4*%
X7500000Y5750000D03*
%TD*%
%TO.C,J4*%
X42500000Y15750000D03*
%TD*%
%TO.C,J4*%
X7500000Y15750000D03*
%TD*%
%TO.C,J4*%
X42500000Y25750000D03*
%TD*%
%TO.C,J4*%
X7500000Y25750000D03*
%TD*%
%TO.C,J4*%
X42500000Y35750000D03*
%TD*%
%TO.C,J4*%
X7500000Y35750000D03*
%TD*%
%TO.C,J4*%
X42500000Y45750000D03*
%TD*%
%TO.C,J4*%
X7500000Y45750000D03*
%TD*%
%TO.C,J4*%
X42500000Y55750000D03*
%TD*%
%TO.C,J4*%
X7500000Y55750000D03*
%TD*%
%TO.C,J4*%
X42500000Y65750000D03*
%TD*%
%TO.C,J4*%
X7500000Y65750000D03*
%TD*%
%TO.C,J4*%
X42500000Y75750000D03*
%TD*%
%TO.C,J4*%
X7500000Y75750000D03*
%TD*%
%TO.C,J4*%
X42500000Y85750000D03*
%TD*%
%TO.C,J4*%
X7500000Y85750000D03*
%TD*%
%TO.C,J4*%
X42500000Y95750000D03*
%TD*%
D17*
%TO.C,R2*%
X57500000Y3175000D03*
X57500000Y4825000D03*
%TD*%
%TO.C,R2*%
X22500000Y3175000D03*
X22500000Y4825000D03*
%TD*%
%TO.C,R2*%
X57500000Y13175000D03*
X57500000Y14825000D03*
%TD*%
%TO.C,R2*%
X22500000Y13175000D03*
X22500000Y14825000D03*
%TD*%
%TO.C,R2*%
X57500000Y23175000D03*
X57500000Y24825000D03*
%TD*%
%TO.C,R2*%
X22500000Y23175000D03*
X22500000Y24825000D03*
%TD*%
%TO.C,R2*%
X57500000Y33175000D03*
X57500000Y34825000D03*
%TD*%
%TO.C,R2*%
X22500000Y33175000D03*
X22500000Y34825000D03*
%TD*%
%TO.C,R2*%
X57500000Y43175000D03*
X57500000Y44825000D03*
%TD*%
%TO.C,R2*%
X22500000Y43175000D03*
X22500000Y44825000D03*
%TD*%
%TO.C,R2*%
X57500000Y53175000D03*
X57500000Y54825000D03*
%TD*%
%TO.C,R2*%
X22500000Y53175000D03*
X22500000Y54825000D03*
%TD*%
%TO.C,R2*%
X57500000Y63175000D03*
X57500000Y64825000D03*
%TD*%
%TO.C,R2*%
X22500000Y63175000D03*
X22500000Y64825000D03*
%TD*%
%TO.C,R2*%
X57500000Y73175000D03*
X57500000Y74825000D03*
%TD*%
%TO.C,R2*%
X22500000Y73175000D03*
X22500000Y74825000D03*
%TD*%
%TO.C,R2*%
X57500000Y83175000D03*
X57500000Y84825000D03*
%TD*%
%TO.C,R2*%
X22500000Y83175000D03*
X22500000Y84825000D03*
%TD*%
%TO.C,R2*%
X57500000Y93175000D03*
X57500000Y94825000D03*
%TD*%
D19*
%TO.C,D3*%
X46000000Y3150000D03*
X46000000Y4850000D03*
%TD*%
%TO.C,D3*%
X11000000Y3150000D03*
X11000000Y4850000D03*
%TD*%
%TO.C,D3*%
X46000000Y13150000D03*
X46000000Y14850000D03*
%TD*%
%TO.C,D3*%
X11000000Y13150000D03*
X11000000Y14850000D03*
%TD*%
%TO.C,D3*%
X46000000Y23150000D03*
X46000000Y24850000D03*
%TD*%
%TO.C,D3*%
X11000000Y23150000D03*
X11000000Y24850000D03*
%TD*%
%TO.C,D3*%
X46000000Y33150000D03*
X46000000Y34850000D03*
%TD*%
%TO.C,D3*%
X11000000Y33150000D03*
X11000000Y34850000D03*
%TD*%
%TO.C,D3*%
X46000000Y43150000D03*
X46000000Y44850000D03*
%TD*%
%TO.C,D3*%
X11000000Y43150000D03*
X11000000Y44850000D03*
%TD*%
%TO.C,D3*%
X46000000Y53150000D03*
X46000000Y54850000D03*
%TD*%
%TO.C,D3*%
X11000000Y53150000D03*
X11000000Y54850000D03*
%TD*%
%TO.C,D3*%
X46000000Y63150000D03*
X46000000Y64850000D03*
%TD*%
%TO.C,D3*%
X11000000Y63150000D03*
X11000000Y64850000D03*
%TD*%
%TO.C,D3*%
X46000000Y73150000D03*
X46000000Y74850000D03*
%TD*%
%TO.C,D3*%
X11000000Y73150000D03*
X11000000Y74850000D03*
%TD*%
%TO.C,D3*%
X46000000Y83150000D03*
X46000000Y84850000D03*
%TD*%
%TO.C,D3*%
X11000000Y83150000D03*
X11000000Y84850000D03*
%TD*%
%TO.C,D3*%
X46000000Y93150000D03*
X46000000Y94850000D03*
%TD*%
%TO.C,D1*%
X66000000Y3150000D03*
X66000000Y4850000D03*
%TD*%
%TO.C,D1*%
X31000000Y3150000D03*
X31000000Y4850000D03*
%TD*%
%TO.C,D1*%
X66000000Y13150000D03*
X66000000Y14850000D03*
%TD*%
%TO.C,D1*%
X31000000Y13150000D03*
X31000000Y14850000D03*
%TD*%
%TO.C,D1*%
X66000000Y23150000D03*
X66000000Y24850000D03*
%TD*%
%TO.C,D1*%
X31000000Y23150000D03*
X31000000Y24850000D03*
%TD*%
%TO.C,D1*%
X66000000Y33150000D03*
X66000000Y34850000D03*
%TD*%
%TO.C,D1*%
X31000000Y33150000D03*
X31000000Y34850000D03*
%TD*%
%TO.C,D1*%
X66000000Y43150000D03*
X66000000Y44850000D03*
%TD*%
%TO.C,D1*%
X31000000Y43150000D03*
X31000000Y44850000D03*
%TD*%
%TO.C,D1*%
X66000000Y53150000D03*
X66000000Y54850000D03*
%TD*%
%TO.C,D1*%
X31000000Y53150000D03*
X31000000Y54850000D03*
%TD*%
%TO.C,D1*%
X66000000Y63150000D03*
X66000000Y64850000D03*
%TD*%
%TO.C,D1*%
X31000000Y63150000D03*
X31000000Y64850000D03*
%TD*%
%TO.C,D1*%
X66000000Y73150000D03*
X66000000Y74850000D03*
%TD*%
%TO.C,D1*%
X31000000Y73150000D03*
X31000000Y74850000D03*
%TD*%
%TO.C,D1*%
X66000000Y83150000D03*
X66000000Y84850000D03*
%TD*%
%TO.C,D1*%
X31000000Y83150000D03*
X31000000Y84850000D03*
%TD*%
%TO.C,D1*%
X66000000Y93150000D03*
X66000000Y94850000D03*
%TD*%
D18*
%TO.C,J3*%
X69500000Y5750000D03*
%TD*%
%TO.C,J3*%
X34500000Y5750000D03*
%TD*%
%TO.C,J3*%
X69500000Y15750000D03*
%TD*%
%TO.C,J3*%
X34500000Y15750000D03*
%TD*%
%TO.C,J3*%
X69500000Y25750000D03*
%TD*%
%TO.C,J3*%
X34500000Y25750000D03*
%TD*%
%TO.C,J3*%
X69500000Y35750000D03*
%TD*%
%TO.C,J3*%
X34500000Y35750000D03*
%TD*%
%TO.C,J3*%
X69500000Y45750000D03*
%TD*%
%TO.C,J3*%
X34500000Y45750000D03*
%TD*%
%TO.C,J3*%
X69500000Y55750000D03*
%TD*%
%TO.C,J3*%
X34500000Y55750000D03*
%TD*%
%TO.C,J3*%
X69500000Y65750000D03*
%TD*%
%TO.C,J3*%
X34500000Y65750000D03*
%TD*%
%TO.C,J3*%
X69500000Y75750000D03*
%TD*%
%TO.C,J3*%
X34500000Y75750000D03*
%TD*%
%TO.C,J3*%
X69500000Y85750000D03*
%TD*%
%TO.C,J3*%
X34500000Y85750000D03*
%TD*%
%TO.C,J3*%
X69500000Y95750000D03*
%TD*%
%TO.C,J1*%
X69500000Y2250000D03*
%TD*%
%TO.C,J1*%
X34500000Y2250000D03*
%TD*%
%TO.C,J1*%
X69500000Y12250000D03*
%TD*%
%TO.C,J1*%
X34500000Y12250000D03*
%TD*%
%TO.C,J1*%
X69500000Y22250000D03*
%TD*%
%TO.C,J1*%
X34500000Y22250000D03*
%TD*%
%TO.C,J1*%
X69500000Y32250000D03*
%TD*%
%TO.C,J1*%
X34500000Y32250000D03*
%TD*%
%TO.C,J1*%
X69500000Y42250000D03*
%TD*%
%TO.C,J1*%
X34500000Y42250000D03*
%TD*%
%TO.C,J1*%
X69500000Y52250000D03*
%TD*%
%TO.C,J1*%
X34500000Y52250000D03*
%TD*%
%TO.C,J1*%
X69500000Y62250000D03*
%TD*%
%TO.C,J1*%
X34500000Y62250000D03*
%TD*%
%TO.C,J1*%
X69500000Y72250000D03*
%TD*%
%TO.C,J1*%
X34500000Y72250000D03*
%TD*%
%TO.C,J1*%
X69500000Y82250000D03*
%TD*%
%TO.C,J1*%
X34500000Y82250000D03*
%TD*%
%TO.C,J1*%
X69500000Y92250000D03*
%TD*%
D19*
%TO.C,D2*%
X56000000Y4850000D03*
X56000000Y3150000D03*
%TD*%
%TO.C,D2*%
X21000000Y4850000D03*
X21000000Y3150000D03*
%TD*%
%TO.C,D2*%
X56000000Y14850000D03*
X56000000Y13150000D03*
%TD*%
%TO.C,D2*%
X21000000Y14850000D03*
X21000000Y13150000D03*
%TD*%
%TO.C,D2*%
X56000000Y24850000D03*
X56000000Y23150000D03*
%TD*%
%TO.C,D2*%
X21000000Y24850000D03*
X21000000Y23150000D03*
%TD*%
%TO.C,D2*%
X56000000Y34850000D03*
X56000000Y33150000D03*
%TD*%
%TO.C,D2*%
X21000000Y34850000D03*
X21000000Y33150000D03*
%TD*%
%TO.C,D2*%
X56000000Y44850000D03*
X56000000Y43150000D03*
%TD*%
%TO.C,D2*%
X21000000Y44850000D03*
X21000000Y43150000D03*
%TD*%
%TO.C,D2*%
X56000000Y54850000D03*
X56000000Y53150000D03*
%TD*%
%TO.C,D2*%
X21000000Y54850000D03*
X21000000Y53150000D03*
%TD*%
%TO.C,D2*%
X56000000Y64850000D03*
X56000000Y63150000D03*
%TD*%
%TO.C,D2*%
X21000000Y64850000D03*
X21000000Y63150000D03*
%TD*%
%TO.C,D2*%
X56000000Y74850000D03*
X56000000Y73150000D03*
%TD*%
%TO.C,D2*%
X21000000Y74850000D03*
X21000000Y73150000D03*
%TD*%
%TO.C,D2*%
X56000000Y84850000D03*
X56000000Y83150000D03*
%TD*%
%TO.C,D2*%
X21000000Y84850000D03*
X21000000Y83150000D03*
%TD*%
%TO.C,D2*%
X56000000Y94850000D03*
X56000000Y93150000D03*
%TD*%
D17*
%TO.C,R3*%
X47500000Y4825000D03*
X47500000Y3175000D03*
%TD*%
%TO.C,R3*%
X12500000Y4825000D03*
X12500000Y3175000D03*
%TD*%
%TO.C,R3*%
X47500000Y14825000D03*
X47500000Y13175000D03*
%TD*%
%TO.C,R3*%
X12500000Y14825000D03*
X12500000Y13175000D03*
%TD*%
%TO.C,R3*%
X47500000Y24825000D03*
X47500000Y23175000D03*
%TD*%
%TO.C,R3*%
X12500000Y24825000D03*
X12500000Y23175000D03*
%TD*%
%TO.C,R3*%
X47500000Y34825000D03*
X47500000Y33175000D03*
%TD*%
%TO.C,R3*%
X12500000Y34825000D03*
X12500000Y33175000D03*
%TD*%
%TO.C,R3*%
X47500000Y44825000D03*
X47500000Y43175000D03*
%TD*%
%TO.C,R3*%
X12500000Y44825000D03*
X12500000Y43175000D03*
%TD*%
%TO.C,R3*%
X47500000Y54825000D03*
X47500000Y53175000D03*
%TD*%
%TO.C,R3*%
X12500000Y54825000D03*
X12500000Y53175000D03*
%TD*%
%TO.C,R3*%
X47500000Y64825000D03*
X47500000Y63175000D03*
%TD*%
%TO.C,R3*%
X12500000Y64825000D03*
X12500000Y63175000D03*
%TD*%
%TO.C,R3*%
X47500000Y74825000D03*
X47500000Y73175000D03*
%TD*%
%TO.C,R3*%
X12500000Y74825000D03*
X12500000Y73175000D03*
%TD*%
%TO.C,R3*%
X47500000Y84825000D03*
X47500000Y83175000D03*
%TD*%
%TO.C,R3*%
X12500000Y84825000D03*
X12500000Y83175000D03*
%TD*%
%TO.C,R3*%
X47500000Y94825000D03*
X47500000Y93175000D03*
%TD*%
D16*
%TO.C,REF\u002A\u002A*%
X2500000Y94000000D03*
%TD*%
D19*
%TO.C,D1*%
X31000000Y94850000D03*
X31000000Y93150000D03*
%TD*%
%TO.C,D2*%
X21000000Y93150000D03*
X21000000Y94850000D03*
%TD*%
%TO.C,D3*%
X11000000Y94850000D03*
X11000000Y93150000D03*
%TD*%
D18*
%TO.C,J1*%
X34500000Y92250000D03*
%TD*%
%TO.C,J2*%
X7500000Y92250000D03*
%TD*%
%TO.C,J3*%
X34500000Y95750000D03*
%TD*%
%TO.C,J4*%
X7500000Y95750000D03*
%TD*%
D17*
%TO.C,R1*%
X32500000Y93175000D03*
X32500000Y94825000D03*
%TD*%
%TO.C,R2*%
X22500000Y94825000D03*
X22500000Y93175000D03*
%TD*%
%TO.C,R3*%
X12500000Y93175000D03*
X12500000Y94825000D03*
%TD*%
M02*
