M48
; DRILL file {KiCad 7.0.11} date Wed Feb 28 23:22:05 2024
; FORMAT={-:-/ absolute / metric / decimal}
; #@! TF.CreationDate,2024-02-28T23:22:05+09:00
; #@! TF.GenerationSoftware,Kicad,Pcbnew,7.0.11
; #@! TF.FileFunction,NonPlated,1,2,NPTH
FMAT,2
METRIC
; #@! TA.AperFunction,NonPlated,NPTH,ComponentDrill
T1C1.300
; #@! TA.AperFunction,NonPlated,NPTH,ComponentDrill
T2C2.000
%
G90
G05
T1
X137.25Y-93.25
X137.25Y-100.25
X137.25Y-105.25
X137.25Y-112.25
X137.25Y-117.25
X137.25Y-124.25
X137.25Y-129.25
X137.25Y-136.25
X155.25Y-45.25
X155.25Y-52.25
X155.25Y-57.25
X155.25Y-64.25
X155.25Y-69.25
X155.25Y-76.25
X155.25Y-81.25
X155.25Y-88.25
T2
X100.25Y-52.25
X100.25Y-64.25
X100.25Y-76.25
X100.25Y-88.25
X100.25Y-100.25
X100.25Y-112.25
X100.25Y-124.25
X100.25Y-136.25
X192.25Y-45.25
X192.25Y-57.25
X192.25Y-69.25
X192.25Y-81.25
X192.25Y-93.25
X192.25Y-105.25
X192.25Y-117.25
X192.25Y-129.25
M30
