G04 #@! TF.GenerationSoftware,KiCad,Pcbnew,7.0.11*
G04 #@! TF.CreationDate,2024-02-28T23:22:04+09:00*
G04 #@! TF.ProjectId,motordecoder2-t-dc100ra-p,6d6f746f-7264-4656-936f-646572322d74,rev?*
G04 #@! TF.SameCoordinates,Original*
G04 #@! TF.FileFunction,Paste,Top*
G04 #@! TF.FilePolarity,Positive*
%FSLAX46Y46*%
G04 Gerber Fmt 4.6, Leading zero omitted, Abs format (unit mm)*
G04 Created by KiCad (PCBNEW 7.0.11) date 2024-02-28 23:22:04*
%MOMM*%
%LPD*%
G01*
G04 APERTURE LIST*
G04 Aperture macros list*
%AMRoundRect*
0 Rectangle with rounded corners*
0 $1 Rounding radius*
0 $2 $3 $4 $5 $6 $7 $8 $9 X,Y pos of 4 corners*
0 Add a 4 corners polygon primitive as box body*
4,1,4,$2,$3,$4,$5,$6,$7,$8,$9,$2,$3,0*
0 Add four circle primitives for the rounded corners*
1,1,$1+$1,$2,$3*
1,1,$1+$1,$4,$5*
1,1,$1+$1,$6,$7*
1,1,$1+$1,$8,$9*
0 Add four rect primitives between the rounded corners*
20,1,$1+$1,$2,$3,$4,$5,0*
20,1,$1+$1,$4,$5,$6,$7,0*
20,1,$1+$1,$6,$7,$8,$9,0*
20,1,$1+$1,$8,$9,$2,$3,0*%
%AMFreePoly0*
4,1,14,0.334644,0.085355,0.385355,0.034644,0.400000,-0.000711,0.400000,-0.050000,0.385355,-0.085355,0.350000,-0.100000,-0.350000,-0.100000,-0.385355,-0.085355,-0.400000,-0.050000,-0.400000,0.050000,-0.385355,0.085355,-0.350000,0.100000,0.299289,0.100000,0.334644,0.085355,0.334644,0.085355,$1*%
%AMFreePoly1*
4,1,14,0.385355,0.085355,0.400000,0.050000,0.400000,0.000711,0.385355,-0.034644,0.334644,-0.085355,0.299289,-0.100000,-0.350000,-0.100000,-0.385355,-0.085355,-0.400000,-0.050000,-0.400000,0.050000,-0.385355,0.085355,-0.350000,0.100000,0.350000,0.100000,0.385355,0.085355,0.385355,0.085355,$1*%
%AMFreePoly2*
4,1,14,0.085355,0.385355,0.100000,0.350000,0.100000,-0.350000,0.085355,-0.385355,0.050000,-0.400000,-0.050000,-0.400000,-0.085355,-0.385355,-0.100000,-0.350000,-0.100000,0.299289,-0.085355,0.334644,-0.034644,0.385355,0.000711,0.400000,0.050000,0.400000,0.085355,0.385355,0.085355,0.385355,$1*%
%AMFreePoly3*
4,1,14,0.034644,0.385355,0.085355,0.334644,0.100000,0.299289,0.100000,-0.350000,0.085355,-0.385355,0.050000,-0.400000,-0.050000,-0.400000,-0.085355,-0.385355,-0.100000,-0.350000,-0.100000,0.350000,-0.085355,0.385355,-0.050000,0.400000,-0.000711,0.400000,0.034644,0.385355,0.034644,0.385355,$1*%
%AMFreePoly4*
4,1,14,0.385355,0.085355,0.400000,0.050000,0.400000,-0.050000,0.385355,-0.085355,0.350000,-0.100000,-0.299289,-0.100000,-0.334644,-0.085355,-0.385355,-0.034644,-0.400000,0.000711,-0.400000,0.050000,-0.385355,0.085355,-0.350000,0.100000,0.350000,0.100000,0.385355,0.085355,0.385355,0.085355,$1*%
%AMFreePoly5*
4,1,14,0.385355,0.085355,0.400000,0.050000,0.400000,-0.050000,0.385355,-0.085355,0.350000,-0.100000,-0.350000,-0.100000,-0.385355,-0.085355,-0.400000,-0.050000,-0.400000,-0.000711,-0.385355,0.034644,-0.334644,0.085355,-0.299289,0.100000,0.350000,0.100000,0.385355,0.085355,0.385355,0.085355,$1*%
%AMFreePoly6*
4,1,14,0.085355,0.385355,0.100000,0.350000,0.100000,-0.299289,0.085355,-0.334644,0.034644,-0.385355,-0.000711,-0.400000,-0.050000,-0.400000,-0.085355,-0.385355,-0.100000,-0.350000,-0.100000,0.350000,-0.085355,0.385355,-0.050000,0.400000,0.050000,0.400000,0.085355,0.385355,0.085355,0.385355,$1*%
%AMFreePoly7*
4,1,14,0.085355,0.385355,0.100000,0.350000,0.100000,-0.350000,0.085355,-0.385355,0.050000,-0.400000,0.000711,-0.400000,-0.034644,-0.385355,-0.085355,-0.334644,-0.100000,-0.299289,-0.100000,0.350000,-0.085355,0.385355,-0.050000,0.400000,0.050000,0.400000,0.085355,0.385355,0.085355,0.385355,$1*%
G04 Aperture macros list end*
%ADD10R,0.550000X0.500000*%
%ADD11R,0.650000X0.900000*%
%ADD12R,0.900000X0.650000*%
%ADD13R,0.500000X0.550000*%
%ADD14C,2.000000*%
%ADD15R,0.800000X0.800000*%
%ADD16R,0.400000X1.400000*%
%ADD17R,0.570000X1.216000*%
%ADD18R,0.800000X1.000000*%
%ADD19R,0.700000X0.800000*%
%ADD20R,0.700000X0.300000*%
%ADD21R,0.300000X0.700000*%
%ADD22R,1.550000X1.800000*%
%ADD23R,0.450000X1.800000*%
%ADD24C,1.300000*%
%ADD25R,0.800000X0.900000*%
%ADD26R,1.100000X2.000000*%
%ADD27R,1.100000X0.800000*%
%ADD28R,0.700000X1.000000*%
%ADD29R,0.800000X0.700000*%
%ADD30RoundRect,0.172500X-0.172500X-0.172500X0.172500X-0.172500X0.172500X0.172500X-0.172500X0.172500X0*%
%ADD31FreePoly0,0.000000*%
%ADD32RoundRect,0.050000X-0.350000X-0.050000X0.350000X-0.050000X0.350000X0.050000X-0.350000X0.050000X0*%
%ADD33FreePoly1,0.000000*%
%ADD34FreePoly2,0.000000*%
%ADD35RoundRect,0.050000X-0.050000X-0.350000X0.050000X-0.350000X0.050000X0.350000X-0.050000X0.350000X0*%
%ADD36FreePoly3,0.000000*%
%ADD37FreePoly4,0.000000*%
%ADD38FreePoly5,0.000000*%
%ADD39FreePoly6,0.000000*%
%ADD40FreePoly7,0.000000*%
%ADD41R,0.500000X0.800000*%
%ADD42RoundRect,0.172500X0.172500X0.172500X-0.172500X0.172500X-0.172500X-0.172500X0.172500X-0.172500X0*%
%ADD43FreePoly0,180.000000*%
%ADD44RoundRect,0.050000X0.350000X0.050000X-0.350000X0.050000X-0.350000X-0.050000X0.350000X-0.050000X0*%
%ADD45FreePoly1,180.000000*%
%ADD46FreePoly2,180.000000*%
%ADD47RoundRect,0.050000X0.050000X0.350000X-0.050000X0.350000X-0.050000X-0.350000X0.050000X-0.350000X0*%
%ADD48FreePoly3,180.000000*%
%ADD49FreePoly4,180.000000*%
%ADD50FreePoly5,180.000000*%
%ADD51FreePoly6,180.000000*%
%ADD52FreePoly7,180.000000*%
G04 APERTURE END LIST*
D10*
X119850000Y-72650000D03*
X118900000Y-72650000D03*
D11*
X169975000Y-117500000D03*
X168525000Y-117500000D03*
D12*
X175500000Y-64975000D03*
X175500000Y-63525000D03*
D11*
X105025000Y-88000000D03*
X106475000Y-88000000D03*
D13*
X160850000Y-99875000D03*
X160850000Y-98925000D03*
X160850000Y-135875000D03*
X160850000Y-134925000D03*
D11*
X174225000Y-81750000D03*
X172775000Y-81750000D03*
X178775000Y-130750000D03*
X180225000Y-130750000D03*
D14*
X192250000Y-69250000D03*
D15*
X113750000Y-118725000D03*
X113750000Y-120275000D03*
D12*
X131000000Y-99975000D03*
X131000000Y-98525000D03*
X117000000Y-107025000D03*
X117000000Y-108475000D03*
D11*
X122225000Y-98000000D03*
X120775000Y-98000000D03*
D16*
X99500000Y-107525000D03*
D17*
X100125000Y-107600000D03*
X100125000Y-109900000D03*
D16*
X99500000Y-109975000D03*
D11*
X172775000Y-71250000D03*
X174225000Y-71250000D03*
D18*
X126700000Y-132450000D03*
X124800000Y-132450000D03*
X125750000Y-134550000D03*
X165800000Y-73050000D03*
X167700000Y-73050000D03*
X166750000Y-70950000D03*
D12*
X117000000Y-116525000D03*
X117000000Y-117975000D03*
D11*
X186025000Y-45750000D03*
X187475000Y-45750000D03*
X121525000Y-86250000D03*
X122975000Y-86250000D03*
D19*
X115000000Y-130725000D03*
X115000000Y-132275000D03*
D11*
X127025000Y-89250000D03*
X128475000Y-89250000D03*
D14*
X192250000Y-45250000D03*
X100250000Y-100250000D03*
D20*
X106500000Y-70000000D03*
X106500000Y-69500000D03*
X106500000Y-69000000D03*
X105000000Y-69000000D03*
X105000000Y-69500000D03*
X105000000Y-70000000D03*
D16*
X193000000Y-97975000D03*
D17*
X192375000Y-97900000D03*
X192375000Y-95600000D03*
D16*
X193000000Y-95525000D03*
D12*
X134500000Y-45025000D03*
X134500000Y-46475000D03*
D20*
X106500000Y-106000000D03*
X106500000Y-105500000D03*
X106500000Y-105000000D03*
X105000000Y-105000000D03*
X105000000Y-105500000D03*
X105000000Y-106000000D03*
D21*
X121250000Y-130750000D03*
X121750000Y-130750000D03*
X122250000Y-130750000D03*
X122250000Y-129250000D03*
X121750000Y-129250000D03*
X121250000Y-129250000D03*
D16*
X193000000Y-49975000D03*
D17*
X192375000Y-49900000D03*
X192375000Y-47600000D03*
D16*
X193000000Y-47525000D03*
D19*
X115000000Y-118725000D03*
X115000000Y-120275000D03*
D16*
X193000000Y-109975000D03*
D17*
X192375000Y-109900000D03*
X192375000Y-107600000D03*
D16*
X193000000Y-107525000D03*
D22*
X113375000Y-84750000D03*
D23*
X112075000Y-84750000D03*
D20*
X121750000Y-123000000D03*
X121750000Y-123500000D03*
X121750000Y-124000000D03*
X123250000Y-124000000D03*
X123250000Y-123500000D03*
X123250000Y-123000000D03*
D11*
X119725000Y-110250000D03*
X118275000Y-110250000D03*
D12*
X186000000Y-49475000D03*
X186000000Y-48025000D03*
D13*
X162750000Y-82025000D03*
X162750000Y-82975000D03*
D24*
X155250000Y-88250000D03*
D25*
X163300000Y-84250000D03*
X161200000Y-84250000D03*
D16*
X104750000Y-71525000D03*
D17*
X105375000Y-71600000D03*
X105375000Y-73900000D03*
D16*
X104750000Y-73975000D03*
D12*
X127750000Y-61025000D03*
X127750000Y-62475000D03*
D11*
X118275000Y-123750000D03*
X119725000Y-123750000D03*
D22*
X113375000Y-48750000D03*
D23*
X112075000Y-48750000D03*
D21*
X121250000Y-118750000D03*
X121750000Y-118750000D03*
X122250000Y-118750000D03*
X122250000Y-117250000D03*
X121750000Y-117250000D03*
X121250000Y-117250000D03*
D12*
X117000000Y-99725000D03*
X117000000Y-98275000D03*
X161500000Y-69525000D03*
X161500000Y-70975000D03*
D26*
X120250000Y-87850000D03*
D27*
X120250000Y-89750000D03*
D28*
X124550000Y-86700000D03*
X125500000Y-86700000D03*
X126450000Y-86700000D03*
X126450000Y-84300000D03*
X125500000Y-84300000D03*
X124550000Y-84300000D03*
D11*
X172275000Y-64250000D03*
X173725000Y-64250000D03*
D16*
X99500000Y-59525000D03*
D17*
X100125000Y-59600000D03*
X100125000Y-61900000D03*
D16*
X99500000Y-61975000D03*
D12*
X175500000Y-50475000D03*
X175500000Y-49025000D03*
D11*
X178775000Y-110750000D03*
X180225000Y-110750000D03*
X131225000Y-77250000D03*
X129775000Y-77250000D03*
D29*
X117000000Y-51100000D03*
X117000000Y-52900000D03*
D20*
X106500000Y-82000000D03*
X106500000Y-81500000D03*
X106500000Y-81000000D03*
X105000000Y-81000000D03*
X105000000Y-81500000D03*
X105000000Y-82000000D03*
D28*
X129050000Y-86700000D03*
X130000000Y-86700000D03*
X130950000Y-86700000D03*
X130950000Y-84300000D03*
X130000000Y-84300000D03*
X129050000Y-84300000D03*
D11*
X120225000Y-117250000D03*
X118775000Y-117250000D03*
D12*
X117000000Y-131025000D03*
X117000000Y-132475000D03*
X106500000Y-132025000D03*
X106500000Y-133475000D03*
D14*
X192250000Y-81250000D03*
D12*
X158000000Y-62775000D03*
X158000000Y-64225000D03*
D21*
X133250000Y-117250000D03*
X132750000Y-117250000D03*
X132250000Y-117250000D03*
X132250000Y-118750000D03*
X132750000Y-118750000D03*
X133250000Y-118750000D03*
D26*
X172250000Y-105650000D03*
D27*
X172250000Y-103750000D03*
D26*
X120250000Y-63850000D03*
D27*
X120250000Y-65750000D03*
D14*
X192250000Y-57250000D03*
D12*
X175500000Y-86475000D03*
X175500000Y-85025000D03*
D16*
X193000000Y-73975000D03*
D17*
X192375000Y-73900000D03*
X192375000Y-71600000D03*
D16*
X193000000Y-71525000D03*
D12*
X158000000Y-136475000D03*
X158000000Y-135025000D03*
X131000000Y-129025000D03*
X131000000Y-130475000D03*
D11*
X186025000Y-69750000D03*
X187475000Y-69750000D03*
X131225000Y-89250000D03*
X129775000Y-89250000D03*
D30*
X181575000Y-60325000D03*
X181575000Y-61175000D03*
X182425000Y-60325000D03*
X182425000Y-61175000D03*
D31*
X180550000Y-59950000D03*
D32*
X180550000Y-60350000D03*
X180550000Y-60750000D03*
X180550000Y-61150000D03*
D33*
X180550000Y-61550000D03*
D34*
X181200000Y-62200000D03*
D35*
X181600000Y-62200000D03*
X182000000Y-62200000D03*
X182400000Y-62200000D03*
D36*
X182800000Y-62200000D03*
D37*
X183450000Y-61550000D03*
D32*
X183450000Y-61150000D03*
X183450000Y-60750000D03*
X183450000Y-60350000D03*
D38*
X183450000Y-59950000D03*
D39*
X182800000Y-59300000D03*
D35*
X182400000Y-59300000D03*
X182000000Y-59300000D03*
X181600000Y-59300000D03*
D40*
X181200000Y-59300000D03*
D30*
X181575000Y-72325000D03*
X181575000Y-73175000D03*
X182425000Y-72325000D03*
X182425000Y-73175000D03*
D31*
X180550000Y-71950000D03*
D32*
X180550000Y-72350000D03*
X180550000Y-72750000D03*
X180550000Y-73150000D03*
D33*
X180550000Y-73550000D03*
D34*
X181200000Y-74200000D03*
D35*
X181600000Y-74200000D03*
X182000000Y-74200000D03*
X182400000Y-74200000D03*
D36*
X182800000Y-74200000D03*
D37*
X183450000Y-73550000D03*
D32*
X183450000Y-73150000D03*
X183450000Y-72750000D03*
X183450000Y-72350000D03*
D38*
X183450000Y-71950000D03*
D39*
X182800000Y-71300000D03*
D35*
X182400000Y-71300000D03*
X182000000Y-71300000D03*
X181600000Y-71300000D03*
D40*
X181200000Y-71300000D03*
D14*
X192250000Y-117250000D03*
D12*
X131000000Y-105025000D03*
X131000000Y-106475000D03*
D19*
X177500000Y-74775000D03*
X177500000Y-73225000D03*
D12*
X133000000Y-57025000D03*
X133000000Y-58475000D03*
D41*
X174350000Y-100200000D03*
X175650000Y-100200000D03*
X175000000Y-98300000D03*
D11*
X113725000Y-62750000D03*
X112275000Y-62750000D03*
D16*
X187750000Y-133975000D03*
D17*
X187125000Y-133900000D03*
X187125000Y-131600000D03*
D16*
X187750000Y-131525000D03*
D11*
X113725000Y-86750000D03*
X112275000Y-86750000D03*
D42*
X110925000Y-121175000D03*
X110925000Y-120325000D03*
X110075000Y-121175000D03*
X110075000Y-120325000D03*
D43*
X111950000Y-121550000D03*
D44*
X111950000Y-121150000D03*
X111950000Y-120750000D03*
X111950000Y-120350000D03*
D45*
X111950000Y-119950000D03*
D46*
X111300000Y-119300000D03*
D47*
X110900000Y-119300000D03*
X110500000Y-119300000D03*
X110100000Y-119300000D03*
D48*
X109700000Y-119300000D03*
D49*
X109050000Y-119950000D03*
D44*
X109050000Y-120350000D03*
X109050000Y-120750000D03*
X109050000Y-121150000D03*
D50*
X109050000Y-121550000D03*
D51*
X109700000Y-122200000D03*
D47*
X110100000Y-122200000D03*
X110500000Y-122200000D03*
X110900000Y-122200000D03*
D52*
X111300000Y-122200000D03*
D20*
X170750000Y-46500000D03*
X170750000Y-46000000D03*
X170750000Y-45500000D03*
X169250000Y-45500000D03*
X169250000Y-46000000D03*
X169250000Y-46500000D03*
X106500000Y-118000000D03*
X106500000Y-117500000D03*
X106500000Y-117000000D03*
X105000000Y-117000000D03*
X105000000Y-117500000D03*
X105000000Y-118000000D03*
D41*
X118150000Y-81300000D03*
X116850000Y-81300000D03*
X117500000Y-83200000D03*
D11*
X187475000Y-93500000D03*
X186025000Y-93500000D03*
X170275000Y-59500000D03*
X171725000Y-59500000D03*
D12*
X175500000Y-52975000D03*
X175500000Y-51525000D03*
D14*
X192250000Y-129250000D03*
D11*
X165475000Y-92250000D03*
X164025000Y-92250000D03*
D21*
X159250000Y-52250000D03*
X159750000Y-52250000D03*
X160250000Y-52250000D03*
X160250000Y-50750000D03*
X159750000Y-50750000D03*
X159250000Y-50750000D03*
D12*
X186000000Y-85475000D03*
X186000000Y-84025000D03*
X161500000Y-88475000D03*
X161500000Y-87025000D03*
D21*
X125750000Y-118500000D03*
X126250000Y-118500000D03*
X126750000Y-118500000D03*
X126750000Y-117000000D03*
X126250000Y-117000000D03*
X125750000Y-117000000D03*
D16*
X193000000Y-121975000D03*
D17*
X192375000Y-121900000D03*
X192375000Y-119600000D03*
D16*
X193000000Y-119525000D03*
D21*
X167500000Y-115500000D03*
X167000000Y-115500000D03*
X166500000Y-115500000D03*
X166500000Y-117000000D03*
X167000000Y-117000000D03*
X167500000Y-117000000D03*
X125750000Y-106500000D03*
X126250000Y-106500000D03*
X126750000Y-106500000D03*
X126750000Y-105000000D03*
X126250000Y-105000000D03*
X125750000Y-105000000D03*
D13*
X118250000Y-95525000D03*
X118250000Y-96475000D03*
D24*
X155250000Y-81250000D03*
D16*
X193000000Y-61975000D03*
D17*
X192375000Y-61900000D03*
X192375000Y-59600000D03*
D16*
X193000000Y-59525000D03*
D11*
X168225000Y-69600000D03*
X166775000Y-69600000D03*
X178775000Y-98750000D03*
X180225000Y-98750000D03*
D41*
X118150000Y-69300000D03*
X116850000Y-69300000D03*
X117500000Y-71200000D03*
D13*
X115000000Y-62025000D03*
X115000000Y-62975000D03*
D24*
X155250000Y-45250000D03*
D20*
X186000000Y-75500000D03*
X186000000Y-76000000D03*
X186000000Y-76500000D03*
X187500000Y-76500000D03*
X187500000Y-76000000D03*
X187500000Y-75500000D03*
D13*
X160850000Y-123875000D03*
X160850000Y-122925000D03*
D21*
X133250000Y-129250000D03*
X132750000Y-129250000D03*
X132250000Y-129250000D03*
X132250000Y-130750000D03*
X132750000Y-130750000D03*
X133250000Y-130750000D03*
D11*
X161275000Y-128250000D03*
X162725000Y-128250000D03*
D15*
X113750000Y-130725000D03*
X113750000Y-132275000D03*
D12*
X106500000Y-72025000D03*
X106500000Y-73475000D03*
D29*
X117000000Y-75100000D03*
X117000000Y-76900000D03*
D30*
X181575000Y-48325000D03*
X181575000Y-49175000D03*
X182425000Y-48325000D03*
X182425000Y-49175000D03*
D31*
X180550000Y-47950000D03*
D32*
X180550000Y-48350000D03*
X180550000Y-48750000D03*
X180550000Y-49150000D03*
D33*
X180550000Y-49550000D03*
D34*
X181200000Y-50200000D03*
D35*
X181600000Y-50200000D03*
X182000000Y-50200000D03*
X182400000Y-50200000D03*
D36*
X182800000Y-50200000D03*
D37*
X183450000Y-49550000D03*
D32*
X183450000Y-49150000D03*
X183450000Y-48750000D03*
X183450000Y-48350000D03*
D38*
X183450000Y-47950000D03*
D39*
X182800000Y-47300000D03*
D35*
X182400000Y-47300000D03*
X182000000Y-47300000D03*
X181600000Y-47300000D03*
D40*
X181200000Y-47300000D03*
D12*
X164500000Y-88475000D03*
X164500000Y-87025000D03*
D26*
X169750000Y-110350000D03*
D27*
X169750000Y-112250000D03*
D11*
X187475000Y-105500000D03*
X186025000Y-105500000D03*
D25*
X163300000Y-48250000D03*
X161200000Y-48250000D03*
D41*
X174350000Y-136200000D03*
X175650000Y-136200000D03*
X175000000Y-134300000D03*
D12*
X163000000Y-52475000D03*
X163000000Y-51025000D03*
D16*
X104750000Y-59525000D03*
D17*
X105375000Y-59600000D03*
X105375000Y-61900000D03*
D16*
X104750000Y-61975000D03*
D19*
X128650000Y-99500000D03*
X126850000Y-99500000D03*
D12*
X186000000Y-121475000D03*
X186000000Y-120025000D03*
D10*
X172650000Y-96850000D03*
X173600000Y-96850000D03*
D12*
X158000000Y-112475000D03*
X158000000Y-111025000D03*
D22*
X179125000Y-108750000D03*
D23*
X180425000Y-108750000D03*
D26*
X122750000Y-83150000D03*
D27*
X122750000Y-81250000D03*
D12*
X178250000Y-58775000D03*
X178250000Y-60225000D03*
D11*
X172775000Y-59250000D03*
X174225000Y-59250000D03*
D12*
X128000000Y-98225000D03*
X128000000Y-96775000D03*
X117000000Y-104525000D03*
X117000000Y-105975000D03*
D26*
X121000000Y-45850000D03*
D27*
X121000000Y-47750000D03*
D26*
X118500000Y-89150000D03*
D27*
X118500000Y-87250000D03*
D12*
X117000000Y-128525000D03*
X117000000Y-129975000D03*
D13*
X129750000Y-123475000D03*
X129750000Y-122525000D03*
D12*
X161500000Y-81525000D03*
X161500000Y-82975000D03*
X175500000Y-88975000D03*
X175500000Y-87525000D03*
D21*
X125000000Y-66000000D03*
X125500000Y-66000000D03*
X126000000Y-66000000D03*
X126000000Y-64500000D03*
X125500000Y-64500000D03*
X125000000Y-64500000D03*
D12*
X186000000Y-109475000D03*
X186000000Y-108025000D03*
D11*
X172275000Y-88250000D03*
X173725000Y-88250000D03*
D18*
X165800000Y-61050000D03*
X167700000Y-61050000D03*
X166750000Y-58950000D03*
D19*
X177500000Y-62775000D03*
X177500000Y-61225000D03*
D12*
X127750000Y-73025000D03*
X127750000Y-74475000D03*
D21*
X171250000Y-74750000D03*
X170750000Y-74750000D03*
X170250000Y-74750000D03*
X170250000Y-76250000D03*
X170750000Y-76250000D03*
X171250000Y-76250000D03*
D25*
X129200000Y-121250000D03*
X131300000Y-121250000D03*
D11*
X105025000Y-52000000D03*
X106475000Y-52000000D03*
D12*
X134500000Y-57025000D03*
X134500000Y-58475000D03*
X131000000Y-117025000D03*
X131000000Y-118475000D03*
D24*
X137250000Y-112250000D03*
D20*
X121750000Y-135000000D03*
X121750000Y-135500000D03*
X121750000Y-136000000D03*
X123250000Y-136000000D03*
X123250000Y-135500000D03*
X123250000Y-135000000D03*
D11*
X170975000Y-107250000D03*
X169525000Y-107250000D03*
X122225000Y-134000000D03*
X120775000Y-134000000D03*
D21*
X167500000Y-103500000D03*
X167000000Y-103500000D03*
X166500000Y-103500000D03*
X166500000Y-105000000D03*
X167000000Y-105000000D03*
X167500000Y-105000000D03*
D26*
X122750000Y-71150000D03*
D27*
X122750000Y-69250000D03*
D16*
X99500000Y-119525000D03*
D17*
X100125000Y-119600000D03*
X100125000Y-121900000D03*
D16*
X99500000Y-121975000D03*
D26*
X174000000Y-116350000D03*
D27*
X174000000Y-118250000D03*
D41*
X174350000Y-112200000D03*
X175650000Y-112200000D03*
X175000000Y-110300000D03*
D11*
X122225000Y-122000000D03*
X120775000Y-122000000D03*
D10*
X119850000Y-48650000D03*
X118900000Y-48650000D03*
D11*
X113725000Y-74750000D03*
X112275000Y-74750000D03*
D12*
X114250000Y-134725000D03*
X114250000Y-133275000D03*
D21*
X159250000Y-64250000D03*
X159750000Y-64250000D03*
X160250000Y-64250000D03*
X160250000Y-62750000D03*
X159750000Y-62750000D03*
X159250000Y-62750000D03*
D11*
X124275000Y-123900000D03*
X125725000Y-123900000D03*
D12*
X175500000Y-69775000D03*
X175500000Y-71225000D03*
D22*
X179125000Y-120750000D03*
D23*
X180425000Y-120750000D03*
D16*
X187750000Y-121975000D03*
D17*
X187125000Y-121900000D03*
X187125000Y-119600000D03*
D16*
X187750000Y-119525000D03*
D12*
X164500000Y-83275000D03*
X164500000Y-84725000D03*
D13*
X129750000Y-135475000D03*
X129750000Y-134525000D03*
D12*
X128000000Y-93025000D03*
X128000000Y-94475000D03*
X114250000Y-110725000D03*
X114250000Y-109275000D03*
X158000000Y-124475000D03*
X158000000Y-123025000D03*
D11*
X175475000Y-119750000D03*
X174025000Y-119750000D03*
D28*
X129050000Y-50700000D03*
X130000000Y-50700000D03*
X130950000Y-50700000D03*
X130950000Y-48300000D03*
X130000000Y-48300000D03*
X129050000Y-48300000D03*
D12*
X129500000Y-105025000D03*
X129500000Y-106475000D03*
D18*
X165800000Y-85050000D03*
X167700000Y-85050000D03*
X166750000Y-82950000D03*
D16*
X104750000Y-95525000D03*
D17*
X105375000Y-95600000D03*
X105375000Y-97900000D03*
D16*
X104750000Y-97975000D03*
D14*
X192250000Y-93250000D03*
D12*
X164750000Y-132475000D03*
X164750000Y-131025000D03*
D11*
X123275000Y-105250000D03*
X124725000Y-105250000D03*
X161275000Y-86000000D03*
X162725000Y-86000000D03*
D12*
X175500000Y-81775000D03*
X175500000Y-83225000D03*
D11*
X105025000Y-76000000D03*
X106475000Y-76000000D03*
D13*
X174250000Y-61975000D03*
X174250000Y-61025000D03*
D18*
X126700000Y-96450000D03*
X124800000Y-96450000D03*
X125750000Y-98550000D03*
D11*
X178775000Y-134750000D03*
X180225000Y-134750000D03*
D21*
X171250000Y-62750000D03*
X170750000Y-62750000D03*
X170250000Y-62750000D03*
X170250000Y-64250000D03*
X170750000Y-64250000D03*
X171250000Y-64250000D03*
D22*
X113375000Y-60750000D03*
D23*
X112075000Y-60750000D03*
D20*
X121750000Y-99000000D03*
X121750000Y-99500000D03*
X121750000Y-100000000D03*
X123250000Y-100000000D03*
X123250000Y-99500000D03*
X123250000Y-99000000D03*
D11*
X174225000Y-57750000D03*
X172775000Y-57750000D03*
D14*
X100250000Y-76250000D03*
D12*
X134500000Y-94725000D03*
X134500000Y-93275000D03*
X131000000Y-111975000D03*
X131000000Y-110525000D03*
D20*
X186000000Y-111500000D03*
X186000000Y-112000000D03*
X186000000Y-112500000D03*
X187500000Y-112500000D03*
X187500000Y-112000000D03*
X187500000Y-111500000D03*
D19*
X177500000Y-86775000D03*
X177500000Y-85225000D03*
D12*
X129500000Y-93025000D03*
X129500000Y-94475000D03*
D16*
X187750000Y-61975000D03*
D17*
X187125000Y-61900000D03*
X187125000Y-59600000D03*
D16*
X187750000Y-59525000D03*
D26*
X122750000Y-47150000D03*
D27*
X122750000Y-45250000D03*
D18*
X165800000Y-49050000D03*
X167700000Y-49050000D03*
X166750000Y-46950000D03*
D42*
X110925000Y-133175000D03*
X110925000Y-132325000D03*
X110075000Y-133175000D03*
X110075000Y-132325000D03*
D43*
X111950000Y-133550000D03*
D44*
X111950000Y-133150000D03*
X111950000Y-132750000D03*
X111950000Y-132350000D03*
D45*
X111950000Y-131950000D03*
D46*
X111300000Y-131300000D03*
D47*
X110900000Y-131300000D03*
X110500000Y-131300000D03*
X110100000Y-131300000D03*
D48*
X109700000Y-131300000D03*
D49*
X109050000Y-131950000D03*
D44*
X109050000Y-132350000D03*
X109050000Y-132750000D03*
X109050000Y-133150000D03*
D50*
X109050000Y-133550000D03*
D51*
X109700000Y-134200000D03*
D47*
X110100000Y-134200000D03*
X110500000Y-134200000D03*
X110900000Y-134200000D03*
D52*
X111300000Y-134200000D03*
D11*
X168225000Y-45600000D03*
X166775000Y-45600000D03*
D12*
X134500000Y-69025000D03*
X134500000Y-70475000D03*
D21*
X166750000Y-75000000D03*
X166250000Y-75000000D03*
X165750000Y-75000000D03*
X165750000Y-76500000D03*
X166250000Y-76500000D03*
X166750000Y-76500000D03*
D12*
X106500000Y-108025000D03*
X106500000Y-109475000D03*
D21*
X166750000Y-87000000D03*
X166250000Y-87000000D03*
X165750000Y-87000000D03*
X165750000Y-88500000D03*
X166250000Y-88500000D03*
X166750000Y-88500000D03*
D11*
X120225000Y-93250000D03*
X118775000Y-93250000D03*
X131225000Y-53250000D03*
X129775000Y-53250000D03*
D19*
X115000000Y-94725000D03*
X115000000Y-96275000D03*
D12*
X186000000Y-61475000D03*
X186000000Y-60025000D03*
D14*
X100250000Y-88250000D03*
D11*
X161275000Y-92250000D03*
X162725000Y-92250000D03*
D42*
X110925000Y-109175000D03*
X110925000Y-108325000D03*
X110075000Y-109175000D03*
X110075000Y-108325000D03*
D43*
X111950000Y-109550000D03*
D44*
X111950000Y-109150000D03*
X111950000Y-108750000D03*
X111950000Y-108350000D03*
D45*
X111950000Y-107950000D03*
D46*
X111300000Y-107300000D03*
D47*
X110900000Y-107300000D03*
X110500000Y-107300000D03*
X110100000Y-107300000D03*
D48*
X109700000Y-107300000D03*
D49*
X109050000Y-107950000D03*
D44*
X109050000Y-108350000D03*
X109050000Y-108750000D03*
X109050000Y-109150000D03*
D50*
X109050000Y-109550000D03*
D51*
X109700000Y-110200000D03*
D47*
X110100000Y-110200000D03*
X110500000Y-110200000D03*
X110900000Y-110200000D03*
D52*
X111300000Y-110200000D03*
D13*
X131650000Y-81625000D03*
X131650000Y-82575000D03*
D12*
X128000000Y-110225000D03*
X128000000Y-108775000D03*
D26*
X122750000Y-59150000D03*
D27*
X122750000Y-57250000D03*
D11*
X113725000Y-50750000D03*
X112275000Y-50750000D03*
D26*
X172250000Y-93650000D03*
D27*
X172250000Y-91750000D03*
D12*
X106500000Y-60025000D03*
X106500000Y-61475000D03*
D24*
X155250000Y-57250000D03*
D29*
X175500000Y-106400000D03*
X175500000Y-104600000D03*
D16*
X193000000Y-85975000D03*
D17*
X192375000Y-85900000D03*
X192375000Y-83600000D03*
D16*
X193000000Y-83525000D03*
D14*
X100250000Y-124250000D03*
D21*
X125000000Y-90000000D03*
X125500000Y-90000000D03*
X126000000Y-90000000D03*
X126000000Y-88500000D03*
X125500000Y-88500000D03*
X125000000Y-88500000D03*
D24*
X155250000Y-69250000D03*
D11*
X113725000Y-82750000D03*
X112275000Y-82750000D03*
D12*
X106500000Y-96025000D03*
X106500000Y-97475000D03*
D20*
X106500000Y-94000000D03*
X106500000Y-93500000D03*
X106500000Y-93000000D03*
X105000000Y-93000000D03*
X105000000Y-93500000D03*
X105000000Y-94000000D03*
X121750000Y-111000000D03*
X121750000Y-111500000D03*
X121750000Y-112000000D03*
X123250000Y-112000000D03*
X123250000Y-111500000D03*
X123250000Y-111000000D03*
D24*
X137250000Y-117250000D03*
D12*
X164500000Y-76475000D03*
X164500000Y-75025000D03*
D18*
X126700000Y-120450000D03*
X124800000Y-120450000D03*
X125750000Y-122550000D03*
D11*
X131225000Y-107500000D03*
X129775000Y-107500000D03*
X106475000Y-135750000D03*
X105025000Y-135750000D03*
X169225000Y-76250000D03*
X167775000Y-76250000D03*
D15*
X178750000Y-50775000D03*
X178750000Y-49225000D03*
D20*
X106500000Y-58000000D03*
X106500000Y-57500000D03*
X106500000Y-57000000D03*
X105000000Y-57000000D03*
X105000000Y-57500000D03*
X105000000Y-58000000D03*
D24*
X137250000Y-129250000D03*
D13*
X129750000Y-99475000D03*
X129750000Y-98525000D03*
D12*
X163000000Y-64475000D03*
X163000000Y-63025000D03*
D25*
X129200000Y-133250000D03*
X131300000Y-133250000D03*
D16*
X187750000Y-85975000D03*
D17*
X187125000Y-85900000D03*
X187125000Y-83600000D03*
D16*
X187750000Y-83525000D03*
D11*
X168225000Y-57600000D03*
X166775000Y-57600000D03*
D13*
X177500000Y-119475000D03*
X177500000Y-118525000D03*
D10*
X119850000Y-60650000D03*
X118900000Y-60650000D03*
D26*
X169750000Y-134350000D03*
D27*
X169750000Y-136250000D03*
D13*
X174250000Y-73975000D03*
X174250000Y-73025000D03*
D11*
X169225000Y-88250000D03*
X167775000Y-88250000D03*
D12*
X175500000Y-45775000D03*
X175500000Y-47225000D03*
D26*
X174000000Y-128350000D03*
D27*
X174000000Y-130250000D03*
D16*
X104750000Y-83525000D03*
D17*
X105375000Y-83600000D03*
X105375000Y-85900000D03*
D16*
X104750000Y-85975000D03*
D11*
X127025000Y-53250000D03*
X128475000Y-53250000D03*
X117025000Y-49750000D03*
X118475000Y-49750000D03*
D26*
X118500000Y-65150000D03*
D27*
X118500000Y-63250000D03*
D11*
X169225000Y-64250000D03*
X167775000Y-64250000D03*
D13*
X118250000Y-131525000D03*
X118250000Y-132475000D03*
D12*
X161500000Y-45525000D03*
X161500000Y-46975000D03*
D13*
X162750000Y-70025000D03*
X162750000Y-70975000D03*
D11*
X120225000Y-129250000D03*
X118775000Y-129250000D03*
D26*
X120250000Y-51850000D03*
D27*
X120250000Y-53750000D03*
D11*
X170975000Y-119250000D03*
X169525000Y-119250000D03*
D28*
X124550000Y-74700000D03*
X125500000Y-74700000D03*
X126450000Y-74700000D03*
X126450000Y-72300000D03*
X125500000Y-72300000D03*
X124550000Y-72300000D03*
D11*
X113725000Y-46750000D03*
X112275000Y-46750000D03*
D24*
X155250000Y-64250000D03*
D11*
X117025000Y-73750000D03*
X118475000Y-73750000D03*
X172775000Y-83250000D03*
X174225000Y-83250000D03*
X170975000Y-95250000D03*
X169525000Y-95250000D03*
X175475000Y-131750000D03*
X174025000Y-131750000D03*
D12*
X163000000Y-88475000D03*
X163000000Y-87025000D03*
D24*
X155250000Y-76250000D03*
D20*
X170750000Y-70500000D03*
X170750000Y-70000000D03*
X170750000Y-69500000D03*
X169250000Y-69500000D03*
X169250000Y-70000000D03*
X169250000Y-70500000D03*
D12*
X164750000Y-120475000D03*
X164750000Y-119025000D03*
D11*
X123275000Y-93250000D03*
X124725000Y-93250000D03*
D26*
X121000000Y-81850000D03*
D27*
X121000000Y-83750000D03*
D19*
X128650000Y-111500000D03*
X126850000Y-111500000D03*
D15*
X113750000Y-106725000D03*
X113750000Y-108275000D03*
D11*
X161275000Y-74000000D03*
X162725000Y-74000000D03*
D14*
X100250000Y-136250000D03*
D11*
X124275000Y-135900000D03*
X125725000Y-135900000D03*
D20*
X170750000Y-58500000D03*
X170750000Y-58000000D03*
X170750000Y-57500000D03*
X169250000Y-57500000D03*
X169250000Y-58000000D03*
X169250000Y-58500000D03*
D11*
X122525000Y-88000000D03*
X123975000Y-88000000D03*
X174225000Y-69750000D03*
X172775000Y-69750000D03*
D12*
X117000000Y-111725000D03*
X117000000Y-110275000D03*
D19*
X163850000Y-58000000D03*
X165650000Y-58000000D03*
D12*
X159500000Y-100475000D03*
X159500000Y-99025000D03*
D16*
X104750000Y-119525000D03*
D17*
X105375000Y-119600000D03*
X105375000Y-121900000D03*
D16*
X104750000Y-121975000D03*
D15*
X178750000Y-86775000D03*
X178750000Y-85225000D03*
D12*
X117000000Y-92525000D03*
X117000000Y-93975000D03*
X186000000Y-133475000D03*
X186000000Y-132025000D03*
X164750000Y-96475000D03*
X164750000Y-95025000D03*
X131000000Y-93025000D03*
X131000000Y-94475000D03*
X164500000Y-52475000D03*
X164500000Y-51025000D03*
D26*
X171500000Y-99650000D03*
D27*
X171500000Y-97750000D03*
D26*
X118500000Y-77150000D03*
D27*
X118500000Y-75250000D03*
D29*
X117000000Y-63100000D03*
X117000000Y-64900000D03*
D28*
X163450000Y-118800000D03*
X162500000Y-118800000D03*
X161550000Y-118800000D03*
X161550000Y-121200000D03*
X162500000Y-121200000D03*
X163450000Y-121200000D03*
D11*
X120225000Y-105250000D03*
X118775000Y-105250000D03*
X122525000Y-64000000D03*
X123975000Y-64000000D03*
D12*
X129500000Y-117025000D03*
X129500000Y-118475000D03*
D16*
X187750000Y-73975000D03*
D17*
X187125000Y-73900000D03*
X187125000Y-71600000D03*
D16*
X187750000Y-71525000D03*
D11*
X161275000Y-116250000D03*
X162725000Y-116250000D03*
X119725000Y-134250000D03*
X118275000Y-134250000D03*
X118275000Y-111750000D03*
X119725000Y-111750000D03*
D28*
X163450000Y-130800000D03*
X162500000Y-130800000D03*
X161550000Y-130800000D03*
X161550000Y-133200000D03*
X162500000Y-133200000D03*
X163450000Y-133200000D03*
D11*
X119725000Y-122250000D03*
X118275000Y-122250000D03*
X178775000Y-122750000D03*
X180225000Y-122750000D03*
D29*
X175500000Y-94400000D03*
X175500000Y-92600000D03*
D11*
X122525000Y-76000000D03*
X123975000Y-76000000D03*
X165475000Y-116250000D03*
X164025000Y-116250000D03*
D25*
X163300000Y-60250000D03*
X161200000Y-60250000D03*
D22*
X179125000Y-132750000D03*
D23*
X180425000Y-132750000D03*
D41*
X118150000Y-45300000D03*
X116850000Y-45300000D03*
X117500000Y-47200000D03*
D22*
X113375000Y-72750000D03*
D23*
X112075000Y-72750000D03*
D13*
X131650000Y-69625000D03*
X131650000Y-70575000D03*
D12*
X186000000Y-97475000D03*
X186000000Y-96025000D03*
X178250000Y-46775000D03*
X178250000Y-48225000D03*
D20*
X186000000Y-135500000D03*
X186000000Y-136000000D03*
X186000000Y-136500000D03*
X187500000Y-136500000D03*
X187500000Y-136000000D03*
X187500000Y-135500000D03*
D12*
X128000000Y-105025000D03*
X128000000Y-106475000D03*
X186000000Y-73475000D03*
X186000000Y-72025000D03*
D14*
X100250000Y-52250000D03*
D12*
X133000000Y-69025000D03*
X133000000Y-70475000D03*
D13*
X177500000Y-95475000D03*
X177500000Y-94525000D03*
D12*
X158000000Y-86775000D03*
X158000000Y-88225000D03*
X178250000Y-70775000D03*
X178250000Y-72225000D03*
D19*
X115000000Y-106725000D03*
X115000000Y-108275000D03*
D12*
X161500000Y-64475000D03*
X161500000Y-63025000D03*
D11*
X131225000Y-119500000D03*
X129775000Y-119500000D03*
D12*
X134500000Y-118725000D03*
X134500000Y-117275000D03*
D21*
X125000000Y-54000000D03*
X125500000Y-54000000D03*
X126000000Y-54000000D03*
X126000000Y-52500000D03*
X125500000Y-52500000D03*
X125000000Y-52500000D03*
D13*
X160850000Y-111875000D03*
X160850000Y-110925000D03*
D26*
X174000000Y-92350000D03*
D27*
X174000000Y-94250000D03*
D12*
X131000000Y-135975000D03*
X131000000Y-134525000D03*
D25*
X129200000Y-97250000D03*
X131300000Y-97250000D03*
D11*
X187475000Y-129500000D03*
X186025000Y-129500000D03*
D12*
X164500000Y-59275000D03*
X164500000Y-60725000D03*
D28*
X167950000Y-106800000D03*
X167000000Y-106800000D03*
X166050000Y-106800000D03*
X166050000Y-109200000D03*
X167000000Y-109200000D03*
X167950000Y-109200000D03*
D12*
X159500000Y-136475000D03*
X159500000Y-135025000D03*
D16*
X187750000Y-109975000D03*
D17*
X187125000Y-109900000D03*
X187125000Y-107600000D03*
D16*
X187750000Y-107525000D03*
D26*
X120250000Y-75850000D03*
D27*
X120250000Y-77750000D03*
D28*
X167950000Y-118800000D03*
X167000000Y-118800000D03*
X166050000Y-118800000D03*
X166050000Y-121200000D03*
X167000000Y-121200000D03*
X167950000Y-121200000D03*
D13*
X162750000Y-46025000D03*
X162750000Y-46975000D03*
D19*
X163850000Y-46000000D03*
X165650000Y-46000000D03*
D11*
X131225000Y-95500000D03*
X129775000Y-95500000D03*
D20*
X106500000Y-46000000D03*
X106500000Y-45500000D03*
X106500000Y-45000000D03*
X105000000Y-45000000D03*
X105000000Y-45500000D03*
X105000000Y-46000000D03*
D11*
X117025000Y-61750000D03*
X118475000Y-61750000D03*
D12*
X158000000Y-100475000D03*
X158000000Y-99025000D03*
D24*
X155250000Y-52250000D03*
D15*
X178750000Y-74775000D03*
X178750000Y-73225000D03*
D11*
X124275000Y-99900000D03*
X125725000Y-99900000D03*
D12*
X128000000Y-117025000D03*
X128000000Y-118475000D03*
D21*
X159250000Y-88250000D03*
X159750000Y-88250000D03*
X160250000Y-88250000D03*
X160250000Y-86750000D03*
X159750000Y-86750000D03*
X159250000Y-86750000D03*
D12*
X175500000Y-74475000D03*
X175500000Y-73025000D03*
X164500000Y-71275000D03*
X164500000Y-72725000D03*
X164750000Y-108475000D03*
X164750000Y-107025000D03*
D28*
X163450000Y-106800000D03*
X162500000Y-106800000D03*
X161550000Y-106800000D03*
X161550000Y-109200000D03*
X162500000Y-109200000D03*
X163450000Y-109200000D03*
D12*
X134500000Y-81025000D03*
X134500000Y-82475000D03*
D11*
X127025000Y-77250000D03*
X128475000Y-77250000D03*
D26*
X169750000Y-98350000D03*
D27*
X169750000Y-100250000D03*
D28*
X124550000Y-50700000D03*
X125500000Y-50700000D03*
X126450000Y-50700000D03*
X126450000Y-48300000D03*
X125500000Y-48300000D03*
X124550000Y-48300000D03*
D12*
X127750000Y-85025000D03*
X127750000Y-86475000D03*
D26*
X174000000Y-104350000D03*
D27*
X174000000Y-106250000D03*
D11*
X161275000Y-104250000D03*
X162725000Y-104250000D03*
D24*
X137250000Y-136250000D03*
D11*
X122225000Y-110000000D03*
X120775000Y-110000000D03*
D13*
X174250000Y-49975000D03*
X174250000Y-49025000D03*
D12*
X128000000Y-134225000D03*
X128000000Y-132775000D03*
D11*
X170975000Y-131250000D03*
X169525000Y-131250000D03*
D12*
X117000000Y-135725000D03*
X117000000Y-134275000D03*
D13*
X162750000Y-58025000D03*
X162750000Y-58975000D03*
X177500000Y-107475000D03*
X177500000Y-106525000D03*
D12*
X163000000Y-76475000D03*
X163000000Y-75025000D03*
X175500000Y-57775000D03*
X175500000Y-59225000D03*
D29*
X175500000Y-118400000D03*
X175500000Y-116600000D03*
D16*
X99500000Y-83525000D03*
D17*
X100125000Y-83600000D03*
X100125000Y-85900000D03*
D16*
X99500000Y-85975000D03*
D12*
X164500000Y-64475000D03*
X164500000Y-63025000D03*
D11*
X124275000Y-111900000D03*
X125725000Y-111900000D03*
X121525000Y-74250000D03*
X122975000Y-74250000D03*
X169975000Y-129500000D03*
X168525000Y-129500000D03*
D12*
X128000000Y-129025000D03*
X128000000Y-130475000D03*
D21*
X125000000Y-78000000D03*
X125500000Y-78000000D03*
X126000000Y-78000000D03*
X126000000Y-76500000D03*
X125500000Y-76500000D03*
X125000000Y-76500000D03*
D10*
X119850000Y-84650000D03*
X118900000Y-84650000D03*
D26*
X169750000Y-122350000D03*
D27*
X169750000Y-124250000D03*
D15*
X113750000Y-94725000D03*
X113750000Y-96275000D03*
D13*
X115000000Y-74025000D03*
X115000000Y-74975000D03*
D21*
X171250000Y-86750000D03*
X170750000Y-86750000D03*
X170250000Y-86750000D03*
X170250000Y-88250000D03*
X170750000Y-88250000D03*
X171250000Y-88250000D03*
D26*
X118500000Y-53150000D03*
D27*
X118500000Y-51250000D03*
D12*
X161500000Y-57525000D03*
X161500000Y-58975000D03*
D21*
X125750000Y-94500000D03*
X126250000Y-94500000D03*
X126750000Y-94500000D03*
X126750000Y-93000000D03*
X126250000Y-93000000D03*
X125750000Y-93000000D03*
D20*
X106500000Y-130000000D03*
X106500000Y-129500000D03*
X106500000Y-129000000D03*
X105000000Y-129000000D03*
X105000000Y-129500000D03*
X105000000Y-130000000D03*
D25*
X163300000Y-72250000D03*
X161200000Y-72250000D03*
D13*
X174250000Y-85975000D03*
X174250000Y-85025000D03*
X118250000Y-107525000D03*
X118250000Y-108475000D03*
D12*
X114250000Y-122725000D03*
X114250000Y-121275000D03*
D28*
X129050000Y-74700000D03*
X130000000Y-74700000D03*
X130950000Y-74700000D03*
X130950000Y-72300000D03*
X130000000Y-72300000D03*
X129050000Y-72300000D03*
D12*
X117000000Y-123725000D03*
X117000000Y-122275000D03*
D10*
X172650000Y-132850000D03*
X173600000Y-132850000D03*
D11*
X131225000Y-65250000D03*
X129775000Y-65250000D03*
D26*
X121000000Y-57850000D03*
D27*
X121000000Y-59750000D03*
D11*
X106475000Y-99750000D03*
X105025000Y-99750000D03*
D12*
X129500000Y-129025000D03*
X129500000Y-130475000D03*
D11*
X172275000Y-52250000D03*
X173725000Y-52250000D03*
D14*
X100250000Y-112250000D03*
D12*
X127750000Y-49025000D03*
X127750000Y-50475000D03*
D24*
X137250000Y-124250000D03*
D11*
X174225000Y-45750000D03*
X172775000Y-45750000D03*
X165475000Y-104250000D03*
X164025000Y-104250000D03*
X161275000Y-50000000D03*
X162725000Y-50000000D03*
D28*
X167950000Y-94800000D03*
X167000000Y-94800000D03*
X166050000Y-94800000D03*
X166050000Y-97200000D03*
X167000000Y-97200000D03*
X167950000Y-97200000D03*
D13*
X118250000Y-119525000D03*
X118250000Y-120475000D03*
D26*
X121000000Y-69850000D03*
D27*
X121000000Y-71750000D03*
D12*
X161500000Y-76475000D03*
X161500000Y-75025000D03*
D21*
X125750000Y-130500000D03*
X126250000Y-130500000D03*
X126750000Y-130500000D03*
X126750000Y-129000000D03*
X126250000Y-129000000D03*
X125750000Y-129000000D03*
D11*
X186025000Y-81750000D03*
X187475000Y-81750000D03*
D20*
X170750000Y-82500000D03*
X170750000Y-82000000D03*
X170750000Y-81500000D03*
X169250000Y-81500000D03*
X169250000Y-82000000D03*
X169250000Y-82500000D03*
D19*
X163850000Y-82000000D03*
X165650000Y-82000000D03*
X128650000Y-123500000D03*
X126850000Y-123500000D03*
D12*
X175500000Y-76975000D03*
X175500000Y-75525000D03*
D11*
X175475000Y-95750000D03*
X174025000Y-95750000D03*
D41*
X174350000Y-124200000D03*
X175650000Y-124200000D03*
X175000000Y-122300000D03*
D11*
X161275000Y-62000000D03*
X162725000Y-62000000D03*
D20*
X186000000Y-99500000D03*
X186000000Y-100000000D03*
X186000000Y-100500000D03*
X187500000Y-100500000D03*
X187500000Y-100000000D03*
X187500000Y-99500000D03*
D26*
X171500000Y-135650000D03*
D27*
X171500000Y-133750000D03*
D18*
X126700000Y-108450000D03*
X124800000Y-108450000D03*
X125750000Y-110550000D03*
D12*
X117000000Y-95025000D03*
X117000000Y-96475000D03*
D22*
X179125000Y-96750000D03*
D23*
X180425000Y-96750000D03*
D28*
X124550000Y-62700000D03*
X125500000Y-62700000D03*
X126450000Y-62700000D03*
X126450000Y-60300000D03*
X125500000Y-60300000D03*
X124550000Y-60300000D03*
D21*
X133250000Y-105250000D03*
X132750000Y-105250000D03*
X132250000Y-105250000D03*
X132250000Y-106750000D03*
X132750000Y-106750000D03*
X133250000Y-106750000D03*
D11*
X178775000Y-94750000D03*
X180225000Y-94750000D03*
D12*
X114250000Y-98725000D03*
X114250000Y-97275000D03*
X175500000Y-62475000D03*
X175500000Y-61025000D03*
D11*
X123275000Y-117250000D03*
X124725000Y-117250000D03*
D24*
X137250000Y-105250000D03*
D15*
X178750000Y-62775000D03*
X178750000Y-61225000D03*
D11*
X105025000Y-64000000D03*
X106475000Y-64000000D03*
D20*
X186000000Y-63500000D03*
X186000000Y-64000000D03*
X186000000Y-64500000D03*
X187500000Y-64500000D03*
X187500000Y-64000000D03*
X187500000Y-63500000D03*
D12*
X134500000Y-130725000D03*
X134500000Y-129275000D03*
D25*
X129200000Y-109250000D03*
X131300000Y-109250000D03*
D12*
X161500000Y-52475000D03*
X161500000Y-51025000D03*
D11*
X187475000Y-117500000D03*
X186025000Y-117500000D03*
D28*
X163450000Y-94800000D03*
X162500000Y-94800000D03*
X161550000Y-94800000D03*
X161550000Y-97200000D03*
X162500000Y-97200000D03*
X163450000Y-97200000D03*
D10*
X172650000Y-120850000D03*
X173600000Y-120850000D03*
D11*
X123275000Y-129250000D03*
X124725000Y-129250000D03*
D12*
X159500000Y-112475000D03*
X159500000Y-111025000D03*
X106500000Y-84025000D03*
X106500000Y-85475000D03*
D16*
X104750000Y-107525000D03*
D17*
X105375000Y-107600000D03*
X105375000Y-109900000D03*
D16*
X104750000Y-109975000D03*
D28*
X167950000Y-130800000D03*
X167000000Y-130800000D03*
X166050000Y-130800000D03*
X166050000Y-133200000D03*
X167000000Y-133200000D03*
X167950000Y-133200000D03*
D21*
X121250000Y-106750000D03*
X121750000Y-106750000D03*
X122250000Y-106750000D03*
X122250000Y-105250000D03*
X121750000Y-105250000D03*
X121250000Y-105250000D03*
D12*
X131000000Y-123975000D03*
X131000000Y-122525000D03*
D16*
X99500000Y-71525000D03*
D17*
X100125000Y-71600000D03*
X100125000Y-73900000D03*
D16*
X99500000Y-73975000D03*
D12*
X117000000Y-119025000D03*
X117000000Y-120475000D03*
D11*
X169975000Y-105500000D03*
X168525000Y-105500000D03*
X172775000Y-47250000D03*
X174225000Y-47250000D03*
D21*
X167500000Y-127500000D03*
X167000000Y-127500000D03*
X166500000Y-127500000D03*
X166500000Y-129000000D03*
X167000000Y-129000000D03*
X167500000Y-129000000D03*
D10*
X172650000Y-108850000D03*
X173600000Y-108850000D03*
D12*
X158000000Y-50775000D03*
X158000000Y-52225000D03*
D11*
X121525000Y-62250000D03*
X122975000Y-62250000D03*
D16*
X187750000Y-97975000D03*
D17*
X187125000Y-97900000D03*
X187125000Y-95600000D03*
D16*
X187750000Y-95525000D03*
D11*
X186025000Y-57750000D03*
X187475000Y-57750000D03*
D12*
X106500000Y-48025000D03*
X106500000Y-49475000D03*
D19*
X177500000Y-50775000D03*
X177500000Y-49225000D03*
D14*
X192250000Y-105250000D03*
D20*
X186000000Y-87500000D03*
X186000000Y-88000000D03*
X186000000Y-88500000D03*
X187500000Y-88500000D03*
X187500000Y-88000000D03*
X187500000Y-87500000D03*
D16*
X104750000Y-131525000D03*
D17*
X105375000Y-131600000D03*
X105375000Y-133900000D03*
D16*
X104750000Y-133975000D03*
D24*
X137250000Y-93250000D03*
D11*
X106475000Y-111750000D03*
X105025000Y-111750000D03*
D12*
X158000000Y-74775000D03*
X158000000Y-76225000D03*
D11*
X106475000Y-123750000D03*
X105025000Y-123750000D03*
D41*
X118150000Y-57300000D03*
X116850000Y-57300000D03*
X117500000Y-59200000D03*
D12*
X106500000Y-120025000D03*
X106500000Y-121475000D03*
D11*
X117025000Y-85750000D03*
X118475000Y-85750000D03*
X169975000Y-93500000D03*
X168525000Y-93500000D03*
X170275000Y-47500000D03*
X171725000Y-47500000D03*
D16*
X187750000Y-49975000D03*
D17*
X187125000Y-49900000D03*
X187125000Y-47600000D03*
D16*
X187750000Y-47525000D03*
D21*
X166750000Y-51000000D03*
X166250000Y-51000000D03*
X165750000Y-51000000D03*
X165750000Y-52500000D03*
X166250000Y-52500000D03*
X166750000Y-52500000D03*
D11*
X170275000Y-83500000D03*
X171725000Y-83500000D03*
D20*
X186000000Y-51500000D03*
X186000000Y-52000000D03*
X186000000Y-52500000D03*
X187500000Y-52500000D03*
X187500000Y-52000000D03*
X187500000Y-51500000D03*
D11*
X178775000Y-106750000D03*
X180225000Y-106750000D03*
X118275000Y-99750000D03*
X119725000Y-99750000D03*
D21*
X171250000Y-50750000D03*
X170750000Y-50750000D03*
X170250000Y-50750000D03*
X170250000Y-52250000D03*
X170750000Y-52250000D03*
X171250000Y-52250000D03*
D26*
X171500000Y-123650000D03*
D27*
X171500000Y-121750000D03*
D13*
X115000000Y-86025000D03*
X115000000Y-86975000D03*
D12*
X159500000Y-124475000D03*
X159500000Y-123025000D03*
D11*
X122525000Y-52000000D03*
X123975000Y-52000000D03*
D16*
X99500000Y-95525000D03*
D17*
X100125000Y-95600000D03*
X100125000Y-97900000D03*
D16*
X99500000Y-97975000D03*
D13*
X131650000Y-45625000D03*
X131650000Y-46575000D03*
D11*
X170275000Y-71500000D03*
X171725000Y-71500000D03*
D26*
X172250000Y-117650000D03*
D27*
X172250000Y-115750000D03*
D26*
X172250000Y-129650000D03*
D27*
X172250000Y-127750000D03*
D21*
X166750000Y-63000000D03*
X166250000Y-63000000D03*
X165750000Y-63000000D03*
X165750000Y-64500000D03*
X166250000Y-64500000D03*
X166750000Y-64500000D03*
D29*
X175500000Y-130400000D03*
X175500000Y-128600000D03*
D16*
X99500000Y-131525000D03*
D17*
X100125000Y-131600000D03*
X100125000Y-133900000D03*
D16*
X99500000Y-133975000D03*
X99500000Y-47525000D03*
D17*
X100125000Y-47600000D03*
X100125000Y-49900000D03*
D16*
X99500000Y-49975000D03*
D21*
X167500000Y-91500000D03*
X167000000Y-91500000D03*
X166500000Y-91500000D03*
X166500000Y-93000000D03*
X167000000Y-93000000D03*
X167500000Y-93000000D03*
D12*
X133000000Y-81025000D03*
X133000000Y-82475000D03*
D13*
X131650000Y-57625000D03*
X131650000Y-58575000D03*
D11*
X169225000Y-52250000D03*
X167775000Y-52250000D03*
X165475000Y-128250000D03*
X164025000Y-128250000D03*
D20*
X186000000Y-123500000D03*
X186000000Y-124000000D03*
X186000000Y-124500000D03*
X187500000Y-124500000D03*
X187500000Y-124000000D03*
X187500000Y-123500000D03*
D12*
X178250000Y-82775000D03*
X178250000Y-84225000D03*
D21*
X121250000Y-94750000D03*
X121750000Y-94750000D03*
X122250000Y-94750000D03*
X122250000Y-93250000D03*
X121750000Y-93250000D03*
X121250000Y-93250000D03*
D13*
X115000000Y-50025000D03*
X115000000Y-50975000D03*
D11*
X172275000Y-76250000D03*
X173725000Y-76250000D03*
D42*
X110925000Y-97175000D03*
X110925000Y-96325000D03*
X110075000Y-97175000D03*
X110075000Y-96325000D03*
D43*
X111950000Y-97550000D03*
D44*
X111950000Y-97150000D03*
X111950000Y-96750000D03*
X111950000Y-96350000D03*
D45*
X111950000Y-95950000D03*
D46*
X111300000Y-95300000D03*
D47*
X110900000Y-95300000D03*
X110500000Y-95300000D03*
X110100000Y-95300000D03*
D48*
X109700000Y-95300000D03*
D49*
X109050000Y-95950000D03*
D44*
X109050000Y-96350000D03*
X109050000Y-96750000D03*
X109050000Y-97150000D03*
D50*
X109050000Y-97550000D03*
D51*
X109700000Y-98200000D03*
D47*
X110100000Y-98200000D03*
X110500000Y-98200000D03*
X110900000Y-98200000D03*
D52*
X111300000Y-98200000D03*
D11*
X131225000Y-131500000D03*
X129775000Y-131500000D03*
X178775000Y-118750000D03*
X180225000Y-118750000D03*
D12*
X164500000Y-47275000D03*
X164500000Y-48725000D03*
D24*
X137250000Y-100250000D03*
D13*
X129750000Y-111475000D03*
X129750000Y-110525000D03*
D19*
X128650000Y-135500000D03*
X126850000Y-135500000D03*
D29*
X117000000Y-87100000D03*
X117000000Y-88900000D03*
D21*
X133250000Y-93250000D03*
X132750000Y-93250000D03*
X132250000Y-93250000D03*
X132250000Y-94750000D03*
X132750000Y-94750000D03*
X133250000Y-94750000D03*
D11*
X113725000Y-58750000D03*
X112275000Y-58750000D03*
D14*
X100250000Y-64250000D03*
D30*
X181575000Y-84325000D03*
X181575000Y-85175000D03*
X182425000Y-84325000D03*
X182425000Y-85175000D03*
D31*
X180550000Y-83950000D03*
D32*
X180550000Y-84350000D03*
X180550000Y-84750000D03*
X180550000Y-85150000D03*
D33*
X180550000Y-85550000D03*
D34*
X181200000Y-86200000D03*
D35*
X181600000Y-86200000D03*
X182000000Y-86200000D03*
X182400000Y-86200000D03*
D36*
X182800000Y-86200000D03*
D37*
X183450000Y-85550000D03*
D32*
X183450000Y-85150000D03*
X183450000Y-84750000D03*
X183450000Y-84350000D03*
D38*
X183450000Y-83950000D03*
D39*
X182800000Y-83300000D03*
D35*
X182400000Y-83300000D03*
X182000000Y-83300000D03*
X181600000Y-83300000D03*
D40*
X181200000Y-83300000D03*
D11*
X175475000Y-107750000D03*
X174025000Y-107750000D03*
D26*
X171500000Y-111650000D03*
D27*
X171500000Y-109750000D03*
D16*
X104750000Y-47525000D03*
D17*
X105375000Y-47600000D03*
X105375000Y-49900000D03*
D16*
X104750000Y-49975000D03*
D11*
X168225000Y-81600000D03*
X166775000Y-81600000D03*
D16*
X193000000Y-133975000D03*
D17*
X192375000Y-133900000D03*
X192375000Y-131600000D03*
D16*
X193000000Y-131525000D03*
D11*
X118275000Y-135750000D03*
X119725000Y-135750000D03*
D28*
X129050000Y-62700000D03*
X130000000Y-62700000D03*
X130950000Y-62700000D03*
X130950000Y-60300000D03*
X130000000Y-60300000D03*
X129050000Y-60300000D03*
D11*
X121525000Y-50250000D03*
X122975000Y-50250000D03*
D13*
X177500000Y-131475000D03*
X177500000Y-130525000D03*
D11*
X127025000Y-65250000D03*
X128475000Y-65250000D03*
D12*
X133000000Y-45025000D03*
X133000000Y-46475000D03*
X128000000Y-122225000D03*
X128000000Y-120775000D03*
D11*
X119725000Y-98250000D03*
X118275000Y-98250000D03*
D19*
X163850000Y-70000000D03*
X165650000Y-70000000D03*
D11*
X113725000Y-70750000D03*
X112275000Y-70750000D03*
D21*
X159250000Y-76250000D03*
X159750000Y-76250000D03*
X160250000Y-76250000D03*
X160250000Y-74750000D03*
X159750000Y-74750000D03*
X159250000Y-74750000D03*
D12*
X134500000Y-106725000D03*
X134500000Y-105275000D03*
M02*
