G04 #@! TF.GenerationSoftware,KiCad,Pcbnew,9.0.8*
G04 #@! TF.CreationDate,2026-09-27T01:48:11+09:00*
G04 #@! TF.ProjectId,motordecoder2-K3037,6d6f746f-7264-4656-936f-646572322d4b,rev?*
G04 #@! TF.SameCoordinates,Original*
G04 #@! TF.FileFunction,Profile,NP*
%FSLAX46Y46*%
G04 Gerber Fmt 4.6, Leading zero omitted, Abs format (unit mm)*
G04 Created by KiCad (PCBNEW 9.0.8) date 2026-09-27 01:48:11*
%MOMM*%
%LPD*%
G01*
G04 APERTURE LIST*
G04 #@! TA.AperFunction,Profile*
%ADD10C,0.150000*%
G04 #@! TD*
%ADD11C,0.150000*%
G04 APERTURE END LIST*
D10*
X185500000Y-66750000D02*
X185500000Y-65750000D01*
X197000000Y-107250000D02*
X195000000Y-107250000D01*
X118000000Y-55000000D02*
X134000000Y-55000000D01*
X137500000Y-96750000D02*
X137500000Y-94750000D01*
X111500000Y-93750000D02*
X111500000Y-97750000D01*
X173000000Y-81750000D02*
X175000000Y-81750000D01*
X195000000Y-89750000D02*
X195000000Y-91750000D01*
X153000000Y-91750000D02*
X153000000Y-89750000D01*
X178500000Y-65750000D02*
G75*
G02*
X179500000Y-64750000I1000000J0D01*
G01*
X156250000Y-102750000D02*
G75*
G02*
X156750000Y-102250000I500000J0D01*
G01*
X102000000Y-55000000D02*
X118000000Y-55000000D01*
X111250000Y-72750000D02*
X108750000Y-72750000D01*
X166000000Y-55000000D02*
X150000000Y-55000000D01*
X163000000Y-85750000D02*
X165000000Y-85750000D01*
X140500000Y-97750000D02*
X140500000Y-93750000D01*
X105750000Y-66750000D02*
X105750000Y-65750000D01*
X152500000Y-89250000D02*
X151000000Y-89250000D01*
X150000000Y-129750000D02*
X150000000Y-50750000D01*
X136500000Y-115250000D02*
X134000000Y-115250000D01*
X146500000Y-106250000D02*
X146500000Y-113250000D01*
X156750000Y-107250000D02*
G75*
G02*
X156250000Y-106750000I0J500000D01*
G01*
X133000000Y-97250000D02*
X133000000Y-105750000D01*
X157000000Y-86750000D02*
G75*
G02*
X156500000Y-86250000I0J500000D01*
G01*
X198000000Y-115250000D02*
X198000000Y-125000000D01*
X124750000Y-77750000D02*
G75*
G02*
X124250000Y-77250000I0J500000D01*
G01*
X117000000Y-105750000D02*
X115000000Y-105750000D01*
X175750000Y-106750000D02*
G75*
G02*
X175250000Y-107250000I-500000J0D01*
G01*
X137500000Y-96750000D02*
G75*
G02*
X137000000Y-97250000I-500000J0D01*
G01*
X146500000Y-106250000D02*
G75*
G02*
X147000000Y-105750000I500000J0D01*
G01*
X114500000Y-106250000D02*
G75*
G02*
X115000000Y-105750000I500000J0D01*
G01*
X146250000Y-65750000D02*
G75*
G02*
X147250000Y-64750000I1000000J0D01*
G01*
X147000000Y-97250000D02*
X149000000Y-97250000D01*
X169750000Y-114250000D02*
G75*
G02*
X168750000Y-115250000I-1000000J0D01*
G01*
X173000000Y-86750000D02*
G75*
G02*
X172500000Y-86250000I0J500000D01*
G01*
X167000000Y-107250000D02*
X167000000Y-92250000D01*
X165000000Y-92250000D02*
X165000000Y-107250000D01*
X135000000Y-90750000D02*
X136500000Y-90750000D01*
X133000000Y-87750000D02*
X131500000Y-87750000D01*
X163000000Y-74250000D02*
X165000000Y-74250000D01*
X99000000Y-113250000D02*
X201000000Y-113250000D01*
X115000000Y-88250000D02*
G75*
G02*
X115500000Y-87750000I500000J0D01*
G01*
X181000000Y-85750000D02*
X181000000Y-89250000D01*
X108500000Y-93750000D02*
G75*
G02*
X109000000Y-93250000I500000J0D01*
G01*
X147000000Y-72750000D02*
X149000000Y-72750000D01*
X140750000Y-77750000D02*
G75*
G02*
X140250000Y-77250000I0J500000D01*
G01*
X153500000Y-73750000D02*
X153500000Y-66750000D01*
X131000000Y-88250000D02*
G75*
G02*
X131500000Y-87750000I500000J0D01*
G01*
X169500000Y-85250000D02*
X169500000Y-83250000D01*
X136750000Y-64750000D02*
X134000000Y-64750000D01*
X151000000Y-74250000D02*
X153000000Y-74250000D01*
X140500000Y-93750000D02*
G75*
G02*
X141000000Y-93250000I500000J0D01*
G01*
X117000000Y-87750000D02*
X115500000Y-87750000D01*
X136500000Y-87750000D02*
X135000000Y-87750000D01*
X183000000Y-85750000D02*
X185000000Y-85750000D01*
X195000000Y-85750000D02*
X197000000Y-85750000D01*
X185500000Y-73750000D02*
X185500000Y-66750000D01*
X131000000Y-72750000D02*
X133000000Y-72750000D01*
X195500000Y-92250000D02*
X197000000Y-92250000D01*
X111250000Y-72750000D02*
G75*
G02*
X111750000Y-73250000I0J-500000D01*
G01*
X149000000Y-97250000D02*
X149000000Y-105750000D01*
X105750000Y-72000000D02*
X105750000Y-66750000D01*
X119000000Y-97250000D02*
X121000000Y-97250000D01*
X117000000Y-72750000D02*
X117000000Y-87750000D01*
X151000000Y-107250000D02*
X151000000Y-92250000D01*
X120500000Y-87750000D02*
X119000000Y-87750000D01*
X191000000Y-81750000D02*
G75*
G02*
X191500000Y-82250000I0J-500000D01*
G01*
X153500000Y-85250000D02*
X153500000Y-83250000D01*
X115500000Y-90750000D02*
G75*
G02*
X115000000Y-90250000I0J500000D01*
G01*
X149000000Y-94250000D02*
X147000000Y-94250000D01*
X125000000Y-98250000D02*
G75*
G02*
X124500000Y-97750000I0J500000D01*
G01*
X179000000Y-85750000D02*
X181000000Y-85750000D01*
X147000000Y-88250000D02*
X147000000Y-90250000D01*
X188250000Y-102750000D02*
X188250000Y-106750000D01*
X149000000Y-72750000D02*
X149000000Y-87750000D01*
X194500000Y-65750000D02*
G75*
G02*
X195500000Y-64750000I1000000J0D01*
G01*
X151000000Y-85750000D02*
X153000000Y-85750000D01*
X157000000Y-81750000D02*
X159000000Y-81750000D01*
X141000000Y-98250000D02*
G75*
G02*
X140500000Y-97750000I0J500000D01*
G01*
X172750000Y-107250000D02*
G75*
G02*
X172250000Y-106750000I0J500000D01*
G01*
X184500000Y-64750000D02*
G75*
G02*
X185500000Y-65750000I0J-1000000D01*
G01*
X146500000Y-94750000D02*
X146500000Y-96750000D01*
X175250000Y-102250000D02*
X172750000Y-102250000D01*
X124250000Y-73250000D02*
X124250000Y-77250000D01*
X195000000Y-85750000D02*
G75*
G02*
X194500000Y-85250000I0J500000D01*
G01*
X195000000Y-89750000D02*
G75*
G02*
X195500000Y-89250000I500000J0D01*
G01*
X185000000Y-91750000D02*
X185000000Y-89750000D01*
X137500000Y-113250000D02*
X137500000Y-106250000D01*
X147000000Y-72750000D02*
G75*
G02*
X146250000Y-72000000I0J750000D01*
G01*
X175000000Y-81750000D02*
G75*
G02*
X175500000Y-82250000I0J-500000D01*
G01*
X181000000Y-92250000D02*
X181000000Y-107250000D01*
X191250000Y-102250000D02*
G75*
G02*
X191750000Y-102750000I0J-500000D01*
G01*
X133000000Y-90750000D02*
X133000000Y-94250000D01*
X184750000Y-115250000D02*
X182000000Y-115250000D01*
X111000000Y-93250000D02*
X109000000Y-93250000D01*
X181000000Y-82750000D02*
X179000000Y-82750000D01*
X121500000Y-114250000D02*
G75*
G02*
X120500000Y-115250000I-1000000J0D01*
G01*
X130250000Y-65750000D02*
G75*
G02*
X131250000Y-64750000I1000000J0D01*
G01*
X169000000Y-91750000D02*
G75*
G02*
X168500000Y-92250000I-500000J0D01*
G01*
X121500000Y-96750000D02*
X121500000Y-94750000D01*
X165000000Y-74250000D02*
X165000000Y-82750000D01*
X153750000Y-113250000D02*
X153750000Y-108000000D01*
X197000000Y-85750000D02*
X197000000Y-89250000D01*
X105500000Y-96750000D02*
G75*
G02*
X105000000Y-97250000I-500000J0D01*
G01*
X179500000Y-92250000D02*
X181000000Y-92250000D01*
X168750000Y-115250000D02*
X166000000Y-115250000D01*
X198000000Y-55000000D02*
X198000000Y-64750000D01*
X191500000Y-86250000D02*
G75*
G02*
X191000000Y-86750000I-500000J0D01*
G01*
X159250000Y-102250000D02*
G75*
G02*
X159750000Y-102750000I0J-500000D01*
G01*
X153000000Y-82750000D02*
X151000000Y-82750000D01*
X194250000Y-113250000D02*
X194250000Y-114250000D01*
X137000000Y-94250000D02*
X135000000Y-94250000D01*
X131500000Y-115250000D02*
X134000000Y-115250000D01*
X167000000Y-89250000D02*
X167000000Y-85750000D01*
X152750000Y-115250000D02*
X150000000Y-115250000D01*
X127500000Y-97750000D02*
G75*
G02*
X127000000Y-98250000I-500000J0D01*
G01*
X189000000Y-81750000D02*
X191000000Y-81750000D01*
X135000000Y-87750000D02*
X135000000Y-72750000D01*
X127500000Y-93750000D02*
X127500000Y-97750000D01*
X147500000Y-90750000D02*
G75*
G02*
X147000000Y-90250000I0J500000D01*
G01*
X119000000Y-105750000D02*
X119000000Y-97250000D01*
X140750000Y-77750000D02*
X143250000Y-77750000D01*
X119000000Y-72750000D02*
X121000000Y-72750000D01*
X169750000Y-113250000D02*
X169750000Y-114250000D01*
X153000000Y-107250000D02*
G75*
G02*
X153750000Y-108000000I0J-750000D01*
G01*
X102000000Y-64750000D02*
X102000000Y-55000000D01*
X166000000Y-125000000D02*
X150000000Y-125000000D01*
X179250000Y-115250000D02*
X182000000Y-115250000D01*
X115000000Y-88250000D02*
X115000000Y-90250000D01*
X135000000Y-105750000D02*
X135000000Y-97250000D01*
X103000000Y-97250000D02*
X105000000Y-97250000D01*
X162500000Y-65750000D02*
G75*
G02*
X163500000Y-64750000I1000000J0D01*
G01*
X169500000Y-85250000D02*
G75*
G02*
X169000000Y-85750000I-500000J0D01*
G01*
X143000000Y-98250000D02*
X141000000Y-98250000D01*
X115000000Y-72750000D02*
G75*
G02*
X114250000Y-72000000I0J750000D01*
G01*
X114250000Y-66750000D02*
X114250000Y-65750000D01*
X198000000Y-55000000D02*
X182000000Y-55000000D01*
X185000000Y-91750000D02*
G75*
G02*
X184500000Y-92250000I-500000J0D01*
G01*
X172250000Y-102750000D02*
G75*
G02*
X172750000Y-102250000I500000J0D01*
G01*
X105500000Y-113250000D02*
X105500000Y-114250000D01*
X162250000Y-108000000D02*
G75*
G02*
X163000000Y-107250000I750000J0D01*
G01*
X153500000Y-73750000D02*
G75*
G02*
X153000000Y-74250000I-500000J0D01*
G01*
X124500000Y-97750000D02*
X124500000Y-93750000D01*
X188750000Y-107250000D02*
G75*
G02*
X188250000Y-106750000I0J500000D01*
G01*
X156500000Y-82250000D02*
G75*
G02*
X157000000Y-81750000I500000J0D01*
G01*
X185750000Y-113250000D02*
X185750000Y-114250000D01*
X179000000Y-74250000D02*
X181000000Y-74250000D01*
X143250000Y-72750000D02*
G75*
G02*
X143750000Y-73250000I0J-500000D01*
G01*
X130500000Y-94750000D02*
G75*
G02*
X131000000Y-94250000I500000J0D01*
G01*
X197000000Y-82750000D02*
X195000000Y-82750000D01*
X159750000Y-106750000D02*
X159750000Y-102750000D01*
X194250000Y-108000000D02*
X194250000Y-113250000D01*
X162500000Y-66750000D02*
X162500000Y-65750000D01*
X179000000Y-89750000D02*
X179000000Y-91750000D01*
X169750000Y-113250000D02*
X169750000Y-108000000D01*
X169500000Y-73750000D02*
G75*
G02*
X169000000Y-74250000I-500000J0D01*
G01*
X134000000Y-55000000D02*
X150000000Y-55000000D01*
X133000000Y-72750000D02*
X133000000Y-87750000D01*
X121500000Y-113250000D02*
X121500000Y-106250000D01*
X127750000Y-77250000D02*
X127750000Y-73250000D01*
X105000000Y-90250000D02*
X105000000Y-88250000D01*
X178500000Y-66750000D02*
X178500000Y-73750000D01*
X191500000Y-82250000D02*
X191500000Y-86250000D01*
X121000000Y-94250000D02*
G75*
G02*
X121500000Y-94750000I0J-500000D01*
G01*
X163500000Y-92250000D02*
G75*
G02*
X163000000Y-91750000I0J500000D01*
G01*
X183000000Y-82750000D02*
X183000000Y-74250000D01*
X131500000Y-90750000D02*
G75*
G02*
X131000000Y-90250000I0J500000D01*
G01*
X124750000Y-77750000D02*
X127250000Y-77750000D01*
X178500000Y-83250000D02*
G75*
G02*
X179000000Y-82750000I500000J0D01*
G01*
X105500000Y-113250000D02*
X105500000Y-106250000D01*
X169000000Y-91750000D02*
X169000000Y-89750000D01*
X175500000Y-86250000D02*
G75*
G02*
X175000000Y-86750000I-500000J0D01*
G01*
X181000000Y-74250000D02*
X181000000Y-82750000D01*
X162500000Y-83250000D02*
G75*
G02*
X163000000Y-82750000I500000J0D01*
G01*
X185000000Y-107250000D02*
G75*
G02*
X185750000Y-108000000I0J-750000D01*
G01*
X152500000Y-64750000D02*
X150000000Y-64750000D01*
X115500000Y-90750000D02*
X117000000Y-90750000D01*
X136500000Y-87750000D02*
G75*
G02*
X137000000Y-88250000I0J-500000D01*
G01*
X156500000Y-86250000D02*
X156500000Y-82250000D01*
X115000000Y-72750000D02*
X117000000Y-72750000D01*
X194250000Y-108000000D02*
G75*
G02*
X195000000Y-107250000I750000J0D01*
G01*
X185000000Y-82750000D02*
G75*
G02*
X185500000Y-83250000I0J-500000D01*
G01*
X137000000Y-105750000D02*
X135000000Y-105750000D01*
X159500000Y-86250000D02*
G75*
G02*
X159000000Y-86750000I-500000J0D01*
G01*
X163000000Y-89750000D02*
X163000000Y-91750000D01*
X183000000Y-74250000D02*
X185000000Y-74250000D01*
X173000000Y-86750000D02*
X175000000Y-86750000D01*
X147250000Y-64750000D02*
X150000000Y-64750000D01*
X185750000Y-114250000D02*
G75*
G02*
X184750000Y-115250000I-1000000J0D01*
G01*
X131500000Y-115250000D02*
G75*
G02*
X130500000Y-114250000I0J1000000D01*
G01*
X197000000Y-74250000D02*
X197000000Y-82750000D01*
X121750000Y-72000000D02*
X121750000Y-66750000D01*
X163000000Y-74250000D02*
G75*
G02*
X162500000Y-73750000I0J500000D01*
G01*
X151000000Y-92250000D02*
X152500000Y-92250000D01*
X185500000Y-85250000D02*
X185500000Y-83250000D01*
X159500000Y-82250000D02*
X159500000Y-86250000D01*
X167000000Y-82750000D02*
X167000000Y-74250000D01*
X178250000Y-108000000D02*
X178250000Y-113250000D01*
X172250000Y-102750000D02*
X172250000Y-106750000D01*
X137000000Y-90250000D02*
X137000000Y-88250000D01*
X172500000Y-86250000D02*
X172500000Y-82250000D01*
X163250000Y-115250000D02*
G75*
G02*
X162250000Y-114250000I0J1000000D01*
G01*
X105000000Y-105750000D02*
G75*
G02*
X105500000Y-106250000I0J-500000D01*
G01*
X163000000Y-89750000D02*
G75*
G02*
X163500000Y-89250000I500000J0D01*
G01*
X146500000Y-113250000D02*
X146500000Y-114250000D01*
X165000000Y-85750000D02*
X165000000Y-89250000D01*
X103000000Y-90750000D02*
X104500000Y-90750000D01*
X163250000Y-115250000D02*
X166000000Y-115250000D01*
X143750000Y-77250000D02*
X143750000Y-73250000D01*
X165000000Y-107250000D02*
X163000000Y-107250000D01*
X147500000Y-115250000D02*
X150000000Y-115250000D01*
X111000000Y-93250000D02*
G75*
G02*
X111500000Y-93750000I0J-500000D01*
G01*
X179000000Y-74250000D02*
G75*
G02*
X178500000Y-73750000I0J500000D01*
G01*
X119000000Y-94250000D02*
X119000000Y-90750000D01*
X194500000Y-83250000D02*
G75*
G02*
X195000000Y-82750000I500000J0D01*
G01*
X121000000Y-105750000D02*
G75*
G02*
X121500000Y-106250000I0J-500000D01*
G01*
X183000000Y-92250000D02*
X184500000Y-92250000D01*
X181000000Y-107250000D02*
X179000000Y-107250000D01*
X195000000Y-74250000D02*
X197000000Y-74250000D01*
X156750000Y-107250000D02*
X159250000Y-107250000D01*
X143000000Y-93250000D02*
X141000000Y-93250000D01*
X108750000Y-77750000D02*
X111250000Y-77750000D01*
X143750000Y-77250000D02*
G75*
G02*
X143250000Y-77750000I-500000J0D01*
G01*
X111500000Y-97750000D02*
G75*
G02*
X111000000Y-98250000I-500000J0D01*
G01*
X159250000Y-102250000D02*
X156750000Y-102250000D01*
X137000000Y-90250000D02*
G75*
G02*
X136500000Y-90750000I-500000J0D01*
G01*
X115250000Y-64750000D02*
X118000000Y-64750000D01*
X115500000Y-115250000D02*
G75*
G02*
X114500000Y-114250000I0J1000000D01*
G01*
X188250000Y-102750000D02*
G75*
G02*
X188750000Y-102250000I500000J0D01*
G01*
X140250000Y-73250000D02*
G75*
G02*
X140750000Y-72750000I500000J0D01*
G01*
X178250000Y-108000000D02*
G75*
G02*
X179000000Y-107250000I750000J0D01*
G01*
X146250000Y-66750000D02*
X146250000Y-72000000D01*
X102000000Y-125000000D02*
X118000000Y-125000000D01*
X137500000Y-113250000D02*
X137500000Y-114250000D01*
X117000000Y-94250000D02*
X115000000Y-94250000D01*
X175500000Y-82250000D02*
X175500000Y-86250000D01*
X143000000Y-93250000D02*
G75*
G02*
X143500000Y-93750000I0J-500000D01*
G01*
X159750000Y-106750000D02*
G75*
G02*
X159250000Y-107250000I-500000J0D01*
G01*
X178500000Y-83250000D02*
X178500000Y-85250000D01*
X99000000Y-66750000D02*
X201000000Y-66750000D01*
X121000000Y-105750000D02*
X119000000Y-105750000D01*
X137750000Y-72000000D02*
G75*
G02*
X137000000Y-72750000I-750000J0D01*
G01*
X178500000Y-66750000D02*
X178500000Y-65750000D01*
X195500000Y-64750000D02*
X198000000Y-64750000D01*
X121750000Y-72000000D02*
G75*
G02*
X121000000Y-72750000I-750000J0D01*
G01*
X179500000Y-64750000D02*
X182000000Y-64750000D01*
X131000000Y-88250000D02*
X131000000Y-90250000D01*
X131000000Y-72750000D02*
G75*
G02*
X130250000Y-72000000I0J750000D01*
G01*
X169000000Y-82750000D02*
G75*
G02*
X169500000Y-83250000I0J-500000D01*
G01*
X114250000Y-66750000D02*
X114250000Y-72000000D01*
X175250000Y-102250000D02*
G75*
G02*
X175750000Y-102750000I0J-500000D01*
G01*
X137500000Y-114250000D02*
G75*
G02*
X136500000Y-115250000I-1000000J0D01*
G01*
X194500000Y-66750000D02*
X194500000Y-73750000D01*
X130500000Y-106250000D02*
X130500000Y-113250000D01*
X167000000Y-74250000D02*
X169000000Y-74250000D01*
X162250000Y-108000000D02*
X162250000Y-113250000D01*
X178250000Y-113250000D02*
X178250000Y-114250000D01*
X104750000Y-64750000D02*
X102000000Y-64750000D01*
X103000000Y-72750000D02*
X105000000Y-72750000D01*
X104500000Y-115250000D02*
X102000000Y-115250000D01*
X143250000Y-72750000D02*
X140750000Y-72750000D01*
X182000000Y-125000000D02*
X166000000Y-125000000D01*
X104500000Y-87750000D02*
G75*
G02*
X105000000Y-88250000I0J-500000D01*
G01*
X182000000Y-55000000D02*
X166000000Y-55000000D01*
X165000000Y-82750000D02*
X163000000Y-82750000D01*
X191250000Y-102250000D02*
X188750000Y-102250000D01*
X153750000Y-113250000D02*
X153750000Y-114250000D01*
X153000000Y-91750000D02*
G75*
G02*
X152500000Y-92250000I-500000J0D01*
G01*
X163000000Y-85750000D02*
G75*
G02*
X162500000Y-85250000I0J500000D01*
G01*
X115000000Y-97250000D02*
G75*
G02*
X114500000Y-96750000I0J500000D01*
G01*
X143500000Y-97750000D02*
G75*
G02*
X143000000Y-98250000I-500000J0D01*
G01*
X121000000Y-94250000D02*
X119000000Y-94250000D01*
X175750000Y-106750000D02*
X175750000Y-102750000D01*
X137750000Y-66750000D02*
X137750000Y-65750000D01*
X121000000Y-90250000D02*
X121000000Y-88250000D01*
X133000000Y-94250000D02*
X131000000Y-94250000D01*
X140250000Y-73250000D02*
X140250000Y-77250000D01*
X133000000Y-105750000D02*
X131000000Y-105750000D01*
X197000000Y-89250000D02*
X195500000Y-89250000D01*
X162250000Y-113250000D02*
X162250000Y-114250000D01*
X114500000Y-94750000D02*
X114500000Y-96750000D01*
X172500000Y-82250000D02*
G75*
G02*
X173000000Y-81750000I500000J0D01*
G01*
X105500000Y-114250000D02*
G75*
G02*
X104500000Y-115250000I-1000000J0D01*
G01*
X114500000Y-94750000D02*
G75*
G02*
X115000000Y-94250000I500000J0D01*
G01*
X137750000Y-72000000D02*
X137750000Y-66750000D01*
X197000000Y-92250000D02*
X197000000Y-107250000D01*
X167000000Y-85750000D02*
X169000000Y-85750000D01*
X124250000Y-73250000D02*
G75*
G02*
X124750000Y-72750000I500000J0D01*
G01*
X111750000Y-77250000D02*
G75*
G02*
X111250000Y-77750000I-500000J0D01*
G01*
X137000000Y-94250000D02*
G75*
G02*
X137500000Y-94750000I0J-500000D01*
G01*
X167000000Y-92250000D02*
X168500000Y-92250000D01*
X169000000Y-107250000D02*
X167000000Y-107250000D01*
X195500000Y-92250000D02*
G75*
G02*
X195000000Y-91750000I0J500000D01*
G01*
X105000000Y-105750000D02*
X103000000Y-105750000D01*
X153500000Y-85250000D02*
G75*
G02*
X153000000Y-85750000I-500000J0D01*
G01*
X114500000Y-113250000D02*
X114500000Y-114250000D01*
X185500000Y-73750000D02*
G75*
G02*
X185000000Y-74250000I-500000J0D01*
G01*
X169000000Y-82750000D02*
X167000000Y-82750000D01*
X108250000Y-73250000D02*
G75*
G02*
X108750000Y-72750000I500000J0D01*
G01*
X185000000Y-107250000D02*
X183000000Y-107250000D01*
X135000000Y-72750000D02*
X137000000Y-72750000D01*
X102000000Y-125000000D02*
X102000000Y-115250000D01*
X119000000Y-87750000D02*
X119000000Y-72750000D01*
X117000000Y-90750000D02*
X117000000Y-94250000D01*
X103000000Y-94250000D02*
X103000000Y-90750000D01*
X185500000Y-85250000D02*
G75*
G02*
X185000000Y-85750000I-500000J0D01*
G01*
X157000000Y-86750000D02*
X159000000Y-86750000D01*
X147500000Y-90750000D02*
X149000000Y-90750000D01*
X194500000Y-66750000D02*
X194500000Y-65750000D01*
X127250000Y-72750000D02*
G75*
G02*
X127750000Y-73250000I0J-500000D01*
G01*
X184500000Y-64750000D02*
X182000000Y-64750000D01*
X117000000Y-97250000D02*
X117000000Y-105750000D01*
X104750000Y-64750000D02*
G75*
G02*
X105750000Y-65750000I0J-1000000D01*
G01*
X114250000Y-65750000D02*
G75*
G02*
X115250000Y-64750000I1000000J0D01*
G01*
X136750000Y-64750000D02*
G75*
G02*
X137750000Y-65750000I0J-1000000D01*
G01*
X149000000Y-87750000D02*
X147500000Y-87750000D01*
X152500000Y-89250000D02*
G75*
G02*
X153000000Y-89750000I0J-500000D01*
G01*
X127000000Y-93250000D02*
X125000000Y-93250000D01*
X135000000Y-94250000D02*
X135000000Y-90750000D01*
X127000000Y-93250000D02*
G75*
G02*
X127500000Y-93750000I0J-500000D01*
G01*
X169500000Y-66750000D02*
X169500000Y-65750000D01*
X153500000Y-66750000D02*
X153500000Y-65750000D01*
X105000000Y-94250000D02*
G75*
G02*
X105500000Y-94750000I0J-500000D01*
G01*
X181000000Y-89250000D02*
X179500000Y-89250000D01*
X149000000Y-90750000D02*
X149000000Y-94250000D01*
X188500000Y-86250000D02*
X188500000Y-82250000D01*
X105000000Y-94250000D02*
X103000000Y-94250000D01*
X146500000Y-94750000D02*
G75*
G02*
X147000000Y-94250000I500000J0D01*
G01*
X152500000Y-64750000D02*
G75*
G02*
X153500000Y-65750000I0J-1000000D01*
G01*
X156250000Y-102750000D02*
X156250000Y-106750000D01*
X130500000Y-94750000D02*
X130500000Y-96750000D01*
X198000000Y-125000000D02*
X182000000Y-125000000D01*
X119000000Y-90750000D02*
X120500000Y-90750000D01*
X194500000Y-83250000D02*
X194500000Y-85250000D01*
X103000000Y-105750000D02*
X103000000Y-97250000D01*
X168500000Y-64750000D02*
G75*
G02*
X169500000Y-65750000I0J-1000000D01*
G01*
X146250000Y-66750000D02*
X146250000Y-65750000D01*
X121750000Y-66750000D02*
X121750000Y-65750000D01*
X179500000Y-92250000D02*
G75*
G02*
X179000000Y-91750000I0J500000D01*
G01*
X165000000Y-89250000D02*
X163500000Y-89250000D01*
X179000000Y-85750000D02*
G75*
G02*
X178500000Y-85250000I0J500000D01*
G01*
X147000000Y-88250000D02*
G75*
G02*
X147500000Y-87750000I500000J0D01*
G01*
X188750000Y-107250000D02*
X191250000Y-107250000D01*
X184500000Y-89250000D02*
G75*
G02*
X185000000Y-89750000I0J-500000D01*
G01*
X195000000Y-74250000D02*
G75*
G02*
X194500000Y-73750000I0J500000D01*
G01*
X153000000Y-82750000D02*
G75*
G02*
X153500000Y-83250000I0J-500000D01*
G01*
X120500000Y-87750000D02*
G75*
G02*
X121000000Y-88250000I0J-500000D01*
G01*
X108250000Y-73250000D02*
X108250000Y-77250000D01*
X195250000Y-115250000D02*
X198000000Y-115250000D01*
X162500000Y-83250000D02*
X162500000Y-85250000D01*
X104500000Y-87750000D02*
X103000000Y-87750000D01*
X149000000Y-105750000D02*
X147000000Y-105750000D01*
X121500000Y-113250000D02*
X121500000Y-114250000D01*
X195250000Y-115250000D02*
G75*
G02*
X194250000Y-114250000I0J1000000D01*
G01*
X130250000Y-66750000D02*
X130250000Y-65750000D01*
X183000000Y-89250000D02*
X183000000Y-85750000D01*
X184500000Y-89250000D02*
X183000000Y-89250000D01*
X120750000Y-64750000D02*
G75*
G02*
X121750000Y-65750000I0J-1000000D01*
G01*
X131000000Y-97250000D02*
G75*
G02*
X130500000Y-96750000I0J500000D01*
G01*
X111000000Y-98250000D02*
X109000000Y-98250000D01*
X120750000Y-64750000D02*
X118000000Y-64750000D01*
X124500000Y-93750000D02*
G75*
G02*
X125000000Y-93250000I500000J0D01*
G01*
X159000000Y-81750000D02*
G75*
G02*
X159500000Y-82250000I0J-500000D01*
G01*
X147000000Y-97250000D02*
G75*
G02*
X146500000Y-96750000I0J500000D01*
G01*
X114500000Y-106250000D02*
X114500000Y-113250000D01*
X163500000Y-64750000D02*
X166000000Y-64750000D01*
X172750000Y-107250000D02*
X175250000Y-107250000D01*
X169000000Y-107250000D02*
G75*
G02*
X169750000Y-108000000I0J-750000D01*
G01*
X189000000Y-86750000D02*
X191000000Y-86750000D01*
X147500000Y-115250000D02*
G75*
G02*
X146500000Y-114250000I0J1000000D01*
G01*
X105750000Y-72000000D02*
G75*
G02*
X105000000Y-72750000I-750000J0D01*
G01*
X130500000Y-106250000D02*
G75*
G02*
X131000000Y-105750000I500000J0D01*
G01*
X188500000Y-82250000D02*
G75*
G02*
X189000000Y-81750000I500000J0D01*
G01*
X185750000Y-113250000D02*
X185750000Y-108000000D01*
X183000000Y-107250000D02*
X183000000Y-92250000D01*
X151000000Y-82750000D02*
X151000000Y-74250000D01*
X115500000Y-115250000D02*
X118000000Y-115250000D01*
X118000000Y-125000000D02*
X134000000Y-125000000D01*
X120500000Y-115250000D02*
X118000000Y-115250000D01*
X137000000Y-105750000D02*
G75*
G02*
X137500000Y-106250000I0J-500000D01*
G01*
X109000000Y-98250000D02*
G75*
G02*
X108500000Y-97750000I0J500000D01*
G01*
X111750000Y-77250000D02*
X111750000Y-73250000D01*
X162500000Y-66750000D02*
X162500000Y-73750000D01*
X130500000Y-113250000D02*
X130500000Y-114250000D01*
X191750000Y-106750000D02*
G75*
G02*
X191250000Y-107250000I-500000J0D01*
G01*
X185000000Y-82750000D02*
X183000000Y-82750000D01*
X153000000Y-107250000D02*
X151000000Y-107250000D01*
X127750000Y-77250000D02*
G75*
G02*
X127250000Y-77750000I-500000J0D01*
G01*
X108750000Y-77750000D02*
G75*
G02*
X108250000Y-77250000I0J500000D01*
G01*
X127000000Y-98250000D02*
X125000000Y-98250000D01*
X169500000Y-73750000D02*
X169500000Y-66750000D01*
X121000000Y-90250000D02*
G75*
G02*
X120500000Y-90750000I-500000J0D01*
G01*
X121500000Y-96750000D02*
G75*
G02*
X121000000Y-97250000I-500000J0D01*
G01*
X105000000Y-90250000D02*
G75*
G02*
X104500000Y-90750000I-500000J0D01*
G01*
X189000000Y-86750000D02*
G75*
G02*
X188500000Y-86250000I0J500000D01*
G01*
X135000000Y-97250000D02*
X137000000Y-97250000D01*
X115000000Y-97250000D02*
X117000000Y-97250000D01*
X131000000Y-97250000D02*
X133000000Y-97250000D01*
X108500000Y-97750000D02*
X108500000Y-93750000D01*
X143500000Y-93750000D02*
X143500000Y-97750000D01*
X179000000Y-89750000D02*
G75*
G02*
X179500000Y-89250000I500000J0D01*
G01*
X131250000Y-64750000D02*
X134000000Y-64750000D01*
X151000000Y-89250000D02*
X151000000Y-85750000D01*
X153750000Y-114250000D02*
G75*
G02*
X152750000Y-115250000I-1000000J0D01*
G01*
X179250000Y-115250000D02*
G75*
G02*
X178250000Y-114250000I0J1000000D01*
G01*
X105500000Y-96750000D02*
X105500000Y-94750000D01*
X130250000Y-66750000D02*
X130250000Y-72000000D01*
X168500000Y-89250000D02*
G75*
G02*
X169000000Y-89750000I0J-500000D01*
G01*
X168500000Y-64750000D02*
X166000000Y-64750000D01*
X168500000Y-89250000D02*
X167000000Y-89250000D01*
X191750000Y-106750000D02*
X191750000Y-102750000D01*
X103000000Y-87750000D02*
X103000000Y-72750000D01*
X163500000Y-92250000D02*
X165000000Y-92250000D01*
X134000000Y-125000000D02*
X150000000Y-125000000D01*
X127250000Y-72750000D02*
X124750000Y-72750000D01*
X131500000Y-90750000D02*
X133000000Y-90750000D01*
D11*
X89853697Y-112704819D02*
X90187030Y-113704819D01*
X90187030Y-113704819D02*
X90520363Y-112704819D01*
X90853697Y-113323866D02*
X91615602Y-113323866D01*
X92663220Y-113609580D02*
X92615601Y-113657200D01*
X92615601Y-113657200D02*
X92472744Y-113704819D01*
X92472744Y-113704819D02*
X92377506Y-113704819D01*
X92377506Y-113704819D02*
X92234649Y-113657200D01*
X92234649Y-113657200D02*
X92139411Y-113561961D01*
X92139411Y-113561961D02*
X92091792Y-113466723D01*
X92091792Y-113466723D02*
X92044173Y-113276247D01*
X92044173Y-113276247D02*
X92044173Y-113133390D01*
X92044173Y-113133390D02*
X92091792Y-112942914D01*
X92091792Y-112942914D02*
X92139411Y-112847676D01*
X92139411Y-112847676D02*
X92234649Y-112752438D01*
X92234649Y-112752438D02*
X92377506Y-112704819D01*
X92377506Y-112704819D02*
X92472744Y-112704819D01*
X92472744Y-112704819D02*
X92615601Y-112752438D01*
X92615601Y-112752438D02*
X92663220Y-112800057D01*
X93091792Y-112704819D02*
X93091792Y-113514342D01*
X93091792Y-113514342D02*
X93139411Y-113609580D01*
X93139411Y-113609580D02*
X93187030Y-113657200D01*
X93187030Y-113657200D02*
X93282268Y-113704819D01*
X93282268Y-113704819D02*
X93472744Y-113704819D01*
X93472744Y-113704819D02*
X93567982Y-113657200D01*
X93567982Y-113657200D02*
X93615601Y-113609580D01*
X93615601Y-113609580D02*
X93663220Y-113514342D01*
X93663220Y-113514342D02*
X93663220Y-112704819D01*
X93996554Y-112704819D02*
X94567982Y-112704819D01*
X94282268Y-113704819D02*
X94282268Y-112704819D01*
X95663221Y-113323866D02*
X96425126Y-113323866D01*
X96901316Y-113038152D02*
X97663221Y-113323866D01*
X97663221Y-113323866D02*
X96901316Y-113609580D01*
X203098684Y-66538152D02*
X202336779Y-66823866D01*
X202336779Y-66823866D02*
X203098684Y-67109580D01*
X203574874Y-66823866D02*
X204336779Y-66823866D01*
X205432017Y-66204819D02*
X205765350Y-67204819D01*
X205765350Y-67204819D02*
X206098683Y-66204819D01*
X206432017Y-66823866D02*
X207193922Y-66823866D01*
X208241540Y-67109580D02*
X208193921Y-67157200D01*
X208193921Y-67157200D02*
X208051064Y-67204819D01*
X208051064Y-67204819D02*
X207955826Y-67204819D01*
X207955826Y-67204819D02*
X207812969Y-67157200D01*
X207812969Y-67157200D02*
X207717731Y-67061961D01*
X207717731Y-67061961D02*
X207670112Y-66966723D01*
X207670112Y-66966723D02*
X207622493Y-66776247D01*
X207622493Y-66776247D02*
X207622493Y-66633390D01*
X207622493Y-66633390D02*
X207670112Y-66442914D01*
X207670112Y-66442914D02*
X207717731Y-66347676D01*
X207717731Y-66347676D02*
X207812969Y-66252438D01*
X207812969Y-66252438D02*
X207955826Y-66204819D01*
X207955826Y-66204819D02*
X208051064Y-66204819D01*
X208051064Y-66204819D02*
X208193921Y-66252438D01*
X208193921Y-66252438D02*
X208241540Y-66300057D01*
X208670112Y-66204819D02*
X208670112Y-67014342D01*
X208670112Y-67014342D02*
X208717731Y-67109580D01*
X208717731Y-67109580D02*
X208765350Y-67157200D01*
X208765350Y-67157200D02*
X208860588Y-67204819D01*
X208860588Y-67204819D02*
X209051064Y-67204819D01*
X209051064Y-67204819D02*
X209146302Y-67157200D01*
X209146302Y-67157200D02*
X209193921Y-67109580D01*
X209193921Y-67109580D02*
X209241540Y-67014342D01*
X209241540Y-67014342D02*
X209241540Y-66204819D01*
X209574874Y-66204819D02*
X210146302Y-66204819D01*
X209860588Y-67204819D02*
X209860588Y-66204819D01*
X203098684Y-113038152D02*
X202336779Y-113323866D01*
X202336779Y-113323866D02*
X203098684Y-113609580D01*
X203574874Y-113323866D02*
X204336779Y-113323866D01*
X205432017Y-112704819D02*
X205765350Y-113704819D01*
X205765350Y-113704819D02*
X206098683Y-112704819D01*
X206432017Y-113323866D02*
X207193922Y-113323866D01*
X208241540Y-113609580D02*
X208193921Y-113657200D01*
X208193921Y-113657200D02*
X208051064Y-113704819D01*
X208051064Y-113704819D02*
X207955826Y-113704819D01*
X207955826Y-113704819D02*
X207812969Y-113657200D01*
X207812969Y-113657200D02*
X207717731Y-113561961D01*
X207717731Y-113561961D02*
X207670112Y-113466723D01*
X207670112Y-113466723D02*
X207622493Y-113276247D01*
X207622493Y-113276247D02*
X207622493Y-113133390D01*
X207622493Y-113133390D02*
X207670112Y-112942914D01*
X207670112Y-112942914D02*
X207717731Y-112847676D01*
X207717731Y-112847676D02*
X207812969Y-112752438D01*
X207812969Y-112752438D02*
X207955826Y-112704819D01*
X207955826Y-112704819D02*
X208051064Y-112704819D01*
X208051064Y-112704819D02*
X208193921Y-112752438D01*
X208193921Y-112752438D02*
X208241540Y-112800057D01*
X208670112Y-112704819D02*
X208670112Y-113514342D01*
X208670112Y-113514342D02*
X208717731Y-113609580D01*
X208717731Y-113609580D02*
X208765350Y-113657200D01*
X208765350Y-113657200D02*
X208860588Y-113704819D01*
X208860588Y-113704819D02*
X209051064Y-113704819D01*
X209051064Y-113704819D02*
X209146302Y-113657200D01*
X209146302Y-113657200D02*
X209193921Y-113609580D01*
X209193921Y-113609580D02*
X209241540Y-113514342D01*
X209241540Y-113514342D02*
X209241540Y-112704819D01*
X209574874Y-112704819D02*
X210146302Y-112704819D01*
X209860588Y-113704819D02*
X209860588Y-112704819D01*
X89853697Y-66204819D02*
X90187030Y-67204819D01*
X90187030Y-67204819D02*
X90520363Y-66204819D01*
X90853697Y-66823866D02*
X91615602Y-66823866D01*
X92663220Y-67109580D02*
X92615601Y-67157200D01*
X92615601Y-67157200D02*
X92472744Y-67204819D01*
X92472744Y-67204819D02*
X92377506Y-67204819D01*
X92377506Y-67204819D02*
X92234649Y-67157200D01*
X92234649Y-67157200D02*
X92139411Y-67061961D01*
X92139411Y-67061961D02*
X92091792Y-66966723D01*
X92091792Y-66966723D02*
X92044173Y-66776247D01*
X92044173Y-66776247D02*
X92044173Y-66633390D01*
X92044173Y-66633390D02*
X92091792Y-66442914D01*
X92091792Y-66442914D02*
X92139411Y-66347676D01*
X92139411Y-66347676D02*
X92234649Y-66252438D01*
X92234649Y-66252438D02*
X92377506Y-66204819D01*
X92377506Y-66204819D02*
X92472744Y-66204819D01*
X92472744Y-66204819D02*
X92615601Y-66252438D01*
X92615601Y-66252438D02*
X92663220Y-66300057D01*
X93091792Y-66204819D02*
X93091792Y-67014342D01*
X93091792Y-67014342D02*
X93139411Y-67109580D01*
X93139411Y-67109580D02*
X93187030Y-67157200D01*
X93187030Y-67157200D02*
X93282268Y-67204819D01*
X93282268Y-67204819D02*
X93472744Y-67204819D01*
X93472744Y-67204819D02*
X93567982Y-67157200D01*
X93567982Y-67157200D02*
X93615601Y-67109580D01*
X93615601Y-67109580D02*
X93663220Y-67014342D01*
X93663220Y-67014342D02*
X93663220Y-66204819D01*
X93996554Y-66204819D02*
X94567982Y-66204819D01*
X94282268Y-67204819D02*
X94282268Y-66204819D01*
X95663221Y-66823866D02*
X96425126Y-66823866D01*
X96901316Y-66538152D02*
X97663221Y-66823866D01*
X97663221Y-66823866D02*
X96901316Y-67109580D01*
X149454819Y-139396302D02*
X150454819Y-139062969D01*
X150454819Y-139062969D02*
X149454819Y-138729636D01*
X150073866Y-138396302D02*
X150073866Y-137634398D01*
X150359580Y-136586779D02*
X150407200Y-136634398D01*
X150407200Y-136634398D02*
X150454819Y-136777255D01*
X150454819Y-136777255D02*
X150454819Y-136872493D01*
X150454819Y-136872493D02*
X150407200Y-137015350D01*
X150407200Y-137015350D02*
X150311961Y-137110588D01*
X150311961Y-137110588D02*
X150216723Y-137158207D01*
X150216723Y-137158207D02*
X150026247Y-137205826D01*
X150026247Y-137205826D02*
X149883390Y-137205826D01*
X149883390Y-137205826D02*
X149692914Y-137158207D01*
X149692914Y-137158207D02*
X149597676Y-137110588D01*
X149597676Y-137110588D02*
X149502438Y-137015350D01*
X149502438Y-137015350D02*
X149454819Y-136872493D01*
X149454819Y-136872493D02*
X149454819Y-136777255D01*
X149454819Y-136777255D02*
X149502438Y-136634398D01*
X149502438Y-136634398D02*
X149550057Y-136586779D01*
X149454819Y-136158207D02*
X150264342Y-136158207D01*
X150264342Y-136158207D02*
X150359580Y-136110588D01*
X150359580Y-136110588D02*
X150407200Y-136062969D01*
X150407200Y-136062969D02*
X150454819Y-135967731D01*
X150454819Y-135967731D02*
X150454819Y-135777255D01*
X150454819Y-135777255D02*
X150407200Y-135682017D01*
X150407200Y-135682017D02*
X150359580Y-135634398D01*
X150359580Y-135634398D02*
X150264342Y-135586779D01*
X150264342Y-135586779D02*
X149454819Y-135586779D01*
X149454819Y-135253445D02*
X149454819Y-134682017D01*
X150454819Y-134967731D02*
X149454819Y-134967731D01*
X150073866Y-133586778D02*
X150073866Y-132824874D01*
X149788152Y-132348683D02*
X150073866Y-131586779D01*
X150073866Y-131586779D02*
X150359580Y-132348683D01*
X149788152Y-49151316D02*
X150073866Y-49913220D01*
X150073866Y-49913220D02*
X150359580Y-49151316D01*
X150073866Y-48675125D02*
X150073866Y-47913221D01*
X149454819Y-46817982D02*
X150454819Y-46484649D01*
X150454819Y-46484649D02*
X149454819Y-46151316D01*
X150073866Y-45817982D02*
X150073866Y-45056078D01*
X150359580Y-44008459D02*
X150407200Y-44056078D01*
X150407200Y-44056078D02*
X150454819Y-44198935D01*
X150454819Y-44198935D02*
X150454819Y-44294173D01*
X150454819Y-44294173D02*
X150407200Y-44437030D01*
X150407200Y-44437030D02*
X150311961Y-44532268D01*
X150311961Y-44532268D02*
X150216723Y-44579887D01*
X150216723Y-44579887D02*
X150026247Y-44627506D01*
X150026247Y-44627506D02*
X149883390Y-44627506D01*
X149883390Y-44627506D02*
X149692914Y-44579887D01*
X149692914Y-44579887D02*
X149597676Y-44532268D01*
X149597676Y-44532268D02*
X149502438Y-44437030D01*
X149502438Y-44437030D02*
X149454819Y-44294173D01*
X149454819Y-44294173D02*
X149454819Y-44198935D01*
X149454819Y-44198935D02*
X149502438Y-44056078D01*
X149502438Y-44056078D02*
X149550057Y-44008459D01*
X149454819Y-43579887D02*
X150264342Y-43579887D01*
X150264342Y-43579887D02*
X150359580Y-43532268D01*
X150359580Y-43532268D02*
X150407200Y-43484649D01*
X150407200Y-43484649D02*
X150454819Y-43389411D01*
X150454819Y-43389411D02*
X150454819Y-43198935D01*
X150454819Y-43198935D02*
X150407200Y-43103697D01*
X150407200Y-43103697D02*
X150359580Y-43056078D01*
X150359580Y-43056078D02*
X150264342Y-43008459D01*
X150264342Y-43008459D02*
X149454819Y-43008459D01*
X149454819Y-42675125D02*
X149454819Y-42103697D01*
X150454819Y-42389411D02*
X149454819Y-42389411D01*
M02*
