G04 #@! TF.GenerationSoftware,KiCad,Pcbnew,9.0.8*
G04 #@! TF.CreationDate,2026-09-27T01:48:11+09:00*
G04 #@! TF.ProjectId,motordecoder2-K3037,6d6f746f-7264-4656-936f-646572322d4b,rev?*
G04 #@! TF.SameCoordinates,Original*
G04 #@! TF.FileFunction,Soldermask,Top*
G04 #@! TF.FilePolarity,Negative*
%FSLAX46Y46*%
G04 Gerber Fmt 4.6, Leading zero omitted, Abs format (unit mm)*
G04 Created by KiCad (PCBNEW 9.0.8) date 2026-09-27 01:48:11*
%MOMM*%
%LPD*%
G01*
G04 APERTURE LIST*
G04 Aperture macros list*
%AMRoundRect*
0 Rectangle with rounded corners*
0 $1 Rounding radius*
0 $2 $3 $4 $5 $6 $7 $8 $9 X,Y pos of 4 corners*
0 Add a 4 corners polygon primitive as box body*
4,1,4,$2,$3,$4,$5,$6,$7,$8,$9,$2,$3,0*
0 Add four circle primitives for the rounded corners*
1,1,$1+$1,$2,$3*
1,1,$1+$1,$4,$5*
1,1,$1+$1,$6,$7*
1,1,$1+$1,$8,$9*
0 Add four rect primitives between the rounded corners*
20,1,$1+$1,$2,$3,$4,$5,0*
20,1,$1+$1,$4,$5,$6,$7,0*
20,1,$1+$1,$6,$7,$8,$9,0*
20,1,$1+$1,$8,$9,$2,$3,0*%
%AMFreePoly0*
4,1,14,0.334644,0.085355,0.385355,0.034644,0.400000,-0.000711,0.400000,-0.050000,0.385355,-0.085355,0.350000,-0.100000,-0.350000,-0.100000,-0.385355,-0.085355,-0.400000,-0.050000,-0.400000,0.050000,-0.385355,0.085355,-0.350000,0.100000,0.299289,0.100000,0.334644,0.085355,0.334644,0.085355,$1*%
%AMFreePoly1*
4,1,14,0.385355,0.085355,0.400000,0.050000,0.400000,0.000711,0.385355,-0.034644,0.334644,-0.085355,0.299289,-0.100000,-0.350000,-0.100000,-0.385355,-0.085355,-0.400000,-0.050000,-0.400000,0.050000,-0.385355,0.085355,-0.350000,0.100000,0.350000,0.100000,0.385355,0.085355,0.385355,0.085355,$1*%
%AMFreePoly2*
4,1,14,0.085355,0.385355,0.100000,0.350000,0.100000,-0.350000,0.085355,-0.385355,0.050000,-0.400000,-0.050000,-0.400000,-0.085355,-0.385355,-0.100000,-0.350000,-0.100000,0.299289,-0.085355,0.334644,-0.034644,0.385355,0.000711,0.400000,0.050000,0.400000,0.085355,0.385355,0.085355,0.385355,$1*%
%AMFreePoly3*
4,1,14,0.034644,0.385355,0.085355,0.334644,0.100000,0.299289,0.100000,-0.350000,0.085355,-0.385355,0.050000,-0.400000,-0.050000,-0.400000,-0.085355,-0.385355,-0.100000,-0.350000,-0.100000,0.350000,-0.085355,0.385355,-0.050000,0.400000,-0.000711,0.400000,0.034644,0.385355,0.034644,0.385355,$1*%
%AMFreePoly4*
4,1,14,0.385355,0.085355,0.400000,0.050000,0.400000,-0.050000,0.385355,-0.085355,0.350000,-0.100000,-0.299289,-0.100000,-0.334644,-0.085355,-0.385355,-0.034644,-0.400000,0.000711,-0.400000,0.050000,-0.385355,0.085355,-0.350000,0.100000,0.350000,0.100000,0.385355,0.085355,0.385355,0.085355,$1*%
%AMFreePoly5*
4,1,14,0.385355,0.085355,0.400000,0.050000,0.400000,-0.050000,0.385355,-0.085355,0.350000,-0.100000,-0.350000,-0.100000,-0.385355,-0.085355,-0.400000,-0.050000,-0.400000,-0.000711,-0.385355,0.034644,-0.334644,0.085355,-0.299289,0.100000,0.350000,0.100000,0.385355,0.085355,0.385355,0.085355,$1*%
%AMFreePoly6*
4,1,14,0.085355,0.385355,0.100000,0.350000,0.100000,-0.299289,0.085355,-0.334644,0.034644,-0.385355,-0.000711,-0.400000,-0.050000,-0.400000,-0.085355,-0.385355,-0.100000,-0.350000,-0.100000,0.350000,-0.085355,0.385355,-0.050000,0.400000,0.050000,0.400000,0.085355,0.385355,0.085355,0.385355,$1*%
%AMFreePoly7*
4,1,14,0.085355,0.385355,0.100000,0.350000,0.100000,-0.350000,0.085355,-0.385355,0.050000,-0.400000,0.000711,-0.400000,-0.034644,-0.385355,-0.085355,-0.334644,-0.100000,-0.299289,-0.100000,0.350000,-0.085355,0.385355,-0.050000,0.400000,0.050000,0.400000,0.085355,0.385355,0.085355,0.385355,$1*%
%AMFreePoly8*
4,1,47,0.149899,0.332478,0.291718,0.280861,0.417811,0.197929,0.521379,0.088154,0.596839,-0.042547,0.636960,-0.176560,0.637078,-0.176678,0.637078,-0.176952,0.640124,-0.187127,0.637078,-0.208803,0.637078,-0.214946,0.636073,-0.215950,0.635824,-0.217728,0.614358,-0.239957,0.611576,-0.240447,0.610018,-0.242006,0.590884,-0.245812,-0.590884,-0.245812,-0.610018,-0.242006,-0.611574,-0.240449,
-0.614358,-0.239959,-0.635824,-0.217731,-0.636074,-0.215949,-0.637078,-0.214946,-0.637078,-0.208806,-0.640124,-0.187130,-0.637078,-0.176955,-0.637078,-0.176678,-0.636959,-0.176559,-0.627754,-0.145812,-0.531220,-0.145812,-0.527837,-0.145812,0.527837,-0.145812,0.531220,-0.145812,0.530204,-0.140096,0.527837,-0.145812,-0.527837,-0.145812,-0.530204,-0.140095,-0.531220,-0.145812,-0.627754,-0.145812,
-0.596840,-0.042549,-0.521380,0.088152,-0.417812,0.197928,-0.291720,0.280860,-0.149901,0.332478,-0.000001,0.349999,0.149899,0.332478,0.149899,0.332478,$1*%
G04 Aperture macros list end*
%ADD10C,0.250000*%
%ADD11C,0.200000*%
%ADD12R,0.600000X0.400000*%
%ADD13R,0.700000X0.700000*%
%ADD14R,0.550000X0.500000*%
%ADD15R,1.000000X1.000000*%
%ADD16R,0.900000X0.500000*%
%ADD17R,0.500000X0.900000*%
%ADD18R,0.900000X0.800000*%
%ADD19R,0.600000X0.800000*%
%ADD20R,0.500000X0.800000*%
%ADD21R,0.600000X1.000000*%
%ADD22C,2.000000*%
%ADD23R,0.450000X0.300000*%
%ADD24R,1.200000X0.900000*%
%ADD25R,0.800000X0.900000*%
%ADD26FreePoly0,270.000000*%
%ADD27RoundRect,0.050000X-0.050000X0.350000X-0.050000X-0.350000X0.050000X-0.350000X0.050000X0.350000X0*%
%ADD28FreePoly1,270.000000*%
%ADD29FreePoly2,270.000000*%
%ADD30RoundRect,0.050000X-0.350000X0.050000X-0.350000X-0.050000X0.350000X-0.050000X0.350000X0.050000X0*%
%ADD31FreePoly3,270.000000*%
%ADD32FreePoly4,270.000000*%
%ADD33FreePoly5,270.000000*%
%ADD34FreePoly6,270.000000*%
%ADD35FreePoly7,270.000000*%
%ADD36R,1.700000X1.700000*%
%ADD37FreePoly8,180.000000*%
%ADD38FreePoly8,0.000000*%
%ADD39R,0.400000X0.600000*%
%ADD40R,1.200000X1.200000*%
%ADD41R,0.300000X0.450000*%
%ADD42R,0.800000X0.800000*%
%ADD43R,0.500000X0.550000*%
%ADD44R,0.700000X0.800000*%
%ADD45FreePoly0,90.000000*%
%ADD46RoundRect,0.050000X0.050000X-0.350000X0.050000X0.350000X-0.050000X0.350000X-0.050000X-0.350000X0*%
%ADD47FreePoly1,90.000000*%
%ADD48FreePoly2,90.000000*%
%ADD49RoundRect,0.050000X0.350000X-0.050000X0.350000X0.050000X-0.350000X0.050000X-0.350000X-0.050000X0*%
%ADD50FreePoly3,90.000000*%
%ADD51FreePoly4,90.000000*%
%ADD52FreePoly5,90.000000*%
%ADD53FreePoly6,90.000000*%
%ADD54FreePoly7,90.000000*%
%ADD55R,1.000000X1.400000*%
%ADD56C,1.500000*%
%ADD57R,1.400000X1.000000*%
%ADD58R,0.950000X0.950000*%
G04 APERTURE END LIST*
D10*
X145600000Y-73750000D02*
X144600000Y-73750000D01*
D11*
X144599870Y-73999737D02*
G75*
G02*
X144600001Y-73500001I500130J249737D01*
G01*
X145600130Y-73500262D02*
G75*
G02*
X145600000Y-73999999I-500130J-249738D01*
G01*
D10*
X186400000Y-106250000D02*
X187400000Y-106250000D01*
D11*
X186399870Y-106499738D02*
G75*
G02*
X186400000Y-106000001I500130J249738D01*
G01*
X187400130Y-106000263D02*
G75*
G02*
X187399999Y-106499999I-500130J-249737D01*
G01*
D10*
X154400000Y-106250000D02*
X155400000Y-106250000D01*
D11*
X154399870Y-106499738D02*
G75*
G02*
X154400000Y-106000001I500130J249738D01*
G01*
X155400130Y-106000263D02*
G75*
G02*
X155399999Y-106499999I-500130J-249737D01*
G01*
D10*
X129600000Y-73750000D02*
X128600000Y-73750000D01*
D11*
X128599870Y-73999737D02*
G75*
G02*
X128600001Y-73500001I500130J249737D01*
G01*
X129600130Y-73500262D02*
G75*
G02*
X129600000Y-73999999I-500130J-249738D01*
G01*
D10*
X113600000Y-73750000D02*
X112600000Y-73750000D01*
D11*
X112599870Y-73999737D02*
G75*
G02*
X112600001Y-73500001I500130J249737D01*
G01*
X113600130Y-73500262D02*
G75*
G02*
X113600000Y-73999999I-500130J-249738D01*
G01*
D10*
X170400000Y-106250000D02*
X171400000Y-106250000D01*
D11*
X170399870Y-106499738D02*
G75*
G02*
X170400000Y-106000001I500130J249738D01*
G01*
X171400130Y-106000263D02*
G75*
G02*
X171399999Y-106499999I-500130J-249737D01*
G01*
D12*
X125900000Y-106000000D03*
X125900000Y-105100000D03*
D13*
X159700000Y-77000000D03*
X158750000Y-77000000D03*
X157800000Y-77000000D03*
X157800000Y-79500000D03*
X158750000Y-79500000D03*
X159700000Y-79500000D03*
D12*
X128900000Y-106800000D03*
X128900000Y-107700000D03*
X158100000Y-74000000D03*
X158100000Y-74900000D03*
D14*
X187325000Y-96300000D03*
X188275000Y-96300000D03*
D12*
X141500000Y-90400000D03*
X141500000Y-91300000D03*
D15*
X138500000Y-111750000D03*
D16*
X136500000Y-74500000D03*
X136500000Y-76000000D03*
D13*
X175700000Y-77000000D03*
X174750000Y-77000000D03*
X173800000Y-77000000D03*
X173800000Y-79500000D03*
X174750000Y-79500000D03*
X175700000Y-79500000D03*
D17*
X145250000Y-89650000D03*
X143750000Y-89650000D03*
D18*
X179600000Y-102800000D03*
X179600000Y-100700000D03*
D19*
X138150000Y-85250000D03*
X136450000Y-85250000D03*
D20*
X193850000Y-105600000D03*
X192550000Y-105600000D03*
X193200000Y-107500000D03*
D13*
X188450000Y-77000000D03*
X187500000Y-77000000D03*
X186550000Y-77000000D03*
X186550000Y-79500000D03*
X187500000Y-79500000D03*
X188450000Y-79500000D03*
D21*
X194200000Y-88550000D03*
D22*
X142000000Y-63750000D03*
D23*
X160775000Y-96250000D03*
X160775000Y-95750000D03*
X160775000Y-95250000D03*
X159425000Y-95250000D03*
X159425000Y-95750000D03*
X159425000Y-96250000D03*
D24*
X178450000Y-79250000D03*
D25*
X180250000Y-79250000D03*
X180250000Y-77250000D03*
X178250000Y-77250000D03*
D16*
X147300000Y-75200000D03*
X147300000Y-73700000D03*
D14*
X173675000Y-80500000D03*
X172725000Y-80500000D03*
D26*
X188300000Y-97800000D03*
D27*
X187900000Y-97800000D03*
X187500000Y-97800000D03*
X187100000Y-97800000D03*
D28*
X186700000Y-97800000D03*
D29*
X186050000Y-98450000D03*
D30*
X186050000Y-98850000D03*
X186050000Y-99250000D03*
X186050000Y-99650000D03*
D31*
X186050000Y-100050000D03*
D32*
X186700000Y-100700000D03*
D27*
X187100000Y-100700000D03*
X187500000Y-100700000D03*
X187900000Y-100700000D03*
D33*
X188300000Y-100700000D03*
D34*
X188950000Y-100050000D03*
D30*
X188950000Y-99650000D03*
X188950000Y-99250000D03*
X188950000Y-98850000D03*
D35*
X188950000Y-98450000D03*
D36*
X187500000Y-99250000D03*
D37*
X145100000Y-74100000D03*
D38*
X145100000Y-73400000D03*
D21*
X176300000Y-104150000D03*
D20*
X106150000Y-74400000D03*
X107450000Y-74400000D03*
X106800000Y-72500000D03*
D17*
X195450000Y-96150000D03*
X193950000Y-96150000D03*
D12*
X192600000Y-90800000D03*
X192600000Y-89900000D03*
X188700000Y-74500000D03*
X188700000Y-75400000D03*
D17*
X116250000Y-101750000D03*
X114750000Y-101750000D03*
D39*
X189150000Y-94050000D03*
X190050000Y-94050000D03*
D18*
X136400000Y-77200000D03*
X136400000Y-79300000D03*
D40*
X107000000Y-68000000D03*
D38*
X186900000Y-105900000D03*
D37*
X186900000Y-106600000D03*
D39*
X174450000Y-75850000D03*
X173550000Y-75850000D03*
D16*
X126000000Y-70200000D03*
X126000000Y-71700000D03*
D41*
X184000000Y-104025000D03*
X184500000Y-104025000D03*
X185000000Y-104025000D03*
X185000000Y-102675000D03*
X184500000Y-102675000D03*
X184000000Y-102675000D03*
D17*
X120550000Y-83850000D03*
X122050000Y-83850000D03*
D42*
X162100000Y-102625000D03*
X162100000Y-101075000D03*
D20*
X177850000Y-105600000D03*
X176550000Y-105600000D03*
X177200000Y-107500000D03*
D43*
X123000000Y-102275000D03*
X123000000Y-101325000D03*
D41*
X142800000Y-107625000D03*
X143300000Y-107625000D03*
X143800000Y-107625000D03*
X143800000Y-106275000D03*
X143300000Y-106275000D03*
X142800000Y-106275000D03*
D39*
X141550000Y-104150000D03*
X142450000Y-104150000D03*
D19*
X122150000Y-85250000D03*
X120450000Y-85250000D03*
D17*
X131950000Y-78450000D03*
X130450000Y-78450000D03*
D12*
X155900000Y-92300000D03*
X155900000Y-91400000D03*
D44*
X123400000Y-77375000D03*
X123400000Y-78925000D03*
D14*
X142325000Y-99500000D03*
X143275000Y-99500000D03*
D12*
X173400000Y-89600000D03*
X173400000Y-88700000D03*
D42*
X137900000Y-77375000D03*
X137900000Y-78925000D03*
D39*
X112150000Y-104150000D03*
X113050000Y-104150000D03*
X126150000Y-84750000D03*
X127050000Y-84750000D03*
D43*
X160000000Y-93925000D03*
X160000000Y-92975000D03*
D17*
X179450000Y-96150000D03*
X177950000Y-96150000D03*
D20*
X186350000Y-110100000D03*
X187650000Y-110100000D03*
X187000000Y-108200000D03*
D40*
X132000000Y-93250000D03*
D12*
X141000000Y-87800000D03*
X141000000Y-88700000D03*
D39*
X127850000Y-86650000D03*
X128750000Y-86650000D03*
D20*
X113650000Y-69900000D03*
X112350000Y-69900000D03*
X113000000Y-71800000D03*
D12*
X123400000Y-89200000D03*
X123400000Y-90100000D03*
D17*
X184050000Y-101550000D03*
X185550000Y-101550000D03*
D43*
X145100000Y-87575000D03*
X145100000Y-88525000D03*
D17*
X170550000Y-95050000D03*
X172050000Y-95050000D03*
D41*
X176100000Y-108575000D03*
X175600000Y-108575000D03*
X175100000Y-108575000D03*
X175100000Y-109925000D03*
X175600000Y-109925000D03*
X176100000Y-109925000D03*
D12*
X109000000Y-86000000D03*
X109000000Y-86900000D03*
D45*
X127700000Y-82200000D03*
D46*
X128100000Y-82200000D03*
X128500000Y-82200000D03*
X128900000Y-82200000D03*
D47*
X129300000Y-82200000D03*
D48*
X129950000Y-81550000D03*
D49*
X129950000Y-81150000D03*
X129950000Y-80750000D03*
X129950000Y-80350000D03*
D50*
X129950000Y-79950000D03*
D51*
X129300000Y-79300000D03*
D46*
X128900000Y-79300000D03*
X128500000Y-79300000D03*
X128100000Y-79300000D03*
D52*
X127700000Y-79300000D03*
D53*
X127050000Y-79950000D03*
D49*
X127050000Y-80350000D03*
X127050000Y-80750000D03*
X127050000Y-81150000D03*
D54*
X127050000Y-81550000D03*
D36*
X128500000Y-80750000D03*
D39*
X173150000Y-94050000D03*
X174050000Y-94050000D03*
D41*
X148250000Y-102825000D03*
X147750000Y-102825000D03*
X147250000Y-102825000D03*
X147250000Y-104175000D03*
X147750000Y-104175000D03*
X148250000Y-104175000D03*
D40*
X175250000Y-112000000D03*
D39*
X190450000Y-75850000D03*
X189550000Y-75850000D03*
D16*
X142000000Y-70200000D03*
X142000000Y-71700000D03*
D12*
X128100000Y-87700000D03*
X128100000Y-88600000D03*
D55*
X162800000Y-80850000D03*
D41*
X189200000Y-72375000D03*
X188700000Y-72375000D03*
X188200000Y-72375000D03*
X188200000Y-73725000D03*
X188700000Y-73725000D03*
X189200000Y-73725000D03*
D15*
X154500000Y-68250000D03*
D41*
X124000000Y-107125000D03*
X124500000Y-107125000D03*
X125000000Y-107125000D03*
X125000000Y-105775000D03*
X124500000Y-105775000D03*
X124000000Y-105775000D03*
D55*
X178800000Y-80850000D03*
D40*
X110500000Y-68000000D03*
D12*
X144100000Y-87700000D03*
X144100000Y-88600000D03*
X141900000Y-106000000D03*
X141900000Y-105100000D03*
D41*
X116250000Y-102825000D03*
X115750000Y-102825000D03*
X115250000Y-102825000D03*
X115250000Y-104175000D03*
X115750000Y-104175000D03*
X116250000Y-104175000D03*
D40*
X129000000Y-68000000D03*
D13*
X127550000Y-103000000D03*
X128500000Y-103000000D03*
X129450000Y-103000000D03*
X129450000Y-100500000D03*
X128500000Y-100500000D03*
X127550000Y-100500000D03*
D16*
X110000000Y-70200000D03*
X110000000Y-71700000D03*
D22*
X110000000Y-63750000D03*
D12*
X159000000Y-92200000D03*
X159000000Y-91300000D03*
D15*
X145500000Y-111750000D03*
D20*
X161850000Y-105600000D03*
X160550000Y-105600000D03*
X161200000Y-107500000D03*
D17*
X168050000Y-96500000D03*
X169550000Y-96500000D03*
D38*
X154900000Y-105900000D03*
D37*
X154900000Y-106600000D03*
D17*
X106550000Y-81550000D03*
X105050000Y-81550000D03*
D42*
X105900000Y-77375000D03*
X105900000Y-78925000D03*
D17*
X113250000Y-89650000D03*
X111750000Y-89650000D03*
X113450000Y-84950000D03*
X111950000Y-84950000D03*
D56*
X127270000Y-109750000D03*
X124730000Y-109750000D03*
D12*
X111300000Y-105500000D03*
X111300000Y-104600000D03*
D17*
X104550000Y-83850000D03*
X106050000Y-83850000D03*
D15*
X113500000Y-111750000D03*
D17*
X154750000Y-90350000D03*
X156250000Y-90350000D03*
X160500000Y-76000000D03*
X162000000Y-76000000D03*
D40*
X168000000Y-86750000D03*
D20*
X170350000Y-110100000D03*
X171650000Y-110100000D03*
X171000000Y-108200000D03*
D13*
X140300000Y-103000000D03*
X141250000Y-103000000D03*
X142200000Y-103000000D03*
X142200000Y-100500000D03*
X141250000Y-100500000D03*
X140300000Y-100500000D03*
D12*
X159000000Y-94000000D03*
X159000000Y-93100000D03*
D24*
X137550000Y-100750000D03*
D25*
X135750000Y-100750000D03*
X135750000Y-102750000D03*
X137750000Y-102750000D03*
D39*
X157850000Y-95250000D03*
X156950000Y-95250000D03*
D13*
X191700000Y-77000000D03*
X190750000Y-77000000D03*
X189800000Y-77000000D03*
X189800000Y-79500000D03*
X190750000Y-79500000D03*
X191700000Y-79500000D03*
D24*
X194450000Y-79250000D03*
D25*
X196250000Y-79250000D03*
X196250000Y-77250000D03*
X194250000Y-77250000D03*
D12*
X176600000Y-90800000D03*
X176600000Y-89900000D03*
D17*
X132250000Y-101750000D03*
X130750000Y-101750000D03*
D26*
X156300000Y-97800000D03*
D27*
X155900000Y-97800000D03*
X155500000Y-97800000D03*
X155100000Y-97800000D03*
D28*
X154700000Y-97800000D03*
D29*
X154050000Y-98450000D03*
D30*
X154050000Y-98850000D03*
X154050000Y-99250000D03*
X154050000Y-99650000D03*
D31*
X154050000Y-100050000D03*
D32*
X154700000Y-100700000D03*
D27*
X155100000Y-100700000D03*
X155500000Y-100700000D03*
X155900000Y-100700000D03*
D33*
X156300000Y-100700000D03*
D34*
X156950000Y-100050000D03*
D30*
X156950000Y-99650000D03*
X156950000Y-99250000D03*
X156950000Y-98850000D03*
D35*
X156950000Y-98450000D03*
D36*
X155500000Y-99250000D03*
D41*
X157200000Y-72375000D03*
X156700000Y-72375000D03*
X156200000Y-72375000D03*
X156200000Y-73725000D03*
X156700000Y-73725000D03*
X157200000Y-73725000D03*
D43*
X154900000Y-92425000D03*
X154900000Y-91475000D03*
D39*
X188150000Y-93350000D03*
X187250000Y-93350000D03*
D19*
X106150000Y-85250000D03*
X104450000Y-85250000D03*
D57*
X152600000Y-80050000D03*
D16*
X158000000Y-109800000D03*
X158000000Y-108300000D03*
D44*
X139400000Y-77375000D03*
X139400000Y-78925000D03*
D37*
X129100000Y-74100000D03*
D38*
X129100000Y-73400000D03*
D40*
X152000000Y-86750000D03*
D16*
X179500000Y-105500000D03*
X179500000Y-104000000D03*
D39*
X142850000Y-85950000D03*
X141950000Y-85950000D03*
D55*
X137200000Y-99150000D03*
D17*
X154550000Y-95050000D03*
X156050000Y-95050000D03*
D58*
X124100000Y-81115000D03*
X124100000Y-82385000D03*
D12*
X186700000Y-70500000D03*
X186700000Y-71400000D03*
D16*
X184700000Y-104800000D03*
X184700000Y-106300000D03*
D12*
X175000000Y-94000000D03*
X175000000Y-93100000D03*
D39*
X125550000Y-104150000D03*
X126450000Y-104150000D03*
D40*
X155000000Y-112000000D03*
D43*
X113100000Y-87575000D03*
X113100000Y-88525000D03*
D17*
X148250000Y-101750000D03*
X146750000Y-101750000D03*
X122550000Y-81550000D03*
X121050000Y-81550000D03*
D58*
X174635000Y-87500000D03*
X173365000Y-87500000D03*
D40*
X126500000Y-68000000D03*
D13*
X108300000Y-103000000D03*
X109250000Y-103000000D03*
X110200000Y-103000000D03*
X110200000Y-100500000D03*
X109250000Y-100500000D03*
X108300000Y-100500000D03*
D39*
X126050000Y-88950000D03*
X126950000Y-88950000D03*
D41*
X160000000Y-72875000D03*
X159500000Y-72875000D03*
X159000000Y-72875000D03*
X159000000Y-74225000D03*
X159500000Y-74225000D03*
X160000000Y-74225000D03*
D15*
X129500000Y-111750000D03*
D41*
X183750000Y-77175000D03*
X184250000Y-77175000D03*
X184750000Y-77175000D03*
X184750000Y-75825000D03*
X184250000Y-75825000D03*
X183750000Y-75825000D03*
D19*
X114300000Y-84950000D03*
X116000000Y-84950000D03*
D18*
X195600000Y-102800000D03*
X195600000Y-100700000D03*
D17*
X139500000Y-104000000D03*
X138000000Y-104000000D03*
D15*
X193500000Y-68250000D03*
X186500000Y-68250000D03*
D23*
X172825000Y-92050000D03*
X172825000Y-92550000D03*
X172825000Y-93050000D03*
X174175000Y-93050000D03*
X174175000Y-92550000D03*
X174175000Y-92050000D03*
D12*
X189400000Y-89600000D03*
X189400000Y-88700000D03*
D43*
X108000000Y-86075000D03*
X108000000Y-87025000D03*
D16*
X190000000Y-109800000D03*
X190000000Y-108300000D03*
D23*
X107225000Y-83750000D03*
X107225000Y-84250000D03*
X107225000Y-84750000D03*
X108575000Y-84750000D03*
X108575000Y-84250000D03*
X108575000Y-83750000D03*
X139225000Y-83750000D03*
X139225000Y-84250000D03*
X139225000Y-84750000D03*
X140575000Y-84750000D03*
X140575000Y-84250000D03*
X140575000Y-83750000D03*
D40*
X164000000Y-86750000D03*
D17*
X129450000Y-84950000D03*
X127950000Y-84950000D03*
D39*
X189850000Y-95250000D03*
X188950000Y-95250000D03*
D18*
X104400000Y-77200000D03*
X104400000Y-79300000D03*
D16*
X156700000Y-109800000D03*
X156700000Y-108300000D03*
D12*
X175000000Y-92200000D03*
X175000000Y-91300000D03*
X154700000Y-70500000D03*
X154700000Y-71400000D03*
D45*
X111700000Y-82200000D03*
D46*
X112100000Y-82200000D03*
X112500000Y-82200000D03*
X112900000Y-82200000D03*
D47*
X113300000Y-82200000D03*
D48*
X113950000Y-81550000D03*
D49*
X113950000Y-81150000D03*
X113950000Y-80750000D03*
X113950000Y-80350000D03*
D50*
X113950000Y-79950000D03*
D51*
X113300000Y-79300000D03*
D46*
X112900000Y-79300000D03*
X112500000Y-79300000D03*
X112100000Y-79300000D03*
D52*
X111700000Y-79300000D03*
D53*
X111050000Y-79950000D03*
D49*
X111050000Y-80350000D03*
X111050000Y-80750000D03*
X111050000Y-81150000D03*
D54*
X111050000Y-81550000D03*
D36*
X112500000Y-80750000D03*
D17*
X193450000Y-98450000D03*
X194950000Y-98450000D03*
D12*
X191000000Y-94000000D03*
X191000000Y-93100000D03*
D39*
X111850000Y-86650000D03*
X112750000Y-86650000D03*
D12*
X112100000Y-87700000D03*
X112100000Y-88600000D03*
D19*
X193850000Y-94750000D03*
X195550000Y-94750000D03*
D17*
X152050000Y-101550000D03*
X153550000Y-101550000D03*
D58*
X140100000Y-81115000D03*
X140100000Y-82385000D03*
D12*
X172700000Y-74500000D03*
X172700000Y-75400000D03*
D23*
X188825000Y-92050000D03*
X188825000Y-92550000D03*
X188825000Y-93050000D03*
X190175000Y-93050000D03*
X190175000Y-92550000D03*
X190175000Y-92050000D03*
D40*
X159250000Y-112000000D03*
D58*
X158635000Y-87500000D03*
X157365000Y-87500000D03*
D17*
X177450000Y-98450000D03*
X178950000Y-98450000D03*
D20*
X129650000Y-69900000D03*
X128350000Y-69900000D03*
X129000000Y-71800000D03*
D19*
X185700000Y-95050000D03*
X184000000Y-95050000D03*
D40*
X161000000Y-112000000D03*
D17*
X168050000Y-101550000D03*
X169550000Y-101550000D03*
D14*
X171325000Y-96300000D03*
X172275000Y-96300000D03*
D17*
X131950000Y-83500000D03*
X130450000Y-83500000D03*
D21*
X178200000Y-88550000D03*
D40*
X104000000Y-93250000D03*
D17*
X186750000Y-90350000D03*
X188250000Y-90350000D03*
D40*
X196000000Y-86750000D03*
D39*
X110150000Y-84750000D03*
X111050000Y-84750000D03*
D43*
X186900000Y-92425000D03*
X186900000Y-91475000D03*
D39*
X158450000Y-75850000D03*
X157550000Y-75850000D03*
X144150000Y-104150000D03*
X145050000Y-104150000D03*
D17*
X147950000Y-83500000D03*
X146450000Y-83500000D03*
D18*
X163600000Y-102800000D03*
X163600000Y-100700000D03*
D41*
X116000000Y-75975000D03*
X115500000Y-75975000D03*
X115000000Y-75975000D03*
X115000000Y-77325000D03*
X115500000Y-77325000D03*
X116000000Y-77325000D03*
D40*
X116000000Y-93250000D03*
D44*
X107400000Y-77375000D03*
X107400000Y-78925000D03*
D39*
X142050000Y-88950000D03*
X142950000Y-88950000D03*
D40*
X157500000Y-112000000D03*
X193000000Y-112000000D03*
D16*
X127300000Y-70200000D03*
X127300000Y-71700000D03*
D42*
X178100000Y-102625000D03*
X178100000Y-101075000D03*
D23*
X123225000Y-83750000D03*
X123225000Y-84250000D03*
X123225000Y-84750000D03*
X124575000Y-84750000D03*
X124575000Y-84250000D03*
X124575000Y-83750000D03*
D12*
X109000000Y-87800000D03*
X109000000Y-88700000D03*
D17*
X152050000Y-96500000D03*
X153550000Y-96500000D03*
D41*
X126800000Y-107625000D03*
X127300000Y-107625000D03*
X127800000Y-107625000D03*
X127800000Y-106275000D03*
X127300000Y-106275000D03*
X126800000Y-106275000D03*
D44*
X176600000Y-102625000D03*
X176600000Y-101075000D03*
D16*
X188700000Y-109800000D03*
X188700000Y-108300000D03*
D58*
X141365000Y-92500000D03*
X142635000Y-92500000D03*
D39*
X110050000Y-88950000D03*
X110950000Y-88950000D03*
D17*
X192500000Y-76000000D03*
X194000000Y-76000000D03*
D12*
X145300000Y-109500000D03*
X145300000Y-108600000D03*
D55*
X121200000Y-99150000D03*
D43*
X140000000Y-86075000D03*
X140000000Y-87025000D03*
D40*
X191250000Y-112000000D03*
D39*
X172150000Y-93350000D03*
X171250000Y-93350000D03*
D41*
X168000000Y-104025000D03*
X168500000Y-104025000D03*
X169000000Y-104025000D03*
X169000000Y-102675000D03*
X168500000Y-102675000D03*
X168000000Y-102675000D03*
D16*
X152700000Y-104800000D03*
X152700000Y-106300000D03*
D14*
X112675000Y-83700000D03*
X111725000Y-83700000D03*
D41*
X176000000Y-72875000D03*
X175500000Y-72875000D03*
X175000000Y-72875000D03*
X175000000Y-74225000D03*
X175500000Y-74225000D03*
X176000000Y-74225000D03*
D40*
X187000000Y-112000000D03*
D18*
X120400000Y-77200000D03*
X120400000Y-79300000D03*
D58*
X108100000Y-81115000D03*
X108100000Y-82385000D03*
D12*
X171900000Y-92300000D03*
X171900000Y-91400000D03*
X125000000Y-86000000D03*
X125000000Y-86900000D03*
D43*
X107000000Y-102275000D03*
X107000000Y-101325000D03*
D16*
X163500000Y-105500000D03*
X163500000Y-104000000D03*
X122900000Y-106800000D03*
X122900000Y-105300000D03*
D12*
X123000000Y-85800000D03*
X123000000Y-86700000D03*
D57*
X115400000Y-99950000D03*
D12*
X129300000Y-109500000D03*
X129300000Y-108600000D03*
D44*
X192600000Y-102625000D03*
X192600000Y-101075000D03*
D37*
X113100000Y-74100000D03*
D38*
X113100000Y-73400000D03*
D22*
X126000000Y-63750000D03*
D24*
X162450000Y-79250000D03*
D25*
X164250000Y-79250000D03*
X164250000Y-77250000D03*
X162250000Y-77250000D03*
D26*
X172300000Y-97800000D03*
D27*
X171900000Y-97800000D03*
X171500000Y-97800000D03*
X171100000Y-97800000D03*
D28*
X170700000Y-97800000D03*
D29*
X170050000Y-98450000D03*
D30*
X170050000Y-98850000D03*
X170050000Y-99250000D03*
X170050000Y-99650000D03*
D31*
X170050000Y-100050000D03*
D32*
X170700000Y-100700000D03*
D27*
X171100000Y-100700000D03*
X171500000Y-100700000D03*
X171900000Y-100700000D03*
D33*
X172300000Y-100700000D03*
D34*
X172950000Y-100050000D03*
D30*
X172950000Y-99650000D03*
X172950000Y-99250000D03*
X172950000Y-98850000D03*
D35*
X172950000Y-98450000D03*
D36*
X171500000Y-99250000D03*
D21*
X107700000Y-75850000D03*
D43*
X177000000Y-77725000D03*
X177000000Y-78675000D03*
D56*
X188730000Y-70250000D03*
X191270000Y-70250000D03*
D17*
X186550000Y-95050000D03*
X188050000Y-95050000D03*
D12*
X156700000Y-74500000D03*
X156700000Y-75400000D03*
D41*
X173200000Y-72375000D03*
X172700000Y-72375000D03*
X172200000Y-72375000D03*
X172200000Y-73725000D03*
X172700000Y-73725000D03*
X173200000Y-73725000D03*
D40*
X148000000Y-93250000D03*
D16*
X131300000Y-75200000D03*
X131300000Y-73700000D03*
D20*
X138150000Y-74400000D03*
X139450000Y-74400000D03*
X138800000Y-72500000D03*
D40*
X123000000Y-68000000D03*
D19*
X146300000Y-84950000D03*
X148000000Y-84950000D03*
D41*
X192000000Y-72875000D03*
X191500000Y-72875000D03*
X191000000Y-72875000D03*
X191000000Y-74225000D03*
X191500000Y-74225000D03*
X192000000Y-74225000D03*
D13*
X156450000Y-77000000D03*
X155500000Y-77000000D03*
X154550000Y-77000000D03*
X154550000Y-79500000D03*
X155500000Y-79500000D03*
X156450000Y-79500000D03*
D22*
X110000000Y-116250000D03*
D41*
X167750000Y-77175000D03*
X168250000Y-77175000D03*
X168750000Y-77175000D03*
X168750000Y-75825000D03*
X168250000Y-75825000D03*
X167750000Y-75825000D03*
D17*
X115950000Y-83500000D03*
X114450000Y-83500000D03*
D12*
X157400000Y-89600000D03*
X157400000Y-88700000D03*
X155100000Y-73200000D03*
X155100000Y-72300000D03*
D20*
X145650000Y-69900000D03*
X144350000Y-69900000D03*
X145000000Y-71800000D03*
D12*
X125500000Y-90400000D03*
X125500000Y-91300000D03*
D57*
X131400000Y-99950000D03*
D19*
X161850000Y-94750000D03*
X163550000Y-94750000D03*
D58*
X125365000Y-92500000D03*
X126635000Y-92500000D03*
D40*
X173500000Y-112000000D03*
D56*
X111270000Y-109750000D03*
X108730000Y-109750000D03*
D14*
X126325000Y-99500000D03*
X127275000Y-99500000D03*
D40*
X140750000Y-68000000D03*
D14*
X128675000Y-83700000D03*
X127725000Y-83700000D03*
D12*
X126600000Y-90400000D03*
X126600000Y-91300000D03*
D41*
X132000000Y-75975000D03*
X131500000Y-75975000D03*
X131000000Y-75975000D03*
X131000000Y-77325000D03*
X131500000Y-77325000D03*
X132000000Y-77325000D03*
D16*
X106900000Y-106800000D03*
X106900000Y-105300000D03*
D40*
X136000000Y-93250000D03*
D16*
X161100000Y-73200000D03*
X161100000Y-74700000D03*
D41*
X107900000Y-71425000D03*
X108400000Y-71425000D03*
X108900000Y-71425000D03*
X108900000Y-70075000D03*
X108400000Y-70075000D03*
X107900000Y-70075000D03*
D17*
X147950000Y-78450000D03*
X146450000Y-78450000D03*
D20*
X154350000Y-110100000D03*
X155650000Y-110100000D03*
X155000000Y-108200000D03*
D40*
X139000000Y-68000000D03*
D12*
X144900000Y-106800000D03*
X144900000Y-107700000D03*
D40*
X184000000Y-86750000D03*
D21*
X105800000Y-91450000D03*
D14*
X157675000Y-80500000D03*
X156725000Y-80500000D03*
D39*
X109550000Y-104150000D03*
X110450000Y-104150000D03*
D42*
X121900000Y-77375000D03*
X121900000Y-78925000D03*
D13*
X143550000Y-103000000D03*
X144500000Y-103000000D03*
X145450000Y-103000000D03*
X145450000Y-100500000D03*
X144500000Y-100500000D03*
X143550000Y-100500000D03*
D19*
X130300000Y-84950000D03*
X132000000Y-84950000D03*
D40*
X189500000Y-112000000D03*
D15*
X170500000Y-68250000D03*
D39*
X173950000Y-91050000D03*
X173050000Y-91050000D03*
D16*
X111300000Y-70200000D03*
X111300000Y-71700000D03*
D21*
X123700000Y-75850000D03*
D19*
X153700000Y-95050000D03*
X152000000Y-95050000D03*
D12*
X187900000Y-92300000D03*
X187900000Y-91400000D03*
D17*
X183750000Y-78250000D03*
X185250000Y-78250000D03*
D39*
X187850000Y-75850000D03*
X186950000Y-75850000D03*
D12*
X142600000Y-90400000D03*
X142600000Y-91300000D03*
D41*
X151750000Y-77175000D03*
X152250000Y-77175000D03*
X152750000Y-77175000D03*
X152750000Y-75825000D03*
X152250000Y-75825000D03*
X151750000Y-75825000D03*
D17*
X129250000Y-89650000D03*
X127750000Y-89650000D03*
D12*
X125000000Y-87800000D03*
X125000000Y-88700000D03*
D13*
X172450000Y-77000000D03*
X171500000Y-77000000D03*
X170550000Y-77000000D03*
X170550000Y-79500000D03*
X171500000Y-79500000D03*
X172450000Y-79500000D03*
D12*
X107000000Y-85800000D03*
X107000000Y-86700000D03*
D16*
X143300000Y-70200000D03*
X143300000Y-71700000D03*
D12*
X190100000Y-74000000D03*
X190100000Y-74900000D03*
D21*
X137800000Y-91450000D03*
D39*
X189950000Y-91050000D03*
X189050000Y-91050000D03*
D21*
X192300000Y-104150000D03*
D58*
X191900000Y-98885000D03*
X191900000Y-97615000D03*
D22*
X190000000Y-116250000D03*
D17*
X163450000Y-96150000D03*
X161950000Y-96150000D03*
D24*
X105550000Y-100750000D03*
D25*
X103750000Y-100750000D03*
X103750000Y-102750000D03*
X105750000Y-102750000D03*
D58*
X190635000Y-87500000D03*
X189365000Y-87500000D03*
D12*
X161000000Y-94200000D03*
X161000000Y-93300000D03*
D40*
X108750000Y-68000000D03*
D45*
X143700000Y-82200000D03*
D46*
X144100000Y-82200000D03*
X144500000Y-82200000D03*
X144900000Y-82200000D03*
D47*
X145300000Y-82200000D03*
D48*
X145950000Y-81550000D03*
D49*
X145950000Y-81150000D03*
X145950000Y-80750000D03*
X145950000Y-80350000D03*
D50*
X145950000Y-79950000D03*
D51*
X145300000Y-79300000D03*
D46*
X144900000Y-79300000D03*
X144500000Y-79300000D03*
X144100000Y-79300000D03*
D52*
X143700000Y-79300000D03*
D53*
X143050000Y-79950000D03*
D49*
X143050000Y-80350000D03*
X143050000Y-80750000D03*
X143050000Y-81150000D03*
D54*
X143050000Y-81550000D03*
D36*
X144500000Y-80750000D03*
D39*
X173850000Y-95250000D03*
X172950000Y-95250000D03*
D12*
X139000000Y-85800000D03*
X139000000Y-86700000D03*
D16*
X115300000Y-75200000D03*
X115300000Y-73700000D03*
D13*
X111550000Y-103000000D03*
X112500000Y-103000000D03*
X113450000Y-103000000D03*
X113450000Y-100500000D03*
X112500000Y-100500000D03*
X111550000Y-100500000D03*
D12*
X171100000Y-73200000D03*
X171100000Y-72300000D03*
D41*
X140000000Y-107125000D03*
X140500000Y-107125000D03*
X141000000Y-107125000D03*
X141000000Y-105775000D03*
X140500000Y-105775000D03*
X140000000Y-105775000D03*
D23*
X176775000Y-96250000D03*
X176775000Y-95750000D03*
X176775000Y-95250000D03*
X175425000Y-95250000D03*
X175425000Y-95750000D03*
X175425000Y-96250000D03*
D40*
X180000000Y-86750000D03*
D17*
X161450000Y-98450000D03*
X162950000Y-98450000D03*
D24*
X121550000Y-100750000D03*
D25*
X119750000Y-100750000D03*
X119750000Y-102750000D03*
X121750000Y-102750000D03*
D12*
X127300000Y-105500000D03*
X127300000Y-104600000D03*
X191000000Y-92200000D03*
X191000000Y-91300000D03*
D21*
X160300000Y-104150000D03*
D56*
X156730000Y-70250000D03*
X159270000Y-70250000D03*
D58*
X175900000Y-98885000D03*
X175900000Y-97615000D03*
D12*
X174500000Y-89600000D03*
X174500000Y-88700000D03*
D23*
X143175000Y-87950000D03*
X143175000Y-87450000D03*
X143175000Y-86950000D03*
X141825000Y-86950000D03*
X141825000Y-87450000D03*
X141825000Y-87950000D03*
D40*
X177000000Y-112000000D03*
D12*
X187100000Y-73200000D03*
X187100000Y-72300000D03*
D17*
X184050000Y-96500000D03*
X185550000Y-96500000D03*
D57*
X147400000Y-99950000D03*
D39*
X157950000Y-91050000D03*
X157050000Y-91050000D03*
D43*
X129100000Y-87575000D03*
X129100000Y-88525000D03*
D12*
X193000000Y-94200000D03*
X193000000Y-93300000D03*
D17*
X145450000Y-84950000D03*
X143950000Y-84950000D03*
D58*
X159900000Y-98885000D03*
X159900000Y-97615000D03*
D41*
X108000000Y-107125000D03*
X108500000Y-107125000D03*
X109000000Y-107125000D03*
X109000000Y-105775000D03*
X108500000Y-105775000D03*
X108000000Y-105775000D03*
D38*
X170900000Y-105900000D03*
D37*
X170900000Y-106600000D03*
D16*
X172700000Y-109800000D03*
X172700000Y-108300000D03*
X138900000Y-106800000D03*
X138900000Y-105300000D03*
D39*
X126850000Y-85950000D03*
X125950000Y-85950000D03*
D56*
X172730000Y-70250000D03*
X175270000Y-70250000D03*
D17*
X151750000Y-78250000D03*
X153250000Y-78250000D03*
D22*
X174000000Y-116250000D03*
D12*
X107400000Y-89200000D03*
X107400000Y-90100000D03*
D39*
X143850000Y-86650000D03*
X144750000Y-86650000D03*
D41*
X132250000Y-102825000D03*
X131750000Y-102825000D03*
X131250000Y-102825000D03*
X131250000Y-104175000D03*
X131750000Y-104175000D03*
X132250000Y-104175000D03*
D22*
X158000000Y-63750000D03*
D40*
X120000000Y-93250000D03*
D42*
X194100000Y-102625000D03*
X194100000Y-101075000D03*
D17*
X170750000Y-90350000D03*
X172250000Y-90350000D03*
D43*
X170900000Y-92425000D03*
X170900000Y-91475000D03*
D12*
X170700000Y-70500000D03*
X170700000Y-71400000D03*
D21*
X121800000Y-91450000D03*
D41*
X110800000Y-107625000D03*
X111300000Y-107625000D03*
X111800000Y-107625000D03*
X111800000Y-106275000D03*
X111300000Y-106275000D03*
X110800000Y-106275000D03*
D17*
X136550000Y-83850000D03*
X138050000Y-83850000D03*
D40*
X145000000Y-68000000D03*
D13*
X124300000Y-103000000D03*
X125250000Y-103000000D03*
X126200000Y-103000000D03*
X126200000Y-100500000D03*
X125250000Y-100500000D03*
X124300000Y-100500000D03*
D12*
X143300000Y-105500000D03*
X143300000Y-104600000D03*
D23*
X192775000Y-96250000D03*
X192775000Y-95750000D03*
X192775000Y-95250000D03*
X191425000Y-95250000D03*
X191425000Y-95750000D03*
X191425000Y-96250000D03*
D43*
X124000000Y-86075000D03*
X124000000Y-87025000D03*
D15*
X177500000Y-68250000D03*
D12*
X177000000Y-94200000D03*
X177000000Y-93300000D03*
D23*
X127175000Y-87950000D03*
X127175000Y-87450000D03*
X127175000Y-86950000D03*
X125825000Y-86950000D03*
X125825000Y-87450000D03*
X125825000Y-87950000D03*
D22*
X126000000Y-116250000D03*
D14*
X110325000Y-99500000D03*
X111275000Y-99500000D03*
D21*
X162200000Y-88550000D03*
D16*
X193100000Y-73200000D03*
X193100000Y-74700000D03*
D56*
X143270000Y-109750000D03*
X140730000Y-109750000D03*
D17*
X107500000Y-104000000D03*
X106000000Y-104000000D03*
D23*
X111175000Y-87950000D03*
X111175000Y-87450000D03*
X111175000Y-86950000D03*
X109825000Y-86950000D03*
X109825000Y-87450000D03*
X109825000Y-87950000D03*
D39*
X128150000Y-104150000D03*
X129050000Y-104150000D03*
D12*
X190500000Y-89600000D03*
X190500000Y-88700000D03*
X110600000Y-90400000D03*
X110600000Y-91300000D03*
D22*
X190000000Y-63750000D03*
D12*
X158500000Y-89600000D03*
X158500000Y-88700000D03*
D19*
X169700000Y-95050000D03*
X168000000Y-95050000D03*
D55*
X105200000Y-99150000D03*
D16*
X120500000Y-74500000D03*
X120500000Y-76000000D03*
D39*
X171850000Y-75850000D03*
X170950000Y-75850000D03*
D57*
X168600000Y-80050000D03*
D41*
X139900000Y-71425000D03*
X140400000Y-71425000D03*
X140900000Y-71425000D03*
X140900000Y-70075000D03*
X140400000Y-70075000D03*
X139900000Y-70075000D03*
D43*
X176000000Y-93925000D03*
X176000000Y-92975000D03*
D19*
X177850000Y-94750000D03*
X179550000Y-94750000D03*
D16*
X104500000Y-74500000D03*
X104500000Y-76000000D03*
D17*
X123500000Y-104000000D03*
X122000000Y-104000000D03*
D43*
X192000000Y-93925000D03*
X192000000Y-92975000D03*
X139000000Y-102275000D03*
X139000000Y-101325000D03*
D12*
X139400000Y-89200000D03*
X139400000Y-90100000D03*
X112900000Y-106800000D03*
X112900000Y-107700000D03*
D39*
X156150000Y-93350000D03*
X155250000Y-93350000D03*
D15*
X122500000Y-111750000D03*
D20*
X122150000Y-74400000D03*
X123450000Y-74400000D03*
X122800000Y-72500000D03*
D41*
X152000000Y-104025000D03*
X152500000Y-104025000D03*
X153000000Y-104025000D03*
X153000000Y-102675000D03*
X152500000Y-102675000D03*
X152000000Y-102675000D03*
D40*
X113000000Y-68000000D03*
D41*
X148000000Y-75975000D03*
X147500000Y-75975000D03*
X147000000Y-75975000D03*
X147000000Y-77325000D03*
X147500000Y-77325000D03*
X148000000Y-77325000D03*
D12*
X109500000Y-90400000D03*
X109500000Y-91300000D03*
D16*
X195500000Y-105500000D03*
X195500000Y-104000000D03*
D41*
X123900000Y-71425000D03*
X124400000Y-71425000D03*
X124900000Y-71425000D03*
X124900000Y-70075000D03*
X124400000Y-70075000D03*
X123900000Y-70075000D03*
X192100000Y-108575000D03*
X191600000Y-108575000D03*
X191100000Y-108575000D03*
X191100000Y-109925000D03*
X191600000Y-109925000D03*
X192100000Y-109925000D03*
D14*
X155325000Y-96300000D03*
X156275000Y-96300000D03*
D58*
X109365000Y-92500000D03*
X110635000Y-92500000D03*
D39*
X157150000Y-94050000D03*
X158050000Y-94050000D03*
D17*
X138550000Y-81550000D03*
X137050000Y-81550000D03*
D43*
X161000000Y-77725000D03*
X161000000Y-78675000D03*
D22*
X158000000Y-116250000D03*
X142000000Y-116250000D03*
D17*
X115950000Y-78450000D03*
X114450000Y-78450000D03*
D12*
X109900000Y-106000000D03*
X109900000Y-105100000D03*
D23*
X156825000Y-92050000D03*
X156825000Y-92550000D03*
X156825000Y-93050000D03*
X158175000Y-93050000D03*
X158175000Y-92550000D03*
X158175000Y-92050000D03*
D12*
X160600000Y-90800000D03*
X160600000Y-89900000D03*
D57*
X184600000Y-80050000D03*
D14*
X144675000Y-83700000D03*
X143725000Y-83700000D03*
D43*
X193000000Y-77725000D03*
X193000000Y-78675000D03*
D15*
X161500000Y-68250000D03*
D40*
X142500000Y-68000000D03*
D41*
X160100000Y-108575000D03*
X159600000Y-108575000D03*
X159100000Y-108575000D03*
X159100000Y-109925000D03*
X159600000Y-109925000D03*
X160100000Y-109925000D03*
D12*
X174100000Y-74000000D03*
X174100000Y-74900000D03*
D15*
X106500000Y-111750000D03*
D12*
X113300000Y-109500000D03*
X113300000Y-108600000D03*
D16*
X168700000Y-104800000D03*
X168700000Y-106300000D03*
D40*
X124750000Y-68000000D03*
D39*
X142150000Y-84750000D03*
X143050000Y-84750000D03*
D16*
X177100000Y-73200000D03*
X177100000Y-74700000D03*
D17*
X167750000Y-78250000D03*
X169250000Y-78250000D03*
D44*
X160600000Y-102625000D03*
X160600000Y-101075000D03*
D40*
X171000000Y-112000000D03*
D17*
X176500000Y-76000000D03*
X178000000Y-76000000D03*
D21*
X139700000Y-75850000D03*
D16*
X174000000Y-109800000D03*
X174000000Y-108300000D03*
D39*
X155850000Y-75850000D03*
X154950000Y-75850000D03*
D14*
X189675000Y-80500000D03*
X188725000Y-80500000D03*
D55*
X194800000Y-80850000D03*
D12*
X141000000Y-86000000D03*
X141000000Y-86900000D03*
D22*
X174000000Y-63750000D03*
D39*
X110850000Y-85950000D03*
X109950000Y-85950000D03*
M02*
