M48
; DRILL file {KiCad 9.0.8} date 2026-09-27T01:48:12+0900
; FORMAT={-:-/ absolute / metric / decimal}
; #@! TF.CreationDate,2026-09-27T01:48:12+09:00
; #@! TF.GenerationSoftware,Kicad,Pcbnew,9.0.8
; #@! TF.FileFunction,Plated,1,2,PTH
FMAT,2
METRIC
; #@! TA.AperFunction,Plated,PTH,ViaDrill
T1C0.300
; #@! TA.AperFunction,Plated,PTH,ViaDrill
T2C0.400
; #@! TA.AperFunction,Plated,PTH,ViaDrill
T3C0.500
; #@! TA.AperFunction,Plated,PTH,ComponentDrill
T4C0.600
; #@! TA.AperFunction,Plated,PTH,ComponentDrill
T5C0.700
; #@! TA.AperFunction,Plated,PTH,ComponentDrill
T6C0.900
%
G90
G05
T1
X105.8Y-101.95
X106.25Y-99.0
X106.675Y-78.15
X106.7Y-80.45
X106.7Y-82.55
X106.75Y-104.0
X106.9Y-99.65
X106.9Y-106.05
X107.1Y-107.65
X107.25Y-100.5
X107.35Y-87.7
X107.6Y-88.55
X108.4Y-90.75
X108.8Y-103.95
X109.1Y-79.95
X109.2Y-81.15
X109.3Y-108.15
X109.4Y-83.65
X109.9Y-70.95
X110.0Y-82.15
X110.05Y-83.0
X111.0Y-82.95
X111.3Y-103.85
X112.0Y-99.5
X112.5Y-89.65
X112.5Y-98.85
X112.7Y-84.95
X112.7Y-85.75
X112.75Y-105.5
X112.9Y-76.45
X113.3Y-77.95
X113.4Y-83.55
X113.4Y-91.35
X113.7Y-99.35
X114.0Y-82.4
X114.25Y-92.95
X114.25Y-104.5
X114.3Y-76.95
X121.8Y-101.95
X122.25Y-99.0
X122.675Y-78.15
X122.7Y-80.45
X122.7Y-82.55
X122.75Y-104.0
X122.9Y-99.65
X122.9Y-106.05
X123.1Y-107.65
X123.25Y-100.5
X123.35Y-87.7
X123.6Y-88.55
X124.4Y-90.75
X124.8Y-103.95
X125.1Y-79.95
X125.2Y-81.15
X125.3Y-108.15
X125.4Y-83.65
X125.9Y-70.95
X126.0Y-82.15
X126.05Y-83.0
X127.0Y-82.95
X127.3Y-103.85
X128.0Y-99.5
X128.5Y-89.65
X128.5Y-98.85
X128.7Y-84.95
X128.7Y-85.75
X128.75Y-105.5
X128.9Y-76.45
X129.3Y-77.95
X129.4Y-83.55
X129.4Y-91.35
X129.7Y-99.35
X130.0Y-82.4
X130.25Y-92.95
X130.25Y-104.5
X130.3Y-76.95
X137.8Y-101.95
X138.25Y-99.0
X138.675Y-78.15
X138.7Y-80.45
X138.7Y-82.55
X138.75Y-104.0
X138.9Y-99.65
X138.9Y-106.05
X139.1Y-107.65
X139.25Y-100.5
X139.35Y-87.7
X139.6Y-88.55
X140.4Y-90.75
X140.8Y-103.95
X141.1Y-79.95
X141.2Y-81.15
X141.3Y-108.15
X141.4Y-83.65
X141.9Y-70.95
X142.0Y-82.15
X142.05Y-83.0
X143.0Y-82.95
X143.3Y-103.85
X144.0Y-99.5
X144.5Y-89.65
X144.5Y-98.85
X144.7Y-84.95
X144.7Y-85.75
X144.75Y-105.5
X144.9Y-76.45
X145.3Y-77.95
X145.4Y-83.55
X145.4Y-91.35
X145.7Y-99.35
X146.0Y-82.4
X146.25Y-92.95
X146.25Y-104.5
X146.3Y-76.95
X153.7Y-103.05
X153.75Y-75.5
X153.75Y-87.05
X154.0Y-97.6
X154.3Y-80.65
X154.6Y-88.65
X154.6Y-96.45
X154.7Y-102.05
X155.1Y-103.55
X155.25Y-74.5
X155.3Y-94.25
X155.3Y-95.05
X155.5Y-81.15
X155.5Y-90.35
X156.0Y-80.5
X156.7Y-76.15
X157.0Y-97.05
X157.95Y-97.0
X158.0Y-97.85
X158.1Y-109.05
X158.6Y-96.35
X158.7Y-71.85
X158.8Y-98.85
X158.9Y-100.05
X159.2Y-76.05
X159.6Y-89.25
X160.4Y-91.45
X160.65Y-92.3
X160.75Y-79.5
X160.9Y-72.35
X161.1Y-73.95
X161.1Y-80.35
X161.25Y-76.0
X161.3Y-97.45
X161.3Y-99.55
X161.325Y-101.85
X161.75Y-81.0
X162.2Y-78.05
X169.7Y-103.05
X169.75Y-75.5
X169.75Y-87.05
X170.0Y-97.6
X170.3Y-80.65
X170.6Y-88.65
X170.6Y-96.45
X170.7Y-102.05
X171.1Y-103.55
X171.25Y-74.5
X171.3Y-94.25
X171.3Y-95.05
X171.5Y-81.15
X171.5Y-90.35
X172.0Y-80.5
X172.7Y-76.15
X173.0Y-97.05
X173.95Y-97.0
X174.0Y-97.85
X174.1Y-109.05
X174.6Y-96.35
X174.7Y-71.85
X174.8Y-98.85
X174.9Y-100.05
X175.2Y-76.05
X175.6Y-89.25
X176.4Y-91.45
X176.65Y-92.3
X176.75Y-79.5
X176.9Y-72.35
X177.1Y-73.95
X177.1Y-80.35
X177.25Y-76.0
X177.3Y-97.45
X177.3Y-99.55
X177.325Y-101.85
X177.75Y-81.0
X178.2Y-78.05
X185.7Y-103.05
X185.75Y-75.5
X185.75Y-87.05
X186.0Y-97.6
X186.3Y-80.65
X186.6Y-88.65
X186.6Y-96.45
X186.7Y-102.05
X187.1Y-103.55
X187.25Y-74.5
X187.3Y-94.25
X187.3Y-95.05
X187.5Y-81.15
X187.5Y-90.35
X188.0Y-80.5
X188.7Y-76.15
X189.0Y-97.05
X189.95Y-97.0
X190.0Y-97.85
X190.1Y-109.05
X190.6Y-96.35
X190.7Y-71.85
X190.8Y-98.85
X190.9Y-100.05
X191.2Y-76.05
X191.6Y-89.25
X192.4Y-91.45
X192.65Y-92.3
X192.75Y-79.5
X192.9Y-72.35
X193.1Y-73.95
X193.1Y-80.35
X193.25Y-76.0
X193.3Y-97.45
X193.3Y-99.55
X193.325Y-101.85
X193.75Y-81.0
X194.2Y-78.05
T2
X104.35Y-82.75
X104.35Y-86.35
X106.6Y-103.0
X106.8Y-73.45
X107.0Y-75.45
X107.0Y-76.35
X107.8Y-72.25
X108.35Y-89.45
X108.5Y-99.35
X109.35Y-85.15
X109.5Y-99.35
X110.45Y-83.8
X111.5Y-98.8
X112.8Y-80.45
X114.0Y-75.45
X115.9Y-81.05
X115.9Y-81.95
X115.9Y-86.55
X120.35Y-82.75
X120.35Y-86.35
X122.6Y-103.0
X122.8Y-73.45
X123.0Y-75.45
X123.0Y-76.35
X123.8Y-72.25
X124.35Y-89.45
X124.5Y-99.35
X125.35Y-85.15
X125.5Y-99.35
X126.45Y-83.8
X127.5Y-98.8
X128.8Y-80.45
X130.0Y-75.45
X131.9Y-81.05
X131.9Y-81.95
X131.9Y-86.55
X136.35Y-82.75
X136.35Y-86.35
X138.6Y-103.0
X138.8Y-73.45
X139.0Y-75.45
X139.0Y-76.35
X139.8Y-72.25
X140.35Y-89.45
X140.5Y-99.35
X141.35Y-85.15
X141.5Y-99.35
X142.45Y-83.8
X143.5Y-98.8
X144.8Y-80.45
X146.0Y-75.45
X147.9Y-81.05
X147.9Y-81.95
X147.9Y-86.55
X152.1Y-93.45
X152.1Y-98.05
X152.1Y-98.95
X154.0Y-104.55
X155.2Y-99.55
X156.5Y-81.2
X157.55Y-96.2
X158.5Y-80.65
X158.65Y-94.85
X159.5Y-80.65
X159.65Y-90.55
X160.2Y-107.75
X161.0Y-103.65
X161.0Y-104.55
X161.2Y-106.55
X161.4Y-77.0
X163.65Y-93.65
X163.65Y-97.25
X168.1Y-93.45
X168.1Y-98.05
X168.1Y-98.95
X170.0Y-104.55
X171.2Y-99.55
X172.5Y-81.2
X173.55Y-96.2
X174.5Y-80.65
X174.65Y-94.85
X175.5Y-80.65
X175.65Y-90.55
X176.2Y-107.75
X177.0Y-103.65
X177.0Y-104.55
X177.2Y-106.55
X177.4Y-77.0
X179.65Y-93.65
X179.65Y-97.25
X184.1Y-93.45
X184.1Y-98.05
X184.1Y-98.95
X186.0Y-104.55
X187.2Y-99.55
X188.5Y-81.2
X189.55Y-96.2
X190.5Y-80.65
X190.65Y-94.85
X191.5Y-80.65
X191.65Y-90.55
X192.2Y-107.75
X193.0Y-103.65
X193.0Y-104.55
X193.2Y-106.55
X193.4Y-77.0
X195.65Y-93.65
X195.65Y-97.25
T3
X103.75Y-98.25
X103.75Y-99.5
X104.0Y-91.75
X106.25Y-108.5
X106.25Y-109.75
X106.6Y-92.35
X110.7Y-78.75
X112.8Y-92.35
X115.0Y-98.0
X116.0Y-91.75
X116.25Y-98.0
X119.75Y-98.25
X119.75Y-99.5
X120.0Y-91.75
X122.25Y-108.5
X122.25Y-109.75
X122.6Y-92.35
X126.7Y-78.75
X128.8Y-92.35
X131.0Y-98.0
X132.0Y-91.75
X132.25Y-98.0
X135.75Y-98.25
X135.75Y-99.5
X136.0Y-91.75
X138.25Y-108.5
X138.25Y-109.75
X138.6Y-92.35
X142.7Y-78.75
X144.8Y-92.35
X147.0Y-98.0
X148.0Y-91.75
X148.25Y-98.0
X151.75Y-82.0
X152.0Y-88.25
X153.0Y-82.0
X155.2Y-87.65
X157.3Y-101.25
X161.4Y-87.65
X161.75Y-70.25
X161.75Y-71.5
X164.0Y-88.25
X164.25Y-80.5
X164.25Y-81.75
X167.75Y-82.0
X168.0Y-88.25
X169.0Y-82.0
X171.2Y-87.65
X173.3Y-101.25
X177.4Y-87.65
X177.75Y-70.25
X177.75Y-71.5
X180.0Y-88.25
X180.25Y-80.5
X180.25Y-81.75
X183.75Y-82.0
X184.0Y-88.25
X185.0Y-82.0
X187.2Y-87.65
X189.3Y-101.25
X193.4Y-87.65
X193.75Y-70.25
X193.75Y-71.5
X196.0Y-88.25
X196.25Y-80.5
X196.25Y-81.75
T4
X106.5Y-111.75
X109.365Y-92.5
X110.635Y-92.5
X113.5Y-111.75
X122.5Y-111.75
X125.365Y-92.5
X126.635Y-92.5
X129.5Y-111.75
X138.5Y-111.75
X141.365Y-92.5
X142.635Y-92.5
X145.5Y-111.75
X154.5Y-68.25
X157.365Y-87.5
X158.635Y-87.5
X161.5Y-68.25
X170.5Y-68.25
X173.365Y-87.5
X174.635Y-87.5
X177.5Y-68.25
X186.5Y-68.25
X189.365Y-87.5
X190.635Y-87.5
X193.5Y-68.25
T5
X104.0Y-93.25
X107.0Y-68.0
X108.1Y-81.115
X108.1Y-82.385
X108.75Y-68.0
X110.5Y-68.0
X113.0Y-68.0
X116.0Y-93.25
X120.0Y-93.25
X123.0Y-68.0
X124.1Y-81.115
X124.1Y-82.385
X124.75Y-68.0
X126.5Y-68.0
X129.0Y-68.0
X132.0Y-93.25
X136.0Y-93.25
X139.0Y-68.0
X140.1Y-81.115
X140.1Y-82.385
X140.75Y-68.0
X142.5Y-68.0
X145.0Y-68.0
X148.0Y-93.25
X152.0Y-86.75
X155.0Y-112.0
X157.5Y-112.0
X159.25Y-112.0
X159.9Y-97.615
X159.9Y-98.885
X161.0Y-112.0
X164.0Y-86.75
X168.0Y-86.75
X171.0Y-112.0
X173.5Y-112.0
X175.25Y-112.0
X175.9Y-97.615
X175.9Y-98.885
X177.0Y-112.0
X180.0Y-86.75
X184.0Y-86.75
X187.0Y-112.0
X189.5Y-112.0
X191.25Y-112.0
X191.9Y-97.615
X191.9Y-98.885
X193.0Y-112.0
X196.0Y-86.75
T6
X108.73Y-109.75
X111.27Y-109.75
X124.73Y-109.75
X127.27Y-109.75
X140.73Y-109.75
X143.27Y-109.75
X156.73Y-70.25
X159.27Y-70.25
X172.73Y-70.25
X175.27Y-70.25
X188.73Y-70.25
X191.27Y-70.25
M30
