M48
; DRILL file {KiCad (5.1.12)-1} date 01/09/22 23:00:46
; FORMAT={-:-/ absolute / metric / decimal}
; #@! TF.CreationDate,2022-01-09T23:00:46+09:00
; #@! TF.GenerationSoftware,Kicad,Pcbnew,(5.1.12)-1
FMAT,2
METRIC
T1C0.300
T2C0.400
T3C0.500
T4C0.600
T5C0.700
T6C2.000
%
G90
G05
T1
X8.9Y89.5
X8.9Y73.5
X8.9Y57.5
X8.9Y41.5
X8.9Y25.5
X8.9Y9.5
X9.5Y88.9
X9.5Y72.9
X9.5Y56.9
X9.5Y40.9
X9.5Y24.9
X9.5Y8.9
X12.4Y88.4
X12.4Y72.4
X12.4Y56.4
X12.4Y40.4
X12.4Y24.4
X12.4Y8.4
X13.4Y85.2
X13.4Y69.2
X13.4Y53.2
X13.4Y37.2
X13.4Y21.2
X13.4Y5.2
X13.9Y88.0
X13.9Y72.0
X13.9Y56.0
X13.9Y40.0
X13.9Y24.0
X13.9Y8.0
X15.6Y86.0
X15.6Y70.0
X15.6Y54.0
X15.6Y38.0
X15.6Y22.0
X15.6Y6.0
X17.398Y89.0
X17.398Y73.0
X17.398Y57.0
X17.398Y41.0
X17.398Y25.0
X17.398Y9.0
X17.9Y89.7
X17.9Y73.7
X17.9Y57.7
X17.9Y41.7
X17.9Y25.7
X17.9Y9.7
X19.4Y84.3
X19.4Y68.3
X19.4Y52.3
X19.4Y36.3
X19.4Y20.3
X19.4Y4.3
X20.0Y87.0
X20.0Y71.0
X20.0Y55.0
X20.0Y39.0
X20.0Y23.0
X20.0Y7.0
X21.5Y88.7
X21.5Y72.7
X21.5Y56.7
X21.5Y40.7
X21.5Y24.7
X21.5Y8.7
X22.9Y85.9
X22.9Y69.9
X22.9Y53.9
X22.9Y37.9
X22.9Y21.9
X22.9Y5.9
X23.8Y87.0
X23.8Y71.0
X23.8Y55.0
X23.8Y39.0
X23.8Y23.0
X23.8Y7.0
X28.0Y86.3
X28.0Y70.3
X28.0Y54.3
X28.0Y38.3
X28.0Y22.3
X28.0Y6.3
X28.25Y91.25
X28.25Y75.25
X28.25Y59.25
X28.25Y43.25
X28.25Y27.25
X28.25Y11.25
X33.3Y84.9
X33.3Y68.9
X33.3Y52.9
X33.3Y36.9
X33.3Y20.9
X33.3Y4.9
X34.5Y82.75
X34.5Y66.75
X34.5Y50.75
X34.5Y34.75
X34.5Y18.75
X34.5Y2.75
X34.75Y86.6
X34.75Y70.6
X34.75Y54.6
X34.75Y38.6
X34.75Y22.6
X34.75Y6.6
X35.25Y88.25
X35.25Y72.25
X35.25Y56.25
X35.25Y40.25
X35.25Y24.25
X35.25Y8.25
X36.0Y87.7
X36.0Y71.7
X36.0Y55.7
X36.0Y39.7
X36.0Y23.7
X36.0Y7.7
X42.6Y88.2
X42.6Y72.2
X42.6Y56.2
X42.6Y40.2
X42.6Y24.2
X42.6Y8.2
X43.5Y84.5
X43.5Y68.5
X43.5Y52.5
X43.5Y36.5
X43.5Y20.5
X43.5Y4.5
X44.25Y90.25
X44.25Y74.25
X44.25Y58.25
X44.25Y42.25
X44.25Y26.25
X44.25Y10.25
X45.6Y90.5
X45.6Y74.5
X45.6Y58.5
X45.6Y42.5
X45.6Y26.5
X45.6Y10.5
X46.25Y90.4
X46.25Y74.4
X46.25Y58.4
X46.25Y42.4
X46.25Y26.4
X46.25Y10.4
X46.5Y86.6
X46.5Y70.6
X46.5Y54.6
X46.5Y38.6
X46.5Y22.6
X46.5Y6.6
X48.1Y89.3
X48.1Y73.3
X48.1Y57.3
X48.1Y41.3
X48.1Y25.3
X48.1Y9.3
X48.25Y87.5
X48.25Y86.75
X48.25Y83.25
X48.25Y71.5
X48.25Y70.75
X48.25Y67.25
X48.25Y55.5
X48.25Y54.75
X48.25Y51.25
X48.25Y39.5
X48.25Y38.75
X48.25Y35.25
X48.25Y23.5
X48.25Y22.75
X48.25Y19.25
X48.25Y7.5
X48.25Y6.75
X48.25Y3.25
X48.5Y84.25
X48.5Y68.25
X48.5Y52.25
X48.5Y36.25
X48.5Y20.25
X48.5Y4.25
X54.2Y89.05
X54.2Y83.8
X54.2Y73.05
X54.2Y67.8
X54.2Y57.05
X54.2Y51.8
X54.2Y41.05
X54.2Y35.8
X54.2Y25.05
X54.2Y19.8
X54.2Y9.05
X54.2Y3.8
X54.3Y82.6
X54.3Y66.6
X54.3Y50.6
X54.3Y34.6
X54.3Y18.6
X54.3Y2.6
X54.85Y90.3
X54.85Y74.3
X54.85Y58.3
X54.85Y42.3
X54.85Y26.3
X54.85Y10.3
X55.2Y85.6
X55.2Y69.6
X55.2Y53.6
X55.2Y37.6
X55.2Y21.6
X55.2Y5.6
X55.25Y81.55
X55.25Y65.55
X55.25Y49.55
X55.25Y33.55
X55.25Y17.55
X55.25Y1.55
X55.5Y83.0
X55.5Y67.0
X55.5Y51.0
X55.5Y35.0
X55.5Y19.0
X55.5Y3.0
X55.6Y93.0
X55.6Y77.0
X55.6Y61.0
X55.6Y45.0
X55.6Y29.0
X55.6Y13.0
X55.9Y89.1
X55.9Y88.5
X55.9Y73.1
X55.9Y72.5
X55.9Y57.1
X55.9Y56.5
X55.9Y41.1
X55.9Y40.5
X55.9Y25.1
X55.9Y24.5
X55.9Y9.1
X55.9Y8.5
X56.5Y85.4
X56.5Y83.5
X56.5Y69.4
X56.5Y67.5
X56.5Y53.4
X56.5Y51.5
X56.5Y37.4
X56.5Y35.5
X56.5Y21.4
X56.5Y19.5
X56.5Y5.4
X56.5Y3.5
X56.6Y90.7
X56.6Y74.7
X56.6Y58.7
X56.6Y42.7
X56.6Y26.7
X56.6Y10.7
X57.3Y85.1
X57.3Y69.1
X57.3Y53.1
X57.3Y37.1
X57.3Y21.1
X57.3Y5.1
X57.4Y93.0
X57.4Y77.0
X57.4Y61.0
X57.4Y45.0
X57.4Y29.0
X57.4Y13.0
X57.5Y89.1
X57.5Y73.1
X57.5Y57.1
X57.5Y41.1
X57.5Y25.1
X57.5Y9.1
X57.7Y81.55
X57.7Y65.55
X57.7Y49.55
X57.7Y33.55
X57.7Y17.55
X57.7Y1.55
X57.8Y83.5
X57.8Y67.5
X57.8Y51.5
X57.8Y35.5
X57.8Y19.5
X57.8Y3.5
X58.25Y86.5
X58.25Y70.5
X58.25Y54.5
X58.25Y38.5
X58.25Y22.5
X58.25Y6.5
X58.7Y89.5
X58.7Y73.5
X58.7Y57.5
X58.7Y41.5
X58.7Y25.5
X58.7Y9.5
X59.0Y83.2
X59.0Y67.2
X59.0Y51.2
X59.0Y35.2
X59.0Y19.2
X59.0Y3.2
X59.25Y87.5
X59.25Y71.5
X59.25Y55.5
X59.25Y39.5
X59.25Y23.5
X59.25Y7.5
X59.5Y89.4
X59.5Y73.4
X59.5Y57.4
X59.5Y41.4
X59.5Y25.4
X59.5Y9.4
X59.9Y85.0
X59.9Y82.6
X59.9Y69.0
X59.9Y66.6
X59.9Y53.0
X59.9Y50.6
X59.9Y37.0
X59.9Y34.6
X59.9Y21.0
X59.9Y18.6
X59.9Y5.0
X59.9Y2.6
X60.3Y88.9
X60.3Y72.9
X60.3Y56.9
X60.3Y40.9
X60.3Y24.9
X60.3Y8.9
X61.8Y87.1
X61.8Y71.1
X61.8Y55.1
X61.8Y39.1
X61.8Y23.1
X61.8Y7.1
X62.2Y84.0
X62.2Y68.0
X62.2Y52.0
X62.2Y36.0
X62.2Y20.0
X62.2Y4.0
X63.0Y86.3
X63.0Y70.3
X63.0Y54.3
X63.0Y38.3
X63.0Y22.3
X63.0Y6.3
X64.1Y88.0
X64.1Y72.0
X64.1Y56.0
X64.1Y40.0
X64.1Y24.0
X64.1Y8.0
X65.1Y85.8
X65.1Y69.8
X65.1Y53.8
X65.1Y37.8
X65.1Y21.8
X65.1Y5.8
X65.9Y84.5
X65.9Y68.5
X65.9Y52.5
X65.9Y36.5
X65.9Y20.5
X65.9Y4.5
X67.0Y87.0
X67.0Y71.0
X67.0Y55.0
X67.0Y39.0
X67.0Y23.0
X67.0Y7.0
X67.3Y86.1
X67.3Y70.1
X67.3Y54.1
X67.3Y38.1
X67.3Y22.1
X67.3Y6.1
X69.4Y89.5
X69.4Y86.7
X69.4Y73.5
X69.4Y70.7
X69.4Y57.5
X69.4Y54.7
X69.4Y41.5
X69.4Y38.7
X69.4Y25.5
X69.4Y22.7
X69.4Y9.5
X69.4Y6.7
X69.7Y85.9
X69.7Y69.9
X69.7Y53.9
X69.7Y37.9
X69.7Y21.9
X69.7Y5.9
X69.9Y88.4
X69.9Y72.4
X69.9Y56.4
X69.9Y40.4
X69.9Y24.4
X69.9Y8.4
X70.6Y88.4
X70.6Y72.4
X70.6Y56.4
X70.6Y40.4
X70.6Y24.4
X70.6Y8.4
X70.7Y85.4
X70.7Y69.4
X70.7Y53.4
X70.7Y37.4
X70.7Y21.4
X70.7Y5.4
X71.1Y87.0
X71.1Y71.0
X71.1Y55.0
X71.1Y39.0
X71.1Y23.0
X71.1Y7.0
X72.9Y89.8
X72.9Y73.8
X72.9Y57.8
X72.9Y41.8
X72.9Y25.8
X72.9Y9.8
X73.5Y85.2
X73.5Y69.2
X73.5Y53.2
X73.5Y37.2
X73.5Y21.2
X73.5Y5.2
X74.0Y84.5
X74.0Y68.5
X74.0Y52.5
X74.0Y36.5
X74.0Y20.5
X74.0Y4.5
T2
X12.0Y87.0
X12.0Y71.0
X12.0Y55.0
X12.0Y39.0
X12.0Y23.0
X12.0Y7.0
X22.3Y85.1
X22.3Y69.1
X22.3Y53.1
X22.3Y37.1
X22.3Y21.1
X22.3Y5.1
X24.3Y90.4
X24.3Y89.5
X24.3Y74.4
X24.3Y73.5
X24.3Y58.4
X24.3Y57.5
X24.3Y42.4
X24.3Y41.5
X24.3Y26.4
X24.3Y25.5
X24.3Y10.4
X24.3Y9.5
X24.5Y82.5
X24.5Y66.5
X24.5Y50.5
X24.5Y34.5
X24.5Y18.5
X24.5Y2.5
X25.4Y82.5
X25.4Y66.5
X25.4Y50.5
X25.4Y34.5
X25.4Y18.5
X25.4Y2.5
X33.75Y81.25
X33.75Y65.25
X33.75Y49.25
X33.75Y33.25
X33.75Y17.25
X33.75Y1.25
X36.2Y91.25
X36.2Y75.25
X36.2Y59.25
X36.2Y43.25
X36.2Y27.25
X36.2Y11.25
X37.75Y91.0
X37.75Y75.0
X37.75Y59.0
X37.75Y43.0
X37.75Y27.0
X37.75Y11.0
X38.0Y87.75
X38.0Y86.25
X38.0Y71.75
X38.0Y70.25
X38.0Y55.75
X38.0Y54.25
X38.0Y39.75
X38.0Y38.25
X38.0Y23.75
X38.0Y22.25
X38.0Y7.75
X38.0Y6.25
X38.75Y83.25
X38.75Y67.25
X38.75Y51.25
X38.75Y35.25
X38.75Y19.25
X38.75Y3.25
X40.5Y83.8
X40.5Y67.8
X40.5Y51.8
X40.5Y35.8
X40.5Y19.8
X40.5Y3.8
X48.5Y92.75
X48.5Y76.75
X48.5Y60.75
X48.5Y44.75
X48.5Y28.75
X48.5Y12.75
T3
X35.5Y85.0
X35.5Y69.0
X35.5Y53.0
X35.5Y37.0
X35.5Y21.0
X35.5Y5.0
X37.5Y89.75
X37.5Y73.75
X37.5Y57.75
X37.5Y41.75
X37.5Y25.75
X37.5Y9.75
X40.5Y88.5
X40.5Y85.75
X40.5Y72.5
X40.5Y69.75
X40.5Y56.5
X40.5Y53.75
X40.5Y40.5
X40.5Y37.75
X40.5Y24.5
X40.5Y21.75
X40.5Y8.5
X40.5Y5.75
T4
X12.5Y89.7
X12.5Y84.3
X12.5Y73.7
X12.5Y68.3
X12.5Y57.7
X12.5Y52.3
X12.5Y41.7
X12.5Y36.3
X12.5Y25.7
X12.5Y20.3
X12.5Y9.7
X12.5Y4.3
X70.4Y89.7
X70.4Y84.3
X70.4Y73.7
X70.4Y68.3
X70.4Y57.7
X70.4Y52.3
X70.4Y41.7
X70.4Y36.3
X70.4Y25.7
X70.4Y20.3
X70.4Y9.7
X70.4Y4.3
T5
X58.165Y90.5
X58.165Y74.5
X58.165Y58.5
X58.165Y42.5
X58.165Y26.5
X58.165Y10.5
X59.435Y90.5
X59.435Y74.5
X59.435Y58.5
X59.435Y42.5
X59.435Y26.5
X59.435Y10.5
T6
X3.5Y87.0
X3.5Y71.0
X3.5Y55.0
X3.5Y39.0
X3.5Y23.0
X3.5Y7.0
X79.5Y87.0
X79.5Y71.0
X79.5Y55.0
X79.5Y39.0
X79.5Y23.0
X79.5Y7.0
T0
M30
