%TF.GenerationSoftware,KiCad,Pcbnew,(5.1.12)-1*%
%TF.CreationDate,2022-01-09T23:00:33+09:00*%
%TF.ProjectId,motordecoder2-K3057,6d6f746f-7264-4656-936f-646572322d4b,rev?*%
%TF.SameCoordinates,PX55d4a80PY7641700*%
%TF.FileFunction,Legend,Bot*%
%TF.FilePolarity,Positive*%
%FSLAX46Y46*%
G04 Gerber Fmt 4.6, Leading zero omitted, Abs format (unit mm)*
G04 Created by KiCad (PCBNEW (5.1.12)-1) date 2022-01-09 23:00:33*
%MOMM*%
%LPD*%
G01*
G04 APERTURE LIST*
%ADD10C,0.180000*%
%ADD11C,0.200000*%
%ADD12C,0.120000*%
%ADD13R,0.750000X1.300000*%
%ADD14R,0.300000X0.500000*%
%ADD15R,0.500000X1.450000*%
%ADD16C,2.000000*%
%ADD17R,8.000000X2.000000*%
%ADD18R,7.000000X2.000000*%
%ADD19R,1.000000X1.000000*%
%ADD20R,0.950000X0.950000*%
G04 APERTURE END LIST*
D10*
X68346428Y4639286D02*
X68346428Y3889286D01*
X68632142Y3889286D01*
X68703571Y3925000D01*
X68739285Y3960715D01*
X68775000Y4032143D01*
X68775000Y4139286D01*
X68739285Y4210715D01*
X68703571Y4246429D01*
X68632142Y4282143D01*
X68346428Y4282143D01*
X69453571Y3889286D02*
X69096428Y3889286D01*
X69060714Y4246429D01*
X69096428Y4210715D01*
X69167857Y4175000D01*
X69346428Y4175000D01*
X69417857Y4210715D01*
X69453571Y4246429D01*
X69489285Y4317858D01*
X69489285Y4496429D01*
X69453571Y4567858D01*
X69417857Y4603572D01*
X69346428Y4639286D01*
X69167857Y4639286D01*
X69096428Y4603572D01*
X69060714Y4567858D01*
X68346428Y20639286D02*
X68346428Y19889286D01*
X68632142Y19889286D01*
X68703571Y19925000D01*
X68739285Y19960715D01*
X68775000Y20032143D01*
X68775000Y20139286D01*
X68739285Y20210715D01*
X68703571Y20246429D01*
X68632142Y20282143D01*
X68346428Y20282143D01*
X69453571Y19889286D02*
X69096428Y19889286D01*
X69060714Y20246429D01*
X69096428Y20210715D01*
X69167857Y20175000D01*
X69346428Y20175000D01*
X69417857Y20210715D01*
X69453571Y20246429D01*
X69489285Y20317858D01*
X69489285Y20496429D01*
X69453571Y20567858D01*
X69417857Y20603572D01*
X69346428Y20639286D01*
X69167857Y20639286D01*
X69096428Y20603572D01*
X69060714Y20567858D01*
X68346428Y36639286D02*
X68346428Y35889286D01*
X68632142Y35889286D01*
X68703571Y35925000D01*
X68739285Y35960715D01*
X68775000Y36032143D01*
X68775000Y36139286D01*
X68739285Y36210715D01*
X68703571Y36246429D01*
X68632142Y36282143D01*
X68346428Y36282143D01*
X69453571Y35889286D02*
X69096428Y35889286D01*
X69060714Y36246429D01*
X69096428Y36210715D01*
X69167857Y36175000D01*
X69346428Y36175000D01*
X69417857Y36210715D01*
X69453571Y36246429D01*
X69489285Y36317858D01*
X69489285Y36496429D01*
X69453571Y36567858D01*
X69417857Y36603572D01*
X69346428Y36639286D01*
X69167857Y36639286D01*
X69096428Y36603572D01*
X69060714Y36567858D01*
X68346428Y52639286D02*
X68346428Y51889286D01*
X68632142Y51889286D01*
X68703571Y51925000D01*
X68739285Y51960715D01*
X68775000Y52032143D01*
X68775000Y52139286D01*
X68739285Y52210715D01*
X68703571Y52246429D01*
X68632142Y52282143D01*
X68346428Y52282143D01*
X69453571Y51889286D02*
X69096428Y51889286D01*
X69060714Y52246429D01*
X69096428Y52210715D01*
X69167857Y52175000D01*
X69346428Y52175000D01*
X69417857Y52210715D01*
X69453571Y52246429D01*
X69489285Y52317858D01*
X69489285Y52496429D01*
X69453571Y52567858D01*
X69417857Y52603572D01*
X69346428Y52639286D01*
X69167857Y52639286D01*
X69096428Y52603572D01*
X69060714Y52567858D01*
X68346428Y68639286D02*
X68346428Y67889286D01*
X68632142Y67889286D01*
X68703571Y67925000D01*
X68739285Y67960715D01*
X68775000Y68032143D01*
X68775000Y68139286D01*
X68739285Y68210715D01*
X68703571Y68246429D01*
X68632142Y68282143D01*
X68346428Y68282143D01*
X69453571Y67889286D02*
X69096428Y67889286D01*
X69060714Y68246429D01*
X69096428Y68210715D01*
X69167857Y68175000D01*
X69346428Y68175000D01*
X69417857Y68210715D01*
X69453571Y68246429D01*
X69489285Y68317858D01*
X69489285Y68496429D01*
X69453571Y68567858D01*
X69417857Y68603572D01*
X69346428Y68639286D01*
X69167857Y68639286D01*
X69096428Y68603572D01*
X69060714Y68567858D01*
X74046428Y10139286D02*
X74046428Y9389286D01*
X74332142Y9389286D01*
X74403571Y9425000D01*
X74439285Y9460715D01*
X74475000Y9532143D01*
X74475000Y9639286D01*
X74439285Y9710715D01*
X74403571Y9746429D01*
X74332142Y9782143D01*
X74046428Y9782143D01*
X75117857Y9639286D02*
X75117857Y10139286D01*
X74939285Y9353572D02*
X74760714Y9889286D01*
X75225000Y9889286D01*
X74046428Y26139286D02*
X74046428Y25389286D01*
X74332142Y25389286D01*
X74403571Y25425000D01*
X74439285Y25460715D01*
X74475000Y25532143D01*
X74475000Y25639286D01*
X74439285Y25710715D01*
X74403571Y25746429D01*
X74332142Y25782143D01*
X74046428Y25782143D01*
X75117857Y25639286D02*
X75117857Y26139286D01*
X74939285Y25353572D02*
X74760714Y25889286D01*
X75225000Y25889286D01*
X74046428Y42139286D02*
X74046428Y41389286D01*
X74332142Y41389286D01*
X74403571Y41425000D01*
X74439285Y41460715D01*
X74475000Y41532143D01*
X74475000Y41639286D01*
X74439285Y41710715D01*
X74403571Y41746429D01*
X74332142Y41782143D01*
X74046428Y41782143D01*
X75117857Y41639286D02*
X75117857Y42139286D01*
X74939285Y41353572D02*
X74760714Y41889286D01*
X75225000Y41889286D01*
X74046428Y58139286D02*
X74046428Y57389286D01*
X74332142Y57389286D01*
X74403571Y57425000D01*
X74439285Y57460715D01*
X74475000Y57532143D01*
X74475000Y57639286D01*
X74439285Y57710715D01*
X74403571Y57746429D01*
X74332142Y57782143D01*
X74046428Y57782143D01*
X75117857Y57639286D02*
X75117857Y58139286D01*
X74939285Y57353572D02*
X74760714Y57889286D01*
X75225000Y57889286D01*
X74046428Y74139286D02*
X74046428Y73389286D01*
X74332142Y73389286D01*
X74403571Y73425000D01*
X74439285Y73460715D01*
X74475000Y73532143D01*
X74475000Y73639286D01*
X74439285Y73710715D01*
X74403571Y73746429D01*
X74332142Y73782143D01*
X74046428Y73782143D01*
X75117857Y73639286D02*
X75117857Y74139286D01*
X74939285Y73353572D02*
X74760714Y73889286D01*
X75225000Y73889286D01*
X71346428Y10139286D02*
X71346428Y9389286D01*
X71632142Y9389286D01*
X71703571Y9425000D01*
X71739285Y9460715D01*
X71775000Y9532143D01*
X71775000Y9639286D01*
X71739285Y9710715D01*
X71703571Y9746429D01*
X71632142Y9782143D01*
X71346428Y9782143D01*
X72417857Y9389286D02*
X72275000Y9389286D01*
X72203571Y9425000D01*
X72167857Y9460715D01*
X72096428Y9567858D01*
X72060714Y9710715D01*
X72060714Y9996429D01*
X72096428Y10067858D01*
X72132142Y10103572D01*
X72203571Y10139286D01*
X72346428Y10139286D01*
X72417857Y10103572D01*
X72453571Y10067858D01*
X72489285Y9996429D01*
X72489285Y9817858D01*
X72453571Y9746429D01*
X72417857Y9710715D01*
X72346428Y9675000D01*
X72203571Y9675000D01*
X72132142Y9710715D01*
X72096428Y9746429D01*
X72060714Y9817858D01*
X71346428Y26139286D02*
X71346428Y25389286D01*
X71632142Y25389286D01*
X71703571Y25425000D01*
X71739285Y25460715D01*
X71775000Y25532143D01*
X71775000Y25639286D01*
X71739285Y25710715D01*
X71703571Y25746429D01*
X71632142Y25782143D01*
X71346428Y25782143D01*
X72417857Y25389286D02*
X72275000Y25389286D01*
X72203571Y25425000D01*
X72167857Y25460715D01*
X72096428Y25567858D01*
X72060714Y25710715D01*
X72060714Y25996429D01*
X72096428Y26067858D01*
X72132142Y26103572D01*
X72203571Y26139286D01*
X72346428Y26139286D01*
X72417857Y26103572D01*
X72453571Y26067858D01*
X72489285Y25996429D01*
X72489285Y25817858D01*
X72453571Y25746429D01*
X72417857Y25710715D01*
X72346428Y25675000D01*
X72203571Y25675000D01*
X72132142Y25710715D01*
X72096428Y25746429D01*
X72060714Y25817858D01*
X71346428Y42139286D02*
X71346428Y41389286D01*
X71632142Y41389286D01*
X71703571Y41425000D01*
X71739285Y41460715D01*
X71775000Y41532143D01*
X71775000Y41639286D01*
X71739285Y41710715D01*
X71703571Y41746429D01*
X71632142Y41782143D01*
X71346428Y41782143D01*
X72417857Y41389286D02*
X72275000Y41389286D01*
X72203571Y41425000D01*
X72167857Y41460715D01*
X72096428Y41567858D01*
X72060714Y41710715D01*
X72060714Y41996429D01*
X72096428Y42067858D01*
X72132142Y42103572D01*
X72203571Y42139286D01*
X72346428Y42139286D01*
X72417857Y42103572D01*
X72453571Y42067858D01*
X72489285Y41996429D01*
X72489285Y41817858D01*
X72453571Y41746429D01*
X72417857Y41710715D01*
X72346428Y41675000D01*
X72203571Y41675000D01*
X72132142Y41710715D01*
X72096428Y41746429D01*
X72060714Y41817858D01*
X71346428Y58139286D02*
X71346428Y57389286D01*
X71632142Y57389286D01*
X71703571Y57425000D01*
X71739285Y57460715D01*
X71775000Y57532143D01*
X71775000Y57639286D01*
X71739285Y57710715D01*
X71703571Y57746429D01*
X71632142Y57782143D01*
X71346428Y57782143D01*
X72417857Y57389286D02*
X72275000Y57389286D01*
X72203571Y57425000D01*
X72167857Y57460715D01*
X72096428Y57567858D01*
X72060714Y57710715D01*
X72060714Y57996429D01*
X72096428Y58067858D01*
X72132142Y58103572D01*
X72203571Y58139286D01*
X72346428Y58139286D01*
X72417857Y58103572D01*
X72453571Y58067858D01*
X72489285Y57996429D01*
X72489285Y57817858D01*
X72453571Y57746429D01*
X72417857Y57710715D01*
X72346428Y57675000D01*
X72203571Y57675000D01*
X72132142Y57710715D01*
X72096428Y57746429D01*
X72060714Y57817858D01*
X71346428Y74139286D02*
X71346428Y73389286D01*
X71632142Y73389286D01*
X71703571Y73425000D01*
X71739285Y73460715D01*
X71775000Y73532143D01*
X71775000Y73639286D01*
X71739285Y73710715D01*
X71703571Y73746429D01*
X71632142Y73782143D01*
X71346428Y73782143D01*
X72417857Y73389286D02*
X72275000Y73389286D01*
X72203571Y73425000D01*
X72167857Y73460715D01*
X72096428Y73567858D01*
X72060714Y73710715D01*
X72060714Y73996429D01*
X72096428Y74067858D01*
X72132142Y74103572D01*
X72203571Y74139286D01*
X72346428Y74139286D01*
X72417857Y74103572D01*
X72453571Y74067858D01*
X72489285Y73996429D01*
X72489285Y73817858D01*
X72453571Y73746429D01*
X72417857Y73710715D01*
X72346428Y73675000D01*
X72203571Y73675000D01*
X72132142Y73710715D01*
X72096428Y73746429D01*
X72060714Y73817858D01*
X10446428Y4639286D02*
X10446428Y3889286D01*
X10732142Y3889286D01*
X10803571Y3925000D01*
X10839285Y3960715D01*
X10875000Y4032143D01*
X10875000Y4139286D01*
X10839285Y4210715D01*
X10803571Y4246429D01*
X10732142Y4282143D01*
X10446428Y4282143D01*
X11125000Y3889286D02*
X11589285Y3889286D01*
X11339285Y4175000D01*
X11446428Y4175000D01*
X11517857Y4210715D01*
X11553571Y4246429D01*
X11589285Y4317858D01*
X11589285Y4496429D01*
X11553571Y4567858D01*
X11517857Y4603572D01*
X11446428Y4639286D01*
X11232142Y4639286D01*
X11160714Y4603572D01*
X11125000Y4567858D01*
X10446428Y20639286D02*
X10446428Y19889286D01*
X10732142Y19889286D01*
X10803571Y19925000D01*
X10839285Y19960715D01*
X10875000Y20032143D01*
X10875000Y20139286D01*
X10839285Y20210715D01*
X10803571Y20246429D01*
X10732142Y20282143D01*
X10446428Y20282143D01*
X11125000Y19889286D02*
X11589285Y19889286D01*
X11339285Y20175000D01*
X11446428Y20175000D01*
X11517857Y20210715D01*
X11553571Y20246429D01*
X11589285Y20317858D01*
X11589285Y20496429D01*
X11553571Y20567858D01*
X11517857Y20603572D01*
X11446428Y20639286D01*
X11232142Y20639286D01*
X11160714Y20603572D01*
X11125000Y20567858D01*
X10446428Y36639286D02*
X10446428Y35889286D01*
X10732142Y35889286D01*
X10803571Y35925000D01*
X10839285Y35960715D01*
X10875000Y36032143D01*
X10875000Y36139286D01*
X10839285Y36210715D01*
X10803571Y36246429D01*
X10732142Y36282143D01*
X10446428Y36282143D01*
X11125000Y35889286D02*
X11589285Y35889286D01*
X11339285Y36175000D01*
X11446428Y36175000D01*
X11517857Y36210715D01*
X11553571Y36246429D01*
X11589285Y36317858D01*
X11589285Y36496429D01*
X11553571Y36567858D01*
X11517857Y36603572D01*
X11446428Y36639286D01*
X11232142Y36639286D01*
X11160714Y36603572D01*
X11125000Y36567858D01*
X10446428Y52639286D02*
X10446428Y51889286D01*
X10732142Y51889286D01*
X10803571Y51925000D01*
X10839285Y51960715D01*
X10875000Y52032143D01*
X10875000Y52139286D01*
X10839285Y52210715D01*
X10803571Y52246429D01*
X10732142Y52282143D01*
X10446428Y52282143D01*
X11125000Y51889286D02*
X11589285Y51889286D01*
X11339285Y52175000D01*
X11446428Y52175000D01*
X11517857Y52210715D01*
X11553571Y52246429D01*
X11589285Y52317858D01*
X11589285Y52496429D01*
X11553571Y52567858D01*
X11517857Y52603572D01*
X11446428Y52639286D01*
X11232142Y52639286D01*
X11160714Y52603572D01*
X11125000Y52567858D01*
X10446428Y68639286D02*
X10446428Y67889286D01*
X10732142Y67889286D01*
X10803571Y67925000D01*
X10839285Y67960715D01*
X10875000Y68032143D01*
X10875000Y68139286D01*
X10839285Y68210715D01*
X10803571Y68246429D01*
X10732142Y68282143D01*
X10446428Y68282143D01*
X11125000Y67889286D02*
X11589285Y67889286D01*
X11339285Y68175000D01*
X11446428Y68175000D01*
X11517857Y68210715D01*
X11553571Y68246429D01*
X11589285Y68317858D01*
X11589285Y68496429D01*
X11553571Y68567858D01*
X11517857Y68603572D01*
X11446428Y68639286D01*
X11232142Y68639286D01*
X11160714Y68603572D01*
X11125000Y68567858D01*
X54460714Y11639286D02*
X54460714Y10889286D01*
X54746428Y10889286D01*
X54817857Y10925000D01*
X54853571Y10960715D01*
X54889285Y11032143D01*
X54889285Y11139286D01*
X54853571Y11210715D01*
X54817857Y11246429D01*
X54746428Y11282143D01*
X54460714Y11282143D01*
X55639285Y11639286D02*
X55389285Y11282143D01*
X55210714Y11639286D02*
X55210714Y10889286D01*
X55496428Y10889286D01*
X55567857Y10925000D01*
X55603571Y10960715D01*
X55639285Y11032143D01*
X55639285Y11139286D01*
X55603571Y11210715D01*
X55567857Y11246429D01*
X55496428Y11282143D01*
X55210714Y11282143D01*
X56103571Y10889286D02*
X56246428Y10889286D01*
X56317857Y10925000D01*
X56389285Y10996429D01*
X56425000Y11139286D01*
X56425000Y11389286D01*
X56389285Y11532143D01*
X56317857Y11603572D01*
X56246428Y11639286D01*
X56103571Y11639286D01*
X56032142Y11603572D01*
X55960714Y11532143D01*
X55925000Y11389286D01*
X55925000Y11139286D01*
X55960714Y10996429D01*
X56032142Y10925000D01*
X56103571Y10889286D01*
X57139285Y10925000D02*
X57067857Y10889286D01*
X56960714Y10889286D01*
X56853571Y10925000D01*
X56782142Y10996429D01*
X56746428Y11067858D01*
X56710714Y11210715D01*
X56710714Y11317858D01*
X56746428Y11460715D01*
X56782142Y11532143D01*
X56853571Y11603572D01*
X56960714Y11639286D01*
X57032142Y11639286D01*
X57139285Y11603572D01*
X57175000Y11567858D01*
X57175000Y11317858D01*
X57032142Y11317858D01*
X54460714Y27639286D02*
X54460714Y26889286D01*
X54746428Y26889286D01*
X54817857Y26925000D01*
X54853571Y26960715D01*
X54889285Y27032143D01*
X54889285Y27139286D01*
X54853571Y27210715D01*
X54817857Y27246429D01*
X54746428Y27282143D01*
X54460714Y27282143D01*
X55639285Y27639286D02*
X55389285Y27282143D01*
X55210714Y27639286D02*
X55210714Y26889286D01*
X55496428Y26889286D01*
X55567857Y26925000D01*
X55603571Y26960715D01*
X55639285Y27032143D01*
X55639285Y27139286D01*
X55603571Y27210715D01*
X55567857Y27246429D01*
X55496428Y27282143D01*
X55210714Y27282143D01*
X56103571Y26889286D02*
X56246428Y26889286D01*
X56317857Y26925000D01*
X56389285Y26996429D01*
X56425000Y27139286D01*
X56425000Y27389286D01*
X56389285Y27532143D01*
X56317857Y27603572D01*
X56246428Y27639286D01*
X56103571Y27639286D01*
X56032142Y27603572D01*
X55960714Y27532143D01*
X55925000Y27389286D01*
X55925000Y27139286D01*
X55960714Y26996429D01*
X56032142Y26925000D01*
X56103571Y26889286D01*
X57139285Y26925000D02*
X57067857Y26889286D01*
X56960714Y26889286D01*
X56853571Y26925000D01*
X56782142Y26996429D01*
X56746428Y27067858D01*
X56710714Y27210715D01*
X56710714Y27317858D01*
X56746428Y27460715D01*
X56782142Y27532143D01*
X56853571Y27603572D01*
X56960714Y27639286D01*
X57032142Y27639286D01*
X57139285Y27603572D01*
X57175000Y27567858D01*
X57175000Y27317858D01*
X57032142Y27317858D01*
X54460714Y43639286D02*
X54460714Y42889286D01*
X54746428Y42889286D01*
X54817857Y42925000D01*
X54853571Y42960715D01*
X54889285Y43032143D01*
X54889285Y43139286D01*
X54853571Y43210715D01*
X54817857Y43246429D01*
X54746428Y43282143D01*
X54460714Y43282143D01*
X55639285Y43639286D02*
X55389285Y43282143D01*
X55210714Y43639286D02*
X55210714Y42889286D01*
X55496428Y42889286D01*
X55567857Y42925000D01*
X55603571Y42960715D01*
X55639285Y43032143D01*
X55639285Y43139286D01*
X55603571Y43210715D01*
X55567857Y43246429D01*
X55496428Y43282143D01*
X55210714Y43282143D01*
X56103571Y42889286D02*
X56246428Y42889286D01*
X56317857Y42925000D01*
X56389285Y42996429D01*
X56425000Y43139286D01*
X56425000Y43389286D01*
X56389285Y43532143D01*
X56317857Y43603572D01*
X56246428Y43639286D01*
X56103571Y43639286D01*
X56032142Y43603572D01*
X55960714Y43532143D01*
X55925000Y43389286D01*
X55925000Y43139286D01*
X55960714Y42996429D01*
X56032142Y42925000D01*
X56103571Y42889286D01*
X57139285Y42925000D02*
X57067857Y42889286D01*
X56960714Y42889286D01*
X56853571Y42925000D01*
X56782142Y42996429D01*
X56746428Y43067858D01*
X56710714Y43210715D01*
X56710714Y43317858D01*
X56746428Y43460715D01*
X56782142Y43532143D01*
X56853571Y43603572D01*
X56960714Y43639286D01*
X57032142Y43639286D01*
X57139285Y43603572D01*
X57175000Y43567858D01*
X57175000Y43317858D01*
X57032142Y43317858D01*
X54460714Y59639286D02*
X54460714Y58889286D01*
X54746428Y58889286D01*
X54817857Y58925000D01*
X54853571Y58960715D01*
X54889285Y59032143D01*
X54889285Y59139286D01*
X54853571Y59210715D01*
X54817857Y59246429D01*
X54746428Y59282143D01*
X54460714Y59282143D01*
X55639285Y59639286D02*
X55389285Y59282143D01*
X55210714Y59639286D02*
X55210714Y58889286D01*
X55496428Y58889286D01*
X55567857Y58925000D01*
X55603571Y58960715D01*
X55639285Y59032143D01*
X55639285Y59139286D01*
X55603571Y59210715D01*
X55567857Y59246429D01*
X55496428Y59282143D01*
X55210714Y59282143D01*
X56103571Y58889286D02*
X56246428Y58889286D01*
X56317857Y58925000D01*
X56389285Y58996429D01*
X56425000Y59139286D01*
X56425000Y59389286D01*
X56389285Y59532143D01*
X56317857Y59603572D01*
X56246428Y59639286D01*
X56103571Y59639286D01*
X56032142Y59603572D01*
X55960714Y59532143D01*
X55925000Y59389286D01*
X55925000Y59139286D01*
X55960714Y58996429D01*
X56032142Y58925000D01*
X56103571Y58889286D01*
X57139285Y58925000D02*
X57067857Y58889286D01*
X56960714Y58889286D01*
X56853571Y58925000D01*
X56782142Y58996429D01*
X56746428Y59067858D01*
X56710714Y59210715D01*
X56710714Y59317858D01*
X56746428Y59460715D01*
X56782142Y59532143D01*
X56853571Y59603572D01*
X56960714Y59639286D01*
X57032142Y59639286D01*
X57139285Y59603572D01*
X57175000Y59567858D01*
X57175000Y59317858D01*
X57032142Y59317858D01*
X54460714Y75639286D02*
X54460714Y74889286D01*
X54746428Y74889286D01*
X54817857Y74925000D01*
X54853571Y74960715D01*
X54889285Y75032143D01*
X54889285Y75139286D01*
X54853571Y75210715D01*
X54817857Y75246429D01*
X54746428Y75282143D01*
X54460714Y75282143D01*
X55639285Y75639286D02*
X55389285Y75282143D01*
X55210714Y75639286D02*
X55210714Y74889286D01*
X55496428Y74889286D01*
X55567857Y74925000D01*
X55603571Y74960715D01*
X55639285Y75032143D01*
X55639285Y75139286D01*
X55603571Y75210715D01*
X55567857Y75246429D01*
X55496428Y75282143D01*
X55210714Y75282143D01*
X56103571Y74889286D02*
X56246428Y74889286D01*
X56317857Y74925000D01*
X56389285Y74996429D01*
X56425000Y75139286D01*
X56425000Y75389286D01*
X56389285Y75532143D01*
X56317857Y75603572D01*
X56246428Y75639286D01*
X56103571Y75639286D01*
X56032142Y75603572D01*
X55960714Y75532143D01*
X55925000Y75389286D01*
X55925000Y75139286D01*
X55960714Y74996429D01*
X56032142Y74925000D01*
X56103571Y74889286D01*
X57139285Y74925000D02*
X57067857Y74889286D01*
X56960714Y74889286D01*
X56853571Y74925000D01*
X56782142Y74996429D01*
X56746428Y75067858D01*
X56710714Y75210715D01*
X56710714Y75317858D01*
X56746428Y75460715D01*
X56782142Y75532143D01*
X56853571Y75603572D01*
X56960714Y75639286D01*
X57032142Y75639286D01*
X57139285Y75603572D01*
X57175000Y75567858D01*
X57175000Y75317858D01*
X57032142Y75317858D01*
X38495571Y6839286D02*
X38495571Y6089286D01*
X38924142Y6839286D02*
X38602714Y6410715D01*
X38924142Y6089286D02*
X38495571Y6517858D01*
X39174142Y6089286D02*
X39638428Y6089286D01*
X39388428Y6375000D01*
X39495571Y6375000D01*
X39567000Y6410715D01*
X39602714Y6446429D01*
X39638428Y6517858D01*
X39638428Y6696429D01*
X39602714Y6767858D01*
X39567000Y6803572D01*
X39495571Y6839286D01*
X39281285Y6839286D01*
X39209857Y6803572D01*
X39174142Y6767858D01*
X40102714Y6089286D02*
X40174142Y6089286D01*
X40245571Y6125000D01*
X40281285Y6160715D01*
X40317000Y6232143D01*
X40352714Y6375000D01*
X40352714Y6553572D01*
X40317000Y6696429D01*
X40281285Y6767858D01*
X40245571Y6803572D01*
X40174142Y6839286D01*
X40102714Y6839286D01*
X40031285Y6803572D01*
X39995571Y6767858D01*
X39959857Y6696429D01*
X39924142Y6553572D01*
X39924142Y6375000D01*
X39959857Y6232143D01*
X39995571Y6160715D01*
X40031285Y6125000D01*
X40102714Y6089286D01*
X41031285Y6089286D02*
X40674142Y6089286D01*
X40638428Y6446429D01*
X40674142Y6410715D01*
X40745571Y6375000D01*
X40924142Y6375000D01*
X40995571Y6410715D01*
X41031285Y6446429D01*
X41067000Y6517858D01*
X41067000Y6696429D01*
X41031285Y6767858D01*
X40995571Y6803572D01*
X40924142Y6839286D01*
X40745571Y6839286D01*
X40674142Y6803572D01*
X40638428Y6767858D01*
X41317000Y6089286D02*
X41817000Y6089286D01*
X41495571Y6839286D01*
X42531285Y6839286D02*
X42281285Y6482143D01*
X42102714Y6839286D02*
X42102714Y6089286D01*
X42388428Y6089286D01*
X42459857Y6125000D01*
X42495571Y6160715D01*
X42531285Y6232143D01*
X42531285Y6339286D01*
X42495571Y6410715D01*
X42459857Y6446429D01*
X42388428Y6482143D01*
X42102714Y6482143D01*
X42817000Y6625000D02*
X43174142Y6625000D01*
X42745571Y6839286D02*
X42995571Y6089286D01*
X43245571Y6839286D01*
X38495571Y22839286D02*
X38495571Y22089286D01*
X38924142Y22839286D02*
X38602714Y22410715D01*
X38924142Y22089286D02*
X38495571Y22517858D01*
X39174142Y22089286D02*
X39638428Y22089286D01*
X39388428Y22375000D01*
X39495571Y22375000D01*
X39567000Y22410715D01*
X39602714Y22446429D01*
X39638428Y22517858D01*
X39638428Y22696429D01*
X39602714Y22767858D01*
X39567000Y22803572D01*
X39495571Y22839286D01*
X39281285Y22839286D01*
X39209857Y22803572D01*
X39174142Y22767858D01*
X40102714Y22089286D02*
X40174142Y22089286D01*
X40245571Y22125000D01*
X40281285Y22160715D01*
X40317000Y22232143D01*
X40352714Y22375000D01*
X40352714Y22553572D01*
X40317000Y22696429D01*
X40281285Y22767858D01*
X40245571Y22803572D01*
X40174142Y22839286D01*
X40102714Y22839286D01*
X40031285Y22803572D01*
X39995571Y22767858D01*
X39959857Y22696429D01*
X39924142Y22553572D01*
X39924142Y22375000D01*
X39959857Y22232143D01*
X39995571Y22160715D01*
X40031285Y22125000D01*
X40102714Y22089286D01*
X41031285Y22089286D02*
X40674142Y22089286D01*
X40638428Y22446429D01*
X40674142Y22410715D01*
X40745571Y22375000D01*
X40924142Y22375000D01*
X40995571Y22410715D01*
X41031285Y22446429D01*
X41067000Y22517858D01*
X41067000Y22696429D01*
X41031285Y22767858D01*
X40995571Y22803572D01*
X40924142Y22839286D01*
X40745571Y22839286D01*
X40674142Y22803572D01*
X40638428Y22767858D01*
X41317000Y22089286D02*
X41817000Y22089286D01*
X41495571Y22839286D01*
X42531285Y22839286D02*
X42281285Y22482143D01*
X42102714Y22839286D02*
X42102714Y22089286D01*
X42388428Y22089286D01*
X42459857Y22125000D01*
X42495571Y22160715D01*
X42531285Y22232143D01*
X42531285Y22339286D01*
X42495571Y22410715D01*
X42459857Y22446429D01*
X42388428Y22482143D01*
X42102714Y22482143D01*
X42817000Y22625000D02*
X43174142Y22625000D01*
X42745571Y22839286D02*
X42995571Y22089286D01*
X43245571Y22839286D01*
X38495571Y38839286D02*
X38495571Y38089286D01*
X38924142Y38839286D02*
X38602714Y38410715D01*
X38924142Y38089286D02*
X38495571Y38517858D01*
X39174142Y38089286D02*
X39638428Y38089286D01*
X39388428Y38375000D01*
X39495571Y38375000D01*
X39567000Y38410715D01*
X39602714Y38446429D01*
X39638428Y38517858D01*
X39638428Y38696429D01*
X39602714Y38767858D01*
X39567000Y38803572D01*
X39495571Y38839286D01*
X39281285Y38839286D01*
X39209857Y38803572D01*
X39174142Y38767858D01*
X40102714Y38089286D02*
X40174142Y38089286D01*
X40245571Y38125000D01*
X40281285Y38160715D01*
X40317000Y38232143D01*
X40352714Y38375000D01*
X40352714Y38553572D01*
X40317000Y38696429D01*
X40281285Y38767858D01*
X40245571Y38803572D01*
X40174142Y38839286D01*
X40102714Y38839286D01*
X40031285Y38803572D01*
X39995571Y38767858D01*
X39959857Y38696429D01*
X39924142Y38553572D01*
X39924142Y38375000D01*
X39959857Y38232143D01*
X39995571Y38160715D01*
X40031285Y38125000D01*
X40102714Y38089286D01*
X41031285Y38089286D02*
X40674142Y38089286D01*
X40638428Y38446429D01*
X40674142Y38410715D01*
X40745571Y38375000D01*
X40924142Y38375000D01*
X40995571Y38410715D01*
X41031285Y38446429D01*
X41067000Y38517858D01*
X41067000Y38696429D01*
X41031285Y38767858D01*
X40995571Y38803572D01*
X40924142Y38839286D01*
X40745571Y38839286D01*
X40674142Y38803572D01*
X40638428Y38767858D01*
X41317000Y38089286D02*
X41817000Y38089286D01*
X41495571Y38839286D01*
X42531285Y38839286D02*
X42281285Y38482143D01*
X42102714Y38839286D02*
X42102714Y38089286D01*
X42388428Y38089286D01*
X42459857Y38125000D01*
X42495571Y38160715D01*
X42531285Y38232143D01*
X42531285Y38339286D01*
X42495571Y38410715D01*
X42459857Y38446429D01*
X42388428Y38482143D01*
X42102714Y38482143D01*
X42817000Y38625000D02*
X43174142Y38625000D01*
X42745571Y38839286D02*
X42995571Y38089286D01*
X43245571Y38839286D01*
X38495571Y54839286D02*
X38495571Y54089286D01*
X38924142Y54839286D02*
X38602714Y54410715D01*
X38924142Y54089286D02*
X38495571Y54517858D01*
X39174142Y54089286D02*
X39638428Y54089286D01*
X39388428Y54375000D01*
X39495571Y54375000D01*
X39567000Y54410715D01*
X39602714Y54446429D01*
X39638428Y54517858D01*
X39638428Y54696429D01*
X39602714Y54767858D01*
X39567000Y54803572D01*
X39495571Y54839286D01*
X39281285Y54839286D01*
X39209857Y54803572D01*
X39174142Y54767858D01*
X40102714Y54089286D02*
X40174142Y54089286D01*
X40245571Y54125000D01*
X40281285Y54160715D01*
X40317000Y54232143D01*
X40352714Y54375000D01*
X40352714Y54553572D01*
X40317000Y54696429D01*
X40281285Y54767858D01*
X40245571Y54803572D01*
X40174142Y54839286D01*
X40102714Y54839286D01*
X40031285Y54803572D01*
X39995571Y54767858D01*
X39959857Y54696429D01*
X39924142Y54553572D01*
X39924142Y54375000D01*
X39959857Y54232143D01*
X39995571Y54160715D01*
X40031285Y54125000D01*
X40102714Y54089286D01*
X41031285Y54089286D02*
X40674142Y54089286D01*
X40638428Y54446429D01*
X40674142Y54410715D01*
X40745571Y54375000D01*
X40924142Y54375000D01*
X40995571Y54410715D01*
X41031285Y54446429D01*
X41067000Y54517858D01*
X41067000Y54696429D01*
X41031285Y54767858D01*
X40995571Y54803572D01*
X40924142Y54839286D01*
X40745571Y54839286D01*
X40674142Y54803572D01*
X40638428Y54767858D01*
X41317000Y54089286D02*
X41817000Y54089286D01*
X41495571Y54839286D01*
X42531285Y54839286D02*
X42281285Y54482143D01*
X42102714Y54839286D02*
X42102714Y54089286D01*
X42388428Y54089286D01*
X42459857Y54125000D01*
X42495571Y54160715D01*
X42531285Y54232143D01*
X42531285Y54339286D01*
X42495571Y54410715D01*
X42459857Y54446429D01*
X42388428Y54482143D01*
X42102714Y54482143D01*
X42817000Y54625000D02*
X43174142Y54625000D01*
X42745571Y54839286D02*
X42995571Y54089286D01*
X43245571Y54839286D01*
X38495571Y70839286D02*
X38495571Y70089286D01*
X38924142Y70839286D02*
X38602714Y70410715D01*
X38924142Y70089286D02*
X38495571Y70517858D01*
X39174142Y70089286D02*
X39638428Y70089286D01*
X39388428Y70375000D01*
X39495571Y70375000D01*
X39567000Y70410715D01*
X39602714Y70446429D01*
X39638428Y70517858D01*
X39638428Y70696429D01*
X39602714Y70767858D01*
X39567000Y70803572D01*
X39495571Y70839286D01*
X39281285Y70839286D01*
X39209857Y70803572D01*
X39174142Y70767858D01*
X40102714Y70089286D02*
X40174142Y70089286D01*
X40245571Y70125000D01*
X40281285Y70160715D01*
X40317000Y70232143D01*
X40352714Y70375000D01*
X40352714Y70553572D01*
X40317000Y70696429D01*
X40281285Y70767858D01*
X40245571Y70803572D01*
X40174142Y70839286D01*
X40102714Y70839286D01*
X40031285Y70803572D01*
X39995571Y70767858D01*
X39959857Y70696429D01*
X39924142Y70553572D01*
X39924142Y70375000D01*
X39959857Y70232143D01*
X39995571Y70160715D01*
X40031285Y70125000D01*
X40102714Y70089286D01*
X41031285Y70089286D02*
X40674142Y70089286D01*
X40638428Y70446429D01*
X40674142Y70410715D01*
X40745571Y70375000D01*
X40924142Y70375000D01*
X40995571Y70410715D01*
X41031285Y70446429D01*
X41067000Y70517858D01*
X41067000Y70696429D01*
X41031285Y70767858D01*
X40995571Y70803572D01*
X40924142Y70839286D01*
X40745571Y70839286D01*
X40674142Y70803572D01*
X40638428Y70767858D01*
X41317000Y70089286D02*
X41817000Y70089286D01*
X41495571Y70839286D01*
X42531285Y70839286D02*
X42281285Y70482143D01*
X42102714Y70839286D02*
X42102714Y70089286D01*
X42388428Y70089286D01*
X42459857Y70125000D01*
X42495571Y70160715D01*
X42531285Y70232143D01*
X42531285Y70339286D01*
X42495571Y70410715D01*
X42459857Y70446429D01*
X42388428Y70482143D01*
X42102714Y70482143D01*
X42817000Y70625000D02*
X43174142Y70625000D01*
X42745571Y70839286D02*
X42995571Y70089286D01*
X43245571Y70839286D01*
X38924142Y7939286D02*
X38674142Y7582143D01*
X38495571Y7939286D02*
X38495571Y7189286D01*
X38781285Y7189286D01*
X38852714Y7225000D01*
X38888428Y7260715D01*
X38924142Y7332143D01*
X38924142Y7439286D01*
X38888428Y7510715D01*
X38852714Y7546429D01*
X38781285Y7582143D01*
X38495571Y7582143D01*
X39531285Y7903572D02*
X39459857Y7939286D01*
X39317000Y7939286D01*
X39245571Y7903572D01*
X39209857Y7832143D01*
X39209857Y7546429D01*
X39245571Y7475000D01*
X39317000Y7439286D01*
X39459857Y7439286D01*
X39531285Y7475000D01*
X39567000Y7546429D01*
X39567000Y7617858D01*
X39209857Y7689286D01*
X39817000Y7439286D02*
X39995571Y7939286D01*
X40174142Y7439286D01*
X40459857Y7867858D02*
X40495571Y7903572D01*
X40459857Y7939286D01*
X40424142Y7903572D01*
X40459857Y7867858D01*
X40459857Y7939286D01*
X40745571Y7189286D02*
X41209857Y7189286D01*
X40959857Y7475000D01*
X41067000Y7475000D01*
X41138428Y7510715D01*
X41174142Y7546429D01*
X41209857Y7617858D01*
X41209857Y7796429D01*
X41174142Y7867858D01*
X41138428Y7903572D01*
X41067000Y7939286D01*
X40852714Y7939286D01*
X40781285Y7903572D01*
X40745571Y7867858D01*
X42067000Y7260715D02*
X42102714Y7225000D01*
X42174142Y7189286D01*
X42352714Y7189286D01*
X42424142Y7225000D01*
X42459857Y7260715D01*
X42495571Y7332143D01*
X42495571Y7403572D01*
X42459857Y7510715D01*
X42031285Y7939286D01*
X42495571Y7939286D01*
X42959857Y7189286D02*
X43031285Y7189286D01*
X43102714Y7225000D01*
X43138428Y7260715D01*
X43174142Y7332143D01*
X43209857Y7475000D01*
X43209857Y7653572D01*
X43174142Y7796429D01*
X43138428Y7867858D01*
X43102714Y7903572D01*
X43031285Y7939286D01*
X42959857Y7939286D01*
X42888428Y7903572D01*
X42852714Y7867858D01*
X42817000Y7796429D01*
X42781285Y7653572D01*
X42781285Y7475000D01*
X42817000Y7332143D01*
X42852714Y7260715D01*
X42888428Y7225000D01*
X42959857Y7189286D01*
X43495571Y7260715D02*
X43531285Y7225000D01*
X43602714Y7189286D01*
X43781285Y7189286D01*
X43852714Y7225000D01*
X43888428Y7260715D01*
X43924142Y7332143D01*
X43924142Y7403572D01*
X43888428Y7510715D01*
X43459857Y7939286D01*
X43924142Y7939286D01*
X44209857Y7260715D02*
X44245571Y7225000D01*
X44317000Y7189286D01*
X44495571Y7189286D01*
X44567000Y7225000D01*
X44602714Y7260715D01*
X44638428Y7332143D01*
X44638428Y7403572D01*
X44602714Y7510715D01*
X44174142Y7939286D01*
X44638428Y7939286D01*
X44959857Y7867858D02*
X44995571Y7903572D01*
X44959857Y7939286D01*
X44924142Y7903572D01*
X44959857Y7867858D01*
X44959857Y7939286D01*
X45459857Y7189286D02*
X45531285Y7189286D01*
X45602714Y7225000D01*
X45638428Y7260715D01*
X45674142Y7332143D01*
X45709857Y7475000D01*
X45709857Y7653572D01*
X45674142Y7796429D01*
X45638428Y7867858D01*
X45602714Y7903572D01*
X45531285Y7939286D01*
X45459857Y7939286D01*
X45388428Y7903572D01*
X45352714Y7867858D01*
X45317000Y7796429D01*
X45281285Y7653572D01*
X45281285Y7475000D01*
X45317000Y7332143D01*
X45352714Y7260715D01*
X45388428Y7225000D01*
X45459857Y7189286D01*
X46424142Y7939286D02*
X45995571Y7939286D01*
X46209857Y7939286D02*
X46209857Y7189286D01*
X46138428Y7296429D01*
X46067000Y7367858D01*
X45995571Y7403572D01*
X38924142Y23939286D02*
X38674142Y23582143D01*
X38495571Y23939286D02*
X38495571Y23189286D01*
X38781285Y23189286D01*
X38852714Y23225000D01*
X38888428Y23260715D01*
X38924142Y23332143D01*
X38924142Y23439286D01*
X38888428Y23510715D01*
X38852714Y23546429D01*
X38781285Y23582143D01*
X38495571Y23582143D01*
X39531285Y23903572D02*
X39459857Y23939286D01*
X39317000Y23939286D01*
X39245571Y23903572D01*
X39209857Y23832143D01*
X39209857Y23546429D01*
X39245571Y23475000D01*
X39317000Y23439286D01*
X39459857Y23439286D01*
X39531285Y23475000D01*
X39567000Y23546429D01*
X39567000Y23617858D01*
X39209857Y23689286D01*
X39817000Y23439286D02*
X39995571Y23939286D01*
X40174142Y23439286D01*
X40459857Y23867858D02*
X40495571Y23903572D01*
X40459857Y23939286D01*
X40424142Y23903572D01*
X40459857Y23867858D01*
X40459857Y23939286D01*
X40745571Y23189286D02*
X41209857Y23189286D01*
X40959857Y23475000D01*
X41067000Y23475000D01*
X41138428Y23510715D01*
X41174142Y23546429D01*
X41209857Y23617858D01*
X41209857Y23796429D01*
X41174142Y23867858D01*
X41138428Y23903572D01*
X41067000Y23939286D01*
X40852714Y23939286D01*
X40781285Y23903572D01*
X40745571Y23867858D01*
X42067000Y23260715D02*
X42102714Y23225000D01*
X42174142Y23189286D01*
X42352714Y23189286D01*
X42424142Y23225000D01*
X42459857Y23260715D01*
X42495571Y23332143D01*
X42495571Y23403572D01*
X42459857Y23510715D01*
X42031285Y23939286D01*
X42495571Y23939286D01*
X42959857Y23189286D02*
X43031285Y23189286D01*
X43102714Y23225000D01*
X43138428Y23260715D01*
X43174142Y23332143D01*
X43209857Y23475000D01*
X43209857Y23653572D01*
X43174142Y23796429D01*
X43138428Y23867858D01*
X43102714Y23903572D01*
X43031285Y23939286D01*
X42959857Y23939286D01*
X42888428Y23903572D01*
X42852714Y23867858D01*
X42817000Y23796429D01*
X42781285Y23653572D01*
X42781285Y23475000D01*
X42817000Y23332143D01*
X42852714Y23260715D01*
X42888428Y23225000D01*
X42959857Y23189286D01*
X43495571Y23260715D02*
X43531285Y23225000D01*
X43602714Y23189286D01*
X43781285Y23189286D01*
X43852714Y23225000D01*
X43888428Y23260715D01*
X43924142Y23332143D01*
X43924142Y23403572D01*
X43888428Y23510715D01*
X43459857Y23939286D01*
X43924142Y23939286D01*
X44209857Y23260715D02*
X44245571Y23225000D01*
X44317000Y23189286D01*
X44495571Y23189286D01*
X44567000Y23225000D01*
X44602714Y23260715D01*
X44638428Y23332143D01*
X44638428Y23403572D01*
X44602714Y23510715D01*
X44174142Y23939286D01*
X44638428Y23939286D01*
X44959857Y23867858D02*
X44995571Y23903572D01*
X44959857Y23939286D01*
X44924142Y23903572D01*
X44959857Y23867858D01*
X44959857Y23939286D01*
X45459857Y23189286D02*
X45531285Y23189286D01*
X45602714Y23225000D01*
X45638428Y23260715D01*
X45674142Y23332143D01*
X45709857Y23475000D01*
X45709857Y23653572D01*
X45674142Y23796429D01*
X45638428Y23867858D01*
X45602714Y23903572D01*
X45531285Y23939286D01*
X45459857Y23939286D01*
X45388428Y23903572D01*
X45352714Y23867858D01*
X45317000Y23796429D01*
X45281285Y23653572D01*
X45281285Y23475000D01*
X45317000Y23332143D01*
X45352714Y23260715D01*
X45388428Y23225000D01*
X45459857Y23189286D01*
X46424142Y23939286D02*
X45995571Y23939286D01*
X46209857Y23939286D02*
X46209857Y23189286D01*
X46138428Y23296429D01*
X46067000Y23367858D01*
X45995571Y23403572D01*
X38924142Y39939286D02*
X38674142Y39582143D01*
X38495571Y39939286D02*
X38495571Y39189286D01*
X38781285Y39189286D01*
X38852714Y39225000D01*
X38888428Y39260715D01*
X38924142Y39332143D01*
X38924142Y39439286D01*
X38888428Y39510715D01*
X38852714Y39546429D01*
X38781285Y39582143D01*
X38495571Y39582143D01*
X39531285Y39903572D02*
X39459857Y39939286D01*
X39317000Y39939286D01*
X39245571Y39903572D01*
X39209857Y39832143D01*
X39209857Y39546429D01*
X39245571Y39475000D01*
X39317000Y39439286D01*
X39459857Y39439286D01*
X39531285Y39475000D01*
X39567000Y39546429D01*
X39567000Y39617858D01*
X39209857Y39689286D01*
X39817000Y39439286D02*
X39995571Y39939286D01*
X40174142Y39439286D01*
X40459857Y39867858D02*
X40495571Y39903572D01*
X40459857Y39939286D01*
X40424142Y39903572D01*
X40459857Y39867858D01*
X40459857Y39939286D01*
X40745571Y39189286D02*
X41209857Y39189286D01*
X40959857Y39475000D01*
X41067000Y39475000D01*
X41138428Y39510715D01*
X41174142Y39546429D01*
X41209857Y39617858D01*
X41209857Y39796429D01*
X41174142Y39867858D01*
X41138428Y39903572D01*
X41067000Y39939286D01*
X40852714Y39939286D01*
X40781285Y39903572D01*
X40745571Y39867858D01*
X42067000Y39260715D02*
X42102714Y39225000D01*
X42174142Y39189286D01*
X42352714Y39189286D01*
X42424142Y39225000D01*
X42459857Y39260715D01*
X42495571Y39332143D01*
X42495571Y39403572D01*
X42459857Y39510715D01*
X42031285Y39939286D01*
X42495571Y39939286D01*
X42959857Y39189286D02*
X43031285Y39189286D01*
X43102714Y39225000D01*
X43138428Y39260715D01*
X43174142Y39332143D01*
X43209857Y39475000D01*
X43209857Y39653572D01*
X43174142Y39796429D01*
X43138428Y39867858D01*
X43102714Y39903572D01*
X43031285Y39939286D01*
X42959857Y39939286D01*
X42888428Y39903572D01*
X42852714Y39867858D01*
X42817000Y39796429D01*
X42781285Y39653572D01*
X42781285Y39475000D01*
X42817000Y39332143D01*
X42852714Y39260715D01*
X42888428Y39225000D01*
X42959857Y39189286D01*
X43495571Y39260715D02*
X43531285Y39225000D01*
X43602714Y39189286D01*
X43781285Y39189286D01*
X43852714Y39225000D01*
X43888428Y39260715D01*
X43924142Y39332143D01*
X43924142Y39403572D01*
X43888428Y39510715D01*
X43459857Y39939286D01*
X43924142Y39939286D01*
X44209857Y39260715D02*
X44245571Y39225000D01*
X44317000Y39189286D01*
X44495571Y39189286D01*
X44567000Y39225000D01*
X44602714Y39260715D01*
X44638428Y39332143D01*
X44638428Y39403572D01*
X44602714Y39510715D01*
X44174142Y39939286D01*
X44638428Y39939286D01*
X44959857Y39867858D02*
X44995571Y39903572D01*
X44959857Y39939286D01*
X44924142Y39903572D01*
X44959857Y39867858D01*
X44959857Y39939286D01*
X45459857Y39189286D02*
X45531285Y39189286D01*
X45602714Y39225000D01*
X45638428Y39260715D01*
X45674142Y39332143D01*
X45709857Y39475000D01*
X45709857Y39653572D01*
X45674142Y39796429D01*
X45638428Y39867858D01*
X45602714Y39903572D01*
X45531285Y39939286D01*
X45459857Y39939286D01*
X45388428Y39903572D01*
X45352714Y39867858D01*
X45317000Y39796429D01*
X45281285Y39653572D01*
X45281285Y39475000D01*
X45317000Y39332143D01*
X45352714Y39260715D01*
X45388428Y39225000D01*
X45459857Y39189286D01*
X46424142Y39939286D02*
X45995571Y39939286D01*
X46209857Y39939286D02*
X46209857Y39189286D01*
X46138428Y39296429D01*
X46067000Y39367858D01*
X45995571Y39403572D01*
X38924142Y55939286D02*
X38674142Y55582143D01*
X38495571Y55939286D02*
X38495571Y55189286D01*
X38781285Y55189286D01*
X38852714Y55225000D01*
X38888428Y55260715D01*
X38924142Y55332143D01*
X38924142Y55439286D01*
X38888428Y55510715D01*
X38852714Y55546429D01*
X38781285Y55582143D01*
X38495571Y55582143D01*
X39531285Y55903572D02*
X39459857Y55939286D01*
X39317000Y55939286D01*
X39245571Y55903572D01*
X39209857Y55832143D01*
X39209857Y55546429D01*
X39245571Y55475000D01*
X39317000Y55439286D01*
X39459857Y55439286D01*
X39531285Y55475000D01*
X39567000Y55546429D01*
X39567000Y55617858D01*
X39209857Y55689286D01*
X39817000Y55439286D02*
X39995571Y55939286D01*
X40174142Y55439286D01*
X40459857Y55867858D02*
X40495571Y55903572D01*
X40459857Y55939286D01*
X40424142Y55903572D01*
X40459857Y55867858D01*
X40459857Y55939286D01*
X40745571Y55189286D02*
X41209857Y55189286D01*
X40959857Y55475000D01*
X41067000Y55475000D01*
X41138428Y55510715D01*
X41174142Y55546429D01*
X41209857Y55617858D01*
X41209857Y55796429D01*
X41174142Y55867858D01*
X41138428Y55903572D01*
X41067000Y55939286D01*
X40852714Y55939286D01*
X40781285Y55903572D01*
X40745571Y55867858D01*
X42067000Y55260715D02*
X42102714Y55225000D01*
X42174142Y55189286D01*
X42352714Y55189286D01*
X42424142Y55225000D01*
X42459857Y55260715D01*
X42495571Y55332143D01*
X42495571Y55403572D01*
X42459857Y55510715D01*
X42031285Y55939286D01*
X42495571Y55939286D01*
X42959857Y55189286D02*
X43031285Y55189286D01*
X43102714Y55225000D01*
X43138428Y55260715D01*
X43174142Y55332143D01*
X43209857Y55475000D01*
X43209857Y55653572D01*
X43174142Y55796429D01*
X43138428Y55867858D01*
X43102714Y55903572D01*
X43031285Y55939286D01*
X42959857Y55939286D01*
X42888428Y55903572D01*
X42852714Y55867858D01*
X42817000Y55796429D01*
X42781285Y55653572D01*
X42781285Y55475000D01*
X42817000Y55332143D01*
X42852714Y55260715D01*
X42888428Y55225000D01*
X42959857Y55189286D01*
X43495571Y55260715D02*
X43531285Y55225000D01*
X43602714Y55189286D01*
X43781285Y55189286D01*
X43852714Y55225000D01*
X43888428Y55260715D01*
X43924142Y55332143D01*
X43924142Y55403572D01*
X43888428Y55510715D01*
X43459857Y55939286D01*
X43924142Y55939286D01*
X44209857Y55260715D02*
X44245571Y55225000D01*
X44317000Y55189286D01*
X44495571Y55189286D01*
X44567000Y55225000D01*
X44602714Y55260715D01*
X44638428Y55332143D01*
X44638428Y55403572D01*
X44602714Y55510715D01*
X44174142Y55939286D01*
X44638428Y55939286D01*
X44959857Y55867858D02*
X44995571Y55903572D01*
X44959857Y55939286D01*
X44924142Y55903572D01*
X44959857Y55867858D01*
X44959857Y55939286D01*
X45459857Y55189286D02*
X45531285Y55189286D01*
X45602714Y55225000D01*
X45638428Y55260715D01*
X45674142Y55332143D01*
X45709857Y55475000D01*
X45709857Y55653572D01*
X45674142Y55796429D01*
X45638428Y55867858D01*
X45602714Y55903572D01*
X45531285Y55939286D01*
X45459857Y55939286D01*
X45388428Y55903572D01*
X45352714Y55867858D01*
X45317000Y55796429D01*
X45281285Y55653572D01*
X45281285Y55475000D01*
X45317000Y55332143D01*
X45352714Y55260715D01*
X45388428Y55225000D01*
X45459857Y55189286D01*
X46424142Y55939286D02*
X45995571Y55939286D01*
X46209857Y55939286D02*
X46209857Y55189286D01*
X46138428Y55296429D01*
X46067000Y55367858D01*
X45995571Y55403572D01*
X38924142Y71939286D02*
X38674142Y71582143D01*
X38495571Y71939286D02*
X38495571Y71189286D01*
X38781285Y71189286D01*
X38852714Y71225000D01*
X38888428Y71260715D01*
X38924142Y71332143D01*
X38924142Y71439286D01*
X38888428Y71510715D01*
X38852714Y71546429D01*
X38781285Y71582143D01*
X38495571Y71582143D01*
X39531285Y71903572D02*
X39459857Y71939286D01*
X39317000Y71939286D01*
X39245571Y71903572D01*
X39209857Y71832143D01*
X39209857Y71546429D01*
X39245571Y71475000D01*
X39317000Y71439286D01*
X39459857Y71439286D01*
X39531285Y71475000D01*
X39567000Y71546429D01*
X39567000Y71617858D01*
X39209857Y71689286D01*
X39817000Y71439286D02*
X39995571Y71939286D01*
X40174142Y71439286D01*
X40459857Y71867858D02*
X40495571Y71903572D01*
X40459857Y71939286D01*
X40424142Y71903572D01*
X40459857Y71867858D01*
X40459857Y71939286D01*
X40745571Y71189286D02*
X41209857Y71189286D01*
X40959857Y71475000D01*
X41067000Y71475000D01*
X41138428Y71510715D01*
X41174142Y71546429D01*
X41209857Y71617858D01*
X41209857Y71796429D01*
X41174142Y71867858D01*
X41138428Y71903572D01*
X41067000Y71939286D01*
X40852714Y71939286D01*
X40781285Y71903572D01*
X40745571Y71867858D01*
X42067000Y71260715D02*
X42102714Y71225000D01*
X42174142Y71189286D01*
X42352714Y71189286D01*
X42424142Y71225000D01*
X42459857Y71260715D01*
X42495571Y71332143D01*
X42495571Y71403572D01*
X42459857Y71510715D01*
X42031285Y71939286D01*
X42495571Y71939286D01*
X42959857Y71189286D02*
X43031285Y71189286D01*
X43102714Y71225000D01*
X43138428Y71260715D01*
X43174142Y71332143D01*
X43209857Y71475000D01*
X43209857Y71653572D01*
X43174142Y71796429D01*
X43138428Y71867858D01*
X43102714Y71903572D01*
X43031285Y71939286D01*
X42959857Y71939286D01*
X42888428Y71903572D01*
X42852714Y71867858D01*
X42817000Y71796429D01*
X42781285Y71653572D01*
X42781285Y71475000D01*
X42817000Y71332143D01*
X42852714Y71260715D01*
X42888428Y71225000D01*
X42959857Y71189286D01*
X43495571Y71260715D02*
X43531285Y71225000D01*
X43602714Y71189286D01*
X43781285Y71189286D01*
X43852714Y71225000D01*
X43888428Y71260715D01*
X43924142Y71332143D01*
X43924142Y71403572D01*
X43888428Y71510715D01*
X43459857Y71939286D01*
X43924142Y71939286D01*
X44209857Y71260715D02*
X44245571Y71225000D01*
X44317000Y71189286D01*
X44495571Y71189286D01*
X44567000Y71225000D01*
X44602714Y71260715D01*
X44638428Y71332143D01*
X44638428Y71403572D01*
X44602714Y71510715D01*
X44174142Y71939286D01*
X44638428Y71939286D01*
X44959857Y71867858D02*
X44995571Y71903572D01*
X44959857Y71939286D01*
X44924142Y71903572D01*
X44959857Y71867858D01*
X44959857Y71939286D01*
X45459857Y71189286D02*
X45531285Y71189286D01*
X45602714Y71225000D01*
X45638428Y71260715D01*
X45674142Y71332143D01*
X45709857Y71475000D01*
X45709857Y71653572D01*
X45674142Y71796429D01*
X45638428Y71867858D01*
X45602714Y71903572D01*
X45531285Y71939286D01*
X45459857Y71939286D01*
X45388428Y71903572D01*
X45352714Y71867858D01*
X45317000Y71796429D01*
X45281285Y71653572D01*
X45281285Y71475000D01*
X45317000Y71332143D01*
X45352714Y71260715D01*
X45388428Y71225000D01*
X45459857Y71189286D01*
X46424142Y71939286D02*
X45995571Y71939286D01*
X46209857Y71939286D02*
X46209857Y71189286D01*
X46138428Y71296429D01*
X46067000Y71367858D01*
X45995571Y71403572D01*
X38039285Y10339286D02*
X38039285Y9589286D01*
X38289285Y10125000D01*
X38539285Y9589286D01*
X38539285Y10339286D01*
X39039285Y9589286D02*
X39182142Y9589286D01*
X39253571Y9625000D01*
X39325000Y9696429D01*
X39360714Y9839286D01*
X39360714Y10089286D01*
X39325000Y10232143D01*
X39253571Y10303572D01*
X39182142Y10339286D01*
X39039285Y10339286D01*
X38967857Y10303572D01*
X38896428Y10232143D01*
X38860714Y10089286D01*
X38860714Y9839286D01*
X38896428Y9696429D01*
X38967857Y9625000D01*
X39039285Y9589286D01*
X39575000Y9589286D02*
X40003571Y9589286D01*
X39789285Y10339286D02*
X39789285Y9589286D01*
X40396428Y9589286D02*
X40539285Y9589286D01*
X40610714Y9625000D01*
X40682142Y9696429D01*
X40717857Y9839286D01*
X40717857Y10089286D01*
X40682142Y10232143D01*
X40610714Y10303572D01*
X40539285Y10339286D01*
X40396428Y10339286D01*
X40325000Y10303572D01*
X40253571Y10232143D01*
X40217857Y10089286D01*
X40217857Y9839286D01*
X40253571Y9696429D01*
X40325000Y9625000D01*
X40396428Y9589286D01*
X41467857Y10339286D02*
X41217857Y9982143D01*
X41039285Y10339286D02*
X41039285Y9589286D01*
X41325000Y9589286D01*
X41396428Y9625000D01*
X41432142Y9660715D01*
X41467857Y9732143D01*
X41467857Y9839286D01*
X41432142Y9910715D01*
X41396428Y9946429D01*
X41325000Y9982143D01*
X41039285Y9982143D01*
X41789285Y10053572D02*
X42360714Y10053572D01*
X42075000Y10339286D02*
X42075000Y9767858D01*
X38039285Y26339286D02*
X38039285Y25589286D01*
X38289285Y26125000D01*
X38539285Y25589286D01*
X38539285Y26339286D01*
X39039285Y25589286D02*
X39182142Y25589286D01*
X39253571Y25625000D01*
X39325000Y25696429D01*
X39360714Y25839286D01*
X39360714Y26089286D01*
X39325000Y26232143D01*
X39253571Y26303572D01*
X39182142Y26339286D01*
X39039285Y26339286D01*
X38967857Y26303572D01*
X38896428Y26232143D01*
X38860714Y26089286D01*
X38860714Y25839286D01*
X38896428Y25696429D01*
X38967857Y25625000D01*
X39039285Y25589286D01*
X39575000Y25589286D02*
X40003571Y25589286D01*
X39789285Y26339286D02*
X39789285Y25589286D01*
X40396428Y25589286D02*
X40539285Y25589286D01*
X40610714Y25625000D01*
X40682142Y25696429D01*
X40717857Y25839286D01*
X40717857Y26089286D01*
X40682142Y26232143D01*
X40610714Y26303572D01*
X40539285Y26339286D01*
X40396428Y26339286D01*
X40325000Y26303572D01*
X40253571Y26232143D01*
X40217857Y26089286D01*
X40217857Y25839286D01*
X40253571Y25696429D01*
X40325000Y25625000D01*
X40396428Y25589286D01*
X41467857Y26339286D02*
X41217857Y25982143D01*
X41039285Y26339286D02*
X41039285Y25589286D01*
X41325000Y25589286D01*
X41396428Y25625000D01*
X41432142Y25660715D01*
X41467857Y25732143D01*
X41467857Y25839286D01*
X41432142Y25910715D01*
X41396428Y25946429D01*
X41325000Y25982143D01*
X41039285Y25982143D01*
X41789285Y26053572D02*
X42360714Y26053572D01*
X42075000Y26339286D02*
X42075000Y25767858D01*
X38039285Y42339286D02*
X38039285Y41589286D01*
X38289285Y42125000D01*
X38539285Y41589286D01*
X38539285Y42339286D01*
X39039285Y41589286D02*
X39182142Y41589286D01*
X39253571Y41625000D01*
X39325000Y41696429D01*
X39360714Y41839286D01*
X39360714Y42089286D01*
X39325000Y42232143D01*
X39253571Y42303572D01*
X39182142Y42339286D01*
X39039285Y42339286D01*
X38967857Y42303572D01*
X38896428Y42232143D01*
X38860714Y42089286D01*
X38860714Y41839286D01*
X38896428Y41696429D01*
X38967857Y41625000D01*
X39039285Y41589286D01*
X39575000Y41589286D02*
X40003571Y41589286D01*
X39789285Y42339286D02*
X39789285Y41589286D01*
X40396428Y41589286D02*
X40539285Y41589286D01*
X40610714Y41625000D01*
X40682142Y41696429D01*
X40717857Y41839286D01*
X40717857Y42089286D01*
X40682142Y42232143D01*
X40610714Y42303572D01*
X40539285Y42339286D01*
X40396428Y42339286D01*
X40325000Y42303572D01*
X40253571Y42232143D01*
X40217857Y42089286D01*
X40217857Y41839286D01*
X40253571Y41696429D01*
X40325000Y41625000D01*
X40396428Y41589286D01*
X41467857Y42339286D02*
X41217857Y41982143D01*
X41039285Y42339286D02*
X41039285Y41589286D01*
X41325000Y41589286D01*
X41396428Y41625000D01*
X41432142Y41660715D01*
X41467857Y41732143D01*
X41467857Y41839286D01*
X41432142Y41910715D01*
X41396428Y41946429D01*
X41325000Y41982143D01*
X41039285Y41982143D01*
X41789285Y42053572D02*
X42360714Y42053572D01*
X42075000Y42339286D02*
X42075000Y41767858D01*
X38039285Y58339286D02*
X38039285Y57589286D01*
X38289285Y58125000D01*
X38539285Y57589286D01*
X38539285Y58339286D01*
X39039285Y57589286D02*
X39182142Y57589286D01*
X39253571Y57625000D01*
X39325000Y57696429D01*
X39360714Y57839286D01*
X39360714Y58089286D01*
X39325000Y58232143D01*
X39253571Y58303572D01*
X39182142Y58339286D01*
X39039285Y58339286D01*
X38967857Y58303572D01*
X38896428Y58232143D01*
X38860714Y58089286D01*
X38860714Y57839286D01*
X38896428Y57696429D01*
X38967857Y57625000D01*
X39039285Y57589286D01*
X39575000Y57589286D02*
X40003571Y57589286D01*
X39789285Y58339286D02*
X39789285Y57589286D01*
X40396428Y57589286D02*
X40539285Y57589286D01*
X40610714Y57625000D01*
X40682142Y57696429D01*
X40717857Y57839286D01*
X40717857Y58089286D01*
X40682142Y58232143D01*
X40610714Y58303572D01*
X40539285Y58339286D01*
X40396428Y58339286D01*
X40325000Y58303572D01*
X40253571Y58232143D01*
X40217857Y58089286D01*
X40217857Y57839286D01*
X40253571Y57696429D01*
X40325000Y57625000D01*
X40396428Y57589286D01*
X41467857Y58339286D02*
X41217857Y57982143D01*
X41039285Y58339286D02*
X41039285Y57589286D01*
X41325000Y57589286D01*
X41396428Y57625000D01*
X41432142Y57660715D01*
X41467857Y57732143D01*
X41467857Y57839286D01*
X41432142Y57910715D01*
X41396428Y57946429D01*
X41325000Y57982143D01*
X41039285Y57982143D01*
X41789285Y58053572D02*
X42360714Y58053572D01*
X42075000Y58339286D02*
X42075000Y57767858D01*
X38039285Y74339286D02*
X38039285Y73589286D01*
X38289285Y74125000D01*
X38539285Y73589286D01*
X38539285Y74339286D01*
X39039285Y73589286D02*
X39182142Y73589286D01*
X39253571Y73625000D01*
X39325000Y73696429D01*
X39360714Y73839286D01*
X39360714Y74089286D01*
X39325000Y74232143D01*
X39253571Y74303572D01*
X39182142Y74339286D01*
X39039285Y74339286D01*
X38967857Y74303572D01*
X38896428Y74232143D01*
X38860714Y74089286D01*
X38860714Y73839286D01*
X38896428Y73696429D01*
X38967857Y73625000D01*
X39039285Y73589286D01*
X39575000Y73589286D02*
X40003571Y73589286D01*
X39789285Y74339286D02*
X39789285Y73589286D01*
X40396428Y73589286D02*
X40539285Y73589286D01*
X40610714Y73625000D01*
X40682142Y73696429D01*
X40717857Y73839286D01*
X40717857Y74089286D01*
X40682142Y74232143D01*
X40610714Y74303572D01*
X40539285Y74339286D01*
X40396428Y74339286D01*
X40325000Y74303572D01*
X40253571Y74232143D01*
X40217857Y74089286D01*
X40217857Y73839286D01*
X40253571Y73696429D01*
X40325000Y73625000D01*
X40396428Y73589286D01*
X41467857Y74339286D02*
X41217857Y73982143D01*
X41039285Y74339286D02*
X41039285Y73589286D01*
X41325000Y73589286D01*
X41396428Y73625000D01*
X41432142Y73660715D01*
X41467857Y73732143D01*
X41467857Y73839286D01*
X41432142Y73910715D01*
X41396428Y73946429D01*
X41325000Y73982143D01*
X41039285Y73982143D01*
X41789285Y74053572D02*
X42360714Y74053572D01*
X42075000Y74339286D02*
X42075000Y73767858D01*
X72435714Y4639286D02*
X72007142Y4639286D01*
X72221428Y4639286D02*
X72221428Y3889286D01*
X72150000Y3996429D01*
X72078571Y4067858D01*
X72007142Y4103572D01*
X72721428Y3960715D02*
X72757142Y3925000D01*
X72828571Y3889286D01*
X73007142Y3889286D01*
X73078571Y3925000D01*
X73114285Y3960715D01*
X73150000Y4032143D01*
X73150000Y4103572D01*
X73114285Y4210715D01*
X72685714Y4639286D01*
X73150000Y4639286D01*
X73364285Y3889286D02*
X73614285Y4639286D01*
X73864285Y3889286D01*
X72435714Y20639286D02*
X72007142Y20639286D01*
X72221428Y20639286D02*
X72221428Y19889286D01*
X72150000Y19996429D01*
X72078571Y20067858D01*
X72007142Y20103572D01*
X72721428Y19960715D02*
X72757142Y19925000D01*
X72828571Y19889286D01*
X73007142Y19889286D01*
X73078571Y19925000D01*
X73114285Y19960715D01*
X73150000Y20032143D01*
X73150000Y20103572D01*
X73114285Y20210715D01*
X72685714Y20639286D01*
X73150000Y20639286D01*
X73364285Y19889286D02*
X73614285Y20639286D01*
X73864285Y19889286D01*
X72435714Y36639286D02*
X72007142Y36639286D01*
X72221428Y36639286D02*
X72221428Y35889286D01*
X72150000Y35996429D01*
X72078571Y36067858D01*
X72007142Y36103572D01*
X72721428Y35960715D02*
X72757142Y35925000D01*
X72828571Y35889286D01*
X73007142Y35889286D01*
X73078571Y35925000D01*
X73114285Y35960715D01*
X73150000Y36032143D01*
X73150000Y36103572D01*
X73114285Y36210715D01*
X72685714Y36639286D01*
X73150000Y36639286D01*
X73364285Y35889286D02*
X73614285Y36639286D01*
X73864285Y35889286D01*
X72435714Y52639286D02*
X72007142Y52639286D01*
X72221428Y52639286D02*
X72221428Y51889286D01*
X72150000Y51996429D01*
X72078571Y52067858D01*
X72007142Y52103572D01*
X72721428Y51960715D02*
X72757142Y51925000D01*
X72828571Y51889286D01*
X73007142Y51889286D01*
X73078571Y51925000D01*
X73114285Y51960715D01*
X73150000Y52032143D01*
X73150000Y52103572D01*
X73114285Y52210715D01*
X72685714Y52639286D01*
X73150000Y52639286D01*
X73364285Y51889286D02*
X73614285Y52639286D01*
X73864285Y51889286D01*
X72435714Y68639286D02*
X72007142Y68639286D01*
X72221428Y68639286D02*
X72221428Y67889286D01*
X72150000Y67996429D01*
X72078571Y68067858D01*
X72007142Y68103572D01*
X72721428Y67960715D02*
X72757142Y67925000D01*
X72828571Y67889286D01*
X73007142Y67889286D01*
X73078571Y67925000D01*
X73114285Y67960715D01*
X73150000Y68032143D01*
X73150000Y68103572D01*
X73114285Y68210715D01*
X72685714Y68639286D01*
X73150000Y68639286D01*
X73364285Y67889286D02*
X73614285Y68639286D01*
X73864285Y67889286D01*
X9635714Y10039286D02*
X9207142Y10039286D01*
X9421428Y10039286D02*
X9421428Y9289286D01*
X9350000Y9396429D01*
X9278571Y9467858D01*
X9207142Y9503572D01*
X9921428Y9360715D02*
X9957142Y9325000D01*
X10028571Y9289286D01*
X10207142Y9289286D01*
X10278571Y9325000D01*
X10314285Y9360715D01*
X10350000Y9432143D01*
X10350000Y9503572D01*
X10314285Y9610715D01*
X9885714Y10039286D01*
X10350000Y10039286D01*
X10564285Y9289286D02*
X10814285Y10039286D01*
X11064285Y9289286D01*
X9635714Y26039286D02*
X9207142Y26039286D01*
X9421428Y26039286D02*
X9421428Y25289286D01*
X9350000Y25396429D01*
X9278571Y25467858D01*
X9207142Y25503572D01*
X9921428Y25360715D02*
X9957142Y25325000D01*
X10028571Y25289286D01*
X10207142Y25289286D01*
X10278571Y25325000D01*
X10314285Y25360715D01*
X10350000Y25432143D01*
X10350000Y25503572D01*
X10314285Y25610715D01*
X9885714Y26039286D01*
X10350000Y26039286D01*
X10564285Y25289286D02*
X10814285Y26039286D01*
X11064285Y25289286D01*
X9635714Y42039286D02*
X9207142Y42039286D01*
X9421428Y42039286D02*
X9421428Y41289286D01*
X9350000Y41396429D01*
X9278571Y41467858D01*
X9207142Y41503572D01*
X9921428Y41360715D02*
X9957142Y41325000D01*
X10028571Y41289286D01*
X10207142Y41289286D01*
X10278571Y41325000D01*
X10314285Y41360715D01*
X10350000Y41432143D01*
X10350000Y41503572D01*
X10314285Y41610715D01*
X9885714Y42039286D01*
X10350000Y42039286D01*
X10564285Y41289286D02*
X10814285Y42039286D01*
X11064285Y41289286D01*
X9635714Y58039286D02*
X9207142Y58039286D01*
X9421428Y58039286D02*
X9421428Y57289286D01*
X9350000Y57396429D01*
X9278571Y57467858D01*
X9207142Y57503572D01*
X9921428Y57360715D02*
X9957142Y57325000D01*
X10028571Y57289286D01*
X10207142Y57289286D01*
X10278571Y57325000D01*
X10314285Y57360715D01*
X10350000Y57432143D01*
X10350000Y57503572D01*
X10314285Y57610715D01*
X9885714Y58039286D01*
X10350000Y58039286D01*
X10564285Y57289286D02*
X10814285Y58039286D01*
X11064285Y57289286D01*
X9635714Y74039286D02*
X9207142Y74039286D01*
X9421428Y74039286D02*
X9421428Y73289286D01*
X9350000Y73396429D01*
X9278571Y73467858D01*
X9207142Y73503572D01*
X9921428Y73360715D02*
X9957142Y73325000D01*
X10028571Y73289286D01*
X10207142Y73289286D01*
X10278571Y73325000D01*
X10314285Y73360715D01*
X10350000Y73432143D01*
X10350000Y73503572D01*
X10314285Y73610715D01*
X9885714Y74039286D01*
X10350000Y74039286D01*
X10564285Y73289286D02*
X10814285Y74039286D01*
X11064285Y73289286D01*
X13346428Y10039286D02*
X13346428Y9289286D01*
X13632142Y9289286D01*
X13703571Y9325000D01*
X13739285Y9360715D01*
X13775000Y9432143D01*
X13775000Y9539286D01*
X13739285Y9610715D01*
X13703571Y9646429D01*
X13632142Y9682143D01*
X13346428Y9682143D01*
X14060714Y9360715D02*
X14096428Y9325000D01*
X14167857Y9289286D01*
X14346428Y9289286D01*
X14417857Y9325000D01*
X14453571Y9360715D01*
X14489285Y9432143D01*
X14489285Y9503572D01*
X14453571Y9610715D01*
X14025000Y10039286D01*
X14489285Y10039286D01*
X13346428Y26039286D02*
X13346428Y25289286D01*
X13632142Y25289286D01*
X13703571Y25325000D01*
X13739285Y25360715D01*
X13775000Y25432143D01*
X13775000Y25539286D01*
X13739285Y25610715D01*
X13703571Y25646429D01*
X13632142Y25682143D01*
X13346428Y25682143D01*
X14060714Y25360715D02*
X14096428Y25325000D01*
X14167857Y25289286D01*
X14346428Y25289286D01*
X14417857Y25325000D01*
X14453571Y25360715D01*
X14489285Y25432143D01*
X14489285Y25503572D01*
X14453571Y25610715D01*
X14025000Y26039286D01*
X14489285Y26039286D01*
X13346428Y42039286D02*
X13346428Y41289286D01*
X13632142Y41289286D01*
X13703571Y41325000D01*
X13739285Y41360715D01*
X13775000Y41432143D01*
X13775000Y41539286D01*
X13739285Y41610715D01*
X13703571Y41646429D01*
X13632142Y41682143D01*
X13346428Y41682143D01*
X14060714Y41360715D02*
X14096428Y41325000D01*
X14167857Y41289286D01*
X14346428Y41289286D01*
X14417857Y41325000D01*
X14453571Y41360715D01*
X14489285Y41432143D01*
X14489285Y41503572D01*
X14453571Y41610715D01*
X14025000Y42039286D01*
X14489285Y42039286D01*
X13346428Y58039286D02*
X13346428Y57289286D01*
X13632142Y57289286D01*
X13703571Y57325000D01*
X13739285Y57360715D01*
X13775000Y57432143D01*
X13775000Y57539286D01*
X13739285Y57610715D01*
X13703571Y57646429D01*
X13632142Y57682143D01*
X13346428Y57682143D01*
X14060714Y57360715D02*
X14096428Y57325000D01*
X14167857Y57289286D01*
X14346428Y57289286D01*
X14417857Y57325000D01*
X14453571Y57360715D01*
X14489285Y57432143D01*
X14489285Y57503572D01*
X14453571Y57610715D01*
X14025000Y58039286D01*
X14489285Y58039286D01*
X13346428Y74039286D02*
X13346428Y73289286D01*
X13632142Y73289286D01*
X13703571Y73325000D01*
X13739285Y73360715D01*
X13775000Y73432143D01*
X13775000Y73539286D01*
X13739285Y73610715D01*
X13703571Y73646429D01*
X13632142Y73682143D01*
X13346428Y73682143D01*
X14060714Y73360715D02*
X14096428Y73325000D01*
X14167857Y73289286D01*
X14346428Y73289286D01*
X14417857Y73325000D01*
X14453571Y73360715D01*
X14489285Y73432143D01*
X14489285Y73503572D01*
X14453571Y73610715D01*
X14025000Y74039286D01*
X14489285Y74039286D01*
X38039285Y4839286D02*
X38039285Y4089286D01*
X38289285Y4625000D01*
X38539285Y4089286D01*
X38539285Y4839286D01*
X39039285Y4089286D02*
X39182142Y4089286D01*
X39253571Y4125000D01*
X39325000Y4196429D01*
X39360714Y4339286D01*
X39360714Y4589286D01*
X39325000Y4732143D01*
X39253571Y4803572D01*
X39182142Y4839286D01*
X39039285Y4839286D01*
X38967857Y4803572D01*
X38896428Y4732143D01*
X38860714Y4589286D01*
X38860714Y4339286D01*
X38896428Y4196429D01*
X38967857Y4125000D01*
X39039285Y4089286D01*
X39575000Y4089286D02*
X40003571Y4089286D01*
X39789285Y4839286D02*
X39789285Y4089286D01*
X40396428Y4089286D02*
X40539285Y4089286D01*
X40610714Y4125000D01*
X40682142Y4196429D01*
X40717857Y4339286D01*
X40717857Y4589286D01*
X40682142Y4732143D01*
X40610714Y4803572D01*
X40539285Y4839286D01*
X40396428Y4839286D01*
X40325000Y4803572D01*
X40253571Y4732143D01*
X40217857Y4589286D01*
X40217857Y4339286D01*
X40253571Y4196429D01*
X40325000Y4125000D01*
X40396428Y4089286D01*
X41467857Y4839286D02*
X41217857Y4482143D01*
X41039285Y4839286D02*
X41039285Y4089286D01*
X41325000Y4089286D01*
X41396428Y4125000D01*
X41432142Y4160715D01*
X41467857Y4232143D01*
X41467857Y4339286D01*
X41432142Y4410715D01*
X41396428Y4446429D01*
X41325000Y4482143D01*
X41039285Y4482143D01*
X41789285Y4553572D02*
X42360714Y4553572D01*
X38039285Y20839286D02*
X38039285Y20089286D01*
X38289285Y20625000D01*
X38539285Y20089286D01*
X38539285Y20839286D01*
X39039285Y20089286D02*
X39182142Y20089286D01*
X39253571Y20125000D01*
X39325000Y20196429D01*
X39360714Y20339286D01*
X39360714Y20589286D01*
X39325000Y20732143D01*
X39253571Y20803572D01*
X39182142Y20839286D01*
X39039285Y20839286D01*
X38967857Y20803572D01*
X38896428Y20732143D01*
X38860714Y20589286D01*
X38860714Y20339286D01*
X38896428Y20196429D01*
X38967857Y20125000D01*
X39039285Y20089286D01*
X39575000Y20089286D02*
X40003571Y20089286D01*
X39789285Y20839286D02*
X39789285Y20089286D01*
X40396428Y20089286D02*
X40539285Y20089286D01*
X40610714Y20125000D01*
X40682142Y20196429D01*
X40717857Y20339286D01*
X40717857Y20589286D01*
X40682142Y20732143D01*
X40610714Y20803572D01*
X40539285Y20839286D01*
X40396428Y20839286D01*
X40325000Y20803572D01*
X40253571Y20732143D01*
X40217857Y20589286D01*
X40217857Y20339286D01*
X40253571Y20196429D01*
X40325000Y20125000D01*
X40396428Y20089286D01*
X41467857Y20839286D02*
X41217857Y20482143D01*
X41039285Y20839286D02*
X41039285Y20089286D01*
X41325000Y20089286D01*
X41396428Y20125000D01*
X41432142Y20160715D01*
X41467857Y20232143D01*
X41467857Y20339286D01*
X41432142Y20410715D01*
X41396428Y20446429D01*
X41325000Y20482143D01*
X41039285Y20482143D01*
X41789285Y20553572D02*
X42360714Y20553572D01*
X38039285Y36839286D02*
X38039285Y36089286D01*
X38289285Y36625000D01*
X38539285Y36089286D01*
X38539285Y36839286D01*
X39039285Y36089286D02*
X39182142Y36089286D01*
X39253571Y36125000D01*
X39325000Y36196429D01*
X39360714Y36339286D01*
X39360714Y36589286D01*
X39325000Y36732143D01*
X39253571Y36803572D01*
X39182142Y36839286D01*
X39039285Y36839286D01*
X38967857Y36803572D01*
X38896428Y36732143D01*
X38860714Y36589286D01*
X38860714Y36339286D01*
X38896428Y36196429D01*
X38967857Y36125000D01*
X39039285Y36089286D01*
X39575000Y36089286D02*
X40003571Y36089286D01*
X39789285Y36839286D02*
X39789285Y36089286D01*
X40396428Y36089286D02*
X40539285Y36089286D01*
X40610714Y36125000D01*
X40682142Y36196429D01*
X40717857Y36339286D01*
X40717857Y36589286D01*
X40682142Y36732143D01*
X40610714Y36803572D01*
X40539285Y36839286D01*
X40396428Y36839286D01*
X40325000Y36803572D01*
X40253571Y36732143D01*
X40217857Y36589286D01*
X40217857Y36339286D01*
X40253571Y36196429D01*
X40325000Y36125000D01*
X40396428Y36089286D01*
X41467857Y36839286D02*
X41217857Y36482143D01*
X41039285Y36839286D02*
X41039285Y36089286D01*
X41325000Y36089286D01*
X41396428Y36125000D01*
X41432142Y36160715D01*
X41467857Y36232143D01*
X41467857Y36339286D01*
X41432142Y36410715D01*
X41396428Y36446429D01*
X41325000Y36482143D01*
X41039285Y36482143D01*
X41789285Y36553572D02*
X42360714Y36553572D01*
X38039285Y52839286D02*
X38039285Y52089286D01*
X38289285Y52625000D01*
X38539285Y52089286D01*
X38539285Y52839286D01*
X39039285Y52089286D02*
X39182142Y52089286D01*
X39253571Y52125000D01*
X39325000Y52196429D01*
X39360714Y52339286D01*
X39360714Y52589286D01*
X39325000Y52732143D01*
X39253571Y52803572D01*
X39182142Y52839286D01*
X39039285Y52839286D01*
X38967857Y52803572D01*
X38896428Y52732143D01*
X38860714Y52589286D01*
X38860714Y52339286D01*
X38896428Y52196429D01*
X38967857Y52125000D01*
X39039285Y52089286D01*
X39575000Y52089286D02*
X40003571Y52089286D01*
X39789285Y52839286D02*
X39789285Y52089286D01*
X40396428Y52089286D02*
X40539285Y52089286D01*
X40610714Y52125000D01*
X40682142Y52196429D01*
X40717857Y52339286D01*
X40717857Y52589286D01*
X40682142Y52732143D01*
X40610714Y52803572D01*
X40539285Y52839286D01*
X40396428Y52839286D01*
X40325000Y52803572D01*
X40253571Y52732143D01*
X40217857Y52589286D01*
X40217857Y52339286D01*
X40253571Y52196429D01*
X40325000Y52125000D01*
X40396428Y52089286D01*
X41467857Y52839286D02*
X41217857Y52482143D01*
X41039285Y52839286D02*
X41039285Y52089286D01*
X41325000Y52089286D01*
X41396428Y52125000D01*
X41432142Y52160715D01*
X41467857Y52232143D01*
X41467857Y52339286D01*
X41432142Y52410715D01*
X41396428Y52446429D01*
X41325000Y52482143D01*
X41039285Y52482143D01*
X41789285Y52553572D02*
X42360714Y52553572D01*
X38039285Y68839286D02*
X38039285Y68089286D01*
X38289285Y68625000D01*
X38539285Y68089286D01*
X38539285Y68839286D01*
X39039285Y68089286D02*
X39182142Y68089286D01*
X39253571Y68125000D01*
X39325000Y68196429D01*
X39360714Y68339286D01*
X39360714Y68589286D01*
X39325000Y68732143D01*
X39253571Y68803572D01*
X39182142Y68839286D01*
X39039285Y68839286D01*
X38967857Y68803572D01*
X38896428Y68732143D01*
X38860714Y68589286D01*
X38860714Y68339286D01*
X38896428Y68196429D01*
X38967857Y68125000D01*
X39039285Y68089286D01*
X39575000Y68089286D02*
X40003571Y68089286D01*
X39789285Y68839286D02*
X39789285Y68089286D01*
X40396428Y68089286D02*
X40539285Y68089286D01*
X40610714Y68125000D01*
X40682142Y68196429D01*
X40717857Y68339286D01*
X40717857Y68589286D01*
X40682142Y68732143D01*
X40610714Y68803572D01*
X40539285Y68839286D01*
X40396428Y68839286D01*
X40325000Y68803572D01*
X40253571Y68732143D01*
X40217857Y68589286D01*
X40217857Y68339286D01*
X40253571Y68196429D01*
X40325000Y68125000D01*
X40396428Y68089286D01*
X41467857Y68839286D02*
X41217857Y68482143D01*
X41039285Y68839286D02*
X41039285Y68089286D01*
X41325000Y68089286D01*
X41396428Y68125000D01*
X41432142Y68160715D01*
X41467857Y68232143D01*
X41467857Y68339286D01*
X41432142Y68410715D01*
X41396428Y68446429D01*
X41325000Y68482143D01*
X41039285Y68482143D01*
X41789285Y68553572D02*
X42360714Y68553572D01*
D11*
X13592857Y6807143D02*
X12907142Y7064286D01*
X13592857Y7321429D01*
X14021428Y7064286D02*
X14707142Y7064286D01*
X16121428Y6935715D02*
X15821428Y6935715D01*
X15821428Y7407143D02*
X15821428Y6507143D01*
X16250000Y6507143D01*
X16507142Y6507143D02*
X16721428Y7407143D01*
X16892857Y6764286D01*
X17064285Y7407143D01*
X17278571Y6507143D01*
X17621428Y7407143D02*
X17621428Y6507143D01*
X17835714Y6507143D01*
X17964285Y6550000D01*
X18050000Y6635715D01*
X18092857Y6721429D01*
X18135714Y6892858D01*
X18135714Y7021429D01*
X18092857Y7192858D01*
X18050000Y7278572D01*
X17964285Y7364286D01*
X17835714Y7407143D01*
X17621428Y7407143D01*
X13592857Y22807143D02*
X12907142Y23064286D01*
X13592857Y23321429D01*
X14021428Y23064286D02*
X14707142Y23064286D01*
X16121428Y22935715D02*
X15821428Y22935715D01*
X15821428Y23407143D02*
X15821428Y22507143D01*
X16250000Y22507143D01*
X16507142Y22507143D02*
X16721428Y23407143D01*
X16892857Y22764286D01*
X17064285Y23407143D01*
X17278571Y22507143D01*
X17621428Y23407143D02*
X17621428Y22507143D01*
X17835714Y22507143D01*
X17964285Y22550000D01*
X18050000Y22635715D01*
X18092857Y22721429D01*
X18135714Y22892858D01*
X18135714Y23021429D01*
X18092857Y23192858D01*
X18050000Y23278572D01*
X17964285Y23364286D01*
X17835714Y23407143D01*
X17621428Y23407143D01*
X13592857Y38807143D02*
X12907142Y39064286D01*
X13592857Y39321429D01*
X14021428Y39064286D02*
X14707142Y39064286D01*
X16121428Y38935715D02*
X15821428Y38935715D01*
X15821428Y39407143D02*
X15821428Y38507143D01*
X16250000Y38507143D01*
X16507142Y38507143D02*
X16721428Y39407143D01*
X16892857Y38764286D01*
X17064285Y39407143D01*
X17278571Y38507143D01*
X17621428Y39407143D02*
X17621428Y38507143D01*
X17835714Y38507143D01*
X17964285Y38550000D01*
X18050000Y38635715D01*
X18092857Y38721429D01*
X18135714Y38892858D01*
X18135714Y39021429D01*
X18092857Y39192858D01*
X18050000Y39278572D01*
X17964285Y39364286D01*
X17835714Y39407143D01*
X17621428Y39407143D01*
X13592857Y54807143D02*
X12907142Y55064286D01*
X13592857Y55321429D01*
X14021428Y55064286D02*
X14707142Y55064286D01*
X16121428Y54935715D02*
X15821428Y54935715D01*
X15821428Y55407143D02*
X15821428Y54507143D01*
X16250000Y54507143D01*
X16507142Y54507143D02*
X16721428Y55407143D01*
X16892857Y54764286D01*
X17064285Y55407143D01*
X17278571Y54507143D01*
X17621428Y55407143D02*
X17621428Y54507143D01*
X17835714Y54507143D01*
X17964285Y54550000D01*
X18050000Y54635715D01*
X18092857Y54721429D01*
X18135714Y54892858D01*
X18135714Y55021429D01*
X18092857Y55192858D01*
X18050000Y55278572D01*
X17964285Y55364286D01*
X17835714Y55407143D01*
X17621428Y55407143D01*
X13592857Y70807143D02*
X12907142Y71064286D01*
X13592857Y71321429D01*
X14021428Y71064286D02*
X14707142Y71064286D01*
X16121428Y70935715D02*
X15821428Y70935715D01*
X15821428Y71407143D02*
X15821428Y70507143D01*
X16250000Y70507143D01*
X16507142Y70507143D02*
X16721428Y71407143D01*
X16892857Y70764286D01*
X17064285Y71407143D01*
X17278571Y70507143D01*
X17621428Y71407143D02*
X17621428Y70507143D01*
X17835714Y70507143D01*
X17964285Y70550000D01*
X18050000Y70635715D01*
X18092857Y70721429D01*
X18135714Y70892858D01*
X18135714Y71021429D01*
X18092857Y71192858D01*
X18050000Y71278572D01*
X17964285Y71364286D01*
X17835714Y71407143D01*
X17621428Y71407143D01*
X64728571Y7307143D02*
X64428571Y6878572D01*
X64214285Y7307143D02*
X64214285Y6407143D01*
X64557142Y6407143D01*
X64642857Y6450000D01*
X64685714Y6492858D01*
X64728571Y6578572D01*
X64728571Y6707143D01*
X64685714Y6792858D01*
X64642857Y6835715D01*
X64557142Y6878572D01*
X64214285Y6878572D01*
X65114285Y6835715D02*
X65414285Y6835715D01*
X65542857Y7307143D02*
X65114285Y7307143D01*
X65114285Y6407143D01*
X65542857Y6407143D01*
X65800000Y6407143D02*
X66100000Y7307143D01*
X66400000Y6407143D01*
X67385714Y6964286D02*
X68071428Y6964286D01*
X68500000Y6707143D02*
X69185714Y6964286D01*
X68500000Y7221429D01*
X64728571Y23307143D02*
X64428571Y22878572D01*
X64214285Y23307143D02*
X64214285Y22407143D01*
X64557142Y22407143D01*
X64642857Y22450000D01*
X64685714Y22492858D01*
X64728571Y22578572D01*
X64728571Y22707143D01*
X64685714Y22792858D01*
X64642857Y22835715D01*
X64557142Y22878572D01*
X64214285Y22878572D01*
X65114285Y22835715D02*
X65414285Y22835715D01*
X65542857Y23307143D02*
X65114285Y23307143D01*
X65114285Y22407143D01*
X65542857Y22407143D01*
X65800000Y22407143D02*
X66100000Y23307143D01*
X66400000Y22407143D01*
X67385714Y22964286D02*
X68071428Y22964286D01*
X68500000Y22707143D02*
X69185714Y22964286D01*
X68500000Y23221429D01*
X64728571Y39307143D02*
X64428571Y38878572D01*
X64214285Y39307143D02*
X64214285Y38407143D01*
X64557142Y38407143D01*
X64642857Y38450000D01*
X64685714Y38492858D01*
X64728571Y38578572D01*
X64728571Y38707143D01*
X64685714Y38792858D01*
X64642857Y38835715D01*
X64557142Y38878572D01*
X64214285Y38878572D01*
X65114285Y38835715D02*
X65414285Y38835715D01*
X65542857Y39307143D02*
X65114285Y39307143D01*
X65114285Y38407143D01*
X65542857Y38407143D01*
X65800000Y38407143D02*
X66100000Y39307143D01*
X66400000Y38407143D01*
X67385714Y38964286D02*
X68071428Y38964286D01*
X68500000Y38707143D02*
X69185714Y38964286D01*
X68500000Y39221429D01*
X64728571Y55307143D02*
X64428571Y54878572D01*
X64214285Y55307143D02*
X64214285Y54407143D01*
X64557142Y54407143D01*
X64642857Y54450000D01*
X64685714Y54492858D01*
X64728571Y54578572D01*
X64728571Y54707143D01*
X64685714Y54792858D01*
X64642857Y54835715D01*
X64557142Y54878572D01*
X64214285Y54878572D01*
X65114285Y54835715D02*
X65414285Y54835715D01*
X65542857Y55307143D02*
X65114285Y55307143D01*
X65114285Y54407143D01*
X65542857Y54407143D01*
X65800000Y54407143D02*
X66100000Y55307143D01*
X66400000Y54407143D01*
X67385714Y54964286D02*
X68071428Y54964286D01*
X68500000Y54707143D02*
X69185714Y54964286D01*
X68500000Y55221429D01*
X64728571Y71307143D02*
X64428571Y70878572D01*
X64214285Y71307143D02*
X64214285Y70407143D01*
X64557142Y70407143D01*
X64642857Y70450000D01*
X64685714Y70492858D01*
X64728571Y70578572D01*
X64728571Y70707143D01*
X64685714Y70792858D01*
X64642857Y70835715D01*
X64557142Y70878572D01*
X64214285Y70878572D01*
X65114285Y70835715D02*
X65414285Y70835715D01*
X65542857Y71307143D02*
X65114285Y71307143D01*
X65114285Y70407143D01*
X65542857Y70407143D01*
X65800000Y70407143D02*
X66100000Y71307143D01*
X66400000Y70407143D01*
X67385714Y70964286D02*
X68071428Y70964286D01*
X68500000Y70707143D02*
X69185714Y70964286D01*
X68500000Y71221429D01*
D10*
X7746428Y4639286D02*
X7746428Y3889286D01*
X8032142Y3889286D01*
X8103571Y3925000D01*
X8139285Y3960715D01*
X8175000Y4032143D01*
X8175000Y4139286D01*
X8139285Y4210715D01*
X8103571Y4246429D01*
X8032142Y4282143D01*
X7746428Y4282143D01*
X8889285Y4639286D02*
X8460714Y4639286D01*
X8675000Y4639286D02*
X8675000Y3889286D01*
X8603571Y3996429D01*
X8532142Y4067858D01*
X8460714Y4103572D01*
X7746428Y20639286D02*
X7746428Y19889286D01*
X8032142Y19889286D01*
X8103571Y19925000D01*
X8139285Y19960715D01*
X8175000Y20032143D01*
X8175000Y20139286D01*
X8139285Y20210715D01*
X8103571Y20246429D01*
X8032142Y20282143D01*
X7746428Y20282143D01*
X8889285Y20639286D02*
X8460714Y20639286D01*
X8675000Y20639286D02*
X8675000Y19889286D01*
X8603571Y19996429D01*
X8532142Y20067858D01*
X8460714Y20103572D01*
X7746428Y36639286D02*
X7746428Y35889286D01*
X8032142Y35889286D01*
X8103571Y35925000D01*
X8139285Y35960715D01*
X8175000Y36032143D01*
X8175000Y36139286D01*
X8139285Y36210715D01*
X8103571Y36246429D01*
X8032142Y36282143D01*
X7746428Y36282143D01*
X8889285Y36639286D02*
X8460714Y36639286D01*
X8675000Y36639286D02*
X8675000Y35889286D01*
X8603571Y35996429D01*
X8532142Y36067858D01*
X8460714Y36103572D01*
X7746428Y52639286D02*
X7746428Y51889286D01*
X8032142Y51889286D01*
X8103571Y51925000D01*
X8139285Y51960715D01*
X8175000Y52032143D01*
X8175000Y52139286D01*
X8139285Y52210715D01*
X8103571Y52246429D01*
X8032142Y52282143D01*
X7746428Y52282143D01*
X8889285Y52639286D02*
X8460714Y52639286D01*
X8675000Y52639286D02*
X8675000Y51889286D01*
X8603571Y51996429D01*
X8532142Y52067858D01*
X8460714Y52103572D01*
X7746428Y68639286D02*
X7746428Y67889286D01*
X8032142Y67889286D01*
X8103571Y67925000D01*
X8139285Y67960715D01*
X8175000Y68032143D01*
X8175000Y68139286D01*
X8139285Y68210715D01*
X8103571Y68246429D01*
X8032142Y68282143D01*
X7746428Y68282143D01*
X8889285Y68639286D02*
X8460714Y68639286D01*
X8675000Y68639286D02*
X8675000Y67889286D01*
X8603571Y67996429D01*
X8532142Y68067858D01*
X8460714Y68103572D01*
X9635714Y90039286D02*
X9207142Y90039286D01*
X9421428Y90039286D02*
X9421428Y89289286D01*
X9350000Y89396429D01*
X9278571Y89467858D01*
X9207142Y89503572D01*
X9921428Y89360715D02*
X9957142Y89325000D01*
X10028571Y89289286D01*
X10207142Y89289286D01*
X10278571Y89325000D01*
X10314285Y89360715D01*
X10350000Y89432143D01*
X10350000Y89503572D01*
X10314285Y89610715D01*
X9885714Y90039286D01*
X10350000Y90039286D01*
X10564285Y89289286D02*
X10814285Y90039286D01*
X11064285Y89289286D01*
X72435714Y84639286D02*
X72007142Y84639286D01*
X72221428Y84639286D02*
X72221428Y83889286D01*
X72150000Y83996429D01*
X72078571Y84067858D01*
X72007142Y84103572D01*
X72721428Y83960715D02*
X72757142Y83925000D01*
X72828571Y83889286D01*
X73007142Y83889286D01*
X73078571Y83925000D01*
X73114285Y83960715D01*
X73150000Y84032143D01*
X73150000Y84103572D01*
X73114285Y84210715D01*
X72685714Y84639286D01*
X73150000Y84639286D01*
X73364285Y83889286D02*
X73614285Y84639286D01*
X73864285Y83889286D01*
X38924142Y87939286D02*
X38674142Y87582143D01*
X38495571Y87939286D02*
X38495571Y87189286D01*
X38781285Y87189286D01*
X38852714Y87225000D01*
X38888428Y87260715D01*
X38924142Y87332143D01*
X38924142Y87439286D01*
X38888428Y87510715D01*
X38852714Y87546429D01*
X38781285Y87582143D01*
X38495571Y87582143D01*
X39531285Y87903572D02*
X39459857Y87939286D01*
X39317000Y87939286D01*
X39245571Y87903572D01*
X39209857Y87832143D01*
X39209857Y87546429D01*
X39245571Y87475000D01*
X39317000Y87439286D01*
X39459857Y87439286D01*
X39531285Y87475000D01*
X39567000Y87546429D01*
X39567000Y87617858D01*
X39209857Y87689286D01*
X39817000Y87439286D02*
X39995571Y87939286D01*
X40174142Y87439286D01*
X40459857Y87867858D02*
X40495571Y87903572D01*
X40459857Y87939286D01*
X40424142Y87903572D01*
X40459857Y87867858D01*
X40459857Y87939286D01*
X40745571Y87189286D02*
X41209857Y87189286D01*
X40959857Y87475000D01*
X41067000Y87475000D01*
X41138428Y87510715D01*
X41174142Y87546429D01*
X41209857Y87617858D01*
X41209857Y87796429D01*
X41174142Y87867858D01*
X41138428Y87903572D01*
X41067000Y87939286D01*
X40852714Y87939286D01*
X40781285Y87903572D01*
X40745571Y87867858D01*
X42067000Y87260715D02*
X42102714Y87225000D01*
X42174142Y87189286D01*
X42352714Y87189286D01*
X42424142Y87225000D01*
X42459857Y87260715D01*
X42495571Y87332143D01*
X42495571Y87403572D01*
X42459857Y87510715D01*
X42031285Y87939286D01*
X42495571Y87939286D01*
X42959857Y87189286D02*
X43031285Y87189286D01*
X43102714Y87225000D01*
X43138428Y87260715D01*
X43174142Y87332143D01*
X43209857Y87475000D01*
X43209857Y87653572D01*
X43174142Y87796429D01*
X43138428Y87867858D01*
X43102714Y87903572D01*
X43031285Y87939286D01*
X42959857Y87939286D01*
X42888428Y87903572D01*
X42852714Y87867858D01*
X42817000Y87796429D01*
X42781285Y87653572D01*
X42781285Y87475000D01*
X42817000Y87332143D01*
X42852714Y87260715D01*
X42888428Y87225000D01*
X42959857Y87189286D01*
X43495571Y87260715D02*
X43531285Y87225000D01*
X43602714Y87189286D01*
X43781285Y87189286D01*
X43852714Y87225000D01*
X43888428Y87260715D01*
X43924142Y87332143D01*
X43924142Y87403572D01*
X43888428Y87510715D01*
X43459857Y87939286D01*
X43924142Y87939286D01*
X44209857Y87260715D02*
X44245571Y87225000D01*
X44317000Y87189286D01*
X44495571Y87189286D01*
X44567000Y87225000D01*
X44602714Y87260715D01*
X44638428Y87332143D01*
X44638428Y87403572D01*
X44602714Y87510715D01*
X44174142Y87939286D01*
X44638428Y87939286D01*
X44959857Y87867858D02*
X44995571Y87903572D01*
X44959857Y87939286D01*
X44924142Y87903572D01*
X44959857Y87867858D01*
X44959857Y87939286D01*
X45459857Y87189286D02*
X45531285Y87189286D01*
X45602714Y87225000D01*
X45638428Y87260715D01*
X45674142Y87332143D01*
X45709857Y87475000D01*
X45709857Y87653572D01*
X45674142Y87796429D01*
X45638428Y87867858D01*
X45602714Y87903572D01*
X45531285Y87939286D01*
X45459857Y87939286D01*
X45388428Y87903572D01*
X45352714Y87867858D01*
X45317000Y87796429D01*
X45281285Y87653572D01*
X45281285Y87475000D01*
X45317000Y87332143D01*
X45352714Y87260715D01*
X45388428Y87225000D01*
X45459857Y87189286D01*
X46424142Y87939286D02*
X45995571Y87939286D01*
X46209857Y87939286D02*
X46209857Y87189286D01*
X46138428Y87296429D01*
X46067000Y87367858D01*
X45995571Y87403572D01*
X38495571Y86839286D02*
X38495571Y86089286D01*
X38924142Y86839286D02*
X38602714Y86410715D01*
X38924142Y86089286D02*
X38495571Y86517858D01*
X39174142Y86089286D02*
X39638428Y86089286D01*
X39388428Y86375000D01*
X39495571Y86375000D01*
X39567000Y86410715D01*
X39602714Y86446429D01*
X39638428Y86517858D01*
X39638428Y86696429D01*
X39602714Y86767858D01*
X39567000Y86803572D01*
X39495571Y86839286D01*
X39281285Y86839286D01*
X39209857Y86803572D01*
X39174142Y86767858D01*
X40102714Y86089286D02*
X40174142Y86089286D01*
X40245571Y86125000D01*
X40281285Y86160715D01*
X40317000Y86232143D01*
X40352714Y86375000D01*
X40352714Y86553572D01*
X40317000Y86696429D01*
X40281285Y86767858D01*
X40245571Y86803572D01*
X40174142Y86839286D01*
X40102714Y86839286D01*
X40031285Y86803572D01*
X39995571Y86767858D01*
X39959857Y86696429D01*
X39924142Y86553572D01*
X39924142Y86375000D01*
X39959857Y86232143D01*
X39995571Y86160715D01*
X40031285Y86125000D01*
X40102714Y86089286D01*
X41031285Y86089286D02*
X40674142Y86089286D01*
X40638428Y86446429D01*
X40674142Y86410715D01*
X40745571Y86375000D01*
X40924142Y86375000D01*
X40995571Y86410715D01*
X41031285Y86446429D01*
X41067000Y86517858D01*
X41067000Y86696429D01*
X41031285Y86767858D01*
X40995571Y86803572D01*
X40924142Y86839286D01*
X40745571Y86839286D01*
X40674142Y86803572D01*
X40638428Y86767858D01*
X41317000Y86089286D02*
X41817000Y86089286D01*
X41495571Y86839286D01*
X42531285Y86839286D02*
X42281285Y86482143D01*
X42102714Y86839286D02*
X42102714Y86089286D01*
X42388428Y86089286D01*
X42459857Y86125000D01*
X42495571Y86160715D01*
X42531285Y86232143D01*
X42531285Y86339286D01*
X42495571Y86410715D01*
X42459857Y86446429D01*
X42388428Y86482143D01*
X42102714Y86482143D01*
X42817000Y86625000D02*
X43174142Y86625000D01*
X42745571Y86839286D02*
X42995571Y86089286D01*
X43245571Y86839286D01*
X54460714Y91639286D02*
X54460714Y90889286D01*
X54746428Y90889286D01*
X54817857Y90925000D01*
X54853571Y90960715D01*
X54889285Y91032143D01*
X54889285Y91139286D01*
X54853571Y91210715D01*
X54817857Y91246429D01*
X54746428Y91282143D01*
X54460714Y91282143D01*
X55639285Y91639286D02*
X55389285Y91282143D01*
X55210714Y91639286D02*
X55210714Y90889286D01*
X55496428Y90889286D01*
X55567857Y90925000D01*
X55603571Y90960715D01*
X55639285Y91032143D01*
X55639285Y91139286D01*
X55603571Y91210715D01*
X55567857Y91246429D01*
X55496428Y91282143D01*
X55210714Y91282143D01*
X56103571Y90889286D02*
X56246428Y90889286D01*
X56317857Y90925000D01*
X56389285Y90996429D01*
X56425000Y91139286D01*
X56425000Y91389286D01*
X56389285Y91532143D01*
X56317857Y91603572D01*
X56246428Y91639286D01*
X56103571Y91639286D01*
X56032142Y91603572D01*
X55960714Y91532143D01*
X55925000Y91389286D01*
X55925000Y91139286D01*
X55960714Y90996429D01*
X56032142Y90925000D01*
X56103571Y90889286D01*
X57139285Y90925000D02*
X57067857Y90889286D01*
X56960714Y90889286D01*
X56853571Y90925000D01*
X56782142Y90996429D01*
X56746428Y91067858D01*
X56710714Y91210715D01*
X56710714Y91317858D01*
X56746428Y91460715D01*
X56782142Y91532143D01*
X56853571Y91603572D01*
X56960714Y91639286D01*
X57032142Y91639286D01*
X57139285Y91603572D01*
X57175000Y91567858D01*
X57175000Y91317858D01*
X57032142Y91317858D01*
D11*
X64728571Y87307143D02*
X64428571Y86878572D01*
X64214285Y87307143D02*
X64214285Y86407143D01*
X64557142Y86407143D01*
X64642857Y86450000D01*
X64685714Y86492858D01*
X64728571Y86578572D01*
X64728571Y86707143D01*
X64685714Y86792858D01*
X64642857Y86835715D01*
X64557142Y86878572D01*
X64214285Y86878572D01*
X65114285Y86835715D02*
X65414285Y86835715D01*
X65542857Y87307143D02*
X65114285Y87307143D01*
X65114285Y86407143D01*
X65542857Y86407143D01*
X65800000Y86407143D02*
X66100000Y87307143D01*
X66400000Y86407143D01*
X67385714Y86964286D02*
X68071428Y86964286D01*
X68500000Y86707143D02*
X69185714Y86964286D01*
X68500000Y87221429D01*
X13592857Y86807143D02*
X12907142Y87064286D01*
X13592857Y87321429D01*
X14021428Y87064286D02*
X14707142Y87064286D01*
X16121428Y86935715D02*
X15821428Y86935715D01*
X15821428Y87407143D02*
X15821428Y86507143D01*
X16250000Y86507143D01*
X16507142Y86507143D02*
X16721428Y87407143D01*
X16892857Y86764286D01*
X17064285Y87407143D01*
X17278571Y86507143D01*
X17621428Y87407143D02*
X17621428Y86507143D01*
X17835714Y86507143D01*
X17964285Y86550000D01*
X18050000Y86635715D01*
X18092857Y86721429D01*
X18135714Y86892858D01*
X18135714Y87021429D01*
X18092857Y87192858D01*
X18050000Y87278572D01*
X17964285Y87364286D01*
X17835714Y87407143D01*
X17621428Y87407143D01*
D10*
X38039285Y84839286D02*
X38039285Y84089286D01*
X38289285Y84625000D01*
X38539285Y84089286D01*
X38539285Y84839286D01*
X39039285Y84089286D02*
X39182142Y84089286D01*
X39253571Y84125000D01*
X39325000Y84196429D01*
X39360714Y84339286D01*
X39360714Y84589286D01*
X39325000Y84732143D01*
X39253571Y84803572D01*
X39182142Y84839286D01*
X39039285Y84839286D01*
X38967857Y84803572D01*
X38896428Y84732143D01*
X38860714Y84589286D01*
X38860714Y84339286D01*
X38896428Y84196429D01*
X38967857Y84125000D01*
X39039285Y84089286D01*
X39575000Y84089286D02*
X40003571Y84089286D01*
X39789285Y84839286D02*
X39789285Y84089286D01*
X40396428Y84089286D02*
X40539285Y84089286D01*
X40610714Y84125000D01*
X40682142Y84196429D01*
X40717857Y84339286D01*
X40717857Y84589286D01*
X40682142Y84732143D01*
X40610714Y84803572D01*
X40539285Y84839286D01*
X40396428Y84839286D01*
X40325000Y84803572D01*
X40253571Y84732143D01*
X40217857Y84589286D01*
X40217857Y84339286D01*
X40253571Y84196429D01*
X40325000Y84125000D01*
X40396428Y84089286D01*
X41467857Y84839286D02*
X41217857Y84482143D01*
X41039285Y84839286D02*
X41039285Y84089286D01*
X41325000Y84089286D01*
X41396428Y84125000D01*
X41432142Y84160715D01*
X41467857Y84232143D01*
X41467857Y84339286D01*
X41432142Y84410715D01*
X41396428Y84446429D01*
X41325000Y84482143D01*
X41039285Y84482143D01*
X41789285Y84553572D02*
X42360714Y84553572D01*
X38039285Y90339286D02*
X38039285Y89589286D01*
X38289285Y90125000D01*
X38539285Y89589286D01*
X38539285Y90339286D01*
X39039285Y89589286D02*
X39182142Y89589286D01*
X39253571Y89625000D01*
X39325000Y89696429D01*
X39360714Y89839286D01*
X39360714Y90089286D01*
X39325000Y90232143D01*
X39253571Y90303572D01*
X39182142Y90339286D01*
X39039285Y90339286D01*
X38967857Y90303572D01*
X38896428Y90232143D01*
X38860714Y90089286D01*
X38860714Y89839286D01*
X38896428Y89696429D01*
X38967857Y89625000D01*
X39039285Y89589286D01*
X39575000Y89589286D02*
X40003571Y89589286D01*
X39789285Y90339286D02*
X39789285Y89589286D01*
X40396428Y89589286D02*
X40539285Y89589286D01*
X40610714Y89625000D01*
X40682142Y89696429D01*
X40717857Y89839286D01*
X40717857Y90089286D01*
X40682142Y90232143D01*
X40610714Y90303572D01*
X40539285Y90339286D01*
X40396428Y90339286D01*
X40325000Y90303572D01*
X40253571Y90232143D01*
X40217857Y90089286D01*
X40217857Y89839286D01*
X40253571Y89696429D01*
X40325000Y89625000D01*
X40396428Y89589286D01*
X41467857Y90339286D02*
X41217857Y89982143D01*
X41039285Y90339286D02*
X41039285Y89589286D01*
X41325000Y89589286D01*
X41396428Y89625000D01*
X41432142Y89660715D01*
X41467857Y89732143D01*
X41467857Y89839286D01*
X41432142Y89910715D01*
X41396428Y89946429D01*
X41325000Y89982143D01*
X41039285Y89982143D01*
X41789285Y90053572D02*
X42360714Y90053572D01*
X42075000Y90339286D02*
X42075000Y89767858D01*
X13346428Y90039286D02*
X13346428Y89289286D01*
X13632142Y89289286D01*
X13703571Y89325000D01*
X13739285Y89360715D01*
X13775000Y89432143D01*
X13775000Y89539286D01*
X13739285Y89610715D01*
X13703571Y89646429D01*
X13632142Y89682143D01*
X13346428Y89682143D01*
X14060714Y89360715D02*
X14096428Y89325000D01*
X14167857Y89289286D01*
X14346428Y89289286D01*
X14417857Y89325000D01*
X14453571Y89360715D01*
X14489285Y89432143D01*
X14489285Y89503572D01*
X14453571Y89610715D01*
X14025000Y90039286D01*
X14489285Y90039286D01*
X10446428Y84639286D02*
X10446428Y83889286D01*
X10732142Y83889286D01*
X10803571Y83925000D01*
X10839285Y83960715D01*
X10875000Y84032143D01*
X10875000Y84139286D01*
X10839285Y84210715D01*
X10803571Y84246429D01*
X10732142Y84282143D01*
X10446428Y84282143D01*
X11125000Y83889286D02*
X11589285Y83889286D01*
X11339285Y84175000D01*
X11446428Y84175000D01*
X11517857Y84210715D01*
X11553571Y84246429D01*
X11589285Y84317858D01*
X11589285Y84496429D01*
X11553571Y84567858D01*
X11517857Y84603572D01*
X11446428Y84639286D01*
X11232142Y84639286D01*
X11160714Y84603572D01*
X11125000Y84567858D01*
X7746428Y84639286D02*
X7746428Y83889286D01*
X8032142Y83889286D01*
X8103571Y83925000D01*
X8139285Y83960715D01*
X8175000Y84032143D01*
X8175000Y84139286D01*
X8139285Y84210715D01*
X8103571Y84246429D01*
X8032142Y84282143D01*
X7746428Y84282143D01*
X8889285Y84639286D02*
X8460714Y84639286D01*
X8675000Y84639286D02*
X8675000Y83889286D01*
X8603571Y83996429D01*
X8532142Y84067858D01*
X8460714Y84103572D01*
X74046428Y90139286D02*
X74046428Y89389286D01*
X74332142Y89389286D01*
X74403571Y89425000D01*
X74439285Y89460715D01*
X74475000Y89532143D01*
X74475000Y89639286D01*
X74439285Y89710715D01*
X74403571Y89746429D01*
X74332142Y89782143D01*
X74046428Y89782143D01*
X75117857Y89639286D02*
X75117857Y90139286D01*
X74939285Y89353572D02*
X74760714Y89889286D01*
X75225000Y89889286D01*
X68346428Y84639286D02*
X68346428Y83889286D01*
X68632142Y83889286D01*
X68703571Y83925000D01*
X68739285Y83960715D01*
X68775000Y84032143D01*
X68775000Y84139286D01*
X68739285Y84210715D01*
X68703571Y84246429D01*
X68632142Y84282143D01*
X68346428Y84282143D01*
X69453571Y83889286D02*
X69096428Y83889286D01*
X69060714Y84246429D01*
X69096428Y84210715D01*
X69167857Y84175000D01*
X69346428Y84175000D01*
X69417857Y84210715D01*
X69453571Y84246429D01*
X69489285Y84317858D01*
X69489285Y84496429D01*
X69453571Y84567858D01*
X69417857Y84603572D01*
X69346428Y84639286D01*
X69167857Y84639286D01*
X69096428Y84603572D01*
X69060714Y84567858D01*
X71346428Y90139286D02*
X71346428Y89389286D01*
X71632142Y89389286D01*
X71703571Y89425000D01*
X71739285Y89460715D01*
X71775000Y89532143D01*
X71775000Y89639286D01*
X71739285Y89710715D01*
X71703571Y89746429D01*
X71632142Y89782143D01*
X71346428Y89782143D01*
X72417857Y89389286D02*
X72275000Y89389286D01*
X72203571Y89425000D01*
X72167857Y89460715D01*
X72096428Y89567858D01*
X72060714Y89710715D01*
X72060714Y89996429D01*
X72096428Y90067858D01*
X72132142Y90103572D01*
X72203571Y90139286D01*
X72346428Y90139286D01*
X72417857Y90103572D01*
X72453571Y90067858D01*
X72489285Y89996429D01*
X72489285Y89817858D01*
X72453571Y89746429D01*
X72417857Y89710715D01*
X72346428Y89675000D01*
X72203571Y89675000D01*
X72132142Y89710715D01*
X72096428Y89746429D01*
X72060714Y89817858D01*
D12*
%TO.C,D14*%
X74050000Y6500000D02*
X74050000Y5750000D01*
X74300000Y6750000D02*
X74050000Y6500000D01*
X74300000Y7250000D02*
X74300000Y6750000D01*
X74050000Y7500000D02*
X74300000Y7250000D01*
X74050000Y8250000D02*
X74050000Y7500000D01*
X75300000Y7750000D02*
X75300000Y6250000D01*
X74900000Y7300000D02*
X74900000Y6700000D01*
X74050000Y22500000D02*
X74050000Y21750000D01*
X74300000Y22750000D02*
X74050000Y22500000D01*
X74300000Y23250000D02*
X74300000Y22750000D01*
X74050000Y23500000D02*
X74300000Y23250000D01*
X74050000Y24250000D02*
X74050000Y23500000D01*
X75300000Y23750000D02*
X75300000Y22250000D01*
X74900000Y23300000D02*
X74900000Y22700000D01*
X74050000Y38500000D02*
X74050000Y37750000D01*
X74300000Y38750000D02*
X74050000Y38500000D01*
X74300000Y39250000D02*
X74300000Y38750000D01*
X74050000Y39500000D02*
X74300000Y39250000D01*
X74050000Y40250000D02*
X74050000Y39500000D01*
X75300000Y39750000D02*
X75300000Y38250000D01*
X74900000Y39300000D02*
X74900000Y38700000D01*
X74050000Y54500000D02*
X74050000Y53750000D01*
X74300000Y54750000D02*
X74050000Y54500000D01*
X74300000Y55250000D02*
X74300000Y54750000D01*
X74050000Y55500000D02*
X74300000Y55250000D01*
X74050000Y56250000D02*
X74050000Y55500000D01*
X75300000Y55750000D02*
X75300000Y54250000D01*
X74900000Y55300000D02*
X74900000Y54700000D01*
X74050000Y70500000D02*
X74050000Y69750000D01*
X74300000Y70750000D02*
X74050000Y70500000D01*
X74300000Y71250000D02*
X74300000Y70750000D01*
X74050000Y71500000D02*
X74300000Y71250000D01*
X74050000Y72250000D02*
X74050000Y71500000D01*
X75300000Y71750000D02*
X75300000Y70250000D01*
X74900000Y71300000D02*
X74900000Y70700000D01*
%TO.C,D15*%
X72100000Y7300000D02*
X72100000Y6700000D01*
X72500000Y7750000D02*
X72500000Y6250000D01*
X71250000Y8250000D02*
X71250000Y7500000D01*
X71250000Y7500000D02*
X71500000Y7250000D01*
X71500000Y7250000D02*
X71500000Y6750000D01*
X71500000Y6750000D02*
X71250000Y6500000D01*
X71250000Y6500000D02*
X71250000Y5750000D01*
X72100000Y23300000D02*
X72100000Y22700000D01*
X72500000Y23750000D02*
X72500000Y22250000D01*
X71250000Y24250000D02*
X71250000Y23500000D01*
X71250000Y23500000D02*
X71500000Y23250000D01*
X71500000Y23250000D02*
X71500000Y22750000D01*
X71500000Y22750000D02*
X71250000Y22500000D01*
X71250000Y22500000D02*
X71250000Y21750000D01*
X72100000Y39300000D02*
X72100000Y38700000D01*
X72500000Y39750000D02*
X72500000Y38250000D01*
X71250000Y40250000D02*
X71250000Y39500000D01*
X71250000Y39500000D02*
X71500000Y39250000D01*
X71500000Y39250000D02*
X71500000Y38750000D01*
X71500000Y38750000D02*
X71250000Y38500000D01*
X71250000Y38500000D02*
X71250000Y37750000D01*
X72100000Y55300000D02*
X72100000Y54700000D01*
X72500000Y55750000D02*
X72500000Y54250000D01*
X71250000Y56250000D02*
X71250000Y55500000D01*
X71250000Y55500000D02*
X71500000Y55250000D01*
X71500000Y55250000D02*
X71500000Y54750000D01*
X71500000Y54750000D02*
X71250000Y54500000D01*
X71250000Y54500000D02*
X71250000Y53750000D01*
X72100000Y71300000D02*
X72100000Y70700000D01*
X72500000Y71750000D02*
X72500000Y70250000D01*
X71250000Y72250000D02*
X71250000Y71500000D01*
X71250000Y71500000D02*
X71500000Y71250000D01*
X71500000Y71250000D02*
X71500000Y70750000D01*
X71500000Y70750000D02*
X71250000Y70500000D01*
X71250000Y70500000D02*
X71250000Y69750000D01*
%TO.C,D13*%
X8100000Y6700000D02*
X8100000Y7300000D01*
X7700000Y6250000D02*
X7700000Y7750000D01*
X8950000Y5750000D02*
X8950000Y6500000D01*
X8950000Y6500000D02*
X8700000Y6750000D01*
X8700000Y6750000D02*
X8700000Y7250000D01*
X8700000Y7250000D02*
X8950000Y7500000D01*
X8950000Y7500000D02*
X8950000Y8250000D01*
X8100000Y22700000D02*
X8100000Y23300000D01*
X7700000Y22250000D02*
X7700000Y23750000D01*
X8950000Y21750000D02*
X8950000Y22500000D01*
X8950000Y22500000D02*
X8700000Y22750000D01*
X8700000Y22750000D02*
X8700000Y23250000D01*
X8700000Y23250000D02*
X8950000Y23500000D01*
X8950000Y23500000D02*
X8950000Y24250000D01*
X8100000Y38700000D02*
X8100000Y39300000D01*
X7700000Y38250000D02*
X7700000Y39750000D01*
X8950000Y37750000D02*
X8950000Y38500000D01*
X8950000Y38500000D02*
X8700000Y38750000D01*
X8700000Y38750000D02*
X8700000Y39250000D01*
X8700000Y39250000D02*
X8950000Y39500000D01*
X8950000Y39500000D02*
X8950000Y40250000D01*
X8100000Y54700000D02*
X8100000Y55300000D01*
X7700000Y54250000D02*
X7700000Y55750000D01*
X8950000Y53750000D02*
X8950000Y54500000D01*
X8950000Y54500000D02*
X8700000Y54750000D01*
X8700000Y54750000D02*
X8700000Y55250000D01*
X8700000Y55250000D02*
X8950000Y55500000D01*
X8950000Y55500000D02*
X8950000Y56250000D01*
X8100000Y70700000D02*
X8100000Y71300000D01*
X7700000Y70250000D02*
X7700000Y71750000D01*
X8950000Y69750000D02*
X8950000Y70500000D01*
X8950000Y70500000D02*
X8700000Y70750000D01*
X8700000Y70750000D02*
X8700000Y71250000D01*
X8700000Y71250000D02*
X8950000Y71500000D01*
X8950000Y71500000D02*
X8950000Y72250000D01*
%TO.C,D16*%
X11750000Y7500000D02*
X11750000Y8250000D01*
X11500000Y7250000D02*
X11750000Y7500000D01*
X11500000Y6750000D02*
X11500000Y7250000D01*
X11750000Y6500000D02*
X11500000Y6750000D01*
X11750000Y5750000D02*
X11750000Y6500000D01*
X10500000Y6250000D02*
X10500000Y7750000D01*
X10900000Y6700000D02*
X10900000Y7300000D01*
X11750000Y23500000D02*
X11750000Y24250000D01*
X11500000Y23250000D02*
X11750000Y23500000D01*
X11500000Y22750000D02*
X11500000Y23250000D01*
X11750000Y22500000D02*
X11500000Y22750000D01*
X11750000Y21750000D02*
X11750000Y22500000D01*
X10500000Y22250000D02*
X10500000Y23750000D01*
X10900000Y22700000D02*
X10900000Y23300000D01*
X11750000Y39500000D02*
X11750000Y40250000D01*
X11500000Y39250000D02*
X11750000Y39500000D01*
X11500000Y38750000D02*
X11500000Y39250000D01*
X11750000Y38500000D02*
X11500000Y38750000D01*
X11750000Y37750000D02*
X11750000Y38500000D01*
X10500000Y38250000D02*
X10500000Y39750000D01*
X10900000Y38700000D02*
X10900000Y39300000D01*
X11750000Y55500000D02*
X11750000Y56250000D01*
X11500000Y55250000D02*
X11750000Y55500000D01*
X11500000Y54750000D02*
X11500000Y55250000D01*
X11750000Y54500000D02*
X11500000Y54750000D01*
X11750000Y53750000D02*
X11750000Y54500000D01*
X10500000Y54250000D02*
X10500000Y55750000D01*
X10900000Y54700000D02*
X10900000Y55300000D01*
X11750000Y71500000D02*
X11750000Y72250000D01*
X11500000Y71250000D02*
X11750000Y71500000D01*
X11500000Y70750000D02*
X11500000Y71250000D01*
X11750000Y70500000D02*
X11500000Y70750000D01*
X11750000Y69750000D02*
X11750000Y70500000D01*
X10500000Y70250000D02*
X10500000Y71750000D01*
X10900000Y70700000D02*
X10900000Y71300000D01*
D10*
%TO.C,P9*%
X57550000Y11130000D02*
X60050000Y11130000D01*
X60050000Y11130000D02*
X60050000Y9870000D01*
X60050000Y9870000D02*
X57550000Y9870000D01*
X57550000Y11130000D02*
X57550000Y9870000D01*
X57550000Y27130000D02*
X60050000Y27130000D01*
X60050000Y27130000D02*
X60050000Y25870000D01*
X60050000Y25870000D02*
X57550000Y25870000D01*
X57550000Y27130000D02*
X57550000Y25870000D01*
X57550000Y43130000D02*
X60050000Y43130000D01*
X60050000Y43130000D02*
X60050000Y41870000D01*
X60050000Y41870000D02*
X57550000Y41870000D01*
X57550000Y43130000D02*
X57550000Y41870000D01*
X57550000Y59130000D02*
X60050000Y59130000D01*
X60050000Y59130000D02*
X60050000Y57870000D01*
X60050000Y57870000D02*
X57550000Y57870000D01*
X57550000Y59130000D02*
X57550000Y57870000D01*
X57550000Y75130000D02*
X60050000Y75130000D01*
X60050000Y75130000D02*
X60050000Y73870000D01*
X60050000Y73870000D02*
X57550000Y73870000D01*
X57550000Y75130000D02*
X57550000Y73870000D01*
X57550000Y91130000D02*
X57550000Y89870000D01*
X60050000Y89870000D02*
X57550000Y89870000D01*
X60050000Y91130000D02*
X60050000Y89870000D01*
X57550000Y91130000D02*
X60050000Y91130000D01*
D12*
%TO.C,D13*%
X8950000Y87500000D02*
X8950000Y88250000D01*
X8700000Y87250000D02*
X8950000Y87500000D01*
X8700000Y86750000D02*
X8700000Y87250000D01*
X8950000Y86500000D02*
X8700000Y86750000D01*
X8950000Y85750000D02*
X8950000Y86500000D01*
X7700000Y86250000D02*
X7700000Y87750000D01*
X8100000Y86700000D02*
X8100000Y87300000D01*
%TO.C,D14*%
X74900000Y87300000D02*
X74900000Y86700000D01*
X75300000Y87750000D02*
X75300000Y86250000D01*
X74050000Y88250000D02*
X74050000Y87500000D01*
X74050000Y87500000D02*
X74300000Y87250000D01*
X74300000Y87250000D02*
X74300000Y86750000D01*
X74300000Y86750000D02*
X74050000Y86500000D01*
X74050000Y86500000D02*
X74050000Y85750000D01*
%TO.C,D15*%
X71250000Y86500000D02*
X71250000Y85750000D01*
X71500000Y86750000D02*
X71250000Y86500000D01*
X71500000Y87250000D02*
X71500000Y86750000D01*
X71250000Y87500000D02*
X71500000Y87250000D01*
X71250000Y88250000D02*
X71250000Y87500000D01*
X72500000Y87750000D02*
X72500000Y86250000D01*
X72100000Y87300000D02*
X72100000Y86700000D01*
%TO.C,D16*%
X10900000Y86700000D02*
X10900000Y87300000D01*
X10500000Y86250000D02*
X10500000Y87750000D01*
X11750000Y85750000D02*
X11750000Y86500000D01*
X11750000Y86500000D02*
X11500000Y86750000D01*
X11500000Y86750000D02*
X11500000Y87250000D01*
X11500000Y87250000D02*
X11750000Y87500000D01*
X11750000Y87500000D02*
X11750000Y88250000D01*
%TD*%
%LPC*%
D13*
%TO.C,D14*%
X74425000Y5700000D03*
X74425000Y8300000D03*
D14*
X75050000Y6450000D03*
X75050000Y7550000D03*
D15*
X75050000Y5625000D03*
X75050000Y8375000D03*
%TD*%
D13*
%TO.C,D14*%
X74425000Y21700000D03*
X74425000Y24300000D03*
D14*
X75050000Y22450000D03*
X75050000Y23550000D03*
D15*
X75050000Y21625000D03*
X75050000Y24375000D03*
%TD*%
D13*
%TO.C,D14*%
X74425000Y37700000D03*
X74425000Y40300000D03*
D14*
X75050000Y38450000D03*
X75050000Y39550000D03*
D15*
X75050000Y37625000D03*
X75050000Y40375000D03*
%TD*%
D13*
%TO.C,D14*%
X74425000Y53700000D03*
X74425000Y56300000D03*
D14*
X75050000Y54450000D03*
X75050000Y55550000D03*
D15*
X75050000Y53625000D03*
X75050000Y56375000D03*
%TD*%
D13*
%TO.C,D14*%
X74425000Y69700000D03*
X74425000Y72300000D03*
D14*
X75050000Y70450000D03*
X75050000Y71550000D03*
D15*
X75050000Y69625000D03*
X75050000Y72375000D03*
%TD*%
D16*
%TO.C,REF\u002A\u002A*%
X79500000Y7000000D03*
%TD*%
%TO.C,REF\u002A\u002A*%
X79500000Y23000000D03*
%TD*%
%TO.C,REF\u002A\u002A*%
X79500000Y39000000D03*
%TD*%
%TO.C,REF\u002A\u002A*%
X79500000Y55000000D03*
%TD*%
%TO.C,REF\u002A\u002A*%
X79500000Y71000000D03*
%TD*%
D15*
%TO.C,D15*%
X72250000Y8375000D03*
X72250000Y5625000D03*
D14*
X72250000Y7550000D03*
X72250000Y6450000D03*
D13*
X71625000Y8300000D03*
X71625000Y5700000D03*
%TD*%
D15*
%TO.C,D15*%
X72250000Y24375000D03*
X72250000Y21625000D03*
D14*
X72250000Y23550000D03*
X72250000Y22450000D03*
D13*
X71625000Y24300000D03*
X71625000Y21700000D03*
%TD*%
D15*
%TO.C,D15*%
X72250000Y40375000D03*
X72250000Y37625000D03*
D14*
X72250000Y39550000D03*
X72250000Y38450000D03*
D13*
X71625000Y40300000D03*
X71625000Y37700000D03*
%TD*%
D15*
%TO.C,D15*%
X72250000Y56375000D03*
X72250000Y53625000D03*
D14*
X72250000Y55550000D03*
X72250000Y54450000D03*
D13*
X71625000Y56300000D03*
X71625000Y53700000D03*
%TD*%
D15*
%TO.C,D15*%
X72250000Y72375000D03*
X72250000Y69625000D03*
D14*
X72250000Y71550000D03*
X72250000Y70450000D03*
D13*
X71625000Y72300000D03*
X71625000Y69700000D03*
%TD*%
D15*
%TO.C,D13*%
X7950000Y5625000D03*
X7950000Y8375000D03*
D14*
X7950000Y6450000D03*
X7950000Y7550000D03*
D13*
X8575000Y5700000D03*
X8575000Y8300000D03*
%TD*%
D15*
%TO.C,D13*%
X7950000Y21625000D03*
X7950000Y24375000D03*
D14*
X7950000Y22450000D03*
X7950000Y23550000D03*
D13*
X8575000Y21700000D03*
X8575000Y24300000D03*
%TD*%
D15*
%TO.C,D13*%
X7950000Y37625000D03*
X7950000Y40375000D03*
D14*
X7950000Y38450000D03*
X7950000Y39550000D03*
D13*
X8575000Y37700000D03*
X8575000Y40300000D03*
%TD*%
D15*
%TO.C,D13*%
X7950000Y53625000D03*
X7950000Y56375000D03*
D14*
X7950000Y54450000D03*
X7950000Y55550000D03*
D13*
X8575000Y53700000D03*
X8575000Y56300000D03*
%TD*%
D15*
%TO.C,D13*%
X7950000Y69625000D03*
X7950000Y72375000D03*
D14*
X7950000Y70450000D03*
X7950000Y71550000D03*
D13*
X8575000Y69700000D03*
X8575000Y72300000D03*
%TD*%
%TO.C,D16*%
X11375000Y8300000D03*
X11375000Y5700000D03*
D14*
X10750000Y7550000D03*
X10750000Y6450000D03*
D15*
X10750000Y8375000D03*
X10750000Y5625000D03*
%TD*%
D13*
%TO.C,D16*%
X11375000Y24300000D03*
X11375000Y21700000D03*
D14*
X10750000Y23550000D03*
X10750000Y22450000D03*
D15*
X10750000Y24375000D03*
X10750000Y21625000D03*
%TD*%
D13*
%TO.C,D16*%
X11375000Y40300000D03*
X11375000Y37700000D03*
D14*
X10750000Y39550000D03*
X10750000Y38450000D03*
D15*
X10750000Y40375000D03*
X10750000Y37625000D03*
%TD*%
D13*
%TO.C,D16*%
X11375000Y56300000D03*
X11375000Y53700000D03*
D14*
X10750000Y55550000D03*
X10750000Y54450000D03*
D15*
X10750000Y56375000D03*
X10750000Y53625000D03*
%TD*%
D13*
%TO.C,D16*%
X11375000Y72300000D03*
X11375000Y69700000D03*
D14*
X10750000Y71550000D03*
X10750000Y70450000D03*
D15*
X10750000Y72375000D03*
X10750000Y69625000D03*
%TD*%
D16*
%TO.C,REF\u002A\u002A*%
X3500000Y7000000D03*
%TD*%
%TO.C,REF\u002A\u002A*%
X3500000Y23000000D03*
%TD*%
%TO.C,REF\u002A\u002A*%
X3500000Y39000000D03*
%TD*%
%TO.C,REF\u002A\u002A*%
X3500000Y55000000D03*
%TD*%
%TO.C,REF\u002A\u002A*%
X3500000Y71000000D03*
%TD*%
D17*
%TO.C,P25*%
X26000000Y1000000D03*
%TD*%
%TO.C,P25*%
X26000000Y17000000D03*
%TD*%
%TO.C,P25*%
X26000000Y33000000D03*
%TD*%
%TO.C,P25*%
X26000000Y49000000D03*
%TD*%
%TO.C,P25*%
X26000000Y65000000D03*
%TD*%
%TO.C,P24*%
X57000000Y13000000D03*
%TD*%
%TO.C,P24*%
X57000000Y29000000D03*
%TD*%
%TO.C,P24*%
X57000000Y45000000D03*
%TD*%
%TO.C,P24*%
X57000000Y61000000D03*
%TD*%
%TO.C,P24*%
X57000000Y77000000D03*
%TD*%
D18*
%TO.C,P23*%
X46500000Y13000000D03*
%TD*%
%TO.C,P23*%
X46500000Y29000000D03*
%TD*%
%TO.C,P23*%
X46500000Y45000000D03*
%TD*%
%TO.C,P23*%
X46500000Y61000000D03*
%TD*%
%TO.C,P23*%
X46500000Y77000000D03*
%TD*%
D19*
%TO.C,J18*%
X12500000Y9700000D03*
%TD*%
%TO.C,J18*%
X12500000Y25700000D03*
%TD*%
%TO.C,J18*%
X12500000Y41700000D03*
%TD*%
%TO.C,J18*%
X12500000Y57700000D03*
%TD*%
%TO.C,J18*%
X12500000Y73700000D03*
%TD*%
D17*
%TO.C,P21*%
X26000000Y13000000D03*
%TD*%
%TO.C,P21*%
X26000000Y29000000D03*
%TD*%
%TO.C,P21*%
X26000000Y45000000D03*
%TD*%
%TO.C,P21*%
X26000000Y61000000D03*
%TD*%
%TO.C,P21*%
X26000000Y77000000D03*
%TD*%
D18*
%TO.C,P22*%
X36500000Y13000000D03*
%TD*%
%TO.C,P22*%
X36500000Y29000000D03*
%TD*%
%TO.C,P22*%
X36500000Y45000000D03*
%TD*%
%TO.C,P22*%
X36500000Y61000000D03*
%TD*%
%TO.C,P22*%
X36500000Y77000000D03*
%TD*%
D19*
%TO.C,J14*%
X12500000Y4300000D03*
%TD*%
%TO.C,J14*%
X12500000Y20300000D03*
%TD*%
%TO.C,J14*%
X12500000Y36300000D03*
%TD*%
%TO.C,J14*%
X12500000Y52300000D03*
%TD*%
%TO.C,J14*%
X12500000Y68300000D03*
%TD*%
D20*
%TO.C,P9*%
X59435000Y10500000D03*
X58165000Y10500000D03*
%TD*%
%TO.C,P9*%
X59435000Y26500000D03*
X58165000Y26500000D03*
%TD*%
%TO.C,P9*%
X59435000Y42500000D03*
X58165000Y42500000D03*
%TD*%
%TO.C,P9*%
X59435000Y58500000D03*
X58165000Y58500000D03*
%TD*%
%TO.C,P9*%
X59435000Y74500000D03*
X58165000Y74500000D03*
%TD*%
D19*
%TO.C,J16*%
X70400000Y9700000D03*
%TD*%
%TO.C,J16*%
X70400000Y25700000D03*
%TD*%
%TO.C,J16*%
X70400000Y41700000D03*
%TD*%
%TO.C,J16*%
X70400000Y57700000D03*
%TD*%
%TO.C,J16*%
X70400000Y73700000D03*
%TD*%
%TO.C,J12*%
X70400000Y4300000D03*
%TD*%
%TO.C,J12*%
X70400000Y20300000D03*
%TD*%
%TO.C,J12*%
X70400000Y36300000D03*
%TD*%
%TO.C,J12*%
X70400000Y52300000D03*
%TD*%
%TO.C,J12*%
X70400000Y68300000D03*
%TD*%
D17*
%TO.C,P31*%
X32500000Y4500000D03*
%TD*%
%TO.C,P31*%
X32500000Y20500000D03*
%TD*%
%TO.C,P31*%
X32500000Y36500000D03*
%TD*%
%TO.C,P31*%
X32500000Y52500000D03*
%TD*%
%TO.C,P31*%
X32500000Y68500000D03*
%TD*%
D18*
%TO.C,P27*%
X46500000Y1000000D03*
%TD*%
%TO.C,P27*%
X46500000Y17000000D03*
%TD*%
%TO.C,P27*%
X46500000Y33000000D03*
%TD*%
%TO.C,P27*%
X46500000Y49000000D03*
%TD*%
%TO.C,P27*%
X46500000Y65000000D03*
%TD*%
D17*
%TO.C,P29*%
X32500000Y9500000D03*
%TD*%
%TO.C,P29*%
X32500000Y25500000D03*
%TD*%
%TO.C,P29*%
X32500000Y41500000D03*
%TD*%
%TO.C,P29*%
X32500000Y57500000D03*
%TD*%
%TO.C,P29*%
X32500000Y73500000D03*
%TD*%
D18*
%TO.C,P26*%
X36500000Y1000000D03*
%TD*%
%TO.C,P26*%
X36500000Y17000000D03*
%TD*%
%TO.C,P26*%
X36500000Y33000000D03*
%TD*%
%TO.C,P26*%
X36500000Y49000000D03*
%TD*%
%TO.C,P26*%
X36500000Y65000000D03*
%TD*%
D17*
%TO.C,P28*%
X57000000Y1000000D03*
%TD*%
%TO.C,P28*%
X57000000Y17000000D03*
%TD*%
%TO.C,P28*%
X57000000Y33000000D03*
%TD*%
%TO.C,P28*%
X57000000Y49000000D03*
%TD*%
%TO.C,P28*%
X57000000Y65000000D03*
%TD*%
D16*
%TO.C,REF\u002A\u002A*%
X79500000Y87000000D03*
%TD*%
%TO.C,REF\u002A\u002A*%
X3500000Y87000000D03*
%TD*%
D19*
%TO.C,J12*%
X70400000Y84300000D03*
%TD*%
%TO.C,J14*%
X12500000Y84300000D03*
%TD*%
%TO.C,J16*%
X70400000Y89700000D03*
%TD*%
%TO.C,J18*%
X12500000Y89700000D03*
%TD*%
D20*
%TO.C,P9*%
X58165000Y90500000D03*
X59435000Y90500000D03*
%TD*%
D17*
%TO.C,P21*%
X26000000Y93000000D03*
%TD*%
D18*
%TO.C,P22*%
X36500000Y93000000D03*
%TD*%
%TO.C,P23*%
X46500000Y93000000D03*
%TD*%
D17*
%TO.C,P24*%
X57000000Y93000000D03*
%TD*%
%TO.C,P25*%
X26000000Y81000000D03*
%TD*%
D18*
%TO.C,P26*%
X36500000Y81000000D03*
%TD*%
%TO.C,P27*%
X46500000Y81000000D03*
%TD*%
D17*
%TO.C,P28*%
X57000000Y81000000D03*
%TD*%
%TO.C,P29*%
X32500000Y89500000D03*
%TD*%
%TO.C,P31*%
X32500000Y84500000D03*
%TD*%
D13*
%TO.C,D13*%
X8575000Y88300000D03*
X8575000Y85700000D03*
D14*
X7950000Y87550000D03*
X7950000Y86450000D03*
D15*
X7950000Y88375000D03*
X7950000Y85625000D03*
%TD*%
%TO.C,D14*%
X75050000Y88375000D03*
X75050000Y85625000D03*
D14*
X75050000Y87550000D03*
X75050000Y86450000D03*
D13*
X74425000Y88300000D03*
X74425000Y85700000D03*
%TD*%
%TO.C,D15*%
X71625000Y85700000D03*
X71625000Y88300000D03*
D14*
X72250000Y86450000D03*
X72250000Y87550000D03*
D15*
X72250000Y85625000D03*
X72250000Y88375000D03*
%TD*%
%TO.C,D16*%
X10750000Y85625000D03*
X10750000Y88375000D03*
D14*
X10750000Y86450000D03*
X10750000Y87550000D03*
D13*
X11375000Y85700000D03*
X11375000Y88300000D03*
%TD*%
M02*
