M48
; DRILL file {KiCad (5.1.9)-1} date 03/16/21 21:31:42
; FORMAT={-:-/ absolute / metric / decimal}
; #@! TF.CreationDate,2021-03-16T21:31:42+09:00
; #@! TF.GenerationSoftware,Kicad,Pcbnew,(5.1.9)-1
FMAT,2
METRIC
T1C0.300
T2C0.400
T3C0.500
T4C0.600
T5C0.700
T6C2.000
%
G90
G05
T1
X10.5Y89.5
X10.5Y73.5
X10.5Y57.5
X10.5Y41.5
X10.5Y25.5
X10.5Y9.5
X12.0Y88.4
X12.0Y72.4
X12.0Y56.4
X12.0Y40.4
X12.0Y24.4
X12.0Y8.4
X13.4Y85.2
X13.4Y69.2
X13.4Y53.2
X13.4Y37.2
X13.4Y21.2
X13.4Y5.2
X13.9Y88.0
X13.9Y72.0
X13.9Y56.0
X13.9Y40.0
X13.9Y24.0
X13.9Y8.0
X15.6Y86.0
X15.6Y70.0
X15.6Y54.0
X15.6Y38.0
X15.6Y22.0
X15.6Y6.0
X17.398Y89.0
X17.398Y73.0
X17.398Y57.0
X17.398Y41.0
X17.398Y25.0
X17.398Y9.0
X17.9Y89.7
X17.9Y73.7
X17.9Y57.7
X17.9Y41.7
X17.9Y25.7
X17.9Y9.7
X19.1Y84.3
X19.1Y68.3
X19.1Y52.3
X19.1Y36.3
X19.1Y20.3
X19.1Y4.3
X20.0Y87.0
X20.0Y71.0
X20.0Y55.0
X20.0Y39.0
X20.0Y23.0
X20.0Y7.0
X21.5Y88.7
X21.5Y72.7
X21.5Y56.7
X21.5Y40.7
X21.5Y24.7
X21.5Y8.7
X22.9Y85.9
X22.9Y69.9
X22.9Y53.9
X22.9Y37.9
X22.9Y21.9
X22.9Y5.9
X23.8Y87.0
X23.8Y71.0
X23.8Y55.0
X23.8Y39.0
X23.8Y23.0
X23.8Y7.0
X28.0Y86.3
X28.0Y70.3
X28.0Y54.3
X28.0Y38.3
X28.0Y22.3
X28.0Y6.3
X28.25Y91.25
X28.25Y75.25
X28.25Y59.25
X28.25Y43.25
X28.25Y27.25
X28.25Y11.25
X34.5Y82.75
X34.5Y66.75
X34.5Y50.75
X34.5Y34.75
X34.5Y18.75
X34.5Y2.75
X34.75Y86.6
X34.75Y70.6
X34.75Y54.6
X34.75Y38.6
X34.75Y22.6
X34.75Y6.6
X35.25Y88.25
X35.25Y72.25
X35.25Y56.25
X35.25Y40.25
X35.25Y24.25
X35.25Y8.25
X36.0Y87.7
X36.0Y71.7
X36.0Y55.7
X36.0Y39.7
X36.0Y23.7
X36.0Y7.7
X38.75Y83.25
X38.75Y67.25
X38.75Y51.25
X38.75Y35.25
X38.75Y19.25
X38.75Y3.25
X40.5Y83.75
X40.5Y67.75
X40.5Y51.75
X40.5Y35.75
X40.5Y19.75
X40.5Y3.75
X42.6Y88.2
X42.6Y72.2
X42.6Y56.2
X42.6Y40.2
X42.6Y24.2
X42.6Y8.2
X43.5Y84.5
X43.5Y68.5
X43.5Y52.5
X43.5Y36.5
X43.5Y20.5
X43.5Y4.5
X44.25Y90.25
X44.25Y74.25
X44.25Y58.25
X44.25Y42.25
X44.25Y26.25
X44.25Y10.25
X46.25Y90.4
X46.25Y74.4
X46.25Y58.4
X46.25Y42.4
X46.25Y26.4
X46.25Y10.4
X46.5Y86.5
X46.5Y70.5
X46.5Y54.5
X46.5Y38.5
X46.5Y22.5
X46.5Y6.5
X48.25Y87.5
X48.25Y86.75
X48.25Y83.25
X48.25Y71.5
X48.25Y70.75
X48.25Y67.25
X48.25Y55.5
X48.25Y54.75
X48.25Y51.25
X48.25Y39.5
X48.25Y38.75
X48.25Y35.25
X48.25Y23.5
X48.25Y22.75
X48.25Y19.25
X48.25Y7.5
X48.25Y6.75
X48.25Y3.25
X48.5Y84.25
X48.5Y68.25
X48.5Y52.25
X48.5Y36.25
X48.5Y20.25
X48.5Y4.25
X54.4Y82.7
X54.4Y66.7
X54.4Y50.7
X54.4Y34.7
X54.4Y18.7
X54.4Y2.7
X54.6Y89.3
X54.6Y73.3
X54.6Y57.3
X54.6Y41.3
X54.6Y25.3
X54.6Y9.3
X54.8Y90.2
X54.8Y74.2
X54.8Y58.2
X54.8Y42.2
X54.8Y26.2
X54.8Y10.2
X54.9Y92.9
X54.9Y76.9
X54.9Y60.9
X54.9Y44.9
X54.9Y28.9
X54.9Y12.9
X55.2Y85.6
X55.2Y83.8
X55.2Y69.6
X55.2Y67.8
X55.2Y53.6
X55.2Y51.8
X55.2Y37.6
X55.2Y35.8
X55.2Y21.6
X55.2Y19.8
X55.2Y5.6
X55.2Y3.8
X55.25Y81.55
X55.25Y65.55
X55.25Y49.55
X55.25Y33.55
X55.25Y17.55
X55.25Y1.55
X55.6Y92.9
X55.6Y83.2
X55.6Y76.9
X55.6Y67.2
X55.6Y60.9
X55.6Y51.2
X55.6Y44.9
X55.6Y35.2
X55.6Y28.9
X55.6Y19.2
X55.6Y12.9
X55.6Y3.2
X55.9Y89.2
X55.9Y88.6
X55.9Y73.2
X55.9Y72.6
X55.9Y57.2
X55.9Y56.6
X55.9Y41.2
X55.9Y40.6
X55.9Y25.2
X55.9Y24.6
X55.9Y9.2
X55.9Y8.6
X56.5Y85.4
X56.5Y83.5
X56.5Y69.4
X56.5Y67.5
X56.5Y53.4
X56.5Y51.5
X56.5Y37.4
X56.5Y35.5
X56.5Y21.4
X56.5Y19.5
X56.5Y5.4
X56.5Y3.5
X56.6Y90.5
X56.6Y74.5
X56.6Y58.5
X56.6Y42.5
X56.6Y26.5
X56.6Y10.5
X57.3Y85.1
X57.3Y69.1
X57.3Y53.1
X57.3Y37.1
X57.3Y21.1
X57.3Y5.1
X57.5Y88.8
X57.5Y72.8
X57.5Y56.8
X57.5Y40.8
X57.5Y24.8
X57.5Y8.8
X57.7Y81.55
X57.7Y65.55
X57.7Y49.55
X57.7Y33.55
X57.7Y17.55
X57.7Y1.55
X57.8Y83.5
X57.8Y67.5
X57.8Y51.5
X57.8Y35.5
X57.8Y19.5
X57.8Y3.5
X58.25Y86.5
X58.25Y70.5
X58.25Y54.5
X58.25Y38.5
X58.25Y22.5
X58.25Y6.5
X58.3Y89.9
X58.3Y73.9
X58.3Y57.9
X58.3Y41.9
X58.3Y25.9
X58.3Y9.9
X59.0Y83.2
X59.0Y67.2
X59.0Y51.2
X59.0Y35.2
X59.0Y19.2
X59.0Y3.2
X59.25Y87.5
X59.25Y71.5
X59.25Y55.5
X59.25Y39.5
X59.25Y23.5
X59.25Y7.5
X59.5Y89.4
X59.5Y73.4
X59.5Y57.4
X59.5Y41.4
X59.5Y25.4
X59.5Y9.4
X59.9Y85.0
X59.9Y82.6
X59.9Y69.0
X59.9Y66.6
X59.9Y53.0
X59.9Y50.6
X59.9Y37.0
X59.9Y34.6
X59.9Y21.0
X59.9Y18.6
X59.9Y5.0
X59.9Y2.6
X61.8Y87.1
X61.8Y71.1
X61.8Y55.1
X61.8Y39.1
X61.8Y23.1
X61.8Y7.1
X62.2Y84.0
X62.2Y68.0
X62.2Y52.0
X62.2Y36.0
X62.2Y20.0
X62.2Y4.0
X63.0Y86.3
X63.0Y70.3
X63.0Y54.3
X63.0Y38.3
X63.0Y22.3
X63.0Y6.3
X64.1Y88.0
X64.1Y72.0
X64.1Y56.0
X64.1Y40.0
X64.1Y24.0
X64.1Y8.0
X65.1Y85.8
X65.1Y69.8
X65.1Y53.8
X65.1Y37.8
X65.1Y21.8
X65.1Y5.8
X65.9Y84.5
X65.9Y68.5
X65.9Y52.5
X65.9Y36.5
X65.9Y20.5
X65.9Y4.5
X67.0Y87.0
X67.0Y71.0
X67.0Y55.0
X67.0Y39.0
X67.0Y23.0
X67.0Y7.0
X67.3Y86.1
X67.3Y70.1
X67.3Y54.1
X67.3Y38.1
X67.3Y22.1
X67.3Y6.1
X69.4Y86.7
X69.4Y70.7
X69.4Y54.7
X69.4Y38.7
X69.4Y22.7
X69.4Y6.7
X69.5Y89.5
X69.5Y73.5
X69.5Y57.5
X69.5Y41.5
X69.5Y25.5
X69.5Y9.5
X69.7Y85.9
X69.7Y69.9
X69.7Y53.9
X69.7Y37.9
X69.7Y21.9
X69.7Y5.9
X70.1Y88.4
X70.1Y72.4
X70.1Y56.4
X70.1Y40.4
X70.1Y24.4
X70.1Y8.4
X70.9Y88.4
X70.9Y72.4
X70.9Y56.4
X70.9Y40.4
X70.9Y24.4
X70.9Y8.4
X71.0Y87.1
X71.0Y71.1
X71.0Y55.1
X71.0Y39.1
X71.0Y23.1
X71.0Y7.1
X71.2Y85.6
X71.2Y69.6
X71.2Y53.6
X71.2Y37.6
X71.2Y21.6
X71.2Y5.6
X73.0Y84.9
X73.0Y68.9
X73.0Y52.9
X73.0Y36.9
X73.0Y20.9
X73.0Y4.9
T2
X12.0Y87.4
X12.0Y71.4
X12.0Y55.4
X12.0Y39.4
X12.0Y23.4
X12.0Y7.4
X22.3Y85.1
X22.3Y69.1
X22.3Y53.1
X22.3Y37.1
X22.3Y21.1
X22.3Y5.1
X24.3Y90.4
X24.3Y89.5
X24.3Y74.4
X24.3Y73.5
X24.3Y58.4
X24.3Y57.5
X24.3Y42.4
X24.3Y41.5
X24.3Y26.4
X24.3Y25.5
X24.3Y10.4
X24.3Y9.5
X24.5Y82.5
X24.5Y66.5
X24.5Y50.5
X24.5Y34.5
X24.5Y18.5
X24.5Y2.5
X25.4Y82.5
X25.4Y66.5
X25.4Y50.5
X25.4Y34.5
X25.4Y18.5
X25.4Y2.5
X33.75Y81.25
X33.75Y65.25
X33.75Y49.25
X33.75Y33.25
X33.75Y17.25
X33.75Y1.25
X36.5Y91.25
X36.5Y75.25
X36.5Y59.25
X36.5Y43.25
X36.5Y27.25
X36.5Y11.25
X37.75Y91.0
X37.75Y75.0
X37.75Y59.0
X37.75Y43.0
X37.75Y27.0
X37.75Y11.0
X38.0Y87.75
X38.0Y86.25
X38.0Y71.75
X38.0Y70.25
X38.0Y55.75
X38.0Y54.25
X38.0Y39.75
X38.0Y38.25
X38.0Y23.75
X38.0Y22.25
X38.0Y7.75
X38.0Y6.25
X48.5Y92.75
X48.5Y76.75
X48.5Y60.75
X48.5Y44.75
X48.5Y28.75
X48.5Y12.75
T3
X35.5Y85.0
X35.5Y69.0
X35.5Y53.0
X35.5Y37.0
X35.5Y21.0
X35.5Y5.0
X37.5Y89.75
X37.5Y73.75
X37.5Y57.75
X37.5Y41.75
X37.5Y25.75
X37.5Y9.75
X40.5Y88.5
X40.5Y85.75
X40.5Y72.5
X40.5Y69.75
X40.5Y56.5
X40.5Y53.75
X40.5Y40.5
X40.5Y37.75
X40.5Y24.5
X40.5Y21.75
X40.5Y8.5
X40.5Y5.75
T4
X12.25Y89.5
X12.25Y84.5
X12.25Y73.5
X12.25Y68.5
X12.25Y57.5
X12.25Y52.5
X12.25Y41.5
X12.25Y36.5
X12.25Y25.5
X12.25Y20.5
X12.25Y9.5
X12.25Y4.5
X70.75Y89.5
X70.75Y84.5
X70.75Y73.5
X70.75Y68.5
X70.75Y57.5
X70.75Y52.5
X70.75Y41.5
X70.75Y36.5
X70.75Y25.5
X70.75Y20.5
X70.75Y9.5
X70.75Y4.5
T5
X58.115Y91.0
X58.115Y75.0
X58.115Y59.0
X58.115Y43.0
X58.115Y27.0
X58.115Y11.0
X59.385Y91.0
X59.385Y75.0
X59.385Y59.0
X59.385Y43.0
X59.385Y27.0
X59.385Y11.0
T6
X3.5Y87.0
X3.5Y71.0
X3.5Y55.0
X3.5Y39.0
X3.5Y23.0
X3.5Y7.0
X79.5Y87.0
X79.5Y71.0
X79.5Y55.0
X79.5Y39.0
X79.5Y23.0
X79.5Y7.0
T0
M30
