M48
; DRILL file {KiCad (5.1.9)-1} date 04/24/21 22:34:35
; FORMAT={-:-/ absolute / metric / decimal}
; #@! TF.CreationDate,2021-04-24T22:34:35+09:00
; #@! TF.GenerationSoftware,Kicad,Pcbnew,(5.1.9)-1
FMAT,2
METRIC
T1C0.300
T2C0.400
T3C0.500
T4C0.600
T5C0.700
T6C2.000
%
G90
G05
T1
X111.5Y-38.0
X111.5Y-54.0
X111.5Y-70.0
X111.5Y-86.0
X111.5Y-102.0
X111.5Y-118.0
X113.0Y-39.1
X113.0Y-55.1
X113.0Y-71.1
X113.0Y-87.1
X113.0Y-103.1
X113.0Y-119.1
X114.4Y-42.3
X114.4Y-58.3
X114.4Y-74.3
X114.4Y-90.3
X114.4Y-106.3
X114.4Y-122.3
X114.9Y-39.5
X114.9Y-55.5
X114.9Y-71.5
X114.9Y-87.5
X114.9Y-103.5
X114.9Y-119.5
X116.6Y-41.5
X116.6Y-57.5
X116.6Y-73.5
X116.6Y-89.5
X116.6Y-105.5
X116.6Y-121.5
X118.398Y-38.5
X118.398Y-54.5
X118.398Y-70.5
X118.398Y-86.5
X118.398Y-102.5
X118.398Y-118.5
X118.9Y-37.8
X118.9Y-53.8
X118.9Y-69.8
X118.9Y-85.8
X118.9Y-101.8
X118.9Y-117.8
X120.1Y-43.2
X120.1Y-59.2
X120.1Y-75.2
X120.1Y-91.2
X120.1Y-107.2
X120.1Y-123.2
X121.0Y-40.5
X121.0Y-56.5
X121.0Y-72.5
X121.0Y-88.5
X121.0Y-104.5
X121.0Y-120.5
X122.5Y-38.8
X122.5Y-54.8
X122.5Y-70.8
X122.5Y-86.8
X122.5Y-102.8
X122.5Y-118.8
X123.9Y-41.6
X123.9Y-57.6
X123.9Y-73.6
X123.9Y-89.6
X123.9Y-105.6
X123.9Y-121.6
X124.8Y-40.5
X124.8Y-56.5
X124.8Y-72.5
X124.8Y-88.5
X124.8Y-104.5
X124.8Y-120.5
X129.0Y-41.2
X129.0Y-57.2
X129.0Y-73.2
X129.0Y-89.2
X129.0Y-105.2
X129.0Y-121.2
X129.25Y-36.25
X129.25Y-52.25
X129.25Y-68.25
X129.25Y-84.25
X129.25Y-100.25
X129.25Y-116.25
X135.5Y-44.75
X135.5Y-60.75
X135.5Y-76.75
X135.5Y-92.75
X135.5Y-108.75
X135.5Y-124.75
X135.75Y-40.9
X135.75Y-56.9
X135.75Y-72.9
X135.75Y-88.9
X135.75Y-104.9
X135.75Y-120.9
X136.25Y-39.25
X136.25Y-55.25
X136.25Y-71.25
X136.25Y-87.25
X136.25Y-103.25
X136.25Y-119.25
X137.0Y-39.8
X137.0Y-55.8
X137.0Y-71.8
X137.0Y-87.8
X137.0Y-103.8
X137.0Y-119.8
X139.75Y-44.25
X139.75Y-60.25
X139.75Y-76.25
X139.75Y-92.25
X139.75Y-108.25
X139.75Y-124.25
X141.5Y-43.75
X141.5Y-59.75
X141.5Y-75.75
X141.5Y-91.75
X141.5Y-107.75
X141.5Y-123.75
X143.6Y-39.3
X143.6Y-55.3
X143.6Y-71.3
X143.6Y-87.3
X143.6Y-103.3
X143.6Y-119.3
X144.5Y-43.0
X144.5Y-59.0
X144.5Y-75.0
X144.5Y-91.0
X144.5Y-107.0
X144.5Y-123.0
X145.25Y-37.25
X145.25Y-53.25
X145.25Y-69.25
X145.25Y-85.25
X145.25Y-101.25
X145.25Y-117.25
X147.25Y-37.1
X147.25Y-53.1
X147.25Y-69.1
X147.25Y-85.1
X147.25Y-101.1
X147.25Y-117.1
X147.5Y-41.0
X147.5Y-57.0
X147.5Y-73.0
X147.5Y-89.0
X147.5Y-105.0
X147.5Y-121.0
X149.25Y-40.0
X149.25Y-40.75
X149.25Y-44.25
X149.25Y-56.0
X149.25Y-56.75
X149.25Y-60.25
X149.25Y-72.0
X149.25Y-72.75
X149.25Y-76.25
X149.25Y-88.0
X149.25Y-88.75
X149.25Y-92.25
X149.25Y-104.0
X149.25Y-104.75
X149.25Y-108.25
X149.25Y-120.0
X149.25Y-120.75
X149.25Y-124.25
X149.5Y-43.25
X149.5Y-59.25
X149.5Y-75.25
X149.5Y-91.25
X149.5Y-107.25
X149.5Y-123.25
X155.2Y-43.7
X155.2Y-59.7
X155.2Y-75.7
X155.2Y-91.7
X155.2Y-107.7
X155.2Y-123.7
X155.3Y-44.9
X155.3Y-60.9
X155.3Y-76.9
X155.3Y-92.9
X155.3Y-108.9
X155.3Y-124.9
X155.6Y-38.2
X155.6Y-54.2
X155.6Y-70.2
X155.6Y-86.2
X155.6Y-102.2
X155.6Y-118.2
X155.8Y-37.3
X155.8Y-53.3
X155.8Y-69.3
X155.8Y-85.3
X155.8Y-101.3
X155.8Y-117.3
X156.2Y-41.9
X156.2Y-57.9
X156.2Y-73.9
X156.2Y-89.9
X156.2Y-105.9
X156.2Y-121.9
X156.25Y-45.95
X156.25Y-61.95
X156.25Y-77.95
X156.25Y-93.95
X156.25Y-109.95
X156.25Y-125.95
X156.5Y-44.6
X156.5Y-60.6
X156.5Y-76.6
X156.5Y-92.6
X156.5Y-108.6
X156.5Y-124.6
X156.6Y-34.5
X156.6Y-50.5
X156.6Y-66.5
X156.6Y-82.5
X156.6Y-98.5
X156.6Y-114.5
X156.9Y-38.3
X156.9Y-38.9
X156.9Y-54.3
X156.9Y-54.9
X156.9Y-70.3
X156.9Y-70.9
X156.9Y-86.3
X156.9Y-86.9
X156.9Y-102.3
X156.9Y-102.9
X156.9Y-118.3
X156.9Y-118.9
X157.5Y-42.1
X157.5Y-44.0
X157.5Y-58.1
X157.5Y-60.0
X157.5Y-74.1
X157.5Y-76.0
X157.5Y-90.1
X157.5Y-92.0
X157.5Y-106.1
X157.5Y-108.0
X157.5Y-122.1
X157.5Y-124.0
X157.6Y-37.0
X157.6Y-53.0
X157.6Y-69.0
X157.6Y-85.0
X157.6Y-101.0
X157.6Y-117.0
X158.3Y-42.4
X158.3Y-58.4
X158.3Y-74.4
X158.3Y-90.4
X158.3Y-106.4
X158.3Y-122.4
X158.4Y-34.5
X158.4Y-50.5
X158.4Y-66.5
X158.4Y-82.5
X158.4Y-98.5
X158.4Y-114.5
X158.5Y-38.7
X158.5Y-54.7
X158.5Y-70.7
X158.5Y-86.7
X158.5Y-102.7
X158.5Y-118.7
X158.7Y-45.95
X158.7Y-61.95
X158.7Y-77.95
X158.7Y-93.95
X158.7Y-109.95
X158.7Y-125.95
X158.8Y-44.0
X158.8Y-60.0
X158.8Y-76.0
X158.8Y-92.0
X158.8Y-108.0
X158.8Y-124.0
X159.25Y-41.0
X159.25Y-57.0
X159.25Y-73.0
X159.25Y-89.0
X159.25Y-105.0
X159.25Y-121.0
X159.3Y-37.6
X159.3Y-53.6
X159.3Y-69.6
X159.3Y-85.6
X159.3Y-101.6
X159.3Y-117.6
X160.0Y-44.3
X160.0Y-60.3
X160.0Y-76.3
X160.0Y-92.3
X160.0Y-108.3
X160.0Y-124.3
X160.25Y-40.0
X160.25Y-56.0
X160.25Y-72.0
X160.25Y-88.0
X160.25Y-104.0
X160.25Y-120.0
X160.5Y-38.1
X160.5Y-54.1
X160.5Y-70.1
X160.5Y-86.1
X160.5Y-102.1
X160.5Y-118.1
X160.9Y-42.5
X160.9Y-44.9
X160.9Y-58.5
X160.9Y-60.9
X160.9Y-74.5
X160.9Y-76.9
X160.9Y-90.5
X160.9Y-92.9
X160.9Y-106.5
X160.9Y-108.9
X160.9Y-122.5
X160.9Y-124.9
X162.8Y-40.4
X162.8Y-56.4
X162.8Y-72.4
X162.8Y-88.4
X162.8Y-104.4
X162.8Y-120.4
X163.2Y-43.5
X163.2Y-59.5
X163.2Y-75.5
X163.2Y-91.5
X163.2Y-107.5
X163.2Y-123.5
X164.0Y-41.2
X164.0Y-57.2
X164.0Y-73.2
X164.0Y-89.2
X164.0Y-105.2
X164.0Y-121.2
X165.1Y-39.5
X165.1Y-55.5
X165.1Y-71.5
X165.1Y-87.5
X165.1Y-103.5
X165.1Y-119.5
X166.1Y-41.7
X166.1Y-57.7
X166.1Y-73.7
X166.1Y-89.7
X166.1Y-105.7
X166.1Y-121.7
X166.9Y-43.0
X166.9Y-59.0
X166.9Y-75.0
X166.9Y-91.0
X166.9Y-107.0
X166.9Y-123.0
X168.0Y-40.5
X168.0Y-56.5
X168.0Y-72.5
X168.0Y-88.5
X168.0Y-104.5
X168.0Y-120.5
X168.3Y-41.4
X168.3Y-57.4
X168.3Y-73.4
X168.3Y-89.4
X168.3Y-105.4
X168.3Y-121.4
X170.4Y-40.8
X170.4Y-56.8
X170.4Y-72.8
X170.4Y-88.8
X170.4Y-104.8
X170.4Y-120.8
X170.5Y-38.0
X170.5Y-54.0
X170.5Y-70.0
X170.5Y-86.0
X170.5Y-102.0
X170.5Y-118.0
X170.7Y-41.6
X170.7Y-57.6
X170.7Y-73.6
X170.7Y-89.6
X170.7Y-105.6
X170.7Y-121.6
X171.1Y-39.1
X171.1Y-55.1
X171.1Y-71.1
X171.1Y-87.1
X171.1Y-103.1
X171.1Y-119.1
X171.9Y-39.1
X171.9Y-55.1
X171.9Y-71.1
X171.9Y-87.1
X171.9Y-103.1
X171.9Y-119.1
X172.0Y-40.4
X172.0Y-56.4
X172.0Y-72.4
X172.0Y-88.4
X172.0Y-104.4
X172.0Y-120.4
X172.2Y-41.9
X172.2Y-57.9
X172.2Y-73.9
X172.2Y-89.9
X172.2Y-105.9
X172.2Y-121.9
X174.0Y-42.6
X174.0Y-58.6
X174.0Y-74.6
X174.0Y-90.6
X174.0Y-106.6
X174.0Y-122.6
T2
X113.0Y-40.1
X113.0Y-56.1
X113.0Y-72.1
X113.0Y-88.1
X113.0Y-104.1
X113.0Y-120.1
X123.3Y-42.4
X123.3Y-58.4
X123.3Y-74.4
X123.3Y-90.4
X123.3Y-106.4
X123.3Y-122.4
X125.3Y-37.1
X125.3Y-38.0
X125.3Y-53.1
X125.3Y-54.0
X125.3Y-69.1
X125.3Y-70.0
X125.3Y-85.1
X125.3Y-86.0
X125.3Y-101.1
X125.3Y-102.0
X125.3Y-117.1
X125.3Y-118.0
X125.5Y-45.0
X125.5Y-61.0
X125.5Y-77.0
X125.5Y-93.0
X125.5Y-109.0
X125.5Y-125.0
X126.4Y-45.0
X126.4Y-61.0
X126.4Y-77.0
X126.4Y-93.0
X126.4Y-109.0
X126.4Y-125.0
X134.75Y-46.25
X134.75Y-62.25
X134.75Y-78.25
X134.75Y-94.25
X134.75Y-110.25
X134.75Y-126.25
X137.5Y-36.25
X137.5Y-52.25
X137.5Y-68.25
X137.5Y-84.25
X137.5Y-100.25
X137.5Y-116.25
X138.75Y-36.5
X138.75Y-52.5
X138.75Y-68.5
X138.75Y-84.5
X138.75Y-100.5
X138.75Y-116.5
X139.0Y-39.75
X139.0Y-41.25
X139.0Y-55.75
X139.0Y-57.25
X139.0Y-71.75
X139.0Y-73.25
X139.0Y-87.75
X139.0Y-89.25
X139.0Y-103.75
X139.0Y-105.25
X139.0Y-119.75
X139.0Y-121.25
X149.5Y-34.75
X149.5Y-50.75
X149.5Y-66.75
X149.5Y-82.75
X149.5Y-98.75
X149.5Y-114.75
T3
X136.5Y-42.5
X136.5Y-58.5
X136.5Y-74.5
X136.5Y-90.5
X136.5Y-106.5
X136.5Y-122.5
X138.5Y-37.75
X138.5Y-53.75
X138.5Y-69.75
X138.5Y-85.75
X138.5Y-101.75
X138.5Y-117.75
X141.5Y-39.0
X141.5Y-41.75
X141.5Y-55.0
X141.5Y-57.75
X141.5Y-71.0
X141.5Y-73.75
X141.5Y-87.0
X141.5Y-89.75
X141.5Y-103.0
X141.5Y-105.75
X141.5Y-119.0
X141.5Y-121.75
T4
X113.25Y-38.0
X113.25Y-43.0
X113.25Y-54.0
X113.25Y-59.0
X113.25Y-70.0
X113.25Y-75.0
X113.25Y-86.0
X113.25Y-91.0
X113.25Y-102.0
X113.25Y-107.0
X113.25Y-118.0
X113.25Y-123.0
X171.75Y-38.0
X171.75Y-43.0
X171.75Y-54.0
X171.75Y-59.0
X171.75Y-70.0
X171.75Y-75.0
X171.75Y-86.0
X171.75Y-91.0
X171.75Y-102.0
X171.75Y-107.0
X171.75Y-118.0
X171.75Y-123.0
T5
X159.115Y-36.5
X159.115Y-52.5
X159.115Y-68.5
X159.115Y-84.5
X159.115Y-100.5
X159.115Y-116.5
X160.385Y-36.5
X160.385Y-52.5
X160.385Y-68.5
X160.385Y-84.5
X160.385Y-100.5
X160.385Y-116.5
T6
X104.5Y-40.5
X104.5Y-56.5
X104.5Y-72.5
X104.5Y-88.5
X104.5Y-104.5
X104.5Y-120.5
X180.5Y-40.5
X180.5Y-56.5
X180.5Y-72.5
X180.5Y-88.5
X180.5Y-104.5
X180.5Y-120.5
T0
M30
