%TF.GenerationSoftware,KiCad,Pcbnew,(5.1.9)-1*%
%TF.CreationDate,2021-05-10T22:53:10+09:00*%
%TF.ProjectId,motordecoder2-K3057,6d6f746f-7264-4656-936f-646572322d4b,rev?*%
%TF.SameCoordinates,Original*%
%TF.FileFunction,Soldermask,Bot*%
%TF.FilePolarity,Negative*%
%FSLAX46Y46*%
G04 Gerber Fmt 4.6, Leading zero omitted, Abs format (unit mm)*
G04 Created by KiCad (PCBNEW (5.1.9)-1) date 2021-05-10 22:53:10*
%MOMM*%
%LPD*%
G01*
G04 APERTURE LIST*
%ADD10C,2.100000*%
G04 APERTURE END LIST*
%TO.C,P28*%
G36*
G01*
X153950000Y-127500000D02*
X153950000Y-125500000D01*
G75*
G02*
X154000000Y-125450000I50000J0D01*
G01*
X162000000Y-125450000D01*
G75*
G02*
X162050000Y-125500000I0J-50000D01*
G01*
X162050000Y-127500000D01*
G75*
G02*
X162000000Y-127550000I-50000J0D01*
G01*
X154000000Y-127550000D01*
G75*
G02*
X153950000Y-127500000I0J50000D01*
G01*
G37*
%TD*%
%TO.C,P28*%
G36*
G01*
X153950000Y-111500000D02*
X153950000Y-109500000D01*
G75*
G02*
X154000000Y-109450000I50000J0D01*
G01*
X162000000Y-109450000D01*
G75*
G02*
X162050000Y-109500000I0J-50000D01*
G01*
X162050000Y-111500000D01*
G75*
G02*
X162000000Y-111550000I-50000J0D01*
G01*
X154000000Y-111550000D01*
G75*
G02*
X153950000Y-111500000I0J50000D01*
G01*
G37*
%TD*%
%TO.C,P28*%
G36*
G01*
X153950000Y-95500000D02*
X153950000Y-93500000D01*
G75*
G02*
X154000000Y-93450000I50000J0D01*
G01*
X162000000Y-93450000D01*
G75*
G02*
X162050000Y-93500000I0J-50000D01*
G01*
X162050000Y-95500000D01*
G75*
G02*
X162000000Y-95550000I-50000J0D01*
G01*
X154000000Y-95550000D01*
G75*
G02*
X153950000Y-95500000I0J50000D01*
G01*
G37*
%TD*%
%TO.C,P28*%
G36*
G01*
X153950000Y-79500000D02*
X153950000Y-77500000D01*
G75*
G02*
X154000000Y-77450000I50000J0D01*
G01*
X162000000Y-77450000D01*
G75*
G02*
X162050000Y-77500000I0J-50000D01*
G01*
X162050000Y-79500000D01*
G75*
G02*
X162000000Y-79550000I-50000J0D01*
G01*
X154000000Y-79550000D01*
G75*
G02*
X153950000Y-79500000I0J50000D01*
G01*
G37*
%TD*%
%TO.C,P28*%
G36*
G01*
X153950000Y-63500000D02*
X153950000Y-61500000D01*
G75*
G02*
X154000000Y-61450000I50000J0D01*
G01*
X162000000Y-61450000D01*
G75*
G02*
X162050000Y-61500000I0J-50000D01*
G01*
X162050000Y-63500000D01*
G75*
G02*
X162000000Y-63550000I-50000J0D01*
G01*
X154000000Y-63550000D01*
G75*
G02*
X153950000Y-63500000I0J50000D01*
G01*
G37*
%TD*%
%TO.C,P29*%
G36*
G01*
X129450000Y-119000000D02*
X129450000Y-117000000D01*
G75*
G02*
X129500000Y-116950000I50000J0D01*
G01*
X137500000Y-116950000D01*
G75*
G02*
X137550000Y-117000000I0J-50000D01*
G01*
X137550000Y-119000000D01*
G75*
G02*
X137500000Y-119050000I-50000J0D01*
G01*
X129500000Y-119050000D01*
G75*
G02*
X129450000Y-119000000I0J50000D01*
G01*
G37*
%TD*%
%TO.C,P29*%
G36*
G01*
X129450000Y-103000000D02*
X129450000Y-101000000D01*
G75*
G02*
X129500000Y-100950000I50000J0D01*
G01*
X137500000Y-100950000D01*
G75*
G02*
X137550000Y-101000000I0J-50000D01*
G01*
X137550000Y-103000000D01*
G75*
G02*
X137500000Y-103050000I-50000J0D01*
G01*
X129500000Y-103050000D01*
G75*
G02*
X129450000Y-103000000I0J50000D01*
G01*
G37*
%TD*%
%TO.C,P29*%
G36*
G01*
X129450000Y-87000000D02*
X129450000Y-85000000D01*
G75*
G02*
X129500000Y-84950000I50000J0D01*
G01*
X137500000Y-84950000D01*
G75*
G02*
X137550000Y-85000000I0J-50000D01*
G01*
X137550000Y-87000000D01*
G75*
G02*
X137500000Y-87050000I-50000J0D01*
G01*
X129500000Y-87050000D01*
G75*
G02*
X129450000Y-87000000I0J50000D01*
G01*
G37*
%TD*%
%TO.C,P29*%
G36*
G01*
X129450000Y-71000000D02*
X129450000Y-69000000D01*
G75*
G02*
X129500000Y-68950000I50000J0D01*
G01*
X137500000Y-68950000D01*
G75*
G02*
X137550000Y-69000000I0J-50000D01*
G01*
X137550000Y-71000000D01*
G75*
G02*
X137500000Y-71050000I-50000J0D01*
G01*
X129500000Y-71050000D01*
G75*
G02*
X129450000Y-71000000I0J50000D01*
G01*
G37*
%TD*%
%TO.C,P29*%
G36*
G01*
X129450000Y-55000000D02*
X129450000Y-53000000D01*
G75*
G02*
X129500000Y-52950000I50000J0D01*
G01*
X137500000Y-52950000D01*
G75*
G02*
X137550000Y-53000000I0J-50000D01*
G01*
X137550000Y-55000000D01*
G75*
G02*
X137500000Y-55050000I-50000J0D01*
G01*
X129500000Y-55050000D01*
G75*
G02*
X129450000Y-55000000I0J50000D01*
G01*
G37*
%TD*%
%TO.C,P24*%
G36*
G01*
X153950000Y-115500000D02*
X153950000Y-113500000D01*
G75*
G02*
X154000000Y-113450000I50000J0D01*
G01*
X162000000Y-113450000D01*
G75*
G02*
X162050000Y-113500000I0J-50000D01*
G01*
X162050000Y-115500000D01*
G75*
G02*
X162000000Y-115550000I-50000J0D01*
G01*
X154000000Y-115550000D01*
G75*
G02*
X153950000Y-115500000I0J50000D01*
G01*
G37*
%TD*%
%TO.C,P24*%
G36*
G01*
X153950000Y-99500000D02*
X153950000Y-97500000D01*
G75*
G02*
X154000000Y-97450000I50000J0D01*
G01*
X162000000Y-97450000D01*
G75*
G02*
X162050000Y-97500000I0J-50000D01*
G01*
X162050000Y-99500000D01*
G75*
G02*
X162000000Y-99550000I-50000J0D01*
G01*
X154000000Y-99550000D01*
G75*
G02*
X153950000Y-99500000I0J50000D01*
G01*
G37*
%TD*%
%TO.C,P24*%
G36*
G01*
X153950000Y-83500000D02*
X153950000Y-81500000D01*
G75*
G02*
X154000000Y-81450000I50000J0D01*
G01*
X162000000Y-81450000D01*
G75*
G02*
X162050000Y-81500000I0J-50000D01*
G01*
X162050000Y-83500000D01*
G75*
G02*
X162000000Y-83550000I-50000J0D01*
G01*
X154000000Y-83550000D01*
G75*
G02*
X153950000Y-83500000I0J50000D01*
G01*
G37*
%TD*%
%TO.C,P24*%
G36*
G01*
X153950000Y-67500000D02*
X153950000Y-65500000D01*
G75*
G02*
X154000000Y-65450000I50000J0D01*
G01*
X162000000Y-65450000D01*
G75*
G02*
X162050000Y-65500000I0J-50000D01*
G01*
X162050000Y-67500000D01*
G75*
G02*
X162000000Y-67550000I-50000J0D01*
G01*
X154000000Y-67550000D01*
G75*
G02*
X153950000Y-67500000I0J50000D01*
G01*
G37*
%TD*%
%TO.C,P24*%
G36*
G01*
X153950000Y-51500000D02*
X153950000Y-49500000D01*
G75*
G02*
X154000000Y-49450000I50000J0D01*
G01*
X162000000Y-49450000D01*
G75*
G02*
X162050000Y-49500000I0J-50000D01*
G01*
X162050000Y-51500000D01*
G75*
G02*
X162000000Y-51550000I-50000J0D01*
G01*
X154000000Y-51550000D01*
G75*
G02*
X153950000Y-51500000I0J50000D01*
G01*
G37*
%TD*%
%TO.C,P31*%
G36*
G01*
X129450000Y-124000000D02*
X129450000Y-122000000D01*
G75*
G02*
X129500000Y-121950000I50000J0D01*
G01*
X137500000Y-121950000D01*
G75*
G02*
X137550000Y-122000000I0J-50000D01*
G01*
X137550000Y-124000000D01*
G75*
G02*
X137500000Y-124050000I-50000J0D01*
G01*
X129500000Y-124050000D01*
G75*
G02*
X129450000Y-124000000I0J50000D01*
G01*
G37*
%TD*%
%TO.C,P31*%
G36*
G01*
X129450000Y-108000000D02*
X129450000Y-106000000D01*
G75*
G02*
X129500000Y-105950000I50000J0D01*
G01*
X137500000Y-105950000D01*
G75*
G02*
X137550000Y-106000000I0J-50000D01*
G01*
X137550000Y-108000000D01*
G75*
G02*
X137500000Y-108050000I-50000J0D01*
G01*
X129500000Y-108050000D01*
G75*
G02*
X129450000Y-108000000I0J50000D01*
G01*
G37*
%TD*%
%TO.C,P31*%
G36*
G01*
X129450000Y-92000000D02*
X129450000Y-90000000D01*
G75*
G02*
X129500000Y-89950000I50000J0D01*
G01*
X137500000Y-89950000D01*
G75*
G02*
X137550000Y-90000000I0J-50000D01*
G01*
X137550000Y-92000000D01*
G75*
G02*
X137500000Y-92050000I-50000J0D01*
G01*
X129500000Y-92050000D01*
G75*
G02*
X129450000Y-92000000I0J50000D01*
G01*
G37*
%TD*%
%TO.C,P31*%
G36*
G01*
X129450000Y-76000000D02*
X129450000Y-74000000D01*
G75*
G02*
X129500000Y-73950000I50000J0D01*
G01*
X137500000Y-73950000D01*
G75*
G02*
X137550000Y-74000000I0J-50000D01*
G01*
X137550000Y-76000000D01*
G75*
G02*
X137500000Y-76050000I-50000J0D01*
G01*
X129500000Y-76050000D01*
G75*
G02*
X129450000Y-76000000I0J50000D01*
G01*
G37*
%TD*%
%TO.C,P31*%
G36*
G01*
X129450000Y-60000000D02*
X129450000Y-58000000D01*
G75*
G02*
X129500000Y-57950000I50000J0D01*
G01*
X137500000Y-57950000D01*
G75*
G02*
X137550000Y-58000000I0J-50000D01*
G01*
X137550000Y-60000000D01*
G75*
G02*
X137500000Y-60050000I-50000J0D01*
G01*
X129500000Y-60050000D01*
G75*
G02*
X129450000Y-60000000I0J50000D01*
G01*
G37*
%TD*%
%TO.C,P26*%
G36*
G01*
X133950000Y-127500000D02*
X133950000Y-125500000D01*
G75*
G02*
X134000000Y-125450000I50000J0D01*
G01*
X141000000Y-125450000D01*
G75*
G02*
X141050000Y-125500000I0J-50000D01*
G01*
X141050000Y-127500000D01*
G75*
G02*
X141000000Y-127550000I-50000J0D01*
G01*
X134000000Y-127550000D01*
G75*
G02*
X133950000Y-127500000I0J50000D01*
G01*
G37*
%TD*%
%TO.C,P26*%
G36*
G01*
X133950000Y-111500000D02*
X133950000Y-109500000D01*
G75*
G02*
X134000000Y-109450000I50000J0D01*
G01*
X141000000Y-109450000D01*
G75*
G02*
X141050000Y-109500000I0J-50000D01*
G01*
X141050000Y-111500000D01*
G75*
G02*
X141000000Y-111550000I-50000J0D01*
G01*
X134000000Y-111550000D01*
G75*
G02*
X133950000Y-111500000I0J50000D01*
G01*
G37*
%TD*%
%TO.C,P26*%
G36*
G01*
X133950000Y-95500000D02*
X133950000Y-93500000D01*
G75*
G02*
X134000000Y-93450000I50000J0D01*
G01*
X141000000Y-93450000D01*
G75*
G02*
X141050000Y-93500000I0J-50000D01*
G01*
X141050000Y-95500000D01*
G75*
G02*
X141000000Y-95550000I-50000J0D01*
G01*
X134000000Y-95550000D01*
G75*
G02*
X133950000Y-95500000I0J50000D01*
G01*
G37*
%TD*%
%TO.C,P26*%
G36*
G01*
X133950000Y-79500000D02*
X133950000Y-77500000D01*
G75*
G02*
X134000000Y-77450000I50000J0D01*
G01*
X141000000Y-77450000D01*
G75*
G02*
X141050000Y-77500000I0J-50000D01*
G01*
X141050000Y-79500000D01*
G75*
G02*
X141000000Y-79550000I-50000J0D01*
G01*
X134000000Y-79550000D01*
G75*
G02*
X133950000Y-79500000I0J50000D01*
G01*
G37*
%TD*%
%TO.C,P26*%
G36*
G01*
X133950000Y-63500000D02*
X133950000Y-61500000D01*
G75*
G02*
X134000000Y-61450000I50000J0D01*
G01*
X141000000Y-61450000D01*
G75*
G02*
X141050000Y-61500000I0J-50000D01*
G01*
X141050000Y-63500000D01*
G75*
G02*
X141000000Y-63550000I-50000J0D01*
G01*
X134000000Y-63550000D01*
G75*
G02*
X133950000Y-63500000I0J50000D01*
G01*
G37*
%TD*%
%TO.C,P27*%
G36*
G01*
X143950000Y-127500000D02*
X143950000Y-125500000D01*
G75*
G02*
X144000000Y-125450000I50000J0D01*
G01*
X151000000Y-125450000D01*
G75*
G02*
X151050000Y-125500000I0J-50000D01*
G01*
X151050000Y-127500000D01*
G75*
G02*
X151000000Y-127550000I-50000J0D01*
G01*
X144000000Y-127550000D01*
G75*
G02*
X143950000Y-127500000I0J50000D01*
G01*
G37*
%TD*%
%TO.C,P27*%
G36*
G01*
X143950000Y-111500000D02*
X143950000Y-109500000D01*
G75*
G02*
X144000000Y-109450000I50000J0D01*
G01*
X151000000Y-109450000D01*
G75*
G02*
X151050000Y-109500000I0J-50000D01*
G01*
X151050000Y-111500000D01*
G75*
G02*
X151000000Y-111550000I-50000J0D01*
G01*
X144000000Y-111550000D01*
G75*
G02*
X143950000Y-111500000I0J50000D01*
G01*
G37*
%TD*%
%TO.C,P27*%
G36*
G01*
X143950000Y-95500000D02*
X143950000Y-93500000D01*
G75*
G02*
X144000000Y-93450000I50000J0D01*
G01*
X151000000Y-93450000D01*
G75*
G02*
X151050000Y-93500000I0J-50000D01*
G01*
X151050000Y-95500000D01*
G75*
G02*
X151000000Y-95550000I-50000J0D01*
G01*
X144000000Y-95550000D01*
G75*
G02*
X143950000Y-95500000I0J50000D01*
G01*
G37*
%TD*%
%TO.C,P27*%
G36*
G01*
X143950000Y-79500000D02*
X143950000Y-77500000D01*
G75*
G02*
X144000000Y-77450000I50000J0D01*
G01*
X151000000Y-77450000D01*
G75*
G02*
X151050000Y-77500000I0J-50000D01*
G01*
X151050000Y-79500000D01*
G75*
G02*
X151000000Y-79550000I-50000J0D01*
G01*
X144000000Y-79550000D01*
G75*
G02*
X143950000Y-79500000I0J50000D01*
G01*
G37*
%TD*%
%TO.C,P27*%
G36*
G01*
X143950000Y-63500000D02*
X143950000Y-61500000D01*
G75*
G02*
X144000000Y-61450000I50000J0D01*
G01*
X151000000Y-61450000D01*
G75*
G02*
X151050000Y-61500000I0J-50000D01*
G01*
X151050000Y-63500000D01*
G75*
G02*
X151000000Y-63550000I-50000J0D01*
G01*
X144000000Y-63550000D01*
G75*
G02*
X143950000Y-63500000I0J50000D01*
G01*
G37*
%TD*%
%TO.C,P25*%
G36*
G01*
X122950000Y-127500000D02*
X122950000Y-125500000D01*
G75*
G02*
X123000000Y-125450000I50000J0D01*
G01*
X131000000Y-125450000D01*
G75*
G02*
X131050000Y-125500000I0J-50000D01*
G01*
X131050000Y-127500000D01*
G75*
G02*
X131000000Y-127550000I-50000J0D01*
G01*
X123000000Y-127550000D01*
G75*
G02*
X122950000Y-127500000I0J50000D01*
G01*
G37*
%TD*%
%TO.C,P25*%
G36*
G01*
X122950000Y-111500000D02*
X122950000Y-109500000D01*
G75*
G02*
X123000000Y-109450000I50000J0D01*
G01*
X131000000Y-109450000D01*
G75*
G02*
X131050000Y-109500000I0J-50000D01*
G01*
X131050000Y-111500000D01*
G75*
G02*
X131000000Y-111550000I-50000J0D01*
G01*
X123000000Y-111550000D01*
G75*
G02*
X122950000Y-111500000I0J50000D01*
G01*
G37*
%TD*%
%TO.C,P25*%
G36*
G01*
X122950000Y-95500000D02*
X122950000Y-93500000D01*
G75*
G02*
X123000000Y-93450000I50000J0D01*
G01*
X131000000Y-93450000D01*
G75*
G02*
X131050000Y-93500000I0J-50000D01*
G01*
X131050000Y-95500000D01*
G75*
G02*
X131000000Y-95550000I-50000J0D01*
G01*
X123000000Y-95550000D01*
G75*
G02*
X122950000Y-95500000I0J50000D01*
G01*
G37*
%TD*%
%TO.C,P25*%
G36*
G01*
X122950000Y-79500000D02*
X122950000Y-77500000D01*
G75*
G02*
X123000000Y-77450000I50000J0D01*
G01*
X131000000Y-77450000D01*
G75*
G02*
X131050000Y-77500000I0J-50000D01*
G01*
X131050000Y-79500000D01*
G75*
G02*
X131000000Y-79550000I-50000J0D01*
G01*
X123000000Y-79550000D01*
G75*
G02*
X122950000Y-79500000I0J50000D01*
G01*
G37*
%TD*%
%TO.C,P25*%
G36*
G01*
X122950000Y-63500000D02*
X122950000Y-61500000D01*
G75*
G02*
X123000000Y-61450000I50000J0D01*
G01*
X131000000Y-61450000D01*
G75*
G02*
X131050000Y-61500000I0J-50000D01*
G01*
X131050000Y-63500000D01*
G75*
G02*
X131000000Y-63550000I-50000J0D01*
G01*
X123000000Y-63550000D01*
G75*
G02*
X122950000Y-63500000I0J50000D01*
G01*
G37*
%TD*%
%TO.C,D16*%
G36*
G01*
X111900000Y-120250000D02*
X111600000Y-120250000D01*
G75*
G02*
X111550000Y-120200000I0J50000D01*
G01*
X111550000Y-119700000D01*
G75*
G02*
X111600000Y-119650000I50000J0D01*
G01*
X111900000Y-119650000D01*
G75*
G02*
X111950000Y-119700000I0J-50000D01*
G01*
X111950000Y-120200000D01*
G75*
G02*
X111900000Y-120250000I-50000J0D01*
G01*
G37*
G36*
G01*
X111900000Y-121350000D02*
X111600000Y-121350000D01*
G75*
G02*
X111550000Y-121300000I0J50000D01*
G01*
X111550000Y-120800000D01*
G75*
G02*
X111600000Y-120750000I50000J0D01*
G01*
X111900000Y-120750000D01*
G75*
G02*
X111950000Y-120800000I0J-50000D01*
G01*
X111950000Y-121300000D01*
G75*
G02*
X111900000Y-121350000I-50000J0D01*
G01*
G37*
G36*
G01*
X112250000Y-119900000D02*
X111500000Y-119900000D01*
G75*
G02*
X111450000Y-119850000I0J50000D01*
G01*
X111450000Y-118550000D01*
G75*
G02*
X111500000Y-118500000I50000J0D01*
G01*
X112250000Y-118500000D01*
G75*
G02*
X112300000Y-118550000I0J-50000D01*
G01*
X112300000Y-119850000D01*
G75*
G02*
X112250000Y-119900000I-50000J0D01*
G01*
G37*
G36*
G01*
X112250000Y-122500000D02*
X111500000Y-122500000D01*
G75*
G02*
X111450000Y-122450000I0J50000D01*
G01*
X111450000Y-121150000D01*
G75*
G02*
X111500000Y-121100000I50000J0D01*
G01*
X112250000Y-121100000D01*
G75*
G02*
X112300000Y-121150000I0J-50000D01*
G01*
X112300000Y-122450000D01*
G75*
G02*
X112250000Y-122500000I-50000J0D01*
G01*
G37*
%TD*%
%TO.C,D16*%
G36*
G01*
X111900000Y-104250000D02*
X111600000Y-104250000D01*
G75*
G02*
X111550000Y-104200000I0J50000D01*
G01*
X111550000Y-103700000D01*
G75*
G02*
X111600000Y-103650000I50000J0D01*
G01*
X111900000Y-103650000D01*
G75*
G02*
X111950000Y-103700000I0J-50000D01*
G01*
X111950000Y-104200000D01*
G75*
G02*
X111900000Y-104250000I-50000J0D01*
G01*
G37*
G36*
G01*
X111900000Y-105350000D02*
X111600000Y-105350000D01*
G75*
G02*
X111550000Y-105300000I0J50000D01*
G01*
X111550000Y-104800000D01*
G75*
G02*
X111600000Y-104750000I50000J0D01*
G01*
X111900000Y-104750000D01*
G75*
G02*
X111950000Y-104800000I0J-50000D01*
G01*
X111950000Y-105300000D01*
G75*
G02*
X111900000Y-105350000I-50000J0D01*
G01*
G37*
G36*
G01*
X112250000Y-103900000D02*
X111500000Y-103900000D01*
G75*
G02*
X111450000Y-103850000I0J50000D01*
G01*
X111450000Y-102550000D01*
G75*
G02*
X111500000Y-102500000I50000J0D01*
G01*
X112250000Y-102500000D01*
G75*
G02*
X112300000Y-102550000I0J-50000D01*
G01*
X112300000Y-103850000D01*
G75*
G02*
X112250000Y-103900000I-50000J0D01*
G01*
G37*
G36*
G01*
X112250000Y-106500000D02*
X111500000Y-106500000D01*
G75*
G02*
X111450000Y-106450000I0J50000D01*
G01*
X111450000Y-105150000D01*
G75*
G02*
X111500000Y-105100000I50000J0D01*
G01*
X112250000Y-105100000D01*
G75*
G02*
X112300000Y-105150000I0J-50000D01*
G01*
X112300000Y-106450000D01*
G75*
G02*
X112250000Y-106500000I-50000J0D01*
G01*
G37*
%TD*%
%TO.C,D16*%
G36*
G01*
X111900000Y-88250000D02*
X111600000Y-88250000D01*
G75*
G02*
X111550000Y-88200000I0J50000D01*
G01*
X111550000Y-87700000D01*
G75*
G02*
X111600000Y-87650000I50000J0D01*
G01*
X111900000Y-87650000D01*
G75*
G02*
X111950000Y-87700000I0J-50000D01*
G01*
X111950000Y-88200000D01*
G75*
G02*
X111900000Y-88250000I-50000J0D01*
G01*
G37*
G36*
G01*
X111900000Y-89350000D02*
X111600000Y-89350000D01*
G75*
G02*
X111550000Y-89300000I0J50000D01*
G01*
X111550000Y-88800000D01*
G75*
G02*
X111600000Y-88750000I50000J0D01*
G01*
X111900000Y-88750000D01*
G75*
G02*
X111950000Y-88800000I0J-50000D01*
G01*
X111950000Y-89300000D01*
G75*
G02*
X111900000Y-89350000I-50000J0D01*
G01*
G37*
G36*
G01*
X112250000Y-87900000D02*
X111500000Y-87900000D01*
G75*
G02*
X111450000Y-87850000I0J50000D01*
G01*
X111450000Y-86550000D01*
G75*
G02*
X111500000Y-86500000I50000J0D01*
G01*
X112250000Y-86500000D01*
G75*
G02*
X112300000Y-86550000I0J-50000D01*
G01*
X112300000Y-87850000D01*
G75*
G02*
X112250000Y-87900000I-50000J0D01*
G01*
G37*
G36*
G01*
X112250000Y-90500000D02*
X111500000Y-90500000D01*
G75*
G02*
X111450000Y-90450000I0J50000D01*
G01*
X111450000Y-89150000D01*
G75*
G02*
X111500000Y-89100000I50000J0D01*
G01*
X112250000Y-89100000D01*
G75*
G02*
X112300000Y-89150000I0J-50000D01*
G01*
X112300000Y-90450000D01*
G75*
G02*
X112250000Y-90500000I-50000J0D01*
G01*
G37*
%TD*%
%TO.C,D16*%
G36*
G01*
X111900000Y-72250000D02*
X111600000Y-72250000D01*
G75*
G02*
X111550000Y-72200000I0J50000D01*
G01*
X111550000Y-71700000D01*
G75*
G02*
X111600000Y-71650000I50000J0D01*
G01*
X111900000Y-71650000D01*
G75*
G02*
X111950000Y-71700000I0J-50000D01*
G01*
X111950000Y-72200000D01*
G75*
G02*
X111900000Y-72250000I-50000J0D01*
G01*
G37*
G36*
G01*
X111900000Y-73350000D02*
X111600000Y-73350000D01*
G75*
G02*
X111550000Y-73300000I0J50000D01*
G01*
X111550000Y-72800000D01*
G75*
G02*
X111600000Y-72750000I50000J0D01*
G01*
X111900000Y-72750000D01*
G75*
G02*
X111950000Y-72800000I0J-50000D01*
G01*
X111950000Y-73300000D01*
G75*
G02*
X111900000Y-73350000I-50000J0D01*
G01*
G37*
G36*
G01*
X112250000Y-71900000D02*
X111500000Y-71900000D01*
G75*
G02*
X111450000Y-71850000I0J50000D01*
G01*
X111450000Y-70550000D01*
G75*
G02*
X111500000Y-70500000I50000J0D01*
G01*
X112250000Y-70500000D01*
G75*
G02*
X112300000Y-70550000I0J-50000D01*
G01*
X112300000Y-71850000D01*
G75*
G02*
X112250000Y-71900000I-50000J0D01*
G01*
G37*
G36*
G01*
X112250000Y-74500000D02*
X111500000Y-74500000D01*
G75*
G02*
X111450000Y-74450000I0J50000D01*
G01*
X111450000Y-73150000D01*
G75*
G02*
X111500000Y-73100000I50000J0D01*
G01*
X112250000Y-73100000D01*
G75*
G02*
X112300000Y-73150000I0J-50000D01*
G01*
X112300000Y-74450000D01*
G75*
G02*
X112250000Y-74500000I-50000J0D01*
G01*
G37*
%TD*%
%TO.C,D16*%
G36*
G01*
X111900000Y-56250000D02*
X111600000Y-56250000D01*
G75*
G02*
X111550000Y-56200000I0J50000D01*
G01*
X111550000Y-55700000D01*
G75*
G02*
X111600000Y-55650000I50000J0D01*
G01*
X111900000Y-55650000D01*
G75*
G02*
X111950000Y-55700000I0J-50000D01*
G01*
X111950000Y-56200000D01*
G75*
G02*
X111900000Y-56250000I-50000J0D01*
G01*
G37*
G36*
G01*
X111900000Y-57350000D02*
X111600000Y-57350000D01*
G75*
G02*
X111550000Y-57300000I0J50000D01*
G01*
X111550000Y-56800000D01*
G75*
G02*
X111600000Y-56750000I50000J0D01*
G01*
X111900000Y-56750000D01*
G75*
G02*
X111950000Y-56800000I0J-50000D01*
G01*
X111950000Y-57300000D01*
G75*
G02*
X111900000Y-57350000I-50000J0D01*
G01*
G37*
G36*
G01*
X112250000Y-55900000D02*
X111500000Y-55900000D01*
G75*
G02*
X111450000Y-55850000I0J50000D01*
G01*
X111450000Y-54550000D01*
G75*
G02*
X111500000Y-54500000I50000J0D01*
G01*
X112250000Y-54500000D01*
G75*
G02*
X112300000Y-54550000I0J-50000D01*
G01*
X112300000Y-55850000D01*
G75*
G02*
X112250000Y-55900000I-50000J0D01*
G01*
G37*
G36*
G01*
X112250000Y-58500000D02*
X111500000Y-58500000D01*
G75*
G02*
X111450000Y-58450000I0J50000D01*
G01*
X111450000Y-57150000D01*
G75*
G02*
X111500000Y-57100000I50000J0D01*
G01*
X112250000Y-57100000D01*
G75*
G02*
X112300000Y-57150000I0J-50000D01*
G01*
X112300000Y-58450000D01*
G75*
G02*
X112250000Y-58500000I-50000J0D01*
G01*
G37*
%TD*%
%TO.C,D15*%
G36*
G01*
X173100000Y-120750000D02*
X173400000Y-120750000D01*
G75*
G02*
X173450000Y-120800000I0J-50000D01*
G01*
X173450000Y-121300000D01*
G75*
G02*
X173400000Y-121350000I-50000J0D01*
G01*
X173100000Y-121350000D01*
G75*
G02*
X173050000Y-121300000I0J50000D01*
G01*
X173050000Y-120800000D01*
G75*
G02*
X173100000Y-120750000I50000J0D01*
G01*
G37*
G36*
G01*
X173100000Y-119650000D02*
X173400000Y-119650000D01*
G75*
G02*
X173450000Y-119700000I0J-50000D01*
G01*
X173450000Y-120200000D01*
G75*
G02*
X173400000Y-120250000I-50000J0D01*
G01*
X173100000Y-120250000D01*
G75*
G02*
X173050000Y-120200000I0J50000D01*
G01*
X173050000Y-119700000D01*
G75*
G02*
X173100000Y-119650000I50000J0D01*
G01*
G37*
G36*
G01*
X172750000Y-121100000D02*
X173500000Y-121100000D01*
G75*
G02*
X173550000Y-121150000I0J-50000D01*
G01*
X173550000Y-122450000D01*
G75*
G02*
X173500000Y-122500000I-50000J0D01*
G01*
X172750000Y-122500000D01*
G75*
G02*
X172700000Y-122450000I0J50000D01*
G01*
X172700000Y-121150000D01*
G75*
G02*
X172750000Y-121100000I50000J0D01*
G01*
G37*
G36*
G01*
X172750000Y-118500000D02*
X173500000Y-118500000D01*
G75*
G02*
X173550000Y-118550000I0J-50000D01*
G01*
X173550000Y-119850000D01*
G75*
G02*
X173500000Y-119900000I-50000J0D01*
G01*
X172750000Y-119900000D01*
G75*
G02*
X172700000Y-119850000I0J50000D01*
G01*
X172700000Y-118550000D01*
G75*
G02*
X172750000Y-118500000I50000J0D01*
G01*
G37*
%TD*%
%TO.C,D15*%
G36*
G01*
X173100000Y-104750000D02*
X173400000Y-104750000D01*
G75*
G02*
X173450000Y-104800000I0J-50000D01*
G01*
X173450000Y-105300000D01*
G75*
G02*
X173400000Y-105350000I-50000J0D01*
G01*
X173100000Y-105350000D01*
G75*
G02*
X173050000Y-105300000I0J50000D01*
G01*
X173050000Y-104800000D01*
G75*
G02*
X173100000Y-104750000I50000J0D01*
G01*
G37*
G36*
G01*
X173100000Y-103650000D02*
X173400000Y-103650000D01*
G75*
G02*
X173450000Y-103700000I0J-50000D01*
G01*
X173450000Y-104200000D01*
G75*
G02*
X173400000Y-104250000I-50000J0D01*
G01*
X173100000Y-104250000D01*
G75*
G02*
X173050000Y-104200000I0J50000D01*
G01*
X173050000Y-103700000D01*
G75*
G02*
X173100000Y-103650000I50000J0D01*
G01*
G37*
G36*
G01*
X172750000Y-105100000D02*
X173500000Y-105100000D01*
G75*
G02*
X173550000Y-105150000I0J-50000D01*
G01*
X173550000Y-106450000D01*
G75*
G02*
X173500000Y-106500000I-50000J0D01*
G01*
X172750000Y-106500000D01*
G75*
G02*
X172700000Y-106450000I0J50000D01*
G01*
X172700000Y-105150000D01*
G75*
G02*
X172750000Y-105100000I50000J0D01*
G01*
G37*
G36*
G01*
X172750000Y-102500000D02*
X173500000Y-102500000D01*
G75*
G02*
X173550000Y-102550000I0J-50000D01*
G01*
X173550000Y-103850000D01*
G75*
G02*
X173500000Y-103900000I-50000J0D01*
G01*
X172750000Y-103900000D01*
G75*
G02*
X172700000Y-103850000I0J50000D01*
G01*
X172700000Y-102550000D01*
G75*
G02*
X172750000Y-102500000I50000J0D01*
G01*
G37*
%TD*%
%TO.C,D15*%
G36*
G01*
X173100000Y-88750000D02*
X173400000Y-88750000D01*
G75*
G02*
X173450000Y-88800000I0J-50000D01*
G01*
X173450000Y-89300000D01*
G75*
G02*
X173400000Y-89350000I-50000J0D01*
G01*
X173100000Y-89350000D01*
G75*
G02*
X173050000Y-89300000I0J50000D01*
G01*
X173050000Y-88800000D01*
G75*
G02*
X173100000Y-88750000I50000J0D01*
G01*
G37*
G36*
G01*
X173100000Y-87650000D02*
X173400000Y-87650000D01*
G75*
G02*
X173450000Y-87700000I0J-50000D01*
G01*
X173450000Y-88200000D01*
G75*
G02*
X173400000Y-88250000I-50000J0D01*
G01*
X173100000Y-88250000D01*
G75*
G02*
X173050000Y-88200000I0J50000D01*
G01*
X173050000Y-87700000D01*
G75*
G02*
X173100000Y-87650000I50000J0D01*
G01*
G37*
G36*
G01*
X172750000Y-89100000D02*
X173500000Y-89100000D01*
G75*
G02*
X173550000Y-89150000I0J-50000D01*
G01*
X173550000Y-90450000D01*
G75*
G02*
X173500000Y-90500000I-50000J0D01*
G01*
X172750000Y-90500000D01*
G75*
G02*
X172700000Y-90450000I0J50000D01*
G01*
X172700000Y-89150000D01*
G75*
G02*
X172750000Y-89100000I50000J0D01*
G01*
G37*
G36*
G01*
X172750000Y-86500000D02*
X173500000Y-86500000D01*
G75*
G02*
X173550000Y-86550000I0J-50000D01*
G01*
X173550000Y-87850000D01*
G75*
G02*
X173500000Y-87900000I-50000J0D01*
G01*
X172750000Y-87900000D01*
G75*
G02*
X172700000Y-87850000I0J50000D01*
G01*
X172700000Y-86550000D01*
G75*
G02*
X172750000Y-86500000I50000J0D01*
G01*
G37*
%TD*%
%TO.C,D15*%
G36*
G01*
X173100000Y-72750000D02*
X173400000Y-72750000D01*
G75*
G02*
X173450000Y-72800000I0J-50000D01*
G01*
X173450000Y-73300000D01*
G75*
G02*
X173400000Y-73350000I-50000J0D01*
G01*
X173100000Y-73350000D01*
G75*
G02*
X173050000Y-73300000I0J50000D01*
G01*
X173050000Y-72800000D01*
G75*
G02*
X173100000Y-72750000I50000J0D01*
G01*
G37*
G36*
G01*
X173100000Y-71650000D02*
X173400000Y-71650000D01*
G75*
G02*
X173450000Y-71700000I0J-50000D01*
G01*
X173450000Y-72200000D01*
G75*
G02*
X173400000Y-72250000I-50000J0D01*
G01*
X173100000Y-72250000D01*
G75*
G02*
X173050000Y-72200000I0J50000D01*
G01*
X173050000Y-71700000D01*
G75*
G02*
X173100000Y-71650000I50000J0D01*
G01*
G37*
G36*
G01*
X172750000Y-73100000D02*
X173500000Y-73100000D01*
G75*
G02*
X173550000Y-73150000I0J-50000D01*
G01*
X173550000Y-74450000D01*
G75*
G02*
X173500000Y-74500000I-50000J0D01*
G01*
X172750000Y-74500000D01*
G75*
G02*
X172700000Y-74450000I0J50000D01*
G01*
X172700000Y-73150000D01*
G75*
G02*
X172750000Y-73100000I50000J0D01*
G01*
G37*
G36*
G01*
X172750000Y-70500000D02*
X173500000Y-70500000D01*
G75*
G02*
X173550000Y-70550000I0J-50000D01*
G01*
X173550000Y-71850000D01*
G75*
G02*
X173500000Y-71900000I-50000J0D01*
G01*
X172750000Y-71900000D01*
G75*
G02*
X172700000Y-71850000I0J50000D01*
G01*
X172700000Y-70550000D01*
G75*
G02*
X172750000Y-70500000I50000J0D01*
G01*
G37*
%TD*%
%TO.C,D15*%
G36*
G01*
X173100000Y-56750000D02*
X173400000Y-56750000D01*
G75*
G02*
X173450000Y-56800000I0J-50000D01*
G01*
X173450000Y-57300000D01*
G75*
G02*
X173400000Y-57350000I-50000J0D01*
G01*
X173100000Y-57350000D01*
G75*
G02*
X173050000Y-57300000I0J50000D01*
G01*
X173050000Y-56800000D01*
G75*
G02*
X173100000Y-56750000I50000J0D01*
G01*
G37*
G36*
G01*
X173100000Y-55650000D02*
X173400000Y-55650000D01*
G75*
G02*
X173450000Y-55700000I0J-50000D01*
G01*
X173450000Y-56200000D01*
G75*
G02*
X173400000Y-56250000I-50000J0D01*
G01*
X173100000Y-56250000D01*
G75*
G02*
X173050000Y-56200000I0J50000D01*
G01*
X173050000Y-55700000D01*
G75*
G02*
X173100000Y-55650000I50000J0D01*
G01*
G37*
G36*
G01*
X172750000Y-57100000D02*
X173500000Y-57100000D01*
G75*
G02*
X173550000Y-57150000I0J-50000D01*
G01*
X173550000Y-58450000D01*
G75*
G02*
X173500000Y-58500000I-50000J0D01*
G01*
X172750000Y-58500000D01*
G75*
G02*
X172700000Y-58450000I0J50000D01*
G01*
X172700000Y-57150000D01*
G75*
G02*
X172750000Y-57100000I50000J0D01*
G01*
G37*
G36*
G01*
X172750000Y-54500000D02*
X173500000Y-54500000D01*
G75*
G02*
X173550000Y-54550000I0J-50000D01*
G01*
X173550000Y-55850000D01*
G75*
G02*
X173500000Y-55900000I-50000J0D01*
G01*
X172750000Y-55900000D01*
G75*
G02*
X172700000Y-55850000I0J50000D01*
G01*
X172700000Y-54550000D01*
G75*
G02*
X172750000Y-54500000I50000J0D01*
G01*
G37*
%TD*%
%TO.C,D14*%
G36*
G01*
X175850000Y-120750000D02*
X176150000Y-120750000D01*
G75*
G02*
X176200000Y-120800000I0J-50000D01*
G01*
X176200000Y-121300000D01*
G75*
G02*
X176150000Y-121350000I-50000J0D01*
G01*
X175850000Y-121350000D01*
G75*
G02*
X175800000Y-121300000I0J50000D01*
G01*
X175800000Y-120800000D01*
G75*
G02*
X175850000Y-120750000I50000J0D01*
G01*
G37*
G36*
G01*
X175850000Y-119650000D02*
X176150000Y-119650000D01*
G75*
G02*
X176200000Y-119700000I0J-50000D01*
G01*
X176200000Y-120200000D01*
G75*
G02*
X176150000Y-120250000I-50000J0D01*
G01*
X175850000Y-120250000D01*
G75*
G02*
X175800000Y-120200000I0J50000D01*
G01*
X175800000Y-119700000D01*
G75*
G02*
X175850000Y-119650000I50000J0D01*
G01*
G37*
G36*
G01*
X175500000Y-121100000D02*
X176250000Y-121100000D01*
G75*
G02*
X176300000Y-121150000I0J-50000D01*
G01*
X176300000Y-122450000D01*
G75*
G02*
X176250000Y-122500000I-50000J0D01*
G01*
X175500000Y-122500000D01*
G75*
G02*
X175450000Y-122450000I0J50000D01*
G01*
X175450000Y-121150000D01*
G75*
G02*
X175500000Y-121100000I50000J0D01*
G01*
G37*
G36*
G01*
X175500000Y-118500000D02*
X176250000Y-118500000D01*
G75*
G02*
X176300000Y-118550000I0J-50000D01*
G01*
X176300000Y-119850000D01*
G75*
G02*
X176250000Y-119900000I-50000J0D01*
G01*
X175500000Y-119900000D01*
G75*
G02*
X175450000Y-119850000I0J50000D01*
G01*
X175450000Y-118550000D01*
G75*
G02*
X175500000Y-118500000I50000J0D01*
G01*
G37*
%TD*%
%TO.C,D14*%
G36*
G01*
X175850000Y-104750000D02*
X176150000Y-104750000D01*
G75*
G02*
X176200000Y-104800000I0J-50000D01*
G01*
X176200000Y-105300000D01*
G75*
G02*
X176150000Y-105350000I-50000J0D01*
G01*
X175850000Y-105350000D01*
G75*
G02*
X175800000Y-105300000I0J50000D01*
G01*
X175800000Y-104800000D01*
G75*
G02*
X175850000Y-104750000I50000J0D01*
G01*
G37*
G36*
G01*
X175850000Y-103650000D02*
X176150000Y-103650000D01*
G75*
G02*
X176200000Y-103700000I0J-50000D01*
G01*
X176200000Y-104200000D01*
G75*
G02*
X176150000Y-104250000I-50000J0D01*
G01*
X175850000Y-104250000D01*
G75*
G02*
X175800000Y-104200000I0J50000D01*
G01*
X175800000Y-103700000D01*
G75*
G02*
X175850000Y-103650000I50000J0D01*
G01*
G37*
G36*
G01*
X175500000Y-105100000D02*
X176250000Y-105100000D01*
G75*
G02*
X176300000Y-105150000I0J-50000D01*
G01*
X176300000Y-106450000D01*
G75*
G02*
X176250000Y-106500000I-50000J0D01*
G01*
X175500000Y-106500000D01*
G75*
G02*
X175450000Y-106450000I0J50000D01*
G01*
X175450000Y-105150000D01*
G75*
G02*
X175500000Y-105100000I50000J0D01*
G01*
G37*
G36*
G01*
X175500000Y-102500000D02*
X176250000Y-102500000D01*
G75*
G02*
X176300000Y-102550000I0J-50000D01*
G01*
X176300000Y-103850000D01*
G75*
G02*
X176250000Y-103900000I-50000J0D01*
G01*
X175500000Y-103900000D01*
G75*
G02*
X175450000Y-103850000I0J50000D01*
G01*
X175450000Y-102550000D01*
G75*
G02*
X175500000Y-102500000I50000J0D01*
G01*
G37*
%TD*%
%TO.C,D14*%
G36*
G01*
X175850000Y-88750000D02*
X176150000Y-88750000D01*
G75*
G02*
X176200000Y-88800000I0J-50000D01*
G01*
X176200000Y-89300000D01*
G75*
G02*
X176150000Y-89350000I-50000J0D01*
G01*
X175850000Y-89350000D01*
G75*
G02*
X175800000Y-89300000I0J50000D01*
G01*
X175800000Y-88800000D01*
G75*
G02*
X175850000Y-88750000I50000J0D01*
G01*
G37*
G36*
G01*
X175850000Y-87650000D02*
X176150000Y-87650000D01*
G75*
G02*
X176200000Y-87700000I0J-50000D01*
G01*
X176200000Y-88200000D01*
G75*
G02*
X176150000Y-88250000I-50000J0D01*
G01*
X175850000Y-88250000D01*
G75*
G02*
X175800000Y-88200000I0J50000D01*
G01*
X175800000Y-87700000D01*
G75*
G02*
X175850000Y-87650000I50000J0D01*
G01*
G37*
G36*
G01*
X175500000Y-89100000D02*
X176250000Y-89100000D01*
G75*
G02*
X176300000Y-89150000I0J-50000D01*
G01*
X176300000Y-90450000D01*
G75*
G02*
X176250000Y-90500000I-50000J0D01*
G01*
X175500000Y-90500000D01*
G75*
G02*
X175450000Y-90450000I0J50000D01*
G01*
X175450000Y-89150000D01*
G75*
G02*
X175500000Y-89100000I50000J0D01*
G01*
G37*
G36*
G01*
X175500000Y-86500000D02*
X176250000Y-86500000D01*
G75*
G02*
X176300000Y-86550000I0J-50000D01*
G01*
X176300000Y-87850000D01*
G75*
G02*
X176250000Y-87900000I-50000J0D01*
G01*
X175500000Y-87900000D01*
G75*
G02*
X175450000Y-87850000I0J50000D01*
G01*
X175450000Y-86550000D01*
G75*
G02*
X175500000Y-86500000I50000J0D01*
G01*
G37*
%TD*%
%TO.C,D14*%
G36*
G01*
X175850000Y-72750000D02*
X176150000Y-72750000D01*
G75*
G02*
X176200000Y-72800000I0J-50000D01*
G01*
X176200000Y-73300000D01*
G75*
G02*
X176150000Y-73350000I-50000J0D01*
G01*
X175850000Y-73350000D01*
G75*
G02*
X175800000Y-73300000I0J50000D01*
G01*
X175800000Y-72800000D01*
G75*
G02*
X175850000Y-72750000I50000J0D01*
G01*
G37*
G36*
G01*
X175850000Y-71650000D02*
X176150000Y-71650000D01*
G75*
G02*
X176200000Y-71700000I0J-50000D01*
G01*
X176200000Y-72200000D01*
G75*
G02*
X176150000Y-72250000I-50000J0D01*
G01*
X175850000Y-72250000D01*
G75*
G02*
X175800000Y-72200000I0J50000D01*
G01*
X175800000Y-71700000D01*
G75*
G02*
X175850000Y-71650000I50000J0D01*
G01*
G37*
G36*
G01*
X175500000Y-73100000D02*
X176250000Y-73100000D01*
G75*
G02*
X176300000Y-73150000I0J-50000D01*
G01*
X176300000Y-74450000D01*
G75*
G02*
X176250000Y-74500000I-50000J0D01*
G01*
X175500000Y-74500000D01*
G75*
G02*
X175450000Y-74450000I0J50000D01*
G01*
X175450000Y-73150000D01*
G75*
G02*
X175500000Y-73100000I50000J0D01*
G01*
G37*
G36*
G01*
X175500000Y-70500000D02*
X176250000Y-70500000D01*
G75*
G02*
X176300000Y-70550000I0J-50000D01*
G01*
X176300000Y-71850000D01*
G75*
G02*
X176250000Y-71900000I-50000J0D01*
G01*
X175500000Y-71900000D01*
G75*
G02*
X175450000Y-71850000I0J50000D01*
G01*
X175450000Y-70550000D01*
G75*
G02*
X175500000Y-70500000I50000J0D01*
G01*
G37*
%TD*%
%TO.C,D14*%
G36*
G01*
X175850000Y-56750000D02*
X176150000Y-56750000D01*
G75*
G02*
X176200000Y-56800000I0J-50000D01*
G01*
X176200000Y-57300000D01*
G75*
G02*
X176150000Y-57350000I-50000J0D01*
G01*
X175850000Y-57350000D01*
G75*
G02*
X175800000Y-57300000I0J50000D01*
G01*
X175800000Y-56800000D01*
G75*
G02*
X175850000Y-56750000I50000J0D01*
G01*
G37*
G36*
G01*
X175850000Y-55650000D02*
X176150000Y-55650000D01*
G75*
G02*
X176200000Y-55700000I0J-50000D01*
G01*
X176200000Y-56200000D01*
G75*
G02*
X176150000Y-56250000I-50000J0D01*
G01*
X175850000Y-56250000D01*
G75*
G02*
X175800000Y-56200000I0J50000D01*
G01*
X175800000Y-55700000D01*
G75*
G02*
X175850000Y-55650000I50000J0D01*
G01*
G37*
G36*
G01*
X175500000Y-57100000D02*
X176250000Y-57100000D01*
G75*
G02*
X176300000Y-57150000I0J-50000D01*
G01*
X176300000Y-58450000D01*
G75*
G02*
X176250000Y-58500000I-50000J0D01*
G01*
X175500000Y-58500000D01*
G75*
G02*
X175450000Y-58450000I0J50000D01*
G01*
X175450000Y-57150000D01*
G75*
G02*
X175500000Y-57100000I50000J0D01*
G01*
G37*
G36*
G01*
X175500000Y-54500000D02*
X176250000Y-54500000D01*
G75*
G02*
X176300000Y-54550000I0J-50000D01*
G01*
X176300000Y-55850000D01*
G75*
G02*
X176250000Y-55900000I-50000J0D01*
G01*
X175500000Y-55900000D01*
G75*
G02*
X175450000Y-55850000I0J50000D01*
G01*
X175450000Y-54550000D01*
G75*
G02*
X175500000Y-54500000I50000J0D01*
G01*
G37*
%TD*%
%TO.C,D13*%
G36*
G01*
X109500000Y-122500000D02*
X108750000Y-122500000D01*
G75*
G02*
X108700000Y-122450000I0J50000D01*
G01*
X108700000Y-121150000D01*
G75*
G02*
X108750000Y-121100000I50000J0D01*
G01*
X109500000Y-121100000D01*
G75*
G02*
X109550000Y-121150000I0J-50000D01*
G01*
X109550000Y-122450000D01*
G75*
G02*
X109500000Y-122500000I-50000J0D01*
G01*
G37*
G36*
G01*
X109500000Y-119900000D02*
X108750000Y-119900000D01*
G75*
G02*
X108700000Y-119850000I0J50000D01*
G01*
X108700000Y-118550000D01*
G75*
G02*
X108750000Y-118500000I50000J0D01*
G01*
X109500000Y-118500000D01*
G75*
G02*
X109550000Y-118550000I0J-50000D01*
G01*
X109550000Y-119850000D01*
G75*
G02*
X109500000Y-119900000I-50000J0D01*
G01*
G37*
G36*
G01*
X109150000Y-121350000D02*
X108850000Y-121350000D01*
G75*
G02*
X108800000Y-121300000I0J50000D01*
G01*
X108800000Y-120800000D01*
G75*
G02*
X108850000Y-120750000I50000J0D01*
G01*
X109150000Y-120750000D01*
G75*
G02*
X109200000Y-120800000I0J-50000D01*
G01*
X109200000Y-121300000D01*
G75*
G02*
X109150000Y-121350000I-50000J0D01*
G01*
G37*
G36*
G01*
X109150000Y-120250000D02*
X108850000Y-120250000D01*
G75*
G02*
X108800000Y-120200000I0J50000D01*
G01*
X108800000Y-119700000D01*
G75*
G02*
X108850000Y-119650000I50000J0D01*
G01*
X109150000Y-119650000D01*
G75*
G02*
X109200000Y-119700000I0J-50000D01*
G01*
X109200000Y-120200000D01*
G75*
G02*
X109150000Y-120250000I-50000J0D01*
G01*
G37*
%TD*%
%TO.C,D13*%
G36*
G01*
X109500000Y-106500000D02*
X108750000Y-106500000D01*
G75*
G02*
X108700000Y-106450000I0J50000D01*
G01*
X108700000Y-105150000D01*
G75*
G02*
X108750000Y-105100000I50000J0D01*
G01*
X109500000Y-105100000D01*
G75*
G02*
X109550000Y-105150000I0J-50000D01*
G01*
X109550000Y-106450000D01*
G75*
G02*
X109500000Y-106500000I-50000J0D01*
G01*
G37*
G36*
G01*
X109500000Y-103900000D02*
X108750000Y-103900000D01*
G75*
G02*
X108700000Y-103850000I0J50000D01*
G01*
X108700000Y-102550000D01*
G75*
G02*
X108750000Y-102500000I50000J0D01*
G01*
X109500000Y-102500000D01*
G75*
G02*
X109550000Y-102550000I0J-50000D01*
G01*
X109550000Y-103850000D01*
G75*
G02*
X109500000Y-103900000I-50000J0D01*
G01*
G37*
G36*
G01*
X109150000Y-105350000D02*
X108850000Y-105350000D01*
G75*
G02*
X108800000Y-105300000I0J50000D01*
G01*
X108800000Y-104800000D01*
G75*
G02*
X108850000Y-104750000I50000J0D01*
G01*
X109150000Y-104750000D01*
G75*
G02*
X109200000Y-104800000I0J-50000D01*
G01*
X109200000Y-105300000D01*
G75*
G02*
X109150000Y-105350000I-50000J0D01*
G01*
G37*
G36*
G01*
X109150000Y-104250000D02*
X108850000Y-104250000D01*
G75*
G02*
X108800000Y-104200000I0J50000D01*
G01*
X108800000Y-103700000D01*
G75*
G02*
X108850000Y-103650000I50000J0D01*
G01*
X109150000Y-103650000D01*
G75*
G02*
X109200000Y-103700000I0J-50000D01*
G01*
X109200000Y-104200000D01*
G75*
G02*
X109150000Y-104250000I-50000J0D01*
G01*
G37*
%TD*%
%TO.C,D13*%
G36*
G01*
X109500000Y-90500000D02*
X108750000Y-90500000D01*
G75*
G02*
X108700000Y-90450000I0J50000D01*
G01*
X108700000Y-89150000D01*
G75*
G02*
X108750000Y-89100000I50000J0D01*
G01*
X109500000Y-89100000D01*
G75*
G02*
X109550000Y-89150000I0J-50000D01*
G01*
X109550000Y-90450000D01*
G75*
G02*
X109500000Y-90500000I-50000J0D01*
G01*
G37*
G36*
G01*
X109500000Y-87900000D02*
X108750000Y-87900000D01*
G75*
G02*
X108700000Y-87850000I0J50000D01*
G01*
X108700000Y-86550000D01*
G75*
G02*
X108750000Y-86500000I50000J0D01*
G01*
X109500000Y-86500000D01*
G75*
G02*
X109550000Y-86550000I0J-50000D01*
G01*
X109550000Y-87850000D01*
G75*
G02*
X109500000Y-87900000I-50000J0D01*
G01*
G37*
G36*
G01*
X109150000Y-89350000D02*
X108850000Y-89350000D01*
G75*
G02*
X108800000Y-89300000I0J50000D01*
G01*
X108800000Y-88800000D01*
G75*
G02*
X108850000Y-88750000I50000J0D01*
G01*
X109150000Y-88750000D01*
G75*
G02*
X109200000Y-88800000I0J-50000D01*
G01*
X109200000Y-89300000D01*
G75*
G02*
X109150000Y-89350000I-50000J0D01*
G01*
G37*
G36*
G01*
X109150000Y-88250000D02*
X108850000Y-88250000D01*
G75*
G02*
X108800000Y-88200000I0J50000D01*
G01*
X108800000Y-87700000D01*
G75*
G02*
X108850000Y-87650000I50000J0D01*
G01*
X109150000Y-87650000D01*
G75*
G02*
X109200000Y-87700000I0J-50000D01*
G01*
X109200000Y-88200000D01*
G75*
G02*
X109150000Y-88250000I-50000J0D01*
G01*
G37*
%TD*%
%TO.C,D13*%
G36*
G01*
X109500000Y-74500000D02*
X108750000Y-74500000D01*
G75*
G02*
X108700000Y-74450000I0J50000D01*
G01*
X108700000Y-73150000D01*
G75*
G02*
X108750000Y-73100000I50000J0D01*
G01*
X109500000Y-73100000D01*
G75*
G02*
X109550000Y-73150000I0J-50000D01*
G01*
X109550000Y-74450000D01*
G75*
G02*
X109500000Y-74500000I-50000J0D01*
G01*
G37*
G36*
G01*
X109500000Y-71900000D02*
X108750000Y-71900000D01*
G75*
G02*
X108700000Y-71850000I0J50000D01*
G01*
X108700000Y-70550000D01*
G75*
G02*
X108750000Y-70500000I50000J0D01*
G01*
X109500000Y-70500000D01*
G75*
G02*
X109550000Y-70550000I0J-50000D01*
G01*
X109550000Y-71850000D01*
G75*
G02*
X109500000Y-71900000I-50000J0D01*
G01*
G37*
G36*
G01*
X109150000Y-73350000D02*
X108850000Y-73350000D01*
G75*
G02*
X108800000Y-73300000I0J50000D01*
G01*
X108800000Y-72800000D01*
G75*
G02*
X108850000Y-72750000I50000J0D01*
G01*
X109150000Y-72750000D01*
G75*
G02*
X109200000Y-72800000I0J-50000D01*
G01*
X109200000Y-73300000D01*
G75*
G02*
X109150000Y-73350000I-50000J0D01*
G01*
G37*
G36*
G01*
X109150000Y-72250000D02*
X108850000Y-72250000D01*
G75*
G02*
X108800000Y-72200000I0J50000D01*
G01*
X108800000Y-71700000D01*
G75*
G02*
X108850000Y-71650000I50000J0D01*
G01*
X109150000Y-71650000D01*
G75*
G02*
X109200000Y-71700000I0J-50000D01*
G01*
X109200000Y-72200000D01*
G75*
G02*
X109150000Y-72250000I-50000J0D01*
G01*
G37*
%TD*%
%TO.C,D13*%
G36*
G01*
X109500000Y-58500000D02*
X108750000Y-58500000D01*
G75*
G02*
X108700000Y-58450000I0J50000D01*
G01*
X108700000Y-57150000D01*
G75*
G02*
X108750000Y-57100000I50000J0D01*
G01*
X109500000Y-57100000D01*
G75*
G02*
X109550000Y-57150000I0J-50000D01*
G01*
X109550000Y-58450000D01*
G75*
G02*
X109500000Y-58500000I-50000J0D01*
G01*
G37*
G36*
G01*
X109500000Y-55900000D02*
X108750000Y-55900000D01*
G75*
G02*
X108700000Y-55850000I0J50000D01*
G01*
X108700000Y-54550000D01*
G75*
G02*
X108750000Y-54500000I50000J0D01*
G01*
X109500000Y-54500000D01*
G75*
G02*
X109550000Y-54550000I0J-50000D01*
G01*
X109550000Y-55850000D01*
G75*
G02*
X109500000Y-55900000I-50000J0D01*
G01*
G37*
G36*
G01*
X109150000Y-57350000D02*
X108850000Y-57350000D01*
G75*
G02*
X108800000Y-57300000I0J50000D01*
G01*
X108800000Y-56800000D01*
G75*
G02*
X108850000Y-56750000I50000J0D01*
G01*
X109150000Y-56750000D01*
G75*
G02*
X109200000Y-56800000I0J-50000D01*
G01*
X109200000Y-57300000D01*
G75*
G02*
X109150000Y-57350000I-50000J0D01*
G01*
G37*
G36*
G01*
X109150000Y-56250000D02*
X108850000Y-56250000D01*
G75*
G02*
X108800000Y-56200000I0J50000D01*
G01*
X108800000Y-55700000D01*
G75*
G02*
X108850000Y-55650000I50000J0D01*
G01*
X109150000Y-55650000D01*
G75*
G02*
X109200000Y-55700000I0J-50000D01*
G01*
X109200000Y-56200000D01*
G75*
G02*
X109150000Y-56250000I-50000J0D01*
G01*
G37*
%TD*%
%TO.C,P22*%
G36*
G01*
X133950000Y-115500000D02*
X133950000Y-113500000D01*
G75*
G02*
X134000000Y-113450000I50000J0D01*
G01*
X141000000Y-113450000D01*
G75*
G02*
X141050000Y-113500000I0J-50000D01*
G01*
X141050000Y-115500000D01*
G75*
G02*
X141000000Y-115550000I-50000J0D01*
G01*
X134000000Y-115550000D01*
G75*
G02*
X133950000Y-115500000I0J50000D01*
G01*
G37*
%TD*%
%TO.C,P22*%
G36*
G01*
X133950000Y-99500000D02*
X133950000Y-97500000D01*
G75*
G02*
X134000000Y-97450000I50000J0D01*
G01*
X141000000Y-97450000D01*
G75*
G02*
X141050000Y-97500000I0J-50000D01*
G01*
X141050000Y-99500000D01*
G75*
G02*
X141000000Y-99550000I-50000J0D01*
G01*
X134000000Y-99550000D01*
G75*
G02*
X133950000Y-99500000I0J50000D01*
G01*
G37*
%TD*%
%TO.C,P22*%
G36*
G01*
X133950000Y-83500000D02*
X133950000Y-81500000D01*
G75*
G02*
X134000000Y-81450000I50000J0D01*
G01*
X141000000Y-81450000D01*
G75*
G02*
X141050000Y-81500000I0J-50000D01*
G01*
X141050000Y-83500000D01*
G75*
G02*
X141000000Y-83550000I-50000J0D01*
G01*
X134000000Y-83550000D01*
G75*
G02*
X133950000Y-83500000I0J50000D01*
G01*
G37*
%TD*%
%TO.C,P22*%
G36*
G01*
X133950000Y-67500000D02*
X133950000Y-65500000D01*
G75*
G02*
X134000000Y-65450000I50000J0D01*
G01*
X141000000Y-65450000D01*
G75*
G02*
X141050000Y-65500000I0J-50000D01*
G01*
X141050000Y-67500000D01*
G75*
G02*
X141000000Y-67550000I-50000J0D01*
G01*
X134000000Y-67550000D01*
G75*
G02*
X133950000Y-67500000I0J50000D01*
G01*
G37*
%TD*%
%TO.C,P22*%
G36*
G01*
X133950000Y-51500000D02*
X133950000Y-49500000D01*
G75*
G02*
X134000000Y-49450000I50000J0D01*
G01*
X141000000Y-49450000D01*
G75*
G02*
X141050000Y-49500000I0J-50000D01*
G01*
X141050000Y-51500000D01*
G75*
G02*
X141000000Y-51550000I-50000J0D01*
G01*
X134000000Y-51550000D01*
G75*
G02*
X133950000Y-51500000I0J50000D01*
G01*
G37*
%TD*%
%TO.C,P21*%
G36*
G01*
X122950000Y-115500000D02*
X122950000Y-113500000D01*
G75*
G02*
X123000000Y-113450000I50000J0D01*
G01*
X131000000Y-113450000D01*
G75*
G02*
X131050000Y-113500000I0J-50000D01*
G01*
X131050000Y-115500000D01*
G75*
G02*
X131000000Y-115550000I-50000J0D01*
G01*
X123000000Y-115550000D01*
G75*
G02*
X122950000Y-115500000I0J50000D01*
G01*
G37*
%TD*%
%TO.C,P21*%
G36*
G01*
X122950000Y-99500000D02*
X122950000Y-97500000D01*
G75*
G02*
X123000000Y-97450000I50000J0D01*
G01*
X131000000Y-97450000D01*
G75*
G02*
X131050000Y-97500000I0J-50000D01*
G01*
X131050000Y-99500000D01*
G75*
G02*
X131000000Y-99550000I-50000J0D01*
G01*
X123000000Y-99550000D01*
G75*
G02*
X122950000Y-99500000I0J50000D01*
G01*
G37*
%TD*%
%TO.C,P21*%
G36*
G01*
X122950000Y-83500000D02*
X122950000Y-81500000D01*
G75*
G02*
X123000000Y-81450000I50000J0D01*
G01*
X131000000Y-81450000D01*
G75*
G02*
X131050000Y-81500000I0J-50000D01*
G01*
X131050000Y-83500000D01*
G75*
G02*
X131000000Y-83550000I-50000J0D01*
G01*
X123000000Y-83550000D01*
G75*
G02*
X122950000Y-83500000I0J50000D01*
G01*
G37*
%TD*%
%TO.C,P21*%
G36*
G01*
X122950000Y-67500000D02*
X122950000Y-65500000D01*
G75*
G02*
X123000000Y-65450000I50000J0D01*
G01*
X131000000Y-65450000D01*
G75*
G02*
X131050000Y-65500000I0J-50000D01*
G01*
X131050000Y-67500000D01*
G75*
G02*
X131000000Y-67550000I-50000J0D01*
G01*
X123000000Y-67550000D01*
G75*
G02*
X122950000Y-67500000I0J50000D01*
G01*
G37*
%TD*%
%TO.C,P21*%
G36*
G01*
X122950000Y-51500000D02*
X122950000Y-49500000D01*
G75*
G02*
X123000000Y-49450000I50000J0D01*
G01*
X131000000Y-49450000D01*
G75*
G02*
X131050000Y-49500000I0J-50000D01*
G01*
X131050000Y-51500000D01*
G75*
G02*
X131000000Y-51550000I-50000J0D01*
G01*
X123000000Y-51550000D01*
G75*
G02*
X122950000Y-51500000I0J50000D01*
G01*
G37*
%TD*%
%TO.C,J14*%
G36*
G01*
X112700000Y-123500000D02*
X112700000Y-122500000D01*
G75*
G02*
X112750000Y-122450000I50000J0D01*
G01*
X113750000Y-122450000D01*
G75*
G02*
X113800000Y-122500000I0J-50000D01*
G01*
X113800000Y-123500000D01*
G75*
G02*
X113750000Y-123550000I-50000J0D01*
G01*
X112750000Y-123550000D01*
G75*
G02*
X112700000Y-123500000I0J50000D01*
G01*
G37*
%TD*%
%TO.C,J14*%
G36*
G01*
X112700000Y-107500000D02*
X112700000Y-106500000D01*
G75*
G02*
X112750000Y-106450000I50000J0D01*
G01*
X113750000Y-106450000D01*
G75*
G02*
X113800000Y-106500000I0J-50000D01*
G01*
X113800000Y-107500000D01*
G75*
G02*
X113750000Y-107550000I-50000J0D01*
G01*
X112750000Y-107550000D01*
G75*
G02*
X112700000Y-107500000I0J50000D01*
G01*
G37*
%TD*%
%TO.C,J14*%
G36*
G01*
X112700000Y-91500000D02*
X112700000Y-90500000D01*
G75*
G02*
X112750000Y-90450000I50000J0D01*
G01*
X113750000Y-90450000D01*
G75*
G02*
X113800000Y-90500000I0J-50000D01*
G01*
X113800000Y-91500000D01*
G75*
G02*
X113750000Y-91550000I-50000J0D01*
G01*
X112750000Y-91550000D01*
G75*
G02*
X112700000Y-91500000I0J50000D01*
G01*
G37*
%TD*%
%TO.C,J14*%
G36*
G01*
X112700000Y-75500000D02*
X112700000Y-74500000D01*
G75*
G02*
X112750000Y-74450000I50000J0D01*
G01*
X113750000Y-74450000D01*
G75*
G02*
X113800000Y-74500000I0J-50000D01*
G01*
X113800000Y-75500000D01*
G75*
G02*
X113750000Y-75550000I-50000J0D01*
G01*
X112750000Y-75550000D01*
G75*
G02*
X112700000Y-75500000I0J50000D01*
G01*
G37*
%TD*%
%TO.C,J14*%
G36*
G01*
X112700000Y-59500000D02*
X112700000Y-58500000D01*
G75*
G02*
X112750000Y-58450000I50000J0D01*
G01*
X113750000Y-58450000D01*
G75*
G02*
X113800000Y-58500000I0J-50000D01*
G01*
X113800000Y-59500000D01*
G75*
G02*
X113750000Y-59550000I-50000J0D01*
G01*
X112750000Y-59550000D01*
G75*
G02*
X112700000Y-59500000I0J50000D01*
G01*
G37*
%TD*%
%TO.C,J18*%
G36*
G01*
X112700000Y-118500000D02*
X112700000Y-117500000D01*
G75*
G02*
X112750000Y-117450000I50000J0D01*
G01*
X113750000Y-117450000D01*
G75*
G02*
X113800000Y-117500000I0J-50000D01*
G01*
X113800000Y-118500000D01*
G75*
G02*
X113750000Y-118550000I-50000J0D01*
G01*
X112750000Y-118550000D01*
G75*
G02*
X112700000Y-118500000I0J50000D01*
G01*
G37*
%TD*%
%TO.C,J18*%
G36*
G01*
X112700000Y-102500000D02*
X112700000Y-101500000D01*
G75*
G02*
X112750000Y-101450000I50000J0D01*
G01*
X113750000Y-101450000D01*
G75*
G02*
X113800000Y-101500000I0J-50000D01*
G01*
X113800000Y-102500000D01*
G75*
G02*
X113750000Y-102550000I-50000J0D01*
G01*
X112750000Y-102550000D01*
G75*
G02*
X112700000Y-102500000I0J50000D01*
G01*
G37*
%TD*%
%TO.C,J18*%
G36*
G01*
X112700000Y-86500000D02*
X112700000Y-85500000D01*
G75*
G02*
X112750000Y-85450000I50000J0D01*
G01*
X113750000Y-85450000D01*
G75*
G02*
X113800000Y-85500000I0J-50000D01*
G01*
X113800000Y-86500000D01*
G75*
G02*
X113750000Y-86550000I-50000J0D01*
G01*
X112750000Y-86550000D01*
G75*
G02*
X112700000Y-86500000I0J50000D01*
G01*
G37*
%TD*%
%TO.C,J18*%
G36*
G01*
X112700000Y-70500000D02*
X112700000Y-69500000D01*
G75*
G02*
X112750000Y-69450000I50000J0D01*
G01*
X113750000Y-69450000D01*
G75*
G02*
X113800000Y-69500000I0J-50000D01*
G01*
X113800000Y-70500000D01*
G75*
G02*
X113750000Y-70550000I-50000J0D01*
G01*
X112750000Y-70550000D01*
G75*
G02*
X112700000Y-70500000I0J50000D01*
G01*
G37*
%TD*%
%TO.C,J18*%
G36*
G01*
X112700000Y-54500000D02*
X112700000Y-53500000D01*
G75*
G02*
X112750000Y-53450000I50000J0D01*
G01*
X113750000Y-53450000D01*
G75*
G02*
X113800000Y-53500000I0J-50000D01*
G01*
X113800000Y-54500000D01*
G75*
G02*
X113750000Y-54550000I-50000J0D01*
G01*
X112750000Y-54550000D01*
G75*
G02*
X112700000Y-54500000I0J50000D01*
G01*
G37*
%TD*%
%TO.C,J16*%
G36*
G01*
X171200000Y-118500000D02*
X171200000Y-117500000D01*
G75*
G02*
X171250000Y-117450000I50000J0D01*
G01*
X172250000Y-117450000D01*
G75*
G02*
X172300000Y-117500000I0J-50000D01*
G01*
X172300000Y-118500000D01*
G75*
G02*
X172250000Y-118550000I-50000J0D01*
G01*
X171250000Y-118550000D01*
G75*
G02*
X171200000Y-118500000I0J50000D01*
G01*
G37*
%TD*%
%TO.C,J16*%
G36*
G01*
X171200000Y-102500000D02*
X171200000Y-101500000D01*
G75*
G02*
X171250000Y-101450000I50000J0D01*
G01*
X172250000Y-101450000D01*
G75*
G02*
X172300000Y-101500000I0J-50000D01*
G01*
X172300000Y-102500000D01*
G75*
G02*
X172250000Y-102550000I-50000J0D01*
G01*
X171250000Y-102550000D01*
G75*
G02*
X171200000Y-102500000I0J50000D01*
G01*
G37*
%TD*%
%TO.C,J16*%
G36*
G01*
X171200000Y-86500000D02*
X171200000Y-85500000D01*
G75*
G02*
X171250000Y-85450000I50000J0D01*
G01*
X172250000Y-85450000D01*
G75*
G02*
X172300000Y-85500000I0J-50000D01*
G01*
X172300000Y-86500000D01*
G75*
G02*
X172250000Y-86550000I-50000J0D01*
G01*
X171250000Y-86550000D01*
G75*
G02*
X171200000Y-86500000I0J50000D01*
G01*
G37*
%TD*%
%TO.C,J16*%
G36*
G01*
X171200000Y-70500000D02*
X171200000Y-69500000D01*
G75*
G02*
X171250000Y-69450000I50000J0D01*
G01*
X172250000Y-69450000D01*
G75*
G02*
X172300000Y-69500000I0J-50000D01*
G01*
X172300000Y-70500000D01*
G75*
G02*
X172250000Y-70550000I-50000J0D01*
G01*
X171250000Y-70550000D01*
G75*
G02*
X171200000Y-70500000I0J50000D01*
G01*
G37*
%TD*%
%TO.C,J16*%
G36*
G01*
X171200000Y-54500000D02*
X171200000Y-53500000D01*
G75*
G02*
X171250000Y-53450000I50000J0D01*
G01*
X172250000Y-53450000D01*
G75*
G02*
X172300000Y-53500000I0J-50000D01*
G01*
X172300000Y-54500000D01*
G75*
G02*
X172250000Y-54550000I-50000J0D01*
G01*
X171250000Y-54550000D01*
G75*
G02*
X171200000Y-54500000I0J50000D01*
G01*
G37*
%TD*%
%TO.C,J12*%
G36*
G01*
X171200000Y-123500000D02*
X171200000Y-122500000D01*
G75*
G02*
X171250000Y-122450000I50000J0D01*
G01*
X172250000Y-122450000D01*
G75*
G02*
X172300000Y-122500000I0J-50000D01*
G01*
X172300000Y-123500000D01*
G75*
G02*
X172250000Y-123550000I-50000J0D01*
G01*
X171250000Y-123550000D01*
G75*
G02*
X171200000Y-123500000I0J50000D01*
G01*
G37*
%TD*%
%TO.C,J12*%
G36*
G01*
X171200000Y-107500000D02*
X171200000Y-106500000D01*
G75*
G02*
X171250000Y-106450000I50000J0D01*
G01*
X172250000Y-106450000D01*
G75*
G02*
X172300000Y-106500000I0J-50000D01*
G01*
X172300000Y-107500000D01*
G75*
G02*
X172250000Y-107550000I-50000J0D01*
G01*
X171250000Y-107550000D01*
G75*
G02*
X171200000Y-107500000I0J50000D01*
G01*
G37*
%TD*%
%TO.C,J12*%
G36*
G01*
X171200000Y-91500000D02*
X171200000Y-90500000D01*
G75*
G02*
X171250000Y-90450000I50000J0D01*
G01*
X172250000Y-90450000D01*
G75*
G02*
X172300000Y-90500000I0J-50000D01*
G01*
X172300000Y-91500000D01*
G75*
G02*
X172250000Y-91550000I-50000J0D01*
G01*
X171250000Y-91550000D01*
G75*
G02*
X171200000Y-91500000I0J50000D01*
G01*
G37*
%TD*%
%TO.C,J12*%
G36*
G01*
X171200000Y-75500000D02*
X171200000Y-74500000D01*
G75*
G02*
X171250000Y-74450000I50000J0D01*
G01*
X172250000Y-74450000D01*
G75*
G02*
X172300000Y-74500000I0J-50000D01*
G01*
X172300000Y-75500000D01*
G75*
G02*
X172250000Y-75550000I-50000J0D01*
G01*
X171250000Y-75550000D01*
G75*
G02*
X171200000Y-75500000I0J50000D01*
G01*
G37*
%TD*%
%TO.C,J12*%
G36*
G01*
X171200000Y-59500000D02*
X171200000Y-58500000D01*
G75*
G02*
X171250000Y-58450000I50000J0D01*
G01*
X172250000Y-58450000D01*
G75*
G02*
X172300000Y-58500000I0J-50000D01*
G01*
X172300000Y-59500000D01*
G75*
G02*
X172250000Y-59550000I-50000J0D01*
G01*
X171250000Y-59550000D01*
G75*
G02*
X171200000Y-59500000I0J50000D01*
G01*
G37*
%TD*%
%TO.C,P9*%
G36*
G01*
X159860000Y-116975000D02*
X159860000Y-116025000D01*
G75*
G02*
X159910000Y-115975000I50000J0D01*
G01*
X160860000Y-115975000D01*
G75*
G02*
X160910000Y-116025000I0J-50000D01*
G01*
X160910000Y-116975000D01*
G75*
G02*
X160860000Y-117025000I-50000J0D01*
G01*
X159910000Y-117025000D01*
G75*
G02*
X159860000Y-116975000I0J50000D01*
G01*
G37*
G36*
G01*
X158590000Y-116975000D02*
X158590000Y-116025000D01*
G75*
G02*
X158640000Y-115975000I50000J0D01*
G01*
X159590000Y-115975000D01*
G75*
G02*
X159640000Y-116025000I0J-50000D01*
G01*
X159640000Y-116975000D01*
G75*
G02*
X159590000Y-117025000I-50000J0D01*
G01*
X158640000Y-117025000D01*
G75*
G02*
X158590000Y-116975000I0J50000D01*
G01*
G37*
%TD*%
%TO.C,P9*%
G36*
G01*
X159860000Y-100975000D02*
X159860000Y-100025000D01*
G75*
G02*
X159910000Y-99975000I50000J0D01*
G01*
X160860000Y-99975000D01*
G75*
G02*
X160910000Y-100025000I0J-50000D01*
G01*
X160910000Y-100975000D01*
G75*
G02*
X160860000Y-101025000I-50000J0D01*
G01*
X159910000Y-101025000D01*
G75*
G02*
X159860000Y-100975000I0J50000D01*
G01*
G37*
G36*
G01*
X158590000Y-100975000D02*
X158590000Y-100025000D01*
G75*
G02*
X158640000Y-99975000I50000J0D01*
G01*
X159590000Y-99975000D01*
G75*
G02*
X159640000Y-100025000I0J-50000D01*
G01*
X159640000Y-100975000D01*
G75*
G02*
X159590000Y-101025000I-50000J0D01*
G01*
X158640000Y-101025000D01*
G75*
G02*
X158590000Y-100975000I0J50000D01*
G01*
G37*
%TD*%
%TO.C,P9*%
G36*
G01*
X159860000Y-84975000D02*
X159860000Y-84025000D01*
G75*
G02*
X159910000Y-83975000I50000J0D01*
G01*
X160860000Y-83975000D01*
G75*
G02*
X160910000Y-84025000I0J-50000D01*
G01*
X160910000Y-84975000D01*
G75*
G02*
X160860000Y-85025000I-50000J0D01*
G01*
X159910000Y-85025000D01*
G75*
G02*
X159860000Y-84975000I0J50000D01*
G01*
G37*
G36*
G01*
X158590000Y-84975000D02*
X158590000Y-84025000D01*
G75*
G02*
X158640000Y-83975000I50000J0D01*
G01*
X159590000Y-83975000D01*
G75*
G02*
X159640000Y-84025000I0J-50000D01*
G01*
X159640000Y-84975000D01*
G75*
G02*
X159590000Y-85025000I-50000J0D01*
G01*
X158640000Y-85025000D01*
G75*
G02*
X158590000Y-84975000I0J50000D01*
G01*
G37*
%TD*%
%TO.C,P9*%
G36*
G01*
X159860000Y-68975000D02*
X159860000Y-68025000D01*
G75*
G02*
X159910000Y-67975000I50000J0D01*
G01*
X160860000Y-67975000D01*
G75*
G02*
X160910000Y-68025000I0J-50000D01*
G01*
X160910000Y-68975000D01*
G75*
G02*
X160860000Y-69025000I-50000J0D01*
G01*
X159910000Y-69025000D01*
G75*
G02*
X159860000Y-68975000I0J50000D01*
G01*
G37*
G36*
G01*
X158590000Y-68975000D02*
X158590000Y-68025000D01*
G75*
G02*
X158640000Y-67975000I50000J0D01*
G01*
X159590000Y-67975000D01*
G75*
G02*
X159640000Y-68025000I0J-50000D01*
G01*
X159640000Y-68975000D01*
G75*
G02*
X159590000Y-69025000I-50000J0D01*
G01*
X158640000Y-69025000D01*
G75*
G02*
X158590000Y-68975000I0J50000D01*
G01*
G37*
%TD*%
%TO.C,P9*%
G36*
G01*
X159860000Y-52975000D02*
X159860000Y-52025000D01*
G75*
G02*
X159910000Y-51975000I50000J0D01*
G01*
X160860000Y-51975000D01*
G75*
G02*
X160910000Y-52025000I0J-50000D01*
G01*
X160910000Y-52975000D01*
G75*
G02*
X160860000Y-53025000I-50000J0D01*
G01*
X159910000Y-53025000D01*
G75*
G02*
X159860000Y-52975000I0J50000D01*
G01*
G37*
G36*
G01*
X158590000Y-52975000D02*
X158590000Y-52025000D01*
G75*
G02*
X158640000Y-51975000I50000J0D01*
G01*
X159590000Y-51975000D01*
G75*
G02*
X159640000Y-52025000I0J-50000D01*
G01*
X159640000Y-52975000D01*
G75*
G02*
X159590000Y-53025000I-50000J0D01*
G01*
X158640000Y-53025000D01*
G75*
G02*
X158590000Y-52975000I0J50000D01*
G01*
G37*
%TD*%
%TO.C,P23*%
G36*
G01*
X143950000Y-115500000D02*
X143950000Y-113500000D01*
G75*
G02*
X144000000Y-113450000I50000J0D01*
G01*
X151000000Y-113450000D01*
G75*
G02*
X151050000Y-113500000I0J-50000D01*
G01*
X151050000Y-115500000D01*
G75*
G02*
X151000000Y-115550000I-50000J0D01*
G01*
X144000000Y-115550000D01*
G75*
G02*
X143950000Y-115500000I0J50000D01*
G01*
G37*
%TD*%
%TO.C,P23*%
G36*
G01*
X143950000Y-99500000D02*
X143950000Y-97500000D01*
G75*
G02*
X144000000Y-97450000I50000J0D01*
G01*
X151000000Y-97450000D01*
G75*
G02*
X151050000Y-97500000I0J-50000D01*
G01*
X151050000Y-99500000D01*
G75*
G02*
X151000000Y-99550000I-50000J0D01*
G01*
X144000000Y-99550000D01*
G75*
G02*
X143950000Y-99500000I0J50000D01*
G01*
G37*
%TD*%
%TO.C,P23*%
G36*
G01*
X143950000Y-83500000D02*
X143950000Y-81500000D01*
G75*
G02*
X144000000Y-81450000I50000J0D01*
G01*
X151000000Y-81450000D01*
G75*
G02*
X151050000Y-81500000I0J-50000D01*
G01*
X151050000Y-83500000D01*
G75*
G02*
X151000000Y-83550000I-50000J0D01*
G01*
X144000000Y-83550000D01*
G75*
G02*
X143950000Y-83500000I0J50000D01*
G01*
G37*
%TD*%
%TO.C,P23*%
G36*
G01*
X143950000Y-67500000D02*
X143950000Y-65500000D01*
G75*
G02*
X144000000Y-65450000I50000J0D01*
G01*
X151000000Y-65450000D01*
G75*
G02*
X151050000Y-65500000I0J-50000D01*
G01*
X151050000Y-67500000D01*
G75*
G02*
X151000000Y-67550000I-50000J0D01*
G01*
X144000000Y-67550000D01*
G75*
G02*
X143950000Y-67500000I0J50000D01*
G01*
G37*
%TD*%
%TO.C,P23*%
G36*
G01*
X143950000Y-51500000D02*
X143950000Y-49500000D01*
G75*
G02*
X144000000Y-49450000I50000J0D01*
G01*
X151000000Y-49450000D01*
G75*
G02*
X151050000Y-49500000I0J-50000D01*
G01*
X151050000Y-51500000D01*
G75*
G02*
X151000000Y-51550000I-50000J0D01*
G01*
X144000000Y-51550000D01*
G75*
G02*
X143950000Y-51500000I0J50000D01*
G01*
G37*
%TD*%
D10*
%TO.C,REF\u002A\u002A*%
X104500000Y-120500000D03*
%TD*%
%TO.C,REF\u002A\u002A*%
X104500000Y-104500000D03*
%TD*%
%TO.C,REF\u002A\u002A*%
X104500000Y-88500000D03*
%TD*%
%TO.C,REF\u002A\u002A*%
X104500000Y-72500000D03*
%TD*%
%TO.C,REF\u002A\u002A*%
X104500000Y-56500000D03*
%TD*%
%TO.C,REF\u002A\u002A*%
X180500000Y-120500000D03*
%TD*%
%TO.C,REF\u002A\u002A*%
X180500000Y-104500000D03*
%TD*%
%TO.C,REF\u002A\u002A*%
X180500000Y-88500000D03*
%TD*%
%TO.C,REF\u002A\u002A*%
X180500000Y-72500000D03*
%TD*%
%TO.C,REF\u002A\u002A*%
X180500000Y-56500000D03*
%TD*%
%TO.C,REF\u002A\u002A*%
X180500000Y-40500000D03*
%TD*%
%TO.C,REF\u002A\u002A*%
X104500000Y-40500000D03*
%TD*%
%TO.C,J12*%
G36*
G01*
X171200000Y-43500000D02*
X171200000Y-42500000D01*
G75*
G02*
X171250000Y-42450000I50000J0D01*
G01*
X172250000Y-42450000D01*
G75*
G02*
X172300000Y-42500000I0J-50000D01*
G01*
X172300000Y-43500000D01*
G75*
G02*
X172250000Y-43550000I-50000J0D01*
G01*
X171250000Y-43550000D01*
G75*
G02*
X171200000Y-43500000I0J50000D01*
G01*
G37*
%TD*%
%TO.C,J14*%
G36*
G01*
X112700000Y-43500000D02*
X112700000Y-42500000D01*
G75*
G02*
X112750000Y-42450000I50000J0D01*
G01*
X113750000Y-42450000D01*
G75*
G02*
X113800000Y-42500000I0J-50000D01*
G01*
X113800000Y-43500000D01*
G75*
G02*
X113750000Y-43550000I-50000J0D01*
G01*
X112750000Y-43550000D01*
G75*
G02*
X112700000Y-43500000I0J50000D01*
G01*
G37*
%TD*%
%TO.C,J16*%
G36*
G01*
X171200000Y-38500000D02*
X171200000Y-37500000D01*
G75*
G02*
X171250000Y-37450000I50000J0D01*
G01*
X172250000Y-37450000D01*
G75*
G02*
X172300000Y-37500000I0J-50000D01*
G01*
X172300000Y-38500000D01*
G75*
G02*
X172250000Y-38550000I-50000J0D01*
G01*
X171250000Y-38550000D01*
G75*
G02*
X171200000Y-38500000I0J50000D01*
G01*
G37*
%TD*%
%TO.C,J18*%
G36*
G01*
X112700000Y-38500000D02*
X112700000Y-37500000D01*
G75*
G02*
X112750000Y-37450000I50000J0D01*
G01*
X113750000Y-37450000D01*
G75*
G02*
X113800000Y-37500000I0J-50000D01*
G01*
X113800000Y-38500000D01*
G75*
G02*
X113750000Y-38550000I-50000J0D01*
G01*
X112750000Y-38550000D01*
G75*
G02*
X112700000Y-38500000I0J50000D01*
G01*
G37*
%TD*%
%TO.C,P9*%
G36*
G01*
X158590000Y-36975000D02*
X158590000Y-36025000D01*
G75*
G02*
X158640000Y-35975000I50000J0D01*
G01*
X159590000Y-35975000D01*
G75*
G02*
X159640000Y-36025000I0J-50000D01*
G01*
X159640000Y-36975000D01*
G75*
G02*
X159590000Y-37025000I-50000J0D01*
G01*
X158640000Y-37025000D01*
G75*
G02*
X158590000Y-36975000I0J50000D01*
G01*
G37*
G36*
G01*
X159860000Y-36975000D02*
X159860000Y-36025000D01*
G75*
G02*
X159910000Y-35975000I50000J0D01*
G01*
X160860000Y-35975000D01*
G75*
G02*
X160910000Y-36025000I0J-50000D01*
G01*
X160910000Y-36975000D01*
G75*
G02*
X160860000Y-37025000I-50000J0D01*
G01*
X159910000Y-37025000D01*
G75*
G02*
X159860000Y-36975000I0J50000D01*
G01*
G37*
%TD*%
%TO.C,P21*%
G36*
G01*
X122950000Y-35500000D02*
X122950000Y-33500000D01*
G75*
G02*
X123000000Y-33450000I50000J0D01*
G01*
X131000000Y-33450000D01*
G75*
G02*
X131050000Y-33500000I0J-50000D01*
G01*
X131050000Y-35500000D01*
G75*
G02*
X131000000Y-35550000I-50000J0D01*
G01*
X123000000Y-35550000D01*
G75*
G02*
X122950000Y-35500000I0J50000D01*
G01*
G37*
%TD*%
%TO.C,P22*%
G36*
G01*
X133950000Y-35500000D02*
X133950000Y-33500000D01*
G75*
G02*
X134000000Y-33450000I50000J0D01*
G01*
X141000000Y-33450000D01*
G75*
G02*
X141050000Y-33500000I0J-50000D01*
G01*
X141050000Y-35500000D01*
G75*
G02*
X141000000Y-35550000I-50000J0D01*
G01*
X134000000Y-35550000D01*
G75*
G02*
X133950000Y-35500000I0J50000D01*
G01*
G37*
%TD*%
%TO.C,P23*%
G36*
G01*
X143950000Y-35500000D02*
X143950000Y-33500000D01*
G75*
G02*
X144000000Y-33450000I50000J0D01*
G01*
X151000000Y-33450000D01*
G75*
G02*
X151050000Y-33500000I0J-50000D01*
G01*
X151050000Y-35500000D01*
G75*
G02*
X151000000Y-35550000I-50000J0D01*
G01*
X144000000Y-35550000D01*
G75*
G02*
X143950000Y-35500000I0J50000D01*
G01*
G37*
%TD*%
%TO.C,P24*%
G36*
G01*
X153950000Y-35500000D02*
X153950000Y-33500000D01*
G75*
G02*
X154000000Y-33450000I50000J0D01*
G01*
X162000000Y-33450000D01*
G75*
G02*
X162050000Y-33500000I0J-50000D01*
G01*
X162050000Y-35500000D01*
G75*
G02*
X162000000Y-35550000I-50000J0D01*
G01*
X154000000Y-35550000D01*
G75*
G02*
X153950000Y-35500000I0J50000D01*
G01*
G37*
%TD*%
%TO.C,P25*%
G36*
G01*
X122950000Y-47500000D02*
X122950000Y-45500000D01*
G75*
G02*
X123000000Y-45450000I50000J0D01*
G01*
X131000000Y-45450000D01*
G75*
G02*
X131050000Y-45500000I0J-50000D01*
G01*
X131050000Y-47500000D01*
G75*
G02*
X131000000Y-47550000I-50000J0D01*
G01*
X123000000Y-47550000D01*
G75*
G02*
X122950000Y-47500000I0J50000D01*
G01*
G37*
%TD*%
%TO.C,P26*%
G36*
G01*
X133950000Y-47500000D02*
X133950000Y-45500000D01*
G75*
G02*
X134000000Y-45450000I50000J0D01*
G01*
X141000000Y-45450000D01*
G75*
G02*
X141050000Y-45500000I0J-50000D01*
G01*
X141050000Y-47500000D01*
G75*
G02*
X141000000Y-47550000I-50000J0D01*
G01*
X134000000Y-47550000D01*
G75*
G02*
X133950000Y-47500000I0J50000D01*
G01*
G37*
%TD*%
%TO.C,P27*%
G36*
G01*
X143950000Y-47500000D02*
X143950000Y-45500000D01*
G75*
G02*
X144000000Y-45450000I50000J0D01*
G01*
X151000000Y-45450000D01*
G75*
G02*
X151050000Y-45500000I0J-50000D01*
G01*
X151050000Y-47500000D01*
G75*
G02*
X151000000Y-47550000I-50000J0D01*
G01*
X144000000Y-47550000D01*
G75*
G02*
X143950000Y-47500000I0J50000D01*
G01*
G37*
%TD*%
%TO.C,P28*%
G36*
G01*
X153950000Y-47500000D02*
X153950000Y-45500000D01*
G75*
G02*
X154000000Y-45450000I50000J0D01*
G01*
X162000000Y-45450000D01*
G75*
G02*
X162050000Y-45500000I0J-50000D01*
G01*
X162050000Y-47500000D01*
G75*
G02*
X162000000Y-47550000I-50000J0D01*
G01*
X154000000Y-47550000D01*
G75*
G02*
X153950000Y-47500000I0J50000D01*
G01*
G37*
%TD*%
%TO.C,P29*%
G36*
G01*
X129450000Y-39000000D02*
X129450000Y-37000000D01*
G75*
G02*
X129500000Y-36950000I50000J0D01*
G01*
X137500000Y-36950000D01*
G75*
G02*
X137550000Y-37000000I0J-50000D01*
G01*
X137550000Y-39000000D01*
G75*
G02*
X137500000Y-39050000I-50000J0D01*
G01*
X129500000Y-39050000D01*
G75*
G02*
X129450000Y-39000000I0J50000D01*
G01*
G37*
%TD*%
%TO.C,P31*%
G36*
G01*
X129450000Y-44000000D02*
X129450000Y-42000000D01*
G75*
G02*
X129500000Y-41950000I50000J0D01*
G01*
X137500000Y-41950000D01*
G75*
G02*
X137550000Y-42000000I0J-50000D01*
G01*
X137550000Y-44000000D01*
G75*
G02*
X137500000Y-44050000I-50000J0D01*
G01*
X129500000Y-44050000D01*
G75*
G02*
X129450000Y-44000000I0J50000D01*
G01*
G37*
%TD*%
%TO.C,D15*%
G36*
G01*
X172750000Y-38500000D02*
X173500000Y-38500000D01*
G75*
G02*
X173550000Y-38550000I0J-50000D01*
G01*
X173550000Y-39850000D01*
G75*
G02*
X173500000Y-39900000I-50000J0D01*
G01*
X172750000Y-39900000D01*
G75*
G02*
X172700000Y-39850000I0J50000D01*
G01*
X172700000Y-38550000D01*
G75*
G02*
X172750000Y-38500000I50000J0D01*
G01*
G37*
G36*
G01*
X172750000Y-41100000D02*
X173500000Y-41100000D01*
G75*
G02*
X173550000Y-41150000I0J-50000D01*
G01*
X173550000Y-42450000D01*
G75*
G02*
X173500000Y-42500000I-50000J0D01*
G01*
X172750000Y-42500000D01*
G75*
G02*
X172700000Y-42450000I0J50000D01*
G01*
X172700000Y-41150000D01*
G75*
G02*
X172750000Y-41100000I50000J0D01*
G01*
G37*
G36*
G01*
X173100000Y-39650000D02*
X173400000Y-39650000D01*
G75*
G02*
X173450000Y-39700000I0J-50000D01*
G01*
X173450000Y-40200000D01*
G75*
G02*
X173400000Y-40250000I-50000J0D01*
G01*
X173100000Y-40250000D01*
G75*
G02*
X173050000Y-40200000I0J50000D01*
G01*
X173050000Y-39700000D01*
G75*
G02*
X173100000Y-39650000I50000J0D01*
G01*
G37*
G36*
G01*
X173100000Y-40750000D02*
X173400000Y-40750000D01*
G75*
G02*
X173450000Y-40800000I0J-50000D01*
G01*
X173450000Y-41300000D01*
G75*
G02*
X173400000Y-41350000I-50000J0D01*
G01*
X173100000Y-41350000D01*
G75*
G02*
X173050000Y-41300000I0J50000D01*
G01*
X173050000Y-40800000D01*
G75*
G02*
X173100000Y-40750000I50000J0D01*
G01*
G37*
%TD*%
%TO.C,D13*%
G36*
G01*
X109150000Y-40250000D02*
X108850000Y-40250000D01*
G75*
G02*
X108800000Y-40200000I0J50000D01*
G01*
X108800000Y-39700000D01*
G75*
G02*
X108850000Y-39650000I50000J0D01*
G01*
X109150000Y-39650000D01*
G75*
G02*
X109200000Y-39700000I0J-50000D01*
G01*
X109200000Y-40200000D01*
G75*
G02*
X109150000Y-40250000I-50000J0D01*
G01*
G37*
G36*
G01*
X109150000Y-41350000D02*
X108850000Y-41350000D01*
G75*
G02*
X108800000Y-41300000I0J50000D01*
G01*
X108800000Y-40800000D01*
G75*
G02*
X108850000Y-40750000I50000J0D01*
G01*
X109150000Y-40750000D01*
G75*
G02*
X109200000Y-40800000I0J-50000D01*
G01*
X109200000Y-41300000D01*
G75*
G02*
X109150000Y-41350000I-50000J0D01*
G01*
G37*
G36*
G01*
X109500000Y-39900000D02*
X108750000Y-39900000D01*
G75*
G02*
X108700000Y-39850000I0J50000D01*
G01*
X108700000Y-38550000D01*
G75*
G02*
X108750000Y-38500000I50000J0D01*
G01*
X109500000Y-38500000D01*
G75*
G02*
X109550000Y-38550000I0J-50000D01*
G01*
X109550000Y-39850000D01*
G75*
G02*
X109500000Y-39900000I-50000J0D01*
G01*
G37*
G36*
G01*
X109500000Y-42500000D02*
X108750000Y-42500000D01*
G75*
G02*
X108700000Y-42450000I0J50000D01*
G01*
X108700000Y-41150000D01*
G75*
G02*
X108750000Y-41100000I50000J0D01*
G01*
X109500000Y-41100000D01*
G75*
G02*
X109550000Y-41150000I0J-50000D01*
G01*
X109550000Y-42450000D01*
G75*
G02*
X109500000Y-42500000I-50000J0D01*
G01*
G37*
%TD*%
%TO.C,D14*%
G36*
G01*
X175500000Y-38500000D02*
X176250000Y-38500000D01*
G75*
G02*
X176300000Y-38550000I0J-50000D01*
G01*
X176300000Y-39850000D01*
G75*
G02*
X176250000Y-39900000I-50000J0D01*
G01*
X175500000Y-39900000D01*
G75*
G02*
X175450000Y-39850000I0J50000D01*
G01*
X175450000Y-38550000D01*
G75*
G02*
X175500000Y-38500000I50000J0D01*
G01*
G37*
G36*
G01*
X175500000Y-41100000D02*
X176250000Y-41100000D01*
G75*
G02*
X176300000Y-41150000I0J-50000D01*
G01*
X176300000Y-42450000D01*
G75*
G02*
X176250000Y-42500000I-50000J0D01*
G01*
X175500000Y-42500000D01*
G75*
G02*
X175450000Y-42450000I0J50000D01*
G01*
X175450000Y-41150000D01*
G75*
G02*
X175500000Y-41100000I50000J0D01*
G01*
G37*
G36*
G01*
X175850000Y-39650000D02*
X176150000Y-39650000D01*
G75*
G02*
X176200000Y-39700000I0J-50000D01*
G01*
X176200000Y-40200000D01*
G75*
G02*
X176150000Y-40250000I-50000J0D01*
G01*
X175850000Y-40250000D01*
G75*
G02*
X175800000Y-40200000I0J50000D01*
G01*
X175800000Y-39700000D01*
G75*
G02*
X175850000Y-39650000I50000J0D01*
G01*
G37*
G36*
G01*
X175850000Y-40750000D02*
X176150000Y-40750000D01*
G75*
G02*
X176200000Y-40800000I0J-50000D01*
G01*
X176200000Y-41300000D01*
G75*
G02*
X176150000Y-41350000I-50000J0D01*
G01*
X175850000Y-41350000D01*
G75*
G02*
X175800000Y-41300000I0J50000D01*
G01*
X175800000Y-40800000D01*
G75*
G02*
X175850000Y-40750000I50000J0D01*
G01*
G37*
%TD*%
%TO.C,D16*%
G36*
G01*
X112250000Y-42500000D02*
X111500000Y-42500000D01*
G75*
G02*
X111450000Y-42450000I0J50000D01*
G01*
X111450000Y-41150000D01*
G75*
G02*
X111500000Y-41100000I50000J0D01*
G01*
X112250000Y-41100000D01*
G75*
G02*
X112300000Y-41150000I0J-50000D01*
G01*
X112300000Y-42450000D01*
G75*
G02*
X112250000Y-42500000I-50000J0D01*
G01*
G37*
G36*
G01*
X112250000Y-39900000D02*
X111500000Y-39900000D01*
G75*
G02*
X111450000Y-39850000I0J50000D01*
G01*
X111450000Y-38550000D01*
G75*
G02*
X111500000Y-38500000I50000J0D01*
G01*
X112250000Y-38500000D01*
G75*
G02*
X112300000Y-38550000I0J-50000D01*
G01*
X112300000Y-39850000D01*
G75*
G02*
X112250000Y-39900000I-50000J0D01*
G01*
G37*
G36*
G01*
X111900000Y-41350000D02*
X111600000Y-41350000D01*
G75*
G02*
X111550000Y-41300000I0J50000D01*
G01*
X111550000Y-40800000D01*
G75*
G02*
X111600000Y-40750000I50000J0D01*
G01*
X111900000Y-40750000D01*
G75*
G02*
X111950000Y-40800000I0J-50000D01*
G01*
X111950000Y-41300000D01*
G75*
G02*
X111900000Y-41350000I-50000J0D01*
G01*
G37*
G36*
G01*
X111900000Y-40250000D02*
X111600000Y-40250000D01*
G75*
G02*
X111550000Y-40200000I0J50000D01*
G01*
X111550000Y-39700000D01*
G75*
G02*
X111600000Y-39650000I50000J0D01*
G01*
X111900000Y-39650000D01*
G75*
G02*
X111950000Y-39700000I0J-50000D01*
G01*
X111950000Y-40200000D01*
G75*
G02*
X111900000Y-40250000I-50000J0D01*
G01*
G37*
%TD*%
M02*
