%TF.GenerationSoftware,KiCad,Pcbnew,(5.1.9)-1*%
%TF.CreationDate,2021-05-10T22:53:10+09:00*%
%TF.ProjectId,motordecoder2-K3057,6d6f746f-7264-4656-936f-646572322d4b,rev?*%
%TF.SameCoordinates,Original*%
%TF.FileFunction,Profile,NP*%
%FSLAX46Y46*%
G04 Gerber Fmt 4.6, Leading zero omitted, Abs format (unit mm)*
G04 Created by KiCad (PCBNEW (5.1.9)-1) date 2021-05-10 22:53:10*
%MOMM*%
%LPD*%
G01*
G04 APERTURE LIST*
%TA.AperFunction,Profile*%
%ADD10C,0.150000*%
%TD*%
G04 APERTURE END LIST*
D10*
X186000000Y-33500000D02*
X179000000Y-33500000D01*
X186000000Y-127500000D02*
X186000000Y-33500000D01*
X179000000Y-127500000D02*
X186000000Y-127500000D01*
X106000000Y-125000000D02*
X106000000Y-127500000D01*
X101000000Y-127500000D02*
X106000000Y-127500000D01*
X101000000Y-33500000D02*
X101000000Y-127500000D01*
X106000000Y-33500000D02*
X101000000Y-33500000D01*
X106000000Y-36000000D02*
X106000000Y-33500000D01*
X179000000Y-36000000D02*
X179000000Y-33500000D01*
X130000000Y-122000000D02*
X134500000Y-122000000D01*
X130000000Y-106000000D02*
X134500000Y-106000000D01*
X130000000Y-90000000D02*
X134500000Y-90000000D01*
X130000000Y-74000000D02*
X134500000Y-74000000D01*
X130000000Y-58000000D02*
X134500000Y-58000000D01*
X130000000Y-119000000D02*
X134500000Y-119000000D01*
X130000000Y-103000000D02*
X134500000Y-103000000D01*
X130000000Y-87000000D02*
X134500000Y-87000000D01*
X130000000Y-71000000D02*
X134500000Y-71000000D01*
X130000000Y-55000000D02*
X134500000Y-55000000D01*
X150500000Y-122000000D02*
X155000000Y-122000000D01*
X150500000Y-106000000D02*
X155000000Y-106000000D01*
X150500000Y-90000000D02*
X155000000Y-90000000D01*
X150500000Y-74000000D02*
X155000000Y-74000000D01*
X150500000Y-58000000D02*
X155000000Y-58000000D01*
X150500000Y-122000000D02*
X150500000Y-119000000D01*
X150500000Y-106000000D02*
X150500000Y-103000000D01*
X150500000Y-90000000D02*
X150500000Y-87000000D01*
X150500000Y-74000000D02*
X150500000Y-71000000D01*
X150500000Y-58000000D02*
X150500000Y-55000000D01*
X155000000Y-119000000D02*
X155000000Y-122000000D01*
X155000000Y-103000000D02*
X155000000Y-106000000D01*
X155000000Y-87000000D02*
X155000000Y-90000000D01*
X155000000Y-71000000D02*
X155000000Y-74000000D01*
X155000000Y-55000000D02*
X155000000Y-58000000D01*
X134500000Y-119000000D02*
X134500000Y-122000000D01*
X134500000Y-103000000D02*
X134500000Y-106000000D01*
X134500000Y-87000000D02*
X134500000Y-90000000D01*
X134500000Y-71000000D02*
X134500000Y-74000000D01*
X134500000Y-55000000D02*
X134500000Y-58000000D01*
X150500000Y-119000000D02*
X155000000Y-119000000D01*
X150500000Y-103000000D02*
X155000000Y-103000000D01*
X150500000Y-87000000D02*
X155000000Y-87000000D01*
X150500000Y-71000000D02*
X155000000Y-71000000D01*
X150500000Y-55000000D02*
X155000000Y-55000000D01*
X130000000Y-119000000D02*
X130000000Y-122000000D01*
X130000000Y-103000000D02*
X130000000Y-106000000D01*
X130000000Y-87000000D02*
X130000000Y-90000000D01*
X130000000Y-71000000D02*
X130000000Y-74000000D01*
X130000000Y-55000000D02*
X130000000Y-58000000D01*
X107000000Y-118000000D02*
X107000000Y-123000000D01*
X107000000Y-102000000D02*
X107000000Y-107000000D01*
X107000000Y-86000000D02*
X107000000Y-91000000D01*
X107000000Y-70000000D02*
X107000000Y-75000000D01*
X107000000Y-54000000D02*
X107000000Y-59000000D01*
X179000000Y-125000000D02*
X179000000Y-127500000D01*
X179000000Y-109000000D02*
X179000000Y-116000000D01*
X179000000Y-93000000D02*
X179000000Y-100000000D01*
X179000000Y-77000000D02*
X179000000Y-84000000D01*
X179000000Y-61000000D02*
X179000000Y-68000000D01*
X106000000Y-109000000D02*
X106000000Y-116000000D01*
X106000000Y-93000000D02*
X106000000Y-100000000D01*
X106000000Y-77000000D02*
X106000000Y-84000000D01*
X106000000Y-61000000D02*
X106000000Y-68000000D01*
X107000000Y-123000000D02*
X108000000Y-123000000D01*
X107000000Y-107000000D02*
X108000000Y-107000000D01*
X107000000Y-91000000D02*
X108000000Y-91000000D01*
X107000000Y-75000000D02*
X108000000Y-75000000D01*
X107000000Y-59000000D02*
X108000000Y-59000000D01*
X178000000Y-123000000D02*
X177000000Y-123000000D01*
X178000000Y-107000000D02*
X177000000Y-107000000D01*
X178000000Y-91000000D02*
X177000000Y-91000000D01*
X178000000Y-75000000D02*
X177000000Y-75000000D01*
X178000000Y-59000000D02*
X177000000Y-59000000D01*
X107000000Y-117000000D02*
G75*
G02*
X106000000Y-116000000I0J1000000D01*
G01*
X107000000Y-101000000D02*
G75*
G02*
X106000000Y-100000000I0J1000000D01*
G01*
X107000000Y-85000000D02*
G75*
G02*
X106000000Y-84000000I0J1000000D01*
G01*
X107000000Y-69000000D02*
G75*
G02*
X106000000Y-68000000I0J1000000D01*
G01*
X107000000Y-53000000D02*
G75*
G02*
X106000000Y-52000000I0J1000000D01*
G01*
X179000000Y-116000000D02*
G75*
G02*
X178000000Y-117000000I-1000000J0D01*
G01*
X179000000Y-100000000D02*
G75*
G02*
X178000000Y-101000000I-1000000J0D01*
G01*
X179000000Y-84000000D02*
G75*
G02*
X178000000Y-85000000I-1000000J0D01*
G01*
X179000000Y-68000000D02*
G75*
G02*
X178000000Y-69000000I-1000000J0D01*
G01*
X179000000Y-52000000D02*
G75*
G02*
X178000000Y-53000000I-1000000J0D01*
G01*
X178000000Y-118000000D02*
X178000000Y-123000000D01*
X178000000Y-102000000D02*
X178000000Y-107000000D01*
X178000000Y-86000000D02*
X178000000Y-91000000D01*
X178000000Y-70000000D02*
X178000000Y-75000000D01*
X178000000Y-54000000D02*
X178000000Y-59000000D01*
X177000000Y-118000000D02*
X178000000Y-118000000D01*
X177000000Y-102000000D02*
X178000000Y-102000000D01*
X177000000Y-86000000D02*
X178000000Y-86000000D01*
X177000000Y-70000000D02*
X178000000Y-70000000D01*
X177000000Y-54000000D02*
X178000000Y-54000000D01*
X178000000Y-124000000D02*
G75*
G02*
X179000000Y-125000000I0J-1000000D01*
G01*
X178000000Y-108000000D02*
G75*
G02*
X179000000Y-109000000I0J-1000000D01*
G01*
X178000000Y-92000000D02*
G75*
G02*
X179000000Y-93000000I0J-1000000D01*
G01*
X178000000Y-76000000D02*
G75*
G02*
X179000000Y-77000000I0J-1000000D01*
G01*
X178000000Y-60000000D02*
G75*
G02*
X179000000Y-61000000I0J-1000000D01*
G01*
X141000000Y-115500000D02*
X144000000Y-115500000D01*
X141000000Y-99500000D02*
X144000000Y-99500000D01*
X141000000Y-83500000D02*
X144000000Y-83500000D01*
X141000000Y-67500000D02*
X144000000Y-67500000D01*
X141000000Y-51500000D02*
X144000000Y-51500000D01*
X108000000Y-118000000D02*
X107000000Y-118000000D01*
X108000000Y-102000000D02*
X107000000Y-102000000D01*
X108000000Y-86000000D02*
X107000000Y-86000000D01*
X108000000Y-70000000D02*
X107000000Y-70000000D01*
X108000000Y-54000000D02*
X107000000Y-54000000D01*
X106000000Y-125000000D02*
G75*
G02*
X107000000Y-124000000I1000000J0D01*
G01*
X106000000Y-109000000D02*
G75*
G02*
X107000000Y-108000000I1000000J0D01*
G01*
X106000000Y-93000000D02*
G75*
G02*
X107000000Y-92000000I1000000J0D01*
G01*
X106000000Y-77000000D02*
G75*
G02*
X107000000Y-76000000I1000000J0D01*
G01*
X106000000Y-61000000D02*
G75*
G02*
X107000000Y-60000000I1000000J0D01*
G01*
X131000000Y-125000000D02*
X131000000Y-127500000D01*
X131000000Y-109000000D02*
X131000000Y-111500000D01*
X131000000Y-93000000D02*
X131000000Y-95500000D01*
X131000000Y-77000000D02*
X131000000Y-79500000D01*
X131000000Y-61000000D02*
X131000000Y-63500000D01*
X141000000Y-125500000D02*
X144000000Y-125500000D01*
X141000000Y-109500000D02*
X144000000Y-109500000D01*
X141000000Y-93500000D02*
X144000000Y-93500000D01*
X141000000Y-77500000D02*
X144000000Y-77500000D01*
X141000000Y-61500000D02*
X144000000Y-61500000D01*
X144000000Y-115500000D02*
X144000000Y-113500000D01*
X144000000Y-99500000D02*
X144000000Y-97500000D01*
X144000000Y-83500000D02*
X144000000Y-81500000D01*
X144000000Y-67500000D02*
X144000000Y-65500000D01*
X144000000Y-51500000D02*
X144000000Y-49500000D01*
X178000000Y-117000000D02*
X162000000Y-117000000D01*
X178000000Y-101000000D02*
X162000000Y-101000000D01*
X178000000Y-85000000D02*
X162000000Y-85000000D01*
X178000000Y-69000000D02*
X162000000Y-69000000D01*
X178000000Y-53000000D02*
X162000000Y-53000000D01*
X144000000Y-125500000D02*
X144000000Y-127500000D01*
X144000000Y-109500000D02*
X144000000Y-111500000D01*
X144000000Y-93500000D02*
X144000000Y-95500000D01*
X144000000Y-77500000D02*
X144000000Y-79500000D01*
X144000000Y-61500000D02*
X144000000Y-63500000D01*
X141000000Y-125500000D02*
X141000000Y-127500000D01*
X141000000Y-109500000D02*
X141000000Y-111500000D01*
X141000000Y-93500000D02*
X141000000Y-95500000D01*
X141000000Y-77500000D02*
X141000000Y-79500000D01*
X141000000Y-61500000D02*
X141000000Y-63500000D01*
X162000000Y-124000000D02*
X162000000Y-127500000D01*
X162000000Y-108000000D02*
X162000000Y-111500000D01*
X162000000Y-92000000D02*
X162000000Y-95500000D01*
X162000000Y-76000000D02*
X162000000Y-79500000D01*
X162000000Y-60000000D02*
X162000000Y-63500000D01*
X154000000Y-127500000D02*
X162000000Y-127500000D01*
X154000000Y-111500000D02*
X162000000Y-111500000D01*
X154000000Y-95500000D02*
X162000000Y-95500000D01*
X154000000Y-79500000D02*
X162000000Y-79500000D01*
X154000000Y-63500000D02*
X162000000Y-63500000D01*
X162000000Y-117000000D02*
X162000000Y-113500000D01*
X162000000Y-101000000D02*
X162000000Y-97500000D01*
X162000000Y-85000000D02*
X162000000Y-81500000D01*
X162000000Y-69000000D02*
X162000000Y-65500000D01*
X162000000Y-53000000D02*
X162000000Y-49500000D01*
X151000000Y-116000000D02*
X151000000Y-113500000D01*
X151000000Y-100000000D02*
X151000000Y-97500000D01*
X151000000Y-84000000D02*
X151000000Y-81500000D01*
X151000000Y-68000000D02*
X151000000Y-65500000D01*
X151000000Y-52000000D02*
X151000000Y-49500000D01*
X131000000Y-127500000D02*
X123000000Y-127500000D01*
X131000000Y-111500000D02*
X123000000Y-111500000D01*
X131000000Y-95500000D02*
X123000000Y-95500000D01*
X131000000Y-79500000D02*
X123000000Y-79500000D01*
X131000000Y-63500000D02*
X123000000Y-63500000D01*
X123000000Y-127500000D02*
X123000000Y-124000000D01*
X123000000Y-111500000D02*
X123000000Y-108000000D01*
X123000000Y-95500000D02*
X123000000Y-92000000D01*
X123000000Y-79500000D02*
X123000000Y-76000000D01*
X123000000Y-63500000D02*
X123000000Y-60000000D01*
X151000000Y-125000000D02*
X154000000Y-125000000D01*
X151000000Y-109000000D02*
X154000000Y-109000000D01*
X151000000Y-93000000D02*
X154000000Y-93000000D01*
X151000000Y-77000000D02*
X154000000Y-77000000D01*
X151000000Y-61000000D02*
X154000000Y-61000000D01*
X154000000Y-125000000D02*
X154000000Y-127500000D01*
X154000000Y-109000000D02*
X154000000Y-111500000D01*
X154000000Y-93000000D02*
X154000000Y-95500000D01*
X154000000Y-77000000D02*
X154000000Y-79500000D01*
X154000000Y-61000000D02*
X154000000Y-63500000D01*
X154000000Y-113500000D02*
X154000000Y-116000000D01*
X154000000Y-97500000D02*
X154000000Y-100000000D01*
X154000000Y-81500000D02*
X154000000Y-84000000D01*
X154000000Y-65500000D02*
X154000000Y-68000000D01*
X154000000Y-49500000D02*
X154000000Y-52000000D01*
X162000000Y-124000000D02*
X178000000Y-124000000D01*
X162000000Y-108000000D02*
X178000000Y-108000000D01*
X162000000Y-92000000D02*
X178000000Y-92000000D01*
X162000000Y-76000000D02*
X178000000Y-76000000D01*
X162000000Y-60000000D02*
X178000000Y-60000000D01*
X134000000Y-125000000D02*
X131000000Y-125000000D01*
X134000000Y-109000000D02*
X131000000Y-109000000D01*
X134000000Y-93000000D02*
X131000000Y-93000000D01*
X134000000Y-77000000D02*
X131000000Y-77000000D01*
X134000000Y-61000000D02*
X131000000Y-61000000D01*
X144000000Y-127500000D02*
X151000000Y-127500000D01*
X144000000Y-111500000D02*
X151000000Y-111500000D01*
X144000000Y-95500000D02*
X151000000Y-95500000D01*
X144000000Y-79500000D02*
X151000000Y-79500000D01*
X144000000Y-63500000D02*
X151000000Y-63500000D01*
X151000000Y-127500000D02*
X151000000Y-125000000D01*
X151000000Y-111500000D02*
X151000000Y-109000000D01*
X151000000Y-95500000D02*
X151000000Y-93000000D01*
X151000000Y-79500000D02*
X151000000Y-77000000D01*
X151000000Y-63500000D02*
X151000000Y-61000000D01*
X134000000Y-127500000D02*
X134000000Y-125000000D01*
X134000000Y-111500000D02*
X134000000Y-109000000D01*
X134000000Y-95500000D02*
X134000000Y-93000000D01*
X134000000Y-79500000D02*
X134000000Y-77000000D01*
X134000000Y-63500000D02*
X134000000Y-61000000D01*
X154000000Y-116000000D02*
X151000000Y-116000000D01*
X154000000Y-100000000D02*
X151000000Y-100000000D01*
X154000000Y-84000000D02*
X151000000Y-84000000D01*
X154000000Y-68000000D02*
X151000000Y-68000000D01*
X154000000Y-52000000D02*
X151000000Y-52000000D01*
X141000000Y-115500000D02*
X141000000Y-113500000D01*
X141000000Y-99500000D02*
X141000000Y-97500000D01*
X141000000Y-83500000D02*
X141000000Y-81500000D01*
X141000000Y-67500000D02*
X141000000Y-65500000D01*
X141000000Y-51500000D02*
X141000000Y-49500000D01*
X141000000Y-127500000D02*
X134000000Y-127500000D01*
X141000000Y-111500000D02*
X134000000Y-111500000D01*
X141000000Y-95500000D02*
X134000000Y-95500000D01*
X141000000Y-79500000D02*
X134000000Y-79500000D01*
X141000000Y-63500000D02*
X134000000Y-63500000D01*
X123000000Y-113500000D02*
X131000000Y-113500000D01*
X123000000Y-97500000D02*
X131000000Y-97500000D01*
X123000000Y-81500000D02*
X131000000Y-81500000D01*
X123000000Y-65500000D02*
X131000000Y-65500000D01*
X123000000Y-49500000D02*
X131000000Y-49500000D01*
X123000000Y-117000000D02*
X107000000Y-117000000D01*
X123000000Y-101000000D02*
X107000000Y-101000000D01*
X123000000Y-85000000D02*
X107000000Y-85000000D01*
X123000000Y-69000000D02*
X107000000Y-69000000D01*
X123000000Y-53000000D02*
X107000000Y-53000000D01*
X134000000Y-113500000D02*
X141000000Y-113500000D01*
X134000000Y-97500000D02*
X141000000Y-97500000D01*
X134000000Y-81500000D02*
X141000000Y-81500000D01*
X134000000Y-65500000D02*
X141000000Y-65500000D01*
X134000000Y-49500000D02*
X141000000Y-49500000D01*
X177000000Y-118000000D02*
X177000000Y-123000000D01*
X177000000Y-102000000D02*
X177000000Y-107000000D01*
X177000000Y-86000000D02*
X177000000Y-91000000D01*
X177000000Y-70000000D02*
X177000000Y-75000000D01*
X177000000Y-54000000D02*
X177000000Y-59000000D01*
X134000000Y-116000000D02*
X131000000Y-116000000D01*
X134000000Y-100000000D02*
X131000000Y-100000000D01*
X134000000Y-84000000D02*
X131000000Y-84000000D01*
X134000000Y-68000000D02*
X131000000Y-68000000D01*
X134000000Y-52000000D02*
X131000000Y-52000000D01*
X108000000Y-118000000D02*
X108000000Y-123000000D01*
X108000000Y-102000000D02*
X108000000Y-107000000D01*
X108000000Y-86000000D02*
X108000000Y-91000000D01*
X108000000Y-70000000D02*
X108000000Y-75000000D01*
X108000000Y-54000000D02*
X108000000Y-59000000D01*
X144000000Y-113500000D02*
X151000000Y-113500000D01*
X144000000Y-97500000D02*
X151000000Y-97500000D01*
X144000000Y-81500000D02*
X151000000Y-81500000D01*
X144000000Y-65500000D02*
X151000000Y-65500000D01*
X144000000Y-49500000D02*
X151000000Y-49500000D01*
X123000000Y-124000000D02*
X107000000Y-124000000D01*
X123000000Y-108000000D02*
X107000000Y-108000000D01*
X123000000Y-92000000D02*
X107000000Y-92000000D01*
X123000000Y-76000000D02*
X107000000Y-76000000D01*
X123000000Y-60000000D02*
X107000000Y-60000000D01*
X131000000Y-116000000D02*
X131000000Y-113500000D01*
X131000000Y-100000000D02*
X131000000Y-97500000D01*
X131000000Y-84000000D02*
X131000000Y-81500000D01*
X131000000Y-68000000D02*
X131000000Y-65500000D01*
X131000000Y-52000000D02*
X131000000Y-49500000D01*
X154000000Y-113500000D02*
X162000000Y-113500000D01*
X154000000Y-97500000D02*
X162000000Y-97500000D01*
X154000000Y-81500000D02*
X162000000Y-81500000D01*
X154000000Y-65500000D02*
X162000000Y-65500000D01*
X154000000Y-49500000D02*
X162000000Y-49500000D01*
X134000000Y-113500000D02*
X134000000Y-116000000D01*
X134000000Y-97500000D02*
X134000000Y-100000000D01*
X134000000Y-81500000D02*
X134000000Y-84000000D01*
X134000000Y-65500000D02*
X134000000Y-68000000D01*
X134000000Y-49500000D02*
X134000000Y-52000000D01*
X123000000Y-113500000D02*
X123000000Y-117000000D01*
X123000000Y-97500000D02*
X123000000Y-101000000D01*
X123000000Y-81500000D02*
X123000000Y-85000000D01*
X123000000Y-65500000D02*
X123000000Y-69000000D01*
X123000000Y-49500000D02*
X123000000Y-53000000D01*
X179000000Y-45000000D02*
X179000000Y-52000000D01*
X106000000Y-45000000D02*
X106000000Y-52000000D01*
X107000000Y-43000000D02*
X108000000Y-43000000D01*
X107000000Y-38000000D02*
X107000000Y-43000000D01*
X108000000Y-38000000D02*
X107000000Y-38000000D01*
X106000000Y-45000000D02*
G75*
G02*
X107000000Y-44000000I1000000J0D01*
G01*
X107000000Y-37000000D02*
G75*
G02*
X106000000Y-36000000I0J1000000D01*
G01*
X178000000Y-43000000D02*
X177000000Y-43000000D01*
X178000000Y-38000000D02*
X178000000Y-43000000D01*
X177000000Y-38000000D02*
X178000000Y-38000000D01*
X179000000Y-36000000D02*
G75*
G02*
X178000000Y-37000000I-1000000J0D01*
G01*
X178000000Y-44000000D02*
G75*
G02*
X179000000Y-45000000I0J-1000000D01*
G01*
X130000000Y-39000000D02*
X130000000Y-42000000D01*
X155000000Y-39000000D02*
X155000000Y-42000000D01*
X150500000Y-42000000D02*
X150500000Y-39000000D01*
X150500000Y-39000000D02*
X155000000Y-39000000D01*
X150500000Y-42000000D02*
X155000000Y-42000000D01*
X134500000Y-39000000D02*
X134500000Y-42000000D01*
X130000000Y-39000000D02*
X134500000Y-39000000D01*
X130000000Y-42000000D02*
X134500000Y-42000000D01*
X177000000Y-38000000D02*
X177000000Y-43000000D01*
X154000000Y-33500000D02*
X162000000Y-33500000D01*
X144000000Y-33500000D02*
X151000000Y-33500000D01*
X134000000Y-33500000D02*
X141000000Y-33500000D01*
X123000000Y-33500000D02*
X131000000Y-33500000D01*
X108000000Y-38000000D02*
X108000000Y-43000000D01*
X123000000Y-37000000D02*
X107000000Y-37000000D01*
X123000000Y-33500000D02*
X123000000Y-37000000D01*
X131000000Y-36000000D02*
X131000000Y-33500000D01*
X134000000Y-36000000D02*
X131000000Y-36000000D01*
X134000000Y-33500000D02*
X134000000Y-36000000D01*
X123000000Y-44000000D02*
X107000000Y-44000000D01*
X123000000Y-47500000D02*
X123000000Y-44000000D01*
X131000000Y-47500000D02*
X123000000Y-47500000D01*
X131000000Y-45000000D02*
X131000000Y-47500000D01*
X134000000Y-45000000D02*
X131000000Y-45000000D01*
X134000000Y-47500000D02*
X134000000Y-45000000D01*
X141000000Y-47500000D02*
X134000000Y-47500000D01*
X141000000Y-35500000D02*
X141000000Y-33500000D01*
X151000000Y-36000000D02*
X151000000Y-33500000D01*
X154000000Y-36000000D02*
X151000000Y-36000000D01*
X154000000Y-33500000D02*
X154000000Y-36000000D01*
X162000000Y-37000000D02*
X162000000Y-33500000D01*
X178000000Y-37000000D02*
X162000000Y-37000000D01*
X162000000Y-44000000D02*
X178000000Y-44000000D01*
X162000000Y-44000000D02*
X162000000Y-47500000D01*
X154000000Y-47500000D02*
X162000000Y-47500000D01*
X154000000Y-45000000D02*
X154000000Y-47500000D01*
X151000000Y-45000000D02*
X154000000Y-45000000D01*
X151000000Y-47500000D02*
X151000000Y-45000000D01*
X144000000Y-47500000D02*
X151000000Y-47500000D01*
X141000000Y-45500000D02*
X141000000Y-47500000D01*
X144000000Y-45500000D02*
X144000000Y-47500000D01*
X144000000Y-35500000D02*
X144000000Y-33500000D01*
X141000000Y-45500000D02*
X144000000Y-45500000D01*
X141000000Y-35500000D02*
X144000000Y-35500000D01*
M02*
