%TF.GenerationSoftware,KiCad,Pcbnew,(5.1.9)-1*%
%TF.CreationDate,2021-03-16T21:31:40+09:00*%
%TF.ProjectId,motordecoder2-K3057,6d6f746f-7264-4656-936f-646572322d4b,rev?*%
%TF.SameCoordinates,PX66ff300PY7cee6c0*%
%TF.FileFunction,Legend,Bot*%
%TF.FilePolarity,Positive*%
%FSLAX46Y46*%
G04 Gerber Fmt 4.6, Leading zero omitted, Abs format (unit mm)*
G04 Created by KiCad (PCBNEW (5.1.9)-1) date 2021-03-16 21:31:40*
%MOMM*%
%LPD*%
G01*
G04 APERTURE LIST*
%ADD10C,0.180000*%
%ADD11C,0.120000*%
%ADD12C,2.000000*%
%ADD13R,0.300000X0.500000*%
%ADD14R,0.750000X1.300000*%
%ADD15R,8.000000X2.000000*%
%ADD16R,7.000000X2.000000*%
%ADD17R,1.000000X1.000000*%
%ADD18R,0.950000X0.950000*%
G04 APERTURE END LIST*
D10*
X11053571Y4050000D02*
X11053571Y3800000D01*
X10660714Y3800000D02*
X11410714Y3800000D01*
X11410714Y4157143D01*
X11410714Y4371429D02*
X11410714Y4835715D01*
X11125000Y4585715D01*
X11125000Y4692858D01*
X11089285Y4764286D01*
X11053571Y4800000D01*
X10982142Y4835715D01*
X10803571Y4835715D01*
X10732142Y4800000D01*
X10696428Y4764286D01*
X10660714Y4692858D01*
X10660714Y4478572D01*
X10696428Y4407143D01*
X10732142Y4371429D01*
X11053571Y20050000D02*
X11053571Y19800000D01*
X10660714Y19800000D02*
X11410714Y19800000D01*
X11410714Y20157143D01*
X11410714Y20371429D02*
X11410714Y20835715D01*
X11125000Y20585715D01*
X11125000Y20692858D01*
X11089285Y20764286D01*
X11053571Y20800000D01*
X10982142Y20835715D01*
X10803571Y20835715D01*
X10732142Y20800000D01*
X10696428Y20764286D01*
X10660714Y20692858D01*
X10660714Y20478572D01*
X10696428Y20407143D01*
X10732142Y20371429D01*
X11053571Y36050000D02*
X11053571Y35800000D01*
X10660714Y35800000D02*
X11410714Y35800000D01*
X11410714Y36157143D01*
X11410714Y36371429D02*
X11410714Y36835715D01*
X11125000Y36585715D01*
X11125000Y36692858D01*
X11089285Y36764286D01*
X11053571Y36800000D01*
X10982142Y36835715D01*
X10803571Y36835715D01*
X10732142Y36800000D01*
X10696428Y36764286D01*
X10660714Y36692858D01*
X10660714Y36478572D01*
X10696428Y36407143D01*
X10732142Y36371429D01*
X11053571Y52050000D02*
X11053571Y51800000D01*
X10660714Y51800000D02*
X11410714Y51800000D01*
X11410714Y52157143D01*
X11410714Y52371429D02*
X11410714Y52835715D01*
X11125000Y52585715D01*
X11125000Y52692858D01*
X11089285Y52764286D01*
X11053571Y52800000D01*
X10982142Y52835715D01*
X10803571Y52835715D01*
X10732142Y52800000D01*
X10696428Y52764286D01*
X10660714Y52692858D01*
X10660714Y52478572D01*
X10696428Y52407143D01*
X10732142Y52371429D01*
X11053571Y68050000D02*
X11053571Y67800000D01*
X10660714Y67800000D02*
X11410714Y67800000D01*
X11410714Y68157143D01*
X11410714Y68371429D02*
X11410714Y68835715D01*
X11125000Y68585715D01*
X11125000Y68692858D01*
X11089285Y68764286D01*
X11053571Y68800000D01*
X10982142Y68835715D01*
X10803571Y68835715D01*
X10732142Y68800000D01*
X10696428Y68764286D01*
X10660714Y68692858D01*
X10660714Y68478572D01*
X10696428Y68407143D01*
X10732142Y68371429D01*
X72196428Y10000000D02*
X72196428Y10250000D01*
X72589285Y10250000D02*
X71839285Y10250000D01*
X71839285Y9892858D01*
X71839285Y9285715D02*
X71839285Y9428572D01*
X71875000Y9500000D01*
X71910714Y9535715D01*
X72017857Y9607143D01*
X72160714Y9642858D01*
X72446428Y9642858D01*
X72517857Y9607143D01*
X72553571Y9571429D01*
X72589285Y9500000D01*
X72589285Y9357143D01*
X72553571Y9285715D01*
X72517857Y9250000D01*
X72446428Y9214286D01*
X72267857Y9214286D01*
X72196428Y9250000D01*
X72160714Y9285715D01*
X72125000Y9357143D01*
X72125000Y9500000D01*
X72160714Y9571429D01*
X72196428Y9607143D01*
X72267857Y9642858D01*
X72196428Y26000000D02*
X72196428Y26250000D01*
X72589285Y26250000D02*
X71839285Y26250000D01*
X71839285Y25892858D01*
X71839285Y25285715D02*
X71839285Y25428572D01*
X71875000Y25500000D01*
X71910714Y25535715D01*
X72017857Y25607143D01*
X72160714Y25642858D01*
X72446428Y25642858D01*
X72517857Y25607143D01*
X72553571Y25571429D01*
X72589285Y25500000D01*
X72589285Y25357143D01*
X72553571Y25285715D01*
X72517857Y25250000D01*
X72446428Y25214286D01*
X72267857Y25214286D01*
X72196428Y25250000D01*
X72160714Y25285715D01*
X72125000Y25357143D01*
X72125000Y25500000D01*
X72160714Y25571429D01*
X72196428Y25607143D01*
X72267857Y25642858D01*
X72196428Y42000000D02*
X72196428Y42250000D01*
X72589285Y42250000D02*
X71839285Y42250000D01*
X71839285Y41892858D01*
X71839285Y41285715D02*
X71839285Y41428572D01*
X71875000Y41500000D01*
X71910714Y41535715D01*
X72017857Y41607143D01*
X72160714Y41642858D01*
X72446428Y41642858D01*
X72517857Y41607143D01*
X72553571Y41571429D01*
X72589285Y41500000D01*
X72589285Y41357143D01*
X72553571Y41285715D01*
X72517857Y41250000D01*
X72446428Y41214286D01*
X72267857Y41214286D01*
X72196428Y41250000D01*
X72160714Y41285715D01*
X72125000Y41357143D01*
X72125000Y41500000D01*
X72160714Y41571429D01*
X72196428Y41607143D01*
X72267857Y41642858D01*
X72196428Y58000000D02*
X72196428Y58250000D01*
X72589285Y58250000D02*
X71839285Y58250000D01*
X71839285Y57892858D01*
X71839285Y57285715D02*
X71839285Y57428572D01*
X71875000Y57500000D01*
X71910714Y57535715D01*
X72017857Y57607143D01*
X72160714Y57642858D01*
X72446428Y57642858D01*
X72517857Y57607143D01*
X72553571Y57571429D01*
X72589285Y57500000D01*
X72589285Y57357143D01*
X72553571Y57285715D01*
X72517857Y57250000D01*
X72446428Y57214286D01*
X72267857Y57214286D01*
X72196428Y57250000D01*
X72160714Y57285715D01*
X72125000Y57357143D01*
X72125000Y57500000D01*
X72160714Y57571429D01*
X72196428Y57607143D01*
X72267857Y57642858D01*
X72196428Y74000000D02*
X72196428Y74250000D01*
X72589285Y74250000D02*
X71839285Y74250000D01*
X71839285Y73892858D01*
X71839285Y73285715D02*
X71839285Y73428572D01*
X71875000Y73500000D01*
X71910714Y73535715D01*
X72017857Y73607143D01*
X72160714Y73642858D01*
X72446428Y73642858D01*
X72517857Y73607143D01*
X72553571Y73571429D01*
X72589285Y73500000D01*
X72589285Y73357143D01*
X72553571Y73285715D01*
X72517857Y73250000D01*
X72446428Y73214286D01*
X72267857Y73214286D01*
X72196428Y73250000D01*
X72160714Y73285715D01*
X72125000Y73357143D01*
X72125000Y73500000D01*
X72160714Y73571429D01*
X72196428Y73607143D01*
X72267857Y73642858D01*
X13350000Y9646429D02*
X13100000Y9646429D01*
X13100000Y10039286D02*
X13100000Y9289286D01*
X13457142Y9289286D01*
X13707142Y9360715D02*
X13742857Y9325000D01*
X13814285Y9289286D01*
X13992857Y9289286D01*
X14064285Y9325000D01*
X14100000Y9360715D01*
X14135714Y9432143D01*
X14135714Y9503572D01*
X14100000Y9610715D01*
X13671428Y10039286D01*
X14135714Y10039286D01*
X13350000Y25646429D02*
X13100000Y25646429D01*
X13100000Y26039286D02*
X13100000Y25289286D01*
X13457142Y25289286D01*
X13707142Y25360715D02*
X13742857Y25325000D01*
X13814285Y25289286D01*
X13992857Y25289286D01*
X14064285Y25325000D01*
X14100000Y25360715D01*
X14135714Y25432143D01*
X14135714Y25503572D01*
X14100000Y25610715D01*
X13671428Y26039286D01*
X14135714Y26039286D01*
X13350000Y41646429D02*
X13100000Y41646429D01*
X13100000Y42039286D02*
X13100000Y41289286D01*
X13457142Y41289286D01*
X13707142Y41360715D02*
X13742857Y41325000D01*
X13814285Y41289286D01*
X13992857Y41289286D01*
X14064285Y41325000D01*
X14100000Y41360715D01*
X14135714Y41432143D01*
X14135714Y41503572D01*
X14100000Y41610715D01*
X13671428Y42039286D01*
X14135714Y42039286D01*
X13350000Y57646429D02*
X13100000Y57646429D01*
X13100000Y58039286D02*
X13100000Y57289286D01*
X13457142Y57289286D01*
X13707142Y57360715D02*
X13742857Y57325000D01*
X13814285Y57289286D01*
X13992857Y57289286D01*
X14064285Y57325000D01*
X14100000Y57360715D01*
X14135714Y57432143D01*
X14135714Y57503572D01*
X14100000Y57610715D01*
X13671428Y58039286D01*
X14135714Y58039286D01*
X13350000Y73646429D02*
X13100000Y73646429D01*
X13100000Y74039286D02*
X13100000Y73289286D01*
X13457142Y73289286D01*
X13707142Y73360715D02*
X13742857Y73325000D01*
X13814285Y73289286D01*
X13992857Y73289286D01*
X14064285Y73325000D01*
X14100000Y73360715D01*
X14135714Y73432143D01*
X14135714Y73503572D01*
X14100000Y73610715D01*
X13671428Y74039286D01*
X14135714Y74039286D01*
X74696428Y10000000D02*
X74696428Y10250000D01*
X75089285Y10250000D02*
X74339285Y10250000D01*
X74339285Y9892858D01*
X74589285Y9285715D02*
X75089285Y9285715D01*
X74303571Y9464286D02*
X74839285Y9642858D01*
X74839285Y9178572D01*
X74696428Y26000000D02*
X74696428Y26250000D01*
X75089285Y26250000D02*
X74339285Y26250000D01*
X74339285Y25892858D01*
X74589285Y25285715D02*
X75089285Y25285715D01*
X74303571Y25464286D02*
X74839285Y25642858D01*
X74839285Y25178572D01*
X74696428Y42000000D02*
X74696428Y42250000D01*
X75089285Y42250000D02*
X74339285Y42250000D01*
X74339285Y41892858D01*
X74589285Y41285715D02*
X75089285Y41285715D01*
X74303571Y41464286D02*
X74839285Y41642858D01*
X74839285Y41178572D01*
X74696428Y58000000D02*
X74696428Y58250000D01*
X75089285Y58250000D02*
X74339285Y58250000D01*
X74339285Y57892858D01*
X74589285Y57285715D02*
X75089285Y57285715D01*
X74303571Y57464286D02*
X74839285Y57642858D01*
X74839285Y57178572D01*
X74696428Y74000000D02*
X74696428Y74250000D01*
X75089285Y74250000D02*
X74339285Y74250000D01*
X74339285Y73892858D01*
X74589285Y73285715D02*
X75089285Y73285715D01*
X74303571Y73464286D02*
X74839285Y73642858D01*
X74839285Y73178572D01*
X38039285Y10339286D02*
X38039285Y9589286D01*
X38289285Y10125000D01*
X38539285Y9589286D01*
X38539285Y10339286D01*
X39039285Y9589286D02*
X39182142Y9589286D01*
X39253571Y9625000D01*
X39325000Y9696429D01*
X39360714Y9839286D01*
X39360714Y10089286D01*
X39325000Y10232143D01*
X39253571Y10303572D01*
X39182142Y10339286D01*
X39039285Y10339286D01*
X38967857Y10303572D01*
X38896428Y10232143D01*
X38860714Y10089286D01*
X38860714Y9839286D01*
X38896428Y9696429D01*
X38967857Y9625000D01*
X39039285Y9589286D01*
X39575000Y9589286D02*
X40003571Y9589286D01*
X39789285Y10339286D02*
X39789285Y9589286D01*
X40396428Y9589286D02*
X40539285Y9589286D01*
X40610714Y9625000D01*
X40682142Y9696429D01*
X40717857Y9839286D01*
X40717857Y10089286D01*
X40682142Y10232143D01*
X40610714Y10303572D01*
X40539285Y10339286D01*
X40396428Y10339286D01*
X40325000Y10303572D01*
X40253571Y10232143D01*
X40217857Y10089286D01*
X40217857Y9839286D01*
X40253571Y9696429D01*
X40325000Y9625000D01*
X40396428Y9589286D01*
X41467857Y10339286D02*
X41217857Y9982143D01*
X41039285Y10339286D02*
X41039285Y9589286D01*
X41325000Y9589286D01*
X41396428Y9625000D01*
X41432142Y9660715D01*
X41467857Y9732143D01*
X41467857Y9839286D01*
X41432142Y9910715D01*
X41396428Y9946429D01*
X41325000Y9982143D01*
X41039285Y9982143D01*
X41789285Y10053572D02*
X42360714Y10053572D01*
X42075000Y10339286D02*
X42075000Y9767858D01*
X38039285Y26339286D02*
X38039285Y25589286D01*
X38289285Y26125000D01*
X38539285Y25589286D01*
X38539285Y26339286D01*
X39039285Y25589286D02*
X39182142Y25589286D01*
X39253571Y25625000D01*
X39325000Y25696429D01*
X39360714Y25839286D01*
X39360714Y26089286D01*
X39325000Y26232143D01*
X39253571Y26303572D01*
X39182142Y26339286D01*
X39039285Y26339286D01*
X38967857Y26303572D01*
X38896428Y26232143D01*
X38860714Y26089286D01*
X38860714Y25839286D01*
X38896428Y25696429D01*
X38967857Y25625000D01*
X39039285Y25589286D01*
X39575000Y25589286D02*
X40003571Y25589286D01*
X39789285Y26339286D02*
X39789285Y25589286D01*
X40396428Y25589286D02*
X40539285Y25589286D01*
X40610714Y25625000D01*
X40682142Y25696429D01*
X40717857Y25839286D01*
X40717857Y26089286D01*
X40682142Y26232143D01*
X40610714Y26303572D01*
X40539285Y26339286D01*
X40396428Y26339286D01*
X40325000Y26303572D01*
X40253571Y26232143D01*
X40217857Y26089286D01*
X40217857Y25839286D01*
X40253571Y25696429D01*
X40325000Y25625000D01*
X40396428Y25589286D01*
X41467857Y26339286D02*
X41217857Y25982143D01*
X41039285Y26339286D02*
X41039285Y25589286D01*
X41325000Y25589286D01*
X41396428Y25625000D01*
X41432142Y25660715D01*
X41467857Y25732143D01*
X41467857Y25839286D01*
X41432142Y25910715D01*
X41396428Y25946429D01*
X41325000Y25982143D01*
X41039285Y25982143D01*
X41789285Y26053572D02*
X42360714Y26053572D01*
X42075000Y26339286D02*
X42075000Y25767858D01*
X38039285Y42339286D02*
X38039285Y41589286D01*
X38289285Y42125000D01*
X38539285Y41589286D01*
X38539285Y42339286D01*
X39039285Y41589286D02*
X39182142Y41589286D01*
X39253571Y41625000D01*
X39325000Y41696429D01*
X39360714Y41839286D01*
X39360714Y42089286D01*
X39325000Y42232143D01*
X39253571Y42303572D01*
X39182142Y42339286D01*
X39039285Y42339286D01*
X38967857Y42303572D01*
X38896428Y42232143D01*
X38860714Y42089286D01*
X38860714Y41839286D01*
X38896428Y41696429D01*
X38967857Y41625000D01*
X39039285Y41589286D01*
X39575000Y41589286D02*
X40003571Y41589286D01*
X39789285Y42339286D02*
X39789285Y41589286D01*
X40396428Y41589286D02*
X40539285Y41589286D01*
X40610714Y41625000D01*
X40682142Y41696429D01*
X40717857Y41839286D01*
X40717857Y42089286D01*
X40682142Y42232143D01*
X40610714Y42303572D01*
X40539285Y42339286D01*
X40396428Y42339286D01*
X40325000Y42303572D01*
X40253571Y42232143D01*
X40217857Y42089286D01*
X40217857Y41839286D01*
X40253571Y41696429D01*
X40325000Y41625000D01*
X40396428Y41589286D01*
X41467857Y42339286D02*
X41217857Y41982143D01*
X41039285Y42339286D02*
X41039285Y41589286D01*
X41325000Y41589286D01*
X41396428Y41625000D01*
X41432142Y41660715D01*
X41467857Y41732143D01*
X41467857Y41839286D01*
X41432142Y41910715D01*
X41396428Y41946429D01*
X41325000Y41982143D01*
X41039285Y41982143D01*
X41789285Y42053572D02*
X42360714Y42053572D01*
X42075000Y42339286D02*
X42075000Y41767858D01*
X38039285Y58339286D02*
X38039285Y57589286D01*
X38289285Y58125000D01*
X38539285Y57589286D01*
X38539285Y58339286D01*
X39039285Y57589286D02*
X39182142Y57589286D01*
X39253571Y57625000D01*
X39325000Y57696429D01*
X39360714Y57839286D01*
X39360714Y58089286D01*
X39325000Y58232143D01*
X39253571Y58303572D01*
X39182142Y58339286D01*
X39039285Y58339286D01*
X38967857Y58303572D01*
X38896428Y58232143D01*
X38860714Y58089286D01*
X38860714Y57839286D01*
X38896428Y57696429D01*
X38967857Y57625000D01*
X39039285Y57589286D01*
X39575000Y57589286D02*
X40003571Y57589286D01*
X39789285Y58339286D02*
X39789285Y57589286D01*
X40396428Y57589286D02*
X40539285Y57589286D01*
X40610714Y57625000D01*
X40682142Y57696429D01*
X40717857Y57839286D01*
X40717857Y58089286D01*
X40682142Y58232143D01*
X40610714Y58303572D01*
X40539285Y58339286D01*
X40396428Y58339286D01*
X40325000Y58303572D01*
X40253571Y58232143D01*
X40217857Y58089286D01*
X40217857Y57839286D01*
X40253571Y57696429D01*
X40325000Y57625000D01*
X40396428Y57589286D01*
X41467857Y58339286D02*
X41217857Y57982143D01*
X41039285Y58339286D02*
X41039285Y57589286D01*
X41325000Y57589286D01*
X41396428Y57625000D01*
X41432142Y57660715D01*
X41467857Y57732143D01*
X41467857Y57839286D01*
X41432142Y57910715D01*
X41396428Y57946429D01*
X41325000Y57982143D01*
X41039285Y57982143D01*
X41789285Y58053572D02*
X42360714Y58053572D01*
X42075000Y58339286D02*
X42075000Y57767858D01*
X38039285Y74339286D02*
X38039285Y73589286D01*
X38289285Y74125000D01*
X38539285Y73589286D01*
X38539285Y74339286D01*
X39039285Y73589286D02*
X39182142Y73589286D01*
X39253571Y73625000D01*
X39325000Y73696429D01*
X39360714Y73839286D01*
X39360714Y74089286D01*
X39325000Y74232143D01*
X39253571Y74303572D01*
X39182142Y74339286D01*
X39039285Y74339286D01*
X38967857Y74303572D01*
X38896428Y74232143D01*
X38860714Y74089286D01*
X38860714Y73839286D01*
X38896428Y73696429D01*
X38967857Y73625000D01*
X39039285Y73589286D01*
X39575000Y73589286D02*
X40003571Y73589286D01*
X39789285Y74339286D02*
X39789285Y73589286D01*
X40396428Y73589286D02*
X40539285Y73589286D01*
X40610714Y73625000D01*
X40682142Y73696429D01*
X40717857Y73839286D01*
X40717857Y74089286D01*
X40682142Y74232143D01*
X40610714Y74303572D01*
X40539285Y74339286D01*
X40396428Y74339286D01*
X40325000Y74303572D01*
X40253571Y74232143D01*
X40217857Y74089286D01*
X40217857Y73839286D01*
X40253571Y73696429D01*
X40325000Y73625000D01*
X40396428Y73589286D01*
X41467857Y74339286D02*
X41217857Y73982143D01*
X41039285Y74339286D02*
X41039285Y73589286D01*
X41325000Y73589286D01*
X41396428Y73625000D01*
X41432142Y73660715D01*
X41467857Y73732143D01*
X41467857Y73839286D01*
X41432142Y73910715D01*
X41396428Y73946429D01*
X41325000Y73982143D01*
X41039285Y73982143D01*
X41789285Y74053572D02*
X42360714Y74053572D01*
X42075000Y74339286D02*
X42075000Y73767858D01*
X8353571Y4050000D02*
X8353571Y3800000D01*
X7960714Y3800000D02*
X8710714Y3800000D01*
X8710714Y4157143D01*
X7960714Y4835715D02*
X7960714Y4407143D01*
X7960714Y4621429D02*
X8710714Y4621429D01*
X8603571Y4550000D01*
X8532142Y4478572D01*
X8496428Y4407143D01*
X8353571Y20050000D02*
X8353571Y19800000D01*
X7960714Y19800000D02*
X8710714Y19800000D01*
X8710714Y20157143D01*
X7960714Y20835715D02*
X7960714Y20407143D01*
X7960714Y20621429D02*
X8710714Y20621429D01*
X8603571Y20550000D01*
X8532142Y20478572D01*
X8496428Y20407143D01*
X8353571Y36050000D02*
X8353571Y35800000D01*
X7960714Y35800000D02*
X8710714Y35800000D01*
X8710714Y36157143D01*
X7960714Y36835715D02*
X7960714Y36407143D01*
X7960714Y36621429D02*
X8710714Y36621429D01*
X8603571Y36550000D01*
X8532142Y36478572D01*
X8496428Y36407143D01*
X8353571Y52050000D02*
X8353571Y51800000D01*
X7960714Y51800000D02*
X8710714Y51800000D01*
X8710714Y52157143D01*
X7960714Y52835715D02*
X7960714Y52407143D01*
X7960714Y52621429D02*
X8710714Y52621429D01*
X8603571Y52550000D01*
X8532142Y52478572D01*
X8496428Y52407143D01*
X8353571Y68050000D02*
X8353571Y67800000D01*
X7960714Y67800000D02*
X8710714Y67800000D01*
X8710714Y68157143D01*
X7960714Y68835715D02*
X7960714Y68407143D01*
X7960714Y68621429D02*
X8710714Y68621429D01*
X8603571Y68550000D01*
X8532142Y68478572D01*
X8496428Y68407143D01*
X38039285Y4839286D02*
X38039285Y4089286D01*
X38289285Y4625000D01*
X38539285Y4089286D01*
X38539285Y4839286D01*
X39039285Y4089286D02*
X39182142Y4089286D01*
X39253571Y4125000D01*
X39325000Y4196429D01*
X39360714Y4339286D01*
X39360714Y4589286D01*
X39325000Y4732143D01*
X39253571Y4803572D01*
X39182142Y4839286D01*
X39039285Y4839286D01*
X38967857Y4803572D01*
X38896428Y4732143D01*
X38860714Y4589286D01*
X38860714Y4339286D01*
X38896428Y4196429D01*
X38967857Y4125000D01*
X39039285Y4089286D01*
X39575000Y4089286D02*
X40003571Y4089286D01*
X39789285Y4839286D02*
X39789285Y4089286D01*
X40396428Y4089286D02*
X40539285Y4089286D01*
X40610714Y4125000D01*
X40682142Y4196429D01*
X40717857Y4339286D01*
X40717857Y4589286D01*
X40682142Y4732143D01*
X40610714Y4803572D01*
X40539285Y4839286D01*
X40396428Y4839286D01*
X40325000Y4803572D01*
X40253571Y4732143D01*
X40217857Y4589286D01*
X40217857Y4339286D01*
X40253571Y4196429D01*
X40325000Y4125000D01*
X40396428Y4089286D01*
X41467857Y4839286D02*
X41217857Y4482143D01*
X41039285Y4839286D02*
X41039285Y4089286D01*
X41325000Y4089286D01*
X41396428Y4125000D01*
X41432142Y4160715D01*
X41467857Y4232143D01*
X41467857Y4339286D01*
X41432142Y4410715D01*
X41396428Y4446429D01*
X41325000Y4482143D01*
X41039285Y4482143D01*
X41789285Y4553572D02*
X42360714Y4553572D01*
X38039285Y20839286D02*
X38039285Y20089286D01*
X38289285Y20625000D01*
X38539285Y20089286D01*
X38539285Y20839286D01*
X39039285Y20089286D02*
X39182142Y20089286D01*
X39253571Y20125000D01*
X39325000Y20196429D01*
X39360714Y20339286D01*
X39360714Y20589286D01*
X39325000Y20732143D01*
X39253571Y20803572D01*
X39182142Y20839286D01*
X39039285Y20839286D01*
X38967857Y20803572D01*
X38896428Y20732143D01*
X38860714Y20589286D01*
X38860714Y20339286D01*
X38896428Y20196429D01*
X38967857Y20125000D01*
X39039285Y20089286D01*
X39575000Y20089286D02*
X40003571Y20089286D01*
X39789285Y20839286D02*
X39789285Y20089286D01*
X40396428Y20089286D02*
X40539285Y20089286D01*
X40610714Y20125000D01*
X40682142Y20196429D01*
X40717857Y20339286D01*
X40717857Y20589286D01*
X40682142Y20732143D01*
X40610714Y20803572D01*
X40539285Y20839286D01*
X40396428Y20839286D01*
X40325000Y20803572D01*
X40253571Y20732143D01*
X40217857Y20589286D01*
X40217857Y20339286D01*
X40253571Y20196429D01*
X40325000Y20125000D01*
X40396428Y20089286D01*
X41467857Y20839286D02*
X41217857Y20482143D01*
X41039285Y20839286D02*
X41039285Y20089286D01*
X41325000Y20089286D01*
X41396428Y20125000D01*
X41432142Y20160715D01*
X41467857Y20232143D01*
X41467857Y20339286D01*
X41432142Y20410715D01*
X41396428Y20446429D01*
X41325000Y20482143D01*
X41039285Y20482143D01*
X41789285Y20553572D02*
X42360714Y20553572D01*
X38039285Y36839286D02*
X38039285Y36089286D01*
X38289285Y36625000D01*
X38539285Y36089286D01*
X38539285Y36839286D01*
X39039285Y36089286D02*
X39182142Y36089286D01*
X39253571Y36125000D01*
X39325000Y36196429D01*
X39360714Y36339286D01*
X39360714Y36589286D01*
X39325000Y36732143D01*
X39253571Y36803572D01*
X39182142Y36839286D01*
X39039285Y36839286D01*
X38967857Y36803572D01*
X38896428Y36732143D01*
X38860714Y36589286D01*
X38860714Y36339286D01*
X38896428Y36196429D01*
X38967857Y36125000D01*
X39039285Y36089286D01*
X39575000Y36089286D02*
X40003571Y36089286D01*
X39789285Y36839286D02*
X39789285Y36089286D01*
X40396428Y36089286D02*
X40539285Y36089286D01*
X40610714Y36125000D01*
X40682142Y36196429D01*
X40717857Y36339286D01*
X40717857Y36589286D01*
X40682142Y36732143D01*
X40610714Y36803572D01*
X40539285Y36839286D01*
X40396428Y36839286D01*
X40325000Y36803572D01*
X40253571Y36732143D01*
X40217857Y36589286D01*
X40217857Y36339286D01*
X40253571Y36196429D01*
X40325000Y36125000D01*
X40396428Y36089286D01*
X41467857Y36839286D02*
X41217857Y36482143D01*
X41039285Y36839286D02*
X41039285Y36089286D01*
X41325000Y36089286D01*
X41396428Y36125000D01*
X41432142Y36160715D01*
X41467857Y36232143D01*
X41467857Y36339286D01*
X41432142Y36410715D01*
X41396428Y36446429D01*
X41325000Y36482143D01*
X41039285Y36482143D01*
X41789285Y36553572D02*
X42360714Y36553572D01*
X38039285Y52839286D02*
X38039285Y52089286D01*
X38289285Y52625000D01*
X38539285Y52089286D01*
X38539285Y52839286D01*
X39039285Y52089286D02*
X39182142Y52089286D01*
X39253571Y52125000D01*
X39325000Y52196429D01*
X39360714Y52339286D01*
X39360714Y52589286D01*
X39325000Y52732143D01*
X39253571Y52803572D01*
X39182142Y52839286D01*
X39039285Y52839286D01*
X38967857Y52803572D01*
X38896428Y52732143D01*
X38860714Y52589286D01*
X38860714Y52339286D01*
X38896428Y52196429D01*
X38967857Y52125000D01*
X39039285Y52089286D01*
X39575000Y52089286D02*
X40003571Y52089286D01*
X39789285Y52839286D02*
X39789285Y52089286D01*
X40396428Y52089286D02*
X40539285Y52089286D01*
X40610714Y52125000D01*
X40682142Y52196429D01*
X40717857Y52339286D01*
X40717857Y52589286D01*
X40682142Y52732143D01*
X40610714Y52803572D01*
X40539285Y52839286D01*
X40396428Y52839286D01*
X40325000Y52803572D01*
X40253571Y52732143D01*
X40217857Y52589286D01*
X40217857Y52339286D01*
X40253571Y52196429D01*
X40325000Y52125000D01*
X40396428Y52089286D01*
X41467857Y52839286D02*
X41217857Y52482143D01*
X41039285Y52839286D02*
X41039285Y52089286D01*
X41325000Y52089286D01*
X41396428Y52125000D01*
X41432142Y52160715D01*
X41467857Y52232143D01*
X41467857Y52339286D01*
X41432142Y52410715D01*
X41396428Y52446429D01*
X41325000Y52482143D01*
X41039285Y52482143D01*
X41789285Y52553572D02*
X42360714Y52553572D01*
X38039285Y68839286D02*
X38039285Y68089286D01*
X38289285Y68625000D01*
X38539285Y68089286D01*
X38539285Y68839286D01*
X39039285Y68089286D02*
X39182142Y68089286D01*
X39253571Y68125000D01*
X39325000Y68196429D01*
X39360714Y68339286D01*
X39360714Y68589286D01*
X39325000Y68732143D01*
X39253571Y68803572D01*
X39182142Y68839286D01*
X39039285Y68839286D01*
X38967857Y68803572D01*
X38896428Y68732143D01*
X38860714Y68589286D01*
X38860714Y68339286D01*
X38896428Y68196429D01*
X38967857Y68125000D01*
X39039285Y68089286D01*
X39575000Y68089286D02*
X40003571Y68089286D01*
X39789285Y68839286D02*
X39789285Y68089286D01*
X40396428Y68089286D02*
X40539285Y68089286D01*
X40610714Y68125000D01*
X40682142Y68196429D01*
X40717857Y68339286D01*
X40717857Y68589286D01*
X40682142Y68732143D01*
X40610714Y68803572D01*
X40539285Y68839286D01*
X40396428Y68839286D01*
X40325000Y68803572D01*
X40253571Y68732143D01*
X40217857Y68589286D01*
X40217857Y68339286D01*
X40253571Y68196429D01*
X40325000Y68125000D01*
X40396428Y68089286D01*
X41467857Y68839286D02*
X41217857Y68482143D01*
X41039285Y68839286D02*
X41039285Y68089286D01*
X41325000Y68089286D01*
X41396428Y68125000D01*
X41432142Y68160715D01*
X41467857Y68232143D01*
X41467857Y68339286D01*
X41432142Y68410715D01*
X41396428Y68446429D01*
X41325000Y68482143D01*
X41039285Y68482143D01*
X41789285Y68553572D02*
X42360714Y68553572D01*
X69000000Y4246429D02*
X68750000Y4246429D01*
X68750000Y4639286D02*
X68750000Y3889286D01*
X69107142Y3889286D01*
X69750000Y3889286D02*
X69392857Y3889286D01*
X69357142Y4246429D01*
X69392857Y4210715D01*
X69464285Y4175000D01*
X69642857Y4175000D01*
X69714285Y4210715D01*
X69750000Y4246429D01*
X69785714Y4317858D01*
X69785714Y4496429D01*
X69750000Y4567858D01*
X69714285Y4603572D01*
X69642857Y4639286D01*
X69464285Y4639286D01*
X69392857Y4603572D01*
X69357142Y4567858D01*
X69000000Y20246429D02*
X68750000Y20246429D01*
X68750000Y20639286D02*
X68750000Y19889286D01*
X69107142Y19889286D01*
X69750000Y19889286D02*
X69392857Y19889286D01*
X69357142Y20246429D01*
X69392857Y20210715D01*
X69464285Y20175000D01*
X69642857Y20175000D01*
X69714285Y20210715D01*
X69750000Y20246429D01*
X69785714Y20317858D01*
X69785714Y20496429D01*
X69750000Y20567858D01*
X69714285Y20603572D01*
X69642857Y20639286D01*
X69464285Y20639286D01*
X69392857Y20603572D01*
X69357142Y20567858D01*
X69000000Y36246429D02*
X68750000Y36246429D01*
X68750000Y36639286D02*
X68750000Y35889286D01*
X69107142Y35889286D01*
X69750000Y35889286D02*
X69392857Y35889286D01*
X69357142Y36246429D01*
X69392857Y36210715D01*
X69464285Y36175000D01*
X69642857Y36175000D01*
X69714285Y36210715D01*
X69750000Y36246429D01*
X69785714Y36317858D01*
X69785714Y36496429D01*
X69750000Y36567858D01*
X69714285Y36603572D01*
X69642857Y36639286D01*
X69464285Y36639286D01*
X69392857Y36603572D01*
X69357142Y36567858D01*
X69000000Y52246429D02*
X68750000Y52246429D01*
X68750000Y52639286D02*
X68750000Y51889286D01*
X69107142Y51889286D01*
X69750000Y51889286D02*
X69392857Y51889286D01*
X69357142Y52246429D01*
X69392857Y52210715D01*
X69464285Y52175000D01*
X69642857Y52175000D01*
X69714285Y52210715D01*
X69750000Y52246429D01*
X69785714Y52317858D01*
X69785714Y52496429D01*
X69750000Y52567858D01*
X69714285Y52603572D01*
X69642857Y52639286D01*
X69464285Y52639286D01*
X69392857Y52603572D01*
X69357142Y52567858D01*
X69000000Y68246429D02*
X68750000Y68246429D01*
X68750000Y68639286D02*
X68750000Y67889286D01*
X69107142Y67889286D01*
X69750000Y67889286D02*
X69392857Y67889286D01*
X69357142Y68246429D01*
X69392857Y68210715D01*
X69464285Y68175000D01*
X69642857Y68175000D01*
X69714285Y68210715D01*
X69750000Y68246429D01*
X69785714Y68317858D01*
X69785714Y68496429D01*
X69750000Y68567858D01*
X69714285Y68603572D01*
X69642857Y68639286D01*
X69464285Y68639286D01*
X69392857Y68603572D01*
X69357142Y68567858D01*
X38039285Y84839286D02*
X38039285Y84089286D01*
X38289285Y84625000D01*
X38539285Y84089286D01*
X38539285Y84839286D01*
X39039285Y84089286D02*
X39182142Y84089286D01*
X39253571Y84125000D01*
X39325000Y84196429D01*
X39360714Y84339286D01*
X39360714Y84589286D01*
X39325000Y84732143D01*
X39253571Y84803572D01*
X39182142Y84839286D01*
X39039285Y84839286D01*
X38967857Y84803572D01*
X38896428Y84732143D01*
X38860714Y84589286D01*
X38860714Y84339286D01*
X38896428Y84196429D01*
X38967857Y84125000D01*
X39039285Y84089286D01*
X39575000Y84089286D02*
X40003571Y84089286D01*
X39789285Y84839286D02*
X39789285Y84089286D01*
X40396428Y84089286D02*
X40539285Y84089286D01*
X40610714Y84125000D01*
X40682142Y84196429D01*
X40717857Y84339286D01*
X40717857Y84589286D01*
X40682142Y84732143D01*
X40610714Y84803572D01*
X40539285Y84839286D01*
X40396428Y84839286D01*
X40325000Y84803572D01*
X40253571Y84732143D01*
X40217857Y84589286D01*
X40217857Y84339286D01*
X40253571Y84196429D01*
X40325000Y84125000D01*
X40396428Y84089286D01*
X41467857Y84839286D02*
X41217857Y84482143D01*
X41039285Y84839286D02*
X41039285Y84089286D01*
X41325000Y84089286D01*
X41396428Y84125000D01*
X41432142Y84160715D01*
X41467857Y84232143D01*
X41467857Y84339286D01*
X41432142Y84410715D01*
X41396428Y84446429D01*
X41325000Y84482143D01*
X41039285Y84482143D01*
X41789285Y84553572D02*
X42360714Y84553572D01*
X38039285Y90339286D02*
X38039285Y89589286D01*
X38289285Y90125000D01*
X38539285Y89589286D01*
X38539285Y90339286D01*
X39039285Y89589286D02*
X39182142Y89589286D01*
X39253571Y89625000D01*
X39325000Y89696429D01*
X39360714Y89839286D01*
X39360714Y90089286D01*
X39325000Y90232143D01*
X39253571Y90303572D01*
X39182142Y90339286D01*
X39039285Y90339286D01*
X38967857Y90303572D01*
X38896428Y90232143D01*
X38860714Y90089286D01*
X38860714Y89839286D01*
X38896428Y89696429D01*
X38967857Y89625000D01*
X39039285Y89589286D01*
X39575000Y89589286D02*
X40003571Y89589286D01*
X39789285Y90339286D02*
X39789285Y89589286D01*
X40396428Y89589286D02*
X40539285Y89589286D01*
X40610714Y89625000D01*
X40682142Y89696429D01*
X40717857Y89839286D01*
X40717857Y90089286D01*
X40682142Y90232143D01*
X40610714Y90303572D01*
X40539285Y90339286D01*
X40396428Y90339286D01*
X40325000Y90303572D01*
X40253571Y90232143D01*
X40217857Y90089286D01*
X40217857Y89839286D01*
X40253571Y89696429D01*
X40325000Y89625000D01*
X40396428Y89589286D01*
X41467857Y90339286D02*
X41217857Y89982143D01*
X41039285Y90339286D02*
X41039285Y89589286D01*
X41325000Y89589286D01*
X41396428Y89625000D01*
X41432142Y89660715D01*
X41467857Y89732143D01*
X41467857Y89839286D01*
X41432142Y89910715D01*
X41396428Y89946429D01*
X41325000Y89982143D01*
X41039285Y89982143D01*
X41789285Y90053572D02*
X42360714Y90053572D01*
X42075000Y90339286D02*
X42075000Y89767858D01*
X13350000Y89646429D02*
X13100000Y89646429D01*
X13100000Y90039286D02*
X13100000Y89289286D01*
X13457142Y89289286D01*
X13707142Y89360715D02*
X13742857Y89325000D01*
X13814285Y89289286D01*
X13992857Y89289286D01*
X14064285Y89325000D01*
X14100000Y89360715D01*
X14135714Y89432143D01*
X14135714Y89503572D01*
X14100000Y89610715D01*
X13671428Y90039286D01*
X14135714Y90039286D01*
X11053571Y84050000D02*
X11053571Y83800000D01*
X10660714Y83800000D02*
X11410714Y83800000D01*
X11410714Y84157143D01*
X11410714Y84371429D02*
X11410714Y84835715D01*
X11125000Y84585715D01*
X11125000Y84692858D01*
X11089285Y84764286D01*
X11053571Y84800000D01*
X10982142Y84835715D01*
X10803571Y84835715D01*
X10732142Y84800000D01*
X10696428Y84764286D01*
X10660714Y84692858D01*
X10660714Y84478572D01*
X10696428Y84407143D01*
X10732142Y84371429D01*
X8353571Y84050000D02*
X8353571Y83800000D01*
X7960714Y83800000D02*
X8710714Y83800000D01*
X8710714Y84157143D01*
X7960714Y84835715D02*
X7960714Y84407143D01*
X7960714Y84621429D02*
X8710714Y84621429D01*
X8603571Y84550000D01*
X8532142Y84478572D01*
X8496428Y84407143D01*
X74696428Y90000000D02*
X74696428Y90250000D01*
X75089285Y90250000D02*
X74339285Y90250000D01*
X74339285Y89892858D01*
X74589285Y89285715D02*
X75089285Y89285715D01*
X74303571Y89464286D02*
X74839285Y89642858D01*
X74839285Y89178572D01*
X69000000Y84246429D02*
X68750000Y84246429D01*
X68750000Y84639286D02*
X68750000Y83889286D01*
X69107142Y83889286D01*
X69750000Y83889286D02*
X69392857Y83889286D01*
X69357142Y84246429D01*
X69392857Y84210715D01*
X69464285Y84175000D01*
X69642857Y84175000D01*
X69714285Y84210715D01*
X69750000Y84246429D01*
X69785714Y84317858D01*
X69785714Y84496429D01*
X69750000Y84567858D01*
X69714285Y84603572D01*
X69642857Y84639286D01*
X69464285Y84639286D01*
X69392857Y84603572D01*
X69357142Y84567858D01*
X72196428Y90000000D02*
X72196428Y90250000D01*
X72589285Y90250000D02*
X71839285Y90250000D01*
X71839285Y89892858D01*
X71839285Y89285715D02*
X71839285Y89428572D01*
X71875000Y89500000D01*
X71910714Y89535715D01*
X72017857Y89607143D01*
X72160714Y89642858D01*
X72446428Y89642858D01*
X72517857Y89607143D01*
X72553571Y89571429D01*
X72589285Y89500000D01*
X72589285Y89357143D01*
X72553571Y89285715D01*
X72517857Y89250000D01*
X72446428Y89214286D01*
X72267857Y89214286D01*
X72196428Y89250000D01*
X72160714Y89285715D01*
X72125000Y89357143D01*
X72125000Y89500000D01*
X72160714Y89571429D01*
X72196428Y89607143D01*
X72267857Y89642858D01*
D11*
%TO.C,D16*%
X10900000Y6700000D02*
X10900000Y7300000D01*
X10500000Y6250000D02*
X10500000Y7750000D01*
X11750000Y8250000D02*
X11250000Y8250000D01*
X11750000Y5750000D02*
X11250000Y5750000D01*
X11750000Y5750000D02*
X11750000Y6500000D01*
X11750000Y6500000D02*
X11500000Y6750000D01*
X11500000Y6750000D02*
X11500000Y7250000D01*
X11500000Y7250000D02*
X11750000Y7500000D01*
X11750000Y7500000D02*
X11750000Y8250000D01*
X11650000Y8500000D02*
X11650000Y9000000D01*
X11900000Y8750000D02*
X11400000Y8750000D01*
X10900000Y22700000D02*
X10900000Y23300000D01*
X10500000Y22250000D02*
X10500000Y23750000D01*
X11750000Y24250000D02*
X11250000Y24250000D01*
X11750000Y21750000D02*
X11250000Y21750000D01*
X11750000Y21750000D02*
X11750000Y22500000D01*
X11750000Y22500000D02*
X11500000Y22750000D01*
X11500000Y22750000D02*
X11500000Y23250000D01*
X11500000Y23250000D02*
X11750000Y23500000D01*
X11750000Y23500000D02*
X11750000Y24250000D01*
X11650000Y24500000D02*
X11650000Y25000000D01*
X11900000Y24750000D02*
X11400000Y24750000D01*
X10900000Y38700000D02*
X10900000Y39300000D01*
X10500000Y38250000D02*
X10500000Y39750000D01*
X11750000Y40250000D02*
X11250000Y40250000D01*
X11750000Y37750000D02*
X11250000Y37750000D01*
X11750000Y37750000D02*
X11750000Y38500000D01*
X11750000Y38500000D02*
X11500000Y38750000D01*
X11500000Y38750000D02*
X11500000Y39250000D01*
X11500000Y39250000D02*
X11750000Y39500000D01*
X11750000Y39500000D02*
X11750000Y40250000D01*
X11650000Y40500000D02*
X11650000Y41000000D01*
X11900000Y40750000D02*
X11400000Y40750000D01*
X10900000Y54700000D02*
X10900000Y55300000D01*
X10500000Y54250000D02*
X10500000Y55750000D01*
X11750000Y56250000D02*
X11250000Y56250000D01*
X11750000Y53750000D02*
X11250000Y53750000D01*
X11750000Y53750000D02*
X11750000Y54500000D01*
X11750000Y54500000D02*
X11500000Y54750000D01*
X11500000Y54750000D02*
X11500000Y55250000D01*
X11500000Y55250000D02*
X11750000Y55500000D01*
X11750000Y55500000D02*
X11750000Y56250000D01*
X11650000Y56500000D02*
X11650000Y57000000D01*
X11900000Y56750000D02*
X11400000Y56750000D01*
X10900000Y70700000D02*
X10900000Y71300000D01*
X10500000Y70250000D02*
X10500000Y71750000D01*
X11750000Y72250000D02*
X11250000Y72250000D01*
X11750000Y69750000D02*
X11250000Y69750000D01*
X11750000Y69750000D02*
X11750000Y70500000D01*
X11750000Y70500000D02*
X11500000Y70750000D01*
X11500000Y70750000D02*
X11500000Y71250000D01*
X11500000Y71250000D02*
X11750000Y71500000D01*
X11750000Y71500000D02*
X11750000Y72250000D01*
X11650000Y72500000D02*
X11650000Y73000000D01*
X11900000Y72750000D02*
X11400000Y72750000D01*
%TO.C,D14*%
X74850000Y7300000D02*
X74850000Y6700000D01*
X75250000Y7750000D02*
X75250000Y6250000D01*
X74000000Y5750000D02*
X74500000Y5750000D01*
X74000000Y8250000D02*
X74500000Y8250000D01*
X74000000Y8250000D02*
X74000000Y7500000D01*
X74000000Y7500000D02*
X74250000Y7250000D01*
X74250000Y7250000D02*
X74250000Y6750000D01*
X74250000Y6750000D02*
X74000000Y6500000D01*
X74000000Y6500000D02*
X74000000Y5750000D01*
X74100000Y5500000D02*
X74100000Y5000000D01*
X73850000Y5250000D02*
X74350000Y5250000D01*
X74850000Y23300000D02*
X74850000Y22700000D01*
X75250000Y23750000D02*
X75250000Y22250000D01*
X74000000Y21750000D02*
X74500000Y21750000D01*
X74000000Y24250000D02*
X74500000Y24250000D01*
X74000000Y24250000D02*
X74000000Y23500000D01*
X74000000Y23500000D02*
X74250000Y23250000D01*
X74250000Y23250000D02*
X74250000Y22750000D01*
X74250000Y22750000D02*
X74000000Y22500000D01*
X74000000Y22500000D02*
X74000000Y21750000D01*
X74100000Y21500000D02*
X74100000Y21000000D01*
X73850000Y21250000D02*
X74350000Y21250000D01*
X74850000Y39300000D02*
X74850000Y38700000D01*
X75250000Y39750000D02*
X75250000Y38250000D01*
X74000000Y37750000D02*
X74500000Y37750000D01*
X74000000Y40250000D02*
X74500000Y40250000D01*
X74000000Y40250000D02*
X74000000Y39500000D01*
X74000000Y39500000D02*
X74250000Y39250000D01*
X74250000Y39250000D02*
X74250000Y38750000D01*
X74250000Y38750000D02*
X74000000Y38500000D01*
X74000000Y38500000D02*
X74000000Y37750000D01*
X74100000Y37500000D02*
X74100000Y37000000D01*
X73850000Y37250000D02*
X74350000Y37250000D01*
X74850000Y55300000D02*
X74850000Y54700000D01*
X75250000Y55750000D02*
X75250000Y54250000D01*
X74000000Y53750000D02*
X74500000Y53750000D01*
X74000000Y56250000D02*
X74500000Y56250000D01*
X74000000Y56250000D02*
X74000000Y55500000D01*
X74000000Y55500000D02*
X74250000Y55250000D01*
X74250000Y55250000D02*
X74250000Y54750000D01*
X74250000Y54750000D02*
X74000000Y54500000D01*
X74000000Y54500000D02*
X74000000Y53750000D01*
X74100000Y53500000D02*
X74100000Y53000000D01*
X73850000Y53250000D02*
X74350000Y53250000D01*
X74850000Y71300000D02*
X74850000Y70700000D01*
X75250000Y71750000D02*
X75250000Y70250000D01*
X74000000Y69750000D02*
X74500000Y69750000D01*
X74000000Y72250000D02*
X74500000Y72250000D01*
X74000000Y72250000D02*
X74000000Y71500000D01*
X74000000Y71500000D02*
X74250000Y71250000D01*
X74250000Y71250000D02*
X74250000Y70750000D01*
X74250000Y70750000D02*
X74000000Y70500000D01*
X74000000Y70500000D02*
X74000000Y69750000D01*
X74100000Y69500000D02*
X74100000Y69000000D01*
X73850000Y69250000D02*
X74350000Y69250000D01*
%TO.C,D13*%
X9150000Y8750000D02*
X8650000Y8750000D01*
X8900000Y8500000D02*
X8900000Y9000000D01*
X9000000Y7500000D02*
X9000000Y8250000D01*
X8750000Y7250000D02*
X9000000Y7500000D01*
X8750000Y6750000D02*
X8750000Y7250000D01*
X9000000Y6500000D02*
X8750000Y6750000D01*
X9000000Y5750000D02*
X9000000Y6500000D01*
X9000000Y5750000D02*
X8500000Y5750000D01*
X9000000Y8250000D02*
X8500000Y8250000D01*
X7750000Y6250000D02*
X7750000Y7750000D01*
X8150000Y6700000D02*
X8150000Y7300000D01*
X9150000Y24750000D02*
X8650000Y24750000D01*
X8900000Y24500000D02*
X8900000Y25000000D01*
X9000000Y23500000D02*
X9000000Y24250000D01*
X8750000Y23250000D02*
X9000000Y23500000D01*
X8750000Y22750000D02*
X8750000Y23250000D01*
X9000000Y22500000D02*
X8750000Y22750000D01*
X9000000Y21750000D02*
X9000000Y22500000D01*
X9000000Y21750000D02*
X8500000Y21750000D01*
X9000000Y24250000D02*
X8500000Y24250000D01*
X7750000Y22250000D02*
X7750000Y23750000D01*
X8150000Y22700000D02*
X8150000Y23300000D01*
X9150000Y40750000D02*
X8650000Y40750000D01*
X8900000Y40500000D02*
X8900000Y41000000D01*
X9000000Y39500000D02*
X9000000Y40250000D01*
X8750000Y39250000D02*
X9000000Y39500000D01*
X8750000Y38750000D02*
X8750000Y39250000D01*
X9000000Y38500000D02*
X8750000Y38750000D01*
X9000000Y37750000D02*
X9000000Y38500000D01*
X9000000Y37750000D02*
X8500000Y37750000D01*
X9000000Y40250000D02*
X8500000Y40250000D01*
X7750000Y38250000D02*
X7750000Y39750000D01*
X8150000Y38700000D02*
X8150000Y39300000D01*
X9150000Y56750000D02*
X8650000Y56750000D01*
X8900000Y56500000D02*
X8900000Y57000000D01*
X9000000Y55500000D02*
X9000000Y56250000D01*
X8750000Y55250000D02*
X9000000Y55500000D01*
X8750000Y54750000D02*
X8750000Y55250000D01*
X9000000Y54500000D02*
X8750000Y54750000D01*
X9000000Y53750000D02*
X9000000Y54500000D01*
X9000000Y53750000D02*
X8500000Y53750000D01*
X9000000Y56250000D02*
X8500000Y56250000D01*
X7750000Y54250000D02*
X7750000Y55750000D01*
X8150000Y54700000D02*
X8150000Y55300000D01*
X9150000Y72750000D02*
X8650000Y72750000D01*
X8900000Y72500000D02*
X8900000Y73000000D01*
X9000000Y71500000D02*
X9000000Y72250000D01*
X8750000Y71250000D02*
X9000000Y71500000D01*
X8750000Y70750000D02*
X8750000Y71250000D01*
X9000000Y70500000D02*
X8750000Y70750000D01*
X9000000Y69750000D02*
X9000000Y70500000D01*
X9000000Y69750000D02*
X8500000Y69750000D01*
X9000000Y72250000D02*
X8500000Y72250000D01*
X7750000Y70250000D02*
X7750000Y71750000D01*
X8150000Y70700000D02*
X8150000Y71300000D01*
%TO.C,D15*%
X72100000Y7300000D02*
X72100000Y6700000D01*
X72500000Y7750000D02*
X72500000Y6250000D01*
X71250000Y5750000D02*
X71750000Y5750000D01*
X71250000Y8250000D02*
X71750000Y8250000D01*
X71250000Y8250000D02*
X71250000Y7500000D01*
X71250000Y7500000D02*
X71500000Y7250000D01*
X71500000Y7250000D02*
X71500000Y6750000D01*
X71500000Y6750000D02*
X71250000Y6500000D01*
X71250000Y6500000D02*
X71250000Y5750000D01*
X71350000Y5500000D02*
X71350000Y5000000D01*
X71100000Y5250000D02*
X71600000Y5250000D01*
X72100000Y23300000D02*
X72100000Y22700000D01*
X72500000Y23750000D02*
X72500000Y22250000D01*
X71250000Y21750000D02*
X71750000Y21750000D01*
X71250000Y24250000D02*
X71750000Y24250000D01*
X71250000Y24250000D02*
X71250000Y23500000D01*
X71250000Y23500000D02*
X71500000Y23250000D01*
X71500000Y23250000D02*
X71500000Y22750000D01*
X71500000Y22750000D02*
X71250000Y22500000D01*
X71250000Y22500000D02*
X71250000Y21750000D01*
X71350000Y21500000D02*
X71350000Y21000000D01*
X71100000Y21250000D02*
X71600000Y21250000D01*
X72100000Y39300000D02*
X72100000Y38700000D01*
X72500000Y39750000D02*
X72500000Y38250000D01*
X71250000Y37750000D02*
X71750000Y37750000D01*
X71250000Y40250000D02*
X71750000Y40250000D01*
X71250000Y40250000D02*
X71250000Y39500000D01*
X71250000Y39500000D02*
X71500000Y39250000D01*
X71500000Y39250000D02*
X71500000Y38750000D01*
X71500000Y38750000D02*
X71250000Y38500000D01*
X71250000Y38500000D02*
X71250000Y37750000D01*
X71350000Y37500000D02*
X71350000Y37000000D01*
X71100000Y37250000D02*
X71600000Y37250000D01*
X72100000Y55300000D02*
X72100000Y54700000D01*
X72500000Y55750000D02*
X72500000Y54250000D01*
X71250000Y53750000D02*
X71750000Y53750000D01*
X71250000Y56250000D02*
X71750000Y56250000D01*
X71250000Y56250000D02*
X71250000Y55500000D01*
X71250000Y55500000D02*
X71500000Y55250000D01*
X71500000Y55250000D02*
X71500000Y54750000D01*
X71500000Y54750000D02*
X71250000Y54500000D01*
X71250000Y54500000D02*
X71250000Y53750000D01*
X71350000Y53500000D02*
X71350000Y53000000D01*
X71100000Y53250000D02*
X71600000Y53250000D01*
X72100000Y71300000D02*
X72100000Y70700000D01*
X72500000Y71750000D02*
X72500000Y70250000D01*
X71250000Y69750000D02*
X71750000Y69750000D01*
X71250000Y72250000D02*
X71750000Y72250000D01*
X71250000Y72250000D02*
X71250000Y71500000D01*
X71250000Y71500000D02*
X71500000Y71250000D01*
X71500000Y71250000D02*
X71500000Y70750000D01*
X71500000Y70750000D02*
X71250000Y70500000D01*
X71250000Y70500000D02*
X71250000Y69750000D01*
X71350000Y69500000D02*
X71350000Y69000000D01*
X71100000Y69250000D02*
X71600000Y69250000D01*
D10*
%TO.C,P9*%
X57500000Y11630000D02*
X60000000Y11630000D01*
X60000000Y11630000D02*
X60000000Y10370000D01*
X60000000Y10370000D02*
X57500000Y10370000D01*
X57500000Y11630000D02*
X57500000Y10370000D01*
X57500000Y27630000D02*
X60000000Y27630000D01*
X60000000Y27630000D02*
X60000000Y26370000D01*
X60000000Y26370000D02*
X57500000Y26370000D01*
X57500000Y27630000D02*
X57500000Y26370000D01*
X57500000Y43630000D02*
X60000000Y43630000D01*
X60000000Y43630000D02*
X60000000Y42370000D01*
X60000000Y42370000D02*
X57500000Y42370000D01*
X57500000Y43630000D02*
X57500000Y42370000D01*
X57500000Y59630000D02*
X60000000Y59630000D01*
X60000000Y59630000D02*
X60000000Y58370000D01*
X60000000Y58370000D02*
X57500000Y58370000D01*
X57500000Y59630000D02*
X57500000Y58370000D01*
X57500000Y75630000D02*
X60000000Y75630000D01*
X60000000Y75630000D02*
X60000000Y74370000D01*
X60000000Y74370000D02*
X57500000Y74370000D01*
X57500000Y75630000D02*
X57500000Y74370000D01*
X57500000Y91630000D02*
X57500000Y90370000D01*
X60000000Y90370000D02*
X57500000Y90370000D01*
X60000000Y91630000D02*
X60000000Y90370000D01*
X57500000Y91630000D02*
X60000000Y91630000D01*
D11*
%TO.C,D15*%
X71100000Y85250000D02*
X71600000Y85250000D01*
X71350000Y85500000D02*
X71350000Y85000000D01*
X71250000Y86500000D02*
X71250000Y85750000D01*
X71500000Y86750000D02*
X71250000Y86500000D01*
X71500000Y87250000D02*
X71500000Y86750000D01*
X71250000Y87500000D02*
X71500000Y87250000D01*
X71250000Y88250000D02*
X71250000Y87500000D01*
X71250000Y88250000D02*
X71750000Y88250000D01*
X71250000Y85750000D02*
X71750000Y85750000D01*
X72500000Y87750000D02*
X72500000Y86250000D01*
X72100000Y87300000D02*
X72100000Y86700000D01*
%TO.C,D13*%
X8150000Y86700000D02*
X8150000Y87300000D01*
X7750000Y86250000D02*
X7750000Y87750000D01*
X9000000Y88250000D02*
X8500000Y88250000D01*
X9000000Y85750000D02*
X8500000Y85750000D01*
X9000000Y85750000D02*
X9000000Y86500000D01*
X9000000Y86500000D02*
X8750000Y86750000D01*
X8750000Y86750000D02*
X8750000Y87250000D01*
X8750000Y87250000D02*
X9000000Y87500000D01*
X9000000Y87500000D02*
X9000000Y88250000D01*
X8900000Y88500000D02*
X8900000Y89000000D01*
X9150000Y88750000D02*
X8650000Y88750000D01*
%TO.C,D14*%
X73850000Y85250000D02*
X74350000Y85250000D01*
X74100000Y85500000D02*
X74100000Y85000000D01*
X74000000Y86500000D02*
X74000000Y85750000D01*
X74250000Y86750000D02*
X74000000Y86500000D01*
X74250000Y87250000D02*
X74250000Y86750000D01*
X74000000Y87500000D02*
X74250000Y87250000D01*
X74000000Y88250000D02*
X74000000Y87500000D01*
X74000000Y88250000D02*
X74500000Y88250000D01*
X74000000Y85750000D02*
X74500000Y85750000D01*
X75250000Y87750000D02*
X75250000Y86250000D01*
X74850000Y87300000D02*
X74850000Y86700000D01*
%TO.C,D16*%
X11900000Y88750000D02*
X11400000Y88750000D01*
X11650000Y88500000D02*
X11650000Y89000000D01*
X11750000Y87500000D02*
X11750000Y88250000D01*
X11500000Y87250000D02*
X11750000Y87500000D01*
X11500000Y86750000D02*
X11500000Y87250000D01*
X11750000Y86500000D02*
X11500000Y86750000D01*
X11750000Y85750000D02*
X11750000Y86500000D01*
X11750000Y85750000D02*
X11250000Y85750000D01*
X11750000Y88250000D02*
X11250000Y88250000D01*
X10500000Y86250000D02*
X10500000Y87750000D01*
X10900000Y86700000D02*
X10900000Y87300000D01*
%TD*%
%LPC*%
D12*
%TO.C,REF\u002A\u002A*%
X79500000Y71000000D03*
%TD*%
%TO.C,REF\u002A\u002A*%
X79500000Y55000000D03*
%TD*%
%TO.C,REF\u002A\u002A*%
X79500000Y39000000D03*
%TD*%
%TO.C,REF\u002A\u002A*%
X79500000Y23000000D03*
%TD*%
%TO.C,REF\u002A\u002A*%
X79500000Y7000000D03*
%TD*%
%TO.C,REF\u002A\u002A*%
X3500000Y7000000D03*
%TD*%
%TO.C,REF\u002A\u002A*%
X3500000Y23000000D03*
%TD*%
%TO.C,REF\u002A\u002A*%
X3500000Y39000000D03*
%TD*%
%TO.C,REF\u002A\u002A*%
X3500000Y55000000D03*
%TD*%
%TO.C,REF\u002A\u002A*%
X3500000Y71000000D03*
%TD*%
%TO.C,REF\u002A\u002A*%
X79500000Y87000000D03*
%TD*%
%TO.C,REF\u002A\u002A*%
X3500000Y87000000D03*
%TD*%
D13*
%TO.C,D16*%
X10750000Y7550000D03*
X10750000Y6450000D03*
D14*
X10875000Y8300000D03*
X10875000Y5700000D03*
%TD*%
D13*
%TO.C,D16*%
X10750000Y23550000D03*
X10750000Y22450000D03*
D14*
X10875000Y24300000D03*
X10875000Y21700000D03*
%TD*%
D13*
%TO.C,D16*%
X10750000Y39550000D03*
X10750000Y38450000D03*
D14*
X10875000Y40300000D03*
X10875000Y37700000D03*
%TD*%
D13*
%TO.C,D16*%
X10750000Y55550000D03*
X10750000Y54450000D03*
D14*
X10875000Y56300000D03*
X10875000Y53700000D03*
%TD*%
D13*
%TO.C,D16*%
X10750000Y71550000D03*
X10750000Y70450000D03*
D14*
X10875000Y72300000D03*
X10875000Y69700000D03*
%TD*%
D13*
%TO.C,D14*%
X75000000Y6450000D03*
X75000000Y7550000D03*
D14*
X74875000Y5700000D03*
X74875000Y8300000D03*
%TD*%
D13*
%TO.C,D14*%
X75000000Y22450000D03*
X75000000Y23550000D03*
D14*
X74875000Y21700000D03*
X74875000Y24300000D03*
%TD*%
D13*
%TO.C,D14*%
X75000000Y38450000D03*
X75000000Y39550000D03*
D14*
X74875000Y37700000D03*
X74875000Y40300000D03*
%TD*%
D13*
%TO.C,D14*%
X75000000Y54450000D03*
X75000000Y55550000D03*
D14*
X74875000Y53700000D03*
X74875000Y56300000D03*
%TD*%
D13*
%TO.C,D14*%
X75000000Y70450000D03*
X75000000Y71550000D03*
D14*
X74875000Y69700000D03*
X74875000Y72300000D03*
%TD*%
%TO.C,D13*%
X8125000Y5700000D03*
X8125000Y8300000D03*
D13*
X8000000Y6450000D03*
X8000000Y7550000D03*
%TD*%
D14*
%TO.C,D13*%
X8125000Y21700000D03*
X8125000Y24300000D03*
D13*
X8000000Y22450000D03*
X8000000Y23550000D03*
%TD*%
D14*
%TO.C,D13*%
X8125000Y37700000D03*
X8125000Y40300000D03*
D13*
X8000000Y38450000D03*
X8000000Y39550000D03*
%TD*%
D14*
%TO.C,D13*%
X8125000Y53700000D03*
X8125000Y56300000D03*
D13*
X8000000Y54450000D03*
X8000000Y55550000D03*
%TD*%
D14*
%TO.C,D13*%
X8125000Y69700000D03*
X8125000Y72300000D03*
D13*
X8000000Y70450000D03*
X8000000Y71550000D03*
%TD*%
%TO.C,D15*%
X72250000Y6450000D03*
X72250000Y7550000D03*
D14*
X72125000Y5700000D03*
X72125000Y8300000D03*
%TD*%
D13*
%TO.C,D15*%
X72250000Y22450000D03*
X72250000Y23550000D03*
D14*
X72125000Y21700000D03*
X72125000Y24300000D03*
%TD*%
D13*
%TO.C,D15*%
X72250000Y38450000D03*
X72250000Y39550000D03*
D14*
X72125000Y37700000D03*
X72125000Y40300000D03*
%TD*%
D13*
%TO.C,D15*%
X72250000Y54450000D03*
X72250000Y55550000D03*
D14*
X72125000Y53700000D03*
X72125000Y56300000D03*
%TD*%
D13*
%TO.C,D15*%
X72250000Y70450000D03*
X72250000Y71550000D03*
D14*
X72125000Y69700000D03*
X72125000Y72300000D03*
%TD*%
D15*
%TO.C,P25*%
X26000000Y1000000D03*
%TD*%
%TO.C,P25*%
X26000000Y17000000D03*
%TD*%
%TO.C,P25*%
X26000000Y33000000D03*
%TD*%
%TO.C,P25*%
X26000000Y49000000D03*
%TD*%
%TO.C,P25*%
X26000000Y65000000D03*
%TD*%
D16*
%TO.C,P27*%
X46500000Y1000000D03*
%TD*%
%TO.C,P27*%
X46500000Y17000000D03*
%TD*%
%TO.C,P27*%
X46500000Y33000000D03*
%TD*%
%TO.C,P27*%
X46500000Y49000000D03*
%TD*%
%TO.C,P27*%
X46500000Y65000000D03*
%TD*%
D15*
%TO.C,P31*%
X32500000Y4500000D03*
%TD*%
%TO.C,P31*%
X32500000Y20500000D03*
%TD*%
%TO.C,P31*%
X32500000Y36500000D03*
%TD*%
%TO.C,P31*%
X32500000Y52500000D03*
%TD*%
%TO.C,P31*%
X32500000Y68500000D03*
%TD*%
%TO.C,P24*%
X57000000Y13000000D03*
%TD*%
%TO.C,P24*%
X57000000Y29000000D03*
%TD*%
%TO.C,P24*%
X57000000Y45000000D03*
%TD*%
%TO.C,P24*%
X57000000Y61000000D03*
%TD*%
%TO.C,P24*%
X57000000Y77000000D03*
%TD*%
D16*
%TO.C,P26*%
X36500000Y1000000D03*
%TD*%
%TO.C,P26*%
X36500000Y17000000D03*
%TD*%
%TO.C,P26*%
X36500000Y33000000D03*
%TD*%
%TO.C,P26*%
X36500000Y49000000D03*
%TD*%
%TO.C,P26*%
X36500000Y65000000D03*
%TD*%
D15*
%TO.C,P28*%
X57000000Y1000000D03*
%TD*%
%TO.C,P28*%
X57000000Y17000000D03*
%TD*%
%TO.C,P28*%
X57000000Y33000000D03*
%TD*%
%TO.C,P28*%
X57000000Y49000000D03*
%TD*%
%TO.C,P28*%
X57000000Y65000000D03*
%TD*%
%TO.C,P29*%
X32500000Y9500000D03*
%TD*%
%TO.C,P29*%
X32500000Y25500000D03*
%TD*%
%TO.C,P29*%
X32500000Y41500000D03*
%TD*%
%TO.C,P29*%
X32500000Y57500000D03*
%TD*%
%TO.C,P29*%
X32500000Y73500000D03*
%TD*%
%TO.C,P21*%
X26000000Y13000000D03*
%TD*%
%TO.C,P21*%
X26000000Y29000000D03*
%TD*%
%TO.C,P21*%
X26000000Y45000000D03*
%TD*%
%TO.C,P21*%
X26000000Y61000000D03*
%TD*%
%TO.C,P21*%
X26000000Y77000000D03*
%TD*%
D17*
%TO.C,J18*%
X12250000Y9500000D03*
%TD*%
%TO.C,J18*%
X12250000Y25500000D03*
%TD*%
%TO.C,J18*%
X12250000Y41500000D03*
%TD*%
%TO.C,J18*%
X12250000Y57500000D03*
%TD*%
%TO.C,J18*%
X12250000Y73500000D03*
%TD*%
D16*
%TO.C,P23*%
X46500000Y13000000D03*
%TD*%
%TO.C,P23*%
X46500000Y29000000D03*
%TD*%
%TO.C,P23*%
X46500000Y45000000D03*
%TD*%
%TO.C,P23*%
X46500000Y61000000D03*
%TD*%
%TO.C,P23*%
X46500000Y77000000D03*
%TD*%
%TO.C,P22*%
X36500000Y13000000D03*
%TD*%
%TO.C,P22*%
X36500000Y29000000D03*
%TD*%
%TO.C,P22*%
X36500000Y45000000D03*
%TD*%
%TO.C,P22*%
X36500000Y61000000D03*
%TD*%
%TO.C,P22*%
X36500000Y77000000D03*
%TD*%
D18*
%TO.C,P9*%
X59385000Y11000000D03*
X58115000Y11000000D03*
%TD*%
%TO.C,P9*%
X59385000Y27000000D03*
X58115000Y27000000D03*
%TD*%
%TO.C,P9*%
X59385000Y43000000D03*
X58115000Y43000000D03*
%TD*%
%TO.C,P9*%
X59385000Y59000000D03*
X58115000Y59000000D03*
%TD*%
%TO.C,P9*%
X59385000Y75000000D03*
X58115000Y75000000D03*
%TD*%
D17*
%TO.C,J12*%
X70750000Y4500000D03*
%TD*%
%TO.C,J12*%
X70750000Y20500000D03*
%TD*%
%TO.C,J12*%
X70750000Y36500000D03*
%TD*%
%TO.C,J12*%
X70750000Y52500000D03*
%TD*%
%TO.C,J12*%
X70750000Y68500000D03*
%TD*%
%TO.C,J16*%
X70750000Y9500000D03*
%TD*%
%TO.C,J16*%
X70750000Y25500000D03*
%TD*%
%TO.C,J16*%
X70750000Y41500000D03*
%TD*%
%TO.C,J16*%
X70750000Y57500000D03*
%TD*%
%TO.C,J16*%
X70750000Y73500000D03*
%TD*%
%TO.C,J14*%
X12250000Y4500000D03*
%TD*%
%TO.C,J14*%
X12250000Y20500000D03*
%TD*%
%TO.C,J14*%
X12250000Y36500000D03*
%TD*%
%TO.C,J14*%
X12250000Y52500000D03*
%TD*%
%TO.C,J14*%
X12250000Y68500000D03*
%TD*%
%TO.C,J12*%
X70750000Y84500000D03*
%TD*%
%TO.C,J14*%
X12250000Y84500000D03*
%TD*%
%TO.C,J16*%
X70750000Y89500000D03*
%TD*%
%TO.C,J18*%
X12250000Y89500000D03*
%TD*%
D18*
%TO.C,P9*%
X58115000Y91000000D03*
X59385000Y91000000D03*
%TD*%
D15*
%TO.C,P21*%
X26000000Y93000000D03*
%TD*%
D16*
%TO.C,P22*%
X36500000Y93000000D03*
%TD*%
%TO.C,P23*%
X46500000Y93000000D03*
%TD*%
D15*
%TO.C,P24*%
X57000000Y93000000D03*
%TD*%
%TO.C,P25*%
X26000000Y81000000D03*
%TD*%
D16*
%TO.C,P26*%
X36500000Y81000000D03*
%TD*%
%TO.C,P27*%
X46500000Y81000000D03*
%TD*%
D15*
%TO.C,P28*%
X57000000Y81000000D03*
%TD*%
%TO.C,P29*%
X32500000Y89500000D03*
%TD*%
%TO.C,P31*%
X32500000Y84500000D03*
%TD*%
D14*
%TO.C,D15*%
X72125000Y88300000D03*
X72125000Y85700000D03*
D13*
X72250000Y87550000D03*
X72250000Y86450000D03*
%TD*%
%TO.C,D13*%
X8000000Y87550000D03*
X8000000Y86450000D03*
D14*
X8125000Y88300000D03*
X8125000Y85700000D03*
%TD*%
%TO.C,D14*%
X74875000Y88300000D03*
X74875000Y85700000D03*
D13*
X75000000Y87550000D03*
X75000000Y86450000D03*
%TD*%
D14*
%TO.C,D16*%
X10875000Y85700000D03*
X10875000Y88300000D03*
D13*
X10750000Y86450000D03*
X10750000Y87550000D03*
%TD*%
M02*
