%TF.GenerationSoftware,KiCad,Pcbnew,(5.1.9)-1*%
%TF.CreationDate,2021-03-16T21:41:16+09:00*%
%TF.ProjectId,motordecoder2-roomlight,6d6f746f-7264-4656-936f-646572322d72,rev?*%
%TF.SameCoordinates,PX5b8d800PY7ed6b40*%
%TF.FileFunction,Paste,Bot*%
%TF.FilePolarity,Positive*%
%FSLAX46Y46*%
G04 Gerber Fmt 4.6, Leading zero omitted, Abs format (unit mm)*
G04 Created by KiCad (PCBNEW (5.1.9)-1) date 2021-03-16 21:41:16*
%MOMM*%
%LPD*%
G01*
G04 APERTURE LIST*
%ADD10C,2.000000*%
%ADD11R,0.650000X0.900000*%
%ADD12R,0.500000X0.800000*%
%ADD13R,0.900000X0.650000*%
%ADD14R,0.700000X0.300000*%
%ADD15R,0.300000X0.700000*%
%ADD16R,0.800000X0.700000*%
%ADD17R,0.550000X0.600000*%
%ADD18R,0.700000X0.800000*%
%ADD19R,0.800000X1.000000*%
%ADD20R,0.500000X0.550000*%
%ADD21R,0.500000X0.500000*%
%ADD22R,0.600000X0.800000*%
%ADD23R,1.000000X0.700000*%
%ADD24R,0.900000X0.800000*%
%ADD25R,0.800000X0.800000*%
%ADD26C,2.300000*%
%ADD27R,1.200000X0.900000*%
%ADD28R,0.800000X0.900000*%
%ADD29C,0.100000*%
%ADD30R,0.600000X0.550000*%
G04 APERTURE END LIST*
D10*
%TO.C,REF\u002A\u002A*%
X2500000Y77000000D03*
%TD*%
%TO.C,REF\u002A\u002A*%
X2500000Y89000000D03*
%TD*%
%TO.C,REF\u002A\u002A*%
X2500000Y65000000D03*
%TD*%
%TO.C,REF\u002A\u002A*%
X2500000Y53000000D03*
%TD*%
%TO.C,REF\u002A\u002A*%
X2500000Y17000000D03*
%TD*%
%TO.C,REF\u002A\u002A*%
X2500000Y41000000D03*
%TD*%
%TO.C,REF\u002A\u002A*%
X2500000Y5000000D03*
%TD*%
%TO.C,REF\u002A\u002A*%
X2500000Y29000000D03*
%TD*%
%TO.C,REF\u002A\u002A*%
X96500000Y17000000D03*
%TD*%
%TO.C,REF\u002A\u002A*%
X96500000Y5000000D03*
%TD*%
%TO.C,REF\u002A\u002A*%
X96500000Y41000000D03*
%TD*%
%TO.C,REF\u002A\u002A*%
X96500000Y53000000D03*
%TD*%
%TO.C,REF\u002A\u002A*%
X96500000Y29000000D03*
%TD*%
%TO.C,REF\u002A\u002A*%
X96500000Y65000000D03*
%TD*%
%TO.C,REF\u002A\u002A*%
X96500000Y77000000D03*
%TD*%
%TO.C,REF\u002A\u002A*%
X96500000Y89000000D03*
%TD*%
D11*
%TO.C,R46*%
X33775000Y2300000D03*
X35425000Y2300000D03*
%TD*%
%TO.C,R46*%
X33775000Y14300000D03*
X35425000Y14300000D03*
%TD*%
%TO.C,R46*%
X33775000Y26300000D03*
X35425000Y26300000D03*
%TD*%
%TO.C,R46*%
X33775000Y38300000D03*
X35425000Y38300000D03*
%TD*%
%TO.C,R46*%
X33775000Y50300000D03*
X35425000Y50300000D03*
%TD*%
%TO.C,R46*%
X33775000Y62300000D03*
X35425000Y62300000D03*
%TD*%
%TO.C,R46*%
X33775000Y74300000D03*
X35425000Y74300000D03*
%TD*%
D12*
%TO.C,Q11*%
X25250000Y8200000D03*
X24600000Y6300000D03*
X25900000Y6300000D03*
%TD*%
%TO.C,Q11*%
X25250000Y20200000D03*
X24600000Y18300000D03*
X25900000Y18300000D03*
%TD*%
%TO.C,Q11*%
X25250000Y32200000D03*
X24600000Y30300000D03*
X25900000Y30300000D03*
%TD*%
%TO.C,Q11*%
X25250000Y44200000D03*
X24600000Y42300000D03*
X25900000Y42300000D03*
%TD*%
%TO.C,Q11*%
X25250000Y56200000D03*
X24600000Y54300000D03*
X25900000Y54300000D03*
%TD*%
%TO.C,Q11*%
X25250000Y68200000D03*
X24600000Y66300000D03*
X25900000Y66300000D03*
%TD*%
%TO.C,Q11*%
X25250000Y80200000D03*
X24600000Y78300000D03*
X25900000Y78300000D03*
%TD*%
D13*
%TO.C,R45*%
X50700000Y3225000D03*
X50700000Y1575000D03*
%TD*%
%TO.C,R45*%
X50700000Y15225000D03*
X50700000Y13575000D03*
%TD*%
%TO.C,R45*%
X50700000Y27225000D03*
X50700000Y25575000D03*
%TD*%
%TO.C,R45*%
X50700000Y39225000D03*
X50700000Y37575000D03*
%TD*%
%TO.C,R45*%
X50700000Y51225000D03*
X50700000Y49575000D03*
%TD*%
%TO.C,R45*%
X50700000Y63225000D03*
X50700000Y61575000D03*
%TD*%
%TO.C,R45*%
X50700000Y75225000D03*
X50700000Y73575000D03*
%TD*%
D14*
%TO.C,Q21*%
X64750000Y5250000D03*
X64750000Y5750000D03*
X64750000Y6250000D03*
X66250000Y6250000D03*
X66250000Y5750000D03*
X66250000Y5250000D03*
%TD*%
%TO.C,Q21*%
X64750000Y17250000D03*
X64750000Y17750000D03*
X64750000Y18250000D03*
X66250000Y18250000D03*
X66250000Y17750000D03*
X66250000Y17250000D03*
%TD*%
%TO.C,Q21*%
X64750000Y29250000D03*
X64750000Y29750000D03*
X64750000Y30250000D03*
X66250000Y30250000D03*
X66250000Y29750000D03*
X66250000Y29250000D03*
%TD*%
%TO.C,Q21*%
X64750000Y41250000D03*
X64750000Y41750000D03*
X64750000Y42250000D03*
X66250000Y42250000D03*
X66250000Y41750000D03*
X66250000Y41250000D03*
%TD*%
%TO.C,Q21*%
X64750000Y53250000D03*
X64750000Y53750000D03*
X64750000Y54250000D03*
X66250000Y54250000D03*
X66250000Y53750000D03*
X66250000Y53250000D03*
%TD*%
%TO.C,Q21*%
X64750000Y65250000D03*
X64750000Y65750000D03*
X64750000Y66250000D03*
X66250000Y66250000D03*
X66250000Y65750000D03*
X66250000Y65250000D03*
%TD*%
%TO.C,Q21*%
X64750000Y77250000D03*
X64750000Y77750000D03*
X64750000Y78250000D03*
X66250000Y78250000D03*
X66250000Y77750000D03*
X66250000Y77250000D03*
%TD*%
D12*
%TO.C,Q17*%
X42150000Y750000D03*
X40850000Y750000D03*
X41500000Y2650000D03*
%TD*%
%TO.C,Q17*%
X42150000Y12750000D03*
X40850000Y12750000D03*
X41500000Y14650000D03*
%TD*%
%TO.C,Q17*%
X42150000Y24750000D03*
X40850000Y24750000D03*
X41500000Y26650000D03*
%TD*%
%TO.C,Q17*%
X42150000Y36750000D03*
X40850000Y36750000D03*
X41500000Y38650000D03*
%TD*%
%TO.C,Q17*%
X42150000Y48750000D03*
X40850000Y48750000D03*
X41500000Y50650000D03*
%TD*%
%TO.C,Q17*%
X42150000Y60750000D03*
X40850000Y60750000D03*
X41500000Y62650000D03*
%TD*%
%TO.C,Q17*%
X42150000Y72750000D03*
X40850000Y72750000D03*
X41500000Y74650000D03*
%TD*%
D11*
%TO.C,R43*%
X71925000Y5000000D03*
X73575000Y5000000D03*
%TD*%
%TO.C,R43*%
X71925000Y17000000D03*
X73575000Y17000000D03*
%TD*%
%TO.C,R43*%
X71925000Y29000000D03*
X73575000Y29000000D03*
%TD*%
%TO.C,R43*%
X71925000Y41000000D03*
X73575000Y41000000D03*
%TD*%
%TO.C,R43*%
X71925000Y53000000D03*
X73575000Y53000000D03*
%TD*%
%TO.C,R43*%
X71925000Y65000000D03*
X73575000Y65000000D03*
%TD*%
%TO.C,R43*%
X71925000Y77000000D03*
X73575000Y77000000D03*
%TD*%
D13*
%TO.C,R42*%
X83500000Y4175000D03*
X83500000Y5825000D03*
%TD*%
%TO.C,R42*%
X83500000Y16175000D03*
X83500000Y17825000D03*
%TD*%
%TO.C,R42*%
X83500000Y28175000D03*
X83500000Y29825000D03*
%TD*%
%TO.C,R42*%
X83500000Y40175000D03*
X83500000Y41825000D03*
%TD*%
%TO.C,R42*%
X83500000Y52175000D03*
X83500000Y53825000D03*
%TD*%
%TO.C,R42*%
X83500000Y64175000D03*
X83500000Y65825000D03*
%TD*%
%TO.C,R42*%
X83500000Y76175000D03*
X83500000Y77825000D03*
%TD*%
%TO.C,R41*%
X90500000Y5825000D03*
X90500000Y4175000D03*
%TD*%
%TO.C,R41*%
X90500000Y17825000D03*
X90500000Y16175000D03*
%TD*%
%TO.C,R41*%
X90500000Y29825000D03*
X90500000Y28175000D03*
%TD*%
%TO.C,R41*%
X90500000Y41825000D03*
X90500000Y40175000D03*
%TD*%
%TO.C,R41*%
X90500000Y53825000D03*
X90500000Y52175000D03*
%TD*%
%TO.C,R41*%
X90500000Y65825000D03*
X90500000Y64175000D03*
%TD*%
%TO.C,R41*%
X90500000Y77825000D03*
X90500000Y76175000D03*
%TD*%
D11*
%TO.C,R14*%
X55875000Y6600000D03*
X57525000Y6600000D03*
%TD*%
%TO.C,R14*%
X55875000Y18600000D03*
X57525000Y18600000D03*
%TD*%
%TO.C,R14*%
X55875000Y30600000D03*
X57525000Y30600000D03*
%TD*%
%TO.C,R14*%
X55875000Y42600000D03*
X57525000Y42600000D03*
%TD*%
%TO.C,R14*%
X55875000Y54600000D03*
X57525000Y54600000D03*
%TD*%
%TO.C,R14*%
X55875000Y66600000D03*
X57525000Y66600000D03*
%TD*%
%TO.C,R14*%
X55875000Y78600000D03*
X57525000Y78600000D03*
%TD*%
D13*
%TO.C,R10*%
X27250000Y4325000D03*
X27250000Y2675000D03*
%TD*%
%TO.C,R10*%
X27250000Y16325000D03*
X27250000Y14675000D03*
%TD*%
%TO.C,R10*%
X27250000Y28325000D03*
X27250000Y26675000D03*
%TD*%
%TO.C,R10*%
X27250000Y40325000D03*
X27250000Y38675000D03*
%TD*%
%TO.C,R10*%
X27250000Y52325000D03*
X27250000Y50675000D03*
%TD*%
%TO.C,R10*%
X27250000Y64325000D03*
X27250000Y62675000D03*
%TD*%
%TO.C,R10*%
X27250000Y76325000D03*
X27250000Y74675000D03*
%TD*%
%TO.C,R9*%
X27250000Y5375000D03*
X27250000Y7025000D03*
%TD*%
%TO.C,R9*%
X27250000Y17375000D03*
X27250000Y19025000D03*
%TD*%
%TO.C,R9*%
X27250000Y29375000D03*
X27250000Y31025000D03*
%TD*%
%TO.C,R9*%
X27250000Y41375000D03*
X27250000Y43025000D03*
%TD*%
%TO.C,R9*%
X27250000Y53375000D03*
X27250000Y55025000D03*
%TD*%
%TO.C,R9*%
X27250000Y65375000D03*
X27250000Y67025000D03*
%TD*%
%TO.C,R9*%
X27250000Y77375000D03*
X27250000Y79025000D03*
%TD*%
D11*
%TO.C,R6*%
X32825000Y4300000D03*
X31175000Y4300000D03*
%TD*%
%TO.C,R6*%
X32825000Y16300000D03*
X31175000Y16300000D03*
%TD*%
%TO.C,R6*%
X32825000Y28300000D03*
X31175000Y28300000D03*
%TD*%
%TO.C,R6*%
X32825000Y40300000D03*
X31175000Y40300000D03*
%TD*%
%TO.C,R6*%
X32825000Y52300000D03*
X31175000Y52300000D03*
%TD*%
%TO.C,R6*%
X32825000Y64300000D03*
X31175000Y64300000D03*
%TD*%
%TO.C,R6*%
X32825000Y76300000D03*
X31175000Y76300000D03*
%TD*%
D14*
%TO.C,Q8*%
X69250000Y6750000D03*
X69250000Y7250000D03*
X69250000Y7750000D03*
X67750000Y7750000D03*
X67750000Y7250000D03*
X67750000Y6750000D03*
%TD*%
%TO.C,Q8*%
X69250000Y18750000D03*
X69250000Y19250000D03*
X69250000Y19750000D03*
X67750000Y19750000D03*
X67750000Y19250000D03*
X67750000Y18750000D03*
%TD*%
%TO.C,Q8*%
X69250000Y30750000D03*
X69250000Y31250000D03*
X69250000Y31750000D03*
X67750000Y31750000D03*
X67750000Y31250000D03*
X67750000Y30750000D03*
%TD*%
%TO.C,Q8*%
X69250000Y42750000D03*
X69250000Y43250000D03*
X69250000Y43750000D03*
X67750000Y43750000D03*
X67750000Y43250000D03*
X67750000Y42750000D03*
%TD*%
%TO.C,Q8*%
X69250000Y54750000D03*
X69250000Y55250000D03*
X69250000Y55750000D03*
X67750000Y55750000D03*
X67750000Y55250000D03*
X67750000Y54750000D03*
%TD*%
%TO.C,Q8*%
X69250000Y66750000D03*
X69250000Y67250000D03*
X69250000Y67750000D03*
X67750000Y67750000D03*
X67750000Y67250000D03*
X67750000Y66750000D03*
%TD*%
%TO.C,Q8*%
X69250000Y78750000D03*
X69250000Y79250000D03*
X69250000Y79750000D03*
X67750000Y79750000D03*
X67750000Y79250000D03*
X67750000Y78750000D03*
%TD*%
D13*
%TO.C,R4*%
X32500000Y2325000D03*
X32500000Y675000D03*
%TD*%
%TO.C,R4*%
X32500000Y14325000D03*
X32500000Y12675000D03*
%TD*%
%TO.C,R4*%
X32500000Y26325000D03*
X32500000Y24675000D03*
%TD*%
%TO.C,R4*%
X32500000Y38325000D03*
X32500000Y36675000D03*
%TD*%
%TO.C,R4*%
X32500000Y50325000D03*
X32500000Y48675000D03*
%TD*%
%TO.C,R4*%
X32500000Y62325000D03*
X32500000Y60675000D03*
%TD*%
%TO.C,R4*%
X32500000Y74325000D03*
X32500000Y72675000D03*
%TD*%
%TO.C,R3*%
X32600000Y7325000D03*
X32600000Y5675000D03*
%TD*%
%TO.C,R3*%
X32600000Y19325000D03*
X32600000Y17675000D03*
%TD*%
%TO.C,R3*%
X32600000Y31325000D03*
X32600000Y29675000D03*
%TD*%
%TO.C,R3*%
X32600000Y43325000D03*
X32600000Y41675000D03*
%TD*%
%TO.C,R3*%
X32600000Y55325000D03*
X32600000Y53675000D03*
%TD*%
%TO.C,R3*%
X32600000Y67325000D03*
X32600000Y65675000D03*
%TD*%
%TO.C,R3*%
X32600000Y79325000D03*
X32600000Y77675000D03*
%TD*%
D12*
%TO.C,Q5*%
X53350000Y4150000D03*
X54650000Y4150000D03*
X54000000Y2250000D03*
%TD*%
%TO.C,Q5*%
X53350000Y16150000D03*
X54650000Y16150000D03*
X54000000Y14250000D03*
%TD*%
%TO.C,Q5*%
X53350000Y28150000D03*
X54650000Y28150000D03*
X54000000Y26250000D03*
%TD*%
%TO.C,Q5*%
X53350000Y40150000D03*
X54650000Y40150000D03*
X54000000Y38250000D03*
%TD*%
%TO.C,Q5*%
X53350000Y52150000D03*
X54650000Y52150000D03*
X54000000Y50250000D03*
%TD*%
%TO.C,Q5*%
X53350000Y64150000D03*
X54650000Y64150000D03*
X54000000Y62250000D03*
%TD*%
%TO.C,Q5*%
X53350000Y76150000D03*
X54650000Y76150000D03*
X54000000Y74250000D03*
%TD*%
D13*
%TO.C,R5*%
X34300000Y8225000D03*
X34300000Y6575000D03*
%TD*%
%TO.C,R5*%
X34300000Y20225000D03*
X34300000Y18575000D03*
%TD*%
%TO.C,R5*%
X34300000Y32225000D03*
X34300000Y30575000D03*
%TD*%
%TO.C,R5*%
X34300000Y44225000D03*
X34300000Y42575000D03*
%TD*%
%TO.C,R5*%
X34300000Y56225000D03*
X34300000Y54575000D03*
%TD*%
%TO.C,R5*%
X34300000Y68225000D03*
X34300000Y66575000D03*
%TD*%
%TO.C,R5*%
X34300000Y80225000D03*
X34300000Y78575000D03*
%TD*%
D14*
%TO.C,Q3*%
X33750000Y5500000D03*
X33750000Y5000000D03*
X33750000Y4500000D03*
X35250000Y4500000D03*
X35250000Y5000000D03*
X35250000Y5500000D03*
%TD*%
%TO.C,Q3*%
X33750000Y17500000D03*
X33750000Y17000000D03*
X33750000Y16500000D03*
X35250000Y16500000D03*
X35250000Y17000000D03*
X35250000Y17500000D03*
%TD*%
%TO.C,Q3*%
X33750000Y29500000D03*
X33750000Y29000000D03*
X33750000Y28500000D03*
X35250000Y28500000D03*
X35250000Y29000000D03*
X35250000Y29500000D03*
%TD*%
%TO.C,Q3*%
X33750000Y41500000D03*
X33750000Y41000000D03*
X33750000Y40500000D03*
X35250000Y40500000D03*
X35250000Y41000000D03*
X35250000Y41500000D03*
%TD*%
%TO.C,Q3*%
X33750000Y53500000D03*
X33750000Y53000000D03*
X33750000Y52500000D03*
X35250000Y52500000D03*
X35250000Y53000000D03*
X35250000Y53500000D03*
%TD*%
%TO.C,Q3*%
X33750000Y65500000D03*
X33750000Y65000000D03*
X33750000Y64500000D03*
X35250000Y64500000D03*
X35250000Y65000000D03*
X35250000Y65500000D03*
%TD*%
%TO.C,Q3*%
X33750000Y77500000D03*
X33750000Y77000000D03*
X33750000Y76500000D03*
X35250000Y76500000D03*
X35250000Y77000000D03*
X35250000Y77500000D03*
%TD*%
D15*
%TO.C,Q14*%
X41400000Y6850000D03*
X40900000Y6850000D03*
X40400000Y6850000D03*
X40400000Y5350000D03*
X40900000Y5350000D03*
X41400000Y5350000D03*
%TD*%
%TO.C,Q14*%
X41400000Y18850000D03*
X40900000Y18850000D03*
X40400000Y18850000D03*
X40400000Y17350000D03*
X40900000Y17350000D03*
X41400000Y17350000D03*
%TD*%
%TO.C,Q14*%
X41400000Y30850000D03*
X40900000Y30850000D03*
X40400000Y30850000D03*
X40400000Y29350000D03*
X40900000Y29350000D03*
X41400000Y29350000D03*
%TD*%
%TO.C,Q14*%
X41400000Y42850000D03*
X40900000Y42850000D03*
X40400000Y42850000D03*
X40400000Y41350000D03*
X40900000Y41350000D03*
X41400000Y41350000D03*
%TD*%
%TO.C,Q14*%
X41400000Y54850000D03*
X40900000Y54850000D03*
X40400000Y54850000D03*
X40400000Y53350000D03*
X40900000Y53350000D03*
X41400000Y53350000D03*
%TD*%
%TO.C,Q14*%
X41400000Y66850000D03*
X40900000Y66850000D03*
X40400000Y66850000D03*
X40400000Y65350000D03*
X40900000Y65350000D03*
X41400000Y65350000D03*
%TD*%
%TO.C,Q14*%
X41400000Y78850000D03*
X40900000Y78850000D03*
X40400000Y78850000D03*
X40400000Y77350000D03*
X40900000Y77350000D03*
X41400000Y77350000D03*
%TD*%
D14*
%TO.C,Q13*%
X55750000Y2900000D03*
X55750000Y2400000D03*
X55750000Y1900000D03*
X57250000Y1900000D03*
X57250000Y2400000D03*
X57250000Y2900000D03*
%TD*%
%TO.C,Q13*%
X55750000Y14900000D03*
X55750000Y14400000D03*
X55750000Y13900000D03*
X57250000Y13900000D03*
X57250000Y14400000D03*
X57250000Y14900000D03*
%TD*%
%TO.C,Q13*%
X55750000Y26900000D03*
X55750000Y26400000D03*
X55750000Y25900000D03*
X57250000Y25900000D03*
X57250000Y26400000D03*
X57250000Y26900000D03*
%TD*%
%TO.C,Q13*%
X55750000Y38900000D03*
X55750000Y38400000D03*
X55750000Y37900000D03*
X57250000Y37900000D03*
X57250000Y38400000D03*
X57250000Y38900000D03*
%TD*%
%TO.C,Q13*%
X55750000Y50900000D03*
X55750000Y50400000D03*
X55750000Y49900000D03*
X57250000Y49900000D03*
X57250000Y50400000D03*
X57250000Y50900000D03*
%TD*%
%TO.C,Q13*%
X55750000Y62900000D03*
X55750000Y62400000D03*
X55750000Y61900000D03*
X57250000Y61900000D03*
X57250000Y62400000D03*
X57250000Y62900000D03*
%TD*%
%TO.C,Q13*%
X55750000Y74900000D03*
X55750000Y74400000D03*
X55750000Y73900000D03*
X57250000Y73900000D03*
X57250000Y74400000D03*
X57250000Y74900000D03*
%TD*%
D15*
%TO.C,Q22*%
X59700000Y6150000D03*
X60200000Y6150000D03*
X60700000Y6150000D03*
X60700000Y7650000D03*
X60200000Y7650000D03*
X59700000Y7650000D03*
%TD*%
%TO.C,Q22*%
X59700000Y18150000D03*
X60200000Y18150000D03*
X60700000Y18150000D03*
X60700000Y19650000D03*
X60200000Y19650000D03*
X59700000Y19650000D03*
%TD*%
%TO.C,Q22*%
X59700000Y30150000D03*
X60200000Y30150000D03*
X60700000Y30150000D03*
X60700000Y31650000D03*
X60200000Y31650000D03*
X59700000Y31650000D03*
%TD*%
%TO.C,Q22*%
X59700000Y42150000D03*
X60200000Y42150000D03*
X60700000Y42150000D03*
X60700000Y43650000D03*
X60200000Y43650000D03*
X59700000Y43650000D03*
%TD*%
%TO.C,Q22*%
X59700000Y54150000D03*
X60200000Y54150000D03*
X60700000Y54150000D03*
X60700000Y55650000D03*
X60200000Y55650000D03*
X59700000Y55650000D03*
%TD*%
%TO.C,Q22*%
X59700000Y66150000D03*
X60200000Y66150000D03*
X60700000Y66150000D03*
X60700000Y67650000D03*
X60200000Y67650000D03*
X59700000Y67650000D03*
%TD*%
%TO.C,Q22*%
X59700000Y78150000D03*
X60200000Y78150000D03*
X60700000Y78150000D03*
X60700000Y79650000D03*
X60200000Y79650000D03*
X59700000Y79650000D03*
%TD*%
D16*
%TO.C,D22*%
X61250000Y2650000D03*
X61250000Y850000D03*
%TD*%
%TO.C,D22*%
X61250000Y14650000D03*
X61250000Y12850000D03*
%TD*%
%TO.C,D22*%
X61250000Y26650000D03*
X61250000Y24850000D03*
%TD*%
%TO.C,D22*%
X61250000Y38650000D03*
X61250000Y36850000D03*
%TD*%
%TO.C,D22*%
X61250000Y50650000D03*
X61250000Y48850000D03*
%TD*%
%TO.C,D22*%
X61250000Y62650000D03*
X61250000Y60850000D03*
%TD*%
%TO.C,D22*%
X61250000Y74650000D03*
X61250000Y72850000D03*
%TD*%
D17*
%TO.C,R15*%
X67975000Y8750000D03*
X69025000Y8750000D03*
%TD*%
%TO.C,R15*%
X67975000Y20750000D03*
X69025000Y20750000D03*
%TD*%
%TO.C,R15*%
X67975000Y32750000D03*
X69025000Y32750000D03*
%TD*%
%TO.C,R15*%
X67975000Y44750000D03*
X69025000Y44750000D03*
%TD*%
%TO.C,R15*%
X67975000Y56750000D03*
X69025000Y56750000D03*
%TD*%
%TO.C,R15*%
X67975000Y68750000D03*
X69025000Y68750000D03*
%TD*%
%TO.C,R15*%
X67975000Y80750000D03*
X69025000Y80750000D03*
%TD*%
D13*
%TO.C,R12*%
X52000000Y3225000D03*
X52000000Y1575000D03*
%TD*%
%TO.C,R12*%
X52000000Y15225000D03*
X52000000Y13575000D03*
%TD*%
%TO.C,R12*%
X52000000Y27225000D03*
X52000000Y25575000D03*
%TD*%
%TO.C,R12*%
X52000000Y39225000D03*
X52000000Y37575000D03*
%TD*%
%TO.C,R12*%
X52000000Y51225000D03*
X52000000Y49575000D03*
%TD*%
%TO.C,R12*%
X52000000Y63225000D03*
X52000000Y61575000D03*
%TD*%
%TO.C,R12*%
X52000000Y75225000D03*
X52000000Y73575000D03*
%TD*%
D12*
%TO.C,Q12*%
X25250000Y1350000D03*
X25900000Y3250000D03*
X24600000Y3250000D03*
%TD*%
%TO.C,Q12*%
X25250000Y13350000D03*
X25900000Y15250000D03*
X24600000Y15250000D03*
%TD*%
%TO.C,Q12*%
X25250000Y25350000D03*
X25900000Y27250000D03*
X24600000Y27250000D03*
%TD*%
%TO.C,Q12*%
X25250000Y37350000D03*
X25900000Y39250000D03*
X24600000Y39250000D03*
%TD*%
%TO.C,Q12*%
X25250000Y49350000D03*
X25900000Y51250000D03*
X24600000Y51250000D03*
%TD*%
%TO.C,Q12*%
X25250000Y61350000D03*
X25900000Y63250000D03*
X24600000Y63250000D03*
%TD*%
%TO.C,Q12*%
X25250000Y73350000D03*
X25900000Y75250000D03*
X24600000Y75250000D03*
%TD*%
D18*
%TO.C,C4*%
X54400000Y5225000D03*
X54400000Y6775000D03*
%TD*%
%TO.C,C4*%
X54400000Y17225000D03*
X54400000Y18775000D03*
%TD*%
%TO.C,C4*%
X54400000Y29225000D03*
X54400000Y30775000D03*
%TD*%
%TO.C,C4*%
X54400000Y41225000D03*
X54400000Y42775000D03*
%TD*%
%TO.C,C4*%
X54400000Y53225000D03*
X54400000Y54775000D03*
%TD*%
%TO.C,C4*%
X54400000Y65225000D03*
X54400000Y66775000D03*
%TD*%
%TO.C,C4*%
X54400000Y77225000D03*
X54400000Y78775000D03*
%TD*%
D19*
%TO.C,D43*%
X75000000Y5850000D03*
X75000000Y4150000D03*
%TD*%
%TO.C,D43*%
X75000000Y17850000D03*
X75000000Y16150000D03*
%TD*%
%TO.C,D43*%
X75000000Y29850000D03*
X75000000Y28150000D03*
%TD*%
%TO.C,D43*%
X75000000Y41850000D03*
X75000000Y40150000D03*
%TD*%
%TO.C,D43*%
X75000000Y53850000D03*
X75000000Y52150000D03*
%TD*%
%TO.C,D43*%
X75000000Y65850000D03*
X75000000Y64150000D03*
%TD*%
%TO.C,D43*%
X75000000Y77850000D03*
X75000000Y76150000D03*
%TD*%
D20*
%TO.C,C12*%
X60200000Y2325000D03*
D21*
X60200000Y1275000D03*
%TD*%
D20*
%TO.C,C12*%
X60200000Y14325000D03*
D21*
X60200000Y13275000D03*
%TD*%
D20*
%TO.C,C12*%
X60200000Y26325000D03*
D21*
X60200000Y25275000D03*
%TD*%
D20*
%TO.C,C12*%
X60200000Y38325000D03*
D21*
X60200000Y37275000D03*
%TD*%
D20*
%TO.C,C12*%
X60200000Y50325000D03*
D21*
X60200000Y49275000D03*
%TD*%
D20*
%TO.C,C12*%
X60200000Y62325000D03*
D21*
X60200000Y61275000D03*
%TD*%
D20*
%TO.C,C12*%
X60200000Y74325000D03*
D21*
X60200000Y73275000D03*
%TD*%
D20*
%TO.C,C5*%
X48300000Y5925000D03*
D21*
X48300000Y4875000D03*
%TD*%
D20*
%TO.C,C5*%
X48300000Y17925000D03*
D21*
X48300000Y16875000D03*
%TD*%
D20*
%TO.C,C5*%
X48300000Y29925000D03*
D21*
X48300000Y28875000D03*
%TD*%
D20*
%TO.C,C5*%
X48300000Y41925000D03*
D21*
X48300000Y40875000D03*
%TD*%
D20*
%TO.C,C5*%
X48300000Y53925000D03*
D21*
X48300000Y52875000D03*
%TD*%
D20*
%TO.C,C5*%
X48300000Y65925000D03*
D21*
X48300000Y64875000D03*
%TD*%
D20*
%TO.C,C5*%
X48300000Y77925000D03*
D21*
X48300000Y76875000D03*
%TD*%
D19*
%TO.C,D48*%
X11000000Y5850000D03*
X11000000Y4150000D03*
%TD*%
%TO.C,D48*%
X11000000Y17850000D03*
X11000000Y16150000D03*
%TD*%
%TO.C,D48*%
X11000000Y29850000D03*
X11000000Y28150000D03*
%TD*%
%TO.C,D48*%
X11000000Y41850000D03*
X11000000Y40150000D03*
%TD*%
%TO.C,D48*%
X11000000Y53850000D03*
X11000000Y52150000D03*
%TD*%
%TO.C,D48*%
X11000000Y65850000D03*
X11000000Y64150000D03*
%TD*%
%TO.C,D48*%
X11000000Y77850000D03*
X11000000Y76150000D03*
%TD*%
%TO.C,D47*%
X23500000Y4150000D03*
X23500000Y5850000D03*
%TD*%
%TO.C,D47*%
X23500000Y16150000D03*
X23500000Y17850000D03*
%TD*%
%TO.C,D47*%
X23500000Y28150000D03*
X23500000Y29850000D03*
%TD*%
%TO.C,D47*%
X23500000Y40150000D03*
X23500000Y41850000D03*
%TD*%
%TO.C,D47*%
X23500000Y52150000D03*
X23500000Y53850000D03*
%TD*%
%TO.C,D47*%
X23500000Y64150000D03*
X23500000Y65850000D03*
%TD*%
%TO.C,D47*%
X23500000Y76150000D03*
X23500000Y77850000D03*
%TD*%
D20*
%TO.C,C1*%
X66600000Y2525000D03*
D21*
X66600000Y1475000D03*
%TD*%
D20*
%TO.C,C1*%
X66600000Y14525000D03*
D21*
X66600000Y13475000D03*
%TD*%
D20*
%TO.C,C1*%
X66600000Y26525000D03*
D21*
X66600000Y25475000D03*
%TD*%
D20*
%TO.C,C1*%
X66600000Y38525000D03*
D21*
X66600000Y37475000D03*
%TD*%
D20*
%TO.C,C1*%
X66600000Y50525000D03*
D21*
X66600000Y49475000D03*
%TD*%
D20*
%TO.C,C1*%
X66600000Y62525000D03*
D21*
X66600000Y61475000D03*
%TD*%
D20*
%TO.C,C1*%
X66600000Y74525000D03*
D21*
X66600000Y73475000D03*
%TD*%
D19*
%TO.C,D45*%
X49500000Y5850000D03*
X49500000Y4150000D03*
%TD*%
%TO.C,D45*%
X49500000Y17850000D03*
X49500000Y16150000D03*
%TD*%
%TO.C,D45*%
X49500000Y29850000D03*
X49500000Y28150000D03*
%TD*%
%TO.C,D45*%
X49500000Y41850000D03*
X49500000Y40150000D03*
%TD*%
%TO.C,D45*%
X49500000Y53850000D03*
X49500000Y52150000D03*
%TD*%
%TO.C,D45*%
X49500000Y65850000D03*
X49500000Y64150000D03*
%TD*%
%TO.C,D45*%
X49500000Y77850000D03*
X49500000Y76150000D03*
%TD*%
D20*
%TO.C,C11*%
X68000000Y4475000D03*
D21*
X68000000Y5525000D03*
%TD*%
D20*
%TO.C,C11*%
X68000000Y16475000D03*
D21*
X68000000Y17525000D03*
%TD*%
D20*
%TO.C,C11*%
X68000000Y28475000D03*
D21*
X68000000Y29525000D03*
%TD*%
D20*
%TO.C,C11*%
X68000000Y40475000D03*
D21*
X68000000Y41525000D03*
%TD*%
D20*
%TO.C,C11*%
X68000000Y52475000D03*
D21*
X68000000Y53525000D03*
%TD*%
D20*
%TO.C,C11*%
X68000000Y64475000D03*
D21*
X68000000Y65525000D03*
%TD*%
D20*
%TO.C,C11*%
X68000000Y76475000D03*
D21*
X68000000Y77525000D03*
%TD*%
D19*
%TO.C,D44*%
X62500000Y5850000D03*
X62500000Y4150000D03*
%TD*%
%TO.C,D44*%
X62500000Y17850000D03*
X62500000Y16150000D03*
%TD*%
%TO.C,D44*%
X62500000Y29850000D03*
X62500000Y28150000D03*
%TD*%
%TO.C,D44*%
X62500000Y41850000D03*
X62500000Y40150000D03*
%TD*%
%TO.C,D44*%
X62500000Y53850000D03*
X62500000Y52150000D03*
%TD*%
%TO.C,D44*%
X62500000Y65850000D03*
X62500000Y64150000D03*
%TD*%
%TO.C,D44*%
X62500000Y77850000D03*
X62500000Y76150000D03*
%TD*%
D20*
%TO.C,C6*%
X39500000Y6875000D03*
D21*
X39500000Y7925000D03*
%TD*%
D20*
%TO.C,C6*%
X39500000Y18875000D03*
D21*
X39500000Y19925000D03*
%TD*%
D20*
%TO.C,C6*%
X39500000Y30875000D03*
D21*
X39500000Y31925000D03*
%TD*%
D20*
%TO.C,C6*%
X39500000Y42875000D03*
D21*
X39500000Y43925000D03*
%TD*%
D20*
%TO.C,C6*%
X39500000Y54875000D03*
D21*
X39500000Y55925000D03*
%TD*%
D20*
%TO.C,C6*%
X39500000Y66875000D03*
D21*
X39500000Y67925000D03*
%TD*%
D20*
%TO.C,C6*%
X39500000Y78875000D03*
D21*
X39500000Y79925000D03*
%TD*%
D22*
%TO.C,D21*%
X68900000Y5500000D03*
X70600000Y5500000D03*
%TD*%
%TO.C,D21*%
X68900000Y17500000D03*
X70600000Y17500000D03*
%TD*%
%TO.C,D21*%
X68900000Y29500000D03*
X70600000Y29500000D03*
%TD*%
%TO.C,D21*%
X68900000Y41500000D03*
X70600000Y41500000D03*
%TD*%
%TO.C,D21*%
X68900000Y53500000D03*
X70600000Y53500000D03*
%TD*%
%TO.C,D21*%
X68900000Y65500000D03*
X70600000Y65500000D03*
%TD*%
%TO.C,D21*%
X68900000Y77500000D03*
X70600000Y77500000D03*
%TD*%
D19*
%TO.C,D41*%
X92000000Y4150000D03*
X92000000Y5850000D03*
%TD*%
%TO.C,D41*%
X92000000Y16150000D03*
X92000000Y17850000D03*
%TD*%
%TO.C,D41*%
X92000000Y28150000D03*
X92000000Y29850000D03*
%TD*%
%TO.C,D41*%
X92000000Y40150000D03*
X92000000Y41850000D03*
%TD*%
%TO.C,D41*%
X92000000Y52150000D03*
X92000000Y53850000D03*
%TD*%
%TO.C,D41*%
X92000000Y64150000D03*
X92000000Y65850000D03*
%TD*%
%TO.C,D41*%
X92000000Y76150000D03*
X92000000Y77850000D03*
%TD*%
%TO.C,D42*%
X85000000Y5850000D03*
X85000000Y4150000D03*
%TD*%
%TO.C,D42*%
X85000000Y17850000D03*
X85000000Y16150000D03*
%TD*%
%TO.C,D42*%
X85000000Y29850000D03*
X85000000Y28150000D03*
%TD*%
%TO.C,D42*%
X85000000Y41850000D03*
X85000000Y40150000D03*
%TD*%
%TO.C,D42*%
X85000000Y53850000D03*
X85000000Y52150000D03*
%TD*%
%TO.C,D42*%
X85000000Y65850000D03*
X85000000Y64150000D03*
%TD*%
%TO.C,D42*%
X85000000Y77850000D03*
X85000000Y76150000D03*
%TD*%
%TO.C,D46*%
X36500000Y4150000D03*
X36500000Y5850000D03*
%TD*%
%TO.C,D46*%
X36500000Y16150000D03*
X36500000Y17850000D03*
%TD*%
%TO.C,D46*%
X36500000Y28150000D03*
X36500000Y29850000D03*
%TD*%
%TO.C,D46*%
X36500000Y40150000D03*
X36500000Y41850000D03*
%TD*%
%TO.C,D46*%
X36500000Y52150000D03*
X36500000Y53850000D03*
%TD*%
%TO.C,D46*%
X36500000Y64150000D03*
X36500000Y65850000D03*
%TD*%
%TO.C,D46*%
X36500000Y76150000D03*
X36500000Y77850000D03*
%TD*%
D23*
%TO.C,Q1*%
X31200000Y7700000D03*
X31200000Y6750000D03*
X31200000Y5800000D03*
X28800000Y5800000D03*
X28800000Y6750000D03*
X28800000Y7700000D03*
%TD*%
%TO.C,Q1*%
X31200000Y19700000D03*
X31200000Y18750000D03*
X31200000Y17800000D03*
X28800000Y17800000D03*
X28800000Y18750000D03*
X28800000Y19700000D03*
%TD*%
%TO.C,Q1*%
X31200000Y31700000D03*
X31200000Y30750000D03*
X31200000Y29800000D03*
X28800000Y29800000D03*
X28800000Y30750000D03*
X28800000Y31700000D03*
%TD*%
%TO.C,Q1*%
X31200000Y43700000D03*
X31200000Y42750000D03*
X31200000Y41800000D03*
X28800000Y41800000D03*
X28800000Y42750000D03*
X28800000Y43700000D03*
%TD*%
%TO.C,Q1*%
X31200000Y55700000D03*
X31200000Y54750000D03*
X31200000Y53800000D03*
X28800000Y53800000D03*
X28800000Y54750000D03*
X28800000Y55700000D03*
%TD*%
%TO.C,Q1*%
X31200000Y67700000D03*
X31200000Y66750000D03*
X31200000Y65800000D03*
X28800000Y65800000D03*
X28800000Y66750000D03*
X28800000Y67700000D03*
%TD*%
%TO.C,Q1*%
X31200000Y79700000D03*
X31200000Y78750000D03*
X31200000Y77800000D03*
X28800000Y77800000D03*
X28800000Y78750000D03*
X28800000Y79700000D03*
%TD*%
D21*
%TO.C,C7*%
X28600000Y4915000D03*
D20*
X28600000Y3865000D03*
%TD*%
D21*
%TO.C,C7*%
X28600000Y16915000D03*
D20*
X28600000Y15865000D03*
%TD*%
D21*
%TO.C,C7*%
X28600000Y28915000D03*
D20*
X28600000Y27865000D03*
%TD*%
D21*
%TO.C,C7*%
X28600000Y40915000D03*
D20*
X28600000Y39865000D03*
%TD*%
D21*
%TO.C,C7*%
X28600000Y52915000D03*
D20*
X28600000Y51865000D03*
%TD*%
D21*
%TO.C,C7*%
X28600000Y64915000D03*
D20*
X28600000Y63865000D03*
%TD*%
D21*
%TO.C,C7*%
X28600000Y76915000D03*
D20*
X28600000Y75865000D03*
%TD*%
D23*
%TO.C,Q2*%
X28800000Y2950000D03*
X28800000Y2000000D03*
X28800000Y1050000D03*
X31200000Y1050000D03*
X31200000Y2000000D03*
X31200000Y2950000D03*
%TD*%
%TO.C,Q2*%
X28800000Y14950000D03*
X28800000Y14000000D03*
X28800000Y13050000D03*
X31200000Y13050000D03*
X31200000Y14000000D03*
X31200000Y14950000D03*
%TD*%
%TO.C,Q2*%
X28800000Y26950000D03*
X28800000Y26000000D03*
X28800000Y25050000D03*
X31200000Y25050000D03*
X31200000Y26000000D03*
X31200000Y26950000D03*
%TD*%
%TO.C,Q2*%
X28800000Y38950000D03*
X28800000Y38000000D03*
X28800000Y37050000D03*
X31200000Y37050000D03*
X31200000Y38000000D03*
X31200000Y38950000D03*
%TD*%
%TO.C,Q2*%
X28800000Y50950000D03*
X28800000Y50000000D03*
X28800000Y49050000D03*
X31200000Y49050000D03*
X31200000Y50000000D03*
X31200000Y50950000D03*
%TD*%
%TO.C,Q2*%
X28800000Y62950000D03*
X28800000Y62000000D03*
X28800000Y61050000D03*
X31200000Y61050000D03*
X31200000Y62000000D03*
X31200000Y62950000D03*
%TD*%
%TO.C,Q2*%
X28800000Y74950000D03*
X28800000Y74000000D03*
X28800000Y73050000D03*
X31200000Y73050000D03*
X31200000Y74000000D03*
X31200000Y74950000D03*
%TD*%
D15*
%TO.C,Q6*%
X56800000Y5550000D03*
X57300000Y5550000D03*
X57800000Y5550000D03*
X57800000Y4050000D03*
X57300000Y4050000D03*
X56800000Y4050000D03*
%TD*%
%TO.C,Q6*%
X56800000Y17550000D03*
X57300000Y17550000D03*
X57800000Y17550000D03*
X57800000Y16050000D03*
X57300000Y16050000D03*
X56800000Y16050000D03*
%TD*%
%TO.C,Q6*%
X56800000Y29550000D03*
X57300000Y29550000D03*
X57800000Y29550000D03*
X57800000Y28050000D03*
X57300000Y28050000D03*
X56800000Y28050000D03*
%TD*%
%TO.C,Q6*%
X56800000Y41550000D03*
X57300000Y41550000D03*
X57800000Y41550000D03*
X57800000Y40050000D03*
X57300000Y40050000D03*
X56800000Y40050000D03*
%TD*%
%TO.C,Q6*%
X56800000Y53550000D03*
X57300000Y53550000D03*
X57800000Y53550000D03*
X57800000Y52050000D03*
X57300000Y52050000D03*
X56800000Y52050000D03*
%TD*%
%TO.C,Q6*%
X56800000Y65550000D03*
X57300000Y65550000D03*
X57800000Y65550000D03*
X57800000Y64050000D03*
X57300000Y64050000D03*
X56800000Y64050000D03*
%TD*%
%TO.C,Q6*%
X56800000Y77550000D03*
X57300000Y77550000D03*
X57800000Y77550000D03*
X57800000Y76050000D03*
X57300000Y76050000D03*
X56800000Y76050000D03*
%TD*%
D24*
%TO.C,D3*%
X51500000Y6450000D03*
X51500000Y4350000D03*
%TD*%
%TO.C,D3*%
X51500000Y18450000D03*
X51500000Y16350000D03*
%TD*%
%TO.C,D3*%
X51500000Y30450000D03*
X51500000Y28350000D03*
%TD*%
%TO.C,D3*%
X51500000Y42450000D03*
X51500000Y40350000D03*
%TD*%
%TO.C,D3*%
X51500000Y54450000D03*
X51500000Y52350000D03*
%TD*%
%TO.C,D3*%
X51500000Y66450000D03*
X51500000Y64350000D03*
%TD*%
%TO.C,D3*%
X51500000Y78450000D03*
X51500000Y76350000D03*
%TD*%
D25*
%TO.C,C3*%
X53100000Y5225000D03*
X53100000Y6775000D03*
%TD*%
%TO.C,C3*%
X53100000Y17225000D03*
X53100000Y18775000D03*
%TD*%
%TO.C,C3*%
X53100000Y29225000D03*
X53100000Y30775000D03*
%TD*%
%TO.C,C3*%
X53100000Y41225000D03*
X53100000Y42775000D03*
%TD*%
%TO.C,C3*%
X53100000Y53225000D03*
X53100000Y54775000D03*
%TD*%
%TO.C,C3*%
X53100000Y65225000D03*
X53100000Y66775000D03*
%TD*%
%TO.C,C3*%
X53100000Y77225000D03*
X53100000Y78775000D03*
%TD*%
D26*
%TO.C,P3*%
X72000000Y2750000D03*
%TD*%
%TO.C,P3*%
X72000000Y14750000D03*
%TD*%
%TO.C,P3*%
X72000000Y26750000D03*
%TD*%
%TO.C,P3*%
X72000000Y38750000D03*
%TD*%
%TO.C,P3*%
X72000000Y50750000D03*
%TD*%
%TO.C,P3*%
X72000000Y62750000D03*
%TD*%
%TO.C,P3*%
X72000000Y74750000D03*
%TD*%
%TO.C,P1*%
X72000000Y7250000D03*
%TD*%
%TO.C,P1*%
X72000000Y19250000D03*
%TD*%
%TO.C,P1*%
X72000000Y31250000D03*
%TD*%
%TO.C,P1*%
X72000000Y43250000D03*
%TD*%
%TO.C,P1*%
X72000000Y55250000D03*
%TD*%
%TO.C,P1*%
X72000000Y67250000D03*
%TD*%
%TO.C,P1*%
X72000000Y79250000D03*
%TD*%
D11*
%TO.C,R44*%
X62425000Y2750000D03*
X64075000Y2750000D03*
%TD*%
%TO.C,R44*%
X62425000Y14750000D03*
X64075000Y14750000D03*
%TD*%
%TO.C,R44*%
X62425000Y26750000D03*
X64075000Y26750000D03*
%TD*%
%TO.C,R44*%
X62425000Y38750000D03*
X64075000Y38750000D03*
%TD*%
%TO.C,R44*%
X62425000Y50750000D03*
X64075000Y50750000D03*
%TD*%
%TO.C,R44*%
X62425000Y62750000D03*
X64075000Y62750000D03*
%TD*%
%TO.C,R44*%
X62425000Y74750000D03*
X64075000Y74750000D03*
%TD*%
D27*
%TO.C,D1*%
X67950000Y3500000D03*
D28*
X69750000Y3500000D03*
X69750000Y1500000D03*
X67750000Y1500000D03*
%TD*%
D27*
%TO.C,D1*%
X67950000Y15500000D03*
D28*
X69750000Y15500000D03*
X69750000Y13500000D03*
X67750000Y13500000D03*
%TD*%
D27*
%TO.C,D1*%
X67950000Y27500000D03*
D28*
X69750000Y27500000D03*
X69750000Y25500000D03*
X67750000Y25500000D03*
%TD*%
D27*
%TO.C,D1*%
X67950000Y39500000D03*
D28*
X69750000Y39500000D03*
X69750000Y37500000D03*
X67750000Y37500000D03*
%TD*%
D27*
%TO.C,D1*%
X67950000Y51500000D03*
D28*
X69750000Y51500000D03*
X69750000Y49500000D03*
X67750000Y49500000D03*
%TD*%
D27*
%TO.C,D1*%
X67950000Y63500000D03*
D28*
X69750000Y63500000D03*
X69750000Y61500000D03*
X67750000Y61500000D03*
%TD*%
D27*
%TO.C,D1*%
X67950000Y75500000D03*
D28*
X69750000Y75500000D03*
X69750000Y73500000D03*
X67750000Y73500000D03*
%TD*%
D17*
%TO.C,R31*%
X64725000Y7250000D03*
X65775000Y7250000D03*
%TD*%
%TO.C,R31*%
X64725000Y19250000D03*
X65775000Y19250000D03*
%TD*%
%TO.C,R31*%
X64725000Y31250000D03*
X65775000Y31250000D03*
%TD*%
%TO.C,R31*%
X64725000Y43250000D03*
X65775000Y43250000D03*
%TD*%
%TO.C,R31*%
X64725000Y55250000D03*
X65775000Y55250000D03*
%TD*%
%TO.C,R31*%
X64725000Y67250000D03*
X65775000Y67250000D03*
%TD*%
%TO.C,R31*%
X64725000Y79250000D03*
X65775000Y79250000D03*
%TD*%
D11*
%TO.C,R7*%
X39775000Y3800000D03*
X41425000Y3800000D03*
%TD*%
%TO.C,R7*%
X39775000Y15800000D03*
X41425000Y15800000D03*
%TD*%
%TO.C,R7*%
X39775000Y27800000D03*
X41425000Y27800000D03*
%TD*%
%TO.C,R7*%
X39775000Y39800000D03*
X41425000Y39800000D03*
%TD*%
%TO.C,R7*%
X39775000Y51800000D03*
X41425000Y51800000D03*
%TD*%
%TO.C,R7*%
X39775000Y63800000D03*
X41425000Y63800000D03*
%TD*%
%TO.C,R7*%
X39775000Y75800000D03*
X41425000Y75800000D03*
%TD*%
D13*
%TO.C,R2*%
X48800000Y975000D03*
X48800000Y2625000D03*
%TD*%
%TO.C,R2*%
X48800000Y12975000D03*
X48800000Y14625000D03*
%TD*%
%TO.C,R2*%
X48800000Y24975000D03*
X48800000Y26625000D03*
%TD*%
%TO.C,R2*%
X48800000Y36975000D03*
X48800000Y38625000D03*
%TD*%
%TO.C,R2*%
X48800000Y48975000D03*
X48800000Y50625000D03*
%TD*%
%TO.C,R2*%
X48800000Y60975000D03*
X48800000Y62625000D03*
%TD*%
%TO.C,R2*%
X48800000Y72975000D03*
X48800000Y74625000D03*
%TD*%
D11*
%TO.C,R11*%
X44575000Y6600000D03*
X46225000Y6600000D03*
%TD*%
%TO.C,R11*%
X44575000Y18600000D03*
X46225000Y18600000D03*
%TD*%
%TO.C,R11*%
X44575000Y30600000D03*
X46225000Y30600000D03*
%TD*%
%TO.C,R11*%
X44575000Y42600000D03*
X46225000Y42600000D03*
%TD*%
%TO.C,R11*%
X44575000Y54600000D03*
X46225000Y54600000D03*
%TD*%
%TO.C,R11*%
X44575000Y66600000D03*
X46225000Y66600000D03*
%TD*%
%TO.C,R11*%
X44575000Y78600000D03*
X46225000Y78600000D03*
%TD*%
D29*
%TO.C,U2*%
G36*
X46190245Y4400961D02*
G01*
X46180866Y4403806D01*
X46172221Y4408427D01*
X46164645Y4414645D01*
X46158427Y4422221D01*
X46153806Y4430866D01*
X46150961Y4440245D01*
X46150000Y4450000D01*
X46150000Y4499289D01*
X46150961Y4509044D01*
X46153806Y4518423D01*
X46158427Y4527068D01*
X46164645Y4534644D01*
X46215356Y4585355D01*
X46222932Y4591573D01*
X46231577Y4596194D01*
X46240956Y4599039D01*
X46250711Y4600000D01*
X46900000Y4600000D01*
X46909755Y4599039D01*
X46919134Y4596194D01*
X46927779Y4591573D01*
X46935355Y4585355D01*
X46941573Y4577779D01*
X46946194Y4569134D01*
X46949039Y4559755D01*
X46950000Y4550000D01*
X46950000Y4450000D01*
X46949039Y4440245D01*
X46946194Y4430866D01*
X46941573Y4422221D01*
X46935355Y4414645D01*
X46927779Y4408427D01*
X46919134Y4403806D01*
X46909755Y4400961D01*
X46900000Y4400000D01*
X46200000Y4400000D01*
X46190245Y4400961D01*
G37*
G36*
G01*
X46950000Y4150000D02*
X46950000Y4050000D01*
G75*
G02*
X46900000Y4000000I-50000J0D01*
G01*
X46200000Y4000000D01*
G75*
G02*
X46150000Y4050000I0J50000D01*
G01*
X46150000Y4150000D01*
G75*
G02*
X46200000Y4200000I50000J0D01*
G01*
X46900000Y4200000D01*
G75*
G02*
X46950000Y4150000I0J-50000D01*
G01*
G37*
G36*
G01*
X46950000Y3750000D02*
X46950000Y3650000D01*
G75*
G02*
X46900000Y3600000I-50000J0D01*
G01*
X46200000Y3600000D01*
G75*
G02*
X46150000Y3650000I0J50000D01*
G01*
X46150000Y3750000D01*
G75*
G02*
X46200000Y3800000I50000J0D01*
G01*
X46900000Y3800000D01*
G75*
G02*
X46950000Y3750000I0J-50000D01*
G01*
G37*
G36*
G01*
X46950000Y3350000D02*
X46950000Y3250000D01*
G75*
G02*
X46900000Y3200000I-50000J0D01*
G01*
X46200000Y3200000D01*
G75*
G02*
X46150000Y3250000I0J50000D01*
G01*
X46150000Y3350000D01*
G75*
G02*
X46200000Y3400000I50000J0D01*
G01*
X46900000Y3400000D01*
G75*
G02*
X46950000Y3350000I0J-50000D01*
G01*
G37*
G36*
X46240956Y2800961D02*
G01*
X46231577Y2803806D01*
X46222932Y2808427D01*
X46215356Y2814645D01*
X46164645Y2865356D01*
X46158427Y2872932D01*
X46153806Y2881577D01*
X46150961Y2890956D01*
X46150000Y2900711D01*
X46150000Y2950000D01*
X46150961Y2959755D01*
X46153806Y2969134D01*
X46158427Y2977779D01*
X46164645Y2985355D01*
X46172221Y2991573D01*
X46180866Y2996194D01*
X46190245Y2999039D01*
X46200000Y3000000D01*
X46900000Y3000000D01*
X46909755Y2999039D01*
X46919134Y2996194D01*
X46927779Y2991573D01*
X46935355Y2985355D01*
X46941573Y2977779D01*
X46946194Y2969134D01*
X46949039Y2959755D01*
X46950000Y2950000D01*
X46950000Y2850000D01*
X46949039Y2840245D01*
X46946194Y2830866D01*
X46941573Y2822221D01*
X46935355Y2814645D01*
X46927779Y2808427D01*
X46919134Y2803806D01*
X46909755Y2800961D01*
X46900000Y2800000D01*
X46250711Y2800000D01*
X46240956Y2800961D01*
G37*
G36*
X45840245Y1850961D02*
G01*
X45830866Y1853806D01*
X45822221Y1858427D01*
X45814645Y1864645D01*
X45808427Y1872221D01*
X45803806Y1880866D01*
X45800961Y1890245D01*
X45800000Y1900000D01*
X45800000Y2600000D01*
X45800961Y2609755D01*
X45803806Y2619134D01*
X45808427Y2627779D01*
X45814645Y2635355D01*
X45822221Y2641573D01*
X45830866Y2646194D01*
X45840245Y2649039D01*
X45850000Y2650000D01*
X45899289Y2650000D01*
X45909044Y2649039D01*
X45918423Y2646194D01*
X45927068Y2641573D01*
X45934644Y2635355D01*
X45985355Y2584644D01*
X45991573Y2577068D01*
X45996194Y2568423D01*
X45999039Y2559044D01*
X46000000Y2549289D01*
X46000000Y1900000D01*
X45999039Y1890245D01*
X45996194Y1880866D01*
X45991573Y1872221D01*
X45985355Y1864645D01*
X45977779Y1858427D01*
X45969134Y1853806D01*
X45959755Y1850961D01*
X45950000Y1850000D01*
X45850000Y1850000D01*
X45840245Y1850961D01*
G37*
G36*
G01*
X45600000Y2600000D02*
X45600000Y1900000D01*
G75*
G02*
X45550000Y1850000I-50000J0D01*
G01*
X45450000Y1850000D01*
G75*
G02*
X45400000Y1900000I0J50000D01*
G01*
X45400000Y2600000D01*
G75*
G02*
X45450000Y2650000I50000J0D01*
G01*
X45550000Y2650000D01*
G75*
G02*
X45600000Y2600000I0J-50000D01*
G01*
G37*
G36*
G01*
X45200000Y2600000D02*
X45200000Y1900000D01*
G75*
G02*
X45150000Y1850000I-50000J0D01*
G01*
X45050000Y1850000D01*
G75*
G02*
X45000000Y1900000I0J50000D01*
G01*
X45000000Y2600000D01*
G75*
G02*
X45050000Y2650000I50000J0D01*
G01*
X45150000Y2650000D01*
G75*
G02*
X45200000Y2600000I0J-50000D01*
G01*
G37*
G36*
G01*
X44800000Y2600000D02*
X44800000Y1900000D01*
G75*
G02*
X44750000Y1850000I-50000J0D01*
G01*
X44650000Y1850000D01*
G75*
G02*
X44600000Y1900000I0J50000D01*
G01*
X44600000Y2600000D01*
G75*
G02*
X44650000Y2650000I50000J0D01*
G01*
X44750000Y2650000D01*
G75*
G02*
X44800000Y2600000I0J-50000D01*
G01*
G37*
G36*
X44240245Y1850961D02*
G01*
X44230866Y1853806D01*
X44222221Y1858427D01*
X44214645Y1864645D01*
X44208427Y1872221D01*
X44203806Y1880866D01*
X44200961Y1890245D01*
X44200000Y1900000D01*
X44200000Y2549289D01*
X44200961Y2559044D01*
X44203806Y2568423D01*
X44208427Y2577068D01*
X44214645Y2584644D01*
X44265356Y2635355D01*
X44272932Y2641573D01*
X44281577Y2646194D01*
X44290956Y2649039D01*
X44300711Y2650000D01*
X44350000Y2650000D01*
X44359755Y2649039D01*
X44369134Y2646194D01*
X44377779Y2641573D01*
X44385355Y2635355D01*
X44391573Y2627779D01*
X44396194Y2619134D01*
X44399039Y2609755D01*
X44400000Y2600000D01*
X44400000Y1900000D01*
X44399039Y1890245D01*
X44396194Y1880866D01*
X44391573Y1872221D01*
X44385355Y1864645D01*
X44377779Y1858427D01*
X44369134Y1853806D01*
X44359755Y1850961D01*
X44350000Y1850000D01*
X44250000Y1850000D01*
X44240245Y1850961D01*
G37*
G36*
X43290245Y2800961D02*
G01*
X43280866Y2803806D01*
X43272221Y2808427D01*
X43264645Y2814645D01*
X43258427Y2822221D01*
X43253806Y2830866D01*
X43250961Y2840245D01*
X43250000Y2850000D01*
X43250000Y2950000D01*
X43250961Y2959755D01*
X43253806Y2969134D01*
X43258427Y2977779D01*
X43264645Y2985355D01*
X43272221Y2991573D01*
X43280866Y2996194D01*
X43290245Y2999039D01*
X43300000Y3000000D01*
X44000000Y3000000D01*
X44009755Y2999039D01*
X44019134Y2996194D01*
X44027779Y2991573D01*
X44035355Y2985355D01*
X44041573Y2977779D01*
X44046194Y2969134D01*
X44049039Y2959755D01*
X44050000Y2950000D01*
X44050000Y2900711D01*
X44049039Y2890956D01*
X44046194Y2881577D01*
X44041573Y2872932D01*
X44035355Y2865356D01*
X43984644Y2814645D01*
X43977068Y2808427D01*
X43968423Y2803806D01*
X43959044Y2800961D01*
X43949289Y2800000D01*
X43300000Y2800000D01*
X43290245Y2800961D01*
G37*
G36*
G01*
X44050000Y3350000D02*
X44050000Y3250000D01*
G75*
G02*
X44000000Y3200000I-50000J0D01*
G01*
X43300000Y3200000D01*
G75*
G02*
X43250000Y3250000I0J50000D01*
G01*
X43250000Y3350000D01*
G75*
G02*
X43300000Y3400000I50000J0D01*
G01*
X44000000Y3400000D01*
G75*
G02*
X44050000Y3350000I0J-50000D01*
G01*
G37*
G36*
G01*
X44050000Y3750000D02*
X44050000Y3650000D01*
G75*
G02*
X44000000Y3600000I-50000J0D01*
G01*
X43300000Y3600000D01*
G75*
G02*
X43250000Y3650000I0J50000D01*
G01*
X43250000Y3750000D01*
G75*
G02*
X43300000Y3800000I50000J0D01*
G01*
X44000000Y3800000D01*
G75*
G02*
X44050000Y3750000I0J-50000D01*
G01*
G37*
G36*
G01*
X44050000Y4150000D02*
X44050000Y4050000D01*
G75*
G02*
X44000000Y4000000I-50000J0D01*
G01*
X43300000Y4000000D01*
G75*
G02*
X43250000Y4050000I0J50000D01*
G01*
X43250000Y4150000D01*
G75*
G02*
X43300000Y4200000I50000J0D01*
G01*
X44000000Y4200000D01*
G75*
G02*
X44050000Y4150000I0J-50000D01*
G01*
G37*
G36*
X43290245Y4400961D02*
G01*
X43280866Y4403806D01*
X43272221Y4408427D01*
X43264645Y4414645D01*
X43258427Y4422221D01*
X43253806Y4430866D01*
X43250961Y4440245D01*
X43250000Y4450000D01*
X43250000Y4550000D01*
X43250961Y4559755D01*
X43253806Y4569134D01*
X43258427Y4577779D01*
X43264645Y4585355D01*
X43272221Y4591573D01*
X43280866Y4596194D01*
X43290245Y4599039D01*
X43300000Y4600000D01*
X43949289Y4600000D01*
X43959044Y4599039D01*
X43968423Y4596194D01*
X43977068Y4591573D01*
X43984644Y4585355D01*
X44035355Y4534644D01*
X44041573Y4527068D01*
X44046194Y4518423D01*
X44049039Y4509044D01*
X44050000Y4499289D01*
X44050000Y4450000D01*
X44049039Y4440245D01*
X44046194Y4430866D01*
X44041573Y4422221D01*
X44035355Y4414645D01*
X44027779Y4408427D01*
X44019134Y4403806D01*
X44009755Y4400961D01*
X44000000Y4400000D01*
X43300000Y4400000D01*
X43290245Y4400961D01*
G37*
G36*
X44290956Y4750961D02*
G01*
X44281577Y4753806D01*
X44272932Y4758427D01*
X44265356Y4764645D01*
X44214645Y4815356D01*
X44208427Y4822932D01*
X44203806Y4831577D01*
X44200961Y4840956D01*
X44200000Y4850711D01*
X44200000Y5500000D01*
X44200961Y5509755D01*
X44203806Y5519134D01*
X44208427Y5527779D01*
X44214645Y5535355D01*
X44222221Y5541573D01*
X44230866Y5546194D01*
X44240245Y5549039D01*
X44250000Y5550000D01*
X44350000Y5550000D01*
X44359755Y5549039D01*
X44369134Y5546194D01*
X44377779Y5541573D01*
X44385355Y5535355D01*
X44391573Y5527779D01*
X44396194Y5519134D01*
X44399039Y5509755D01*
X44400000Y5500000D01*
X44400000Y4800000D01*
X44399039Y4790245D01*
X44396194Y4780866D01*
X44391573Y4772221D01*
X44385355Y4764645D01*
X44377779Y4758427D01*
X44369134Y4753806D01*
X44359755Y4750961D01*
X44350000Y4750000D01*
X44300711Y4750000D01*
X44290956Y4750961D01*
G37*
G36*
G01*
X44800000Y5500000D02*
X44800000Y4800000D01*
G75*
G02*
X44750000Y4750000I-50000J0D01*
G01*
X44650000Y4750000D01*
G75*
G02*
X44600000Y4800000I0J50000D01*
G01*
X44600000Y5500000D01*
G75*
G02*
X44650000Y5550000I50000J0D01*
G01*
X44750000Y5550000D01*
G75*
G02*
X44800000Y5500000I0J-50000D01*
G01*
G37*
G36*
G01*
X45200000Y5500000D02*
X45200000Y4800000D01*
G75*
G02*
X45150000Y4750000I-50000J0D01*
G01*
X45050000Y4750000D01*
G75*
G02*
X45000000Y4800000I0J50000D01*
G01*
X45000000Y5500000D01*
G75*
G02*
X45050000Y5550000I50000J0D01*
G01*
X45150000Y5550000D01*
G75*
G02*
X45200000Y5500000I0J-50000D01*
G01*
G37*
G36*
G01*
X45600000Y5500000D02*
X45600000Y4800000D01*
G75*
G02*
X45550000Y4750000I-50000J0D01*
G01*
X45450000Y4750000D01*
G75*
G02*
X45400000Y4800000I0J50000D01*
G01*
X45400000Y5500000D01*
G75*
G02*
X45450000Y5550000I50000J0D01*
G01*
X45550000Y5550000D01*
G75*
G02*
X45600000Y5500000I0J-50000D01*
G01*
G37*
G36*
X45840245Y4750961D02*
G01*
X45830866Y4753806D01*
X45822221Y4758427D01*
X45814645Y4764645D01*
X45808427Y4772221D01*
X45803806Y4780866D01*
X45800961Y4790245D01*
X45800000Y4800000D01*
X45800000Y5500000D01*
X45800961Y5509755D01*
X45803806Y5519134D01*
X45808427Y5527779D01*
X45814645Y5535355D01*
X45822221Y5541573D01*
X45830866Y5546194D01*
X45840245Y5549039D01*
X45850000Y5550000D01*
X45950000Y5550000D01*
X45959755Y5549039D01*
X45969134Y5546194D01*
X45977779Y5541573D01*
X45985355Y5535355D01*
X45991573Y5527779D01*
X45996194Y5519134D01*
X45999039Y5509755D01*
X46000000Y5500000D01*
X46000000Y4850711D01*
X45999039Y4840956D01*
X45996194Y4831577D01*
X45991573Y4822932D01*
X45985355Y4815356D01*
X45934644Y4764645D01*
X45927068Y4758427D01*
X45918423Y4753806D01*
X45909044Y4750961D01*
X45899289Y4750000D01*
X45850000Y4750000D01*
X45840245Y4750961D01*
G37*
G36*
G01*
X45870000Y4297500D02*
X45870000Y3952500D01*
G75*
G02*
X45697500Y3780000I-172500J0D01*
G01*
X45352500Y3780000D01*
G75*
G02*
X45180000Y3952500I0J172500D01*
G01*
X45180000Y4297500D01*
G75*
G02*
X45352500Y4470000I172500J0D01*
G01*
X45697500Y4470000D01*
G75*
G02*
X45870000Y4297500I0J-172500D01*
G01*
G37*
G36*
G01*
X45870000Y3447500D02*
X45870000Y3102500D01*
G75*
G02*
X45697500Y2930000I-172500J0D01*
G01*
X45352500Y2930000D01*
G75*
G02*
X45180000Y3102500I0J172500D01*
G01*
X45180000Y3447500D01*
G75*
G02*
X45352500Y3620000I172500J0D01*
G01*
X45697500Y3620000D01*
G75*
G02*
X45870000Y3447500I0J-172500D01*
G01*
G37*
G36*
G01*
X45020000Y4297500D02*
X45020000Y3952500D01*
G75*
G02*
X44847500Y3780000I-172500J0D01*
G01*
X44502500Y3780000D01*
G75*
G02*
X44330000Y3952500I0J172500D01*
G01*
X44330000Y4297500D01*
G75*
G02*
X44502500Y4470000I172500J0D01*
G01*
X44847500Y4470000D01*
G75*
G02*
X45020000Y4297500I0J-172500D01*
G01*
G37*
G36*
G01*
X45020000Y3447500D02*
X45020000Y3102500D01*
G75*
G02*
X44847500Y2930000I-172500J0D01*
G01*
X44502500Y2930000D01*
G75*
G02*
X44330000Y3102500I0J172500D01*
G01*
X44330000Y3447500D01*
G75*
G02*
X44502500Y3620000I172500J0D01*
G01*
X44847500Y3620000D01*
G75*
G02*
X45020000Y3447500I0J-172500D01*
G01*
G37*
%TD*%
%TO.C,U2*%
G36*
X46190245Y16400961D02*
G01*
X46180866Y16403806D01*
X46172221Y16408427D01*
X46164645Y16414645D01*
X46158427Y16422221D01*
X46153806Y16430866D01*
X46150961Y16440245D01*
X46150000Y16450000D01*
X46150000Y16499289D01*
X46150961Y16509044D01*
X46153806Y16518423D01*
X46158427Y16527068D01*
X46164645Y16534644D01*
X46215356Y16585355D01*
X46222932Y16591573D01*
X46231577Y16596194D01*
X46240956Y16599039D01*
X46250711Y16600000D01*
X46900000Y16600000D01*
X46909755Y16599039D01*
X46919134Y16596194D01*
X46927779Y16591573D01*
X46935355Y16585355D01*
X46941573Y16577779D01*
X46946194Y16569134D01*
X46949039Y16559755D01*
X46950000Y16550000D01*
X46950000Y16450000D01*
X46949039Y16440245D01*
X46946194Y16430866D01*
X46941573Y16422221D01*
X46935355Y16414645D01*
X46927779Y16408427D01*
X46919134Y16403806D01*
X46909755Y16400961D01*
X46900000Y16400000D01*
X46200000Y16400000D01*
X46190245Y16400961D01*
G37*
G36*
G01*
X46950000Y16150000D02*
X46950000Y16050000D01*
G75*
G02*
X46900000Y16000000I-50000J0D01*
G01*
X46200000Y16000000D01*
G75*
G02*
X46150000Y16050000I0J50000D01*
G01*
X46150000Y16150000D01*
G75*
G02*
X46200000Y16200000I50000J0D01*
G01*
X46900000Y16200000D01*
G75*
G02*
X46950000Y16150000I0J-50000D01*
G01*
G37*
G36*
G01*
X46950000Y15750000D02*
X46950000Y15650000D01*
G75*
G02*
X46900000Y15600000I-50000J0D01*
G01*
X46200000Y15600000D01*
G75*
G02*
X46150000Y15650000I0J50000D01*
G01*
X46150000Y15750000D01*
G75*
G02*
X46200000Y15800000I50000J0D01*
G01*
X46900000Y15800000D01*
G75*
G02*
X46950000Y15750000I0J-50000D01*
G01*
G37*
G36*
G01*
X46950000Y15350000D02*
X46950000Y15250000D01*
G75*
G02*
X46900000Y15200000I-50000J0D01*
G01*
X46200000Y15200000D01*
G75*
G02*
X46150000Y15250000I0J50000D01*
G01*
X46150000Y15350000D01*
G75*
G02*
X46200000Y15400000I50000J0D01*
G01*
X46900000Y15400000D01*
G75*
G02*
X46950000Y15350000I0J-50000D01*
G01*
G37*
G36*
X46240956Y14800961D02*
G01*
X46231577Y14803806D01*
X46222932Y14808427D01*
X46215356Y14814645D01*
X46164645Y14865356D01*
X46158427Y14872932D01*
X46153806Y14881577D01*
X46150961Y14890956D01*
X46150000Y14900711D01*
X46150000Y14950000D01*
X46150961Y14959755D01*
X46153806Y14969134D01*
X46158427Y14977779D01*
X46164645Y14985355D01*
X46172221Y14991573D01*
X46180866Y14996194D01*
X46190245Y14999039D01*
X46200000Y15000000D01*
X46900000Y15000000D01*
X46909755Y14999039D01*
X46919134Y14996194D01*
X46927779Y14991573D01*
X46935355Y14985355D01*
X46941573Y14977779D01*
X46946194Y14969134D01*
X46949039Y14959755D01*
X46950000Y14950000D01*
X46950000Y14850000D01*
X46949039Y14840245D01*
X46946194Y14830866D01*
X46941573Y14822221D01*
X46935355Y14814645D01*
X46927779Y14808427D01*
X46919134Y14803806D01*
X46909755Y14800961D01*
X46900000Y14800000D01*
X46250711Y14800000D01*
X46240956Y14800961D01*
G37*
G36*
X45840245Y13850961D02*
G01*
X45830866Y13853806D01*
X45822221Y13858427D01*
X45814645Y13864645D01*
X45808427Y13872221D01*
X45803806Y13880866D01*
X45800961Y13890245D01*
X45800000Y13900000D01*
X45800000Y14600000D01*
X45800961Y14609755D01*
X45803806Y14619134D01*
X45808427Y14627779D01*
X45814645Y14635355D01*
X45822221Y14641573D01*
X45830866Y14646194D01*
X45840245Y14649039D01*
X45850000Y14650000D01*
X45899289Y14650000D01*
X45909044Y14649039D01*
X45918423Y14646194D01*
X45927068Y14641573D01*
X45934644Y14635355D01*
X45985355Y14584644D01*
X45991573Y14577068D01*
X45996194Y14568423D01*
X45999039Y14559044D01*
X46000000Y14549289D01*
X46000000Y13900000D01*
X45999039Y13890245D01*
X45996194Y13880866D01*
X45991573Y13872221D01*
X45985355Y13864645D01*
X45977779Y13858427D01*
X45969134Y13853806D01*
X45959755Y13850961D01*
X45950000Y13850000D01*
X45850000Y13850000D01*
X45840245Y13850961D01*
G37*
G36*
G01*
X45600000Y14600000D02*
X45600000Y13900000D01*
G75*
G02*
X45550000Y13850000I-50000J0D01*
G01*
X45450000Y13850000D01*
G75*
G02*
X45400000Y13900000I0J50000D01*
G01*
X45400000Y14600000D01*
G75*
G02*
X45450000Y14650000I50000J0D01*
G01*
X45550000Y14650000D01*
G75*
G02*
X45600000Y14600000I0J-50000D01*
G01*
G37*
G36*
G01*
X45200000Y14600000D02*
X45200000Y13900000D01*
G75*
G02*
X45150000Y13850000I-50000J0D01*
G01*
X45050000Y13850000D01*
G75*
G02*
X45000000Y13900000I0J50000D01*
G01*
X45000000Y14600000D01*
G75*
G02*
X45050000Y14650000I50000J0D01*
G01*
X45150000Y14650000D01*
G75*
G02*
X45200000Y14600000I0J-50000D01*
G01*
G37*
G36*
G01*
X44800000Y14600000D02*
X44800000Y13900000D01*
G75*
G02*
X44750000Y13850000I-50000J0D01*
G01*
X44650000Y13850000D01*
G75*
G02*
X44600000Y13900000I0J50000D01*
G01*
X44600000Y14600000D01*
G75*
G02*
X44650000Y14650000I50000J0D01*
G01*
X44750000Y14650000D01*
G75*
G02*
X44800000Y14600000I0J-50000D01*
G01*
G37*
G36*
X44240245Y13850961D02*
G01*
X44230866Y13853806D01*
X44222221Y13858427D01*
X44214645Y13864645D01*
X44208427Y13872221D01*
X44203806Y13880866D01*
X44200961Y13890245D01*
X44200000Y13900000D01*
X44200000Y14549289D01*
X44200961Y14559044D01*
X44203806Y14568423D01*
X44208427Y14577068D01*
X44214645Y14584644D01*
X44265356Y14635355D01*
X44272932Y14641573D01*
X44281577Y14646194D01*
X44290956Y14649039D01*
X44300711Y14650000D01*
X44350000Y14650000D01*
X44359755Y14649039D01*
X44369134Y14646194D01*
X44377779Y14641573D01*
X44385355Y14635355D01*
X44391573Y14627779D01*
X44396194Y14619134D01*
X44399039Y14609755D01*
X44400000Y14600000D01*
X44400000Y13900000D01*
X44399039Y13890245D01*
X44396194Y13880866D01*
X44391573Y13872221D01*
X44385355Y13864645D01*
X44377779Y13858427D01*
X44369134Y13853806D01*
X44359755Y13850961D01*
X44350000Y13850000D01*
X44250000Y13850000D01*
X44240245Y13850961D01*
G37*
G36*
X43290245Y14800961D02*
G01*
X43280866Y14803806D01*
X43272221Y14808427D01*
X43264645Y14814645D01*
X43258427Y14822221D01*
X43253806Y14830866D01*
X43250961Y14840245D01*
X43250000Y14850000D01*
X43250000Y14950000D01*
X43250961Y14959755D01*
X43253806Y14969134D01*
X43258427Y14977779D01*
X43264645Y14985355D01*
X43272221Y14991573D01*
X43280866Y14996194D01*
X43290245Y14999039D01*
X43300000Y15000000D01*
X44000000Y15000000D01*
X44009755Y14999039D01*
X44019134Y14996194D01*
X44027779Y14991573D01*
X44035355Y14985355D01*
X44041573Y14977779D01*
X44046194Y14969134D01*
X44049039Y14959755D01*
X44050000Y14950000D01*
X44050000Y14900711D01*
X44049039Y14890956D01*
X44046194Y14881577D01*
X44041573Y14872932D01*
X44035355Y14865356D01*
X43984644Y14814645D01*
X43977068Y14808427D01*
X43968423Y14803806D01*
X43959044Y14800961D01*
X43949289Y14800000D01*
X43300000Y14800000D01*
X43290245Y14800961D01*
G37*
G36*
G01*
X44050000Y15350000D02*
X44050000Y15250000D01*
G75*
G02*
X44000000Y15200000I-50000J0D01*
G01*
X43300000Y15200000D01*
G75*
G02*
X43250000Y15250000I0J50000D01*
G01*
X43250000Y15350000D01*
G75*
G02*
X43300000Y15400000I50000J0D01*
G01*
X44000000Y15400000D01*
G75*
G02*
X44050000Y15350000I0J-50000D01*
G01*
G37*
G36*
G01*
X44050000Y15750000D02*
X44050000Y15650000D01*
G75*
G02*
X44000000Y15600000I-50000J0D01*
G01*
X43300000Y15600000D01*
G75*
G02*
X43250000Y15650000I0J50000D01*
G01*
X43250000Y15750000D01*
G75*
G02*
X43300000Y15800000I50000J0D01*
G01*
X44000000Y15800000D01*
G75*
G02*
X44050000Y15750000I0J-50000D01*
G01*
G37*
G36*
G01*
X44050000Y16150000D02*
X44050000Y16050000D01*
G75*
G02*
X44000000Y16000000I-50000J0D01*
G01*
X43300000Y16000000D01*
G75*
G02*
X43250000Y16050000I0J50000D01*
G01*
X43250000Y16150000D01*
G75*
G02*
X43300000Y16200000I50000J0D01*
G01*
X44000000Y16200000D01*
G75*
G02*
X44050000Y16150000I0J-50000D01*
G01*
G37*
G36*
X43290245Y16400961D02*
G01*
X43280866Y16403806D01*
X43272221Y16408427D01*
X43264645Y16414645D01*
X43258427Y16422221D01*
X43253806Y16430866D01*
X43250961Y16440245D01*
X43250000Y16450000D01*
X43250000Y16550000D01*
X43250961Y16559755D01*
X43253806Y16569134D01*
X43258427Y16577779D01*
X43264645Y16585355D01*
X43272221Y16591573D01*
X43280866Y16596194D01*
X43290245Y16599039D01*
X43300000Y16600000D01*
X43949289Y16600000D01*
X43959044Y16599039D01*
X43968423Y16596194D01*
X43977068Y16591573D01*
X43984644Y16585355D01*
X44035355Y16534644D01*
X44041573Y16527068D01*
X44046194Y16518423D01*
X44049039Y16509044D01*
X44050000Y16499289D01*
X44050000Y16450000D01*
X44049039Y16440245D01*
X44046194Y16430866D01*
X44041573Y16422221D01*
X44035355Y16414645D01*
X44027779Y16408427D01*
X44019134Y16403806D01*
X44009755Y16400961D01*
X44000000Y16400000D01*
X43300000Y16400000D01*
X43290245Y16400961D01*
G37*
G36*
X44290956Y16750961D02*
G01*
X44281577Y16753806D01*
X44272932Y16758427D01*
X44265356Y16764645D01*
X44214645Y16815356D01*
X44208427Y16822932D01*
X44203806Y16831577D01*
X44200961Y16840956D01*
X44200000Y16850711D01*
X44200000Y17500000D01*
X44200961Y17509755D01*
X44203806Y17519134D01*
X44208427Y17527779D01*
X44214645Y17535355D01*
X44222221Y17541573D01*
X44230866Y17546194D01*
X44240245Y17549039D01*
X44250000Y17550000D01*
X44350000Y17550000D01*
X44359755Y17549039D01*
X44369134Y17546194D01*
X44377779Y17541573D01*
X44385355Y17535355D01*
X44391573Y17527779D01*
X44396194Y17519134D01*
X44399039Y17509755D01*
X44400000Y17500000D01*
X44400000Y16800000D01*
X44399039Y16790245D01*
X44396194Y16780866D01*
X44391573Y16772221D01*
X44385355Y16764645D01*
X44377779Y16758427D01*
X44369134Y16753806D01*
X44359755Y16750961D01*
X44350000Y16750000D01*
X44300711Y16750000D01*
X44290956Y16750961D01*
G37*
G36*
G01*
X44800000Y17500000D02*
X44800000Y16800000D01*
G75*
G02*
X44750000Y16750000I-50000J0D01*
G01*
X44650000Y16750000D01*
G75*
G02*
X44600000Y16800000I0J50000D01*
G01*
X44600000Y17500000D01*
G75*
G02*
X44650000Y17550000I50000J0D01*
G01*
X44750000Y17550000D01*
G75*
G02*
X44800000Y17500000I0J-50000D01*
G01*
G37*
G36*
G01*
X45200000Y17500000D02*
X45200000Y16800000D01*
G75*
G02*
X45150000Y16750000I-50000J0D01*
G01*
X45050000Y16750000D01*
G75*
G02*
X45000000Y16800000I0J50000D01*
G01*
X45000000Y17500000D01*
G75*
G02*
X45050000Y17550000I50000J0D01*
G01*
X45150000Y17550000D01*
G75*
G02*
X45200000Y17500000I0J-50000D01*
G01*
G37*
G36*
G01*
X45600000Y17500000D02*
X45600000Y16800000D01*
G75*
G02*
X45550000Y16750000I-50000J0D01*
G01*
X45450000Y16750000D01*
G75*
G02*
X45400000Y16800000I0J50000D01*
G01*
X45400000Y17500000D01*
G75*
G02*
X45450000Y17550000I50000J0D01*
G01*
X45550000Y17550000D01*
G75*
G02*
X45600000Y17500000I0J-50000D01*
G01*
G37*
G36*
X45840245Y16750961D02*
G01*
X45830866Y16753806D01*
X45822221Y16758427D01*
X45814645Y16764645D01*
X45808427Y16772221D01*
X45803806Y16780866D01*
X45800961Y16790245D01*
X45800000Y16800000D01*
X45800000Y17500000D01*
X45800961Y17509755D01*
X45803806Y17519134D01*
X45808427Y17527779D01*
X45814645Y17535355D01*
X45822221Y17541573D01*
X45830866Y17546194D01*
X45840245Y17549039D01*
X45850000Y17550000D01*
X45950000Y17550000D01*
X45959755Y17549039D01*
X45969134Y17546194D01*
X45977779Y17541573D01*
X45985355Y17535355D01*
X45991573Y17527779D01*
X45996194Y17519134D01*
X45999039Y17509755D01*
X46000000Y17500000D01*
X46000000Y16850711D01*
X45999039Y16840956D01*
X45996194Y16831577D01*
X45991573Y16822932D01*
X45985355Y16815356D01*
X45934644Y16764645D01*
X45927068Y16758427D01*
X45918423Y16753806D01*
X45909044Y16750961D01*
X45899289Y16750000D01*
X45850000Y16750000D01*
X45840245Y16750961D01*
G37*
G36*
G01*
X45870000Y16297500D02*
X45870000Y15952500D01*
G75*
G02*
X45697500Y15780000I-172500J0D01*
G01*
X45352500Y15780000D01*
G75*
G02*
X45180000Y15952500I0J172500D01*
G01*
X45180000Y16297500D01*
G75*
G02*
X45352500Y16470000I172500J0D01*
G01*
X45697500Y16470000D01*
G75*
G02*
X45870000Y16297500I0J-172500D01*
G01*
G37*
G36*
G01*
X45870000Y15447500D02*
X45870000Y15102500D01*
G75*
G02*
X45697500Y14930000I-172500J0D01*
G01*
X45352500Y14930000D01*
G75*
G02*
X45180000Y15102500I0J172500D01*
G01*
X45180000Y15447500D01*
G75*
G02*
X45352500Y15620000I172500J0D01*
G01*
X45697500Y15620000D01*
G75*
G02*
X45870000Y15447500I0J-172500D01*
G01*
G37*
G36*
G01*
X45020000Y16297500D02*
X45020000Y15952500D01*
G75*
G02*
X44847500Y15780000I-172500J0D01*
G01*
X44502500Y15780000D01*
G75*
G02*
X44330000Y15952500I0J172500D01*
G01*
X44330000Y16297500D01*
G75*
G02*
X44502500Y16470000I172500J0D01*
G01*
X44847500Y16470000D01*
G75*
G02*
X45020000Y16297500I0J-172500D01*
G01*
G37*
G36*
G01*
X45020000Y15447500D02*
X45020000Y15102500D01*
G75*
G02*
X44847500Y14930000I-172500J0D01*
G01*
X44502500Y14930000D01*
G75*
G02*
X44330000Y15102500I0J172500D01*
G01*
X44330000Y15447500D01*
G75*
G02*
X44502500Y15620000I172500J0D01*
G01*
X44847500Y15620000D01*
G75*
G02*
X45020000Y15447500I0J-172500D01*
G01*
G37*
%TD*%
%TO.C,U2*%
G36*
X46190245Y28400961D02*
G01*
X46180866Y28403806D01*
X46172221Y28408427D01*
X46164645Y28414645D01*
X46158427Y28422221D01*
X46153806Y28430866D01*
X46150961Y28440245D01*
X46150000Y28450000D01*
X46150000Y28499289D01*
X46150961Y28509044D01*
X46153806Y28518423D01*
X46158427Y28527068D01*
X46164645Y28534644D01*
X46215356Y28585355D01*
X46222932Y28591573D01*
X46231577Y28596194D01*
X46240956Y28599039D01*
X46250711Y28600000D01*
X46900000Y28600000D01*
X46909755Y28599039D01*
X46919134Y28596194D01*
X46927779Y28591573D01*
X46935355Y28585355D01*
X46941573Y28577779D01*
X46946194Y28569134D01*
X46949039Y28559755D01*
X46950000Y28550000D01*
X46950000Y28450000D01*
X46949039Y28440245D01*
X46946194Y28430866D01*
X46941573Y28422221D01*
X46935355Y28414645D01*
X46927779Y28408427D01*
X46919134Y28403806D01*
X46909755Y28400961D01*
X46900000Y28400000D01*
X46200000Y28400000D01*
X46190245Y28400961D01*
G37*
G36*
G01*
X46950000Y28150000D02*
X46950000Y28050000D01*
G75*
G02*
X46900000Y28000000I-50000J0D01*
G01*
X46200000Y28000000D01*
G75*
G02*
X46150000Y28050000I0J50000D01*
G01*
X46150000Y28150000D01*
G75*
G02*
X46200000Y28200000I50000J0D01*
G01*
X46900000Y28200000D01*
G75*
G02*
X46950000Y28150000I0J-50000D01*
G01*
G37*
G36*
G01*
X46950000Y27750000D02*
X46950000Y27650000D01*
G75*
G02*
X46900000Y27600000I-50000J0D01*
G01*
X46200000Y27600000D01*
G75*
G02*
X46150000Y27650000I0J50000D01*
G01*
X46150000Y27750000D01*
G75*
G02*
X46200000Y27800000I50000J0D01*
G01*
X46900000Y27800000D01*
G75*
G02*
X46950000Y27750000I0J-50000D01*
G01*
G37*
G36*
G01*
X46950000Y27350000D02*
X46950000Y27250000D01*
G75*
G02*
X46900000Y27200000I-50000J0D01*
G01*
X46200000Y27200000D01*
G75*
G02*
X46150000Y27250000I0J50000D01*
G01*
X46150000Y27350000D01*
G75*
G02*
X46200000Y27400000I50000J0D01*
G01*
X46900000Y27400000D01*
G75*
G02*
X46950000Y27350000I0J-50000D01*
G01*
G37*
G36*
X46240956Y26800961D02*
G01*
X46231577Y26803806D01*
X46222932Y26808427D01*
X46215356Y26814645D01*
X46164645Y26865356D01*
X46158427Y26872932D01*
X46153806Y26881577D01*
X46150961Y26890956D01*
X46150000Y26900711D01*
X46150000Y26950000D01*
X46150961Y26959755D01*
X46153806Y26969134D01*
X46158427Y26977779D01*
X46164645Y26985355D01*
X46172221Y26991573D01*
X46180866Y26996194D01*
X46190245Y26999039D01*
X46200000Y27000000D01*
X46900000Y27000000D01*
X46909755Y26999039D01*
X46919134Y26996194D01*
X46927779Y26991573D01*
X46935355Y26985355D01*
X46941573Y26977779D01*
X46946194Y26969134D01*
X46949039Y26959755D01*
X46950000Y26950000D01*
X46950000Y26850000D01*
X46949039Y26840245D01*
X46946194Y26830866D01*
X46941573Y26822221D01*
X46935355Y26814645D01*
X46927779Y26808427D01*
X46919134Y26803806D01*
X46909755Y26800961D01*
X46900000Y26800000D01*
X46250711Y26800000D01*
X46240956Y26800961D01*
G37*
G36*
X45840245Y25850961D02*
G01*
X45830866Y25853806D01*
X45822221Y25858427D01*
X45814645Y25864645D01*
X45808427Y25872221D01*
X45803806Y25880866D01*
X45800961Y25890245D01*
X45800000Y25900000D01*
X45800000Y26600000D01*
X45800961Y26609755D01*
X45803806Y26619134D01*
X45808427Y26627779D01*
X45814645Y26635355D01*
X45822221Y26641573D01*
X45830866Y26646194D01*
X45840245Y26649039D01*
X45850000Y26650000D01*
X45899289Y26650000D01*
X45909044Y26649039D01*
X45918423Y26646194D01*
X45927068Y26641573D01*
X45934644Y26635355D01*
X45985355Y26584644D01*
X45991573Y26577068D01*
X45996194Y26568423D01*
X45999039Y26559044D01*
X46000000Y26549289D01*
X46000000Y25900000D01*
X45999039Y25890245D01*
X45996194Y25880866D01*
X45991573Y25872221D01*
X45985355Y25864645D01*
X45977779Y25858427D01*
X45969134Y25853806D01*
X45959755Y25850961D01*
X45950000Y25850000D01*
X45850000Y25850000D01*
X45840245Y25850961D01*
G37*
G36*
G01*
X45600000Y26600000D02*
X45600000Y25900000D01*
G75*
G02*
X45550000Y25850000I-50000J0D01*
G01*
X45450000Y25850000D01*
G75*
G02*
X45400000Y25900000I0J50000D01*
G01*
X45400000Y26600000D01*
G75*
G02*
X45450000Y26650000I50000J0D01*
G01*
X45550000Y26650000D01*
G75*
G02*
X45600000Y26600000I0J-50000D01*
G01*
G37*
G36*
G01*
X45200000Y26600000D02*
X45200000Y25900000D01*
G75*
G02*
X45150000Y25850000I-50000J0D01*
G01*
X45050000Y25850000D01*
G75*
G02*
X45000000Y25900000I0J50000D01*
G01*
X45000000Y26600000D01*
G75*
G02*
X45050000Y26650000I50000J0D01*
G01*
X45150000Y26650000D01*
G75*
G02*
X45200000Y26600000I0J-50000D01*
G01*
G37*
G36*
G01*
X44800000Y26600000D02*
X44800000Y25900000D01*
G75*
G02*
X44750000Y25850000I-50000J0D01*
G01*
X44650000Y25850000D01*
G75*
G02*
X44600000Y25900000I0J50000D01*
G01*
X44600000Y26600000D01*
G75*
G02*
X44650000Y26650000I50000J0D01*
G01*
X44750000Y26650000D01*
G75*
G02*
X44800000Y26600000I0J-50000D01*
G01*
G37*
G36*
X44240245Y25850961D02*
G01*
X44230866Y25853806D01*
X44222221Y25858427D01*
X44214645Y25864645D01*
X44208427Y25872221D01*
X44203806Y25880866D01*
X44200961Y25890245D01*
X44200000Y25900000D01*
X44200000Y26549289D01*
X44200961Y26559044D01*
X44203806Y26568423D01*
X44208427Y26577068D01*
X44214645Y26584644D01*
X44265356Y26635355D01*
X44272932Y26641573D01*
X44281577Y26646194D01*
X44290956Y26649039D01*
X44300711Y26650000D01*
X44350000Y26650000D01*
X44359755Y26649039D01*
X44369134Y26646194D01*
X44377779Y26641573D01*
X44385355Y26635355D01*
X44391573Y26627779D01*
X44396194Y26619134D01*
X44399039Y26609755D01*
X44400000Y26600000D01*
X44400000Y25900000D01*
X44399039Y25890245D01*
X44396194Y25880866D01*
X44391573Y25872221D01*
X44385355Y25864645D01*
X44377779Y25858427D01*
X44369134Y25853806D01*
X44359755Y25850961D01*
X44350000Y25850000D01*
X44250000Y25850000D01*
X44240245Y25850961D01*
G37*
G36*
X43290245Y26800961D02*
G01*
X43280866Y26803806D01*
X43272221Y26808427D01*
X43264645Y26814645D01*
X43258427Y26822221D01*
X43253806Y26830866D01*
X43250961Y26840245D01*
X43250000Y26850000D01*
X43250000Y26950000D01*
X43250961Y26959755D01*
X43253806Y26969134D01*
X43258427Y26977779D01*
X43264645Y26985355D01*
X43272221Y26991573D01*
X43280866Y26996194D01*
X43290245Y26999039D01*
X43300000Y27000000D01*
X44000000Y27000000D01*
X44009755Y26999039D01*
X44019134Y26996194D01*
X44027779Y26991573D01*
X44035355Y26985355D01*
X44041573Y26977779D01*
X44046194Y26969134D01*
X44049039Y26959755D01*
X44050000Y26950000D01*
X44050000Y26900711D01*
X44049039Y26890956D01*
X44046194Y26881577D01*
X44041573Y26872932D01*
X44035355Y26865356D01*
X43984644Y26814645D01*
X43977068Y26808427D01*
X43968423Y26803806D01*
X43959044Y26800961D01*
X43949289Y26800000D01*
X43300000Y26800000D01*
X43290245Y26800961D01*
G37*
G36*
G01*
X44050000Y27350000D02*
X44050000Y27250000D01*
G75*
G02*
X44000000Y27200000I-50000J0D01*
G01*
X43300000Y27200000D01*
G75*
G02*
X43250000Y27250000I0J50000D01*
G01*
X43250000Y27350000D01*
G75*
G02*
X43300000Y27400000I50000J0D01*
G01*
X44000000Y27400000D01*
G75*
G02*
X44050000Y27350000I0J-50000D01*
G01*
G37*
G36*
G01*
X44050000Y27750000D02*
X44050000Y27650000D01*
G75*
G02*
X44000000Y27600000I-50000J0D01*
G01*
X43300000Y27600000D01*
G75*
G02*
X43250000Y27650000I0J50000D01*
G01*
X43250000Y27750000D01*
G75*
G02*
X43300000Y27800000I50000J0D01*
G01*
X44000000Y27800000D01*
G75*
G02*
X44050000Y27750000I0J-50000D01*
G01*
G37*
G36*
G01*
X44050000Y28150000D02*
X44050000Y28050000D01*
G75*
G02*
X44000000Y28000000I-50000J0D01*
G01*
X43300000Y28000000D01*
G75*
G02*
X43250000Y28050000I0J50000D01*
G01*
X43250000Y28150000D01*
G75*
G02*
X43300000Y28200000I50000J0D01*
G01*
X44000000Y28200000D01*
G75*
G02*
X44050000Y28150000I0J-50000D01*
G01*
G37*
G36*
X43290245Y28400961D02*
G01*
X43280866Y28403806D01*
X43272221Y28408427D01*
X43264645Y28414645D01*
X43258427Y28422221D01*
X43253806Y28430866D01*
X43250961Y28440245D01*
X43250000Y28450000D01*
X43250000Y28550000D01*
X43250961Y28559755D01*
X43253806Y28569134D01*
X43258427Y28577779D01*
X43264645Y28585355D01*
X43272221Y28591573D01*
X43280866Y28596194D01*
X43290245Y28599039D01*
X43300000Y28600000D01*
X43949289Y28600000D01*
X43959044Y28599039D01*
X43968423Y28596194D01*
X43977068Y28591573D01*
X43984644Y28585355D01*
X44035355Y28534644D01*
X44041573Y28527068D01*
X44046194Y28518423D01*
X44049039Y28509044D01*
X44050000Y28499289D01*
X44050000Y28450000D01*
X44049039Y28440245D01*
X44046194Y28430866D01*
X44041573Y28422221D01*
X44035355Y28414645D01*
X44027779Y28408427D01*
X44019134Y28403806D01*
X44009755Y28400961D01*
X44000000Y28400000D01*
X43300000Y28400000D01*
X43290245Y28400961D01*
G37*
G36*
X44290956Y28750961D02*
G01*
X44281577Y28753806D01*
X44272932Y28758427D01*
X44265356Y28764645D01*
X44214645Y28815356D01*
X44208427Y28822932D01*
X44203806Y28831577D01*
X44200961Y28840956D01*
X44200000Y28850711D01*
X44200000Y29500000D01*
X44200961Y29509755D01*
X44203806Y29519134D01*
X44208427Y29527779D01*
X44214645Y29535355D01*
X44222221Y29541573D01*
X44230866Y29546194D01*
X44240245Y29549039D01*
X44250000Y29550000D01*
X44350000Y29550000D01*
X44359755Y29549039D01*
X44369134Y29546194D01*
X44377779Y29541573D01*
X44385355Y29535355D01*
X44391573Y29527779D01*
X44396194Y29519134D01*
X44399039Y29509755D01*
X44400000Y29500000D01*
X44400000Y28800000D01*
X44399039Y28790245D01*
X44396194Y28780866D01*
X44391573Y28772221D01*
X44385355Y28764645D01*
X44377779Y28758427D01*
X44369134Y28753806D01*
X44359755Y28750961D01*
X44350000Y28750000D01*
X44300711Y28750000D01*
X44290956Y28750961D01*
G37*
G36*
G01*
X44800000Y29500000D02*
X44800000Y28800000D01*
G75*
G02*
X44750000Y28750000I-50000J0D01*
G01*
X44650000Y28750000D01*
G75*
G02*
X44600000Y28800000I0J50000D01*
G01*
X44600000Y29500000D01*
G75*
G02*
X44650000Y29550000I50000J0D01*
G01*
X44750000Y29550000D01*
G75*
G02*
X44800000Y29500000I0J-50000D01*
G01*
G37*
G36*
G01*
X45200000Y29500000D02*
X45200000Y28800000D01*
G75*
G02*
X45150000Y28750000I-50000J0D01*
G01*
X45050000Y28750000D01*
G75*
G02*
X45000000Y28800000I0J50000D01*
G01*
X45000000Y29500000D01*
G75*
G02*
X45050000Y29550000I50000J0D01*
G01*
X45150000Y29550000D01*
G75*
G02*
X45200000Y29500000I0J-50000D01*
G01*
G37*
G36*
G01*
X45600000Y29500000D02*
X45600000Y28800000D01*
G75*
G02*
X45550000Y28750000I-50000J0D01*
G01*
X45450000Y28750000D01*
G75*
G02*
X45400000Y28800000I0J50000D01*
G01*
X45400000Y29500000D01*
G75*
G02*
X45450000Y29550000I50000J0D01*
G01*
X45550000Y29550000D01*
G75*
G02*
X45600000Y29500000I0J-50000D01*
G01*
G37*
G36*
X45840245Y28750961D02*
G01*
X45830866Y28753806D01*
X45822221Y28758427D01*
X45814645Y28764645D01*
X45808427Y28772221D01*
X45803806Y28780866D01*
X45800961Y28790245D01*
X45800000Y28800000D01*
X45800000Y29500000D01*
X45800961Y29509755D01*
X45803806Y29519134D01*
X45808427Y29527779D01*
X45814645Y29535355D01*
X45822221Y29541573D01*
X45830866Y29546194D01*
X45840245Y29549039D01*
X45850000Y29550000D01*
X45950000Y29550000D01*
X45959755Y29549039D01*
X45969134Y29546194D01*
X45977779Y29541573D01*
X45985355Y29535355D01*
X45991573Y29527779D01*
X45996194Y29519134D01*
X45999039Y29509755D01*
X46000000Y29500000D01*
X46000000Y28850711D01*
X45999039Y28840956D01*
X45996194Y28831577D01*
X45991573Y28822932D01*
X45985355Y28815356D01*
X45934644Y28764645D01*
X45927068Y28758427D01*
X45918423Y28753806D01*
X45909044Y28750961D01*
X45899289Y28750000D01*
X45850000Y28750000D01*
X45840245Y28750961D01*
G37*
G36*
G01*
X45870000Y28297500D02*
X45870000Y27952500D01*
G75*
G02*
X45697500Y27780000I-172500J0D01*
G01*
X45352500Y27780000D01*
G75*
G02*
X45180000Y27952500I0J172500D01*
G01*
X45180000Y28297500D01*
G75*
G02*
X45352500Y28470000I172500J0D01*
G01*
X45697500Y28470000D01*
G75*
G02*
X45870000Y28297500I0J-172500D01*
G01*
G37*
G36*
G01*
X45870000Y27447500D02*
X45870000Y27102500D01*
G75*
G02*
X45697500Y26930000I-172500J0D01*
G01*
X45352500Y26930000D01*
G75*
G02*
X45180000Y27102500I0J172500D01*
G01*
X45180000Y27447500D01*
G75*
G02*
X45352500Y27620000I172500J0D01*
G01*
X45697500Y27620000D01*
G75*
G02*
X45870000Y27447500I0J-172500D01*
G01*
G37*
G36*
G01*
X45020000Y28297500D02*
X45020000Y27952500D01*
G75*
G02*
X44847500Y27780000I-172500J0D01*
G01*
X44502500Y27780000D01*
G75*
G02*
X44330000Y27952500I0J172500D01*
G01*
X44330000Y28297500D01*
G75*
G02*
X44502500Y28470000I172500J0D01*
G01*
X44847500Y28470000D01*
G75*
G02*
X45020000Y28297500I0J-172500D01*
G01*
G37*
G36*
G01*
X45020000Y27447500D02*
X45020000Y27102500D01*
G75*
G02*
X44847500Y26930000I-172500J0D01*
G01*
X44502500Y26930000D01*
G75*
G02*
X44330000Y27102500I0J172500D01*
G01*
X44330000Y27447500D01*
G75*
G02*
X44502500Y27620000I172500J0D01*
G01*
X44847500Y27620000D01*
G75*
G02*
X45020000Y27447500I0J-172500D01*
G01*
G37*
%TD*%
%TO.C,U2*%
G36*
X46190245Y40400961D02*
G01*
X46180866Y40403806D01*
X46172221Y40408427D01*
X46164645Y40414645D01*
X46158427Y40422221D01*
X46153806Y40430866D01*
X46150961Y40440245D01*
X46150000Y40450000D01*
X46150000Y40499289D01*
X46150961Y40509044D01*
X46153806Y40518423D01*
X46158427Y40527068D01*
X46164645Y40534644D01*
X46215356Y40585355D01*
X46222932Y40591573D01*
X46231577Y40596194D01*
X46240956Y40599039D01*
X46250711Y40600000D01*
X46900000Y40600000D01*
X46909755Y40599039D01*
X46919134Y40596194D01*
X46927779Y40591573D01*
X46935355Y40585355D01*
X46941573Y40577779D01*
X46946194Y40569134D01*
X46949039Y40559755D01*
X46950000Y40550000D01*
X46950000Y40450000D01*
X46949039Y40440245D01*
X46946194Y40430866D01*
X46941573Y40422221D01*
X46935355Y40414645D01*
X46927779Y40408427D01*
X46919134Y40403806D01*
X46909755Y40400961D01*
X46900000Y40400000D01*
X46200000Y40400000D01*
X46190245Y40400961D01*
G37*
G36*
G01*
X46950000Y40150000D02*
X46950000Y40050000D01*
G75*
G02*
X46900000Y40000000I-50000J0D01*
G01*
X46200000Y40000000D01*
G75*
G02*
X46150000Y40050000I0J50000D01*
G01*
X46150000Y40150000D01*
G75*
G02*
X46200000Y40200000I50000J0D01*
G01*
X46900000Y40200000D01*
G75*
G02*
X46950000Y40150000I0J-50000D01*
G01*
G37*
G36*
G01*
X46950000Y39750000D02*
X46950000Y39650000D01*
G75*
G02*
X46900000Y39600000I-50000J0D01*
G01*
X46200000Y39600000D01*
G75*
G02*
X46150000Y39650000I0J50000D01*
G01*
X46150000Y39750000D01*
G75*
G02*
X46200000Y39800000I50000J0D01*
G01*
X46900000Y39800000D01*
G75*
G02*
X46950000Y39750000I0J-50000D01*
G01*
G37*
G36*
G01*
X46950000Y39350000D02*
X46950000Y39250000D01*
G75*
G02*
X46900000Y39200000I-50000J0D01*
G01*
X46200000Y39200000D01*
G75*
G02*
X46150000Y39250000I0J50000D01*
G01*
X46150000Y39350000D01*
G75*
G02*
X46200000Y39400000I50000J0D01*
G01*
X46900000Y39400000D01*
G75*
G02*
X46950000Y39350000I0J-50000D01*
G01*
G37*
G36*
X46240956Y38800961D02*
G01*
X46231577Y38803806D01*
X46222932Y38808427D01*
X46215356Y38814645D01*
X46164645Y38865356D01*
X46158427Y38872932D01*
X46153806Y38881577D01*
X46150961Y38890956D01*
X46150000Y38900711D01*
X46150000Y38950000D01*
X46150961Y38959755D01*
X46153806Y38969134D01*
X46158427Y38977779D01*
X46164645Y38985355D01*
X46172221Y38991573D01*
X46180866Y38996194D01*
X46190245Y38999039D01*
X46200000Y39000000D01*
X46900000Y39000000D01*
X46909755Y38999039D01*
X46919134Y38996194D01*
X46927779Y38991573D01*
X46935355Y38985355D01*
X46941573Y38977779D01*
X46946194Y38969134D01*
X46949039Y38959755D01*
X46950000Y38950000D01*
X46950000Y38850000D01*
X46949039Y38840245D01*
X46946194Y38830866D01*
X46941573Y38822221D01*
X46935355Y38814645D01*
X46927779Y38808427D01*
X46919134Y38803806D01*
X46909755Y38800961D01*
X46900000Y38800000D01*
X46250711Y38800000D01*
X46240956Y38800961D01*
G37*
G36*
X45840245Y37850961D02*
G01*
X45830866Y37853806D01*
X45822221Y37858427D01*
X45814645Y37864645D01*
X45808427Y37872221D01*
X45803806Y37880866D01*
X45800961Y37890245D01*
X45800000Y37900000D01*
X45800000Y38600000D01*
X45800961Y38609755D01*
X45803806Y38619134D01*
X45808427Y38627779D01*
X45814645Y38635355D01*
X45822221Y38641573D01*
X45830866Y38646194D01*
X45840245Y38649039D01*
X45850000Y38650000D01*
X45899289Y38650000D01*
X45909044Y38649039D01*
X45918423Y38646194D01*
X45927068Y38641573D01*
X45934644Y38635355D01*
X45985355Y38584644D01*
X45991573Y38577068D01*
X45996194Y38568423D01*
X45999039Y38559044D01*
X46000000Y38549289D01*
X46000000Y37900000D01*
X45999039Y37890245D01*
X45996194Y37880866D01*
X45991573Y37872221D01*
X45985355Y37864645D01*
X45977779Y37858427D01*
X45969134Y37853806D01*
X45959755Y37850961D01*
X45950000Y37850000D01*
X45850000Y37850000D01*
X45840245Y37850961D01*
G37*
G36*
G01*
X45600000Y38600000D02*
X45600000Y37900000D01*
G75*
G02*
X45550000Y37850000I-50000J0D01*
G01*
X45450000Y37850000D01*
G75*
G02*
X45400000Y37900000I0J50000D01*
G01*
X45400000Y38600000D01*
G75*
G02*
X45450000Y38650000I50000J0D01*
G01*
X45550000Y38650000D01*
G75*
G02*
X45600000Y38600000I0J-50000D01*
G01*
G37*
G36*
G01*
X45200000Y38600000D02*
X45200000Y37900000D01*
G75*
G02*
X45150000Y37850000I-50000J0D01*
G01*
X45050000Y37850000D01*
G75*
G02*
X45000000Y37900000I0J50000D01*
G01*
X45000000Y38600000D01*
G75*
G02*
X45050000Y38650000I50000J0D01*
G01*
X45150000Y38650000D01*
G75*
G02*
X45200000Y38600000I0J-50000D01*
G01*
G37*
G36*
G01*
X44800000Y38600000D02*
X44800000Y37900000D01*
G75*
G02*
X44750000Y37850000I-50000J0D01*
G01*
X44650000Y37850000D01*
G75*
G02*
X44600000Y37900000I0J50000D01*
G01*
X44600000Y38600000D01*
G75*
G02*
X44650000Y38650000I50000J0D01*
G01*
X44750000Y38650000D01*
G75*
G02*
X44800000Y38600000I0J-50000D01*
G01*
G37*
G36*
X44240245Y37850961D02*
G01*
X44230866Y37853806D01*
X44222221Y37858427D01*
X44214645Y37864645D01*
X44208427Y37872221D01*
X44203806Y37880866D01*
X44200961Y37890245D01*
X44200000Y37900000D01*
X44200000Y38549289D01*
X44200961Y38559044D01*
X44203806Y38568423D01*
X44208427Y38577068D01*
X44214645Y38584644D01*
X44265356Y38635355D01*
X44272932Y38641573D01*
X44281577Y38646194D01*
X44290956Y38649039D01*
X44300711Y38650000D01*
X44350000Y38650000D01*
X44359755Y38649039D01*
X44369134Y38646194D01*
X44377779Y38641573D01*
X44385355Y38635355D01*
X44391573Y38627779D01*
X44396194Y38619134D01*
X44399039Y38609755D01*
X44400000Y38600000D01*
X44400000Y37900000D01*
X44399039Y37890245D01*
X44396194Y37880866D01*
X44391573Y37872221D01*
X44385355Y37864645D01*
X44377779Y37858427D01*
X44369134Y37853806D01*
X44359755Y37850961D01*
X44350000Y37850000D01*
X44250000Y37850000D01*
X44240245Y37850961D01*
G37*
G36*
X43290245Y38800961D02*
G01*
X43280866Y38803806D01*
X43272221Y38808427D01*
X43264645Y38814645D01*
X43258427Y38822221D01*
X43253806Y38830866D01*
X43250961Y38840245D01*
X43250000Y38850000D01*
X43250000Y38950000D01*
X43250961Y38959755D01*
X43253806Y38969134D01*
X43258427Y38977779D01*
X43264645Y38985355D01*
X43272221Y38991573D01*
X43280866Y38996194D01*
X43290245Y38999039D01*
X43300000Y39000000D01*
X44000000Y39000000D01*
X44009755Y38999039D01*
X44019134Y38996194D01*
X44027779Y38991573D01*
X44035355Y38985355D01*
X44041573Y38977779D01*
X44046194Y38969134D01*
X44049039Y38959755D01*
X44050000Y38950000D01*
X44050000Y38900711D01*
X44049039Y38890956D01*
X44046194Y38881577D01*
X44041573Y38872932D01*
X44035355Y38865356D01*
X43984644Y38814645D01*
X43977068Y38808427D01*
X43968423Y38803806D01*
X43959044Y38800961D01*
X43949289Y38800000D01*
X43300000Y38800000D01*
X43290245Y38800961D01*
G37*
G36*
G01*
X44050000Y39350000D02*
X44050000Y39250000D01*
G75*
G02*
X44000000Y39200000I-50000J0D01*
G01*
X43300000Y39200000D01*
G75*
G02*
X43250000Y39250000I0J50000D01*
G01*
X43250000Y39350000D01*
G75*
G02*
X43300000Y39400000I50000J0D01*
G01*
X44000000Y39400000D01*
G75*
G02*
X44050000Y39350000I0J-50000D01*
G01*
G37*
G36*
G01*
X44050000Y39750000D02*
X44050000Y39650000D01*
G75*
G02*
X44000000Y39600000I-50000J0D01*
G01*
X43300000Y39600000D01*
G75*
G02*
X43250000Y39650000I0J50000D01*
G01*
X43250000Y39750000D01*
G75*
G02*
X43300000Y39800000I50000J0D01*
G01*
X44000000Y39800000D01*
G75*
G02*
X44050000Y39750000I0J-50000D01*
G01*
G37*
G36*
G01*
X44050000Y40150000D02*
X44050000Y40050000D01*
G75*
G02*
X44000000Y40000000I-50000J0D01*
G01*
X43300000Y40000000D01*
G75*
G02*
X43250000Y40050000I0J50000D01*
G01*
X43250000Y40150000D01*
G75*
G02*
X43300000Y40200000I50000J0D01*
G01*
X44000000Y40200000D01*
G75*
G02*
X44050000Y40150000I0J-50000D01*
G01*
G37*
G36*
X43290245Y40400961D02*
G01*
X43280866Y40403806D01*
X43272221Y40408427D01*
X43264645Y40414645D01*
X43258427Y40422221D01*
X43253806Y40430866D01*
X43250961Y40440245D01*
X43250000Y40450000D01*
X43250000Y40550000D01*
X43250961Y40559755D01*
X43253806Y40569134D01*
X43258427Y40577779D01*
X43264645Y40585355D01*
X43272221Y40591573D01*
X43280866Y40596194D01*
X43290245Y40599039D01*
X43300000Y40600000D01*
X43949289Y40600000D01*
X43959044Y40599039D01*
X43968423Y40596194D01*
X43977068Y40591573D01*
X43984644Y40585355D01*
X44035355Y40534644D01*
X44041573Y40527068D01*
X44046194Y40518423D01*
X44049039Y40509044D01*
X44050000Y40499289D01*
X44050000Y40450000D01*
X44049039Y40440245D01*
X44046194Y40430866D01*
X44041573Y40422221D01*
X44035355Y40414645D01*
X44027779Y40408427D01*
X44019134Y40403806D01*
X44009755Y40400961D01*
X44000000Y40400000D01*
X43300000Y40400000D01*
X43290245Y40400961D01*
G37*
G36*
X44290956Y40750961D02*
G01*
X44281577Y40753806D01*
X44272932Y40758427D01*
X44265356Y40764645D01*
X44214645Y40815356D01*
X44208427Y40822932D01*
X44203806Y40831577D01*
X44200961Y40840956D01*
X44200000Y40850711D01*
X44200000Y41500000D01*
X44200961Y41509755D01*
X44203806Y41519134D01*
X44208427Y41527779D01*
X44214645Y41535355D01*
X44222221Y41541573D01*
X44230866Y41546194D01*
X44240245Y41549039D01*
X44250000Y41550000D01*
X44350000Y41550000D01*
X44359755Y41549039D01*
X44369134Y41546194D01*
X44377779Y41541573D01*
X44385355Y41535355D01*
X44391573Y41527779D01*
X44396194Y41519134D01*
X44399039Y41509755D01*
X44400000Y41500000D01*
X44400000Y40800000D01*
X44399039Y40790245D01*
X44396194Y40780866D01*
X44391573Y40772221D01*
X44385355Y40764645D01*
X44377779Y40758427D01*
X44369134Y40753806D01*
X44359755Y40750961D01*
X44350000Y40750000D01*
X44300711Y40750000D01*
X44290956Y40750961D01*
G37*
G36*
G01*
X44800000Y41500000D02*
X44800000Y40800000D01*
G75*
G02*
X44750000Y40750000I-50000J0D01*
G01*
X44650000Y40750000D01*
G75*
G02*
X44600000Y40800000I0J50000D01*
G01*
X44600000Y41500000D01*
G75*
G02*
X44650000Y41550000I50000J0D01*
G01*
X44750000Y41550000D01*
G75*
G02*
X44800000Y41500000I0J-50000D01*
G01*
G37*
G36*
G01*
X45200000Y41500000D02*
X45200000Y40800000D01*
G75*
G02*
X45150000Y40750000I-50000J0D01*
G01*
X45050000Y40750000D01*
G75*
G02*
X45000000Y40800000I0J50000D01*
G01*
X45000000Y41500000D01*
G75*
G02*
X45050000Y41550000I50000J0D01*
G01*
X45150000Y41550000D01*
G75*
G02*
X45200000Y41500000I0J-50000D01*
G01*
G37*
G36*
G01*
X45600000Y41500000D02*
X45600000Y40800000D01*
G75*
G02*
X45550000Y40750000I-50000J0D01*
G01*
X45450000Y40750000D01*
G75*
G02*
X45400000Y40800000I0J50000D01*
G01*
X45400000Y41500000D01*
G75*
G02*
X45450000Y41550000I50000J0D01*
G01*
X45550000Y41550000D01*
G75*
G02*
X45600000Y41500000I0J-50000D01*
G01*
G37*
G36*
X45840245Y40750961D02*
G01*
X45830866Y40753806D01*
X45822221Y40758427D01*
X45814645Y40764645D01*
X45808427Y40772221D01*
X45803806Y40780866D01*
X45800961Y40790245D01*
X45800000Y40800000D01*
X45800000Y41500000D01*
X45800961Y41509755D01*
X45803806Y41519134D01*
X45808427Y41527779D01*
X45814645Y41535355D01*
X45822221Y41541573D01*
X45830866Y41546194D01*
X45840245Y41549039D01*
X45850000Y41550000D01*
X45950000Y41550000D01*
X45959755Y41549039D01*
X45969134Y41546194D01*
X45977779Y41541573D01*
X45985355Y41535355D01*
X45991573Y41527779D01*
X45996194Y41519134D01*
X45999039Y41509755D01*
X46000000Y41500000D01*
X46000000Y40850711D01*
X45999039Y40840956D01*
X45996194Y40831577D01*
X45991573Y40822932D01*
X45985355Y40815356D01*
X45934644Y40764645D01*
X45927068Y40758427D01*
X45918423Y40753806D01*
X45909044Y40750961D01*
X45899289Y40750000D01*
X45850000Y40750000D01*
X45840245Y40750961D01*
G37*
G36*
G01*
X45870000Y40297500D02*
X45870000Y39952500D01*
G75*
G02*
X45697500Y39780000I-172500J0D01*
G01*
X45352500Y39780000D01*
G75*
G02*
X45180000Y39952500I0J172500D01*
G01*
X45180000Y40297500D01*
G75*
G02*
X45352500Y40470000I172500J0D01*
G01*
X45697500Y40470000D01*
G75*
G02*
X45870000Y40297500I0J-172500D01*
G01*
G37*
G36*
G01*
X45870000Y39447500D02*
X45870000Y39102500D01*
G75*
G02*
X45697500Y38930000I-172500J0D01*
G01*
X45352500Y38930000D01*
G75*
G02*
X45180000Y39102500I0J172500D01*
G01*
X45180000Y39447500D01*
G75*
G02*
X45352500Y39620000I172500J0D01*
G01*
X45697500Y39620000D01*
G75*
G02*
X45870000Y39447500I0J-172500D01*
G01*
G37*
G36*
G01*
X45020000Y40297500D02*
X45020000Y39952500D01*
G75*
G02*
X44847500Y39780000I-172500J0D01*
G01*
X44502500Y39780000D01*
G75*
G02*
X44330000Y39952500I0J172500D01*
G01*
X44330000Y40297500D01*
G75*
G02*
X44502500Y40470000I172500J0D01*
G01*
X44847500Y40470000D01*
G75*
G02*
X45020000Y40297500I0J-172500D01*
G01*
G37*
G36*
G01*
X45020000Y39447500D02*
X45020000Y39102500D01*
G75*
G02*
X44847500Y38930000I-172500J0D01*
G01*
X44502500Y38930000D01*
G75*
G02*
X44330000Y39102500I0J172500D01*
G01*
X44330000Y39447500D01*
G75*
G02*
X44502500Y39620000I172500J0D01*
G01*
X44847500Y39620000D01*
G75*
G02*
X45020000Y39447500I0J-172500D01*
G01*
G37*
%TD*%
%TO.C,U2*%
G36*
X46190245Y52400961D02*
G01*
X46180866Y52403806D01*
X46172221Y52408427D01*
X46164645Y52414645D01*
X46158427Y52422221D01*
X46153806Y52430866D01*
X46150961Y52440245D01*
X46150000Y52450000D01*
X46150000Y52499289D01*
X46150961Y52509044D01*
X46153806Y52518423D01*
X46158427Y52527068D01*
X46164645Y52534644D01*
X46215356Y52585355D01*
X46222932Y52591573D01*
X46231577Y52596194D01*
X46240956Y52599039D01*
X46250711Y52600000D01*
X46900000Y52600000D01*
X46909755Y52599039D01*
X46919134Y52596194D01*
X46927779Y52591573D01*
X46935355Y52585355D01*
X46941573Y52577779D01*
X46946194Y52569134D01*
X46949039Y52559755D01*
X46950000Y52550000D01*
X46950000Y52450000D01*
X46949039Y52440245D01*
X46946194Y52430866D01*
X46941573Y52422221D01*
X46935355Y52414645D01*
X46927779Y52408427D01*
X46919134Y52403806D01*
X46909755Y52400961D01*
X46900000Y52400000D01*
X46200000Y52400000D01*
X46190245Y52400961D01*
G37*
G36*
G01*
X46950000Y52150000D02*
X46950000Y52050000D01*
G75*
G02*
X46900000Y52000000I-50000J0D01*
G01*
X46200000Y52000000D01*
G75*
G02*
X46150000Y52050000I0J50000D01*
G01*
X46150000Y52150000D01*
G75*
G02*
X46200000Y52200000I50000J0D01*
G01*
X46900000Y52200000D01*
G75*
G02*
X46950000Y52150000I0J-50000D01*
G01*
G37*
G36*
G01*
X46950000Y51750000D02*
X46950000Y51650000D01*
G75*
G02*
X46900000Y51600000I-50000J0D01*
G01*
X46200000Y51600000D01*
G75*
G02*
X46150000Y51650000I0J50000D01*
G01*
X46150000Y51750000D01*
G75*
G02*
X46200000Y51800000I50000J0D01*
G01*
X46900000Y51800000D01*
G75*
G02*
X46950000Y51750000I0J-50000D01*
G01*
G37*
G36*
G01*
X46950000Y51350000D02*
X46950000Y51250000D01*
G75*
G02*
X46900000Y51200000I-50000J0D01*
G01*
X46200000Y51200000D01*
G75*
G02*
X46150000Y51250000I0J50000D01*
G01*
X46150000Y51350000D01*
G75*
G02*
X46200000Y51400000I50000J0D01*
G01*
X46900000Y51400000D01*
G75*
G02*
X46950000Y51350000I0J-50000D01*
G01*
G37*
G36*
X46240956Y50800961D02*
G01*
X46231577Y50803806D01*
X46222932Y50808427D01*
X46215356Y50814645D01*
X46164645Y50865356D01*
X46158427Y50872932D01*
X46153806Y50881577D01*
X46150961Y50890956D01*
X46150000Y50900711D01*
X46150000Y50950000D01*
X46150961Y50959755D01*
X46153806Y50969134D01*
X46158427Y50977779D01*
X46164645Y50985355D01*
X46172221Y50991573D01*
X46180866Y50996194D01*
X46190245Y50999039D01*
X46200000Y51000000D01*
X46900000Y51000000D01*
X46909755Y50999039D01*
X46919134Y50996194D01*
X46927779Y50991573D01*
X46935355Y50985355D01*
X46941573Y50977779D01*
X46946194Y50969134D01*
X46949039Y50959755D01*
X46950000Y50950000D01*
X46950000Y50850000D01*
X46949039Y50840245D01*
X46946194Y50830866D01*
X46941573Y50822221D01*
X46935355Y50814645D01*
X46927779Y50808427D01*
X46919134Y50803806D01*
X46909755Y50800961D01*
X46900000Y50800000D01*
X46250711Y50800000D01*
X46240956Y50800961D01*
G37*
G36*
X45840245Y49850961D02*
G01*
X45830866Y49853806D01*
X45822221Y49858427D01*
X45814645Y49864645D01*
X45808427Y49872221D01*
X45803806Y49880866D01*
X45800961Y49890245D01*
X45800000Y49900000D01*
X45800000Y50600000D01*
X45800961Y50609755D01*
X45803806Y50619134D01*
X45808427Y50627779D01*
X45814645Y50635355D01*
X45822221Y50641573D01*
X45830866Y50646194D01*
X45840245Y50649039D01*
X45850000Y50650000D01*
X45899289Y50650000D01*
X45909044Y50649039D01*
X45918423Y50646194D01*
X45927068Y50641573D01*
X45934644Y50635355D01*
X45985355Y50584644D01*
X45991573Y50577068D01*
X45996194Y50568423D01*
X45999039Y50559044D01*
X46000000Y50549289D01*
X46000000Y49900000D01*
X45999039Y49890245D01*
X45996194Y49880866D01*
X45991573Y49872221D01*
X45985355Y49864645D01*
X45977779Y49858427D01*
X45969134Y49853806D01*
X45959755Y49850961D01*
X45950000Y49850000D01*
X45850000Y49850000D01*
X45840245Y49850961D01*
G37*
G36*
G01*
X45600000Y50600000D02*
X45600000Y49900000D01*
G75*
G02*
X45550000Y49850000I-50000J0D01*
G01*
X45450000Y49850000D01*
G75*
G02*
X45400000Y49900000I0J50000D01*
G01*
X45400000Y50600000D01*
G75*
G02*
X45450000Y50650000I50000J0D01*
G01*
X45550000Y50650000D01*
G75*
G02*
X45600000Y50600000I0J-50000D01*
G01*
G37*
G36*
G01*
X45200000Y50600000D02*
X45200000Y49900000D01*
G75*
G02*
X45150000Y49850000I-50000J0D01*
G01*
X45050000Y49850000D01*
G75*
G02*
X45000000Y49900000I0J50000D01*
G01*
X45000000Y50600000D01*
G75*
G02*
X45050000Y50650000I50000J0D01*
G01*
X45150000Y50650000D01*
G75*
G02*
X45200000Y50600000I0J-50000D01*
G01*
G37*
G36*
G01*
X44800000Y50600000D02*
X44800000Y49900000D01*
G75*
G02*
X44750000Y49850000I-50000J0D01*
G01*
X44650000Y49850000D01*
G75*
G02*
X44600000Y49900000I0J50000D01*
G01*
X44600000Y50600000D01*
G75*
G02*
X44650000Y50650000I50000J0D01*
G01*
X44750000Y50650000D01*
G75*
G02*
X44800000Y50600000I0J-50000D01*
G01*
G37*
G36*
X44240245Y49850961D02*
G01*
X44230866Y49853806D01*
X44222221Y49858427D01*
X44214645Y49864645D01*
X44208427Y49872221D01*
X44203806Y49880866D01*
X44200961Y49890245D01*
X44200000Y49900000D01*
X44200000Y50549289D01*
X44200961Y50559044D01*
X44203806Y50568423D01*
X44208427Y50577068D01*
X44214645Y50584644D01*
X44265356Y50635355D01*
X44272932Y50641573D01*
X44281577Y50646194D01*
X44290956Y50649039D01*
X44300711Y50650000D01*
X44350000Y50650000D01*
X44359755Y50649039D01*
X44369134Y50646194D01*
X44377779Y50641573D01*
X44385355Y50635355D01*
X44391573Y50627779D01*
X44396194Y50619134D01*
X44399039Y50609755D01*
X44400000Y50600000D01*
X44400000Y49900000D01*
X44399039Y49890245D01*
X44396194Y49880866D01*
X44391573Y49872221D01*
X44385355Y49864645D01*
X44377779Y49858427D01*
X44369134Y49853806D01*
X44359755Y49850961D01*
X44350000Y49850000D01*
X44250000Y49850000D01*
X44240245Y49850961D01*
G37*
G36*
X43290245Y50800961D02*
G01*
X43280866Y50803806D01*
X43272221Y50808427D01*
X43264645Y50814645D01*
X43258427Y50822221D01*
X43253806Y50830866D01*
X43250961Y50840245D01*
X43250000Y50850000D01*
X43250000Y50950000D01*
X43250961Y50959755D01*
X43253806Y50969134D01*
X43258427Y50977779D01*
X43264645Y50985355D01*
X43272221Y50991573D01*
X43280866Y50996194D01*
X43290245Y50999039D01*
X43300000Y51000000D01*
X44000000Y51000000D01*
X44009755Y50999039D01*
X44019134Y50996194D01*
X44027779Y50991573D01*
X44035355Y50985355D01*
X44041573Y50977779D01*
X44046194Y50969134D01*
X44049039Y50959755D01*
X44050000Y50950000D01*
X44050000Y50900711D01*
X44049039Y50890956D01*
X44046194Y50881577D01*
X44041573Y50872932D01*
X44035355Y50865356D01*
X43984644Y50814645D01*
X43977068Y50808427D01*
X43968423Y50803806D01*
X43959044Y50800961D01*
X43949289Y50800000D01*
X43300000Y50800000D01*
X43290245Y50800961D01*
G37*
G36*
G01*
X44050000Y51350000D02*
X44050000Y51250000D01*
G75*
G02*
X44000000Y51200000I-50000J0D01*
G01*
X43300000Y51200000D01*
G75*
G02*
X43250000Y51250000I0J50000D01*
G01*
X43250000Y51350000D01*
G75*
G02*
X43300000Y51400000I50000J0D01*
G01*
X44000000Y51400000D01*
G75*
G02*
X44050000Y51350000I0J-50000D01*
G01*
G37*
G36*
G01*
X44050000Y51750000D02*
X44050000Y51650000D01*
G75*
G02*
X44000000Y51600000I-50000J0D01*
G01*
X43300000Y51600000D01*
G75*
G02*
X43250000Y51650000I0J50000D01*
G01*
X43250000Y51750000D01*
G75*
G02*
X43300000Y51800000I50000J0D01*
G01*
X44000000Y51800000D01*
G75*
G02*
X44050000Y51750000I0J-50000D01*
G01*
G37*
G36*
G01*
X44050000Y52150000D02*
X44050000Y52050000D01*
G75*
G02*
X44000000Y52000000I-50000J0D01*
G01*
X43300000Y52000000D01*
G75*
G02*
X43250000Y52050000I0J50000D01*
G01*
X43250000Y52150000D01*
G75*
G02*
X43300000Y52200000I50000J0D01*
G01*
X44000000Y52200000D01*
G75*
G02*
X44050000Y52150000I0J-50000D01*
G01*
G37*
G36*
X43290245Y52400961D02*
G01*
X43280866Y52403806D01*
X43272221Y52408427D01*
X43264645Y52414645D01*
X43258427Y52422221D01*
X43253806Y52430866D01*
X43250961Y52440245D01*
X43250000Y52450000D01*
X43250000Y52550000D01*
X43250961Y52559755D01*
X43253806Y52569134D01*
X43258427Y52577779D01*
X43264645Y52585355D01*
X43272221Y52591573D01*
X43280866Y52596194D01*
X43290245Y52599039D01*
X43300000Y52600000D01*
X43949289Y52600000D01*
X43959044Y52599039D01*
X43968423Y52596194D01*
X43977068Y52591573D01*
X43984644Y52585355D01*
X44035355Y52534644D01*
X44041573Y52527068D01*
X44046194Y52518423D01*
X44049039Y52509044D01*
X44050000Y52499289D01*
X44050000Y52450000D01*
X44049039Y52440245D01*
X44046194Y52430866D01*
X44041573Y52422221D01*
X44035355Y52414645D01*
X44027779Y52408427D01*
X44019134Y52403806D01*
X44009755Y52400961D01*
X44000000Y52400000D01*
X43300000Y52400000D01*
X43290245Y52400961D01*
G37*
G36*
X44290956Y52750961D02*
G01*
X44281577Y52753806D01*
X44272932Y52758427D01*
X44265356Y52764645D01*
X44214645Y52815356D01*
X44208427Y52822932D01*
X44203806Y52831577D01*
X44200961Y52840956D01*
X44200000Y52850711D01*
X44200000Y53500000D01*
X44200961Y53509755D01*
X44203806Y53519134D01*
X44208427Y53527779D01*
X44214645Y53535355D01*
X44222221Y53541573D01*
X44230866Y53546194D01*
X44240245Y53549039D01*
X44250000Y53550000D01*
X44350000Y53550000D01*
X44359755Y53549039D01*
X44369134Y53546194D01*
X44377779Y53541573D01*
X44385355Y53535355D01*
X44391573Y53527779D01*
X44396194Y53519134D01*
X44399039Y53509755D01*
X44400000Y53500000D01*
X44400000Y52800000D01*
X44399039Y52790245D01*
X44396194Y52780866D01*
X44391573Y52772221D01*
X44385355Y52764645D01*
X44377779Y52758427D01*
X44369134Y52753806D01*
X44359755Y52750961D01*
X44350000Y52750000D01*
X44300711Y52750000D01*
X44290956Y52750961D01*
G37*
G36*
G01*
X44800000Y53500000D02*
X44800000Y52800000D01*
G75*
G02*
X44750000Y52750000I-50000J0D01*
G01*
X44650000Y52750000D01*
G75*
G02*
X44600000Y52800000I0J50000D01*
G01*
X44600000Y53500000D01*
G75*
G02*
X44650000Y53550000I50000J0D01*
G01*
X44750000Y53550000D01*
G75*
G02*
X44800000Y53500000I0J-50000D01*
G01*
G37*
G36*
G01*
X45200000Y53500000D02*
X45200000Y52800000D01*
G75*
G02*
X45150000Y52750000I-50000J0D01*
G01*
X45050000Y52750000D01*
G75*
G02*
X45000000Y52800000I0J50000D01*
G01*
X45000000Y53500000D01*
G75*
G02*
X45050000Y53550000I50000J0D01*
G01*
X45150000Y53550000D01*
G75*
G02*
X45200000Y53500000I0J-50000D01*
G01*
G37*
G36*
G01*
X45600000Y53500000D02*
X45600000Y52800000D01*
G75*
G02*
X45550000Y52750000I-50000J0D01*
G01*
X45450000Y52750000D01*
G75*
G02*
X45400000Y52800000I0J50000D01*
G01*
X45400000Y53500000D01*
G75*
G02*
X45450000Y53550000I50000J0D01*
G01*
X45550000Y53550000D01*
G75*
G02*
X45600000Y53500000I0J-50000D01*
G01*
G37*
G36*
X45840245Y52750961D02*
G01*
X45830866Y52753806D01*
X45822221Y52758427D01*
X45814645Y52764645D01*
X45808427Y52772221D01*
X45803806Y52780866D01*
X45800961Y52790245D01*
X45800000Y52800000D01*
X45800000Y53500000D01*
X45800961Y53509755D01*
X45803806Y53519134D01*
X45808427Y53527779D01*
X45814645Y53535355D01*
X45822221Y53541573D01*
X45830866Y53546194D01*
X45840245Y53549039D01*
X45850000Y53550000D01*
X45950000Y53550000D01*
X45959755Y53549039D01*
X45969134Y53546194D01*
X45977779Y53541573D01*
X45985355Y53535355D01*
X45991573Y53527779D01*
X45996194Y53519134D01*
X45999039Y53509755D01*
X46000000Y53500000D01*
X46000000Y52850711D01*
X45999039Y52840956D01*
X45996194Y52831577D01*
X45991573Y52822932D01*
X45985355Y52815356D01*
X45934644Y52764645D01*
X45927068Y52758427D01*
X45918423Y52753806D01*
X45909044Y52750961D01*
X45899289Y52750000D01*
X45850000Y52750000D01*
X45840245Y52750961D01*
G37*
G36*
G01*
X45870000Y52297500D02*
X45870000Y51952500D01*
G75*
G02*
X45697500Y51780000I-172500J0D01*
G01*
X45352500Y51780000D01*
G75*
G02*
X45180000Y51952500I0J172500D01*
G01*
X45180000Y52297500D01*
G75*
G02*
X45352500Y52470000I172500J0D01*
G01*
X45697500Y52470000D01*
G75*
G02*
X45870000Y52297500I0J-172500D01*
G01*
G37*
G36*
G01*
X45870000Y51447500D02*
X45870000Y51102500D01*
G75*
G02*
X45697500Y50930000I-172500J0D01*
G01*
X45352500Y50930000D01*
G75*
G02*
X45180000Y51102500I0J172500D01*
G01*
X45180000Y51447500D01*
G75*
G02*
X45352500Y51620000I172500J0D01*
G01*
X45697500Y51620000D01*
G75*
G02*
X45870000Y51447500I0J-172500D01*
G01*
G37*
G36*
G01*
X45020000Y52297500D02*
X45020000Y51952500D01*
G75*
G02*
X44847500Y51780000I-172500J0D01*
G01*
X44502500Y51780000D01*
G75*
G02*
X44330000Y51952500I0J172500D01*
G01*
X44330000Y52297500D01*
G75*
G02*
X44502500Y52470000I172500J0D01*
G01*
X44847500Y52470000D01*
G75*
G02*
X45020000Y52297500I0J-172500D01*
G01*
G37*
G36*
G01*
X45020000Y51447500D02*
X45020000Y51102500D01*
G75*
G02*
X44847500Y50930000I-172500J0D01*
G01*
X44502500Y50930000D01*
G75*
G02*
X44330000Y51102500I0J172500D01*
G01*
X44330000Y51447500D01*
G75*
G02*
X44502500Y51620000I172500J0D01*
G01*
X44847500Y51620000D01*
G75*
G02*
X45020000Y51447500I0J-172500D01*
G01*
G37*
%TD*%
%TO.C,U2*%
G36*
X46190245Y64400961D02*
G01*
X46180866Y64403806D01*
X46172221Y64408427D01*
X46164645Y64414645D01*
X46158427Y64422221D01*
X46153806Y64430866D01*
X46150961Y64440245D01*
X46150000Y64450000D01*
X46150000Y64499289D01*
X46150961Y64509044D01*
X46153806Y64518423D01*
X46158427Y64527068D01*
X46164645Y64534644D01*
X46215356Y64585355D01*
X46222932Y64591573D01*
X46231577Y64596194D01*
X46240956Y64599039D01*
X46250711Y64600000D01*
X46900000Y64600000D01*
X46909755Y64599039D01*
X46919134Y64596194D01*
X46927779Y64591573D01*
X46935355Y64585355D01*
X46941573Y64577779D01*
X46946194Y64569134D01*
X46949039Y64559755D01*
X46950000Y64550000D01*
X46950000Y64450000D01*
X46949039Y64440245D01*
X46946194Y64430866D01*
X46941573Y64422221D01*
X46935355Y64414645D01*
X46927779Y64408427D01*
X46919134Y64403806D01*
X46909755Y64400961D01*
X46900000Y64400000D01*
X46200000Y64400000D01*
X46190245Y64400961D01*
G37*
G36*
G01*
X46950000Y64150000D02*
X46950000Y64050000D01*
G75*
G02*
X46900000Y64000000I-50000J0D01*
G01*
X46200000Y64000000D01*
G75*
G02*
X46150000Y64050000I0J50000D01*
G01*
X46150000Y64150000D01*
G75*
G02*
X46200000Y64200000I50000J0D01*
G01*
X46900000Y64200000D01*
G75*
G02*
X46950000Y64150000I0J-50000D01*
G01*
G37*
G36*
G01*
X46950000Y63750000D02*
X46950000Y63650000D01*
G75*
G02*
X46900000Y63600000I-50000J0D01*
G01*
X46200000Y63600000D01*
G75*
G02*
X46150000Y63650000I0J50000D01*
G01*
X46150000Y63750000D01*
G75*
G02*
X46200000Y63800000I50000J0D01*
G01*
X46900000Y63800000D01*
G75*
G02*
X46950000Y63750000I0J-50000D01*
G01*
G37*
G36*
G01*
X46950000Y63350000D02*
X46950000Y63250000D01*
G75*
G02*
X46900000Y63200000I-50000J0D01*
G01*
X46200000Y63200000D01*
G75*
G02*
X46150000Y63250000I0J50000D01*
G01*
X46150000Y63350000D01*
G75*
G02*
X46200000Y63400000I50000J0D01*
G01*
X46900000Y63400000D01*
G75*
G02*
X46950000Y63350000I0J-50000D01*
G01*
G37*
G36*
X46240956Y62800961D02*
G01*
X46231577Y62803806D01*
X46222932Y62808427D01*
X46215356Y62814645D01*
X46164645Y62865356D01*
X46158427Y62872932D01*
X46153806Y62881577D01*
X46150961Y62890956D01*
X46150000Y62900711D01*
X46150000Y62950000D01*
X46150961Y62959755D01*
X46153806Y62969134D01*
X46158427Y62977779D01*
X46164645Y62985355D01*
X46172221Y62991573D01*
X46180866Y62996194D01*
X46190245Y62999039D01*
X46200000Y63000000D01*
X46900000Y63000000D01*
X46909755Y62999039D01*
X46919134Y62996194D01*
X46927779Y62991573D01*
X46935355Y62985355D01*
X46941573Y62977779D01*
X46946194Y62969134D01*
X46949039Y62959755D01*
X46950000Y62950000D01*
X46950000Y62850000D01*
X46949039Y62840245D01*
X46946194Y62830866D01*
X46941573Y62822221D01*
X46935355Y62814645D01*
X46927779Y62808427D01*
X46919134Y62803806D01*
X46909755Y62800961D01*
X46900000Y62800000D01*
X46250711Y62800000D01*
X46240956Y62800961D01*
G37*
G36*
X45840245Y61850961D02*
G01*
X45830866Y61853806D01*
X45822221Y61858427D01*
X45814645Y61864645D01*
X45808427Y61872221D01*
X45803806Y61880866D01*
X45800961Y61890245D01*
X45800000Y61900000D01*
X45800000Y62600000D01*
X45800961Y62609755D01*
X45803806Y62619134D01*
X45808427Y62627779D01*
X45814645Y62635355D01*
X45822221Y62641573D01*
X45830866Y62646194D01*
X45840245Y62649039D01*
X45850000Y62650000D01*
X45899289Y62650000D01*
X45909044Y62649039D01*
X45918423Y62646194D01*
X45927068Y62641573D01*
X45934644Y62635355D01*
X45985355Y62584644D01*
X45991573Y62577068D01*
X45996194Y62568423D01*
X45999039Y62559044D01*
X46000000Y62549289D01*
X46000000Y61900000D01*
X45999039Y61890245D01*
X45996194Y61880866D01*
X45991573Y61872221D01*
X45985355Y61864645D01*
X45977779Y61858427D01*
X45969134Y61853806D01*
X45959755Y61850961D01*
X45950000Y61850000D01*
X45850000Y61850000D01*
X45840245Y61850961D01*
G37*
G36*
G01*
X45600000Y62600000D02*
X45600000Y61900000D01*
G75*
G02*
X45550000Y61850000I-50000J0D01*
G01*
X45450000Y61850000D01*
G75*
G02*
X45400000Y61900000I0J50000D01*
G01*
X45400000Y62600000D01*
G75*
G02*
X45450000Y62650000I50000J0D01*
G01*
X45550000Y62650000D01*
G75*
G02*
X45600000Y62600000I0J-50000D01*
G01*
G37*
G36*
G01*
X45200000Y62600000D02*
X45200000Y61900000D01*
G75*
G02*
X45150000Y61850000I-50000J0D01*
G01*
X45050000Y61850000D01*
G75*
G02*
X45000000Y61900000I0J50000D01*
G01*
X45000000Y62600000D01*
G75*
G02*
X45050000Y62650000I50000J0D01*
G01*
X45150000Y62650000D01*
G75*
G02*
X45200000Y62600000I0J-50000D01*
G01*
G37*
G36*
G01*
X44800000Y62600000D02*
X44800000Y61900000D01*
G75*
G02*
X44750000Y61850000I-50000J0D01*
G01*
X44650000Y61850000D01*
G75*
G02*
X44600000Y61900000I0J50000D01*
G01*
X44600000Y62600000D01*
G75*
G02*
X44650000Y62650000I50000J0D01*
G01*
X44750000Y62650000D01*
G75*
G02*
X44800000Y62600000I0J-50000D01*
G01*
G37*
G36*
X44240245Y61850961D02*
G01*
X44230866Y61853806D01*
X44222221Y61858427D01*
X44214645Y61864645D01*
X44208427Y61872221D01*
X44203806Y61880866D01*
X44200961Y61890245D01*
X44200000Y61900000D01*
X44200000Y62549289D01*
X44200961Y62559044D01*
X44203806Y62568423D01*
X44208427Y62577068D01*
X44214645Y62584644D01*
X44265356Y62635355D01*
X44272932Y62641573D01*
X44281577Y62646194D01*
X44290956Y62649039D01*
X44300711Y62650000D01*
X44350000Y62650000D01*
X44359755Y62649039D01*
X44369134Y62646194D01*
X44377779Y62641573D01*
X44385355Y62635355D01*
X44391573Y62627779D01*
X44396194Y62619134D01*
X44399039Y62609755D01*
X44400000Y62600000D01*
X44400000Y61900000D01*
X44399039Y61890245D01*
X44396194Y61880866D01*
X44391573Y61872221D01*
X44385355Y61864645D01*
X44377779Y61858427D01*
X44369134Y61853806D01*
X44359755Y61850961D01*
X44350000Y61850000D01*
X44250000Y61850000D01*
X44240245Y61850961D01*
G37*
G36*
X43290245Y62800961D02*
G01*
X43280866Y62803806D01*
X43272221Y62808427D01*
X43264645Y62814645D01*
X43258427Y62822221D01*
X43253806Y62830866D01*
X43250961Y62840245D01*
X43250000Y62850000D01*
X43250000Y62950000D01*
X43250961Y62959755D01*
X43253806Y62969134D01*
X43258427Y62977779D01*
X43264645Y62985355D01*
X43272221Y62991573D01*
X43280866Y62996194D01*
X43290245Y62999039D01*
X43300000Y63000000D01*
X44000000Y63000000D01*
X44009755Y62999039D01*
X44019134Y62996194D01*
X44027779Y62991573D01*
X44035355Y62985355D01*
X44041573Y62977779D01*
X44046194Y62969134D01*
X44049039Y62959755D01*
X44050000Y62950000D01*
X44050000Y62900711D01*
X44049039Y62890956D01*
X44046194Y62881577D01*
X44041573Y62872932D01*
X44035355Y62865356D01*
X43984644Y62814645D01*
X43977068Y62808427D01*
X43968423Y62803806D01*
X43959044Y62800961D01*
X43949289Y62800000D01*
X43300000Y62800000D01*
X43290245Y62800961D01*
G37*
G36*
G01*
X44050000Y63350000D02*
X44050000Y63250000D01*
G75*
G02*
X44000000Y63200000I-50000J0D01*
G01*
X43300000Y63200000D01*
G75*
G02*
X43250000Y63250000I0J50000D01*
G01*
X43250000Y63350000D01*
G75*
G02*
X43300000Y63400000I50000J0D01*
G01*
X44000000Y63400000D01*
G75*
G02*
X44050000Y63350000I0J-50000D01*
G01*
G37*
G36*
G01*
X44050000Y63750000D02*
X44050000Y63650000D01*
G75*
G02*
X44000000Y63600000I-50000J0D01*
G01*
X43300000Y63600000D01*
G75*
G02*
X43250000Y63650000I0J50000D01*
G01*
X43250000Y63750000D01*
G75*
G02*
X43300000Y63800000I50000J0D01*
G01*
X44000000Y63800000D01*
G75*
G02*
X44050000Y63750000I0J-50000D01*
G01*
G37*
G36*
G01*
X44050000Y64150000D02*
X44050000Y64050000D01*
G75*
G02*
X44000000Y64000000I-50000J0D01*
G01*
X43300000Y64000000D01*
G75*
G02*
X43250000Y64050000I0J50000D01*
G01*
X43250000Y64150000D01*
G75*
G02*
X43300000Y64200000I50000J0D01*
G01*
X44000000Y64200000D01*
G75*
G02*
X44050000Y64150000I0J-50000D01*
G01*
G37*
G36*
X43290245Y64400961D02*
G01*
X43280866Y64403806D01*
X43272221Y64408427D01*
X43264645Y64414645D01*
X43258427Y64422221D01*
X43253806Y64430866D01*
X43250961Y64440245D01*
X43250000Y64450000D01*
X43250000Y64550000D01*
X43250961Y64559755D01*
X43253806Y64569134D01*
X43258427Y64577779D01*
X43264645Y64585355D01*
X43272221Y64591573D01*
X43280866Y64596194D01*
X43290245Y64599039D01*
X43300000Y64600000D01*
X43949289Y64600000D01*
X43959044Y64599039D01*
X43968423Y64596194D01*
X43977068Y64591573D01*
X43984644Y64585355D01*
X44035355Y64534644D01*
X44041573Y64527068D01*
X44046194Y64518423D01*
X44049039Y64509044D01*
X44050000Y64499289D01*
X44050000Y64450000D01*
X44049039Y64440245D01*
X44046194Y64430866D01*
X44041573Y64422221D01*
X44035355Y64414645D01*
X44027779Y64408427D01*
X44019134Y64403806D01*
X44009755Y64400961D01*
X44000000Y64400000D01*
X43300000Y64400000D01*
X43290245Y64400961D01*
G37*
G36*
X44290956Y64750961D02*
G01*
X44281577Y64753806D01*
X44272932Y64758427D01*
X44265356Y64764645D01*
X44214645Y64815356D01*
X44208427Y64822932D01*
X44203806Y64831577D01*
X44200961Y64840956D01*
X44200000Y64850711D01*
X44200000Y65500000D01*
X44200961Y65509755D01*
X44203806Y65519134D01*
X44208427Y65527779D01*
X44214645Y65535355D01*
X44222221Y65541573D01*
X44230866Y65546194D01*
X44240245Y65549039D01*
X44250000Y65550000D01*
X44350000Y65550000D01*
X44359755Y65549039D01*
X44369134Y65546194D01*
X44377779Y65541573D01*
X44385355Y65535355D01*
X44391573Y65527779D01*
X44396194Y65519134D01*
X44399039Y65509755D01*
X44400000Y65500000D01*
X44400000Y64800000D01*
X44399039Y64790245D01*
X44396194Y64780866D01*
X44391573Y64772221D01*
X44385355Y64764645D01*
X44377779Y64758427D01*
X44369134Y64753806D01*
X44359755Y64750961D01*
X44350000Y64750000D01*
X44300711Y64750000D01*
X44290956Y64750961D01*
G37*
G36*
G01*
X44800000Y65500000D02*
X44800000Y64800000D01*
G75*
G02*
X44750000Y64750000I-50000J0D01*
G01*
X44650000Y64750000D01*
G75*
G02*
X44600000Y64800000I0J50000D01*
G01*
X44600000Y65500000D01*
G75*
G02*
X44650000Y65550000I50000J0D01*
G01*
X44750000Y65550000D01*
G75*
G02*
X44800000Y65500000I0J-50000D01*
G01*
G37*
G36*
G01*
X45200000Y65500000D02*
X45200000Y64800000D01*
G75*
G02*
X45150000Y64750000I-50000J0D01*
G01*
X45050000Y64750000D01*
G75*
G02*
X45000000Y64800000I0J50000D01*
G01*
X45000000Y65500000D01*
G75*
G02*
X45050000Y65550000I50000J0D01*
G01*
X45150000Y65550000D01*
G75*
G02*
X45200000Y65500000I0J-50000D01*
G01*
G37*
G36*
G01*
X45600000Y65500000D02*
X45600000Y64800000D01*
G75*
G02*
X45550000Y64750000I-50000J0D01*
G01*
X45450000Y64750000D01*
G75*
G02*
X45400000Y64800000I0J50000D01*
G01*
X45400000Y65500000D01*
G75*
G02*
X45450000Y65550000I50000J0D01*
G01*
X45550000Y65550000D01*
G75*
G02*
X45600000Y65500000I0J-50000D01*
G01*
G37*
G36*
X45840245Y64750961D02*
G01*
X45830866Y64753806D01*
X45822221Y64758427D01*
X45814645Y64764645D01*
X45808427Y64772221D01*
X45803806Y64780866D01*
X45800961Y64790245D01*
X45800000Y64800000D01*
X45800000Y65500000D01*
X45800961Y65509755D01*
X45803806Y65519134D01*
X45808427Y65527779D01*
X45814645Y65535355D01*
X45822221Y65541573D01*
X45830866Y65546194D01*
X45840245Y65549039D01*
X45850000Y65550000D01*
X45950000Y65550000D01*
X45959755Y65549039D01*
X45969134Y65546194D01*
X45977779Y65541573D01*
X45985355Y65535355D01*
X45991573Y65527779D01*
X45996194Y65519134D01*
X45999039Y65509755D01*
X46000000Y65500000D01*
X46000000Y64850711D01*
X45999039Y64840956D01*
X45996194Y64831577D01*
X45991573Y64822932D01*
X45985355Y64815356D01*
X45934644Y64764645D01*
X45927068Y64758427D01*
X45918423Y64753806D01*
X45909044Y64750961D01*
X45899289Y64750000D01*
X45850000Y64750000D01*
X45840245Y64750961D01*
G37*
G36*
G01*
X45870000Y64297500D02*
X45870000Y63952500D01*
G75*
G02*
X45697500Y63780000I-172500J0D01*
G01*
X45352500Y63780000D01*
G75*
G02*
X45180000Y63952500I0J172500D01*
G01*
X45180000Y64297500D01*
G75*
G02*
X45352500Y64470000I172500J0D01*
G01*
X45697500Y64470000D01*
G75*
G02*
X45870000Y64297500I0J-172500D01*
G01*
G37*
G36*
G01*
X45870000Y63447500D02*
X45870000Y63102500D01*
G75*
G02*
X45697500Y62930000I-172500J0D01*
G01*
X45352500Y62930000D01*
G75*
G02*
X45180000Y63102500I0J172500D01*
G01*
X45180000Y63447500D01*
G75*
G02*
X45352500Y63620000I172500J0D01*
G01*
X45697500Y63620000D01*
G75*
G02*
X45870000Y63447500I0J-172500D01*
G01*
G37*
G36*
G01*
X45020000Y64297500D02*
X45020000Y63952500D01*
G75*
G02*
X44847500Y63780000I-172500J0D01*
G01*
X44502500Y63780000D01*
G75*
G02*
X44330000Y63952500I0J172500D01*
G01*
X44330000Y64297500D01*
G75*
G02*
X44502500Y64470000I172500J0D01*
G01*
X44847500Y64470000D01*
G75*
G02*
X45020000Y64297500I0J-172500D01*
G01*
G37*
G36*
G01*
X45020000Y63447500D02*
X45020000Y63102500D01*
G75*
G02*
X44847500Y62930000I-172500J0D01*
G01*
X44502500Y62930000D01*
G75*
G02*
X44330000Y63102500I0J172500D01*
G01*
X44330000Y63447500D01*
G75*
G02*
X44502500Y63620000I172500J0D01*
G01*
X44847500Y63620000D01*
G75*
G02*
X45020000Y63447500I0J-172500D01*
G01*
G37*
%TD*%
%TO.C,U2*%
G36*
X46190245Y76400961D02*
G01*
X46180866Y76403806D01*
X46172221Y76408427D01*
X46164645Y76414645D01*
X46158427Y76422221D01*
X46153806Y76430866D01*
X46150961Y76440245D01*
X46150000Y76450000D01*
X46150000Y76499289D01*
X46150961Y76509044D01*
X46153806Y76518423D01*
X46158427Y76527068D01*
X46164645Y76534644D01*
X46215356Y76585355D01*
X46222932Y76591573D01*
X46231577Y76596194D01*
X46240956Y76599039D01*
X46250711Y76600000D01*
X46900000Y76600000D01*
X46909755Y76599039D01*
X46919134Y76596194D01*
X46927779Y76591573D01*
X46935355Y76585355D01*
X46941573Y76577779D01*
X46946194Y76569134D01*
X46949039Y76559755D01*
X46950000Y76550000D01*
X46950000Y76450000D01*
X46949039Y76440245D01*
X46946194Y76430866D01*
X46941573Y76422221D01*
X46935355Y76414645D01*
X46927779Y76408427D01*
X46919134Y76403806D01*
X46909755Y76400961D01*
X46900000Y76400000D01*
X46200000Y76400000D01*
X46190245Y76400961D01*
G37*
G36*
G01*
X46950000Y76150000D02*
X46950000Y76050000D01*
G75*
G02*
X46900000Y76000000I-50000J0D01*
G01*
X46200000Y76000000D01*
G75*
G02*
X46150000Y76050000I0J50000D01*
G01*
X46150000Y76150000D01*
G75*
G02*
X46200000Y76200000I50000J0D01*
G01*
X46900000Y76200000D01*
G75*
G02*
X46950000Y76150000I0J-50000D01*
G01*
G37*
G36*
G01*
X46950000Y75750000D02*
X46950000Y75650000D01*
G75*
G02*
X46900000Y75600000I-50000J0D01*
G01*
X46200000Y75600000D01*
G75*
G02*
X46150000Y75650000I0J50000D01*
G01*
X46150000Y75750000D01*
G75*
G02*
X46200000Y75800000I50000J0D01*
G01*
X46900000Y75800000D01*
G75*
G02*
X46950000Y75750000I0J-50000D01*
G01*
G37*
G36*
G01*
X46950000Y75350000D02*
X46950000Y75250000D01*
G75*
G02*
X46900000Y75200000I-50000J0D01*
G01*
X46200000Y75200000D01*
G75*
G02*
X46150000Y75250000I0J50000D01*
G01*
X46150000Y75350000D01*
G75*
G02*
X46200000Y75400000I50000J0D01*
G01*
X46900000Y75400000D01*
G75*
G02*
X46950000Y75350000I0J-50000D01*
G01*
G37*
G36*
X46240956Y74800961D02*
G01*
X46231577Y74803806D01*
X46222932Y74808427D01*
X46215356Y74814645D01*
X46164645Y74865356D01*
X46158427Y74872932D01*
X46153806Y74881577D01*
X46150961Y74890956D01*
X46150000Y74900711D01*
X46150000Y74950000D01*
X46150961Y74959755D01*
X46153806Y74969134D01*
X46158427Y74977779D01*
X46164645Y74985355D01*
X46172221Y74991573D01*
X46180866Y74996194D01*
X46190245Y74999039D01*
X46200000Y75000000D01*
X46900000Y75000000D01*
X46909755Y74999039D01*
X46919134Y74996194D01*
X46927779Y74991573D01*
X46935355Y74985355D01*
X46941573Y74977779D01*
X46946194Y74969134D01*
X46949039Y74959755D01*
X46950000Y74950000D01*
X46950000Y74850000D01*
X46949039Y74840245D01*
X46946194Y74830866D01*
X46941573Y74822221D01*
X46935355Y74814645D01*
X46927779Y74808427D01*
X46919134Y74803806D01*
X46909755Y74800961D01*
X46900000Y74800000D01*
X46250711Y74800000D01*
X46240956Y74800961D01*
G37*
G36*
X45840245Y73850961D02*
G01*
X45830866Y73853806D01*
X45822221Y73858427D01*
X45814645Y73864645D01*
X45808427Y73872221D01*
X45803806Y73880866D01*
X45800961Y73890245D01*
X45800000Y73900000D01*
X45800000Y74600000D01*
X45800961Y74609755D01*
X45803806Y74619134D01*
X45808427Y74627779D01*
X45814645Y74635355D01*
X45822221Y74641573D01*
X45830866Y74646194D01*
X45840245Y74649039D01*
X45850000Y74650000D01*
X45899289Y74650000D01*
X45909044Y74649039D01*
X45918423Y74646194D01*
X45927068Y74641573D01*
X45934644Y74635355D01*
X45985355Y74584644D01*
X45991573Y74577068D01*
X45996194Y74568423D01*
X45999039Y74559044D01*
X46000000Y74549289D01*
X46000000Y73900000D01*
X45999039Y73890245D01*
X45996194Y73880866D01*
X45991573Y73872221D01*
X45985355Y73864645D01*
X45977779Y73858427D01*
X45969134Y73853806D01*
X45959755Y73850961D01*
X45950000Y73850000D01*
X45850000Y73850000D01*
X45840245Y73850961D01*
G37*
G36*
G01*
X45600000Y74600000D02*
X45600000Y73900000D01*
G75*
G02*
X45550000Y73850000I-50000J0D01*
G01*
X45450000Y73850000D01*
G75*
G02*
X45400000Y73900000I0J50000D01*
G01*
X45400000Y74600000D01*
G75*
G02*
X45450000Y74650000I50000J0D01*
G01*
X45550000Y74650000D01*
G75*
G02*
X45600000Y74600000I0J-50000D01*
G01*
G37*
G36*
G01*
X45200000Y74600000D02*
X45200000Y73900000D01*
G75*
G02*
X45150000Y73850000I-50000J0D01*
G01*
X45050000Y73850000D01*
G75*
G02*
X45000000Y73900000I0J50000D01*
G01*
X45000000Y74600000D01*
G75*
G02*
X45050000Y74650000I50000J0D01*
G01*
X45150000Y74650000D01*
G75*
G02*
X45200000Y74600000I0J-50000D01*
G01*
G37*
G36*
G01*
X44800000Y74600000D02*
X44800000Y73900000D01*
G75*
G02*
X44750000Y73850000I-50000J0D01*
G01*
X44650000Y73850000D01*
G75*
G02*
X44600000Y73900000I0J50000D01*
G01*
X44600000Y74600000D01*
G75*
G02*
X44650000Y74650000I50000J0D01*
G01*
X44750000Y74650000D01*
G75*
G02*
X44800000Y74600000I0J-50000D01*
G01*
G37*
G36*
X44240245Y73850961D02*
G01*
X44230866Y73853806D01*
X44222221Y73858427D01*
X44214645Y73864645D01*
X44208427Y73872221D01*
X44203806Y73880866D01*
X44200961Y73890245D01*
X44200000Y73900000D01*
X44200000Y74549289D01*
X44200961Y74559044D01*
X44203806Y74568423D01*
X44208427Y74577068D01*
X44214645Y74584644D01*
X44265356Y74635355D01*
X44272932Y74641573D01*
X44281577Y74646194D01*
X44290956Y74649039D01*
X44300711Y74650000D01*
X44350000Y74650000D01*
X44359755Y74649039D01*
X44369134Y74646194D01*
X44377779Y74641573D01*
X44385355Y74635355D01*
X44391573Y74627779D01*
X44396194Y74619134D01*
X44399039Y74609755D01*
X44400000Y74600000D01*
X44400000Y73900000D01*
X44399039Y73890245D01*
X44396194Y73880866D01*
X44391573Y73872221D01*
X44385355Y73864645D01*
X44377779Y73858427D01*
X44369134Y73853806D01*
X44359755Y73850961D01*
X44350000Y73850000D01*
X44250000Y73850000D01*
X44240245Y73850961D01*
G37*
G36*
X43290245Y74800961D02*
G01*
X43280866Y74803806D01*
X43272221Y74808427D01*
X43264645Y74814645D01*
X43258427Y74822221D01*
X43253806Y74830866D01*
X43250961Y74840245D01*
X43250000Y74850000D01*
X43250000Y74950000D01*
X43250961Y74959755D01*
X43253806Y74969134D01*
X43258427Y74977779D01*
X43264645Y74985355D01*
X43272221Y74991573D01*
X43280866Y74996194D01*
X43290245Y74999039D01*
X43300000Y75000000D01*
X44000000Y75000000D01*
X44009755Y74999039D01*
X44019134Y74996194D01*
X44027779Y74991573D01*
X44035355Y74985355D01*
X44041573Y74977779D01*
X44046194Y74969134D01*
X44049039Y74959755D01*
X44050000Y74950000D01*
X44050000Y74900711D01*
X44049039Y74890956D01*
X44046194Y74881577D01*
X44041573Y74872932D01*
X44035355Y74865356D01*
X43984644Y74814645D01*
X43977068Y74808427D01*
X43968423Y74803806D01*
X43959044Y74800961D01*
X43949289Y74800000D01*
X43300000Y74800000D01*
X43290245Y74800961D01*
G37*
G36*
G01*
X44050000Y75350000D02*
X44050000Y75250000D01*
G75*
G02*
X44000000Y75200000I-50000J0D01*
G01*
X43300000Y75200000D01*
G75*
G02*
X43250000Y75250000I0J50000D01*
G01*
X43250000Y75350000D01*
G75*
G02*
X43300000Y75400000I50000J0D01*
G01*
X44000000Y75400000D01*
G75*
G02*
X44050000Y75350000I0J-50000D01*
G01*
G37*
G36*
G01*
X44050000Y75750000D02*
X44050000Y75650000D01*
G75*
G02*
X44000000Y75600000I-50000J0D01*
G01*
X43300000Y75600000D01*
G75*
G02*
X43250000Y75650000I0J50000D01*
G01*
X43250000Y75750000D01*
G75*
G02*
X43300000Y75800000I50000J0D01*
G01*
X44000000Y75800000D01*
G75*
G02*
X44050000Y75750000I0J-50000D01*
G01*
G37*
G36*
G01*
X44050000Y76150000D02*
X44050000Y76050000D01*
G75*
G02*
X44000000Y76000000I-50000J0D01*
G01*
X43300000Y76000000D01*
G75*
G02*
X43250000Y76050000I0J50000D01*
G01*
X43250000Y76150000D01*
G75*
G02*
X43300000Y76200000I50000J0D01*
G01*
X44000000Y76200000D01*
G75*
G02*
X44050000Y76150000I0J-50000D01*
G01*
G37*
G36*
X43290245Y76400961D02*
G01*
X43280866Y76403806D01*
X43272221Y76408427D01*
X43264645Y76414645D01*
X43258427Y76422221D01*
X43253806Y76430866D01*
X43250961Y76440245D01*
X43250000Y76450000D01*
X43250000Y76550000D01*
X43250961Y76559755D01*
X43253806Y76569134D01*
X43258427Y76577779D01*
X43264645Y76585355D01*
X43272221Y76591573D01*
X43280866Y76596194D01*
X43290245Y76599039D01*
X43300000Y76600000D01*
X43949289Y76600000D01*
X43959044Y76599039D01*
X43968423Y76596194D01*
X43977068Y76591573D01*
X43984644Y76585355D01*
X44035355Y76534644D01*
X44041573Y76527068D01*
X44046194Y76518423D01*
X44049039Y76509044D01*
X44050000Y76499289D01*
X44050000Y76450000D01*
X44049039Y76440245D01*
X44046194Y76430866D01*
X44041573Y76422221D01*
X44035355Y76414645D01*
X44027779Y76408427D01*
X44019134Y76403806D01*
X44009755Y76400961D01*
X44000000Y76400000D01*
X43300000Y76400000D01*
X43290245Y76400961D01*
G37*
G36*
X44290956Y76750961D02*
G01*
X44281577Y76753806D01*
X44272932Y76758427D01*
X44265356Y76764645D01*
X44214645Y76815356D01*
X44208427Y76822932D01*
X44203806Y76831577D01*
X44200961Y76840956D01*
X44200000Y76850711D01*
X44200000Y77500000D01*
X44200961Y77509755D01*
X44203806Y77519134D01*
X44208427Y77527779D01*
X44214645Y77535355D01*
X44222221Y77541573D01*
X44230866Y77546194D01*
X44240245Y77549039D01*
X44250000Y77550000D01*
X44350000Y77550000D01*
X44359755Y77549039D01*
X44369134Y77546194D01*
X44377779Y77541573D01*
X44385355Y77535355D01*
X44391573Y77527779D01*
X44396194Y77519134D01*
X44399039Y77509755D01*
X44400000Y77500000D01*
X44400000Y76800000D01*
X44399039Y76790245D01*
X44396194Y76780866D01*
X44391573Y76772221D01*
X44385355Y76764645D01*
X44377779Y76758427D01*
X44369134Y76753806D01*
X44359755Y76750961D01*
X44350000Y76750000D01*
X44300711Y76750000D01*
X44290956Y76750961D01*
G37*
G36*
G01*
X44800000Y77500000D02*
X44800000Y76800000D01*
G75*
G02*
X44750000Y76750000I-50000J0D01*
G01*
X44650000Y76750000D01*
G75*
G02*
X44600000Y76800000I0J50000D01*
G01*
X44600000Y77500000D01*
G75*
G02*
X44650000Y77550000I50000J0D01*
G01*
X44750000Y77550000D01*
G75*
G02*
X44800000Y77500000I0J-50000D01*
G01*
G37*
G36*
G01*
X45200000Y77500000D02*
X45200000Y76800000D01*
G75*
G02*
X45150000Y76750000I-50000J0D01*
G01*
X45050000Y76750000D01*
G75*
G02*
X45000000Y76800000I0J50000D01*
G01*
X45000000Y77500000D01*
G75*
G02*
X45050000Y77550000I50000J0D01*
G01*
X45150000Y77550000D01*
G75*
G02*
X45200000Y77500000I0J-50000D01*
G01*
G37*
G36*
G01*
X45600000Y77500000D02*
X45600000Y76800000D01*
G75*
G02*
X45550000Y76750000I-50000J0D01*
G01*
X45450000Y76750000D01*
G75*
G02*
X45400000Y76800000I0J50000D01*
G01*
X45400000Y77500000D01*
G75*
G02*
X45450000Y77550000I50000J0D01*
G01*
X45550000Y77550000D01*
G75*
G02*
X45600000Y77500000I0J-50000D01*
G01*
G37*
G36*
X45840245Y76750961D02*
G01*
X45830866Y76753806D01*
X45822221Y76758427D01*
X45814645Y76764645D01*
X45808427Y76772221D01*
X45803806Y76780866D01*
X45800961Y76790245D01*
X45800000Y76800000D01*
X45800000Y77500000D01*
X45800961Y77509755D01*
X45803806Y77519134D01*
X45808427Y77527779D01*
X45814645Y77535355D01*
X45822221Y77541573D01*
X45830866Y77546194D01*
X45840245Y77549039D01*
X45850000Y77550000D01*
X45950000Y77550000D01*
X45959755Y77549039D01*
X45969134Y77546194D01*
X45977779Y77541573D01*
X45985355Y77535355D01*
X45991573Y77527779D01*
X45996194Y77519134D01*
X45999039Y77509755D01*
X46000000Y77500000D01*
X46000000Y76850711D01*
X45999039Y76840956D01*
X45996194Y76831577D01*
X45991573Y76822932D01*
X45985355Y76815356D01*
X45934644Y76764645D01*
X45927068Y76758427D01*
X45918423Y76753806D01*
X45909044Y76750961D01*
X45899289Y76750000D01*
X45850000Y76750000D01*
X45840245Y76750961D01*
G37*
G36*
G01*
X45870000Y76297500D02*
X45870000Y75952500D01*
G75*
G02*
X45697500Y75780000I-172500J0D01*
G01*
X45352500Y75780000D01*
G75*
G02*
X45180000Y75952500I0J172500D01*
G01*
X45180000Y76297500D01*
G75*
G02*
X45352500Y76470000I172500J0D01*
G01*
X45697500Y76470000D01*
G75*
G02*
X45870000Y76297500I0J-172500D01*
G01*
G37*
G36*
G01*
X45870000Y75447500D02*
X45870000Y75102500D01*
G75*
G02*
X45697500Y74930000I-172500J0D01*
G01*
X45352500Y74930000D01*
G75*
G02*
X45180000Y75102500I0J172500D01*
G01*
X45180000Y75447500D01*
G75*
G02*
X45352500Y75620000I172500J0D01*
G01*
X45697500Y75620000D01*
G75*
G02*
X45870000Y75447500I0J-172500D01*
G01*
G37*
G36*
G01*
X45020000Y76297500D02*
X45020000Y75952500D01*
G75*
G02*
X44847500Y75780000I-172500J0D01*
G01*
X44502500Y75780000D01*
G75*
G02*
X44330000Y75952500I0J172500D01*
G01*
X44330000Y76297500D01*
G75*
G02*
X44502500Y76470000I172500J0D01*
G01*
X44847500Y76470000D01*
G75*
G02*
X45020000Y76297500I0J-172500D01*
G01*
G37*
G36*
G01*
X45020000Y75447500D02*
X45020000Y75102500D01*
G75*
G02*
X44847500Y74930000I-172500J0D01*
G01*
X44502500Y74930000D01*
G75*
G02*
X44330000Y75102500I0J172500D01*
G01*
X44330000Y75447500D01*
G75*
G02*
X44502500Y75620000I172500J0D01*
G01*
X44847500Y75620000D01*
G75*
G02*
X45020000Y75447500I0J-172500D01*
G01*
G37*
%TD*%
D13*
%TO.C,R8*%
X38100000Y4475000D03*
X38100000Y6125000D03*
%TD*%
%TO.C,R8*%
X38100000Y16475000D03*
X38100000Y18125000D03*
%TD*%
%TO.C,R8*%
X38100000Y28475000D03*
X38100000Y30125000D03*
%TD*%
%TO.C,R8*%
X38100000Y40475000D03*
X38100000Y42125000D03*
%TD*%
%TO.C,R8*%
X38100000Y52475000D03*
X38100000Y54125000D03*
%TD*%
%TO.C,R8*%
X38100000Y64475000D03*
X38100000Y66125000D03*
%TD*%
%TO.C,R8*%
X38100000Y76475000D03*
X38100000Y78125000D03*
%TD*%
D17*
%TO.C,R38*%
X61225000Y4900000D03*
X60175000Y4900000D03*
%TD*%
%TO.C,R38*%
X61225000Y16900000D03*
X60175000Y16900000D03*
%TD*%
%TO.C,R38*%
X61225000Y28900000D03*
X60175000Y28900000D03*
%TD*%
%TO.C,R38*%
X61225000Y40900000D03*
X60175000Y40900000D03*
%TD*%
%TO.C,R38*%
X61225000Y52900000D03*
X60175000Y52900000D03*
%TD*%
%TO.C,R38*%
X61225000Y64900000D03*
X60175000Y64900000D03*
%TD*%
%TO.C,R38*%
X61225000Y76900000D03*
X60175000Y76900000D03*
%TD*%
D30*
%TO.C,R36*%
X59200000Y2325000D03*
X59200000Y1275000D03*
%TD*%
%TO.C,R36*%
X59200000Y14325000D03*
X59200000Y13275000D03*
%TD*%
%TO.C,R36*%
X59200000Y26325000D03*
X59200000Y25275000D03*
%TD*%
%TO.C,R36*%
X59200000Y38325000D03*
X59200000Y37275000D03*
%TD*%
%TO.C,R36*%
X59200000Y50325000D03*
X59200000Y49275000D03*
%TD*%
%TO.C,R36*%
X59200000Y62325000D03*
X59200000Y61275000D03*
%TD*%
%TO.C,R36*%
X59200000Y74325000D03*
X59200000Y73275000D03*
%TD*%
%TO.C,R37*%
X63750000Y5975000D03*
X63750000Y7025000D03*
%TD*%
%TO.C,R37*%
X63750000Y17975000D03*
X63750000Y19025000D03*
%TD*%
%TO.C,R37*%
X63750000Y29975000D03*
X63750000Y31025000D03*
%TD*%
%TO.C,R37*%
X63750000Y41975000D03*
X63750000Y43025000D03*
%TD*%
%TO.C,R37*%
X63750000Y53975000D03*
X63750000Y55025000D03*
%TD*%
%TO.C,R37*%
X63750000Y65975000D03*
X63750000Y67025000D03*
%TD*%
%TO.C,R37*%
X63750000Y77975000D03*
X63750000Y79025000D03*
%TD*%
D17*
%TO.C,R35*%
X64925000Y4200000D03*
X63875000Y4200000D03*
%TD*%
%TO.C,R35*%
X64925000Y16200000D03*
X63875000Y16200000D03*
%TD*%
%TO.C,R35*%
X64925000Y28200000D03*
X63875000Y28200000D03*
%TD*%
%TO.C,R35*%
X64925000Y40200000D03*
X63875000Y40200000D03*
%TD*%
%TO.C,R35*%
X64925000Y52200000D03*
X63875000Y52200000D03*
%TD*%
%TO.C,R35*%
X64925000Y64200000D03*
X63875000Y64200000D03*
%TD*%
%TO.C,R35*%
X64925000Y76200000D03*
X63875000Y76200000D03*
%TD*%
D13*
%TO.C,R47*%
X23500000Y1175000D03*
X23500000Y2825000D03*
%TD*%
%TO.C,R47*%
X23500000Y13175000D03*
X23500000Y14825000D03*
%TD*%
%TO.C,R47*%
X23500000Y25175000D03*
X23500000Y26825000D03*
%TD*%
%TO.C,R47*%
X23500000Y37175000D03*
X23500000Y38825000D03*
%TD*%
%TO.C,R47*%
X23500000Y49175000D03*
X23500000Y50825000D03*
%TD*%
%TO.C,R47*%
X23500000Y61175000D03*
X23500000Y62825000D03*
%TD*%
%TO.C,R47*%
X23500000Y73175000D03*
X23500000Y74825000D03*
%TD*%
D30*
%TO.C,R34*%
X61500000Y7725000D03*
X61500000Y6675000D03*
%TD*%
%TO.C,R34*%
X61500000Y19725000D03*
X61500000Y18675000D03*
%TD*%
%TO.C,R34*%
X61500000Y31725000D03*
X61500000Y30675000D03*
%TD*%
%TO.C,R34*%
X61500000Y43725000D03*
X61500000Y42675000D03*
%TD*%
%TO.C,R34*%
X61500000Y55725000D03*
X61500000Y54675000D03*
%TD*%
%TO.C,R34*%
X61500000Y67725000D03*
X61500000Y66675000D03*
%TD*%
%TO.C,R34*%
X61500000Y79725000D03*
X61500000Y78675000D03*
%TD*%
%TO.C,R33*%
X66000000Y3375000D03*
X66000000Y4425000D03*
%TD*%
%TO.C,R33*%
X66000000Y15375000D03*
X66000000Y16425000D03*
%TD*%
%TO.C,R33*%
X66000000Y27375000D03*
X66000000Y28425000D03*
%TD*%
%TO.C,R33*%
X66000000Y39375000D03*
X66000000Y40425000D03*
%TD*%
%TO.C,R33*%
X66000000Y51375000D03*
X66000000Y52425000D03*
%TD*%
%TO.C,R33*%
X66000000Y63375000D03*
X66000000Y64425000D03*
%TD*%
%TO.C,R33*%
X66000000Y75375000D03*
X66000000Y76425000D03*
%TD*%
D17*
%TO.C,R32*%
X64975000Y8250000D03*
X66025000Y8250000D03*
%TD*%
%TO.C,R32*%
X64975000Y20250000D03*
X66025000Y20250000D03*
%TD*%
%TO.C,R32*%
X64975000Y32250000D03*
X66025000Y32250000D03*
%TD*%
%TO.C,R32*%
X64975000Y44250000D03*
X66025000Y44250000D03*
%TD*%
%TO.C,R32*%
X64975000Y56250000D03*
X66025000Y56250000D03*
%TD*%
%TO.C,R32*%
X64975000Y68250000D03*
X66025000Y68250000D03*
%TD*%
%TO.C,R32*%
X64975000Y80250000D03*
X66025000Y80250000D03*
%TD*%
D13*
%TO.C,R1*%
X46800000Y9325000D03*
X46800000Y7675000D03*
%TD*%
%TO.C,R1*%
X46800000Y21325000D03*
X46800000Y19675000D03*
%TD*%
%TO.C,R1*%
X46800000Y33325000D03*
X46800000Y31675000D03*
%TD*%
%TO.C,R1*%
X46800000Y45325000D03*
X46800000Y43675000D03*
%TD*%
%TO.C,R1*%
X46800000Y57325000D03*
X46800000Y55675000D03*
%TD*%
%TO.C,R1*%
X46800000Y69325000D03*
X46800000Y67675000D03*
%TD*%
%TO.C,R1*%
X46800000Y81325000D03*
X46800000Y79675000D03*
%TD*%
D30*
%TO.C,R13*%
X55800000Y4925000D03*
X55800000Y3875000D03*
%TD*%
%TO.C,R13*%
X55800000Y16925000D03*
X55800000Y15875000D03*
%TD*%
%TO.C,R13*%
X55800000Y28925000D03*
X55800000Y27875000D03*
%TD*%
%TO.C,R13*%
X55800000Y40925000D03*
X55800000Y39875000D03*
%TD*%
%TO.C,R13*%
X55800000Y52925000D03*
X55800000Y51875000D03*
%TD*%
%TO.C,R13*%
X55800000Y64925000D03*
X55800000Y63875000D03*
%TD*%
%TO.C,R13*%
X55800000Y76925000D03*
X55800000Y75875000D03*
%TD*%
D13*
%TO.C,R48*%
X12500000Y5825000D03*
X12500000Y4175000D03*
%TD*%
%TO.C,R48*%
X12500000Y17825000D03*
X12500000Y16175000D03*
%TD*%
%TO.C,R48*%
X12500000Y29825000D03*
X12500000Y28175000D03*
%TD*%
%TO.C,R48*%
X12500000Y41825000D03*
X12500000Y40175000D03*
%TD*%
%TO.C,R48*%
X12500000Y53825000D03*
X12500000Y52175000D03*
%TD*%
%TO.C,R48*%
X12500000Y65825000D03*
X12500000Y64175000D03*
%TD*%
%TO.C,R48*%
X12500000Y77825000D03*
X12500000Y76175000D03*
%TD*%
D26*
%TO.C,P3*%
X72000000Y86750000D03*
%TD*%
%TO.C,P1*%
X72000000Y91250000D03*
%TD*%
D20*
%TO.C,C7*%
X28600000Y87865000D03*
D21*
X28600000Y88915000D03*
%TD*%
D17*
%TO.C,R31*%
X65775000Y91250000D03*
X64725000Y91250000D03*
%TD*%
D11*
%TO.C,R44*%
X64075000Y86750000D03*
X62425000Y86750000D03*
%TD*%
D19*
%TO.C,D46*%
X36500000Y89850000D03*
X36500000Y88150000D03*
%TD*%
D15*
%TO.C,Q6*%
X56800000Y88050000D03*
X57300000Y88050000D03*
X57800000Y88050000D03*
X57800000Y89550000D03*
X57300000Y89550000D03*
X56800000Y89550000D03*
%TD*%
D25*
%TO.C,C3*%
X53100000Y90775000D03*
X53100000Y89225000D03*
%TD*%
D28*
%TO.C,D1*%
X67750000Y85500000D03*
X69750000Y85500000D03*
X69750000Y87500000D03*
D27*
X67950000Y87500000D03*
%TD*%
D24*
%TO.C,D3*%
X51500000Y88350000D03*
X51500000Y90450000D03*
%TD*%
D23*
%TO.C,Q1*%
X28800000Y91700000D03*
X28800000Y90750000D03*
X28800000Y89800000D03*
X31200000Y89800000D03*
X31200000Y90750000D03*
X31200000Y91700000D03*
%TD*%
%TO.C,Q2*%
X31200000Y86950000D03*
X31200000Y86000000D03*
X31200000Y85050000D03*
X28800000Y85050000D03*
X28800000Y86000000D03*
X28800000Y86950000D03*
%TD*%
D21*
%TO.C,C1*%
X66600000Y85475000D03*
D20*
X66600000Y86525000D03*
%TD*%
D18*
%TO.C,C4*%
X54400000Y90775000D03*
X54400000Y89225000D03*
%TD*%
D21*
%TO.C,C5*%
X48300000Y88875000D03*
D20*
X48300000Y89925000D03*
%TD*%
D21*
%TO.C,C6*%
X39500000Y91925000D03*
D20*
X39500000Y90875000D03*
%TD*%
D21*
%TO.C,C11*%
X68000000Y89525000D03*
D20*
X68000000Y88475000D03*
%TD*%
D21*
%TO.C,C12*%
X60200000Y85275000D03*
D20*
X60200000Y86325000D03*
%TD*%
D22*
%TO.C,D21*%
X70600000Y89500000D03*
X68900000Y89500000D03*
%TD*%
D19*
%TO.C,D41*%
X92000000Y89850000D03*
X92000000Y88150000D03*
%TD*%
%TO.C,D42*%
X85000000Y88150000D03*
X85000000Y89850000D03*
%TD*%
%TO.C,D43*%
X75000000Y88150000D03*
X75000000Y89850000D03*
%TD*%
%TO.C,D44*%
X62500000Y88150000D03*
X62500000Y89850000D03*
%TD*%
%TO.C,D45*%
X49500000Y88150000D03*
X49500000Y89850000D03*
%TD*%
%TO.C,D47*%
X23500000Y89850000D03*
X23500000Y88150000D03*
%TD*%
%TO.C,D48*%
X11000000Y88150000D03*
X11000000Y89850000D03*
%TD*%
D12*
%TO.C,Q5*%
X54000000Y86250000D03*
X54650000Y88150000D03*
X53350000Y88150000D03*
%TD*%
D14*
%TO.C,Q8*%
X67750000Y90750000D03*
X67750000Y91250000D03*
X67750000Y91750000D03*
X69250000Y91750000D03*
X69250000Y91250000D03*
X69250000Y90750000D03*
%TD*%
D12*
%TO.C,Q11*%
X25900000Y90300000D03*
X24600000Y90300000D03*
X25250000Y92200000D03*
%TD*%
%TO.C,Q17*%
X41500000Y86650000D03*
X40850000Y84750000D03*
X42150000Y84750000D03*
%TD*%
D14*
%TO.C,Q21*%
X66250000Y89250000D03*
X66250000Y89750000D03*
X66250000Y90250000D03*
X64750000Y90250000D03*
X64750000Y89750000D03*
X64750000Y89250000D03*
%TD*%
D13*
%TO.C,R3*%
X32600000Y89675000D03*
X32600000Y91325000D03*
%TD*%
%TO.C,R4*%
X32500000Y84675000D03*
X32500000Y86325000D03*
%TD*%
%TO.C,R5*%
X34300000Y90575000D03*
X34300000Y92225000D03*
%TD*%
D11*
%TO.C,R6*%
X31175000Y88300000D03*
X32825000Y88300000D03*
%TD*%
D13*
%TO.C,R9*%
X27250000Y91025000D03*
X27250000Y89375000D03*
%TD*%
%TO.C,R10*%
X27250000Y86675000D03*
X27250000Y88325000D03*
%TD*%
D11*
%TO.C,R14*%
X57525000Y90600000D03*
X55875000Y90600000D03*
%TD*%
D13*
%TO.C,R41*%
X90500000Y88175000D03*
X90500000Y89825000D03*
%TD*%
%TO.C,R42*%
X83500000Y89825000D03*
X83500000Y88175000D03*
%TD*%
D11*
%TO.C,R43*%
X73575000Y89000000D03*
X71925000Y89000000D03*
%TD*%
D13*
%TO.C,R45*%
X50700000Y85575000D03*
X50700000Y87225000D03*
%TD*%
D11*
%TO.C,R46*%
X35425000Y86300000D03*
X33775000Y86300000D03*
%TD*%
D13*
%TO.C,R47*%
X23500000Y86825000D03*
X23500000Y85175000D03*
%TD*%
%TO.C,R48*%
X12500000Y88175000D03*
X12500000Y89825000D03*
%TD*%
%TO.C,U2*%
G36*
G01*
X45020000Y87447500D02*
X45020000Y87102500D01*
G75*
G02*
X44847500Y86930000I-172500J0D01*
G01*
X44502500Y86930000D01*
G75*
G02*
X44330000Y87102500I0J172500D01*
G01*
X44330000Y87447500D01*
G75*
G02*
X44502500Y87620000I172500J0D01*
G01*
X44847500Y87620000D01*
G75*
G02*
X45020000Y87447500I0J-172500D01*
G01*
G37*
G36*
G01*
X45020000Y88297500D02*
X45020000Y87952500D01*
G75*
G02*
X44847500Y87780000I-172500J0D01*
G01*
X44502500Y87780000D01*
G75*
G02*
X44330000Y87952500I0J172500D01*
G01*
X44330000Y88297500D01*
G75*
G02*
X44502500Y88470000I172500J0D01*
G01*
X44847500Y88470000D01*
G75*
G02*
X45020000Y88297500I0J-172500D01*
G01*
G37*
G36*
G01*
X45870000Y87447500D02*
X45870000Y87102500D01*
G75*
G02*
X45697500Y86930000I-172500J0D01*
G01*
X45352500Y86930000D01*
G75*
G02*
X45180000Y87102500I0J172500D01*
G01*
X45180000Y87447500D01*
G75*
G02*
X45352500Y87620000I172500J0D01*
G01*
X45697500Y87620000D01*
G75*
G02*
X45870000Y87447500I0J-172500D01*
G01*
G37*
G36*
G01*
X45870000Y88297500D02*
X45870000Y87952500D01*
G75*
G02*
X45697500Y87780000I-172500J0D01*
G01*
X45352500Y87780000D01*
G75*
G02*
X45180000Y87952500I0J172500D01*
G01*
X45180000Y88297500D01*
G75*
G02*
X45352500Y88470000I172500J0D01*
G01*
X45697500Y88470000D01*
G75*
G02*
X45870000Y88297500I0J-172500D01*
G01*
G37*
D29*
G36*
X45840245Y88750961D02*
G01*
X45830866Y88753806D01*
X45822221Y88758427D01*
X45814645Y88764645D01*
X45808427Y88772221D01*
X45803806Y88780866D01*
X45800961Y88790245D01*
X45800000Y88800000D01*
X45800000Y89500000D01*
X45800961Y89509755D01*
X45803806Y89519134D01*
X45808427Y89527779D01*
X45814645Y89535355D01*
X45822221Y89541573D01*
X45830866Y89546194D01*
X45840245Y89549039D01*
X45850000Y89550000D01*
X45950000Y89550000D01*
X45959755Y89549039D01*
X45969134Y89546194D01*
X45977779Y89541573D01*
X45985355Y89535355D01*
X45991573Y89527779D01*
X45996194Y89519134D01*
X45999039Y89509755D01*
X46000000Y89500000D01*
X46000000Y88850711D01*
X45999039Y88840956D01*
X45996194Y88831577D01*
X45991573Y88822932D01*
X45985355Y88815356D01*
X45934644Y88764645D01*
X45927068Y88758427D01*
X45918423Y88753806D01*
X45909044Y88750961D01*
X45899289Y88750000D01*
X45850000Y88750000D01*
X45840245Y88750961D01*
G37*
G36*
G01*
X45600000Y89500000D02*
X45600000Y88800000D01*
G75*
G02*
X45550000Y88750000I-50000J0D01*
G01*
X45450000Y88750000D01*
G75*
G02*
X45400000Y88800000I0J50000D01*
G01*
X45400000Y89500000D01*
G75*
G02*
X45450000Y89550000I50000J0D01*
G01*
X45550000Y89550000D01*
G75*
G02*
X45600000Y89500000I0J-50000D01*
G01*
G37*
G36*
G01*
X45200000Y89500000D02*
X45200000Y88800000D01*
G75*
G02*
X45150000Y88750000I-50000J0D01*
G01*
X45050000Y88750000D01*
G75*
G02*
X45000000Y88800000I0J50000D01*
G01*
X45000000Y89500000D01*
G75*
G02*
X45050000Y89550000I50000J0D01*
G01*
X45150000Y89550000D01*
G75*
G02*
X45200000Y89500000I0J-50000D01*
G01*
G37*
G36*
G01*
X44800000Y89500000D02*
X44800000Y88800000D01*
G75*
G02*
X44750000Y88750000I-50000J0D01*
G01*
X44650000Y88750000D01*
G75*
G02*
X44600000Y88800000I0J50000D01*
G01*
X44600000Y89500000D01*
G75*
G02*
X44650000Y89550000I50000J0D01*
G01*
X44750000Y89550000D01*
G75*
G02*
X44800000Y89500000I0J-50000D01*
G01*
G37*
G36*
X44290956Y88750961D02*
G01*
X44281577Y88753806D01*
X44272932Y88758427D01*
X44265356Y88764645D01*
X44214645Y88815356D01*
X44208427Y88822932D01*
X44203806Y88831577D01*
X44200961Y88840956D01*
X44200000Y88850711D01*
X44200000Y89500000D01*
X44200961Y89509755D01*
X44203806Y89519134D01*
X44208427Y89527779D01*
X44214645Y89535355D01*
X44222221Y89541573D01*
X44230866Y89546194D01*
X44240245Y89549039D01*
X44250000Y89550000D01*
X44350000Y89550000D01*
X44359755Y89549039D01*
X44369134Y89546194D01*
X44377779Y89541573D01*
X44385355Y89535355D01*
X44391573Y89527779D01*
X44396194Y89519134D01*
X44399039Y89509755D01*
X44400000Y89500000D01*
X44400000Y88800000D01*
X44399039Y88790245D01*
X44396194Y88780866D01*
X44391573Y88772221D01*
X44385355Y88764645D01*
X44377779Y88758427D01*
X44369134Y88753806D01*
X44359755Y88750961D01*
X44350000Y88750000D01*
X44300711Y88750000D01*
X44290956Y88750961D01*
G37*
G36*
X43290245Y88400961D02*
G01*
X43280866Y88403806D01*
X43272221Y88408427D01*
X43264645Y88414645D01*
X43258427Y88422221D01*
X43253806Y88430866D01*
X43250961Y88440245D01*
X43250000Y88450000D01*
X43250000Y88550000D01*
X43250961Y88559755D01*
X43253806Y88569134D01*
X43258427Y88577779D01*
X43264645Y88585355D01*
X43272221Y88591573D01*
X43280866Y88596194D01*
X43290245Y88599039D01*
X43300000Y88600000D01*
X43949289Y88600000D01*
X43959044Y88599039D01*
X43968423Y88596194D01*
X43977068Y88591573D01*
X43984644Y88585355D01*
X44035355Y88534644D01*
X44041573Y88527068D01*
X44046194Y88518423D01*
X44049039Y88509044D01*
X44050000Y88499289D01*
X44050000Y88450000D01*
X44049039Y88440245D01*
X44046194Y88430866D01*
X44041573Y88422221D01*
X44035355Y88414645D01*
X44027779Y88408427D01*
X44019134Y88403806D01*
X44009755Y88400961D01*
X44000000Y88400000D01*
X43300000Y88400000D01*
X43290245Y88400961D01*
G37*
G36*
G01*
X44050000Y88150000D02*
X44050000Y88050000D01*
G75*
G02*
X44000000Y88000000I-50000J0D01*
G01*
X43300000Y88000000D01*
G75*
G02*
X43250000Y88050000I0J50000D01*
G01*
X43250000Y88150000D01*
G75*
G02*
X43300000Y88200000I50000J0D01*
G01*
X44000000Y88200000D01*
G75*
G02*
X44050000Y88150000I0J-50000D01*
G01*
G37*
G36*
G01*
X44050000Y87750000D02*
X44050000Y87650000D01*
G75*
G02*
X44000000Y87600000I-50000J0D01*
G01*
X43300000Y87600000D01*
G75*
G02*
X43250000Y87650000I0J50000D01*
G01*
X43250000Y87750000D01*
G75*
G02*
X43300000Y87800000I50000J0D01*
G01*
X44000000Y87800000D01*
G75*
G02*
X44050000Y87750000I0J-50000D01*
G01*
G37*
G36*
G01*
X44050000Y87350000D02*
X44050000Y87250000D01*
G75*
G02*
X44000000Y87200000I-50000J0D01*
G01*
X43300000Y87200000D01*
G75*
G02*
X43250000Y87250000I0J50000D01*
G01*
X43250000Y87350000D01*
G75*
G02*
X43300000Y87400000I50000J0D01*
G01*
X44000000Y87400000D01*
G75*
G02*
X44050000Y87350000I0J-50000D01*
G01*
G37*
G36*
X43290245Y86800961D02*
G01*
X43280866Y86803806D01*
X43272221Y86808427D01*
X43264645Y86814645D01*
X43258427Y86822221D01*
X43253806Y86830866D01*
X43250961Y86840245D01*
X43250000Y86850000D01*
X43250000Y86950000D01*
X43250961Y86959755D01*
X43253806Y86969134D01*
X43258427Y86977779D01*
X43264645Y86985355D01*
X43272221Y86991573D01*
X43280866Y86996194D01*
X43290245Y86999039D01*
X43300000Y87000000D01*
X44000000Y87000000D01*
X44009755Y86999039D01*
X44019134Y86996194D01*
X44027779Y86991573D01*
X44035355Y86985355D01*
X44041573Y86977779D01*
X44046194Y86969134D01*
X44049039Y86959755D01*
X44050000Y86950000D01*
X44050000Y86900711D01*
X44049039Y86890956D01*
X44046194Y86881577D01*
X44041573Y86872932D01*
X44035355Y86865356D01*
X43984644Y86814645D01*
X43977068Y86808427D01*
X43968423Y86803806D01*
X43959044Y86800961D01*
X43949289Y86800000D01*
X43300000Y86800000D01*
X43290245Y86800961D01*
G37*
G36*
X44240245Y85850961D02*
G01*
X44230866Y85853806D01*
X44222221Y85858427D01*
X44214645Y85864645D01*
X44208427Y85872221D01*
X44203806Y85880866D01*
X44200961Y85890245D01*
X44200000Y85900000D01*
X44200000Y86549289D01*
X44200961Y86559044D01*
X44203806Y86568423D01*
X44208427Y86577068D01*
X44214645Y86584644D01*
X44265356Y86635355D01*
X44272932Y86641573D01*
X44281577Y86646194D01*
X44290956Y86649039D01*
X44300711Y86650000D01*
X44350000Y86650000D01*
X44359755Y86649039D01*
X44369134Y86646194D01*
X44377779Y86641573D01*
X44385355Y86635355D01*
X44391573Y86627779D01*
X44396194Y86619134D01*
X44399039Y86609755D01*
X44400000Y86600000D01*
X44400000Y85900000D01*
X44399039Y85890245D01*
X44396194Y85880866D01*
X44391573Y85872221D01*
X44385355Y85864645D01*
X44377779Y85858427D01*
X44369134Y85853806D01*
X44359755Y85850961D01*
X44350000Y85850000D01*
X44250000Y85850000D01*
X44240245Y85850961D01*
G37*
G36*
G01*
X44800000Y86600000D02*
X44800000Y85900000D01*
G75*
G02*
X44750000Y85850000I-50000J0D01*
G01*
X44650000Y85850000D01*
G75*
G02*
X44600000Y85900000I0J50000D01*
G01*
X44600000Y86600000D01*
G75*
G02*
X44650000Y86650000I50000J0D01*
G01*
X44750000Y86650000D01*
G75*
G02*
X44800000Y86600000I0J-50000D01*
G01*
G37*
G36*
G01*
X45200000Y86600000D02*
X45200000Y85900000D01*
G75*
G02*
X45150000Y85850000I-50000J0D01*
G01*
X45050000Y85850000D01*
G75*
G02*
X45000000Y85900000I0J50000D01*
G01*
X45000000Y86600000D01*
G75*
G02*
X45050000Y86650000I50000J0D01*
G01*
X45150000Y86650000D01*
G75*
G02*
X45200000Y86600000I0J-50000D01*
G01*
G37*
G36*
G01*
X45600000Y86600000D02*
X45600000Y85900000D01*
G75*
G02*
X45550000Y85850000I-50000J0D01*
G01*
X45450000Y85850000D01*
G75*
G02*
X45400000Y85900000I0J50000D01*
G01*
X45400000Y86600000D01*
G75*
G02*
X45450000Y86650000I50000J0D01*
G01*
X45550000Y86650000D01*
G75*
G02*
X45600000Y86600000I0J-50000D01*
G01*
G37*
G36*
X45840245Y85850961D02*
G01*
X45830866Y85853806D01*
X45822221Y85858427D01*
X45814645Y85864645D01*
X45808427Y85872221D01*
X45803806Y85880866D01*
X45800961Y85890245D01*
X45800000Y85900000D01*
X45800000Y86600000D01*
X45800961Y86609755D01*
X45803806Y86619134D01*
X45808427Y86627779D01*
X45814645Y86635355D01*
X45822221Y86641573D01*
X45830866Y86646194D01*
X45840245Y86649039D01*
X45850000Y86650000D01*
X45899289Y86650000D01*
X45909044Y86649039D01*
X45918423Y86646194D01*
X45927068Y86641573D01*
X45934644Y86635355D01*
X45985355Y86584644D01*
X45991573Y86577068D01*
X45996194Y86568423D01*
X45999039Y86559044D01*
X46000000Y86549289D01*
X46000000Y85900000D01*
X45999039Y85890245D01*
X45996194Y85880866D01*
X45991573Y85872221D01*
X45985355Y85864645D01*
X45977779Y85858427D01*
X45969134Y85853806D01*
X45959755Y85850961D01*
X45950000Y85850000D01*
X45850000Y85850000D01*
X45840245Y85850961D01*
G37*
G36*
X46240956Y86800961D02*
G01*
X46231577Y86803806D01*
X46222932Y86808427D01*
X46215356Y86814645D01*
X46164645Y86865356D01*
X46158427Y86872932D01*
X46153806Y86881577D01*
X46150961Y86890956D01*
X46150000Y86900711D01*
X46150000Y86950000D01*
X46150961Y86959755D01*
X46153806Y86969134D01*
X46158427Y86977779D01*
X46164645Y86985355D01*
X46172221Y86991573D01*
X46180866Y86996194D01*
X46190245Y86999039D01*
X46200000Y87000000D01*
X46900000Y87000000D01*
X46909755Y86999039D01*
X46919134Y86996194D01*
X46927779Y86991573D01*
X46935355Y86985355D01*
X46941573Y86977779D01*
X46946194Y86969134D01*
X46949039Y86959755D01*
X46950000Y86950000D01*
X46950000Y86850000D01*
X46949039Y86840245D01*
X46946194Y86830866D01*
X46941573Y86822221D01*
X46935355Y86814645D01*
X46927779Y86808427D01*
X46919134Y86803806D01*
X46909755Y86800961D01*
X46900000Y86800000D01*
X46250711Y86800000D01*
X46240956Y86800961D01*
G37*
G36*
G01*
X46950000Y87350000D02*
X46950000Y87250000D01*
G75*
G02*
X46900000Y87200000I-50000J0D01*
G01*
X46200000Y87200000D01*
G75*
G02*
X46150000Y87250000I0J50000D01*
G01*
X46150000Y87350000D01*
G75*
G02*
X46200000Y87400000I50000J0D01*
G01*
X46900000Y87400000D01*
G75*
G02*
X46950000Y87350000I0J-50000D01*
G01*
G37*
G36*
G01*
X46950000Y87750000D02*
X46950000Y87650000D01*
G75*
G02*
X46900000Y87600000I-50000J0D01*
G01*
X46200000Y87600000D01*
G75*
G02*
X46150000Y87650000I0J50000D01*
G01*
X46150000Y87750000D01*
G75*
G02*
X46200000Y87800000I50000J0D01*
G01*
X46900000Y87800000D01*
G75*
G02*
X46950000Y87750000I0J-50000D01*
G01*
G37*
G36*
G01*
X46950000Y88150000D02*
X46950000Y88050000D01*
G75*
G02*
X46900000Y88000000I-50000J0D01*
G01*
X46200000Y88000000D01*
G75*
G02*
X46150000Y88050000I0J50000D01*
G01*
X46150000Y88150000D01*
G75*
G02*
X46200000Y88200000I50000J0D01*
G01*
X46900000Y88200000D01*
G75*
G02*
X46950000Y88150000I0J-50000D01*
G01*
G37*
G36*
X46190245Y88400961D02*
G01*
X46180866Y88403806D01*
X46172221Y88408427D01*
X46164645Y88414645D01*
X46158427Y88422221D01*
X46153806Y88430866D01*
X46150961Y88440245D01*
X46150000Y88450000D01*
X46150000Y88499289D01*
X46150961Y88509044D01*
X46153806Y88518423D01*
X46158427Y88527068D01*
X46164645Y88534644D01*
X46215356Y88585355D01*
X46222932Y88591573D01*
X46231577Y88596194D01*
X46240956Y88599039D01*
X46250711Y88600000D01*
X46900000Y88600000D01*
X46909755Y88599039D01*
X46919134Y88596194D01*
X46927779Y88591573D01*
X46935355Y88585355D01*
X46941573Y88577779D01*
X46946194Y88569134D01*
X46949039Y88559755D01*
X46950000Y88550000D01*
X46950000Y88450000D01*
X46949039Y88440245D01*
X46946194Y88430866D01*
X46941573Y88422221D01*
X46935355Y88414645D01*
X46927779Y88408427D01*
X46919134Y88403806D01*
X46909755Y88400961D01*
X46900000Y88400000D01*
X46200000Y88400000D01*
X46190245Y88400961D01*
G37*
%TD*%
D13*
%TO.C,R1*%
X46800000Y91675000D03*
X46800000Y93325000D03*
%TD*%
%TO.C,R2*%
X48800000Y86625000D03*
X48800000Y84975000D03*
%TD*%
D11*
%TO.C,R7*%
X41425000Y87800000D03*
X39775000Y87800000D03*
%TD*%
D13*
%TO.C,R8*%
X38100000Y90125000D03*
X38100000Y88475000D03*
%TD*%
D11*
%TO.C,R11*%
X46225000Y90600000D03*
X44575000Y90600000D03*
%TD*%
D30*
%TO.C,R13*%
X55800000Y87875000D03*
X55800000Y88925000D03*
%TD*%
D17*
%TO.C,R32*%
X66025000Y92250000D03*
X64975000Y92250000D03*
%TD*%
D30*
%TO.C,R33*%
X66000000Y88425000D03*
X66000000Y87375000D03*
%TD*%
%TO.C,R34*%
X61500000Y90675000D03*
X61500000Y91725000D03*
%TD*%
D17*
%TO.C,R35*%
X63875000Y88200000D03*
X64925000Y88200000D03*
%TD*%
D30*
%TO.C,R36*%
X59200000Y85275000D03*
X59200000Y86325000D03*
%TD*%
%TO.C,R37*%
X63750000Y91025000D03*
X63750000Y89975000D03*
%TD*%
D17*
%TO.C,R38*%
X60175000Y88900000D03*
X61225000Y88900000D03*
%TD*%
D13*
%TO.C,R12*%
X52000000Y85575000D03*
X52000000Y87225000D03*
%TD*%
D17*
%TO.C,R15*%
X69025000Y92750000D03*
X67975000Y92750000D03*
%TD*%
D16*
%TO.C,D22*%
X61250000Y84850000D03*
X61250000Y86650000D03*
%TD*%
D15*
%TO.C,Q22*%
X59700000Y91650000D03*
X60200000Y91650000D03*
X60700000Y91650000D03*
X60700000Y90150000D03*
X60200000Y90150000D03*
X59700000Y90150000D03*
%TD*%
D14*
%TO.C,Q13*%
X57250000Y86900000D03*
X57250000Y86400000D03*
X57250000Y85900000D03*
X55750000Y85900000D03*
X55750000Y86400000D03*
X55750000Y86900000D03*
%TD*%
D15*
%TO.C,Q14*%
X41400000Y89350000D03*
X40900000Y89350000D03*
X40400000Y89350000D03*
X40400000Y90850000D03*
X40900000Y90850000D03*
X41400000Y90850000D03*
%TD*%
D14*
%TO.C,Q3*%
X35250000Y89500000D03*
X35250000Y89000000D03*
X35250000Y88500000D03*
X33750000Y88500000D03*
X33750000Y89000000D03*
X33750000Y89500000D03*
%TD*%
D12*
%TO.C,Q12*%
X24600000Y87250000D03*
X25900000Y87250000D03*
X25250000Y85350000D03*
%TD*%
M02*
