G04 #@! TF.GenerationSoftware,KiCad,Pcbnew,9.0.8*
G04 #@! TF.CreationDate,2026-09-27T01:38:59+09:00*
G04 #@! TF.ProjectId,motordecoder2-k3066v4-p,6d6f746f-7264-4656-936f-646572322d6b,rev?*
G04 #@! TF.SameCoordinates,Original*
G04 #@! TF.FileFunction,Profile,NP*
%FSLAX46Y46*%
G04 Gerber Fmt 4.6, Leading zero omitted, Abs format (unit mm)*
G04 Created by KiCad (PCBNEW 9.0.8) date 2026-09-27 01:38:59*
%MOMM*%
%LPD*%
G01*
G04 APERTURE LIST*
G04 #@! TA.AperFunction,Profile*
%ADD10C,0.100000*%
G04 #@! TD*
G04 #@! TA.AperFunction,Profile*
%ADD11C,0.150000*%
G04 #@! TD*
%ADD12C,0.150000*%
G04 APERTURE END LIST*
D10*
X160000000Y-102750000D02*
X160000000Y-101000000D01*
X160000000Y-107750000D02*
X160000000Y-109500000D01*
X176250000Y-103000000D02*
X160250000Y-103000000D01*
X141000000Y-132750000D02*
X141000000Y-134500000D01*
X188000000Y-122000000D02*
G75*
G02*
X189000000Y-123000000I0J-1000000D01*
G01*
X160000000Y-132750000D02*
X160000000Y-134500000D01*
X187000000Y-113500000D02*
X188000000Y-113500000D01*
X137500000Y-57750000D02*
X137500000Y-59500000D01*
X137500000Y-97000000D02*
X127000000Y-97000000D01*
X147000000Y-102750000D02*
G75*
G02*
X146750000Y-103000000I-250000J0D01*
G01*
X159500000Y-50250000D02*
X159500000Y-50000000D01*
X125000000Y-123000000D02*
G75*
G02*
X126000000Y-122000000I1000000J0D01*
G01*
X176250000Y-107500000D02*
G75*
G02*
X176500000Y-107750000I0J-250000D01*
G01*
X189000000Y-50000000D02*
X194000000Y-50000000D01*
X176250000Y-120000000D02*
X160250000Y-120000000D01*
X137500000Y-95250000D02*
G75*
G02*
X137750000Y-95000000I250000J0D01*
G01*
X137500000Y-72000000D02*
X127000000Y-72000000D01*
X125000000Y-98000000D02*
G75*
G02*
X126000000Y-97000000I1000000J0D01*
G01*
X137750000Y-78000000D02*
X153750000Y-78000000D01*
X147000000Y-110500000D02*
X148500000Y-110500000D01*
X189000000Y-62500000D02*
G75*
G02*
X188000000Y-63500000I-1000000J0D01*
G01*
X154250000Y-122500000D02*
G75*
G02*
X154500000Y-122750000I0J-250000D01*
G01*
X165500000Y-62750000D02*
X165500000Y-62500000D01*
X141250000Y-140500000D02*
G75*
G02*
X141000000Y-140250000I0J250000D01*
G01*
X187000000Y-97000000D02*
X173000000Y-97000000D01*
X120000000Y-100000000D02*
X120000000Y-112500000D01*
X167000000Y-60500000D02*
X165500000Y-60500000D01*
X154000000Y-77750000D02*
X154000000Y-76000000D01*
X154000000Y-98000000D02*
X154000000Y-97000000D01*
X125000000Y-85500000D02*
X125000000Y-87500000D01*
X154000000Y-95250000D02*
X154000000Y-97000000D01*
X187000000Y-109500000D02*
X188000000Y-109500000D01*
X154500000Y-125250000D02*
G75*
G02*
X154250000Y-125500000I-250000J0D01*
G01*
X176500000Y-109500000D02*
X187000000Y-109500000D01*
X159500000Y-50000000D02*
X154000000Y-50000000D01*
X187000000Y-126000000D02*
X188000000Y-126000000D01*
X159500000Y-97750000D02*
X159500000Y-98000000D01*
X187000000Y-59500000D02*
X173000000Y-59500000D01*
X148750000Y-100500000D02*
G75*
G02*
X148500000Y-100250000I0J250000D01*
G01*
X176500000Y-127750000D02*
G75*
G02*
X176250000Y-128000000I-250000J0D01*
G01*
X176250000Y-145000000D02*
X160250000Y-145000000D01*
X127000000Y-126000000D02*
X141000000Y-126000000D01*
X167000000Y-98000000D02*
X165500000Y-98000000D01*
D11*
X127000000Y-49250000D02*
X127000000Y-149750000D01*
D10*
X137750000Y-95000000D02*
X153750000Y-95000000D01*
X127000000Y-109500000D02*
X141000000Y-109500000D01*
X160250000Y-140500000D02*
G75*
G02*
X160000000Y-140250000I0J250000D01*
G01*
X187000000Y-76000000D02*
X173000000Y-76000000D01*
X148750000Y-100500000D02*
X154250000Y-100500000D01*
X160000000Y-120250000D02*
G75*
G02*
X160250000Y-120000000I250000J0D01*
G01*
X176250000Y-115500000D02*
X160250000Y-115500000D01*
X127000000Y-126000000D02*
X126000000Y-126000000D01*
X120000000Y-62500000D02*
X120000000Y-75000000D01*
X188000000Y-97000000D02*
G75*
G02*
X189000000Y-98000000I0J-1000000D01*
G01*
X167000000Y-87500000D02*
X165500000Y-87500000D01*
X189000000Y-137500000D02*
G75*
G02*
X188000000Y-138500000I-1000000J0D01*
G01*
X141250000Y-145000000D02*
X146750000Y-145000000D01*
X147000000Y-123000000D02*
X148500000Y-123000000D01*
X160000000Y-132750000D02*
G75*
G02*
X160250000Y-132500000I250000J0D01*
G01*
X148500000Y-125250000D02*
X148500000Y-125000000D01*
X165250000Y-60000000D02*
X159750000Y-60000000D01*
X194000000Y-75000000D02*
X194000000Y-87500000D01*
X127000000Y-63500000D02*
X126000000Y-63500000D01*
X189000000Y-100000000D02*
G75*
G02*
X188000000Y-101000000I-1000000J0D01*
G01*
X137750000Y-53000000D02*
G75*
G02*
X137500000Y-52750000I0J250000D01*
G01*
X127000000Y-113500000D02*
X141000000Y-113500000D01*
X148500000Y-147750000D02*
X148500000Y-148000000D01*
X141000000Y-120250000D02*
X141000000Y-122000000D01*
X127000000Y-147000000D02*
X141000000Y-147000000D01*
X154500000Y-147750000D02*
X154500000Y-148000000D01*
X176500000Y-134500000D02*
X187000000Y-134500000D01*
X154000000Y-50000000D02*
X154000000Y-51000000D01*
X137500000Y-77750000D02*
X137500000Y-76000000D01*
X127000000Y-147000000D02*
X126000000Y-147000000D01*
X187000000Y-134500000D02*
X188000000Y-134500000D01*
X176500000Y-120250000D02*
X176500000Y-122000000D01*
X126000000Y-51000000D02*
G75*
G02*
X125000000Y-50000000I0J1000000D01*
G01*
X187000000Y-63500000D02*
X173000000Y-63500000D01*
X167000000Y-50000000D02*
X165500000Y-50000000D01*
X194000000Y-50000000D02*
X194000000Y-62500000D01*
X187000000Y-97000000D02*
X188000000Y-97000000D01*
X147000000Y-125000000D02*
X148500000Y-125000000D01*
X188000000Y-134500000D02*
G75*
G02*
X189000000Y-135500000I0J-1000000D01*
G01*
X148750000Y-113000000D02*
G75*
G02*
X148500000Y-112750000I0J250000D01*
G01*
X154000000Y-65250000D02*
G75*
G02*
X153750000Y-65500000I-250000J0D01*
G01*
X160000000Y-115250000D02*
X160000000Y-113500000D01*
X148750000Y-125500000D02*
G75*
G02*
X148500000Y-125250000I0J250000D01*
G01*
X127000000Y-72000000D02*
X126000000Y-72000000D01*
X154000000Y-85500000D02*
X154000000Y-84500000D01*
X159500000Y-87500000D02*
X154000000Y-87500000D01*
X120000000Y-137500000D02*
X120000000Y-148000000D01*
X188000000Y-72000000D02*
G75*
G02*
X189000000Y-73000000I0J-1000000D01*
G01*
X165250000Y-50500000D02*
X159750000Y-50500000D01*
X154500000Y-137500000D02*
X160000000Y-137500000D01*
X176250000Y-132500000D02*
X160250000Y-132500000D01*
X159500000Y-72750000D02*
X159500000Y-73000000D01*
X137500000Y-52750000D02*
X137500000Y-51000000D01*
X154000000Y-75000000D02*
X154000000Y-76000000D01*
X176250000Y-128000000D02*
X160250000Y-128000000D01*
X194000000Y-100000000D02*
X194000000Y-112500000D01*
X125000000Y-85500000D02*
G75*
G02*
X126000000Y-84500000I1000000J0D01*
G01*
X187000000Y-72000000D02*
X188000000Y-72000000D01*
X154000000Y-82750000D02*
X154000000Y-84500000D01*
X176250000Y-132500000D02*
G75*
G02*
X176500000Y-132750000I0J-250000D01*
G01*
X147000000Y-127750000D02*
X147000000Y-125000000D01*
X125000000Y-110500000D02*
G75*
G02*
X126000000Y-109500000I1000000J0D01*
G01*
X167000000Y-77750000D02*
X167000000Y-75000000D01*
X137500000Y-88500000D02*
X127000000Y-88500000D01*
X160250000Y-103000000D02*
G75*
G02*
X160000000Y-102750000I0J250000D01*
G01*
X141250000Y-103000000D02*
G75*
G02*
X141000000Y-102750000I0J250000D01*
G01*
X126000000Y-76000000D02*
G75*
G02*
X125000000Y-75000000I0J1000000D01*
G01*
X141000000Y-107750000D02*
X141000000Y-109500000D01*
X137500000Y-63500000D02*
X127000000Y-63500000D01*
X165250000Y-97500000D02*
G75*
G02*
X165500000Y-97750000I0J-250000D01*
G01*
X154000000Y-90250000D02*
G75*
G02*
X153750000Y-90500000I-250000J0D01*
G01*
X176500000Y-102750000D02*
G75*
G02*
X176250000Y-103000000I-250000J0D01*
G01*
X137750000Y-82500000D02*
X153750000Y-82500000D01*
X159500000Y-85250000D02*
X159500000Y-85500000D01*
X167000000Y-82750000D02*
G75*
G02*
X167250000Y-82500000I250000J0D01*
G01*
X154000000Y-65250000D02*
X154000000Y-63500000D01*
X154500000Y-125250000D02*
X154500000Y-125000000D01*
X176250000Y-107500000D02*
X160250000Y-107500000D01*
X147000000Y-100000000D02*
X148500000Y-100000000D01*
X154500000Y-110250000D02*
X154500000Y-110500000D01*
X148750000Y-138000000D02*
G75*
G02*
X148500000Y-137750000I0J250000D01*
G01*
X141250000Y-107500000D02*
X146750000Y-107500000D01*
X160250000Y-128000000D02*
G75*
G02*
X160000000Y-127750000I0J250000D01*
G01*
X120000000Y-75000000D02*
X120000000Y-87500000D01*
X167000000Y-75000000D02*
X165500000Y-75000000D01*
X125000000Y-98000000D02*
X125000000Y-100000000D01*
X173000000Y-59500000D02*
X173000000Y-57750000D01*
X137750000Y-53000000D02*
X153750000Y-53000000D01*
X148500000Y-112750000D02*
X148500000Y-112500000D01*
X125000000Y-135500000D02*
X125000000Y-137500000D01*
X160000000Y-123000000D02*
X160000000Y-122000000D01*
X137750000Y-70000000D02*
X153750000Y-70000000D01*
X147000000Y-120250000D02*
X147000000Y-123000000D01*
X160000000Y-145250000D02*
X160000000Y-147000000D01*
X160000000Y-148000000D02*
X160000000Y-147000000D01*
X148750000Y-110000000D02*
X154250000Y-110000000D01*
X153750000Y-82500000D02*
G75*
G02*
X154000000Y-82750000I0J-250000D01*
G01*
X127000000Y-59500000D02*
X126000000Y-59500000D01*
X187000000Y-84500000D02*
X173000000Y-84500000D01*
X167000000Y-73000000D02*
X165500000Y-73000000D01*
X127000000Y-51000000D02*
X126000000Y-51000000D01*
X127000000Y-138500000D02*
X126000000Y-138500000D01*
X165500000Y-50250000D02*
X165500000Y-50000000D01*
X165500000Y-75250000D02*
G75*
G02*
X165250000Y-75500000I-250000J0D01*
G01*
X165500000Y-97750000D02*
X165500000Y-98000000D01*
X176500000Y-115250000D02*
G75*
G02*
X176250000Y-115500000I-250000J0D01*
G01*
X127000000Y-138500000D02*
X141000000Y-138500000D01*
X137750000Y-90500000D02*
G75*
G02*
X137500000Y-90250000I0J250000D01*
G01*
X194000000Y-87500000D02*
X194000000Y-100000000D01*
X127000000Y-122000000D02*
X141000000Y-122000000D01*
X154000000Y-52750000D02*
G75*
G02*
X153750000Y-53000000I-250000J0D01*
G01*
X189000000Y-75000000D02*
G75*
G02*
X188000000Y-76000000I-1000000J0D01*
G01*
X141000000Y-120250000D02*
G75*
G02*
X141250000Y-120000000I250000J0D01*
G01*
X194000000Y-125000000D02*
X194000000Y-137500000D01*
X147000000Y-148000000D02*
X148500000Y-148000000D01*
X176500000Y-140250000D02*
G75*
G02*
X176250000Y-140500000I-250000J0D01*
G01*
X189000000Y-148000000D02*
X194000000Y-148000000D01*
X153750000Y-95000000D02*
G75*
G02*
X154000000Y-95250000I0J-250000D01*
G01*
X154000000Y-62500000D02*
X154000000Y-63500000D01*
X160000000Y-107750000D02*
G75*
G02*
X160250000Y-107500000I250000J0D01*
G01*
X188000000Y-109500000D02*
G75*
G02*
X189000000Y-110500000I0J-1000000D01*
G01*
X148500000Y-110250000D02*
X148500000Y-110500000D01*
X159500000Y-60250000D02*
G75*
G02*
X159750000Y-60000000I250000J0D01*
G01*
X167000000Y-57750000D02*
X167000000Y-60500000D01*
X141250000Y-128000000D02*
G75*
G02*
X141000000Y-127750000I0J250000D01*
G01*
X137500000Y-82750000D02*
X137500000Y-84500000D01*
X137750000Y-90500000D02*
X153750000Y-90500000D01*
X165250000Y-97500000D02*
X159750000Y-97500000D01*
X173000000Y-52750000D02*
X173000000Y-51000000D01*
X159500000Y-60250000D02*
X159500000Y-60500000D01*
X125000000Y-50000000D02*
X120000000Y-50000000D01*
X187000000Y-51000000D02*
X188000000Y-51000000D01*
X173000000Y-65250000D02*
X173000000Y-63500000D01*
X159500000Y-72750000D02*
G75*
G02*
X159750000Y-72500000I250000J0D01*
G01*
X146750000Y-107500000D02*
G75*
G02*
X147000000Y-107750000I0J-250000D01*
G01*
X165500000Y-50250000D02*
G75*
G02*
X165250000Y-50500000I-250000J0D01*
G01*
X176500000Y-122000000D02*
X187000000Y-122000000D01*
X172750000Y-70000000D02*
X167250000Y-70000000D01*
X176500000Y-147000000D02*
X187000000Y-147000000D01*
X154500000Y-112750000D02*
G75*
G02*
X154250000Y-113000000I-250000J0D01*
G01*
X189000000Y-123000000D02*
X189000000Y-125000000D01*
X160000000Y-127750000D02*
X160000000Y-126000000D01*
X187000000Y-72000000D02*
X173000000Y-72000000D01*
X147000000Y-115250000D02*
G75*
G02*
X146750000Y-115500000I-250000J0D01*
G01*
X159500000Y-60500000D02*
X154000000Y-60500000D01*
X154000000Y-57750000D02*
X154000000Y-59500000D01*
X172750000Y-82500000D02*
G75*
G02*
X173000000Y-82750000I0J-250000D01*
G01*
X137500000Y-82750000D02*
G75*
G02*
X137750000Y-82500000I250000J0D01*
G01*
X159750000Y-63000000D02*
G75*
G02*
X159500000Y-62750000I0J250000D01*
G01*
X160000000Y-110500000D02*
X160000000Y-109500000D01*
X173000000Y-77750000D02*
G75*
G02*
X172750000Y-78000000I-250000J0D01*
G01*
X154500000Y-100250000D02*
G75*
G02*
X154250000Y-100500000I-250000J0D01*
G01*
X176500000Y-140250000D02*
X176500000Y-138500000D01*
X154000000Y-70250000D02*
X154000000Y-72000000D01*
X187000000Y-138500000D02*
X188000000Y-138500000D01*
X147000000Y-127750000D02*
G75*
G02*
X146750000Y-128000000I-250000J0D01*
G01*
X167250000Y-53000000D02*
G75*
G02*
X167000000Y-52750000I0J250000D01*
G01*
X173000000Y-72000000D02*
X173000000Y-70250000D01*
X173000000Y-90250000D02*
G75*
G02*
X172750000Y-90500000I-250000J0D01*
G01*
X141250000Y-103000000D02*
X146750000Y-103000000D01*
X165500000Y-72750000D02*
X165500000Y-73000000D01*
X147000000Y-135500000D02*
X148500000Y-135500000D01*
X159750000Y-88000000D02*
G75*
G02*
X159500000Y-87750000I0J250000D01*
G01*
X173000000Y-90250000D02*
X173000000Y-88500000D01*
X146750000Y-120000000D02*
G75*
G02*
X147000000Y-120250000I0J-250000D01*
G01*
X187000000Y-122000000D02*
X188000000Y-122000000D01*
D11*
X187000000Y-49250000D02*
X187000000Y-149750000D01*
D10*
X176250000Y-145000000D02*
G75*
G02*
X176500000Y-145250000I0J-250000D01*
G01*
X137500000Y-70250000D02*
X137500000Y-72000000D01*
X167000000Y-57750000D02*
G75*
G02*
X167250000Y-57500000I250000J0D01*
G01*
X167250000Y-65500000D02*
G75*
G02*
X167000000Y-65250000I0J250000D01*
G01*
X125000000Y-123000000D02*
X125000000Y-125000000D01*
X148500000Y-100250000D02*
X148500000Y-100000000D01*
X147000000Y-132750000D02*
X147000000Y-135500000D01*
X165500000Y-87750000D02*
G75*
G02*
X165250000Y-88000000I-250000J0D01*
G01*
X160000000Y-125000000D02*
X160000000Y-126000000D01*
X189000000Y-87500000D02*
G75*
G02*
X188000000Y-88500000I-1000000J0D01*
G01*
X141000000Y-107750000D02*
G75*
G02*
X141250000Y-107500000I250000J0D01*
G01*
X187000000Y-59500000D02*
X188000000Y-59500000D01*
X187000000Y-88500000D02*
X188000000Y-88500000D01*
X187000000Y-76000000D02*
X188000000Y-76000000D01*
X176500000Y-115250000D02*
X176500000Y-113500000D01*
X189000000Y-98000000D02*
X189000000Y-100000000D01*
X165250000Y-63000000D02*
X159750000Y-63000000D01*
X127000000Y-101000000D02*
X141000000Y-101000000D01*
X176500000Y-113500000D02*
X187000000Y-113500000D01*
X147000000Y-140250000D02*
X147000000Y-137500000D01*
X148500000Y-122750000D02*
G75*
G02*
X148750000Y-122500000I250000J0D01*
G01*
X154250000Y-147500000D02*
G75*
G02*
X154500000Y-147750000I0J-250000D01*
G01*
X176500000Y-145250000D02*
X176500000Y-147000000D01*
X141250000Y-120000000D02*
X146750000Y-120000000D01*
X189000000Y-135500000D02*
X189000000Y-137500000D01*
X141250000Y-115500000D02*
G75*
G02*
X141000000Y-115250000I0J250000D01*
G01*
X137500000Y-90250000D02*
X137500000Y-88500000D01*
X160000000Y-137500000D02*
X160000000Y-138500000D01*
X176500000Y-107750000D02*
X176500000Y-109500000D01*
X141250000Y-132500000D02*
X146750000Y-132500000D01*
X120000000Y-125000000D02*
X120000000Y-137500000D01*
X160000000Y-135500000D02*
X160000000Y-134500000D01*
X160000000Y-140250000D02*
X160000000Y-138500000D01*
X188000000Y-84500000D02*
G75*
G02*
X189000000Y-85500000I0J-1000000D01*
G01*
X126000000Y-113500000D02*
G75*
G02*
X125000000Y-112500000I0J1000000D01*
G01*
X165500000Y-75250000D02*
X165500000Y-75000000D01*
X194000000Y-112500000D02*
X194000000Y-125000000D01*
X167000000Y-70250000D02*
G75*
G02*
X167250000Y-70000000I250000J0D01*
G01*
X148500000Y-135250000D02*
X148500000Y-135500000D01*
X125000000Y-73000000D02*
G75*
G02*
X126000000Y-72000000I1000000J0D01*
G01*
X165500000Y-60250000D02*
X165500000Y-60500000D01*
X159750000Y-75500000D02*
G75*
G02*
X159500000Y-75250000I0J250000D01*
G01*
X146750000Y-145000000D02*
G75*
G02*
X147000000Y-145250000I0J-250000D01*
G01*
X176500000Y-132750000D02*
X176500000Y-134500000D01*
X125000000Y-135500000D02*
G75*
G02*
X126000000Y-134500000I1000000J0D01*
G01*
X165250000Y-60000000D02*
G75*
G02*
X165500000Y-60250000I0J-250000D01*
G01*
X173000000Y-65250000D02*
G75*
G02*
X172750000Y-65500000I-250000J0D01*
G01*
X147000000Y-145250000D02*
X147000000Y-148000000D01*
X173000000Y-84500000D02*
X173000000Y-82750000D01*
X127000000Y-113500000D02*
X126000000Y-113500000D01*
X147000000Y-107750000D02*
X147000000Y-110500000D01*
X153750000Y-57500000D02*
G75*
G02*
X154000000Y-57750000I0J-250000D01*
G01*
X176250000Y-140500000D02*
X160250000Y-140500000D01*
X159500000Y-62500000D02*
X154000000Y-62500000D01*
X159500000Y-98000000D02*
X154000000Y-98000000D01*
X141000000Y-145250000D02*
G75*
G02*
X141250000Y-145000000I250000J0D01*
G01*
X154500000Y-100250000D02*
X154500000Y-100000000D01*
X127000000Y-109500000D02*
X126000000Y-109500000D01*
X141000000Y-138500000D02*
X141000000Y-140250000D01*
X159500000Y-75000000D02*
X154000000Y-75000000D01*
X141250000Y-140500000D02*
X146750000Y-140500000D01*
X167000000Y-65250000D02*
X167000000Y-62500000D01*
D11*
X117750000Y-99000000D02*
X200000000Y-99000000D01*
D10*
X141000000Y-145250000D02*
X141000000Y-147000000D01*
X137500000Y-51000000D02*
X127000000Y-51000000D01*
X147000000Y-140250000D02*
G75*
G02*
X146750000Y-140500000I-250000J0D01*
G01*
X127000000Y-134500000D02*
X126000000Y-134500000D01*
X137500000Y-70250000D02*
G75*
G02*
X137750000Y-70000000I250000J0D01*
G01*
X189000000Y-73000000D02*
X189000000Y-75000000D01*
X167250000Y-90500000D02*
G75*
G02*
X167000000Y-90250000I0J250000D01*
G01*
X172750000Y-95000000D02*
G75*
G02*
X173000000Y-95250000I0J-250000D01*
G01*
X176500000Y-101000000D02*
X187000000Y-101000000D01*
X176500000Y-102750000D02*
X176500000Y-101000000D01*
X154500000Y-123000000D02*
X160000000Y-123000000D01*
X154000000Y-87500000D02*
X154000000Y-88500000D01*
X187000000Y-63500000D02*
X188000000Y-63500000D01*
X154500000Y-100000000D02*
X160000000Y-100000000D01*
X172750000Y-65500000D02*
X167250000Y-65500000D01*
X141250000Y-128000000D02*
X146750000Y-128000000D01*
X137500000Y-84500000D02*
X127000000Y-84500000D01*
X154500000Y-110500000D02*
X160000000Y-110500000D01*
X159500000Y-87750000D02*
X159500000Y-87500000D01*
X127000000Y-97000000D02*
X126000000Y-97000000D01*
X137500000Y-65250000D02*
X137500000Y-63500000D01*
X141000000Y-113500000D02*
X141000000Y-115250000D01*
X165250000Y-85000000D02*
X159750000Y-85000000D01*
X154000000Y-73000000D02*
X154000000Y-72000000D01*
X147000000Y-115250000D02*
X147000000Y-112500000D01*
X148750000Y-147500000D02*
X154250000Y-147500000D01*
X165250000Y-72500000D02*
G75*
G02*
X165500000Y-72750000I0J-250000D01*
G01*
X159750000Y-50500000D02*
G75*
G02*
X159500000Y-50250000I0J250000D01*
G01*
X125000000Y-60500000D02*
G75*
G02*
X126000000Y-59500000I1000000J0D01*
G01*
X188000000Y-59500000D02*
G75*
G02*
X189000000Y-60500000I0J-1000000D01*
G01*
X120000000Y-87500000D02*
X120000000Y-100000000D01*
X160000000Y-145250000D02*
G75*
G02*
X160250000Y-145000000I250000J0D01*
G01*
X167000000Y-52750000D02*
X167000000Y-50000000D01*
X165250000Y-72500000D02*
X159750000Y-72500000D01*
X154500000Y-148000000D02*
X160000000Y-148000000D01*
X187000000Y-51000000D02*
X173000000Y-51000000D01*
X154500000Y-125000000D02*
X160000000Y-125000000D01*
X153750000Y-70000000D02*
G75*
G02*
X154000000Y-70250000I0J-250000D01*
G01*
X154250000Y-135000000D02*
G75*
G02*
X154500000Y-135250000I0J-250000D01*
G01*
X165250000Y-88000000D02*
X159750000Y-88000000D01*
X159500000Y-75250000D02*
X159500000Y-75000000D01*
X176500000Y-127750000D02*
X176500000Y-126000000D01*
X137750000Y-65500000D02*
X153750000Y-65500000D01*
X154250000Y-110000000D02*
G75*
G02*
X154500000Y-110250000I0J-250000D01*
G01*
X148750000Y-138000000D02*
X154250000Y-138000000D01*
X172750000Y-70000000D02*
G75*
G02*
X173000000Y-70250000I0J-250000D01*
G01*
X126000000Y-63500000D02*
G75*
G02*
X125000000Y-62500000I0J1000000D01*
G01*
X147000000Y-112500000D02*
X148500000Y-112500000D01*
X154500000Y-137750000D02*
X154500000Y-137500000D01*
X154500000Y-112750000D02*
X154500000Y-112500000D01*
X167250000Y-78000000D02*
G75*
G02*
X167000000Y-77750000I0J250000D01*
G01*
X173000000Y-97000000D02*
X173000000Y-95250000D01*
X173000000Y-77750000D02*
X173000000Y-76000000D01*
X148500000Y-137750000D02*
X148500000Y-137500000D01*
X189000000Y-110500000D02*
X189000000Y-112500000D01*
X159500000Y-85500000D02*
X154000000Y-85500000D01*
X165500000Y-85250000D02*
X165500000Y-85500000D01*
X167000000Y-82750000D02*
X167000000Y-85500000D01*
X137500000Y-95250000D02*
X137500000Y-97000000D01*
X126000000Y-138500000D02*
G75*
G02*
X125000000Y-137500000I0J1000000D01*
G01*
X159500000Y-97750000D02*
G75*
G02*
X159750000Y-97500000I250000J0D01*
G01*
X148750000Y-135000000D02*
X154250000Y-135000000D01*
X194000000Y-137500000D02*
X194000000Y-148000000D01*
X154000000Y-77750000D02*
G75*
G02*
X153750000Y-78000000I-250000J0D01*
G01*
X189000000Y-50000000D02*
G75*
G02*
X188000000Y-51000000I-1000000J0D01*
G01*
X165250000Y-85000000D02*
G75*
G02*
X165500000Y-85250000I0J-250000D01*
G01*
X172750000Y-82500000D02*
X167250000Y-82500000D01*
X148750000Y-125500000D02*
X154250000Y-125500000D01*
X167000000Y-70250000D02*
X167000000Y-73000000D01*
X167000000Y-95250000D02*
X167000000Y-98000000D01*
X167000000Y-95250000D02*
G75*
G02*
X167250000Y-95000000I250000J0D01*
G01*
X187000000Y-84500000D02*
X188000000Y-84500000D01*
X189000000Y-85500000D02*
X189000000Y-87500000D01*
X187000000Y-101000000D02*
X188000000Y-101000000D01*
X154500000Y-112500000D02*
X160000000Y-112500000D01*
X148500000Y-110250000D02*
G75*
G02*
X148750000Y-110000000I250000J0D01*
G01*
X165500000Y-62750000D02*
G75*
G02*
X165250000Y-63000000I-250000J0D01*
G01*
X148750000Y-113000000D02*
X154250000Y-113000000D01*
X160000000Y-100000000D02*
X160000000Y-101000000D01*
X137500000Y-57750000D02*
G75*
G02*
X137750000Y-57500000I250000J0D01*
G01*
X126000000Y-101000000D02*
G75*
G02*
X125000000Y-100000000I0J1000000D01*
G01*
X127000000Y-88500000D02*
X126000000Y-88500000D01*
X137750000Y-57500000D02*
X153750000Y-57500000D01*
X176500000Y-126000000D02*
X187000000Y-126000000D01*
X141000000Y-101000000D02*
X141000000Y-102750000D01*
X194000000Y-62500000D02*
X194000000Y-75000000D01*
X159500000Y-85250000D02*
G75*
G02*
X159750000Y-85000000I250000J0D01*
G01*
X189000000Y-60500000D02*
X189000000Y-62500000D01*
X176500000Y-138500000D02*
X187000000Y-138500000D01*
X125000000Y-60500000D02*
X125000000Y-62500000D01*
X125000000Y-148000000D02*
X120000000Y-148000000D01*
X141250000Y-115500000D02*
X146750000Y-115500000D01*
X148500000Y-147750000D02*
G75*
G02*
X148750000Y-147500000I250000J0D01*
G01*
X127000000Y-84500000D02*
X126000000Y-84500000D01*
X187000000Y-147000000D02*
X188000000Y-147000000D01*
X154500000Y-137750000D02*
G75*
G02*
X154250000Y-138000000I-250000J0D01*
G01*
X154000000Y-52750000D02*
X154000000Y-51000000D01*
X172750000Y-90500000D02*
X167250000Y-90500000D01*
X127000000Y-101000000D02*
X126000000Y-101000000D01*
X125000000Y-110500000D02*
X125000000Y-112500000D01*
X137500000Y-59500000D02*
X127000000Y-59500000D01*
X120000000Y-112500000D02*
X120000000Y-125000000D01*
X172750000Y-78000000D02*
X167250000Y-78000000D01*
X160000000Y-112500000D02*
X160000000Y-113500000D01*
X148500000Y-122750000D02*
X148500000Y-123000000D01*
X141000000Y-132750000D02*
G75*
G02*
X141250000Y-132500000I250000J0D01*
G01*
X189000000Y-112500000D02*
G75*
G02*
X188000000Y-113500000I-1000000J0D01*
G01*
X154000000Y-60500000D02*
X154000000Y-59500000D01*
X172750000Y-95000000D02*
X167250000Y-95000000D01*
X165500000Y-87750000D02*
X165500000Y-87500000D01*
X189000000Y-125000000D02*
G75*
G02*
X188000000Y-126000000I-1000000J0D01*
G01*
X165250000Y-75500000D02*
X159750000Y-75500000D01*
X167000000Y-85500000D02*
X165500000Y-85500000D01*
X125000000Y-73000000D02*
X125000000Y-75000000D01*
X167000000Y-62500000D02*
X165500000Y-62500000D01*
X167000000Y-90250000D02*
X167000000Y-87500000D01*
X120000000Y-50000000D02*
X120000000Y-62500000D01*
X160000000Y-120250000D02*
X160000000Y-122000000D01*
X148500000Y-135250000D02*
G75*
G02*
X148750000Y-135000000I250000J0D01*
G01*
X172750000Y-57500000D02*
X167250000Y-57500000D01*
X126000000Y-126000000D02*
G75*
G02*
X125000000Y-125000000I0J1000000D01*
G01*
X159500000Y-62750000D02*
X159500000Y-62500000D01*
X125000000Y-148000000D02*
G75*
G02*
X126000000Y-147000000I1000000J0D01*
G01*
X127000000Y-76000000D02*
X126000000Y-76000000D01*
X172750000Y-57500000D02*
G75*
G02*
X173000000Y-57750000I0J-250000D01*
G01*
X154500000Y-122750000D02*
X154500000Y-123000000D01*
X137750000Y-78000000D02*
G75*
G02*
X137500000Y-77750000I0J250000D01*
G01*
X127000000Y-134500000D02*
X141000000Y-134500000D01*
X154000000Y-90250000D02*
X154000000Y-88500000D01*
X137750000Y-65500000D02*
G75*
G02*
X137500000Y-65250000I0J250000D01*
G01*
X159500000Y-73000000D02*
X154000000Y-73000000D01*
X147000000Y-102750000D02*
X147000000Y-100000000D01*
X188000000Y-147000000D02*
G75*
G02*
X189000000Y-148000000I0J-1000000D01*
G01*
X160250000Y-115500000D02*
G75*
G02*
X160000000Y-115250000I0J250000D01*
G01*
X141000000Y-126000000D02*
X141000000Y-127750000D01*
X154500000Y-135500000D02*
X160000000Y-135500000D01*
X187000000Y-88500000D02*
X173000000Y-88500000D01*
X154500000Y-135250000D02*
X154500000Y-135500000D01*
X172750000Y-53000000D02*
X167250000Y-53000000D01*
X126000000Y-88500000D02*
G75*
G02*
X125000000Y-87500000I0J1000000D01*
G01*
X137500000Y-76000000D02*
X127000000Y-76000000D01*
X127000000Y-122000000D02*
X126000000Y-122000000D01*
X146750000Y-132500000D02*
G75*
G02*
X147000000Y-132750000I0J-250000D01*
G01*
X176250000Y-120000000D02*
G75*
G02*
X176500000Y-120250000I0J-250000D01*
G01*
X148750000Y-122500000D02*
X154250000Y-122500000D01*
X173000000Y-52750000D02*
G75*
G02*
X172750000Y-53000000I-250000J0D01*
G01*
X147000000Y-137500000D02*
X148500000Y-137500000D01*
D12*
X126788152Y-47401316D02*
X127073866Y-48163220D01*
X127073866Y-48163220D02*
X127359580Y-47401316D01*
X127073866Y-46925125D02*
X127073866Y-46163221D01*
X126454819Y-45067982D02*
X127454819Y-44734649D01*
X127454819Y-44734649D02*
X126454819Y-44401316D01*
X127073866Y-44067982D02*
X127073866Y-43306078D01*
X127359580Y-42258459D02*
X127407200Y-42306078D01*
X127407200Y-42306078D02*
X127454819Y-42448935D01*
X127454819Y-42448935D02*
X127454819Y-42544173D01*
X127454819Y-42544173D02*
X127407200Y-42687030D01*
X127407200Y-42687030D02*
X127311961Y-42782268D01*
X127311961Y-42782268D02*
X127216723Y-42829887D01*
X127216723Y-42829887D02*
X127026247Y-42877506D01*
X127026247Y-42877506D02*
X126883390Y-42877506D01*
X126883390Y-42877506D02*
X126692914Y-42829887D01*
X126692914Y-42829887D02*
X126597676Y-42782268D01*
X126597676Y-42782268D02*
X126502438Y-42687030D01*
X126502438Y-42687030D02*
X126454819Y-42544173D01*
X126454819Y-42544173D02*
X126454819Y-42448935D01*
X126454819Y-42448935D02*
X126502438Y-42306078D01*
X126502438Y-42306078D02*
X126550057Y-42258459D01*
X126454819Y-41829887D02*
X127264342Y-41829887D01*
X127264342Y-41829887D02*
X127359580Y-41782268D01*
X127359580Y-41782268D02*
X127407200Y-41734649D01*
X127407200Y-41734649D02*
X127454819Y-41639411D01*
X127454819Y-41639411D02*
X127454819Y-41448935D01*
X127454819Y-41448935D02*
X127407200Y-41353697D01*
X127407200Y-41353697D02*
X127359580Y-41306078D01*
X127359580Y-41306078D02*
X127264342Y-41258459D01*
X127264342Y-41258459D02*
X126454819Y-41258459D01*
X126454819Y-40925125D02*
X126454819Y-40353697D01*
X127454819Y-40639411D02*
X126454819Y-40639411D01*
X127211847Y-151598684D02*
X126926133Y-150836779D01*
X126926133Y-150836779D02*
X126640419Y-151598684D01*
X126926133Y-152074874D02*
X126926133Y-152836779D01*
X127545180Y-153932017D02*
X126545180Y-154265350D01*
X126545180Y-154265350D02*
X127545180Y-154598683D01*
X126926133Y-154932017D02*
X126926133Y-155693922D01*
X126640419Y-156741540D02*
X126592800Y-156693921D01*
X126592800Y-156693921D02*
X126545180Y-156551064D01*
X126545180Y-156551064D02*
X126545180Y-156455826D01*
X126545180Y-156455826D02*
X126592800Y-156312969D01*
X126592800Y-156312969D02*
X126688038Y-156217731D01*
X126688038Y-156217731D02*
X126783276Y-156170112D01*
X126783276Y-156170112D02*
X126973752Y-156122493D01*
X126973752Y-156122493D02*
X127116609Y-156122493D01*
X127116609Y-156122493D02*
X127307085Y-156170112D01*
X127307085Y-156170112D02*
X127402323Y-156217731D01*
X127402323Y-156217731D02*
X127497561Y-156312969D01*
X127497561Y-156312969D02*
X127545180Y-156455826D01*
X127545180Y-156455826D02*
X127545180Y-156551064D01*
X127545180Y-156551064D02*
X127497561Y-156693921D01*
X127497561Y-156693921D02*
X127449942Y-156741540D01*
X127545180Y-157170112D02*
X126735657Y-157170112D01*
X126735657Y-157170112D02*
X126640419Y-157217731D01*
X126640419Y-157217731D02*
X126592800Y-157265350D01*
X126592800Y-157265350D02*
X126545180Y-157360588D01*
X126545180Y-157360588D02*
X126545180Y-157551064D01*
X126545180Y-157551064D02*
X126592800Y-157646302D01*
X126592800Y-157646302D02*
X126640419Y-157693921D01*
X126640419Y-157693921D02*
X126735657Y-157741540D01*
X126735657Y-157741540D02*
X127545180Y-157741540D01*
X127545180Y-158074874D02*
X127545180Y-158646302D01*
X126545180Y-158360588D02*
X127545180Y-158360588D01*
X201848684Y-98788152D02*
X201086779Y-99073866D01*
X201086779Y-99073866D02*
X201848684Y-99359580D01*
X202324874Y-99073866D02*
X203086779Y-99073866D01*
X204182017Y-98454819D02*
X204515350Y-99454819D01*
X204515350Y-99454819D02*
X204848683Y-98454819D01*
X205182017Y-99073866D02*
X205943922Y-99073866D01*
X206991540Y-99359580D02*
X206943921Y-99407200D01*
X206943921Y-99407200D02*
X206801064Y-99454819D01*
X206801064Y-99454819D02*
X206705826Y-99454819D01*
X206705826Y-99454819D02*
X206562969Y-99407200D01*
X206562969Y-99407200D02*
X206467731Y-99311961D01*
X206467731Y-99311961D02*
X206420112Y-99216723D01*
X206420112Y-99216723D02*
X206372493Y-99026247D01*
X206372493Y-99026247D02*
X206372493Y-98883390D01*
X206372493Y-98883390D02*
X206420112Y-98692914D01*
X206420112Y-98692914D02*
X206467731Y-98597676D01*
X206467731Y-98597676D02*
X206562969Y-98502438D01*
X206562969Y-98502438D02*
X206705826Y-98454819D01*
X206705826Y-98454819D02*
X206801064Y-98454819D01*
X206801064Y-98454819D02*
X206943921Y-98502438D01*
X206943921Y-98502438D02*
X206991540Y-98550057D01*
X207420112Y-98454819D02*
X207420112Y-99264342D01*
X207420112Y-99264342D02*
X207467731Y-99359580D01*
X207467731Y-99359580D02*
X207515350Y-99407200D01*
X207515350Y-99407200D02*
X207610588Y-99454819D01*
X207610588Y-99454819D02*
X207801064Y-99454819D01*
X207801064Y-99454819D02*
X207896302Y-99407200D01*
X207896302Y-99407200D02*
X207943921Y-99359580D01*
X207943921Y-99359580D02*
X207991540Y-99264342D01*
X207991540Y-99264342D02*
X207991540Y-98454819D01*
X208324874Y-98454819D02*
X208896302Y-98454819D01*
X208610588Y-99454819D02*
X208610588Y-98454819D01*
X187211847Y-151598684D02*
X186926133Y-150836779D01*
X186926133Y-150836779D02*
X186640419Y-151598684D01*
X186926133Y-152074874D02*
X186926133Y-152836779D01*
X187545180Y-153932017D02*
X186545180Y-154265350D01*
X186545180Y-154265350D02*
X187545180Y-154598683D01*
X186926133Y-154932017D02*
X186926133Y-155693922D01*
X186640419Y-156741540D02*
X186592800Y-156693921D01*
X186592800Y-156693921D02*
X186545180Y-156551064D01*
X186545180Y-156551064D02*
X186545180Y-156455826D01*
X186545180Y-156455826D02*
X186592800Y-156312969D01*
X186592800Y-156312969D02*
X186688038Y-156217731D01*
X186688038Y-156217731D02*
X186783276Y-156170112D01*
X186783276Y-156170112D02*
X186973752Y-156122493D01*
X186973752Y-156122493D02*
X187116609Y-156122493D01*
X187116609Y-156122493D02*
X187307085Y-156170112D01*
X187307085Y-156170112D02*
X187402323Y-156217731D01*
X187402323Y-156217731D02*
X187497561Y-156312969D01*
X187497561Y-156312969D02*
X187545180Y-156455826D01*
X187545180Y-156455826D02*
X187545180Y-156551064D01*
X187545180Y-156551064D02*
X187497561Y-156693921D01*
X187497561Y-156693921D02*
X187449942Y-156741540D01*
X187545180Y-157170112D02*
X186735657Y-157170112D01*
X186735657Y-157170112D02*
X186640419Y-157217731D01*
X186640419Y-157217731D02*
X186592800Y-157265350D01*
X186592800Y-157265350D02*
X186545180Y-157360588D01*
X186545180Y-157360588D02*
X186545180Y-157551064D01*
X186545180Y-157551064D02*
X186592800Y-157646302D01*
X186592800Y-157646302D02*
X186640419Y-157693921D01*
X186640419Y-157693921D02*
X186735657Y-157741540D01*
X186735657Y-157741540D02*
X187545180Y-157741540D01*
X187545180Y-158074874D02*
X187545180Y-158646302D01*
X186545180Y-158360588D02*
X187545180Y-158360588D01*
X115651316Y-99211847D02*
X116413220Y-98926133D01*
X116413220Y-98926133D02*
X115651316Y-98640419D01*
X115175125Y-98926133D02*
X114413221Y-98926133D01*
X113317982Y-99545180D02*
X112984649Y-98545180D01*
X112984649Y-98545180D02*
X112651316Y-99545180D01*
X112317982Y-98926133D02*
X111556078Y-98926133D01*
X110508459Y-98640419D02*
X110556078Y-98592800D01*
X110556078Y-98592800D02*
X110698935Y-98545180D01*
X110698935Y-98545180D02*
X110794173Y-98545180D01*
X110794173Y-98545180D02*
X110937030Y-98592800D01*
X110937030Y-98592800D02*
X111032268Y-98688038D01*
X111032268Y-98688038D02*
X111079887Y-98783276D01*
X111079887Y-98783276D02*
X111127506Y-98973752D01*
X111127506Y-98973752D02*
X111127506Y-99116609D01*
X111127506Y-99116609D02*
X111079887Y-99307085D01*
X111079887Y-99307085D02*
X111032268Y-99402323D01*
X111032268Y-99402323D02*
X110937030Y-99497561D01*
X110937030Y-99497561D02*
X110794173Y-99545180D01*
X110794173Y-99545180D02*
X110698935Y-99545180D01*
X110698935Y-99545180D02*
X110556078Y-99497561D01*
X110556078Y-99497561D02*
X110508459Y-99449942D01*
X110079887Y-99545180D02*
X110079887Y-98735657D01*
X110079887Y-98735657D02*
X110032268Y-98640419D01*
X110032268Y-98640419D02*
X109984649Y-98592800D01*
X109984649Y-98592800D02*
X109889411Y-98545180D01*
X109889411Y-98545180D02*
X109698935Y-98545180D01*
X109698935Y-98545180D02*
X109603697Y-98592800D01*
X109603697Y-98592800D02*
X109556078Y-98640419D01*
X109556078Y-98640419D02*
X109508459Y-98735657D01*
X109508459Y-98735657D02*
X109508459Y-99545180D01*
X109175125Y-99545180D02*
X108603697Y-99545180D01*
X108889411Y-98545180D02*
X108889411Y-99545180D01*
X186788152Y-47151316D02*
X187073866Y-47913220D01*
X187073866Y-47913220D02*
X187359580Y-47151316D01*
X187073866Y-46675125D02*
X187073866Y-45913221D01*
X186454819Y-44817982D02*
X187454819Y-44484649D01*
X187454819Y-44484649D02*
X186454819Y-44151316D01*
X187073866Y-43817982D02*
X187073866Y-43056078D01*
X187359580Y-42008459D02*
X187407200Y-42056078D01*
X187407200Y-42056078D02*
X187454819Y-42198935D01*
X187454819Y-42198935D02*
X187454819Y-42294173D01*
X187454819Y-42294173D02*
X187407200Y-42437030D01*
X187407200Y-42437030D02*
X187311961Y-42532268D01*
X187311961Y-42532268D02*
X187216723Y-42579887D01*
X187216723Y-42579887D02*
X187026247Y-42627506D01*
X187026247Y-42627506D02*
X186883390Y-42627506D01*
X186883390Y-42627506D02*
X186692914Y-42579887D01*
X186692914Y-42579887D02*
X186597676Y-42532268D01*
X186597676Y-42532268D02*
X186502438Y-42437030D01*
X186502438Y-42437030D02*
X186454819Y-42294173D01*
X186454819Y-42294173D02*
X186454819Y-42198935D01*
X186454819Y-42198935D02*
X186502438Y-42056078D01*
X186502438Y-42056078D02*
X186550057Y-42008459D01*
X186454819Y-41579887D02*
X187264342Y-41579887D01*
X187264342Y-41579887D02*
X187359580Y-41532268D01*
X187359580Y-41532268D02*
X187407200Y-41484649D01*
X187407200Y-41484649D02*
X187454819Y-41389411D01*
X187454819Y-41389411D02*
X187454819Y-41198935D01*
X187454819Y-41198935D02*
X187407200Y-41103697D01*
X187407200Y-41103697D02*
X187359580Y-41056078D01*
X187359580Y-41056078D02*
X187264342Y-41008459D01*
X187264342Y-41008459D02*
X186454819Y-41008459D01*
X186454819Y-40675125D02*
X186454819Y-40103697D01*
X187454819Y-40389411D02*
X186454819Y-40389411D01*
M02*
