G04 #@! TF.GenerationSoftware,KiCad,Pcbnew,9.0.8*
G04 #@! TF.CreationDate,2026-09-27T01:38:58+09:00*
G04 #@! TF.ProjectId,motordecoder2-k3066v4-p,6d6f746f-7264-4656-936f-646572322d6b,rev?*
G04 #@! TF.SameCoordinates,Original*
G04 #@! TF.FileFunction,Soldermask,Top*
G04 #@! TF.FilePolarity,Negative*
%FSLAX46Y46*%
G04 Gerber Fmt 4.6, Leading zero omitted, Abs format (unit mm)*
G04 Created by KiCad (PCBNEW 9.0.8) date 2026-09-27 01:38:58*
%MOMM*%
%LPD*%
G01*
G04 APERTURE LIST*
G04 Aperture macros list*
%AMRoundRect*
0 Rectangle with rounded corners*
0 $1 Rounding radius*
0 $2 $3 $4 $5 $6 $7 $8 $9 X,Y pos of 4 corners*
0 Add a 4 corners polygon primitive as box body*
4,1,4,$2,$3,$4,$5,$6,$7,$8,$9,$2,$3,0*
0 Add four circle primitives for the rounded corners*
1,1,$1+$1,$2,$3*
1,1,$1+$1,$4,$5*
1,1,$1+$1,$6,$7*
1,1,$1+$1,$8,$9*
0 Add four rect primitives between the rounded corners*
20,1,$1+$1,$2,$3,$4,$5,0*
20,1,$1+$1,$4,$5,$6,$7,0*
20,1,$1+$1,$6,$7,$8,$9,0*
20,1,$1+$1,$8,$9,$2,$3,0*%
%AMFreePoly0*
4,1,14,0.334644,0.085355,0.385355,0.034644,0.400000,-0.000711,0.400000,-0.050000,0.385355,-0.085355,0.350000,-0.100000,-0.350000,-0.100000,-0.385355,-0.085355,-0.400000,-0.050000,-0.400000,0.050000,-0.385355,0.085355,-0.350000,0.100000,0.299289,0.100000,0.334644,0.085355,0.334644,0.085355,$1*%
%AMFreePoly1*
4,1,14,0.385355,0.085355,0.400000,0.050000,0.400000,0.000711,0.385355,-0.034644,0.334644,-0.085355,0.299289,-0.100000,-0.350000,-0.100000,-0.385355,-0.085355,-0.400000,-0.050000,-0.400000,0.050000,-0.385355,0.085355,-0.350000,0.100000,0.350000,0.100000,0.385355,0.085355,0.385355,0.085355,$1*%
%AMFreePoly2*
4,1,14,0.085355,0.385355,0.100000,0.350000,0.100000,-0.350000,0.085355,-0.385355,0.050000,-0.400000,-0.050000,-0.400000,-0.085355,-0.385355,-0.100000,-0.350000,-0.100000,0.299289,-0.085355,0.334644,-0.034644,0.385355,0.000711,0.400000,0.050000,0.400000,0.085355,0.385355,0.085355,0.385355,$1*%
%AMFreePoly3*
4,1,14,0.034644,0.385355,0.085355,0.334644,0.100000,0.299289,0.100000,-0.350000,0.085355,-0.385355,0.050000,-0.400000,-0.050000,-0.400000,-0.085355,-0.385355,-0.100000,-0.350000,-0.100000,0.350000,-0.085355,0.385355,-0.050000,0.400000,-0.000711,0.400000,0.034644,0.385355,0.034644,0.385355,$1*%
%AMFreePoly4*
4,1,14,0.385355,0.085355,0.400000,0.050000,0.400000,-0.050000,0.385355,-0.085355,0.350000,-0.100000,-0.299289,-0.100000,-0.334644,-0.085355,-0.385355,-0.034644,-0.400000,0.000711,-0.400000,0.050000,-0.385355,0.085355,-0.350000,0.100000,0.350000,0.100000,0.385355,0.085355,0.385355,0.085355,$1*%
%AMFreePoly5*
4,1,14,0.385355,0.085355,0.400000,0.050000,0.400000,-0.050000,0.385355,-0.085355,0.350000,-0.100000,-0.350000,-0.100000,-0.385355,-0.085355,-0.400000,-0.050000,-0.400000,-0.000711,-0.385355,0.034644,-0.334644,0.085355,-0.299289,0.100000,0.350000,0.100000,0.385355,0.085355,0.385355,0.085355,$1*%
%AMFreePoly6*
4,1,14,0.085355,0.385355,0.100000,0.350000,0.100000,-0.299289,0.085355,-0.334644,0.034644,-0.385355,-0.000711,-0.400000,-0.050000,-0.400000,-0.085355,-0.385355,-0.100000,-0.350000,-0.100000,0.350000,-0.085355,0.385355,-0.050000,0.400000,0.050000,0.400000,0.085355,0.385355,0.085355,0.385355,$1*%
%AMFreePoly7*
4,1,14,0.085355,0.385355,0.100000,0.350000,0.100000,-0.350000,0.085355,-0.385355,0.050000,-0.400000,0.000711,-0.400000,-0.034644,-0.385355,-0.085355,-0.334644,-0.100000,-0.299289,-0.100000,0.350000,-0.085355,0.385355,-0.050000,0.400000,0.050000,0.400000,0.085355,0.385355,0.085355,0.385355,$1*%
G04 Aperture macros list end*
%ADD10R,1.000000X1.800000*%
%ADD11R,1.500000X1.500000*%
%ADD12R,0.950000X0.950000*%
%ADD13R,0.700000X0.700000*%
%ADD14R,0.450000X0.300000*%
%ADD15R,0.300000X0.450000*%
%ADD16R,0.500000X0.900000*%
%ADD17R,0.600000X0.400000*%
%ADD18R,0.400000X0.600000*%
%ADD19R,1.800000X1.300000*%
%ADD20R,0.500000X0.550000*%
%ADD21R,0.500000X0.470000*%
%ADD22R,0.900000X0.800000*%
%ADD23R,0.800000X0.500000*%
%ADD24R,0.800000X0.800000*%
%ADD25R,1.000000X1.000000*%
%ADD26R,0.600000X1.000000*%
%ADD27R,0.700000X0.800000*%
%ADD28R,1.600000X1.800000*%
%ADD29R,2.000000X1.800000*%
%ADD30R,0.800000X0.600000*%
%ADD31R,1.000000X0.600000*%
%ADD32R,0.900000X0.700000*%
%ADD33R,0.500000X0.800000*%
%ADD34R,0.900000X0.500000*%
%ADD35R,1.200000X0.900000*%
%ADD36R,0.800000X0.900000*%
%ADD37R,0.520000X0.450000*%
%ADD38FreePoly0,180.000000*%
%ADD39RoundRect,0.050000X0.350000X0.050000X-0.350000X0.050000X-0.350000X-0.050000X0.350000X-0.050000X0*%
%ADD40FreePoly1,180.000000*%
%ADD41FreePoly2,180.000000*%
%ADD42RoundRect,0.050000X0.050000X0.350000X-0.050000X0.350000X-0.050000X-0.350000X0.050000X-0.350000X0*%
%ADD43FreePoly3,180.000000*%
%ADD44FreePoly4,180.000000*%
%ADD45FreePoly5,180.000000*%
%ADD46FreePoly6,180.000000*%
%ADD47FreePoly7,180.000000*%
%ADD48R,1.700000X1.700000*%
%ADD49R,0.500000X1.450000*%
%ADD50R,0.750000X1.300000*%
%ADD51R,0.300000X0.500000*%
%ADD52C,2.000000*%
%ADD53FreePoly0,0.000000*%
%ADD54RoundRect,0.050000X-0.350000X-0.050000X0.350000X-0.050000X0.350000X0.050000X-0.350000X0.050000X0*%
%ADD55FreePoly1,0.000000*%
%ADD56FreePoly2,0.000000*%
%ADD57RoundRect,0.050000X-0.050000X-0.350000X0.050000X-0.350000X0.050000X0.350000X-0.050000X0.350000X0*%
%ADD58FreePoly3,0.000000*%
%ADD59FreePoly4,0.000000*%
%ADD60FreePoly5,0.000000*%
%ADD61FreePoly6,0.000000*%
%ADD62FreePoly7,0.000000*%
G04 APERTURE END LIST*
D10*
X127900000Y-105600000D03*
D11*
X153250000Y-109000000D03*
X149750000Y-109000000D03*
X153250000Y-101500000D03*
X149750000Y-101500000D03*
D12*
X137535000Y-108750000D03*
X136265000Y-108750000D03*
D13*
X158450000Y-107250000D03*
X157500000Y-107250000D03*
X156550000Y-107250000D03*
X156550000Y-109750000D03*
X157500000Y-109750000D03*
X158450000Y-109750000D03*
X155300000Y-103250000D03*
X156250000Y-103250000D03*
X157200000Y-103250000D03*
X157200000Y-100750000D03*
X156250000Y-100750000D03*
X155300000Y-100750000D03*
D14*
X155375000Y-106400000D03*
X155375000Y-105900000D03*
X155375000Y-105400000D03*
X154025000Y-105400000D03*
X154025000Y-105900000D03*
X154025000Y-106400000D03*
X150875000Y-104200000D03*
X150875000Y-103700000D03*
X150875000Y-103200000D03*
X149525000Y-103200000D03*
X149525000Y-103700000D03*
X149525000Y-104200000D03*
D15*
X171500000Y-103625000D03*
X171000000Y-103625000D03*
X170500000Y-103625000D03*
X170500000Y-104975000D03*
X171000000Y-104975000D03*
X171500000Y-104975000D03*
D16*
X133550000Y-106000000D03*
X132050000Y-106000000D03*
D17*
X169500000Y-105150000D03*
X169500000Y-106050000D03*
X165600000Y-106450000D03*
X165600000Y-105550000D03*
D18*
X166450000Y-104600000D03*
X165550000Y-104600000D03*
X165550000Y-103600000D03*
X166450000Y-103600000D03*
X151050000Y-107100000D03*
X150150000Y-107100000D03*
D19*
X139900000Y-108650000D03*
X139900000Y-101850000D03*
D20*
X174300000Y-105725000D03*
X174300000Y-106675000D03*
X142200000Y-104925000D03*
X142200000Y-105875000D03*
D21*
X153000000Y-106515000D03*
X153000000Y-105485000D03*
X167300000Y-105285000D03*
X167300000Y-106315000D03*
D20*
X172100000Y-105725000D03*
X172100000Y-106675000D03*
D22*
X162300000Y-104550000D03*
X162300000Y-106650000D03*
D23*
X159750000Y-105400000D03*
X159750000Y-104100000D03*
X157850000Y-104750000D03*
D24*
X145400000Y-104225000D03*
X145400000Y-105775000D03*
D14*
X131325000Y-108000000D03*
X131325000Y-108500000D03*
X131325000Y-109000000D03*
X132675000Y-109000000D03*
X132675000Y-108500000D03*
X132675000Y-108000000D03*
D17*
X131000000Y-101650000D03*
X131000000Y-102550000D03*
D18*
X136250000Y-102400000D03*
X137150000Y-102400000D03*
X134050000Y-108900000D03*
X134950000Y-108900000D03*
D25*
X128000000Y-101900000D03*
X129500000Y-101900000D03*
X127900000Y-108600000D03*
X129500000Y-108600000D03*
D17*
X140400000Y-103400000D03*
X140400000Y-104300000D03*
D14*
X133075000Y-104900000D03*
X133075000Y-104400000D03*
X133075000Y-103900000D03*
X131725000Y-103900000D03*
X131725000Y-104400000D03*
X131725000Y-104900000D03*
X133725000Y-101500000D03*
X133725000Y-102000000D03*
X133725000Y-102500000D03*
X135075000Y-102500000D03*
X135075000Y-102000000D03*
X135075000Y-101500000D03*
D17*
X134100000Y-103950000D03*
X134100000Y-104850000D03*
D18*
X134050000Y-107600000D03*
X134950000Y-107600000D03*
D26*
X132100000Y-102700000D03*
D27*
X143900000Y-104225000D03*
X143900000Y-105775000D03*
D28*
X185800000Y-108400000D03*
D29*
X184000000Y-108400000D03*
D28*
X185800000Y-102100000D03*
D29*
X184000000Y-102100000D03*
D30*
X168400000Y-105150000D03*
X168400000Y-106850000D03*
D31*
X142700000Y-104100000D03*
D17*
X173200000Y-105750000D03*
X173200000Y-106650000D03*
D15*
X163600000Y-105475000D03*
X164100000Y-105475000D03*
X164600000Y-105475000D03*
X164600000Y-104125000D03*
X164100000Y-104125000D03*
X163600000Y-104125000D03*
D26*
X178500000Y-108700000D03*
D18*
X140250000Y-106000000D03*
X141150000Y-106000000D03*
D17*
X139300000Y-104300000D03*
X139300000Y-103400000D03*
X139400000Y-107550000D03*
X139400000Y-106650000D03*
D32*
X146750000Y-106000000D03*
D33*
X178450000Y-107150000D03*
X179750000Y-107150000D03*
X179100000Y-105250000D03*
D18*
X152150000Y-107400000D03*
X153050000Y-107400000D03*
D17*
X152000000Y-106450000D03*
X152000000Y-105550000D03*
X149200000Y-107350000D03*
X149200000Y-106450000D03*
X148200000Y-106450000D03*
X148200000Y-107350000D03*
D18*
X150150000Y-106100000D03*
X151050000Y-106100000D03*
X157450000Y-106000000D03*
X156550000Y-106000000D03*
X156150000Y-104400000D03*
X155250000Y-104400000D03*
D17*
X155300000Y-107450000D03*
X155300000Y-108350000D03*
X154100000Y-104350000D03*
X154100000Y-103450000D03*
D34*
X148300000Y-103200000D03*
X148300000Y-104700000D03*
D17*
X160900000Y-105150000D03*
X160900000Y-106050000D03*
D18*
X168550000Y-104100000D03*
X167650000Y-104100000D03*
X172550000Y-104800000D03*
X173450000Y-104800000D03*
X180050000Y-103600000D03*
X179150000Y-103600000D03*
D35*
X175600000Y-106600000D03*
D36*
X177400000Y-106600000D03*
X177400000Y-104600000D03*
X175400000Y-104600000D03*
D14*
X179975000Y-102600000D03*
X179975000Y-102100000D03*
X179975000Y-101600000D03*
X178625000Y-101600000D03*
X178625000Y-102100000D03*
X178625000Y-102600000D03*
D37*
X172720000Y-103700000D03*
X174080000Y-103700000D03*
D16*
X181350000Y-108600000D03*
X179850000Y-108600000D03*
D17*
X170800000Y-105750000D03*
X170800000Y-106650000D03*
D38*
X138150000Y-106050000D03*
D39*
X138150000Y-105650000D03*
X138150000Y-105250000D03*
X138150000Y-104850000D03*
D40*
X138150000Y-104450000D03*
D41*
X137500000Y-103800000D03*
D42*
X137100000Y-103800000D03*
X136700000Y-103800000D03*
X136300000Y-103800000D03*
D43*
X135900000Y-103800000D03*
D44*
X135250000Y-104450000D03*
D39*
X135250000Y-104850000D03*
X135250000Y-105250000D03*
X135250000Y-105650000D03*
D45*
X135250000Y-106050000D03*
D46*
X135900000Y-106700000D03*
D42*
X136300000Y-106700000D03*
X136700000Y-106700000D03*
X137100000Y-106700000D03*
D47*
X137500000Y-106700000D03*
D48*
X136700000Y-105250000D03*
D32*
X181800000Y-102300000D03*
D49*
X181750000Y-106625000D03*
D50*
X181125000Y-106550000D03*
D51*
X181750000Y-105800000D03*
X181750000Y-104700000D03*
D50*
X181125000Y-103950000D03*
D49*
X181750000Y-103875000D03*
X129750000Y-103875000D03*
D50*
X130375000Y-103950000D03*
D51*
X129750000Y-104700000D03*
X129750000Y-105800000D03*
D50*
X130375000Y-106550000D03*
D49*
X129750000Y-106625000D03*
D31*
X161000000Y-104100000D03*
D14*
X180925000Y-68100000D03*
X180925000Y-68600000D03*
X180925000Y-69100000D03*
X182275000Y-69100000D03*
X182275000Y-68600000D03*
X182275000Y-68100000D03*
D33*
X135550000Y-65850000D03*
X134250000Y-65850000D03*
X134900000Y-67750000D03*
D35*
X175600000Y-131600000D03*
D36*
X177400000Y-131600000D03*
X177400000Y-129600000D03*
X175400000Y-129600000D03*
D18*
X141450000Y-68200000D03*
X140550000Y-68200000D03*
D21*
X153000000Y-144015000D03*
X153000000Y-142985000D03*
D17*
X170800000Y-118250000D03*
X170800000Y-119150000D03*
D27*
X143900000Y-129225000D03*
X143900000Y-130775000D03*
D25*
X184500000Y-83600000D03*
D19*
X174100000Y-71150000D03*
D18*
X166450000Y-142100000D03*
X165550000Y-142100000D03*
D21*
X161000000Y-91485000D03*
X161000000Y-92515000D03*
D16*
X180450000Y-79500000D03*
X181950000Y-79500000D03*
D17*
X134100000Y-128950000D03*
X134100000Y-129850000D03*
D31*
X153000000Y-56400000D03*
D14*
X180925000Y-93100000D03*
X180925000Y-93600000D03*
X180925000Y-94100000D03*
X182275000Y-94100000D03*
X182275000Y-93600000D03*
X182275000Y-93100000D03*
D18*
X156550000Y-79500000D03*
X157450000Y-79500000D03*
D17*
X154100000Y-129350000D03*
X154100000Y-128450000D03*
D35*
X138400000Y-66400000D03*
D36*
X136600000Y-66400000D03*
X136600000Y-68400000D03*
X138600000Y-68400000D03*
D17*
X162000000Y-54050000D03*
X162000000Y-54950000D03*
D18*
X148450000Y-56900000D03*
X147550000Y-56900000D03*
D15*
X163600000Y-117975000D03*
X164100000Y-117975000D03*
X164600000Y-117975000D03*
X164600000Y-116625000D03*
X164100000Y-116625000D03*
X163600000Y-116625000D03*
D17*
X159900000Y-68650000D03*
X159900000Y-69550000D03*
D11*
X160750000Y-96500000D03*
X164250000Y-96500000D03*
D32*
X132200000Y-70700000D03*
D15*
X142500000Y-56875000D03*
X143000000Y-56875000D03*
X143500000Y-56875000D03*
X143500000Y-55525000D03*
X143000000Y-55525000D03*
X142500000Y-55525000D03*
D18*
X133950000Y-56900000D03*
X134850000Y-56900000D03*
X147550000Y-68400000D03*
X148450000Y-68400000D03*
D20*
X174300000Y-118225000D03*
X174300000Y-119175000D03*
D18*
X156550000Y-54500000D03*
X157450000Y-54500000D03*
D52*
X123500000Y-55250000D03*
X123500000Y-130250000D03*
D14*
X179975000Y-115100000D03*
X179975000Y-114600000D03*
X179975000Y-114100000D03*
X178625000Y-114100000D03*
X178625000Y-114600000D03*
X178625000Y-115100000D03*
D20*
X141900000Y-67275000D03*
X141900000Y-66325000D03*
D25*
X184500000Y-71100000D03*
D13*
X155300000Y-128250000D03*
X156250000Y-128250000D03*
X157200000Y-128250000D03*
X157200000Y-125750000D03*
X156250000Y-125750000D03*
X155300000Y-125750000D03*
D11*
X160750000Y-59000000D03*
X164250000Y-59000000D03*
D17*
X155300000Y-132450000D03*
X155300000Y-133350000D03*
D35*
X175600000Y-119100000D03*
D36*
X177400000Y-119100000D03*
X177400000Y-117100000D03*
X175400000Y-117100000D03*
D14*
X163125000Y-56300000D03*
X163125000Y-56800000D03*
X163125000Y-57300000D03*
X164475000Y-57300000D03*
X164475000Y-56800000D03*
X164475000Y-56300000D03*
D18*
X145450000Y-56400000D03*
X146350000Y-56400000D03*
X179950000Y-89100000D03*
X179050000Y-89100000D03*
D19*
X139900000Y-126850000D03*
D17*
X155300000Y-144950000D03*
X155300000Y-145850000D03*
D18*
X157450000Y-118500000D03*
X156550000Y-118500000D03*
D14*
X133075000Y-117400000D03*
X133075000Y-116900000D03*
X133075000Y-116400000D03*
X131725000Y-116400000D03*
X131725000Y-116900000D03*
X131725000Y-117400000D03*
D17*
X153100000Y-55350000D03*
X153100000Y-54450000D03*
D14*
X182675000Y-90000000D03*
X182675000Y-89500000D03*
X182675000Y-89000000D03*
X181325000Y-89000000D03*
X181325000Y-89500000D03*
X181325000Y-90000000D03*
D24*
X145400000Y-141725000D03*
X145400000Y-143275000D03*
D23*
X154250000Y-55100000D03*
X154250000Y-56400000D03*
X156150000Y-55750000D03*
D16*
X132650000Y-76900000D03*
X134150000Y-76900000D03*
D18*
X141450000Y-93200000D03*
X140550000Y-93200000D03*
X172550000Y-142300000D03*
X173450000Y-142300000D03*
D49*
X181750000Y-131625000D03*
D50*
X181125000Y-131550000D03*
D51*
X181750000Y-130800000D03*
X181750000Y-129700000D03*
D50*
X181125000Y-128950000D03*
D49*
X181750000Y-128875000D03*
D27*
X143900000Y-116725000D03*
X143900000Y-118275000D03*
D26*
X178500000Y-146200000D03*
D19*
X139900000Y-121150000D03*
D12*
X137535000Y-146250000D03*
X136265000Y-146250000D03*
D32*
X167250000Y-54500000D03*
D20*
X171800000Y-80575000D03*
X171800000Y-79625000D03*
D22*
X162300000Y-142050000D03*
X162300000Y-144150000D03*
D14*
X179975000Y-140100000D03*
X179975000Y-139600000D03*
X179975000Y-139100000D03*
X178625000Y-139100000D03*
X178625000Y-139600000D03*
X178625000Y-140100000D03*
D27*
X170100000Y-56275000D03*
X170100000Y-54725000D03*
D17*
X148400000Y-66550000D03*
X148400000Y-67450000D03*
D32*
X132200000Y-95700000D03*
D18*
X141450000Y-80700000D03*
X140550000Y-80700000D03*
D14*
X158625000Y-91600000D03*
X158625000Y-92100000D03*
X158625000Y-92600000D03*
X159975000Y-92600000D03*
X159975000Y-92100000D03*
X159975000Y-91600000D03*
D23*
X159750000Y-142900000D03*
X159750000Y-141600000D03*
X157850000Y-142250000D03*
D18*
X133950000Y-94400000D03*
X134850000Y-94400000D03*
X173750000Y-67000000D03*
X172850000Y-67000000D03*
D15*
X150400000Y-55025000D03*
X149900000Y-55025000D03*
X149400000Y-55025000D03*
X149400000Y-56375000D03*
X149900000Y-56375000D03*
X150400000Y-56375000D03*
X150400000Y-92525000D03*
X149900000Y-92525000D03*
X149400000Y-92525000D03*
X149400000Y-93875000D03*
X149900000Y-93875000D03*
X150400000Y-93875000D03*
D17*
X174700000Y-81200000D03*
X174700000Y-82100000D03*
D11*
X153250000Y-114000000D03*
X149750000Y-114000000D03*
D33*
X135550000Y-90850000D03*
X134250000Y-90850000D03*
X134900000Y-92750000D03*
D17*
X148400000Y-91550000D03*
X148400000Y-92450000D03*
D28*
X185800000Y-127100000D03*
D29*
X184000000Y-127100000D03*
D20*
X142200000Y-117425000D03*
X142200000Y-118375000D03*
D17*
X140800000Y-79750000D03*
X140800000Y-78850000D03*
X173200000Y-143250000D03*
X173200000Y-144150000D03*
D31*
X142700000Y-116600000D03*
D27*
X170100000Y-93775000D03*
X170100000Y-92225000D03*
D18*
X166450000Y-129600000D03*
X165550000Y-129600000D03*
D11*
X153250000Y-121500000D03*
X149750000Y-121500000D03*
D52*
X190500000Y-67750000D03*
D25*
X129500000Y-114400000D03*
D17*
X165800000Y-54050000D03*
X165800000Y-53150000D03*
X158700000Y-65550000D03*
X158700000Y-64650000D03*
D11*
X160750000Y-71500000D03*
X164250000Y-71500000D03*
D34*
X165700000Y-69800000D03*
X165700000Y-68300000D03*
D17*
X162000000Y-66550000D03*
X162000000Y-67450000D03*
D20*
X174300000Y-143225000D03*
X174300000Y-144175000D03*
D52*
X123500000Y-130250000D03*
D21*
X167300000Y-117785000D03*
X167300000Y-118815000D03*
D25*
X128000000Y-139400000D03*
D14*
X180275000Y-96500000D03*
X180275000Y-96000000D03*
X180275000Y-95500000D03*
X178925000Y-95500000D03*
X178925000Y-96000000D03*
X178925000Y-96500000D03*
D49*
X129750000Y-141375000D03*
D50*
X130375000Y-141450000D03*
D51*
X129750000Y-142200000D03*
X129750000Y-143300000D03*
D50*
X130375000Y-144050000D03*
D49*
X129750000Y-144125000D03*
D18*
X173750000Y-92000000D03*
X172850000Y-92000000D03*
X161850000Y-78100000D03*
X160950000Y-78100000D03*
D13*
X158700000Y-69750000D03*
X157750000Y-69750000D03*
X156800000Y-69750000D03*
X156800000Y-72250000D03*
X157750000Y-72250000D03*
X158700000Y-72250000D03*
D21*
X146700000Y-80215000D03*
X146700000Y-79185000D03*
D32*
X181800000Y-127300000D03*
D28*
X128200000Y-83400000D03*
D29*
X130000000Y-83400000D03*
D30*
X145600000Y-55350000D03*
X145600000Y-53650000D03*
D20*
X141900000Y-54775000D03*
X141900000Y-53825000D03*
D18*
X180050000Y-128600000D03*
X179150000Y-128600000D03*
D16*
X180450000Y-92000000D03*
X181950000Y-92000000D03*
D18*
X162950000Y-65900000D03*
X163850000Y-65900000D03*
X165550000Y-128600000D03*
X166450000Y-128600000D03*
D32*
X132200000Y-83200000D03*
D22*
X151700000Y-93450000D03*
X151700000Y-91350000D03*
D20*
X171800000Y-68075000D03*
X171800000Y-67125000D03*
D33*
X178450000Y-144650000D03*
X179750000Y-144650000D03*
X179100000Y-142750000D03*
D17*
X131000000Y-126650000D03*
X131000000Y-127550000D03*
D11*
X160750000Y-84000000D03*
X164250000Y-84000000D03*
D19*
X139900000Y-114350000D03*
D13*
X158450000Y-119750000D03*
X157500000Y-119750000D03*
X156550000Y-119750000D03*
X156550000Y-122250000D03*
X157500000Y-122250000D03*
X158450000Y-122250000D03*
D14*
X158625000Y-54100000D03*
X158625000Y-54600000D03*
X158625000Y-55100000D03*
X159975000Y-55100000D03*
X159975000Y-54600000D03*
X159975000Y-54100000D03*
D17*
X139300000Y-141800000D03*
X139300000Y-140900000D03*
D19*
X174100000Y-51850000D03*
D11*
X153250000Y-126500000D03*
X149750000Y-126500000D03*
D15*
X142500000Y-69375000D03*
X143000000Y-69375000D03*
X143500000Y-69375000D03*
X143500000Y-68025000D03*
X143000000Y-68025000D03*
X142500000Y-68025000D03*
D23*
X154250000Y-80100000D03*
X154250000Y-81400000D03*
X156150000Y-80750000D03*
D31*
X161000000Y-129100000D03*
D49*
X132250000Y-78875000D03*
D50*
X132875000Y-78950000D03*
D51*
X132250000Y-79700000D03*
X132250000Y-80800000D03*
D50*
X132875000Y-81550000D03*
D49*
X132250000Y-81625000D03*
D17*
X159900000Y-56150000D03*
X159900000Y-57050000D03*
D28*
X128200000Y-95900000D03*
D29*
X130000000Y-95900000D03*
D18*
X134050000Y-121400000D03*
X134950000Y-121400000D03*
D17*
X140800000Y-54750000D03*
X140800000Y-53850000D03*
D14*
X150875000Y-129200000D03*
X150875000Y-128700000D03*
X150875000Y-128200000D03*
X149525000Y-128200000D03*
X149525000Y-128700000D03*
X149525000Y-129200000D03*
D52*
X123500000Y-67750000D03*
D28*
X185800000Y-133400000D03*
D29*
X184000000Y-133400000D03*
D23*
X159750000Y-117900000D03*
X159750000Y-116600000D03*
X157850000Y-117250000D03*
D15*
X150400000Y-67525000D03*
X149900000Y-67525000D03*
X149400000Y-67525000D03*
X149400000Y-68875000D03*
X149900000Y-68875000D03*
X150400000Y-68875000D03*
D17*
X170800000Y-130750000D03*
X170800000Y-131650000D03*
D22*
X162300000Y-117050000D03*
X162300000Y-119150000D03*
D33*
X135550000Y-53350000D03*
X134250000Y-53350000D03*
X134900000Y-55250000D03*
D17*
X155300000Y-119950000D03*
X155300000Y-120850000D03*
D26*
X181900000Y-95300000D03*
D21*
X161000000Y-53985000D03*
X161000000Y-55015000D03*
D52*
X190500000Y-92750000D03*
D17*
X148400000Y-79050000D03*
X148400000Y-79950000D03*
D24*
X168600000Y-68775000D03*
X168600000Y-67225000D03*
X145400000Y-116725000D03*
X145400000Y-118275000D03*
D25*
X184500000Y-64400000D03*
D17*
X139400000Y-145050000D03*
X139400000Y-144150000D03*
D16*
X181350000Y-133600000D03*
X179850000Y-133600000D03*
D17*
X134100000Y-116450000D03*
X134100000Y-117350000D03*
D14*
X180275000Y-59000000D03*
X180275000Y-58500000D03*
X180275000Y-58000000D03*
X178925000Y-58000000D03*
X178925000Y-58500000D03*
X178925000Y-59000000D03*
D34*
X148300000Y-115700000D03*
X148300000Y-117200000D03*
D14*
X155375000Y-118900000D03*
X155375000Y-118400000D03*
X155375000Y-117900000D03*
X154025000Y-117900000D03*
X154025000Y-118400000D03*
X154025000Y-118900000D03*
D18*
X162950000Y-53400000D03*
X163850000Y-53400000D03*
D26*
X181900000Y-82800000D03*
D17*
X174600000Y-90450000D03*
X174600000Y-91350000D03*
X152000000Y-118950000D03*
X152000000Y-118050000D03*
X173600000Y-94600000D03*
X173600000Y-93700000D03*
D12*
X176465000Y-51750000D03*
X177735000Y-51750000D03*
D52*
X190500000Y-105250000D03*
D18*
X151050000Y-119600000D03*
X150150000Y-119600000D03*
D10*
X127900000Y-130600000D03*
D17*
X170800000Y-143250000D03*
X170800000Y-144150000D03*
D18*
X156550000Y-67000000D03*
X157450000Y-67000000D03*
D17*
X179900000Y-81550000D03*
X179900000Y-80650000D03*
X153100000Y-92850000D03*
X153100000Y-91950000D03*
X162000000Y-91550000D03*
X162000000Y-92450000D03*
D11*
X160750000Y-64000000D03*
X164250000Y-64000000D03*
D18*
X150150000Y-131100000D03*
X151050000Y-131100000D03*
D25*
X127900000Y-146100000D03*
D26*
X132100000Y-115200000D03*
X132100000Y-127700000D03*
D18*
X177750000Y-83100000D03*
X176850000Y-83100000D03*
D32*
X146750000Y-131000000D03*
D18*
X165550000Y-116100000D03*
X166450000Y-116100000D03*
D17*
X179900000Y-69050000D03*
X179900000Y-68150000D03*
D28*
X128200000Y-58400000D03*
D29*
X130000000Y-58400000D03*
D14*
X180925000Y-55600000D03*
X180925000Y-56100000D03*
X180925000Y-56600000D03*
X182275000Y-56600000D03*
X182275000Y-56100000D03*
X182275000Y-55600000D03*
D18*
X163850000Y-79400000D03*
X162950000Y-79400000D03*
D25*
X186000000Y-71100000D03*
D18*
X147550000Y-55900000D03*
X148450000Y-55900000D03*
D26*
X132100000Y-140200000D03*
D24*
X168600000Y-81275000D03*
X168600000Y-79725000D03*
D15*
X171500000Y-116125000D03*
X171000000Y-116125000D03*
X170500000Y-116125000D03*
X170500000Y-117475000D03*
X171000000Y-117475000D03*
X171500000Y-117475000D03*
D32*
X167250000Y-92000000D03*
D17*
X165600000Y-131450000D03*
X165600000Y-130550000D03*
D13*
X155300000Y-115750000D03*
X156250000Y-115750000D03*
X157200000Y-115750000D03*
X157200000Y-113250000D03*
X156250000Y-113250000D03*
X155300000Y-113250000D03*
D25*
X129500000Y-126900000D03*
D17*
X154100000Y-141850000D03*
X154100000Y-140950000D03*
D25*
X186100000Y-51900000D03*
D28*
X185800000Y-139600000D03*
D29*
X184000000Y-139600000D03*
D18*
X140250000Y-143500000D03*
X141150000Y-143500000D03*
D17*
X140800000Y-67250000D03*
X140800000Y-66350000D03*
D20*
X141900000Y-92275000D03*
X141900000Y-91325000D03*
D37*
X141280000Y-94300000D03*
X139920000Y-94300000D03*
X172720000Y-128700000D03*
X174080000Y-128700000D03*
D17*
X165800000Y-91550000D03*
X165800000Y-90650000D03*
X160900000Y-130150000D03*
X160900000Y-131050000D03*
X165800000Y-66550000D03*
X165800000Y-65650000D03*
X148200000Y-131450000D03*
X148200000Y-132350000D03*
D18*
X145450000Y-81400000D03*
X146350000Y-81400000D03*
D15*
X142500000Y-94375000D03*
X143000000Y-94375000D03*
X143500000Y-94375000D03*
X143500000Y-93025000D03*
X143000000Y-93025000D03*
X142500000Y-93025000D03*
D10*
X186100000Y-54900000D03*
D18*
X148450000Y-94400000D03*
X147550000Y-94400000D03*
D25*
X186100000Y-76900000D03*
D13*
X158700000Y-57250000D03*
X157750000Y-57250000D03*
X156800000Y-57250000D03*
X156800000Y-59750000D03*
X157750000Y-59750000D03*
X158700000Y-59750000D03*
X158700000Y-94750000D03*
X157750000Y-94750000D03*
X156800000Y-94750000D03*
X156800000Y-97250000D03*
X157750000Y-97250000D03*
X158700000Y-97250000D03*
D30*
X145600000Y-92850000D03*
X145600000Y-91150000D03*
D26*
X181900000Y-57800000D03*
D52*
X190500000Y-117750000D03*
D18*
X152150000Y-144900000D03*
X153050000Y-144900000D03*
D17*
X179900000Y-56550000D03*
X179900000Y-55650000D03*
X169500000Y-142650000D03*
X169500000Y-143550000D03*
X160900000Y-117650000D03*
X160900000Y-118550000D03*
D18*
X179950000Y-52900000D03*
X179050000Y-52900000D03*
D14*
X155375000Y-131400000D03*
X155375000Y-130900000D03*
X155375000Y-130400000D03*
X154025000Y-130400000D03*
X154025000Y-130900000D03*
X154025000Y-131400000D03*
D37*
X172720000Y-116200000D03*
X174080000Y-116200000D03*
D18*
X151050000Y-144600000D03*
X150150000Y-144600000D03*
D14*
X182675000Y-77500000D03*
X182675000Y-77000000D03*
X182675000Y-76500000D03*
X181325000Y-76500000D03*
X181325000Y-77000000D03*
X181325000Y-77500000D03*
D49*
X181750000Y-119125000D03*
D50*
X181125000Y-119050000D03*
D51*
X181750000Y-118300000D03*
X181750000Y-117200000D03*
D50*
X181125000Y-116450000D03*
D49*
X181750000Y-116375000D03*
D32*
X146750000Y-143500000D03*
D17*
X174700000Y-93700000D03*
X174700000Y-94600000D03*
D14*
X163125000Y-81300000D03*
X163125000Y-81800000D03*
X163125000Y-82300000D03*
X164475000Y-82300000D03*
X164475000Y-81800000D03*
X164475000Y-81300000D03*
D31*
X171300000Y-68900000D03*
D28*
X128200000Y-70900000D03*
D29*
X130000000Y-70900000D03*
D17*
X144500000Y-55350000D03*
X144500000Y-54450000D03*
D27*
X170100000Y-68775000D03*
X170100000Y-67225000D03*
D28*
X128200000Y-89600000D03*
D29*
X130000000Y-89600000D03*
D18*
X180050000Y-116100000D03*
X179150000Y-116100000D03*
D14*
X158625000Y-66600000D03*
X158625000Y-67100000D03*
X158625000Y-67600000D03*
X159975000Y-67600000D03*
X159975000Y-67100000D03*
X159975000Y-66600000D03*
D25*
X127900000Y-121100000D03*
D11*
X160750000Y-51500000D03*
X164250000Y-51500000D03*
D17*
X144500000Y-80350000D03*
X144500000Y-79450000D03*
D18*
X145450000Y-93900000D03*
X146350000Y-93900000D03*
D34*
X165700000Y-82300000D03*
X165700000Y-80800000D03*
D18*
X145450000Y-68900000D03*
X146350000Y-68900000D03*
D14*
X180275000Y-84000000D03*
X180275000Y-83500000D03*
X180275000Y-83000000D03*
X178925000Y-83000000D03*
X178925000Y-83500000D03*
X178925000Y-84000000D03*
D17*
X139300000Y-129300000D03*
X139300000Y-128400000D03*
X174600000Y-52950000D03*
X174600000Y-53850000D03*
D14*
X131325000Y-120500000D03*
X131325000Y-121000000D03*
X131325000Y-121500000D03*
X132675000Y-121500000D03*
X132675000Y-121000000D03*
X132675000Y-120500000D03*
D28*
X128200000Y-77100000D03*
D29*
X130000000Y-77100000D03*
D17*
X159900000Y-93650000D03*
X159900000Y-94550000D03*
D18*
X156150000Y-116900000D03*
X155250000Y-116900000D03*
X140250000Y-131000000D03*
X141150000Y-131000000D03*
X166450000Y-117100000D03*
X165550000Y-117100000D03*
D17*
X154100000Y-116850000D03*
X154100000Y-115950000D03*
D49*
X184250000Y-94125000D03*
D50*
X183625000Y-94050000D03*
D51*
X184250000Y-93300000D03*
X184250000Y-92200000D03*
D50*
X183625000Y-91450000D03*
D49*
X184250000Y-91375000D03*
D18*
X180050000Y-141100000D03*
X179150000Y-141100000D03*
X136250000Y-139900000D03*
X137150000Y-139900000D03*
D14*
X134025000Y-57900000D03*
X134025000Y-58400000D03*
X134025000Y-58900000D03*
X135375000Y-58900000D03*
X135375000Y-58400000D03*
X135375000Y-57900000D03*
D20*
X172100000Y-143225000D03*
X172100000Y-144175000D03*
D18*
X140250000Y-118500000D03*
X141150000Y-118500000D03*
D13*
X155550000Y-53250000D03*
X156500000Y-53250000D03*
X157450000Y-53250000D03*
X157450000Y-50750000D03*
X156500000Y-50750000D03*
X155550000Y-50750000D03*
D32*
X181800000Y-114800000D03*
D17*
X173600000Y-57100000D03*
X173600000Y-56200000D03*
D20*
X142200000Y-142425000D03*
X142200000Y-143375000D03*
D17*
X140800000Y-92250000D03*
X140800000Y-91350000D03*
D16*
X133550000Y-143500000D03*
X132050000Y-143500000D03*
D23*
X154250000Y-67600000D03*
X154250000Y-68900000D03*
X156150000Y-68250000D03*
D20*
X142200000Y-129925000D03*
X142200000Y-130875000D03*
X172100000Y-130725000D03*
X172100000Y-131675000D03*
D14*
X131325000Y-145500000D03*
X131325000Y-146000000D03*
X131325000Y-146500000D03*
X132675000Y-146500000D03*
X132675000Y-146000000D03*
X132675000Y-145500000D03*
D17*
X134100000Y-141450000D03*
X134100000Y-142350000D03*
D19*
X139900000Y-133650000D03*
D17*
X183000000Y-83850000D03*
X183000000Y-82950000D03*
D14*
X133075000Y-129900000D03*
X133075000Y-129400000D03*
X133075000Y-128900000D03*
X131725000Y-128900000D03*
X131725000Y-129400000D03*
X131725000Y-129900000D03*
D17*
X143200000Y-67250000D03*
X143200000Y-66350000D03*
D21*
X161000000Y-66485000D03*
X161000000Y-67515000D03*
D14*
X158625000Y-79100000D03*
X158625000Y-79600000D03*
X158625000Y-80100000D03*
X159975000Y-80100000D03*
X159975000Y-79600000D03*
X159975000Y-79100000D03*
D49*
X132250000Y-91375000D03*
D50*
X132875000Y-91450000D03*
D51*
X132250000Y-92200000D03*
X132250000Y-93300000D03*
D50*
X132875000Y-94050000D03*
D49*
X132250000Y-94125000D03*
D37*
X141280000Y-56800000D03*
X139920000Y-56800000D03*
D14*
X131325000Y-133000000D03*
X131325000Y-133500000D03*
X131325000Y-134000000D03*
X132675000Y-134000000D03*
X132675000Y-133500000D03*
X132675000Y-133000000D03*
D17*
X153100000Y-67850000D03*
X153100000Y-66950000D03*
D25*
X186000000Y-96100000D03*
D49*
X132250000Y-66375000D03*
D50*
X132875000Y-66450000D03*
D51*
X132250000Y-67200000D03*
X132250000Y-68300000D03*
D50*
X132875000Y-69050000D03*
D49*
X132250000Y-69125000D03*
D18*
X148450000Y-69400000D03*
X147550000Y-69400000D03*
D28*
X185800000Y-114600000D03*
D29*
X184000000Y-114600000D03*
D53*
X175850000Y-91950000D03*
D54*
X175850000Y-92350000D03*
X175850000Y-92750000D03*
X175850000Y-93150000D03*
D55*
X175850000Y-93550000D03*
D56*
X176500000Y-94200000D03*
D57*
X176900000Y-94200000D03*
X177300000Y-94200000D03*
X177700000Y-94200000D03*
D58*
X178100000Y-94200000D03*
D59*
X178750000Y-93550000D03*
D54*
X178750000Y-93150000D03*
X178750000Y-92750000D03*
X178750000Y-92350000D03*
D60*
X178750000Y-91950000D03*
D61*
X178100000Y-91300000D03*
D57*
X177700000Y-91300000D03*
X177300000Y-91300000D03*
X176900000Y-91300000D03*
D62*
X176500000Y-91300000D03*
D48*
X177300000Y-92750000D03*
D18*
X162950000Y-90900000D03*
X163850000Y-90900000D03*
D20*
X174300000Y-130725000D03*
X174300000Y-131675000D03*
D49*
X129750000Y-128875000D03*
D50*
X130375000Y-128950000D03*
D51*
X129750000Y-129700000D03*
X129750000Y-130800000D03*
D50*
X130375000Y-131550000D03*
D49*
X129750000Y-131625000D03*
D18*
X168550000Y-116600000D03*
X167650000Y-116600000D03*
D15*
X163600000Y-130475000D03*
X164100000Y-130475000D03*
X164600000Y-130475000D03*
X164600000Y-129125000D03*
X164100000Y-129125000D03*
X163600000Y-129125000D03*
D17*
X144500000Y-67850000D03*
X144500000Y-66950000D03*
D52*
X190500000Y-80250000D03*
D16*
X133550000Y-131000000D03*
X132050000Y-131000000D03*
X180450000Y-67000000D03*
X181950000Y-67000000D03*
D17*
X139400000Y-120050000D03*
X139400000Y-119150000D03*
D18*
X141450000Y-55700000D03*
X140550000Y-55700000D03*
D17*
X152000000Y-143950000D03*
X152000000Y-143050000D03*
D15*
X163600000Y-142975000D03*
X164100000Y-142975000D03*
X164600000Y-142975000D03*
X164600000Y-141625000D03*
X164100000Y-141625000D03*
X163600000Y-141625000D03*
D23*
X154250000Y-92600000D03*
X154250000Y-93900000D03*
X156150000Y-93250000D03*
D11*
X160750000Y-76500000D03*
X164250000Y-76500000D03*
X153250000Y-146500000D03*
X149750000Y-146500000D03*
D31*
X153000000Y-68900000D03*
D18*
X134050000Y-145100000D03*
X134950000Y-145100000D03*
D34*
X165700000Y-57300000D03*
X165700000Y-55800000D03*
D28*
X128200000Y-52100000D03*
D29*
X130000000Y-52100000D03*
D19*
X139900000Y-146150000D03*
D17*
X164800000Y-78150000D03*
X164800000Y-79050000D03*
D31*
X161000000Y-141600000D03*
D17*
X131000000Y-114150000D03*
X131000000Y-115050000D03*
D28*
X185800000Y-145900000D03*
D29*
X184000000Y-145900000D03*
D26*
X178500000Y-133700000D03*
D18*
X156150000Y-141900000D03*
X155250000Y-141900000D03*
D25*
X184500000Y-96100000D03*
D12*
X176465000Y-89250000D03*
X177735000Y-89250000D03*
D17*
X174700000Y-56200000D03*
X174700000Y-57100000D03*
X165800000Y-79050000D03*
X165800000Y-78150000D03*
D49*
X184250000Y-69125000D03*
D50*
X183625000Y-69050000D03*
D51*
X184250000Y-68300000D03*
X184250000Y-67200000D03*
D50*
X183625000Y-66450000D03*
D49*
X184250000Y-66375000D03*
D10*
X186100000Y-79900000D03*
D28*
X185800000Y-120900000D03*
D29*
X184000000Y-120900000D03*
D19*
X139900000Y-139350000D03*
D18*
X172550000Y-129800000D03*
X173450000Y-129800000D03*
X157850000Y-93600000D03*
X158750000Y-93600000D03*
D32*
X167250000Y-79500000D03*
D13*
X155300000Y-140750000D03*
X156250000Y-140750000D03*
X157200000Y-140750000D03*
X157200000Y-138250000D03*
X156250000Y-138250000D03*
X155300000Y-138250000D03*
D18*
X179950000Y-51600000D03*
X179050000Y-51600000D03*
D17*
X165600000Y-118950000D03*
X165600000Y-118050000D03*
D24*
X168600000Y-93775000D03*
X168600000Y-92225000D03*
D17*
X173600000Y-69600000D03*
X173600000Y-68700000D03*
D20*
X139700000Y-79775000D03*
X139700000Y-78825000D03*
D17*
X149200000Y-144850000D03*
X149200000Y-143950000D03*
D18*
X173750000Y-54500000D03*
X172850000Y-54500000D03*
D31*
X153000000Y-93900000D03*
D28*
X128200000Y-64600000D03*
D29*
X130000000Y-64600000D03*
D17*
X158700000Y-78050000D03*
X158700000Y-77150000D03*
D53*
X175850000Y-66950000D03*
D54*
X175850000Y-67350000D03*
X175850000Y-67750000D03*
X175850000Y-68150000D03*
D55*
X175850000Y-68550000D03*
D56*
X176500000Y-69200000D03*
D57*
X176900000Y-69200000D03*
X177300000Y-69200000D03*
X177700000Y-69200000D03*
D58*
X178100000Y-69200000D03*
D59*
X178750000Y-68550000D03*
D54*
X178750000Y-68150000D03*
X178750000Y-67750000D03*
X178750000Y-67350000D03*
D60*
X178750000Y-66950000D03*
D61*
X178100000Y-66300000D03*
D57*
X177700000Y-66300000D03*
X177300000Y-66300000D03*
X176900000Y-66300000D03*
D62*
X176500000Y-66300000D03*
D48*
X177300000Y-67750000D03*
D18*
X147550000Y-80900000D03*
X148450000Y-80900000D03*
D17*
X149200000Y-132350000D03*
X149200000Y-131450000D03*
X148200000Y-143950000D03*
X148200000Y-144850000D03*
D26*
X178500000Y-121200000D03*
D17*
X173600000Y-82100000D03*
X173600000Y-81200000D03*
D22*
X151700000Y-55950000D03*
X151700000Y-53850000D03*
D14*
X150875000Y-141700000D03*
X150875000Y-141200000D03*
X150875000Y-140700000D03*
X149525000Y-140700000D03*
X149525000Y-141200000D03*
X149525000Y-141700000D03*
D20*
X139700000Y-54775000D03*
X139700000Y-53825000D03*
D21*
X146700000Y-55215000D03*
X146700000Y-54185000D03*
D17*
X143200000Y-79750000D03*
X143200000Y-78850000D03*
D26*
X181900000Y-70300000D03*
D19*
X174100000Y-96150000D03*
D49*
X184250000Y-56625000D03*
D50*
X183625000Y-56550000D03*
D51*
X184250000Y-55800000D03*
X184250000Y-54700000D03*
D50*
X183625000Y-53950000D03*
D49*
X184250000Y-53875000D03*
D53*
X175850000Y-54450000D03*
D54*
X175850000Y-54850000D03*
X175850000Y-55250000D03*
X175850000Y-55650000D03*
D55*
X175850000Y-56050000D03*
D56*
X176500000Y-56700000D03*
D57*
X176900000Y-56700000D03*
X177300000Y-56700000D03*
X177700000Y-56700000D03*
D58*
X178100000Y-56700000D03*
D59*
X178750000Y-56050000D03*
D54*
X178750000Y-55650000D03*
X178750000Y-55250000D03*
X178750000Y-54850000D03*
D60*
X178750000Y-54450000D03*
D61*
X178100000Y-53800000D03*
D57*
X177700000Y-53800000D03*
X177300000Y-53800000D03*
X176900000Y-53800000D03*
D62*
X176500000Y-53800000D03*
D48*
X177300000Y-55250000D03*
D18*
X163850000Y-54400000D03*
X162950000Y-54400000D03*
X168550000Y-129100000D03*
X167650000Y-129100000D03*
D17*
X158700000Y-90550000D03*
X158700000Y-89650000D03*
X165600000Y-143950000D03*
X165600000Y-143050000D03*
X158700000Y-53050000D03*
X158700000Y-52150000D03*
D16*
X132650000Y-64400000D03*
X134150000Y-64400000D03*
D18*
X179950000Y-77900000D03*
X179050000Y-77900000D03*
D17*
X140400000Y-140900000D03*
X140400000Y-141800000D03*
D31*
X171300000Y-81400000D03*
D10*
X127900000Y-143100000D03*
D17*
X173200000Y-118250000D03*
X173200000Y-119150000D03*
D14*
X134025000Y-82900000D03*
X134025000Y-83400000D03*
X134025000Y-83900000D03*
X135375000Y-83900000D03*
X135375000Y-83400000D03*
X135375000Y-82900000D03*
D22*
X151700000Y-68450000D03*
X151700000Y-66350000D03*
D25*
X127900000Y-133600000D03*
D17*
X160900000Y-142650000D03*
X160900000Y-143550000D03*
D32*
X146750000Y-118500000D03*
D18*
X157850000Y-56100000D03*
X158750000Y-56100000D03*
D17*
X164800000Y-65650000D03*
X164800000Y-66550000D03*
D14*
X133725000Y-114000000D03*
X133725000Y-114500000D03*
X133725000Y-115000000D03*
X135075000Y-115000000D03*
X135075000Y-114500000D03*
X135075000Y-114000000D03*
D16*
X132650000Y-89400000D03*
X134150000Y-89400000D03*
D52*
X190500000Y-130250000D03*
D11*
X153250000Y-134000000D03*
X149750000Y-134000000D03*
D52*
X190500000Y-55250000D03*
D25*
X129500000Y-146100000D03*
X128000000Y-114400000D03*
D18*
X163850000Y-66900000D03*
X162950000Y-66900000D03*
D19*
X174100000Y-83650000D03*
D10*
X127900000Y-118100000D03*
D31*
X171300000Y-93900000D03*
D18*
X161850000Y-90600000D03*
X160950000Y-90600000D03*
D52*
X190500000Y-142750000D03*
D25*
X186000000Y-83600000D03*
D18*
X152150000Y-132400000D03*
X153050000Y-132400000D03*
D30*
X168400000Y-130150000D03*
X168400000Y-131850000D03*
D17*
X164800000Y-53150000D03*
X164800000Y-54050000D03*
D18*
X133950000Y-81900000D03*
X134850000Y-81900000D03*
D35*
X138400000Y-91400000D03*
D36*
X136600000Y-91400000D03*
X136600000Y-93400000D03*
X138600000Y-93400000D03*
D25*
X184500000Y-76900000D03*
D13*
X155550000Y-78250000D03*
X156500000Y-78250000D03*
X157450000Y-78250000D03*
X157450000Y-75750000D03*
X156500000Y-75750000D03*
X155550000Y-75750000D03*
D18*
X179950000Y-90400000D03*
X179050000Y-90400000D03*
D38*
X138150000Y-131050000D03*
D39*
X138150000Y-130650000D03*
X138150000Y-130250000D03*
X138150000Y-129850000D03*
D40*
X138150000Y-129450000D03*
D41*
X137500000Y-128800000D03*
D42*
X137100000Y-128800000D03*
X136700000Y-128800000D03*
X136300000Y-128800000D03*
D43*
X135900000Y-128800000D03*
D44*
X135250000Y-129450000D03*
D39*
X135250000Y-129850000D03*
X135250000Y-130250000D03*
X135250000Y-130650000D03*
D45*
X135250000Y-131050000D03*
D46*
X135900000Y-131700000D03*
D42*
X136300000Y-131700000D03*
X136700000Y-131700000D03*
X137100000Y-131700000D03*
D47*
X137500000Y-131700000D03*
D48*
X136700000Y-130250000D03*
D14*
X133725000Y-139000000D03*
X133725000Y-139500000D03*
X133725000Y-140000000D03*
X135075000Y-140000000D03*
X135075000Y-139500000D03*
X135075000Y-139000000D03*
D18*
X177750000Y-70600000D03*
X176850000Y-70600000D03*
D34*
X148300000Y-128200000D03*
X148300000Y-129700000D03*
D13*
X158700000Y-82250000D03*
X157750000Y-82250000D03*
X156800000Y-82250000D03*
X156800000Y-84750000D03*
X157750000Y-84750000D03*
X158700000Y-84750000D03*
D26*
X135500000Y-51800000D03*
D14*
X133075000Y-142400000D03*
X133075000Y-141900000D03*
X133075000Y-141400000D03*
X131725000Y-141400000D03*
X131725000Y-141900000D03*
X131725000Y-142400000D03*
D31*
X161000000Y-116600000D03*
D18*
X157450000Y-131000000D03*
X156550000Y-131000000D03*
D52*
X123500000Y-80250000D03*
D20*
X171800000Y-55575000D03*
X171800000Y-54625000D03*
D18*
X136250000Y-114900000D03*
X137150000Y-114900000D03*
D26*
X135500000Y-76800000D03*
D18*
X179950000Y-76600000D03*
X179050000Y-76600000D03*
D35*
X175600000Y-144100000D03*
D36*
X177400000Y-144100000D03*
X177400000Y-142100000D03*
X175400000Y-142100000D03*
D32*
X167250000Y-67000000D03*
D25*
X186100000Y-89400000D03*
D14*
X155375000Y-143900000D03*
X155375000Y-143400000D03*
X155375000Y-142900000D03*
X154025000Y-142900000D03*
X154025000Y-143400000D03*
X154025000Y-143900000D03*
D18*
X157450000Y-143500000D03*
X156550000Y-143500000D03*
D30*
X145600000Y-67850000D03*
X145600000Y-66150000D03*
D27*
X143900000Y-141725000D03*
X143900000Y-143275000D03*
D21*
X167300000Y-130285000D03*
X167300000Y-131315000D03*
D37*
X172720000Y-141200000D03*
X174080000Y-141200000D03*
D18*
X156150000Y-129400000D03*
X155250000Y-129400000D03*
D26*
X135500000Y-89300000D03*
D17*
X159900000Y-81150000D03*
X159900000Y-82050000D03*
D14*
X133725000Y-126500000D03*
X133725000Y-127000000D03*
X133725000Y-127500000D03*
X135075000Y-127500000D03*
X135075000Y-127000000D03*
X135075000Y-126500000D03*
D18*
X177750000Y-58100000D03*
X176850000Y-58100000D03*
X150150000Y-118600000D03*
X151050000Y-118600000D03*
D15*
X142500000Y-81875000D03*
X143000000Y-81875000D03*
X143500000Y-81875000D03*
X143500000Y-80525000D03*
X143000000Y-80525000D03*
X142500000Y-80525000D03*
X171500000Y-128625000D03*
X171000000Y-128625000D03*
X170500000Y-128625000D03*
X170500000Y-129975000D03*
X171000000Y-129975000D03*
X171500000Y-129975000D03*
D18*
X134050000Y-133900000D03*
X134950000Y-133900000D03*
D20*
X172100000Y-118225000D03*
X172100000Y-119175000D03*
D17*
X183000000Y-58850000D03*
X183000000Y-57950000D03*
D20*
X139700000Y-67275000D03*
X139700000Y-66325000D03*
D35*
X138400000Y-53900000D03*
D36*
X136600000Y-53900000D03*
X136600000Y-55900000D03*
X138600000Y-55900000D03*
D17*
X169500000Y-130150000D03*
X169500000Y-131050000D03*
X144500000Y-92850000D03*
X144500000Y-91950000D03*
D10*
X186100000Y-67400000D03*
D17*
X183000000Y-71350000D03*
X183000000Y-70450000D03*
D31*
X142700000Y-141600000D03*
D11*
X160750000Y-89000000D03*
X164250000Y-89000000D03*
D31*
X142700000Y-129100000D03*
D17*
X140400000Y-115900000D03*
X140400000Y-116800000D03*
X174600000Y-65450000D03*
X174600000Y-66350000D03*
X174700000Y-68700000D03*
X174700000Y-69600000D03*
D16*
X133550000Y-118500000D03*
X132050000Y-118500000D03*
D15*
X171500000Y-141125000D03*
X171000000Y-141125000D03*
X170500000Y-141125000D03*
X170500000Y-142475000D03*
X171000000Y-142475000D03*
X171500000Y-142475000D03*
D17*
X143200000Y-54750000D03*
X143200000Y-53850000D03*
D52*
X123500000Y-117750000D03*
D21*
X146700000Y-92715000D03*
X146700000Y-91685000D03*
D14*
X134025000Y-95400000D03*
X134025000Y-95900000D03*
X134025000Y-96400000D03*
X135375000Y-96400000D03*
X135375000Y-95900000D03*
X135375000Y-95400000D03*
D37*
X141280000Y-69300000D03*
X139920000Y-69300000D03*
D22*
X162300000Y-129550000D03*
X162300000Y-131650000D03*
D12*
X137535000Y-133750000D03*
X136265000Y-133750000D03*
D49*
X181750000Y-144125000D03*
D50*
X181125000Y-144050000D03*
D51*
X181750000Y-143300000D03*
X181750000Y-142200000D03*
D50*
X181125000Y-141450000D03*
D49*
X181750000Y-141375000D03*
X184250000Y-81625000D03*
D50*
X183625000Y-81550000D03*
D51*
X184250000Y-80800000D03*
X184250000Y-79700000D03*
D50*
X183625000Y-78950000D03*
D49*
X184250000Y-78875000D03*
D18*
X168550000Y-141600000D03*
X167650000Y-141600000D03*
D16*
X181350000Y-146100000D03*
X179850000Y-146100000D03*
D18*
X152150000Y-119900000D03*
X153050000Y-119900000D03*
D30*
X168400000Y-117650000D03*
X168400000Y-119350000D03*
D22*
X151700000Y-80950000D03*
X151700000Y-78850000D03*
D49*
X132250000Y-53875000D03*
D50*
X132875000Y-53950000D03*
D51*
X132250000Y-54700000D03*
X132250000Y-55800000D03*
D50*
X132875000Y-56550000D03*
D49*
X132250000Y-56625000D03*
D53*
X175850000Y-79450000D03*
D54*
X175850000Y-79850000D03*
X175850000Y-80250000D03*
X175850000Y-80650000D03*
D55*
X175850000Y-81050000D03*
D56*
X176500000Y-81700000D03*
D57*
X176900000Y-81700000D03*
X177300000Y-81700000D03*
X177700000Y-81700000D03*
D58*
X178100000Y-81700000D03*
D59*
X178750000Y-81050000D03*
D54*
X178750000Y-80650000D03*
X178750000Y-80250000D03*
X178750000Y-79850000D03*
D60*
X178750000Y-79450000D03*
D61*
X178100000Y-78800000D03*
D57*
X177700000Y-78800000D03*
X177300000Y-78800000D03*
X176900000Y-78800000D03*
D62*
X176500000Y-78800000D03*
D48*
X177300000Y-80250000D03*
D21*
X161000000Y-78985000D03*
X161000000Y-80015000D03*
D12*
X176465000Y-76750000D03*
X177735000Y-76750000D03*
D35*
X138400000Y-78900000D03*
D36*
X136600000Y-78900000D03*
X136600000Y-80900000D03*
X138600000Y-80900000D03*
D32*
X132200000Y-58200000D03*
D10*
X186100000Y-92400000D03*
D19*
X174100000Y-64350000D03*
D25*
X129500000Y-139400000D03*
D19*
X174100000Y-89350000D03*
D13*
X158450000Y-132250000D03*
X157500000Y-132250000D03*
X156550000Y-132250000D03*
X156550000Y-134750000D03*
X157500000Y-134750000D03*
X158450000Y-134750000D03*
D17*
X152000000Y-131450000D03*
X152000000Y-130550000D03*
D21*
X146700000Y-67715000D03*
X146700000Y-66685000D03*
D33*
X178450000Y-119650000D03*
X179750000Y-119650000D03*
X179100000Y-117750000D03*
D17*
X148200000Y-118950000D03*
X148200000Y-119850000D03*
D16*
X181350000Y-121100000D03*
X179850000Y-121100000D03*
D17*
X153100000Y-80350000D03*
X153100000Y-79450000D03*
D18*
X165550000Y-141100000D03*
X166450000Y-141100000D03*
D13*
X155550000Y-65750000D03*
X156500000Y-65750000D03*
X157450000Y-65750000D03*
X157450000Y-63250000D03*
X156500000Y-63250000D03*
X155550000Y-63250000D03*
D14*
X134025000Y-70400000D03*
X134025000Y-70900000D03*
X134025000Y-71400000D03*
X135375000Y-71400000D03*
X135375000Y-70900000D03*
X135375000Y-70400000D03*
D18*
X177750000Y-95600000D03*
X176850000Y-95600000D03*
D34*
X148300000Y-140700000D03*
X148300000Y-142200000D03*
D25*
X184500000Y-58600000D03*
D18*
X156550000Y-92000000D03*
X157450000Y-92000000D03*
D23*
X159750000Y-130400000D03*
X159750000Y-129100000D03*
X157850000Y-129750000D03*
D14*
X163125000Y-93800000D03*
X163125000Y-94300000D03*
X163125000Y-94800000D03*
X164475000Y-94800000D03*
X164475000Y-94300000D03*
X164475000Y-93800000D03*
D18*
X179950000Y-64100000D03*
X179050000Y-64100000D03*
D17*
X143200000Y-92250000D03*
X143200000Y-91350000D03*
D14*
X182675000Y-52500000D03*
X182675000Y-52000000D03*
X182675000Y-51500000D03*
X181325000Y-51500000D03*
X181325000Y-52000000D03*
X181325000Y-52500000D03*
X180925000Y-80600000D03*
X180925000Y-81100000D03*
X180925000Y-81600000D03*
X182275000Y-81600000D03*
X182275000Y-81100000D03*
X182275000Y-80600000D03*
D18*
X150150000Y-143600000D03*
X151050000Y-143600000D03*
X134050000Y-146400000D03*
X134950000Y-146400000D03*
D34*
X165700000Y-94800000D03*
X165700000Y-93300000D03*
D25*
X128000000Y-126900000D03*
X129500000Y-121100000D03*
D18*
X161850000Y-65600000D03*
X160950000Y-65600000D03*
D17*
X169500000Y-117650000D03*
X169500000Y-118550000D03*
D15*
X150400000Y-80025000D03*
X149900000Y-80025000D03*
X149400000Y-80025000D03*
X149400000Y-81375000D03*
X149900000Y-81375000D03*
X150400000Y-81375000D03*
D31*
X153000000Y-81400000D03*
D14*
X179975000Y-127600000D03*
X179975000Y-127100000D03*
X179975000Y-126600000D03*
X178625000Y-126600000D03*
X178625000Y-127100000D03*
X178625000Y-127600000D03*
D26*
X135500000Y-64300000D03*
D17*
X173200000Y-130750000D03*
X173200000Y-131650000D03*
D49*
X129750000Y-116375000D03*
D50*
X130375000Y-116450000D03*
D51*
X129750000Y-117200000D03*
X129750000Y-118300000D03*
D50*
X130375000Y-119050000D03*
D49*
X129750000Y-119125000D03*
D19*
X174100000Y-58650000D03*
D17*
X131000000Y-139150000D03*
X131000000Y-140050000D03*
X139300000Y-116800000D03*
X139300000Y-115900000D03*
D31*
X171300000Y-56400000D03*
D21*
X153000000Y-119015000D03*
X153000000Y-117985000D03*
D16*
X180450000Y-54500000D03*
X181950000Y-54500000D03*
D25*
X186100000Y-64400000D03*
D17*
X183000000Y-96350000D03*
X183000000Y-95450000D03*
D14*
X180275000Y-71500000D03*
X180275000Y-71000000D03*
X180275000Y-70500000D03*
X178925000Y-70500000D03*
X178925000Y-71000000D03*
X178925000Y-71500000D03*
D13*
X158450000Y-144750000D03*
X157500000Y-144750000D03*
X156550000Y-144750000D03*
X156550000Y-147250000D03*
X157500000Y-147250000D03*
X158450000Y-147250000D03*
D14*
X150875000Y-116700000D03*
X150875000Y-116200000D03*
X150875000Y-115700000D03*
X149525000Y-115700000D03*
X149525000Y-116200000D03*
X149525000Y-116700000D03*
D38*
X138150000Y-118550000D03*
D39*
X138150000Y-118150000D03*
X138150000Y-117750000D03*
X138150000Y-117350000D03*
D40*
X138150000Y-116950000D03*
D41*
X137500000Y-116300000D03*
D42*
X137100000Y-116300000D03*
X136700000Y-116300000D03*
X136300000Y-116300000D03*
D43*
X135900000Y-116300000D03*
D44*
X135250000Y-116950000D03*
D39*
X135250000Y-117350000D03*
X135250000Y-117750000D03*
X135250000Y-118150000D03*
D45*
X135250000Y-118550000D03*
D46*
X135900000Y-119200000D03*
D42*
X136300000Y-119200000D03*
X136700000Y-119200000D03*
X137100000Y-119200000D03*
D47*
X137500000Y-119200000D03*
D48*
X136700000Y-117750000D03*
D52*
X123500000Y-105250000D03*
D20*
X139700000Y-92275000D03*
X139700000Y-91325000D03*
D18*
X148450000Y-81900000D03*
X147550000Y-81900000D03*
X172550000Y-117300000D03*
X173450000Y-117300000D03*
D17*
X149200000Y-119850000D03*
X149200000Y-118950000D03*
D14*
X182675000Y-65000000D03*
X182675000Y-64500000D03*
X182675000Y-64000000D03*
X181325000Y-64000000D03*
X181325000Y-64500000D03*
X181325000Y-65000000D03*
D30*
X145600000Y-80350000D03*
X145600000Y-78650000D03*
D12*
X137535000Y-121250000D03*
X136265000Y-121250000D03*
D52*
X123500000Y-92750000D03*
D21*
X167300000Y-142785000D03*
X167300000Y-143815000D03*
D11*
X153250000Y-139000000D03*
X149750000Y-139000000D03*
D24*
X145400000Y-129225000D03*
X145400000Y-130775000D03*
D37*
X141280000Y-81800000D03*
X139920000Y-81800000D03*
D18*
X161850000Y-53100000D03*
X160950000Y-53100000D03*
X136250000Y-127400000D03*
X137150000Y-127400000D03*
D27*
X170100000Y-81275000D03*
X170100000Y-79725000D03*
D18*
X163850000Y-91900000D03*
X162950000Y-91900000D03*
D25*
X129500000Y-133600000D03*
D17*
X140400000Y-128400000D03*
X140400000Y-129300000D03*
D18*
X147550000Y-93400000D03*
X148450000Y-93400000D03*
X134050000Y-132600000D03*
X134950000Y-132600000D03*
D38*
X138150000Y-143550000D03*
D39*
X138150000Y-143150000D03*
X138150000Y-142750000D03*
X138150000Y-142350000D03*
D40*
X138150000Y-141950000D03*
D41*
X137500000Y-141300000D03*
D42*
X137100000Y-141300000D03*
X136700000Y-141300000D03*
X136300000Y-141300000D03*
D43*
X135900000Y-141300000D03*
D44*
X135250000Y-141950000D03*
D39*
X135250000Y-142350000D03*
X135250000Y-142750000D03*
X135250000Y-143150000D03*
D45*
X135250000Y-143550000D03*
D46*
X135900000Y-144200000D03*
D42*
X136300000Y-144200000D03*
X136700000Y-144200000D03*
X137100000Y-144200000D03*
D47*
X137500000Y-144200000D03*
D48*
X136700000Y-142750000D03*
D18*
X133950000Y-69400000D03*
X134850000Y-69400000D03*
D30*
X168400000Y-142650000D03*
X168400000Y-144350000D03*
D17*
X148400000Y-54050000D03*
X148400000Y-54950000D03*
D32*
X181800000Y-139800000D03*
D13*
X155550000Y-90750000D03*
X156500000Y-90750000D03*
X157450000Y-90750000D03*
X157450000Y-88250000D03*
X156500000Y-88250000D03*
X155550000Y-88250000D03*
D18*
X157850000Y-68600000D03*
X158750000Y-68600000D03*
X173750000Y-79500000D03*
X172850000Y-79500000D03*
D17*
X164800000Y-90650000D03*
X164800000Y-91550000D03*
D18*
X157850000Y-81100000D03*
X158750000Y-81100000D03*
D25*
X184500000Y-89400000D03*
D18*
X162950000Y-78400000D03*
X163850000Y-78400000D03*
D25*
X184500000Y-51900000D03*
D17*
X179900000Y-94050000D03*
X179900000Y-93150000D03*
D20*
X171800000Y-93075000D03*
X171800000Y-92125000D03*
D17*
X174600000Y-77950000D03*
X174600000Y-78850000D03*
X162000000Y-79050000D03*
X162000000Y-79950000D03*
D19*
X174100000Y-76850000D03*
D24*
X168600000Y-56275000D03*
X168600000Y-54725000D03*
D20*
X141900000Y-79775000D03*
X141900000Y-78825000D03*
D17*
X139400000Y-132550000D03*
X139400000Y-131650000D03*
D14*
X163125000Y-68800000D03*
X163125000Y-69300000D03*
X163125000Y-69800000D03*
X164475000Y-69800000D03*
X164475000Y-69300000D03*
X164475000Y-68800000D03*
D33*
X135550000Y-78350000D03*
X134250000Y-78350000D03*
X134900000Y-80250000D03*
D18*
X179950000Y-65400000D03*
X179050000Y-65400000D03*
D33*
X178450000Y-132150000D03*
X179750000Y-132150000D03*
X179100000Y-130250000D03*
D21*
X153000000Y-131515000D03*
X153000000Y-130485000D03*
D16*
X132650000Y-51900000D03*
X134150000Y-51900000D03*
D25*
X186000000Y-58600000D03*
D52*
X123500000Y-142750000D03*
D18*
X151050000Y-132100000D03*
X150150000Y-132100000D03*
X134050000Y-120100000D03*
X134950000Y-120100000D03*
D12*
X176465000Y-64250000D03*
X177735000Y-64250000D03*
G36*
X141000500Y-100999793D02*
G01*
X141000500Y-102500207D01*
X141000207Y-102500500D01*
X138899793Y-102500500D01*
X138899500Y-102500207D01*
X138899500Y-100999793D01*
X138899793Y-100999500D01*
X141000207Y-100999500D01*
X141000500Y-100999793D01*
G37*
G36*
X141000500Y-132999793D02*
G01*
X141000500Y-134500207D01*
X141000207Y-134500500D01*
X138899793Y-134500500D01*
X138899500Y-134500207D01*
X138899500Y-132999793D01*
X138899793Y-132999500D01*
X141000207Y-132999500D01*
X141000500Y-132999793D01*
G37*
G36*
X141000500Y-145499793D02*
G01*
X141000500Y-147000207D01*
X141000207Y-147000500D01*
X138899793Y-147000500D01*
X138899500Y-147000207D01*
X138899500Y-145499793D01*
X138899793Y-145499500D01*
X141000207Y-145499500D01*
X141000500Y-145499793D01*
G37*
G36*
X175100500Y-75999793D02*
G01*
X175100500Y-77500207D01*
X175100207Y-77500500D01*
X172999793Y-77500500D01*
X172999500Y-77500207D01*
X172999500Y-75999793D01*
X172999793Y-75999500D01*
X175100207Y-75999500D01*
X175100500Y-75999793D01*
G37*
G36*
X175100500Y-95499793D02*
G01*
X175100500Y-97000207D01*
X175100207Y-97000500D01*
X172999793Y-97000500D01*
X172999500Y-97000207D01*
X172999500Y-95499793D01*
X172999793Y-95499500D01*
X175100207Y-95499500D01*
X175100500Y-95499793D01*
G37*
G36*
X175100500Y-50999793D02*
G01*
X175100500Y-52500207D01*
X175100207Y-52500500D01*
X172999793Y-52500500D01*
X172999500Y-52500207D01*
X172999500Y-50999793D01*
X172999793Y-50999500D01*
X175100207Y-50999500D01*
X175100500Y-50999793D01*
G37*
G36*
X141000500Y-113499793D02*
G01*
X141000500Y-115000207D01*
X141000207Y-115000500D01*
X138899793Y-115000500D01*
X138899500Y-115000207D01*
X138899500Y-113499793D01*
X138899793Y-113499500D01*
X141000207Y-113499500D01*
X141000500Y-113499793D01*
G37*
G36*
X175100500Y-82999793D02*
G01*
X175100500Y-84500207D01*
X175100207Y-84500500D01*
X172999793Y-84500500D01*
X172999500Y-84500207D01*
X172999500Y-82999793D01*
X172999793Y-82999500D01*
X175100207Y-82999500D01*
X175100500Y-82999793D01*
G37*
G36*
X175100500Y-88499793D02*
G01*
X175100500Y-90000207D01*
X175100207Y-90000500D01*
X172999793Y-90000500D01*
X172999500Y-90000207D01*
X172999500Y-88499793D01*
X172999793Y-88499500D01*
X175100207Y-88499500D01*
X175100500Y-88499793D01*
G37*
G36*
X175100500Y-70499793D02*
G01*
X175100500Y-72000207D01*
X175100207Y-72000500D01*
X172999793Y-72000500D01*
X172999500Y-72000207D01*
X172999500Y-70499793D01*
X172999793Y-70499500D01*
X175100207Y-70499500D01*
X175100500Y-70499793D01*
G37*
G36*
X141000500Y-107999793D02*
G01*
X141000500Y-109500207D01*
X141000207Y-109500500D01*
X138899793Y-109500500D01*
X138899500Y-109500207D01*
X138899500Y-107999793D01*
X138899793Y-107999500D01*
X141000207Y-107999500D01*
X141000500Y-107999793D01*
G37*
G36*
X141000500Y-138499793D02*
G01*
X141000500Y-140000207D01*
X141000207Y-140000500D01*
X138899793Y-140000500D01*
X138899500Y-140000207D01*
X138899500Y-138499793D01*
X138899793Y-138499500D01*
X141000207Y-138499500D01*
X141000500Y-138499793D01*
G37*
G36*
X175100500Y-57999793D02*
G01*
X175100500Y-59500207D01*
X175100207Y-59500500D01*
X172999793Y-59500500D01*
X172999500Y-59500207D01*
X172999500Y-57999793D01*
X172999793Y-57999500D01*
X175100207Y-57999500D01*
X175100500Y-57999793D01*
G37*
G36*
X141000500Y-120499793D02*
G01*
X141000500Y-122000207D01*
X141000207Y-122000500D01*
X138899793Y-122000500D01*
X138899500Y-122000207D01*
X138899500Y-120499793D01*
X138899793Y-120499500D01*
X141000207Y-120499500D01*
X141000500Y-120499793D01*
G37*
G36*
X141000500Y-125999793D02*
G01*
X141000500Y-127500207D01*
X141000207Y-127500500D01*
X138899793Y-127500500D01*
X138899500Y-127500207D01*
X138899500Y-125999793D01*
X138899793Y-125999500D01*
X141000207Y-125999500D01*
X141000500Y-125999793D01*
G37*
G36*
X175100500Y-63499793D02*
G01*
X175100500Y-65000207D01*
X175100207Y-65000500D01*
X172999793Y-65000500D01*
X172999500Y-65000207D01*
X172999500Y-63499793D01*
X172999793Y-63499500D01*
X175100207Y-63499500D01*
X175100500Y-63499793D01*
G37*
G36*
X154000500Y-146799793D02*
G01*
X154000500Y-147500207D01*
X154000207Y-147500500D01*
X152499793Y-147500500D01*
X152499500Y-147500207D01*
X152499500Y-146799793D01*
X152499793Y-146799500D01*
X154000207Y-146799500D01*
X154000500Y-146799793D01*
G37*
G36*
X151993039Y-115619685D02*
G01*
X152038794Y-115672489D01*
X152050000Y-115724000D01*
X152050000Y-116576000D01*
X152030315Y-116643039D01*
X151977511Y-116688794D01*
X151926000Y-116700000D01*
X151774000Y-116700000D01*
X151706961Y-116680315D01*
X151661206Y-116627511D01*
X151650000Y-116576000D01*
X151650000Y-115724000D01*
X151669685Y-115656961D01*
X151722489Y-115611206D01*
X151774000Y-115600000D01*
X151926000Y-115600000D01*
X151993039Y-115619685D01*
G37*
G36*
X162293039Y-81319685D02*
G01*
X162338794Y-81372489D01*
X162350000Y-81424000D01*
X162350000Y-82276000D01*
X162330315Y-82343039D01*
X162277511Y-82388794D01*
X162226000Y-82400000D01*
X162074000Y-82400000D01*
X162006961Y-82380315D01*
X161961206Y-82327511D01*
X161950000Y-82276000D01*
X161950000Y-81424000D01*
X161969685Y-81356961D01*
X162022489Y-81311206D01*
X162074000Y-81300000D01*
X162226000Y-81300000D01*
X162293039Y-81319685D01*
G37*
G36*
X150500500Y-146799793D02*
G01*
X150500500Y-147500207D01*
X150500207Y-147500500D01*
X148999793Y-147500500D01*
X148999500Y-147500207D01*
X148999500Y-146799793D01*
X148999793Y-146799500D01*
X150500207Y-146799500D01*
X150500500Y-146799793D01*
G37*
G36*
X150500500Y-125499793D02*
G01*
X150500500Y-126200207D01*
X150500207Y-126200500D01*
X148999793Y-126200500D01*
X148999500Y-126200207D01*
X148999500Y-125499793D01*
X148999793Y-125499500D01*
X150500207Y-125499500D01*
X150500500Y-125499793D01*
G37*
G36*
X151993039Y-140619685D02*
G01*
X152038794Y-140672489D01*
X152050000Y-140724000D01*
X152050000Y-141576000D01*
X152030315Y-141643039D01*
X151977511Y-141688794D01*
X151926000Y-141700000D01*
X151774000Y-141700000D01*
X151706961Y-141680315D01*
X151661206Y-141627511D01*
X151650000Y-141576000D01*
X151650000Y-140724000D01*
X151669685Y-140656961D01*
X151722489Y-140611206D01*
X151774000Y-140600000D01*
X151926000Y-140600000D01*
X151993039Y-140619685D01*
G37*
G36*
X131000500Y-69899793D02*
G01*
X131000500Y-72000207D01*
X131000207Y-72000500D01*
X126999793Y-72000500D01*
X126999500Y-72000207D01*
X126999500Y-69899793D01*
X126999793Y-69899500D01*
X131000207Y-69899500D01*
X131000500Y-69899793D01*
G37*
G36*
X161500500Y-87999793D02*
G01*
X161500500Y-88700207D01*
X161500207Y-88700500D01*
X159999793Y-88700500D01*
X159999500Y-88700207D01*
X159999500Y-87999793D01*
X159999793Y-87999500D01*
X161500207Y-87999500D01*
X161500500Y-87999793D01*
G37*
G36*
X187000500Y-113499793D02*
G01*
X187000500Y-115600207D01*
X187000207Y-115600500D01*
X182999793Y-115600500D01*
X182999500Y-115600207D01*
X182999500Y-113499793D01*
X182999793Y-113499500D01*
X187000207Y-113499500D01*
X187000500Y-113499793D01*
G37*
G36*
X162293039Y-68819685D02*
G01*
X162338794Y-68872489D01*
X162350000Y-68924000D01*
X162350000Y-69776000D01*
X162330315Y-69843039D01*
X162277511Y-69888794D01*
X162226000Y-69900000D01*
X162074000Y-69900000D01*
X162006961Y-69880315D01*
X161961206Y-69827511D01*
X161950000Y-69776000D01*
X161950000Y-68924000D01*
X161969685Y-68856961D01*
X162022489Y-68811206D01*
X162074000Y-68800000D01*
X162226000Y-68800000D01*
X162293039Y-68819685D01*
G37*
G36*
X131000500Y-63499793D02*
G01*
X131000500Y-65600207D01*
X131000207Y-65600500D01*
X126999793Y-65600500D01*
X126999500Y-65600207D01*
X126999500Y-63499793D01*
X126999793Y-63499500D01*
X131000207Y-63499500D01*
X131000500Y-63499793D01*
G37*
G36*
X131000500Y-50999793D02*
G01*
X131000500Y-53100207D01*
X131000207Y-53100500D01*
X126999793Y-53100500D01*
X126999500Y-53100207D01*
X126999500Y-50999793D01*
X126999793Y-50999500D01*
X131000207Y-50999500D01*
X131000500Y-50999793D01*
G37*
G36*
X150500500Y-112999793D02*
G01*
X150500500Y-113700207D01*
X150500207Y-113700500D01*
X148999793Y-113700500D01*
X148999500Y-113700207D01*
X148999500Y-112999793D01*
X148999793Y-112999500D01*
X150500207Y-112999500D01*
X150500500Y-112999793D01*
G37*
G36*
X165000500Y-62999793D02*
G01*
X165000500Y-63700207D01*
X165000207Y-63700500D01*
X163499793Y-63700500D01*
X163499500Y-63700207D01*
X163499500Y-62999793D01*
X163499793Y-62999500D01*
X165000207Y-62999500D01*
X165000500Y-62999793D01*
G37*
G36*
X154000500Y-137999793D02*
G01*
X154000500Y-138700207D01*
X154000207Y-138700500D01*
X152499793Y-138700500D01*
X152499500Y-138700207D01*
X152499500Y-137999793D01*
X152499793Y-137999500D01*
X154000207Y-137999500D01*
X154000500Y-137999793D01*
G37*
G36*
X161500500Y-75499793D02*
G01*
X161500500Y-76200207D01*
X161500207Y-76200500D01*
X159999793Y-76200500D01*
X159999500Y-76200207D01*
X159999500Y-75499793D01*
X159999793Y-75499500D01*
X161500207Y-75499500D01*
X161500500Y-75499793D01*
G37*
G36*
X150500500Y-100499793D02*
G01*
X150500500Y-101200207D01*
X150500207Y-101200500D01*
X148999793Y-101200500D01*
X148999500Y-101200207D01*
X148999500Y-100499793D01*
X148999793Y-100499500D01*
X150500207Y-100499500D01*
X150500500Y-100499793D01*
G37*
G36*
X165000500Y-96799793D02*
G01*
X165000500Y-97500207D01*
X165000207Y-97500500D01*
X163499793Y-97500500D01*
X163499500Y-97500207D01*
X163499500Y-96799793D01*
X163499793Y-96799500D01*
X165000207Y-96799500D01*
X165000500Y-96799793D01*
G37*
G36*
X131000500Y-82399793D02*
G01*
X131000500Y-84500207D01*
X131000207Y-84500500D01*
X126999793Y-84500500D01*
X126999500Y-84500207D01*
X126999500Y-82399793D01*
X126999793Y-82399500D01*
X131000207Y-82399500D01*
X131000500Y-82399793D01*
G37*
G36*
X161500500Y-71799793D02*
G01*
X161500500Y-72500207D01*
X161500207Y-72500500D01*
X159999793Y-72500500D01*
X159999500Y-72500207D01*
X159999500Y-71799793D01*
X159999793Y-71799500D01*
X161500207Y-71799500D01*
X161500500Y-71799793D01*
G37*
G36*
X162293039Y-56319685D02*
G01*
X162338794Y-56372489D01*
X162350000Y-56424000D01*
X162350000Y-57276000D01*
X162330315Y-57343039D01*
X162277511Y-57388794D01*
X162226000Y-57400000D01*
X162074000Y-57400000D01*
X162006961Y-57380315D01*
X161961206Y-57327511D01*
X161950000Y-57276000D01*
X161950000Y-56424000D01*
X161969685Y-56356961D01*
X162022489Y-56311206D01*
X162074000Y-56300000D01*
X162226000Y-56300000D01*
X162293039Y-56319685D01*
G37*
G36*
X165000500Y-50499793D02*
G01*
X165000500Y-51200207D01*
X165000207Y-51200500D01*
X163499793Y-51200500D01*
X163499500Y-51200207D01*
X163499500Y-50499793D01*
X163499793Y-50499500D01*
X165000207Y-50499500D01*
X165000500Y-50499793D01*
G37*
G36*
X131000500Y-75999793D02*
G01*
X131000500Y-78100207D01*
X131000207Y-78100500D01*
X126999793Y-78100500D01*
X126999500Y-78100207D01*
X126999500Y-75999793D01*
X126999793Y-75999500D01*
X131000207Y-75999500D01*
X131000500Y-75999793D01*
G37*
G36*
X161500500Y-50499793D02*
G01*
X161500500Y-51200207D01*
X161500207Y-51200500D01*
X159999793Y-51200500D01*
X159999500Y-51200207D01*
X159999500Y-50499793D01*
X159999793Y-50499500D01*
X161500207Y-50499500D01*
X161500500Y-50499793D01*
G37*
G36*
X162293039Y-93819685D02*
G01*
X162338794Y-93872489D01*
X162350000Y-93924000D01*
X162350000Y-94776000D01*
X162330315Y-94843039D01*
X162277511Y-94888794D01*
X162226000Y-94900000D01*
X162074000Y-94900000D01*
X162006961Y-94880315D01*
X161961206Y-94827511D01*
X161950000Y-94776000D01*
X161950000Y-93924000D01*
X161969685Y-93856961D01*
X162022489Y-93811206D01*
X162074000Y-93800000D01*
X162226000Y-93800000D01*
X162293039Y-93819685D01*
G37*
G36*
X165000500Y-75499793D02*
G01*
X165000500Y-76200207D01*
X165000207Y-76200500D01*
X163499793Y-76200500D01*
X163499500Y-76200207D01*
X163499500Y-75499793D01*
X163499793Y-75499500D01*
X165000207Y-75499500D01*
X165000500Y-75499793D01*
G37*
G36*
X161500500Y-62999793D02*
G01*
X161500500Y-63700207D01*
X161500207Y-63700500D01*
X159999793Y-63700500D01*
X159999500Y-63700207D01*
X159999500Y-62999793D01*
X159999793Y-62999500D01*
X161500207Y-62999500D01*
X161500500Y-62999793D01*
G37*
G36*
X187000500Y-138499793D02*
G01*
X187000500Y-140600207D01*
X187000207Y-140600500D01*
X182999793Y-140600500D01*
X182999500Y-140600207D01*
X182999500Y-138499793D01*
X182999793Y-138499500D01*
X187000207Y-138499500D01*
X187000500Y-138499793D01*
G37*
G36*
X187000500Y-125999793D02*
G01*
X187000500Y-128100207D01*
X187000207Y-128100500D01*
X182999793Y-128100500D01*
X182999500Y-128100207D01*
X182999500Y-125999793D01*
X182999793Y-125999500D01*
X187000207Y-125999500D01*
X187000500Y-125999793D01*
G37*
G36*
X151993039Y-128119685D02*
G01*
X152038794Y-128172489D01*
X152050000Y-128224000D01*
X152050000Y-129076000D01*
X152030315Y-129143039D01*
X151977511Y-129188794D01*
X151926000Y-129200000D01*
X151774000Y-129200000D01*
X151706961Y-129180315D01*
X151661206Y-129127511D01*
X151650000Y-129076000D01*
X151650000Y-128224000D01*
X151669685Y-128156961D01*
X151722489Y-128111206D01*
X151774000Y-128100000D01*
X151926000Y-128100000D01*
X151993039Y-128119685D01*
G37*
G36*
X161500500Y-84299793D02*
G01*
X161500500Y-85000207D01*
X161500207Y-85000500D01*
X159999793Y-85000500D01*
X159999500Y-85000207D01*
X159999500Y-84299793D01*
X159999793Y-84299500D01*
X161500207Y-84299500D01*
X161500500Y-84299793D01*
G37*
G36*
X161500500Y-59299793D02*
G01*
X161500500Y-60000207D01*
X161500207Y-60000500D01*
X159999793Y-60000500D01*
X159999500Y-60000207D01*
X159999500Y-59299793D01*
X159999793Y-59299500D01*
X161500207Y-59299500D01*
X161500500Y-59299793D01*
G37*
G36*
X154000500Y-100499793D02*
G01*
X154000500Y-101200207D01*
X154000207Y-101200500D01*
X152499793Y-101200500D01*
X152499500Y-101200207D01*
X152499500Y-100499793D01*
X152499793Y-100499500D01*
X154000207Y-100499500D01*
X154000500Y-100499793D01*
G37*
G36*
X150500500Y-109299793D02*
G01*
X150500500Y-110000207D01*
X150500207Y-110000500D01*
X148999793Y-110000500D01*
X148999500Y-110000207D01*
X148999500Y-109299793D01*
X148999793Y-109299500D01*
X150500207Y-109299500D01*
X150500500Y-109299793D01*
G37*
G36*
X131000500Y-57399793D02*
G01*
X131000500Y-59500207D01*
X131000207Y-59500500D01*
X126999793Y-59500500D01*
X126999500Y-59500207D01*
X126999500Y-57399793D01*
X126999793Y-57399500D01*
X131000207Y-57399500D01*
X131000500Y-57399793D01*
G37*
G36*
X150500500Y-137999793D02*
G01*
X150500500Y-138700207D01*
X150500207Y-138700500D01*
X148999793Y-138700500D01*
X148999500Y-138700207D01*
X148999500Y-137999793D01*
X148999793Y-137999500D01*
X150500207Y-137999500D01*
X150500500Y-137999793D01*
G37*
G36*
X154000500Y-125499793D02*
G01*
X154000500Y-126200207D01*
X154000207Y-126200500D01*
X152499793Y-126200500D01*
X152499500Y-126200207D01*
X152499500Y-125499793D01*
X152499793Y-125499500D01*
X154000207Y-125499500D01*
X154000500Y-125499793D01*
G37*
G36*
X187000500Y-132399793D02*
G01*
X187000500Y-134500207D01*
X187000207Y-134500500D01*
X182999793Y-134500500D01*
X182999500Y-134500207D01*
X182999500Y-132399793D01*
X182999793Y-132399500D01*
X187000207Y-132399500D01*
X187000500Y-132399793D01*
G37*
G36*
X154000500Y-109299793D02*
G01*
X154000500Y-110000207D01*
X154000207Y-110000500D01*
X152499793Y-110000500D01*
X152499500Y-110000207D01*
X152499500Y-109299793D01*
X152499793Y-109299500D01*
X154000207Y-109299500D01*
X154000500Y-109299793D01*
G37*
G36*
X165000500Y-84299793D02*
G01*
X165000500Y-85000207D01*
X165000207Y-85000500D01*
X163499793Y-85000500D01*
X163499500Y-85000207D01*
X163499500Y-84299793D01*
X163499793Y-84299500D01*
X165000207Y-84299500D01*
X165000500Y-84299793D01*
G37*
G36*
X150500500Y-121799793D02*
G01*
X150500500Y-122500207D01*
X150500207Y-122500500D01*
X148999793Y-122500500D01*
X148999500Y-122500207D01*
X148999500Y-121799793D01*
X148999793Y-121799500D01*
X150500207Y-121799500D01*
X150500500Y-121799793D01*
G37*
G36*
X187000500Y-144899793D02*
G01*
X187000500Y-147000207D01*
X187000207Y-147000500D01*
X182999793Y-147000500D01*
X182999500Y-147000207D01*
X182999500Y-144899793D01*
X182999793Y-144899500D01*
X187000207Y-144899500D01*
X187000500Y-144899793D01*
G37*
G36*
X131000500Y-94899793D02*
G01*
X131000500Y-97000207D01*
X131000207Y-97000500D01*
X126999793Y-97000500D01*
X126999500Y-97000207D01*
X126999500Y-94899793D01*
X126999793Y-94899500D01*
X131000207Y-94899500D01*
X131000500Y-94899793D01*
G37*
G36*
X154000500Y-121799793D02*
G01*
X154000500Y-122500207D01*
X154000207Y-122500500D01*
X152499793Y-122500500D01*
X152499500Y-122500207D01*
X152499500Y-121799793D01*
X152499793Y-121799500D01*
X154000207Y-121799500D01*
X154000500Y-121799793D01*
G37*
G36*
X150500500Y-134299793D02*
G01*
X150500500Y-135000207D01*
X150500207Y-135000500D01*
X148999793Y-135000500D01*
X148999500Y-135000207D01*
X148999500Y-134299793D01*
X148999793Y-134299500D01*
X150500207Y-134299500D01*
X150500500Y-134299793D01*
G37*
G36*
X131000500Y-88499793D02*
G01*
X131000500Y-90600207D01*
X131000207Y-90600500D01*
X126999793Y-90600500D01*
X126999500Y-90600207D01*
X126999500Y-88499793D01*
X126999793Y-88499500D01*
X131000207Y-88499500D01*
X131000500Y-88499793D01*
G37*
G36*
X165000500Y-71799793D02*
G01*
X165000500Y-72500207D01*
X165000207Y-72500500D01*
X163499793Y-72500500D01*
X163499500Y-72500207D01*
X163499500Y-71799793D01*
X163499793Y-71799500D01*
X165000207Y-71799500D01*
X165000500Y-71799793D01*
G37*
G36*
X187000500Y-107399793D02*
G01*
X187000500Y-109500207D01*
X187000207Y-109500500D01*
X182999793Y-109500500D01*
X182999500Y-109500207D01*
X182999500Y-107399793D01*
X182999793Y-107399500D01*
X187000207Y-107399500D01*
X187000500Y-107399793D01*
G37*
G36*
X165000500Y-87999793D02*
G01*
X165000500Y-88700207D01*
X165000207Y-88700500D01*
X163499793Y-88700500D01*
X163499500Y-88700207D01*
X163499500Y-87999793D01*
X163499793Y-87999500D01*
X165000207Y-87999500D01*
X165000500Y-87999793D01*
G37*
G36*
X154000500Y-134299793D02*
G01*
X154000500Y-135000207D01*
X154000207Y-135000500D01*
X152499793Y-135000500D01*
X152499500Y-135000207D01*
X152499500Y-134299793D01*
X152499793Y-134299500D01*
X154000207Y-134299500D01*
X154000500Y-134299793D01*
G37*
G36*
X187000500Y-119899793D02*
G01*
X187000500Y-122000207D01*
X187000207Y-122000500D01*
X182999793Y-122000500D01*
X182999500Y-122000207D01*
X182999500Y-119899793D01*
X182999793Y-119899500D01*
X187000207Y-119899500D01*
X187000500Y-119899793D01*
G37*
G36*
X154000500Y-112999793D02*
G01*
X154000500Y-113700207D01*
X154000207Y-113700500D01*
X152499793Y-113700500D01*
X152499500Y-113700207D01*
X152499500Y-112999793D01*
X152499793Y-112999500D01*
X154000207Y-112999500D01*
X154000500Y-112999793D01*
G37*
G36*
X151993039Y-103119685D02*
G01*
X152038794Y-103172489D01*
X152050000Y-103224000D01*
X152050000Y-104076000D01*
X152030315Y-104143039D01*
X151977511Y-104188794D01*
X151926000Y-104200000D01*
X151774000Y-104200000D01*
X151706961Y-104180315D01*
X151661206Y-104127511D01*
X151650000Y-104076000D01*
X151650000Y-103224000D01*
X151669685Y-103156961D01*
X151722489Y-103111206D01*
X151774000Y-103100000D01*
X151926000Y-103100000D01*
X151993039Y-103119685D01*
G37*
G36*
X165000500Y-59299793D02*
G01*
X165000500Y-60000207D01*
X165000207Y-60000500D01*
X163499793Y-60000500D01*
X163499500Y-60000207D01*
X163499500Y-59299793D01*
X163499793Y-59299500D01*
X165000207Y-59299500D01*
X165000500Y-59299793D01*
G37*
G36*
X187000500Y-100999793D02*
G01*
X187000500Y-103100207D01*
X187000207Y-103100500D01*
X182999793Y-103100500D01*
X182999500Y-103100207D01*
X182999500Y-100999793D01*
X182999793Y-100999500D01*
X187000207Y-100999500D01*
X187000500Y-100999793D01*
G37*
G36*
X161500500Y-96799793D02*
G01*
X161500500Y-97500207D01*
X161500207Y-97500500D01*
X159999793Y-97500500D01*
X159999500Y-97500207D01*
X159999500Y-96799793D01*
X159999793Y-96799500D01*
X161500207Y-96799500D01*
X161500500Y-96799793D01*
G37*
M02*
