G04 #@! TF.GenerationSoftware,KiCad,Pcbnew,9.0.8*
G04 #@! TF.CreationDate,2026-09-27T01:38:59+09:00*
G04 #@! TF.ProjectId,motordecoder2-k3066v4-p,6d6f746f-7264-4656-936f-646572322d6b,rev?*
G04 #@! TF.SameCoordinates,Original*
G04 #@! TF.FileFunction,Soldermask,Bot*
G04 #@! TF.FilePolarity,Negative*
%FSLAX46Y46*%
G04 Gerber Fmt 4.6, Leading zero omitted, Abs format (unit mm)*
G04 Created by KiCad (PCBNEW 9.0.8) date 2026-09-27 01:38:59*
%MOMM*%
%LPD*%
G01*
G04 APERTURE LIST*
%ADD10R,1.500000X1.500000*%
%ADD11R,2.000000X1.500000*%
%ADD12R,0.950000X0.950000*%
%ADD13R,1.800000X1.300000*%
%ADD14R,1.000000X1.000000*%
%ADD15R,1.600000X1.800000*%
%ADD16R,2.000000X1.800000*%
%ADD17R,6.300000X1.800000*%
%ADD18C,2.000000*%
G04 APERTURE END LIST*
D10*
X153250000Y-109000000D03*
D11*
X151500000Y-109000000D03*
D10*
X149750000Y-109000000D03*
X153250000Y-101500000D03*
D11*
X151500000Y-101500000D03*
D10*
X149750000Y-101500000D03*
D12*
X137535000Y-108750000D03*
X136265000Y-108750000D03*
D13*
X139900000Y-108650000D03*
X139900000Y-101850000D03*
D14*
X128000000Y-101900000D03*
X129500000Y-101900000D03*
X127900000Y-108600000D03*
X129500000Y-108600000D03*
D15*
X185800000Y-108400000D03*
D16*
X184000000Y-108400000D03*
D17*
X179850000Y-108400000D03*
D15*
X185800000Y-102100000D03*
D16*
X184000000Y-102100000D03*
D17*
X179850000Y-102100000D03*
D14*
X184500000Y-83600000D03*
D13*
X174100000Y-71150000D03*
D10*
X160750000Y-96500000D03*
D11*
X162500000Y-96500000D03*
D10*
X164250000Y-96500000D03*
D18*
X123500000Y-55250000D03*
X123500000Y-130250000D03*
D14*
X184500000Y-71100000D03*
D10*
X160750000Y-59000000D03*
D11*
X162500000Y-59000000D03*
D10*
X164250000Y-59000000D03*
D13*
X139900000Y-126850000D03*
X139900000Y-121150000D03*
D12*
X137535000Y-146250000D03*
X136265000Y-146250000D03*
D10*
X153250000Y-114000000D03*
D11*
X151500000Y-114000000D03*
D10*
X149750000Y-114000000D03*
D15*
X185800000Y-127100000D03*
D16*
X184000000Y-127100000D03*
D17*
X179850000Y-127100000D03*
D10*
X153250000Y-121500000D03*
D11*
X151500000Y-121500000D03*
D10*
X149750000Y-121500000D03*
D18*
X190500000Y-67750000D03*
D14*
X129500000Y-114400000D03*
D10*
X160750000Y-71500000D03*
D11*
X162500000Y-71500000D03*
D10*
X164250000Y-71500000D03*
D18*
X123500000Y-130250000D03*
D14*
X128000000Y-139400000D03*
D15*
X128200000Y-83400000D03*
D16*
X130000000Y-83400000D03*
D17*
X134150000Y-83400000D03*
D10*
X160750000Y-84000000D03*
D11*
X162500000Y-84000000D03*
D10*
X164250000Y-84000000D03*
D13*
X139900000Y-114350000D03*
X174100000Y-51850000D03*
D10*
X153250000Y-126500000D03*
D11*
X151500000Y-126500000D03*
D10*
X149750000Y-126500000D03*
D15*
X128200000Y-95900000D03*
D16*
X130000000Y-95900000D03*
D17*
X134150000Y-95900000D03*
D18*
X123500000Y-67750000D03*
D15*
X185800000Y-133400000D03*
D16*
X184000000Y-133400000D03*
D17*
X179850000Y-133400000D03*
D18*
X190500000Y-92750000D03*
D14*
X184500000Y-64400000D03*
D12*
X176465000Y-51750000D03*
X177735000Y-51750000D03*
D18*
X190500000Y-105250000D03*
D10*
X160750000Y-64000000D03*
D11*
X162500000Y-64000000D03*
D10*
X164250000Y-64000000D03*
D14*
X127900000Y-146100000D03*
D15*
X128200000Y-58400000D03*
D16*
X130000000Y-58400000D03*
D17*
X134150000Y-58400000D03*
D14*
X186000000Y-71100000D03*
X129500000Y-126900000D03*
X186100000Y-51900000D03*
D15*
X185800000Y-139600000D03*
D16*
X184000000Y-139600000D03*
D17*
X179850000Y-139600000D03*
D14*
X186100000Y-76900000D03*
D18*
X190500000Y-117750000D03*
D15*
X128200000Y-70900000D03*
D16*
X130000000Y-70900000D03*
D17*
X134150000Y-70900000D03*
D15*
X128200000Y-89600000D03*
D16*
X130000000Y-89600000D03*
D17*
X134150000Y-89600000D03*
D14*
X127900000Y-121100000D03*
D10*
X160750000Y-51500000D03*
D11*
X162500000Y-51500000D03*
D10*
X164250000Y-51500000D03*
D15*
X128200000Y-77100000D03*
D16*
X130000000Y-77100000D03*
D17*
X134150000Y-77100000D03*
D13*
X139900000Y-133650000D03*
D14*
X186000000Y-96100000D03*
D15*
X185800000Y-114600000D03*
D16*
X184000000Y-114600000D03*
D17*
X179850000Y-114600000D03*
D18*
X190500000Y-80250000D03*
D10*
X160750000Y-76500000D03*
D11*
X162500000Y-76500000D03*
D10*
X164250000Y-76500000D03*
X153250000Y-146500000D03*
D11*
X151500000Y-146500000D03*
D10*
X149750000Y-146500000D03*
D15*
X128200000Y-52100000D03*
D16*
X130000000Y-52100000D03*
D17*
X134150000Y-52100000D03*
D13*
X139900000Y-146150000D03*
D15*
X185800000Y-145900000D03*
D16*
X184000000Y-145900000D03*
D17*
X179850000Y-145900000D03*
D14*
X184500000Y-96100000D03*
D12*
X176465000Y-89250000D03*
X177735000Y-89250000D03*
D15*
X185800000Y-120900000D03*
D16*
X184000000Y-120900000D03*
D17*
X179850000Y-120900000D03*
D13*
X139900000Y-139350000D03*
D15*
X128200000Y-64600000D03*
D16*
X130000000Y-64600000D03*
D17*
X134150000Y-64600000D03*
D13*
X174100000Y-96150000D03*
D14*
X127900000Y-133600000D03*
D18*
X190500000Y-130250000D03*
D10*
X153250000Y-134000000D03*
D11*
X151500000Y-134000000D03*
D10*
X149750000Y-134000000D03*
D18*
X190500000Y-55250000D03*
D14*
X129500000Y-146100000D03*
X128000000Y-114400000D03*
D13*
X174100000Y-83650000D03*
D18*
X190500000Y-142750000D03*
D14*
X186000000Y-83600000D03*
X184500000Y-76900000D03*
D18*
X123500000Y-80250000D03*
D14*
X186100000Y-89400000D03*
D10*
X160750000Y-89000000D03*
D11*
X162500000Y-89000000D03*
D10*
X164250000Y-89000000D03*
D18*
X123500000Y-117750000D03*
D12*
X137535000Y-133750000D03*
X136265000Y-133750000D03*
X176465000Y-76750000D03*
X177735000Y-76750000D03*
D13*
X174100000Y-64350000D03*
D14*
X129500000Y-139400000D03*
D13*
X174100000Y-89350000D03*
D14*
X184500000Y-58600000D03*
X128000000Y-126900000D03*
X129500000Y-121100000D03*
D13*
X174100000Y-58650000D03*
D14*
X186100000Y-64400000D03*
D18*
X123500000Y-105250000D03*
D12*
X137535000Y-121250000D03*
X136265000Y-121250000D03*
D18*
X123500000Y-92750000D03*
D10*
X153250000Y-139000000D03*
D11*
X151500000Y-139000000D03*
D10*
X149750000Y-139000000D03*
D14*
X129500000Y-133600000D03*
X184500000Y-89400000D03*
X184500000Y-51900000D03*
D13*
X174100000Y-76850000D03*
D14*
X186000000Y-58600000D03*
D18*
X123500000Y-142750000D03*
D12*
X176465000Y-64250000D03*
X177735000Y-64250000D03*
G36*
X165000500Y-50499793D02*
G01*
X165000500Y-50900207D01*
X165000207Y-50900500D01*
X159999793Y-50900500D01*
X159999500Y-50900207D01*
X159999500Y-50499793D01*
X159999793Y-50499500D01*
X165000207Y-50499500D01*
X165000500Y-50499793D01*
G37*
G36*
X187000500Y-100999793D02*
G01*
X187000500Y-103000207D01*
X187000207Y-103000500D01*
X176199793Y-103000500D01*
X176199500Y-103000207D01*
X176199500Y-100999793D01*
X176199793Y-100999500D01*
X187000207Y-100999500D01*
X187000500Y-100999793D01*
G37*
G36*
X137800500Y-63499793D02*
G01*
X137800500Y-65500207D01*
X137800207Y-65500500D01*
X126999793Y-65500500D01*
X126999500Y-65500207D01*
X126999500Y-63499793D01*
X126999793Y-63499500D01*
X137800207Y-63499500D01*
X137800500Y-63499793D01*
G37*
G36*
X154000500Y-134599793D02*
G01*
X154000500Y-135000207D01*
X154000207Y-135000500D01*
X148999793Y-135000500D01*
X148999500Y-135000207D01*
X148999500Y-134599793D01*
X148999793Y-134599500D01*
X154000207Y-134599500D01*
X154000500Y-134599793D01*
G37*
G36*
X137800500Y-50999793D02*
G01*
X137800500Y-53000207D01*
X137800207Y-53000500D01*
X126999793Y-53000500D01*
X126999500Y-53000207D01*
X126999500Y-50999793D01*
X126999793Y-50999500D01*
X137800207Y-50999500D01*
X137800500Y-50999793D01*
G37*
G36*
X154000500Y-137999793D02*
G01*
X154000500Y-138400207D01*
X154000207Y-138400500D01*
X148999793Y-138400500D01*
X148999500Y-138400207D01*
X148999500Y-137999793D01*
X148999793Y-137999500D01*
X154000207Y-137999500D01*
X154000500Y-137999793D01*
G37*
G36*
X154000500Y-112999793D02*
G01*
X154000500Y-113400207D01*
X154000207Y-113400500D01*
X148999793Y-113400500D01*
X148999500Y-113400207D01*
X148999500Y-112999793D01*
X148999793Y-112999500D01*
X154000207Y-112999500D01*
X154000500Y-112999793D01*
G37*
G36*
X165000500Y-97099793D02*
G01*
X165000500Y-97500207D01*
X165000207Y-97500500D01*
X159999793Y-97500500D01*
X159999500Y-97500207D01*
X159999500Y-97099793D01*
X159999793Y-97099500D01*
X165000207Y-97099500D01*
X165000500Y-97099793D01*
G37*
G36*
X137800500Y-82499793D02*
G01*
X137800500Y-84500207D01*
X137800207Y-84500500D01*
X126999793Y-84500500D01*
X126999500Y-84500207D01*
X126999500Y-82499793D01*
X126999793Y-82499500D01*
X137800207Y-82499500D01*
X137800500Y-82499793D01*
G37*
G36*
X187000500Y-113499793D02*
G01*
X187000500Y-115500207D01*
X187000207Y-115500500D01*
X176199793Y-115500500D01*
X176199500Y-115500207D01*
X176199500Y-113499793D01*
X176199793Y-113499500D01*
X187000207Y-113499500D01*
X187000500Y-113499793D01*
G37*
G36*
X165000500Y-75499793D02*
G01*
X165000500Y-75900207D01*
X165000207Y-75900500D01*
X159999793Y-75900500D01*
X159999500Y-75900207D01*
X159999500Y-75499793D01*
X159999793Y-75499500D01*
X165000207Y-75499500D01*
X165000500Y-75499793D01*
G37*
G36*
X187000500Y-125999793D02*
G01*
X187000500Y-128000207D01*
X187000207Y-128000500D01*
X176199793Y-128000500D01*
X176199500Y-128000207D01*
X176199500Y-125999793D01*
X176199793Y-125999500D01*
X187000207Y-125999500D01*
X187000500Y-125999793D01*
G37*
G36*
X165000500Y-59599793D02*
G01*
X165000500Y-60000207D01*
X165000207Y-60000500D01*
X159999793Y-60000500D01*
X159999500Y-60000207D01*
X159999500Y-59599793D01*
X159999793Y-59599500D01*
X165000207Y-59599500D01*
X165000500Y-59599793D01*
G37*
G36*
X137800500Y-75999793D02*
G01*
X137800500Y-78000207D01*
X137800207Y-78000500D01*
X126999793Y-78000500D01*
X126999500Y-78000207D01*
X126999500Y-75999793D01*
X126999793Y-75999500D01*
X137800207Y-75999500D01*
X137800500Y-75999793D01*
G37*
G36*
X165000500Y-87999793D02*
G01*
X165000500Y-88400207D01*
X165000207Y-88400500D01*
X159999793Y-88400500D01*
X159999500Y-88400207D01*
X159999500Y-87999793D01*
X159999793Y-87999500D01*
X165000207Y-87999500D01*
X165000500Y-87999793D01*
G37*
G36*
X187000500Y-107499793D02*
G01*
X187000500Y-109500207D01*
X187000207Y-109500500D01*
X176199793Y-109500500D01*
X176199500Y-109500207D01*
X176199500Y-107499793D01*
X176199793Y-107499500D01*
X187000207Y-107499500D01*
X187000500Y-107499793D01*
G37*
G36*
X137800500Y-88499793D02*
G01*
X137800500Y-90500207D01*
X137800207Y-90500500D01*
X126999793Y-90500500D01*
X126999500Y-90500207D01*
X126999500Y-88499793D01*
X126999793Y-88499500D01*
X137800207Y-88499500D01*
X137800500Y-88499793D01*
G37*
G36*
X154000500Y-147099793D02*
G01*
X154000500Y-147500207D01*
X154000207Y-147500500D01*
X148999793Y-147500500D01*
X148999500Y-147500207D01*
X148999500Y-147099793D01*
X148999793Y-147099500D01*
X154000207Y-147099500D01*
X154000500Y-147099793D01*
G37*
G36*
X187000500Y-144999793D02*
G01*
X187000500Y-147000207D01*
X187000207Y-147000500D01*
X176199793Y-147000500D01*
X176199500Y-147000207D01*
X176199500Y-144999793D01*
X176199793Y-144999500D01*
X187000207Y-144999500D01*
X187000500Y-144999793D01*
G37*
G36*
X137800500Y-69999793D02*
G01*
X137800500Y-72000207D01*
X137800207Y-72000500D01*
X126999793Y-72000500D01*
X126999500Y-72000207D01*
X126999500Y-69999793D01*
X126999793Y-69999500D01*
X137800207Y-69999500D01*
X137800500Y-69999793D01*
G37*
G36*
X187000500Y-119999793D02*
G01*
X187000500Y-122000207D01*
X187000207Y-122000500D01*
X176199793Y-122000500D01*
X176199500Y-122000207D01*
X176199500Y-119999793D01*
X176199793Y-119999500D01*
X187000207Y-119999500D01*
X187000500Y-119999793D01*
G37*
G36*
X165000500Y-72099793D02*
G01*
X165000500Y-72500207D01*
X165000207Y-72500500D01*
X159999793Y-72500500D01*
X159999500Y-72500207D01*
X159999500Y-72099793D01*
X159999793Y-72099500D01*
X165000207Y-72099500D01*
X165000500Y-72099793D01*
G37*
G36*
X187000500Y-132499793D02*
G01*
X187000500Y-134500207D01*
X187000207Y-134500500D01*
X176199793Y-134500500D01*
X176199500Y-134500207D01*
X176199500Y-132499793D01*
X176199793Y-132499500D01*
X187000207Y-132499500D01*
X187000500Y-132499793D01*
G37*
G36*
X187000500Y-138499793D02*
G01*
X187000500Y-140500207D01*
X187000207Y-140500500D01*
X176199793Y-140500500D01*
X176199500Y-140500207D01*
X176199500Y-138499793D01*
X176199793Y-138499500D01*
X187000207Y-138499500D01*
X187000500Y-138499793D01*
G37*
G36*
X154000500Y-109599793D02*
G01*
X154000500Y-110000207D01*
X154000207Y-110000500D01*
X148999793Y-110000500D01*
X148999500Y-110000207D01*
X148999500Y-109599793D01*
X148999793Y-109599500D01*
X154000207Y-109599500D01*
X154000500Y-109599793D01*
G37*
G36*
X165000500Y-84599793D02*
G01*
X165000500Y-85000207D01*
X165000207Y-85000500D01*
X159999793Y-85000500D01*
X159999500Y-85000207D01*
X159999500Y-84599793D01*
X159999793Y-84599500D01*
X165000207Y-84599500D01*
X165000500Y-84599793D01*
G37*
G36*
X137800500Y-94999793D02*
G01*
X137800500Y-97000207D01*
X137800207Y-97000500D01*
X126999793Y-97000500D01*
X126999500Y-97000207D01*
X126999500Y-94999793D01*
X126999793Y-94999500D01*
X137800207Y-94999500D01*
X137800500Y-94999793D01*
G37*
G36*
X154000500Y-125499793D02*
G01*
X154000500Y-125900207D01*
X154000207Y-125900500D01*
X148999793Y-125900500D01*
X148999500Y-125900207D01*
X148999500Y-125499793D01*
X148999793Y-125499500D01*
X154000207Y-125499500D01*
X154000500Y-125499793D01*
G37*
G36*
X154000500Y-100499793D02*
G01*
X154000500Y-100900207D01*
X154000207Y-100900500D01*
X148999793Y-100900500D01*
X148999500Y-100900207D01*
X148999500Y-100499793D01*
X148999793Y-100499500D01*
X154000207Y-100499500D01*
X154000500Y-100499793D01*
G37*
G36*
X165000500Y-62999793D02*
G01*
X165000500Y-63400207D01*
X165000207Y-63400500D01*
X159999793Y-63400500D01*
X159999500Y-63400207D01*
X159999500Y-62999793D01*
X159999793Y-62999500D01*
X165000207Y-62999500D01*
X165000500Y-62999793D01*
G37*
G36*
X154000500Y-122099793D02*
G01*
X154000500Y-122500207D01*
X154000207Y-122500500D01*
X148999793Y-122500500D01*
X148999500Y-122500207D01*
X148999500Y-122099793D01*
X148999793Y-122099500D01*
X154000207Y-122099500D01*
X154000500Y-122099793D01*
G37*
G36*
X137800500Y-57499793D02*
G01*
X137800500Y-59500207D01*
X137800207Y-59500500D01*
X126999793Y-59500500D01*
X126999500Y-59500207D01*
X126999500Y-57499793D01*
X126999793Y-57499500D01*
X137800207Y-57499500D01*
X137800500Y-57499793D01*
G37*
G36*
X141000500Y-100999793D02*
G01*
X141000500Y-102500207D01*
X141000207Y-102500500D01*
X138899793Y-102500500D01*
X138899500Y-102500207D01*
X138899500Y-100999793D01*
X138899793Y-100999500D01*
X141000207Y-100999500D01*
X141000500Y-100999793D01*
G37*
G36*
X141000500Y-132999793D02*
G01*
X141000500Y-134500207D01*
X141000207Y-134500500D01*
X138899793Y-134500500D01*
X138899500Y-134500207D01*
X138899500Y-132999793D01*
X138899793Y-132999500D01*
X141000207Y-132999500D01*
X141000500Y-132999793D01*
G37*
G36*
X141000500Y-145499793D02*
G01*
X141000500Y-147000207D01*
X141000207Y-147000500D01*
X138899793Y-147000500D01*
X138899500Y-147000207D01*
X138899500Y-145499793D01*
X138899793Y-145499500D01*
X141000207Y-145499500D01*
X141000500Y-145499793D01*
G37*
G36*
X175100500Y-75999793D02*
G01*
X175100500Y-77500207D01*
X175100207Y-77500500D01*
X172999793Y-77500500D01*
X172999500Y-77500207D01*
X172999500Y-75999793D01*
X172999793Y-75999500D01*
X175100207Y-75999500D01*
X175100500Y-75999793D01*
G37*
G36*
X175100500Y-95499793D02*
G01*
X175100500Y-97000207D01*
X175100207Y-97000500D01*
X172999793Y-97000500D01*
X172999500Y-97000207D01*
X172999500Y-95499793D01*
X172999793Y-95499500D01*
X175100207Y-95499500D01*
X175100500Y-95499793D01*
G37*
G36*
X175100500Y-50999793D02*
G01*
X175100500Y-52500207D01*
X175100207Y-52500500D01*
X172999793Y-52500500D01*
X172999500Y-52500207D01*
X172999500Y-50999793D01*
X172999793Y-50999500D01*
X175100207Y-50999500D01*
X175100500Y-50999793D01*
G37*
G36*
X141000500Y-113499793D02*
G01*
X141000500Y-115000207D01*
X141000207Y-115000500D01*
X138899793Y-115000500D01*
X138899500Y-115000207D01*
X138899500Y-113499793D01*
X138899793Y-113499500D01*
X141000207Y-113499500D01*
X141000500Y-113499793D01*
G37*
G36*
X175100500Y-82999793D02*
G01*
X175100500Y-84500207D01*
X175100207Y-84500500D01*
X172999793Y-84500500D01*
X172999500Y-84500207D01*
X172999500Y-82999793D01*
X172999793Y-82999500D01*
X175100207Y-82999500D01*
X175100500Y-82999793D01*
G37*
G36*
X175100500Y-88499793D02*
G01*
X175100500Y-90000207D01*
X175100207Y-90000500D01*
X172999793Y-90000500D01*
X172999500Y-90000207D01*
X172999500Y-88499793D01*
X172999793Y-88499500D01*
X175100207Y-88499500D01*
X175100500Y-88499793D01*
G37*
G36*
X175100500Y-70499793D02*
G01*
X175100500Y-72000207D01*
X175100207Y-72000500D01*
X172999793Y-72000500D01*
X172999500Y-72000207D01*
X172999500Y-70499793D01*
X172999793Y-70499500D01*
X175100207Y-70499500D01*
X175100500Y-70499793D01*
G37*
G36*
X141000500Y-107999793D02*
G01*
X141000500Y-109500207D01*
X141000207Y-109500500D01*
X138899793Y-109500500D01*
X138899500Y-109500207D01*
X138899500Y-107999793D01*
X138899793Y-107999500D01*
X141000207Y-107999500D01*
X141000500Y-107999793D01*
G37*
G36*
X141000500Y-138499793D02*
G01*
X141000500Y-140000207D01*
X141000207Y-140000500D01*
X138899793Y-140000500D01*
X138899500Y-140000207D01*
X138899500Y-138499793D01*
X138899793Y-138499500D01*
X141000207Y-138499500D01*
X141000500Y-138499793D01*
G37*
G36*
X175100500Y-57999793D02*
G01*
X175100500Y-59500207D01*
X175100207Y-59500500D01*
X172999793Y-59500500D01*
X172999500Y-59500207D01*
X172999500Y-57999793D01*
X172999793Y-57999500D01*
X175100207Y-57999500D01*
X175100500Y-57999793D01*
G37*
G36*
X141000500Y-120499793D02*
G01*
X141000500Y-122000207D01*
X141000207Y-122000500D01*
X138899793Y-122000500D01*
X138899500Y-122000207D01*
X138899500Y-120499793D01*
X138899793Y-120499500D01*
X141000207Y-120499500D01*
X141000500Y-120499793D01*
G37*
G36*
X141000500Y-125999793D02*
G01*
X141000500Y-127500207D01*
X141000207Y-127500500D01*
X138899793Y-127500500D01*
X138899500Y-127500207D01*
X138899500Y-125999793D01*
X138899793Y-125999500D01*
X141000207Y-125999500D01*
X141000500Y-125999793D01*
G37*
G36*
X175100500Y-63499793D02*
G01*
X175100500Y-65000207D01*
X175100207Y-65000500D01*
X172999793Y-65000500D01*
X172999500Y-65000207D01*
X172999500Y-63499793D01*
X172999793Y-63499500D01*
X175100207Y-63499500D01*
X175100500Y-63499793D01*
G37*
M02*
