M48
; DRILL file {KiCad 9.0.8} date 2026-09-27T01:38:59+0900
; FORMAT={-:-/ absolute / metric / decimal}
; #@! TF.CreationDate,2026-09-27T01:38:59+09:00
; #@! TF.GenerationSoftware,Kicad,Pcbnew,9.0.8
; #@! TF.FileFunction,Plated,1,2,PTH
FMAT,2
METRIC
; #@! TA.AperFunction,Plated,PTH,ViaDrill
T1C0.300
; #@! TA.AperFunction,Plated,PTH,ViaDrill
T2C0.400
; #@! TA.AperFunction,Plated,PTH,ViaDrill
T3C0.500
; #@! TA.AperFunction,Plated,PTH,ComponentDrill
T4C0.600
; #@! TA.AperFunction,Plated,PTH,ComponentDrill
T5C0.700
; #@! TA.AperFunction,Plated,PTH,ComponentDrill
T6C0.800
; #@! TA.AperFunction,Plated,PTH,ComponentDrill
T7C0.900
%
G90
G05
T1
X130.7Y-105.6
X130.7Y-118.1
X130.7Y-130.6
X130.7Y-143.1
X131.3Y-103.3
X131.3Y-115.8
X131.3Y-128.3
X131.3Y-140.8
X132.3Y-104.4
X132.3Y-116.9
X132.3Y-129.4
X132.3Y-141.9
X132.8Y-106.2
X132.8Y-118.7
X132.8Y-131.2
X132.8Y-143.7
X133.1Y-103.1
X133.1Y-115.6
X133.1Y-128.1
X133.1Y-140.6
X133.3Y-107.8
X133.3Y-120.3
X133.3Y-132.8
X133.3Y-145.3
X133.8Y-55.0
X133.8Y-67.5
X133.8Y-80.0
X133.8Y-92.5
X133.9Y-56.3
X133.9Y-68.8
X133.9Y-81.3
X133.9Y-93.8
X134.4Y-105.8
X134.4Y-118.3
X134.4Y-130.8
X134.4Y-143.3
X134.9Y-103.8
X134.9Y-116.3
X134.9Y-128.8
X134.9Y-141.3
X135.5Y-53.8
X135.5Y-66.3
X135.5Y-78.8
X135.5Y-91.3
X135.7Y-54.7
X135.7Y-67.2
X135.7Y-79.7
X135.7Y-92.2
X135.9Y-107.7
X135.9Y-120.2
X135.9Y-132.7
X135.9Y-145.2
X136.2Y-104.8
X136.2Y-117.3
X136.2Y-129.8
X136.2Y-142.3
X136.8Y-107.7
X136.8Y-120.2
X136.8Y-132.7
X136.8Y-145.2
X137.2Y-105.7
X137.2Y-118.2
X137.2Y-130.7
X137.2Y-143.2
X137.9Y-102.4
X137.9Y-114.9
X137.9Y-127.4
X137.9Y-139.9
X138.1Y-101.6
X138.1Y-114.1
X138.1Y-126.6
X138.1Y-139.1
X138.2Y-103.2
X138.2Y-115.7
X138.2Y-128.2
X138.2Y-140.7
X139.1Y-54.1
X139.1Y-66.6
X139.1Y-79.1
X139.1Y-91.6
X139.1Y-105.9
X139.1Y-118.4
X139.1Y-130.9
X139.1Y-143.4
X141.4Y-104.3
X141.4Y-116.8
X141.4Y-129.3
X141.4Y-141.8
X142.5Y-54.0
X142.5Y-66.5
X142.5Y-79.0
X142.5Y-91.5
X143.0Y-105.1
X143.0Y-117.6
X143.0Y-130.1
X143.0Y-142.6
X144.7Y-53.55
X144.7Y-66.05
X144.7Y-78.55
X144.7Y-91.05
X146.1Y-106.1
X146.1Y-118.6
X146.1Y-131.1
X146.1Y-143.6
X146.6Y-104.0
X146.6Y-116.5
X146.6Y-129.0
X146.6Y-141.5
X147.4Y-106.1
X147.4Y-118.6
X147.4Y-131.1
X147.4Y-143.6
X147.5Y-54.1
X147.5Y-66.6
X147.5Y-79.1
X147.5Y-91.6
X150.3Y-104.5
X150.3Y-117.0
X150.3Y-129.5
X150.3Y-142.0
X151.0Y-105.1
X151.0Y-117.6
X151.0Y-130.1
X151.0Y-142.6
X152.2Y-104.7
X152.2Y-117.2
X152.2Y-129.7
X152.2Y-142.2
X153.3Y-56.0
X153.3Y-68.5
X153.3Y-81.0
X153.3Y-93.5
X155.2Y-102.6
X155.2Y-115.1
X155.2Y-127.6
X155.2Y-140.1
X155.25Y-57.24
X155.25Y-58.05
X155.25Y-69.74
X155.25Y-70.55
X155.25Y-82.24
X155.25Y-83.05
X155.25Y-94.74
X155.25Y-95.55
X156.2Y-105.1
X156.2Y-117.6
X156.2Y-130.1
X156.2Y-142.6
X156.75Y-108.5
X156.75Y-121.0
X156.75Y-133.5
X156.75Y-146.0
X157.25Y-52.0
X157.25Y-64.5
X157.25Y-77.0
X157.25Y-89.5
X157.8Y-55.4
X157.8Y-67.9
X157.8Y-80.4
X157.8Y-92.9
X158.75Y-102.45
X158.75Y-103.26
X158.75Y-114.95
X158.75Y-115.76
X158.75Y-127.45
X158.75Y-128.26
X158.75Y-139.95
X158.75Y-140.76
X158.8Y-57.9
X158.8Y-70.4
X158.8Y-82.9
X158.8Y-95.4
X160.7Y-104.5
X160.7Y-117.0
X160.7Y-129.5
X160.7Y-142.0
X161.8Y-55.8
X161.8Y-68.3
X161.8Y-80.8
X161.8Y-93.3
X163.0Y-55.4
X163.0Y-67.9
X163.0Y-80.4
X163.0Y-92.9
X163.7Y-56.0
X163.7Y-68.5
X163.7Y-81.0
X163.7Y-93.5
X166.5Y-106.4
X166.5Y-118.9
X166.5Y-131.4
X166.5Y-143.9
X166.6Y-54.4
X166.6Y-66.9
X166.6Y-79.4
X166.6Y-91.9
X167.4Y-56.5
X167.4Y-69.0
X167.4Y-81.5
X167.4Y-94.0
X167.9Y-54.4
X167.9Y-66.9
X167.9Y-79.4
X167.9Y-91.9
X169.3Y-106.95
X169.3Y-119.45
X169.3Y-131.95
X169.3Y-144.45
X171.0Y-55.4
X171.0Y-67.9
X171.0Y-80.4
X171.0Y-92.9
X171.5Y-106.5
X171.5Y-119.0
X171.5Y-131.5
X171.5Y-144.0
X172.6Y-56.2
X172.6Y-68.7
X172.6Y-81.2
X172.6Y-93.7
X174.9Y-54.6
X174.9Y-67.1
X174.9Y-79.6
X174.9Y-92.1
X174.9Y-106.4
X174.9Y-118.9
X174.9Y-131.4
X174.9Y-143.9
X175.8Y-57.3
X175.8Y-69.8
X175.8Y-82.3
X175.8Y-94.8
X175.9Y-58.9
X175.9Y-71.4
X175.9Y-83.9
X175.9Y-96.4
X176.1Y-58.1
X176.1Y-70.6
X176.1Y-83.1
X176.1Y-95.6
X176.8Y-54.8
X176.8Y-67.3
X176.8Y-79.8
X176.8Y-92.3
X177.2Y-52.8
X177.2Y-65.3
X177.2Y-77.8
X177.2Y-90.3
X177.8Y-55.7
X177.8Y-68.2
X177.8Y-80.7
X177.8Y-93.2
X178.1Y-52.8
X178.1Y-65.3
X178.1Y-77.8
X178.1Y-90.3
X178.3Y-105.8
X178.3Y-118.3
X178.3Y-130.8
X178.3Y-143.3
X178.5Y-106.7
X178.5Y-119.2
X178.5Y-131.7
X178.5Y-144.2
X179.1Y-56.7
X179.1Y-69.2
X179.1Y-81.7
X179.1Y-94.2
X179.6Y-54.7
X179.6Y-67.2
X179.6Y-79.7
X179.6Y-92.2
X180.1Y-104.2
X180.1Y-116.7
X180.1Y-129.2
X180.1Y-141.7
X180.2Y-105.5
X180.2Y-118.0
X180.2Y-130.5
X180.2Y-143.0
X180.7Y-52.7
X180.7Y-65.2
X180.7Y-77.7
X180.7Y-90.2
X180.9Y-57.4
X180.9Y-69.9
X180.9Y-82.4
X180.9Y-94.9
X181.2Y-54.3
X181.2Y-66.8
X181.2Y-79.3
X181.2Y-91.8
X181.7Y-56.1
X181.7Y-68.6
X181.7Y-81.1
X181.7Y-93.6
X182.7Y-57.2
X182.7Y-69.7
X182.7Y-82.2
X182.7Y-94.7
X183.3Y-54.9
X183.3Y-67.4
X183.3Y-79.9
X183.3Y-92.4
T2
X128.3Y-104.0
X128.3Y-116.5
X128.3Y-129.0
X128.3Y-141.5
X130.4Y-56.2
X130.4Y-68.7
X130.4Y-81.2
X130.4Y-93.7
X131.2Y-56.2
X131.2Y-68.7
X131.2Y-81.2
X131.2Y-93.7
X136.8Y-51.7
X136.8Y-52.5
X136.8Y-58.0
X136.8Y-58.8
X136.8Y-64.2
X136.8Y-65.0
X136.8Y-70.5
X136.8Y-71.3
X136.8Y-76.7
X136.8Y-77.5
X136.8Y-83.0
X136.8Y-83.8
X136.8Y-89.2
X136.8Y-90.0
X136.8Y-95.5
X136.8Y-96.3
X137.6Y-54.2
X137.6Y-66.7
X137.6Y-79.2
X137.6Y-91.7
X144.625Y-106.0
X144.625Y-118.5
X144.625Y-131.0
X144.625Y-143.5
X151.6Y-54.7
X151.6Y-67.2
X151.6Y-79.7
X151.6Y-92.2
X156.9Y-55.4
X156.9Y-56.3
X156.9Y-67.9
X156.9Y-68.8
X156.9Y-80.4
X156.9Y-81.3
X156.9Y-92.9
X156.9Y-93.8
X157.1Y-104.2
X157.1Y-105.1
X157.1Y-116.7
X157.1Y-117.6
X157.1Y-129.2
X157.1Y-130.1
X157.1Y-141.7
X157.1Y-142.6
X162.4Y-105.8
X162.4Y-118.3
X162.4Y-130.8
X162.4Y-143.3
X169.375Y-54.5
X169.375Y-67.0
X169.375Y-79.5
X169.375Y-92.0
X176.4Y-106.3
X176.4Y-118.8
X176.4Y-131.3
X176.4Y-143.8
X177.2Y-101.7
X177.2Y-102.5
X177.2Y-108.0
X177.2Y-108.8
X177.2Y-114.2
X177.2Y-115.0
X177.2Y-120.5
X177.2Y-121.3
X177.2Y-126.7
X177.2Y-127.5
X177.2Y-133.0
X177.2Y-133.8
X177.2Y-139.2
X177.2Y-140.0
X177.2Y-145.5
X177.2Y-146.3
X182.8Y-104.3
X182.8Y-116.8
X182.8Y-129.3
X182.8Y-141.8
X183.6Y-104.3
X183.6Y-116.8
X183.6Y-129.3
X183.6Y-141.8
X185.7Y-56.5
X185.7Y-69.0
X185.7Y-81.5
X185.7Y-94.0
T3
X137.8Y-55.8
X137.8Y-68.3
X137.8Y-80.8
X137.8Y-93.3
X139.5Y-55.7
X139.5Y-68.2
X139.5Y-80.7
X139.5Y-93.2
X147.8Y-101.9
X147.8Y-108.7
X147.8Y-114.4
X147.8Y-121.2
X147.8Y-126.9
X147.8Y-133.7
X147.8Y-139.4
X147.8Y-146.2
X154.75Y-50.75
X154.75Y-59.75
X154.75Y-63.25
X154.75Y-72.25
X154.75Y-75.75
X154.75Y-84.75
X154.75Y-88.25
X154.75Y-97.25
X155.3Y-54.4
X155.3Y-66.9
X155.3Y-79.4
X155.3Y-91.9
X155.8Y-59.75
X155.8Y-72.25
X155.8Y-84.75
X155.8Y-97.25
X158.2Y-100.75
X158.2Y-113.25
X158.2Y-125.75
X158.2Y-138.25
X158.7Y-106.1
X158.7Y-118.6
X158.7Y-131.1
X158.7Y-143.6
X159.25Y-100.75
X159.25Y-109.75
X159.25Y-113.25
X159.25Y-122.25
X159.25Y-125.75
X159.25Y-134.75
X159.25Y-138.25
X159.25Y-147.25
X166.2Y-51.8
X166.2Y-58.6
X166.2Y-64.3
X166.2Y-71.1
X166.2Y-76.8
X166.2Y-83.6
X166.2Y-89.3
X166.2Y-96.1
X174.5Y-104.8
X174.5Y-117.3
X174.5Y-129.8
X174.5Y-142.3
X176.2Y-104.7
X176.2Y-117.2
X176.2Y-129.7
X176.2Y-142.2
T4
X127.9Y-108.6
X127.9Y-121.1
X127.9Y-133.6
X127.9Y-146.1
X128.0Y-101.9
X128.0Y-114.4
X128.0Y-126.9
X128.0Y-139.4
X129.5Y-101.9
X129.5Y-108.6
X129.5Y-114.4
X129.5Y-121.1
X129.5Y-126.9
X129.5Y-133.6
X129.5Y-139.4
X129.5Y-146.1
X184.5Y-51.9
X184.5Y-58.6
X184.5Y-64.4
X184.5Y-71.1
X184.5Y-76.9
X184.5Y-83.6
X184.5Y-89.4
X184.5Y-96.1
X186.0Y-58.6
X186.0Y-71.1
X186.0Y-83.6
X186.0Y-96.1
X186.1Y-51.9
X186.1Y-64.4
X186.1Y-76.9
X186.1Y-89.4
T5
X136.265Y-108.75
X136.265Y-121.25
X136.265Y-133.75
X136.265Y-146.25
X137.535Y-108.75
X137.535Y-121.25
X137.535Y-133.75
X137.535Y-146.25
X140.0Y-101.75
X140.0Y-108.75
X140.0Y-114.25
X140.0Y-121.25
X140.0Y-126.75
X140.0Y-133.75
X140.0Y-139.25
X140.0Y-146.25
X174.0Y-51.75
X174.0Y-58.75
X174.0Y-64.25
X174.0Y-71.25
X174.0Y-76.75
X174.0Y-83.75
X174.0Y-89.25
X174.0Y-96.25
X176.465Y-51.75
X176.465Y-64.25
X176.465Y-76.75
X176.465Y-89.25
X177.735Y-51.75
X177.735Y-64.25
X177.735Y-76.75
X177.735Y-89.25
T6
X128.0Y-52.0
X128.0Y-58.5
X128.0Y-64.5
X128.0Y-71.0
X128.0Y-77.0
X128.0Y-83.5
X128.0Y-89.5
X128.0Y-96.0
X130.0Y-52.0
X130.0Y-58.5
X130.0Y-64.5
X130.0Y-71.0
X130.0Y-77.0
X130.0Y-83.5
X130.0Y-89.5
X130.0Y-96.0
X184.0Y-102.0
X184.0Y-108.5
X184.0Y-114.5
X184.0Y-121.0
X184.0Y-127.0
X184.0Y-133.5
X184.0Y-139.5
X184.0Y-146.0
X186.0Y-102.0
X186.0Y-108.5
X186.0Y-114.5
X186.0Y-121.0
X186.0Y-127.0
X186.0Y-133.5
X186.0Y-139.5
X186.0Y-146.0
T7
X149.75Y-101.5
X149.75Y-109.0
X149.75Y-114.0
X149.75Y-121.5
X149.75Y-126.5
X149.75Y-134.0
X149.75Y-139.0
X149.75Y-146.5
X153.25Y-101.5
X153.25Y-109.0
X153.25Y-114.0
X153.25Y-121.5
X153.25Y-126.5
X153.25Y-134.0
X153.25Y-139.0
X153.25Y-146.5
X160.75Y-51.5
X160.75Y-59.0
X160.75Y-64.0
X160.75Y-71.5
X160.75Y-76.5
X160.75Y-84.0
X160.75Y-89.0
X160.75Y-96.5
X164.25Y-51.5
X164.25Y-59.0
X164.25Y-64.0
X164.25Y-71.5
X164.25Y-76.5
X164.25Y-84.0
X164.25Y-89.0
X164.25Y-96.5
M30
