G04 #@! TF.GenerationSoftware,KiCad,Pcbnew,9.0.8*
G04 #@! TF.CreationDate,2026-09-27T01:38:57+09:00*
G04 #@! TF.ProjectId,motordecoder2-k3066v4-p,6d6f746f-7264-4656-936f-646572322d6b,rev?*
G04 #@! TF.SameCoordinates,Original*
G04 #@! TF.FileFunction,Paste,Top*
G04 #@! TF.FilePolarity,Positive*
%FSLAX46Y46*%
G04 Gerber Fmt 4.6, Leading zero omitted, Abs format (unit mm)*
G04 Created by KiCad (PCBNEW 9.0.8) date 2026-09-27 01:38:57*
%MOMM*%
%LPD*%
G01*
G04 APERTURE LIST*
G04 Aperture macros list*
%AMRoundRect*
0 Rectangle with rounded corners*
0 $1 Rounding radius*
0 $2 $3 $4 $5 $6 $7 $8 $9 X,Y pos of 4 corners*
0 Add a 4 corners polygon primitive as box body*
4,1,4,$2,$3,$4,$5,$6,$7,$8,$9,$2,$3,0*
0 Add four circle primitives for the rounded corners*
1,1,$1+$1,$2,$3*
1,1,$1+$1,$4,$5*
1,1,$1+$1,$6,$7*
1,1,$1+$1,$8,$9*
0 Add four rect primitives between the rounded corners*
20,1,$1+$1,$2,$3,$4,$5,0*
20,1,$1+$1,$4,$5,$6,$7,0*
20,1,$1+$1,$6,$7,$8,$9,0*
20,1,$1+$1,$8,$9,$2,$3,0*%
%AMFreePoly0*
4,1,14,0.334644,0.085355,0.385355,0.034644,0.400000,-0.000711,0.400000,-0.050000,0.385355,-0.085355,0.350000,-0.100000,-0.350000,-0.100000,-0.385355,-0.085355,-0.400000,-0.050000,-0.400000,0.050000,-0.385355,0.085355,-0.350000,0.100000,0.299289,0.100000,0.334644,0.085355,0.334644,0.085355,$1*%
%AMFreePoly1*
4,1,14,0.385355,0.085355,0.400000,0.050000,0.400000,0.000711,0.385355,-0.034644,0.334644,-0.085355,0.299289,-0.100000,-0.350000,-0.100000,-0.385355,-0.085355,-0.400000,-0.050000,-0.400000,0.050000,-0.385355,0.085355,-0.350000,0.100000,0.350000,0.100000,0.385355,0.085355,0.385355,0.085355,$1*%
%AMFreePoly2*
4,1,14,0.085355,0.385355,0.100000,0.350000,0.100000,-0.350000,0.085355,-0.385355,0.050000,-0.400000,-0.050000,-0.400000,-0.085355,-0.385355,-0.100000,-0.350000,-0.100000,0.299289,-0.085355,0.334644,-0.034644,0.385355,0.000711,0.400000,0.050000,0.400000,0.085355,0.385355,0.085355,0.385355,$1*%
%AMFreePoly3*
4,1,14,0.034644,0.385355,0.085355,0.334644,0.100000,0.299289,0.100000,-0.350000,0.085355,-0.385355,0.050000,-0.400000,-0.050000,-0.400000,-0.085355,-0.385355,-0.100000,-0.350000,-0.100000,0.350000,-0.085355,0.385355,-0.050000,0.400000,-0.000711,0.400000,0.034644,0.385355,0.034644,0.385355,$1*%
%AMFreePoly4*
4,1,14,0.385355,0.085355,0.400000,0.050000,0.400000,-0.050000,0.385355,-0.085355,0.350000,-0.100000,-0.299289,-0.100000,-0.334644,-0.085355,-0.385355,-0.034644,-0.400000,0.000711,-0.400000,0.050000,-0.385355,0.085355,-0.350000,0.100000,0.350000,0.100000,0.385355,0.085355,0.385355,0.085355,$1*%
%AMFreePoly5*
4,1,14,0.385355,0.085355,0.400000,0.050000,0.400000,-0.050000,0.385355,-0.085355,0.350000,-0.100000,-0.350000,-0.100000,-0.385355,-0.085355,-0.400000,-0.050000,-0.400000,-0.000711,-0.385355,0.034644,-0.334644,0.085355,-0.299289,0.100000,0.350000,0.100000,0.385355,0.085355,0.385355,0.085355,$1*%
%AMFreePoly6*
4,1,14,0.085355,0.385355,0.100000,0.350000,0.100000,-0.299289,0.085355,-0.334644,0.034644,-0.385355,-0.000711,-0.400000,-0.050000,-0.400000,-0.085355,-0.385355,-0.100000,-0.350000,-0.100000,0.350000,-0.085355,0.385355,-0.050000,0.400000,0.050000,0.400000,0.085355,0.385355,0.085355,0.385355,$1*%
%AMFreePoly7*
4,1,14,0.085355,0.385355,0.100000,0.350000,0.100000,-0.350000,0.085355,-0.385355,0.050000,-0.400000,0.000711,-0.400000,-0.034644,-0.385355,-0.085355,-0.334644,-0.100000,-0.299289,-0.100000,0.350000,-0.085355,0.385355,-0.050000,0.400000,0.050000,0.400000,0.085355,0.385355,0.085355,0.385355,$1*%
G04 Aperture macros list end*
%ADD10R,0.700000X0.700000*%
%ADD11R,0.450000X0.300000*%
%ADD12R,0.300000X0.450000*%
%ADD13R,0.500000X0.900000*%
%ADD14R,0.600000X0.400000*%
%ADD15R,0.400000X0.600000*%
%ADD16R,0.500000X0.550000*%
%ADD17R,0.500000X0.470000*%
%ADD18R,0.900000X0.800000*%
%ADD19R,0.800000X0.500000*%
%ADD20R,0.800000X0.800000*%
%ADD21R,0.700000X0.800000*%
%ADD22R,0.800000X0.600000*%
%ADD23R,0.500000X0.800000*%
%ADD24R,0.900000X0.500000*%
%ADD25R,1.200000X0.900000*%
%ADD26R,0.800000X0.900000*%
%ADD27R,0.520000X0.450000*%
%ADD28RoundRect,0.172500X0.172500X0.172500X-0.172500X0.172500X-0.172500X-0.172500X0.172500X-0.172500X0*%
%ADD29FreePoly0,180.000000*%
%ADD30RoundRect,0.050000X0.350000X0.050000X-0.350000X0.050000X-0.350000X-0.050000X0.350000X-0.050000X0*%
%ADD31FreePoly1,180.000000*%
%ADD32FreePoly2,180.000000*%
%ADD33RoundRect,0.050000X0.050000X0.350000X-0.050000X0.350000X-0.050000X-0.350000X0.050000X-0.350000X0*%
%ADD34FreePoly3,180.000000*%
%ADD35FreePoly4,180.000000*%
%ADD36FreePoly5,180.000000*%
%ADD37FreePoly6,180.000000*%
%ADD38FreePoly7,180.000000*%
%ADD39C,2.000000*%
%ADD40R,0.750000X1.300000*%
%ADD41RoundRect,0.172500X-0.172500X-0.172500X0.172500X-0.172500X0.172500X0.172500X-0.172500X0.172500X0*%
%ADD42FreePoly0,0.000000*%
%ADD43RoundRect,0.050000X-0.350000X-0.050000X0.350000X-0.050000X0.350000X0.050000X-0.350000X0.050000X0*%
%ADD44FreePoly1,0.000000*%
%ADD45FreePoly2,0.000000*%
%ADD46RoundRect,0.050000X-0.050000X-0.350000X0.050000X-0.350000X0.050000X0.350000X-0.050000X0.350000X0*%
%ADD47FreePoly3,0.000000*%
%ADD48FreePoly4,0.000000*%
%ADD49FreePoly5,0.000000*%
%ADD50FreePoly6,0.000000*%
%ADD51FreePoly7,0.000000*%
G04 APERTURE END LIST*
D10*
X158450000Y-107250000D03*
X157500000Y-107250000D03*
X156550000Y-107250000D03*
X156550000Y-109750000D03*
X157500000Y-109750000D03*
X158450000Y-109750000D03*
X155300000Y-103250000D03*
X156250000Y-103250000D03*
X157200000Y-103250000D03*
X157200000Y-100750000D03*
X156250000Y-100750000D03*
X155300000Y-100750000D03*
D11*
X155375000Y-106400000D03*
X155375000Y-105900000D03*
X155375000Y-105400000D03*
X154025000Y-105400000D03*
X154025000Y-105900000D03*
X154025000Y-106400000D03*
X150875000Y-104200000D03*
X150875000Y-103700000D03*
X150875000Y-103200000D03*
X149525000Y-103200000D03*
X149525000Y-103700000D03*
X149525000Y-104200000D03*
D12*
X171500000Y-103625000D03*
X171000000Y-103625000D03*
X170500000Y-103625000D03*
X170500000Y-104975000D03*
X171000000Y-104975000D03*
X171500000Y-104975000D03*
D13*
X133550000Y-106000000D03*
X132050000Y-106000000D03*
D14*
X169500000Y-105150000D03*
X169500000Y-106050000D03*
X165600000Y-106450000D03*
X165600000Y-105550000D03*
D15*
X166450000Y-104600000D03*
X165550000Y-104600000D03*
X165550000Y-103600000D03*
X166450000Y-103600000D03*
X151050000Y-107100000D03*
X150150000Y-107100000D03*
D16*
X174300000Y-105725000D03*
X174300000Y-106675000D03*
X142200000Y-104925000D03*
X142200000Y-105875000D03*
D17*
X153000000Y-106515000D03*
X153000000Y-105485000D03*
X167300000Y-105285000D03*
X167300000Y-106315000D03*
D16*
X172100000Y-105725000D03*
X172100000Y-106675000D03*
D18*
X162300000Y-104550000D03*
X162300000Y-106650000D03*
D19*
X159750000Y-105400000D03*
X159750000Y-104100000D03*
X157850000Y-104750000D03*
D20*
X145400000Y-104225000D03*
X145400000Y-105775000D03*
D11*
X131325000Y-108000000D03*
X131325000Y-108500000D03*
X131325000Y-109000000D03*
X132675000Y-109000000D03*
X132675000Y-108500000D03*
X132675000Y-108000000D03*
D14*
X131000000Y-101650000D03*
X131000000Y-102550000D03*
D15*
X136250000Y-102400000D03*
X137150000Y-102400000D03*
X134050000Y-108900000D03*
X134950000Y-108900000D03*
D14*
X140400000Y-103400000D03*
X140400000Y-104300000D03*
D11*
X133075000Y-104900000D03*
X133075000Y-104400000D03*
X133075000Y-103900000D03*
X131725000Y-103900000D03*
X131725000Y-104400000D03*
X131725000Y-104900000D03*
X133725000Y-101500000D03*
X133725000Y-102000000D03*
X133725000Y-102500000D03*
X135075000Y-102500000D03*
X135075000Y-102000000D03*
X135075000Y-101500000D03*
D14*
X134100000Y-103950000D03*
X134100000Y-104850000D03*
D15*
X134050000Y-107600000D03*
X134950000Y-107600000D03*
D21*
X143900000Y-104225000D03*
X143900000Y-105775000D03*
D22*
X168400000Y-105150000D03*
X168400000Y-106850000D03*
D14*
X173200000Y-105750000D03*
X173200000Y-106650000D03*
D12*
X163600000Y-105475000D03*
X164100000Y-105475000D03*
X164600000Y-105475000D03*
X164600000Y-104125000D03*
X164100000Y-104125000D03*
X163600000Y-104125000D03*
D15*
X140250000Y-106000000D03*
X141150000Y-106000000D03*
D14*
X139300000Y-104300000D03*
X139300000Y-103400000D03*
X139400000Y-107550000D03*
X139400000Y-106650000D03*
D23*
X178450000Y-107150000D03*
X179750000Y-107150000D03*
X179100000Y-105250000D03*
D15*
X152150000Y-107400000D03*
X153050000Y-107400000D03*
D14*
X152000000Y-106450000D03*
X152000000Y-105550000D03*
X149200000Y-107350000D03*
X149200000Y-106450000D03*
X148200000Y-106450000D03*
X148200000Y-107350000D03*
D15*
X150150000Y-106100000D03*
X151050000Y-106100000D03*
X157450000Y-106000000D03*
X156550000Y-106000000D03*
X156150000Y-104400000D03*
X155250000Y-104400000D03*
D14*
X155300000Y-107450000D03*
X155300000Y-108350000D03*
X154100000Y-104350000D03*
X154100000Y-103450000D03*
D24*
X148300000Y-103200000D03*
X148300000Y-104700000D03*
D14*
X160900000Y-105150000D03*
X160900000Y-106050000D03*
D15*
X168550000Y-104100000D03*
X167650000Y-104100000D03*
X172550000Y-104800000D03*
X173450000Y-104800000D03*
X180050000Y-103600000D03*
X179150000Y-103600000D03*
D25*
X175600000Y-106600000D03*
D26*
X177400000Y-106600000D03*
X177400000Y-104600000D03*
X175400000Y-104600000D03*
D11*
X179975000Y-102600000D03*
X179975000Y-102100000D03*
X179975000Y-101600000D03*
X178625000Y-101600000D03*
X178625000Y-102100000D03*
X178625000Y-102600000D03*
D27*
X172720000Y-103700000D03*
X174080000Y-103700000D03*
D13*
X181350000Y-108600000D03*
X179850000Y-108600000D03*
D14*
X170800000Y-105750000D03*
X170800000Y-106650000D03*
D28*
X137125000Y-105675000D03*
X137125000Y-104825000D03*
X136275000Y-105675000D03*
X136275000Y-104825000D03*
D29*
X138150000Y-106050000D03*
D30*
X138150000Y-105650000D03*
X138150000Y-105250000D03*
X138150000Y-104850000D03*
D31*
X138150000Y-104450000D03*
D32*
X137500000Y-103800000D03*
D33*
X137100000Y-103800000D03*
X136700000Y-103800000D03*
X136300000Y-103800000D03*
D34*
X135900000Y-103800000D03*
D35*
X135250000Y-104450000D03*
D30*
X135250000Y-104850000D03*
X135250000Y-105250000D03*
X135250000Y-105650000D03*
D36*
X135250000Y-106050000D03*
D37*
X135900000Y-106700000D03*
D33*
X136300000Y-106700000D03*
X136700000Y-106700000D03*
X137100000Y-106700000D03*
D38*
X137500000Y-106700000D03*
D11*
X180925000Y-68100000D03*
X180925000Y-68600000D03*
X180925000Y-69100000D03*
X182275000Y-69100000D03*
X182275000Y-68600000D03*
X182275000Y-68100000D03*
D23*
X135550000Y-65850000D03*
X134250000Y-65850000D03*
X134900000Y-67750000D03*
D25*
X175600000Y-131600000D03*
D26*
X177400000Y-131600000D03*
X177400000Y-129600000D03*
X175400000Y-129600000D03*
D15*
X141450000Y-68200000D03*
X140550000Y-68200000D03*
D17*
X153000000Y-144015000D03*
X153000000Y-142985000D03*
D14*
X170800000Y-118250000D03*
X170800000Y-119150000D03*
D21*
X143900000Y-129225000D03*
X143900000Y-130775000D03*
D15*
X166450000Y-142100000D03*
X165550000Y-142100000D03*
D17*
X161000000Y-91485000D03*
X161000000Y-92515000D03*
D13*
X180450000Y-79500000D03*
X181950000Y-79500000D03*
D14*
X134100000Y-128950000D03*
X134100000Y-129850000D03*
D11*
X180925000Y-93100000D03*
X180925000Y-93600000D03*
X180925000Y-94100000D03*
X182275000Y-94100000D03*
X182275000Y-93600000D03*
X182275000Y-93100000D03*
D15*
X156550000Y-79500000D03*
X157450000Y-79500000D03*
D14*
X154100000Y-129350000D03*
X154100000Y-128450000D03*
D25*
X138400000Y-66400000D03*
D26*
X136600000Y-66400000D03*
X136600000Y-68400000D03*
X138600000Y-68400000D03*
D14*
X162000000Y-54050000D03*
X162000000Y-54950000D03*
D15*
X148450000Y-56900000D03*
X147550000Y-56900000D03*
D12*
X163600000Y-117975000D03*
X164100000Y-117975000D03*
X164600000Y-117975000D03*
X164600000Y-116625000D03*
X164100000Y-116625000D03*
X163600000Y-116625000D03*
D14*
X159900000Y-68650000D03*
X159900000Y-69550000D03*
D12*
X142500000Y-56875000D03*
X143000000Y-56875000D03*
X143500000Y-56875000D03*
X143500000Y-55525000D03*
X143000000Y-55525000D03*
X142500000Y-55525000D03*
D15*
X133950000Y-56900000D03*
X134850000Y-56900000D03*
X147550000Y-68400000D03*
X148450000Y-68400000D03*
D16*
X174300000Y-118225000D03*
X174300000Y-119175000D03*
D15*
X156550000Y-54500000D03*
X157450000Y-54500000D03*
D39*
X123500000Y-55250000D03*
X123500000Y-130250000D03*
D11*
X179975000Y-115100000D03*
X179975000Y-114600000D03*
X179975000Y-114100000D03*
X178625000Y-114100000D03*
X178625000Y-114600000D03*
X178625000Y-115100000D03*
D16*
X141900000Y-67275000D03*
X141900000Y-66325000D03*
D10*
X155300000Y-128250000D03*
X156250000Y-128250000D03*
X157200000Y-128250000D03*
X157200000Y-125750000D03*
X156250000Y-125750000D03*
X155300000Y-125750000D03*
D14*
X155300000Y-132450000D03*
X155300000Y-133350000D03*
D25*
X175600000Y-119100000D03*
D26*
X177400000Y-119100000D03*
X177400000Y-117100000D03*
X175400000Y-117100000D03*
D11*
X163125000Y-56300000D03*
X163125000Y-56800000D03*
X163125000Y-57300000D03*
X164475000Y-57300000D03*
X164475000Y-56800000D03*
X164475000Y-56300000D03*
D15*
X145450000Y-56400000D03*
X146350000Y-56400000D03*
X179950000Y-89100000D03*
X179050000Y-89100000D03*
D14*
X155300000Y-144950000D03*
X155300000Y-145850000D03*
D15*
X157450000Y-118500000D03*
X156550000Y-118500000D03*
D11*
X133075000Y-117400000D03*
X133075000Y-116900000D03*
X133075000Y-116400000D03*
X131725000Y-116400000D03*
X131725000Y-116900000D03*
X131725000Y-117400000D03*
D14*
X153100000Y-55350000D03*
X153100000Y-54450000D03*
D11*
X182675000Y-90000000D03*
X182675000Y-89500000D03*
X182675000Y-89000000D03*
X181325000Y-89000000D03*
X181325000Y-89500000D03*
X181325000Y-90000000D03*
D20*
X145400000Y-141725000D03*
X145400000Y-143275000D03*
D19*
X154250000Y-55100000D03*
X154250000Y-56400000D03*
X156150000Y-55750000D03*
D13*
X132650000Y-76900000D03*
X134150000Y-76900000D03*
D15*
X141450000Y-93200000D03*
X140550000Y-93200000D03*
X172550000Y-142300000D03*
X173450000Y-142300000D03*
D21*
X143900000Y-116725000D03*
X143900000Y-118275000D03*
D16*
X171800000Y-80575000D03*
X171800000Y-79625000D03*
D18*
X162300000Y-142050000D03*
X162300000Y-144150000D03*
D11*
X179975000Y-140100000D03*
X179975000Y-139600000D03*
X179975000Y-139100000D03*
X178625000Y-139100000D03*
X178625000Y-139600000D03*
X178625000Y-140100000D03*
D21*
X170100000Y-56275000D03*
X170100000Y-54725000D03*
D14*
X148400000Y-66550000D03*
X148400000Y-67450000D03*
D15*
X141450000Y-80700000D03*
X140550000Y-80700000D03*
D11*
X158625000Y-91600000D03*
X158625000Y-92100000D03*
X158625000Y-92600000D03*
X159975000Y-92600000D03*
X159975000Y-92100000D03*
X159975000Y-91600000D03*
D19*
X159750000Y-142900000D03*
X159750000Y-141600000D03*
X157850000Y-142250000D03*
D15*
X133950000Y-94400000D03*
X134850000Y-94400000D03*
X173750000Y-67000000D03*
X172850000Y-67000000D03*
D12*
X150400000Y-55025000D03*
X149900000Y-55025000D03*
X149400000Y-55025000D03*
X149400000Y-56375000D03*
X149900000Y-56375000D03*
X150400000Y-56375000D03*
X150400000Y-92525000D03*
X149900000Y-92525000D03*
X149400000Y-92525000D03*
X149400000Y-93875000D03*
X149900000Y-93875000D03*
X150400000Y-93875000D03*
D14*
X174700000Y-81200000D03*
X174700000Y-82100000D03*
D23*
X135550000Y-90850000D03*
X134250000Y-90850000D03*
X134900000Y-92750000D03*
D14*
X148400000Y-91550000D03*
X148400000Y-92450000D03*
D16*
X142200000Y-117425000D03*
X142200000Y-118375000D03*
D14*
X140800000Y-79750000D03*
X140800000Y-78850000D03*
X173200000Y-143250000D03*
X173200000Y-144150000D03*
D21*
X170100000Y-93775000D03*
X170100000Y-92225000D03*
D15*
X166450000Y-129600000D03*
X165550000Y-129600000D03*
D39*
X190500000Y-67750000D03*
D14*
X165800000Y-54050000D03*
X165800000Y-53150000D03*
X158700000Y-65550000D03*
X158700000Y-64650000D03*
D24*
X165700000Y-69800000D03*
X165700000Y-68300000D03*
D14*
X162000000Y-66550000D03*
X162000000Y-67450000D03*
D16*
X174300000Y-143225000D03*
X174300000Y-144175000D03*
D39*
X123500000Y-130250000D03*
D17*
X167300000Y-117785000D03*
X167300000Y-118815000D03*
D11*
X180275000Y-96500000D03*
X180275000Y-96000000D03*
X180275000Y-95500000D03*
X178925000Y-95500000D03*
X178925000Y-96000000D03*
X178925000Y-96500000D03*
D15*
X173750000Y-92000000D03*
X172850000Y-92000000D03*
X161850000Y-78100000D03*
X160950000Y-78100000D03*
D10*
X158700000Y-69750000D03*
X157750000Y-69750000D03*
X156800000Y-69750000D03*
X156800000Y-72250000D03*
X157750000Y-72250000D03*
X158700000Y-72250000D03*
D17*
X146700000Y-80215000D03*
X146700000Y-79185000D03*
D22*
X145600000Y-55350000D03*
X145600000Y-53650000D03*
D16*
X141900000Y-54775000D03*
X141900000Y-53825000D03*
D15*
X180050000Y-128600000D03*
X179150000Y-128600000D03*
D13*
X180450000Y-92000000D03*
X181950000Y-92000000D03*
D15*
X162950000Y-65900000D03*
X163850000Y-65900000D03*
X165550000Y-128600000D03*
X166450000Y-128600000D03*
D18*
X151700000Y-93450000D03*
X151700000Y-91350000D03*
D16*
X171800000Y-68075000D03*
X171800000Y-67125000D03*
D23*
X178450000Y-144650000D03*
X179750000Y-144650000D03*
X179100000Y-142750000D03*
D14*
X131000000Y-126650000D03*
X131000000Y-127550000D03*
D10*
X158450000Y-119750000D03*
X157500000Y-119750000D03*
X156550000Y-119750000D03*
X156550000Y-122250000D03*
X157500000Y-122250000D03*
X158450000Y-122250000D03*
D11*
X158625000Y-54100000D03*
X158625000Y-54600000D03*
X158625000Y-55100000D03*
X159975000Y-55100000D03*
X159975000Y-54600000D03*
X159975000Y-54100000D03*
D14*
X139300000Y-141800000D03*
X139300000Y-140900000D03*
D12*
X142500000Y-69375000D03*
X143000000Y-69375000D03*
X143500000Y-69375000D03*
X143500000Y-68025000D03*
X143000000Y-68025000D03*
X142500000Y-68025000D03*
D19*
X154250000Y-80100000D03*
X154250000Y-81400000D03*
X156150000Y-80750000D03*
D40*
X132875000Y-78950000D03*
X132875000Y-81550000D03*
D14*
X159900000Y-56150000D03*
X159900000Y-57050000D03*
D15*
X134050000Y-121400000D03*
X134950000Y-121400000D03*
D14*
X140800000Y-54750000D03*
X140800000Y-53850000D03*
D11*
X150875000Y-129200000D03*
X150875000Y-128700000D03*
X150875000Y-128200000D03*
X149525000Y-128200000D03*
X149525000Y-128700000D03*
X149525000Y-129200000D03*
D39*
X123500000Y-67750000D03*
D19*
X159750000Y-117900000D03*
X159750000Y-116600000D03*
X157850000Y-117250000D03*
D12*
X150400000Y-67525000D03*
X149900000Y-67525000D03*
X149400000Y-67525000D03*
X149400000Y-68875000D03*
X149900000Y-68875000D03*
X150400000Y-68875000D03*
D14*
X170800000Y-130750000D03*
X170800000Y-131650000D03*
D18*
X162300000Y-117050000D03*
X162300000Y-119150000D03*
D23*
X135550000Y-53350000D03*
X134250000Y-53350000D03*
X134900000Y-55250000D03*
D14*
X155300000Y-119950000D03*
X155300000Y-120850000D03*
D17*
X161000000Y-53985000D03*
X161000000Y-55015000D03*
D39*
X190500000Y-92750000D03*
D14*
X148400000Y-79050000D03*
X148400000Y-79950000D03*
D20*
X168600000Y-68775000D03*
X168600000Y-67225000D03*
X145400000Y-116725000D03*
X145400000Y-118275000D03*
D14*
X139400000Y-145050000D03*
X139400000Y-144150000D03*
D13*
X181350000Y-133600000D03*
X179850000Y-133600000D03*
D14*
X134100000Y-116450000D03*
X134100000Y-117350000D03*
D11*
X180275000Y-59000000D03*
X180275000Y-58500000D03*
X180275000Y-58000000D03*
X178925000Y-58000000D03*
X178925000Y-58500000D03*
X178925000Y-59000000D03*
D24*
X148300000Y-115700000D03*
X148300000Y-117200000D03*
D11*
X155375000Y-118900000D03*
X155375000Y-118400000D03*
X155375000Y-117900000D03*
X154025000Y-117900000D03*
X154025000Y-118400000D03*
X154025000Y-118900000D03*
D15*
X162950000Y-53400000D03*
X163850000Y-53400000D03*
D14*
X174600000Y-90450000D03*
X174600000Y-91350000D03*
X152000000Y-118950000D03*
X152000000Y-118050000D03*
X173600000Y-94600000D03*
X173600000Y-93700000D03*
D39*
X190500000Y-105250000D03*
D15*
X151050000Y-119600000D03*
X150150000Y-119600000D03*
D14*
X170800000Y-143250000D03*
X170800000Y-144150000D03*
D15*
X156550000Y-67000000D03*
X157450000Y-67000000D03*
D14*
X179900000Y-81550000D03*
X179900000Y-80650000D03*
X153100000Y-92850000D03*
X153100000Y-91950000D03*
X162000000Y-91550000D03*
X162000000Y-92450000D03*
D15*
X150150000Y-131100000D03*
X151050000Y-131100000D03*
X177750000Y-83100000D03*
X176850000Y-83100000D03*
X165550000Y-116100000D03*
X166450000Y-116100000D03*
D14*
X179900000Y-69050000D03*
X179900000Y-68150000D03*
D11*
X180925000Y-55600000D03*
X180925000Y-56100000D03*
X180925000Y-56600000D03*
X182275000Y-56600000D03*
X182275000Y-56100000D03*
X182275000Y-55600000D03*
D15*
X163850000Y-79400000D03*
X162950000Y-79400000D03*
X147550000Y-55900000D03*
X148450000Y-55900000D03*
D20*
X168600000Y-81275000D03*
X168600000Y-79725000D03*
D12*
X171500000Y-116125000D03*
X171000000Y-116125000D03*
X170500000Y-116125000D03*
X170500000Y-117475000D03*
X171000000Y-117475000D03*
X171500000Y-117475000D03*
D14*
X165600000Y-131450000D03*
X165600000Y-130550000D03*
D10*
X155300000Y-115750000D03*
X156250000Y-115750000D03*
X157200000Y-115750000D03*
X157200000Y-113250000D03*
X156250000Y-113250000D03*
X155300000Y-113250000D03*
D14*
X154100000Y-141850000D03*
X154100000Y-140950000D03*
D15*
X140250000Y-143500000D03*
X141150000Y-143500000D03*
D14*
X140800000Y-67250000D03*
X140800000Y-66350000D03*
D16*
X141900000Y-92275000D03*
X141900000Y-91325000D03*
D27*
X141280000Y-94300000D03*
X139920000Y-94300000D03*
X172720000Y-128700000D03*
X174080000Y-128700000D03*
D14*
X165800000Y-91550000D03*
X165800000Y-90650000D03*
X160900000Y-130150000D03*
X160900000Y-131050000D03*
X165800000Y-66550000D03*
X165800000Y-65650000D03*
X148200000Y-131450000D03*
X148200000Y-132350000D03*
D15*
X145450000Y-81400000D03*
X146350000Y-81400000D03*
D12*
X142500000Y-94375000D03*
X143000000Y-94375000D03*
X143500000Y-94375000D03*
X143500000Y-93025000D03*
X143000000Y-93025000D03*
X142500000Y-93025000D03*
D15*
X148450000Y-94400000D03*
X147550000Y-94400000D03*
D10*
X158700000Y-57250000D03*
X157750000Y-57250000D03*
X156800000Y-57250000D03*
X156800000Y-59750000D03*
X157750000Y-59750000D03*
X158700000Y-59750000D03*
X158700000Y-94750000D03*
X157750000Y-94750000D03*
X156800000Y-94750000D03*
X156800000Y-97250000D03*
X157750000Y-97250000D03*
X158700000Y-97250000D03*
D22*
X145600000Y-92850000D03*
X145600000Y-91150000D03*
D39*
X190500000Y-117750000D03*
D15*
X152150000Y-144900000D03*
X153050000Y-144900000D03*
D14*
X179900000Y-56550000D03*
X179900000Y-55650000D03*
X169500000Y-142650000D03*
X169500000Y-143550000D03*
X160900000Y-117650000D03*
X160900000Y-118550000D03*
D15*
X179950000Y-52900000D03*
X179050000Y-52900000D03*
D11*
X155375000Y-131400000D03*
X155375000Y-130900000D03*
X155375000Y-130400000D03*
X154025000Y-130400000D03*
X154025000Y-130900000D03*
X154025000Y-131400000D03*
D27*
X172720000Y-116200000D03*
X174080000Y-116200000D03*
D15*
X151050000Y-144600000D03*
X150150000Y-144600000D03*
D11*
X182675000Y-77500000D03*
X182675000Y-77000000D03*
X182675000Y-76500000D03*
X181325000Y-76500000D03*
X181325000Y-77000000D03*
X181325000Y-77500000D03*
D14*
X174700000Y-93700000D03*
X174700000Y-94600000D03*
D11*
X163125000Y-81300000D03*
X163125000Y-81800000D03*
X163125000Y-82300000D03*
X164475000Y-82300000D03*
X164475000Y-81800000D03*
X164475000Y-81300000D03*
D14*
X144500000Y-55350000D03*
X144500000Y-54450000D03*
D21*
X170100000Y-68775000D03*
X170100000Y-67225000D03*
D15*
X180050000Y-116100000D03*
X179150000Y-116100000D03*
D11*
X158625000Y-66600000D03*
X158625000Y-67100000D03*
X158625000Y-67600000D03*
X159975000Y-67600000D03*
X159975000Y-67100000D03*
X159975000Y-66600000D03*
D14*
X144500000Y-80350000D03*
X144500000Y-79450000D03*
D15*
X145450000Y-93900000D03*
X146350000Y-93900000D03*
D24*
X165700000Y-82300000D03*
X165700000Y-80800000D03*
D15*
X145450000Y-68900000D03*
X146350000Y-68900000D03*
D11*
X180275000Y-84000000D03*
X180275000Y-83500000D03*
X180275000Y-83000000D03*
X178925000Y-83000000D03*
X178925000Y-83500000D03*
X178925000Y-84000000D03*
D14*
X139300000Y-129300000D03*
X139300000Y-128400000D03*
X174600000Y-52950000D03*
X174600000Y-53850000D03*
D11*
X131325000Y-120500000D03*
X131325000Y-121000000D03*
X131325000Y-121500000D03*
X132675000Y-121500000D03*
X132675000Y-121000000D03*
X132675000Y-120500000D03*
D14*
X159900000Y-93650000D03*
X159900000Y-94550000D03*
D15*
X156150000Y-116900000D03*
X155250000Y-116900000D03*
X140250000Y-131000000D03*
X141150000Y-131000000D03*
X166450000Y-117100000D03*
X165550000Y-117100000D03*
D14*
X154100000Y-116850000D03*
X154100000Y-115950000D03*
D40*
X183625000Y-94050000D03*
X183625000Y-91450000D03*
D15*
X180050000Y-141100000D03*
X179150000Y-141100000D03*
X136250000Y-139900000D03*
X137150000Y-139900000D03*
D11*
X134025000Y-57900000D03*
X134025000Y-58400000D03*
X134025000Y-58900000D03*
X135375000Y-58900000D03*
X135375000Y-58400000D03*
X135375000Y-57900000D03*
D16*
X172100000Y-143225000D03*
X172100000Y-144175000D03*
D15*
X140250000Y-118500000D03*
X141150000Y-118500000D03*
D10*
X155550000Y-53250000D03*
X156500000Y-53250000D03*
X157450000Y-53250000D03*
X157450000Y-50750000D03*
X156500000Y-50750000D03*
X155550000Y-50750000D03*
D14*
X173600000Y-57100000D03*
X173600000Y-56200000D03*
D16*
X142200000Y-142425000D03*
X142200000Y-143375000D03*
D14*
X140800000Y-92250000D03*
X140800000Y-91350000D03*
D13*
X133550000Y-143500000D03*
X132050000Y-143500000D03*
D19*
X154250000Y-67600000D03*
X154250000Y-68900000D03*
X156150000Y-68250000D03*
D16*
X142200000Y-129925000D03*
X142200000Y-130875000D03*
X172100000Y-130725000D03*
X172100000Y-131675000D03*
D11*
X131325000Y-145500000D03*
X131325000Y-146000000D03*
X131325000Y-146500000D03*
X132675000Y-146500000D03*
X132675000Y-146000000D03*
X132675000Y-145500000D03*
D14*
X134100000Y-141450000D03*
X134100000Y-142350000D03*
X183000000Y-83850000D03*
X183000000Y-82950000D03*
D11*
X133075000Y-129900000D03*
X133075000Y-129400000D03*
X133075000Y-128900000D03*
X131725000Y-128900000D03*
X131725000Y-129400000D03*
X131725000Y-129900000D03*
D14*
X143200000Y-67250000D03*
X143200000Y-66350000D03*
D17*
X161000000Y-66485000D03*
X161000000Y-67515000D03*
D11*
X158625000Y-79100000D03*
X158625000Y-79600000D03*
X158625000Y-80100000D03*
X159975000Y-80100000D03*
X159975000Y-79600000D03*
X159975000Y-79100000D03*
D40*
X132875000Y-91450000D03*
X132875000Y-94050000D03*
D27*
X141280000Y-56800000D03*
X139920000Y-56800000D03*
D11*
X131325000Y-133000000D03*
X131325000Y-133500000D03*
X131325000Y-134000000D03*
X132675000Y-134000000D03*
X132675000Y-133500000D03*
X132675000Y-133000000D03*
D14*
X153100000Y-67850000D03*
X153100000Y-66950000D03*
D40*
X132875000Y-66450000D03*
X132875000Y-69050000D03*
D15*
X148450000Y-69400000D03*
X147550000Y-69400000D03*
D41*
X176875000Y-92325000D03*
X176875000Y-93175000D03*
X177725000Y-92325000D03*
X177725000Y-93175000D03*
D42*
X175850000Y-91950000D03*
D43*
X175850000Y-92350000D03*
X175850000Y-92750000D03*
X175850000Y-93150000D03*
D44*
X175850000Y-93550000D03*
D45*
X176500000Y-94200000D03*
D46*
X176900000Y-94200000D03*
X177300000Y-94200000D03*
X177700000Y-94200000D03*
D47*
X178100000Y-94200000D03*
D48*
X178750000Y-93550000D03*
D43*
X178750000Y-93150000D03*
X178750000Y-92750000D03*
X178750000Y-92350000D03*
D49*
X178750000Y-91950000D03*
D50*
X178100000Y-91300000D03*
D46*
X177700000Y-91300000D03*
X177300000Y-91300000D03*
X176900000Y-91300000D03*
D51*
X176500000Y-91300000D03*
D15*
X162950000Y-90900000D03*
X163850000Y-90900000D03*
D16*
X174300000Y-130725000D03*
X174300000Y-131675000D03*
D15*
X168550000Y-116600000D03*
X167650000Y-116600000D03*
D12*
X163600000Y-130475000D03*
X164100000Y-130475000D03*
X164600000Y-130475000D03*
X164600000Y-129125000D03*
X164100000Y-129125000D03*
X163600000Y-129125000D03*
D14*
X144500000Y-67850000D03*
X144500000Y-66950000D03*
D39*
X190500000Y-80250000D03*
D13*
X133550000Y-131000000D03*
X132050000Y-131000000D03*
X180450000Y-67000000D03*
X181950000Y-67000000D03*
D14*
X139400000Y-120050000D03*
X139400000Y-119150000D03*
D15*
X141450000Y-55700000D03*
X140550000Y-55700000D03*
D14*
X152000000Y-143950000D03*
X152000000Y-143050000D03*
D12*
X163600000Y-142975000D03*
X164100000Y-142975000D03*
X164600000Y-142975000D03*
X164600000Y-141625000D03*
X164100000Y-141625000D03*
X163600000Y-141625000D03*
D19*
X154250000Y-92600000D03*
X154250000Y-93900000D03*
X156150000Y-93250000D03*
D15*
X134050000Y-145100000D03*
X134950000Y-145100000D03*
D24*
X165700000Y-57300000D03*
X165700000Y-55800000D03*
D14*
X164800000Y-78150000D03*
X164800000Y-79050000D03*
X131000000Y-114150000D03*
X131000000Y-115050000D03*
D15*
X156150000Y-141900000D03*
X155250000Y-141900000D03*
D14*
X174700000Y-56200000D03*
X174700000Y-57100000D03*
X165800000Y-79050000D03*
X165800000Y-78150000D03*
D40*
X183625000Y-69050000D03*
X183625000Y-66450000D03*
D15*
X172550000Y-129800000D03*
X173450000Y-129800000D03*
X157850000Y-93600000D03*
X158750000Y-93600000D03*
D10*
X155300000Y-140750000D03*
X156250000Y-140750000D03*
X157200000Y-140750000D03*
X157200000Y-138250000D03*
X156250000Y-138250000D03*
X155300000Y-138250000D03*
D15*
X179950000Y-51600000D03*
X179050000Y-51600000D03*
D14*
X165600000Y-118950000D03*
X165600000Y-118050000D03*
D20*
X168600000Y-93775000D03*
X168600000Y-92225000D03*
D14*
X173600000Y-69600000D03*
X173600000Y-68700000D03*
D16*
X139700000Y-79775000D03*
X139700000Y-78825000D03*
D14*
X149200000Y-144850000D03*
X149200000Y-143950000D03*
D15*
X173750000Y-54500000D03*
X172850000Y-54500000D03*
D14*
X158700000Y-78050000D03*
X158700000Y-77150000D03*
D41*
X176875000Y-67325000D03*
X176875000Y-68175000D03*
X177725000Y-67325000D03*
X177725000Y-68175000D03*
D42*
X175850000Y-66950000D03*
D43*
X175850000Y-67350000D03*
X175850000Y-67750000D03*
X175850000Y-68150000D03*
D44*
X175850000Y-68550000D03*
D45*
X176500000Y-69200000D03*
D46*
X176900000Y-69200000D03*
X177300000Y-69200000D03*
X177700000Y-69200000D03*
D47*
X178100000Y-69200000D03*
D48*
X178750000Y-68550000D03*
D43*
X178750000Y-68150000D03*
X178750000Y-67750000D03*
X178750000Y-67350000D03*
D49*
X178750000Y-66950000D03*
D50*
X178100000Y-66300000D03*
D46*
X177700000Y-66300000D03*
X177300000Y-66300000D03*
X176900000Y-66300000D03*
D51*
X176500000Y-66300000D03*
D15*
X147550000Y-80900000D03*
X148450000Y-80900000D03*
D14*
X149200000Y-132350000D03*
X149200000Y-131450000D03*
X148200000Y-143950000D03*
X148200000Y-144850000D03*
X173600000Y-82100000D03*
X173600000Y-81200000D03*
D18*
X151700000Y-55950000D03*
X151700000Y-53850000D03*
D11*
X150875000Y-141700000D03*
X150875000Y-141200000D03*
X150875000Y-140700000D03*
X149525000Y-140700000D03*
X149525000Y-141200000D03*
X149525000Y-141700000D03*
D16*
X139700000Y-54775000D03*
X139700000Y-53825000D03*
D17*
X146700000Y-55215000D03*
X146700000Y-54185000D03*
D14*
X143200000Y-79750000D03*
X143200000Y-78850000D03*
D40*
X183625000Y-56550000D03*
X183625000Y-53950000D03*
D41*
X176875000Y-54825000D03*
X176875000Y-55675000D03*
X177725000Y-54825000D03*
X177725000Y-55675000D03*
D42*
X175850000Y-54450000D03*
D43*
X175850000Y-54850000D03*
X175850000Y-55250000D03*
X175850000Y-55650000D03*
D44*
X175850000Y-56050000D03*
D45*
X176500000Y-56700000D03*
D46*
X176900000Y-56700000D03*
X177300000Y-56700000D03*
X177700000Y-56700000D03*
D47*
X178100000Y-56700000D03*
D48*
X178750000Y-56050000D03*
D43*
X178750000Y-55650000D03*
X178750000Y-55250000D03*
X178750000Y-54850000D03*
D49*
X178750000Y-54450000D03*
D50*
X178100000Y-53800000D03*
D46*
X177700000Y-53800000D03*
X177300000Y-53800000D03*
X176900000Y-53800000D03*
D51*
X176500000Y-53800000D03*
D15*
X163850000Y-54400000D03*
X162950000Y-54400000D03*
X168550000Y-129100000D03*
X167650000Y-129100000D03*
D14*
X158700000Y-90550000D03*
X158700000Y-89650000D03*
X165600000Y-143950000D03*
X165600000Y-143050000D03*
X158700000Y-53050000D03*
X158700000Y-52150000D03*
D13*
X132650000Y-64400000D03*
X134150000Y-64400000D03*
D15*
X179950000Y-77900000D03*
X179050000Y-77900000D03*
D14*
X140400000Y-140900000D03*
X140400000Y-141800000D03*
X173200000Y-118250000D03*
X173200000Y-119150000D03*
D11*
X134025000Y-82900000D03*
X134025000Y-83400000D03*
X134025000Y-83900000D03*
X135375000Y-83900000D03*
X135375000Y-83400000D03*
X135375000Y-82900000D03*
D18*
X151700000Y-68450000D03*
X151700000Y-66350000D03*
D14*
X160900000Y-142650000D03*
X160900000Y-143550000D03*
D15*
X157850000Y-56100000D03*
X158750000Y-56100000D03*
D14*
X164800000Y-65650000D03*
X164800000Y-66550000D03*
D11*
X133725000Y-114000000D03*
X133725000Y-114500000D03*
X133725000Y-115000000D03*
X135075000Y-115000000D03*
X135075000Y-114500000D03*
X135075000Y-114000000D03*
D13*
X132650000Y-89400000D03*
X134150000Y-89400000D03*
D39*
X190500000Y-130250000D03*
X190500000Y-55250000D03*
D15*
X163850000Y-66900000D03*
X162950000Y-66900000D03*
X161850000Y-90600000D03*
X160950000Y-90600000D03*
D39*
X190500000Y-142750000D03*
D15*
X152150000Y-132400000D03*
X153050000Y-132400000D03*
D22*
X168400000Y-130150000D03*
X168400000Y-131850000D03*
D14*
X164800000Y-53150000D03*
X164800000Y-54050000D03*
D15*
X133950000Y-81900000D03*
X134850000Y-81900000D03*
D25*
X138400000Y-91400000D03*
D26*
X136600000Y-91400000D03*
X136600000Y-93400000D03*
X138600000Y-93400000D03*
D10*
X155550000Y-78250000D03*
X156500000Y-78250000D03*
X157450000Y-78250000D03*
X157450000Y-75750000D03*
X156500000Y-75750000D03*
X155550000Y-75750000D03*
D15*
X179950000Y-90400000D03*
X179050000Y-90400000D03*
D28*
X137125000Y-130675000D03*
X137125000Y-129825000D03*
X136275000Y-130675000D03*
X136275000Y-129825000D03*
D29*
X138150000Y-131050000D03*
D30*
X138150000Y-130650000D03*
X138150000Y-130250000D03*
X138150000Y-129850000D03*
D31*
X138150000Y-129450000D03*
D32*
X137500000Y-128800000D03*
D33*
X137100000Y-128800000D03*
X136700000Y-128800000D03*
X136300000Y-128800000D03*
D34*
X135900000Y-128800000D03*
D35*
X135250000Y-129450000D03*
D30*
X135250000Y-129850000D03*
X135250000Y-130250000D03*
X135250000Y-130650000D03*
D36*
X135250000Y-131050000D03*
D37*
X135900000Y-131700000D03*
D33*
X136300000Y-131700000D03*
X136700000Y-131700000D03*
X137100000Y-131700000D03*
D38*
X137500000Y-131700000D03*
D11*
X133725000Y-139000000D03*
X133725000Y-139500000D03*
X133725000Y-140000000D03*
X135075000Y-140000000D03*
X135075000Y-139500000D03*
X135075000Y-139000000D03*
D15*
X177750000Y-70600000D03*
X176850000Y-70600000D03*
D24*
X148300000Y-128200000D03*
X148300000Y-129700000D03*
D10*
X158700000Y-82250000D03*
X157750000Y-82250000D03*
X156800000Y-82250000D03*
X156800000Y-84750000D03*
X157750000Y-84750000D03*
X158700000Y-84750000D03*
D11*
X133075000Y-142400000D03*
X133075000Y-141900000D03*
X133075000Y-141400000D03*
X131725000Y-141400000D03*
X131725000Y-141900000D03*
X131725000Y-142400000D03*
D15*
X157450000Y-131000000D03*
X156550000Y-131000000D03*
D39*
X123500000Y-80250000D03*
D16*
X171800000Y-55575000D03*
X171800000Y-54625000D03*
D15*
X136250000Y-114900000D03*
X137150000Y-114900000D03*
X179950000Y-76600000D03*
X179050000Y-76600000D03*
D25*
X175600000Y-144100000D03*
D26*
X177400000Y-144100000D03*
X177400000Y-142100000D03*
X175400000Y-142100000D03*
D11*
X155375000Y-143900000D03*
X155375000Y-143400000D03*
X155375000Y-142900000D03*
X154025000Y-142900000D03*
X154025000Y-143400000D03*
X154025000Y-143900000D03*
D15*
X157450000Y-143500000D03*
X156550000Y-143500000D03*
D22*
X145600000Y-67850000D03*
X145600000Y-66150000D03*
D21*
X143900000Y-141725000D03*
X143900000Y-143275000D03*
D17*
X167300000Y-130285000D03*
X167300000Y-131315000D03*
D27*
X172720000Y-141200000D03*
X174080000Y-141200000D03*
D15*
X156150000Y-129400000D03*
X155250000Y-129400000D03*
D14*
X159900000Y-81150000D03*
X159900000Y-82050000D03*
D11*
X133725000Y-126500000D03*
X133725000Y-127000000D03*
X133725000Y-127500000D03*
X135075000Y-127500000D03*
X135075000Y-127000000D03*
X135075000Y-126500000D03*
D15*
X177750000Y-58100000D03*
X176850000Y-58100000D03*
X150150000Y-118600000D03*
X151050000Y-118600000D03*
D12*
X142500000Y-81875000D03*
X143000000Y-81875000D03*
X143500000Y-81875000D03*
X143500000Y-80525000D03*
X143000000Y-80525000D03*
X142500000Y-80525000D03*
X171500000Y-128625000D03*
X171000000Y-128625000D03*
X170500000Y-128625000D03*
X170500000Y-129975000D03*
X171000000Y-129975000D03*
X171500000Y-129975000D03*
D15*
X134050000Y-133900000D03*
X134950000Y-133900000D03*
D16*
X172100000Y-118225000D03*
X172100000Y-119175000D03*
D14*
X183000000Y-58850000D03*
X183000000Y-57950000D03*
D16*
X139700000Y-67275000D03*
X139700000Y-66325000D03*
D25*
X138400000Y-53900000D03*
D26*
X136600000Y-53900000D03*
X136600000Y-55900000D03*
X138600000Y-55900000D03*
D14*
X169500000Y-130150000D03*
X169500000Y-131050000D03*
X144500000Y-92850000D03*
X144500000Y-91950000D03*
X183000000Y-71350000D03*
X183000000Y-70450000D03*
X140400000Y-115900000D03*
X140400000Y-116800000D03*
X174600000Y-65450000D03*
X174600000Y-66350000D03*
X174700000Y-68700000D03*
X174700000Y-69600000D03*
D13*
X133550000Y-118500000D03*
X132050000Y-118500000D03*
D12*
X171500000Y-141125000D03*
X171000000Y-141125000D03*
X170500000Y-141125000D03*
X170500000Y-142475000D03*
X171000000Y-142475000D03*
X171500000Y-142475000D03*
D14*
X143200000Y-54750000D03*
X143200000Y-53850000D03*
D39*
X123500000Y-117750000D03*
D17*
X146700000Y-92715000D03*
X146700000Y-91685000D03*
D11*
X134025000Y-95400000D03*
X134025000Y-95900000D03*
X134025000Y-96400000D03*
X135375000Y-96400000D03*
X135375000Y-95900000D03*
X135375000Y-95400000D03*
D27*
X141280000Y-69300000D03*
X139920000Y-69300000D03*
D18*
X162300000Y-129550000D03*
X162300000Y-131650000D03*
D40*
X183625000Y-81550000D03*
X183625000Y-78950000D03*
D15*
X168550000Y-141600000D03*
X167650000Y-141600000D03*
D13*
X181350000Y-146100000D03*
X179850000Y-146100000D03*
D15*
X152150000Y-119900000D03*
X153050000Y-119900000D03*
D22*
X168400000Y-117650000D03*
X168400000Y-119350000D03*
D18*
X151700000Y-80950000D03*
X151700000Y-78850000D03*
D40*
X132875000Y-53950000D03*
X132875000Y-56550000D03*
D41*
X176875000Y-79825000D03*
X176875000Y-80675000D03*
X177725000Y-79825000D03*
X177725000Y-80675000D03*
D42*
X175850000Y-79450000D03*
D43*
X175850000Y-79850000D03*
X175850000Y-80250000D03*
X175850000Y-80650000D03*
D44*
X175850000Y-81050000D03*
D45*
X176500000Y-81700000D03*
D46*
X176900000Y-81700000D03*
X177300000Y-81700000D03*
X177700000Y-81700000D03*
D47*
X178100000Y-81700000D03*
D48*
X178750000Y-81050000D03*
D43*
X178750000Y-80650000D03*
X178750000Y-80250000D03*
X178750000Y-79850000D03*
D49*
X178750000Y-79450000D03*
D50*
X178100000Y-78800000D03*
D46*
X177700000Y-78800000D03*
X177300000Y-78800000D03*
X176900000Y-78800000D03*
D51*
X176500000Y-78800000D03*
D17*
X161000000Y-78985000D03*
X161000000Y-80015000D03*
D25*
X138400000Y-78900000D03*
D26*
X136600000Y-78900000D03*
X136600000Y-80900000D03*
X138600000Y-80900000D03*
D10*
X158450000Y-132250000D03*
X157500000Y-132250000D03*
X156550000Y-132250000D03*
X156550000Y-134750000D03*
X157500000Y-134750000D03*
X158450000Y-134750000D03*
D14*
X152000000Y-131450000D03*
X152000000Y-130550000D03*
D17*
X146700000Y-67715000D03*
X146700000Y-66685000D03*
D23*
X178450000Y-119650000D03*
X179750000Y-119650000D03*
X179100000Y-117750000D03*
D14*
X148200000Y-118950000D03*
X148200000Y-119850000D03*
D13*
X181350000Y-121100000D03*
X179850000Y-121100000D03*
D14*
X153100000Y-80350000D03*
X153100000Y-79450000D03*
D15*
X165550000Y-141100000D03*
X166450000Y-141100000D03*
D10*
X155550000Y-65750000D03*
X156500000Y-65750000D03*
X157450000Y-65750000D03*
X157450000Y-63250000D03*
X156500000Y-63250000D03*
X155550000Y-63250000D03*
D11*
X134025000Y-70400000D03*
X134025000Y-70900000D03*
X134025000Y-71400000D03*
X135375000Y-71400000D03*
X135375000Y-70900000D03*
X135375000Y-70400000D03*
D15*
X177750000Y-95600000D03*
X176850000Y-95600000D03*
D24*
X148300000Y-140700000D03*
X148300000Y-142200000D03*
D15*
X156550000Y-92000000D03*
X157450000Y-92000000D03*
D19*
X159750000Y-130400000D03*
X159750000Y-129100000D03*
X157850000Y-129750000D03*
D11*
X163125000Y-93800000D03*
X163125000Y-94300000D03*
X163125000Y-94800000D03*
X164475000Y-94800000D03*
X164475000Y-94300000D03*
X164475000Y-93800000D03*
D15*
X179950000Y-64100000D03*
X179050000Y-64100000D03*
D14*
X143200000Y-92250000D03*
X143200000Y-91350000D03*
D11*
X182675000Y-52500000D03*
X182675000Y-52000000D03*
X182675000Y-51500000D03*
X181325000Y-51500000D03*
X181325000Y-52000000D03*
X181325000Y-52500000D03*
X180925000Y-80600000D03*
X180925000Y-81100000D03*
X180925000Y-81600000D03*
X182275000Y-81600000D03*
X182275000Y-81100000D03*
X182275000Y-80600000D03*
D15*
X150150000Y-143600000D03*
X151050000Y-143600000D03*
X134050000Y-146400000D03*
X134950000Y-146400000D03*
D24*
X165700000Y-94800000D03*
X165700000Y-93300000D03*
D15*
X161850000Y-65600000D03*
X160950000Y-65600000D03*
D14*
X169500000Y-117650000D03*
X169500000Y-118550000D03*
D12*
X150400000Y-80025000D03*
X149900000Y-80025000D03*
X149400000Y-80025000D03*
X149400000Y-81375000D03*
X149900000Y-81375000D03*
X150400000Y-81375000D03*
D11*
X179975000Y-127600000D03*
X179975000Y-127100000D03*
X179975000Y-126600000D03*
X178625000Y-126600000D03*
X178625000Y-127100000D03*
X178625000Y-127600000D03*
D14*
X173200000Y-130750000D03*
X173200000Y-131650000D03*
X131000000Y-139150000D03*
X131000000Y-140050000D03*
X139300000Y-116800000D03*
X139300000Y-115900000D03*
D17*
X153000000Y-119015000D03*
X153000000Y-117985000D03*
D13*
X180450000Y-54500000D03*
X181950000Y-54500000D03*
D14*
X183000000Y-96350000D03*
X183000000Y-95450000D03*
D11*
X180275000Y-71500000D03*
X180275000Y-71000000D03*
X180275000Y-70500000D03*
X178925000Y-70500000D03*
X178925000Y-71000000D03*
X178925000Y-71500000D03*
D10*
X158450000Y-144750000D03*
X157500000Y-144750000D03*
X156550000Y-144750000D03*
X156550000Y-147250000D03*
X157500000Y-147250000D03*
X158450000Y-147250000D03*
D11*
X150875000Y-116700000D03*
X150875000Y-116200000D03*
X150875000Y-115700000D03*
X149525000Y-115700000D03*
X149525000Y-116200000D03*
X149525000Y-116700000D03*
D28*
X137125000Y-118175000D03*
X137125000Y-117325000D03*
X136275000Y-118175000D03*
X136275000Y-117325000D03*
D29*
X138150000Y-118550000D03*
D30*
X138150000Y-118150000D03*
X138150000Y-117750000D03*
X138150000Y-117350000D03*
D31*
X138150000Y-116950000D03*
D32*
X137500000Y-116300000D03*
D33*
X137100000Y-116300000D03*
X136700000Y-116300000D03*
X136300000Y-116300000D03*
D34*
X135900000Y-116300000D03*
D35*
X135250000Y-116950000D03*
D30*
X135250000Y-117350000D03*
X135250000Y-117750000D03*
X135250000Y-118150000D03*
D36*
X135250000Y-118550000D03*
D37*
X135900000Y-119200000D03*
D33*
X136300000Y-119200000D03*
X136700000Y-119200000D03*
X137100000Y-119200000D03*
D38*
X137500000Y-119200000D03*
D39*
X123500000Y-105250000D03*
D16*
X139700000Y-92275000D03*
X139700000Y-91325000D03*
D15*
X148450000Y-81900000D03*
X147550000Y-81900000D03*
X172550000Y-117300000D03*
X173450000Y-117300000D03*
D14*
X149200000Y-119850000D03*
X149200000Y-118950000D03*
D11*
X182675000Y-65000000D03*
X182675000Y-64500000D03*
X182675000Y-64000000D03*
X181325000Y-64000000D03*
X181325000Y-64500000D03*
X181325000Y-65000000D03*
D22*
X145600000Y-80350000D03*
X145600000Y-78650000D03*
D39*
X123500000Y-92750000D03*
D17*
X167300000Y-142785000D03*
X167300000Y-143815000D03*
D20*
X145400000Y-129225000D03*
X145400000Y-130775000D03*
D27*
X141280000Y-81800000D03*
X139920000Y-81800000D03*
D15*
X161850000Y-53100000D03*
X160950000Y-53100000D03*
X136250000Y-127400000D03*
X137150000Y-127400000D03*
D21*
X170100000Y-81275000D03*
X170100000Y-79725000D03*
D15*
X163850000Y-91900000D03*
X162950000Y-91900000D03*
D14*
X140400000Y-128400000D03*
X140400000Y-129300000D03*
D15*
X147550000Y-93400000D03*
X148450000Y-93400000D03*
X134050000Y-132600000D03*
X134950000Y-132600000D03*
D28*
X137125000Y-143175000D03*
X137125000Y-142325000D03*
X136275000Y-143175000D03*
X136275000Y-142325000D03*
D29*
X138150000Y-143550000D03*
D30*
X138150000Y-143150000D03*
X138150000Y-142750000D03*
X138150000Y-142350000D03*
D31*
X138150000Y-141950000D03*
D32*
X137500000Y-141300000D03*
D33*
X137100000Y-141300000D03*
X136700000Y-141300000D03*
X136300000Y-141300000D03*
D34*
X135900000Y-141300000D03*
D35*
X135250000Y-141950000D03*
D30*
X135250000Y-142350000D03*
X135250000Y-142750000D03*
X135250000Y-143150000D03*
D36*
X135250000Y-143550000D03*
D37*
X135900000Y-144200000D03*
D33*
X136300000Y-144200000D03*
X136700000Y-144200000D03*
X137100000Y-144200000D03*
D38*
X137500000Y-144200000D03*
D15*
X133950000Y-69400000D03*
X134850000Y-69400000D03*
D22*
X168400000Y-142650000D03*
X168400000Y-144350000D03*
D14*
X148400000Y-54050000D03*
X148400000Y-54950000D03*
D10*
X155550000Y-90750000D03*
X156500000Y-90750000D03*
X157450000Y-90750000D03*
X157450000Y-88250000D03*
X156500000Y-88250000D03*
X155550000Y-88250000D03*
D15*
X157850000Y-68600000D03*
X158750000Y-68600000D03*
X173750000Y-79500000D03*
X172850000Y-79500000D03*
D14*
X164800000Y-90650000D03*
X164800000Y-91550000D03*
D15*
X157850000Y-81100000D03*
X158750000Y-81100000D03*
X162950000Y-78400000D03*
X163850000Y-78400000D03*
D14*
X179900000Y-94050000D03*
X179900000Y-93150000D03*
D16*
X171800000Y-93075000D03*
X171800000Y-92125000D03*
D14*
X174600000Y-77950000D03*
X174600000Y-78850000D03*
X162000000Y-79050000D03*
X162000000Y-79950000D03*
D20*
X168600000Y-56275000D03*
X168600000Y-54725000D03*
D16*
X141900000Y-79775000D03*
X141900000Y-78825000D03*
D14*
X139400000Y-132550000D03*
X139400000Y-131650000D03*
D11*
X163125000Y-68800000D03*
X163125000Y-69300000D03*
X163125000Y-69800000D03*
X164475000Y-69800000D03*
X164475000Y-69300000D03*
X164475000Y-68800000D03*
D23*
X135550000Y-78350000D03*
X134250000Y-78350000D03*
X134900000Y-80250000D03*
D15*
X179950000Y-65400000D03*
X179050000Y-65400000D03*
D23*
X178450000Y-132150000D03*
X179750000Y-132150000D03*
X179100000Y-130250000D03*
D17*
X153000000Y-131515000D03*
X153000000Y-130485000D03*
D13*
X132650000Y-51900000D03*
X134150000Y-51900000D03*
D39*
X123500000Y-142750000D03*
D15*
X151050000Y-132100000D03*
X150150000Y-132100000D03*
X134050000Y-120100000D03*
X134950000Y-120100000D03*
M02*
