G04 #@! TF.GenerationSoftware,KiCad,Pcbnew,9.0.8*
G04 #@! TF.CreationDate,2026-04-13T01:43:04+09:00*
G04 #@! TF.ProjectId,roomlight,726f6f6d-6c69-4676-9874-2e6b69636164,rev?*
G04 #@! TF.SameCoordinates,Original*
G04 #@! TF.FileFunction,Soldermask,Bot*
G04 #@! TF.FilePolarity,Negative*
%FSLAX46Y46*%
G04 Gerber Fmt 4.6, Leading zero omitted, Abs format (unit mm)*
G04 Created by KiCad (PCBNEW 9.0.8) date 2026-04-13 01:43:04*
%MOMM*%
%LPD*%
G01*
G04 APERTURE LIST*
%ADD10R,1.300000X1.300000*%
%ADD11C,2.000000*%
%ADD12R,2.500000X1.200000*%
G04 APERTURE END LIST*
D10*
X161500000Y-92250000D03*
X161500000Y-125250000D03*
X161500000Y-98750000D03*
X68500000Y-48250000D03*
D11*
X62250000Y-35000000D03*
X167750000Y-101000000D03*
X167750000Y-46000000D03*
X167750000Y-79000000D03*
D10*
X68500000Y-54750000D03*
X68500000Y-59250000D03*
D11*
X62250000Y-112000000D03*
D10*
X68500000Y-81250000D03*
D11*
X167750000Y-68000000D03*
D10*
X68500000Y-65750000D03*
D11*
X167750000Y-35000000D03*
X62250000Y-101000000D03*
D10*
X161500000Y-103250000D03*
X68500000Y-43750000D03*
X68500000Y-32750000D03*
X68500000Y-70250000D03*
D11*
X62250000Y-46000000D03*
X62250000Y-90000000D03*
X62250000Y-68000000D03*
X167750000Y-90000000D03*
D10*
X161500000Y-109750000D03*
D11*
X62250000Y-123000000D03*
D10*
X161500000Y-87750000D03*
D11*
X167750000Y-112000000D03*
D10*
X68500000Y-76750000D03*
D11*
X62250000Y-57000000D03*
D10*
X68500000Y-37250000D03*
D11*
X62250000Y-79000000D03*
X167750000Y-123000000D03*
X167750000Y-57000000D03*
D10*
X161500000Y-120750000D03*
X161500000Y-114250000D03*
D12*
X164000000Y-48000000D03*
X164000000Y-46000000D03*
X164000000Y-44000000D03*
X66000000Y-110000000D03*
X66000000Y-112000000D03*
X66000000Y-114000000D03*
X164000000Y-59000000D03*
X164000000Y-57000000D03*
X164000000Y-55000000D03*
X66000000Y-88000000D03*
X66000000Y-90000000D03*
X66000000Y-92000000D03*
X164000000Y-81000000D03*
X164000000Y-79000000D03*
X164000000Y-77000000D03*
X164000000Y-37000000D03*
X164000000Y-35000000D03*
X164000000Y-33000000D03*
X66000000Y-121000000D03*
X66000000Y-123000000D03*
X66000000Y-125000000D03*
X66000000Y-99000000D03*
X66000000Y-101000000D03*
X66000000Y-103000000D03*
X164000000Y-70000000D03*
X164000000Y-68000000D03*
X164000000Y-66000000D03*
G36*
X64750500Y-109399793D02*
G01*
X64750500Y-110600207D01*
X64750207Y-110600500D01*
X64499793Y-110600500D01*
X64499500Y-110600207D01*
X64499500Y-109399793D01*
X64499793Y-109399500D01*
X64750207Y-109399500D01*
X64750500Y-109399793D01*
G37*
G36*
X165500500Y-36399793D02*
G01*
X165500500Y-37600207D01*
X165500207Y-37600500D01*
X165249793Y-37600500D01*
X165249500Y-37600207D01*
X165249500Y-36399793D01*
X165249793Y-36399500D01*
X165500207Y-36399500D01*
X165500500Y-36399793D01*
G37*
G36*
X64750500Y-120399793D02*
G01*
X64750500Y-121600207D01*
X64750207Y-121600500D01*
X64499793Y-121600500D01*
X64499500Y-121600207D01*
X64499500Y-120399793D01*
X64499793Y-120399500D01*
X64750207Y-120399500D01*
X64750500Y-120399793D01*
G37*
G36*
X165500500Y-54399793D02*
G01*
X165500500Y-55600207D01*
X165500207Y-55600500D01*
X165249793Y-55600500D01*
X165249500Y-55600207D01*
X165249500Y-54399793D01*
X165249793Y-54399500D01*
X165500207Y-54399500D01*
X165500500Y-54399793D01*
G37*
G36*
X165500500Y-78399793D02*
G01*
X165500500Y-79600207D01*
X165500207Y-79600500D01*
X165249793Y-79600500D01*
X165249500Y-79600207D01*
X165249500Y-78399793D01*
X165249793Y-78399500D01*
X165500207Y-78399500D01*
X165500500Y-78399793D01*
G37*
G36*
X165500500Y-56399793D02*
G01*
X165500500Y-57600207D01*
X165500207Y-57600500D01*
X165249793Y-57600500D01*
X165249500Y-57600207D01*
X165249500Y-56399793D01*
X165249793Y-56399500D01*
X165500207Y-56399500D01*
X165500500Y-56399793D01*
G37*
G36*
X64750500Y-111399793D02*
G01*
X64750500Y-112600207D01*
X64750207Y-112600500D01*
X64499793Y-112600500D01*
X64499500Y-112600207D01*
X64499500Y-111399793D01*
X64499793Y-111399500D01*
X64750207Y-111399500D01*
X64750500Y-111399793D01*
G37*
G36*
X165500500Y-34399793D02*
G01*
X165500500Y-35600207D01*
X165500207Y-35600500D01*
X165249793Y-35600500D01*
X165249500Y-35600207D01*
X165249500Y-34399793D01*
X165249793Y-34399500D01*
X165500207Y-34399500D01*
X165500500Y-34399793D01*
G37*
G36*
X165500500Y-47399793D02*
G01*
X165500500Y-48600207D01*
X165500207Y-48600500D01*
X165249793Y-48600500D01*
X165249500Y-48600207D01*
X165249500Y-47399793D01*
X165249793Y-47399500D01*
X165500207Y-47399500D01*
X165500500Y-47399793D01*
G37*
G36*
X165500500Y-32399793D02*
G01*
X165500500Y-33600207D01*
X165500207Y-33600500D01*
X165249793Y-33600500D01*
X165249500Y-33600207D01*
X165249500Y-32399793D01*
X165249793Y-32399500D01*
X165500207Y-32399500D01*
X165500500Y-32399793D01*
G37*
G36*
X165500500Y-43399793D02*
G01*
X165500500Y-44600207D01*
X165500207Y-44600500D01*
X165249793Y-44600500D01*
X165249500Y-44600207D01*
X165249500Y-43399793D01*
X165249793Y-43399500D01*
X165500207Y-43399500D01*
X165500500Y-43399793D01*
G37*
G36*
X64750500Y-91399793D02*
G01*
X64750500Y-92600207D01*
X64750207Y-92600500D01*
X64499793Y-92600500D01*
X64499500Y-92600207D01*
X64499500Y-91399793D01*
X64499793Y-91399500D01*
X64750207Y-91399500D01*
X64750500Y-91399793D01*
G37*
G36*
X64750500Y-113399793D02*
G01*
X64750500Y-114600207D01*
X64750207Y-114600500D01*
X64499793Y-114600500D01*
X64499500Y-114600207D01*
X64499500Y-113399793D01*
X64499793Y-113399500D01*
X64750207Y-113399500D01*
X64750500Y-113399793D01*
G37*
G36*
X165500500Y-67399793D02*
G01*
X165500500Y-68600207D01*
X165500207Y-68600500D01*
X165249793Y-68600500D01*
X165249500Y-68600207D01*
X165249500Y-67399793D01*
X165249793Y-67399500D01*
X165500207Y-67399500D01*
X165500500Y-67399793D01*
G37*
G36*
X165500500Y-65399793D02*
G01*
X165500500Y-66600207D01*
X165500207Y-66600500D01*
X165249793Y-66600500D01*
X165249500Y-66600207D01*
X165249500Y-65399793D01*
X165249793Y-65399500D01*
X165500207Y-65399500D01*
X165500500Y-65399793D01*
G37*
G36*
X64750500Y-102399793D02*
G01*
X64750500Y-103600207D01*
X64750207Y-103600500D01*
X64499793Y-103600500D01*
X64499500Y-103600207D01*
X64499500Y-102399793D01*
X64499793Y-102399500D01*
X64750207Y-102399500D01*
X64750500Y-102399793D01*
G37*
G36*
X165500500Y-69399793D02*
G01*
X165500500Y-70600207D01*
X165500207Y-70600500D01*
X165249793Y-70600500D01*
X165249500Y-70600207D01*
X165249500Y-69399793D01*
X165249793Y-69399500D01*
X165500207Y-69399500D01*
X165500500Y-69399793D01*
G37*
G36*
X64750500Y-124399793D02*
G01*
X64750500Y-125600207D01*
X64750207Y-125600500D01*
X64499793Y-125600500D01*
X64499500Y-125600207D01*
X64499500Y-124399793D01*
X64499793Y-124399500D01*
X64750207Y-124399500D01*
X64750500Y-124399793D01*
G37*
G36*
X165500500Y-80399793D02*
G01*
X165500500Y-81600207D01*
X165500207Y-81600500D01*
X165249793Y-81600500D01*
X165249500Y-81600207D01*
X165249500Y-80399793D01*
X165249793Y-80399500D01*
X165500207Y-80399500D01*
X165500500Y-80399793D01*
G37*
G36*
X64750500Y-98399793D02*
G01*
X64750500Y-99600207D01*
X64750207Y-99600500D01*
X64499793Y-99600500D01*
X64499500Y-99600207D01*
X64499500Y-98399793D01*
X64499793Y-98399500D01*
X64750207Y-98399500D01*
X64750500Y-98399793D01*
G37*
G36*
X165500500Y-58399793D02*
G01*
X165500500Y-59600207D01*
X165500207Y-59600500D01*
X165249793Y-59600500D01*
X165249500Y-59600207D01*
X165249500Y-58399793D01*
X165249793Y-58399500D01*
X165500207Y-58399500D01*
X165500500Y-58399793D01*
G37*
G36*
X165500500Y-45399793D02*
G01*
X165500500Y-46600207D01*
X165500207Y-46600500D01*
X165249793Y-46600500D01*
X165249500Y-46600207D01*
X165249500Y-45399793D01*
X165249793Y-45399500D01*
X165500207Y-45399500D01*
X165500500Y-45399793D01*
G37*
G36*
X64750500Y-122399793D02*
G01*
X64750500Y-123600207D01*
X64750207Y-123600500D01*
X64499793Y-123600500D01*
X64499500Y-123600207D01*
X64499500Y-122399793D01*
X64499793Y-122399500D01*
X64750207Y-122399500D01*
X64750500Y-122399793D01*
G37*
G36*
X64750500Y-100399793D02*
G01*
X64750500Y-101600207D01*
X64750207Y-101600500D01*
X64499793Y-101600500D01*
X64499500Y-101600207D01*
X64499500Y-100399793D01*
X64499793Y-100399500D01*
X64750207Y-100399500D01*
X64750500Y-100399793D01*
G37*
G36*
X64750500Y-89399793D02*
G01*
X64750500Y-90600207D01*
X64750207Y-90600500D01*
X64499793Y-90600500D01*
X64499500Y-90600207D01*
X64499500Y-89399793D01*
X64499793Y-89399500D01*
X64750207Y-89399500D01*
X64750500Y-89399793D01*
G37*
G36*
X64750500Y-87399793D02*
G01*
X64750500Y-88600207D01*
X64750207Y-88600500D01*
X64499793Y-88600500D01*
X64499500Y-88600207D01*
X64499500Y-87399793D01*
X64499793Y-87399500D01*
X64750207Y-87399500D01*
X64750500Y-87399793D01*
G37*
G36*
X165500500Y-76399793D02*
G01*
X165500500Y-77600207D01*
X165500207Y-77600500D01*
X165249793Y-77600500D01*
X165249500Y-77600207D01*
X165249500Y-76399793D01*
X165249793Y-76399500D01*
X165500207Y-76399500D01*
X165500500Y-76399793D01*
G37*
M02*
