M48
; DRILL file {KiCad 7.0.11} date Thu Jun  6 00:58:22 2024
; FORMAT={-:-/ absolute / metric / decimal}
; #@! TF.CreationDate,2024-06-06T00:58:22+09:00
; #@! TF.GenerationSoftware,Kicad,Pcbnew,7.0.11
; #@! TF.FileFunction,Plated,1,2,PTH
FMAT,2
METRIC
; #@! TA.AperFunction,Plated,PTH,ViaDrill
T1C0.300
; #@! TA.AperFunction,Plated,PTH,ViaDrill
T2C0.400
; #@! TA.AperFunction,Plated,PTH,ViaDrill
T3C0.500
; #@! TA.AperFunction,Plated,PTH,ViaDrill
T4C0.600
; #@! TA.AperFunction,Plated,PTH,ViaDrill
T5C0.700
; #@! TA.AperFunction,Plated,PTH,ComponentDrill
T6C0.700
; #@! TA.AperFunction,Plated,PTH,ComponentDrill
T7C0.900
%
G90
G05
T1
X108.0Y-96.0
X108.0Y-97.5
X108.0Y-108.0
X108.0Y-109.5
X108.0Y-120.0
X108.0Y-121.5
X108.0Y-132.0
X108.0Y-133.5
X113.25Y-98.0
X113.25Y-110.0
X113.25Y-122.0
X113.25Y-134.0
X123.25Y-51.25
X123.25Y-63.25
X123.25Y-75.25
X123.25Y-87.25
X123.75Y-50.5
X123.75Y-62.5
X123.75Y-74.5
X123.75Y-86.5
X128.5Y-51.5
X128.5Y-63.5
X128.5Y-75.5
X128.5Y-87.5
X129.5Y-52.5
X129.5Y-64.5
X129.5Y-76.5
X129.5Y-88.5
X130.25Y-95.5
X130.25Y-107.5
X130.25Y-119.5
X130.25Y-131.5
X130.5Y-52.5
X130.5Y-64.5
X130.5Y-76.5
X130.5Y-88.5
X131.25Y-52.0
X131.25Y-64.0
X131.25Y-76.0
X131.25Y-88.0
X161.25Y-93.5
X161.25Y-105.5
X161.25Y-117.5
X161.25Y-129.5
X162.0Y-93.0
X162.0Y-105.0
X162.0Y-117.0
X162.0Y-129.0
X162.25Y-50.0
X162.25Y-62.0
X162.25Y-74.0
X162.25Y-86.0
X163.0Y-93.0
X163.0Y-105.0
X163.0Y-117.0
X163.0Y-129.0
X164.0Y-94.0
X164.0Y-106.0
X164.0Y-118.0
X164.0Y-130.0
X168.75Y-95.0
X168.75Y-107.0
X168.75Y-119.0
X168.75Y-131.0
X169.25Y-94.25
X169.25Y-106.25
X169.25Y-118.25
X169.25Y-130.25
X179.25Y-47.5
X179.25Y-59.5
X179.25Y-71.5
X179.25Y-83.5
X184.5Y-48.0
X184.5Y-49.5
X184.5Y-60.0
X184.5Y-61.5
X184.5Y-72.0
X184.5Y-73.5
X184.5Y-84.0
X184.5Y-85.5
T2
X116.5Y-50.0
X116.5Y-62.0
X116.5Y-74.0
X116.5Y-86.0
X117.5Y-48.498
X117.5Y-60.498
X117.5Y-72.498
X117.5Y-84.498
X119.0Y-94.75
X119.0Y-106.75
X119.0Y-118.75
X119.0Y-130.75
X120.75Y-100.0
X120.75Y-112.0
X120.75Y-124.0
X120.75Y-136.0
X130.25Y-97.6
X130.25Y-109.6
X130.25Y-121.6
X130.25Y-133.6
X132.0Y-50.5
X132.0Y-62.5
X132.0Y-74.5
X132.0Y-86.5
X136.0Y-50.9
X136.0Y-62.9
X136.0Y-74.9
X136.0Y-86.9
X137.0Y-50.9
X137.0Y-62.9
X137.0Y-74.9
X137.0Y-86.9
X138.0Y-50.9
X138.0Y-62.9
X138.0Y-74.9
X138.0Y-86.9
X154.5Y-94.6
X154.5Y-106.6
X154.5Y-118.6
X154.5Y-130.6
X155.5Y-94.6
X155.5Y-106.6
X155.5Y-118.6
X155.5Y-130.6
X156.5Y-94.6
X156.5Y-106.6
X156.5Y-118.6
X156.5Y-130.6
X160.5Y-95.0
X160.5Y-107.0
X160.5Y-119.0
X160.5Y-131.0
X162.25Y-47.9
X162.25Y-59.9
X162.25Y-71.9
X162.25Y-83.9
X171.75Y-45.5
X171.75Y-57.5
X171.75Y-69.5
X171.75Y-81.5
X173.5Y-50.75
X173.5Y-62.75
X173.5Y-74.75
X173.5Y-86.75
X175.0Y-97.002
X175.0Y-109.002
X175.0Y-121.002
X175.0Y-133.002
X176.0Y-95.5
X176.0Y-107.5
X176.0Y-119.5
X176.0Y-131.5
T3
X110.499Y-96.65
X110.499Y-108.65
X110.499Y-120.65
X110.499Y-132.65
X123.6Y-94.5
X123.6Y-106.5
X123.6Y-118.5
X123.6Y-130.5
X129.1Y-95.5
X129.1Y-107.5
X129.1Y-119.5
X129.1Y-131.5
X163.4Y-50.0
X163.4Y-62.0
X163.4Y-74.0
X163.4Y-86.0
X168.9Y-51.0
X168.9Y-63.0
X168.9Y-75.0
X168.9Y-87.0
X182.001Y-48.85
X182.001Y-60.85
X182.001Y-72.85
X182.001Y-84.85
T4
X99.25Y-92.25
X99.25Y-104.25
X99.25Y-116.25
X99.25Y-128.25
X99.5Y-44.25
X99.5Y-56.25
X99.5Y-68.25
X99.5Y-80.25
X101.5Y-93.0
X101.5Y-105.0
X101.5Y-117.0
X101.5Y-129.0
X102.25Y-53.5
X102.25Y-65.5
X102.25Y-77.5
X102.25Y-89.5
X102.5Y-44.25
X102.5Y-56.25
X102.5Y-68.25
X102.5Y-80.25
X103.0Y-93.0
X103.0Y-105.0
X103.0Y-117.0
X103.0Y-129.0
X110.75Y-49.5
X110.75Y-61.5
X110.75Y-73.5
X110.75Y-85.5
X115.6Y-47.8
X115.6Y-59.8
X115.6Y-71.8
X115.6Y-83.8
X115.75Y-92.75
X115.75Y-104.75
X115.75Y-116.75
X115.75Y-128.75
X115.9Y-99.875
X115.9Y-111.875
X115.9Y-123.875
X115.9Y-135.875
X118.5Y-47.8
X118.5Y-59.8
X118.5Y-71.8
X118.5Y-83.8
X120.25Y-49.75
X120.25Y-61.75
X120.25Y-73.75
X120.25Y-85.75
X121.35Y-53.95
X121.35Y-65.95
X121.35Y-77.95
X121.35Y-89.95
X122.25Y-96.25
X122.25Y-108.25
X122.25Y-120.25
X122.25Y-132.25
X122.45Y-53.95
X122.45Y-65.95
X122.45Y-77.95
X122.45Y-89.95
X124.25Y-45.25
X124.25Y-57.25
X124.25Y-69.25
X124.25Y-81.25
X125.25Y-45.25
X125.25Y-57.25
X125.25Y-69.25
X125.25Y-81.25
X125.5Y-47.5
X125.5Y-59.5
X125.5Y-71.5
X125.5Y-83.5
X126.2Y-97.8
X126.2Y-109.8
X126.2Y-121.8
X126.2Y-133.8
X127.2Y-97.7
X127.2Y-109.7
X127.2Y-121.7
X127.2Y-133.7
X127.5Y-99.5
X127.5Y-111.5
X127.5Y-123.5
X127.5Y-135.5
X130.0Y-47.5
X130.0Y-59.5
X130.0Y-71.5
X130.0Y-83.5
X134.75Y-98.25
X134.75Y-110.25
X134.75Y-122.25
X134.75Y-134.25
X135.75Y-46.5
X135.75Y-58.5
X135.75Y-70.5
X135.75Y-82.5
X137.0Y-46.5
X137.0Y-58.5
X137.0Y-70.5
X137.0Y-82.5
X138.25Y-46.5
X138.25Y-58.5
X138.25Y-70.5
X138.25Y-82.5
X139.5Y-99.0
X139.5Y-111.0
X139.5Y-123.0
X139.5Y-135.0
X142.25Y-50.0
X142.25Y-62.0
X142.25Y-74.0
X142.25Y-86.0
X142.5Y-99.0
X142.5Y-111.0
X142.5Y-123.0
X142.5Y-135.0
X143.5Y-50.0
X143.5Y-62.0
X143.5Y-74.0
X143.5Y-86.0
X144.0Y-99.0
X144.0Y-111.0
X144.0Y-123.0
X144.0Y-135.0
X144.749Y-95.001
X144.749Y-107.001
X144.749Y-119.001
X144.749Y-131.001
X146.25Y-50.5
X146.25Y-62.5
X146.25Y-74.5
X146.25Y-86.5
X146.25Y-95.0
X146.25Y-107.0
X146.25Y-119.0
X146.25Y-131.0
X147.751Y-50.499
X147.751Y-62.499
X147.751Y-74.499
X147.751Y-86.499
X148.5Y-46.5
X148.5Y-58.5
X148.5Y-70.5
X148.5Y-82.5
X149.0Y-95.5
X149.0Y-107.5
X149.0Y-119.5
X149.0Y-131.5
X150.0Y-46.5
X150.0Y-58.5
X150.0Y-70.5
X150.0Y-82.5
X150.25Y-95.5
X150.25Y-107.5
X150.25Y-119.5
X150.25Y-131.5
X153.0Y-46.5
X153.0Y-58.5
X153.0Y-70.5
X153.0Y-82.5
X154.25Y-99.0
X154.25Y-111.0
X154.25Y-123.0
X154.25Y-135.0
X155.5Y-99.0
X155.5Y-111.0
X155.5Y-123.0
X155.5Y-135.0
X156.75Y-99.0
X156.75Y-111.0
X156.75Y-123.0
X156.75Y-135.0
X157.75Y-47.25
X157.75Y-59.25
X157.75Y-71.25
X157.75Y-83.25
X162.5Y-98.0
X162.5Y-110.0
X162.5Y-122.0
X162.5Y-134.0
X165.0Y-46.0
X165.0Y-58.0
X165.0Y-70.0
X165.0Y-82.0
X165.3Y-47.8
X165.3Y-59.8
X165.3Y-71.8
X165.3Y-83.8
X166.3Y-47.7
X166.3Y-59.7
X166.3Y-71.7
X166.3Y-83.7
X167.0Y-98.0
X167.0Y-110.0
X167.0Y-122.0
X167.0Y-134.0
X167.25Y-100.25
X167.25Y-112.25
X167.25Y-124.25
X167.25Y-136.25
X168.25Y-100.25
X168.25Y-112.25
X168.25Y-124.25
X168.25Y-136.25
X170.05Y-91.55
X170.05Y-103.55
X170.05Y-115.55
X170.05Y-127.55
X170.25Y-49.25
X170.25Y-61.25
X170.25Y-73.25
X170.25Y-85.25
X171.15Y-91.55
X171.15Y-103.55
X171.15Y-115.55
X171.15Y-127.55
X172.25Y-95.75
X172.25Y-107.75
X172.25Y-119.75
X172.25Y-131.75
X174.0Y-97.7
X174.0Y-109.7
X174.0Y-121.7
X174.0Y-133.7
X176.6Y-45.625
X176.6Y-57.625
X176.6Y-69.625
X176.6Y-81.625
X176.75Y-52.75
X176.75Y-64.75
X176.75Y-76.75
X176.75Y-88.75
X176.9Y-97.7
X176.9Y-109.7
X176.9Y-121.7
X176.9Y-133.7
X181.75Y-96.0
X181.75Y-108.0
X181.75Y-120.0
X181.75Y-132.0
X189.5Y-52.5
X189.5Y-64.5
X189.5Y-76.5
X189.5Y-88.5
X190.0Y-101.25
X190.0Y-113.25
X190.0Y-125.25
X190.0Y-137.25
X190.25Y-92.0
X190.25Y-104.0
X190.25Y-116.0
X190.25Y-128.0
X191.0Y-52.5
X191.0Y-64.5
X191.0Y-76.5
X191.0Y-88.5
X193.0Y-101.25
X193.0Y-113.25
X193.0Y-125.25
X193.0Y-137.25
X193.25Y-53.25
X193.25Y-65.25
X193.25Y-77.25
X193.25Y-89.25
T5
X101.75Y-48.75
X101.75Y-60.75
X101.75Y-72.75
X101.75Y-84.75
X102.5Y-97.0
X102.5Y-98.75
X102.5Y-109.0
X102.5Y-110.75
X102.5Y-121.0
X102.5Y-122.75
X102.5Y-133.0
X102.5Y-134.75
X102.75Y-47.25
X102.75Y-50.5
X102.75Y-59.25
X102.75Y-62.5
X102.75Y-71.25
X102.75Y-74.5
X102.75Y-83.25
X102.75Y-86.5
X102.75Y-100.5
X102.75Y-112.5
X102.75Y-124.5
X102.75Y-136.5
X104.0Y-53.75
X104.0Y-65.75
X104.0Y-77.75
X104.0Y-89.75
X108.75Y-48.75
X108.75Y-60.75
X108.75Y-72.75
X108.75Y-84.75
X110.0Y-48.0
X110.0Y-60.0
X110.0Y-72.0
X110.0Y-84.0
X119.6Y-47.4
X119.6Y-59.4
X119.6Y-71.4
X119.6Y-83.4
X137.0Y-96.25
X137.0Y-108.25
X137.0Y-120.25
X137.0Y-132.25
X138.75Y-96.25
X138.75Y-108.25
X138.75Y-120.25
X138.75Y-132.25
X140.25Y-96.25
X140.25Y-108.25
X140.25Y-120.25
X140.25Y-132.25
X142.0Y-95.75
X142.0Y-107.75
X142.0Y-119.75
X142.0Y-131.75
X143.5Y-47.75
X143.5Y-59.75
X143.5Y-71.75
X143.5Y-83.75
X149.0Y-97.75
X149.0Y-109.75
X149.0Y-121.75
X149.0Y-133.75
X150.5Y-49.75
X150.5Y-61.75
X150.5Y-73.75
X150.5Y-85.75
X152.25Y-49.25
X152.25Y-61.25
X152.25Y-73.25
X152.25Y-85.25
X153.75Y-49.25
X153.75Y-61.25
X153.75Y-73.25
X153.75Y-85.25
X155.5Y-49.25
X155.5Y-61.25
X155.5Y-73.25
X155.5Y-85.25
X172.9Y-98.1
X172.9Y-110.1
X172.9Y-122.1
X172.9Y-134.1
X182.5Y-97.5
X182.5Y-109.5
X182.5Y-121.5
X182.5Y-133.5
X183.75Y-96.75
X183.75Y-108.75
X183.75Y-120.75
X183.75Y-132.75
X188.5Y-91.75
X188.5Y-103.75
X188.5Y-115.75
X188.5Y-127.75
X189.75Y-45.0
X189.75Y-57.0
X189.75Y-69.0
X189.75Y-81.0
X189.75Y-95.0
X189.75Y-98.25
X189.75Y-107.0
X189.75Y-110.25
X189.75Y-119.0
X189.75Y-122.25
X189.75Y-131.0
X189.75Y-134.25
X190.0Y-46.75
X190.0Y-48.5
X190.0Y-58.75
X190.0Y-60.5
X190.0Y-70.75
X190.0Y-72.5
X190.0Y-82.75
X190.0Y-84.5
X190.75Y-96.75
X190.75Y-108.75
X190.75Y-120.75
X190.75Y-132.75
T6
X119.865Y-96.75
X119.865Y-108.75
X119.865Y-120.75
X119.865Y-132.75
X121.135Y-96.75
X121.135Y-108.75
X121.135Y-120.75
X121.135Y-132.75
X171.365Y-48.75
X171.365Y-60.75
X171.365Y-72.75
X171.365Y-84.75
X172.635Y-48.75
X172.635Y-60.75
X172.635Y-72.75
X172.635Y-84.75
T7
X114.25Y-43.65
X114.25Y-55.65
X114.25Y-67.65
X114.25Y-79.65
X115.5Y-53.85
X115.5Y-65.85
X115.5Y-77.85
X115.5Y-89.85
X141.75Y-43.65
X141.75Y-55.65
X141.75Y-67.65
X141.75Y-79.65
X143.25Y-53.85
X143.25Y-65.85
X143.25Y-77.85
X143.25Y-89.85
X149.25Y-91.65
X149.25Y-103.65
X149.25Y-115.65
X149.25Y-127.65
X150.75Y-101.85
X150.75Y-113.85
X150.75Y-125.85
X150.75Y-137.85
X177.0Y-91.65
X177.0Y-103.65
X177.0Y-115.65
X177.0Y-127.65
X178.25Y-101.85
X178.25Y-113.85
X178.25Y-125.85
X178.25Y-137.85
M30
