G04 #@! TF.GenerationSoftware,KiCad,Pcbnew,7.0.11*
G04 #@! TF.CreationDate,2024-06-06T00:58:22+09:00*
G04 #@! TF.ProjectId,motordecoder2-t-dc100ra-p,6d6f746f-7264-4656-936f-646572322d74,rev?*
G04 #@! TF.SameCoordinates,Original*
G04 #@! TF.FileFunction,Soldermask,Bot*
G04 #@! TF.FilePolarity,Negative*
%FSLAX46Y46*%
G04 Gerber Fmt 4.6, Leading zero omitted, Abs format (unit mm)*
G04 Created by KiCad (PCBNEW 7.0.11) date 2024-06-06 00:58:22*
%MOMM*%
%LPD*%
G01*
G04 APERTURE LIST*
%ADD10C,0.100000*%
%ADD11C,2.000000*%
%ADD12R,1.300000X1.300000*%
%ADD13C,1.300000*%
%ADD14R,0.950000X0.950000*%
%ADD15R,3.500000X3.500000*%
%ADD16R,1.200000X0.800000*%
G04 APERTURE END LIST*
D10*
X104750000Y-122750000D02*
X117250000Y-122750000D01*
X117250000Y-126750000D01*
X104750000Y-126750000D01*
X104750000Y-122750000D01*
G36*
X104750000Y-122750000D02*
G01*
X117250000Y-122750000D01*
X117250000Y-126750000D01*
X104750000Y-126750000D01*
X104750000Y-122750000D01*
G37*
X175250000Y-110750000D02*
X187750000Y-110750000D01*
X187750000Y-114750000D01*
X175250000Y-114750000D01*
X175250000Y-110750000D01*
G36*
X175250000Y-110750000D02*
G01*
X187750000Y-110750000D01*
X187750000Y-114750000D01*
X175250000Y-114750000D01*
X175250000Y-110750000D01*
G37*
X104750000Y-110750000D02*
X117250000Y-110750000D01*
X117250000Y-114750000D01*
X104750000Y-114750000D01*
X104750000Y-110750000D01*
G36*
X104750000Y-110750000D02*
G01*
X117250000Y-110750000D01*
X117250000Y-114750000D01*
X104750000Y-114750000D01*
X104750000Y-110750000D01*
G37*
X104750000Y-102750000D02*
X117250000Y-102750000D01*
X117250000Y-106750000D01*
X104750000Y-106750000D01*
X104750000Y-102750000D01*
G36*
X104750000Y-102750000D02*
G01*
X117250000Y-102750000D01*
X117250000Y-106750000D01*
X104750000Y-106750000D01*
X104750000Y-102750000D01*
G37*
X104750000Y-114750000D02*
X117250000Y-114750000D01*
X117250000Y-118750000D01*
X104750000Y-118750000D01*
X104750000Y-114750000D01*
G36*
X104750000Y-114750000D02*
G01*
X117250000Y-114750000D01*
X117250000Y-118750000D01*
X104750000Y-118750000D01*
X104750000Y-114750000D01*
G37*
X175250000Y-74750000D02*
X187750000Y-74750000D01*
X187750000Y-78750000D01*
X175250000Y-78750000D01*
X175250000Y-74750000D01*
G36*
X175250000Y-74750000D02*
G01*
X187750000Y-74750000D01*
X187750000Y-78750000D01*
X175250000Y-78750000D01*
X175250000Y-74750000D01*
G37*
X175250000Y-78750000D02*
X187750000Y-78750000D01*
X187750000Y-82750000D01*
X175250000Y-82750000D01*
X175250000Y-78750000D01*
G36*
X175250000Y-78750000D02*
G01*
X187750000Y-78750000D01*
X187750000Y-82750000D01*
X175250000Y-82750000D01*
X175250000Y-78750000D01*
G37*
X104750000Y-134750000D02*
X117250000Y-134750000D01*
X117250000Y-138750000D01*
X104750000Y-138750000D01*
X104750000Y-134750000D01*
G36*
X104750000Y-134750000D02*
G01*
X117250000Y-134750000D01*
X117250000Y-138750000D01*
X104750000Y-138750000D01*
X104750000Y-134750000D01*
G37*
X104750000Y-86750000D02*
X117250000Y-86750000D01*
X117250000Y-90750000D01*
X104750000Y-90750000D01*
X104750000Y-86750000D01*
G36*
X104750000Y-86750000D02*
G01*
X117250000Y-86750000D01*
X117250000Y-90750000D01*
X104750000Y-90750000D01*
X104750000Y-86750000D01*
G37*
X104750000Y-50750000D02*
X117250000Y-50750000D01*
X117250000Y-54750000D01*
X104750000Y-54750000D01*
X104750000Y-50750000D01*
G36*
X104750000Y-50750000D02*
G01*
X117250000Y-50750000D01*
X117250000Y-54750000D01*
X104750000Y-54750000D01*
X104750000Y-50750000D01*
G37*
X175250000Y-90750000D02*
X187750000Y-90750000D01*
X187750000Y-94750000D01*
X175250000Y-94750000D01*
X175250000Y-90750000D01*
G36*
X175250000Y-90750000D02*
G01*
X187750000Y-90750000D01*
X187750000Y-94750000D01*
X175250000Y-94750000D01*
X175250000Y-90750000D01*
G37*
X175250000Y-54750000D02*
X187750000Y-54750000D01*
X187750000Y-58750000D01*
X175250000Y-58750000D01*
X175250000Y-54750000D01*
G36*
X175250000Y-54750000D02*
G01*
X187750000Y-54750000D01*
X187750000Y-58750000D01*
X175250000Y-58750000D01*
X175250000Y-54750000D01*
G37*
X104750000Y-78750000D02*
X117250000Y-78750000D01*
X117250000Y-82750000D01*
X104750000Y-82750000D01*
X104750000Y-78750000D01*
G36*
X104750000Y-78750000D02*
G01*
X117250000Y-78750000D01*
X117250000Y-82750000D01*
X104750000Y-82750000D01*
X104750000Y-78750000D01*
G37*
X175250000Y-122750000D02*
X187750000Y-122750000D01*
X187750000Y-126750000D01*
X175250000Y-126750000D01*
X175250000Y-122750000D01*
G36*
X175250000Y-122750000D02*
G01*
X187750000Y-122750000D01*
X187750000Y-126750000D01*
X175250000Y-126750000D01*
X175250000Y-122750000D01*
G37*
X175250000Y-126750000D02*
X187750000Y-126750000D01*
X187750000Y-130750000D01*
X175250000Y-130750000D01*
X175250000Y-126750000D01*
G36*
X175250000Y-126750000D02*
G01*
X187750000Y-126750000D01*
X187750000Y-130750000D01*
X175250000Y-130750000D01*
X175250000Y-126750000D01*
G37*
X104750000Y-42750000D02*
X117250000Y-42750000D01*
X117250000Y-46750000D01*
X104750000Y-46750000D01*
X104750000Y-42750000D01*
G36*
X104750000Y-42750000D02*
G01*
X117250000Y-42750000D01*
X117250000Y-46750000D01*
X104750000Y-46750000D01*
X104750000Y-42750000D01*
G37*
X104750000Y-62750000D02*
X117250000Y-62750000D01*
X117250000Y-66750000D01*
X104750000Y-66750000D01*
X104750000Y-62750000D01*
G36*
X104750000Y-62750000D02*
G01*
X117250000Y-62750000D01*
X117250000Y-66750000D01*
X104750000Y-66750000D01*
X104750000Y-62750000D01*
G37*
X104750000Y-74750000D02*
X117250000Y-74750000D01*
X117250000Y-78750000D01*
X104750000Y-78750000D01*
X104750000Y-74750000D01*
G36*
X104750000Y-74750000D02*
G01*
X117250000Y-74750000D01*
X117250000Y-78750000D01*
X104750000Y-78750000D01*
X104750000Y-74750000D01*
G37*
X175250000Y-114750000D02*
X187750000Y-114750000D01*
X187750000Y-118750000D01*
X175250000Y-118750000D01*
X175250000Y-114750000D01*
G36*
X175250000Y-114750000D02*
G01*
X187750000Y-114750000D01*
X187750000Y-118750000D01*
X175250000Y-118750000D01*
X175250000Y-114750000D01*
G37*
X104750000Y-66750000D02*
X117250000Y-66750000D01*
X117250000Y-70750000D01*
X104750000Y-70750000D01*
X104750000Y-66750000D01*
G36*
X104750000Y-66750000D02*
G01*
X117250000Y-66750000D01*
X117250000Y-70750000D01*
X104750000Y-70750000D01*
X104750000Y-66750000D01*
G37*
X175250000Y-62750000D02*
X187750000Y-62750000D01*
X187750000Y-66750000D01*
X175250000Y-66750000D01*
X175250000Y-62750000D01*
G36*
X175250000Y-62750000D02*
G01*
X187750000Y-62750000D01*
X187750000Y-66750000D01*
X175250000Y-66750000D01*
X175250000Y-62750000D01*
G37*
X175250000Y-86750000D02*
X187750000Y-86750000D01*
X187750000Y-90750000D01*
X175250000Y-90750000D01*
X175250000Y-86750000D01*
G36*
X175250000Y-86750000D02*
G01*
X187750000Y-86750000D01*
X187750000Y-90750000D01*
X175250000Y-90750000D01*
X175250000Y-86750000D01*
G37*
X175250000Y-42750000D02*
X187750000Y-42750000D01*
X187750000Y-46750000D01*
X175250000Y-46750000D01*
X175250000Y-42750000D01*
G36*
X175250000Y-42750000D02*
G01*
X187750000Y-42750000D01*
X187750000Y-46750000D01*
X175250000Y-46750000D01*
X175250000Y-42750000D01*
G37*
X104750000Y-54750000D02*
X117250000Y-54750000D01*
X117250000Y-58750000D01*
X104750000Y-58750000D01*
X104750000Y-54750000D01*
G36*
X104750000Y-54750000D02*
G01*
X117250000Y-54750000D01*
X117250000Y-58750000D01*
X104750000Y-58750000D01*
X104750000Y-54750000D01*
G37*
X104750000Y-126750000D02*
X117250000Y-126750000D01*
X117250000Y-130750000D01*
X104750000Y-130750000D01*
X104750000Y-126750000D01*
G36*
X104750000Y-126750000D02*
G01*
X117250000Y-126750000D01*
X117250000Y-130750000D01*
X104750000Y-130750000D01*
X104750000Y-126750000D01*
G37*
X175250000Y-102750000D02*
X187750000Y-102750000D01*
X187750000Y-106750000D01*
X175250000Y-106750000D01*
X175250000Y-102750000D01*
G36*
X175250000Y-102750000D02*
G01*
X187750000Y-102750000D01*
X187750000Y-106750000D01*
X175250000Y-106750000D01*
X175250000Y-102750000D01*
G37*
X175250000Y-98750000D02*
X187750000Y-98750000D01*
X187750000Y-102750000D01*
X175250000Y-102750000D01*
X175250000Y-98750000D01*
G36*
X175250000Y-98750000D02*
G01*
X187750000Y-98750000D01*
X187750000Y-102750000D01*
X175250000Y-102750000D01*
X175250000Y-98750000D01*
G37*
X175250000Y-134750000D02*
X187750000Y-134750000D01*
X187750000Y-138750000D01*
X175250000Y-138750000D01*
X175250000Y-134750000D01*
G36*
X175250000Y-134750000D02*
G01*
X187750000Y-134750000D01*
X187750000Y-138750000D01*
X175250000Y-138750000D01*
X175250000Y-134750000D01*
G37*
X175250000Y-50750000D02*
X187750000Y-50750000D01*
X187750000Y-54750000D01*
X175250000Y-54750000D01*
X175250000Y-50750000D01*
G36*
X175250000Y-50750000D02*
G01*
X187750000Y-50750000D01*
X187750000Y-54750000D01*
X175250000Y-54750000D01*
X175250000Y-50750000D01*
G37*
X104750000Y-90750000D02*
X117250000Y-90750000D01*
X117250000Y-94750000D01*
X104750000Y-94750000D01*
X104750000Y-90750000D01*
G36*
X104750000Y-90750000D02*
G01*
X117250000Y-90750000D01*
X117250000Y-94750000D01*
X104750000Y-94750000D01*
X104750000Y-90750000D01*
G37*
X175250000Y-66750000D02*
X187750000Y-66750000D01*
X187750000Y-70750000D01*
X175250000Y-70750000D01*
X175250000Y-66750000D01*
G36*
X175250000Y-66750000D02*
G01*
X187750000Y-66750000D01*
X187750000Y-70750000D01*
X175250000Y-70750000D01*
X175250000Y-66750000D01*
G37*
X104750000Y-98750000D02*
X117250000Y-98750000D01*
X117250000Y-102750000D01*
X104750000Y-102750000D01*
X104750000Y-98750000D01*
G36*
X104750000Y-98750000D02*
G01*
X117250000Y-98750000D01*
X117250000Y-102750000D01*
X104750000Y-102750000D01*
X104750000Y-98750000D01*
G37*
D11*
X192250000Y-69250000D03*
D12*
X177000000Y-103650000D03*
D11*
X192250000Y-45250000D03*
X100250000Y-100250000D03*
D13*
X155250000Y-88250000D03*
D12*
X115500000Y-65850000D03*
D11*
X192250000Y-81250000D03*
X192250000Y-57250000D03*
X192250000Y-117250000D03*
D14*
X119865000Y-96750000D03*
X121135000Y-96750000D03*
D11*
X192250000Y-129250000D03*
D12*
X150750000Y-101850000D03*
X114250000Y-43650000D03*
D13*
X155250000Y-81250000D03*
X155250000Y-45250000D03*
D12*
X177000000Y-115650000D03*
X178250000Y-113850000D03*
D14*
X172635000Y-84750000D03*
X171365000Y-84750000D03*
D12*
X141750000Y-55650000D03*
X114250000Y-55650000D03*
D13*
X137250000Y-112250000D03*
D12*
X177000000Y-91650000D03*
X178250000Y-101850000D03*
D11*
X192250000Y-93250000D03*
X100250000Y-76250000D03*
D12*
X149250000Y-115650000D03*
X115500000Y-53850000D03*
D11*
X100250000Y-88250000D03*
D13*
X155250000Y-57250000D03*
D11*
X100250000Y-124250000D03*
D13*
X155250000Y-69250000D03*
X137250000Y-117250000D03*
D14*
X172635000Y-72750000D03*
X171365000Y-72750000D03*
D13*
X137250000Y-129250000D03*
D12*
X115500000Y-77850000D03*
D13*
X155250000Y-64250000D03*
D12*
X114250000Y-67650000D03*
D13*
X155250000Y-76250000D03*
D11*
X100250000Y-136250000D03*
D14*
X119865000Y-108750000D03*
X121135000Y-108750000D03*
D12*
X114250000Y-79650000D03*
X141750000Y-67650000D03*
X143250000Y-89850000D03*
X149250000Y-91650000D03*
X149250000Y-127650000D03*
D11*
X100250000Y-52250000D03*
D12*
X150750000Y-113850000D03*
X141750000Y-79650000D03*
X143250000Y-53850000D03*
D14*
X172635000Y-48750000D03*
X171365000Y-48750000D03*
D13*
X155250000Y-52250000D03*
D12*
X178250000Y-137850000D03*
D13*
X137250000Y-136250000D03*
D12*
X150750000Y-137850000D03*
D14*
X119865000Y-132750000D03*
X121135000Y-132750000D03*
D11*
X100250000Y-112250000D03*
D13*
X137250000Y-124250000D03*
D12*
X143250000Y-65850000D03*
X178250000Y-125850000D03*
D13*
X137250000Y-105250000D03*
D12*
X115500000Y-89850000D03*
X141750000Y-43650000D03*
X149250000Y-103650000D03*
D11*
X192250000Y-105250000D03*
D13*
X137250000Y-93250000D03*
D12*
X143250000Y-77850000D03*
X150750000Y-125850000D03*
D14*
X119865000Y-120750000D03*
X121135000Y-120750000D03*
D12*
X177000000Y-127650000D03*
D13*
X137250000Y-100250000D03*
D14*
X172635000Y-60750000D03*
X171365000Y-60750000D03*
D11*
X100250000Y-64250000D03*
D15*
X155500000Y-105000000D03*
X137000000Y-88500000D03*
D16*
X180750000Y-65500000D03*
X110500000Y-57000000D03*
X111750000Y-128000000D03*
D15*
X137000000Y-52500000D03*
D16*
X180750000Y-89500000D03*
X111750000Y-112750000D03*
D15*
X137000000Y-64500000D03*
D16*
X180750000Y-56750000D03*
X182000000Y-92500000D03*
X111750000Y-136750000D03*
X110500000Y-89000000D03*
X182000000Y-128500000D03*
D15*
X155500000Y-124500000D03*
X137000000Y-45000000D03*
X155500000Y-112500000D03*
X155500000Y-136500000D03*
D16*
X111750000Y-92000000D03*
D15*
X155500000Y-129000000D03*
D16*
X182000000Y-104500000D03*
D15*
X137000000Y-69000000D03*
D16*
X182000000Y-116500000D03*
X110500000Y-69000000D03*
X111750000Y-116000000D03*
D15*
X155500000Y-93000000D03*
X137000000Y-76500000D03*
D16*
X110500000Y-65000000D03*
D15*
X155500000Y-100500000D03*
D16*
X111750000Y-124750000D03*
X110500000Y-77000000D03*
X180750000Y-80750000D03*
X110500000Y-45000000D03*
X182000000Y-100500000D03*
X110500000Y-81000000D03*
X111750000Y-104000000D03*
X180750000Y-44750000D03*
X180750000Y-77500000D03*
X180750000Y-68750000D03*
X110500000Y-53000000D03*
X182000000Y-112500000D03*
X182000000Y-136500000D03*
D15*
X137000000Y-81000000D03*
X137000000Y-57000000D03*
D16*
X180750000Y-53500000D03*
X182000000Y-124500000D03*
D15*
X155500000Y-117000000D03*
D16*
X111750000Y-100750000D03*
M02*
