G04 #@! TF.GenerationSoftware,KiCad,Pcbnew,8.0.8*
G04 #@! TF.CreationDate,2025-12-28T14:23:14+09:00*
G04 #@! TF.ProjectId,funcdecoder2-K3057,66756e63-6465-4636-9f64-6572322d4b33,rev?*
G04 #@! TF.SameCoordinates,Original*
G04 #@! TF.FileFunction,Paste,Top*
G04 #@! TF.FilePolarity,Positive*
%FSLAX46Y46*%
G04 Gerber Fmt 4.6, Leading zero omitted, Abs format (unit mm)*
G04 Created by KiCad (PCBNEW 8.0.8) date 2025-12-28 14:23:14*
%MOMM*%
%LPD*%
G01*
G04 APERTURE LIST*
G04 Aperture macros list*
%AMRoundRect*
0 Rectangle with rounded corners*
0 $1 Rounding radius*
0 $2 $3 $4 $5 $6 $7 $8 $9 X,Y pos of 4 corners*
0 Add a 4 corners polygon primitive as box body*
4,1,4,$2,$3,$4,$5,$6,$7,$8,$9,$2,$3,0*
0 Add four circle primitives for the rounded corners*
1,1,$1+$1,$2,$3*
1,1,$1+$1,$4,$5*
1,1,$1+$1,$6,$7*
1,1,$1+$1,$8,$9*
0 Add four rect primitives between the rounded corners*
20,1,$1+$1,$2,$3,$4,$5,0*
20,1,$1+$1,$4,$5,$6,$7,0*
20,1,$1+$1,$6,$7,$8,$9,0*
20,1,$1+$1,$8,$9,$2,$3,0*%
%AMFreePoly0*
4,1,14,0.317650,0.059922,0.359922,0.017650,0.370000,-0.006678,0.370000,-0.044032,0.362394,-0.062394,0.344033,-0.070000,-0.344033,-0.070000,-0.362394,-0.062394,-0.370000,-0.044032,-0.370000,0.044032,-0.362394,0.062394,-0.344033,0.070000,0.293322,0.070000,0.317650,0.059922,0.317650,0.059922,$1*%
%AMFreePoly1*
4,1,14,0.362394,0.062394,0.370000,0.044032,0.370000,0.006678,0.359922,-0.017650,0.317650,-0.059922,0.293322,-0.070000,-0.344033,-0.070000,-0.362394,-0.062394,-0.370000,-0.044032,-0.370000,0.044032,-0.362394,0.062394,-0.344033,0.070000,0.344033,0.070000,0.362394,0.062394,0.362394,0.062394,$1*%
%AMFreePoly2*
4,1,14,0.062394,0.362394,0.070000,0.344032,0.070000,-0.344032,0.062394,-0.362394,0.044033,-0.370000,-0.044033,-0.370000,-0.062394,-0.362394,-0.070000,-0.344032,-0.070000,0.293321,-0.059922,0.317650,-0.017650,0.359922,0.006678,0.370000,0.044033,0.370000,0.062394,0.362394,0.062394,0.362394,$1*%
%AMFreePoly3*
4,1,14,0.017650,0.359922,0.059922,0.317650,0.070000,0.293321,0.070000,-0.344032,0.062394,-0.362394,0.044033,-0.370000,-0.044033,-0.370000,-0.062394,-0.362394,-0.070000,-0.344032,-0.070000,0.344032,-0.062394,0.362394,-0.044033,0.370000,-0.006678,0.370000,0.017650,0.359922,0.017650,0.359922,$1*%
%AMFreePoly4*
4,1,14,0.362394,0.062394,0.370000,0.044032,0.370000,-0.044032,0.362394,-0.062394,0.344033,-0.070000,-0.293322,-0.070000,-0.317650,-0.059922,-0.359922,-0.017650,-0.370000,0.006678,-0.370000,0.044032,-0.362394,0.062394,-0.344033,0.070000,0.344033,0.070000,0.362394,0.062394,0.362394,0.062394,$1*%
%AMFreePoly5*
4,1,14,0.362394,0.062394,0.370000,0.044032,0.370000,-0.044032,0.362394,-0.062394,0.344033,-0.070000,-0.344033,-0.070000,-0.362394,-0.062394,-0.370000,-0.044032,-0.370000,-0.006678,-0.359922,0.017650,-0.317650,0.059922,-0.293322,0.070000,0.344033,0.070000,0.362394,0.062394,0.362394,0.062394,$1*%
%AMFreePoly6*
4,1,14,0.062394,0.362394,0.070000,0.344032,0.070000,-0.293321,0.059922,-0.317650,0.017650,-0.359922,-0.006678,-0.370000,-0.044033,-0.370000,-0.062394,-0.362394,-0.070000,-0.344032,-0.070000,0.344032,-0.062394,0.362394,-0.044033,0.370000,0.044033,0.370000,0.062394,0.362394,0.062394,0.362394,$1*%
%AMFreePoly7*
4,1,14,0.062394,0.362394,0.070000,0.344032,0.070000,-0.344032,0.062394,-0.362394,0.044033,-0.370000,0.006678,-0.370000,-0.017650,-0.359922,-0.059922,-0.317650,-0.070000,-0.293321,-0.070000,0.344032,-0.062394,0.362394,-0.044033,0.370000,0.044033,0.370000,0.062394,0.362394,0.062394,0.362394,$1*%
G04 Aperture macros list end*
%ADD10R,0.500000X0.550000*%
%ADD11R,0.500000X0.900000*%
%ADD12R,0.450000X0.300000*%
%ADD13R,0.400000X0.600000*%
%ADD14R,0.750000X1.300000*%
%ADD15C,2.000000*%
%ADD16R,0.900000X0.500000*%
%ADD17R,1.200000X0.900000*%
%ADD18R,0.800000X0.900000*%
%ADD19R,0.800000X0.500000*%
%ADD20R,0.800000X0.800000*%
%ADD21R,0.700000X0.800000*%
%ADD22R,0.600000X0.400000*%
%ADD23RoundRect,0.172500X0.172500X0.172500X-0.172500X0.172500X-0.172500X-0.172500X0.172500X-0.172500X0*%
%ADD24FreePoly0,180.000000*%
%ADD25RoundRect,0.035000X0.335000X0.035000X-0.335000X0.035000X-0.335000X-0.035000X0.335000X-0.035000X0*%
%ADD26FreePoly1,180.000000*%
%ADD27FreePoly2,180.000000*%
%ADD28RoundRect,0.035000X0.035000X0.335000X-0.035000X0.335000X-0.035000X-0.335000X0.035000X-0.335000X0*%
%ADD29FreePoly3,180.000000*%
%ADD30FreePoly4,180.000000*%
%ADD31FreePoly5,180.000000*%
%ADD32FreePoly6,180.000000*%
%ADD33FreePoly7,180.000000*%
%ADD34RoundRect,0.172500X-0.172500X-0.172500X0.172500X-0.172500X0.172500X0.172500X-0.172500X0.172500X0*%
%ADD35FreePoly0,0.000000*%
%ADD36RoundRect,0.035000X-0.335000X-0.035000X0.335000X-0.035000X0.335000X0.035000X-0.335000X0.035000X0*%
%ADD37FreePoly1,0.000000*%
%ADD38FreePoly2,0.000000*%
%ADD39RoundRect,0.035000X-0.035000X-0.335000X0.035000X-0.335000X0.035000X0.335000X-0.035000X0.335000X0*%
%ADD40FreePoly3,0.000000*%
%ADD41FreePoly4,0.000000*%
%ADD42FreePoly5,0.000000*%
%ADD43FreePoly6,0.000000*%
%ADD44FreePoly7,0.000000*%
G04 APERTURE END LIST*
D10*
X114100000Y-89425000D03*
X114100000Y-90375000D03*
D11*
X148950000Y-105900000D03*
X147450000Y-105900000D03*
D12*
X107575000Y-124800000D03*
X107575000Y-124300000D03*
X107575000Y-123800000D03*
X106225000Y-123800000D03*
X106225000Y-124300000D03*
X106225000Y-124800000D03*
D13*
X108650000Y-92500000D03*
X109550000Y-92500000D03*
D14*
X161425000Y-91300000D03*
X161425000Y-88700000D03*
D11*
X142650000Y-52400000D03*
X141150000Y-52400000D03*
D15*
X166500000Y-58000000D03*
D16*
X105200000Y-108250000D03*
X105200000Y-106750000D03*
X144200000Y-64050000D03*
X144200000Y-62550000D03*
D11*
X114350000Y-127600000D03*
X115850000Y-127600000D03*
D13*
X148350000Y-55500000D03*
X147450000Y-55500000D03*
D15*
X166500000Y-106000000D03*
D11*
X150950000Y-122400000D03*
X152450000Y-122400000D03*
X114350000Y-95600000D03*
X115850000Y-95600000D03*
D10*
X114100000Y-105425000D03*
X114100000Y-106375000D03*
D16*
X112800000Y-115950000D03*
X112800000Y-117450000D03*
D14*
X158625000Y-59300000D03*
X158625000Y-56700000D03*
D16*
X143800000Y-36050000D03*
X143800000Y-37550000D03*
D12*
X107575000Y-108800000D03*
X107575000Y-108300000D03*
X107575000Y-107800000D03*
X106225000Y-107800000D03*
X106225000Y-108300000D03*
X106225000Y-108800000D03*
D16*
X142700000Y-78650000D03*
X142700000Y-77150000D03*
D14*
X161425000Y-43300000D03*
X161425000Y-40700000D03*
D17*
X143700000Y-121000000D03*
D18*
X145500000Y-121000000D03*
X145500000Y-119000000D03*
X143500000Y-119000000D03*
D11*
X101850000Y-42400000D03*
X103350000Y-42400000D03*
D16*
X114300000Y-117350000D03*
X114300000Y-118850000D03*
D12*
X153175000Y-108500000D03*
X153175000Y-108000000D03*
X153175000Y-107500000D03*
X151825000Y-107500000D03*
X151825000Y-108000000D03*
X151825000Y-108500000D03*
D19*
X109450000Y-56950000D03*
X109450000Y-55650000D03*
X107550000Y-56300000D03*
D10*
X115000000Y-76975000D03*
X115000000Y-76025000D03*
D11*
X101850000Y-74400000D03*
X103350000Y-74400000D03*
X101850000Y-58400000D03*
X103350000Y-58400000D03*
X148950000Y-121900000D03*
X147450000Y-121900000D03*
X106050000Y-73600000D03*
X104550000Y-73600000D03*
X142650000Y-68400000D03*
X141150000Y-68400000D03*
D15*
X90500000Y-106000000D03*
D11*
X106050000Y-57600000D03*
X104550000Y-57600000D03*
D16*
X142700000Y-46650000D03*
X142700000Y-45150000D03*
X154700000Y-108550000D03*
X154700000Y-107050000D03*
D14*
X158625000Y-75300000D03*
X158625000Y-72700000D03*
D19*
X107850000Y-76750000D03*
X107850000Y-75450000D03*
X105950000Y-76100000D03*
D12*
X153175000Y-92500000D03*
X153175000Y-92000000D03*
X153175000Y-91500000D03*
X151825000Y-91500000D03*
X151825000Y-92000000D03*
X151825000Y-92500000D03*
D16*
X151800000Y-55750000D03*
X151800000Y-57250000D03*
D14*
X98375000Y-88700000D03*
X98375000Y-91300000D03*
D10*
X115000000Y-44975000D03*
X115000000Y-44025000D03*
D20*
X112600000Y-69725000D03*
X112600000Y-71275000D03*
D11*
X142650000Y-36400000D03*
X141150000Y-36400000D03*
D21*
X142800000Y-126275000D03*
X142800000Y-124725000D03*
D15*
X90500000Y-74000000D03*
D10*
X142900000Y-42575000D03*
X142900000Y-41625000D03*
D14*
X95575000Y-104700000D03*
X95575000Y-107300000D03*
D15*
X166500000Y-122000000D03*
D10*
X115000000Y-60975000D03*
X115000000Y-60025000D03*
D19*
X109450000Y-72950000D03*
X109450000Y-71650000D03*
X107550000Y-72300000D03*
D14*
X161425000Y-107300000D03*
X161425000Y-104700000D03*
X98375000Y-104700000D03*
X98375000Y-107300000D03*
D16*
X105600000Y-119250000D03*
X105600000Y-120750000D03*
D15*
X90500000Y-90000000D03*
D22*
X146900000Y-60950000D03*
X146900000Y-61850000D03*
D23*
X111675000Y-90425000D03*
X111675000Y-89575000D03*
X110825000Y-90425000D03*
X110825000Y-89575000D03*
D24*
X112700000Y-90800000D03*
D25*
X112700000Y-90400000D03*
X112700000Y-90000000D03*
X112700000Y-89600000D03*
D26*
X112700000Y-89200000D03*
D27*
X112050000Y-88550000D03*
D28*
X111650000Y-88550000D03*
X111250000Y-88550000D03*
X110850000Y-88550000D03*
D29*
X110450000Y-88550000D03*
D30*
X109800000Y-89200000D03*
D25*
X109800000Y-89600000D03*
X109800000Y-90000000D03*
X109800000Y-90400000D03*
D31*
X109800000Y-90800000D03*
D32*
X110450000Y-91450000D03*
D28*
X110850000Y-91450000D03*
X111250000Y-91450000D03*
X111650000Y-91450000D03*
D33*
X112050000Y-91450000D03*
D15*
X90500000Y-122000000D03*
D11*
X155150000Y-105600000D03*
X153650000Y-105600000D03*
D22*
X146900000Y-76950000D03*
X146900000Y-77850000D03*
D16*
X154700000Y-124550000D03*
X154700000Y-123050000D03*
D14*
X158625000Y-123300000D03*
X158625000Y-120700000D03*
D11*
X155150000Y-89600000D03*
X153650000Y-89600000D03*
D17*
X113300000Y-75000000D03*
D18*
X111500000Y-75000000D03*
X111500000Y-77000000D03*
X113500000Y-77000000D03*
D12*
X107025000Y-103100000D03*
X107025000Y-103600000D03*
X107025000Y-104100000D03*
X108375000Y-104100000D03*
X108375000Y-103600000D03*
X108375000Y-103100000D03*
D13*
X148350000Y-71500000D03*
X147450000Y-71500000D03*
D16*
X105200000Y-92250000D03*
X105200000Y-90750000D03*
D14*
X95575000Y-56700000D03*
X95575000Y-59300000D03*
D12*
X107575000Y-92800000D03*
X107575000Y-92300000D03*
X107575000Y-91800000D03*
X106225000Y-91800000D03*
X106225000Y-92300000D03*
X106225000Y-92800000D03*
D13*
X108650000Y-108500000D03*
X109550000Y-108500000D03*
D19*
X147550000Y-107050000D03*
X147550000Y-108350000D03*
X149450000Y-107700000D03*
D14*
X98375000Y-56700000D03*
X98375000Y-59300000D03*
D22*
X110100000Y-103050000D03*
X110100000Y-102150000D03*
D16*
X152300000Y-103850000D03*
X152300000Y-105350000D03*
X105600000Y-87250000D03*
X105600000Y-88750000D03*
D18*
X146300000Y-107000000D03*
X144200000Y-107000000D03*
D20*
X112600000Y-37725000D03*
X112600000Y-39275000D03*
D21*
X114200000Y-37725000D03*
X114200000Y-39275000D03*
D10*
X114100000Y-121425000D03*
X114100000Y-122375000D03*
D16*
X104700000Y-60150000D03*
X104700000Y-58650000D03*
D20*
X144400000Y-126275000D03*
X144400000Y-124725000D03*
D34*
X145325000Y-73575000D03*
X145325000Y-74425000D03*
X146175000Y-73575000D03*
X146175000Y-74425000D03*
D35*
X144300000Y-73200000D03*
D36*
X144300000Y-73600000D03*
X144300000Y-74000000D03*
X144300000Y-74400000D03*
D37*
X144300000Y-74800000D03*
D38*
X144950000Y-75450000D03*
D39*
X145350000Y-75450000D03*
X145750000Y-75450000D03*
X146150000Y-75450000D03*
D40*
X146550000Y-75450000D03*
D41*
X147200000Y-74800000D03*
D36*
X147200000Y-74400000D03*
X147200000Y-74000000D03*
X147200000Y-73600000D03*
D42*
X147200000Y-73200000D03*
D43*
X146550000Y-72550000D03*
D39*
X146150000Y-72550000D03*
X145750000Y-72550000D03*
X145350000Y-72550000D03*
D44*
X144950000Y-72550000D03*
D19*
X149150000Y-119250000D03*
X149150000Y-120550000D03*
X151050000Y-119900000D03*
D18*
X110700000Y-57000000D03*
X112800000Y-57000000D03*
D11*
X108050000Y-42100000D03*
X109550000Y-42100000D03*
D15*
X166500000Y-74000000D03*
D10*
X142000000Y-87025000D03*
X142000000Y-87975000D03*
D14*
X98375000Y-40700000D03*
X98375000Y-43300000D03*
D16*
X113200000Y-95950000D03*
X113200000Y-94450000D03*
D12*
X149975000Y-44900000D03*
X149975000Y-44400000D03*
X149975000Y-43900000D03*
X148625000Y-43900000D03*
X148625000Y-44400000D03*
X148625000Y-44900000D03*
D16*
X105200000Y-124250000D03*
X105200000Y-122750000D03*
D17*
X113300000Y-59000000D03*
D18*
X111500000Y-59000000D03*
X111500000Y-61000000D03*
X113500000Y-61000000D03*
D14*
X161425000Y-123300000D03*
X161425000Y-120700000D03*
D19*
X149150000Y-103250000D03*
X149150000Y-104550000D03*
X151050000Y-103900000D03*
D12*
X103075000Y-60700000D03*
X103075000Y-60200000D03*
X103075000Y-59700000D03*
X101725000Y-59700000D03*
X101725000Y-60200000D03*
X101725000Y-60700000D03*
D10*
X142000000Y-103025000D03*
X142000000Y-103975000D03*
D14*
X161425000Y-59300000D03*
X161425000Y-56700000D03*
X158625000Y-43300000D03*
X158625000Y-40700000D03*
D16*
X143800000Y-68050000D03*
X143800000Y-69550000D03*
D21*
X142800000Y-110275000D03*
X142800000Y-108725000D03*
D18*
X146300000Y-91000000D03*
X144200000Y-91000000D03*
D11*
X114350000Y-111600000D03*
X115850000Y-111600000D03*
D12*
X103825000Y-39500000D03*
X103825000Y-40000000D03*
X103825000Y-40500000D03*
X105175000Y-40500000D03*
X105175000Y-40000000D03*
X105175000Y-39500000D03*
D20*
X144400000Y-94275000D03*
X144400000Y-92725000D03*
D10*
X142900000Y-74575000D03*
X142900000Y-73625000D03*
D12*
X107025000Y-119100000D03*
X107025000Y-119600000D03*
X107025000Y-120100000D03*
X108375000Y-120100000D03*
X108375000Y-119600000D03*
X108375000Y-119100000D03*
D23*
X111675000Y-106425000D03*
X111675000Y-105575000D03*
X110825000Y-106425000D03*
X110825000Y-105575000D03*
D24*
X112700000Y-106800000D03*
D25*
X112700000Y-106400000D03*
X112700000Y-106000000D03*
X112700000Y-105600000D03*
D26*
X112700000Y-105200000D03*
D27*
X112050000Y-104550000D03*
D28*
X111650000Y-104550000D03*
X111250000Y-104550000D03*
X110850000Y-104550000D03*
D29*
X110450000Y-104550000D03*
D30*
X109800000Y-105200000D03*
D25*
X109800000Y-105600000D03*
X109800000Y-106000000D03*
X109800000Y-106400000D03*
D31*
X109800000Y-106800000D03*
D32*
X110450000Y-107450000D03*
D28*
X110850000Y-107450000D03*
X111250000Y-107450000D03*
X111650000Y-107450000D03*
D33*
X112050000Y-107450000D03*
D16*
X114300000Y-85350000D03*
X114300000Y-86850000D03*
X113200000Y-127950000D03*
X113200000Y-126450000D03*
X112800000Y-99950000D03*
X112800000Y-101450000D03*
X151400000Y-60750000D03*
X151400000Y-59250000D03*
D21*
X114200000Y-69725000D03*
X114200000Y-71275000D03*
D12*
X149975000Y-76900000D03*
X149975000Y-76400000D03*
X149975000Y-75900000D03*
X148625000Y-75900000D03*
X148625000Y-76400000D03*
X148625000Y-76900000D03*
D18*
X110700000Y-41000000D03*
X112800000Y-41000000D03*
D14*
X95575000Y-88700000D03*
X95575000Y-91300000D03*
D11*
X108050000Y-74100000D03*
X109550000Y-74100000D03*
D10*
X142900000Y-58575000D03*
X142900000Y-57625000D03*
D16*
X102300000Y-71450000D03*
X102300000Y-72950000D03*
D12*
X107025000Y-87100000D03*
X107025000Y-87600000D03*
X107025000Y-88100000D03*
X108375000Y-88100000D03*
X108375000Y-87600000D03*
X108375000Y-87100000D03*
X153925000Y-103300000D03*
X153925000Y-103800000D03*
X153925000Y-104300000D03*
X155275000Y-104300000D03*
X155275000Y-103800000D03*
X155275000Y-103300000D03*
D16*
X113200000Y-111950000D03*
X113200000Y-110450000D03*
D12*
X103825000Y-71500000D03*
X103825000Y-72000000D03*
X103825000Y-72500000D03*
X105175000Y-72500000D03*
X105175000Y-72000000D03*
X105175000Y-71500000D03*
D16*
X152300000Y-119850000D03*
X152300000Y-121350000D03*
D21*
X114200000Y-53725000D03*
X114200000Y-55275000D03*
D18*
X146300000Y-123000000D03*
X144200000Y-123000000D03*
D11*
X108050000Y-58100000D03*
X109550000Y-58100000D03*
D19*
X107850000Y-44750000D03*
X107850000Y-43450000D03*
X105950000Y-44100000D03*
D12*
X149425000Y-39200000D03*
X149425000Y-39700000D03*
X149425000Y-40200000D03*
X150775000Y-40200000D03*
X150775000Y-39700000D03*
X150775000Y-39200000D03*
D22*
X110100000Y-87050000D03*
X110100000Y-86150000D03*
D16*
X151400000Y-76750000D03*
X151400000Y-75250000D03*
X144200000Y-80050000D03*
X144200000Y-78550000D03*
X104700000Y-76150000D03*
X104700000Y-74650000D03*
D12*
X103075000Y-76700000D03*
X103075000Y-76200000D03*
X103075000Y-75700000D03*
X101725000Y-75700000D03*
X101725000Y-76200000D03*
X101725000Y-76700000D03*
D15*
X166500000Y-90000000D03*
D16*
X143800000Y-52050000D03*
X143800000Y-53550000D03*
X151800000Y-39750000D03*
X151800000Y-41250000D03*
X104700000Y-44150000D03*
X104700000Y-42650000D03*
D23*
X111675000Y-122425000D03*
X111675000Y-121575000D03*
X110825000Y-122425000D03*
X110825000Y-121575000D03*
D24*
X112700000Y-122800000D03*
D25*
X112700000Y-122400000D03*
X112700000Y-122000000D03*
X112700000Y-121600000D03*
D26*
X112700000Y-121200000D03*
D27*
X112050000Y-120550000D03*
D28*
X111650000Y-120550000D03*
X111250000Y-120550000D03*
X110850000Y-120550000D03*
D29*
X110450000Y-120550000D03*
D30*
X109800000Y-121200000D03*
D25*
X109800000Y-121600000D03*
X109800000Y-122000000D03*
X109800000Y-122400000D03*
D31*
X109800000Y-122800000D03*
D32*
X110450000Y-123450000D03*
D28*
X110850000Y-123450000D03*
X111250000Y-123450000D03*
X111650000Y-123450000D03*
D33*
X112050000Y-123450000D03*
D16*
X102300000Y-39450000D03*
X102300000Y-40950000D03*
D12*
X103075000Y-44700000D03*
X103075000Y-44200000D03*
X103075000Y-43700000D03*
X101725000Y-43700000D03*
X101725000Y-44200000D03*
X101725000Y-44700000D03*
D16*
X112800000Y-83950000D03*
X112800000Y-85450000D03*
D34*
X145325000Y-41575000D03*
X145325000Y-42425000D03*
X146175000Y-41575000D03*
X146175000Y-42425000D03*
D35*
X144300000Y-41200000D03*
D36*
X144300000Y-41600000D03*
X144300000Y-42000000D03*
X144300000Y-42400000D03*
D37*
X144300000Y-42800000D03*
D38*
X144950000Y-43450000D03*
D39*
X145350000Y-43450000D03*
X145750000Y-43450000D03*
X146150000Y-43450000D03*
D40*
X146550000Y-43450000D03*
D41*
X147200000Y-42800000D03*
D36*
X147200000Y-42400000D03*
X147200000Y-42000000D03*
X147200000Y-41600000D03*
D42*
X147200000Y-41200000D03*
D43*
X146550000Y-40550000D03*
D39*
X146150000Y-40550000D03*
X145750000Y-40550000D03*
X145350000Y-40550000D03*
D44*
X144950000Y-40550000D03*
D15*
X90500000Y-42000000D03*
D11*
X106050000Y-41600000D03*
X104550000Y-41600000D03*
D20*
X144400000Y-110275000D03*
X144400000Y-108725000D03*
D14*
X95575000Y-120700000D03*
X95575000Y-123300000D03*
D11*
X150950000Y-106400000D03*
X152450000Y-106400000D03*
D12*
X149425000Y-55200000D03*
X149425000Y-55700000D03*
X149425000Y-56200000D03*
X150775000Y-56200000D03*
X150775000Y-55700000D03*
X150775000Y-55200000D03*
D17*
X143700000Y-105000000D03*
D18*
X145500000Y-105000000D03*
X145500000Y-103000000D03*
X143500000Y-103000000D03*
D17*
X143700000Y-89000000D03*
D18*
X145500000Y-89000000D03*
X145500000Y-87000000D03*
X143500000Y-87000000D03*
D19*
X147550000Y-123050000D03*
X147550000Y-124350000D03*
X149450000Y-123700000D03*
D16*
X151400000Y-44750000D03*
X151400000Y-43250000D03*
D12*
X149975000Y-60900000D03*
X149975000Y-60400000D03*
X149975000Y-59900000D03*
X148625000Y-59900000D03*
X148625000Y-60400000D03*
X148625000Y-60900000D03*
D16*
X151800000Y-71750000D03*
X151800000Y-73250000D03*
D19*
X149150000Y-87250000D03*
X149150000Y-88550000D03*
X151050000Y-87900000D03*
D12*
X153925000Y-119300000D03*
X153925000Y-119800000D03*
X153925000Y-120300000D03*
X155275000Y-120300000D03*
X155275000Y-119800000D03*
X155275000Y-119300000D03*
D16*
X142700000Y-62650000D03*
X142700000Y-61150000D03*
D21*
X142800000Y-94275000D03*
X142800000Y-92725000D03*
D11*
X150950000Y-90400000D03*
X152450000Y-90400000D03*
D12*
X103825000Y-55500000D03*
X103825000Y-56000000D03*
X103825000Y-56500000D03*
X105175000Y-56500000D03*
X105175000Y-56000000D03*
X105175000Y-55500000D03*
D14*
X158625000Y-107300000D03*
X158625000Y-104700000D03*
D19*
X107850000Y-60750000D03*
X107850000Y-59450000D03*
X105950000Y-60100000D03*
D14*
X95575000Y-72700000D03*
X95575000Y-75300000D03*
D18*
X110700000Y-73000000D03*
X112800000Y-73000000D03*
D16*
X154700000Y-92550000D03*
X154700000Y-91050000D03*
D13*
X148350000Y-39500000D03*
X147450000Y-39500000D03*
D20*
X112600000Y-53725000D03*
X112600000Y-55275000D03*
D14*
X158625000Y-91300000D03*
X158625000Y-88700000D03*
D16*
X144200000Y-48050000D03*
X144200000Y-46550000D03*
D22*
X146900000Y-44950000D03*
X146900000Y-45850000D03*
D14*
X98375000Y-120700000D03*
X98375000Y-123300000D03*
X95575000Y-40700000D03*
X95575000Y-43300000D03*
X98375000Y-72700000D03*
X98375000Y-75300000D03*
D19*
X109450000Y-40950000D03*
X109450000Y-39650000D03*
X107550000Y-40300000D03*
D22*
X110100000Y-119050000D03*
X110100000Y-118150000D03*
D11*
X155150000Y-121600000D03*
X153650000Y-121600000D03*
D12*
X149425000Y-71200000D03*
X149425000Y-71700000D03*
X149425000Y-72200000D03*
X150775000Y-72200000D03*
X150775000Y-71700000D03*
X150775000Y-71200000D03*
D16*
X152300000Y-87850000D03*
X152300000Y-89350000D03*
D10*
X142000000Y-119025000D03*
X142000000Y-119975000D03*
D15*
X166500000Y-42000000D03*
D12*
X153175000Y-124500000D03*
X153175000Y-124000000D03*
X153175000Y-123500000D03*
X151825000Y-123500000D03*
X151825000Y-124000000D03*
X151825000Y-124500000D03*
D16*
X114300000Y-101350000D03*
X114300000Y-102850000D03*
D14*
X161425000Y-75300000D03*
X161425000Y-72700000D03*
D12*
X153925000Y-87300000D03*
X153925000Y-87800000D03*
X153925000Y-88300000D03*
X155275000Y-88300000D03*
X155275000Y-87800000D03*
X155275000Y-87300000D03*
D34*
X145325000Y-57575000D03*
X145325000Y-58425000D03*
X146175000Y-57575000D03*
X146175000Y-58425000D03*
D35*
X144300000Y-57200000D03*
D36*
X144300000Y-57600000D03*
X144300000Y-58000000D03*
X144300000Y-58400000D03*
D37*
X144300000Y-58800000D03*
D38*
X144950000Y-59450000D03*
D39*
X145350000Y-59450000D03*
X145750000Y-59450000D03*
X146150000Y-59450000D03*
D40*
X146550000Y-59450000D03*
D41*
X147200000Y-58800000D03*
D36*
X147200000Y-58400000D03*
X147200000Y-58000000D03*
X147200000Y-57600000D03*
D42*
X147200000Y-57200000D03*
D43*
X146550000Y-56550000D03*
D39*
X146150000Y-56550000D03*
X145750000Y-56550000D03*
X145350000Y-56550000D03*
D44*
X144950000Y-56550000D03*
D16*
X105600000Y-103250000D03*
X105600000Y-104750000D03*
D13*
X108650000Y-124500000D03*
X109550000Y-124500000D03*
D17*
X113300000Y-43000000D03*
D18*
X111500000Y-43000000D03*
X111500000Y-45000000D03*
X113500000Y-45000000D03*
D19*
X147550000Y-91050000D03*
X147550000Y-92350000D03*
X149450000Y-91700000D03*
D16*
X102300000Y-55450000D03*
X102300000Y-56950000D03*
D11*
X148950000Y-89900000D03*
X147450000Y-89900000D03*
D15*
X90500000Y-58000000D03*
M02*
