M48
; DRILL file {KiCad 8.0.8} date 2025-12-28T14:23:14+0900
; FORMAT={-:-/ absolute / metric / decimal}
; #@! TF.CreationDate,2025-12-28T14:23:14+09:00
; #@! TF.GenerationSoftware,Kicad,Pcbnew,8.0.8
; #@! TF.FileFunction,Plated,1,2,PTH
FMAT,2
METRIC
; #@! TA.AperFunction,Plated,PTH,ViaDrill
T1C0.300
; #@! TA.AperFunction,Plated,PTH,ViaDrill
T2C0.400
; #@! TA.AperFunction,Plated,PTH,ViaDrill
T3C0.500
; #@! TA.AperFunction,Plated,PTH,ViaDrill
T4C0.600
; #@! TA.AperFunction,Plated,PTH,ComponentDrill
T5C0.600
; #@! TA.AperFunction,Plated,PTH,ComponentDrill
T6C0.700
%
G90
G05
T1
X95.9Y-39.5
X95.9Y-55.5
X95.9Y-71.5
X96.0Y-87.5
X96.0Y-103.5
X96.0Y-119.5
X96.5Y-40.1
X96.5Y-56.1
X96.5Y-72.1
X96.5Y-88.2
X96.5Y-104.2
X96.5Y-120.2
X98.9Y-90.0
X98.9Y-106.0
X98.9Y-122.0
X99.3Y-88.4
X99.3Y-104.4
X99.3Y-120.4
X99.4Y-40.6
X99.4Y-56.6
X99.4Y-72.6
X100.4Y-43.6
X100.4Y-59.6
X100.4Y-75.6
X102.6Y-43.0
X102.6Y-59.0
X102.6Y-75.0
X104.398Y-40.0
X104.398Y-56.0
X104.398Y-72.0
X105.9Y-39.2
X105.9Y-55.2
X105.9Y-71.2
X106.7Y-44.7
X106.7Y-60.7
X106.7Y-76.7
X107.8Y-87.0
X107.8Y-103.0
X107.8Y-119.0
X108.5Y-40.3
X108.5Y-56.3
X108.5Y-72.3
X110.1Y-85.6
X110.1Y-87.9
X110.1Y-101.6
X110.1Y-103.9
X110.1Y-117.6
X110.1Y-119.9
X110.75Y-90.5
X110.75Y-106.5
X110.75Y-122.5
X111.0Y-86.2
X111.0Y-102.2
X111.0Y-118.2
X111.75Y-89.5
X111.75Y-105.5
X111.75Y-121.5
X113.4Y-93.7
X113.4Y-109.7
X113.4Y-125.7
X143.6Y-38.3
X143.6Y-54.3
X143.6Y-70.3
X145.25Y-42.5
X145.25Y-58.5
X145.25Y-74.5
X146.0Y-45.8
X146.0Y-61.8
X146.0Y-77.8
X146.25Y-41.5
X146.25Y-57.5
X146.25Y-73.5
X146.9Y-44.1
X146.9Y-46.4
X146.9Y-60.1
X146.9Y-62.4
X146.9Y-76.1
X146.9Y-78.4
X148.5Y-91.7
X148.5Y-107.7
X148.5Y-123.7
X149.2Y-45.0
X149.2Y-61.0
X149.2Y-77.0
X150.3Y-87.3
X150.3Y-103.3
X150.3Y-119.3
X151.1Y-92.8
X151.1Y-108.8
X151.1Y-124.8
X152.602Y-92.0
X152.602Y-108.0
X152.602Y-124.0
X154.4Y-89.0
X154.4Y-105.0
X154.4Y-121.0
X156.6Y-88.4
X156.6Y-104.4
X156.6Y-120.4
X157.6Y-91.4
X157.6Y-107.4
X157.6Y-123.4
X157.7Y-43.6
X157.7Y-59.6
X157.7Y-75.6
X158.1Y-42.0
X158.1Y-58.0
X158.1Y-74.0
X160.5Y-43.8
X160.5Y-59.8
X160.5Y-75.8
X160.5Y-91.9
X160.5Y-107.9
X160.5Y-123.9
X161.0Y-44.5
X161.0Y-60.5
X161.0Y-76.5
X161.1Y-92.5
X161.1Y-108.5
X161.1Y-124.5
T2
X97.1Y-92.8
X97.1Y-108.8
X97.1Y-124.8
X99.0Y-42.0
X99.0Y-58.0
X99.0Y-74.0
X106.9Y-91.1
X106.9Y-107.1
X106.9Y-123.1
X109.3Y-43.9
X109.3Y-59.9
X109.3Y-75.9
X111.1Y-93.7
X111.1Y-109.7
X111.1Y-125.7
X111.75Y-92.75
X111.75Y-108.75
X111.75Y-124.75
X112.5Y-45.1
X112.5Y-61.1
X112.5Y-77.1
X114.2Y-91.9
X114.2Y-92.9
X114.2Y-107.9
X114.2Y-108.9
X114.2Y-123.9
X114.2Y-124.9
X142.8Y-39.1
X142.8Y-40.1
X142.8Y-55.1
X142.8Y-56.1
X142.8Y-71.1
X142.8Y-72.1
X144.5Y-86.9
X144.5Y-102.9
X144.5Y-118.9
X145.25Y-39.25
X145.25Y-55.25
X145.25Y-71.25
X145.9Y-38.3
X145.9Y-54.3
X145.9Y-70.3
X147.7Y-88.1
X147.7Y-104.1
X147.7Y-120.1
X150.1Y-40.9
X150.1Y-56.9
X150.1Y-72.9
X158.0Y-90.0
X158.0Y-106.0
X158.0Y-122.0
X159.9Y-39.2
X159.9Y-55.2
X159.9Y-71.2
T3
X96.7Y-44.7
X96.7Y-60.7
X96.7Y-76.7
X110.5Y-42.1
X110.5Y-58.1
X110.5Y-74.1
X111.4Y-46.5
X111.4Y-62.5
X111.4Y-78.5
X112.5Y-46.5
X112.5Y-62.5
X112.5Y-78.5
X144.5Y-85.5
X144.5Y-101.5
X144.5Y-117.5
X145.6Y-85.5
X145.6Y-101.5
X145.6Y-117.5
X146.5Y-89.9
X146.5Y-105.9
X146.5Y-121.9
X160.3Y-87.3
X160.3Y-103.3
X160.3Y-119.3
T4
X100.0Y-91.3
X100.0Y-107.3
X100.0Y-123.3
X101.0Y-41.1
X101.0Y-57.1
X101.0Y-73.1
X101.6Y-88.6
X101.6Y-104.6
X101.6Y-120.6
X102.4Y-92.25
X102.4Y-108.25
X102.4Y-124.25
X103.75Y-92.25
X103.75Y-108.25
X103.75Y-124.25
X104.4Y-88.8
X104.4Y-104.8
X104.4Y-120.8
X107.0Y-42.5
X107.0Y-58.5
X107.0Y-74.5
X107.0Y-89.3
X107.0Y-105.3
X107.0Y-121.3
X110.5Y-92.75
X110.5Y-108.75
X110.5Y-124.75
X110.9Y-95.8
X110.9Y-111.8
X110.9Y-127.8
X111.3Y-38.4
X111.3Y-39.6
X111.3Y-54.4
X111.3Y-55.6
X111.3Y-70.4
X111.3Y-71.6
X112.0Y-95.8
X112.0Y-111.8
X112.0Y-127.8
X112.5Y-44.0
X112.5Y-60.0
X112.5Y-76.0
X112.6Y-86.5
X112.6Y-102.5
X112.6Y-118.5
X113.3Y-42.0
X113.3Y-58.0
X113.3Y-74.0
X113.3Y-88.2
X113.3Y-104.2
X113.3Y-120.2
X114.2Y-84.3
X114.2Y-100.3
X114.2Y-116.3
X114.6Y-88.4
X114.6Y-104.4
X114.6Y-120.4
X115.1Y-41.9
X115.1Y-57.9
X115.1Y-73.9
X115.4Y-84.3
X115.4Y-87.2
X115.4Y-100.3
X115.4Y-103.2
X115.4Y-116.3
X115.4Y-119.2
X116.0Y-92.2
X116.0Y-108.2
X116.0Y-124.2
X121.5Y-89.5
X121.5Y-90.75
X121.5Y-105.5
X121.5Y-106.75
X121.5Y-121.5
X121.5Y-122.75
X121.9Y-86.3
X121.9Y-102.3
X121.9Y-118.3
X122.2Y-92.6
X122.2Y-108.6
X122.2Y-124.6
X123.8Y-38.8
X123.8Y-54.8
X123.8Y-70.8
X125.0Y-41.0
X125.0Y-42.9
X125.0Y-57.0
X125.0Y-58.9
X125.0Y-73.0
X125.0Y-74.9
X125.3Y-38.8
X125.3Y-54.8
X125.3Y-70.8
X126.4Y-86.75
X126.4Y-102.75
X126.4Y-118.75
X127.5Y-43.25
X127.5Y-59.25
X127.5Y-75.25
X128.0Y-88.75
X128.0Y-104.75
X128.0Y-120.75
X129.0Y-43.25
X129.0Y-59.25
X129.0Y-75.25
X129.5Y-88.75
X129.5Y-104.75
X129.5Y-120.75
X130.6Y-45.25
X130.6Y-61.25
X130.6Y-77.25
X131.7Y-93.2
X131.7Y-109.2
X131.7Y-125.2
X132.0Y-89.1
X132.0Y-91.0
X132.0Y-105.1
X132.0Y-107.0
X132.0Y-121.1
X132.0Y-123.0
X133.2Y-93.2
X133.2Y-109.2
X133.2Y-125.2
X134.8Y-39.4
X134.8Y-55.4
X134.8Y-71.4
X135.1Y-45.7
X135.1Y-61.7
X135.1Y-77.7
X135.5Y-41.25
X135.5Y-42.5
X135.5Y-57.25
X135.5Y-58.5
X135.5Y-73.25
X135.5Y-74.5
X141.0Y-39.8
X141.0Y-55.8
X141.0Y-71.8
X141.6Y-44.8
X141.6Y-47.7
X141.6Y-60.8
X141.6Y-63.7
X141.6Y-76.8
X141.6Y-79.7
X141.9Y-90.1
X141.9Y-106.1
X141.9Y-122.1
X142.4Y-43.6
X142.4Y-59.6
X142.4Y-75.6
X142.8Y-47.7
X142.8Y-63.7
X142.8Y-79.7
X143.7Y-43.8
X143.7Y-59.8
X143.7Y-75.8
X143.7Y-90.0
X143.7Y-106.0
X143.7Y-122.0
X144.4Y-45.5
X144.4Y-61.5
X144.4Y-77.5
X144.5Y-88.0
X144.5Y-104.0
X144.5Y-120.0
X145.0Y-36.2
X145.0Y-52.2
X145.0Y-68.2
X145.7Y-92.4
X145.7Y-93.6
X145.7Y-108.4
X145.7Y-109.6
X145.7Y-124.4
X145.7Y-125.6
X146.1Y-36.2
X146.1Y-52.2
X146.1Y-68.2
X146.5Y-39.25
X146.5Y-55.25
X146.5Y-71.25
X150.0Y-42.7
X150.0Y-58.7
X150.0Y-74.7
X150.0Y-89.5
X150.0Y-105.5
X150.0Y-121.5
X152.6Y-43.2
X152.6Y-59.2
X152.6Y-75.2
X153.25Y-39.75
X153.25Y-55.75
X153.25Y-71.75
X154.6Y-39.75
X154.6Y-55.75
X154.6Y-71.75
X155.4Y-43.4
X155.4Y-59.4
X155.4Y-75.4
X156.0Y-90.9
X156.0Y-106.9
X156.0Y-122.9
X157.0Y-40.7
X157.0Y-56.7
X157.0Y-72.7
T5
X99.9Y-87.3
X99.9Y-92.7
X99.9Y-103.3
X99.9Y-108.7
X99.9Y-119.3
X99.9Y-124.7
X100.1Y-44.7
X100.1Y-60.7
X100.1Y-76.7
X100.6Y-39.3
X100.6Y-55.3
X100.6Y-71.3
X156.4Y-92.7
X156.4Y-108.7
X156.4Y-124.7
X156.9Y-87.3
X156.9Y-103.3
X156.9Y-119.3
X157.1Y-39.3
X157.1Y-44.7
X157.1Y-55.3
X157.1Y-60.7
X157.1Y-71.3
X157.1Y-76.7
T6
X101.665Y-91.0
X101.665Y-107.0
X101.665Y-123.0
X102.935Y-91.0
X102.935Y-107.0
X102.935Y-123.0
X120.9Y-35.9
X120.9Y-48.1
X120.9Y-51.9
X120.9Y-64.1
X120.9Y-67.9
X120.9Y-80.1
X136.1Y-83.9
X136.1Y-96.1
X136.1Y-99.9
X136.1Y-112.1
X136.1Y-115.9
X136.1Y-128.1
X154.065Y-41.0
X154.065Y-57.0
X154.065Y-73.0
X155.335Y-41.0
X155.335Y-57.0
X155.335Y-73.0
M30
