M48
; DRILL file {KiCad 9.0.8} date 2026-09-10T23:05:13+0900
; FORMAT={-:-/ absolute / metric / decimal}
; #@! TF.CreationDate,2026-09-10T23:05:13+09:00
; #@! TF.GenerationSoftware,Kicad,Pcbnew,9.0.8
; #@! TF.FileFunction,Plated,1,2,PTH
FMAT,2
METRIC
; #@! TA.AperFunction,Plated,PTH,ViaDrill
T1C0.300
; #@! TA.AperFunction,Plated,PTH,ViaDrill
T2C0.400
; #@! TA.AperFunction,Plated,PTH,ViaDrill
T3C0.500
; #@! TA.AperFunction,Plated,PTH,ViaDrill
T4C0.600
; #@! TA.AperFunction,Plated,PTH,ViaDrill
T5C0.700
; #@! TA.AperFunction,Plated,PTH,ComponentDrill
T6C0.700
; #@! TA.AperFunction,Plated,PTH,ComponentDrill
T7C0.900
%
G90
G05
T1
X110.0Y-42.7
X110.0Y-56.7
X110.0Y-70.7
X110.0Y-84.7
X110.0Y-106.3
X110.0Y-120.3
X110.0Y-134.3
X110.0Y-148.3
X110.6Y-43.3
X110.6Y-57.3
X110.6Y-71.3
X110.6Y-85.3
X110.6Y-105.7
X110.6Y-119.7
X110.6Y-133.7
X110.6Y-147.7
X119.5Y-46.8
X119.5Y-60.8
X119.5Y-74.8
X119.5Y-88.8
X119.5Y-102.2
X119.5Y-116.2
X119.5Y-130.2
X119.5Y-144.2
X120.5Y-45.9
X120.5Y-59.9
X120.5Y-73.9
X120.5Y-87.9
X120.5Y-103.1
X120.5Y-117.1
X120.5Y-131.1
X120.5Y-145.1
X124.3Y-46.4
X124.3Y-60.4
X124.3Y-74.4
X124.3Y-88.4
X124.3Y-102.6
X124.3Y-116.6
X124.3Y-130.6
X124.3Y-144.6
X124.9Y-43.2
X124.9Y-57.2
X124.9Y-71.2
X124.9Y-85.2
X124.9Y-105.8
X124.9Y-119.8
X124.9Y-133.8
X124.9Y-147.8
X126.9Y-45.4
X126.9Y-59.4
X126.9Y-73.4
X126.9Y-87.4
X126.9Y-103.6
X126.9Y-117.6
X126.9Y-131.6
X126.9Y-145.6
X128.55Y-45.4
X128.55Y-59.4
X128.55Y-73.4
X128.55Y-87.4
X128.55Y-103.6
X128.55Y-117.6
X128.55Y-131.6
X128.55Y-145.6
X129.3Y-42.9
X129.3Y-56.9
X129.3Y-70.9
X129.3Y-84.9
X129.3Y-106.1
X129.3Y-120.1
X129.3Y-134.1
X129.3Y-148.1
X130.3Y-46.5
X130.3Y-60.5
X130.3Y-74.5
X130.3Y-88.5
X130.3Y-102.5
X130.3Y-116.5
X130.3Y-130.5
X130.3Y-144.5
X130.5Y-47.9
X130.5Y-61.9
X130.5Y-75.9
X130.5Y-89.9
X130.5Y-101.1
X130.5Y-115.1
X130.5Y-129.1
X130.5Y-143.1
X134.4Y-45.2
X134.4Y-59.2
X134.4Y-73.2
X134.4Y-87.2
X134.4Y-103.8
X134.4Y-117.8
X134.4Y-131.8
X134.4Y-145.8
X139.3Y-46.3
X139.3Y-60.3
X139.3Y-74.3
X139.3Y-88.3
X139.3Y-102.7
X139.3Y-116.7
X139.3Y-130.7
X139.3Y-144.7
X175.2Y-46.5
X175.2Y-60.5
X175.2Y-74.5
X175.2Y-88.5
X175.2Y-102.5
X175.2Y-116.5
X175.2Y-130.5
X175.2Y-144.5
X175.3Y-45.1
X175.3Y-59.1
X175.3Y-73.1
X175.3Y-87.1
X175.3Y-103.9
X175.3Y-117.9
X175.3Y-131.9
X175.3Y-145.9
X176.5Y-47.9
X176.5Y-61.9
X176.5Y-75.9
X176.5Y-89.9
X176.5Y-101.1
X176.5Y-115.1
X176.5Y-129.1
X176.5Y-143.1
X178.5Y-45.6
X178.5Y-59.6
X178.5Y-73.6
X178.5Y-87.6
X178.5Y-103.4
X178.5Y-117.4
X178.5Y-131.4
X178.5Y-145.4
T2
X110.1Y-44.2
X110.1Y-58.2
X110.1Y-72.2
X110.1Y-86.2
X110.1Y-104.8
X110.1Y-118.8
X110.1Y-132.8
X110.1Y-146.8
X113.55Y-46.1
X113.55Y-60.1
X113.55Y-74.1
X113.55Y-88.1
X113.55Y-102.9
X113.55Y-116.9
X113.55Y-130.9
X113.55Y-144.9
X114.25Y-51.1
X114.25Y-65.1
X114.25Y-79.1
X114.25Y-93.1
X114.25Y-97.9
X114.25Y-111.9
X114.25Y-125.9
X114.25Y-139.9
X117.85Y-45.35
X117.85Y-46.25
X117.85Y-59.35
X117.85Y-60.25
X117.85Y-73.35
X117.85Y-74.25
X117.85Y-87.35
X117.85Y-88.25
X117.85Y-102.75
X117.85Y-103.65
X117.85Y-116.75
X117.85Y-117.65
X117.85Y-130.75
X117.85Y-131.65
X117.85Y-144.75
X117.85Y-145.65
X119.5Y-50.1
X119.5Y-64.1
X119.5Y-78.1
X119.5Y-92.1
X119.5Y-98.9
X119.5Y-112.9
X119.5Y-126.9
X119.5Y-140.9
X120.9Y-50.8
X120.9Y-64.8
X120.9Y-78.8
X120.9Y-92.8
X120.9Y-98.2
X120.9Y-112.2
X120.9Y-126.2
X120.9Y-140.2
X121.85Y-47.3
X121.85Y-61.3
X121.85Y-75.3
X121.85Y-89.3
X121.85Y-101.7
X121.85Y-115.7
X121.85Y-129.7
X121.85Y-143.7
X125.5Y-49.9
X125.5Y-63.9
X125.5Y-77.9
X125.5Y-91.9
X125.5Y-99.1
X125.5Y-113.1
X125.5Y-127.1
X125.5Y-141.1
X127.1Y-50.5
X127.1Y-64.5
X127.1Y-78.5
X127.1Y-92.5
X127.1Y-98.5
X127.1Y-112.5
X127.1Y-126.5
X127.1Y-140.5
X130.8Y-50.4
X130.8Y-64.4
X130.8Y-78.4
X130.8Y-92.4
X130.8Y-98.6
X130.8Y-112.6
X130.8Y-126.6
X130.8Y-140.6
X131.3Y-44.6
X131.3Y-58.6
X131.3Y-72.6
X131.3Y-86.6
X131.3Y-104.4
X131.3Y-118.4
X131.3Y-132.4
X131.3Y-146.4
X160.9Y-48.9
X160.9Y-62.9
X160.9Y-76.9
X160.9Y-90.9
X160.9Y-100.1
X160.9Y-114.1
X160.9Y-128.1
X160.9Y-142.1
X162.6Y-45.6
X162.6Y-59.6
X162.6Y-73.6
X162.6Y-87.6
X162.6Y-103.4
X162.6Y-117.4
X162.6Y-131.4
X162.6Y-145.4
X169.5Y-45.7
X169.5Y-59.7
X169.5Y-73.7
X169.5Y-87.7
X169.5Y-103.3
X169.5Y-117.3
X169.5Y-131.3
X169.5Y-145.3
X184.75Y-51.1
X184.75Y-65.1
X184.75Y-79.1
X184.75Y-93.1
X184.75Y-97.9
X184.75Y-111.9
X184.75Y-125.9
X184.75Y-139.9
X190.6Y-51.1
X190.6Y-65.1
X190.6Y-79.1
X190.6Y-93.1
X190.6Y-97.9
X190.6Y-111.9
X190.6Y-125.9
X190.6Y-139.9
T3
X124.3Y-44.1
X124.3Y-58.1
X124.3Y-72.1
X124.3Y-86.1
X124.3Y-104.9
X124.3Y-118.9
X124.3Y-132.9
X124.3Y-146.9
T4
X137.2Y-43.3
X137.2Y-49.6
X137.2Y-57.3
X137.2Y-63.6
X137.2Y-71.3
X137.2Y-77.6
X137.2Y-85.3
X137.2Y-91.6
X137.2Y-99.4
X137.2Y-105.7
X137.2Y-113.4
X137.2Y-119.7
X137.2Y-127.4
X137.2Y-133.7
X137.2Y-141.4
X137.2Y-147.7
T5
X110.35Y-46.4
X110.35Y-60.4
X110.35Y-74.4
X110.35Y-88.4
X110.35Y-102.6
X110.35Y-116.6
X110.35Y-130.6
X110.35Y-144.6
X111.85Y-46.1
X111.85Y-60.1
X111.85Y-74.1
X111.85Y-88.1
X111.85Y-102.9
X111.85Y-116.9
X111.85Y-130.9
X111.85Y-144.9
X115.1Y-46.0
X115.1Y-60.0
X115.1Y-74.0
X115.1Y-88.0
X115.1Y-103.0
X115.1Y-117.0
X115.1Y-131.0
X115.1Y-145.0
X115.85Y-44.3
X115.85Y-58.3
X115.85Y-72.3
X115.85Y-86.3
X115.85Y-104.7
X115.85Y-118.7
X115.85Y-132.7
X115.85Y-146.7
X119.55Y-42.8
X119.55Y-56.8
X119.55Y-70.8
X119.55Y-84.8
X119.55Y-106.2
X119.55Y-120.2
X119.55Y-134.2
X119.55Y-148.2
X130.6Y-43.3
X130.6Y-57.3
X130.6Y-71.3
X130.6Y-85.3
X130.6Y-105.7
X130.6Y-119.7
X130.6Y-133.7
X130.6Y-147.7
X133.4Y-48.8
X133.4Y-62.8
X133.4Y-76.8
X133.4Y-90.8
X133.4Y-100.2
X133.4Y-114.2
X133.4Y-128.2
X133.4Y-142.2
X134.0Y-41.2
X134.0Y-51.6
X134.0Y-55.2
X134.0Y-65.6
X134.0Y-69.2
X134.0Y-79.6
X134.0Y-83.2
X134.0Y-93.6
X134.0Y-97.4
X134.0Y-107.8
X134.0Y-111.4
X134.0Y-121.8
X134.0Y-125.4
X134.0Y-135.8
X134.0Y-139.4
X134.0Y-149.8
X136.0Y-41.2
X136.0Y-51.6
X136.0Y-55.2
X136.0Y-65.6
X136.0Y-69.2
X136.0Y-79.6
X136.0Y-83.2
X136.0Y-93.6
X136.0Y-97.4
X136.0Y-107.8
X136.0Y-111.4
X136.0Y-121.8
X136.0Y-125.4
X136.0Y-135.8
X136.0Y-139.4
X136.0Y-149.8
X138.0Y-41.2
X138.0Y-51.6
X138.0Y-55.2
X138.0Y-65.6
X138.0Y-69.2
X138.0Y-79.6
X138.0Y-83.2
X138.0Y-93.6
X138.0Y-97.4
X138.0Y-107.8
X138.0Y-111.4
X138.0Y-121.8
X138.0Y-125.4
X138.0Y-135.8
X138.0Y-139.4
X138.0Y-149.8
X146.0Y-41.5
X146.0Y-51.5
X146.0Y-55.5
X146.0Y-65.5
X146.0Y-69.5
X146.0Y-79.5
X146.0Y-83.5
X146.0Y-93.5
X146.0Y-97.5
X146.0Y-107.5
X146.0Y-111.5
X146.0Y-121.5
X146.0Y-125.5
X146.0Y-135.5
X146.0Y-139.5
X146.0Y-149.5
X153.0Y-41.5
X153.0Y-51.5
X153.0Y-55.5
X153.0Y-65.5
X153.0Y-69.5
X153.0Y-79.5
X153.0Y-83.5
X153.0Y-93.5
X153.0Y-97.5
X153.0Y-107.5
X153.0Y-111.5
X153.0Y-121.5
X153.0Y-125.5
X153.0Y-135.5
X153.0Y-139.5
X153.0Y-149.5
X158.0Y-44.9
X158.0Y-58.9
X158.0Y-72.9
X158.0Y-86.9
X158.0Y-104.1
X158.0Y-118.1
X158.0Y-132.1
X158.0Y-146.1
X159.5Y-44.9
X159.5Y-58.9
X159.5Y-72.9
X159.5Y-86.9
X159.5Y-104.1
X159.5Y-118.1
X159.5Y-132.1
X159.5Y-146.1
X160.0Y-41.5
X160.0Y-51.5
X160.0Y-55.5
X160.0Y-65.5
X160.0Y-69.5
X160.0Y-79.5
X160.0Y-83.5
X160.0Y-93.5
X160.0Y-97.5
X160.0Y-107.5
X160.0Y-111.5
X160.0Y-121.5
X160.0Y-125.5
X160.0Y-135.5
X160.0Y-139.5
X160.0Y-149.5
X167.0Y-41.5
X167.0Y-51.5
X167.0Y-55.5
X167.0Y-65.5
X167.0Y-69.5
X167.0Y-79.5
X167.0Y-83.5
X167.0Y-93.5
X167.0Y-97.5
X167.0Y-107.5
X167.0Y-111.5
X167.0Y-121.5
X167.0Y-125.5
X167.0Y-135.5
X167.0Y-139.5
X167.0Y-149.5
X169.75Y-44.25
X169.75Y-58.25
X169.75Y-72.25
X169.75Y-86.25
X169.75Y-104.75
X169.75Y-118.75
X169.75Y-132.75
X169.75Y-146.75
X171.5Y-44.25
X171.5Y-58.25
X171.5Y-72.25
X171.5Y-86.25
X171.5Y-104.75
X171.5Y-118.75
X171.5Y-132.75
X171.5Y-146.75
X174.0Y-41.5
X174.0Y-43.5
X174.0Y-49.0
X174.0Y-51.5
X174.0Y-55.5
X174.0Y-57.5
X174.0Y-63.0
X174.0Y-65.5
X174.0Y-69.5
X174.0Y-71.5
X174.0Y-77.0
X174.0Y-79.5
X174.0Y-83.5
X174.0Y-85.5
X174.0Y-91.0
X174.0Y-93.5
X174.0Y-97.5
X174.0Y-100.0
X174.0Y-105.5
X174.0Y-107.5
X174.0Y-111.5
X174.0Y-114.0
X174.0Y-119.5
X174.0Y-121.5
X174.0Y-125.5
X174.0Y-128.0
X174.0Y-133.5
X174.0Y-135.5
X174.0Y-139.5
X174.0Y-142.0
X174.0Y-147.5
X174.0Y-149.5
X181.0Y-41.5
X181.0Y-43.75
X181.0Y-48.5
X181.0Y-51.5
X181.0Y-55.5
X181.0Y-57.75
X181.0Y-62.5
X181.0Y-65.5
X181.0Y-69.5
X181.0Y-71.75
X181.0Y-76.5
X181.0Y-79.5
X181.0Y-83.5
X181.0Y-85.75
X181.0Y-90.5
X181.0Y-93.5
X181.0Y-97.5
X181.0Y-100.5
X181.0Y-105.25
X181.0Y-107.5
X181.0Y-111.5
X181.0Y-114.5
X181.0Y-119.25
X181.0Y-121.5
X181.0Y-125.5
X181.0Y-128.5
X181.0Y-133.25
X181.0Y-135.5
X181.0Y-139.5
X181.0Y-142.5
X181.0Y-147.25
X181.0Y-149.5
X188.0Y-41.5
X188.0Y-43.75
X188.0Y-48.5
X188.0Y-51.5
X188.0Y-55.5
X188.0Y-57.75
X188.0Y-62.5
X188.0Y-65.5
X188.0Y-69.5
X188.0Y-71.75
X188.0Y-76.5
X188.0Y-79.5
X188.0Y-83.5
X188.0Y-85.75
X188.0Y-90.5
X188.0Y-93.5
X188.0Y-97.5
X188.0Y-100.5
X188.0Y-105.25
X188.0Y-107.5
X188.0Y-111.5
X188.0Y-114.5
X188.0Y-119.25
X188.0Y-121.5
X188.0Y-125.5
X188.0Y-128.5
X188.0Y-133.25
X188.0Y-135.5
X188.0Y-139.5
X188.0Y-142.5
X188.0Y-147.25
X188.0Y-149.5
T6
X126.965Y-46.8
X126.965Y-60.8
X126.965Y-74.8
X126.965Y-88.8
X126.965Y-102.2
X126.965Y-116.2
X126.965Y-130.2
X126.965Y-144.2
X128.235Y-46.8
X128.235Y-60.8
X128.235Y-74.8
X128.235Y-88.8
X128.235Y-102.2
X128.235Y-116.2
X128.235Y-130.2
X128.235Y-144.2
T7
X99.0Y-43.25
X99.0Y-50.25
X99.0Y-57.25
X99.0Y-64.25
X99.0Y-71.25
X99.0Y-78.25
X99.0Y-85.25
X99.0Y-92.25
X99.0Y-98.75
X99.0Y-105.75
X99.0Y-112.75
X99.0Y-119.75
X99.0Y-126.75
X99.0Y-133.75
X99.0Y-140.75
X99.0Y-147.75
X142.4Y-41.2
X142.4Y-49.15
X142.4Y-55.2
X142.4Y-63.15
X142.4Y-69.2
X142.4Y-77.15
X142.4Y-83.2
X142.4Y-91.15
X142.4Y-99.85
X142.4Y-107.8
X142.4Y-113.85
X142.4Y-121.8
X142.4Y-127.85
X142.4Y-135.8
X142.4Y-141.85
X142.4Y-149.8
M30
