G04 #@! TF.GenerationSoftware,KiCad,Pcbnew,9.0.8*
G04 #@! TF.CreationDate,2026-09-10T23:05:13+09:00*
G04 #@! TF.ProjectId,motordecoder2-t-dc56mra-panelized,6d6f746f-7264-4656-936f-646572322d74,rev?*
G04 #@! TF.SameCoordinates,Original*
G04 #@! TF.FileFunction,Soldermask,Top*
G04 #@! TF.FilePolarity,Negative*
%FSLAX46Y46*%
G04 Gerber Fmt 4.6, Leading zero omitted, Abs format (unit mm)*
G04 Created by KiCad (PCBNEW 9.0.8) date 2026-09-10 23:05:13*
%MOMM*%
%LPD*%
G01*
G04 APERTURE LIST*
G04 Aperture macros list*
%AMRoundRect*
0 Rectangle with rounded corners*
0 $1 Rounding radius*
0 $2 $3 $4 $5 $6 $7 $8 $9 X,Y pos of 4 corners*
0 Add a 4 corners polygon primitive as box body*
4,1,4,$2,$3,$4,$5,$6,$7,$8,$9,$2,$3,0*
0 Add four circle primitives for the rounded corners*
1,1,$1+$1,$2,$3*
1,1,$1+$1,$4,$5*
1,1,$1+$1,$6,$7*
1,1,$1+$1,$8,$9*
0 Add four rect primitives between the rounded corners*
20,1,$1+$1,$2,$3,$4,$5,0*
20,1,$1+$1,$4,$5,$6,$7,0*
20,1,$1+$1,$6,$7,$8,$9,0*
20,1,$1+$1,$8,$9,$2,$3,0*%
%AMFreePoly0*
4,1,47,0.149899,0.332478,0.291718,0.280861,0.417811,0.197929,0.521379,0.088154,0.596839,-0.042547,0.636960,-0.176560,0.637078,-0.176678,0.637078,-0.176952,0.640124,-0.187127,0.637078,-0.208803,0.637078,-0.214946,0.636073,-0.215950,0.635824,-0.217728,0.614358,-0.239957,0.611576,-0.240447,0.610018,-0.242006,0.590884,-0.245812,-0.590884,-0.245812,-0.610018,-0.242006,-0.611574,-0.240449,
-0.614358,-0.239959,-0.635824,-0.217731,-0.636074,-0.215949,-0.637078,-0.214946,-0.637078,-0.208806,-0.640124,-0.187130,-0.637078,-0.176955,-0.637078,-0.176678,-0.636959,-0.176559,-0.627754,-0.145812,-0.531220,-0.145812,-0.527837,-0.145812,0.527837,-0.145812,0.531220,-0.145812,0.530204,-0.140096,0.527837,-0.145812,-0.527837,-0.145812,-0.530204,-0.140095,-0.531220,-0.145812,-0.627754,-0.145812,
-0.596840,-0.042549,-0.521380,0.088152,-0.417812,0.197928,-0.291720,0.280860,-0.149901,0.332478,-0.000001,0.349999,0.149899,0.332478,0.149899,0.332478,$1*%
%AMFreePoly1*
4,1,14,0.334644,0.085355,0.385355,0.034644,0.400000,-0.000711,0.400000,-0.050000,0.385355,-0.085355,0.350000,-0.100000,-0.350000,-0.100000,-0.385355,-0.085355,-0.400000,-0.050000,-0.400000,0.050000,-0.385355,0.085355,-0.350000,0.100000,0.299289,0.100000,0.334644,0.085355,0.334644,0.085355,$1*%
%AMFreePoly2*
4,1,14,0.385355,0.085355,0.400000,0.050000,0.400000,0.000711,0.385355,-0.034644,0.334644,-0.085355,0.299289,-0.100000,-0.350000,-0.100000,-0.385355,-0.085355,-0.400000,-0.050000,-0.400000,0.050000,-0.385355,0.085355,-0.350000,0.100000,0.350000,0.100000,0.385355,0.085355,0.385355,0.085355,$1*%
%AMFreePoly3*
4,1,14,0.085355,0.385355,0.100000,0.350000,0.100000,-0.350000,0.085355,-0.385355,0.050000,-0.400000,-0.050000,-0.400000,-0.085355,-0.385355,-0.100000,-0.350000,-0.100000,0.299289,-0.085355,0.334644,-0.034644,0.385355,0.000711,0.400000,0.050000,0.400000,0.085355,0.385355,0.085355,0.385355,$1*%
%AMFreePoly4*
4,1,14,0.034644,0.385355,0.085355,0.334644,0.100000,0.299289,0.100000,-0.350000,0.085355,-0.385355,0.050000,-0.400000,-0.050000,-0.400000,-0.085355,-0.385355,-0.100000,-0.350000,-0.100000,0.350000,-0.085355,0.385355,-0.050000,0.400000,-0.000711,0.400000,0.034644,0.385355,0.034644,0.385355,$1*%
%AMFreePoly5*
4,1,14,0.385355,0.085355,0.400000,0.050000,0.400000,-0.050000,0.385355,-0.085355,0.350000,-0.100000,-0.299289,-0.100000,-0.334644,-0.085355,-0.385355,-0.034644,-0.400000,0.000711,-0.400000,0.050000,-0.385355,0.085355,-0.350000,0.100000,0.350000,0.100000,0.385355,0.085355,0.385355,0.085355,$1*%
%AMFreePoly6*
4,1,14,0.385355,0.085355,0.400000,0.050000,0.400000,-0.050000,0.385355,-0.085355,0.350000,-0.100000,-0.350000,-0.100000,-0.385355,-0.085355,-0.400000,-0.050000,-0.400000,-0.000711,-0.385355,0.034644,-0.334644,0.085355,-0.299289,0.100000,0.350000,0.100000,0.385355,0.085355,0.385355,0.085355,$1*%
%AMFreePoly7*
4,1,14,0.085355,0.385355,0.100000,0.350000,0.100000,-0.299289,0.085355,-0.334644,0.034644,-0.385355,-0.000711,-0.400000,-0.050000,-0.400000,-0.085355,-0.385355,-0.100000,-0.350000,-0.100000,0.350000,-0.085355,0.385355,-0.050000,0.400000,0.050000,0.400000,0.085355,0.385355,0.085355,0.385355,$1*%
%AMFreePoly8*
4,1,14,0.085355,0.385355,0.100000,0.350000,0.100000,-0.350000,0.085355,-0.385355,0.050000,-0.400000,0.000711,-0.400000,-0.034644,-0.385355,-0.085355,-0.334644,-0.100000,-0.299289,-0.100000,0.350000,-0.085355,0.385355,-0.050000,0.400000,0.050000,0.400000,0.085355,0.385355,0.085355,0.385355,$1*%
G04 Aperture macros list end*
%ADD10C,0.150000*%
%ADD11C,0.500000*%
%ADD12C,0.250000*%
%ADD13C,0.200000*%
%ADD14R,0.600000X0.400000*%
%ADD15R,0.500000X0.550000*%
%ADD16C,1.300000*%
%ADD17C,2.000000*%
%ADD18R,0.300000X0.450000*%
%ADD19R,0.500000X0.900000*%
%ADD20R,0.800000X0.650000*%
%ADD21R,0.400000X0.600000*%
%ADD22R,0.550000X0.500000*%
%ADD23R,1.200000X0.800000*%
%ADD24R,0.400000X0.450000*%
%ADD25R,0.500000X0.450000*%
%ADD26R,1.800000X1.000000*%
%ADD27R,0.600000X1.000000*%
%ADD28R,0.450000X0.300000*%
%ADD29R,0.450000X0.520000*%
%ADD30FreePoly0,90.000000*%
%ADD31FreePoly0,270.000000*%
%ADD32R,2.000000X1.100000*%
%ADD33R,0.800000X1.100000*%
%ADD34R,0.700000X0.800000*%
%ADD35R,3.500000X3.500000*%
%ADD36R,0.700000X0.700000*%
%ADD37R,1.300000X1.300000*%
%ADD38R,0.800000X0.800000*%
%ADD39R,0.900000X0.500000*%
%ADD40FreePoly1,0.000000*%
%ADD41RoundRect,0.050000X-0.350000X-0.050000X0.350000X-0.050000X0.350000X0.050000X-0.350000X0.050000X0*%
%ADD42FreePoly2,0.000000*%
%ADD43FreePoly3,0.000000*%
%ADD44RoundRect,0.050000X-0.050000X-0.350000X0.050000X-0.350000X0.050000X0.350000X-0.050000X0.350000X0*%
%ADD45FreePoly4,0.000000*%
%ADD46FreePoly5,0.000000*%
%ADD47FreePoly6,0.000000*%
%ADD48FreePoly7,0.000000*%
%ADD49FreePoly8,0.000000*%
%ADD50R,1.700000X1.700000*%
%ADD51R,0.800000X0.900000*%
%ADD52R,0.950000X0.950000*%
G04 APERTURE END LIST*
D10*
X91496154Y-106500000D02*
X89746154Y-105500000D01*
X91496154Y-104500000D01*
X91496154Y-106500000D01*
G36*
X91496154Y-106500000D02*
G01*
X89746154Y-105500000D01*
X91496154Y-104500000D01*
X91496154Y-106500000D01*
G37*
X91496154Y-120500000D02*
X89746154Y-119500000D01*
X91496154Y-118500000D01*
X91496154Y-120500000D01*
G36*
X91496154Y-120500000D02*
G01*
X89746154Y-119500000D01*
X91496154Y-118500000D01*
X91496154Y-120500000D01*
G37*
X91496154Y-134500000D02*
X89746154Y-133500000D01*
X91496154Y-132500000D01*
X91496154Y-134500000D01*
G36*
X91496154Y-134500000D02*
G01*
X89746154Y-133500000D01*
X91496154Y-132500000D01*
X91496154Y-134500000D01*
G37*
X91496154Y-148500000D02*
X89746154Y-147500000D01*
X91496154Y-146500000D01*
X91496154Y-148500000D01*
G36*
X91496154Y-148500000D02*
G01*
X89746154Y-147500000D01*
X91496154Y-146500000D01*
X91496154Y-148500000D01*
G37*
X210500000Y-106500000D02*
X208750000Y-105500000D01*
X210500000Y-104500000D01*
X210500000Y-106500000D01*
G36*
X210500000Y-106500000D02*
G01*
X208750000Y-105500000D01*
X210500000Y-104500000D01*
X210500000Y-106500000D01*
G37*
X210500000Y-120500000D02*
X208750000Y-119500000D01*
X210500000Y-118500000D01*
X210500000Y-120500000D01*
G36*
X210500000Y-120500000D02*
G01*
X208750000Y-119500000D01*
X210500000Y-118500000D01*
X210500000Y-120500000D01*
G37*
X210500000Y-134500000D02*
X208750000Y-133500000D01*
X210500000Y-132500000D01*
X210500000Y-134500000D01*
G36*
X210500000Y-134500000D02*
G01*
X208750000Y-133500000D01*
X210500000Y-132500000D01*
X210500000Y-134500000D01*
G37*
X210500000Y-148500000D02*
X208750000Y-147500000D01*
X210500000Y-146500000D01*
X210500000Y-148500000D01*
G36*
X210500000Y-148500000D02*
G01*
X208750000Y-147500000D01*
X210500000Y-146500000D01*
X210500000Y-148500000D01*
G37*
D11*
X102250000Y-44250000D02*
X104750000Y-44250000D01*
X102250000Y-48750000D02*
G75*
G02*
X102250000Y-44250000I0J2250000D01*
G01*
X102250000Y-48750000D02*
X104750000Y-48750000D01*
X102250000Y-58250000D02*
X104750000Y-58250000D01*
X102250000Y-62750000D02*
G75*
G02*
X102250000Y-58250000I0J2250000D01*
G01*
X102250000Y-62750000D02*
X104750000Y-62750000D01*
X102250000Y-72250000D02*
X104750000Y-72250000D01*
X102250000Y-76750000D02*
G75*
G02*
X102250000Y-72250000I0J2250000D01*
G01*
X102250000Y-76750000D02*
X104750000Y-76750000D01*
X102250000Y-86250000D02*
X104750000Y-86250000D01*
X102250000Y-90750000D02*
G75*
G02*
X102250000Y-86250000I0J2250000D01*
G01*
X102250000Y-90750000D02*
X104750000Y-90750000D01*
X102250000Y-104750000D02*
G75*
G02*
X102250000Y-100250000I0J2250000D01*
G01*
X102250000Y-118750000D02*
G75*
G02*
X102250000Y-114250000I0J2250000D01*
G01*
X102250000Y-132750000D02*
G75*
G02*
X102250000Y-128250000I0J2250000D01*
G01*
X102250000Y-146750000D02*
G75*
G02*
X102250000Y-142250000I0J2250000D01*
G01*
X104750000Y-44250000D02*
G75*
G02*
X104750000Y-48750000I0J-2250000D01*
G01*
X104750000Y-58250000D02*
G75*
G02*
X104750000Y-62750000I0J-2250000D01*
G01*
X104750000Y-72250000D02*
G75*
G02*
X104750000Y-76750000I0J-2250000D01*
G01*
X104750000Y-86250000D02*
G75*
G02*
X104750000Y-90750000I0J-2250000D01*
G01*
X104750000Y-100250000D02*
G75*
G02*
X104750000Y-104750000I0J-2250000D01*
G01*
X104750000Y-114250000D02*
G75*
G02*
X104750000Y-118750000I0J-2250000D01*
G01*
X104750000Y-128250000D02*
G75*
G02*
X104750000Y-132750000I0J-2250000D01*
G01*
X104750000Y-142250000D02*
G75*
G02*
X104750000Y-146750000I0J-2250000D01*
G01*
X195750000Y-48750000D02*
G75*
G02*
X195750000Y-44250000I0J2250000D01*
G01*
X195750000Y-62750000D02*
G75*
G02*
X195750000Y-58250000I0J2250000D01*
G01*
X195750000Y-76750000D02*
G75*
G02*
X195750000Y-72250000I0J2250000D01*
G01*
X195750000Y-90750000D02*
G75*
G02*
X195750000Y-86250000I0J2250000D01*
G01*
X195750000Y-104750000D02*
G75*
G02*
X195750000Y-100250000I0J2250000D01*
G01*
X195750000Y-118750000D02*
G75*
G02*
X195750000Y-114250000I0J2250000D01*
G01*
X195750000Y-132750000D02*
G75*
G02*
X195750000Y-128250000I0J2250000D01*
G01*
X195750000Y-146750000D02*
G75*
G02*
X195750000Y-142250000I0J2250000D01*
G01*
X198250000Y-44250000D02*
G75*
G02*
X198250000Y-48750000I0J-2250000D01*
G01*
X198250000Y-58250000D02*
G75*
G02*
X198250000Y-62750000I0J-2250000D01*
G01*
X198250000Y-72250000D02*
G75*
G02*
X198250000Y-76750000I0J-2250000D01*
G01*
X198250000Y-86250000D02*
G75*
G02*
X198250000Y-90750000I0J-2250000D01*
G01*
X198250000Y-100250000D02*
G75*
G02*
X198250000Y-104750000I0J-2250000D01*
G01*
X198250000Y-114250000D02*
G75*
G02*
X198250000Y-118750000I0J-2250000D01*
G01*
X198250000Y-128250000D02*
G75*
G02*
X198250000Y-132750000I0J-2250000D01*
G01*
X198250000Y-142250000D02*
G75*
G02*
X198250000Y-146750000I0J-2250000D01*
G01*
D12*
X170700000Y-145000000D02*
X170700000Y-144000000D01*
D13*
X170450263Y-143999870D02*
G75*
G02*
X170949999Y-144000001I249737J-500130D01*
G01*
X170949738Y-145000130D02*
G75*
G02*
X170450001Y-145000000I-249738J500124D01*
G01*
D12*
X170700000Y-117000000D02*
X170700000Y-116000000D01*
D13*
X170450263Y-115999870D02*
G75*
G02*
X170949999Y-116000001I249737J-500130D01*
G01*
X170949738Y-117000130D02*
G75*
G02*
X170450001Y-117000000I-249738J500124D01*
G01*
D12*
X170700000Y-131000000D02*
X170700000Y-130000000D01*
D13*
X170450263Y-129999870D02*
G75*
G02*
X170949999Y-130000001I249737J-500130D01*
G01*
X170949738Y-131000130D02*
G75*
G02*
X170450001Y-131000000I-249738J500124D01*
G01*
D12*
X170700000Y-103000000D02*
X170700000Y-102000000D01*
D13*
X170450263Y-101999870D02*
G75*
G02*
X170949999Y-102000001I249737J-500130D01*
G01*
X170949738Y-103000130D02*
G75*
G02*
X170450001Y-103000000I-249738J500124D01*
G01*
D14*
X120550000Y-87150000D03*
X120550000Y-86250000D03*
D15*
X164900000Y-142975000D03*
X164900000Y-142025000D03*
D16*
X168250000Y-46500000D03*
D17*
X216500000Y-102500000D03*
D18*
X161500000Y-116475000D03*
X162000000Y-116475000D03*
X162500000Y-116475000D03*
X162500000Y-115125000D03*
X162000000Y-115125000D03*
X161500000Y-115125000D03*
D19*
X133550000Y-131950000D03*
X135050000Y-131950000D03*
D20*
X211500000Y-61175000D03*
X211500000Y-59825000D03*
D21*
X109900000Y-50300000D03*
X110800000Y-50300000D03*
D20*
X89000000Y-87825000D03*
X89000000Y-89175000D03*
D19*
X133550000Y-117950000D03*
X135050000Y-117950000D03*
D14*
X163800000Y-142950000D03*
X163800000Y-142050000D03*
D22*
X164375000Y-102300000D03*
X163425000Y-102300000D03*
D17*
X84000000Y-74500000D03*
D20*
X89000000Y-59825000D03*
X89000000Y-61175000D03*
D23*
X103500000Y-121400000D03*
D21*
X113950000Y-63250000D03*
X113050000Y-63250000D03*
D16*
X132250000Y-92000000D03*
D20*
X211500000Y-75175000D03*
X211500000Y-73825000D03*
D14*
X130300000Y-103950000D03*
X130300000Y-103050000D03*
X140400000Y-116050000D03*
X140400000Y-115150000D03*
D24*
X109900000Y-49375000D03*
X110700000Y-49375000D03*
D25*
X110300000Y-48225000D03*
D26*
X212100000Y-70000000D03*
D14*
X119450000Y-71650000D03*
X119450000Y-72550000D03*
D27*
X111850000Y-50200000D03*
D14*
X130300000Y-117950000D03*
X130300000Y-117050000D03*
X162800000Y-105250000D03*
X162800000Y-104350000D03*
D19*
X174250000Y-117200000D03*
X172750000Y-117200000D03*
D28*
X126525000Y-84700000D03*
X126525000Y-85200000D03*
X126525000Y-85700000D03*
X127875000Y-85700000D03*
X127875000Y-85200000D03*
X127875000Y-84700000D03*
D23*
X103500000Y-125500000D03*
D26*
X105000000Y-92100000D03*
D14*
X166000000Y-115250000D03*
X166000000Y-114350000D03*
D21*
X161850000Y-142100000D03*
X162750000Y-142100000D03*
D29*
X167200000Y-115180000D03*
X167200000Y-113820000D03*
D19*
X125650000Y-71000000D03*
X124150000Y-71000000D03*
X127650000Y-44900000D03*
X126150000Y-44900000D03*
D21*
X166150000Y-103100000D03*
X165250000Y-103100000D03*
X136700000Y-102500000D03*
X135800000Y-102500000D03*
X131550000Y-129800000D03*
X132450000Y-129800000D03*
D16*
X132250000Y-85000000D03*
D20*
X208000000Y-61175000D03*
X208000000Y-59825000D03*
D23*
X197000000Y-125500000D03*
X197000000Y-97500000D03*
D14*
X140400000Y-144050000D03*
X140400000Y-143150000D03*
D30*
X170350000Y-144500000D03*
D31*
X171050000Y-144500000D03*
D18*
X115950000Y-77125000D03*
X115450000Y-77125000D03*
X114950000Y-77125000D03*
X114950000Y-78475000D03*
X115450000Y-78475000D03*
X115950000Y-78475000D03*
D21*
X168200000Y-117900000D03*
X167300000Y-117900000D03*
D17*
X84000000Y-46500000D03*
D28*
X166375000Y-105200000D03*
X166375000Y-104700000D03*
X166375000Y-104200000D03*
X165025000Y-104200000D03*
X165025000Y-104700000D03*
X165025000Y-105200000D03*
D19*
X174250000Y-101800000D03*
X172750000Y-101800000D03*
D14*
X119450000Y-85650000D03*
X119450000Y-86550000D03*
D20*
X92500000Y-45825000D03*
X92500000Y-47175000D03*
D17*
X84000000Y-60500000D03*
D21*
X131550000Y-143800000D03*
X132450000Y-143800000D03*
D32*
X112850000Y-43000000D03*
D33*
X114750000Y-43000000D03*
D32*
X114150000Y-44750000D03*
D33*
X112250000Y-44750000D03*
D34*
X118600000Y-90775000D03*
X118600000Y-89225000D03*
D21*
X113950000Y-92300000D03*
X113050000Y-92300000D03*
D35*
X141500000Y-148250000D03*
D36*
X136000000Y-113300000D03*
X136000000Y-114250000D03*
X136000000Y-115200000D03*
X138500000Y-115200000D03*
X138500000Y-114250000D03*
X138500000Y-113300000D03*
D32*
X114150000Y-58750000D03*
D33*
X112250000Y-58750000D03*
D18*
X115950000Y-91125000D03*
X115450000Y-91125000D03*
X114950000Y-91125000D03*
X114950000Y-92475000D03*
X115450000Y-92475000D03*
X115950000Y-92475000D03*
D14*
X140400000Y-116950000D03*
X140400000Y-117850000D03*
D26*
X105100000Y-85200000D03*
D23*
X103500000Y-97500000D03*
D21*
X161850000Y-128100000D03*
X162750000Y-128100000D03*
D19*
X174250000Y-129800000D03*
X172750000Y-129800000D03*
D21*
X138700000Y-102500000D03*
X137800000Y-102500000D03*
D19*
X117050000Y-78100000D03*
X118550000Y-78100000D03*
D17*
X216500000Y-144500000D03*
D32*
X121200000Y-57000000D03*
D33*
X123100000Y-57000000D03*
D37*
X99000000Y-85250000D03*
D14*
X132200000Y-102950000D03*
X132200000Y-103850000D03*
X140400000Y-130950000D03*
X140400000Y-131850000D03*
D38*
X117200000Y-76775000D03*
X117200000Y-75225000D03*
D21*
X113950000Y-50300000D03*
X113050000Y-50300000D03*
D39*
X134700000Y-128850000D03*
X134700000Y-127350000D03*
D21*
X113950000Y-64300000D03*
X113050000Y-64300000D03*
D28*
X166375000Y-119200000D03*
X166375000Y-118700000D03*
X166375000Y-118200000D03*
X165025000Y-118200000D03*
X165025000Y-118700000D03*
X165025000Y-119200000D03*
D29*
X164000000Y-146320000D03*
X164000000Y-147680000D03*
D39*
X134700000Y-142850000D03*
X134700000Y-141350000D03*
D20*
X211500000Y-47175000D03*
X211500000Y-45825000D03*
D37*
X142400000Y-69200000D03*
D22*
X164375000Y-116300000D03*
X163425000Y-116300000D03*
D26*
X105000000Y-78100000D03*
D21*
X164350000Y-145400000D03*
X163450000Y-145400000D03*
D35*
X141500000Y-98750000D03*
D21*
X138700000Y-130500000D03*
X137800000Y-130500000D03*
X136700000Y-144500000D03*
X135800000Y-144500000D03*
D24*
X115350000Y-62275000D03*
X116150000Y-62275000D03*
D25*
X115750000Y-61125000D03*
D21*
X168200000Y-103900000D03*
X167300000Y-103900000D03*
D37*
X142400000Y-63150000D03*
D22*
X164375000Y-144300000D03*
X163425000Y-144300000D03*
D26*
X212100000Y-79000000D03*
D14*
X114450000Y-75250000D03*
X114450000Y-76150000D03*
D30*
X170350000Y-116500000D03*
D31*
X171050000Y-116500000D03*
D19*
X125650000Y-57000000D03*
X124150000Y-57000000D03*
D21*
X168200000Y-131900000D03*
X167300000Y-131900000D03*
D17*
X84000000Y-144500000D03*
D26*
X212100000Y-65000000D03*
D19*
X174250000Y-115800000D03*
X172750000Y-115800000D03*
D14*
X163800000Y-128950000D03*
X163800000Y-128050000D03*
D24*
X115350000Y-76275000D03*
X116150000Y-76275000D03*
D25*
X115750000Y-75125000D03*
D21*
X166150000Y-117100000D03*
X165250000Y-117100000D03*
D36*
X136000000Y-103800000D03*
X136000000Y-104750000D03*
X136000000Y-105700000D03*
X138500000Y-105700000D03*
X138500000Y-104750000D03*
X138500000Y-103800000D03*
D32*
X116500000Y-71000000D03*
D33*
X118400000Y-71000000D03*
D14*
X114450000Y-47250000D03*
X114450000Y-48150000D03*
D16*
X132250000Y-50000000D03*
D18*
X115950000Y-49125000D03*
X115450000Y-49125000D03*
X114950000Y-49125000D03*
X114950000Y-50475000D03*
X115450000Y-50475000D03*
X115950000Y-50475000D03*
D21*
X134950000Y-105200000D03*
X134050000Y-105200000D03*
D19*
X127650000Y-58900000D03*
X126150000Y-58900000D03*
D39*
X134700000Y-114850000D03*
X134700000Y-113350000D03*
D40*
X120400000Y-74700000D03*
D41*
X120400000Y-75100000D03*
X120400000Y-75500000D03*
X120400000Y-75900000D03*
D42*
X120400000Y-76300000D03*
D43*
X121050000Y-76950000D03*
D44*
X121450000Y-76950000D03*
X121850000Y-76950000D03*
X122250000Y-76950000D03*
D45*
X122650000Y-76950000D03*
D46*
X123300000Y-76300000D03*
D41*
X123300000Y-75900000D03*
X123300000Y-75500000D03*
X123300000Y-75100000D03*
D47*
X123300000Y-74700000D03*
D48*
X122650000Y-74050000D03*
D44*
X122250000Y-74050000D03*
X121850000Y-74050000D03*
X121450000Y-74050000D03*
D49*
X121050000Y-74050000D03*
D50*
X121850000Y-75500000D03*
D32*
X116500000Y-43000000D03*
D33*
X118400000Y-43000000D03*
D18*
X176800000Y-131175000D03*
X177300000Y-131175000D03*
X177800000Y-131175000D03*
X177800000Y-129825000D03*
X177300000Y-129825000D03*
X176800000Y-129825000D03*
D21*
X113950000Y-78300000D03*
X113050000Y-78300000D03*
D22*
X116875000Y-72400000D03*
X117825000Y-72400000D03*
D21*
X161850000Y-114100000D03*
X162750000Y-114100000D03*
D24*
X109900000Y-63375000D03*
X110700000Y-63375000D03*
D25*
X110300000Y-62225000D03*
D14*
X124200000Y-78000000D03*
X124200000Y-77100000D03*
D21*
X131550000Y-115800000D03*
X132450000Y-115800000D03*
D19*
X125650000Y-43000000D03*
X124150000Y-43000000D03*
D23*
X103500000Y-111500000D03*
D37*
X142400000Y-55200000D03*
D32*
X112850000Y-57000000D03*
D33*
X114750000Y-57000000D03*
D37*
X99000000Y-64250000D03*
D23*
X103500000Y-149400000D03*
D51*
X116650000Y-59800000D03*
X118750000Y-59800000D03*
D28*
X134775000Y-102800000D03*
X134775000Y-102300000D03*
X134775000Y-101800000D03*
X133425000Y-101800000D03*
X133425000Y-102300000D03*
X133425000Y-102800000D03*
D32*
X121200000Y-85000000D03*
D33*
X123100000Y-85000000D03*
D17*
X84000000Y-88500000D03*
D40*
X120400000Y-60700000D03*
D41*
X120400000Y-61100000D03*
X120400000Y-61500000D03*
X120400000Y-61900000D03*
D42*
X120400000Y-62300000D03*
D43*
X121050000Y-62950000D03*
D44*
X121450000Y-62950000D03*
X121850000Y-62950000D03*
X122250000Y-62950000D03*
D45*
X122650000Y-62950000D03*
D46*
X123300000Y-62300000D03*
D41*
X123300000Y-61900000D03*
X123300000Y-61500000D03*
X123300000Y-61100000D03*
D47*
X123300000Y-60700000D03*
D48*
X122650000Y-60050000D03*
D44*
X122250000Y-60050000D03*
X121850000Y-60050000D03*
X121450000Y-60050000D03*
D49*
X121050000Y-60050000D03*
D50*
X121850000Y-61500000D03*
D28*
X112075000Y-89300000D03*
X112075000Y-89800000D03*
X112075000Y-90300000D03*
X113425000Y-90300000D03*
X113425000Y-89800000D03*
X113425000Y-89300000D03*
D35*
X141500000Y-112750000D03*
D51*
X116650000Y-87800000D03*
X118750000Y-87800000D03*
D16*
X132250000Y-57000000D03*
D18*
X176800000Y-103175000D03*
X177300000Y-103175000D03*
X177800000Y-103175000D03*
X177800000Y-101825000D03*
X177300000Y-101825000D03*
X176800000Y-101825000D03*
D21*
X134950000Y-133200000D03*
X134050000Y-133200000D03*
D14*
X132200000Y-116950000D03*
X132200000Y-117850000D03*
D23*
X197000000Y-111500000D03*
D28*
X126525000Y-42700000D03*
X126525000Y-43200000D03*
X126525000Y-43700000D03*
X127875000Y-43700000D03*
X127875000Y-43200000D03*
X127875000Y-42700000D03*
D35*
X141500000Y-140750000D03*
D14*
X162800000Y-147250000D03*
X162800000Y-146350000D03*
D28*
X126525000Y-70700000D03*
X126525000Y-71200000D03*
X126525000Y-71700000D03*
X127875000Y-71700000D03*
X127875000Y-71200000D03*
X127875000Y-70700000D03*
D14*
X163800000Y-100950000D03*
X163800000Y-100050000D03*
X130300000Y-131950000D03*
X130300000Y-131050000D03*
D21*
X138700000Y-144500000D03*
X137800000Y-144500000D03*
D19*
X174250000Y-131200000D03*
X172750000Y-131200000D03*
D35*
X141500000Y-134250000D03*
D24*
X115350000Y-90275000D03*
X116150000Y-90275000D03*
D25*
X115750000Y-89125000D03*
D37*
X99000000Y-78250000D03*
D26*
X212100000Y-84000000D03*
D14*
X120550000Y-59150000D03*
X120550000Y-58250000D03*
X140400000Y-102950000D03*
X140400000Y-103850000D03*
D26*
X212100000Y-93000000D03*
D23*
X197000000Y-149500000D03*
D37*
X142400000Y-83200000D03*
D19*
X125650000Y-85000000D03*
X124150000Y-85000000D03*
D16*
X168250000Y-60500000D03*
D19*
X127650000Y-72900000D03*
X126150000Y-72900000D03*
D18*
X176800000Y-117175000D03*
X177300000Y-117175000D03*
X177800000Y-117175000D03*
X177800000Y-115825000D03*
X177300000Y-115825000D03*
X176800000Y-115825000D03*
D51*
X116650000Y-73800000D03*
X118750000Y-73800000D03*
D21*
X164350000Y-131400000D03*
X163450000Y-131400000D03*
D14*
X161700000Y-146350000D03*
X161700000Y-147250000D03*
D36*
X136000000Y-99300000D03*
X136000000Y-100250000D03*
X136000000Y-101200000D03*
X138500000Y-101200000D03*
X138500000Y-100250000D03*
X138500000Y-99300000D03*
D29*
X164000000Y-118320000D03*
X164000000Y-119680000D03*
D21*
X164350000Y-103400000D03*
X163450000Y-103400000D03*
D28*
X134775000Y-144800000D03*
X134775000Y-144300000D03*
X134775000Y-143800000D03*
X133425000Y-143800000D03*
X133425000Y-144300000D03*
X133425000Y-144800000D03*
D36*
X136000000Y-117800000D03*
X136000000Y-118750000D03*
X136000000Y-119700000D03*
X138500000Y-119700000D03*
X138500000Y-118750000D03*
X138500000Y-117800000D03*
D28*
X134775000Y-116800000D03*
X134775000Y-116300000D03*
X134775000Y-115800000D03*
X133425000Y-115800000D03*
X133425000Y-116300000D03*
X133425000Y-116800000D03*
D20*
X92500000Y-73825000D03*
X92500000Y-75175000D03*
D19*
X174250000Y-145200000D03*
X172750000Y-145200000D03*
D35*
X141500000Y-120250000D03*
D15*
X141500000Y-144975000D03*
X141500000Y-144025000D03*
D14*
X166000000Y-101250000D03*
X166000000Y-100350000D03*
D17*
X216500000Y-88500000D03*
D37*
X99000000Y-71250000D03*
X142400000Y-49150000D03*
D21*
X109900000Y-92300000D03*
X110800000Y-92300000D03*
D27*
X111850000Y-64200000D03*
D32*
X116500000Y-57000000D03*
D33*
X118400000Y-57000000D03*
D26*
X212100000Y-56000000D03*
D37*
X142400000Y-77150000D03*
D14*
X114450000Y-61250000D03*
X114450000Y-62150000D03*
D20*
X89000000Y-73825000D03*
X89000000Y-75175000D03*
D18*
X161500000Y-130475000D03*
X162000000Y-130475000D03*
X162500000Y-130475000D03*
X162500000Y-129125000D03*
X162000000Y-129125000D03*
X161500000Y-129125000D03*
D16*
X132250000Y-64000000D03*
D26*
X105000000Y-50100000D03*
D23*
X103500000Y-139500000D03*
D52*
X126965000Y-60800000D03*
X128235000Y-60800000D03*
D14*
X120550000Y-45150000D03*
X120550000Y-44250000D03*
D36*
X136000000Y-145800000D03*
X136000000Y-146750000D03*
X136000000Y-147700000D03*
X138500000Y-147700000D03*
X138500000Y-146750000D03*
X138500000Y-145800000D03*
D28*
X166375000Y-147200000D03*
X166375000Y-146700000D03*
X166375000Y-146200000D03*
X165025000Y-146200000D03*
X165025000Y-146700000D03*
X165025000Y-147200000D03*
D17*
X216500000Y-60500000D03*
D19*
X174250000Y-143800000D03*
X172750000Y-143800000D03*
D14*
X119450000Y-57650000D03*
X119450000Y-58550000D03*
D22*
X116875000Y-44400000D03*
X117825000Y-44400000D03*
D21*
X131550000Y-101800000D03*
X132450000Y-101800000D03*
D29*
X167200000Y-129180000D03*
X167200000Y-127820000D03*
D21*
X166150000Y-131100000D03*
X165250000Y-131100000D03*
D17*
X216500000Y-130500000D03*
D28*
X112075000Y-61300000D03*
X112075000Y-61800000D03*
X112075000Y-62300000D03*
X113425000Y-62300000D03*
X113425000Y-61800000D03*
X113425000Y-61300000D03*
D18*
X161500000Y-144475000D03*
X162000000Y-144475000D03*
X162500000Y-144475000D03*
X162500000Y-143125000D03*
X162000000Y-143125000D03*
X161500000Y-143125000D03*
D19*
X117050000Y-64100000D03*
X118550000Y-64100000D03*
D17*
X84000000Y-116500000D03*
D23*
X197000000Y-107500000D03*
D28*
X134775000Y-130800000D03*
X134775000Y-130300000D03*
X134775000Y-129800000D03*
X133425000Y-129800000D03*
X133425000Y-130300000D03*
X133425000Y-130800000D03*
D34*
X118600000Y-76775000D03*
X118600000Y-75225000D03*
D26*
X105100000Y-57200000D03*
D14*
X161700000Y-104350000D03*
X161700000Y-105250000D03*
D52*
X126965000Y-46800000D03*
X128235000Y-46800000D03*
D36*
X136000000Y-141300000D03*
X136000000Y-142250000D03*
X136000000Y-143200000D03*
X138500000Y-143200000D03*
X138500000Y-142250000D03*
X138500000Y-141300000D03*
D23*
X103500000Y-107400000D03*
D15*
X164900000Y-100975000D03*
X164900000Y-100025000D03*
D16*
X132250000Y-43000000D03*
D40*
X120400000Y-46700000D03*
D41*
X120400000Y-47100000D03*
X120400000Y-47500000D03*
X120400000Y-47900000D03*
D42*
X120400000Y-48300000D03*
D43*
X121050000Y-48950000D03*
D44*
X121450000Y-48950000D03*
X121850000Y-48950000D03*
X122250000Y-48950000D03*
D45*
X122650000Y-48950000D03*
D46*
X123300000Y-48300000D03*
D41*
X123300000Y-47900000D03*
X123300000Y-47500000D03*
X123300000Y-47100000D03*
D47*
X123300000Y-46700000D03*
D48*
X122650000Y-46050000D03*
D44*
X122250000Y-46050000D03*
X121850000Y-46050000D03*
X121450000Y-46050000D03*
D49*
X121050000Y-46050000D03*
D50*
X121850000Y-47500000D03*
D28*
X112075000Y-47300000D03*
X112075000Y-47800000D03*
X112075000Y-48300000D03*
X113425000Y-48300000D03*
X113425000Y-47800000D03*
X113425000Y-47300000D03*
D30*
X170350000Y-130500000D03*
D31*
X171050000Y-130500000D03*
D20*
X208000000Y-47175000D03*
X208000000Y-45825000D03*
D28*
X126525000Y-56700000D03*
X126525000Y-57200000D03*
X126525000Y-57700000D03*
X127875000Y-57700000D03*
X127875000Y-57200000D03*
X127875000Y-56700000D03*
D14*
X161700000Y-132350000D03*
X161700000Y-133250000D03*
D22*
X116875000Y-86400000D03*
X117825000Y-86400000D03*
D14*
X124200000Y-50000000D03*
X124200000Y-49100000D03*
D32*
X116500000Y-85000000D03*
D33*
X118400000Y-85000000D03*
D20*
X92500000Y-87825000D03*
X92500000Y-89175000D03*
D29*
X164000000Y-132320000D03*
X164000000Y-133680000D03*
D19*
X133550000Y-103950000D03*
X135050000Y-103950000D03*
D28*
X112075000Y-75300000D03*
X112075000Y-75800000D03*
X112075000Y-76300000D03*
X113425000Y-76300000D03*
X113425000Y-75800000D03*
X113425000Y-75300000D03*
D51*
X116650000Y-45800000D03*
X118750000Y-45800000D03*
D17*
X84000000Y-130500000D03*
D23*
X197000000Y-135500000D03*
D20*
X208000000Y-89175000D03*
X208000000Y-87825000D03*
D32*
X112850000Y-71000000D03*
D33*
X114750000Y-71000000D03*
D14*
X119450000Y-43650000D03*
X119450000Y-44550000D03*
X124200000Y-92000000D03*
X124200000Y-91100000D03*
X166000000Y-129250000D03*
X166000000Y-128350000D03*
D20*
X92500000Y-59825000D03*
X92500000Y-61175000D03*
D21*
X138700000Y-116500000D03*
X137800000Y-116500000D03*
D52*
X126965000Y-88800000D03*
X128235000Y-88800000D03*
D21*
X168200000Y-145900000D03*
X167300000Y-145900000D03*
D15*
X141500000Y-116975000D03*
X141500000Y-116025000D03*
D27*
X111850000Y-92200000D03*
D14*
X162800000Y-133250000D03*
X162800000Y-132350000D03*
D17*
X216500000Y-46500000D03*
D19*
X117050000Y-92100000D03*
X118550000Y-92100000D03*
D34*
X118600000Y-62775000D03*
X118600000Y-61225000D03*
D15*
X164900000Y-114975000D03*
X164900000Y-114025000D03*
D17*
X84000000Y-102500000D03*
D14*
X162800000Y-119250000D03*
X162800000Y-118350000D03*
D18*
X176800000Y-145175000D03*
X177300000Y-145175000D03*
X177800000Y-145175000D03*
X177800000Y-143825000D03*
X177300000Y-143825000D03*
X176800000Y-143825000D03*
D37*
X99000000Y-50250000D03*
D26*
X105000000Y-64100000D03*
D14*
X140400000Y-144950000D03*
X140400000Y-145850000D03*
D17*
X216500000Y-116500000D03*
D36*
X136000000Y-131800000D03*
X136000000Y-132750000D03*
X136000000Y-133700000D03*
X138500000Y-133700000D03*
X138500000Y-132750000D03*
X138500000Y-131800000D03*
D39*
X134700000Y-100850000D03*
X134700000Y-99350000D03*
D37*
X142400000Y-41200000D03*
X99000000Y-92250000D03*
D14*
X120550000Y-73150000D03*
X120550000Y-72250000D03*
D38*
X117200000Y-62775000D03*
X117200000Y-61225000D03*
D34*
X118600000Y-48775000D03*
X118600000Y-47225000D03*
D22*
X164375000Y-130300000D03*
X163425000Y-130300000D03*
D21*
X113950000Y-77250000D03*
X113050000Y-77250000D03*
X166150000Y-145100000D03*
X165250000Y-145100000D03*
D20*
X89000000Y-45825000D03*
X89000000Y-47175000D03*
D24*
X109900000Y-91375000D03*
X110700000Y-91375000D03*
D25*
X110300000Y-90225000D03*
D19*
X133550000Y-145950000D03*
X135050000Y-145950000D03*
D35*
X141500000Y-106250000D03*
D19*
X127650000Y-86900000D03*
X126150000Y-86900000D03*
D26*
X212100000Y-51000000D03*
D15*
X164900000Y-128975000D03*
X164900000Y-128025000D03*
X141500000Y-102975000D03*
X141500000Y-102025000D03*
D26*
X212100000Y-42000000D03*
D40*
X120400000Y-88700000D03*
D41*
X120400000Y-89100000D03*
X120400000Y-89500000D03*
X120400000Y-89900000D03*
D42*
X120400000Y-90300000D03*
D43*
X121050000Y-90950000D03*
D44*
X121450000Y-90950000D03*
X121850000Y-90950000D03*
X122250000Y-90950000D03*
D45*
X122650000Y-90950000D03*
D46*
X123300000Y-90300000D03*
D41*
X123300000Y-89900000D03*
X123300000Y-89500000D03*
X123300000Y-89100000D03*
D47*
X123300000Y-88700000D03*
D48*
X122650000Y-88050000D03*
D44*
X122250000Y-88050000D03*
X121850000Y-88050000D03*
X121450000Y-88050000D03*
D49*
X121050000Y-88050000D03*
D50*
X121850000Y-89500000D03*
D16*
X168250000Y-74500000D03*
D36*
X136000000Y-127300000D03*
X136000000Y-128250000D03*
X136000000Y-129200000D03*
X138500000Y-129200000D03*
X138500000Y-128250000D03*
X138500000Y-127300000D03*
D30*
X170350000Y-102500000D03*
D31*
X171050000Y-102500000D03*
D21*
X134950000Y-147200000D03*
X134050000Y-147200000D03*
X161850000Y-100100000D03*
X162750000Y-100100000D03*
D37*
X142400000Y-91150000D03*
D14*
X132200000Y-144950000D03*
X132200000Y-145850000D03*
D37*
X99000000Y-43250000D03*
D32*
X121200000Y-71000000D03*
D33*
X123100000Y-71000000D03*
D14*
X140400000Y-130050000D03*
X140400000Y-129150000D03*
D16*
X132250000Y-78000000D03*
D21*
X136700000Y-130500000D03*
X135800000Y-130500000D03*
D14*
X132200000Y-130950000D03*
X132200000Y-131850000D03*
D21*
X109900000Y-78300000D03*
X110800000Y-78300000D03*
D29*
X164000000Y-104320000D03*
X164000000Y-105680000D03*
D26*
X105100000Y-43200000D03*
D21*
X113950000Y-91250000D03*
X113050000Y-91250000D03*
D29*
X167200000Y-101180000D03*
X167200000Y-99820000D03*
D26*
X105100000Y-71200000D03*
D18*
X161500000Y-102475000D03*
X162000000Y-102475000D03*
X162500000Y-102475000D03*
X162500000Y-101125000D03*
X162000000Y-101125000D03*
X161500000Y-101125000D03*
D52*
X126965000Y-74800000D03*
X128235000Y-74800000D03*
D18*
X115950000Y-63125000D03*
X115450000Y-63125000D03*
X114950000Y-63125000D03*
X114950000Y-64475000D03*
X115450000Y-64475000D03*
X115950000Y-64475000D03*
D20*
X208000000Y-75175000D03*
X208000000Y-73825000D03*
D28*
X166375000Y-133200000D03*
X166375000Y-132700000D03*
X166375000Y-132200000D03*
X165025000Y-132200000D03*
X165025000Y-132700000D03*
X165025000Y-133200000D03*
D14*
X163800000Y-114950000D03*
X163800000Y-114050000D03*
D21*
X136700000Y-116500000D03*
X135800000Y-116500000D03*
D23*
X197000000Y-121500000D03*
D29*
X167200000Y-143180000D03*
X167200000Y-141820000D03*
D14*
X124200000Y-64000000D03*
X124200000Y-63100000D03*
D24*
X109900000Y-77375000D03*
X110700000Y-77375000D03*
D25*
X110300000Y-76225000D03*
D19*
X174250000Y-103200000D03*
X172750000Y-103200000D03*
D21*
X164350000Y-117400000D03*
X163450000Y-117400000D03*
D14*
X140400000Y-102050000D03*
X140400000Y-101150000D03*
D24*
X115350000Y-48275000D03*
X116150000Y-48275000D03*
D25*
X115750000Y-47125000D03*
D16*
X132250000Y-71000000D03*
D38*
X117200000Y-90775000D03*
X117200000Y-89225000D03*
D16*
X168250000Y-88500000D03*
D38*
X117200000Y-48775000D03*
X117200000Y-47225000D03*
D32*
X112850000Y-85000000D03*
D33*
X114750000Y-85000000D03*
D27*
X111850000Y-78200000D03*
D23*
X197000000Y-139500000D03*
D21*
X113950000Y-49250000D03*
X113050000Y-49250000D03*
D37*
X99000000Y-57250000D03*
D15*
X141500000Y-130975000D03*
X141500000Y-130025000D03*
D35*
X141500000Y-126750000D03*
D14*
X166000000Y-143250000D03*
X166000000Y-142350000D03*
D22*
X116875000Y-58400000D03*
X117825000Y-58400000D03*
D32*
X121200000Y-43000000D03*
D33*
X123100000Y-43000000D03*
D17*
X216500000Y-74500000D03*
D14*
X114450000Y-89250000D03*
X114450000Y-90150000D03*
D21*
X109900000Y-64300000D03*
X110800000Y-64300000D03*
D32*
X114150000Y-72750000D03*
D33*
X112250000Y-72750000D03*
D20*
X211500000Y-89175000D03*
X211500000Y-87825000D03*
D32*
X114150000Y-86750000D03*
D33*
X112250000Y-86750000D03*
D14*
X161700000Y-118350000D03*
X161700000Y-119250000D03*
D19*
X117050000Y-50100000D03*
X118550000Y-50100000D03*
D23*
X103500000Y-135400000D03*
D21*
X134950000Y-119200000D03*
X134050000Y-119200000D03*
D14*
X130300000Y-145950000D03*
X130300000Y-145050000D03*
D37*
X142400000Y-113850000D03*
D16*
X168250000Y-116500000D03*
D37*
X99000000Y-119750000D03*
D16*
X168250000Y-102500000D03*
D37*
X142400000Y-121800000D03*
X142400000Y-99850000D03*
D16*
X132250000Y-134000000D03*
X132250000Y-106000000D03*
D52*
X126965000Y-144200000D03*
X128235000Y-144200000D03*
D37*
X142400000Y-127850000D03*
X99000000Y-133750000D03*
X142400000Y-149800000D03*
X142400000Y-141850000D03*
D16*
X132250000Y-120000000D03*
D37*
X142400000Y-135800000D03*
X142400000Y-107800000D03*
D16*
X168250000Y-144500000D03*
X132250000Y-99000000D03*
D37*
X99000000Y-126750000D03*
X99000000Y-147750000D03*
X99000000Y-112750000D03*
X99000000Y-98750000D03*
D16*
X132250000Y-113000000D03*
D37*
X99000000Y-140750000D03*
D52*
X126965000Y-130200000D03*
X128235000Y-130200000D03*
D16*
X168250000Y-130500000D03*
X132250000Y-148000000D03*
X132250000Y-141000000D03*
D52*
X126965000Y-116200000D03*
X128235000Y-116200000D03*
X126965000Y-102200000D03*
X128235000Y-102200000D03*
D16*
X132250000Y-127000000D03*
D37*
X99000000Y-105750000D03*
G36*
X107515931Y-96520002D02*
G01*
X107536905Y-96536905D01*
X108963095Y-97963095D01*
X108997121Y-98025407D01*
X109000000Y-98052190D01*
X109000000Y-101874000D01*
X108979998Y-101942121D01*
X108926342Y-101988614D01*
X108874000Y-102000000D01*
X98126000Y-102000000D01*
X98057879Y-101979998D01*
X98011386Y-101926342D01*
X98000000Y-101874000D01*
X98000000Y-98052190D01*
X98020002Y-97984069D01*
X98036905Y-97963095D01*
X99463095Y-96536905D01*
X99525407Y-96502879D01*
X99552190Y-96500000D01*
X107447810Y-96500000D01*
X107515931Y-96520002D01*
G37*
G36*
X200412782Y-69519962D02*
G01*
X200443641Y-69543641D01*
X201300000Y-70400000D01*
X206601000Y-70400000D01*
X206675500Y-70419962D01*
X206730038Y-70474500D01*
X206750000Y-70549000D01*
X206750000Y-73851000D01*
X206730038Y-73925500D01*
X206675500Y-73980038D01*
X206601000Y-74000000D01*
X192649000Y-74000000D01*
X192574500Y-73980038D01*
X192519962Y-73925500D01*
X192500000Y-73851000D01*
X192500000Y-69649000D01*
X192519962Y-69574500D01*
X192574500Y-69519962D01*
X192649000Y-69500000D01*
X200338282Y-69500000D01*
X200412782Y-69519962D01*
G37*
G36*
X197225500Y-89019962D02*
G01*
X197280038Y-89074500D01*
X197300000Y-89149000D01*
X197300000Y-93236193D01*
X197297463Y-93263572D01*
X197284860Y-93330992D01*
X197265080Y-93382051D01*
X197236366Y-93428426D01*
X197199523Y-93468857D01*
X197198184Y-93469869D01*
X197126713Y-93498863D01*
X197108344Y-93500000D01*
X192649000Y-93500000D01*
X192574500Y-93480038D01*
X192519962Y-93425500D01*
X192500000Y-93351000D01*
X192500000Y-89149000D01*
X192519962Y-89074500D01*
X192574500Y-89019962D01*
X192649000Y-89000000D01*
X197151000Y-89000000D01*
X197225500Y-89019962D01*
G37*
G36*
X107925500Y-89019962D02*
G01*
X107980038Y-89074500D01*
X108000000Y-89149000D01*
X108000000Y-93351000D01*
X107980038Y-93425500D01*
X107925500Y-93480038D01*
X107851000Y-93500000D01*
X103649000Y-93500000D01*
X103574500Y-93480038D01*
X103519962Y-93425500D01*
X103500000Y-93351000D01*
X103500000Y-89149000D01*
X103519962Y-89074500D01*
X103574500Y-89019962D01*
X103649000Y-89000000D01*
X107851000Y-89000000D01*
X107925500Y-89019962D01*
G37*
G36*
X107925500Y-61019962D02*
G01*
X107980038Y-61074500D01*
X108000000Y-61149000D01*
X108000000Y-65351000D01*
X107980038Y-65425500D01*
X107925500Y-65480038D01*
X107851000Y-65500000D01*
X103649000Y-65500000D01*
X103574500Y-65480038D01*
X103519962Y-65425500D01*
X103500000Y-65351000D01*
X103500000Y-61149000D01*
X103519962Y-61074500D01*
X103574500Y-61019962D01*
X103649000Y-61000000D01*
X107851000Y-61000000D01*
X107925500Y-61019962D01*
G37*
G36*
X202442121Y-117020002D02*
G01*
X202488614Y-117073658D01*
X202500000Y-117126000D01*
X202500000Y-120947810D01*
X202479998Y-121015931D01*
X202463095Y-121036905D01*
X201036905Y-122463095D01*
X200974593Y-122497121D01*
X200947810Y-122500000D01*
X193052190Y-122500000D01*
X192984069Y-122479998D01*
X192963095Y-122463095D01*
X191536905Y-121036905D01*
X191502879Y-120974593D01*
X191500000Y-120947810D01*
X191500000Y-117126000D01*
X191520002Y-117057879D01*
X191573658Y-117011386D01*
X191626000Y-117000000D01*
X202374000Y-117000000D01*
X202442121Y-117020002D01*
G37*
G36*
X107925500Y-75019962D02*
G01*
X107980038Y-75074500D01*
X108000000Y-75149000D01*
X108000000Y-79351000D01*
X107980038Y-79425500D01*
X107925500Y-79480038D01*
X107851000Y-79500000D01*
X103649000Y-79500000D01*
X103574500Y-79480038D01*
X103519962Y-79425500D01*
X103500000Y-79351000D01*
X103500000Y-75149000D01*
X103519962Y-75074500D01*
X103574500Y-75019962D01*
X103649000Y-75000000D01*
X107851000Y-75000000D01*
X107925500Y-75019962D01*
G37*
G36*
X200412782Y-41519962D02*
G01*
X200443641Y-41543641D01*
X201300000Y-42400000D01*
X206601000Y-42400000D01*
X206675500Y-42419962D01*
X206730038Y-42474500D01*
X206750000Y-42549000D01*
X206750000Y-45851000D01*
X206730038Y-45925500D01*
X206675500Y-45980038D01*
X206601000Y-46000000D01*
X192649000Y-46000000D01*
X192574500Y-45980038D01*
X192519962Y-45925500D01*
X192500000Y-45851000D01*
X192500000Y-41649000D01*
X192519962Y-41574500D01*
X192574500Y-41519962D01*
X192649000Y-41500000D01*
X200338282Y-41500000D01*
X200412782Y-41519962D01*
G37*
G36*
X197181047Y-83519962D02*
G01*
X197225452Y-83559208D01*
X197251764Y-83594051D01*
X197276171Y-83643067D01*
X197293989Y-83705691D01*
X197299518Y-83739576D01*
X197299841Y-83746553D01*
X197300000Y-83753444D01*
X197300000Y-87851000D01*
X197280038Y-87925500D01*
X197225500Y-87980038D01*
X197151000Y-88000000D01*
X192649000Y-88000000D01*
X192574500Y-87980038D01*
X192519962Y-87925500D01*
X192500000Y-87851000D01*
X192500000Y-83649000D01*
X192519962Y-83574500D01*
X192574500Y-83519962D01*
X192649000Y-83500000D01*
X197106547Y-83500000D01*
X197181047Y-83519962D01*
G37*
G36*
X197181047Y-55519962D02*
G01*
X197225452Y-55559208D01*
X197251764Y-55594051D01*
X197276171Y-55643067D01*
X197293989Y-55705691D01*
X197299518Y-55739576D01*
X197299841Y-55746553D01*
X197300000Y-55753444D01*
X197300000Y-59851000D01*
X197280038Y-59925500D01*
X197225500Y-59980038D01*
X197151000Y-60000000D01*
X192649000Y-60000000D01*
X192574500Y-59980038D01*
X192519962Y-59925500D01*
X192500000Y-59851000D01*
X192500000Y-55649000D01*
X192519962Y-55574500D01*
X192574500Y-55519962D01*
X192649000Y-55500000D01*
X197106547Y-55500000D01*
X197181047Y-55519962D01*
G37*
G36*
X202442121Y-145020002D02*
G01*
X202488614Y-145073658D01*
X202500000Y-145126000D01*
X202500000Y-148947810D01*
X202479998Y-149015931D01*
X202463095Y-149036905D01*
X201036905Y-150463095D01*
X200974593Y-150497121D01*
X200947810Y-150500000D01*
X193052190Y-150500000D01*
X192984069Y-150479998D01*
X192963095Y-150463095D01*
X191536905Y-149036905D01*
X191502879Y-148974593D01*
X191500000Y-148947810D01*
X191500000Y-145126000D01*
X191520002Y-145057879D01*
X191573658Y-145011386D01*
X191626000Y-145000000D01*
X202374000Y-145000000D01*
X202442121Y-145020002D01*
G37*
G36*
X202442121Y-131020002D02*
G01*
X202488614Y-131073658D01*
X202500000Y-131126000D01*
X202500000Y-134947810D01*
X202479998Y-135015931D01*
X202463095Y-135036905D01*
X201036905Y-136463095D01*
X200974593Y-136497121D01*
X200947810Y-136500000D01*
X193052190Y-136500000D01*
X192984069Y-136479998D01*
X192963095Y-136463095D01*
X191536905Y-135036905D01*
X191502879Y-134974593D01*
X191500000Y-134947810D01*
X191500000Y-131126000D01*
X191520002Y-131057879D01*
X191573658Y-131011386D01*
X191626000Y-131000000D01*
X202374000Y-131000000D01*
X202442121Y-131020002D01*
G37*
G36*
X108942121Y-131020002D02*
G01*
X108988614Y-131073658D01*
X109000000Y-131126000D01*
X109000000Y-134947810D01*
X108979998Y-135015931D01*
X108963095Y-135036905D01*
X107536905Y-136463095D01*
X107474593Y-136497121D01*
X107447810Y-136500000D01*
X99552190Y-136500000D01*
X99484069Y-136479998D01*
X99463095Y-136463095D01*
X98036905Y-135036905D01*
X98002879Y-134974593D01*
X98000000Y-134947810D01*
X98000000Y-131126000D01*
X98020002Y-131057879D01*
X98073658Y-131011386D01*
X98126000Y-131000000D01*
X108874000Y-131000000D01*
X108942121Y-131020002D01*
G37*
G36*
X206675500Y-47019962D02*
G01*
X206730038Y-47074500D01*
X206750000Y-47149000D01*
X206750000Y-50851000D01*
X206730038Y-50925500D01*
X206675500Y-50980038D01*
X206601000Y-51000000D01*
X201000000Y-51000000D01*
X200543641Y-51456359D01*
X200476846Y-51494923D01*
X200438282Y-51500000D01*
X192649000Y-51500000D01*
X192574500Y-51480038D01*
X192519962Y-51425500D01*
X192500000Y-51351000D01*
X192500000Y-47149000D01*
X192519962Y-47074500D01*
X192574500Y-47019962D01*
X192649000Y-47000000D01*
X206601000Y-47000000D01*
X206675500Y-47019962D01*
G37*
G36*
X107925500Y-41519962D02*
G01*
X107980038Y-41574500D01*
X108000000Y-41649000D01*
X108000000Y-45851000D01*
X107980038Y-45925500D01*
X107925500Y-45980038D01*
X107851000Y-46000000D01*
X103649000Y-46000000D01*
X103574500Y-45980038D01*
X103519962Y-45925500D01*
X103500000Y-45851000D01*
X103500000Y-41649000D01*
X103519962Y-41574500D01*
X103574500Y-41519962D01*
X103649000Y-41500000D01*
X107851000Y-41500000D01*
X107925500Y-41519962D01*
G37*
G36*
X200412782Y-55519962D02*
G01*
X200443641Y-55543641D01*
X201300000Y-56400000D01*
X206601000Y-56400000D01*
X206675500Y-56419962D01*
X206730038Y-56474500D01*
X206750000Y-56549000D01*
X206750000Y-59851000D01*
X206730038Y-59925500D01*
X206675500Y-59980038D01*
X206601000Y-60000000D01*
X192649000Y-60000000D01*
X192574500Y-59980038D01*
X192519962Y-59925500D01*
X192500000Y-59851000D01*
X192500000Y-55649000D01*
X192519962Y-55574500D01*
X192574500Y-55519962D01*
X192649000Y-55500000D01*
X200338282Y-55500000D01*
X200412782Y-55519962D01*
G37*
G36*
X197225500Y-61019962D02*
G01*
X197280038Y-61074500D01*
X197300000Y-61149000D01*
X197300000Y-65236193D01*
X197297463Y-65263572D01*
X197284860Y-65330992D01*
X197265080Y-65382051D01*
X197236366Y-65428426D01*
X197199523Y-65468857D01*
X197198184Y-65469869D01*
X197126713Y-65498863D01*
X197108344Y-65500000D01*
X192649000Y-65500000D01*
X192574500Y-65480038D01*
X192519962Y-65425500D01*
X192500000Y-65351000D01*
X192500000Y-61149000D01*
X192519962Y-61074500D01*
X192574500Y-61019962D01*
X192649000Y-61000000D01*
X197151000Y-61000000D01*
X197225500Y-61019962D01*
G37*
G36*
X107515931Y-138520002D02*
G01*
X107536905Y-138536905D01*
X108963095Y-139963095D01*
X108997121Y-140025407D01*
X109000000Y-140052190D01*
X109000000Y-143874000D01*
X108979998Y-143942121D01*
X108926342Y-143988614D01*
X108874000Y-144000000D01*
X98126000Y-144000000D01*
X98057879Y-143979998D01*
X98011386Y-143926342D01*
X98000000Y-143874000D01*
X98000000Y-140052190D01*
X98020002Y-139984069D01*
X98036905Y-139963095D01*
X99463095Y-138536905D01*
X99525407Y-138502879D01*
X99552190Y-138500000D01*
X107447810Y-138500000D01*
X107515931Y-138520002D01*
G37*
G36*
X107515931Y-110520002D02*
G01*
X107536905Y-110536905D01*
X108963095Y-111963095D01*
X108997121Y-112025407D01*
X109000000Y-112052190D01*
X109000000Y-115874000D01*
X108979998Y-115942121D01*
X108926342Y-115988614D01*
X108874000Y-116000000D01*
X98126000Y-116000000D01*
X98057879Y-115979998D01*
X98011386Y-115926342D01*
X98000000Y-115874000D01*
X98000000Y-112052190D01*
X98020002Y-111984069D01*
X98036905Y-111963095D01*
X99463095Y-110536905D01*
X99525407Y-110502879D01*
X99552190Y-110500000D01*
X107447810Y-110500000D01*
X107515931Y-110520002D01*
G37*
G36*
X107925500Y-69519962D02*
G01*
X107980038Y-69574500D01*
X108000000Y-69649000D01*
X108000000Y-73851000D01*
X107980038Y-73925500D01*
X107925500Y-73980038D01*
X107851000Y-74000000D01*
X103649000Y-74000000D01*
X103574500Y-73980038D01*
X103519962Y-73925500D01*
X103500000Y-73851000D01*
X103500000Y-69649000D01*
X103519962Y-69574500D01*
X103574500Y-69519962D01*
X103649000Y-69500000D01*
X107851000Y-69500000D01*
X107925500Y-69519962D01*
G37*
G36*
X108942121Y-117020002D02*
G01*
X108988614Y-117073658D01*
X109000000Y-117126000D01*
X109000000Y-120947810D01*
X108979998Y-121015931D01*
X108963095Y-121036905D01*
X107536905Y-122463095D01*
X107474593Y-122497121D01*
X107447810Y-122500000D01*
X99552190Y-122500000D01*
X99484069Y-122479998D01*
X99463095Y-122463095D01*
X98036905Y-121036905D01*
X98002879Y-120974593D01*
X98000000Y-120947810D01*
X98000000Y-117126000D01*
X98020002Y-117057879D01*
X98073658Y-117011386D01*
X98126000Y-117000000D01*
X108874000Y-117000000D01*
X108942121Y-117020002D01*
G37*
G36*
X206675500Y-75019962D02*
G01*
X206730038Y-75074500D01*
X206750000Y-75149000D01*
X206750000Y-78851000D01*
X206730038Y-78925500D01*
X206675500Y-78980038D01*
X206601000Y-79000000D01*
X201000000Y-79000000D01*
X200543641Y-79456359D01*
X200476846Y-79494923D01*
X200438282Y-79500000D01*
X192649000Y-79500000D01*
X192574500Y-79480038D01*
X192519962Y-79425500D01*
X192500000Y-79351000D01*
X192500000Y-75149000D01*
X192519962Y-75074500D01*
X192574500Y-75019962D01*
X192649000Y-75000000D01*
X206601000Y-75000000D01*
X206675500Y-75019962D01*
G37*
G36*
X206675500Y-89019962D02*
G01*
X206730038Y-89074500D01*
X206750000Y-89149000D01*
X206750000Y-92851000D01*
X206730038Y-92925500D01*
X206675500Y-92980038D01*
X206601000Y-93000000D01*
X201000000Y-93000000D01*
X200543641Y-93456359D01*
X200476846Y-93494923D01*
X200438282Y-93500000D01*
X192649000Y-93500000D01*
X192574500Y-93480038D01*
X192519962Y-93425500D01*
X192500000Y-93351000D01*
X192500000Y-89149000D01*
X192519962Y-89074500D01*
X192574500Y-89019962D01*
X192649000Y-89000000D01*
X206601000Y-89000000D01*
X206675500Y-89019962D01*
G37*
G36*
X108942121Y-145020002D02*
G01*
X108988614Y-145073658D01*
X109000000Y-145126000D01*
X109000000Y-148947810D01*
X108979998Y-149015931D01*
X108963095Y-149036905D01*
X107536905Y-150463095D01*
X107474593Y-150497121D01*
X107447810Y-150500000D01*
X99552190Y-150500000D01*
X99484069Y-150479998D01*
X99463095Y-150463095D01*
X98036905Y-149036905D01*
X98002879Y-148974593D01*
X98000000Y-148947810D01*
X98000000Y-145126000D01*
X98020002Y-145057879D01*
X98073658Y-145011386D01*
X98126000Y-145000000D01*
X108874000Y-145000000D01*
X108942121Y-145020002D01*
G37*
G36*
X107925500Y-55519962D02*
G01*
X107980038Y-55574500D01*
X108000000Y-55649000D01*
X108000000Y-59851000D01*
X107980038Y-59925500D01*
X107925500Y-59980038D01*
X107851000Y-60000000D01*
X103649000Y-60000000D01*
X103574500Y-59980038D01*
X103519962Y-59925500D01*
X103500000Y-59851000D01*
X103500000Y-55649000D01*
X103519962Y-55574500D01*
X103574500Y-55519962D01*
X103649000Y-55500000D01*
X107851000Y-55500000D01*
X107925500Y-55519962D01*
G37*
G36*
X107515931Y-124520002D02*
G01*
X107536905Y-124536905D01*
X108963095Y-125963095D01*
X108997121Y-126025407D01*
X109000000Y-126052190D01*
X109000000Y-129874000D01*
X108979998Y-129942121D01*
X108926342Y-129988614D01*
X108874000Y-130000000D01*
X98126000Y-130000000D01*
X98057879Y-129979998D01*
X98011386Y-129926342D01*
X98000000Y-129874000D01*
X98000000Y-126052190D01*
X98020002Y-125984069D01*
X98036905Y-125963095D01*
X99463095Y-124536905D01*
X99525407Y-124502879D01*
X99552190Y-124500000D01*
X107447810Y-124500000D01*
X107515931Y-124520002D01*
G37*
G36*
X201015931Y-96520002D02*
G01*
X201036905Y-96536905D01*
X202463095Y-97963095D01*
X202497121Y-98025407D01*
X202500000Y-98052190D01*
X202500000Y-101874000D01*
X202479998Y-101942121D01*
X202426342Y-101988614D01*
X202374000Y-102000000D01*
X191626000Y-102000000D01*
X191557879Y-101979998D01*
X191511386Y-101926342D01*
X191500000Y-101874000D01*
X191500000Y-98052190D01*
X191520002Y-97984069D01*
X191536905Y-97963095D01*
X192963095Y-96536905D01*
X193025407Y-96502879D01*
X193052190Y-96500000D01*
X200947810Y-96500000D01*
X201015931Y-96520002D01*
G37*
G36*
X197225500Y-47019962D02*
G01*
X197280038Y-47074500D01*
X197300000Y-47149000D01*
X197300000Y-51236193D01*
X197297463Y-51263572D01*
X197284860Y-51330992D01*
X197265080Y-51382051D01*
X197236366Y-51428426D01*
X197199523Y-51468857D01*
X197198184Y-51469869D01*
X197126713Y-51498863D01*
X197108344Y-51500000D01*
X192649000Y-51500000D01*
X192574500Y-51480038D01*
X192519962Y-51425500D01*
X192500000Y-51351000D01*
X192500000Y-47149000D01*
X192519962Y-47074500D01*
X192574500Y-47019962D01*
X192649000Y-47000000D01*
X197151000Y-47000000D01*
X197225500Y-47019962D01*
G37*
G36*
X197181047Y-41519962D02*
G01*
X197225452Y-41559208D01*
X197251764Y-41594051D01*
X197276171Y-41643067D01*
X197293989Y-41705691D01*
X197299518Y-41739576D01*
X197299841Y-41746553D01*
X197300000Y-41753444D01*
X197300000Y-45851000D01*
X197280038Y-45925500D01*
X197225500Y-45980038D01*
X197151000Y-46000000D01*
X192649000Y-46000000D01*
X192574500Y-45980038D01*
X192519962Y-45925500D01*
X192500000Y-45851000D01*
X192500000Y-41649000D01*
X192519962Y-41574500D01*
X192574500Y-41519962D01*
X192649000Y-41500000D01*
X197106547Y-41500000D01*
X197181047Y-41519962D01*
G37*
G36*
X200412782Y-83519962D02*
G01*
X200443641Y-83543641D01*
X201300000Y-84400000D01*
X206601000Y-84400000D01*
X206675500Y-84419962D01*
X206730038Y-84474500D01*
X206750000Y-84549000D01*
X206750000Y-87851000D01*
X206730038Y-87925500D01*
X206675500Y-87980038D01*
X206601000Y-88000000D01*
X192649000Y-88000000D01*
X192574500Y-87980038D01*
X192519962Y-87925500D01*
X192500000Y-87851000D01*
X192500000Y-83649000D01*
X192519962Y-83574500D01*
X192574500Y-83519962D01*
X192649000Y-83500000D01*
X200338282Y-83500000D01*
X200412782Y-83519962D01*
G37*
G36*
X107925500Y-83519962D02*
G01*
X107980038Y-83574500D01*
X108000000Y-83649000D01*
X108000000Y-87851000D01*
X107980038Y-87925500D01*
X107925500Y-87980038D01*
X107851000Y-88000000D01*
X103649000Y-88000000D01*
X103574500Y-87980038D01*
X103519962Y-87925500D01*
X103500000Y-87851000D01*
X103500000Y-83649000D01*
X103519962Y-83574500D01*
X103574500Y-83519962D01*
X103649000Y-83500000D01*
X107851000Y-83500000D01*
X107925500Y-83519962D01*
G37*
G36*
X197225500Y-75019962D02*
G01*
X197280038Y-75074500D01*
X197300000Y-75149000D01*
X197300000Y-79236193D01*
X197297463Y-79263572D01*
X197284860Y-79330992D01*
X197265080Y-79382051D01*
X197236366Y-79428426D01*
X197199523Y-79468857D01*
X197198184Y-79469869D01*
X197126713Y-79498863D01*
X197108344Y-79500000D01*
X192649000Y-79500000D01*
X192574500Y-79480038D01*
X192519962Y-79425500D01*
X192500000Y-79351000D01*
X192500000Y-75149000D01*
X192519962Y-75074500D01*
X192574500Y-75019962D01*
X192649000Y-75000000D01*
X197151000Y-75000000D01*
X197225500Y-75019962D01*
G37*
G36*
X201015931Y-138520002D02*
G01*
X201036905Y-138536905D01*
X202463095Y-139963095D01*
X202497121Y-140025407D01*
X202500000Y-140052190D01*
X202500000Y-143874000D01*
X202479998Y-143942121D01*
X202426342Y-143988614D01*
X202374000Y-144000000D01*
X191626000Y-144000000D01*
X191557879Y-143979998D01*
X191511386Y-143926342D01*
X191500000Y-143874000D01*
X191500000Y-140052190D01*
X191520002Y-139984069D01*
X191536905Y-139963095D01*
X192963095Y-138536905D01*
X193025407Y-138502879D01*
X193052190Y-138500000D01*
X200947810Y-138500000D01*
X201015931Y-138520002D01*
G37*
G36*
X197181047Y-69519962D02*
G01*
X197225452Y-69559208D01*
X197251764Y-69594051D01*
X197276171Y-69643067D01*
X197293989Y-69705691D01*
X197299518Y-69739576D01*
X197299841Y-69746553D01*
X197300000Y-69753444D01*
X197300000Y-73851000D01*
X197280038Y-73925500D01*
X197225500Y-73980038D01*
X197151000Y-74000000D01*
X192649000Y-74000000D01*
X192574500Y-73980038D01*
X192519962Y-73925500D01*
X192500000Y-73851000D01*
X192500000Y-69649000D01*
X192519962Y-69574500D01*
X192574500Y-69519962D01*
X192649000Y-69500000D01*
X197106547Y-69500000D01*
X197181047Y-69519962D01*
G37*
G36*
X202442121Y-103020002D02*
G01*
X202488614Y-103073658D01*
X202500000Y-103126000D01*
X202500000Y-106947810D01*
X202479998Y-107015931D01*
X202463095Y-107036905D01*
X201036905Y-108463095D01*
X200974593Y-108497121D01*
X200947810Y-108500000D01*
X193052190Y-108500000D01*
X192984069Y-108479998D01*
X192963095Y-108463095D01*
X191536905Y-107036905D01*
X191502879Y-106974593D01*
X191500000Y-106947810D01*
X191500000Y-103126000D01*
X191520002Y-103057879D01*
X191573658Y-103011386D01*
X191626000Y-103000000D01*
X202374000Y-103000000D01*
X202442121Y-103020002D01*
G37*
G36*
X107925500Y-47019962D02*
G01*
X107980038Y-47074500D01*
X108000000Y-47149000D01*
X108000000Y-51351000D01*
X107980038Y-51425500D01*
X107925500Y-51480038D01*
X107851000Y-51500000D01*
X103649000Y-51500000D01*
X103574500Y-51480038D01*
X103519962Y-51425500D01*
X103500000Y-51351000D01*
X103500000Y-47149000D01*
X103519962Y-47074500D01*
X103574500Y-47019962D01*
X103649000Y-47000000D01*
X107851000Y-47000000D01*
X107925500Y-47019962D01*
G37*
G36*
X206675500Y-61019962D02*
G01*
X206730038Y-61074500D01*
X206750000Y-61149000D01*
X206750000Y-64851000D01*
X206730038Y-64925500D01*
X206675500Y-64980038D01*
X206601000Y-65000000D01*
X201000000Y-65000000D01*
X200543641Y-65456359D01*
X200476846Y-65494923D01*
X200438282Y-65500000D01*
X192649000Y-65500000D01*
X192574500Y-65480038D01*
X192519962Y-65425500D01*
X192500000Y-65351000D01*
X192500000Y-61149000D01*
X192519962Y-61074500D01*
X192574500Y-61019962D01*
X192649000Y-61000000D01*
X206601000Y-61000000D01*
X206675500Y-61019962D01*
G37*
G36*
X201015931Y-124520002D02*
G01*
X201036905Y-124536905D01*
X202463095Y-125963095D01*
X202497121Y-126025407D01*
X202500000Y-126052190D01*
X202500000Y-129874000D01*
X202479998Y-129942121D01*
X202426342Y-129988614D01*
X202374000Y-130000000D01*
X191626000Y-130000000D01*
X191557879Y-129979998D01*
X191511386Y-129926342D01*
X191500000Y-129874000D01*
X191500000Y-126052190D01*
X191520002Y-125984069D01*
X191536905Y-125963095D01*
X192963095Y-124536905D01*
X193025407Y-124502879D01*
X193052190Y-124500000D01*
X200947810Y-124500000D01*
X201015931Y-124520002D01*
G37*
G36*
X108942121Y-103020002D02*
G01*
X108988614Y-103073658D01*
X109000000Y-103126000D01*
X109000000Y-106947810D01*
X108979998Y-107015931D01*
X108963095Y-107036905D01*
X107536905Y-108463095D01*
X107474593Y-108497121D01*
X107447810Y-108500000D01*
X99552190Y-108500000D01*
X99484069Y-108479998D01*
X99463095Y-108463095D01*
X98036905Y-107036905D01*
X98002879Y-106974593D01*
X98000000Y-106947810D01*
X98000000Y-103126000D01*
X98020002Y-103057879D01*
X98073658Y-103011386D01*
X98126000Y-103000000D01*
X108874000Y-103000000D01*
X108942121Y-103020002D01*
G37*
G36*
X201015931Y-110520002D02*
G01*
X201036905Y-110536905D01*
X202463095Y-111963095D01*
X202497121Y-112025407D01*
X202500000Y-112052190D01*
X202500000Y-115874000D01*
X202479998Y-115942121D01*
X202426342Y-115988614D01*
X202374000Y-116000000D01*
X191626000Y-116000000D01*
X191557879Y-115979998D01*
X191511386Y-115926342D01*
X191500000Y-115874000D01*
X191500000Y-112052190D01*
X191520002Y-111984069D01*
X191536905Y-111963095D01*
X192963095Y-110536905D01*
X193025407Y-110502879D01*
X193052190Y-110500000D01*
X200947810Y-110500000D01*
X201015931Y-110520002D01*
G37*
M02*
