G04 #@! TF.GenerationSoftware,KiCad,Pcbnew,9.0.8*
G04 #@! TF.CreationDate,2026-09-10T23:05:13+09:00*
G04 #@! TF.ProjectId,motordecoder2-t-dc56mra-panelized,6d6f746f-7264-4656-936f-646572322d74,rev?*
G04 #@! TF.SameCoordinates,Original*
G04 #@! TF.FileFunction,Paste,Bot*
G04 #@! TF.FilePolarity,Positive*
%FSLAX46Y46*%
G04 Gerber Fmt 4.6, Leading zero omitted, Abs format (unit mm)*
G04 Created by KiCad (PCBNEW 9.0.8) date 2026-09-10 23:05:13*
%MOMM*%
%LPD*%
G01*
G04 APERTURE LIST*
G04 Aperture macros list*
%AMRoundRect*
0 Rectangle with rounded corners*
0 $1 Rounding radius*
0 $2 $3 $4 $5 $6 $7 $8 $9 X,Y pos of 4 corners*
0 Add a 4 corners polygon primitive as box body*
4,1,4,$2,$3,$4,$5,$6,$7,$8,$9,$2,$3,0*
0 Add four circle primitives for the rounded corners*
1,1,$1+$1,$2,$3*
1,1,$1+$1,$4,$5*
1,1,$1+$1,$6,$7*
1,1,$1+$1,$8,$9*
0 Add four rect primitives between the rounded corners*
20,1,$1+$1,$2,$3,$4,$5,0*
20,1,$1+$1,$4,$5,$6,$7,0*
20,1,$1+$1,$6,$7,$8,$9,0*
20,1,$1+$1,$8,$9,$2,$3,0*%
%AMFreePoly0*
4,1,14,0.362394,0.062394,0.370000,0.044032,0.370000,0.006678,0.359922,-0.017650,0.317650,-0.059922,0.293322,-0.070000,-0.344033,-0.070000,-0.362394,-0.062394,-0.370000,-0.044032,-0.370000,0.044032,-0.362394,0.062394,-0.344033,0.070000,0.344033,0.070000,0.362394,0.062394,0.362394,0.062394,$1*%
%AMFreePoly1*
4,1,14,0.317650,0.059922,0.359922,0.017650,0.370000,-0.006678,0.370000,-0.044032,0.362394,-0.062394,0.344033,-0.070000,-0.344033,-0.070000,-0.362394,-0.062394,-0.370000,-0.044032,-0.370000,0.044032,-0.362394,0.062394,-0.344033,0.070000,0.293322,0.070000,0.317650,0.059922,0.317650,0.059922,$1*%
%AMFreePoly2*
4,1,14,0.062394,0.362394,0.070000,0.344032,0.070000,-0.344032,0.062394,-0.362394,0.044033,-0.370000,0.006678,-0.370000,-0.017650,-0.359922,-0.059922,-0.317650,-0.070000,-0.293321,-0.070000,0.344032,-0.062394,0.362394,-0.044033,0.370000,0.044033,0.370000,0.062394,0.362394,0.062394,0.362394,$1*%
%AMFreePoly3*
4,1,14,0.062394,0.362394,0.070000,0.344032,0.070000,-0.293321,0.059922,-0.317650,0.017650,-0.359922,-0.006678,-0.370000,-0.044033,-0.370000,-0.062394,-0.362394,-0.070000,-0.344032,-0.070000,0.344032,-0.062394,0.362394,-0.044033,0.370000,0.044033,0.370000,0.062394,0.362394,0.062394,0.362394,$1*%
%AMFreePoly4*
4,1,14,0.362394,0.062394,0.370000,0.044032,0.370000,-0.044032,0.362394,-0.062394,0.344033,-0.070000,-0.344033,-0.070000,-0.362394,-0.062394,-0.370000,-0.044032,-0.370000,-0.006678,-0.359922,0.017650,-0.317650,0.059922,-0.293322,0.070000,0.344033,0.070000,0.362394,0.062394,0.362394,0.062394,$1*%
%AMFreePoly5*
4,1,14,0.362394,0.062394,0.370000,0.044032,0.370000,-0.044032,0.362394,-0.062394,0.344033,-0.070000,-0.293322,-0.070000,-0.317650,-0.059922,-0.359922,-0.017650,-0.370000,0.006678,-0.370000,0.044032,-0.362394,0.062394,-0.344033,0.070000,0.344033,0.070000,0.362394,0.062394,0.362394,0.062394,$1*%
%AMFreePoly6*
4,1,14,0.017650,0.359922,0.059922,0.317650,0.070000,0.293321,0.070000,-0.344032,0.062394,-0.362394,0.044033,-0.370000,-0.044033,-0.370000,-0.062394,-0.362394,-0.070000,-0.344032,-0.070000,0.344032,-0.062394,0.362394,-0.044033,0.370000,-0.006678,0.370000,0.017650,0.359922,0.017650,0.359922,$1*%
%AMFreePoly7*
4,1,14,0.062394,0.362394,0.070000,0.344032,0.070000,-0.344032,0.062394,-0.362394,0.044033,-0.370000,-0.044033,-0.370000,-0.062394,-0.362394,-0.070000,-0.344032,-0.070000,0.293321,-0.059922,0.317650,-0.017650,0.359922,0.006678,0.370000,0.044033,0.370000,0.062394,0.362394,0.062394,0.362394,$1*%
G04 Aperture macros list end*
%ADD10C,2.000000*%
%ADD11R,0.400000X0.600000*%
%ADD12R,0.450000X0.300000*%
%ADD13R,0.600000X0.400000*%
%ADD14R,0.400000X0.450000*%
%ADD15R,0.500000X0.450000*%
%ADD16R,0.450000X0.520000*%
%ADD17R,0.900000X0.500000*%
%ADD18R,0.300000X0.450000*%
%ADD19R,0.800000X0.650000*%
%ADD20R,1.940000X1.040000*%
%ADD21R,0.740000X1.040000*%
%ADD22R,0.700000X0.700000*%
%ADD23R,0.500000X0.900000*%
%ADD24R,0.500000X0.550000*%
%ADD25R,0.800000X0.900000*%
%ADD26R,0.700000X0.800000*%
%ADD27R,0.800000X0.800000*%
%ADD28RoundRect,0.172500X-0.172500X-0.172500X0.172500X-0.172500X0.172500X0.172500X-0.172500X0.172500X0*%
%ADD29FreePoly0,0.000000*%
%ADD30RoundRect,0.035000X-0.335000X-0.035000X0.335000X-0.035000X0.335000X0.035000X-0.335000X0.035000X0*%
%ADD31FreePoly1,0.000000*%
%ADD32FreePoly2,0.000000*%
%ADD33RoundRect,0.035000X-0.035000X-0.335000X0.035000X-0.335000X0.035000X0.335000X-0.035000X0.335000X0*%
%ADD34FreePoly3,0.000000*%
%ADD35FreePoly4,0.000000*%
%ADD36FreePoly5,0.000000*%
%ADD37FreePoly6,0.000000*%
%ADD38FreePoly7,0.000000*%
%ADD39R,0.550000X0.500000*%
G04 APERTURE END LIST*
D10*
X216500000Y-102500000D03*
X84000000Y-74500000D03*
X84000000Y-46500000D03*
X84000000Y-60500000D03*
X216500000Y-144500000D03*
X84000000Y-144500000D03*
X84000000Y-88500000D03*
X216500000Y-88500000D03*
X216500000Y-60500000D03*
X216500000Y-130500000D03*
X84000000Y-116500000D03*
X84000000Y-130500000D03*
X216500000Y-46500000D03*
X84000000Y-102500000D03*
X216500000Y-116500000D03*
X216500000Y-74500000D03*
D11*
X166150000Y-59900000D03*
X165250000Y-59900000D03*
D12*
X126525000Y-106300000D03*
X126525000Y-105800000D03*
X126525000Y-105300000D03*
X127875000Y-105300000D03*
X127875000Y-105800000D03*
X127875000Y-106300000D03*
X126525000Y-134300000D03*
X126525000Y-133800000D03*
X126525000Y-133300000D03*
X127875000Y-133300000D03*
X127875000Y-133800000D03*
X127875000Y-134300000D03*
D13*
X161700000Y-44650000D03*
X161700000Y-43750000D03*
D14*
X115350000Y-142725000D03*
X116150000Y-142725000D03*
D15*
X115750000Y-143875000D03*
D11*
X113950000Y-127750000D03*
X113050000Y-127750000D03*
D16*
X167200000Y-61820000D03*
X167200000Y-63180000D03*
D13*
X162800000Y-43750000D03*
X162800000Y-44650000D03*
D17*
X134700000Y-48150000D03*
X134700000Y-49650000D03*
D18*
X161500000Y-74525000D03*
X162000000Y-74525000D03*
X162500000Y-74525000D03*
X162500000Y-75875000D03*
X162000000Y-75875000D03*
X161500000Y-75875000D03*
D17*
X134700000Y-62150000D03*
X134700000Y-63650000D03*
D19*
X92500000Y-145175000D03*
X92500000Y-143825000D03*
D13*
X166000000Y-47750000D03*
X166000000Y-48650000D03*
X114450000Y-129750000D03*
X114450000Y-128850000D03*
D11*
X134950000Y-71800000D03*
X134050000Y-71800000D03*
D16*
X167200000Y-75820000D03*
X167200000Y-77180000D03*
D14*
X109900000Y-99625000D03*
X110700000Y-99625000D03*
D15*
X110300000Y-100775000D03*
D11*
X109900000Y-98700000D03*
X110800000Y-98700000D03*
D18*
X176800000Y-87825000D03*
X177300000Y-87825000D03*
X177800000Y-87825000D03*
X177800000Y-89175000D03*
X177300000Y-89175000D03*
X176800000Y-89175000D03*
D14*
X115350000Y-128725000D03*
X116150000Y-128725000D03*
D15*
X115750000Y-129875000D03*
D13*
X124200000Y-113000000D03*
X124200000Y-113900000D03*
X119450000Y-119350000D03*
X119450000Y-118450000D03*
X161700000Y-58650000D03*
X161700000Y-57750000D03*
D18*
X115950000Y-127875000D03*
X115450000Y-127875000D03*
X114950000Y-127875000D03*
X114950000Y-126525000D03*
X115450000Y-126525000D03*
X115950000Y-126525000D03*
D19*
X89000000Y-103175000D03*
X89000000Y-101825000D03*
D18*
X161500000Y-60525000D03*
X162000000Y-60525000D03*
X162500000Y-60525000D03*
X162500000Y-61875000D03*
X162000000Y-61875000D03*
X161500000Y-61875000D03*
D20*
X121200000Y-120000000D03*
D21*
X123100000Y-120000000D03*
D20*
X121200000Y-148000000D03*
D21*
X123100000Y-148000000D03*
D22*
X136000000Y-77700000D03*
X136000000Y-76750000D03*
X136000000Y-75800000D03*
X138500000Y-75800000D03*
X138500000Y-76750000D03*
X138500000Y-77700000D03*
D13*
X162800000Y-71750000D03*
X162800000Y-72650000D03*
D19*
X211500000Y-143825000D03*
X211500000Y-145175000D03*
D11*
X138700000Y-88500000D03*
X137800000Y-88500000D03*
D12*
X112075000Y-129700000D03*
X112075000Y-129200000D03*
X112075000Y-128700000D03*
X113425000Y-128700000D03*
X113425000Y-129200000D03*
X113425000Y-129700000D03*
D11*
X131550000Y-47200000D03*
X132450000Y-47200000D03*
D20*
X112850000Y-120000000D03*
D21*
X114750000Y-120000000D03*
D23*
X127650000Y-104100000D03*
X126150000Y-104100000D03*
D13*
X119450000Y-105350000D03*
X119450000Y-104450000D03*
D20*
X114150000Y-132250000D03*
D21*
X112250000Y-132250000D03*
D20*
X116500000Y-120000000D03*
D21*
X118400000Y-120000000D03*
D19*
X92500000Y-103175000D03*
X92500000Y-101825000D03*
D11*
X161850000Y-90900000D03*
X162750000Y-90900000D03*
D16*
X164000000Y-72680000D03*
X164000000Y-71320000D03*
D11*
X166150000Y-45900000D03*
X165250000Y-45900000D03*
D23*
X174250000Y-89200000D03*
X172750000Y-89200000D03*
D19*
X211500000Y-115825000D03*
X211500000Y-117175000D03*
D24*
X141500000Y-46025000D03*
X141500000Y-46975000D03*
D13*
X163800000Y-48050000D03*
X163800000Y-48950000D03*
D25*
X116650000Y-131200000D03*
X118750000Y-131200000D03*
D13*
X140400000Y-88950000D03*
X140400000Y-89850000D03*
D23*
X127650000Y-118100000D03*
X126150000Y-118100000D03*
D19*
X208000000Y-129825000D03*
X208000000Y-131175000D03*
D16*
X164000000Y-86680000D03*
X164000000Y-85320000D03*
D26*
X118600000Y-114225000D03*
X118600000Y-115775000D03*
D13*
X130300000Y-59050000D03*
X130300000Y-59950000D03*
D11*
X168200000Y-45100000D03*
X167300000Y-45100000D03*
X134950000Y-85800000D03*
X134050000Y-85800000D03*
D13*
X140400000Y-46950000D03*
X140400000Y-47850000D03*
X114450000Y-101750000D03*
X114450000Y-100850000D03*
X120550000Y-117850000D03*
X120550000Y-118750000D03*
D23*
X133550000Y-45050000D03*
X135050000Y-45050000D03*
D19*
X208000000Y-143825000D03*
X208000000Y-145175000D03*
D27*
X117200000Y-114225000D03*
X117200000Y-115775000D03*
D11*
X113950000Y-99750000D03*
X113050000Y-99750000D03*
D19*
X208000000Y-115825000D03*
X208000000Y-117175000D03*
D25*
X116650000Y-103200000D03*
X118750000Y-103200000D03*
D14*
X109900000Y-113625000D03*
X110700000Y-113625000D03*
D15*
X110300000Y-114775000D03*
D12*
X112075000Y-143700000D03*
X112075000Y-143200000D03*
X112075000Y-142700000D03*
X113425000Y-142700000D03*
X113425000Y-143200000D03*
X113425000Y-143700000D03*
D28*
X121425000Y-101075000D03*
X121425000Y-101925000D03*
X122275000Y-101075000D03*
X122275000Y-101925000D03*
D29*
X120400000Y-102300000D03*
D30*
X120400000Y-101900000D03*
X120400000Y-101500000D03*
X120400000Y-101100000D03*
D31*
X120400000Y-100700000D03*
D32*
X121050000Y-100050000D03*
D33*
X121450000Y-100050000D03*
X121850000Y-100050000D03*
X122250000Y-100050000D03*
D34*
X122650000Y-100050000D03*
D35*
X123300000Y-100700000D03*
D30*
X123300000Y-101100000D03*
X123300000Y-101500000D03*
X123300000Y-101900000D03*
D36*
X123300000Y-102300000D03*
D37*
X122650000Y-102950000D03*
D33*
X122250000Y-102950000D03*
X121850000Y-102950000D03*
X121450000Y-102950000D03*
D38*
X121050000Y-102950000D03*
D11*
X136700000Y-74500000D03*
X135800000Y-74500000D03*
D39*
X164375000Y-74700000D03*
X163425000Y-74700000D03*
D19*
X89000000Y-145175000D03*
X89000000Y-143825000D03*
D13*
X163800000Y-90050000D03*
X163800000Y-90950000D03*
D12*
X134775000Y-74200000D03*
X134775000Y-74700000D03*
X134775000Y-75200000D03*
X133425000Y-75200000D03*
X133425000Y-74700000D03*
X133425000Y-74200000D03*
D23*
X125650000Y-106000000D03*
X124150000Y-106000000D03*
X174250000Y-45800000D03*
X172750000Y-45800000D03*
D11*
X168200000Y-87100000D03*
X167300000Y-87100000D03*
D24*
X164900000Y-76025000D03*
X164900000Y-76975000D03*
D18*
X115950000Y-141875000D03*
X115450000Y-141875000D03*
X114950000Y-141875000D03*
X114950000Y-140525000D03*
X115450000Y-140525000D03*
X115950000Y-140525000D03*
D12*
X112075000Y-101700000D03*
X112075000Y-101200000D03*
X112075000Y-100700000D03*
X113425000Y-100700000D03*
X113425000Y-101200000D03*
X113425000Y-101700000D03*
D20*
X116500000Y-134000000D03*
D21*
X118400000Y-134000000D03*
D39*
X116875000Y-118600000D03*
X117825000Y-118600000D03*
X116875000Y-146600000D03*
X117825000Y-146600000D03*
D13*
X120550000Y-103850000D03*
X120550000Y-104750000D03*
D26*
X118600000Y-128225000D03*
X118600000Y-129775000D03*
D11*
X131550000Y-89200000D03*
X132450000Y-89200000D03*
D18*
X161500000Y-88525000D03*
X162000000Y-88525000D03*
X162500000Y-88525000D03*
X162500000Y-89875000D03*
X162000000Y-89875000D03*
X161500000Y-89875000D03*
D16*
X164000000Y-58680000D03*
X164000000Y-57320000D03*
D22*
X136000000Y-73200000D03*
X136000000Y-72250000D03*
X136000000Y-71300000D03*
X138500000Y-71300000D03*
X138500000Y-72250000D03*
X138500000Y-73200000D03*
D23*
X117050000Y-126900000D03*
X118550000Y-126900000D03*
X174250000Y-87800000D03*
X172750000Y-87800000D03*
D14*
X109900000Y-127625000D03*
X110700000Y-127625000D03*
D15*
X110300000Y-128775000D03*
D13*
X130300000Y-73050000D03*
X130300000Y-73950000D03*
D17*
X134700000Y-76150000D03*
X134700000Y-77650000D03*
D11*
X136700000Y-88500000D03*
X135800000Y-88500000D03*
D13*
X162800000Y-85750000D03*
X162800000Y-86650000D03*
X132200000Y-46050000D03*
X132200000Y-45150000D03*
X140400000Y-74950000D03*
X140400000Y-75850000D03*
D11*
X138700000Y-60500000D03*
X137800000Y-60500000D03*
D18*
X176800000Y-59825000D03*
X177300000Y-59825000D03*
X177800000Y-59825000D03*
X177800000Y-61175000D03*
X177300000Y-61175000D03*
X176800000Y-61175000D03*
D11*
X131550000Y-61200000D03*
X132450000Y-61200000D03*
X113950000Y-98700000D03*
X113050000Y-98700000D03*
D39*
X164375000Y-88700000D03*
X163425000Y-88700000D03*
D11*
X164350000Y-59600000D03*
X163450000Y-59600000D03*
D22*
X136000000Y-63700000D03*
X136000000Y-62750000D03*
X136000000Y-61800000D03*
X138500000Y-61800000D03*
X138500000Y-62750000D03*
X138500000Y-63700000D03*
D19*
X89000000Y-117175000D03*
X89000000Y-115825000D03*
D23*
X174250000Y-47200000D03*
X172750000Y-47200000D03*
D11*
X134950000Y-43800000D03*
X134050000Y-43800000D03*
X136700000Y-60500000D03*
X135800000Y-60500000D03*
D13*
X120550000Y-131850000D03*
X120550000Y-132750000D03*
D12*
X112075000Y-115700000D03*
X112075000Y-115200000D03*
X112075000Y-114700000D03*
X113425000Y-114700000D03*
X113425000Y-115200000D03*
X113425000Y-115700000D03*
D13*
X161700000Y-86650000D03*
X161700000Y-85750000D03*
D16*
X167200000Y-47820000D03*
X167200000Y-49180000D03*
D28*
X121425000Y-143075000D03*
X121425000Y-143925000D03*
X122275000Y-143075000D03*
X122275000Y-143925000D03*
D29*
X120400000Y-144300000D03*
D30*
X120400000Y-143900000D03*
X120400000Y-143500000D03*
X120400000Y-143100000D03*
D31*
X120400000Y-142700000D03*
D32*
X121050000Y-142050000D03*
D33*
X121450000Y-142050000D03*
X121850000Y-142050000D03*
X122250000Y-142050000D03*
D34*
X122650000Y-142050000D03*
D35*
X123300000Y-142700000D03*
D30*
X123300000Y-143100000D03*
X123300000Y-143500000D03*
X123300000Y-143900000D03*
D36*
X123300000Y-144300000D03*
D37*
X122650000Y-144950000D03*
D33*
X122250000Y-144950000D03*
X121850000Y-144950000D03*
X121450000Y-144950000D03*
D38*
X121050000Y-144950000D03*
D22*
X136000000Y-49700000D03*
X136000000Y-48750000D03*
X136000000Y-47800000D03*
X138500000Y-47800000D03*
X138500000Y-48750000D03*
X138500000Y-49700000D03*
D11*
X166150000Y-87900000D03*
X165250000Y-87900000D03*
D27*
X117200000Y-142225000D03*
X117200000Y-143775000D03*
D19*
X92500000Y-131175000D03*
X92500000Y-129825000D03*
D14*
X115350000Y-100725000D03*
X116150000Y-100725000D03*
D15*
X115750000Y-101875000D03*
D23*
X117050000Y-112900000D03*
X118550000Y-112900000D03*
D13*
X140400000Y-74050000D03*
X140400000Y-73150000D03*
D23*
X127650000Y-146100000D03*
X126150000Y-146100000D03*
D14*
X109900000Y-141625000D03*
X110700000Y-141625000D03*
D15*
X110300000Y-142775000D03*
D13*
X140400000Y-60950000D03*
X140400000Y-61850000D03*
D23*
X125650000Y-120000000D03*
X124150000Y-120000000D03*
D13*
X166000000Y-89750000D03*
X166000000Y-90650000D03*
D11*
X166150000Y-73900000D03*
X165250000Y-73900000D03*
D13*
X119450000Y-147350000D03*
X119450000Y-146450000D03*
D25*
X116650000Y-117200000D03*
X118750000Y-117200000D03*
D20*
X121200000Y-106000000D03*
D21*
X123100000Y-106000000D03*
D13*
X132200000Y-88050000D03*
X132200000Y-87150000D03*
D23*
X125650000Y-134000000D03*
X124150000Y-134000000D03*
D18*
X176800000Y-73825000D03*
X177300000Y-73825000D03*
X177800000Y-73825000D03*
X177800000Y-75175000D03*
X177300000Y-75175000D03*
X176800000Y-75175000D03*
D20*
X114150000Y-146250000D03*
D21*
X112250000Y-146250000D03*
D23*
X133550000Y-59050000D03*
X135050000Y-59050000D03*
D13*
X132200000Y-60050000D03*
X132200000Y-59150000D03*
D14*
X115350000Y-114725000D03*
X116150000Y-114725000D03*
D15*
X115750000Y-115875000D03*
D27*
X117200000Y-100225000D03*
X117200000Y-101775000D03*
D22*
X136000000Y-59200000D03*
X136000000Y-58250000D03*
X136000000Y-57300000D03*
X138500000Y-57300000D03*
X138500000Y-58250000D03*
X138500000Y-59200000D03*
D11*
X138700000Y-46500000D03*
X137800000Y-46500000D03*
D23*
X133550000Y-73050000D03*
X135050000Y-73050000D03*
X117050000Y-140900000D03*
X118550000Y-140900000D03*
D22*
X136000000Y-45200000D03*
X136000000Y-44250000D03*
X136000000Y-43300000D03*
X138500000Y-43300000D03*
X138500000Y-44250000D03*
X138500000Y-45200000D03*
D12*
X134775000Y-60200000D03*
X134775000Y-60700000D03*
X134775000Y-61200000D03*
X133425000Y-61200000D03*
X133425000Y-60700000D03*
X133425000Y-60200000D03*
D13*
X130300000Y-87050000D03*
X130300000Y-87950000D03*
X140400000Y-46050000D03*
X140400000Y-45150000D03*
D11*
X161850000Y-76900000D03*
X162750000Y-76900000D03*
X164350000Y-87600000D03*
X163450000Y-87600000D03*
D18*
X176800000Y-45825000D03*
X177300000Y-45825000D03*
X177800000Y-45825000D03*
X177800000Y-47175000D03*
X177300000Y-47175000D03*
X176800000Y-47175000D03*
D11*
X136700000Y-46500000D03*
X135800000Y-46500000D03*
D24*
X141500000Y-60025000D03*
X141500000Y-60975000D03*
D23*
X174250000Y-73800000D03*
X172750000Y-73800000D03*
D13*
X140400000Y-60050000D03*
X140400000Y-59150000D03*
D12*
X126525000Y-148300000D03*
X126525000Y-147800000D03*
X126525000Y-147300000D03*
X127875000Y-147300000D03*
X127875000Y-147800000D03*
X127875000Y-148300000D03*
D20*
X112850000Y-148000000D03*
D21*
X114750000Y-148000000D03*
D12*
X134775000Y-88200000D03*
X134775000Y-88700000D03*
X134775000Y-89200000D03*
X133425000Y-89200000D03*
X133425000Y-88700000D03*
X133425000Y-88200000D03*
D24*
X164900000Y-48025000D03*
X164900000Y-48975000D03*
D28*
X121425000Y-115075000D03*
X121425000Y-115925000D03*
X122275000Y-115075000D03*
X122275000Y-115925000D03*
D29*
X120400000Y-116300000D03*
D30*
X120400000Y-115900000D03*
X120400000Y-115500000D03*
X120400000Y-115100000D03*
D31*
X120400000Y-114700000D03*
D32*
X121050000Y-114050000D03*
D33*
X121450000Y-114050000D03*
X121850000Y-114050000D03*
X122250000Y-114050000D03*
D34*
X122650000Y-114050000D03*
D35*
X123300000Y-114700000D03*
D30*
X123300000Y-115100000D03*
X123300000Y-115500000D03*
X123300000Y-115900000D03*
D36*
X123300000Y-116300000D03*
D37*
X122650000Y-116950000D03*
D33*
X122250000Y-116950000D03*
X121850000Y-116950000D03*
X121450000Y-116950000D03*
D38*
X121050000Y-116950000D03*
D11*
X161850000Y-48900000D03*
X162750000Y-48900000D03*
D19*
X211500000Y-101825000D03*
X211500000Y-103175000D03*
D39*
X116875000Y-132600000D03*
X117825000Y-132600000D03*
D11*
X164350000Y-45600000D03*
X163450000Y-45600000D03*
X161850000Y-62900000D03*
X162750000Y-62900000D03*
D13*
X119450000Y-133350000D03*
X119450000Y-132450000D03*
D23*
X174250000Y-61200000D03*
X172750000Y-61200000D03*
D11*
X109900000Y-126700000D03*
X110800000Y-126700000D03*
D26*
X118600000Y-142225000D03*
X118600000Y-143775000D03*
D12*
X126525000Y-120300000D03*
X126525000Y-119800000D03*
X126525000Y-119300000D03*
X127875000Y-119300000D03*
X127875000Y-119800000D03*
X127875000Y-120300000D03*
D11*
X113950000Y-141750000D03*
X113050000Y-141750000D03*
D22*
X136000000Y-91700000D03*
X136000000Y-90750000D03*
X136000000Y-89800000D03*
X138500000Y-89800000D03*
X138500000Y-90750000D03*
X138500000Y-91700000D03*
D18*
X161500000Y-46525000D03*
X162000000Y-46525000D03*
X162500000Y-46525000D03*
X162500000Y-47875000D03*
X162000000Y-47875000D03*
X161500000Y-47875000D03*
D13*
X114450000Y-143750000D03*
X114450000Y-142850000D03*
X132200000Y-74050000D03*
X132200000Y-73150000D03*
X163800000Y-62050000D03*
X163800000Y-62950000D03*
D12*
X166375000Y-57800000D03*
X166375000Y-58300000D03*
X166375000Y-58800000D03*
X165025000Y-58800000D03*
X165025000Y-58300000D03*
X165025000Y-57800000D03*
D13*
X130300000Y-45050000D03*
X130300000Y-45950000D03*
D26*
X118600000Y-100225000D03*
X118600000Y-101775000D03*
D19*
X208000000Y-101825000D03*
X208000000Y-103175000D03*
D11*
X168200000Y-73100000D03*
X167300000Y-73100000D03*
D20*
X114150000Y-118250000D03*
D21*
X112250000Y-118250000D03*
D20*
X116500000Y-148000000D03*
D21*
X118400000Y-148000000D03*
D11*
X131550000Y-75200000D03*
X132450000Y-75200000D03*
D16*
X167200000Y-89820000D03*
X167200000Y-91180000D03*
D39*
X164375000Y-60700000D03*
X163425000Y-60700000D03*
D27*
X117200000Y-128225000D03*
X117200000Y-129775000D03*
D39*
X116875000Y-104600000D03*
X117825000Y-104600000D03*
D23*
X125650000Y-148000000D03*
X124150000Y-148000000D03*
D22*
X136000000Y-87200000D03*
X136000000Y-86250000D03*
X136000000Y-85300000D03*
X138500000Y-85300000D03*
X138500000Y-86250000D03*
X138500000Y-87200000D03*
D11*
X109900000Y-112700000D03*
X110800000Y-112700000D03*
D20*
X121200000Y-134000000D03*
D21*
X123100000Y-134000000D03*
D12*
X166375000Y-43800000D03*
X166375000Y-44300000D03*
X166375000Y-44800000D03*
X165025000Y-44800000D03*
X165025000Y-44300000D03*
X165025000Y-43800000D03*
D13*
X166000000Y-75750000D03*
X166000000Y-76650000D03*
D18*
X115950000Y-113875000D03*
X115450000Y-113875000D03*
X114950000Y-113875000D03*
X114950000Y-112525000D03*
X115450000Y-112525000D03*
X115950000Y-112525000D03*
D24*
X164900000Y-62025000D03*
X164900000Y-62975000D03*
D13*
X163800000Y-76050000D03*
X163800000Y-76950000D03*
D23*
X127650000Y-132100000D03*
X126150000Y-132100000D03*
D11*
X113950000Y-112700000D03*
X113050000Y-112700000D03*
D13*
X166000000Y-61750000D03*
X166000000Y-62650000D03*
D19*
X89000000Y-131175000D03*
X89000000Y-129825000D03*
D17*
X134700000Y-90150000D03*
X134700000Y-91650000D03*
D19*
X211500000Y-129825000D03*
X211500000Y-131175000D03*
D25*
X116650000Y-145200000D03*
X118750000Y-145200000D03*
D12*
X134775000Y-46200000D03*
X134775000Y-46700000D03*
X134775000Y-47200000D03*
X133425000Y-47200000D03*
X133425000Y-46700000D03*
X133425000Y-46200000D03*
X166375000Y-71800000D03*
X166375000Y-72300000D03*
X166375000Y-72800000D03*
X165025000Y-72800000D03*
X165025000Y-72300000D03*
X165025000Y-71800000D03*
D13*
X114450000Y-115750000D03*
X114450000Y-114850000D03*
X124200000Y-127000000D03*
X124200000Y-127900000D03*
D24*
X141500000Y-74025000D03*
X141500000Y-74975000D03*
D18*
X115950000Y-99875000D03*
X115450000Y-99875000D03*
X114950000Y-99875000D03*
X114950000Y-98525000D03*
X115450000Y-98525000D03*
X115950000Y-98525000D03*
D11*
X113950000Y-140700000D03*
X113050000Y-140700000D03*
D24*
X141500000Y-88025000D03*
X141500000Y-88975000D03*
D13*
X140400000Y-88050000D03*
X140400000Y-87150000D03*
D23*
X133550000Y-87050000D03*
X135050000Y-87050000D03*
D19*
X92500000Y-117175000D03*
X92500000Y-115825000D03*
D24*
X164900000Y-90025000D03*
X164900000Y-90975000D03*
D13*
X120550000Y-145850000D03*
X120550000Y-146750000D03*
D11*
X134950000Y-57800000D03*
X134050000Y-57800000D03*
D13*
X124200000Y-141000000D03*
X124200000Y-141900000D03*
D11*
X168200000Y-59100000D03*
X167300000Y-59100000D03*
X113950000Y-113750000D03*
X113050000Y-113750000D03*
X113950000Y-126700000D03*
X113050000Y-126700000D03*
D28*
X121425000Y-129075000D03*
X121425000Y-129925000D03*
X122275000Y-129075000D03*
X122275000Y-129925000D03*
D29*
X120400000Y-130300000D03*
D30*
X120400000Y-129900000D03*
X120400000Y-129500000D03*
X120400000Y-129100000D03*
D31*
X120400000Y-128700000D03*
D32*
X121050000Y-128050000D03*
D33*
X121450000Y-128050000D03*
X121850000Y-128050000D03*
X122250000Y-128050000D03*
D34*
X122650000Y-128050000D03*
D35*
X123300000Y-128700000D03*
D30*
X123300000Y-129100000D03*
X123300000Y-129500000D03*
X123300000Y-129900000D03*
D36*
X123300000Y-130300000D03*
D37*
X122650000Y-130950000D03*
D33*
X122250000Y-130950000D03*
X121850000Y-130950000D03*
X121450000Y-130950000D03*
D38*
X121050000Y-130950000D03*
D20*
X112850000Y-106000000D03*
D21*
X114750000Y-106000000D03*
D23*
X117050000Y-98900000D03*
X118550000Y-98900000D03*
D16*
X164000000Y-44680000D03*
X164000000Y-43320000D03*
D20*
X112850000Y-134000000D03*
D21*
X114750000Y-134000000D03*
D20*
X114150000Y-104250000D03*
D21*
X112250000Y-104250000D03*
D13*
X124200000Y-99000000D03*
X124200000Y-99900000D03*
D20*
X116500000Y-106000000D03*
D21*
X118400000Y-106000000D03*
D11*
X138700000Y-74500000D03*
X137800000Y-74500000D03*
X164350000Y-73600000D03*
X163450000Y-73600000D03*
D23*
X174250000Y-59800000D03*
X172750000Y-59800000D03*
D11*
X109900000Y-140700000D03*
X110800000Y-140700000D03*
D13*
X161700000Y-72650000D03*
X161700000Y-71750000D03*
X162800000Y-57750000D03*
X162800000Y-58650000D03*
D12*
X166375000Y-85800000D03*
X166375000Y-86300000D03*
X166375000Y-86800000D03*
X165025000Y-86800000D03*
X165025000Y-86300000D03*
X165025000Y-85800000D03*
D23*
X174250000Y-75200000D03*
X172750000Y-75200000D03*
D39*
X164375000Y-46700000D03*
X163425000Y-46700000D03*
M02*
