G04 #@! TF.GenerationSoftware,KiCad,Pcbnew,9.0.8*
G04 #@! TF.CreationDate,2026-07-16T19:37:05+09:00*
G04 #@! TF.ProjectId,motordecoder2-t-dc30mra-panelized,6d6f746f-7264-4656-936f-646572322d74,rev?*
G04 #@! TF.SameCoordinates,Original*
G04 #@! TF.FileFunction,Soldermask,Top*
G04 #@! TF.FilePolarity,Negative*
%FSLAX46Y46*%
G04 Gerber Fmt 4.6, Leading zero omitted, Abs format (unit mm)*
G04 Created by KiCad (PCBNEW 9.0.8) date 2026-07-16 19:37:05*
%MOMM*%
%LPD*%
G01*
G04 APERTURE LIST*
G04 Aperture macros list*
%AMRoundRect*
0 Rectangle with rounded corners*
0 $1 Rounding radius*
0 $2 $3 $4 $5 $6 $7 $8 $9 X,Y pos of 4 corners*
0 Add a 4 corners polygon primitive as box body*
4,1,4,$2,$3,$4,$5,$6,$7,$8,$9,$2,$3,0*
0 Add four circle primitives for the rounded corners*
1,1,$1+$1,$2,$3*
1,1,$1+$1,$4,$5*
1,1,$1+$1,$6,$7*
1,1,$1+$1,$8,$9*
0 Add four rect primitives between the rounded corners*
20,1,$1+$1,$2,$3,$4,$5,0*
20,1,$1+$1,$4,$5,$6,$7,0*
20,1,$1+$1,$6,$7,$8,$9,0*
20,1,$1+$1,$8,$9,$2,$3,0*%
%AMFreePoly0*
4,1,14,0.334644,0.085355,0.385355,0.034644,0.400000,-0.000711,0.400000,-0.050000,0.385355,-0.085355,0.350000,-0.100000,-0.350000,-0.100000,-0.385355,-0.085355,-0.400000,-0.050000,-0.400000,0.050000,-0.385355,0.085355,-0.350000,0.100000,0.299289,0.100000,0.334644,0.085355,0.334644,0.085355,$1*%
%AMFreePoly1*
4,1,14,0.385355,0.085355,0.400000,0.050000,0.400000,0.000711,0.385355,-0.034644,0.334644,-0.085355,0.299289,-0.100000,-0.350000,-0.100000,-0.385355,-0.085355,-0.400000,-0.050000,-0.400000,0.050000,-0.385355,0.085355,-0.350000,0.100000,0.350000,0.100000,0.385355,0.085355,0.385355,0.085355,$1*%
%AMFreePoly2*
4,1,14,0.085355,0.385355,0.100000,0.350000,0.100000,-0.350000,0.085355,-0.385355,0.050000,-0.400000,-0.050000,-0.400000,-0.085355,-0.385355,-0.100000,-0.350000,-0.100000,0.299289,-0.085355,0.334644,-0.034644,0.385355,0.000711,0.400000,0.050000,0.400000,0.085355,0.385355,0.085355,0.385355,$1*%
%AMFreePoly3*
4,1,14,0.034644,0.385355,0.085355,0.334644,0.100000,0.299289,0.100000,-0.350000,0.085355,-0.385355,0.050000,-0.400000,-0.050000,-0.400000,-0.085355,-0.385355,-0.100000,-0.350000,-0.100000,0.350000,-0.085355,0.385355,-0.050000,0.400000,-0.000711,0.400000,0.034644,0.385355,0.034644,0.385355,$1*%
%AMFreePoly4*
4,1,14,0.385355,0.085355,0.400000,0.050000,0.400000,-0.050000,0.385355,-0.085355,0.350000,-0.100000,-0.299289,-0.100000,-0.334644,-0.085355,-0.385355,-0.034644,-0.400000,0.000711,-0.400000,0.050000,-0.385355,0.085355,-0.350000,0.100000,0.350000,0.100000,0.385355,0.085355,0.385355,0.085355,$1*%
%AMFreePoly5*
4,1,14,0.385355,0.085355,0.400000,0.050000,0.400000,-0.050000,0.385355,-0.085355,0.350000,-0.100000,-0.350000,-0.100000,-0.385355,-0.085355,-0.400000,-0.050000,-0.400000,-0.000711,-0.385355,0.034644,-0.334644,0.085355,-0.299289,0.100000,0.350000,0.100000,0.385355,0.085355,0.385355,0.085355,$1*%
%AMFreePoly6*
4,1,14,0.085355,0.385355,0.100000,0.350000,0.100000,-0.299289,0.085355,-0.334644,0.034644,-0.385355,-0.000711,-0.400000,-0.050000,-0.400000,-0.085355,-0.385355,-0.100000,-0.350000,-0.100000,0.350000,-0.085355,0.385355,-0.050000,0.400000,0.050000,0.400000,0.085355,0.385355,0.085355,0.385355,$1*%
%AMFreePoly7*
4,1,14,0.085355,0.385355,0.100000,0.350000,0.100000,-0.350000,0.085355,-0.385355,0.050000,-0.400000,0.000711,-0.400000,-0.034644,-0.385355,-0.085355,-0.334644,-0.100000,-0.299289,-0.100000,0.350000,-0.085355,0.385355,-0.050000,0.400000,0.050000,0.400000,0.085355,0.385355,0.085355,0.385355,$1*%
%AMFreePoly8*
4,1,47,0.149899,0.332478,0.291718,0.280861,0.417811,0.197929,0.521379,0.088154,0.596839,-0.042547,0.636960,-0.176560,0.637078,-0.176678,0.637078,-0.176952,0.640124,-0.187127,0.637078,-0.208803,0.637078,-0.214946,0.636073,-0.215950,0.635824,-0.217728,0.614358,-0.239957,0.611576,-0.240447,0.610018,-0.242006,0.590884,-0.245812,-0.590884,-0.245812,-0.610018,-0.242006,-0.611574,-0.240449,
-0.614358,-0.239959,-0.635824,-0.217731,-0.636074,-0.215949,-0.637078,-0.214946,-0.637078,-0.208806,-0.640124,-0.187130,-0.637078,-0.176955,-0.637078,-0.176678,-0.636959,-0.176559,-0.627754,-0.145812,-0.531220,-0.145812,-0.527837,-0.145812,0.527837,-0.145812,0.531220,-0.145812,0.530204,-0.140096,0.527837,-0.145812,-0.527837,-0.145812,-0.530204,-0.140095,-0.531220,-0.145812,-0.627754,-0.145812,
-0.596840,-0.042549,-0.521380,0.088152,-0.417812,0.197928,-0.291720,0.280860,-0.149901,0.332478,-0.000001,0.349999,0.149899,0.332478,0.149899,0.332478,$1*%
G04 Aperture macros list end*
%ADD10C,0.500000*%
%ADD11C,0.250000*%
%ADD12C,0.200000*%
%ADD13R,0.400000X0.600000*%
%ADD14R,0.600000X1.000000*%
%ADD15FreePoly0,0.000000*%
%ADD16RoundRect,0.050000X-0.350000X-0.050000X0.350000X-0.050000X0.350000X0.050000X-0.350000X0.050000X0*%
%ADD17FreePoly1,0.000000*%
%ADD18FreePoly2,0.000000*%
%ADD19RoundRect,0.050000X-0.050000X-0.350000X0.050000X-0.350000X0.050000X0.350000X-0.050000X0.350000X0*%
%ADD20FreePoly3,0.000000*%
%ADD21FreePoly4,0.000000*%
%ADD22FreePoly5,0.000000*%
%ADD23FreePoly6,0.000000*%
%ADD24FreePoly7,0.000000*%
%ADD25R,1.700000X1.700000*%
%ADD26R,0.600000X0.400000*%
%ADD27R,0.800000X0.900000*%
%ADD28R,0.500000X0.900000*%
%ADD29R,0.800000X0.650000*%
%ADD30R,0.700000X0.700000*%
%ADD31R,0.550000X0.500000*%
%ADD32C,2.000000*%
%ADD33R,0.450000X0.300000*%
%ADD34R,0.800000X0.800000*%
%ADD35R,0.400000X0.450000*%
%ADD36R,0.500000X0.450000*%
%ADD37R,0.300000X0.450000*%
%ADD38R,2.000000X1.100000*%
%ADD39R,0.800000X1.100000*%
%ADD40R,1.300000X1.300000*%
%ADD41R,0.950000X0.950000*%
%ADD42R,1.000000X0.600000*%
%ADD43R,1.800000X1.000000*%
%ADD44R,0.520000X0.450000*%
%ADD45C,1.300000*%
%ADD46R,0.500000X0.550000*%
%ADD47R,0.700000X0.800000*%
%ADD48FreePoly8,270.000000*%
%ADD49FreePoly8,90.000000*%
%ADD50FreePoly0,180.000000*%
%ADD51RoundRect,0.050000X0.350000X0.050000X-0.350000X0.050000X-0.350000X-0.050000X0.350000X-0.050000X0*%
%ADD52FreePoly1,180.000000*%
%ADD53FreePoly2,180.000000*%
%ADD54RoundRect,0.050000X0.050000X0.350000X-0.050000X0.350000X-0.050000X-0.350000X0.050000X-0.350000X0*%
%ADD55FreePoly3,180.000000*%
%ADD56FreePoly4,180.000000*%
%ADD57FreePoly5,180.000000*%
%ADD58FreePoly6,180.000000*%
%ADD59FreePoly7,180.000000*%
G04 APERTURE END LIST*
D10*
X100750000Y-34250000D02*
X103250000Y-34250000D01*
X100750000Y-38750000D02*
G75*
G02*
X100750000Y-34250000I0J2250000D01*
G01*
X100750000Y-38750000D02*
X103250000Y-38750000D01*
X100750000Y-48250000D02*
X103250000Y-48250000D01*
X100750000Y-52750000D02*
G75*
G02*
X100750000Y-48250000I0J2250000D01*
G01*
X100750000Y-52750000D02*
X103250000Y-52750000D01*
X100750000Y-62250000D02*
X103250000Y-62250000D01*
X100750000Y-66750000D02*
G75*
G02*
X100750000Y-62250000I0J2250000D01*
G01*
X100750000Y-66750000D02*
X103250000Y-66750000D01*
X100750000Y-76250000D02*
X103250000Y-76250000D01*
X100750000Y-80750000D02*
G75*
G02*
X100750000Y-76250000I0J2250000D01*
G01*
X100750000Y-80750000D02*
X103250000Y-80750000D01*
X100750000Y-94750000D02*
G75*
G02*
X100750000Y-90250000I0J2250000D01*
G01*
X100750000Y-108750000D02*
G75*
G02*
X100750000Y-104250000I0J2250000D01*
G01*
X100750000Y-122750000D02*
G75*
G02*
X100750000Y-118250000I0J2250000D01*
G01*
X100750000Y-136750000D02*
G75*
G02*
X100750000Y-132250000I0J2250000D01*
G01*
X103250000Y-34250000D02*
G75*
G02*
X103250000Y-38750000I0J-2250000D01*
G01*
X103250000Y-48250000D02*
G75*
G02*
X103250000Y-52750000I0J-2250000D01*
G01*
X103250000Y-62250000D02*
G75*
G02*
X103250000Y-66750000I0J-2250000D01*
G01*
X103250000Y-76250000D02*
G75*
G02*
X103250000Y-80750000I0J-2250000D01*
G01*
X103250000Y-90250000D02*
G75*
G02*
X103250000Y-94750000I0J-2250000D01*
G01*
X103250000Y-104250000D02*
G75*
G02*
X103250000Y-108750000I0J-2250000D01*
G01*
X103250000Y-118250000D02*
G75*
G02*
X103250000Y-122750000I0J-2250000D01*
G01*
X103250000Y-132250000D02*
G75*
G02*
X103250000Y-136750000I0J-2250000D01*
G01*
X194750000Y-38750000D02*
G75*
G02*
X194750000Y-34250000I0J2250000D01*
G01*
X194750000Y-52750000D02*
G75*
G02*
X194750000Y-48250000I0J2250000D01*
G01*
X194750000Y-66750000D02*
G75*
G02*
X194750000Y-62250000I0J2250000D01*
G01*
X194750000Y-80750000D02*
G75*
G02*
X194750000Y-76250000I0J2250000D01*
G01*
X194750000Y-94750000D02*
G75*
G02*
X194750000Y-90250000I0J2250000D01*
G01*
X194750000Y-108750000D02*
G75*
G02*
X194750000Y-104250000I0J2250000D01*
G01*
X194750000Y-122750000D02*
G75*
G02*
X194750000Y-118250000I0J2250000D01*
G01*
X194750000Y-136750000D02*
G75*
G02*
X194750000Y-132250000I0J2250000D01*
G01*
X197250000Y-34250000D02*
G75*
G02*
X197250000Y-38750000I0J-2250000D01*
G01*
X197250000Y-48250000D02*
G75*
G02*
X197250000Y-52750000I0J-2250000D01*
G01*
X197250000Y-62250000D02*
G75*
G02*
X197250000Y-66750000I0J-2250000D01*
G01*
X197250000Y-76250000D02*
G75*
G02*
X197250000Y-80750000I0J-2250000D01*
G01*
X197250000Y-90250000D02*
X194750000Y-90250000D01*
X197250000Y-90250000D02*
G75*
G02*
X197250000Y-94750000I0J-2250000D01*
G01*
X197250000Y-94750000D02*
X194750000Y-94750000D01*
X197250000Y-104250000D02*
X194750000Y-104250000D01*
X197250000Y-104250000D02*
G75*
G02*
X197250000Y-108750000I0J-2250000D01*
G01*
X197250000Y-108750000D02*
X194750000Y-108750000D01*
X197250000Y-118250000D02*
X194750000Y-118250000D01*
X197250000Y-118250000D02*
G75*
G02*
X197250000Y-122750000I0J-2250000D01*
G01*
X197250000Y-122750000D02*
X194750000Y-122750000D01*
X197250000Y-132250000D02*
X194750000Y-132250000D01*
X197250000Y-132250000D02*
G75*
G02*
X197250000Y-136750000I0J-2250000D01*
G01*
X197250000Y-136750000D02*
X194750000Y-136750000D01*
D11*
X127600000Y-102400000D02*
X127600000Y-103400000D01*
D12*
X127350262Y-102399870D02*
G75*
G02*
X127849999Y-102400000I249738J-500130D01*
G01*
X127849737Y-103400130D02*
G75*
G02*
X127350001Y-103399999I-249737J500130D01*
G01*
D11*
X127600000Y-130400000D02*
X127600000Y-131400000D01*
D12*
X127350262Y-130399870D02*
G75*
G02*
X127849999Y-130400000I249738J-500130D01*
G01*
X127849737Y-131400130D02*
G75*
G02*
X127350001Y-131399999I-249737J500130D01*
G01*
D11*
X127600000Y-88400000D02*
X127600000Y-89400000D01*
D12*
X127350262Y-88399870D02*
G75*
G02*
X127849999Y-88400000I249738J-500130D01*
G01*
X127849737Y-89400130D02*
G75*
G02*
X127350001Y-89399999I-249737J500130D01*
G01*
D11*
X127600000Y-116400000D02*
X127600000Y-117400000D01*
D12*
X127350262Y-116399870D02*
G75*
G02*
X127849999Y-116400000I249738J-500130D01*
G01*
X127849737Y-117400130D02*
G75*
G02*
X127350001Y-117399999I-249737J500130D01*
G01*
D11*
X170400000Y-68600000D02*
X170400000Y-67600000D01*
D12*
X170150263Y-67599870D02*
G75*
G02*
X170649999Y-67600001I249737J-500130D01*
G01*
X170649738Y-68600130D02*
G75*
G02*
X170150001Y-68600000I-249738J500130D01*
G01*
D11*
X170400000Y-54600000D02*
X170400000Y-53600000D01*
D12*
X170150263Y-53599870D02*
G75*
G02*
X170649999Y-53600001I249737J-500130D01*
G01*
X170649738Y-54600130D02*
G75*
G02*
X170150001Y-54600000I-249738J500130D01*
G01*
D11*
X170400000Y-40600000D02*
X170400000Y-39600000D01*
D12*
X170150263Y-39599870D02*
G75*
G02*
X170649999Y-39600001I249737J-500130D01*
G01*
X170649738Y-40600130D02*
G75*
G02*
X170150001Y-40600000I-249738J500130D01*
G01*
D11*
X170400000Y-82600000D02*
X170400000Y-81600000D01*
D12*
X170150263Y-81599870D02*
G75*
G02*
X170649999Y-81600001I249737J-500130D01*
G01*
X170649738Y-82600130D02*
G75*
G02*
X170150001Y-82600000I-249738J500130D01*
G01*
D13*
X171750000Y-82200000D03*
X172650000Y-82200000D03*
D14*
X186600000Y-104400000D03*
D13*
X110450000Y-54300000D03*
X111350000Y-54300000D03*
D15*
X120950000Y-36700000D03*
D16*
X120950000Y-37100000D03*
X120950000Y-37500000D03*
X120950000Y-37900000D03*
D17*
X120950000Y-38300000D03*
D18*
X121600000Y-38950000D03*
D19*
X122000000Y-38950000D03*
X122400000Y-38950000D03*
X122800000Y-38950000D03*
D20*
X123200000Y-38950000D03*
D21*
X123850000Y-38300000D03*
D16*
X123850000Y-37900000D03*
X123850000Y-37500000D03*
X123850000Y-37100000D03*
D22*
X123850000Y-36700000D03*
D23*
X123200000Y-36050000D03*
D19*
X122800000Y-36050000D03*
X122400000Y-36050000D03*
X122000000Y-36050000D03*
D24*
X121600000Y-36050000D03*
D25*
X122400000Y-37500000D03*
D26*
X182250000Y-51950000D03*
X182250000Y-52850000D03*
D27*
X180800000Y-135200000D03*
X178700000Y-135200000D03*
D13*
X124450000Y-116800000D03*
X123550000Y-116800000D03*
D26*
X172100000Y-80850000D03*
X172100000Y-79950000D03*
D28*
X176300000Y-51700000D03*
X177800000Y-51700000D03*
D29*
X92500000Y-136825000D03*
X92500000Y-138175000D03*
D30*
X178600000Y-78450000D03*
X179550000Y-78450000D03*
X180500000Y-78450000D03*
X180500000Y-75950000D03*
X179550000Y-75950000D03*
X178600000Y-75950000D03*
D26*
X176950000Y-135850000D03*
X176950000Y-136750000D03*
X172100000Y-38850000D03*
X172100000Y-37950000D03*
D31*
X182825000Y-48800000D03*
X181875000Y-48800000D03*
D28*
X112800000Y-124200000D03*
X114300000Y-124200000D03*
D26*
X173200000Y-103050000D03*
X173200000Y-103950000D03*
D32*
X211000000Y-106250000D03*
D33*
X185425000Y-91700000D03*
X185425000Y-91200000D03*
X185425000Y-90700000D03*
X184075000Y-90700000D03*
X184075000Y-91200000D03*
X184075000Y-91700000D03*
D34*
X117700000Y-66775000D03*
X117700000Y-65225000D03*
D32*
X211000000Y-134250000D03*
D35*
X115850000Y-66275000D03*
X116650000Y-66275000D03*
D36*
X116250000Y-65125000D03*
D37*
X110650000Y-138375000D03*
X111150000Y-138375000D03*
X111650000Y-138375000D03*
X111650000Y-137025000D03*
X111150000Y-137025000D03*
X110650000Y-137025000D03*
D38*
X113250000Y-75000000D03*
D39*
X115150000Y-75000000D03*
D28*
X176300000Y-37700000D03*
X177800000Y-37700000D03*
D29*
X205500000Y-62175000D03*
X205500000Y-60825000D03*
D13*
X184700000Y-63800000D03*
X183800000Y-63800000D03*
D28*
X180900000Y-102900000D03*
X179400000Y-102900000D03*
D26*
X128100000Y-105050000D03*
X128100000Y-104150000D03*
X178850000Y-51450000D03*
X178850000Y-52350000D03*
D37*
X181850000Y-103875000D03*
X182350000Y-103875000D03*
X182850000Y-103875000D03*
X182850000Y-102525000D03*
X182350000Y-102525000D03*
X181850000Y-102525000D03*
D26*
X119150000Y-119550000D03*
X119150000Y-118650000D03*
X124800000Y-67950000D03*
X124800000Y-67050000D03*
D40*
X97900000Y-62100000D03*
D28*
X121700000Y-119300000D03*
X120200000Y-119300000D03*
D13*
X179000000Y-40300000D03*
X179900000Y-40300000D03*
D41*
X132365000Y-77400000D03*
X133635000Y-77400000D03*
D26*
X177400000Y-77550000D03*
X177400000Y-78450000D03*
D29*
X205500000Y-48175000D03*
X205500000Y-46825000D03*
D26*
X178050000Y-95450000D03*
X178050000Y-94550000D03*
D28*
X176300000Y-65700000D03*
X177800000Y-65700000D03*
D27*
X117200000Y-49800000D03*
X119300000Y-49800000D03*
D28*
X121700000Y-91300000D03*
X120200000Y-91300000D03*
D38*
X117000000Y-47000000D03*
D39*
X118900000Y-47000000D03*
D26*
X115750000Y-119050000D03*
X115750000Y-118150000D03*
D38*
X181000000Y-138000000D03*
D39*
X179100000Y-138000000D03*
D31*
X117375000Y-76400000D03*
X118325000Y-76400000D03*
D42*
X182250000Y-74600000D03*
D33*
X181325000Y-39100000D03*
X181325000Y-38600000D03*
X181325000Y-38100000D03*
X179975000Y-38100000D03*
X179975000Y-38600000D03*
X179975000Y-39100000D03*
D43*
X106400000Y-75100000D03*
D33*
X185425000Y-119700000D03*
X185425000Y-119200000D03*
X185425000Y-118700000D03*
X184075000Y-118700000D03*
X184075000Y-119200000D03*
X184075000Y-119700000D03*
D32*
X211000000Y-92250000D03*
D44*
X115770000Y-88700000D03*
X117130000Y-88700000D03*
D13*
X123550000Y-89900000D03*
X124450000Y-89900000D03*
D38*
X184750000Y-138000000D03*
D39*
X182850000Y-138000000D03*
D33*
X112575000Y-51300000D03*
X112575000Y-51800000D03*
X112575000Y-52300000D03*
X113925000Y-52300000D03*
X113925000Y-51800000D03*
X113925000Y-51300000D03*
D29*
X205500000Y-132175000D03*
X205500000Y-130825000D03*
D13*
X179000000Y-82300000D03*
X179900000Y-82300000D03*
D28*
X185300000Y-48400000D03*
X183800000Y-48400000D03*
D43*
X106400000Y-47100000D03*
D45*
X131250000Y-120500000D03*
D13*
X184700000Y-77800000D03*
X183800000Y-77800000D03*
D26*
X182250000Y-37950000D03*
X182250000Y-38850000D03*
D30*
X178600000Y-50450000D03*
X179550000Y-50450000D03*
X180500000Y-50450000D03*
X180500000Y-47950000D03*
X179550000Y-47950000D03*
X178600000Y-47950000D03*
D26*
X120200000Y-117650000D03*
X120200000Y-116750000D03*
D40*
X158900000Y-117700000D03*
D13*
X124450000Y-130800000D03*
X123550000Y-130800000D03*
D38*
X121700000Y-33000000D03*
D39*
X123600000Y-33000000D03*
D32*
X87000000Y-50750000D03*
D28*
X185200000Y-74800000D03*
X183700000Y-74800000D03*
D38*
X181000000Y-110000000D03*
D39*
X179100000Y-110000000D03*
D37*
X116150000Y-39125000D03*
X115650000Y-39125000D03*
X115150000Y-39125000D03*
X115150000Y-40475000D03*
X115650000Y-40475000D03*
X116150000Y-40475000D03*
D26*
X124800000Y-39950000D03*
X124800000Y-39050000D03*
X110500000Y-81250000D03*
X110500000Y-80350000D03*
D40*
X97900000Y-54400000D03*
D46*
X183150000Y-68475000D03*
X183150000Y-67525000D03*
D28*
X112800000Y-110200000D03*
X114300000Y-110200000D03*
D13*
X173550000Y-68200000D03*
X174450000Y-68200000D03*
D32*
X87000000Y-64750000D03*
D29*
X92500000Y-94825000D03*
X92500000Y-96175000D03*
D13*
X119000000Y-116700000D03*
X118100000Y-116700000D03*
D33*
X170925000Y-110300000D03*
X170925000Y-109800000D03*
X170925000Y-109300000D03*
X169575000Y-109300000D03*
X169575000Y-109800000D03*
X169575000Y-110300000D03*
D46*
X183150000Y-40475000D03*
X183150000Y-39525000D03*
D29*
X205500000Y-65175000D03*
X205500000Y-63825000D03*
D13*
X115100000Y-121200000D03*
X116000000Y-121200000D03*
D27*
X117200000Y-77800000D03*
X119300000Y-77800000D03*
D15*
X120950000Y-50700000D03*
D16*
X120950000Y-51100000D03*
X120950000Y-51500000D03*
X120950000Y-51900000D03*
D17*
X120950000Y-52300000D03*
D18*
X121600000Y-52950000D03*
D19*
X122000000Y-52950000D03*
X122400000Y-52950000D03*
X122800000Y-52950000D03*
D20*
X123200000Y-52950000D03*
D21*
X123850000Y-52300000D03*
D16*
X123850000Y-51900000D03*
X123850000Y-51500000D03*
X123850000Y-51100000D03*
D22*
X123850000Y-50700000D03*
D23*
X123200000Y-50050000D03*
D19*
X122800000Y-50050000D03*
X122400000Y-50050000D03*
X122000000Y-50050000D03*
D24*
X121600000Y-50050000D03*
D25*
X122400000Y-51500000D03*
D26*
X128100000Y-119050000D03*
X128100000Y-118150000D03*
D44*
X115070000Y-123400000D03*
X116430000Y-123400000D03*
D31*
X180625000Y-136600000D03*
X179675000Y-136600000D03*
D26*
X177400000Y-35550000D03*
X177400000Y-36450000D03*
D14*
X111400000Y-52600000D03*
D32*
X211000000Y-50250000D03*
D13*
X182900000Y-63800000D03*
X182000000Y-63800000D03*
D44*
X182930000Y-33600000D03*
X181570000Y-33600000D03*
D46*
X183150000Y-54475000D03*
X183150000Y-53525000D03*
D26*
X171000000Y-80850000D03*
X171000000Y-79950000D03*
X183050000Y-105750000D03*
X183050000Y-104850000D03*
D28*
X174950000Y-51800000D03*
X173450000Y-51800000D03*
D13*
X123550000Y-117900000D03*
X124450000Y-117900000D03*
D35*
X115850000Y-80275000D03*
X116650000Y-80275000D03*
D36*
X116250000Y-79125000D03*
D26*
X113850000Y-88500000D03*
X113850000Y-89400000D03*
X127000000Y-90150000D03*
X127000000Y-91050000D03*
D13*
X187550000Y-102700000D03*
X186650000Y-102700000D03*
D26*
X112750000Y-131400000D03*
X112750000Y-130500000D03*
D34*
X180300000Y-118225000D03*
X180300000Y-119775000D03*
D40*
X200100000Y-136900000D03*
D13*
X174450000Y-67100000D03*
X173550000Y-67100000D03*
D28*
X171800000Y-138000000D03*
X173300000Y-138000000D03*
D35*
X115850000Y-52275000D03*
X116650000Y-52275000D03*
D36*
X116250000Y-51125000D03*
D13*
X119000000Y-102700000D03*
X118100000Y-102700000D03*
D26*
X114750000Y-104350000D03*
X114750000Y-105250000D03*
X114950000Y-79250000D03*
X114950000Y-80150000D03*
D13*
X126250000Y-130800000D03*
X125350000Y-130800000D03*
D28*
X123050000Y-91200000D03*
X124550000Y-91200000D03*
D14*
X111400000Y-38600000D03*
D29*
X92500000Y-77825000D03*
X92500000Y-79175000D03*
D26*
X112750000Y-117400000D03*
X112750000Y-116500000D03*
X171000000Y-52850000D03*
X171000000Y-51950000D03*
D33*
X116675000Y-117900000D03*
X116675000Y-118400000D03*
X116675000Y-118900000D03*
X118025000Y-118900000D03*
X118025000Y-118400000D03*
X118025000Y-117900000D03*
D37*
X121500000Y-103975000D03*
X122000000Y-103975000D03*
X122500000Y-103975000D03*
X122500000Y-102625000D03*
X122000000Y-102625000D03*
X121500000Y-102625000D03*
D31*
X117375000Y-34400000D03*
X118325000Y-34400000D03*
D42*
X115750000Y-138400000D03*
D28*
X112800000Y-138200000D03*
X114300000Y-138200000D03*
D33*
X112475000Y-118250000D03*
X112475000Y-118750000D03*
X112475000Y-119250000D03*
X113825000Y-119250000D03*
X113825000Y-118750000D03*
X113825000Y-118250000D03*
D46*
X183150000Y-82475000D03*
X183150000Y-81525000D03*
D13*
X187550000Y-116700000D03*
X186650000Y-116700000D03*
D33*
X112475000Y-90250000D03*
X112475000Y-90750000D03*
X112475000Y-91250000D03*
X113825000Y-91250000D03*
X113825000Y-90750000D03*
X113825000Y-90250000D03*
D13*
X115100000Y-135200000D03*
X116000000Y-135200000D03*
D27*
X180800000Y-121200000D03*
X178700000Y-121200000D03*
D29*
X205500000Y-76175000D03*
X205500000Y-74825000D03*
D32*
X87000000Y-134750000D03*
D34*
X117700000Y-80775000D03*
X117700000Y-79225000D03*
D26*
X187500000Y-89750000D03*
X187500000Y-90650000D03*
D38*
X181000000Y-124000000D03*
D39*
X179100000Y-124000000D03*
D40*
X97900000Y-40400000D03*
D41*
X165635000Y-135600000D03*
X164365000Y-135600000D03*
D28*
X171800000Y-124000000D03*
X173300000Y-124000000D03*
D37*
X176500000Y-81025000D03*
X176000000Y-81025000D03*
X175500000Y-81025000D03*
X175500000Y-82375000D03*
X176000000Y-82375000D03*
X176500000Y-82375000D03*
D41*
X165635000Y-107600000D03*
X164365000Y-107600000D03*
D42*
X182250000Y-46600000D03*
D28*
X169700000Y-108100000D03*
X171200000Y-108100000D03*
D26*
X121050000Y-63150000D03*
X121050000Y-62250000D03*
D45*
X131250000Y-134500000D03*
D42*
X115750000Y-96400000D03*
D32*
X87000000Y-92750000D03*
D13*
X124450000Y-88800000D03*
X123550000Y-88800000D03*
D28*
X126200000Y-47000000D03*
X124700000Y-47000000D03*
D26*
X114150000Y-68300000D03*
X114150000Y-67400000D03*
D35*
X182150000Y-118725000D03*
X181350000Y-118725000D03*
D36*
X181750000Y-119875000D03*
D43*
X191750000Y-117500000D03*
D42*
X182250000Y-32600000D03*
D14*
X186600000Y-90400000D03*
D26*
X115750000Y-91050000D03*
X115750000Y-90150000D03*
D44*
X115070000Y-95400000D03*
X116430000Y-95400000D03*
D40*
X139100000Y-67300000D03*
D26*
X183850000Y-102700000D03*
X183850000Y-103600000D03*
D13*
X126250000Y-102800000D03*
X125350000Y-102800000D03*
D26*
X119950000Y-47550000D03*
X119950000Y-48450000D03*
D38*
X176300000Y-138000000D03*
D39*
X174400000Y-138000000D03*
D31*
X115175000Y-108200000D03*
X116125000Y-108200000D03*
X115175000Y-136200000D03*
X116125000Y-136200000D03*
D30*
X178600000Y-64450000D03*
X179550000Y-64450000D03*
X180500000Y-64450000D03*
X180500000Y-61950000D03*
X179550000Y-61950000D03*
X178600000Y-61950000D03*
D13*
X110450000Y-82300000D03*
X111350000Y-82300000D03*
D47*
X178850000Y-104225000D03*
X178850000Y-105775000D03*
X178850000Y-118225000D03*
X178850000Y-119775000D03*
D41*
X132365000Y-35400000D03*
X133635000Y-35400000D03*
D33*
X170925000Y-138300000D03*
X170925000Y-137800000D03*
X170925000Y-137300000D03*
X169575000Y-137300000D03*
X169575000Y-137800000D03*
X169575000Y-138300000D03*
D26*
X114950000Y-37250000D03*
X114950000Y-38150000D03*
D13*
X113300000Y-121200000D03*
X114200000Y-121200000D03*
D26*
X115750000Y-133050000D03*
X115750000Y-132150000D03*
D48*
X127950000Y-102900000D03*
D49*
X127250000Y-102900000D03*
D44*
X115770000Y-116700000D03*
X117130000Y-116700000D03*
D31*
X182825000Y-34800000D03*
X181875000Y-34800000D03*
D35*
X112900000Y-81325000D03*
X112100000Y-81325000D03*
D36*
X112500000Y-82475000D03*
D34*
X180300000Y-104225000D03*
X180300000Y-105775000D03*
D26*
X172100000Y-52850000D03*
X172100000Y-51950000D03*
D47*
X119150000Y-52775000D03*
X119150000Y-51225000D03*
D26*
X120200000Y-103650000D03*
X120200000Y-102750000D03*
D43*
X106250000Y-53500000D03*
D26*
X120600000Y-107450000D03*
X120600000Y-106550000D03*
D13*
X113300000Y-93200000D03*
X114200000Y-93200000D03*
D33*
X127075000Y-60700000D03*
X127075000Y-61200000D03*
X127075000Y-61700000D03*
X128425000Y-61700000D03*
X128425000Y-61200000D03*
X128425000Y-60700000D03*
D26*
X171000000Y-38850000D03*
X171000000Y-37950000D03*
D30*
X123700000Y-120550000D03*
X122750000Y-120550000D03*
X121800000Y-120550000D03*
X121800000Y-123050000D03*
X122750000Y-123050000D03*
X123700000Y-123050000D03*
D38*
X114550000Y-76750000D03*
D39*
X112650000Y-76750000D03*
D38*
X183450000Y-136250000D03*
D39*
X185350000Y-136250000D03*
D38*
X176300000Y-96000000D03*
D39*
X174400000Y-96000000D03*
D26*
X187500000Y-103750000D03*
X187500000Y-104650000D03*
D35*
X115850000Y-38275000D03*
X116650000Y-38275000D03*
D36*
X116250000Y-37125000D03*
D28*
X112700000Y-122600000D03*
X114200000Y-122600000D03*
D38*
X114550000Y-34750000D03*
D39*
X112650000Y-34750000D03*
D47*
X119150000Y-66775000D03*
X119150000Y-65225000D03*
D29*
X92500000Y-63825000D03*
X92500000Y-65175000D03*
D13*
X174450000Y-81100000D03*
X173550000Y-81100000D03*
D30*
X174300000Y-78450000D03*
X175250000Y-78450000D03*
X176200000Y-78450000D03*
X176200000Y-75950000D03*
X175250000Y-75950000D03*
X174300000Y-75950000D03*
D26*
X176950000Y-121850000D03*
X176950000Y-122750000D03*
D28*
X174950000Y-79800000D03*
X173450000Y-79800000D03*
D40*
X158950000Y-139300000D03*
D26*
X169900000Y-51950000D03*
X169900000Y-52850000D03*
D13*
X174450000Y-53100000D03*
X173550000Y-53100000D03*
D37*
X176500000Y-67025000D03*
X176000000Y-67025000D03*
X175500000Y-67025000D03*
X175500000Y-68375000D03*
X176000000Y-68375000D03*
X176500000Y-68375000D03*
D26*
X127000000Y-118150000D03*
X127000000Y-119050000D03*
X177800000Y-53350000D03*
X177800000Y-54250000D03*
D40*
X97900000Y-48100000D03*
D33*
X127075000Y-32700000D03*
X127075000Y-33200000D03*
X127075000Y-33700000D03*
X128425000Y-33700000D03*
X128425000Y-33200000D03*
X128425000Y-32700000D03*
D28*
X112700000Y-136600000D03*
X114200000Y-136600000D03*
D45*
X166750000Y-78500000D03*
D29*
X92500000Y-105825000D03*
X92500000Y-107175000D03*
D37*
X181850000Y-89875000D03*
X182350000Y-89875000D03*
X182850000Y-89875000D03*
X182850000Y-88525000D03*
X182350000Y-88525000D03*
X181850000Y-88525000D03*
D35*
X112900000Y-39325000D03*
X112100000Y-39325000D03*
D36*
X112500000Y-40475000D03*
D33*
X112475000Y-104250000D03*
X112475000Y-104750000D03*
X112475000Y-105250000D03*
X113825000Y-105250000D03*
X113825000Y-104750000D03*
X113825000Y-104250000D03*
D26*
X113850000Y-116500000D03*
X113850000Y-117400000D03*
D43*
X106250000Y-39500000D03*
D29*
X205500000Y-93175000D03*
X205500000Y-91825000D03*
D13*
X115100000Y-107200000D03*
X116000000Y-107200000D03*
D38*
X117000000Y-61000000D03*
D39*
X118900000Y-61000000D03*
D33*
X185525000Y-80750000D03*
X185525000Y-80250000D03*
X185525000Y-79750000D03*
X184175000Y-79750000D03*
X184175000Y-80250000D03*
X184175000Y-80750000D03*
D38*
X183450000Y-122250000D03*
D39*
X185350000Y-122250000D03*
D46*
X114850000Y-130525000D03*
X114850000Y-131475000D03*
D43*
X106250000Y-81500000D03*
D30*
X123700000Y-106550000D03*
X122750000Y-106550000D03*
X121800000Y-106550000D03*
X121800000Y-109050000D03*
X122750000Y-109050000D03*
X123700000Y-109050000D03*
D44*
X182230000Y-54300000D03*
X180870000Y-54300000D03*
D28*
X112700000Y-94600000D03*
X114200000Y-94600000D03*
D26*
X127000000Y-104150000D03*
X127000000Y-105050000D03*
D29*
X205500000Y-121175000D03*
X205500000Y-119825000D03*
D30*
X174300000Y-36450000D03*
X175250000Y-36450000D03*
X176200000Y-36450000D03*
X176200000Y-33950000D03*
X175250000Y-33950000D03*
X174300000Y-33950000D03*
D29*
X205500000Y-135175000D03*
X205500000Y-133825000D03*
D28*
X169700000Y-94100000D03*
X171200000Y-94100000D03*
D40*
X200100000Y-130600000D03*
D15*
X120950000Y-78700000D03*
D16*
X120950000Y-79100000D03*
X120950000Y-79500000D03*
X120950000Y-79900000D03*
D17*
X120950000Y-80300000D03*
D18*
X121600000Y-80950000D03*
D19*
X122000000Y-80950000D03*
X122400000Y-80950000D03*
X122800000Y-80950000D03*
D20*
X123200000Y-80950000D03*
D21*
X123850000Y-80300000D03*
D16*
X123850000Y-79900000D03*
X123850000Y-79500000D03*
X123850000Y-79100000D03*
D22*
X123850000Y-78700000D03*
D23*
X123200000Y-78050000D03*
D19*
X122800000Y-78050000D03*
X122400000Y-78050000D03*
X122000000Y-78050000D03*
D24*
X121600000Y-78050000D03*
D25*
X122400000Y-79500000D03*
D44*
X182930000Y-75600000D03*
X181570000Y-75600000D03*
X115070000Y-137400000D03*
X116430000Y-137400000D03*
D26*
X119950000Y-61550000D03*
X119950000Y-62450000D03*
D35*
X185100000Y-117675000D03*
X185900000Y-117675000D03*
D36*
X185500000Y-116525000D03*
D37*
X181850000Y-117875000D03*
X182350000Y-117875000D03*
X182850000Y-117875000D03*
X182850000Y-116525000D03*
X182350000Y-116525000D03*
X181850000Y-116525000D03*
D26*
X110500000Y-39250000D03*
X110500000Y-38350000D03*
D40*
X139100000Y-81300000D03*
D33*
X112575000Y-79300000D03*
X112575000Y-79800000D03*
X112575000Y-80300000D03*
X113925000Y-80300000D03*
X113925000Y-79800000D03*
X113925000Y-79300000D03*
D26*
X125900000Y-104150000D03*
X125900000Y-105050000D03*
D15*
X120950000Y-64700000D03*
D16*
X120950000Y-65100000D03*
X120950000Y-65500000D03*
X120950000Y-65900000D03*
D17*
X120950000Y-66300000D03*
D18*
X121600000Y-66950000D03*
D19*
X122000000Y-66950000D03*
X122400000Y-66950000D03*
X122800000Y-66950000D03*
D20*
X123200000Y-66950000D03*
D21*
X123850000Y-66300000D03*
D16*
X123850000Y-65900000D03*
X123850000Y-65500000D03*
X123850000Y-65100000D03*
D22*
X123850000Y-64700000D03*
D23*
X123200000Y-64050000D03*
D19*
X122800000Y-64050000D03*
X122400000Y-64050000D03*
X122000000Y-64050000D03*
D24*
X121600000Y-64050000D03*
D25*
X122400000Y-65500000D03*
D48*
X127950000Y-130900000D03*
D49*
X127250000Y-130900000D03*
D26*
X114750000Y-90350000D03*
X114750000Y-91250000D03*
D33*
X112575000Y-65300000D03*
X112575000Y-65800000D03*
X112575000Y-66300000D03*
X113925000Y-66300000D03*
X113925000Y-65800000D03*
X113925000Y-65300000D03*
D38*
X117000000Y-75000000D03*
D39*
X118900000Y-75000000D03*
D26*
X114750000Y-132350000D03*
X114750000Y-133250000D03*
D28*
X128300000Y-34900000D03*
X126800000Y-34900000D03*
D29*
X205500000Y-118175000D03*
X205500000Y-116825000D03*
D26*
X115750000Y-105050000D03*
X115750000Y-104150000D03*
D31*
X120125000Y-110000000D03*
X121075000Y-110000000D03*
D26*
X125900000Y-132150000D03*
X125900000Y-133050000D03*
D33*
X181325000Y-53100000D03*
X181325000Y-52600000D03*
X181325000Y-52100000D03*
X179975000Y-52100000D03*
X179975000Y-52600000D03*
X179975000Y-53100000D03*
D28*
X121700000Y-133300000D03*
X120200000Y-133300000D03*
D30*
X123700000Y-92550000D03*
X122750000Y-92550000D03*
X121800000Y-92550000D03*
X121800000Y-95050000D03*
X122750000Y-95050000D03*
X123700000Y-95050000D03*
D29*
X205500000Y-79175000D03*
X205500000Y-77825000D03*
D26*
X114950000Y-51250000D03*
X114950000Y-52150000D03*
D45*
X131250000Y-106500000D03*
D43*
X191600000Y-95900000D03*
D26*
X184150000Y-40500000D03*
X184150000Y-39600000D03*
D33*
X185525000Y-38750000D03*
X185525000Y-38250000D03*
X185525000Y-37750000D03*
X184175000Y-37750000D03*
X184175000Y-38250000D03*
X184175000Y-38750000D03*
D29*
X92500000Y-91825000D03*
X92500000Y-93175000D03*
D13*
X123550000Y-103900000D03*
X124450000Y-103900000D03*
D38*
X184750000Y-110000000D03*
D39*
X182850000Y-110000000D03*
D33*
X116675000Y-131900000D03*
X116675000Y-132400000D03*
X116675000Y-132900000D03*
X118025000Y-132900000D03*
X118025000Y-132400000D03*
X118025000Y-131900000D03*
D31*
X177875000Y-47000000D03*
X176925000Y-47000000D03*
D29*
X92500000Y-133825000D03*
X92500000Y-135175000D03*
D26*
X183050000Y-133750000D03*
X183050000Y-132850000D03*
D44*
X115070000Y-109400000D03*
X116430000Y-109400000D03*
D26*
X110500000Y-67250000D03*
X110500000Y-66350000D03*
D44*
X182230000Y-82300000D03*
X180870000Y-82300000D03*
D28*
X180900000Y-88900000D03*
X179400000Y-88900000D03*
D33*
X170925000Y-124300000D03*
X170925000Y-123800000D03*
X170925000Y-123300000D03*
X169575000Y-123300000D03*
X169575000Y-123800000D03*
X169575000Y-124300000D03*
D37*
X116150000Y-81125000D03*
X115650000Y-81125000D03*
X115150000Y-81125000D03*
X115150000Y-82475000D03*
X115650000Y-82475000D03*
X116150000Y-82475000D03*
D28*
X117100000Y-40100000D03*
X118600000Y-40100000D03*
D35*
X185100000Y-103675000D03*
X185900000Y-103675000D03*
D36*
X185500000Y-102525000D03*
D28*
X180900000Y-116900000D03*
X179400000Y-116900000D03*
D26*
X124800000Y-53950000D03*
X124800000Y-53050000D03*
X173200000Y-117050000D03*
X173200000Y-117950000D03*
X178850000Y-65450000D03*
X178850000Y-66350000D03*
D37*
X187350000Y-46625000D03*
X186850000Y-46625000D03*
X186350000Y-46625000D03*
X186350000Y-47975000D03*
X186850000Y-47975000D03*
X187350000Y-47975000D03*
D35*
X185100000Y-89675000D03*
X185900000Y-89675000D03*
D36*
X185500000Y-88525000D03*
D13*
X113300000Y-107200000D03*
X114200000Y-107200000D03*
D27*
X180800000Y-107200000D03*
X178700000Y-107200000D03*
D31*
X120125000Y-96000000D03*
X121075000Y-96000000D03*
D29*
X92500000Y-35825000D03*
X92500000Y-37175000D03*
D34*
X180300000Y-132225000D03*
X180300000Y-133775000D03*
D38*
X114550000Y-62750000D03*
D39*
X112650000Y-62750000D03*
D26*
X114150000Y-54300000D03*
X114150000Y-53400000D03*
D40*
X97900000Y-68400000D03*
D26*
X120600000Y-93450000D03*
X120600000Y-92550000D03*
D40*
X158900000Y-131700000D03*
D29*
X205500000Y-34175000D03*
X205500000Y-32825000D03*
D33*
X181325000Y-81100000D03*
X181325000Y-80600000D03*
X181325000Y-80100000D03*
X179975000Y-80100000D03*
X179975000Y-80600000D03*
X179975000Y-81100000D03*
D37*
X110650000Y-96375000D03*
X111150000Y-96375000D03*
X111650000Y-96375000D03*
X111650000Y-95025000D03*
X111150000Y-95025000D03*
X110650000Y-95025000D03*
D13*
X171750000Y-54200000D03*
X172650000Y-54200000D03*
D38*
X181000000Y-96000000D03*
D39*
X179100000Y-96000000D03*
D14*
X111400000Y-66600000D03*
D32*
X211000000Y-64250000D03*
D26*
X114150000Y-82300000D03*
X114150000Y-81400000D03*
D31*
X182825000Y-76800000D03*
X181875000Y-76800000D03*
D40*
X139050000Y-31700000D03*
D26*
X176950000Y-107850000D03*
X176950000Y-108750000D03*
X121050000Y-49150000D03*
X121050000Y-48250000D03*
D38*
X184750000Y-124000000D03*
D39*
X182850000Y-124000000D03*
D35*
X112900000Y-67325000D03*
X112100000Y-67325000D03*
D36*
X112500000Y-68475000D03*
D40*
X158950000Y-97300000D03*
D31*
X182825000Y-62800000D03*
X181875000Y-62800000D03*
D42*
X182250000Y-60600000D03*
D40*
X139100000Y-39300000D03*
D13*
X182900000Y-77800000D03*
X182000000Y-77800000D03*
D43*
X106250000Y-67500000D03*
D38*
X176300000Y-110000000D03*
D39*
X174400000Y-110000000D03*
D40*
X158950000Y-111300000D03*
D33*
X185525000Y-66750000D03*
X185525000Y-66250000D03*
X185525000Y-65750000D03*
X184175000Y-65750000D03*
X184175000Y-66250000D03*
X184175000Y-66750000D03*
D26*
X178850000Y-79450000D03*
X178850000Y-80350000D03*
D37*
X181850000Y-131875000D03*
X182350000Y-131875000D03*
X182850000Y-131875000D03*
X182850000Y-130525000D03*
X182350000Y-130525000D03*
X181850000Y-130525000D03*
D48*
X127950000Y-88900000D03*
D49*
X127250000Y-88900000D03*
D13*
X182900000Y-49800000D03*
X182000000Y-49800000D03*
D28*
X174950000Y-37800000D03*
X173450000Y-37800000D03*
D26*
X178850000Y-37450000D03*
X178850000Y-38350000D03*
D13*
X126250000Y-88800000D03*
X125350000Y-88800000D03*
D28*
X126200000Y-33000000D03*
X124700000Y-33000000D03*
X180900000Y-130900000D03*
X179400000Y-130900000D03*
D38*
X117000000Y-33000000D03*
D39*
X118900000Y-33000000D03*
D26*
X184150000Y-54500000D03*
X184150000Y-53600000D03*
D40*
X158900000Y-89700000D03*
D38*
X184750000Y-96000000D03*
D39*
X182850000Y-96000000D03*
D29*
X92500000Y-80825000D03*
X92500000Y-82175000D03*
D30*
X119400000Y-120550000D03*
X118450000Y-120550000D03*
X117500000Y-120550000D03*
X117500000Y-123050000D03*
X118450000Y-123050000D03*
X119400000Y-123050000D03*
D50*
X177050000Y-134300000D03*
D51*
X177050000Y-133900000D03*
X177050000Y-133500000D03*
X177050000Y-133100000D03*
D52*
X177050000Y-132700000D03*
D53*
X176400000Y-132050000D03*
D54*
X176000000Y-132050000D03*
X175600000Y-132050000D03*
X175200000Y-132050000D03*
D55*
X174800000Y-132050000D03*
D56*
X174150000Y-132700000D03*
D51*
X174150000Y-133100000D03*
X174150000Y-133500000D03*
X174150000Y-133900000D03*
D57*
X174150000Y-134300000D03*
D58*
X174800000Y-134950000D03*
D54*
X175200000Y-134950000D03*
X175600000Y-134950000D03*
X176000000Y-134950000D03*
D59*
X176400000Y-134950000D03*
D25*
X175600000Y-133500000D03*
D28*
X171800000Y-110000000D03*
X173300000Y-110000000D03*
D13*
X179000000Y-68300000D03*
X179900000Y-68300000D03*
D32*
X211000000Y-120250000D03*
D27*
X117200000Y-63800000D03*
X119300000Y-63800000D03*
D26*
X187500000Y-131750000D03*
X187500000Y-132650000D03*
D13*
X110450000Y-40300000D03*
X111350000Y-40300000D03*
D26*
X173200000Y-131050000D03*
X173200000Y-131950000D03*
D37*
X116150000Y-67125000D03*
X115650000Y-67125000D03*
X115150000Y-67125000D03*
X115150000Y-68475000D03*
X115650000Y-68475000D03*
X116150000Y-68475000D03*
D40*
X200100000Y-116600000D03*
D28*
X123050000Y-119200000D03*
X124550000Y-119200000D03*
D31*
X180625000Y-122600000D03*
X179675000Y-122600000D03*
D13*
X119000000Y-130700000D03*
X118100000Y-130700000D03*
D29*
X92500000Y-52825000D03*
X92500000Y-54175000D03*
D37*
X121500000Y-117975000D03*
X122000000Y-117975000D03*
X122500000Y-117975000D03*
X122500000Y-116625000D03*
X122000000Y-116625000D03*
X121500000Y-116625000D03*
D26*
X112750000Y-89400000D03*
X112750000Y-88500000D03*
D29*
X205500000Y-37175000D03*
X205500000Y-35825000D03*
D26*
X173200000Y-89050000D03*
X173200000Y-89950000D03*
D31*
X180625000Y-108600000D03*
X179675000Y-108600000D03*
D41*
X165635000Y-121600000D03*
X164365000Y-121600000D03*
D32*
X211000000Y-78250000D03*
D50*
X177050000Y-120300000D03*
D51*
X177050000Y-119900000D03*
X177050000Y-119500000D03*
X177050000Y-119100000D03*
D52*
X177050000Y-118700000D03*
D53*
X176400000Y-118050000D03*
D54*
X176000000Y-118050000D03*
X175600000Y-118050000D03*
X175200000Y-118050000D03*
D55*
X174800000Y-118050000D03*
D56*
X174150000Y-118700000D03*
D51*
X174150000Y-119100000D03*
X174150000Y-119500000D03*
X174150000Y-119900000D03*
D57*
X174150000Y-120300000D03*
D58*
X174800000Y-120950000D03*
D54*
X175200000Y-120950000D03*
X175600000Y-120950000D03*
X176000000Y-120950000D03*
D59*
X176400000Y-120950000D03*
D25*
X175600000Y-119500000D03*
D28*
X117100000Y-54100000D03*
X118600000Y-54100000D03*
D26*
X119950000Y-33550000D03*
X119950000Y-34450000D03*
D13*
X173550000Y-82200000D03*
X174450000Y-82200000D03*
D26*
X114150000Y-40300000D03*
X114150000Y-39400000D03*
X119150000Y-91550000D03*
X119150000Y-90650000D03*
D42*
X115750000Y-110400000D03*
D43*
X191600000Y-137900000D03*
D26*
X177800000Y-39350000D03*
X177800000Y-40250000D03*
X178050000Y-109450000D03*
X178050000Y-108550000D03*
X185250000Y-67600000D03*
X185250000Y-68500000D03*
D47*
X178850000Y-132225000D03*
X178850000Y-133775000D03*
D31*
X180625000Y-94600000D03*
X179675000Y-94600000D03*
D40*
X200100000Y-102600000D03*
D43*
X191600000Y-109900000D03*
D31*
X120125000Y-124000000D03*
X121075000Y-124000000D03*
D26*
X182250000Y-65950000D03*
X182250000Y-66850000D03*
D33*
X127075000Y-46700000D03*
X127075000Y-47200000D03*
X127075000Y-47700000D03*
X128425000Y-47700000D03*
X128425000Y-47200000D03*
X128425000Y-46700000D03*
D37*
X116150000Y-53125000D03*
X115650000Y-53125000D03*
X115150000Y-53125000D03*
X115150000Y-54475000D03*
X115650000Y-54475000D03*
X116150000Y-54475000D03*
D28*
X126200000Y-61000000D03*
X124700000Y-61000000D03*
D13*
X171750000Y-68200000D03*
X172650000Y-68200000D03*
D28*
X171800000Y-96000000D03*
X173300000Y-96000000D03*
D26*
X127000000Y-132150000D03*
X127000000Y-133050000D03*
D45*
X131250000Y-92500000D03*
D26*
X177400000Y-49550000D03*
X177400000Y-50450000D03*
D29*
X205500000Y-51175000D03*
X205500000Y-49825000D03*
D43*
X191750000Y-89500000D03*
D40*
X158950000Y-125300000D03*
D28*
X169700000Y-136100000D03*
X171200000Y-136100000D03*
D35*
X182150000Y-104725000D03*
X181350000Y-104725000D03*
D36*
X181750000Y-105875000D03*
D37*
X187350000Y-32625000D03*
X186850000Y-32625000D03*
X186350000Y-32625000D03*
X186350000Y-33975000D03*
X186850000Y-33975000D03*
X187350000Y-33975000D03*
D13*
X119000000Y-88700000D03*
X118100000Y-88700000D03*
D43*
X106400000Y-33100000D03*
D26*
X185250000Y-39600000D03*
X185250000Y-40500000D03*
D35*
X185100000Y-131675000D03*
X185900000Y-131675000D03*
D36*
X185500000Y-130525000D03*
D28*
X176300000Y-79700000D03*
X177800000Y-79700000D03*
X185200000Y-46800000D03*
X183700000Y-46800000D03*
D45*
X166750000Y-50500000D03*
D26*
X120200000Y-89650000D03*
X120200000Y-88750000D03*
D44*
X182930000Y-61600000D03*
X181570000Y-61600000D03*
D28*
X185200000Y-32800000D03*
X183700000Y-32800000D03*
D37*
X110650000Y-124375000D03*
X111150000Y-124375000D03*
X111650000Y-124375000D03*
X111650000Y-123025000D03*
X111150000Y-123025000D03*
X110650000Y-123025000D03*
D31*
X115175000Y-94200000D03*
X116125000Y-94200000D03*
D33*
X116675000Y-103900000D03*
X116675000Y-104400000D03*
X116675000Y-104900000D03*
X118025000Y-104900000D03*
X118025000Y-104400000D03*
X118025000Y-103900000D03*
D46*
X114850000Y-116525000D03*
X114850000Y-117475000D03*
D26*
X114750000Y-118350000D03*
X114750000Y-119250000D03*
D33*
X170925000Y-96300000D03*
X170925000Y-95800000D03*
X170925000Y-95300000D03*
X169575000Y-95300000D03*
X169575000Y-95800000D03*
X169575000Y-96300000D03*
D30*
X178600000Y-36450000D03*
X179550000Y-36450000D03*
X180500000Y-36450000D03*
X180500000Y-33950000D03*
X179550000Y-33950000D03*
X178600000Y-33950000D03*
D38*
X113250000Y-33000000D03*
D39*
X115150000Y-33000000D03*
D40*
X139050000Y-73700000D03*
D26*
X128100000Y-91050000D03*
X128100000Y-90150000D03*
D30*
X119400000Y-106550000D03*
X118450000Y-106550000D03*
X117500000Y-106550000D03*
X117500000Y-109050000D03*
X118450000Y-109050000D03*
X119400000Y-109050000D03*
D26*
X177800000Y-81350000D03*
X177800000Y-82250000D03*
D31*
X177875000Y-61000000D03*
X176925000Y-61000000D03*
D26*
X183850000Y-116700000D03*
X183850000Y-117600000D03*
X120600000Y-121450000D03*
X120600000Y-120550000D03*
D43*
X191750000Y-103500000D03*
D33*
X112575000Y-37300000D03*
X112575000Y-37800000D03*
X112575000Y-38300000D03*
X113925000Y-38300000D03*
X113925000Y-37800000D03*
X113925000Y-37300000D03*
D26*
X113850000Y-102500000D03*
X113850000Y-103400000D03*
D29*
X92500000Y-38825000D03*
X92500000Y-40175000D03*
D37*
X110650000Y-110375000D03*
X111150000Y-110375000D03*
X111650000Y-110375000D03*
X111650000Y-109025000D03*
X111150000Y-109025000D03*
X110650000Y-109025000D03*
D28*
X112700000Y-108600000D03*
X114200000Y-108600000D03*
D38*
X121700000Y-75000000D03*
D39*
X123600000Y-75000000D03*
D13*
X184700000Y-35800000D03*
X183800000Y-35800000D03*
D48*
X127950000Y-116900000D03*
D49*
X127250000Y-116900000D03*
D26*
X185250000Y-53600000D03*
X185250000Y-54500000D03*
D13*
X173550000Y-40200000D03*
X174450000Y-40200000D03*
D37*
X176500000Y-39025000D03*
X176000000Y-39025000D03*
X175500000Y-39025000D03*
X175500000Y-40375000D03*
X176000000Y-40375000D03*
X176500000Y-40375000D03*
D40*
X139050000Y-45700000D03*
D33*
X112475000Y-132250000D03*
X112475000Y-132750000D03*
X112475000Y-133250000D03*
X113825000Y-133250000D03*
X113825000Y-132750000D03*
X113825000Y-132250000D03*
X127075000Y-74700000D03*
X127075000Y-75200000D03*
X127075000Y-75700000D03*
X128425000Y-75700000D03*
X128425000Y-75200000D03*
X128425000Y-74700000D03*
D26*
X169900000Y-79950000D03*
X169900000Y-80850000D03*
D28*
X123050000Y-133200000D03*
X124550000Y-133200000D03*
D29*
X205500000Y-107175000D03*
X205500000Y-105825000D03*
D26*
X120600000Y-135450000D03*
X120600000Y-134550000D03*
D50*
X177050000Y-92300000D03*
D51*
X177050000Y-91900000D03*
X177050000Y-91500000D03*
X177050000Y-91100000D03*
D52*
X177050000Y-90700000D03*
D53*
X176400000Y-90050000D03*
D54*
X176000000Y-90050000D03*
X175600000Y-90050000D03*
X175200000Y-90050000D03*
D55*
X174800000Y-90050000D03*
D56*
X174150000Y-90700000D03*
D51*
X174150000Y-91100000D03*
X174150000Y-91500000D03*
X174150000Y-91900000D03*
D57*
X174150000Y-92300000D03*
D58*
X174800000Y-92950000D03*
D54*
X175200000Y-92950000D03*
X175600000Y-92950000D03*
X176000000Y-92950000D03*
D59*
X176400000Y-92950000D03*
D25*
X175600000Y-91500000D03*
D33*
X185425000Y-133700000D03*
X185425000Y-133200000D03*
X185425000Y-132700000D03*
X184075000Y-132700000D03*
X184075000Y-133200000D03*
X184075000Y-133700000D03*
D35*
X182150000Y-90725000D03*
X181350000Y-90725000D03*
D36*
X181750000Y-91875000D03*
D26*
X172100000Y-66850000D03*
X172100000Y-65950000D03*
D31*
X117375000Y-48400000D03*
X118325000Y-48400000D03*
D26*
X125900000Y-90150000D03*
X125900000Y-91050000D03*
D38*
X183450000Y-94250000D03*
D39*
X185350000Y-94250000D03*
D26*
X183050000Y-91750000D03*
X183050000Y-90850000D03*
D28*
X128300000Y-76900000D03*
X126800000Y-76900000D03*
X128300000Y-62900000D03*
X126800000Y-62900000D03*
D38*
X113250000Y-61000000D03*
D39*
X115150000Y-61000000D03*
D31*
X177875000Y-75000000D03*
X176925000Y-75000000D03*
D38*
X121700000Y-47000000D03*
D39*
X123600000Y-47000000D03*
D29*
X205500000Y-90175000D03*
X205500000Y-88825000D03*
D26*
X113850000Y-130500000D03*
X113850000Y-131400000D03*
D30*
X119400000Y-92550000D03*
X118450000Y-92550000D03*
X117500000Y-92550000D03*
X117500000Y-95050000D03*
X118450000Y-95050000D03*
X119400000Y-95050000D03*
D14*
X186600000Y-132400000D03*
D44*
X115770000Y-102700000D03*
X117130000Y-102700000D03*
D28*
X112800000Y-96200000D03*
X114300000Y-96200000D03*
D26*
X169900000Y-65950000D03*
X169900000Y-66850000D03*
D28*
X169700000Y-122100000D03*
X171200000Y-122100000D03*
D41*
X132365000Y-63400000D03*
X133635000Y-63400000D03*
D44*
X182230000Y-40300000D03*
X180870000Y-40300000D03*
D30*
X123700000Y-134550000D03*
X122750000Y-134550000D03*
X121800000Y-134550000D03*
X121800000Y-137050000D03*
X122750000Y-137050000D03*
X123700000Y-137050000D03*
D26*
X187500000Y-117750000D03*
X187500000Y-118650000D03*
D13*
X171750000Y-40200000D03*
X172650000Y-40200000D03*
D35*
X182150000Y-132725000D03*
X181350000Y-132725000D03*
D36*
X181750000Y-133875000D03*
D13*
X187550000Y-88700000D03*
X186650000Y-88700000D03*
X113300000Y-135200000D03*
X114200000Y-135200000D03*
D27*
X180800000Y-93200000D03*
X178700000Y-93200000D03*
D26*
X184150000Y-82500000D03*
X184150000Y-81600000D03*
D13*
X174450000Y-39100000D03*
X173550000Y-39100000D03*
D29*
X92500000Y-108825000D03*
X92500000Y-110175000D03*
D40*
X200100000Y-108900000D03*
D14*
X186600000Y-118400000D03*
D40*
X97900000Y-34100000D03*
D32*
X87000000Y-120750000D03*
D30*
X174300000Y-50450000D03*
X175250000Y-50450000D03*
X176200000Y-50450000D03*
X176200000Y-47950000D03*
X175250000Y-47950000D03*
X174300000Y-47950000D03*
D43*
X106400000Y-61100000D03*
D50*
X177050000Y-106300000D03*
D51*
X177050000Y-105900000D03*
X177050000Y-105500000D03*
X177050000Y-105100000D03*
D52*
X177050000Y-104700000D03*
D53*
X176400000Y-104050000D03*
D54*
X176000000Y-104050000D03*
X175600000Y-104050000D03*
X175200000Y-104050000D03*
D55*
X174800000Y-104050000D03*
D56*
X174150000Y-104700000D03*
D51*
X174150000Y-105100000D03*
X174150000Y-105500000D03*
X174150000Y-105900000D03*
D57*
X174150000Y-106300000D03*
D58*
X174800000Y-106950000D03*
D54*
X175200000Y-106950000D03*
X175600000Y-106950000D03*
X176000000Y-106950000D03*
D59*
X176400000Y-106950000D03*
D25*
X175600000Y-105500000D03*
D38*
X176300000Y-124000000D03*
D39*
X174400000Y-124000000D03*
D44*
X115770000Y-130700000D03*
X117130000Y-130700000D03*
D40*
X200100000Y-94900000D03*
D46*
X114850000Y-102525000D03*
X114850000Y-103475000D03*
D26*
X183850000Y-88700000D03*
X183850000Y-89600000D03*
D13*
X184700000Y-49800000D03*
X183800000Y-49800000D03*
D47*
X178850000Y-90225000D03*
X178850000Y-91775000D03*
D26*
X119150000Y-133550000D03*
X119150000Y-132650000D03*
D41*
X165635000Y-93600000D03*
X164365000Y-93600000D03*
D49*
X170050000Y-68100000D03*
D48*
X170750000Y-68100000D03*
D26*
X128100000Y-133050000D03*
X128100000Y-132150000D03*
D40*
X200100000Y-122900000D03*
D26*
X121050000Y-35150000D03*
X121050000Y-34250000D03*
D37*
X187350000Y-60625000D03*
X186850000Y-60625000D03*
X186350000Y-60625000D03*
X186350000Y-61975000D03*
X186850000Y-61975000D03*
X187350000Y-61975000D03*
D40*
X158900000Y-103700000D03*
D28*
X117100000Y-68100000D03*
X118600000Y-68100000D03*
X174950000Y-65800000D03*
X173450000Y-65800000D03*
D33*
X185525000Y-52750000D03*
X185525000Y-52250000D03*
X185525000Y-51750000D03*
X184175000Y-51750000D03*
X184175000Y-52250000D03*
X184175000Y-52750000D03*
D43*
X191750000Y-131500000D03*
D35*
X112900000Y-53325000D03*
X112100000Y-53325000D03*
D36*
X112500000Y-54475000D03*
D33*
X181325000Y-67100000D03*
X181325000Y-66600000D03*
X181325000Y-66100000D03*
X179975000Y-66100000D03*
X179975000Y-66600000D03*
X179975000Y-67100000D03*
D26*
X183250000Y-52650000D03*
X183250000Y-51750000D03*
D29*
X92500000Y-119825000D03*
X92500000Y-121175000D03*
D40*
X97900000Y-76100000D03*
D46*
X114850000Y-88525000D03*
X114850000Y-89475000D03*
D13*
X124450000Y-102800000D03*
X123550000Y-102800000D03*
X179000000Y-54300000D03*
X179900000Y-54300000D03*
D31*
X120125000Y-138000000D03*
X121075000Y-138000000D03*
D13*
X123550000Y-131900000D03*
X124450000Y-131900000D03*
D32*
X87000000Y-36750000D03*
D26*
X169900000Y-37950000D03*
X169900000Y-38850000D03*
D47*
X119150000Y-38775000D03*
X119150000Y-37225000D03*
D26*
X178050000Y-123450000D03*
X178050000Y-122550000D03*
D29*
X92500000Y-122825000D03*
X92500000Y-124175000D03*
D26*
X110500000Y-53250000D03*
X110500000Y-52350000D03*
D13*
X110450000Y-68300000D03*
X111350000Y-68300000D03*
D26*
X185250000Y-81600000D03*
X185250000Y-82500000D03*
D45*
X166750000Y-36500000D03*
D34*
X117700000Y-38775000D03*
X117700000Y-37225000D03*
D26*
X176950000Y-93850000D03*
X176950000Y-94750000D03*
D37*
X121500000Y-131975000D03*
X122000000Y-131975000D03*
X122500000Y-131975000D03*
X122500000Y-130625000D03*
X122000000Y-130625000D03*
X121500000Y-130625000D03*
D13*
X173550000Y-54200000D03*
X174450000Y-54200000D03*
D30*
X119400000Y-134550000D03*
X118450000Y-134550000D03*
X117500000Y-134550000D03*
X117500000Y-137050000D03*
X118450000Y-137050000D03*
X119400000Y-137050000D03*
D28*
X117100000Y-82100000D03*
X118600000Y-82100000D03*
D43*
X191600000Y-123900000D03*
D28*
X185300000Y-62400000D03*
X183800000Y-62400000D03*
D49*
X170050000Y-54100000D03*
D48*
X170750000Y-54100000D03*
D31*
X177875000Y-33000000D03*
X176925000Y-33000000D03*
D13*
X182900000Y-35800000D03*
X182000000Y-35800000D03*
D26*
X171000000Y-66850000D03*
X171000000Y-65950000D03*
D29*
X92500000Y-49825000D03*
X92500000Y-51175000D03*
D33*
X185425000Y-105700000D03*
X185425000Y-105200000D03*
X185425000Y-104700000D03*
X184075000Y-104700000D03*
X184075000Y-105200000D03*
X184075000Y-105700000D03*
D37*
X176500000Y-53025000D03*
X176000000Y-53025000D03*
X175500000Y-53025000D03*
X175500000Y-54375000D03*
X176000000Y-54375000D03*
X176500000Y-54375000D03*
D31*
X117375000Y-62400000D03*
X118325000Y-62400000D03*
D37*
X121500000Y-89975000D03*
X122000000Y-89975000D03*
X122500000Y-89975000D03*
X122500000Y-88625000D03*
X122000000Y-88625000D03*
X121500000Y-88625000D03*
D49*
X170050000Y-40100000D03*
D48*
X170750000Y-40100000D03*
D27*
X117200000Y-35800000D03*
X119300000Y-35800000D03*
D28*
X126200000Y-75000000D03*
X124700000Y-75000000D03*
X128300000Y-48900000D03*
X126800000Y-48900000D03*
D42*
X115750000Y-124400000D03*
D41*
X132365000Y-49400000D03*
X133635000Y-49400000D03*
D28*
X123050000Y-105200000D03*
X124550000Y-105200000D03*
D44*
X182230000Y-68300000D03*
X180870000Y-68300000D03*
D28*
X121700000Y-105300000D03*
X120200000Y-105300000D03*
D37*
X187350000Y-74625000D03*
X186850000Y-74625000D03*
X186350000Y-74625000D03*
X186350000Y-75975000D03*
X186850000Y-75975000D03*
X187350000Y-75975000D03*
D26*
X125900000Y-118150000D03*
X125900000Y-119050000D03*
X120200000Y-131650000D03*
X120200000Y-130750000D03*
D32*
X87000000Y-78750000D03*
D26*
X178050000Y-137450000D03*
X178050000Y-136550000D03*
X114950000Y-65250000D03*
X114950000Y-66150000D03*
D13*
X126250000Y-116800000D03*
X125350000Y-116800000D03*
X187550000Y-130700000D03*
X186650000Y-130700000D03*
D28*
X185200000Y-60800000D03*
X183700000Y-60800000D03*
X185300000Y-76400000D03*
X183800000Y-76400000D03*
D26*
X183250000Y-66650000D03*
X183250000Y-65750000D03*
X177800000Y-67350000D03*
X177800000Y-68250000D03*
D40*
X139100000Y-53300000D03*
D26*
X119950000Y-75550000D03*
X119950000Y-76450000D03*
X124800000Y-81950000D03*
X124800000Y-81050000D03*
X112750000Y-103400000D03*
X112750000Y-102500000D03*
X119150000Y-105550000D03*
X119150000Y-104650000D03*
D13*
X115100000Y-93200000D03*
X116000000Y-93200000D03*
D32*
X211000000Y-36250000D03*
D26*
X183850000Y-130700000D03*
X183850000Y-131600000D03*
D38*
X113250000Y-47000000D03*
D39*
X115150000Y-47000000D03*
D40*
X200100000Y-88600000D03*
D33*
X116675000Y-89900000D03*
X116675000Y-90400000D03*
X116675000Y-90900000D03*
X118025000Y-90900000D03*
X118025000Y-90400000D03*
X118025000Y-89900000D03*
D30*
X174300000Y-64450000D03*
X175250000Y-64450000D03*
X176200000Y-64450000D03*
X176200000Y-61950000D03*
X175250000Y-61950000D03*
X174300000Y-61950000D03*
D40*
X139050000Y-59700000D03*
D34*
X117700000Y-52775000D03*
X117700000Y-51225000D03*
D26*
X184150000Y-68500000D03*
X184150000Y-67600000D03*
D29*
X92500000Y-66825000D03*
X92500000Y-68175000D03*
D26*
X177400000Y-63550000D03*
X177400000Y-64450000D03*
D45*
X166750000Y-64500000D03*
D28*
X185300000Y-34400000D03*
X183800000Y-34400000D03*
D26*
X121050000Y-77150000D03*
X121050000Y-76250000D03*
D29*
X205500000Y-104175000D03*
X205500000Y-102825000D03*
D47*
X119150000Y-80775000D03*
X119150000Y-79225000D03*
D38*
X114550000Y-48750000D03*
D39*
X112650000Y-48750000D03*
D14*
X111400000Y-80600000D03*
D44*
X182930000Y-47600000D03*
X181570000Y-47600000D03*
D26*
X182250000Y-79950000D03*
X182250000Y-80850000D03*
X183250000Y-80650000D03*
X183250000Y-79750000D03*
D40*
X97900000Y-82400000D03*
D26*
X183050000Y-119750000D03*
X183050000Y-118850000D03*
D34*
X180300000Y-90225000D03*
X180300000Y-91775000D03*
D49*
X170050000Y-82100000D03*
D48*
X170750000Y-82100000D03*
D26*
X183250000Y-38650000D03*
X183250000Y-37750000D03*
D38*
X121700000Y-61000000D03*
D39*
X123600000Y-61000000D03*
D38*
X183450000Y-108250000D03*
D39*
X185350000Y-108250000D03*
D32*
X87000000Y-106750000D03*
D31*
X115175000Y-122200000D03*
X116125000Y-122200000D03*
G36*
X109425500Y-32019962D02*
G01*
X109480038Y-32074500D01*
X109500000Y-32149000D01*
X109500000Y-35601000D01*
X109480038Y-35675500D01*
X109425500Y-35730038D01*
X109351000Y-35750000D01*
X103149000Y-35750000D01*
X103074500Y-35730038D01*
X103019962Y-35675500D01*
X103000000Y-35601000D01*
X103000000Y-32149000D01*
X103019962Y-32074500D01*
X103074500Y-32019962D01*
X103149000Y-32000000D01*
X109351000Y-32000000D01*
X109425500Y-32019962D01*
G37*
G36*
X203175500Y-65269962D02*
G01*
X203230038Y-65324500D01*
X203250000Y-65399000D01*
X203250000Y-68601000D01*
X203230038Y-68675500D01*
X203175500Y-68730038D01*
X203101000Y-68750000D01*
X200000000Y-68750000D01*
X199543641Y-69206359D01*
X199476846Y-69244923D01*
X199438282Y-69250000D01*
X188649000Y-69250000D01*
X188574500Y-69230038D01*
X188519962Y-69175500D01*
X188500000Y-69101000D01*
X188500000Y-65399000D01*
X188519962Y-65324500D01*
X188574500Y-65269962D01*
X188649000Y-65250000D01*
X203101000Y-65250000D01*
X203175500Y-65269962D01*
G37*
G36*
X109425500Y-37269962D02*
G01*
X109480038Y-37324500D01*
X109500000Y-37399000D01*
X109500000Y-41101000D01*
X109480038Y-41175500D01*
X109425500Y-41230038D01*
X109351000Y-41250000D01*
X103149000Y-41250000D01*
X103074500Y-41230038D01*
X103019962Y-41175500D01*
X103000000Y-41101000D01*
X103000000Y-37399000D01*
X103019962Y-37324500D01*
X103074500Y-37269962D01*
X103149000Y-37250000D01*
X109351000Y-37250000D01*
X109425500Y-37269962D01*
G37*
G36*
X199512782Y-73769962D02*
G01*
X199543641Y-73793641D01*
X200000000Y-74250000D01*
X203101000Y-74250000D01*
X203175500Y-74269962D01*
X203230038Y-74324500D01*
X203250000Y-74399000D01*
X203250000Y-77601000D01*
X203230038Y-77675500D01*
X203175500Y-77730038D01*
X203101000Y-77750000D01*
X188649000Y-77750000D01*
X188574500Y-77730038D01*
X188519962Y-77675500D01*
X188500000Y-77601000D01*
X188500000Y-73899000D01*
X188519962Y-73824500D01*
X188574500Y-73769962D01*
X188649000Y-73750000D01*
X199438282Y-73750000D01*
X199512782Y-73769962D01*
G37*
G36*
X109425500Y-93269962D02*
G01*
X109480038Y-93324500D01*
X109500000Y-93399000D01*
X109500000Y-97101000D01*
X109480038Y-97175500D01*
X109425500Y-97230038D01*
X109351000Y-97250000D01*
X98561718Y-97250000D01*
X98487218Y-97230038D01*
X98456359Y-97206359D01*
X98000000Y-96750000D01*
X94899000Y-96750000D01*
X94824500Y-96730038D01*
X94769962Y-96675500D01*
X94750000Y-96601000D01*
X94750000Y-93399000D01*
X94769962Y-93324500D01*
X94824500Y-93269962D01*
X94899000Y-93250000D01*
X109351000Y-93250000D01*
X109425500Y-93269962D01*
G37*
G36*
X109425500Y-74019962D02*
G01*
X109480038Y-74074500D01*
X109500000Y-74149000D01*
X109500000Y-77601000D01*
X109480038Y-77675500D01*
X109425500Y-77730038D01*
X109351000Y-77750000D01*
X103149000Y-77750000D01*
X103074500Y-77730038D01*
X103019962Y-77675500D01*
X103000000Y-77601000D01*
X103000000Y-74149000D01*
X103019962Y-74074500D01*
X103074500Y-74019962D01*
X103149000Y-74000000D01*
X109351000Y-74000000D01*
X109425500Y-74019962D01*
G37*
G36*
X199512782Y-59769962D02*
G01*
X199543641Y-59793641D01*
X200000000Y-60250000D01*
X203101000Y-60250000D01*
X203175500Y-60269962D01*
X203230038Y-60324500D01*
X203250000Y-60399000D01*
X203250000Y-63601000D01*
X203230038Y-63675500D01*
X203175500Y-63730038D01*
X203101000Y-63750000D01*
X188649000Y-63750000D01*
X188574500Y-63730038D01*
X188519962Y-63675500D01*
X188500000Y-63601000D01*
X188500000Y-59899000D01*
X188519962Y-59824500D01*
X188574500Y-59769962D01*
X188649000Y-59750000D01*
X199438282Y-59750000D01*
X199512782Y-59769962D01*
G37*
G36*
X194925500Y-101769962D02*
G01*
X194980038Y-101824500D01*
X195000000Y-101899000D01*
X195000000Y-105601000D01*
X194980038Y-105675500D01*
X194925500Y-105730038D01*
X194851000Y-105750000D01*
X188649000Y-105750000D01*
X188574500Y-105730038D01*
X188519962Y-105675500D01*
X188500000Y-105601000D01*
X188500000Y-101899000D01*
X188519962Y-101824500D01*
X188574500Y-101769962D01*
X188649000Y-101750000D01*
X194851000Y-101750000D01*
X194925500Y-101769962D01*
G37*
G36*
X194925500Y-129769962D02*
G01*
X194980038Y-129824500D01*
X195000000Y-129899000D01*
X195000000Y-133601000D01*
X194980038Y-133675500D01*
X194925500Y-133730038D01*
X194851000Y-133750000D01*
X188649000Y-133750000D01*
X188574500Y-133730038D01*
X188519962Y-133675500D01*
X188500000Y-133601000D01*
X188500000Y-129899000D01*
X188519962Y-129824500D01*
X188574500Y-129769962D01*
X188649000Y-129750000D01*
X194851000Y-129750000D01*
X194925500Y-129769962D01*
G37*
G36*
X109425500Y-101769962D02*
G01*
X109480038Y-101824500D01*
X109500000Y-101899000D01*
X109500000Y-105601000D01*
X109480038Y-105675500D01*
X109425500Y-105730038D01*
X109351000Y-105750000D01*
X94899000Y-105750000D01*
X94824500Y-105730038D01*
X94769962Y-105675500D01*
X94750000Y-105601000D01*
X94750000Y-102399000D01*
X94769962Y-102324500D01*
X94824500Y-102269962D01*
X94899000Y-102250000D01*
X98000000Y-102250000D01*
X98456359Y-101793641D01*
X98523154Y-101755077D01*
X98561718Y-101750000D01*
X109351000Y-101750000D01*
X109425500Y-101769962D01*
G37*
G36*
X194925500Y-93269962D02*
G01*
X194980038Y-93324500D01*
X195000000Y-93399000D01*
X195000000Y-96851000D01*
X194980038Y-96925500D01*
X194925500Y-96980038D01*
X194851000Y-97000000D01*
X188649000Y-97000000D01*
X188574500Y-96980038D01*
X188519962Y-96925500D01*
X188500000Y-96851000D01*
X188500000Y-93399000D01*
X188519962Y-93324500D01*
X188574500Y-93269962D01*
X188649000Y-93250000D01*
X194851000Y-93250000D01*
X194925500Y-93269962D01*
G37*
G36*
X194925500Y-107269962D02*
G01*
X194980038Y-107324500D01*
X195000000Y-107399000D01*
X195000000Y-110851000D01*
X194980038Y-110925500D01*
X194925500Y-110980038D01*
X194851000Y-111000000D01*
X188649000Y-111000000D01*
X188574500Y-110980038D01*
X188519962Y-110925500D01*
X188500000Y-110851000D01*
X188500000Y-107399000D01*
X188519962Y-107324500D01*
X188574500Y-107269962D01*
X188649000Y-107250000D01*
X194851000Y-107250000D01*
X194925500Y-107269962D01*
G37*
G36*
X109425500Y-60019962D02*
G01*
X109480038Y-60074500D01*
X109500000Y-60149000D01*
X109500000Y-63601000D01*
X109480038Y-63675500D01*
X109425500Y-63730038D01*
X109351000Y-63750000D01*
X103149000Y-63750000D01*
X103074500Y-63730038D01*
X103019962Y-63675500D01*
X103000000Y-63601000D01*
X103000000Y-60149000D01*
X103019962Y-60074500D01*
X103074500Y-60019962D01*
X103149000Y-60000000D01*
X109351000Y-60000000D01*
X109425500Y-60019962D01*
G37*
G36*
X109425500Y-46019962D02*
G01*
X109480038Y-46074500D01*
X109500000Y-46149000D01*
X109500000Y-49601000D01*
X109480038Y-49675500D01*
X109425500Y-49730038D01*
X109351000Y-49750000D01*
X103149000Y-49750000D01*
X103074500Y-49730038D01*
X103019962Y-49675500D01*
X103000000Y-49601000D01*
X103000000Y-46149000D01*
X103019962Y-46074500D01*
X103074500Y-46019962D01*
X103149000Y-46000000D01*
X109351000Y-46000000D01*
X109425500Y-46019962D01*
G37*
G36*
X203175500Y-51269962D02*
G01*
X203230038Y-51324500D01*
X203250000Y-51399000D01*
X203250000Y-54601000D01*
X203230038Y-54675500D01*
X203175500Y-54730038D01*
X203101000Y-54750000D01*
X200000000Y-54750000D01*
X199543641Y-55206359D01*
X199476846Y-55244923D01*
X199438282Y-55250000D01*
X188649000Y-55250000D01*
X188574500Y-55230038D01*
X188519962Y-55175500D01*
X188500000Y-55101000D01*
X188500000Y-51399000D01*
X188519962Y-51324500D01*
X188574500Y-51269962D01*
X188649000Y-51250000D01*
X203101000Y-51250000D01*
X203175500Y-51269962D01*
G37*
G36*
X109425500Y-79269962D02*
G01*
X109480038Y-79324500D01*
X109500000Y-79399000D01*
X109500000Y-83101000D01*
X109480038Y-83175500D01*
X109425500Y-83230038D01*
X109351000Y-83250000D01*
X103149000Y-83250000D01*
X103074500Y-83230038D01*
X103019962Y-83175500D01*
X103000000Y-83101000D01*
X103000000Y-79399000D01*
X103019962Y-79324500D01*
X103074500Y-79269962D01*
X103149000Y-79250000D01*
X109351000Y-79250000D01*
X109425500Y-79269962D01*
G37*
G36*
X109425500Y-121269962D02*
G01*
X109480038Y-121324500D01*
X109500000Y-121399000D01*
X109500000Y-125101000D01*
X109480038Y-125175500D01*
X109425500Y-125230038D01*
X109351000Y-125250000D01*
X98561718Y-125250000D01*
X98487218Y-125230038D01*
X98456359Y-125206359D01*
X98000000Y-124750000D01*
X94899000Y-124750000D01*
X94824500Y-124730038D01*
X94769962Y-124675500D01*
X94750000Y-124601000D01*
X94750000Y-121399000D01*
X94769962Y-121324500D01*
X94824500Y-121269962D01*
X94899000Y-121250000D01*
X109351000Y-121250000D01*
X109425500Y-121269962D01*
G37*
G36*
X199512782Y-45769962D02*
G01*
X199543641Y-45793641D01*
X200000000Y-46250000D01*
X203101000Y-46250000D01*
X203175500Y-46269962D01*
X203230038Y-46324500D01*
X203250000Y-46399000D01*
X203250000Y-49601000D01*
X203230038Y-49675500D01*
X203175500Y-49730038D01*
X203101000Y-49750000D01*
X188649000Y-49750000D01*
X188574500Y-49730038D01*
X188519962Y-49675500D01*
X188500000Y-49601000D01*
X188500000Y-45899000D01*
X188519962Y-45824500D01*
X188574500Y-45769962D01*
X188649000Y-45750000D01*
X199438282Y-45750000D01*
X199512782Y-45769962D01*
G37*
G36*
X203175500Y-37269962D02*
G01*
X203230038Y-37324500D01*
X203250000Y-37399000D01*
X203250000Y-40601000D01*
X203230038Y-40675500D01*
X203175500Y-40730038D01*
X203101000Y-40750000D01*
X200000000Y-40750000D01*
X199543641Y-41206359D01*
X199476846Y-41244923D01*
X199438282Y-41250000D01*
X188649000Y-41250000D01*
X188574500Y-41230038D01*
X188519962Y-41175500D01*
X188500000Y-41101000D01*
X188500000Y-37399000D01*
X188519962Y-37324500D01*
X188574500Y-37269962D01*
X188649000Y-37250000D01*
X203101000Y-37250000D01*
X203175500Y-37269962D01*
G37*
G36*
X109425500Y-87769962D02*
G01*
X109480038Y-87824500D01*
X109500000Y-87899000D01*
X109500000Y-91601000D01*
X109480038Y-91675500D01*
X109425500Y-91730038D01*
X109351000Y-91750000D01*
X94899000Y-91750000D01*
X94824500Y-91730038D01*
X94769962Y-91675500D01*
X94750000Y-91601000D01*
X94750000Y-88399000D01*
X94769962Y-88324500D01*
X94824500Y-88269962D01*
X94899000Y-88250000D01*
X98000000Y-88250000D01*
X98456359Y-87793641D01*
X98523154Y-87755077D01*
X98561718Y-87750000D01*
X109351000Y-87750000D01*
X109425500Y-87769962D01*
G37*
G36*
X194925500Y-135269962D02*
G01*
X194980038Y-135324500D01*
X195000000Y-135399000D01*
X195000000Y-138851000D01*
X194980038Y-138925500D01*
X194925500Y-138980038D01*
X194851000Y-139000000D01*
X188649000Y-139000000D01*
X188574500Y-138980038D01*
X188519962Y-138925500D01*
X188500000Y-138851000D01*
X188500000Y-135399000D01*
X188519962Y-135324500D01*
X188574500Y-135269962D01*
X188649000Y-135250000D01*
X194851000Y-135250000D01*
X194925500Y-135269962D01*
G37*
G36*
X109425500Y-135269962D02*
G01*
X109480038Y-135324500D01*
X109500000Y-135399000D01*
X109500000Y-139101000D01*
X109480038Y-139175500D01*
X109425500Y-139230038D01*
X109351000Y-139250000D01*
X98561718Y-139250000D01*
X98487218Y-139230038D01*
X98456359Y-139206359D01*
X98000000Y-138750000D01*
X94899000Y-138750000D01*
X94824500Y-138730038D01*
X94769962Y-138675500D01*
X94750000Y-138601000D01*
X94750000Y-135399000D01*
X94769962Y-135324500D01*
X94824500Y-135269962D01*
X94899000Y-135250000D01*
X109351000Y-135250000D01*
X109425500Y-135269962D01*
G37*
G36*
X194925500Y-87769962D02*
G01*
X194980038Y-87824500D01*
X195000000Y-87899000D01*
X195000000Y-91601000D01*
X194980038Y-91675500D01*
X194925500Y-91730038D01*
X194851000Y-91750000D01*
X188649000Y-91750000D01*
X188574500Y-91730038D01*
X188519962Y-91675500D01*
X188500000Y-91601000D01*
X188500000Y-87899000D01*
X188519962Y-87824500D01*
X188574500Y-87769962D01*
X188649000Y-87750000D01*
X194851000Y-87750000D01*
X194925500Y-87769962D01*
G37*
G36*
X203175500Y-79269962D02*
G01*
X203230038Y-79324500D01*
X203250000Y-79399000D01*
X203250000Y-82601000D01*
X203230038Y-82675500D01*
X203175500Y-82730038D01*
X203101000Y-82750000D01*
X200000000Y-82750000D01*
X199543641Y-83206359D01*
X199476846Y-83244923D01*
X199438282Y-83250000D01*
X188649000Y-83250000D01*
X188574500Y-83230038D01*
X188519962Y-83175500D01*
X188500000Y-83101000D01*
X188500000Y-79399000D01*
X188519962Y-79324500D01*
X188574500Y-79269962D01*
X188649000Y-79250000D01*
X203101000Y-79250000D01*
X203175500Y-79269962D01*
G37*
G36*
X194925500Y-115769962D02*
G01*
X194980038Y-115824500D01*
X195000000Y-115899000D01*
X195000000Y-119601000D01*
X194980038Y-119675500D01*
X194925500Y-119730038D01*
X194851000Y-119750000D01*
X188649000Y-119750000D01*
X188574500Y-119730038D01*
X188519962Y-119675500D01*
X188500000Y-119601000D01*
X188500000Y-115899000D01*
X188519962Y-115824500D01*
X188574500Y-115769962D01*
X188649000Y-115750000D01*
X194851000Y-115750000D01*
X194925500Y-115769962D01*
G37*
G36*
X109425500Y-115769962D02*
G01*
X109480038Y-115824500D01*
X109500000Y-115899000D01*
X109500000Y-119601000D01*
X109480038Y-119675500D01*
X109425500Y-119730038D01*
X109351000Y-119750000D01*
X94899000Y-119750000D01*
X94824500Y-119730038D01*
X94769962Y-119675500D01*
X94750000Y-119601000D01*
X94750000Y-116399000D01*
X94769962Y-116324500D01*
X94824500Y-116269962D01*
X94899000Y-116250000D01*
X98000000Y-116250000D01*
X98456359Y-115793641D01*
X98523154Y-115755077D01*
X98561718Y-115750000D01*
X109351000Y-115750000D01*
X109425500Y-115769962D01*
G37*
G36*
X194925500Y-121269962D02*
G01*
X194980038Y-121324500D01*
X195000000Y-121399000D01*
X195000000Y-124851000D01*
X194980038Y-124925500D01*
X194925500Y-124980038D01*
X194851000Y-125000000D01*
X188649000Y-125000000D01*
X188574500Y-124980038D01*
X188519962Y-124925500D01*
X188500000Y-124851000D01*
X188500000Y-121399000D01*
X188519962Y-121324500D01*
X188574500Y-121269962D01*
X188649000Y-121250000D01*
X194851000Y-121250000D01*
X194925500Y-121269962D01*
G37*
G36*
X199512782Y-31769962D02*
G01*
X199543641Y-31793641D01*
X200000000Y-32250000D01*
X203101000Y-32250000D01*
X203175500Y-32269962D01*
X203230038Y-32324500D01*
X203250000Y-32399000D01*
X203250000Y-35601000D01*
X203230038Y-35675500D01*
X203175500Y-35730038D01*
X203101000Y-35750000D01*
X188649000Y-35750000D01*
X188574500Y-35730038D01*
X188519962Y-35675500D01*
X188500000Y-35601000D01*
X188500000Y-31899000D01*
X188519962Y-31824500D01*
X188574500Y-31769962D01*
X188649000Y-31750000D01*
X199438282Y-31750000D01*
X199512782Y-31769962D01*
G37*
G36*
X109425500Y-107269962D02*
G01*
X109480038Y-107324500D01*
X109500000Y-107399000D01*
X109500000Y-111101000D01*
X109480038Y-111175500D01*
X109425500Y-111230038D01*
X109351000Y-111250000D01*
X98561718Y-111250000D01*
X98487218Y-111230038D01*
X98456359Y-111206359D01*
X98000000Y-110750000D01*
X94899000Y-110750000D01*
X94824500Y-110730038D01*
X94769962Y-110675500D01*
X94750000Y-110601000D01*
X94750000Y-107399000D01*
X94769962Y-107324500D01*
X94824500Y-107269962D01*
X94899000Y-107250000D01*
X109351000Y-107250000D01*
X109425500Y-107269962D01*
G37*
G36*
X109425500Y-129769962D02*
G01*
X109480038Y-129824500D01*
X109500000Y-129899000D01*
X109500000Y-133601000D01*
X109480038Y-133675500D01*
X109425500Y-133730038D01*
X109351000Y-133750000D01*
X94899000Y-133750000D01*
X94824500Y-133730038D01*
X94769962Y-133675500D01*
X94750000Y-133601000D01*
X94750000Y-130399000D01*
X94769962Y-130324500D01*
X94824500Y-130269962D01*
X94899000Y-130250000D01*
X98000000Y-130250000D01*
X98456359Y-129793641D01*
X98523154Y-129755077D01*
X98561718Y-129750000D01*
X109351000Y-129750000D01*
X109425500Y-129769962D01*
G37*
G36*
X109425500Y-65269962D02*
G01*
X109480038Y-65324500D01*
X109500000Y-65399000D01*
X109500000Y-69101000D01*
X109480038Y-69175500D01*
X109425500Y-69230038D01*
X109351000Y-69250000D01*
X103149000Y-69250000D01*
X103074500Y-69230038D01*
X103019962Y-69175500D01*
X103000000Y-69101000D01*
X103000000Y-65399000D01*
X103019962Y-65324500D01*
X103074500Y-65269962D01*
X103149000Y-65250000D01*
X109351000Y-65250000D01*
X109425500Y-65269962D01*
G37*
G36*
X109425500Y-51269962D02*
G01*
X109480038Y-51324500D01*
X109500000Y-51399000D01*
X109500000Y-55101000D01*
X109480038Y-55175500D01*
X109425500Y-55230038D01*
X109351000Y-55250000D01*
X103149000Y-55250000D01*
X103074500Y-55230038D01*
X103019962Y-55175500D01*
X103000000Y-55101000D01*
X103000000Y-51399000D01*
X103019962Y-51324500D01*
X103074500Y-51269962D01*
X103149000Y-51250000D01*
X109351000Y-51250000D01*
X109425500Y-51269962D01*
G37*
M02*
