M48
; DRILL file {KiCad 9.0.8} date 2026-07-16T19:15:42+0900
; FORMAT={-:-/ absolute / metric / decimal}
; #@! TF.CreationDate,2026-07-16T19:15:42+09:00
; #@! TF.GenerationSoftware,Kicad,Pcbnew,9.0.8
; #@! TF.FileFunction,Plated,1,2,PTH
FMAT,2
METRIC
; #@! TA.AperFunction,Plated,PTH,ViaDrill
T1C0.300
; #@! TA.AperFunction,Plated,PTH,ViaDrill
T2C0.400
; #@! TA.AperFunction,Plated,PTH,ViaDrill
T3C0.500
; #@! TA.AperFunction,Plated,PTH,ViaDrill
T4C0.600
; #@! TA.AperFunction,Plated,PTH,ViaDrill
T5C0.700
; #@! TA.AperFunction,Plated,PTH,ComponentDrill
T6C0.700
; #@! TA.AperFunction,Plated,PTH,ComponentDrill
T7C0.900
%
G90
G05
T1
X111.35Y-102.1
X111.35Y-116.1
X111.35Y-130.1
X111.35Y-144.1
X112.15Y-102.5
X112.15Y-116.5
X112.15Y-130.5
X112.15Y-144.5
X114.95Y-101.8
X114.95Y-115.8
X114.95Y-129.8
X114.95Y-143.8
X119.5Y-46.8
X119.5Y-60.8
X119.5Y-74.8
X119.5Y-88.8
X120.35Y-101.4
X120.35Y-115.4
X120.35Y-129.4
X120.35Y-143.4
X120.5Y-45.9
X120.5Y-59.9
X120.5Y-73.9
X120.5Y-87.9
X124.3Y-46.4
X124.3Y-60.4
X124.3Y-74.4
X124.3Y-88.4
X127.15Y-45.9
X127.15Y-59.9
X127.15Y-73.9
X127.15Y-87.9
X128.05Y-45.9
X128.05Y-59.9
X128.05Y-73.9
X128.05Y-87.9
X130.5Y-46.5
X130.5Y-60.5
X130.5Y-74.5
X130.5Y-88.5
X132.5Y-99.2
X132.5Y-113.2
X132.5Y-127.2
X132.5Y-141.2
X133.3Y-99.6
X133.3Y-113.6
X133.3Y-127.6
X133.3Y-141.6
X167.2Y-49.4
X167.2Y-63.4
X167.2Y-77.4
X167.2Y-91.4
X168.0Y-49.8
X168.0Y-63.8
X168.0Y-77.8
X168.0Y-91.8
X170.0Y-102.5
X170.0Y-116.5
X170.0Y-130.5
X170.0Y-144.5
X172.45Y-103.1
X172.45Y-117.1
X172.45Y-131.1
X172.45Y-145.1
X173.35Y-103.1
X173.35Y-117.1
X173.35Y-131.1
X173.35Y-145.1
X176.2Y-102.6
X176.2Y-116.6
X176.2Y-130.6
X176.2Y-144.6
X180.0Y-103.1
X180.0Y-117.1
X180.0Y-131.1
X180.0Y-145.1
X180.15Y-47.6
X180.15Y-61.6
X180.15Y-75.6
X180.15Y-89.6
X181.0Y-102.2
X181.0Y-116.2
X181.0Y-130.2
X181.0Y-144.2
X185.55Y-47.2
X185.55Y-61.2
X185.55Y-75.2
X185.55Y-89.2
X188.35Y-46.5
X188.35Y-60.5
X188.35Y-74.5
X188.35Y-88.5
X189.15Y-46.9
X189.15Y-60.9
X189.15Y-74.9
X189.15Y-88.9
T2
X109.9Y-97.9
X109.9Y-111.9
X109.9Y-125.9
X109.9Y-139.9
X110.0Y-43.7
X110.0Y-57.7
X110.0Y-71.7
X110.0Y-85.7
X113.55Y-46.1
X113.55Y-60.1
X113.55Y-74.1
X113.55Y-88.1
X114.25Y-51.1
X114.25Y-65.1
X114.25Y-79.1
X114.25Y-93.1
X116.15Y-107.8
X116.15Y-121.8
X116.15Y-135.8
X116.15Y-149.8
X116.75Y-97.3
X116.75Y-111.3
X116.75Y-125.3
X116.75Y-139.3
X117.85Y-45.35
X117.85Y-46.25
X117.85Y-59.35
X117.85Y-60.25
X117.85Y-73.35
X117.85Y-74.25
X117.85Y-87.35
X117.85Y-88.25
X119.35Y-97.7
X119.35Y-111.7
X119.35Y-125.7
X119.35Y-139.7
X119.5Y-50.1
X119.5Y-64.1
X119.5Y-78.1
X119.5Y-92.1
X120.9Y-50.8
X120.9Y-64.8
X120.9Y-78.8
X120.9Y-92.8
X122.0Y-47.5
X122.0Y-61.5
X122.0Y-75.5
X122.0Y-89.5
X123.05Y-42.0
X123.05Y-56.0
X123.05Y-70.0
X123.05Y-84.0
X124.05Y-42.0
X124.05Y-56.0
X124.05Y-70.0
X124.05Y-84.0
X126.45Y-49.9
X126.45Y-63.9
X126.45Y-77.9
X126.45Y-91.9
X128.25Y-50.5
X128.25Y-64.5
X128.25Y-78.5
X128.25Y-92.5
X128.95Y-99.8
X128.95Y-113.8
X128.95Y-127.8
X128.95Y-141.8
X129.9Y-99.0
X129.9Y-113.0
X129.9Y-127.0
X129.9Y-141.0
X131.0Y-98.8
X131.0Y-112.8
X131.0Y-126.8
X131.0Y-140.8
X134.4Y-99.8
X134.4Y-113.8
X134.4Y-127.8
X134.4Y-141.8
X144.5Y-98.8
X144.5Y-106.5
X144.5Y-112.8
X144.5Y-120.5
X144.5Y-126.8
X144.5Y-134.5
X144.5Y-140.8
X144.5Y-148.5
X145.0Y-50.2
X145.0Y-64.2
X145.0Y-78.2
X145.0Y-92.2
X150.0Y-98.8
X150.0Y-112.8
X150.0Y-126.8
X150.0Y-140.8
X150.5Y-50.2
X150.5Y-64.2
X150.5Y-78.2
X150.5Y-92.2
X155.5Y-98.8
X155.5Y-112.8
X155.5Y-126.8
X155.5Y-140.8
X156.0Y-42.5
X156.0Y-50.2
X156.0Y-56.5
X156.0Y-64.2
X156.0Y-70.5
X156.0Y-78.2
X156.0Y-84.5
X156.0Y-92.2
X166.1Y-49.2
X166.1Y-63.2
X166.1Y-77.2
X166.1Y-91.2
X169.5Y-50.2
X169.5Y-64.2
X169.5Y-78.2
X169.5Y-92.2
X170.6Y-50.0
X170.6Y-64.0
X170.6Y-78.0
X170.6Y-92.0
X171.55Y-49.2
X171.55Y-63.2
X171.55Y-77.2
X171.55Y-91.2
X172.25Y-98.5
X172.25Y-112.5
X172.25Y-126.5
X172.25Y-140.5
X174.05Y-99.1
X174.05Y-113.1
X174.05Y-127.1
X174.05Y-141.1
X176.45Y-107.0
X176.45Y-121.0
X176.45Y-135.0
X176.45Y-149.0
X177.45Y-107.0
X177.45Y-121.0
X177.45Y-135.0
X177.45Y-149.0
X178.5Y-101.5
X178.5Y-115.5
X178.5Y-129.5
X178.5Y-143.5
X179.6Y-98.2
X179.6Y-112.2
X179.6Y-126.2
X179.6Y-140.2
X181.0Y-98.9
X181.0Y-112.9
X181.0Y-126.9
X181.0Y-140.9
X181.15Y-51.3
X181.15Y-65.3
X181.15Y-79.3
X181.15Y-93.3
X182.65Y-102.75
X182.65Y-103.65
X182.65Y-116.75
X182.65Y-117.65
X182.65Y-130.75
X182.65Y-131.65
X182.65Y-144.75
X182.65Y-145.65
X183.75Y-51.7
X183.75Y-65.7
X183.75Y-79.7
X183.75Y-93.7
X184.35Y-41.2
X184.35Y-55.2
X184.35Y-69.2
X184.35Y-83.2
X186.25Y-97.9
X186.25Y-111.9
X186.25Y-125.9
X186.25Y-139.9
X186.95Y-102.9
X186.95Y-116.9
X186.95Y-130.9
X186.95Y-144.9
X190.5Y-105.3
X190.5Y-119.3
X190.5Y-133.3
X190.5Y-147.3
X190.6Y-51.1
X190.6Y-65.1
X190.6Y-79.1
X190.6Y-93.1
T3
X109.85Y-103.1
X109.85Y-117.1
X109.85Y-131.1
X109.85Y-145.1
X124.3Y-44.1
X124.3Y-58.1
X124.3Y-72.1
X124.3Y-86.1
X129.3Y-103.3
X129.3Y-117.3
X129.3Y-131.3
X129.3Y-145.3
X136.7Y-50.1
X136.7Y-64.1
X136.7Y-78.1
X136.7Y-92.1
X138.5Y-50.1
X138.5Y-64.1
X138.5Y-78.1
X138.5Y-92.1
X162.0Y-98.9
X162.0Y-112.9
X162.0Y-126.9
X162.0Y-140.9
X163.8Y-98.9
X163.8Y-112.9
X163.8Y-126.9
X163.8Y-140.9
X171.2Y-45.7
X171.2Y-59.7
X171.2Y-73.7
X171.2Y-87.7
X176.2Y-104.9
X176.2Y-118.9
X176.2Y-132.9
X176.2Y-146.9
X190.65Y-45.9
X190.65Y-59.9
X190.65Y-73.9
X190.65Y-87.9
T4
X116.75Y-103.8
X116.75Y-117.8
X116.75Y-131.8
X116.75Y-145.8
X183.75Y-45.2
X183.75Y-59.2
X183.75Y-73.2
X183.75Y-87.2
T5
X110.35Y-46.1
X110.35Y-60.1
X110.35Y-74.1
X110.35Y-88.1
X111.85Y-46.1
X111.85Y-60.1
X111.85Y-74.1
X111.85Y-88.1
X115.1Y-46.0
X115.1Y-60.0
X115.1Y-74.0
X115.1Y-88.0
X115.85Y-44.3
X115.85Y-58.3
X115.85Y-72.3
X115.85Y-86.3
X119.55Y-42.8
X119.55Y-56.8
X119.55Y-70.8
X119.55Y-84.8
X124.6Y-103.1
X124.6Y-117.1
X124.6Y-131.1
X124.6Y-145.1
X124.7Y-104.7
X124.7Y-118.7
X124.7Y-132.7
X124.7Y-146.7
X125.95Y-103.1
X125.95Y-117.1
X125.95Y-131.1
X125.95Y-145.1
X126.1Y-104.7
X126.1Y-118.7
X126.1Y-132.7
X126.1Y-146.7
X128.1Y-105.3
X128.1Y-119.3
X128.1Y-133.3
X128.1Y-147.3
X129.5Y-105.3
X129.5Y-119.3
X129.5Y-133.3
X129.5Y-147.3
X130.0Y-41.5
X130.0Y-44.7
X130.0Y-55.5
X130.0Y-58.7
X130.0Y-69.5
X130.0Y-72.7
X130.0Y-83.5
X130.0Y-86.7
X131.5Y-44.7
X131.5Y-58.7
X131.5Y-72.7
X131.5Y-86.7
X132.8Y-104.1
X132.8Y-118.1
X132.8Y-132.1
X132.8Y-146.1
X133.0Y-44.7
X133.0Y-58.7
X133.0Y-72.7
X133.0Y-86.7
X133.8Y-49.0
X133.8Y-63.0
X133.8Y-77.0
X133.8Y-91.0
X134.0Y-41.5
X134.0Y-55.5
X134.0Y-69.5
X134.0Y-83.5
X134.3Y-103.7
X134.3Y-117.7
X134.3Y-131.7
X134.3Y-145.7
X135.1Y-49.0
X135.1Y-63.0
X135.1Y-77.0
X135.1Y-91.0
X135.7Y-103.7
X135.7Y-117.7
X135.7Y-131.7
X135.7Y-145.7
X135.75Y-99.25
X135.75Y-113.25
X135.75Y-127.25
X135.75Y-141.25
X137.25Y-99.25
X137.25Y-113.25
X137.25Y-127.25
X137.25Y-141.25
X138.0Y-41.5
X138.0Y-55.5
X138.0Y-69.5
X138.0Y-83.5
X139.0Y-106.25
X139.0Y-120.25
X139.0Y-134.25
X139.0Y-148.25
X140.1Y-101.3
X140.1Y-115.3
X140.1Y-129.3
X140.1Y-143.3
X141.5Y-101.3
X141.5Y-115.3
X141.5Y-129.3
X141.5Y-143.3
X142.5Y-41.5
X142.5Y-49.1
X142.5Y-55.5
X142.5Y-63.1
X142.5Y-69.5
X142.5Y-77.1
X142.5Y-83.5
X142.5Y-91.1
X144.7Y-101.6
X144.7Y-115.6
X144.7Y-129.6
X144.7Y-143.6
X145.0Y-42.7
X145.0Y-56.7
X145.0Y-70.7
X145.0Y-84.7
X146.1Y-101.6
X146.1Y-115.6
X146.1Y-129.6
X146.1Y-143.6
X150.0Y-106.25
X150.0Y-120.25
X150.0Y-134.25
X150.0Y-148.25
X150.5Y-42.75
X150.5Y-56.75
X150.5Y-70.75
X150.5Y-84.75
X154.4Y-47.4
X154.4Y-61.4
X154.4Y-75.4
X154.4Y-89.4
X155.5Y-106.3
X155.5Y-120.3
X155.5Y-134.3
X155.5Y-148.3
X155.8Y-47.4
X155.8Y-61.4
X155.8Y-75.4
X155.8Y-89.4
X158.0Y-99.9
X158.0Y-107.5
X158.0Y-113.9
X158.0Y-121.5
X158.0Y-127.9
X158.0Y-135.5
X158.0Y-141.9
X158.0Y-149.5
X159.0Y-47.7
X159.0Y-61.7
X159.0Y-75.7
X159.0Y-89.7
X160.4Y-47.7
X160.4Y-61.7
X160.4Y-75.7
X160.4Y-89.7
X161.5Y-42.75
X161.5Y-56.75
X161.5Y-70.75
X161.5Y-84.75
X162.5Y-107.5
X162.5Y-121.5
X162.5Y-135.5
X162.5Y-149.5
X163.25Y-49.75
X163.25Y-63.75
X163.25Y-77.75
X163.25Y-91.75
X164.75Y-49.75
X164.75Y-63.75
X164.75Y-77.75
X164.75Y-91.75
X164.8Y-45.3
X164.8Y-59.3
X164.8Y-73.3
X164.8Y-87.3
X165.4Y-100.0
X165.4Y-114.0
X165.4Y-128.0
X165.4Y-142.0
X166.2Y-45.3
X166.2Y-59.3
X166.2Y-73.3
X166.2Y-87.3
X166.5Y-107.5
X166.5Y-121.5
X166.5Y-135.5
X166.5Y-149.5
X166.7Y-100.0
X166.7Y-114.0
X166.7Y-128.0
X166.7Y-142.0
X167.5Y-104.3
X167.5Y-118.3
X167.5Y-132.3
X167.5Y-146.3
X167.7Y-44.9
X167.7Y-58.9
X167.7Y-72.9
X167.7Y-86.9
X169.0Y-104.3
X169.0Y-118.3
X169.0Y-132.3
X169.0Y-146.3
X170.5Y-104.3
X170.5Y-107.5
X170.5Y-118.3
X170.5Y-121.5
X170.5Y-132.3
X170.5Y-135.5
X170.5Y-146.3
X170.5Y-149.5
X171.0Y-43.7
X171.0Y-57.7
X171.0Y-71.7
X171.0Y-85.7
X172.4Y-43.7
X172.4Y-57.7
X172.4Y-71.7
X172.4Y-85.7
X174.4Y-44.3
X174.4Y-58.3
X174.4Y-72.3
X174.4Y-86.3
X174.55Y-45.9
X174.55Y-59.9
X174.55Y-73.9
X174.55Y-87.9
X175.8Y-44.3
X175.8Y-58.3
X175.8Y-72.3
X175.8Y-86.3
X175.9Y-45.9
X175.9Y-59.9
X175.9Y-73.9
X175.9Y-87.9
X180.95Y-106.2
X180.95Y-120.2
X180.95Y-134.2
X180.95Y-148.2
X184.65Y-104.7
X184.65Y-118.7
X184.65Y-132.7
X184.65Y-146.7
X185.4Y-103.0
X185.4Y-117.0
X185.4Y-131.0
X185.4Y-145.0
X188.65Y-102.9
X188.65Y-116.9
X188.65Y-130.9
X188.65Y-144.9
X190.15Y-102.9
X190.15Y-116.9
X190.15Y-130.9
X190.15Y-144.9
T6
X134.665Y-45.4
X134.665Y-59.4
X134.665Y-73.4
X134.665Y-87.4
X135.935Y-45.4
X135.935Y-59.4
X135.935Y-73.4
X135.935Y-87.4
X164.565Y-103.6
X164.565Y-117.6
X164.565Y-131.6
X164.565Y-145.6
X165.835Y-103.6
X165.835Y-117.6
X165.835Y-131.6
X165.835Y-145.6
T7
X99.0Y-43.25
X99.0Y-50.25
X99.0Y-57.25
X99.0Y-64.25
X99.0Y-71.25
X99.0Y-78.25
X99.0Y-85.25
X99.0Y-92.25
X140.6Y-41.2
X140.6Y-49.15
X140.6Y-55.2
X140.6Y-63.15
X140.6Y-69.2
X140.6Y-77.15
X140.6Y-83.2
X140.6Y-91.15
X159.9Y-99.85
X159.9Y-107.8
X159.9Y-113.85
X159.9Y-121.8
X159.9Y-127.85
X159.9Y-135.8
X159.9Y-141.85
X159.9Y-149.8
X201.5Y-98.75
X201.5Y-105.75
X201.5Y-112.75
X201.5Y-119.75
X201.5Y-126.75
X201.5Y-133.75
X201.5Y-140.75
X201.5Y-147.75
M30
