G04 #@! TF.GenerationSoftware,KiCad,Pcbnew,9.0.8*
G04 #@! TF.CreationDate,2026-07-16T19:15:42+09:00*
G04 #@! TF.ProjectId,motordecoder2-t-dc40mra-panelized,6d6f746f-7264-4656-936f-646572322d74,rev?*
G04 #@! TF.SameCoordinates,Original*
G04 #@! TF.FileFunction,Profile,NP*
%FSLAX46Y46*%
G04 Gerber Fmt 4.6, Leading zero omitted, Abs format (unit mm)*
G04 Created by KiCad (PCBNEW 9.0.8) date 2026-07-16 19:15:42*
%MOMM*%
%LPD*%
G01*
G04 APERTURE LIST*
%ADD10C,0.150000*%
G04 #@! TA.AperFunction,Profile*
%ADD11C,0.100000*%
G04 #@! TD*
G04 APERTURE END LIST*
D10*
X213288152Y-35901316D02*
X213573866Y-36663220D01*
X213573866Y-36663220D02*
X213859580Y-35901316D01*
X213573866Y-35425125D02*
X213573866Y-34663221D01*
X212954819Y-33567982D02*
X213954819Y-33234649D01*
X213954819Y-33234649D02*
X212954819Y-32901316D01*
X213573866Y-32567982D02*
X213573866Y-31806078D01*
X213859580Y-30758459D02*
X213907200Y-30806078D01*
X213907200Y-30806078D02*
X213954819Y-30948935D01*
X213954819Y-30948935D02*
X213954819Y-31044173D01*
X213954819Y-31044173D02*
X213907200Y-31187030D01*
X213907200Y-31187030D02*
X213811961Y-31282268D01*
X213811961Y-31282268D02*
X213716723Y-31329887D01*
X213716723Y-31329887D02*
X213526247Y-31377506D01*
X213526247Y-31377506D02*
X213383390Y-31377506D01*
X213383390Y-31377506D02*
X213192914Y-31329887D01*
X213192914Y-31329887D02*
X213097676Y-31282268D01*
X213097676Y-31282268D02*
X213002438Y-31187030D01*
X213002438Y-31187030D02*
X212954819Y-31044173D01*
X212954819Y-31044173D02*
X212954819Y-30948935D01*
X212954819Y-30948935D02*
X213002438Y-30806078D01*
X213002438Y-30806078D02*
X213050057Y-30758459D01*
X212954819Y-30329887D02*
X213764342Y-30329887D01*
X213764342Y-30329887D02*
X213859580Y-30282268D01*
X213859580Y-30282268D02*
X213907200Y-30234649D01*
X213907200Y-30234649D02*
X213954819Y-30139411D01*
X213954819Y-30139411D02*
X213954819Y-29948935D01*
X213954819Y-29948935D02*
X213907200Y-29853697D01*
X213907200Y-29853697D02*
X213859580Y-29806078D01*
X213859580Y-29806078D02*
X213764342Y-29758459D01*
X213764342Y-29758459D02*
X212954819Y-29758459D01*
X212954819Y-29425125D02*
X212954819Y-28853697D01*
X213954819Y-29139411D02*
X212954819Y-29139411D01*
X213711847Y-155098684D02*
X213426133Y-154336779D01*
X213426133Y-154336779D02*
X213140419Y-155098684D01*
X213426133Y-155574874D02*
X213426133Y-156336779D01*
X214045180Y-157432017D02*
X213045180Y-157765350D01*
X213045180Y-157765350D02*
X214045180Y-158098683D01*
X213426133Y-158432017D02*
X213426133Y-159193922D01*
X213140419Y-160241540D02*
X213092800Y-160193921D01*
X213092800Y-160193921D02*
X213045180Y-160051064D01*
X213045180Y-160051064D02*
X213045180Y-159955826D01*
X213045180Y-159955826D02*
X213092800Y-159812969D01*
X213092800Y-159812969D02*
X213188038Y-159717731D01*
X213188038Y-159717731D02*
X213283276Y-159670112D01*
X213283276Y-159670112D02*
X213473752Y-159622493D01*
X213473752Y-159622493D02*
X213616609Y-159622493D01*
X213616609Y-159622493D02*
X213807085Y-159670112D01*
X213807085Y-159670112D02*
X213902323Y-159717731D01*
X213902323Y-159717731D02*
X213997561Y-159812969D01*
X213997561Y-159812969D02*
X214045180Y-159955826D01*
X214045180Y-159955826D02*
X214045180Y-160051064D01*
X214045180Y-160051064D02*
X213997561Y-160193921D01*
X213997561Y-160193921D02*
X213949942Y-160241540D01*
X214045180Y-160670112D02*
X213235657Y-160670112D01*
X213235657Y-160670112D02*
X213140419Y-160717731D01*
X213140419Y-160717731D02*
X213092800Y-160765350D01*
X213092800Y-160765350D02*
X213045180Y-160860588D01*
X213045180Y-160860588D02*
X213045180Y-161051064D01*
X213045180Y-161051064D02*
X213092800Y-161146302D01*
X213092800Y-161146302D02*
X213140419Y-161193921D01*
X213140419Y-161193921D02*
X213235657Y-161241540D01*
X213235657Y-161241540D02*
X214045180Y-161241540D01*
X214045180Y-161574874D02*
X214045180Y-162146302D01*
X213045180Y-161860588D02*
X214045180Y-161860588D01*
D11*
X213500000Y-37500000D02*
X213500000Y-153500000D01*
D10*
X86788152Y-35901316D02*
X87073866Y-36663220D01*
X87073866Y-36663220D02*
X87359580Y-35901316D01*
X87073866Y-35425125D02*
X87073866Y-34663221D01*
X86454819Y-33567982D02*
X87454819Y-33234649D01*
X87454819Y-33234649D02*
X86454819Y-32901316D01*
X87073866Y-32567982D02*
X87073866Y-31806078D01*
X87359580Y-30758459D02*
X87407200Y-30806078D01*
X87407200Y-30806078D02*
X87454819Y-30948935D01*
X87454819Y-30948935D02*
X87454819Y-31044173D01*
X87454819Y-31044173D02*
X87407200Y-31187030D01*
X87407200Y-31187030D02*
X87311961Y-31282268D01*
X87311961Y-31282268D02*
X87216723Y-31329887D01*
X87216723Y-31329887D02*
X87026247Y-31377506D01*
X87026247Y-31377506D02*
X86883390Y-31377506D01*
X86883390Y-31377506D02*
X86692914Y-31329887D01*
X86692914Y-31329887D02*
X86597676Y-31282268D01*
X86597676Y-31282268D02*
X86502438Y-31187030D01*
X86502438Y-31187030D02*
X86454819Y-31044173D01*
X86454819Y-31044173D02*
X86454819Y-30948935D01*
X86454819Y-30948935D02*
X86502438Y-30806078D01*
X86502438Y-30806078D02*
X86550057Y-30758459D01*
X86454819Y-30329887D02*
X87264342Y-30329887D01*
X87264342Y-30329887D02*
X87359580Y-30282268D01*
X87359580Y-30282268D02*
X87407200Y-30234649D01*
X87407200Y-30234649D02*
X87454819Y-30139411D01*
X87454819Y-30139411D02*
X87454819Y-29948935D01*
X87454819Y-29948935D02*
X87407200Y-29853697D01*
X87407200Y-29853697D02*
X87359580Y-29806078D01*
X87359580Y-29806078D02*
X87264342Y-29758459D01*
X87264342Y-29758459D02*
X86454819Y-29758459D01*
X86454819Y-29425125D02*
X86454819Y-28853697D01*
X87454819Y-29139411D02*
X86454819Y-29139411D01*
X87211847Y-155098684D02*
X86926133Y-154336779D01*
X86926133Y-154336779D02*
X86640419Y-155098684D01*
X86926133Y-155574874D02*
X86926133Y-156336779D01*
X87545180Y-157432017D02*
X86545180Y-157765350D01*
X86545180Y-157765350D02*
X87545180Y-158098683D01*
X86926133Y-158432017D02*
X86926133Y-159193922D01*
X86640419Y-160241540D02*
X86592800Y-160193921D01*
X86592800Y-160193921D02*
X86545180Y-160051064D01*
X86545180Y-160051064D02*
X86545180Y-159955826D01*
X86545180Y-159955826D02*
X86592800Y-159812969D01*
X86592800Y-159812969D02*
X86688038Y-159717731D01*
X86688038Y-159717731D02*
X86783276Y-159670112D01*
X86783276Y-159670112D02*
X86973752Y-159622493D01*
X86973752Y-159622493D02*
X87116609Y-159622493D01*
X87116609Y-159622493D02*
X87307085Y-159670112D01*
X87307085Y-159670112D02*
X87402323Y-159717731D01*
X87402323Y-159717731D02*
X87497561Y-159812969D01*
X87497561Y-159812969D02*
X87545180Y-159955826D01*
X87545180Y-159955826D02*
X87545180Y-160051064D01*
X87545180Y-160051064D02*
X87497561Y-160193921D01*
X87497561Y-160193921D02*
X87449942Y-160241540D01*
X87545180Y-160670112D02*
X86735657Y-160670112D01*
X86735657Y-160670112D02*
X86640419Y-160717731D01*
X86640419Y-160717731D02*
X86592800Y-160765350D01*
X86592800Y-160765350D02*
X86545180Y-160860588D01*
X86545180Y-160860588D02*
X86545180Y-161051064D01*
X86545180Y-161051064D02*
X86592800Y-161146302D01*
X86592800Y-161146302D02*
X86640419Y-161193921D01*
X86640419Y-161193921D02*
X86735657Y-161241540D01*
X86735657Y-161241540D02*
X87545180Y-161241540D01*
X87545180Y-161574874D02*
X87545180Y-162146302D01*
X86545180Y-161860588D02*
X87545180Y-161860588D01*
D11*
X87000000Y-37500000D02*
X87000000Y-153500000D01*
D10*
X70103697Y-94954819D02*
X70437030Y-95954819D01*
X70437030Y-95954819D02*
X70770363Y-94954819D01*
X71103697Y-95573866D02*
X71865602Y-95573866D01*
X72913220Y-95859580D02*
X72865601Y-95907200D01*
X72865601Y-95907200D02*
X72722744Y-95954819D01*
X72722744Y-95954819D02*
X72627506Y-95954819D01*
X72627506Y-95954819D02*
X72484649Y-95907200D01*
X72484649Y-95907200D02*
X72389411Y-95811961D01*
X72389411Y-95811961D02*
X72341792Y-95716723D01*
X72341792Y-95716723D02*
X72294173Y-95526247D01*
X72294173Y-95526247D02*
X72294173Y-95383390D01*
X72294173Y-95383390D02*
X72341792Y-95192914D01*
X72341792Y-95192914D02*
X72389411Y-95097676D01*
X72389411Y-95097676D02*
X72484649Y-95002438D01*
X72484649Y-95002438D02*
X72627506Y-94954819D01*
X72627506Y-94954819D02*
X72722744Y-94954819D01*
X72722744Y-94954819D02*
X72865601Y-95002438D01*
X72865601Y-95002438D02*
X72913220Y-95050057D01*
X73341792Y-94954819D02*
X73341792Y-95764342D01*
X73341792Y-95764342D02*
X73389411Y-95859580D01*
X73389411Y-95859580D02*
X73437030Y-95907200D01*
X73437030Y-95907200D02*
X73532268Y-95954819D01*
X73532268Y-95954819D02*
X73722744Y-95954819D01*
X73722744Y-95954819D02*
X73817982Y-95907200D01*
X73817982Y-95907200D02*
X73865601Y-95859580D01*
X73865601Y-95859580D02*
X73913220Y-95764342D01*
X73913220Y-95764342D02*
X73913220Y-94954819D01*
X74246554Y-94954819D02*
X74817982Y-94954819D01*
X74532268Y-95954819D02*
X74532268Y-94954819D01*
X75913221Y-95573866D02*
X76675126Y-95573866D01*
X77151316Y-95288152D02*
X77913221Y-95573866D01*
X77913221Y-95573866D02*
X77151316Y-95859580D01*
X224098684Y-95288152D02*
X223336779Y-95573866D01*
X223336779Y-95573866D02*
X224098684Y-95859580D01*
X224574874Y-95573866D02*
X225336779Y-95573866D01*
X226432017Y-94954819D02*
X226765350Y-95954819D01*
X226765350Y-95954819D02*
X227098683Y-94954819D01*
X227432017Y-95573866D02*
X228193922Y-95573866D01*
X229241540Y-95859580D02*
X229193921Y-95907200D01*
X229193921Y-95907200D02*
X229051064Y-95954819D01*
X229051064Y-95954819D02*
X228955826Y-95954819D01*
X228955826Y-95954819D02*
X228812969Y-95907200D01*
X228812969Y-95907200D02*
X228717731Y-95811961D01*
X228717731Y-95811961D02*
X228670112Y-95716723D01*
X228670112Y-95716723D02*
X228622493Y-95526247D01*
X228622493Y-95526247D02*
X228622493Y-95383390D01*
X228622493Y-95383390D02*
X228670112Y-95192914D01*
X228670112Y-95192914D02*
X228717731Y-95097676D01*
X228717731Y-95097676D02*
X228812969Y-95002438D01*
X228812969Y-95002438D02*
X228955826Y-94954819D01*
X228955826Y-94954819D02*
X229051064Y-94954819D01*
X229051064Y-94954819D02*
X229193921Y-95002438D01*
X229193921Y-95002438D02*
X229241540Y-95050057D01*
X229670112Y-94954819D02*
X229670112Y-95764342D01*
X229670112Y-95764342D02*
X229717731Y-95859580D01*
X229717731Y-95859580D02*
X229765350Y-95907200D01*
X229765350Y-95907200D02*
X229860588Y-95954819D01*
X229860588Y-95954819D02*
X230051064Y-95954819D01*
X230051064Y-95954819D02*
X230146302Y-95907200D01*
X230146302Y-95907200D02*
X230193921Y-95859580D01*
X230193921Y-95859580D02*
X230241540Y-95764342D01*
X230241540Y-95764342D02*
X230241540Y-94954819D01*
X230574874Y-94954819D02*
X231146302Y-94954819D01*
X230860588Y-95954819D02*
X230860588Y-94954819D01*
D11*
X78750000Y-95500000D02*
X222500000Y-95500000D01*
X81000000Y-40000000D02*
X81000000Y-54000000D01*
X81000000Y-40000000D02*
X85500000Y-40000000D01*
X81000000Y-54000000D02*
X81000000Y-68000000D01*
X81000000Y-68000000D02*
X81000000Y-82000000D01*
X81000000Y-82000000D02*
X81000000Y-96000000D01*
X81000000Y-96000000D02*
X81000000Y-110000000D01*
X81000000Y-110000000D02*
X81000000Y-124000000D01*
X81000000Y-124000000D02*
X81000000Y-138000000D01*
X81000000Y-138000000D02*
X81000000Y-151000000D01*
X85500000Y-53000000D02*
X85500000Y-54000000D01*
X85500000Y-53000000D02*
G75*
G02*
X86500000Y-52000000I1000000J0D01*
G01*
X85500000Y-67000000D02*
X85500000Y-68000000D01*
X85500000Y-67000000D02*
G75*
G02*
X86500000Y-66000000I1000000J0D01*
G01*
X85500000Y-81000000D02*
X85500000Y-82000000D01*
X85500000Y-81000000D02*
G75*
G02*
X86500000Y-80000000I1000000J0D01*
G01*
X85500000Y-95000000D02*
X85500000Y-96000000D01*
X85500000Y-95000000D02*
G75*
G02*
X86500000Y-94000000I1000000J0D01*
G01*
X85500000Y-109000000D02*
X85500000Y-110000000D01*
X85500000Y-109000000D02*
G75*
G02*
X86500000Y-108000000I1000000J0D01*
G01*
X85500000Y-123000000D02*
X85500000Y-124000000D01*
X85500000Y-123000000D02*
G75*
G02*
X86500000Y-122000000I1000000J0D01*
G01*
X85500000Y-137000000D02*
X85500000Y-138000000D01*
X85500000Y-137000000D02*
G75*
G02*
X86500000Y-136000000I1000000J0D01*
G01*
X85500000Y-151000000D02*
X81000000Y-151000000D01*
X85500000Y-151000000D02*
G75*
G02*
X86500000Y-150000000I1000000J0D01*
G01*
X86500000Y-41000000D02*
G75*
G02*
X85500000Y-40000000I0J1000000D01*
G01*
X86500000Y-52000000D02*
X87000000Y-52000000D01*
X86500000Y-55000000D02*
G75*
G02*
X85500000Y-54000000I0J1000000D01*
G01*
X86500000Y-66000000D02*
X87000000Y-66000000D01*
X86500000Y-69000000D02*
G75*
G02*
X85500000Y-68000000I0J1000000D01*
G01*
X86500000Y-80000000D02*
X87000000Y-80000000D01*
X86500000Y-83000000D02*
G75*
G02*
X85500000Y-82000000I0J1000000D01*
G01*
X86500000Y-94000000D02*
X87000000Y-94000000D01*
X86500000Y-97000000D02*
G75*
G02*
X85500000Y-96000000I0J1000000D01*
G01*
X86500000Y-108000000D02*
X87000000Y-108000000D01*
X86500000Y-111000000D02*
G75*
G02*
X85500000Y-110000000I0J1000000D01*
G01*
X86500000Y-122000000D02*
X87000000Y-122000000D01*
X86500000Y-125000000D02*
G75*
G02*
X85500000Y-124000000I0J1000000D01*
G01*
X86500000Y-136000000D02*
X87000000Y-136000000D01*
X86500000Y-139000000D02*
G75*
G02*
X85500000Y-138000000I0J1000000D01*
G01*
X86500000Y-150000000D02*
X87000000Y-150000000D01*
X87000000Y-41000000D02*
X86500000Y-41000000D01*
X87000000Y-52000000D02*
X87000000Y-41000000D01*
X87000000Y-55000000D02*
X86500000Y-55000000D01*
X87000000Y-66000000D02*
X87000000Y-55000000D01*
X87000000Y-69000000D02*
X86500000Y-69000000D01*
X87000000Y-80000000D02*
X87000000Y-69000000D01*
X87000000Y-83000000D02*
X86500000Y-83000000D01*
X87000000Y-94000000D02*
X87000000Y-83000000D01*
X87000000Y-97000000D02*
X86500000Y-97000000D01*
X87000000Y-108000000D02*
X87000000Y-97000000D01*
X87000000Y-111000000D02*
X86500000Y-111000000D01*
X87000000Y-122000000D02*
X87000000Y-111000000D01*
X87000000Y-125000000D02*
X86500000Y-125000000D01*
X87000000Y-136000000D02*
X87000000Y-125000000D01*
X87000000Y-139000000D02*
X86500000Y-139000000D01*
X87000000Y-150000000D02*
X87000000Y-139000000D01*
X87000000Y-41000000D02*
X98000000Y-41000000D01*
X87000000Y-52000000D02*
X87000000Y-41000000D01*
X87000000Y-55000000D02*
X98000000Y-55000000D01*
X87000000Y-66000000D02*
X87000000Y-55000000D01*
X87000000Y-69000000D02*
X98000000Y-69000000D01*
X87000000Y-80000000D02*
X87000000Y-69000000D01*
X87000000Y-83000000D02*
X98000000Y-83000000D01*
X87000000Y-94000000D02*
X87000000Y-83000000D01*
X87000000Y-97000000D02*
X98000000Y-97000000D01*
X87000000Y-108000000D02*
X87000000Y-97000000D01*
X87000000Y-108000000D02*
X98000000Y-108000000D01*
X87000000Y-111000000D02*
X98000000Y-111000000D01*
X87000000Y-122000000D02*
X87000000Y-111000000D01*
X87000000Y-122000000D02*
X98000000Y-122000000D01*
X87000000Y-125000000D02*
X98000000Y-125000000D01*
X87000000Y-136000000D02*
X87000000Y-125000000D01*
X87000000Y-136000000D02*
X98000000Y-136000000D01*
X87000000Y-139000000D02*
X98000000Y-139000000D01*
X87000000Y-150000000D02*
X87000000Y-139000000D01*
X87000000Y-150000000D02*
X98000000Y-150000000D01*
X98000000Y-52000000D02*
X87000000Y-52000000D01*
X98000000Y-52000000D02*
G75*
G02*
X99000000Y-53000000I0J-1000000D01*
G01*
X98000000Y-66000000D02*
X87000000Y-66000000D01*
X98000000Y-66000000D02*
G75*
G02*
X99000000Y-67000000I0J-1000000D01*
G01*
X98000000Y-80000000D02*
X87000000Y-80000000D01*
X98000000Y-80000000D02*
G75*
G02*
X99000000Y-81000000I0J-1000000D01*
G01*
X98000000Y-94000000D02*
X87000000Y-94000000D01*
X98000000Y-94000000D02*
G75*
G02*
X99000000Y-95000000I0J-1000000D01*
G01*
X98000000Y-108000000D02*
G75*
G02*
X99000000Y-109000000I0J-1000000D01*
G01*
X98000000Y-122000000D02*
G75*
G02*
X99000000Y-123000000I0J-1000000D01*
G01*
X98000000Y-136000000D02*
G75*
G02*
X99000000Y-137000000I0J-1000000D01*
G01*
X98000000Y-150000000D02*
G75*
G02*
X99000000Y-151000000I0J-1000000D01*
G01*
X99000000Y-40000000D02*
G75*
G02*
X98000000Y-41000000I-1000000J0D01*
G01*
X99000000Y-40000000D02*
X201500000Y-40000000D01*
X99000000Y-54000000D02*
G75*
G02*
X98000000Y-55000000I-1000000J0D01*
G01*
X99000000Y-54000000D02*
X201500000Y-54000000D01*
X99000000Y-68000000D02*
G75*
G02*
X98000000Y-69000000I-1000000J0D01*
G01*
X99000000Y-68000000D02*
X201500000Y-68000000D01*
X99000000Y-82000000D02*
G75*
G02*
X98000000Y-83000000I-1000000J0D01*
G01*
X99000000Y-82000000D02*
X201500000Y-82000000D01*
X99000000Y-96000000D02*
G75*
G02*
X98000000Y-97000000I-1000000J0D01*
G01*
X99000000Y-96000000D02*
X201500000Y-96000000D01*
X99000000Y-110000000D02*
G75*
G02*
X98000000Y-111000000I-1000000J0D01*
G01*
X99000000Y-110000000D02*
X201500000Y-110000000D01*
X99000000Y-124000000D02*
G75*
G02*
X98000000Y-125000000I-1000000J0D01*
G01*
X99000000Y-124000000D02*
X201500000Y-124000000D01*
X99000000Y-138000000D02*
G75*
G02*
X98000000Y-139000000I-1000000J0D01*
G01*
X99000000Y-138000000D02*
X201500000Y-138000000D01*
X102250000Y-44250000D02*
X104750000Y-44250000D01*
X102250000Y-48750000D02*
G75*
G02*
X102250000Y-44250000I0J2250000D01*
G01*
X102250000Y-58250000D02*
X104750000Y-58250000D01*
X102250000Y-62750000D02*
G75*
G02*
X102250000Y-58250000I0J2250000D01*
G01*
X102250000Y-72250000D02*
X104750000Y-72250000D01*
X102250000Y-76750000D02*
G75*
G02*
X102250000Y-72250000I0J2250000D01*
G01*
X102250000Y-86250000D02*
X104750000Y-86250000D01*
X102250000Y-90750000D02*
G75*
G02*
X102250000Y-86250000I0J2250000D01*
G01*
X102250000Y-100250000D02*
X104750000Y-100250000D01*
X102250000Y-104750000D02*
G75*
G02*
X102250000Y-100250000I0J2250000D01*
G01*
X102250000Y-114250000D02*
X104750000Y-114250000D01*
X102250000Y-118750000D02*
G75*
G02*
X102250000Y-114250000I0J2250000D01*
G01*
X102250000Y-128250000D02*
X104750000Y-128250000D01*
X102250000Y-132750000D02*
G75*
G02*
X102250000Y-128250000I0J2250000D01*
G01*
X102250000Y-142250000D02*
X104750000Y-142250000D01*
X102250000Y-146750000D02*
G75*
G02*
X102250000Y-142250000I0J2250000D01*
G01*
X104750000Y-44250000D02*
G75*
G02*
X104750000Y-48750000I0J-2250000D01*
G01*
X104750000Y-48750000D02*
X102250000Y-48750000D01*
X104750000Y-58250000D02*
G75*
G02*
X104750000Y-62750000I0J-2250000D01*
G01*
X104750000Y-62750000D02*
X102250000Y-62750000D01*
X104750000Y-72250000D02*
G75*
G02*
X104750000Y-76750000I0J-2250000D01*
G01*
X104750000Y-76750000D02*
X102250000Y-76750000D01*
X104750000Y-86250000D02*
G75*
G02*
X104750000Y-90750000I0J-2250000D01*
G01*
X104750000Y-90750000D02*
X102250000Y-90750000D01*
X104750000Y-100250000D02*
G75*
G02*
X104750000Y-104750000I0J-2250000D01*
G01*
X104750000Y-104750000D02*
X102250000Y-104750000D01*
X104750000Y-114250000D02*
G75*
G02*
X104750000Y-118750000I0J-2250000D01*
G01*
X104750000Y-118750000D02*
X102250000Y-118750000D01*
X104750000Y-128250000D02*
G75*
G02*
X104750000Y-132750000I0J-2250000D01*
G01*
X104750000Y-132750000D02*
X102250000Y-132750000D01*
X104750000Y-142250000D02*
G75*
G02*
X104750000Y-146750000I0J-2250000D01*
G01*
X104750000Y-146750000D02*
X102250000Y-146750000D01*
X195750000Y-44250000D02*
X198250000Y-44250000D01*
X195750000Y-48750000D02*
G75*
G02*
X195750000Y-44250000I0J2250000D01*
G01*
X195750000Y-58250000D02*
X198250000Y-58250000D01*
X195750000Y-62750000D02*
G75*
G02*
X195750000Y-58250000I0J2250000D01*
G01*
X195750000Y-72250000D02*
X198250000Y-72250000D01*
X195750000Y-76750000D02*
G75*
G02*
X195750000Y-72250000I0J2250000D01*
G01*
X195750000Y-86250000D02*
X198250000Y-86250000D01*
X195750000Y-90750000D02*
G75*
G02*
X195750000Y-86250000I0J2250000D01*
G01*
X195750000Y-100250000D02*
X198250000Y-100250000D01*
X195750000Y-104750000D02*
G75*
G02*
X195750000Y-100250000I0J2250000D01*
G01*
X195750000Y-114250000D02*
X198250000Y-114250000D01*
X195750000Y-118750000D02*
G75*
G02*
X195750000Y-114250000I0J2250000D01*
G01*
X195750000Y-128250000D02*
X198250000Y-128250000D01*
X195750000Y-132750000D02*
G75*
G02*
X195750000Y-128250000I0J2250000D01*
G01*
X195750000Y-142250000D02*
X198250000Y-142250000D01*
X195750000Y-146750000D02*
G75*
G02*
X195750000Y-142250000I0J2250000D01*
G01*
X198250000Y-44250000D02*
G75*
G02*
X198250000Y-48750000I0J-2250000D01*
G01*
X198250000Y-48750000D02*
X195750000Y-48750000D01*
X198250000Y-58250000D02*
G75*
G02*
X198250000Y-62750000I0J-2250000D01*
G01*
X198250000Y-62750000D02*
X195750000Y-62750000D01*
X198250000Y-72250000D02*
G75*
G02*
X198250000Y-76750000I0J-2250000D01*
G01*
X198250000Y-76750000D02*
X195750000Y-76750000D01*
X198250000Y-86250000D02*
G75*
G02*
X198250000Y-90750000I0J-2250000D01*
G01*
X198250000Y-90750000D02*
X195750000Y-90750000D01*
X198250000Y-100250000D02*
G75*
G02*
X198250000Y-104750000I0J-2250000D01*
G01*
X198250000Y-104750000D02*
X195750000Y-104750000D01*
X198250000Y-114250000D02*
G75*
G02*
X198250000Y-118750000I0J-2250000D01*
G01*
X198250000Y-118750000D02*
X195750000Y-118750000D01*
X198250000Y-128250000D02*
G75*
G02*
X198250000Y-132750000I0J-2250000D01*
G01*
X198250000Y-132750000D02*
X195750000Y-132750000D01*
X198250000Y-142250000D02*
G75*
G02*
X198250000Y-146750000I0J-2250000D01*
G01*
X198250000Y-146750000D02*
X195750000Y-146750000D01*
X201500000Y-53000000D02*
X99000000Y-53000000D01*
X201500000Y-53000000D02*
G75*
G02*
X202500000Y-52000000I1000000J0D01*
G01*
X201500000Y-67000000D02*
X99000000Y-67000000D01*
X201500000Y-67000000D02*
G75*
G02*
X202500000Y-66000000I1000000J0D01*
G01*
X201500000Y-81000000D02*
X99000000Y-81000000D01*
X201500000Y-81000000D02*
G75*
G02*
X202500000Y-80000000I1000000J0D01*
G01*
X201500000Y-95000000D02*
X99000000Y-95000000D01*
X201500000Y-95000000D02*
G75*
G02*
X202500000Y-94000000I1000000J0D01*
G01*
X201500000Y-109000000D02*
X99000000Y-109000000D01*
X201500000Y-109000000D02*
G75*
G02*
X202500000Y-108000000I1000000J0D01*
G01*
X201500000Y-123000000D02*
X99000000Y-123000000D01*
X201500000Y-123000000D02*
G75*
G02*
X202500000Y-122000000I1000000J0D01*
G01*
X201500000Y-137000000D02*
X99000000Y-137000000D01*
X201500000Y-137000000D02*
G75*
G02*
X202500000Y-136000000I1000000J0D01*
G01*
X201500000Y-151000000D02*
X99000000Y-151000000D01*
X201500000Y-151000000D02*
G75*
G02*
X202500000Y-150000000I1000000J0D01*
G01*
X202500000Y-41000000D02*
G75*
G02*
X201500000Y-40000000I0J1000000D01*
G01*
X202500000Y-55000000D02*
G75*
G02*
X201500000Y-54000000I0J1000000D01*
G01*
X202500000Y-69000000D02*
G75*
G02*
X201500000Y-68000000I0J1000000D01*
G01*
X202500000Y-83000000D02*
G75*
G02*
X201500000Y-82000000I0J1000000D01*
G01*
X202500000Y-97000000D02*
G75*
G02*
X201500000Y-96000000I0J1000000D01*
G01*
X202500000Y-97000000D02*
X213500000Y-97000000D01*
X202500000Y-111000000D02*
G75*
G02*
X201500000Y-110000000I0J1000000D01*
G01*
X202500000Y-111000000D02*
X213500000Y-111000000D01*
X202500000Y-125000000D02*
G75*
G02*
X201500000Y-124000000I0J1000000D01*
G01*
X202500000Y-125000000D02*
X213500000Y-125000000D01*
X202500000Y-139000000D02*
G75*
G02*
X201500000Y-138000000I0J1000000D01*
G01*
X202500000Y-139000000D02*
X213500000Y-139000000D01*
X213500000Y-41000000D02*
X202500000Y-41000000D01*
X213500000Y-41000000D02*
X213500000Y-52000000D01*
X213500000Y-52000000D02*
X202500000Y-52000000D01*
X213500000Y-55000000D02*
X202500000Y-55000000D01*
X213500000Y-55000000D02*
X213500000Y-66000000D01*
X213500000Y-66000000D02*
X202500000Y-66000000D01*
X213500000Y-69000000D02*
X202500000Y-69000000D01*
X213500000Y-69000000D02*
X213500000Y-80000000D01*
X213500000Y-80000000D02*
X202500000Y-80000000D01*
X213500000Y-83000000D02*
X202500000Y-83000000D01*
X213500000Y-83000000D02*
X213500000Y-94000000D01*
X213500000Y-94000000D02*
X202500000Y-94000000D01*
X213500000Y-97000000D02*
X213500000Y-108000000D01*
X213500000Y-108000000D02*
X202500000Y-108000000D01*
X213500000Y-111000000D02*
X213500000Y-122000000D01*
X213500000Y-122000000D02*
X202500000Y-122000000D01*
X213500000Y-125000000D02*
X213500000Y-136000000D01*
X213500000Y-136000000D02*
X202500000Y-136000000D01*
X213500000Y-139000000D02*
X213500000Y-150000000D01*
X213500000Y-150000000D02*
X202500000Y-150000000D01*
X213500000Y-41000000D02*
X213500000Y-52000000D01*
X213500000Y-52000000D02*
X214000000Y-52000000D01*
X213500000Y-55000000D02*
X213500000Y-66000000D01*
X213500000Y-66000000D02*
X214000000Y-66000000D01*
X213500000Y-69000000D02*
X213500000Y-80000000D01*
X213500000Y-80000000D02*
X214000000Y-80000000D01*
X213500000Y-83000000D02*
X213500000Y-94000000D01*
X213500000Y-94000000D02*
X214000000Y-94000000D01*
X213500000Y-97000000D02*
X213500000Y-108000000D01*
X213500000Y-108000000D02*
X214000000Y-108000000D01*
X213500000Y-111000000D02*
X213500000Y-122000000D01*
X213500000Y-122000000D02*
X214000000Y-122000000D01*
X213500000Y-125000000D02*
X213500000Y-136000000D01*
X213500000Y-136000000D02*
X214000000Y-136000000D01*
X213500000Y-139000000D02*
X213500000Y-150000000D01*
X213500000Y-150000000D02*
X214000000Y-150000000D01*
X214000000Y-41000000D02*
X213500000Y-41000000D01*
X214000000Y-52000000D02*
G75*
G02*
X215000000Y-53000000I0J-1000000D01*
G01*
X214000000Y-55000000D02*
X213500000Y-55000000D01*
X214000000Y-66000000D02*
G75*
G02*
X215000000Y-67000000I0J-1000000D01*
G01*
X214000000Y-69000000D02*
X213500000Y-69000000D01*
X214000000Y-80000000D02*
G75*
G02*
X215000000Y-81000000I0J-1000000D01*
G01*
X214000000Y-83000000D02*
X213500000Y-83000000D01*
X214000000Y-94000000D02*
G75*
G02*
X215000000Y-95000000I0J-1000000D01*
G01*
X214000000Y-97000000D02*
X213500000Y-97000000D01*
X214000000Y-108000000D02*
G75*
G02*
X215000000Y-109000000I0J-1000000D01*
G01*
X214000000Y-111000000D02*
X213500000Y-111000000D01*
X214000000Y-122000000D02*
G75*
G02*
X215000000Y-123000000I0J-1000000D01*
G01*
X214000000Y-125000000D02*
X213500000Y-125000000D01*
X214000000Y-136000000D02*
G75*
G02*
X215000000Y-137000000I0J-1000000D01*
G01*
X214000000Y-139000000D02*
X213500000Y-139000000D01*
X214000000Y-150000000D02*
G75*
G02*
X215000000Y-151000000I0J-1000000D01*
G01*
X215000000Y-40000000D02*
G75*
G02*
X214000000Y-41000000I-1000000J0D01*
G01*
X215000000Y-40000000D02*
X219500000Y-40000000D01*
X215000000Y-54000000D02*
G75*
G02*
X214000000Y-55000000I-1000000J0D01*
G01*
X215000000Y-54000000D02*
X215000000Y-53000000D01*
X215000000Y-68000000D02*
G75*
G02*
X214000000Y-69000000I-1000000J0D01*
G01*
X215000000Y-68000000D02*
X215000000Y-67000000D01*
X215000000Y-82000000D02*
G75*
G02*
X214000000Y-83000000I-1000000J0D01*
G01*
X215000000Y-82000000D02*
X215000000Y-81000000D01*
X215000000Y-96000000D02*
G75*
G02*
X214000000Y-97000000I-1000000J0D01*
G01*
X215000000Y-96000000D02*
X215000000Y-95000000D01*
X215000000Y-110000000D02*
G75*
G02*
X214000000Y-111000000I-1000000J0D01*
G01*
X215000000Y-110000000D02*
X215000000Y-109000000D01*
X215000000Y-124000000D02*
G75*
G02*
X214000000Y-125000000I-1000000J0D01*
G01*
X215000000Y-124000000D02*
X215000000Y-123000000D01*
X215000000Y-138000000D02*
G75*
G02*
X214000000Y-139000000I-1000000J0D01*
G01*
X215000000Y-138000000D02*
X215000000Y-137000000D01*
X219500000Y-53000000D02*
X219500000Y-40000000D01*
X219500000Y-67000000D02*
X219500000Y-53000000D01*
X219500000Y-81000000D02*
X219500000Y-67000000D01*
X219500000Y-95000000D02*
X219500000Y-81000000D01*
X219500000Y-109000000D02*
X219500000Y-95000000D01*
X219500000Y-123000000D02*
X219500000Y-109000000D01*
X219500000Y-137000000D02*
X219500000Y-123000000D01*
X219500000Y-151000000D02*
X215000000Y-151000000D01*
X219500000Y-151000000D02*
X219500000Y-137000000D01*
M02*
