G04 #@! TF.GenerationSoftware,KiCad,Pcbnew,9.0.8*
G04 #@! TF.CreationDate,2026-07-16T19:15:42+09:00*
G04 #@! TF.ProjectId,motordecoder2-t-dc40mra-panelized,6d6f746f-7264-4656-936f-646572322d74,rev?*
G04 #@! TF.SameCoordinates,Original*
G04 #@! TF.FileFunction,Paste,Top*
G04 #@! TF.FilePolarity,Positive*
%FSLAX46Y46*%
G04 Gerber Fmt 4.6, Leading zero omitted, Abs format (unit mm)*
G04 Created by KiCad (PCBNEW 9.0.8) date 2026-07-16 19:15:42*
%MOMM*%
%LPD*%
G01*
G04 APERTURE LIST*
G04 Aperture macros list*
%AMRoundRect*
0 Rectangle with rounded corners*
0 $1 Rounding radius*
0 $2 $3 $4 $5 $6 $7 $8 $9 X,Y pos of 4 corners*
0 Add a 4 corners polygon primitive as box body*
4,1,4,$2,$3,$4,$5,$6,$7,$8,$9,$2,$3,0*
0 Add four circle primitives for the rounded corners*
1,1,$1+$1,$2,$3*
1,1,$1+$1,$4,$5*
1,1,$1+$1,$6,$7*
1,1,$1+$1,$8,$9*
0 Add four rect primitives between the rounded corners*
20,1,$1+$1,$2,$3,$4,$5,0*
20,1,$1+$1,$4,$5,$6,$7,0*
20,1,$1+$1,$6,$7,$8,$9,0*
20,1,$1+$1,$8,$9,$2,$3,0*%
%AMFreePoly0*
4,1,14,0.317650,0.059922,0.359922,0.017650,0.370000,-0.006678,0.370000,-0.044032,0.362394,-0.062394,0.344033,-0.070000,-0.344033,-0.070000,-0.362394,-0.062394,-0.370000,-0.044032,-0.370000,0.044032,-0.362394,0.062394,-0.344033,0.070000,0.293322,0.070000,0.317650,0.059922,0.317650,0.059922,$1*%
%AMFreePoly1*
4,1,14,0.362394,0.062394,0.370000,0.044032,0.370000,0.006678,0.359922,-0.017650,0.317650,-0.059922,0.293322,-0.070000,-0.344033,-0.070000,-0.362394,-0.062394,-0.370000,-0.044032,-0.370000,0.044032,-0.362394,0.062394,-0.344033,0.070000,0.344033,0.070000,0.362394,0.062394,0.362394,0.062394,$1*%
%AMFreePoly2*
4,1,14,0.062394,0.362394,0.070000,0.344032,0.070000,-0.344032,0.062394,-0.362394,0.044033,-0.370000,-0.044033,-0.370000,-0.062394,-0.362394,-0.070000,-0.344032,-0.070000,0.293321,-0.059922,0.317650,-0.017650,0.359922,0.006678,0.370000,0.044033,0.370000,0.062394,0.362394,0.062394,0.362394,$1*%
%AMFreePoly3*
4,1,14,0.017650,0.359922,0.059922,0.317650,0.070000,0.293321,0.070000,-0.344032,0.062394,-0.362394,0.044033,-0.370000,-0.044033,-0.370000,-0.062394,-0.362394,-0.070000,-0.344032,-0.070000,0.344032,-0.062394,0.362394,-0.044033,0.370000,-0.006678,0.370000,0.017650,0.359922,0.017650,0.359922,$1*%
%AMFreePoly4*
4,1,14,0.362394,0.062394,0.370000,0.044032,0.370000,-0.044032,0.362394,-0.062394,0.344033,-0.070000,-0.293322,-0.070000,-0.317650,-0.059922,-0.359922,-0.017650,-0.370000,0.006678,-0.370000,0.044032,-0.362394,0.062394,-0.344033,0.070000,0.344033,0.070000,0.362394,0.062394,0.362394,0.062394,$1*%
%AMFreePoly5*
4,1,14,0.362394,0.062394,0.370000,0.044032,0.370000,-0.044032,0.362394,-0.062394,0.344033,-0.070000,-0.344033,-0.070000,-0.362394,-0.062394,-0.370000,-0.044032,-0.370000,-0.006678,-0.359922,0.017650,-0.317650,0.059922,-0.293322,0.070000,0.344033,0.070000,0.362394,0.062394,0.362394,0.062394,$1*%
%AMFreePoly6*
4,1,14,0.062394,0.362394,0.070000,0.344032,0.070000,-0.293321,0.059922,-0.317650,0.017650,-0.359922,-0.006678,-0.370000,-0.044033,-0.370000,-0.062394,-0.362394,-0.070000,-0.344032,-0.070000,0.344032,-0.062394,0.362394,-0.044033,0.370000,0.044033,0.370000,0.062394,0.362394,0.062394,0.362394,$1*%
%AMFreePoly7*
4,1,14,0.062394,0.362394,0.070000,0.344032,0.070000,-0.344032,0.062394,-0.362394,0.044033,-0.370000,0.006678,-0.370000,-0.017650,-0.359922,-0.059922,-0.317650,-0.070000,-0.293321,-0.070000,0.344032,-0.062394,0.362394,-0.044033,0.370000,0.044033,0.370000,0.062394,0.362394,0.062394,0.362394,$1*%
G04 Aperture macros list end*
%ADD10R,0.600000X0.400000*%
%ADD11R,0.400000X0.600000*%
%ADD12R,0.500000X0.900000*%
%ADD13C,2.000000*%
%ADD14R,0.450000X0.300000*%
%ADD15R,0.550000X0.500000*%
%ADD16R,0.800000X0.650000*%
%ADD17R,0.300000X0.450000*%
%ADD18R,0.400000X0.450000*%
%ADD19R,0.500000X0.450000*%
%ADD20R,0.800000X0.900000*%
%ADD21R,0.520000X0.450000*%
%ADD22R,0.700000X0.700000*%
%ADD23RoundRect,0.172500X0.172500X0.172500X-0.172500X0.172500X-0.172500X-0.172500X0.172500X-0.172500X0*%
%ADD24FreePoly0,180.000000*%
%ADD25RoundRect,0.035000X0.335000X0.035000X-0.335000X0.035000X-0.335000X-0.035000X0.335000X-0.035000X0*%
%ADD26FreePoly1,180.000000*%
%ADD27FreePoly2,180.000000*%
%ADD28RoundRect,0.035000X0.035000X0.335000X-0.035000X0.335000X-0.035000X-0.335000X0.035000X-0.335000X0*%
%ADD29FreePoly3,180.000000*%
%ADD30FreePoly4,180.000000*%
%ADD31FreePoly5,180.000000*%
%ADD32FreePoly6,180.000000*%
%ADD33FreePoly7,180.000000*%
%ADD34R,1.940000X1.040000*%
%ADD35R,0.740000X1.040000*%
%ADD36R,0.500000X0.550000*%
%ADD37R,0.800000X0.800000*%
%ADD38RoundRect,0.172500X-0.172500X-0.172500X0.172500X-0.172500X0.172500X0.172500X-0.172500X0.172500X0*%
%ADD39FreePoly0,0.000000*%
%ADD40RoundRect,0.035000X-0.335000X-0.035000X0.335000X-0.035000X0.335000X0.035000X-0.335000X0.035000X0*%
%ADD41FreePoly1,0.000000*%
%ADD42FreePoly2,0.000000*%
%ADD43RoundRect,0.035000X-0.035000X-0.335000X0.035000X-0.335000X0.035000X0.335000X-0.035000X0.335000X0*%
%ADD44FreePoly3,0.000000*%
%ADD45FreePoly4,0.000000*%
%ADD46FreePoly5,0.000000*%
%ADD47FreePoly6,0.000000*%
%ADD48FreePoly7,0.000000*%
%ADD49R,0.700000X0.800000*%
G04 APERTURE END LIST*
D10*
X181050000Y-133350000D03*
X181050000Y-132450000D03*
D11*
X112800000Y-103200000D03*
X113700000Y-103200000D03*
D12*
X188200000Y-70800000D03*
X186700000Y-70800000D03*
D13*
X216500000Y-102500000D03*
D10*
X188250000Y-63600000D03*
X188250000Y-64500000D03*
D11*
X112800000Y-145200000D03*
X113700000Y-145200000D03*
D14*
X172625000Y-119300000D03*
X172625000Y-119800000D03*
X172625000Y-120300000D03*
X173975000Y-120300000D03*
X173975000Y-119800000D03*
X173975000Y-119300000D03*
D15*
X180875000Y-85000000D03*
X179925000Y-85000000D03*
D14*
X112075000Y-47300000D03*
X112075000Y-47800000D03*
X112075000Y-48300000D03*
X113425000Y-48300000D03*
X113425000Y-47800000D03*
X113425000Y-47300000D03*
D11*
X187700000Y-59800000D03*
X186800000Y-59800000D03*
D10*
X124200000Y-50000000D03*
X124200000Y-49100000D03*
D13*
X84000000Y-74500000D03*
D11*
X174650000Y-64200000D03*
X175550000Y-64200000D03*
D12*
X121250000Y-115200000D03*
X119750000Y-115200000D03*
D15*
X119625000Y-120000000D03*
X120575000Y-120000000D03*
D11*
X112800000Y-117200000D03*
X113700000Y-117200000D03*
D10*
X180400000Y-59550000D03*
X180400000Y-60450000D03*
D14*
X172625000Y-133300000D03*
X172625000Y-133800000D03*
X172625000Y-134300000D03*
X173975000Y-134300000D03*
X173975000Y-133800000D03*
X173975000Y-133300000D03*
D10*
X118700000Y-129550000D03*
X118700000Y-128650000D03*
D11*
X185900000Y-45800000D03*
X185000000Y-45800000D03*
D16*
X92500000Y-87825000D03*
X92500000Y-89175000D03*
D17*
X184550000Y-141875000D03*
X185050000Y-141875000D03*
X185550000Y-141875000D03*
X185550000Y-140525000D03*
X185050000Y-140525000D03*
X184550000Y-140525000D03*
D11*
X113950000Y-77250000D03*
X113050000Y-77250000D03*
X182000000Y-64200000D03*
X182900000Y-64200000D03*
D10*
X127700000Y-101050000D03*
X127700000Y-100150000D03*
X120100000Y-145450000D03*
X120100000Y-144550000D03*
D18*
X190600000Y-127625000D03*
X189800000Y-127625000D03*
D19*
X190200000Y-128775000D03*
D20*
X116650000Y-73800000D03*
X118750000Y-73800000D03*
D18*
X109900000Y-91375000D03*
X110700000Y-91375000D03*
D19*
X110300000Y-90225000D03*
D11*
X186550000Y-113750000D03*
X187450000Y-113750000D03*
D10*
X126600000Y-128150000D03*
X126600000Y-129050000D03*
X176300000Y-127000000D03*
X176300000Y-127900000D03*
X175000000Y-90850000D03*
X175000000Y-89950000D03*
X187150000Y-78500000D03*
X187150000Y-77600000D03*
D21*
X114570000Y-147400000D03*
X115930000Y-147400000D03*
D14*
X172625000Y-105300000D03*
X172625000Y-105800000D03*
X172625000Y-106300000D03*
X173975000Y-106300000D03*
X173975000Y-105800000D03*
X173975000Y-105300000D03*
D11*
X109900000Y-92300000D03*
X110800000Y-92300000D03*
D17*
X115950000Y-63125000D03*
X115450000Y-63125000D03*
X114950000Y-63125000D03*
X114950000Y-64475000D03*
X115450000Y-64475000D03*
X115950000Y-64475000D03*
D10*
X185250000Y-75950000D03*
X185250000Y-76850000D03*
D14*
X127875000Y-57700000D03*
X127875000Y-57200000D03*
X127875000Y-56700000D03*
X126525000Y-56700000D03*
X126525000Y-57200000D03*
X126525000Y-57700000D03*
D11*
X190600000Y-126700000D03*
X189700000Y-126700000D03*
D10*
X186250000Y-90650000D03*
X186250000Y-89750000D03*
D18*
X185150000Y-128725000D03*
X184350000Y-128725000D03*
D19*
X184750000Y-129875000D03*
D20*
X183850000Y-103200000D03*
X181750000Y-103200000D03*
D22*
X177300000Y-74450000D03*
X178250000Y-74450000D03*
X179200000Y-74450000D03*
X179200000Y-71950000D03*
X178250000Y-71950000D03*
X177300000Y-71950000D03*
D11*
X190600000Y-112700000D03*
X189700000Y-112700000D03*
D15*
X185825000Y-86800000D03*
X184875000Y-86800000D03*
D10*
X181050000Y-147350000D03*
X181050000Y-146450000D03*
D12*
X127650000Y-58900000D03*
X126150000Y-58900000D03*
D16*
X89000000Y-115825000D03*
X89000000Y-117175000D03*
D15*
X114675000Y-104200000D03*
X115625000Y-104200000D03*
D14*
X112075000Y-75300000D03*
X112075000Y-75800000D03*
X112075000Y-76300000D03*
X113425000Y-76300000D03*
X113425000Y-75800000D03*
X113425000Y-75300000D03*
D23*
X179075000Y-115925000D03*
X179075000Y-115075000D03*
X178225000Y-115925000D03*
X178225000Y-115075000D03*
D24*
X180100000Y-116300000D03*
D25*
X180100000Y-115900000D03*
X180100000Y-115500000D03*
X180100000Y-115100000D03*
D26*
X180100000Y-114700000D03*
D27*
X179450000Y-114050000D03*
D28*
X179050000Y-114050000D03*
X178650000Y-114050000D03*
X178250000Y-114050000D03*
D29*
X177850000Y-114050000D03*
D30*
X177200000Y-114700000D03*
D25*
X177200000Y-115100000D03*
X177200000Y-115500000D03*
X177200000Y-115900000D03*
D31*
X177200000Y-116300000D03*
D32*
X177850000Y-116950000D03*
D28*
X178250000Y-116950000D03*
X178650000Y-116950000D03*
X179050000Y-116950000D03*
D33*
X179450000Y-116950000D03*
D13*
X84000000Y-46500000D03*
D34*
X186350000Y-104250000D03*
D35*
X188250000Y-104250000D03*
D12*
X125650000Y-85000000D03*
X124150000Y-85000000D03*
D10*
X119450000Y-43650000D03*
X119450000Y-44550000D03*
X172800000Y-47950000D03*
X172800000Y-48850000D03*
X126600000Y-100150000D03*
X126600000Y-101050000D03*
D14*
X112075000Y-61300000D03*
X112075000Y-61800000D03*
X112075000Y-62300000D03*
X113425000Y-62300000D03*
X113425000Y-61800000D03*
X113425000Y-61300000D03*
D11*
X124050000Y-126800000D03*
X123150000Y-126800000D03*
D20*
X116650000Y-45800000D03*
X118750000Y-45800000D03*
D15*
X116875000Y-58400000D03*
X117825000Y-58400000D03*
D34*
X187650000Y-134000000D03*
D35*
X185750000Y-134000000D03*
D10*
X186050000Y-143750000D03*
X186050000Y-142850000D03*
X186050000Y-129750000D03*
X186050000Y-128850000D03*
D17*
X121100000Y-128075000D03*
X121600000Y-128075000D03*
X122100000Y-128075000D03*
X122100000Y-126725000D03*
X121600000Y-126725000D03*
X121100000Y-126725000D03*
D13*
X84000000Y-60500000D03*
D12*
X177850000Y-61800000D03*
X176350000Y-61800000D03*
D10*
X119852500Y-127650000D03*
X119852500Y-126750000D03*
D14*
X184325000Y-91100000D03*
X184325000Y-90600000D03*
X184325000Y-90100000D03*
X182975000Y-90100000D03*
X182975000Y-90600000D03*
X182975000Y-91100000D03*
D11*
X114600000Y-103200000D03*
X115500000Y-103200000D03*
D14*
X188425000Y-143700000D03*
X188425000Y-143200000D03*
X188425000Y-142700000D03*
X187075000Y-142700000D03*
X187075000Y-143200000D03*
X187075000Y-143700000D03*
D15*
X116875000Y-72400000D03*
X117825000Y-72400000D03*
D22*
X118900000Y-130550000D03*
X117950000Y-130550000D03*
X117000000Y-130550000D03*
X117000000Y-133050000D03*
X117950000Y-133050000D03*
X118900000Y-133050000D03*
D10*
X179950000Y-145850000D03*
X179950000Y-146750000D03*
X127700000Y-115050000D03*
X127700000Y-114150000D03*
D12*
X117050000Y-78100000D03*
X118550000Y-78100000D03*
D36*
X186150000Y-92475000D03*
X186150000Y-91525000D03*
D16*
X208000000Y-131175000D03*
X208000000Y-129825000D03*
D10*
X180647500Y-63350000D03*
X180647500Y-64250000D03*
D12*
X112300000Y-148200000D03*
X113800000Y-148200000D03*
D21*
X114570000Y-105400000D03*
X115930000Y-105400000D03*
D12*
X188200000Y-56800000D03*
X186700000Y-56800000D03*
X112300000Y-134200000D03*
X113800000Y-134200000D03*
D15*
X180875000Y-57000000D03*
X179925000Y-57000000D03*
D12*
X174850000Y-120000000D03*
X176350000Y-120000000D03*
D14*
X184325000Y-49100000D03*
X184325000Y-48600000D03*
X184325000Y-48100000D03*
X182975000Y-48100000D03*
X182975000Y-48600000D03*
X182975000Y-49100000D03*
D34*
X179300000Y-106000000D03*
D35*
X177400000Y-106000000D03*
D16*
X92500000Y-73825000D03*
X92500000Y-75175000D03*
D37*
X183300000Y-128225000D03*
X183300000Y-129775000D03*
D17*
X121100000Y-100075000D03*
X121600000Y-100075000D03*
X122100000Y-100075000D03*
X122100000Y-98725000D03*
X121600000Y-98725000D03*
X121100000Y-98725000D03*
D37*
X183300000Y-142225000D03*
X183300000Y-143775000D03*
D16*
X208000000Y-103175000D03*
X208000000Y-101825000D03*
D21*
X115270000Y-126700000D03*
X116630000Y-126700000D03*
D10*
X113350000Y-140500000D03*
X113350000Y-141400000D03*
D16*
X92500000Y-101825000D03*
X92500000Y-103175000D03*
D10*
X187150000Y-92500000D03*
X187150000Y-91600000D03*
D11*
X186550000Y-99750000D03*
X187450000Y-99750000D03*
D10*
X172800000Y-75950000D03*
X172800000Y-76850000D03*
D13*
X216500000Y-144500000D03*
D10*
X120100000Y-117450000D03*
X120100000Y-116550000D03*
D15*
X119625000Y-106000000D03*
X120575000Y-106000000D03*
D22*
X181600000Y-46450000D03*
X182550000Y-46450000D03*
X183500000Y-46450000D03*
X183500000Y-43950000D03*
X182550000Y-43950000D03*
X181600000Y-43950000D03*
D34*
X116500000Y-85000000D03*
D35*
X118400000Y-85000000D03*
D34*
X121200000Y-71000000D03*
D35*
X123100000Y-71000000D03*
D34*
X184000000Y-148000000D03*
D35*
X182100000Y-148000000D03*
D34*
X187650000Y-148000000D03*
D35*
X185750000Y-148000000D03*
D10*
X125500000Y-114150000D03*
X125500000Y-115050000D03*
D11*
X186550000Y-112700000D03*
X187450000Y-112700000D03*
D10*
X124200000Y-92000000D03*
X124200000Y-91100000D03*
X180400000Y-45550000D03*
X180400000Y-46450000D03*
X124200000Y-78000000D03*
X124200000Y-77100000D03*
D17*
X121100000Y-142075000D03*
X121600000Y-142075000D03*
X122100000Y-142075000D03*
X122100000Y-140725000D03*
X121600000Y-140725000D03*
X121100000Y-140725000D03*
D20*
X116650000Y-87800000D03*
X118750000Y-87800000D03*
D12*
X122650000Y-101200000D03*
X124150000Y-101200000D03*
D11*
X182000000Y-78200000D03*
X182900000Y-78200000D03*
D13*
X84000000Y-144500000D03*
D17*
X179400000Y-76925000D03*
X178900000Y-76925000D03*
X178400000Y-76925000D03*
X178400000Y-78275000D03*
X178900000Y-78275000D03*
X179400000Y-78275000D03*
D10*
X115250000Y-143050000D03*
X115250000Y-142150000D03*
X112250000Y-141400000D03*
X112250000Y-140500000D03*
X175000000Y-62850000D03*
X175000000Y-61950000D03*
D34*
X187650000Y-106000000D03*
D35*
X185750000Y-106000000D03*
D12*
X127650000Y-72900000D03*
X126150000Y-72900000D03*
D10*
X181800000Y-89450000D03*
X181800000Y-90350000D03*
D18*
X115350000Y-62275000D03*
X116150000Y-62275000D03*
D19*
X115750000Y-61125000D03*
D15*
X114675000Y-118200000D03*
X115625000Y-118200000D03*
D23*
X179075000Y-143925000D03*
X179075000Y-143075000D03*
X178225000Y-143925000D03*
X178225000Y-143075000D03*
D24*
X180100000Y-144300000D03*
D25*
X180100000Y-143900000D03*
X180100000Y-143500000D03*
X180100000Y-143100000D03*
D26*
X180100000Y-142700000D03*
D27*
X179450000Y-142050000D03*
D28*
X179050000Y-142050000D03*
X178650000Y-142050000D03*
X178250000Y-142050000D03*
D29*
X177850000Y-142050000D03*
D30*
X177200000Y-142700000D03*
D25*
X177200000Y-143100000D03*
X177200000Y-143500000D03*
X177200000Y-143900000D03*
D31*
X177200000Y-144300000D03*
D32*
X177850000Y-144950000D03*
D28*
X178250000Y-144950000D03*
X178650000Y-144950000D03*
X179050000Y-144950000D03*
D33*
X179450000Y-144950000D03*
D10*
X126600000Y-114150000D03*
X126600000Y-115050000D03*
D20*
X183850000Y-117200000D03*
X181750000Y-117200000D03*
D22*
X118900000Y-116550000D03*
X117950000Y-116550000D03*
X117000000Y-116550000D03*
X117000000Y-119050000D03*
X117950000Y-119050000D03*
X118900000Y-119050000D03*
D17*
X110150000Y-120375000D03*
X110650000Y-120375000D03*
X111150000Y-120375000D03*
X111150000Y-119025000D03*
X110650000Y-119025000D03*
X110150000Y-119025000D03*
D22*
X181600000Y-88450000D03*
X182550000Y-88450000D03*
X183500000Y-88450000D03*
X183500000Y-85950000D03*
X182550000Y-85950000D03*
X181600000Y-85950000D03*
D16*
X208000000Y-117175000D03*
X208000000Y-115825000D03*
D18*
X115350000Y-48275000D03*
X116150000Y-48275000D03*
D19*
X115750000Y-47125000D03*
D17*
X121100000Y-114075000D03*
X121600000Y-114075000D03*
X122100000Y-114075000D03*
X122100000Y-112725000D03*
X121600000Y-112725000D03*
X121100000Y-112725000D03*
D10*
X112250000Y-127400000D03*
X112250000Y-126500000D03*
D38*
X121425000Y-47075000D03*
X121425000Y-47925000D03*
X122275000Y-47075000D03*
X122275000Y-47925000D03*
D39*
X120400000Y-46700000D03*
D40*
X120400000Y-47100000D03*
X120400000Y-47500000D03*
X120400000Y-47900000D03*
D41*
X120400000Y-48300000D03*
D42*
X121050000Y-48950000D03*
D43*
X121450000Y-48950000D03*
X121850000Y-48950000D03*
X122250000Y-48950000D03*
D44*
X122650000Y-48950000D03*
D45*
X123300000Y-48300000D03*
D40*
X123300000Y-47900000D03*
X123300000Y-47500000D03*
X123300000Y-47100000D03*
D46*
X123300000Y-46700000D03*
D47*
X122650000Y-46050000D03*
D43*
X122250000Y-46050000D03*
X121850000Y-46050000D03*
X121450000Y-46050000D03*
D48*
X121050000Y-46050000D03*
D14*
X188475000Y-76750000D03*
X188475000Y-76250000D03*
X188475000Y-75750000D03*
X187125000Y-75750000D03*
X187125000Y-76250000D03*
X187125000Y-76750000D03*
D12*
X122650000Y-129200000D03*
X124150000Y-129200000D03*
D16*
X92500000Y-115825000D03*
X92500000Y-117175000D03*
D12*
X188300000Y-86400000D03*
X186800000Y-86400000D03*
D10*
X114450000Y-47250000D03*
X114450000Y-48150000D03*
D16*
X211500000Y-47175000D03*
X211500000Y-45825000D03*
D11*
X109900000Y-64300000D03*
X110800000Y-64300000D03*
D13*
X84000000Y-88500000D03*
D34*
X121200000Y-85000000D03*
D35*
X123100000Y-85000000D03*
D10*
X181800000Y-75450000D03*
X181800000Y-76350000D03*
D16*
X89000000Y-87825000D03*
X89000000Y-89175000D03*
D10*
X114250000Y-100350000D03*
X114250000Y-101250000D03*
D36*
X186150000Y-50475000D03*
X186150000Y-49525000D03*
D10*
X119852500Y-141650000D03*
X119852500Y-140750000D03*
D37*
X117200000Y-62775000D03*
X117200000Y-61225000D03*
D11*
X186550000Y-98700000D03*
X187450000Y-98700000D03*
X114600000Y-117200000D03*
X115500000Y-117200000D03*
D21*
X185930000Y-71600000D03*
X184570000Y-71600000D03*
D15*
X116875000Y-44400000D03*
X117825000Y-44400000D03*
D16*
X211500000Y-89175000D03*
X211500000Y-87825000D03*
X92500000Y-45825000D03*
X92500000Y-47175000D03*
D12*
X112200000Y-118600000D03*
X113700000Y-118600000D03*
D17*
X110150000Y-106375000D03*
X110650000Y-106375000D03*
X111150000Y-106375000D03*
X111150000Y-105025000D03*
X110650000Y-105025000D03*
X110150000Y-105025000D03*
D34*
X179300000Y-120000000D03*
D35*
X177400000Y-120000000D03*
D34*
X186350000Y-146250000D03*
D35*
X188250000Y-146250000D03*
D18*
X109900000Y-77375000D03*
X110700000Y-77375000D03*
D19*
X110300000Y-76225000D03*
D11*
X176450000Y-64200000D03*
X177350000Y-64200000D03*
D12*
X117050000Y-50100000D03*
X118550000Y-50100000D03*
D16*
X89000000Y-73825000D03*
X89000000Y-75175000D03*
D11*
X185900000Y-73800000D03*
X185000000Y-73800000D03*
D10*
X119852500Y-113650000D03*
X119852500Y-112750000D03*
D11*
X109900000Y-50300000D03*
X110800000Y-50300000D03*
X109900000Y-78300000D03*
X110800000Y-78300000D03*
D10*
X187150000Y-50500000D03*
X187150000Y-49600000D03*
D18*
X185150000Y-100725000D03*
X184350000Y-100725000D03*
D19*
X184750000Y-101875000D03*
D12*
X188300000Y-72400000D03*
X186800000Y-72400000D03*
D34*
X121200000Y-43000000D03*
D35*
X123100000Y-43000000D03*
D10*
X112250000Y-99400000D03*
X112250000Y-98500000D03*
X120550000Y-45150000D03*
X120550000Y-44250000D03*
D14*
X127875000Y-71700000D03*
X127875000Y-71200000D03*
X127875000Y-70700000D03*
X126525000Y-70700000D03*
X126525000Y-71200000D03*
X126525000Y-71700000D03*
X188475000Y-90750000D03*
X188475000Y-90250000D03*
X188475000Y-89750000D03*
X187125000Y-89750000D03*
X187125000Y-90250000D03*
X187125000Y-90750000D03*
D22*
X118900000Y-144550000D03*
X117950000Y-144550000D03*
X117000000Y-144550000D03*
X117000000Y-147050000D03*
X117950000Y-147050000D03*
X118900000Y-147050000D03*
D10*
X118700000Y-101550000D03*
X118700000Y-100650000D03*
X113350000Y-112500000D03*
X113350000Y-113400000D03*
D12*
X127650000Y-86900000D03*
X126150000Y-86900000D03*
D18*
X190600000Y-141625000D03*
X189800000Y-141625000D03*
D19*
X190200000Y-142775000D03*
D12*
X112200000Y-146600000D03*
X113700000Y-146600000D03*
D34*
X184000000Y-134000000D03*
D35*
X182100000Y-134000000D03*
D11*
X123150000Y-99900000D03*
X124050000Y-99900000D03*
D12*
X177850000Y-47800000D03*
X176350000Y-47800000D03*
D10*
X114450000Y-89250000D03*
X114450000Y-90150000D03*
D34*
X112850000Y-85000000D03*
D35*
X114750000Y-85000000D03*
D11*
X190600000Y-98700000D03*
X189700000Y-98700000D03*
D22*
X123200000Y-102550000D03*
X122250000Y-102550000D03*
X121300000Y-102550000D03*
X121300000Y-105050000D03*
X122250000Y-105050000D03*
X123200000Y-105050000D03*
D18*
X109900000Y-49375000D03*
X110700000Y-49375000D03*
D19*
X110300000Y-48225000D03*
D10*
X180400000Y-73550000D03*
X180400000Y-74450000D03*
D11*
X177350000Y-49100000D03*
X176450000Y-49100000D03*
D12*
X125650000Y-57000000D03*
X124150000Y-57000000D03*
D11*
X176450000Y-92200000D03*
X177350000Y-92200000D03*
X186550000Y-126700000D03*
X187450000Y-126700000D03*
X190600000Y-140700000D03*
X189700000Y-140700000D03*
D10*
X186050000Y-101750000D03*
X186050000Y-100850000D03*
D14*
X127875000Y-43700000D03*
X127875000Y-43200000D03*
X127875000Y-42700000D03*
X126525000Y-42700000D03*
X126525000Y-43200000D03*
X126525000Y-43700000D03*
D16*
X92500000Y-59825000D03*
X92500000Y-61175000D03*
D12*
X121250000Y-129200000D03*
X119750000Y-129200000D03*
D11*
X185900000Y-87800000D03*
X185000000Y-87800000D03*
D18*
X190600000Y-99625000D03*
X189800000Y-99625000D03*
D19*
X190200000Y-100775000D03*
D10*
X185250000Y-61950000D03*
X185250000Y-62850000D03*
D14*
X188425000Y-101700000D03*
X188425000Y-101200000D03*
X188425000Y-100700000D03*
X187075000Y-100700000D03*
X187075000Y-101200000D03*
X187075000Y-101700000D03*
D17*
X190350000Y-84625000D03*
X189850000Y-84625000D03*
X189350000Y-84625000D03*
X189350000Y-85975000D03*
X189850000Y-85975000D03*
X190350000Y-85975000D03*
D13*
X216500000Y-88500000D03*
D38*
X121425000Y-75075000D03*
X121425000Y-75925000D03*
X122275000Y-75075000D03*
X122275000Y-75925000D03*
D39*
X120400000Y-74700000D03*
D40*
X120400000Y-75100000D03*
X120400000Y-75500000D03*
X120400000Y-75900000D03*
D41*
X120400000Y-76300000D03*
D42*
X121050000Y-76950000D03*
D43*
X121450000Y-76950000D03*
X121850000Y-76950000D03*
X122250000Y-76950000D03*
D44*
X122650000Y-76950000D03*
D45*
X123300000Y-76300000D03*
D40*
X123300000Y-75900000D03*
X123300000Y-75500000D03*
X123300000Y-75100000D03*
D46*
X123300000Y-74700000D03*
D47*
X122650000Y-74050000D03*
D43*
X122250000Y-74050000D03*
X121850000Y-74050000D03*
X121450000Y-74050000D03*
D48*
X121050000Y-74050000D03*
D21*
X185930000Y-43600000D03*
X184570000Y-43600000D03*
D10*
X181800000Y-47450000D03*
X181800000Y-48350000D03*
D14*
X112025000Y-128250000D03*
X112025000Y-128750000D03*
X112025000Y-129250000D03*
X113375000Y-129250000D03*
X113375000Y-128750000D03*
X113375000Y-128250000D03*
D10*
X185250000Y-89950000D03*
X185250000Y-90850000D03*
X120550000Y-73150000D03*
X120550000Y-72250000D03*
D15*
X183625000Y-132600000D03*
X182675000Y-132600000D03*
X180875000Y-71000000D03*
X179925000Y-71000000D03*
D14*
X116175000Y-127900000D03*
X116175000Y-128400000D03*
X116175000Y-128900000D03*
X117525000Y-128900000D03*
X117525000Y-128400000D03*
X117525000Y-127900000D03*
D34*
X179300000Y-134000000D03*
D35*
X177400000Y-134000000D03*
D10*
X179950000Y-131850000D03*
X179950000Y-132750000D03*
X173900000Y-76850000D03*
X173900000Y-75950000D03*
X120550000Y-87150000D03*
X120550000Y-86250000D03*
D11*
X125850000Y-140800000D03*
X124950000Y-140800000D03*
D12*
X127650000Y-44900000D03*
X126150000Y-44900000D03*
X112200000Y-104600000D03*
X113700000Y-104600000D03*
D34*
X116500000Y-57000000D03*
D35*
X118400000Y-57000000D03*
D10*
X179950000Y-103850000D03*
X179950000Y-104750000D03*
D20*
X116650000Y-59800000D03*
X118750000Y-59800000D03*
D12*
X188200000Y-42800000D03*
X186700000Y-42800000D03*
D16*
X208000000Y-145175000D03*
X208000000Y-143825000D03*
D11*
X123150000Y-113900000D03*
X124050000Y-113900000D03*
D10*
X173900000Y-90850000D03*
X173900000Y-89950000D03*
D11*
X177350000Y-77100000D03*
X176450000Y-77100000D03*
D13*
X216500000Y-60500000D03*
D16*
X89000000Y-101825000D03*
X89000000Y-103175000D03*
D34*
X186350000Y-132250000D03*
D35*
X188250000Y-132250000D03*
D34*
X112850000Y-43000000D03*
D35*
X114750000Y-43000000D03*
D34*
X187650000Y-120000000D03*
D35*
X185750000Y-120000000D03*
D11*
X186550000Y-127750000D03*
X187450000Y-127750000D03*
D15*
X114675000Y-132200000D03*
X115625000Y-132200000D03*
D10*
X113350000Y-126500000D03*
X113350000Y-127400000D03*
X180647500Y-77350000D03*
X180647500Y-78250000D03*
D15*
X183625000Y-104600000D03*
X182675000Y-104600000D03*
D21*
X115270000Y-112700000D03*
X116630000Y-112700000D03*
D49*
X118600000Y-48775000D03*
X118600000Y-47225000D03*
D34*
X114150000Y-72750000D03*
D35*
X112250000Y-72750000D03*
D38*
X121425000Y-89075000D03*
X121425000Y-89925000D03*
X122275000Y-89075000D03*
X122275000Y-89925000D03*
D39*
X120400000Y-88700000D03*
D40*
X120400000Y-89100000D03*
X120400000Y-89500000D03*
X120400000Y-89900000D03*
D41*
X120400000Y-90300000D03*
D42*
X121050000Y-90950000D03*
D43*
X121450000Y-90950000D03*
X121850000Y-90950000D03*
X122250000Y-90950000D03*
D44*
X122650000Y-90950000D03*
D45*
X123300000Y-90300000D03*
D40*
X123300000Y-89900000D03*
X123300000Y-89500000D03*
X123300000Y-89100000D03*
D46*
X123300000Y-88700000D03*
D47*
X122650000Y-88050000D03*
D43*
X122250000Y-88050000D03*
X121850000Y-88050000D03*
X121450000Y-88050000D03*
D48*
X121050000Y-88050000D03*
D21*
X185230000Y-92300000D03*
X183870000Y-92300000D03*
D10*
X119450000Y-57650000D03*
X119450000Y-58550000D03*
D37*
X183300000Y-114225000D03*
X183300000Y-115775000D03*
D34*
X179300000Y-148000000D03*
D35*
X177400000Y-148000000D03*
D22*
X123200000Y-116550000D03*
X122250000Y-116550000D03*
X121300000Y-116550000D03*
X121300000Y-119050000D03*
X122250000Y-119050000D03*
X123200000Y-119050000D03*
D12*
X122650000Y-143200000D03*
X124150000Y-143200000D03*
D10*
X114250000Y-114350000D03*
X114250000Y-115250000D03*
D13*
X216500000Y-130500000D03*
D11*
X187700000Y-87800000D03*
X186800000Y-87800000D03*
D12*
X112300000Y-106200000D03*
X113800000Y-106200000D03*
D16*
X92500000Y-143825000D03*
X92500000Y-145175000D03*
D34*
X116500000Y-43000000D03*
D35*
X118400000Y-43000000D03*
D12*
X125650000Y-71000000D03*
X124150000Y-71000000D03*
D13*
X84000000Y-116500000D03*
D15*
X114675000Y-146200000D03*
X115625000Y-146200000D03*
D12*
X179250000Y-75800000D03*
X180750000Y-75800000D03*
D11*
X177350000Y-63100000D03*
X176450000Y-63100000D03*
D16*
X208000000Y-75175000D03*
X208000000Y-73825000D03*
D10*
X119450000Y-85650000D03*
X119450000Y-86550000D03*
D12*
X183450000Y-112900000D03*
X181950000Y-112900000D03*
D17*
X179400000Y-48925000D03*
X178900000Y-48925000D03*
X178400000Y-48925000D03*
X178400000Y-50275000D03*
X178900000Y-50275000D03*
X179400000Y-50275000D03*
D14*
X188475000Y-62750000D03*
X188475000Y-62250000D03*
X188475000Y-61750000D03*
X187125000Y-61750000D03*
X187125000Y-62250000D03*
X187125000Y-62750000D03*
D10*
X118700000Y-143550000D03*
X118700000Y-142650000D03*
D14*
X112025000Y-142250000D03*
X112025000Y-142750000D03*
X112025000Y-143250000D03*
X113375000Y-143250000D03*
X113375000Y-142750000D03*
X113375000Y-142250000D03*
D22*
X177300000Y-46450000D03*
X178250000Y-46450000D03*
X179200000Y-46450000D03*
X179200000Y-43950000D03*
X178250000Y-43950000D03*
X177300000Y-43950000D03*
D34*
X116500000Y-71000000D03*
D35*
X118400000Y-71000000D03*
D36*
X114350000Y-126525000D03*
X114350000Y-127475000D03*
D10*
X114450000Y-61250000D03*
X114450000Y-62150000D03*
D11*
X118500000Y-126800000D03*
X117600000Y-126800000D03*
D12*
X174850000Y-106000000D03*
X176350000Y-106000000D03*
D11*
X113950000Y-64300000D03*
X113050000Y-64300000D03*
D17*
X115950000Y-91125000D03*
X115450000Y-91125000D03*
X114950000Y-91125000D03*
X114950000Y-92475000D03*
X115450000Y-92475000D03*
X115950000Y-92475000D03*
D11*
X114600000Y-131200000D03*
X115500000Y-131200000D03*
D37*
X117200000Y-76775000D03*
X117200000Y-75225000D03*
D11*
X174650000Y-78200000D03*
X175550000Y-78200000D03*
D20*
X183850000Y-145200000D03*
X181750000Y-145200000D03*
D17*
X110150000Y-148375000D03*
X110650000Y-148375000D03*
X111150000Y-148375000D03*
X111150000Y-147025000D03*
X110650000Y-147025000D03*
X110150000Y-147025000D03*
X115950000Y-77125000D03*
X115450000Y-77125000D03*
X114950000Y-77125000D03*
X114950000Y-78475000D03*
X115450000Y-78475000D03*
X115950000Y-78475000D03*
D21*
X185230000Y-78300000D03*
X183870000Y-78300000D03*
D18*
X115350000Y-90275000D03*
X116150000Y-90275000D03*
D19*
X115750000Y-89125000D03*
D37*
X117200000Y-90775000D03*
X117200000Y-89225000D03*
D34*
X114150000Y-58750000D03*
D35*
X112250000Y-58750000D03*
D13*
X84000000Y-130500000D03*
D14*
X112075000Y-89300000D03*
X112075000Y-89800000D03*
X112075000Y-90300000D03*
X113425000Y-90300000D03*
X113425000Y-89800000D03*
X113425000Y-89300000D03*
D12*
X174850000Y-148000000D03*
X176350000Y-148000000D03*
D16*
X89000000Y-129825000D03*
X89000000Y-131175000D03*
D10*
X179950000Y-117850000D03*
X179950000Y-118750000D03*
D12*
X188300000Y-44400000D03*
X186800000Y-44400000D03*
D11*
X125850000Y-126800000D03*
X124950000Y-126800000D03*
D49*
X181900000Y-114225000D03*
X181900000Y-115775000D03*
D10*
X172800000Y-89950000D03*
X172800000Y-90850000D03*
D34*
X112850000Y-57000000D03*
D35*
X114750000Y-57000000D03*
D23*
X179075000Y-101925000D03*
X179075000Y-101075000D03*
X178225000Y-101925000D03*
X178225000Y-101075000D03*
D24*
X180100000Y-102300000D03*
D25*
X180100000Y-101900000D03*
X180100000Y-101500000D03*
X180100000Y-101100000D03*
D26*
X180100000Y-100700000D03*
D27*
X179450000Y-100050000D03*
D28*
X179050000Y-100050000D03*
X178650000Y-100050000D03*
X178250000Y-100050000D03*
D29*
X177850000Y-100050000D03*
D30*
X177200000Y-100700000D03*
D25*
X177200000Y-101100000D03*
X177200000Y-101500000D03*
X177200000Y-101900000D03*
D31*
X177200000Y-102300000D03*
D32*
X177850000Y-102950000D03*
D28*
X178250000Y-102950000D03*
X178650000Y-102950000D03*
X179050000Y-102950000D03*
D33*
X179450000Y-102950000D03*
D17*
X184550000Y-113875000D03*
X185050000Y-113875000D03*
X185550000Y-113875000D03*
X185550000Y-112525000D03*
X185050000Y-112525000D03*
X184550000Y-112525000D03*
D18*
X115350000Y-76275000D03*
X116150000Y-76275000D03*
D19*
X115750000Y-75125000D03*
D14*
X116175000Y-99900000D03*
X116175000Y-100400000D03*
X116175000Y-100900000D03*
X117525000Y-100900000D03*
X117525000Y-100400000D03*
X117525000Y-99900000D03*
D10*
X114250000Y-142350000D03*
X114250000Y-143250000D03*
D14*
X188475000Y-48750000D03*
X188475000Y-48250000D03*
X188475000Y-47750000D03*
X187125000Y-47750000D03*
X187125000Y-48250000D03*
X187125000Y-48750000D03*
D11*
X113950000Y-63250000D03*
X113050000Y-63250000D03*
D12*
X179250000Y-61800000D03*
X180750000Y-61800000D03*
D14*
X172625000Y-147300000D03*
X172625000Y-147800000D03*
X172625000Y-148300000D03*
X173975000Y-148300000D03*
X173975000Y-147800000D03*
X173975000Y-147300000D03*
D11*
X114600000Y-145200000D03*
X115500000Y-145200000D03*
X186550000Y-140700000D03*
X187450000Y-140700000D03*
D12*
X174850000Y-134000000D03*
X176350000Y-134000000D03*
D14*
X184325000Y-63100000D03*
X184325000Y-62600000D03*
X184325000Y-62100000D03*
X182975000Y-62100000D03*
X182975000Y-62600000D03*
X182975000Y-63100000D03*
D11*
X113950000Y-91250000D03*
X113050000Y-91250000D03*
X113950000Y-50300000D03*
X113050000Y-50300000D03*
D13*
X216500000Y-46500000D03*
D10*
X125500000Y-142150000D03*
X125500000Y-143050000D03*
X115250000Y-129050000D03*
X115250000Y-128150000D03*
D12*
X125650000Y-43000000D03*
X124150000Y-43000000D03*
D15*
X183625000Y-146600000D03*
X182675000Y-146600000D03*
D17*
X110150000Y-134375000D03*
X110650000Y-134375000D03*
X111150000Y-134375000D03*
X111150000Y-133025000D03*
X110650000Y-133025000D03*
X110150000Y-133025000D03*
D16*
X211500000Y-117175000D03*
X211500000Y-115825000D03*
D13*
X84000000Y-102500000D03*
D34*
X186350000Y-118250000D03*
D35*
X188250000Y-118250000D03*
D22*
X181600000Y-74450000D03*
X182550000Y-74450000D03*
X183500000Y-74450000D03*
X183500000Y-71950000D03*
X182550000Y-71950000D03*
X181600000Y-71950000D03*
D16*
X208000000Y-47175000D03*
X208000000Y-45825000D03*
D10*
X176300000Y-141000000D03*
X176300000Y-141900000D03*
D34*
X184000000Y-120000000D03*
D35*
X182100000Y-120000000D03*
D17*
X115950000Y-49125000D03*
X115450000Y-49125000D03*
X114950000Y-49125000D03*
X114950000Y-50475000D03*
X115450000Y-50475000D03*
X115950000Y-50475000D03*
D10*
X114450000Y-75250000D03*
X114450000Y-76150000D03*
D49*
X118600000Y-90775000D03*
X118600000Y-89225000D03*
D10*
X124200000Y-64000000D03*
X124200000Y-63100000D03*
D14*
X188425000Y-115700000D03*
X188425000Y-115200000D03*
X188425000Y-114700000D03*
X187075000Y-114700000D03*
X187075000Y-115200000D03*
X187075000Y-115700000D03*
D11*
X124050000Y-98800000D03*
X123150000Y-98800000D03*
D12*
X112300000Y-120200000D03*
X113800000Y-120200000D03*
D20*
X183850000Y-131200000D03*
X181750000Y-131200000D03*
D11*
X174650000Y-92200000D03*
X175550000Y-92200000D03*
D10*
X114250000Y-128350000D03*
X114250000Y-129250000D03*
D16*
X211500000Y-145175000D03*
X211500000Y-143825000D03*
D11*
X176450000Y-50200000D03*
X177350000Y-50200000D03*
D13*
X216500000Y-116500000D03*
D12*
X172850000Y-146100000D03*
X174350000Y-146100000D03*
D10*
X181800000Y-61450000D03*
X181800000Y-62350000D03*
D12*
X117050000Y-92100000D03*
X118550000Y-92100000D03*
D10*
X120550000Y-59150000D03*
X120550000Y-58250000D03*
D11*
X174650000Y-50200000D03*
X175550000Y-50200000D03*
D15*
X185825000Y-58800000D03*
X184875000Y-58800000D03*
D16*
X208000000Y-61175000D03*
X208000000Y-59825000D03*
D22*
X123200000Y-144550000D03*
X122250000Y-144550000D03*
X121300000Y-144550000D03*
X121300000Y-147050000D03*
X122250000Y-147050000D03*
X123200000Y-147050000D03*
D12*
X179250000Y-47800000D03*
X180750000Y-47800000D03*
D11*
X177350000Y-91100000D03*
X176450000Y-91100000D03*
D10*
X180647500Y-91350000D03*
X180647500Y-92250000D03*
D37*
X183300000Y-100225000D03*
X183300000Y-101775000D03*
D36*
X186150000Y-64475000D03*
X186150000Y-63525000D03*
D11*
X124050000Y-140800000D03*
X123150000Y-140800000D03*
D12*
X183450000Y-98900000D03*
X181950000Y-98900000D03*
D17*
X179400000Y-62925000D03*
X178900000Y-62925000D03*
X178400000Y-62925000D03*
X178400000Y-64275000D03*
X178900000Y-64275000D03*
X179400000Y-64275000D03*
D16*
X211500000Y-103175000D03*
X211500000Y-101825000D03*
X211500000Y-61175000D03*
X211500000Y-59825000D03*
D12*
X121250000Y-143200000D03*
X119750000Y-143200000D03*
D10*
X120100000Y-103450000D03*
X120100000Y-102550000D03*
D12*
X172850000Y-132100000D03*
X174350000Y-132100000D03*
D10*
X173900000Y-48850000D03*
X173900000Y-47950000D03*
D36*
X114350000Y-112525000D03*
X114350000Y-113475000D03*
D10*
X119450000Y-71650000D03*
X119450000Y-72550000D03*
D15*
X180875000Y-43000000D03*
X179925000Y-43000000D03*
D10*
X181050000Y-119350000D03*
X181050000Y-118450000D03*
X188250000Y-77600000D03*
X188250000Y-78500000D03*
X127700000Y-129050000D03*
X127700000Y-128150000D03*
D12*
X183450000Y-126900000D03*
X181950000Y-126900000D03*
D34*
X114150000Y-86750000D03*
D35*
X112250000Y-86750000D03*
D11*
X113950000Y-49250000D03*
X113050000Y-49250000D03*
D14*
X184325000Y-77100000D03*
X184325000Y-76600000D03*
X184325000Y-76100000D03*
X182975000Y-76100000D03*
X182975000Y-76600000D03*
X182975000Y-77100000D03*
X112025000Y-114250000D03*
X112025000Y-114750000D03*
X112025000Y-115250000D03*
X113375000Y-115250000D03*
X113375000Y-114750000D03*
X113375000Y-114250000D03*
D11*
X113950000Y-92300000D03*
X113050000Y-92300000D03*
D10*
X186250000Y-76650000D03*
X186250000Y-75750000D03*
D11*
X113950000Y-78300000D03*
X113050000Y-78300000D03*
D21*
X185230000Y-64300000D03*
X183870000Y-64300000D03*
X114570000Y-133400000D03*
X115930000Y-133400000D03*
D11*
X187700000Y-45800000D03*
X186800000Y-45800000D03*
D49*
X118600000Y-62775000D03*
X118600000Y-61225000D03*
D15*
X185825000Y-72800000D03*
X184875000Y-72800000D03*
D11*
X124050000Y-112800000D03*
X123150000Y-112800000D03*
D12*
X172850000Y-104100000D03*
X174350000Y-104100000D03*
D21*
X185930000Y-57600000D03*
X184570000Y-57600000D03*
D12*
X177850000Y-89800000D03*
X176350000Y-89800000D03*
D10*
X115250000Y-101050000D03*
X115250000Y-100150000D03*
D17*
X190350000Y-42625000D03*
X189850000Y-42625000D03*
X189350000Y-42625000D03*
X189350000Y-43975000D03*
X189850000Y-43975000D03*
X190350000Y-43975000D03*
D22*
X181600000Y-60450000D03*
X182550000Y-60450000D03*
X183500000Y-60450000D03*
X183500000Y-57950000D03*
X182550000Y-57950000D03*
X181600000Y-57950000D03*
D21*
X115270000Y-98700000D03*
X116630000Y-98700000D03*
D10*
X112250000Y-113400000D03*
X112250000Y-112500000D03*
D16*
X211500000Y-75175000D03*
X211500000Y-73825000D03*
X208000000Y-89175000D03*
X208000000Y-87825000D03*
D10*
X186250000Y-62650000D03*
X186250000Y-61750000D03*
D18*
X109900000Y-63375000D03*
X110700000Y-63375000D03*
D19*
X110300000Y-62225000D03*
D23*
X179075000Y-129925000D03*
X179075000Y-129075000D03*
X178225000Y-129925000D03*
X178225000Y-129075000D03*
D24*
X180100000Y-130300000D03*
D25*
X180100000Y-129900000D03*
X180100000Y-129500000D03*
X180100000Y-129100000D03*
D26*
X180100000Y-128700000D03*
D27*
X179450000Y-128050000D03*
D28*
X179050000Y-128050000D03*
X178650000Y-128050000D03*
X178250000Y-128050000D03*
D29*
X177850000Y-128050000D03*
D30*
X177200000Y-128700000D03*
D25*
X177200000Y-129100000D03*
X177200000Y-129500000D03*
X177200000Y-129900000D03*
D31*
X177200000Y-130300000D03*
D32*
X177850000Y-130950000D03*
D28*
X178250000Y-130950000D03*
X178650000Y-130950000D03*
X179050000Y-130950000D03*
D33*
X179450000Y-130950000D03*
D12*
X183450000Y-140900000D03*
X181950000Y-140900000D03*
D11*
X123150000Y-127900000D03*
X124050000Y-127900000D03*
D17*
X184550000Y-99875000D03*
X185050000Y-99875000D03*
X185550000Y-99875000D03*
X185550000Y-98525000D03*
X185050000Y-98525000D03*
X184550000Y-98525000D03*
D15*
X116875000Y-86400000D03*
X117825000Y-86400000D03*
D10*
X186050000Y-115750000D03*
X186050000Y-114850000D03*
X125500000Y-128150000D03*
X125500000Y-129050000D03*
D11*
X118500000Y-140800000D03*
X117600000Y-140800000D03*
D10*
X118700000Y-115550000D03*
X118700000Y-114650000D03*
D38*
X121425000Y-61075000D03*
X121425000Y-61925000D03*
X122275000Y-61075000D03*
X122275000Y-61925000D03*
D39*
X120400000Y-60700000D03*
D40*
X120400000Y-61100000D03*
X120400000Y-61500000D03*
X120400000Y-61900000D03*
D41*
X120400000Y-62300000D03*
D42*
X121050000Y-62950000D03*
D43*
X121450000Y-62950000D03*
X121850000Y-62950000D03*
X122250000Y-62950000D03*
D44*
X122650000Y-62950000D03*
D45*
X123300000Y-62300000D03*
D40*
X123300000Y-61900000D03*
X123300000Y-61500000D03*
X123300000Y-61100000D03*
D46*
X123300000Y-60700000D03*
D47*
X122650000Y-60050000D03*
D43*
X122250000Y-60050000D03*
X121850000Y-60050000D03*
X121450000Y-60050000D03*
D48*
X121050000Y-60050000D03*
D11*
X125850000Y-98800000D03*
X124950000Y-98800000D03*
D18*
X185150000Y-114725000D03*
X184350000Y-114725000D03*
D19*
X184750000Y-115875000D03*
D14*
X188425000Y-129700000D03*
X188425000Y-129200000D03*
X188425000Y-128700000D03*
X187075000Y-128700000D03*
X187075000Y-129200000D03*
X187075000Y-129700000D03*
D37*
X117200000Y-48775000D03*
X117200000Y-47225000D03*
D10*
X180400000Y-87550000D03*
X180400000Y-88450000D03*
D12*
X112200000Y-132600000D03*
X113700000Y-132600000D03*
X179250000Y-89800000D03*
X180750000Y-89800000D03*
D15*
X119625000Y-134000000D03*
X120575000Y-134000000D03*
D16*
X92500000Y-129825000D03*
X92500000Y-131175000D03*
D11*
X125850000Y-112800000D03*
X124950000Y-112800000D03*
D17*
X190350000Y-70625000D03*
X189850000Y-70625000D03*
X189350000Y-70625000D03*
X189350000Y-71975000D03*
X189850000Y-71975000D03*
X190350000Y-71975000D03*
D10*
X176300000Y-99000000D03*
X176300000Y-99900000D03*
D22*
X118900000Y-102550000D03*
X117950000Y-102550000D03*
X117000000Y-102550000D03*
X117000000Y-105050000D03*
X117950000Y-105050000D03*
X118900000Y-105050000D03*
D34*
X184000000Y-106000000D03*
D35*
X182100000Y-106000000D03*
D16*
X89000000Y-59825000D03*
X89000000Y-61175000D03*
D15*
X183625000Y-118600000D03*
X182675000Y-118600000D03*
D36*
X186150000Y-78475000D03*
X186150000Y-77525000D03*
X114350000Y-98525000D03*
X114350000Y-99475000D03*
D34*
X114150000Y-44750000D03*
D35*
X112250000Y-44750000D03*
D21*
X185230000Y-50300000D03*
X183870000Y-50300000D03*
D36*
X114350000Y-140525000D03*
X114350000Y-141475000D03*
D10*
X175000000Y-76850000D03*
X175000000Y-75950000D03*
D11*
X112800000Y-131200000D03*
X113700000Y-131200000D03*
D12*
X117050000Y-64100000D03*
X118550000Y-64100000D03*
D14*
X112025000Y-100250000D03*
X112025000Y-100750000D03*
X112025000Y-101250000D03*
X113375000Y-101250000D03*
X113375000Y-100750000D03*
X113375000Y-100250000D03*
D17*
X184550000Y-127875000D03*
X185050000Y-127875000D03*
X185550000Y-127875000D03*
X185550000Y-126525000D03*
X185050000Y-126525000D03*
X184550000Y-126525000D03*
D10*
X173900000Y-62850000D03*
X173900000Y-61950000D03*
D17*
X179400000Y-90925000D03*
X178900000Y-90925000D03*
X178400000Y-90925000D03*
X178400000Y-92275000D03*
X178900000Y-92275000D03*
X179400000Y-92275000D03*
X190350000Y-56625000D03*
X189850000Y-56625000D03*
X189350000Y-56625000D03*
X189350000Y-57975000D03*
X189850000Y-57975000D03*
X190350000Y-57975000D03*
D18*
X190600000Y-113625000D03*
X189800000Y-113625000D03*
D19*
X190200000Y-114775000D03*
D12*
X172850000Y-118100000D03*
X174350000Y-118100000D03*
D11*
X185900000Y-59800000D03*
X185000000Y-59800000D03*
D49*
X181900000Y-100225000D03*
X181900000Y-101775000D03*
D16*
X211500000Y-131175000D03*
X211500000Y-129825000D03*
D22*
X177300000Y-60450000D03*
X178250000Y-60450000D03*
X179200000Y-60450000D03*
X179200000Y-57950000D03*
X178250000Y-57950000D03*
X177300000Y-57950000D03*
D11*
X182000000Y-50200000D03*
X182900000Y-50200000D03*
X118500000Y-112800000D03*
X117600000Y-112800000D03*
D18*
X185150000Y-142725000D03*
X184350000Y-142725000D03*
D19*
X184750000Y-143875000D03*
D10*
X176300000Y-113000000D03*
X176300000Y-113900000D03*
D15*
X119625000Y-148000000D03*
X120575000Y-148000000D03*
D11*
X176450000Y-78200000D03*
X177350000Y-78200000D03*
D10*
X188250000Y-91600000D03*
X188250000Y-92500000D03*
X186250000Y-48650000D03*
X186250000Y-47750000D03*
X127700000Y-143050000D03*
X127700000Y-142150000D03*
D34*
X112850000Y-71000000D03*
D35*
X114750000Y-71000000D03*
D10*
X188250000Y-49600000D03*
X188250000Y-50500000D03*
X125500000Y-100150000D03*
X125500000Y-101050000D03*
D22*
X123200000Y-130550000D03*
X122250000Y-130550000D03*
X121300000Y-130550000D03*
X121300000Y-133050000D03*
X122250000Y-133050000D03*
X123200000Y-133050000D03*
D11*
X118500000Y-98800000D03*
X117600000Y-98800000D03*
D49*
X181900000Y-142225000D03*
X181900000Y-143775000D03*
D16*
X89000000Y-143825000D03*
X89000000Y-145175000D03*
D10*
X185250000Y-47950000D03*
X185250000Y-48850000D03*
D21*
X185930000Y-85600000D03*
X184570000Y-85600000D03*
D14*
X116175000Y-113900000D03*
X116175000Y-114400000D03*
X116175000Y-114900000D03*
X117525000Y-114900000D03*
X117525000Y-114400000D03*
X117525000Y-113900000D03*
D10*
X172800000Y-61950000D03*
X172800000Y-62850000D03*
D11*
X182000000Y-92200000D03*
X182900000Y-92200000D03*
D10*
X113350000Y-98500000D03*
X113350000Y-99400000D03*
D21*
X115270000Y-140700000D03*
X116630000Y-140700000D03*
D13*
X216500000Y-74500000D03*
D49*
X181900000Y-128225000D03*
X181900000Y-129775000D03*
D12*
X188200000Y-84800000D03*
X186700000Y-84800000D03*
D10*
X181050000Y-105350000D03*
X181050000Y-104450000D03*
D11*
X123150000Y-141900000D03*
X124050000Y-141900000D03*
D14*
X127875000Y-85700000D03*
X127875000Y-85200000D03*
X127875000Y-84700000D03*
X126525000Y-84700000D03*
X126525000Y-85200000D03*
X126525000Y-85700000D03*
D10*
X126600000Y-142150000D03*
X126600000Y-143050000D03*
X180647500Y-49350000D03*
X180647500Y-50250000D03*
D21*
X114570000Y-119400000D03*
X115930000Y-119400000D03*
D14*
X116175000Y-141900000D03*
X116175000Y-142400000D03*
X116175000Y-142900000D03*
X117525000Y-142900000D03*
X117525000Y-142400000D03*
X117525000Y-141900000D03*
D16*
X89000000Y-45825000D03*
X89000000Y-47175000D03*
D22*
X177300000Y-88450000D03*
X178250000Y-88450000D03*
X179200000Y-88450000D03*
X179200000Y-85950000D03*
X178250000Y-85950000D03*
X177300000Y-85950000D03*
D12*
X177850000Y-75800000D03*
X176350000Y-75800000D03*
D15*
X185825000Y-44800000D03*
X184875000Y-44800000D03*
D10*
X175000000Y-48850000D03*
X175000000Y-47950000D03*
D11*
X186550000Y-141750000D03*
X187450000Y-141750000D03*
D12*
X121250000Y-101200000D03*
X119750000Y-101200000D03*
D11*
X187700000Y-73800000D03*
X186800000Y-73800000D03*
D10*
X187150000Y-64500000D03*
X187150000Y-63600000D03*
D34*
X121200000Y-57000000D03*
D35*
X123100000Y-57000000D03*
D12*
X122650000Y-115200000D03*
X124150000Y-115200000D03*
D10*
X119852500Y-99650000D03*
X119852500Y-98750000D03*
X115250000Y-115050000D03*
X115250000Y-114150000D03*
D49*
X118600000Y-76775000D03*
X118600000Y-75225000D03*
D10*
X120100000Y-131450000D03*
X120100000Y-130550000D03*
D12*
X188300000Y-58400000D03*
X186800000Y-58400000D03*
M02*
