G04 #@! TF.GenerationSoftware,KiCad,Pcbnew,9.0.8*
G04 #@! TF.CreationDate,2026-09-10T23:16:32+09:00*
G04 #@! TF.ProjectId,motordecoder2-t-dc20mra-panelized,6d6f746f-7264-4656-936f-646572322d74,rev?*
G04 #@! TF.SameCoordinates,Original*
G04 #@! TF.FileFunction,Soldermask,Bot*
G04 #@! TF.FilePolarity,Negative*
%FSLAX46Y46*%
G04 Gerber Fmt 4.6, Leading zero omitted, Abs format (unit mm)*
G04 Created by KiCad (PCBNEW 9.0.8) date 2026-09-10 23:16:32*
%MOMM*%
%LPD*%
G01*
G04 APERTURE LIST*
%ADD10C,0.150000*%
%ADD11C,0.500000*%
%ADD12C,2.000000*%
%ADD13R,0.950000X0.950000*%
%ADD14R,1.300000X1.300000*%
%ADD15C,1.300000*%
%ADD16R,1.200000X0.800000*%
%ADD17R,3.500000X3.500000*%
G04 APERTURE END LIST*
D10*
X93000000Y-95500000D02*
X91750000Y-96250000D01*
X91750000Y-94750000D01*
X93000000Y-95500000D01*
G36*
X93000000Y-95500000D02*
G01*
X91750000Y-96250000D01*
X91750000Y-94750000D01*
X93000000Y-95500000D01*
G37*
X93000000Y-109500000D02*
X91750000Y-110250000D01*
X91750000Y-108750000D01*
X93000000Y-109500000D01*
G36*
X93000000Y-109500000D02*
G01*
X91750000Y-110250000D01*
X91750000Y-108750000D01*
X93000000Y-109500000D01*
G37*
X93000000Y-123500000D02*
X91750000Y-124250000D01*
X91750000Y-122750000D01*
X93000000Y-123500000D01*
G36*
X93000000Y-123500000D02*
G01*
X91750000Y-124250000D01*
X91750000Y-122750000D01*
X93000000Y-123500000D01*
G37*
X93000000Y-137500000D02*
X91750000Y-138250000D01*
X91750000Y-136750000D01*
X93000000Y-137500000D01*
G36*
X93000000Y-137500000D02*
G01*
X91750000Y-138250000D01*
X91750000Y-136750000D01*
X93000000Y-137500000D01*
G37*
X93000000Y-34250000D02*
X91750000Y-33500000D01*
X93000000Y-32750000D01*
X93000000Y-34250000D01*
G36*
X93000000Y-34250000D02*
G01*
X91750000Y-33500000D01*
X93000000Y-32750000D01*
X93000000Y-34250000D01*
G37*
X93000000Y-48250000D02*
X91750000Y-47500000D01*
X93000000Y-46750000D01*
X93000000Y-48250000D01*
G36*
X93000000Y-48250000D02*
G01*
X91750000Y-47500000D01*
X93000000Y-46750000D01*
X93000000Y-48250000D01*
G37*
X93000000Y-62250000D02*
X91750000Y-61500000D01*
X93000000Y-60750000D01*
X93000000Y-62250000D01*
G36*
X93000000Y-62250000D02*
G01*
X91750000Y-61500000D01*
X93000000Y-60750000D01*
X93000000Y-62250000D01*
G37*
X93000000Y-76250000D02*
X91750000Y-75500000D01*
X93000000Y-74750000D01*
X93000000Y-76250000D01*
G36*
X93000000Y-76250000D02*
G01*
X91750000Y-75500000D01*
X93000000Y-74750000D01*
X93000000Y-76250000D01*
G37*
X206250000Y-95500000D02*
X205000000Y-96250000D01*
X205000000Y-94750000D01*
X206250000Y-95500000D01*
G36*
X206250000Y-95500000D02*
G01*
X205000000Y-96250000D01*
X205000000Y-94750000D01*
X206250000Y-95500000D01*
G37*
X206250000Y-109500000D02*
X205000000Y-110250000D01*
X205000000Y-108750000D01*
X206250000Y-109500000D01*
G36*
X206250000Y-109500000D02*
G01*
X205000000Y-110250000D01*
X205000000Y-108750000D01*
X206250000Y-109500000D01*
G37*
X206250000Y-123500000D02*
X205000000Y-124250000D01*
X205000000Y-122750000D01*
X206250000Y-123500000D01*
G36*
X206250000Y-123500000D02*
G01*
X205000000Y-124250000D01*
X205000000Y-122750000D01*
X206250000Y-123500000D01*
G37*
X206250000Y-137500000D02*
X205000000Y-138250000D01*
X205000000Y-136750000D01*
X206250000Y-137500000D01*
G36*
X206250000Y-137500000D02*
G01*
X205000000Y-138250000D01*
X205000000Y-136750000D01*
X206250000Y-137500000D01*
G37*
X206250000Y-34250000D02*
X205000000Y-33500000D01*
X206250000Y-32750000D01*
X206250000Y-34250000D01*
G36*
X206250000Y-34250000D02*
G01*
X205000000Y-33500000D01*
X206250000Y-32750000D01*
X206250000Y-34250000D01*
G37*
X206250000Y-48250000D02*
X205000000Y-47500000D01*
X206250000Y-46750000D01*
X206250000Y-48250000D01*
G36*
X206250000Y-48250000D02*
G01*
X205000000Y-47500000D01*
X206250000Y-46750000D01*
X206250000Y-48250000D01*
G37*
X206250000Y-62250000D02*
X205000000Y-61500000D01*
X206250000Y-60750000D01*
X206250000Y-62250000D01*
G36*
X206250000Y-62250000D02*
G01*
X205000000Y-61500000D01*
X206250000Y-60750000D01*
X206250000Y-62250000D01*
G37*
X206250000Y-76250000D02*
X205000000Y-75500000D01*
X206250000Y-74750000D01*
X206250000Y-76250000D01*
G36*
X206250000Y-76250000D02*
G01*
X205000000Y-75500000D01*
X206250000Y-74750000D01*
X206250000Y-76250000D01*
G37*
D11*
X100750000Y-38750000D02*
G75*
G02*
X100750000Y-34250000I0J2250000D01*
G01*
X100750000Y-52750000D02*
G75*
G02*
X100750000Y-48250000I0J2250000D01*
G01*
X100750000Y-66750000D02*
G75*
G02*
X100750000Y-62250000I0J2250000D01*
G01*
X100750000Y-80750000D02*
G75*
G02*
X100750000Y-76250000I0J2250000D01*
G01*
X100750000Y-94750000D02*
G75*
G02*
X100750000Y-90250000I0J2250000D01*
G01*
X100750000Y-108750000D02*
G75*
G02*
X100750000Y-104250000I0J2250000D01*
G01*
X100750000Y-122750000D02*
G75*
G02*
X100750000Y-118250000I0J2250000D01*
G01*
X100750000Y-136750000D02*
G75*
G02*
X100750000Y-132250000I0J2250000D01*
G01*
X103250000Y-34250000D02*
G75*
G02*
X103250000Y-38750000I0J-2250000D01*
G01*
X103250000Y-48250000D02*
G75*
G02*
X103250000Y-52750000I0J-2250000D01*
G01*
X103250000Y-62250000D02*
G75*
G02*
X103250000Y-66750000I0J-2250000D01*
G01*
X103250000Y-76250000D02*
G75*
G02*
X103250000Y-80750000I0J-2250000D01*
G01*
X103250000Y-90250000D02*
G75*
G02*
X103250000Y-94750000I0J-2250000D01*
G01*
X103250000Y-104250000D02*
G75*
G02*
X103250000Y-108750000I0J-2250000D01*
G01*
X103250000Y-118250000D02*
G75*
G02*
X103250000Y-122750000I0J-2250000D01*
G01*
X103250000Y-132250000D02*
G75*
G02*
X103250000Y-136750000I0J-2250000D01*
G01*
X194750000Y-38750000D02*
G75*
G02*
X194750000Y-34250000I0J2250000D01*
G01*
X194750000Y-52750000D02*
G75*
G02*
X194750000Y-48250000I0J2250000D01*
G01*
X194750000Y-66750000D02*
G75*
G02*
X194750000Y-62250000I0J2250000D01*
G01*
X194750000Y-80750000D02*
G75*
G02*
X194750000Y-76250000I0J2250000D01*
G01*
X194750000Y-94750000D02*
G75*
G02*
X194750000Y-90250000I0J2250000D01*
G01*
X194750000Y-108750000D02*
G75*
G02*
X194750000Y-104250000I0J2250000D01*
G01*
X194750000Y-122750000D02*
G75*
G02*
X194750000Y-118250000I0J2250000D01*
G01*
X194750000Y-136750000D02*
G75*
G02*
X194750000Y-132250000I0J2250000D01*
G01*
X197250000Y-34250000D02*
G75*
G02*
X197250000Y-38750000I0J-2250000D01*
G01*
X197250000Y-48250000D02*
G75*
G02*
X197250000Y-52750000I0J-2250000D01*
G01*
X197250000Y-62250000D02*
G75*
G02*
X197250000Y-66750000I0J-2250000D01*
G01*
X197250000Y-76250000D02*
G75*
G02*
X197250000Y-80750000I0J-2250000D01*
G01*
X197250000Y-90250000D02*
G75*
G02*
X197250000Y-94750000I0J-2250000D01*
G01*
X197250000Y-104250000D02*
G75*
G02*
X197250000Y-108750000I0J-2250000D01*
G01*
X197250000Y-118250000D02*
G75*
G02*
X197250000Y-122750000I0J-2250000D01*
G01*
X197250000Y-132250000D02*
G75*
G02*
X197250000Y-136750000I0J-2250000D01*
G01*
D12*
X211000000Y-106250000D03*
X211000000Y-134250000D03*
D13*
X132365000Y-63400000D03*
X133635000Y-63400000D03*
D14*
X139050000Y-31650000D03*
D12*
X211000000Y-92250000D03*
X87000000Y-50750000D03*
D14*
X200250000Y-108250000D03*
D12*
X87000000Y-64750000D03*
X211000000Y-50250000D03*
D14*
X198500000Y-115500000D03*
X158950000Y-97350000D03*
X139050000Y-45650000D03*
D12*
X87000000Y-134750000D03*
D13*
X165635000Y-93600000D03*
X164365000Y-93600000D03*
X132365000Y-77400000D03*
X133635000Y-77400000D03*
D12*
X87000000Y-92750000D03*
D14*
X139100000Y-81400000D03*
D15*
X131250000Y-106500000D03*
D13*
X132365000Y-35400000D03*
X133635000Y-35400000D03*
D14*
X200250000Y-136250000D03*
X139050000Y-59650000D03*
X97750000Y-48750000D03*
D15*
X131250000Y-92500000D03*
D14*
X99500000Y-41500000D03*
X200250000Y-94250000D03*
X158900000Y-131600000D03*
X198500000Y-87500000D03*
D13*
X165635000Y-107600000D03*
X164365000Y-107600000D03*
D12*
X211000000Y-64250000D03*
D14*
X158900000Y-103600000D03*
X158900000Y-117600000D03*
D15*
X131250000Y-134500000D03*
D12*
X211000000Y-120250000D03*
D15*
X166750000Y-36500000D03*
D14*
X99500000Y-83500000D03*
X139100000Y-53400000D03*
D12*
X211000000Y-78250000D03*
D14*
X97750000Y-76750000D03*
X99500000Y-55500000D03*
X158950000Y-111350000D03*
X158950000Y-125350000D03*
X198500000Y-129500000D03*
X198500000Y-101500000D03*
D15*
X166750000Y-64500000D03*
D13*
X165635000Y-121600000D03*
X164365000Y-121600000D03*
D14*
X158900000Y-89600000D03*
D12*
X87000000Y-120750000D03*
D14*
X99500000Y-69500000D03*
X139050000Y-73650000D03*
X139100000Y-39400000D03*
X97750000Y-62750000D03*
D12*
X87000000Y-36750000D03*
D13*
X165635000Y-135600000D03*
X164365000Y-135600000D03*
D15*
X166750000Y-50500000D03*
D14*
X200250000Y-122250000D03*
D13*
X132365000Y-49400000D03*
X133635000Y-49400000D03*
D15*
X131250000Y-120500000D03*
X166750000Y-78500000D03*
D14*
X97750000Y-34750000D03*
D12*
X87000000Y-78750000D03*
X211000000Y-36250000D03*
D14*
X139100000Y-67400000D03*
D12*
X87000000Y-106750000D03*
D14*
X158950000Y-139350000D03*
D16*
X196000000Y-82500000D03*
X102000000Y-130500000D03*
X196000000Y-138500000D03*
X102000000Y-46500000D03*
D17*
X140000000Y-32750000D03*
D16*
X196000000Y-116500000D03*
D17*
X158000000Y-102750000D03*
D16*
X196000000Y-102500000D03*
X102000000Y-96500000D03*
X102000000Y-116500000D03*
D17*
X158000000Y-124250000D03*
D16*
X196000000Y-32500000D03*
D17*
X158000000Y-116750000D03*
X140000000Y-54250000D03*
D16*
X102000000Y-102500000D03*
D17*
X140000000Y-46750000D03*
X140000000Y-74750000D03*
D16*
X102000000Y-138500000D03*
D17*
X140000000Y-40250000D03*
X158000000Y-96250000D03*
D16*
X196000000Y-54500000D03*
D17*
X140000000Y-60750000D03*
D16*
X102000000Y-68500000D03*
X196000000Y-130500000D03*
X102000000Y-32500000D03*
X196000000Y-40500000D03*
D17*
X158000000Y-110250000D03*
X158000000Y-130750000D03*
X158000000Y-138250000D03*
D16*
X196000000Y-88500000D03*
X196000000Y-124500000D03*
X196000000Y-96500000D03*
X196000000Y-74500000D03*
X196000000Y-60500000D03*
D17*
X158000000Y-88750000D03*
D16*
X196000000Y-46500000D03*
X102000000Y-110500000D03*
D17*
X140000000Y-82250000D03*
D16*
X102000000Y-124500000D03*
X196000000Y-68500000D03*
X102000000Y-74500000D03*
X102000000Y-54500000D03*
X102000000Y-60500000D03*
D17*
X140000000Y-68250000D03*
D16*
X102000000Y-82500000D03*
X102000000Y-88500000D03*
X102000000Y-40500000D03*
X196000000Y-110500000D03*
G36*
X199765931Y-72520002D02*
G01*
X199786905Y-72536905D01*
X200963095Y-73713095D01*
X200997121Y-73775407D01*
X201000000Y-73802190D01*
X201000000Y-77874000D01*
X200979998Y-77942121D01*
X200926342Y-77988614D01*
X200874000Y-78000000D01*
X190626000Y-78000000D01*
X190557879Y-77979998D01*
X190511386Y-77926342D01*
X190500000Y-77874000D01*
X190500000Y-74052190D01*
X190520002Y-73984069D01*
X190536905Y-73963095D01*
X191963095Y-72536905D01*
X192025407Y-72502879D01*
X192052190Y-72500000D01*
X199697810Y-72500000D01*
X199765931Y-72520002D01*
G37*
G36*
X107442121Y-93020002D02*
G01*
X107488614Y-93073658D01*
X107500000Y-93126000D01*
X107500000Y-96947810D01*
X107479998Y-97015931D01*
X107463095Y-97036905D01*
X106036905Y-98463095D01*
X105974593Y-98497121D01*
X105947810Y-98500000D01*
X98302190Y-98500000D01*
X98234069Y-98479998D01*
X98213095Y-98463095D01*
X97036905Y-97286905D01*
X97002879Y-97224593D01*
X97000000Y-97197810D01*
X97000000Y-93126000D01*
X97020002Y-93057879D01*
X97073658Y-93011386D01*
X97126000Y-93000000D01*
X107374000Y-93000000D01*
X107442121Y-93020002D01*
G37*
G36*
X106015931Y-100520002D02*
G01*
X106036905Y-100536905D01*
X107463095Y-101963095D01*
X107497121Y-102025407D01*
X107500000Y-102052190D01*
X107500000Y-105874000D01*
X107479998Y-105942121D01*
X107426342Y-105988614D01*
X107374000Y-106000000D01*
X97126000Y-106000000D01*
X97057879Y-105979998D01*
X97011386Y-105926342D01*
X97000000Y-105874000D01*
X97000000Y-101802190D01*
X97020002Y-101734069D01*
X97036905Y-101713095D01*
X98213095Y-100536905D01*
X98275407Y-100502879D01*
X98302190Y-100500000D01*
X105947810Y-100500000D01*
X106015931Y-100520002D01*
G37*
G36*
X107442121Y-135020002D02*
G01*
X107488614Y-135073658D01*
X107500000Y-135126000D01*
X107500000Y-138947810D01*
X107479998Y-139015931D01*
X107463095Y-139036905D01*
X106036905Y-140463095D01*
X105974593Y-140497121D01*
X105947810Y-140500000D01*
X98302190Y-140500000D01*
X98234069Y-140479998D01*
X98213095Y-140463095D01*
X97036905Y-139286905D01*
X97002879Y-139224593D01*
X97000000Y-139197810D01*
X97000000Y-135126000D01*
X97020002Y-135057879D01*
X97073658Y-135011386D01*
X97126000Y-135000000D01*
X107374000Y-135000000D01*
X107442121Y-135020002D01*
G37*
G36*
X107442121Y-93020002D02*
G01*
X107488614Y-93073658D01*
X107500000Y-93126000D01*
X107500000Y-96947810D01*
X107479998Y-97015931D01*
X107463095Y-97036905D01*
X106036905Y-98463095D01*
X105974593Y-98497121D01*
X105947810Y-98500000D01*
X98302190Y-98500000D01*
X98234069Y-98479998D01*
X98213095Y-98463095D01*
X97036905Y-97286905D01*
X97002879Y-97224593D01*
X97000000Y-97197810D01*
X97000000Y-93126000D01*
X97020002Y-93057879D01*
X97073658Y-93011386D01*
X97126000Y-93000000D01*
X107374000Y-93000000D01*
X107442121Y-93020002D01*
G37*
G36*
X200942121Y-93020002D02*
G01*
X200988614Y-93073658D01*
X201000000Y-93126000D01*
X201000000Y-97197810D01*
X200979998Y-97265931D01*
X200963095Y-97286905D01*
X199786905Y-98463095D01*
X199724593Y-98497121D01*
X199697810Y-98500000D01*
X192052190Y-98500000D01*
X191984069Y-98479998D01*
X191963095Y-98463095D01*
X190536905Y-97036905D01*
X190502879Y-96974593D01*
X190500000Y-96947810D01*
X190500000Y-93126000D01*
X190520002Y-93057879D01*
X190573658Y-93011386D01*
X190626000Y-93000000D01*
X200874000Y-93000000D01*
X200942121Y-93020002D01*
G37*
G36*
X199765931Y-30520002D02*
G01*
X199786905Y-30536905D01*
X200963095Y-31713095D01*
X200997121Y-31775407D01*
X201000000Y-31802190D01*
X201000000Y-35874000D01*
X200979998Y-35942121D01*
X200926342Y-35988614D01*
X200874000Y-36000000D01*
X190626000Y-36000000D01*
X190557879Y-35979998D01*
X190511386Y-35926342D01*
X190500000Y-35874000D01*
X190500000Y-32052190D01*
X190520002Y-31984069D01*
X190536905Y-31963095D01*
X191963095Y-30536905D01*
X192025407Y-30502879D01*
X192052190Y-30500000D01*
X199697810Y-30500000D01*
X199765931Y-30520002D01*
G37*
G36*
X107442121Y-107020002D02*
G01*
X107488614Y-107073658D01*
X107500000Y-107126000D01*
X107500000Y-110947810D01*
X107479998Y-111015931D01*
X107463095Y-111036905D01*
X106036905Y-112463095D01*
X105974593Y-112497121D01*
X105947810Y-112500000D01*
X98302190Y-112500000D01*
X98234069Y-112479998D01*
X98213095Y-112463095D01*
X97036905Y-111286905D01*
X97002879Y-111224593D01*
X97000000Y-111197810D01*
X97000000Y-107126000D01*
X97020002Y-107057879D01*
X97073658Y-107011386D01*
X97126000Y-107000000D01*
X107374000Y-107000000D01*
X107442121Y-107020002D01*
G37*
G36*
X199765931Y-44520002D02*
G01*
X199786905Y-44536905D01*
X200963095Y-45713095D01*
X200997121Y-45775407D01*
X201000000Y-45802190D01*
X201000000Y-49874000D01*
X200979998Y-49942121D01*
X200926342Y-49988614D01*
X200874000Y-50000000D01*
X190626000Y-50000000D01*
X190557879Y-49979998D01*
X190511386Y-49926342D01*
X190500000Y-49874000D01*
X190500000Y-46052190D01*
X190520002Y-45984069D01*
X190536905Y-45963095D01*
X191963095Y-44536905D01*
X192025407Y-44502879D01*
X192052190Y-44500000D01*
X199697810Y-44500000D01*
X199765931Y-44520002D01*
G37*
G36*
X200942121Y-37020002D02*
G01*
X200988614Y-37073658D01*
X201000000Y-37126000D01*
X201000000Y-41197810D01*
X200979998Y-41265931D01*
X200963095Y-41286905D01*
X199786905Y-42463095D01*
X199724593Y-42497121D01*
X199697810Y-42500000D01*
X192052190Y-42500000D01*
X191984069Y-42479998D01*
X191963095Y-42463095D01*
X190536905Y-41036905D01*
X190502879Y-40974593D01*
X190500000Y-40947810D01*
X190500000Y-37126000D01*
X190520002Y-37057879D01*
X190573658Y-37011386D01*
X190626000Y-37000000D01*
X200874000Y-37000000D01*
X200942121Y-37020002D01*
G37*
G36*
X107442121Y-37020002D02*
G01*
X107488614Y-37073658D01*
X107500000Y-37126000D01*
X107500000Y-40947810D01*
X107479998Y-41015931D01*
X107463095Y-41036905D01*
X106036905Y-42463095D01*
X105974593Y-42497121D01*
X105947810Y-42500000D01*
X98302190Y-42500000D01*
X98234069Y-42479998D01*
X98213095Y-42463095D01*
X97036905Y-41286905D01*
X97002879Y-41224593D01*
X97000000Y-41197810D01*
X97000000Y-37126000D01*
X97020002Y-37057879D01*
X97073658Y-37011386D01*
X97126000Y-37000000D01*
X107374000Y-37000000D01*
X107442121Y-37020002D01*
G37*
G36*
X107442121Y-79020002D02*
G01*
X107488614Y-79073658D01*
X107500000Y-79126000D01*
X107500000Y-82947810D01*
X107479998Y-83015931D01*
X107463095Y-83036905D01*
X106036905Y-84463095D01*
X105974593Y-84497121D01*
X105947810Y-84500000D01*
X98302190Y-84500000D01*
X98234069Y-84479998D01*
X98213095Y-84463095D01*
X97036905Y-83286905D01*
X97002879Y-83224593D01*
X97000000Y-83197810D01*
X97000000Y-79126000D01*
X97020002Y-79057879D01*
X97073658Y-79011386D01*
X97126000Y-79000000D01*
X107374000Y-79000000D01*
X107442121Y-79020002D01*
G37*
G36*
X200942121Y-79020002D02*
G01*
X200988614Y-79073658D01*
X201000000Y-79126000D01*
X201000000Y-83197810D01*
X200979998Y-83265931D01*
X200963095Y-83286905D01*
X199786905Y-84463095D01*
X199724593Y-84497121D01*
X199697810Y-84500000D01*
X192052190Y-84500000D01*
X191984069Y-84479998D01*
X191963095Y-84463095D01*
X190536905Y-83036905D01*
X190502879Y-82974593D01*
X190500000Y-82947810D01*
X190500000Y-79126000D01*
X190520002Y-79057879D01*
X190573658Y-79011386D01*
X190626000Y-79000000D01*
X200874000Y-79000000D01*
X200942121Y-79020002D01*
G37*
G36*
X199765931Y-58520002D02*
G01*
X199786905Y-58536905D01*
X200963095Y-59713095D01*
X200997121Y-59775407D01*
X201000000Y-59802190D01*
X201000000Y-63874000D01*
X200979998Y-63942121D01*
X200926342Y-63988614D01*
X200874000Y-64000000D01*
X190626000Y-64000000D01*
X190557879Y-63979998D01*
X190511386Y-63926342D01*
X190500000Y-63874000D01*
X190500000Y-60052190D01*
X190520002Y-59984069D01*
X190536905Y-59963095D01*
X191963095Y-58536905D01*
X192025407Y-58502879D01*
X192052190Y-58500000D01*
X199697810Y-58500000D01*
X199765931Y-58520002D01*
G37*
G36*
X200942121Y-37020002D02*
G01*
X200988614Y-37073658D01*
X201000000Y-37126000D01*
X201000000Y-41197810D01*
X200979998Y-41265931D01*
X200963095Y-41286905D01*
X199786905Y-42463095D01*
X199724593Y-42497121D01*
X199697810Y-42500000D01*
X192052190Y-42500000D01*
X191984069Y-42479998D01*
X191963095Y-42463095D01*
X190536905Y-41036905D01*
X190502879Y-40974593D01*
X190500000Y-40947810D01*
X190500000Y-37126000D01*
X190520002Y-37057879D01*
X190573658Y-37011386D01*
X190626000Y-37000000D01*
X200874000Y-37000000D01*
X200942121Y-37020002D01*
G37*
G36*
X106015931Y-128520002D02*
G01*
X106036905Y-128536905D01*
X107463095Y-129963095D01*
X107497121Y-130025407D01*
X107500000Y-130052190D01*
X107500000Y-133874000D01*
X107479998Y-133942121D01*
X107426342Y-133988614D01*
X107374000Y-134000000D01*
X97126000Y-134000000D01*
X97057879Y-133979998D01*
X97011386Y-133926342D01*
X97000000Y-133874000D01*
X97000000Y-129802190D01*
X97020002Y-129734069D01*
X97036905Y-129713095D01*
X98213095Y-128536905D01*
X98275407Y-128502879D01*
X98302190Y-128500000D01*
X105947810Y-128500000D01*
X106015931Y-128520002D01*
G37*
G36*
X106015931Y-72520002D02*
G01*
X106036905Y-72536905D01*
X107463095Y-73963095D01*
X107497121Y-74025407D01*
X107500000Y-74052190D01*
X107500000Y-77874000D01*
X107479998Y-77942121D01*
X107426342Y-77988614D01*
X107374000Y-78000000D01*
X97126000Y-78000000D01*
X97057879Y-77979998D01*
X97011386Y-77926342D01*
X97000000Y-77874000D01*
X97000000Y-73802190D01*
X97020002Y-73734069D01*
X97036905Y-73713095D01*
X98213095Y-72536905D01*
X98275407Y-72502879D01*
X98302190Y-72500000D01*
X105947810Y-72500000D01*
X106015931Y-72520002D01*
G37*
G36*
X199765931Y-58520002D02*
G01*
X199786905Y-58536905D01*
X200963095Y-59713095D01*
X200997121Y-59775407D01*
X201000000Y-59802190D01*
X201000000Y-63874000D01*
X200979998Y-63942121D01*
X200926342Y-63988614D01*
X200874000Y-64000000D01*
X190626000Y-64000000D01*
X190557879Y-63979998D01*
X190511386Y-63926342D01*
X190500000Y-63874000D01*
X190500000Y-60052190D01*
X190520002Y-59984069D01*
X190536905Y-59963095D01*
X191963095Y-58536905D01*
X192025407Y-58502879D01*
X192052190Y-58500000D01*
X199697810Y-58500000D01*
X199765931Y-58520002D01*
G37*
G36*
X107442121Y-107020002D02*
G01*
X107488614Y-107073658D01*
X107500000Y-107126000D01*
X107500000Y-110947810D01*
X107479998Y-111015931D01*
X107463095Y-111036905D01*
X106036905Y-112463095D01*
X105974593Y-112497121D01*
X105947810Y-112500000D01*
X98302190Y-112500000D01*
X98234069Y-112479998D01*
X98213095Y-112463095D01*
X97036905Y-111286905D01*
X97002879Y-111224593D01*
X97000000Y-111197810D01*
X97000000Y-107126000D01*
X97020002Y-107057879D01*
X97073658Y-107011386D01*
X97126000Y-107000000D01*
X107374000Y-107000000D01*
X107442121Y-107020002D01*
G37*
G36*
X107442121Y-121020002D02*
G01*
X107488614Y-121073658D01*
X107500000Y-121126000D01*
X107500000Y-124947810D01*
X107479998Y-125015931D01*
X107463095Y-125036905D01*
X106036905Y-126463095D01*
X105974593Y-126497121D01*
X105947810Y-126500000D01*
X98302190Y-126500000D01*
X98234069Y-126479998D01*
X98213095Y-126463095D01*
X97036905Y-125286905D01*
X97002879Y-125224593D01*
X97000000Y-125197810D01*
X97000000Y-121126000D01*
X97020002Y-121057879D01*
X97073658Y-121011386D01*
X97126000Y-121000000D01*
X107374000Y-121000000D01*
X107442121Y-121020002D01*
G37*
G36*
X199765931Y-100520002D02*
G01*
X199786905Y-100536905D01*
X200963095Y-101713095D01*
X200997121Y-101775407D01*
X201000000Y-101802190D01*
X201000000Y-105874000D01*
X200979998Y-105942121D01*
X200926342Y-105988614D01*
X200874000Y-106000000D01*
X190626000Y-106000000D01*
X190557879Y-105979998D01*
X190511386Y-105926342D01*
X190500000Y-105874000D01*
X190500000Y-102052190D01*
X190520002Y-101984069D01*
X190536905Y-101963095D01*
X191963095Y-100536905D01*
X192025407Y-100502879D01*
X192052190Y-100500000D01*
X199697810Y-100500000D01*
X199765931Y-100520002D01*
G37*
G36*
X200942121Y-51020002D02*
G01*
X200988614Y-51073658D01*
X201000000Y-51126000D01*
X201000000Y-55197810D01*
X200979998Y-55265931D01*
X200963095Y-55286905D01*
X199786905Y-56463095D01*
X199724593Y-56497121D01*
X199697810Y-56500000D01*
X192052190Y-56500000D01*
X191984069Y-56479998D01*
X191963095Y-56463095D01*
X190536905Y-55036905D01*
X190502879Y-54974593D01*
X190500000Y-54947810D01*
X190500000Y-51126000D01*
X190520002Y-51057879D01*
X190573658Y-51011386D01*
X190626000Y-51000000D01*
X200874000Y-51000000D01*
X200942121Y-51020002D01*
G37*
G36*
X106015931Y-44520002D02*
G01*
X106036905Y-44536905D01*
X107463095Y-45963095D01*
X107497121Y-46025407D01*
X107500000Y-46052190D01*
X107500000Y-49874000D01*
X107479998Y-49942121D01*
X107426342Y-49988614D01*
X107374000Y-50000000D01*
X97126000Y-50000000D01*
X97057879Y-49979998D01*
X97011386Y-49926342D01*
X97000000Y-49874000D01*
X97000000Y-45802190D01*
X97020002Y-45734069D01*
X97036905Y-45713095D01*
X98213095Y-44536905D01*
X98275407Y-44502879D01*
X98302190Y-44500000D01*
X105947810Y-44500000D01*
X106015931Y-44520002D01*
G37*
G36*
X106015931Y-58520002D02*
G01*
X106036905Y-58536905D01*
X107463095Y-59963095D01*
X107497121Y-60025407D01*
X107500000Y-60052190D01*
X107500000Y-63874000D01*
X107479998Y-63942121D01*
X107426342Y-63988614D01*
X107374000Y-64000000D01*
X97126000Y-64000000D01*
X97057879Y-63979998D01*
X97011386Y-63926342D01*
X97000000Y-63874000D01*
X97000000Y-59802190D01*
X97020002Y-59734069D01*
X97036905Y-59713095D01*
X98213095Y-58536905D01*
X98275407Y-58502879D01*
X98302190Y-58500000D01*
X105947810Y-58500000D01*
X106015931Y-58520002D01*
G37*
G36*
X107442121Y-51020002D02*
G01*
X107488614Y-51073658D01*
X107500000Y-51126000D01*
X107500000Y-54947810D01*
X107479998Y-55015931D01*
X107463095Y-55036905D01*
X106036905Y-56463095D01*
X105974593Y-56497121D01*
X105947810Y-56500000D01*
X98302190Y-56500000D01*
X98234069Y-56479998D01*
X98213095Y-56463095D01*
X97036905Y-55286905D01*
X97002879Y-55224593D01*
X97000000Y-55197810D01*
X97000000Y-51126000D01*
X97020002Y-51057879D01*
X97073658Y-51011386D01*
X97126000Y-51000000D01*
X107374000Y-51000000D01*
X107442121Y-51020002D01*
G37*
G36*
X107442121Y-121020002D02*
G01*
X107488614Y-121073658D01*
X107500000Y-121126000D01*
X107500000Y-124947810D01*
X107479998Y-125015931D01*
X107463095Y-125036905D01*
X106036905Y-126463095D01*
X105974593Y-126497121D01*
X105947810Y-126500000D01*
X98302190Y-126500000D01*
X98234069Y-126479998D01*
X98213095Y-126463095D01*
X97036905Y-125286905D01*
X97002879Y-125224593D01*
X97000000Y-125197810D01*
X97000000Y-121126000D01*
X97020002Y-121057879D01*
X97073658Y-121011386D01*
X97126000Y-121000000D01*
X107374000Y-121000000D01*
X107442121Y-121020002D01*
G37*
G36*
X106015931Y-128520002D02*
G01*
X106036905Y-128536905D01*
X107463095Y-129963095D01*
X107497121Y-130025407D01*
X107500000Y-130052190D01*
X107500000Y-133874000D01*
X107479998Y-133942121D01*
X107426342Y-133988614D01*
X107374000Y-134000000D01*
X97126000Y-134000000D01*
X97057879Y-133979998D01*
X97011386Y-133926342D01*
X97000000Y-133874000D01*
X97000000Y-129802190D01*
X97020002Y-129734069D01*
X97036905Y-129713095D01*
X98213095Y-128536905D01*
X98275407Y-128502879D01*
X98302190Y-128500000D01*
X105947810Y-128500000D01*
X106015931Y-128520002D01*
G37*
G36*
X200942121Y-135020002D02*
G01*
X200988614Y-135073658D01*
X201000000Y-135126000D01*
X201000000Y-139197810D01*
X200979998Y-139265931D01*
X200963095Y-139286905D01*
X199786905Y-140463095D01*
X199724593Y-140497121D01*
X199697810Y-140500000D01*
X192052190Y-140500000D01*
X191984069Y-140479998D01*
X191963095Y-140463095D01*
X190536905Y-139036905D01*
X190502879Y-138974593D01*
X190500000Y-138947810D01*
X190500000Y-135126000D01*
X190520002Y-135057879D01*
X190573658Y-135011386D01*
X190626000Y-135000000D01*
X200874000Y-135000000D01*
X200942121Y-135020002D01*
G37*
G36*
X200942121Y-65020002D02*
G01*
X200988614Y-65073658D01*
X201000000Y-65126000D01*
X201000000Y-69197810D01*
X200979998Y-69265931D01*
X200963095Y-69286905D01*
X199786905Y-70463095D01*
X199724593Y-70497121D01*
X199697810Y-70500000D01*
X192052190Y-70500000D01*
X191984069Y-70479998D01*
X191963095Y-70463095D01*
X190536905Y-69036905D01*
X190502879Y-68974593D01*
X190500000Y-68947810D01*
X190500000Y-65126000D01*
X190520002Y-65057879D01*
X190573658Y-65011386D01*
X190626000Y-65000000D01*
X200874000Y-65000000D01*
X200942121Y-65020002D01*
G37*
G36*
X199765931Y-86520002D02*
G01*
X199786905Y-86536905D01*
X200963095Y-87713095D01*
X200997121Y-87775407D01*
X201000000Y-87802190D01*
X201000000Y-91874000D01*
X200979998Y-91942121D01*
X200926342Y-91988614D01*
X200874000Y-92000000D01*
X190626000Y-92000000D01*
X190557879Y-91979998D01*
X190511386Y-91926342D01*
X190500000Y-91874000D01*
X190500000Y-88052190D01*
X190520002Y-87984069D01*
X190536905Y-87963095D01*
X191963095Y-86536905D01*
X192025407Y-86502879D01*
X192052190Y-86500000D01*
X199697810Y-86500000D01*
X199765931Y-86520002D01*
G37*
G36*
X106015931Y-114520002D02*
G01*
X106036905Y-114536905D01*
X107463095Y-115963095D01*
X107497121Y-116025407D01*
X107500000Y-116052190D01*
X107500000Y-119874000D01*
X107479998Y-119942121D01*
X107426342Y-119988614D01*
X107374000Y-120000000D01*
X97126000Y-120000000D01*
X97057879Y-119979998D01*
X97011386Y-119926342D01*
X97000000Y-119874000D01*
X97000000Y-115802190D01*
X97020002Y-115734069D01*
X97036905Y-115713095D01*
X98213095Y-114536905D01*
X98275407Y-114502879D01*
X98302190Y-114500000D01*
X105947810Y-114500000D01*
X106015931Y-114520002D01*
G37*
G36*
X199765931Y-72520002D02*
G01*
X199786905Y-72536905D01*
X200963095Y-73713095D01*
X200997121Y-73775407D01*
X201000000Y-73802190D01*
X201000000Y-77874000D01*
X200979998Y-77942121D01*
X200926342Y-77988614D01*
X200874000Y-78000000D01*
X190626000Y-78000000D01*
X190557879Y-77979998D01*
X190511386Y-77926342D01*
X190500000Y-77874000D01*
X190500000Y-74052190D01*
X190520002Y-73984069D01*
X190536905Y-73963095D01*
X191963095Y-72536905D01*
X192025407Y-72502879D01*
X192052190Y-72500000D01*
X199697810Y-72500000D01*
X199765931Y-72520002D01*
G37*
G36*
X106015931Y-86520002D02*
G01*
X106036905Y-86536905D01*
X107463095Y-87963095D01*
X107497121Y-88025407D01*
X107500000Y-88052190D01*
X107500000Y-91874000D01*
X107479998Y-91942121D01*
X107426342Y-91988614D01*
X107374000Y-92000000D01*
X97126000Y-92000000D01*
X97057879Y-91979998D01*
X97011386Y-91926342D01*
X97000000Y-91874000D01*
X97000000Y-87802190D01*
X97020002Y-87734069D01*
X97036905Y-87713095D01*
X98213095Y-86536905D01*
X98275407Y-86502879D01*
X98302190Y-86500000D01*
X105947810Y-86500000D01*
X106015931Y-86520002D01*
G37*
G36*
X107442121Y-135020002D02*
G01*
X107488614Y-135073658D01*
X107500000Y-135126000D01*
X107500000Y-138947810D01*
X107479998Y-139015931D01*
X107463095Y-139036905D01*
X106036905Y-140463095D01*
X105974593Y-140497121D01*
X105947810Y-140500000D01*
X98302190Y-140500000D01*
X98234069Y-140479998D01*
X98213095Y-140463095D01*
X97036905Y-139286905D01*
X97002879Y-139224593D01*
X97000000Y-139197810D01*
X97000000Y-135126000D01*
X97020002Y-135057879D01*
X97073658Y-135011386D01*
X97126000Y-135000000D01*
X107374000Y-135000000D01*
X107442121Y-135020002D01*
G37*
G36*
X199765931Y-30520002D02*
G01*
X199786905Y-30536905D01*
X200963095Y-31713095D01*
X200997121Y-31775407D01*
X201000000Y-31802190D01*
X201000000Y-35874000D01*
X200979998Y-35942121D01*
X200926342Y-35988614D01*
X200874000Y-36000000D01*
X190626000Y-36000000D01*
X190557879Y-35979998D01*
X190511386Y-35926342D01*
X190500000Y-35874000D01*
X190500000Y-32052190D01*
X190520002Y-31984069D01*
X190536905Y-31963095D01*
X191963095Y-30536905D01*
X192025407Y-30502879D01*
X192052190Y-30500000D01*
X199697810Y-30500000D01*
X199765931Y-30520002D01*
G37*
G36*
X199765931Y-44520002D02*
G01*
X199786905Y-44536905D01*
X200963095Y-45713095D01*
X200997121Y-45775407D01*
X201000000Y-45802190D01*
X201000000Y-49874000D01*
X200979998Y-49942121D01*
X200926342Y-49988614D01*
X200874000Y-50000000D01*
X190626000Y-50000000D01*
X190557879Y-49979998D01*
X190511386Y-49926342D01*
X190500000Y-49874000D01*
X190500000Y-46052190D01*
X190520002Y-45984069D01*
X190536905Y-45963095D01*
X191963095Y-44536905D01*
X192025407Y-44502879D01*
X192052190Y-44500000D01*
X199697810Y-44500000D01*
X199765931Y-44520002D01*
G37*
G36*
X106015931Y-86520002D02*
G01*
X106036905Y-86536905D01*
X107463095Y-87963095D01*
X107497121Y-88025407D01*
X107500000Y-88052190D01*
X107500000Y-91874000D01*
X107479998Y-91942121D01*
X107426342Y-91988614D01*
X107374000Y-92000000D01*
X97126000Y-92000000D01*
X97057879Y-91979998D01*
X97011386Y-91926342D01*
X97000000Y-91874000D01*
X97000000Y-87802190D01*
X97020002Y-87734069D01*
X97036905Y-87713095D01*
X98213095Y-86536905D01*
X98275407Y-86502879D01*
X98302190Y-86500000D01*
X105947810Y-86500000D01*
X106015931Y-86520002D01*
G37*
G36*
X200942121Y-121020002D02*
G01*
X200988614Y-121073658D01*
X201000000Y-121126000D01*
X201000000Y-125197810D01*
X200979998Y-125265931D01*
X200963095Y-125286905D01*
X199786905Y-126463095D01*
X199724593Y-126497121D01*
X199697810Y-126500000D01*
X192052190Y-126500000D01*
X191984069Y-126479998D01*
X191963095Y-126463095D01*
X190536905Y-125036905D01*
X190502879Y-124974593D01*
X190500000Y-124947810D01*
X190500000Y-121126000D01*
X190520002Y-121057879D01*
X190573658Y-121011386D01*
X190626000Y-121000000D01*
X200874000Y-121000000D01*
X200942121Y-121020002D01*
G37*
G36*
X200942121Y-79020002D02*
G01*
X200988614Y-79073658D01*
X201000000Y-79126000D01*
X201000000Y-83197810D01*
X200979998Y-83265931D01*
X200963095Y-83286905D01*
X199786905Y-84463095D01*
X199724593Y-84497121D01*
X199697810Y-84500000D01*
X192052190Y-84500000D01*
X191984069Y-84479998D01*
X191963095Y-84463095D01*
X190536905Y-83036905D01*
X190502879Y-82974593D01*
X190500000Y-82947810D01*
X190500000Y-79126000D01*
X190520002Y-79057879D01*
X190573658Y-79011386D01*
X190626000Y-79000000D01*
X200874000Y-79000000D01*
X200942121Y-79020002D01*
G37*
G36*
X200942121Y-51020002D02*
G01*
X200988614Y-51073658D01*
X201000000Y-51126000D01*
X201000000Y-55197810D01*
X200979998Y-55265931D01*
X200963095Y-55286905D01*
X199786905Y-56463095D01*
X199724593Y-56497121D01*
X199697810Y-56500000D01*
X192052190Y-56500000D01*
X191984069Y-56479998D01*
X191963095Y-56463095D01*
X190536905Y-55036905D01*
X190502879Y-54974593D01*
X190500000Y-54947810D01*
X190500000Y-51126000D01*
X190520002Y-51057879D01*
X190573658Y-51011386D01*
X190626000Y-51000000D01*
X200874000Y-51000000D01*
X200942121Y-51020002D01*
G37*
G36*
X200942121Y-65020002D02*
G01*
X200988614Y-65073658D01*
X201000000Y-65126000D01*
X201000000Y-69197810D01*
X200979998Y-69265931D01*
X200963095Y-69286905D01*
X199786905Y-70463095D01*
X199724593Y-70497121D01*
X199697810Y-70500000D01*
X192052190Y-70500000D01*
X191984069Y-70479998D01*
X191963095Y-70463095D01*
X190536905Y-69036905D01*
X190502879Y-68974593D01*
X190500000Y-68947810D01*
X190500000Y-65126000D01*
X190520002Y-65057879D01*
X190573658Y-65011386D01*
X190626000Y-65000000D01*
X200874000Y-65000000D01*
X200942121Y-65020002D01*
G37*
G36*
X199765931Y-114520002D02*
G01*
X199786905Y-114536905D01*
X200963095Y-115713095D01*
X200997121Y-115775407D01*
X201000000Y-115802190D01*
X201000000Y-119874000D01*
X200979998Y-119942121D01*
X200926342Y-119988614D01*
X200874000Y-120000000D01*
X190626000Y-120000000D01*
X190557879Y-119979998D01*
X190511386Y-119926342D01*
X190500000Y-119874000D01*
X190500000Y-116052190D01*
X190520002Y-115984069D01*
X190536905Y-115963095D01*
X191963095Y-114536905D01*
X192025407Y-114502879D01*
X192052190Y-114500000D01*
X199697810Y-114500000D01*
X199765931Y-114520002D01*
G37*
G36*
X199765931Y-128520002D02*
G01*
X199786905Y-128536905D01*
X200963095Y-129713095D01*
X200997121Y-129775407D01*
X201000000Y-129802190D01*
X201000000Y-133874000D01*
X200979998Y-133942121D01*
X200926342Y-133988614D01*
X200874000Y-134000000D01*
X190626000Y-134000000D01*
X190557879Y-133979998D01*
X190511386Y-133926342D01*
X190500000Y-133874000D01*
X190500000Y-130052190D01*
X190520002Y-129984069D01*
X190536905Y-129963095D01*
X191963095Y-128536905D01*
X192025407Y-128502879D01*
X192052190Y-128500000D01*
X199697810Y-128500000D01*
X199765931Y-128520002D01*
G37*
G36*
X106015931Y-100520002D02*
G01*
X106036905Y-100536905D01*
X107463095Y-101963095D01*
X107497121Y-102025407D01*
X107500000Y-102052190D01*
X107500000Y-105874000D01*
X107479998Y-105942121D01*
X107426342Y-105988614D01*
X107374000Y-106000000D01*
X97126000Y-106000000D01*
X97057879Y-105979998D01*
X97011386Y-105926342D01*
X97000000Y-105874000D01*
X97000000Y-101802190D01*
X97020002Y-101734069D01*
X97036905Y-101713095D01*
X98213095Y-100536905D01*
X98275407Y-100502879D01*
X98302190Y-100500000D01*
X105947810Y-100500000D01*
X106015931Y-100520002D01*
G37*
G36*
X106015931Y-30520002D02*
G01*
X106036905Y-30536905D01*
X107463095Y-31963095D01*
X107497121Y-32025407D01*
X107500000Y-32052190D01*
X107500000Y-35874000D01*
X107479998Y-35942121D01*
X107426342Y-35988614D01*
X107374000Y-36000000D01*
X97126000Y-36000000D01*
X97057879Y-35979998D01*
X97011386Y-35926342D01*
X97000000Y-35874000D01*
X97000000Y-31802190D01*
X97020002Y-31734069D01*
X97036905Y-31713095D01*
X98213095Y-30536905D01*
X98275407Y-30502879D01*
X98302190Y-30500000D01*
X105947810Y-30500000D01*
X106015931Y-30520002D01*
G37*
G36*
X107442121Y-65020002D02*
G01*
X107488614Y-65073658D01*
X107500000Y-65126000D01*
X107500000Y-68947810D01*
X107479998Y-69015931D01*
X107463095Y-69036905D01*
X106036905Y-70463095D01*
X105974593Y-70497121D01*
X105947810Y-70500000D01*
X98302190Y-70500000D01*
X98234069Y-70479998D01*
X98213095Y-70463095D01*
X97036905Y-69286905D01*
X97002879Y-69224593D01*
X97000000Y-69197810D01*
X97000000Y-65126000D01*
X97020002Y-65057879D01*
X97073658Y-65011386D01*
X97126000Y-65000000D01*
X107374000Y-65000000D01*
X107442121Y-65020002D01*
G37*
G36*
X106015931Y-114520002D02*
G01*
X106036905Y-114536905D01*
X107463095Y-115963095D01*
X107497121Y-116025407D01*
X107500000Y-116052190D01*
X107500000Y-119874000D01*
X107479998Y-119942121D01*
X107426342Y-119988614D01*
X107374000Y-120000000D01*
X97126000Y-120000000D01*
X97057879Y-119979998D01*
X97011386Y-119926342D01*
X97000000Y-119874000D01*
X97000000Y-115802190D01*
X97020002Y-115734069D01*
X97036905Y-115713095D01*
X98213095Y-114536905D01*
X98275407Y-114502879D01*
X98302190Y-114500000D01*
X105947810Y-114500000D01*
X106015931Y-114520002D01*
G37*
G36*
X200942121Y-107020002D02*
G01*
X200988614Y-107073658D01*
X201000000Y-107126000D01*
X201000000Y-111197810D01*
X200979998Y-111265931D01*
X200963095Y-111286905D01*
X199786905Y-112463095D01*
X199724593Y-112497121D01*
X199697810Y-112500000D01*
X192052190Y-112500000D01*
X191984069Y-112479998D01*
X191963095Y-112463095D01*
X190536905Y-111036905D01*
X190502879Y-110974593D01*
X190500000Y-110947810D01*
X190500000Y-107126000D01*
X190520002Y-107057879D01*
X190573658Y-107011386D01*
X190626000Y-107000000D01*
X200874000Y-107000000D01*
X200942121Y-107020002D01*
G37*
M02*
