G04 #@! TF.GenerationSoftware,KiCad,Pcbnew,9.0.8*
G04 #@! TF.CreationDate,2026-09-10T23:16:32+09:00*
G04 #@! TF.ProjectId,motordecoder2-t-dc20mra-panelized,6d6f746f-7264-4656-936f-646572322d74,rev?*
G04 #@! TF.SameCoordinates,Original*
G04 #@! TF.FileFunction,Soldermask,Top*
G04 #@! TF.FilePolarity,Negative*
%FSLAX46Y46*%
G04 Gerber Fmt 4.6, Leading zero omitted, Abs format (unit mm)*
G04 Created by KiCad (PCBNEW 9.0.8) date 2026-09-10 23:16:32*
%MOMM*%
%LPD*%
G01*
G04 APERTURE LIST*
G04 Aperture macros list*
%AMRoundRect*
0 Rectangle with rounded corners*
0 $1 Rounding radius*
0 $2 $3 $4 $5 $6 $7 $8 $9 X,Y pos of 4 corners*
0 Add a 4 corners polygon primitive as box body*
4,1,4,$2,$3,$4,$5,$6,$7,$8,$9,$2,$3,0*
0 Add four circle primitives for the rounded corners*
1,1,$1+$1,$2,$3*
1,1,$1+$1,$4,$5*
1,1,$1+$1,$6,$7*
1,1,$1+$1,$8,$9*
0 Add four rect primitives between the rounded corners*
20,1,$1+$1,$2,$3,$4,$5,0*
20,1,$1+$1,$4,$5,$6,$7,0*
20,1,$1+$1,$6,$7,$8,$9,0*
20,1,$1+$1,$8,$9,$2,$3,0*%
%AMFreePoly0*
4,1,47,0.149899,0.332478,0.291718,0.280861,0.417811,0.197929,0.521379,0.088154,0.596839,-0.042547,0.636960,-0.176560,0.637078,-0.176678,0.637078,-0.176952,0.640124,-0.187127,0.637078,-0.208803,0.637078,-0.214946,0.636073,-0.215950,0.635824,-0.217728,0.614358,-0.239957,0.611576,-0.240447,0.610018,-0.242006,0.590884,-0.245812,-0.590884,-0.245812,-0.610018,-0.242006,-0.611574,-0.240449,
-0.614358,-0.239959,-0.635824,-0.217731,-0.636074,-0.215949,-0.637078,-0.214946,-0.637078,-0.208806,-0.640124,-0.187130,-0.637078,-0.176955,-0.637078,-0.176678,-0.636959,-0.176559,-0.627754,-0.145812,-0.531220,-0.145812,-0.527837,-0.145812,0.527837,-0.145812,0.531220,-0.145812,0.530204,-0.140096,0.527837,-0.145812,-0.527837,-0.145812,-0.530204,-0.140095,-0.531220,-0.145812,-0.627754,-0.145812,
-0.596840,-0.042549,-0.521380,0.088152,-0.417812,0.197928,-0.291720,0.280860,-0.149901,0.332478,-0.000001,0.349999,0.149899,0.332478,0.149899,0.332478,$1*%
%AMFreePoly1*
4,1,14,0.334644,0.085355,0.385355,0.034644,0.400000,-0.000711,0.400000,-0.050000,0.385355,-0.085355,0.350000,-0.100000,-0.350000,-0.100000,-0.385355,-0.085355,-0.400000,-0.050000,-0.400000,0.050000,-0.385355,0.085355,-0.350000,0.100000,0.299289,0.100000,0.334644,0.085355,0.334644,0.085355,$1*%
%AMFreePoly2*
4,1,14,0.385355,0.085355,0.400000,0.050000,0.400000,0.000711,0.385355,-0.034644,0.334644,-0.085355,0.299289,-0.100000,-0.350000,-0.100000,-0.385355,-0.085355,-0.400000,-0.050000,-0.400000,0.050000,-0.385355,0.085355,-0.350000,0.100000,0.350000,0.100000,0.385355,0.085355,0.385355,0.085355,$1*%
%AMFreePoly3*
4,1,14,0.085355,0.385355,0.100000,0.350000,0.100000,-0.350000,0.085355,-0.385355,0.050000,-0.400000,-0.050000,-0.400000,-0.085355,-0.385355,-0.100000,-0.350000,-0.100000,0.299289,-0.085355,0.334644,-0.034644,0.385355,0.000711,0.400000,0.050000,0.400000,0.085355,0.385355,0.085355,0.385355,$1*%
%AMFreePoly4*
4,1,14,0.034644,0.385355,0.085355,0.334644,0.100000,0.299289,0.100000,-0.350000,0.085355,-0.385355,0.050000,-0.400000,-0.050000,-0.400000,-0.085355,-0.385355,-0.100000,-0.350000,-0.100000,0.350000,-0.085355,0.385355,-0.050000,0.400000,-0.000711,0.400000,0.034644,0.385355,0.034644,0.385355,$1*%
%AMFreePoly5*
4,1,14,0.385355,0.085355,0.400000,0.050000,0.400000,-0.050000,0.385355,-0.085355,0.350000,-0.100000,-0.299289,-0.100000,-0.334644,-0.085355,-0.385355,-0.034644,-0.400000,0.000711,-0.400000,0.050000,-0.385355,0.085355,-0.350000,0.100000,0.350000,0.100000,0.385355,0.085355,0.385355,0.085355,$1*%
%AMFreePoly6*
4,1,14,0.385355,0.085355,0.400000,0.050000,0.400000,-0.050000,0.385355,-0.085355,0.350000,-0.100000,-0.350000,-0.100000,-0.385355,-0.085355,-0.400000,-0.050000,-0.400000,-0.000711,-0.385355,0.034644,-0.334644,0.085355,-0.299289,0.100000,0.350000,0.100000,0.385355,0.085355,0.385355,0.085355,$1*%
%AMFreePoly7*
4,1,14,0.085355,0.385355,0.100000,0.350000,0.100000,-0.299289,0.085355,-0.334644,0.034644,-0.385355,-0.000711,-0.400000,-0.050000,-0.400000,-0.085355,-0.385355,-0.100000,-0.350000,-0.100000,0.350000,-0.085355,0.385355,-0.050000,0.400000,0.050000,0.400000,0.085355,0.385355,0.085355,0.385355,$1*%
%AMFreePoly8*
4,1,14,0.085355,0.385355,0.100000,0.350000,0.100000,-0.350000,0.085355,-0.385355,0.050000,-0.400000,0.000711,-0.400000,-0.034644,-0.385355,-0.085355,-0.334644,-0.100000,-0.299289,-0.100000,0.350000,-0.085355,0.385355,-0.050000,0.400000,0.050000,0.400000,0.085355,0.385355,0.085355,0.385355,$1*%
G04 Aperture macros list end*
%ADD10C,0.500000*%
%ADD11C,0.250000*%
%ADD12C,0.200000*%
%ADD13R,0.700000X0.700000*%
%ADD14R,0.500000X1.450000*%
%ADD15R,0.750000X1.300000*%
%ADD16R,2.000000X1.100000*%
%ADD17R,0.800000X1.100000*%
%ADD18R,0.400000X0.600000*%
%ADD19R,0.450000X0.300000*%
%ADD20R,0.500000X0.900000*%
%ADD21R,0.600000X0.400000*%
%ADD22R,0.900000X0.500000*%
%ADD23R,0.800000X0.800000*%
%ADD24C,2.000000*%
%ADD25R,0.700000X0.800000*%
%ADD26R,0.520000X0.450000*%
%ADD27R,0.300000X0.450000*%
%ADD28R,0.400000X0.450000*%
%ADD29R,0.500000X0.450000*%
%ADD30R,1.800000X1.000000*%
%ADD31R,0.950000X0.950000*%
%ADD32R,1.300000X1.300000*%
%ADD33R,0.500000X0.550000*%
%ADD34FreePoly0,0.000000*%
%ADD35FreePoly0,180.000000*%
%ADD36R,0.550000X0.500000*%
%ADD37R,0.800000X0.900000*%
%ADD38R,0.450000X0.520000*%
%ADD39R,0.650000X0.800000*%
%ADD40FreePoly1,0.000000*%
%ADD41RoundRect,0.050000X-0.350000X-0.050000X0.350000X-0.050000X0.350000X0.050000X-0.350000X0.050000X0*%
%ADD42FreePoly2,0.000000*%
%ADD43FreePoly3,0.000000*%
%ADD44RoundRect,0.050000X-0.050000X-0.350000X0.050000X-0.350000X0.050000X0.350000X-0.050000X0.350000X0*%
%ADD45FreePoly4,0.000000*%
%ADD46FreePoly5,0.000000*%
%ADD47FreePoly6,0.000000*%
%ADD48FreePoly7,0.000000*%
%ADD49FreePoly8,0.000000*%
%ADD50R,1.700000X1.700000*%
%ADD51R,0.600000X1.000000*%
%ADD52C,1.300000*%
%ADD53R,0.450000X0.400000*%
%ADD54R,0.450000X0.500000*%
%ADD55FreePoly1,180.000000*%
%ADD56RoundRect,0.050000X0.350000X0.050000X-0.350000X0.050000X-0.350000X-0.050000X0.350000X-0.050000X0*%
%ADD57FreePoly2,180.000000*%
%ADD58FreePoly3,180.000000*%
%ADD59RoundRect,0.050000X0.050000X0.350000X-0.050000X0.350000X-0.050000X-0.350000X0.050000X-0.350000X0*%
%ADD60FreePoly4,180.000000*%
%ADD61FreePoly5,180.000000*%
%ADD62FreePoly6,180.000000*%
%ADD63FreePoly7,180.000000*%
%ADD64FreePoly8,180.000000*%
G04 APERTURE END LIST*
D10*
X100750000Y-34250000D02*
X103250000Y-34250000D01*
X100750000Y-38750000D02*
G75*
G02*
X100750000Y-34250000I0J2250000D01*
G01*
X100750000Y-38750000D02*
X103250000Y-38750000D01*
X100750000Y-48250000D02*
X103250000Y-48250000D01*
X100750000Y-52750000D02*
G75*
G02*
X100750000Y-48250000I0J2250000D01*
G01*
X100750000Y-52750000D02*
X103250000Y-52750000D01*
X100750000Y-62250000D02*
X103250000Y-62250000D01*
X100750000Y-66750000D02*
G75*
G02*
X100750000Y-62250000I0J2250000D01*
G01*
X100750000Y-66750000D02*
X103250000Y-66750000D01*
X100750000Y-76250000D02*
X103250000Y-76250000D01*
X100750000Y-80750000D02*
G75*
G02*
X100750000Y-76250000I0J2250000D01*
G01*
X100750000Y-80750000D02*
X103250000Y-80750000D01*
X100750000Y-94750000D02*
G75*
G02*
X100750000Y-90250000I0J2250000D01*
G01*
X100750000Y-108750000D02*
G75*
G02*
X100750000Y-104250000I0J2250000D01*
G01*
X100750000Y-122750000D02*
G75*
G02*
X100750000Y-118250000I0J2250000D01*
G01*
X100750000Y-136750000D02*
G75*
G02*
X100750000Y-132250000I0J2250000D01*
G01*
X103250000Y-34250000D02*
G75*
G02*
X103250000Y-38750000I0J-2250000D01*
G01*
X103250000Y-48250000D02*
G75*
G02*
X103250000Y-52750000I0J-2250000D01*
G01*
X103250000Y-62250000D02*
G75*
G02*
X103250000Y-66750000I0J-2250000D01*
G01*
X103250000Y-76250000D02*
G75*
G02*
X103250000Y-80750000I0J-2250000D01*
G01*
X103250000Y-90250000D02*
G75*
G02*
X103250000Y-94750000I0J-2250000D01*
G01*
X103250000Y-104250000D02*
G75*
G02*
X103250000Y-108750000I0J-2250000D01*
G01*
X103250000Y-118250000D02*
G75*
G02*
X103250000Y-122750000I0J-2250000D01*
G01*
X103250000Y-132250000D02*
G75*
G02*
X103250000Y-136750000I0J-2250000D01*
G01*
X194750000Y-38750000D02*
G75*
G02*
X194750000Y-34250000I0J2250000D01*
G01*
X194750000Y-52750000D02*
G75*
G02*
X194750000Y-48250000I0J2250000D01*
G01*
X194750000Y-66750000D02*
G75*
G02*
X194750000Y-62250000I0J2250000D01*
G01*
X194750000Y-80750000D02*
G75*
G02*
X194750000Y-76250000I0J2250000D01*
G01*
X194750000Y-94750000D02*
G75*
G02*
X194750000Y-90250000I0J2250000D01*
G01*
X194750000Y-108750000D02*
G75*
G02*
X194750000Y-104250000I0J2250000D01*
G01*
X194750000Y-122750000D02*
G75*
G02*
X194750000Y-118250000I0J2250000D01*
G01*
X194750000Y-136750000D02*
G75*
G02*
X194750000Y-132250000I0J2250000D01*
G01*
X197250000Y-34250000D02*
G75*
G02*
X197250000Y-38750000I0J-2250000D01*
G01*
X197250000Y-48250000D02*
G75*
G02*
X197250000Y-52750000I0J-2250000D01*
G01*
X197250000Y-62250000D02*
G75*
G02*
X197250000Y-66750000I0J-2250000D01*
G01*
X197250000Y-76250000D02*
G75*
G02*
X197250000Y-80750000I0J-2250000D01*
G01*
X197250000Y-90250000D02*
X194750000Y-90250000D01*
X197250000Y-90250000D02*
G75*
G02*
X197250000Y-94750000I0J-2250000D01*
G01*
X197250000Y-94750000D02*
X194750000Y-94750000D01*
X197250000Y-104250000D02*
X194750000Y-104250000D01*
X197250000Y-104250000D02*
G75*
G02*
X197250000Y-108750000I0J-2250000D01*
G01*
X197250000Y-108750000D02*
X194750000Y-108750000D01*
X197250000Y-118250000D02*
X194750000Y-118250000D01*
X197250000Y-118250000D02*
G75*
G02*
X197250000Y-122750000I0J-2250000D01*
G01*
X197250000Y-122750000D02*
X194750000Y-122750000D01*
X197250000Y-132250000D02*
X194750000Y-132250000D01*
X197250000Y-132250000D02*
G75*
G02*
X197250000Y-136750000I0J-2250000D01*
G01*
X197250000Y-136750000D02*
X194750000Y-136750000D01*
D11*
X127600000Y-118800000D02*
X128600000Y-118800000D01*
D12*
X127599870Y-119049738D02*
G75*
G02*
X127600000Y-118550001I500130J249738D01*
G01*
X128600130Y-118550263D02*
G75*
G02*
X128599999Y-119049999I-500130J-249737D01*
G01*
D11*
X170400000Y-80200000D02*
X169400000Y-80200000D01*
D12*
X169399870Y-80449737D02*
G75*
G02*
X169400001Y-79950001I500130J249737D01*
G01*
X170400130Y-79950262D02*
G75*
G02*
X170400000Y-80449999I-500130J-249738D01*
G01*
D11*
X127600000Y-104800000D02*
X128600000Y-104800000D01*
D12*
X127599870Y-105049738D02*
G75*
G02*
X127600000Y-104550001I500130J249738D01*
G01*
X128600130Y-104550263D02*
G75*
G02*
X128599999Y-105049999I-500130J-249737D01*
G01*
D11*
X170400000Y-52200000D02*
X169400000Y-52200000D01*
D12*
X169399870Y-52449737D02*
G75*
G02*
X169400001Y-51950001I500130J249737D01*
G01*
X170400130Y-51950262D02*
G75*
G02*
X170400000Y-52449999I-500130J-249738D01*
G01*
D11*
X127600000Y-132800000D02*
X128600000Y-132800000D01*
D12*
X127599870Y-133049738D02*
G75*
G02*
X127600000Y-132550001I500130J249738D01*
G01*
X128600130Y-132550263D02*
G75*
G02*
X128599999Y-133049999I-500130J-249737D01*
G01*
D11*
X170400000Y-38200000D02*
X169400000Y-38200000D01*
D12*
X169399870Y-38449737D02*
G75*
G02*
X169400001Y-37950001I500130J249737D01*
G01*
X170400130Y-37950262D02*
G75*
G02*
X170400000Y-38449999I-500130J-249738D01*
G01*
D11*
X127600000Y-90800000D02*
X128600000Y-90800000D01*
D12*
X127599870Y-91049738D02*
G75*
G02*
X127600000Y-90550001I500130J249738D01*
G01*
X128600130Y-90550263D02*
G75*
G02*
X128599999Y-91049999I-500130J-249737D01*
G01*
D11*
X170400000Y-66200000D02*
X169400000Y-66200000D01*
D12*
X169399870Y-66449737D02*
G75*
G02*
X169400001Y-65950001I500130J249737D01*
G01*
X170400130Y-65950262D02*
G75*
G02*
X170400000Y-66449999I-500130J-249738D01*
G01*
D13*
X174300000Y-36450000D03*
X175250000Y-36450000D03*
X176200000Y-36450000D03*
X176200000Y-33950000D03*
X175250000Y-33950000D03*
X174300000Y-33950000D03*
D14*
X91500000Y-106375000D03*
D15*
X92125000Y-106450000D03*
X92125000Y-109050000D03*
D14*
X91500000Y-109125000D03*
D16*
X182850000Y-136300000D03*
D17*
X180950000Y-136300000D03*
D18*
X124050000Y-75800000D03*
X124950000Y-75800000D03*
D19*
X95225000Y-133800000D03*
X95225000Y-134300000D03*
X95225000Y-134800000D03*
X96575000Y-134800000D03*
X96575000Y-134300000D03*
X96575000Y-133800000D03*
D16*
X182600000Y-124000000D03*
D17*
X180700000Y-124000000D03*
D20*
X126250000Y-60700000D03*
X124750000Y-60700000D03*
D13*
X119400000Y-120550000D03*
X118450000Y-120550000D03*
X117500000Y-120550000D03*
X117500000Y-123050000D03*
X118450000Y-123050000D03*
X119400000Y-123050000D03*
D19*
X95225000Y-119800000D03*
X95225000Y-120300000D03*
X95225000Y-120800000D03*
X96575000Y-120800000D03*
X96575000Y-120300000D03*
X96575000Y-119800000D03*
D18*
X183150000Y-54300000D03*
X182250000Y-54300000D03*
D21*
X122000000Y-47450000D03*
X122000000Y-46550000D03*
D18*
X182250000Y-81100000D03*
X183150000Y-81100000D03*
D22*
X97000000Y-93950000D03*
X97000000Y-95450000D03*
D23*
X178700000Y-118825000D03*
X178700000Y-120375000D03*
D22*
X116300000Y-80250000D03*
X116300000Y-78750000D03*
D24*
X211000000Y-106250000D03*
D25*
X117800000Y-38475000D03*
X117800000Y-36925000D03*
D13*
X178600000Y-78450000D03*
X179550000Y-78450000D03*
X180500000Y-78450000D03*
X180500000Y-75950000D03*
X179550000Y-75950000D03*
X178600000Y-75950000D03*
D18*
X112650000Y-132800000D03*
X113550000Y-132800000D03*
D24*
X211000000Y-134250000D03*
D26*
X174380000Y-54300000D03*
X173020000Y-54300000D03*
D13*
X119400000Y-106550000D03*
X118450000Y-106550000D03*
X117500000Y-106550000D03*
X117500000Y-109050000D03*
X118450000Y-109050000D03*
X119400000Y-109050000D03*
D18*
X113550000Y-49000000D03*
X112650000Y-49000000D03*
D13*
X174300000Y-50450000D03*
X175250000Y-50450000D03*
X176200000Y-50450000D03*
X176200000Y-47950000D03*
X175250000Y-47950000D03*
X174300000Y-47950000D03*
D20*
X126250000Y-74700000D03*
X124750000Y-74700000D03*
D27*
X174000000Y-51925000D03*
X173500000Y-51925000D03*
X173000000Y-51925000D03*
X173000000Y-53275000D03*
X173500000Y-53275000D03*
X174000000Y-53275000D03*
D28*
X177100000Y-131575000D03*
X177900000Y-131575000D03*
D29*
X177500000Y-130425000D03*
D13*
X123700000Y-120550000D03*
X122750000Y-120550000D03*
X121800000Y-120550000D03*
X121800000Y-123050000D03*
X122750000Y-123050000D03*
X123700000Y-123050000D03*
D18*
X178350000Y-39200000D03*
X177450000Y-39200000D03*
D30*
X106400000Y-75100000D03*
D22*
X97000000Y-135950000D03*
X97000000Y-137450000D03*
D31*
X132365000Y-63400000D03*
X133635000Y-63400000D03*
D32*
X139050000Y-31650000D03*
D33*
X175300000Y-54475000D03*
X175300000Y-53525000D03*
D34*
X128100000Y-118450000D03*
D35*
X128100000Y-119150000D03*
D22*
X116300000Y-52250000D03*
X116300000Y-50750000D03*
D27*
X113600000Y-46725000D03*
X113100000Y-46725000D03*
X112600000Y-46725000D03*
X112600000Y-48075000D03*
X113100000Y-48075000D03*
X113600000Y-48075000D03*
D36*
X120125000Y-138000000D03*
X121075000Y-138000000D03*
D18*
X126850000Y-104000000D03*
X125950000Y-104000000D03*
D16*
X115400000Y-75000000D03*
D17*
X117300000Y-75000000D03*
D21*
X173200000Y-33750000D03*
X173200000Y-32850000D03*
D18*
X172050000Y-37900000D03*
X171150000Y-37900000D03*
X181850000Y-32700000D03*
X180950000Y-32700000D03*
D28*
X177100000Y-89575000D03*
X177900000Y-89575000D03*
D29*
X177500000Y-88425000D03*
D24*
X211000000Y-92250000D03*
D21*
X176000000Y-109550000D03*
X176000000Y-110450000D03*
D18*
X124050000Y-47800000D03*
X124950000Y-47800000D03*
D20*
X172050000Y-82200000D03*
X170550000Y-82200000D03*
D30*
X184200000Y-31500000D03*
D20*
X169650000Y-108100000D03*
X171150000Y-108100000D03*
D37*
X118350000Y-76050000D03*
X120450000Y-76050000D03*
D18*
X119750000Y-105400000D03*
X120650000Y-105400000D03*
X183150000Y-82300000D03*
X182250000Y-82300000D03*
X112650000Y-104800000D03*
X113550000Y-104800000D03*
D20*
X123050000Y-105000000D03*
X121550000Y-105000000D03*
X169650000Y-122100000D03*
X171150000Y-122100000D03*
D36*
X177875000Y-138300000D03*
X176925000Y-138300000D03*
D21*
X120600000Y-107450000D03*
X120600000Y-106550000D03*
D19*
X185375000Y-54300000D03*
X185375000Y-53800000D03*
X185375000Y-53300000D03*
X184025000Y-53300000D03*
X184025000Y-53800000D03*
X184025000Y-54300000D03*
D16*
X182850000Y-94300000D03*
D17*
X180950000Y-94300000D03*
D24*
X87000000Y-50750000D03*
D38*
X181800000Y-64880000D03*
X181800000Y-63520000D03*
D30*
X106400000Y-33100000D03*
D35*
X169900000Y-80550000D03*
D34*
X169900000Y-79850000D03*
D18*
X178250000Y-79600000D03*
X177350000Y-79600000D03*
D38*
X116200000Y-120120000D03*
X116200000Y-121480000D03*
D18*
X185350000Y-52200000D03*
X184450000Y-52200000D03*
D27*
X180900000Y-103775000D03*
X181400000Y-103775000D03*
X181900000Y-103775000D03*
X181900000Y-102425000D03*
X181400000Y-102425000D03*
X180900000Y-102425000D03*
D32*
X200250000Y-108250000D03*
D18*
X116450000Y-105200000D03*
X117350000Y-105200000D03*
D23*
X178700000Y-104825000D03*
X178700000Y-106375000D03*
D22*
X202400000Y-77050000D03*
X202400000Y-75550000D03*
D21*
X118100000Y-81550000D03*
X118100000Y-82450000D03*
D24*
X87000000Y-64750000D03*
D27*
X184400000Y-110275000D03*
X184900000Y-110275000D03*
X185400000Y-110275000D03*
X185400000Y-108925000D03*
X184900000Y-108925000D03*
X184400000Y-108925000D03*
D18*
X181550000Y-37800000D03*
X180650000Y-37800000D03*
X125950000Y-133100000D03*
X126850000Y-133100000D03*
D13*
X174300000Y-64450000D03*
X175250000Y-64450000D03*
X176200000Y-64450000D03*
X176200000Y-61950000D03*
X175250000Y-61950000D03*
X174300000Y-61950000D03*
D23*
X178700000Y-132825000D03*
X178700000Y-134375000D03*
D24*
X211000000Y-50250000D03*
D27*
X184400000Y-96275000D03*
X184900000Y-96275000D03*
X185400000Y-96275000D03*
X185400000Y-94925000D03*
X184900000Y-94925000D03*
X184400000Y-94925000D03*
D18*
X184450000Y-122000000D03*
X185350000Y-122000000D03*
X113550000Y-35000000D03*
X112650000Y-35000000D03*
D32*
X198500000Y-115500000D03*
D18*
X178700000Y-110300000D03*
X179600000Y-110300000D03*
D39*
X93675000Y-47000000D03*
X92325000Y-47000000D03*
D21*
X181800000Y-75750000D03*
X181800000Y-76650000D03*
D20*
X171750000Y-124300000D03*
X173250000Y-124300000D03*
D39*
X204325000Y-82000000D03*
X205675000Y-82000000D03*
D32*
X158950000Y-97350000D03*
D16*
X202250000Y-132500000D03*
D17*
X200350000Y-132500000D03*
D32*
X139050000Y-45650000D03*
D19*
X127125000Y-74700000D03*
X127125000Y-75200000D03*
X127125000Y-75700000D03*
X128475000Y-75700000D03*
X128475000Y-75200000D03*
X128475000Y-74700000D03*
D38*
X181800000Y-36880000D03*
X181800000Y-35520000D03*
D21*
X181300000Y-68250000D03*
X181300000Y-67350000D03*
D27*
X117100000Y-39225000D03*
X116600000Y-39225000D03*
X116100000Y-39225000D03*
X116100000Y-40575000D03*
X116600000Y-40575000D03*
X117100000Y-40575000D03*
D21*
X118100000Y-53550000D03*
X118100000Y-54450000D03*
X121600000Y-130550000D03*
X121600000Y-131450000D03*
D18*
X114850000Y-130700000D03*
X115750000Y-130700000D03*
X116150000Y-138300000D03*
X117050000Y-138300000D03*
D14*
X206500000Y-92625000D03*
D15*
X205875000Y-92550000D03*
X205875000Y-89950000D03*
D14*
X206500000Y-89875000D03*
D20*
X169650000Y-136100000D03*
X171150000Y-136100000D03*
D21*
X124800000Y-109250000D03*
X124800000Y-110150000D03*
D19*
X112625000Y-102700000D03*
X112625000Y-103200000D03*
X112625000Y-103700000D03*
X113975000Y-103700000D03*
X113975000Y-103200000D03*
X113975000Y-102700000D03*
D22*
X202400000Y-63050000D03*
X202400000Y-61550000D03*
D27*
X118700000Y-116525000D03*
X118200000Y-116525000D03*
X117700000Y-116525000D03*
X117700000Y-117875000D03*
X118200000Y-117875000D03*
X118700000Y-117875000D03*
D21*
X173200000Y-117050000D03*
X173200000Y-117950000D03*
D18*
X116150000Y-124300000D03*
X117050000Y-124300000D03*
D21*
X179900000Y-131450000D03*
X179900000Y-130550000D03*
X124800000Y-137250000D03*
X124800000Y-138150000D03*
D22*
X97000000Y-107950000D03*
X97000000Y-109450000D03*
D24*
X87000000Y-134750000D03*
D40*
X120950000Y-78600000D03*
D41*
X120950000Y-79000000D03*
X120950000Y-79400000D03*
X120950000Y-79800000D03*
D42*
X120950000Y-80200000D03*
D43*
X121600000Y-80850000D03*
D44*
X122000000Y-80850000D03*
X122400000Y-80850000D03*
X122800000Y-80850000D03*
D45*
X123200000Y-80850000D03*
D46*
X123850000Y-80200000D03*
D41*
X123850000Y-79800000D03*
X123850000Y-79400000D03*
X123850000Y-79000000D03*
D47*
X123850000Y-78600000D03*
D48*
X123200000Y-77950000D03*
D44*
X122800000Y-77950000D03*
X122400000Y-77950000D03*
X122000000Y-77950000D03*
D49*
X121600000Y-77950000D03*
D50*
X122400000Y-79400000D03*
D30*
X184200000Y-45500000D03*
D31*
X165635000Y-93600000D03*
X164365000Y-93600000D03*
X132365000Y-77400000D03*
X133635000Y-77400000D03*
D21*
X118100000Y-67550000D03*
X118100000Y-68450000D03*
D27*
X179300000Y-40475000D03*
X179800000Y-40475000D03*
X180300000Y-40475000D03*
X180300000Y-39125000D03*
X179800000Y-39125000D03*
X179300000Y-39125000D03*
D21*
X176000000Y-95550000D03*
X176000000Y-96450000D03*
X174900000Y-124450000D03*
X174900000Y-123550000D03*
D14*
X91500000Y-64375000D03*
D15*
X92125000Y-64450000D03*
X92125000Y-67050000D03*
D14*
X91500000Y-67125000D03*
D18*
X173950000Y-137200000D03*
X173050000Y-137200000D03*
D22*
X181700000Y-90750000D03*
X181700000Y-92250000D03*
D18*
X114850000Y-116700000D03*
X115750000Y-116700000D03*
D22*
X95600000Y-93950000D03*
X95600000Y-95450000D03*
X181700000Y-104750000D03*
X181700000Y-106250000D03*
D21*
X179900000Y-89450000D03*
X179900000Y-88550000D03*
D13*
X178600000Y-64450000D03*
X179550000Y-64450000D03*
X180500000Y-64450000D03*
X180500000Y-61950000D03*
X179550000Y-61950000D03*
X178600000Y-61950000D03*
D24*
X87000000Y-92750000D03*
D18*
X126850000Y-118000000D03*
X125950000Y-118000000D03*
X119750000Y-119400000D03*
X120650000Y-119400000D03*
D37*
X179650000Y-136950000D03*
X177550000Y-136950000D03*
D18*
X116450000Y-133200000D03*
X117350000Y-133200000D03*
D34*
X128100000Y-104450000D03*
D35*
X128100000Y-105150000D03*
D23*
X119300000Y-80175000D03*
X119300000Y-78625000D03*
D18*
X114850000Y-88700000D03*
X115750000Y-88700000D03*
D16*
X202250000Y-134500000D03*
D17*
X200350000Y-134500000D03*
D19*
X202775000Y-51200000D03*
X202775000Y-50700000D03*
X202775000Y-50200000D03*
X201425000Y-50200000D03*
X201425000Y-50700000D03*
X201425000Y-51200000D03*
D38*
X116200000Y-92120000D03*
X116200000Y-93480000D03*
D21*
X116700000Y-130750000D03*
X116700000Y-131650000D03*
D25*
X180200000Y-118525000D03*
X180200000Y-120075000D03*
D21*
X173200000Y-75750000D03*
X173200000Y-74850000D03*
D30*
X106250000Y-53500000D03*
D18*
X115750000Y-117900000D03*
X114850000Y-117900000D03*
D51*
X186250000Y-139300000D03*
D19*
X112625000Y-116700000D03*
X112625000Y-117200000D03*
X112625000Y-117700000D03*
X113975000Y-117700000D03*
X113975000Y-117200000D03*
X113975000Y-116700000D03*
D18*
X181550000Y-65800000D03*
X180650000Y-65800000D03*
X178350000Y-82300000D03*
X177450000Y-82300000D03*
D21*
X181800000Y-33750000D03*
X181800000Y-34650000D03*
D16*
X182600000Y-138000000D03*
D17*
X180700000Y-138000000D03*
D32*
X139100000Y-81400000D03*
D52*
X131250000Y-106500000D03*
D18*
X119650000Y-130700000D03*
X120550000Y-130700000D03*
D20*
X125950000Y-130800000D03*
X127450000Y-130800000D03*
D19*
X95225000Y-105800000D03*
X95225000Y-106300000D03*
X95225000Y-106800000D03*
X96575000Y-106800000D03*
X96575000Y-106300000D03*
X96575000Y-105800000D03*
D36*
X120125000Y-46700000D03*
X121075000Y-46700000D03*
D22*
X201000000Y-35050000D03*
X201000000Y-33550000D03*
D27*
X113600000Y-32725000D03*
X113100000Y-32725000D03*
X112600000Y-32725000D03*
X112600000Y-34075000D03*
X113100000Y-34075000D03*
X113600000Y-34075000D03*
D16*
X115400000Y-33000000D03*
D17*
X117300000Y-33000000D03*
D27*
X174000000Y-37925000D03*
X173500000Y-37925000D03*
X173000000Y-37925000D03*
X173000000Y-39275000D03*
X173500000Y-39275000D03*
X174000000Y-39275000D03*
X118700000Y-88525000D03*
X118200000Y-88525000D03*
X117700000Y-88525000D03*
X117700000Y-89875000D03*
X118200000Y-89875000D03*
X118700000Y-89875000D03*
D18*
X119650000Y-89800000D03*
X120550000Y-89800000D03*
X112650000Y-90800000D03*
X113550000Y-90800000D03*
D31*
X132365000Y-35400000D03*
X133635000Y-35400000D03*
D25*
X117800000Y-52475000D03*
X117800000Y-50925000D03*
D33*
X122700000Y-88525000D03*
X122700000Y-89475000D03*
D36*
X115575000Y-133100000D03*
X114625000Y-133100000D03*
D27*
X124000000Y-119075000D03*
X124500000Y-119075000D03*
X125000000Y-119075000D03*
X125000000Y-117725000D03*
X124500000Y-117725000D03*
X124000000Y-117725000D03*
D21*
X116700000Y-116750000D03*
X116700000Y-117650000D03*
D14*
X206500000Y-36625000D03*
D15*
X205875000Y-36550000D03*
X205875000Y-33950000D03*
D14*
X206500000Y-33875000D03*
D21*
X179900000Y-103450000D03*
X179900000Y-102550000D03*
X174900000Y-110450000D03*
X174900000Y-109550000D03*
X176000000Y-123550000D03*
X176000000Y-124450000D03*
D30*
X184200000Y-59500000D03*
D18*
X119300000Y-60700000D03*
X118400000Y-60700000D03*
D25*
X180200000Y-104525000D03*
X180200000Y-106075000D03*
D32*
X200250000Y-136250000D03*
D38*
X116200000Y-106120000D03*
X116200000Y-107480000D03*
D36*
X177875000Y-110300000D03*
X176925000Y-110300000D03*
D30*
X106400000Y-47100000D03*
D21*
X174900000Y-138450000D03*
X174900000Y-137550000D03*
D37*
X118350000Y-34050000D03*
X120450000Y-34050000D03*
D18*
X119300000Y-46700000D03*
X118400000Y-46700000D03*
D51*
X111750000Y-31700000D03*
D19*
X170875000Y-110300000D03*
X170875000Y-109800000D03*
X170875000Y-109300000D03*
X169525000Y-109300000D03*
X169525000Y-109800000D03*
X169525000Y-110300000D03*
D36*
X120125000Y-96000000D03*
X121075000Y-96000000D03*
D20*
X126250000Y-32700000D03*
X124750000Y-32700000D03*
D37*
X179650000Y-94950000D03*
X177550000Y-94950000D03*
D16*
X95750000Y-64500000D03*
D17*
X97650000Y-64500000D03*
D22*
X95600000Y-121950000D03*
X95600000Y-123450000D03*
D19*
X185375000Y-82300000D03*
X185375000Y-81800000D03*
X185375000Y-81300000D03*
X184025000Y-81300000D03*
X184025000Y-81800000D03*
X184025000Y-82300000D03*
D18*
X181850000Y-46700000D03*
X180950000Y-46700000D03*
D21*
X174900000Y-96450000D03*
X174900000Y-95550000D03*
D32*
X139050000Y-59650000D03*
D39*
X204325000Y-138000000D03*
X205675000Y-138000000D03*
D21*
X119200000Y-40450000D03*
X119200000Y-39550000D03*
D16*
X202250000Y-118500000D03*
D17*
X200350000Y-118500000D03*
D21*
X118100000Y-39550000D03*
X118100000Y-40450000D03*
D14*
X206500000Y-120625000D03*
D15*
X205875000Y-120550000D03*
X205875000Y-117950000D03*
D14*
X206500000Y-117875000D03*
D32*
X97750000Y-48750000D03*
D18*
X173950000Y-95200000D03*
X173050000Y-95200000D03*
D21*
X122000000Y-75450000D03*
X122000000Y-74550000D03*
D18*
X115750000Y-131900000D03*
X114850000Y-131900000D03*
D16*
X202250000Y-90500000D03*
D17*
X200350000Y-90500000D03*
D18*
X173950000Y-109200000D03*
X173050000Y-109200000D03*
D19*
X202775000Y-65200000D03*
X202775000Y-64700000D03*
X202775000Y-64200000D03*
X201425000Y-64200000D03*
X201425000Y-64700000D03*
X201425000Y-65200000D03*
D18*
X119300000Y-32700000D03*
X118400000Y-32700000D03*
D21*
X121600000Y-116550000D03*
X121600000Y-117450000D03*
X124800000Y-95250000D03*
X124800000Y-96150000D03*
D40*
X120950000Y-50600000D03*
D41*
X120950000Y-51000000D03*
X120950000Y-51400000D03*
X120950000Y-51800000D03*
D42*
X120950000Y-52200000D03*
D43*
X121600000Y-52850000D03*
D44*
X122000000Y-52850000D03*
X122400000Y-52850000D03*
X122800000Y-52850000D03*
D45*
X123200000Y-52850000D03*
D46*
X123850000Y-52200000D03*
D41*
X123850000Y-51800000D03*
X123850000Y-51400000D03*
X123850000Y-51000000D03*
D47*
X123850000Y-50600000D03*
D48*
X123200000Y-49950000D03*
D44*
X122800000Y-49950000D03*
X122400000Y-49950000D03*
X122000000Y-49950000D03*
D49*
X121600000Y-49950000D03*
D50*
X122400000Y-51400000D03*
D18*
X185350000Y-38200000D03*
X184450000Y-38200000D03*
D20*
X128350000Y-76900000D03*
X126850000Y-76900000D03*
D28*
X177100000Y-117575000D03*
X177900000Y-117575000D03*
D29*
X177500000Y-116425000D03*
D22*
X116300000Y-38250000D03*
X116300000Y-36750000D03*
D52*
X131250000Y-92500000D03*
D27*
X180900000Y-117775000D03*
X181400000Y-117775000D03*
X181900000Y-117775000D03*
X181900000Y-116425000D03*
X181400000Y-116425000D03*
X180900000Y-116425000D03*
D16*
X182850000Y-108300000D03*
D17*
X180950000Y-108300000D03*
D21*
X173200000Y-103050000D03*
X173200000Y-103950000D03*
D53*
X118025000Y-77150000D03*
X118025000Y-77950000D03*
D54*
X119175000Y-77550000D03*
D30*
X113800000Y-125500000D03*
D27*
X117100000Y-53225000D03*
X116600000Y-53225000D03*
X116100000Y-53225000D03*
X116100000Y-54575000D03*
X116600000Y-54575000D03*
X117100000Y-54575000D03*
D37*
X179650000Y-108950000D03*
X177550000Y-108950000D03*
D13*
X178600000Y-50450000D03*
X179550000Y-50450000D03*
X180500000Y-50450000D03*
X180500000Y-47950000D03*
X179550000Y-47950000D03*
X178600000Y-47950000D03*
D19*
X185375000Y-68300000D03*
X185375000Y-67800000D03*
X185375000Y-67300000D03*
X184025000Y-67300000D03*
X184025000Y-67800000D03*
X184025000Y-68300000D03*
D20*
X171750000Y-138300000D03*
X173250000Y-138300000D03*
X171750000Y-96300000D03*
X173250000Y-96300000D03*
D32*
X99500000Y-41500000D03*
D18*
X119650000Y-102700000D03*
X120550000Y-102700000D03*
X119650000Y-117800000D03*
X120550000Y-117800000D03*
D21*
X120600000Y-135450000D03*
X120600000Y-134550000D03*
D30*
X191600000Y-109900000D03*
D18*
X178350000Y-68300000D03*
X177450000Y-68300000D03*
D25*
X117800000Y-80475000D03*
X117800000Y-78925000D03*
D18*
X184450000Y-108000000D03*
X185350000Y-108000000D03*
D36*
X177875000Y-75000000D03*
X176925000Y-75000000D03*
D13*
X123700000Y-92550000D03*
X122750000Y-92550000D03*
X121800000Y-92550000D03*
X121800000Y-95050000D03*
X122750000Y-95050000D03*
X123700000Y-95050000D03*
D27*
X117100000Y-67225000D03*
X116600000Y-67225000D03*
X116100000Y-67225000D03*
X116100000Y-68575000D03*
X116600000Y-68575000D03*
X117100000Y-68575000D03*
D18*
X119650000Y-116700000D03*
X120550000Y-116700000D03*
D27*
X113600000Y-74725000D03*
X113100000Y-74725000D03*
X112600000Y-74725000D03*
X112600000Y-76075000D03*
X113100000Y-76075000D03*
X113600000Y-76075000D03*
D18*
X178250000Y-65600000D03*
X177350000Y-65600000D03*
D28*
X177100000Y-103575000D03*
X177900000Y-103575000D03*
D29*
X177500000Y-102425000D03*
D30*
X106250000Y-67500000D03*
D32*
X200250000Y-94250000D03*
D39*
X204325000Y-68000000D03*
X205675000Y-68000000D03*
D19*
X112625000Y-130700000D03*
X112625000Y-131200000D03*
X112625000Y-131700000D03*
X113975000Y-131700000D03*
X113975000Y-131200000D03*
X113975000Y-130700000D03*
D21*
X119200000Y-54450000D03*
X119200000Y-53550000D03*
D22*
X181700000Y-132750000D03*
X181700000Y-134250000D03*
D27*
X179300000Y-82475000D03*
X179800000Y-82475000D03*
X180300000Y-82475000D03*
X180300000Y-81125000D03*
X179800000Y-81125000D03*
X179300000Y-81125000D03*
D20*
X172050000Y-68200000D03*
X170550000Y-68200000D03*
D21*
X120600000Y-93450000D03*
X120600000Y-92550000D03*
D20*
X123050000Y-119000000D03*
X121550000Y-119000000D03*
D18*
X116150000Y-110300000D03*
X117050000Y-110300000D03*
D19*
X95225000Y-91800000D03*
X95225000Y-92300000D03*
X95225000Y-92800000D03*
X96575000Y-92800000D03*
X96575000Y-92300000D03*
X96575000Y-91800000D03*
D36*
X120125000Y-60700000D03*
X121075000Y-60700000D03*
D16*
X95750000Y-50500000D03*
D17*
X97650000Y-50500000D03*
D20*
X123050000Y-133000000D03*
X121550000Y-133000000D03*
D26*
X174380000Y-68300000D03*
X173020000Y-68300000D03*
D21*
X178800000Y-102550000D03*
X178800000Y-103450000D03*
D19*
X202775000Y-37200000D03*
X202775000Y-36700000D03*
X202775000Y-36200000D03*
X201425000Y-36200000D03*
X201425000Y-36700000D03*
X201425000Y-37200000D03*
D33*
X122700000Y-102525000D03*
X122700000Y-103475000D03*
D26*
X123620000Y-88700000D03*
X124980000Y-88700000D03*
D21*
X124800000Y-53950000D03*
X124800000Y-53050000D03*
D27*
X124000000Y-105075000D03*
X124500000Y-105075000D03*
X125000000Y-105075000D03*
X125000000Y-103725000D03*
X124500000Y-103725000D03*
X124000000Y-103725000D03*
D18*
X112650000Y-118800000D03*
X113550000Y-118800000D03*
D21*
X178800000Y-116550000D03*
X178800000Y-117450000D03*
D30*
X191600000Y-123900000D03*
D21*
X124800000Y-67950000D03*
X124800000Y-67050000D03*
D32*
X158900000Y-131600000D03*
D27*
X124000000Y-133075000D03*
X124500000Y-133075000D03*
X125000000Y-133075000D03*
X125000000Y-131725000D03*
X124500000Y-131725000D03*
X124000000Y-131725000D03*
D16*
X115150000Y-48700000D03*
D17*
X117050000Y-48700000D03*
D37*
X118350000Y-48050000D03*
X120450000Y-48050000D03*
D32*
X198500000Y-87500000D03*
D55*
X177050000Y-106400000D03*
D56*
X177050000Y-106000000D03*
X177050000Y-105600000D03*
X177050000Y-105200000D03*
D57*
X177050000Y-104800000D03*
D58*
X176400000Y-104150000D03*
D59*
X176000000Y-104150000D03*
X175600000Y-104150000D03*
X175200000Y-104150000D03*
D60*
X174800000Y-104150000D03*
D61*
X174150000Y-104800000D03*
D56*
X174150000Y-105200000D03*
X174150000Y-105600000D03*
X174150000Y-106000000D03*
D62*
X174150000Y-106400000D03*
D63*
X174800000Y-107050000D03*
D59*
X175200000Y-107050000D03*
X175600000Y-107050000D03*
X176000000Y-107050000D03*
D64*
X176400000Y-107050000D03*
D50*
X175600000Y-105600000D03*
D31*
X165635000Y-107600000D03*
X164365000Y-107600000D03*
D40*
X120950000Y-64600000D03*
D41*
X120950000Y-65000000D03*
X120950000Y-65400000D03*
X120950000Y-65800000D03*
D42*
X120950000Y-66200000D03*
D43*
X121600000Y-66850000D03*
D44*
X122000000Y-66850000D03*
X122400000Y-66850000D03*
X122800000Y-66850000D03*
D45*
X123200000Y-66850000D03*
D46*
X123850000Y-66200000D03*
D41*
X123850000Y-65800000D03*
X123850000Y-65400000D03*
X123850000Y-65000000D03*
D47*
X123850000Y-64600000D03*
D48*
X123200000Y-63950000D03*
D44*
X122800000Y-63950000D03*
X122400000Y-63950000D03*
X122000000Y-63950000D03*
D49*
X121600000Y-63950000D03*
D50*
X122400000Y-65400000D03*
D18*
X126850000Y-90000000D03*
X125950000Y-90000000D03*
D22*
X97000000Y-121950000D03*
X97000000Y-123450000D03*
D21*
X119200000Y-82450000D03*
X119200000Y-81550000D03*
D24*
X211000000Y-64250000D03*
D14*
X206500000Y-134625000D03*
D15*
X205875000Y-134550000D03*
X205875000Y-131950000D03*
D14*
X206500000Y-131875000D03*
D21*
X124800000Y-123250000D03*
X124800000Y-124150000D03*
D36*
X115575000Y-105100000D03*
X114625000Y-105100000D03*
D32*
X158900000Y-103600000D03*
D27*
X118700000Y-102525000D03*
X118200000Y-102525000D03*
X117700000Y-102525000D03*
X117700000Y-103875000D03*
X118200000Y-103875000D03*
X118700000Y-103875000D03*
D18*
X125950000Y-91100000D03*
X126850000Y-91100000D03*
D37*
X179650000Y-122950000D03*
X177550000Y-122950000D03*
D32*
X158900000Y-117600000D03*
D21*
X121600000Y-88550000D03*
X121600000Y-89450000D03*
D18*
X178350000Y-40300000D03*
X177450000Y-40300000D03*
D22*
X202400000Y-35050000D03*
X202400000Y-33550000D03*
D36*
X182425000Y-65900000D03*
X183375000Y-65900000D03*
D52*
X131250000Y-134500000D03*
D51*
X186250000Y-111300000D03*
D19*
X170875000Y-138300000D03*
X170875000Y-137800000D03*
X170875000Y-137300000D03*
X169525000Y-137300000D03*
X169525000Y-137800000D03*
X169525000Y-138300000D03*
D36*
X115575000Y-91100000D03*
X114625000Y-91100000D03*
X177875000Y-47000000D03*
X176925000Y-47000000D03*
D18*
X116450000Y-91200000D03*
X117350000Y-91200000D03*
X185350000Y-80200000D03*
X184450000Y-80200000D03*
D30*
X106250000Y-39500000D03*
D39*
X93675000Y-89000000D03*
X92325000Y-89000000D03*
D21*
X176400000Y-68450000D03*
X176400000Y-67550000D03*
D18*
X184450000Y-136000000D03*
X185350000Y-136000000D03*
D36*
X177875000Y-33000000D03*
X176925000Y-33000000D03*
D23*
X119300000Y-66175000D03*
X119300000Y-64625000D03*
D21*
X176400000Y-82450000D03*
X176400000Y-81550000D03*
D16*
X95750000Y-66500000D03*
D17*
X97650000Y-66500000D03*
D27*
X179300000Y-54475000D03*
X179800000Y-54475000D03*
X180300000Y-54475000D03*
X180300000Y-53125000D03*
X179800000Y-53125000D03*
X179300000Y-53125000D03*
D21*
X124800000Y-39950000D03*
X124800000Y-39050000D03*
D18*
X119650000Y-88700000D03*
X120550000Y-88700000D03*
D27*
X124000000Y-91075000D03*
X124500000Y-91075000D03*
X125000000Y-91075000D03*
X125000000Y-89725000D03*
X124500000Y-89725000D03*
X124000000Y-89725000D03*
D18*
X178250000Y-37600000D03*
X177350000Y-37600000D03*
X182250000Y-39100000D03*
X183150000Y-39100000D03*
D36*
X182425000Y-79900000D03*
X183375000Y-79900000D03*
D26*
X174380000Y-40300000D03*
X173020000Y-40300000D03*
D18*
X171150000Y-53000000D03*
X172050000Y-53000000D03*
X183150000Y-68300000D03*
X182250000Y-68300000D03*
D39*
X204325000Y-40000000D03*
X205675000Y-40000000D03*
D20*
X174950000Y-52000000D03*
X176450000Y-52000000D03*
D18*
X181850000Y-74700000D03*
X180950000Y-74700000D03*
X183150000Y-40300000D03*
X182250000Y-40300000D03*
D26*
X123620000Y-102700000D03*
X124980000Y-102700000D03*
D24*
X211000000Y-120250000D03*
D18*
X119650000Y-131800000D03*
X120550000Y-131800000D03*
X182250000Y-67100000D03*
X183150000Y-67100000D03*
D36*
X177875000Y-96300000D03*
X176925000Y-96300000D03*
D21*
X119200000Y-68450000D03*
X119200000Y-67550000D03*
D14*
X91500000Y-134375000D03*
D15*
X92125000Y-134450000D03*
X92125000Y-137050000D03*
D14*
X91500000Y-137125000D03*
D18*
X113550000Y-63000000D03*
X112650000Y-63000000D03*
D27*
X184400000Y-124275000D03*
X184900000Y-124275000D03*
X185400000Y-124275000D03*
X185400000Y-122925000D03*
X184900000Y-122925000D03*
X184400000Y-122925000D03*
D18*
X171150000Y-81000000D03*
X172050000Y-81000000D03*
X185350000Y-66200000D03*
X184450000Y-66200000D03*
D36*
X177875000Y-61000000D03*
X176925000Y-61000000D03*
D14*
X91500000Y-36375000D03*
D15*
X92125000Y-36450000D03*
X92125000Y-39050000D03*
D14*
X91500000Y-39125000D03*
D26*
X123620000Y-116700000D03*
X124980000Y-116700000D03*
D52*
X166750000Y-36500000D03*
D55*
X177050000Y-120400000D03*
D56*
X177050000Y-120000000D03*
X177050000Y-119600000D03*
X177050000Y-119200000D03*
D57*
X177050000Y-118800000D03*
D58*
X176400000Y-118150000D03*
D59*
X176000000Y-118150000D03*
X175600000Y-118150000D03*
X175200000Y-118150000D03*
D60*
X174800000Y-118150000D03*
D61*
X174150000Y-118800000D03*
D56*
X174150000Y-119200000D03*
X174150000Y-119600000D03*
X174150000Y-120000000D03*
D62*
X174150000Y-120400000D03*
D63*
X174800000Y-121050000D03*
D59*
X175200000Y-121050000D03*
X175600000Y-121050000D03*
X176000000Y-121050000D03*
D64*
X176400000Y-121050000D03*
D50*
X175600000Y-119600000D03*
D22*
X116300000Y-66250000D03*
X116300000Y-64750000D03*
D18*
X119300000Y-74700000D03*
X118400000Y-74700000D03*
D21*
X123100000Y-32550000D03*
X123100000Y-33450000D03*
D20*
X126250000Y-46700000D03*
X124750000Y-46700000D03*
D21*
X177400000Y-49550000D03*
X177400000Y-50450000D03*
X122000000Y-33450000D03*
X122000000Y-32550000D03*
D18*
X115750000Y-103900000D03*
X114850000Y-103900000D03*
D21*
X123100000Y-60550000D03*
X123100000Y-61450000D03*
D20*
X172050000Y-54200000D03*
X170550000Y-54200000D03*
D30*
X113800000Y-111500000D03*
D51*
X111750000Y-59700000D03*
X186250000Y-125300000D03*
D16*
X95750000Y-78500000D03*
D17*
X97650000Y-78500000D03*
D19*
X185375000Y-40300000D03*
X185375000Y-39800000D03*
X185375000Y-39300000D03*
X184025000Y-39300000D03*
X184025000Y-39800000D03*
X184025000Y-40300000D03*
D20*
X172050000Y-40200000D03*
X170550000Y-40200000D03*
X171750000Y-110300000D03*
X173250000Y-110300000D03*
D21*
X176400000Y-40450000D03*
X176400000Y-39550000D03*
D28*
X120900000Y-81425000D03*
X120100000Y-81425000D03*
D29*
X120500000Y-82575000D03*
D18*
X178350000Y-53200000D03*
X177450000Y-53200000D03*
D32*
X99500000Y-83500000D03*
D39*
X204325000Y-110000000D03*
X205675000Y-110000000D03*
D32*
X139100000Y-53400000D03*
D39*
X93675000Y-33000000D03*
X92325000Y-33000000D03*
D20*
X128350000Y-34900000D03*
X126850000Y-34900000D03*
D18*
X126850000Y-132000000D03*
X125950000Y-132000000D03*
D21*
X116700000Y-88750000D03*
X116700000Y-89650000D03*
D24*
X211000000Y-78250000D03*
D22*
X202400000Y-49050000D03*
X202400000Y-47550000D03*
D36*
X182425000Y-37900000D03*
X183375000Y-37900000D03*
D18*
X114850000Y-102700000D03*
X115750000Y-102700000D03*
D30*
X113800000Y-139500000D03*
D25*
X117800000Y-66475000D03*
X117800000Y-64925000D03*
D14*
X91500000Y-120375000D03*
D15*
X92125000Y-120450000D03*
X92125000Y-123050000D03*
D14*
X91500000Y-123125000D03*
D33*
X175300000Y-40475000D03*
X175300000Y-39525000D03*
D35*
X169900000Y-52550000D03*
D34*
X169900000Y-51850000D03*
D16*
X182850000Y-122300000D03*
D17*
X180950000Y-122300000D03*
D14*
X91500000Y-50375000D03*
D15*
X92125000Y-50450000D03*
X92125000Y-53050000D03*
D14*
X91500000Y-53125000D03*
D27*
X184400000Y-138275000D03*
X184900000Y-138275000D03*
X185400000Y-138275000D03*
X185400000Y-136925000D03*
X184900000Y-136925000D03*
X184400000Y-136925000D03*
D21*
X181300000Y-40250000D03*
X181300000Y-39350000D03*
D25*
X180200000Y-90525000D03*
X180200000Y-92075000D03*
D32*
X97750000Y-76750000D03*
X99500000Y-55500000D03*
D27*
X113600000Y-60725000D03*
X113100000Y-60725000D03*
X112600000Y-60725000D03*
X112600000Y-62075000D03*
X113100000Y-62075000D03*
X113600000Y-62075000D03*
D16*
X95750000Y-36500000D03*
D17*
X97650000Y-36500000D03*
D28*
X120900000Y-39425000D03*
X120100000Y-39425000D03*
D29*
X120500000Y-40575000D03*
D16*
X95750000Y-38500000D03*
D17*
X97650000Y-38500000D03*
D14*
X206500000Y-64625000D03*
D15*
X205875000Y-64550000D03*
X205875000Y-61950000D03*
D14*
X206500000Y-61875000D03*
D21*
X124800000Y-81950000D03*
X124800000Y-81050000D03*
D22*
X201000000Y-63050000D03*
X201000000Y-61550000D03*
D18*
X172050000Y-65900000D03*
X171150000Y-65900000D03*
D30*
X191750000Y-131500000D03*
D18*
X178700000Y-96300000D03*
X179600000Y-96300000D03*
D21*
X181300000Y-54250000D03*
X181300000Y-53350000D03*
D30*
X191750000Y-89500000D03*
D14*
X91500000Y-92375000D03*
D15*
X92125000Y-92450000D03*
X92125000Y-95050000D03*
D14*
X91500000Y-95125000D03*
D21*
X121600000Y-102550000D03*
X121600000Y-103450000D03*
D19*
X170875000Y-124300000D03*
X170875000Y-123800000D03*
X170875000Y-123300000D03*
X169525000Y-123300000D03*
X169525000Y-123800000D03*
X169525000Y-124300000D03*
D16*
X182600000Y-110000000D03*
D17*
X180700000Y-110000000D03*
D39*
X93675000Y-117000000D03*
X92325000Y-117000000D03*
D32*
X158950000Y-111350000D03*
D16*
X115150000Y-62700000D03*
D17*
X117050000Y-62700000D03*
D21*
X120600000Y-121450000D03*
X120600000Y-120550000D03*
D27*
X180900000Y-89775000D03*
X181400000Y-89775000D03*
X181900000Y-89775000D03*
X181900000Y-88425000D03*
X181400000Y-88425000D03*
X180900000Y-88425000D03*
D20*
X125950000Y-116800000D03*
X127450000Y-116800000D03*
D16*
X202250000Y-120500000D03*
D17*
X200350000Y-120500000D03*
D32*
X158950000Y-125350000D03*
D18*
X119750000Y-133400000D03*
X120650000Y-133400000D03*
D16*
X115150000Y-34700000D03*
D17*
X117050000Y-34700000D03*
D32*
X198500000Y-129500000D03*
D53*
X179975000Y-121850000D03*
X179975000Y-121050000D03*
D54*
X178825000Y-121450000D03*
D18*
X119650000Y-103800000D03*
X120550000Y-103800000D03*
D32*
X198500000Y-101500000D03*
D53*
X179975000Y-93850000D03*
X179975000Y-93050000D03*
D54*
X178825000Y-93450000D03*
D53*
X118025000Y-35150000D03*
X118025000Y-35950000D03*
D54*
X119175000Y-35550000D03*
D20*
X169650000Y-94100000D03*
X171150000Y-94100000D03*
D21*
X173200000Y-47750000D03*
X173200000Y-46850000D03*
D16*
X95750000Y-80500000D03*
D17*
X97650000Y-80500000D03*
D30*
X191600000Y-95900000D03*
D18*
X184450000Y-94000000D03*
X185350000Y-94000000D03*
X116150000Y-96300000D03*
X117050000Y-96300000D03*
X171150000Y-39000000D03*
X172050000Y-39000000D03*
D52*
X166750000Y-64500000D03*
D20*
X174950000Y-38000000D03*
X176450000Y-38000000D03*
D30*
X191750000Y-117500000D03*
D13*
X119400000Y-134550000D03*
X118450000Y-134550000D03*
X117500000Y-134550000D03*
X117500000Y-137050000D03*
X118450000Y-137050000D03*
X119400000Y-137050000D03*
D22*
X181700000Y-118750000D03*
X181700000Y-120250000D03*
D16*
X115400000Y-61000000D03*
D17*
X117300000Y-61000000D03*
D21*
X122000000Y-61450000D03*
X122000000Y-60550000D03*
D23*
X178700000Y-90825000D03*
X178700000Y-92375000D03*
D18*
X181550000Y-79800000D03*
X180650000Y-79800000D03*
X125950000Y-105100000D03*
X126850000Y-105100000D03*
D16*
X202250000Y-106500000D03*
D17*
X200350000Y-106500000D03*
D21*
X173200000Y-131050000D03*
X173200000Y-131950000D03*
D27*
X118700000Y-130525000D03*
X118200000Y-130525000D03*
X117700000Y-130525000D03*
X117700000Y-131875000D03*
X118200000Y-131875000D03*
X118700000Y-131875000D03*
D38*
X181800000Y-50880000D03*
X181800000Y-49520000D03*
D18*
X124050000Y-61800000D03*
X124950000Y-61800000D03*
D53*
X179975000Y-135850000D03*
X179975000Y-135050000D03*
D54*
X178825000Y-135450000D03*
D31*
X165635000Y-121600000D03*
X164365000Y-121600000D03*
D30*
X106400000Y-61100000D03*
D27*
X180900000Y-131775000D03*
X181400000Y-131775000D03*
X181900000Y-131775000D03*
X181900000Y-130425000D03*
X181400000Y-130425000D03*
X180900000Y-130425000D03*
D18*
X173950000Y-123200000D03*
X173050000Y-123200000D03*
X181850000Y-60700000D03*
X180950000Y-60700000D03*
D20*
X123050000Y-91000000D03*
X121550000Y-91000000D03*
D18*
X172050000Y-51900000D03*
X171150000Y-51900000D03*
D39*
X93675000Y-103000000D03*
X92325000Y-103000000D03*
D22*
X95600000Y-135950000D03*
X95600000Y-137450000D03*
D26*
X174380000Y-82300000D03*
X173020000Y-82300000D03*
D39*
X93675000Y-131000000D03*
X92325000Y-131000000D03*
X204325000Y-124000000D03*
X205675000Y-124000000D03*
D53*
X118025000Y-63150000D03*
X118025000Y-63950000D03*
D54*
X119175000Y-63550000D03*
D22*
X201000000Y-49050000D03*
X201000000Y-47550000D03*
D32*
X158900000Y-89600000D03*
D21*
X123100000Y-46550000D03*
X123100000Y-47450000D03*
D39*
X204325000Y-96000000D03*
X205675000Y-96000000D03*
D33*
X122700000Y-116525000D03*
X122700000Y-117475000D03*
D18*
X178700000Y-138300000D03*
X179600000Y-138300000D03*
D14*
X91500000Y-78375000D03*
D15*
X92125000Y-78450000D03*
X92125000Y-81050000D03*
D14*
X91500000Y-81125000D03*
D38*
X116200000Y-134120000D03*
X116200000Y-135480000D03*
D19*
X112625000Y-88700000D03*
X112625000Y-89200000D03*
X112625000Y-89700000D03*
X113975000Y-89700000D03*
X113975000Y-89200000D03*
X113975000Y-88700000D03*
D16*
X202250000Y-92500000D03*
D17*
X200350000Y-92500000D03*
D36*
X120125000Y-124000000D03*
X121075000Y-124000000D03*
D34*
X128100000Y-132450000D03*
D35*
X128100000Y-133150000D03*
D19*
X127125000Y-46700000D03*
X127125000Y-47200000D03*
X127125000Y-47700000D03*
X128475000Y-47700000D03*
X128475000Y-47200000D03*
X128475000Y-46700000D03*
D21*
X116200000Y-137250000D03*
X116200000Y-136350000D03*
D23*
X119300000Y-52175000D03*
X119300000Y-50625000D03*
D30*
X191750000Y-103500000D03*
D21*
X178800000Y-130550000D03*
X178800000Y-131450000D03*
D20*
X128350000Y-48900000D03*
X126850000Y-48900000D03*
D25*
X180200000Y-132525000D03*
X180200000Y-134075000D03*
D24*
X87000000Y-120750000D03*
D32*
X99500000Y-69500000D03*
D13*
X123700000Y-134550000D03*
X122750000Y-134550000D03*
X121800000Y-134550000D03*
X121800000Y-137050000D03*
X122750000Y-137050000D03*
X123700000Y-137050000D03*
X119400000Y-92550000D03*
X118450000Y-92550000D03*
X117500000Y-92550000D03*
X117500000Y-95050000D03*
X118450000Y-95050000D03*
X119400000Y-95050000D03*
D28*
X120900000Y-53425000D03*
X120100000Y-53425000D03*
D29*
X120500000Y-54575000D03*
D36*
X177875000Y-124300000D03*
X176925000Y-124300000D03*
D51*
X111750000Y-73700000D03*
D37*
X118350000Y-62050000D03*
X120450000Y-62050000D03*
D32*
X139050000Y-73650000D03*
D19*
X202775000Y-79200000D03*
X202775000Y-78700000D03*
X202775000Y-78200000D03*
X201425000Y-78200000D03*
X201425000Y-78700000D03*
X201425000Y-79200000D03*
D33*
X175300000Y-82475000D03*
X175300000Y-81525000D03*
D21*
X116200000Y-123250000D03*
X116200000Y-122350000D03*
D36*
X120125000Y-110000000D03*
X121075000Y-110000000D03*
D21*
X116200000Y-95250000D03*
X116200000Y-94350000D03*
D18*
X125950000Y-119100000D03*
X126850000Y-119100000D03*
D36*
X115575000Y-119100000D03*
X114625000Y-119100000D03*
D55*
X177050000Y-92400000D03*
D56*
X177050000Y-92000000D03*
X177050000Y-91600000D03*
X177050000Y-91200000D03*
D57*
X177050000Y-90800000D03*
D58*
X176400000Y-90150000D03*
D59*
X176000000Y-90150000D03*
X175600000Y-90150000D03*
X175200000Y-90150000D03*
D60*
X174800000Y-90150000D03*
D61*
X174150000Y-90800000D03*
D56*
X174150000Y-91200000D03*
X174150000Y-91600000D03*
X174150000Y-92000000D03*
D62*
X174150000Y-92400000D03*
D63*
X174800000Y-93050000D03*
D59*
X175200000Y-93050000D03*
X175600000Y-93050000D03*
X176000000Y-93050000D03*
D64*
X176400000Y-93050000D03*
D50*
X175600000Y-91600000D03*
D19*
X170875000Y-96300000D03*
X170875000Y-95800000D03*
X170875000Y-95300000D03*
X169525000Y-95300000D03*
X169525000Y-95800000D03*
X169525000Y-96300000D03*
D18*
X119750000Y-91400000D03*
X120650000Y-91400000D03*
X124050000Y-33800000D03*
X124950000Y-33800000D03*
D19*
X127125000Y-60700000D03*
X127125000Y-61200000D03*
X127125000Y-61700000D03*
X128475000Y-61700000D03*
X128475000Y-61200000D03*
X128475000Y-60700000D03*
D30*
X184200000Y-73500000D03*
D32*
X139100000Y-39400000D03*
D16*
X202250000Y-104500000D03*
D17*
X200350000Y-104500000D03*
D21*
X173200000Y-61750000D03*
X173200000Y-60850000D03*
D32*
X97750000Y-62750000D03*
D27*
X117100000Y-81225000D03*
X116600000Y-81225000D03*
X116100000Y-81225000D03*
X116100000Y-82575000D03*
X116600000Y-82575000D03*
X117100000Y-82575000D03*
D24*
X87000000Y-36750000D03*
D31*
X165635000Y-135600000D03*
X164365000Y-135600000D03*
D52*
X166750000Y-50500000D03*
D19*
X127125000Y-32700000D03*
X127125000Y-33200000D03*
X127125000Y-33700000D03*
X128475000Y-33700000D03*
X128475000Y-33200000D03*
X128475000Y-32700000D03*
D16*
X115150000Y-76700000D03*
D17*
X117050000Y-76700000D03*
D30*
X191600000Y-137900000D03*
D55*
X177050000Y-134400000D03*
D56*
X177050000Y-134000000D03*
X177050000Y-133600000D03*
X177050000Y-133200000D03*
D57*
X177050000Y-132800000D03*
D58*
X176400000Y-132150000D03*
D59*
X176000000Y-132150000D03*
X175600000Y-132150000D03*
X175200000Y-132150000D03*
D60*
X174800000Y-132150000D03*
D61*
X174150000Y-132800000D03*
D56*
X174150000Y-133200000D03*
X174150000Y-133600000D03*
X174150000Y-134000000D03*
D62*
X174150000Y-134400000D03*
D63*
X174800000Y-135050000D03*
D59*
X175200000Y-135050000D03*
X175600000Y-135050000D03*
X176000000Y-135050000D03*
D64*
X176400000Y-135050000D03*
D50*
X175600000Y-133600000D03*
D14*
X206500000Y-78625000D03*
D15*
X205875000Y-78550000D03*
X205875000Y-75950000D03*
D14*
X206500000Y-75875000D03*
D13*
X174300000Y-78450000D03*
X175250000Y-78450000D03*
X176200000Y-78450000D03*
X176200000Y-75950000D03*
X175250000Y-75950000D03*
X174300000Y-75950000D03*
D33*
X122700000Y-130525000D03*
X122700000Y-131475000D03*
D21*
X181800000Y-61750000D03*
X181800000Y-62650000D03*
D36*
X182425000Y-51900000D03*
X183375000Y-51900000D03*
D21*
X173200000Y-89050000D03*
X173200000Y-89950000D03*
D27*
X179300000Y-68475000D03*
X179800000Y-68475000D03*
X180300000Y-68475000D03*
X180300000Y-67125000D03*
X179800000Y-67125000D03*
X179300000Y-67125000D03*
D20*
X174950000Y-80000000D03*
X176450000Y-80000000D03*
D16*
X182600000Y-96000000D03*
D17*
X180700000Y-96000000D03*
D21*
X123100000Y-74550000D03*
X123100000Y-75450000D03*
X177400000Y-63550000D03*
X177400000Y-64450000D03*
D32*
X200250000Y-122250000D03*
D16*
X115400000Y-47000000D03*
D17*
X117300000Y-47000000D03*
D26*
X123620000Y-130700000D03*
X124980000Y-130700000D03*
D31*
X132365000Y-49400000D03*
X133635000Y-49400000D03*
D20*
X125950000Y-88800000D03*
X127450000Y-88800000D03*
D13*
X178600000Y-36450000D03*
X179550000Y-36450000D03*
X180500000Y-36450000D03*
X180500000Y-33950000D03*
X179550000Y-33950000D03*
X178600000Y-33950000D03*
D52*
X131250000Y-120500000D03*
D20*
X125950000Y-102800000D03*
X127450000Y-102800000D03*
D27*
X174000000Y-79925000D03*
X173500000Y-79925000D03*
X173000000Y-79925000D03*
X173000000Y-81275000D03*
X173500000Y-81275000D03*
X174000000Y-81275000D03*
D39*
X93675000Y-61000000D03*
X92325000Y-61000000D03*
D18*
X171150000Y-67000000D03*
X172050000Y-67000000D03*
X113550000Y-77000000D03*
X112650000Y-77000000D03*
D33*
X175300000Y-68475000D03*
X175300000Y-67525000D03*
D21*
X181300000Y-82250000D03*
X181300000Y-81350000D03*
D35*
X169900000Y-38550000D03*
D34*
X169900000Y-37850000D03*
D14*
X206500000Y-106625000D03*
D15*
X205875000Y-106550000D03*
X205875000Y-103950000D03*
D14*
X206500000Y-103875000D03*
D13*
X123700000Y-106550000D03*
X122750000Y-106550000D03*
X121800000Y-106550000D03*
X121800000Y-109050000D03*
X122750000Y-109050000D03*
X123700000Y-109050000D03*
D21*
X176000000Y-137550000D03*
X176000000Y-138450000D03*
D23*
X119300000Y-38175000D03*
X119300000Y-36625000D03*
D14*
X206500000Y-50625000D03*
D15*
X205875000Y-50550000D03*
X205875000Y-47950000D03*
D14*
X206500000Y-47875000D03*
D21*
X177400000Y-35550000D03*
X177400000Y-36450000D03*
D51*
X186250000Y-97300000D03*
D52*
X166750000Y-78500000D03*
D32*
X97750000Y-34750000D03*
D18*
X178350000Y-67200000D03*
X177450000Y-67200000D03*
X116450000Y-119200000D03*
X117350000Y-119200000D03*
D53*
X118025000Y-49150000D03*
X118025000Y-49950000D03*
D54*
X119175000Y-49550000D03*
D22*
X201000000Y-77050000D03*
X201000000Y-75550000D03*
D36*
X120125000Y-74700000D03*
X121075000Y-74700000D03*
D18*
X178250000Y-51600000D03*
X177350000Y-51600000D03*
D21*
X179900000Y-117450000D03*
X179900000Y-116550000D03*
D34*
X128100000Y-90450000D03*
D35*
X128100000Y-91150000D03*
D24*
X87000000Y-78750000D03*
D35*
X169900000Y-66550000D03*
D34*
X169900000Y-65850000D03*
D21*
X176400000Y-54450000D03*
X176400000Y-53550000D03*
D22*
X95600000Y-107950000D03*
X95600000Y-109450000D03*
D18*
X178350000Y-54300000D03*
X177450000Y-54300000D03*
D21*
X181800000Y-47750000D03*
X181800000Y-48650000D03*
X178800000Y-88550000D03*
X178800000Y-89450000D03*
D30*
X106250000Y-81500000D03*
D51*
X111750000Y-45700000D03*
D21*
X177400000Y-77550000D03*
X177400000Y-78450000D03*
D16*
X95750000Y-52500000D03*
D17*
X97650000Y-52500000D03*
D21*
X116200000Y-109250000D03*
X116200000Y-108350000D03*
D20*
X128350000Y-62900000D03*
X126850000Y-62900000D03*
D39*
X204325000Y-54000000D03*
X205675000Y-54000000D03*
D18*
X182250000Y-53100000D03*
X183150000Y-53100000D03*
D24*
X211000000Y-36250000D03*
D20*
X174950000Y-66000000D03*
X176450000Y-66000000D03*
D53*
X179975000Y-107850000D03*
X179975000Y-107050000D03*
D54*
X178825000Y-107450000D03*
D36*
X120125000Y-32700000D03*
X121075000Y-32700000D03*
D21*
X116700000Y-102750000D03*
X116700000Y-103650000D03*
D40*
X120950000Y-36600000D03*
D41*
X120950000Y-37000000D03*
X120950000Y-37400000D03*
X120950000Y-37800000D03*
D42*
X120950000Y-38200000D03*
D43*
X121600000Y-38850000D03*
D44*
X122000000Y-38850000D03*
X122400000Y-38850000D03*
X122800000Y-38850000D03*
D45*
X123200000Y-38850000D03*
D46*
X123850000Y-38200000D03*
D41*
X123850000Y-37800000D03*
X123850000Y-37400000D03*
X123850000Y-37000000D03*
D47*
X123850000Y-36600000D03*
D48*
X123200000Y-35950000D03*
D44*
X122800000Y-35950000D03*
X122400000Y-35950000D03*
X122000000Y-35950000D03*
D49*
X121600000Y-35950000D03*
D50*
X122400000Y-37400000D03*
D18*
X181550000Y-51800000D03*
X180650000Y-51800000D03*
D39*
X93675000Y-75000000D03*
X92325000Y-75000000D03*
D18*
X115750000Y-89900000D03*
X114850000Y-89900000D03*
X172050000Y-79900000D03*
X171150000Y-79900000D03*
X178700000Y-124300000D03*
X179600000Y-124300000D03*
D28*
X120900000Y-67425000D03*
X120100000Y-67425000D03*
D29*
X120500000Y-68575000D03*
D27*
X174000000Y-65925000D03*
X173500000Y-65925000D03*
X173000000Y-65925000D03*
X173000000Y-67275000D03*
X173500000Y-67275000D03*
X174000000Y-67275000D03*
D38*
X181800000Y-78880000D03*
X181800000Y-77520000D03*
D30*
X113800000Y-97500000D03*
D18*
X178350000Y-81200000D03*
X177450000Y-81200000D03*
D32*
X139100000Y-67400000D03*
D24*
X87000000Y-106750000D03*
D32*
X158950000Y-139350000D03*
G36*
X110175500Y-87769962D02*
G01*
X110230038Y-87824500D01*
X110250000Y-87899000D01*
X110250000Y-91601000D01*
X110230038Y-91675500D01*
X110175500Y-91730038D01*
X110101000Y-91750000D01*
X98899000Y-91750000D01*
X98824500Y-91730038D01*
X98769962Y-91675500D01*
X98750000Y-91601000D01*
X98750000Y-87899000D01*
X98769962Y-87824500D01*
X98824500Y-87769962D01*
X98899000Y-87750000D01*
X110101000Y-87750000D01*
X110175500Y-87769962D01*
G37*
G36*
X194925500Y-107269962D02*
G01*
X194980038Y-107324500D01*
X195000000Y-107399000D01*
X195000000Y-110851000D01*
X194980038Y-110925500D01*
X194925500Y-110980038D01*
X194851000Y-111000000D01*
X188649000Y-111000000D01*
X188574500Y-110980038D01*
X188519962Y-110925500D01*
X188500000Y-110851000D01*
X188500000Y-107399000D01*
X188519962Y-107324500D01*
X188574500Y-107269962D01*
X188649000Y-107250000D01*
X194851000Y-107250000D01*
X194925500Y-107269962D01*
G37*
G36*
X109425500Y-46019962D02*
G01*
X109480038Y-46074500D01*
X109500000Y-46149000D01*
X109500000Y-49601000D01*
X109480038Y-49675500D01*
X109425500Y-49730038D01*
X109351000Y-49750000D01*
X103149000Y-49750000D01*
X103074500Y-49730038D01*
X103019962Y-49675500D01*
X103000000Y-49601000D01*
X103000000Y-46149000D01*
X103019962Y-46074500D01*
X103074500Y-46019962D01*
X103149000Y-46000000D01*
X109351000Y-46000000D01*
X109425500Y-46019962D01*
G37*
G36*
X110175500Y-135269962D02*
G01*
X110230038Y-135324500D01*
X110250000Y-135399000D01*
X110250000Y-139101000D01*
X110230038Y-139175500D01*
X110175500Y-139230038D01*
X110101000Y-139250000D01*
X98899000Y-139250000D01*
X98824500Y-139230038D01*
X98769962Y-139175500D01*
X98750000Y-139101000D01*
X98750000Y-135399000D01*
X98769962Y-135324500D01*
X98824500Y-135269962D01*
X98899000Y-135250000D01*
X110101000Y-135250000D01*
X110175500Y-135269962D01*
G37*
G36*
X110175500Y-107269962D02*
G01*
X110230038Y-107324500D01*
X110250000Y-107399000D01*
X110250000Y-111101000D01*
X110230038Y-111175500D01*
X110175500Y-111230038D01*
X110101000Y-111250000D01*
X98899000Y-111250000D01*
X98824500Y-111230038D01*
X98769962Y-111175500D01*
X98750000Y-111101000D01*
X98750000Y-107399000D01*
X98769962Y-107324500D01*
X98824500Y-107269962D01*
X98899000Y-107250000D01*
X110101000Y-107250000D01*
X110175500Y-107269962D01*
G37*
G36*
X199175500Y-73769962D02*
G01*
X199230038Y-73824500D01*
X199250000Y-73899000D01*
X199250000Y-77601000D01*
X199230038Y-77675500D01*
X199175500Y-77730038D01*
X199101000Y-77750000D01*
X187899000Y-77750000D01*
X187824500Y-77730038D01*
X187769962Y-77675500D01*
X187750000Y-77601000D01*
X187750000Y-73899000D01*
X187769962Y-73824500D01*
X187824500Y-73769962D01*
X187899000Y-73750000D01*
X199101000Y-73750000D01*
X199175500Y-73769962D01*
G37*
G36*
X109425500Y-79269962D02*
G01*
X109480038Y-79324500D01*
X109500000Y-79399000D01*
X109500000Y-83101000D01*
X109480038Y-83175500D01*
X109425500Y-83230038D01*
X109351000Y-83250000D01*
X103149000Y-83250000D01*
X103074500Y-83230038D01*
X103019962Y-83175500D01*
X103000000Y-83101000D01*
X103000000Y-79399000D01*
X103019962Y-79324500D01*
X103074500Y-79269962D01*
X103149000Y-79250000D01*
X109351000Y-79250000D01*
X109425500Y-79269962D01*
G37*
G36*
X199175500Y-65269962D02*
G01*
X199230038Y-65324500D01*
X199250000Y-65399000D01*
X199250000Y-69101000D01*
X199230038Y-69175500D01*
X199175500Y-69230038D01*
X199101000Y-69250000D01*
X187899000Y-69250000D01*
X187824500Y-69230038D01*
X187769962Y-69175500D01*
X187750000Y-69101000D01*
X187750000Y-65399000D01*
X187769962Y-65324500D01*
X187824500Y-65269962D01*
X187899000Y-65250000D01*
X199101000Y-65250000D01*
X199175500Y-65269962D01*
G37*
G36*
X199175500Y-37269962D02*
G01*
X199230038Y-37324500D01*
X199250000Y-37399000D01*
X199250000Y-41101000D01*
X199230038Y-41175500D01*
X199175500Y-41230038D01*
X199101000Y-41250000D01*
X187899000Y-41250000D01*
X187824500Y-41230038D01*
X187769962Y-41175500D01*
X187750000Y-41101000D01*
X187750000Y-37399000D01*
X187769962Y-37324500D01*
X187824500Y-37269962D01*
X187899000Y-37250000D01*
X199101000Y-37250000D01*
X199175500Y-37269962D01*
G37*
G36*
X110175500Y-115769962D02*
G01*
X110230038Y-115824500D01*
X110250000Y-115899000D01*
X110250000Y-119601000D01*
X110230038Y-119675500D01*
X110175500Y-119730038D01*
X110101000Y-119750000D01*
X98899000Y-119750000D01*
X98824500Y-119730038D01*
X98769962Y-119675500D01*
X98750000Y-119601000D01*
X98750000Y-115899000D01*
X98769962Y-115824500D01*
X98824500Y-115769962D01*
X98899000Y-115750000D01*
X110101000Y-115750000D01*
X110175500Y-115769962D01*
G37*
G36*
X109425500Y-51269962D02*
G01*
X109480038Y-51324500D01*
X109500000Y-51399000D01*
X109500000Y-55101000D01*
X109480038Y-55175500D01*
X109425500Y-55230038D01*
X109351000Y-55250000D01*
X103149000Y-55250000D01*
X103074500Y-55230038D01*
X103019962Y-55175500D01*
X103000000Y-55101000D01*
X103000000Y-51399000D01*
X103019962Y-51324500D01*
X103074500Y-51269962D01*
X103149000Y-51250000D01*
X109351000Y-51250000D01*
X109425500Y-51269962D01*
G37*
G36*
X194925500Y-135269962D02*
G01*
X194980038Y-135324500D01*
X195000000Y-135399000D01*
X195000000Y-138851000D01*
X194980038Y-138925500D01*
X194925500Y-138980038D01*
X194851000Y-139000000D01*
X188649000Y-139000000D01*
X188574500Y-138980038D01*
X188519962Y-138925500D01*
X188500000Y-138851000D01*
X188500000Y-135399000D01*
X188519962Y-135324500D01*
X188574500Y-135269962D01*
X188649000Y-135250000D01*
X194851000Y-135250000D01*
X194925500Y-135269962D01*
G37*
G36*
X109425500Y-65269962D02*
G01*
X109480038Y-65324500D01*
X109500000Y-65399000D01*
X109500000Y-69101000D01*
X109480038Y-69175500D01*
X109425500Y-69230038D01*
X109351000Y-69250000D01*
X103149000Y-69250000D01*
X103074500Y-69230038D01*
X103019962Y-69175500D01*
X103000000Y-69101000D01*
X103000000Y-65399000D01*
X103019962Y-65324500D01*
X103074500Y-65269962D01*
X103149000Y-65250000D01*
X109351000Y-65250000D01*
X109425500Y-65269962D01*
G37*
G36*
X194925500Y-101769962D02*
G01*
X194980038Y-101824500D01*
X195000000Y-101899000D01*
X195000000Y-105601000D01*
X194980038Y-105675500D01*
X194925500Y-105730038D01*
X194851000Y-105750000D01*
X188649000Y-105750000D01*
X188574500Y-105730038D01*
X188519962Y-105675500D01*
X188500000Y-105601000D01*
X188500000Y-101899000D01*
X188519962Y-101824500D01*
X188574500Y-101769962D01*
X188649000Y-101750000D01*
X194851000Y-101750000D01*
X194925500Y-101769962D01*
G37*
G36*
X110175500Y-93269962D02*
G01*
X110230038Y-93324500D01*
X110250000Y-93399000D01*
X110250000Y-97101000D01*
X110230038Y-97175500D01*
X110175500Y-97230038D01*
X110101000Y-97250000D01*
X98899000Y-97250000D01*
X98824500Y-97230038D01*
X98769962Y-97175500D01*
X98750000Y-97101000D01*
X98750000Y-93399000D01*
X98769962Y-93324500D01*
X98824500Y-93269962D01*
X98899000Y-93250000D01*
X110101000Y-93250000D01*
X110175500Y-93269962D01*
G37*
G36*
X110175500Y-121269962D02*
G01*
X110230038Y-121324500D01*
X110250000Y-121399000D01*
X110250000Y-125101000D01*
X110230038Y-125175500D01*
X110175500Y-125230038D01*
X110101000Y-125250000D01*
X98899000Y-125250000D01*
X98824500Y-125230038D01*
X98769962Y-125175500D01*
X98750000Y-125101000D01*
X98750000Y-121399000D01*
X98769962Y-121324500D01*
X98824500Y-121269962D01*
X98899000Y-121250000D01*
X110101000Y-121250000D01*
X110175500Y-121269962D01*
G37*
G36*
X194925500Y-115769962D02*
G01*
X194980038Y-115824500D01*
X195000000Y-115899000D01*
X195000000Y-119601000D01*
X194980038Y-119675500D01*
X194925500Y-119730038D01*
X194851000Y-119750000D01*
X188649000Y-119750000D01*
X188574500Y-119730038D01*
X188519962Y-119675500D01*
X188500000Y-119601000D01*
X188500000Y-115899000D01*
X188519962Y-115824500D01*
X188574500Y-115769962D01*
X188649000Y-115750000D01*
X194851000Y-115750000D01*
X194925500Y-115769962D01*
G37*
G36*
X109425500Y-60019962D02*
G01*
X109480038Y-60074500D01*
X109500000Y-60149000D01*
X109500000Y-63601000D01*
X109480038Y-63675500D01*
X109425500Y-63730038D01*
X109351000Y-63750000D01*
X103149000Y-63750000D01*
X103074500Y-63730038D01*
X103019962Y-63675500D01*
X103000000Y-63601000D01*
X103000000Y-60149000D01*
X103019962Y-60074500D01*
X103074500Y-60019962D01*
X103149000Y-60000000D01*
X109351000Y-60000000D01*
X109425500Y-60019962D01*
G37*
G36*
X109425500Y-32019962D02*
G01*
X109480038Y-32074500D01*
X109500000Y-32149000D01*
X109500000Y-35601000D01*
X109480038Y-35675500D01*
X109425500Y-35730038D01*
X109351000Y-35750000D01*
X103149000Y-35750000D01*
X103074500Y-35730038D01*
X103019962Y-35675500D01*
X103000000Y-35601000D01*
X103000000Y-32149000D01*
X103019962Y-32074500D01*
X103074500Y-32019962D01*
X103149000Y-32000000D01*
X109351000Y-32000000D01*
X109425500Y-32019962D01*
G37*
G36*
X109425500Y-37269962D02*
G01*
X109480038Y-37324500D01*
X109500000Y-37399000D01*
X109500000Y-41101000D01*
X109480038Y-41175500D01*
X109425500Y-41230038D01*
X109351000Y-41250000D01*
X103149000Y-41250000D01*
X103074500Y-41230038D01*
X103019962Y-41175500D01*
X103000000Y-41101000D01*
X103000000Y-37399000D01*
X103019962Y-37324500D01*
X103074500Y-37269962D01*
X103149000Y-37250000D01*
X109351000Y-37250000D01*
X109425500Y-37269962D01*
G37*
G36*
X194925500Y-129769962D02*
G01*
X194980038Y-129824500D01*
X195000000Y-129899000D01*
X195000000Y-133601000D01*
X194980038Y-133675500D01*
X194925500Y-133730038D01*
X194851000Y-133750000D01*
X188649000Y-133750000D01*
X188574500Y-133730038D01*
X188519962Y-133675500D01*
X188500000Y-133601000D01*
X188500000Y-129899000D01*
X188519962Y-129824500D01*
X188574500Y-129769962D01*
X188649000Y-129750000D01*
X194851000Y-129750000D01*
X194925500Y-129769962D01*
G37*
G36*
X110175500Y-129769962D02*
G01*
X110230038Y-129824500D01*
X110250000Y-129899000D01*
X110250000Y-133601000D01*
X110230038Y-133675500D01*
X110175500Y-133730038D01*
X110101000Y-133750000D01*
X98899000Y-133750000D01*
X98824500Y-133730038D01*
X98769962Y-133675500D01*
X98750000Y-133601000D01*
X98750000Y-129899000D01*
X98769962Y-129824500D01*
X98824500Y-129769962D01*
X98899000Y-129750000D01*
X110101000Y-129750000D01*
X110175500Y-129769962D01*
G37*
G36*
X194925500Y-93269962D02*
G01*
X194980038Y-93324500D01*
X195000000Y-93399000D01*
X195000000Y-96851000D01*
X194980038Y-96925500D01*
X194925500Y-96980038D01*
X194851000Y-97000000D01*
X188649000Y-97000000D01*
X188574500Y-96980038D01*
X188519962Y-96925500D01*
X188500000Y-96851000D01*
X188500000Y-93399000D01*
X188519962Y-93324500D01*
X188574500Y-93269962D01*
X188649000Y-93250000D01*
X194851000Y-93250000D01*
X194925500Y-93269962D01*
G37*
G36*
X194925500Y-121269962D02*
G01*
X194980038Y-121324500D01*
X195000000Y-121399000D01*
X195000000Y-124851000D01*
X194980038Y-124925500D01*
X194925500Y-124980038D01*
X194851000Y-125000000D01*
X188649000Y-125000000D01*
X188574500Y-124980038D01*
X188519962Y-124925500D01*
X188500000Y-124851000D01*
X188500000Y-121399000D01*
X188519962Y-121324500D01*
X188574500Y-121269962D01*
X188649000Y-121250000D01*
X194851000Y-121250000D01*
X194925500Y-121269962D01*
G37*
G36*
X194925500Y-87769962D02*
G01*
X194980038Y-87824500D01*
X195000000Y-87899000D01*
X195000000Y-91601000D01*
X194980038Y-91675500D01*
X194925500Y-91730038D01*
X194851000Y-91750000D01*
X188649000Y-91750000D01*
X188574500Y-91730038D01*
X188519962Y-91675500D01*
X188500000Y-91601000D01*
X188500000Y-87899000D01*
X188519962Y-87824500D01*
X188574500Y-87769962D01*
X188649000Y-87750000D01*
X194851000Y-87750000D01*
X194925500Y-87769962D01*
G37*
G36*
X110175500Y-101769962D02*
G01*
X110230038Y-101824500D01*
X110250000Y-101899000D01*
X110250000Y-105601000D01*
X110230038Y-105675500D01*
X110175500Y-105730038D01*
X110101000Y-105750000D01*
X98899000Y-105750000D01*
X98824500Y-105730038D01*
X98769962Y-105675500D01*
X98750000Y-105601000D01*
X98750000Y-101899000D01*
X98769962Y-101824500D01*
X98824500Y-101769962D01*
X98899000Y-101750000D01*
X110101000Y-101750000D01*
X110175500Y-101769962D01*
G37*
G36*
X199175500Y-79269962D02*
G01*
X199230038Y-79324500D01*
X199250000Y-79399000D01*
X199250000Y-83101000D01*
X199230038Y-83175500D01*
X199175500Y-83230038D01*
X199101000Y-83250000D01*
X187899000Y-83250000D01*
X187824500Y-83230038D01*
X187769962Y-83175500D01*
X187750000Y-83101000D01*
X187750000Y-79399000D01*
X187769962Y-79324500D01*
X187824500Y-79269962D01*
X187899000Y-79250000D01*
X199101000Y-79250000D01*
X199175500Y-79269962D01*
G37*
G36*
X109425500Y-74019962D02*
G01*
X109480038Y-74074500D01*
X109500000Y-74149000D01*
X109500000Y-77601000D01*
X109480038Y-77675500D01*
X109425500Y-77730038D01*
X109351000Y-77750000D01*
X103149000Y-77750000D01*
X103074500Y-77730038D01*
X103019962Y-77675500D01*
X103000000Y-77601000D01*
X103000000Y-74149000D01*
X103019962Y-74074500D01*
X103074500Y-74019962D01*
X103149000Y-74000000D01*
X109351000Y-74000000D01*
X109425500Y-74019962D01*
G37*
G36*
X199175500Y-45769962D02*
G01*
X199230038Y-45824500D01*
X199250000Y-45899000D01*
X199250000Y-49601000D01*
X199230038Y-49675500D01*
X199175500Y-49730038D01*
X199101000Y-49750000D01*
X187899000Y-49750000D01*
X187824500Y-49730038D01*
X187769962Y-49675500D01*
X187750000Y-49601000D01*
X187750000Y-45899000D01*
X187769962Y-45824500D01*
X187824500Y-45769962D01*
X187899000Y-45750000D01*
X199101000Y-45750000D01*
X199175500Y-45769962D01*
G37*
G36*
X199175500Y-51269962D02*
G01*
X199230038Y-51324500D01*
X199250000Y-51399000D01*
X199250000Y-55101000D01*
X199230038Y-55175500D01*
X199175500Y-55230038D01*
X199101000Y-55250000D01*
X187899000Y-55250000D01*
X187824500Y-55230038D01*
X187769962Y-55175500D01*
X187750000Y-55101000D01*
X187750000Y-51399000D01*
X187769962Y-51324500D01*
X187824500Y-51269962D01*
X187899000Y-51250000D01*
X199101000Y-51250000D01*
X199175500Y-51269962D01*
G37*
G36*
X199175500Y-59769962D02*
G01*
X199230038Y-59824500D01*
X199250000Y-59899000D01*
X199250000Y-63601000D01*
X199230038Y-63675500D01*
X199175500Y-63730038D01*
X199101000Y-63750000D01*
X187899000Y-63750000D01*
X187824500Y-63730038D01*
X187769962Y-63675500D01*
X187750000Y-63601000D01*
X187750000Y-59899000D01*
X187769962Y-59824500D01*
X187824500Y-59769962D01*
X187899000Y-59750000D01*
X199101000Y-59750000D01*
X199175500Y-59769962D01*
G37*
G36*
X199175500Y-31769962D02*
G01*
X199230038Y-31824500D01*
X199250000Y-31899000D01*
X199250000Y-35601000D01*
X199230038Y-35675500D01*
X199175500Y-35730038D01*
X199101000Y-35750000D01*
X187899000Y-35750000D01*
X187824500Y-35730038D01*
X187769962Y-35675500D01*
X187750000Y-35601000D01*
X187750000Y-31899000D01*
X187769962Y-31824500D01*
X187824500Y-31769962D01*
X187899000Y-31750000D01*
X199101000Y-31750000D01*
X199175500Y-31769962D01*
G37*
M02*
