M48
; DRILL file {KiCad 9.0.8} date 2026-09-10T23:16:32+0900
; FORMAT={-:-/ absolute / metric / decimal}
; #@! TF.CreationDate,2026-09-10T23:16:32+09:00
; #@! TF.GenerationSoftware,Kicad,Pcbnew,9.0.8
; #@! TF.FileFunction,Plated,1,2,PTH
FMAT,2
METRIC
; #@! TA.AperFunction,Plated,PTH,ViaDrill
T1C0.300
; #@! TA.AperFunction,Plated,PTH,ViaDrill
T2C0.400
; #@! TA.AperFunction,Plated,PTH,ViaDrill
T3C0.500
; #@! TA.AperFunction,Plated,PTH,ViaDrill
T4C0.600
; #@! TA.AperFunction,Plated,PTH,ViaDrill
T5C0.700
; #@! TA.AperFunction,Plated,PTH,ComponentDrill
T6C0.700
; #@! TA.AperFunction,Plated,PTH,ComponentDrill
T7C0.900
%
G90
G05
T1
X110.3Y-32.9
X110.3Y-46.9
X110.3Y-60.9
X110.3Y-74.9
X110.9Y-33.6
X110.9Y-47.6
X110.9Y-61.6
X110.9Y-75.6
X111.0Y-92.7
X111.0Y-106.7
X111.0Y-120.7
X111.0Y-134.7
X112.6Y-93.4
X112.6Y-107.4
X112.6Y-121.4
X112.6Y-135.4
X113.1Y-92.1
X113.1Y-106.1
X113.1Y-120.1
X113.1Y-134.1
X113.8Y-91.6
X113.8Y-105.6
X113.8Y-119.6
X113.8Y-133.6
X117.1Y-90.4
X117.1Y-104.4
X117.1Y-118.4
X117.1Y-132.4
X120.5Y-35.9
X120.5Y-49.9
X120.5Y-63.9
X120.5Y-77.9
X121.31Y-40.6
X121.31Y-54.6
X121.31Y-68.6
X121.31Y-82.6
X122.2Y-91.3
X122.2Y-105.3
X122.2Y-119.3
X122.2Y-133.3
X124.95Y-36.4
X124.95Y-50.4
X124.95Y-64.4
X124.95Y-78.4
X125.3Y-34.4
X125.3Y-48.4
X125.3Y-62.4
X125.3Y-76.4
X125.9Y-95.3
X125.9Y-109.3
X125.9Y-123.3
X125.9Y-137.3
X126.5Y-33.7
X126.5Y-47.7
X126.5Y-61.7
X126.5Y-75.7
X127.5Y-35.7
X127.5Y-49.7
X127.5Y-63.7
X127.5Y-77.7
X128.4Y-36.0
X128.4Y-50.0
X128.4Y-64.0
X128.4Y-78.0
X129.6Y-33.2
X129.6Y-47.2
X129.6Y-61.2
X129.6Y-75.2
X130.6Y-90.4
X130.6Y-104.4
X130.6Y-118.4
X130.6Y-132.4
X133.3Y-94.0
X133.3Y-108.0
X133.3Y-122.0
X133.3Y-136.0
X136.1Y-36.5
X136.1Y-50.5
X136.1Y-64.5
X136.1Y-78.5
X161.9Y-92.5
X161.9Y-106.5
X161.9Y-120.5
X161.9Y-134.5
X164.7Y-35.0
X164.7Y-49.0
X164.7Y-63.0
X164.7Y-77.0
X167.4Y-38.6
X167.4Y-52.6
X167.4Y-66.6
X167.4Y-80.6
X168.4Y-95.8
X168.4Y-109.8
X168.4Y-123.8
X168.4Y-137.8
X169.6Y-93.0
X169.6Y-107.0
X169.6Y-121.0
X169.6Y-135.0
X170.5Y-93.3
X170.5Y-107.3
X170.5Y-121.3
X170.5Y-135.3
X171.5Y-95.3
X171.5Y-109.3
X171.5Y-123.3
X171.5Y-137.3
X172.1Y-33.7
X172.1Y-47.7
X172.1Y-61.7
X172.1Y-75.7
X172.7Y-94.6
X172.7Y-108.6
X172.7Y-122.6
X172.7Y-136.6
X173.05Y-92.6
X173.05Y-106.6
X173.05Y-120.6
X173.05Y-134.6
X175.8Y-37.7
X175.8Y-51.7
X175.8Y-65.7
X175.8Y-79.7
X176.69Y-88.4
X176.69Y-102.4
X176.69Y-116.4
X176.69Y-130.4
X177.5Y-93.1
X177.5Y-107.1
X177.5Y-121.1
X177.5Y-135.1
X180.9Y-38.6
X180.9Y-52.6
X180.9Y-66.6
X180.9Y-80.6
X184.2Y-37.4
X184.2Y-51.4
X184.2Y-65.4
X184.2Y-79.4
X184.9Y-36.9
X184.9Y-50.9
X184.9Y-64.9
X184.9Y-78.9
X185.4Y-35.6
X185.4Y-49.6
X185.4Y-63.6
X185.4Y-77.6
X187.0Y-36.3
X187.0Y-50.3
X187.0Y-64.3
X187.0Y-78.3
X187.1Y-95.4
X187.1Y-109.4
X187.1Y-123.4
X187.1Y-137.4
X187.7Y-96.1
X187.7Y-110.1
X187.7Y-124.1
X187.7Y-138.1
T2
X109.0Y-88.4
X109.0Y-102.4
X109.0Y-116.4
X109.0Y-130.4
X113.0Y-94.9
X113.0Y-108.9
X113.0Y-122.9
X113.0Y-136.9
X114.2Y-95.7
X114.2Y-109.7
X114.2Y-123.7
X114.2Y-137.7
X114.6Y-39.6
X114.6Y-53.6
X114.6Y-67.6
X114.6Y-81.6
X115.1Y-94.8
X115.1Y-108.8
X115.1Y-122.8
X115.1Y-136.8
X118.55Y-37.2
X118.55Y-51.2
X118.55Y-65.2
X118.55Y-79.2
X119.2Y-41.0
X119.2Y-55.0
X119.2Y-69.0
X119.2Y-83.0
X119.4Y-33.8
X119.4Y-47.8
X119.4Y-61.8
X119.4Y-75.8
X120.1Y-34.95
X120.1Y-48.95
X120.1Y-62.95
X120.1Y-76.95
X122.4Y-37.3
X122.4Y-51.3
X122.4Y-65.3
X122.4Y-79.3
X123.8Y-32.5
X123.8Y-46.5
X123.8Y-60.5
X123.8Y-74.5
X125.0Y-87.8
X125.0Y-101.8
X125.0Y-115.8
X125.0Y-129.8
X126.35Y-39.7
X126.35Y-53.7
X126.35Y-67.7
X126.35Y-81.7
X127.45Y-40.0
X127.45Y-54.0
X127.45Y-68.0
X127.45Y-82.0
X129.675Y-90.9
X129.675Y-104.9
X129.675Y-118.9
X129.675Y-132.9
X130.2Y-36.3
X130.2Y-50.3
X130.2Y-64.3
X130.2Y-78.3
X132.0Y-87.5
X132.0Y-101.5
X132.0Y-115.5
X132.0Y-129.5
X132.3Y-38.1
X132.3Y-52.1
X132.3Y-66.1
X132.3Y-80.1
X133.4Y-90.3
X133.4Y-104.3
X133.4Y-118.3
X133.4Y-132.3
X134.5Y-90.3
X134.5Y-104.3
X134.5Y-118.3
X134.5Y-132.3
X163.5Y-38.7
X163.5Y-52.7
X163.5Y-66.7
X163.5Y-80.7
X164.6Y-38.7
X164.6Y-52.7
X164.6Y-66.7
X164.6Y-80.7
X165.7Y-90.9
X165.7Y-104.9
X165.7Y-118.9
X165.7Y-132.9
X166.0Y-41.5
X166.0Y-55.5
X166.0Y-69.5
X166.0Y-83.5
X167.8Y-92.7
X167.8Y-106.7
X167.8Y-120.7
X167.8Y-134.7
X168.325Y-38.1
X168.325Y-52.1
X168.325Y-66.1
X168.325Y-80.1
X170.55Y-89.0
X170.55Y-103.0
X170.55Y-117.0
X170.55Y-131.0
X171.65Y-89.3
X171.65Y-103.3
X171.65Y-117.3
X171.65Y-131.3
X173.0Y-41.2
X173.0Y-55.2
X173.0Y-69.2
X173.0Y-83.2
X174.2Y-96.5
X174.2Y-110.5
X174.2Y-124.5
X174.2Y-138.5
X175.6Y-91.7
X175.6Y-105.7
X175.6Y-119.7
X175.6Y-133.7
X177.9Y-94.05
X177.9Y-108.05
X177.9Y-122.05
X177.9Y-136.05
X178.6Y-95.2
X178.6Y-109.2
X178.6Y-123.2
X178.6Y-137.2
X178.8Y-88.0
X178.8Y-102.0
X178.8Y-116.0
X178.8Y-130.0
X179.45Y-91.8
X179.45Y-105.8
X179.45Y-119.8
X179.45Y-133.8
X182.9Y-34.2
X182.9Y-48.2
X182.9Y-62.2
X182.9Y-76.2
X183.4Y-89.4
X183.4Y-103.4
X183.4Y-117.4
X183.4Y-131.4
X183.8Y-33.3
X183.8Y-47.3
X183.8Y-61.3
X183.8Y-75.3
X185.0Y-34.1
X185.0Y-48.1
X185.0Y-62.1
X185.0Y-76.1
X189.0Y-40.6
X189.0Y-54.6
X189.0Y-68.6
X189.0Y-82.6
T3
X111.3Y-93.8
X111.3Y-107.8
X111.3Y-121.8
X111.3Y-135.8
X186.7Y-35.2
X186.7Y-49.2
X186.7Y-63.2
X186.7Y-77.2
T4
X117.3Y-93.8
X117.3Y-107.8
X117.3Y-121.8
X117.3Y-135.8
X180.7Y-35.2
X180.7Y-49.2
X180.7Y-63.2
X180.7Y-77.2
T5
X108.75Y-35.0
X108.75Y-49.0
X108.75Y-63.0
X108.75Y-77.0
X110.25Y-35.0
X110.25Y-49.0
X110.25Y-63.0
X110.25Y-77.0
X112.7Y-37.6
X112.7Y-51.6
X112.7Y-65.6
X112.7Y-79.6
X114.25Y-37.6
X114.25Y-51.6
X114.25Y-65.6
X114.25Y-79.6
X114.4Y-31.9
X114.4Y-45.9
X114.4Y-59.9
X114.4Y-73.9
X115.8Y-31.9
X115.8Y-45.9
X115.8Y-59.9
X115.8Y-73.9
X126.1Y-92.7
X126.1Y-106.7
X126.1Y-120.7
X126.1Y-134.7
X127.3Y-94.2
X127.3Y-108.2
X127.3Y-122.2
X127.3Y-136.2
X127.4Y-92.5
X127.4Y-106.5
X127.4Y-120.5
X127.4Y-134.5
X128.35Y-96.3
X128.35Y-110.3
X128.35Y-124.3
X128.35Y-138.3
X128.7Y-94.2
X128.7Y-108.2
X128.7Y-122.2
X128.7Y-136.2
X129.75Y-96.3
X129.75Y-110.3
X129.75Y-124.3
X129.75Y-138.3
X130.0Y-39.5
X130.0Y-53.5
X130.0Y-67.5
X130.0Y-81.5
X130.45Y-34.4
X130.45Y-48.4
X130.45Y-62.4
X130.45Y-76.4
X132.0Y-33.9
X132.0Y-39.5
X132.0Y-47.9
X132.0Y-53.5
X132.0Y-61.9
X132.0Y-67.5
X132.0Y-75.9
X132.0Y-81.5
X133.5Y-33.9
X133.5Y-47.9
X133.5Y-61.9
X133.5Y-75.9
X134.0Y-39.5
X134.0Y-53.5
X134.0Y-67.5
X134.0Y-81.5
X135.5Y-91.4
X135.5Y-105.4
X135.5Y-119.4
X135.5Y-133.4
X136.0Y-89.6
X136.0Y-103.6
X136.0Y-117.6
X136.0Y-131.6
X137.0Y-91.4
X137.0Y-105.4
X137.0Y-119.4
X137.0Y-133.4
X137.4Y-89.6
X137.4Y-103.6
X137.4Y-117.6
X137.4Y-131.6
X139.0Y-97.4
X139.0Y-111.4
X139.0Y-125.4
X139.0Y-139.4
X140.2Y-89.6
X140.2Y-103.6
X140.2Y-117.6
X140.2Y-131.6
X140.5Y-97.4
X140.5Y-111.4
X140.5Y-125.4
X140.5Y-139.4
X141.6Y-89.6
X141.6Y-103.6
X141.6Y-117.6
X141.6Y-131.6
X156.4Y-39.4
X156.4Y-53.4
X156.4Y-67.4
X156.4Y-81.4
X157.5Y-31.6
X157.5Y-45.6
X157.5Y-59.6
X157.5Y-73.6
X157.8Y-39.4
X157.8Y-53.4
X157.8Y-67.4
X157.8Y-81.4
X159.0Y-31.6
X159.0Y-45.6
X159.0Y-59.6
X159.0Y-73.6
X160.6Y-39.4
X160.6Y-53.4
X160.6Y-67.4
X160.6Y-81.4
X161.0Y-37.6
X161.0Y-51.6
X161.0Y-65.6
X161.0Y-79.6
X162.0Y-39.4
X162.0Y-53.4
X162.0Y-67.4
X162.0Y-81.4
X162.5Y-37.6
X162.5Y-51.6
X162.5Y-65.6
X162.5Y-79.6
X164.0Y-89.5
X164.0Y-103.5
X164.0Y-117.5
X164.0Y-131.5
X164.5Y-95.1
X164.5Y-109.1
X164.5Y-123.1
X164.5Y-137.1
X166.0Y-89.5
X166.0Y-95.1
X166.0Y-103.5
X166.0Y-109.1
X166.0Y-117.5
X166.0Y-123.1
X166.0Y-131.5
X166.0Y-137.1
X167.55Y-94.6
X167.55Y-108.6
X167.55Y-122.6
X167.55Y-136.6
X168.0Y-89.5
X168.0Y-103.5
X168.0Y-117.5
X168.0Y-131.5
X168.25Y-32.7
X168.25Y-46.7
X168.25Y-60.7
X168.25Y-74.7
X169.3Y-34.8
X169.3Y-48.8
X169.3Y-62.8
X169.3Y-76.8
X169.65Y-32.7
X169.65Y-46.7
X169.65Y-60.7
X169.65Y-74.7
X170.6Y-36.5
X170.6Y-50.5
X170.6Y-64.5
X170.6Y-78.5
X170.7Y-34.8
X170.7Y-48.8
X170.7Y-62.8
X170.7Y-76.8
X171.9Y-36.3
X171.9Y-50.3
X171.9Y-64.3
X171.9Y-78.3
X182.2Y-97.1
X182.2Y-111.1
X182.2Y-125.1
X182.2Y-139.1
X183.6Y-97.1
X183.6Y-111.1
X183.6Y-125.1
X183.6Y-139.1
X183.75Y-91.4
X183.75Y-105.4
X183.75Y-119.4
X183.75Y-133.4
X185.3Y-91.4
X185.3Y-105.4
X185.3Y-119.4
X185.3Y-133.4
X187.75Y-94.0
X187.75Y-108.0
X187.75Y-122.0
X187.75Y-136.0
X189.25Y-94.0
X189.25Y-108.0
X189.25Y-122.0
X189.25Y-136.0
T6
X132.365Y-35.4
X132.365Y-49.4
X132.365Y-63.4
X132.365Y-77.4
X133.635Y-35.4
X133.635Y-49.4
X133.635Y-63.4
X133.635Y-77.4
X164.365Y-93.6
X164.365Y-107.6
X164.365Y-121.6
X164.365Y-135.6
X165.635Y-93.6
X165.635Y-107.6
X165.635Y-121.6
X165.635Y-135.6
T7
X97.75Y-34.75
X97.75Y-48.75
X97.75Y-62.75
X97.75Y-76.75
X99.5Y-41.5
X99.5Y-55.5
X99.5Y-69.5
X99.5Y-83.5
X139.05Y-31.65
X139.05Y-45.65
X139.05Y-59.65
X139.05Y-73.65
X139.1Y-39.4
X139.1Y-53.4
X139.1Y-67.4
X139.1Y-81.4
X158.9Y-89.6
X158.9Y-103.6
X158.9Y-117.6
X158.9Y-131.6
X158.95Y-97.35
X158.95Y-111.35
X158.95Y-125.35
X158.95Y-139.35
X198.5Y-87.5
X198.5Y-101.5
X198.5Y-115.5
X198.5Y-129.5
X200.25Y-94.25
X200.25Y-108.25
X200.25Y-122.25
X200.25Y-136.25
M30
